v -1.3863130 2.9892521 1.0839880
vn 1.0000000 0.0000000 0.0000000
vt 0.6237239 0.8192250
v -1.3863130 3.3783870 0.8593387
vn 1.0000000 0.0000000 0.0000000
vt 0.6520059 0.8028978
v -1.3863130 3.1537189 1.2484560
vn 1.0000000 0.0000000 0.0000000
vt 0.6356772 0.8311781
v -1.3863130 3.3783870 1.3086550
vn 1.0000000 0.0000000 0.0000000
vt 0.6520059 0.8355537
v -1.3863130 3.6030540 1.2484560
vn 1.0000000 0.0000000 0.0000000
vt 0.6683344 0.8311784
v -1.3863130 3.7675209 1.0839880
vn 1.0000000 0.0000000 0.0000000
vt 0.6802878 0.8192250
v -1.3863130 3.8277211 0.8593210
vn 1.0000000 0.0000000 0.0000000
vt 0.6846635 0.8028964
v -1.3863130 3.7675209 0.6346539
vn 1.0000000 0.0000000 0.0000000
vt 0.6802879 0.7865677
v -1.3863130 3.6030540 0.4701862
vn 1.0000000 0.0000000 0.0000000
vt 0.6683345 0.7746144
v -1.3863130 3.3783860 0.4099866
vn 1.0000000 0.0000000 0.0000000
vt 0.6520060 0.7702394
v -1.3863130 3.1537189 0.4701862
vn 1.0000000 0.0000000 0.0000000
vt 0.6356773 0.7746146
v -1.3863130 2.9892521 0.6346539
vn 1.0000000 0.0000000 0.0000000
vt 0.6237239 0.7865679
v -1.3863130 2.9290521 0.8593210
vn 1.0000000 0.0000000 0.0000000
vt 0.6193489 0.8028965
v -1.7378540 3.1537189 1.2484560
vn 0.0000000 -0.5000000 0.8660254
vt 0.6019242 0.7700411
v -1.7378540 2.9892521 1.0839880
vn 0.0000000 -0.8660252 0.5000005
vt 0.6139217 0.7700411
v -1.3863130 2.9892521 1.0839880
vn 0.0000000 -0.8660252 0.5000005
vt 0.6139217 0.7955058
v -1.3863130 3.1537189 1.2484560
vn 0.0000000 -0.5000000 0.8660254
vt 0.6019242 0.7955058
v -1.7378540 3.3783870 1.3086550
vn 0.0000000 0.0000000 1.0000000
vt 0.5848494 0.7700411
v -1.3863130 3.3783870 1.3086550
vn 0.0000000 0.0000000 1.0000000
vt 0.5848494 0.7955058
v -1.7378540 3.6030540 1.2484560
vn 0.0000000 0.4999999 0.8660255
vt 0.5728549 0.7700411
v -1.3863130 3.6030540 1.2484560
vn 0.0000000 0.4999999 0.8660255
vt 0.5728549 0.7955058
v -1.7378540 3.7675209 1.0839880
vn 0.0000000 0.8660252 0.5000005
vt 0.6019242 0.7700411
v -1.7378540 3.6030540 1.2484560
vn 0.0000000 0.4999999 0.8660255
vt 0.6139216 0.7700411
v -1.3863130 3.6030540 1.2484560
vn 0.0000000 0.4999999 0.8660255
vt 0.6139216 0.7955058
v -1.3863130 3.7675209 1.0839880
vn 0.0000000 0.8660252 0.5000005
vt 0.6019242 0.7955058
v -1.7378540 3.8277211 0.8593210
vn 0.0000000 1.0000000 0.0000000
vt 0.5848494 0.7700411
v -1.3863130 3.8277211 0.8593210
vn 0.0000000 1.0000000 0.0000000
vt 0.5848494 0.7955058
v -1.7378540 3.7675209 0.6346539
vn 0.0000000 0.8660252 -0.5000005
vt 0.5728550 0.7700411
v -1.3863130 3.7675209 0.6346539
vn 0.0000000 0.8660252 -0.5000005
vt 0.5728550 0.7955058
v -1.7378540 3.6030540 0.4701862
vn 0.0000000 0.5000002 -0.8660253
vt 0.6019242 0.7700411
v -1.7378540 3.7675209 0.6346539
vn 0.0000000 0.8660252 -0.5000005
vt 0.6139216 0.7700411
v -1.3863130 3.7675209 0.6346539
vn 0.0000000 0.8660252 -0.5000005
vt 0.6139216 0.7955058
v -1.3863130 3.6030540 0.4701862
vn 0.0000000 0.5000002 -0.8660253
vt 0.6019242 0.7955058
v -1.7378540 3.3783860 0.4099866
vn 0.0000000 0.0000000 -1.0000000
vt 0.5848494 0.7700411
v -1.3863130 3.3783860 0.4099866
vn 0.0000000 0.0000000 -1.0000000
vt 0.5848494 0.7955058
v -1.7378540 3.1537189 0.4701862
vn 0.0000000 -0.5000007 -0.8660251
vt 0.5728550 0.7700411
v -1.3863130 3.1537189 0.4701862
vn 0.0000000 -0.5000007 -0.8660251
vt 0.5728550 0.7955058
v -1.7378540 2.9892521 0.6346539
vn 0.0000000 -0.8660252 -0.5000005
vt 0.6019242 0.7700411
v -1.7378540 3.1537189 0.4701862
vn 0.0000000 -0.5000007 -0.8660251
vt 0.6139216 0.7700411
v -1.3863130 3.1537189 0.4701862
vn 0.0000000 -0.5000007 -0.8660251
vt 0.6139216 0.7955058
v -1.3863130 2.9892521 0.6346539
vn 0.0000000 -0.8660252 -0.5000005
vt 0.6019242 0.7955058
v -1.7378540 2.9290521 0.8593210
vn 0.0000000 -1.0000000 0.0000000
vt 0.5848494 0.7700411
v -1.3863130 2.9290521 0.8593210
vn 0.0000000 -1.0000000 0.0000000
vt 0.5848494 0.7955058
v -1.7378540 2.9892521 1.0839880
vn 0.0000000 -0.8660252 0.5000005
vt 0.5728550 0.7700411
v -1.3863130 2.9892521 1.0839880
vn 0.0000000 -0.8660252 0.5000005
vt 0.5728550 0.7955058
v -1.7378540 3.1537189 1.2484560
vn -1.0000000 0.0000000 0.0000000
vt 0.6683344 0.8311781
v -1.7378540 3.3783870 0.8593387
vn -1.0000000 0.0000000 0.0000000
vt 0.6520059 0.8028977
v -1.7378540 2.9892521 1.0839880
vn -1.0000000 0.0000000 0.0000000
vt 0.6802880 0.8192249
v -1.7378540 3.3783870 1.3086550
vn -1.0000000 0.0000000 0.0000000
vt 0.6520059 0.8355537
v -1.7378540 3.6030540 1.2484560
vn -1.0000000 0.0000000 0.0000000
vt 0.6356772 0.8311787
v -1.7378540 3.7675209 1.0839880
vn -1.0000000 0.0000000 0.0000000
vt 0.6237238 0.8192251
v -1.7378540 3.8277211 0.8593210
vn -1.0000000 0.0000000 0.0000000
vt 0.6193489 0.8028967
v -1.7378540 3.7675209 0.6346539
vn -1.0000000 0.0000000 0.0000000
vt 0.6237243 0.7865680
v -1.7378540 3.6030540 0.4701862
vn -1.0000000 0.0000000 0.0000000
vt 0.6356774 0.7746149
v -1.7378540 3.3783860 0.4099866
vn -1.0000000 0.0000000 0.0000000
vt 0.6520060 0.7702396
v -1.7378540 3.1537189 0.4701862
vn -1.0000000 0.0000000 0.0000000
vt 0.6683343 0.7746140
v -1.7378540 2.9892521 0.6346539
vn -1.0000000 0.0000000 0.0000000
vt 0.6802882 0.7865679
v -1.7378540 2.9290521 0.8593210
vn -1.0000000 0.0000000 0.0000000
vt 0.6846632 0.8028961
v -1.1889160 3.3783860 1.0603200
vn 0.0000000 0.0000000 1.0000000
vt 0.6275572 0.6881329
v -1.6792530 3.3783860 1.0603200
vn 0.0000000 0.0000000 1.0000000
vt 0.6275572 0.7190539
v -1.6792530 3.2043231 0.9598236
vn 0.0000000 -0.8660257 0.4999995
vt 0.6398365 0.7190539
v -1.1889160 3.2043231 0.9598236
vn 0.0000000 -0.8660257 0.4999995
vt 0.6398364 0.6881329
v -1.1889160 3.5524499 0.9598236
vn 0.0000000 0.8660257 0.4999995
vt 0.6142076 0.6881329
v -1.6792530 3.5524499 0.9598236
vn 0.0000000 0.8660257 0.4999995
vt 0.6142076 0.7190539
v -1.1889160 3.5524499 0.7588321
vn 0.0000000 0.8660017 -0.5000411
vt 0.6018460 0.6881329
v -1.6792530 3.5524499 0.7588321
vn 0.0000000 0.8660017 -0.5000411
vt 0.6018460 0.7190539
v -1.1889160 3.3783860 0.6583585
vn 0.0000000 0.0000000 -1.0000000
vt 0.6275572 0.6881329
v -1.6792530 3.3783860 0.6583585
vn 0.0000000 0.0000000 -1.0000000
vt 0.6275572 0.7190539
v -1.6792530 3.5524499 0.7588321
vn 0.0000000 0.8660017 -0.5000411
vt 0.6398364 0.7190539
v -1.1889160 3.5524499 0.7588321
vn 0.0000000 0.8660017 -0.5000411
vt 0.6398364 0.6881329
v -1.1889160 3.2043231 0.7588321
vn 0.0000000 -0.8660017 -0.5000411
vt 0.6142076 0.6881329
v -1.6792530 3.2043231 0.7588321
vn 0.0000000 -0.8660017 -0.5000411
vt 0.6142076 0.7190539
v -1.1889160 3.2043231 0.9598236
vn 0.0000000 -0.8660257 0.4999995
vt 0.6018460 0.6881329
v -1.6792530 3.2043231 0.9598236
vn 0.0000000 -0.8660257 0.4999995
vt 0.6018460 0.7190539
v -1.1889160 3.3783860 1.0603200
vn 1.0000000 0.0000000 0.0000000
vt 0.6025029 0.8279456
v -1.1889160 3.5524499 0.7588321
vn 1.0000000 0.0000000 0.0000000
vt 0.6151537 0.8060335
v -1.1889160 3.5524499 0.9598236
vn 1.0000000 0.0000000 0.0000000
vt 0.6151537 0.8206416
v -1.1889160 3.2043231 0.7588321
vn 1.0000000 0.0000000 0.0000000
vt 0.5898521 0.8060337
v -1.1889160 3.3783860 0.6583585
vn 1.0000000 0.0000000 0.0000000
vt 0.6025029 0.7987313
v -1.1889160 3.2043231 0.9598236
vn 1.0000000 0.0000000 0.0000000
vt 0.5898521 0.8206416

g group_62985120_105553120375808
f 1/1/1 2/2/2 3/3/3 
f 3/3/3 2/2/2 4/4/4 
f 4/4/4 2/2/2 5/5/5 
f 5/5/5 2/2/2 6/6/6 
f 6/6/6 2/2/2 7/7/7 
f 7/7/7 2/2/2 8/8/8 
f 8/8/8 2/2/2 9/9/9 
f 9/9/9 2/2/2 10/10/10 
f 10/10/10 2/2/2 11/11/11 
f 11/11/11 2/2/2 12/12/12 
f 12/12/12 2/2/2 13/13/13 
f 13/13/13 2/2/2 1/1/1 
f 14/14/14 15/15/15 16/16/16 
f 14/14/14 16/16/16 17/17/17 
f 18/18/18 14/14/14 17/17/17 
f 18/18/18 17/17/17 19/19/19 
f 20/20/20 18/18/18 19/19/19 
f 20/20/20 19/19/19 21/21/21 
f 22/22/22 23/23/23 24/24/24 
f 22/22/22 24/24/24 25/25/25 
f 26/26/26 22/22/22 25/25/25 
f 26/26/26 25/25/25 27/27/27 
f 28/28/28 26/26/26 27/27/27 
f 28/28/28 27/27/27 29/29/29 
f 30/30/30 31/31/31 32/32/32 
f 30/30/30 32/32/32 33/33/33 
f 34/34/34 30/30/30 33/33/33 
f 34/34/34 33/33/33 35/35/35 
f 36/36/36 34/34/34 35/35/35 
f 36/36/36 35/35/35 37/37/37 
f 38/38/38 39/39/39 40/40/40 
f 38/38/38 40/40/40 41/41/41 
f 42/42/42 38/38/38 41/41/41 
f 42/42/42 41/41/41 43/43/43 
f 44/44/44 42/42/42 43/43/43 
f 44/44/44 43/43/43 45/45/45 
f 46/46/46 47/47/47 48/48/48 
f 49/49/49 47/47/47 46/46/46 
f 50/50/50 47/47/47 49/49/49 
f 51/51/51 47/47/47 50/50/50 
f 52/52/52 47/47/47 51/51/51 
f 53/53/53 47/47/47 52/52/52 
f 54/54/54 47/47/47 53/53/53 
f 55/55/55 47/47/47 54/54/54 
f 56/56/56 47/47/47 55/55/55 
f 57/57/57 47/47/47 56/56/56 
f 58/58/58 47/47/47 57/57/57 
f 48/48/48 47/47/47 58/58/58 
f 59/59/59 60/60/60 61/61/61 
f 59/59/59 61/61/61 62/62/62 
f 63/63/63 64/64/64 60/60/60 
f 63/63/63 60/60/60 59/59/59 
f 65/65/65 66/66/66 64/64/64 
f 65/65/65 64/64/64 63/63/63 
f 67/67/67 68/68/68 69/69/69 
f 67/67/67 69/69/69 70/70/70 
f 71/71/71 72/72/72 68/68/68 
f 71/71/71 68/68/68 67/67/67 
f 73/73/73 74/74/74 72/72/72 
f 73/73/73 72/72/72 71/71/71 
f 75/75/75 76/76/76 77/77/77 
f 75/75/75 78/78/78 79/79/79 
f 75/75/75 79/79/79 76/76/76 
f 75/75/75 80/80/80 78/78/78 
