v 1.3253610 -2.9876671 0.9761803
vn 0.3998553 0.7202976 0.5668221
vt 0.0092473 0.7691769
v 1.7395149 -3.1393299 0.8602240
vn 0.4249192 0.8777640 0.2213008
vt 0.0196525 0.7362699
v 1.3253610 -2.9876671 0.6002568
vn 0.3862062 0.8534180 -0.3500323
vt 0.0542699 0.7691769
v 1.7395149 -3.1691661 0.6441336
vn 0.3901812 0.6370723 -0.6647539
vt 0.0438646 0.7362699
v 1.3253610 -2.9876671 0.6002568
vn 0.3862062 0.8534180 -0.3500323
vt 0.0092473 0.7691769
v 1.7395149 -3.1691661 0.6441336
vn 0.3901812 0.6370723 -0.6647539
vt 0.0196525 0.7362699
v 1.3253610 -3.3132260 0.4122455
vn 0.3617463 0.0000000 -0.9322766
vt 0.0542699 0.7691769
v 1.7395149 -3.3132260 0.5844620
vn 0.3839546 0.0000000 -0.9233520
vt 0.0438646 0.7362699
v 1.3253610 -3.6387861 0.6002570
vn 0.3862062 -0.8534176 -0.3500333
vt 0.0542699 0.7691769
v 1.3253610 -3.3132260 0.4122455
vn 0.3617463 0.0000000 -0.9322766
vt 0.0092473 0.7691769
v 1.7395149 -3.4572859 0.6441336
vn 0.3901806 -0.6370721 -0.6647543
vt 0.0438646 0.7362699
v 1.7395149 -3.3132260 0.5844620
vn 0.3839546 0.0000000 -0.9233520
vt 0.0196525 0.7362699
v 1.3253610 -3.6387861 0.9761804
vn 0.3998553 -0.7202973 0.5668222
vt 0.0542699 0.7691769
v 1.3253610 -3.6387861 0.6002570
vn 0.3862062 -0.8534176 -0.3500333
vt 0.0092473 0.7691769
v 1.7395149 -3.4871221 0.8602240
vn 0.4249195 -0.8777642 0.2212997
vt 0.0438646 0.7362699
v 1.7395149 -3.4572859 0.6441336
vn 0.3901806 -0.6370721 -0.6647543
vt 0.0196525 0.7362699
v 1.3253610 -3.3132260 1.1641420
vn 0.3839546 0.0000000 0.9233520
vt 0.0542699 0.7691769
v 1.3253610 -3.6387861 0.9761804
vn 0.3998553 -0.7202973 0.5668222
vt 0.0092473 0.7691769
v 1.7395149 -3.3132260 0.9919260
vn 0.4346488 0.0000000 0.9006000
vt 0.0438646 0.7362699
v 1.7395149 -3.4871221 0.8602240
vn 0.4249195 -0.8777642 0.2212997
vt 0.0196525 0.7362699
v 1.3253610 -3.3132260 1.1641420
vn 0.3839546 0.0000000 0.9233520
vt 0.0092473 0.7691769
v 1.7395149 -3.3132260 0.9919260
vn 0.4346488 0.0000000 0.9006000
vt 0.0196525 0.7362699
v 1.3253610 -2.9876671 0.9761803
vn 0.3998553 0.7202976 0.5668221
vt 0.0542699 0.7691769
v 1.7395149 -3.1393299 0.8602240
vn 0.4249192 0.8777640 0.2213008
vt 0.0438646 0.7362699
v 1.8050680 -3.3001320 1.2219549
vn 1.0000000 0.0000000 0.0000000
vt 0.0600955 0.9104283
v 1.8050680 -3.3501980 1.2219549
vn 1.0000000 0.0000000 0.0000000
vt 0.0600955 0.9048353
v 1.8050680 -3.3662441 1.1426140
vn 1.0000000 0.0000000 0.0000000
vt 0.0688570 0.9030589
v 1.8050680 -3.2840860 1.1426140
vn 1.0000000 0.0000000 0.0000000
vt 0.0688570 0.9122047
v 1.8050680 -3.1351359 1.1839260
vn 1.0000000 0.0000000 0.0000000
vt 0.0600955 0.9104283
v 1.8050680 -3.1813900 1.2030849
vn 1.0000000 0.0000000 0.0000000
vt 0.0600955 0.9048353
v 1.8050680 -3.2265780 1.1359251
vn 1.0000000 0.0000000 0.0000000
vt 0.0688570 0.9030589
v 1.8050680 -3.1506729 1.1044840
vn 1.0000000 0.0000000 0.0000000
vt 0.0688570 0.9122047
v 1.8050680 -2.9972520 1.0856510
vn 1.0000000 0.0000000 0.0000000
vt 0.0600955 0.9104283
v 1.8050680 -3.0326540 1.1210520
vn 1.0000000 0.0000000 0.0000000
vt 0.0600955 0.9048353
v 1.8050680 -3.1001029 1.0762960
vn 1.0000000 0.0000000 0.0000000
vt 0.0688570 0.9030589
v 1.8050680 -3.0420079 1.0182019
vn 1.0000000 0.0000000 0.0000000
vt 0.0688570 0.9122047
v 1.8050680 -2.9074731 0.9420901
vn 1.0000000 0.0000000 0.0000000
vt 0.0600955 0.9104283
v 1.8050680 -2.9266310 0.9883447
vn 1.0000000 0.0000000 0.0000000
vt 0.0600955 0.9048353
v 1.8050680 -3.0060740 0.9728072
vn 1.0000000 0.0000000 0.0000000
vt 0.0688570 0.9030589
v 1.8050680 -2.9746330 0.8969029
vn 1.0000000 0.0000000 0.0000000
vt 0.0688570 0.9122047
v 1.8050680 -2.8794651 0.7751003
vn 1.0000000 0.0000000 0.0000000
vt 0.0600955 0.9104283
v 1.8050680 -2.8794651 0.8251660
vn 1.0000000 0.0000000 0.0000000
vt 0.0600955 0.9048353
v 1.8050680 -2.9588060 0.8412122
vn 1.0000000 0.0000000 0.0000000
vt 0.0688570 0.9030589
v 1.8050680 -2.9588060 0.7590541
vn 1.0000000 0.0000000 0.0000000
vt 0.0688570 0.9122047
v 1.8050680 -3.6292000 0.4907370
vn 1.0000000 0.0000000 0.0000000
vt 0.0600955 0.9104283
v 1.8050680 -3.5937979 0.4553354
vn 1.0000000 0.0000000 0.0000000
vt 0.0600955 0.9048353
v 1.8050680 -3.5263491 0.5000912
vn 1.0000000 0.0000000 0.0000000
vt 0.0688570 0.9030589
v 1.8050680 -3.5844431 0.5581857
vn 1.0000000 0.0000000 0.0000000
vt 0.0688570 0.9122047
v 1.8050680 -3.7189789 0.6342975
vn 1.0000000 0.0000000 0.0000000
vt 0.0600955 0.9104283
v 1.8050680 -3.6998200 0.5880429
vn 1.0000000 0.0000000 0.0000000
vt 0.0600955 0.9048353
v 1.8050680 -3.6203780 0.6035806
vn 1.0000000 0.0000000 0.0000000
vt 0.0688570 0.9030589
v 1.8050680 -3.6518190 0.6794849
vn 1.0000000 0.0000000 0.0000000
vt 0.0688570 0.9122047
v 1.8050680 -3.7469871 0.8012875
vn 1.0000000 0.0000000 0.0000000
vt 0.0600955 0.9104283
v 1.8050680 -3.7469871 0.7512216
vn 1.0000000 0.0000000 0.0000000
vt 0.0600955 0.9048353
v 1.8050680 -3.6676459 0.7351755
vn 1.0000000 0.0000000 0.0000000
vt 0.0688570 0.9030589
v 1.8050680 -3.6676459 0.8173337
vn 1.0000000 0.0000000 0.0000000
vt 0.0688570 0.9122047
v 1.8050680 -3.7089579 0.9662839
vn 1.0000000 0.0000000 0.0000000
vt 0.0600955 0.9104283
v 1.8050680 -3.7281170 0.9200293
vn 1.0000000 0.0000000 0.0000000
vt 0.0600955 0.9048353
v 1.8050680 -3.6609559 0.8748419
vn 1.0000000 0.0000000 0.0000000
vt 0.0688570 0.9030589
v 1.8050680 -3.6295159 0.9507462
vn 1.0000000 0.0000000 0.0000000
vt 0.0688570 0.9122047
v 1.8050680 -3.6106830 1.1041681
vn 1.0000000 0.0000000 0.0000000
vt 0.0600955 0.9104283
v 1.8050680 -3.6460850 1.0687660
vn 1.0000000 0.0000000 0.0000000
vt 0.0600955 0.9048353
v 1.8050680 -3.6013279 1.0013170
vn 1.0000000 0.0000000 0.0000000
vt 0.0688570 0.9030589
v 1.8050680 -3.5432341 1.0594120
vn 1.0000000 0.0000000 0.0000000
vt 0.0688570 0.9122047
v 1.8050680 -3.4671221 1.1939470
vn 1.0000000 0.0000000 0.0000000
vt 0.0600955 0.9104283
v 1.8050680 -3.5133760 1.1747880
vn 1.0000000 0.0000000 0.0000000
vt 0.0600955 0.9048353
v 1.8050680 -3.4978390 1.0953460
vn 1.0000000 0.0000000 0.0000000
vt 0.0688570 0.9030589
v 1.8050680 -3.4219351 1.1267869
vn 1.0000000 0.0000000 0.0000000
vt 0.0688570 0.9122047
v 1.7395149 -2.9766099 0.9824019
vn 0.0000000 0.8660256 0.4999998
vt 0.4384965 0.7058435
v 1.7395149 -3.1188841 1.1246760
vn 0.0000000 0.5000001 0.8660254
vt 0.4385004 0.6893900
v 1.8065400 -3.1188841 1.1246760
vn 0.0000000 0.5000001 0.8660254
vt 0.4330655 0.6893921
v 1.8065400 -2.9766099 0.9824019
vn 0.0000000 0.8660256 0.4999998
vt 0.4330610 0.7058453
v 1.7395149 -2.9245341 0.7880521
vn 0.0000000 1.0000000 0.0000000
vt 0.4385014 0.6784604
v 1.7395149 -2.9766099 0.9824019
vn 0.0000000 0.8660256 0.4999998
vt 0.4385010 0.6619799
v 1.8065400 -2.9766099 0.9824019
vn 0.0000000 0.8660256 0.4999998
vt 0.4330609 0.6619805
v 1.8065400 -2.9245341 0.7880521
vn 0.0000000 1.0000000 0.0000000
vt 0.4330564 0.6784067
v 1.7395149 -3.1188841 0.4514285
vn 0.0000000 0.5000001 -0.8660254
vt 0.4384987 0.7069868
v 1.7395149 -2.9766099 0.5937024
vn 0.0000000 0.8660254 -0.5000001
vt 0.4385001 0.6944668
v 1.8065400 -2.9766099 0.5937024
vn 0.0000000 0.8660254 -0.5000001
vt 0.4330530 0.6947012
v 1.8065400 -3.1188841 0.4514285
vn 0.0000000 0.5000001 -0.8660254
vt 0.4330516 0.7072226
v 1.7395149 -3.3132341 0.3993527
vn 0.0000000 0.0000000 -1.0000000
vt 0.4385060 0.6620340
v 1.7395149 -3.1188841 0.4514285
vn 0.0000000 0.5000001 -0.8660254
vt 0.4385080 0.6450323
v 1.8065400 -3.1188841 0.4514285
vn 0.0000000 0.5000001 -0.8660254
vt 0.4330873 0.6450489
v 1.8065400 -3.3132341 0.3993527
vn 0.0000000 0.0000000 -1.0000000
vt 0.4330853 0.6619867
v 1.7395149 -3.5075829 0.4514285
vn 0.0000000 -0.5000001 -0.8660254
vt 0.4385042 0.6784527
v 1.8065400 -3.5075829 0.4514285
vn 0.0000000 -0.5000001 -0.8660254
vt 0.4330833 0.6783894
v 1.7395149 -3.7019329 0.7880521
vn 0.0000000 -1.0000000 0.0000000
vt 0.4385017 0.7070395
v 1.7395149 -3.6498570 0.5937024
vn 0.0000000 -0.8660254 -0.5000001
vt 0.4385027 0.6945205
v 1.8065400 -3.6498570 0.5937024
vn 0.0000000 -0.8660254 -0.5000001
vt 0.4330812 0.6946823
v 1.8065400 -3.7019329 0.7880521
vn 0.0000000 -1.0000000 0.0000000
vt 0.4330797 0.7071964
v 1.7395149 -3.6498570 0.9824017
vn 0.0000000 -0.8660257 0.4999995
vt 0.4385008 0.6838863
v 1.7395149 -3.7019329 0.7880521
vn 0.0000000 -1.0000000 0.0000000
vt 0.4385031 0.6673438
v 1.8065400 -3.7019329 0.7880521
vn 0.0000000 -1.0000000 0.0000000
vt 0.4330785 0.6673527
v 1.8065400 -3.6498570 0.9824017
vn 0.0000000 -0.8660257 0.4999995
vt 0.4330762 0.6838890
v 1.7395149 -3.5075829 1.1246760
vn 0.0000000 -0.5000006 0.8660251
vt 0.4384987 0.7004271
v 1.8065400 -3.5075829 1.1246760
vn 0.0000000 -0.5000006 0.8660251
vt 0.4330738 0.7004296
v 1.7395149 -3.3132341 1.1767520
vn 0.0000000 0.0000000 1.0000000
vt 0.4385000 0.6729268
v 1.8065400 -3.3132341 1.1767520
vn 0.0000000 0.0000000 1.0000000
vt 0.4330698 0.6729268
v 1.7395149 -3.5075829 1.1246760
vn 0.0000000 -0.5000006 0.8660251
vt 0.4385019 0.6605662
v 1.8065400 -3.5075829 1.1246760
vn 0.0000000 -0.5000006 0.8660251
vt 0.4330716 0.6605660
v 1.7395149 -3.3132341 1.1767520
vn -1.0000000 0.0000000 0.0000000
vt 0.3986726 0.8077936
v 1.7395149 -3.1188841 1.1246760
vn -1.0000000 0.0000000 0.0000000
vt 0.4142457 0.8077403
v 1.7395149 -3.5075829 1.1246760
vn -1.0000000 0.0000000 0.0000000
vt 0.3851603 0.8000537
v 1.7395149 -2.9766099 0.9824019
vn -1.0000000 0.0000000 0.0000000
vt 0.4277051 0.7999077
v 1.7395149 -2.9245341 0.7880521
vn -1.0000000 0.0000000 0.0000000
vt 0.4354458 0.7863954
v 1.7395149 -2.9766099 0.5937024
vn -1.0000000 0.0000000 0.0000000
vt 0.4353930 0.7708237
v 1.7395149 -3.1188841 0.4514285
vn -1.0000000 0.0000000 0.0000000
vt 0.4275602 0.7573632
v 1.7395149 -3.3132341 0.3993527
vn -1.0000000 0.0000000 0.0000000
vt 0.4140475 0.7496227
v 1.7395149 -3.5075829 0.4514285
vn -1.0000000 0.0000000 0.0000000
vt 0.3984754 0.7496763
v 1.7395149 -3.6498570 0.5937024
vn -1.0000000 0.0000000 0.0000000
vt 0.3850153 0.7575088
v 1.7395149 -3.7019329 0.7880521
vn -1.0000000 0.0000000 0.0000000
vt 0.3772751 0.7710208
v 1.7395149 -3.6498570 0.9824017
vn -1.0000000 0.0000000 0.0000000
vt 0.3773280 0.7865934
v 1.8065400 -3.7019329 0.7880521
vn 1.0000000 0.0000000 0.0000000
vt 0.5167117 0.7478471
v 1.8065400 -3.6498570 0.5937024
vn 1.0000000 0.0000000 0.0000000
vt 0.5124788 0.7320490
v 1.8065400 -3.5075829 0.4514285
vn 1.0000000 0.0000000 0.0000000
vt 0.5009142 0.7204847
v 1.8065400 -3.3132341 0.3993527
vn 1.0000000 0.0000000 0.0000000
vt 0.4851159 0.7162518
v 1.8065400 -3.1188841 0.4514285
vn 1.0000000 0.0000000 0.0000000
vt 0.4693176 0.7204839
v 1.8065400 -2.9766099 0.5937024
vn 1.0000000 0.0000000 0.0000000
vt 0.4577528 0.7320499
v 1.8065400 -2.9245341 0.7880521
vn 1.0000000 0.0000000 0.0000000
vt 0.4535200 0.7478472
v 1.8065400 -2.9766099 0.9824019
vn 1.0000000 0.0000000 0.0000000
vt 0.4577525 0.7636445
v 1.8065400 -3.1188841 1.1246760
vn 1.0000000 0.0000000 0.0000000
vt 0.4693171 0.7752098
v 1.8065400 -3.3132341 1.1767520
vn 1.0000000 0.0000000 0.0000000
vt 0.4851157 0.7794433
v 1.8065400 -3.5075829 1.1246760
vn 1.0000000 0.0000000 0.0000000
vt 0.5009139 0.7752108
v 1.8065400 -3.6498570 0.9824017
vn 1.0000000 0.0000000 0.0000000
vt 0.5124790 0.7636455
v 1.3099990 -3.3132901 1.2323300
vn 0.9587028 -0.0005254 0.2844093
vt 0.3937468 0.7151751
v 1.4359200 -3.3216519 0.8078533
vn 0.9999766 -0.0026972 0.0062927
vt 0.3937630 0.6790408
v 1.3099990 -3.0948429 1.1672180
vn 0.9587218 0.1413364 0.2467318
vt 0.3759625 0.7098557
v 1.3099999 -2.9287560 1.0109600
vn 0.9616834 0.2366846 0.1383672
vt 0.3624683 0.6970977
v 1.3099999 -2.9285550 0.5661783
vn 0.9646953 0.2284157 -0.1311077
vt 0.3625165 0.6610025
v 1.3099999 -2.8756781 0.7885455
vn 0.9623662 0.2717549 0.0007315
vt 0.3582062 0.6790409
v 1.3099999 -3.3125341 0.3438465
vn 0.9650939 0.0000000 -0.2619043
vt 0.3937673 0.6429533
v 1.3099999 -3.0941670 0.4095530
vn 0.9643211 0.1327367 -0.2290541
vt 0.3760082 0.6482602
v 1.3099990 -3.5316899 0.4090862
vn 0.9630596 -0.1350202 -0.2329931
vt 0.4115732 0.6482906
v 1.3099990 -3.6978271 0.5660631
vn 0.9624725 -0.2355160 -0.1348294
vt 0.4250482 0.6610266
v 1.3099999 -3.7506621 0.7877999
vn 0.9595183 -0.2816464 0.0002916
vt 0.4293306 0.6790484
v 1.3099990 -3.6983831 1.0097640
vn 0.9591988 -0.2447132 0.1416088
vt 0.4250289 0.6971532
v 1.3099999 -3.5323040 1.1669400
vn 0.9571725 -0.1447757 0.2507207
vt 0.4115225 0.7098865
v 1.3099999 -2.9287560 1.0109600
vn -1.0000000 0.0000000 0.0000000
vt 0.5101818 0.6949762
v 1.3099999 -2.8756781 0.7885455
vn -1.0000000 0.0000000 0.0000000
vt 0.5144911 0.6768956
v 1.3099990 -3.0948429 1.1672180
vn -1.0000000 0.0000000 0.0000000
vt 0.4966848 0.7076817
v 1.3099990 -3.3132901 1.2323300
vn -1.0000000 0.0000000 0.0000000
vt 0.4789295 0.7129793
v 1.3099999 -3.5323040 1.1669400
vn -1.0000000 0.0000000 0.0000000
vt 0.4611250 0.7076689
v 1.3099999 -2.9285550 0.5661783
vn -1.0000000 0.0000000 0.0000000
vt 0.5101877 0.6588212
v 1.3099999 -3.0941670 0.4095530
vn -1.0000000 0.0000000 0.0000000
vt 0.4967220 0.6460934
v 1.3099999 -3.3125341 0.3438465
vn -1.0000000 0.0000000 0.0000000
vt 0.4789701 0.6407573
v 1.3099990 -3.5316899 0.4090862
vn -1.0000000 0.0000000 0.0000000
vt 0.4611572 0.6460654
v 1.3099990 -3.6978271 0.5660631
vn -1.0000000 0.0000000 0.0000000
vt 0.4476562 0.6588293
v 1.3099999 -3.7506621 0.7877999
vn -1.0000000 0.0000000 0.0000000
vt 0.4433665 0.6768548
v 1.3099990 -3.6983831 1.0097640
vn -1.0000000 0.0000000 0.0000000
vt 0.4476213 0.6948964
v 1.8050680 -2.9174941 0.6101039
vn 1.0000000 0.0000000 0.0000000
vt 0.0600955 0.9104283
v 1.8050680 -2.8983340 0.6563585
vn 1.0000000 0.0000000 0.0000000
vt 0.0600955 0.9048353
v 1.8050680 -2.9654951 0.7015457
vn 1.0000000 0.0000000 0.0000000
vt 0.0688570 0.9030589
v 1.8050680 -2.9969361 0.6256415
vn 1.0000000 0.0000000 0.0000000
vt 0.0688570 0.9122047
v 1.8050680 -3.0157690 0.4722200
vn 1.0000000 0.0000000 0.0000000
vt 0.0600955 0.9104283
v 1.8050680 -2.9803669 0.5076218
vn 1.0000000 0.0000000 0.0000000
vt 0.0600955 0.9048353
v 1.8050680 -3.0251229 0.5750705
vn 1.0000000 0.0000000 0.0000000
vt 0.0688570 0.9030589
v 1.8050680 -3.0832181 0.5169760
vn 1.0000000 0.0000000 0.0000000
vt 0.0688570 0.9122047
v 1.8050680 -3.1593299 0.3824402
vn 1.0000000 0.0000000 0.0000000
vt 0.0600955 0.9104283
v 1.8050680 -3.1130750 0.4015994
vn 1.0000000 0.0000000 0.0000000
vt 0.0600955 0.9048353
v 1.8050680 -3.1286130 0.4810416
vn 1.0000000 0.0000000 0.0000000
vt 0.0688570 0.9030589
v 1.8050680 -3.2045169 0.4496011
vn 1.0000000 0.0000000 0.0000000
vt 0.0688570 0.9122047
v 1.8050680 -3.3263199 0.3544330
vn 1.0000000 0.0000000 0.0000000
vt 0.0600955 0.9104283
v 1.8050680 -3.2762539 0.3544330
vn 1.0000000 0.0000000 0.0000000
vt 0.0600955 0.9048353
v 1.8050680 -3.2602079 0.4337738
vn 1.0000000 0.0000000 0.0000000
vt 0.0688570 0.9030589
v 1.8050680 -3.3423660 0.4337738
vn 1.0000000 0.0000000 0.0000000
vt 0.0688570 0.9122047
v 1.8050680 -3.4913161 0.3924615
vn 1.0000000 0.0000000 0.0000000
vt 0.0600955 0.9104283
v 1.8050680 -3.4450610 0.3733023
vn 1.0000000 0.0000000 0.0000000
vt 0.0600955 0.9048353
v 1.8050680 -3.3998740 0.4404630
vn 1.0000000 0.0000000 0.0000000
vt 0.0688570 0.9030589
v 1.8050680 -3.4757781 0.4719037
vn 1.0000000 0.0000000 0.0000000
vt 0.0688570 0.9122047

g group_62938352_105553120368896
f 1/1/1 2/2/2 3/3/3 
f 3/3/3 2/2/2 4/4/4 
f 5/5/5 6/6/6 7/7/7 
f 7/7/7 6/6/6 8/8/8 
f 9/9/9 10/10/10 11/11/11 
f 11/11/11 10/10/10 12/12/12 
f 13/13/13 14/14/14 15/15/15 
f 15/15/15 14/14/14 16/16/16 
f 17/17/17 18/18/18 19/19/19 
f 19/19/19 18/18/18 20/20/20 
f 21/21/21 22/22/22 23/23/23 
f 23/23/23 22/22/22 24/24/24 
f 25/25/25 26/26/26 27/27/27 
f 25/25/25 27/27/27 28/28/28 
f 29/29/29 30/30/30 31/31/31 
f 29/29/29 31/31/31 32/32/32 
f 33/33/33 34/34/34 35/35/35 
f 33/33/33 35/35/35 36/36/36 
f 37/37/37 38/38/38 39/39/39 
f 37/37/37 39/39/39 40/40/40 
f 41/41/41 42/42/42 43/43/43 
f 41/41/41 43/43/43 44/44/44 
f 45/45/45 46/46/46 47/47/47 
f 45/45/45 47/47/47 48/48/48 
f 49/49/49 50/50/50 51/51/51 
f 49/49/49 51/51/51 52/52/52 
f 53/53/53 54/54/54 55/55/55 
f 53/53/53 55/55/55 56/56/56 
f 57/57/57 58/58/58 59/59/59 
f 57/57/57 59/59/59 60/60/60 
f 61/61/61 62/62/62 63/63/63 
f 61/61/61 63/63/63 64/64/64 
f 65/65/65 66/66/66 67/67/67 
f 65/65/65 67/67/67 68/68/68 
f 69/69/69 70/70/70 71/71/71 
f 69/69/69 71/71/71 72/72/72 
f 73/73/73 74/74/74 75/75/75 
f 73/73/73 75/75/75 76/76/76 
f 77/77/77 78/78/78 79/79/79 
f 77/77/77 79/79/79 80/80/80 
f 78/78/78 73/73/73 76/76/76 
f 78/78/78 76/76/76 79/79/79 
f 81/81/81 82/82/82 83/83/83 
f 81/81/81 83/83/83 84/84/84 
f 85/85/85 81/81/81 84/84/84 
f 85/85/85 84/84/84 86/86/86 
f 87/87/87 88/88/88 89/89/89 
f 87/87/87 89/89/89 90/90/90 
f 88/88/88 85/85/85 86/86/86 
f 88/88/88 86/86/86 89/89/89 
f 91/91/91 92/92/92 93/93/93 
f 91/91/91 93/93/93 94/94/94 
f 95/95/95 91/91/91 94/94/94 
f 95/95/95 94/94/94 96/96/96 
f 70/70/70 97/97/97 98/98/98 
f 70/70/70 98/98/98 71/71/71 
f 97/97/97 99/99/99 100/100/100 
f 97/97/97 100/100/100 98/98/98 
f 101/101/101 102/102/102 103/103/103 
f 102/102/102 104/104/104 103/103/103 
f 104/104/104 105/105/105 103/103/103 
f 105/105/105 106/106/106 103/103/103 
f 106/106/106 107/107/107 103/103/103 
f 107/107/107 108/108/108 103/103/103 
f 108/108/108 109/109/109 103/103/103 
f 109/109/109 110/110/110 103/103/103 
f 110/110/110 111/111/111 103/103/103 
f 111/111/111 112/112/112 103/103/103 
f 113/113/113 114/114/114 115/115/115 
f 113/113/113 115/115/115 116/116/116 
f 113/113/113 116/116/116 117/117/117 
f 113/113/113 117/117/117 118/118/118 
f 113/113/113 118/118/118 119/119/119 
f 113/113/113 119/119/119 120/120/120 
f 113/113/113 120/120/120 121/121/121 
f 113/113/113 121/121/121 122/122/122 
f 113/113/113 122/122/122 123/123/123 
f 113/113/113 123/123/123 124/124/124 
f 125/125/125 126/126/126 127/127/127 
f 127/127/127 126/126/126 128/128/128 
f 129/129/129 130/130/130 126/126/126 
f 126/126/126 130/130/130 128/128/128 
f 131/131/131 132/132/132 126/126/126 
f 126/126/126 132/132/132 129/129/129 
f 131/131/131 126/126/126 133/133/133 
f 126/126/126 134/134/134 133/133/133 
f 134/134/134 126/126/126 135/135/135 
f 126/126/126 136/136/136 135/135/135 
f 125/125/125 137/137/137 126/126/126 
f 126/126/126 137/137/137 136/136/136 
f 138/138/138 139/139/139 140/140/140 
f 140/140/140 139/139/139 141/141/141 
f 141/141/141 139/139/139 142/142/142 
f 139/139/139 143/143/143 142/142/142 
f 143/143/143 144/144/144 142/142/142 
f 144/144/144 145/145/145 142/142/142 
f 145/145/145 146/146/146 142/142/142 
f 146/146/146 147/147/147 142/142/142 
f 147/147/147 148/148/148 142/142/142 
f 148/148/148 149/149/149 142/142/142 
f 150/150/150 151/151/151 152/152/152 
f 150/150/150 152/152/152 153/153/153 
f 154/154/154 155/155/155 156/156/156 
f 154/154/154 156/156/156 157/157/157 
f 158/158/158 159/159/159 160/160/160 
f 158/158/158 160/160/160 161/161/161 
f 162/162/162 163/163/163 164/164/164 
f 162/162/162 164/164/164 165/165/165 
f 166/166/166 167/167/167 168/168/168 
f 166/166/166 168/168/168 169/169/169 
