v 1.3863130 2.9892521 1.0839880
vn -1.0000000 0.0000000 0.0000000
vt 0.6237239 0.8192250
v 1.3863130 3.1537189 1.2484560
vn -1.0000000 0.0000000 0.0000000
vt 0.6356772 0.8311781
v 1.3863130 3.3783870 0.8593387
vn -1.0000000 0.0000000 0.0000000
vt 0.6520059 0.8028978
v 1.3863130 3.3783870 1.3086550
vn -1.0000000 0.0000000 0.0000000
vt 0.6520059 0.8355537
v 1.3863130 3.6030540 1.2484560
vn -1.0000000 0.0000000 0.0000000
vt 0.6683344 0.8311784
v 1.3863130 3.7675209 1.0839880
vn -1.0000000 0.0000000 0.0000000
vt 0.6802878 0.8192250
v 1.3863130 3.8277211 0.8593210
vn -1.0000000 0.0000000 0.0000000
vt 0.6846635 0.8028964
v 1.3863130 3.7675209 0.6346539
vn -1.0000000 0.0000000 0.0000000
vt 0.6802879 0.7865677
v 1.3863130 3.6030540 0.4701862
vn -1.0000000 0.0000000 0.0000000
vt 0.6683345 0.7746144
v 1.3863130 3.3783860 0.4099866
vn -1.0000000 0.0000000 0.0000000
vt 0.6520060 0.7702394
v 1.3863130 3.1537189 0.4701862
vn -1.0000000 0.0000000 0.0000000
vt 0.6356773 0.7746146
v 1.3863130 2.9892521 0.6346539
vn -1.0000000 0.0000000 0.0000000
vt 0.6237239 0.7865679
v 1.3863130 2.9290521 0.8593210
vn -1.0000000 0.0000000 0.0000000
vt 0.6193489 0.8028965
v 1.7378540 3.1537189 1.2484560
vn 0.0000000 -0.5000000 0.8660254
vt 0.6019242 0.7700411
v 1.3863130 3.1537189 1.2484560
vn 0.0000000 -0.5000000 0.8660254
vt 0.6019242 0.7955058
v 1.3863130 2.9892521 1.0839880
vn 0.0000000 -0.8660252 0.5000005
vt 0.6139217 0.7955058
v 1.7378540 2.9892521 1.0839880
vn 0.0000000 -0.8660252 0.5000005
vt 0.6139217 0.7700411
v 1.7378540 3.3783870 1.3086550
vn 0.0000000 0.0000000 1.0000000
vt 0.5848494 0.7700411
v 1.3863130 3.3783870 1.3086550
vn 0.0000000 0.0000000 1.0000000
vt 0.5848494 0.7955058
v 1.7378540 3.6030540 1.2484560
vn 0.0000000 0.4999999 0.8660255
vt 0.5728549 0.7700411
v 1.3863130 3.6030540 1.2484560
vn 0.0000000 0.4999999 0.8660255
vt 0.5728549 0.7955058
v 1.7378540 3.7675209 1.0839880
vn 0.0000000 0.8660252 0.5000005
vt 0.6019242 0.7700411
v 1.3863130 3.7675209 1.0839880
vn 0.0000000 0.8660252 0.5000005
vt 0.6019242 0.7955058
v 1.3863130 3.6030540 1.2484560
vn 0.0000000 0.4999999 0.8660255
vt 0.6139216 0.7955058
v 1.7378540 3.6030540 1.2484560
vn 0.0000000 0.4999999 0.8660255
vt 0.6139216 0.7700411
v 1.7378540 3.8277211 0.8593210
vn 0.0000000 1.0000000 0.0000000
vt 0.5848494 0.7700411
v 1.3863130 3.8277211 0.8593210
vn 0.0000000 1.0000000 0.0000000
vt 0.5848494 0.7955058
v 1.7378540 3.7675209 0.6346539
vn 0.0000000 0.8660252 -0.5000005
vt 0.5728550 0.7700411
v 1.3863130 3.7675209 0.6346539
vn 0.0000000 0.8660252 -0.5000005
vt 0.5728550 0.7955058
v 1.7378540 3.6030540 0.4701862
vn 0.0000000 0.5000002 -0.8660253
vt 0.6019242 0.7700411
v 1.3863130 3.6030540 0.4701862
vn 0.0000000 0.5000002 -0.8660253
vt 0.6019242 0.7955058
v 1.3863130 3.7675209 0.6346539
vn 0.0000000 0.8660252 -0.5000005
vt 0.6139216 0.7955058
v 1.7378540 3.7675209 0.6346539
vn 0.0000000 0.8660252 -0.5000005
vt 0.6139216 0.7700411
v 1.7378540 3.3783860 0.4099866
vn 0.0000000 0.0000000 -1.0000000
vt 0.5848494 0.7700411
v 1.3863130 3.3783860 0.4099866
vn 0.0000000 0.0000000 -1.0000000
vt 0.5848494 0.7955058
v 1.7378540 3.1537189 0.4701862
vn 0.0000000 -0.5000007 -0.8660251
vt 0.5728550 0.7700411
v 1.3863130 3.1537189 0.4701862
vn 0.0000000 -0.5000007 -0.8660251
vt 0.5728550 0.7955058
v 1.7378540 2.9892521 0.6346539
vn 0.0000000 -0.8660252 -0.5000005
vt 0.6019242 0.7700411
v 1.3863130 2.9892521 0.6346539
vn 0.0000000 -0.8660252 -0.5000005
vt 0.6019242 0.7955058
v 1.3863130 3.1537189 0.4701862
vn 0.0000000 -0.5000007 -0.8660251
vt 0.6139216 0.7955058
v 1.7378540 3.1537189 0.4701862
vn 0.0000000 -0.5000007 -0.8660251
vt 0.6139216 0.7700411
v 1.7378540 2.9290521 0.8593210
vn 0.0000000 -1.0000000 0.0000000
vt 0.5848494 0.7700411
v 1.3863130 2.9290521 0.8593210
vn 0.0000000 -1.0000000 0.0000000
vt 0.5848494 0.7955058
v 1.7378540 2.9892521 1.0839880
vn 0.0000000 -0.8660252 0.5000005
vt 0.5728550 0.7700411
v 1.3863130 2.9892521 1.0839880
vn 0.0000000 -0.8660252 0.5000005
vt 0.5728550 0.7955058
v 1.7378540 3.1537189 1.2484560
vn 1.0000000 0.0000000 0.0000000
vt 0.6683344 0.8311781
v 1.7378540 2.9892521 1.0839880
vn 1.0000000 0.0000000 0.0000000
vt 0.6802880 0.8192249
v 1.7378540 3.3783870 0.8593387
vn 1.0000000 0.0000000 0.0000000
vt 0.6520059 0.8028977
v 1.7378540 3.3783870 1.3086550
vn 1.0000000 0.0000000 0.0000000
vt 0.6520059 0.8355537
v 1.7378540 3.6030540 1.2484560
vn 1.0000000 0.0000000 0.0000000
vt 0.6356772 0.8311787
v 1.7378540 3.7675209 1.0839880
vn 1.0000000 0.0000000 0.0000000
vt 0.6237238 0.8192251
v 1.7378540 3.8277211 0.8593210
vn 1.0000000 0.0000000 0.0000000
vt 0.6193489 0.8028967
v 1.7378540 3.7675209 0.6346539
vn 1.0000000 0.0000000 0.0000000
vt 0.6237243 0.7865680
v 1.7378540 3.6030540 0.4701862
vn 1.0000000 0.0000000 0.0000000
vt 0.6356774 0.7746149
v 1.7378540 3.3783860 0.4099866
vn 1.0000000 0.0000000 0.0000000
vt 0.6520060 0.7702396
v 1.7378540 3.1537189 0.4701862
vn 1.0000000 0.0000000 0.0000000
vt 0.6683343 0.7746140
v 1.7378540 2.9892521 0.6346539
vn 1.0000000 0.0000000 0.0000000
vt 0.6802882 0.7865679
v 1.7378540 2.9290521 0.8593210
vn 1.0000000 0.0000000 0.0000000
vt 0.6846632 0.8028961
v 1.1889160 3.3783860 1.0603200
vn 0.0000000 0.0000000 1.0000000
vt 0.6275572 0.6881329
v 1.1889160 3.2043231 0.9598236
vn 0.0000000 -0.8660257 0.4999995
vt 0.6398364 0.6881329
v 1.6792530 3.2043231 0.9598236
vn 0.0000000 -0.8660257 0.4999995
vt 0.6398365 0.7190539
v 1.6792530 3.3783860 1.0603200
vn 0.0000000 0.0000000 1.0000000
vt 0.6275572 0.7190539
v 1.1889160 3.5524499 0.9598236
vn 0.0000000 0.8660257 0.4999995
vt 0.6142076 0.6881329
v 1.6792530 3.5524499 0.9598236
vn 0.0000000 0.8660257 0.4999995
vt 0.6142076 0.7190539
v 1.1889160 3.5524499 0.7588321
vn 0.0000000 0.8660017 -0.5000411
vt 0.6018460 0.6881329
v 1.6792530 3.5524499 0.7588321
vn 0.0000000 0.8660017 -0.5000411
vt 0.6018460 0.7190539
v 1.1889160 3.3783860 0.6583585
vn 0.0000000 0.0000000 -1.0000000
vt 0.6275572 0.6881329
v 1.1889160 3.5524499 0.7588321
vn 0.0000000 0.8660017 -0.5000411
vt 0.6398364 0.6881329
v 1.6792530 3.5524499 0.7588321
vn 0.0000000 0.8660017 -0.5000411
vt 0.6398364 0.7190539
v 1.6792530 3.3783860 0.6583585
vn 0.0000000 0.0000000 -1.0000000
vt 0.6275572 0.7190539
v 1.1889160 3.2043231 0.7588321
vn 0.0000000 -0.8660017 -0.5000411
vt 0.6142076 0.6881329
v 1.6792530 3.2043231 0.7588321
vn 0.0000000 -0.8660017 -0.5000411
vt 0.6142076 0.7190539
v 1.1889160 3.2043231 0.9598236
vn 0.0000000 -0.8660257 0.4999995
vt 0.6018460 0.6881329
v 1.6792530 3.2043231 0.9598236
vn 0.0000000 -0.8660257 0.4999995
vt 0.6018460 0.7190539
v 1.1889160 3.3783860 1.0603200
vn -1.0000000 0.0000000 0.0000000
vt 0.6025029 0.8279456
v 1.1889160 3.5524499 0.9598236
vn -1.0000000 0.0000000 0.0000000
vt 0.6151537 0.8206416
v 1.1889160 3.5524499 0.7588321
vn -1.0000000 0.0000000 0.0000000
vt 0.6151537 0.8060335
v 1.1889160 3.3783860 0.6583585
vn -1.0000000 0.0000000 0.0000000
vt 0.6025029 0.7987313
v 1.1889160 3.2043231 0.7588321
vn -1.0000000 0.0000000 0.0000000
vt 0.5898521 0.8060337
v 1.1889160 3.2043231 0.9598236
vn -1.0000000 0.0000000 0.0000000
vt 0.5898521 0.8206416

g group_62987808_105553120379904
f 1/1/1 2/2/2 3/3/3 
f 2/2/2 4/4/4 3/3/3 
f 4/4/4 5/5/5 3/3/3 
f 5/5/5 6/6/6 3/3/3 
f 6/6/6 7/7/7 3/3/3 
f 7/7/7 8/8/8 3/3/3 
f 8/8/8 9/9/9 3/3/3 
f 9/9/9 10/10/10 3/3/3 
f 10/10/10 11/11/11 3/3/3 
f 11/11/11 12/12/12 3/3/3 
f 12/12/12 13/13/13 3/3/3 
f 13/13/13 1/1/1 3/3/3 
f 14/14/14 15/15/15 16/16/16 
f 14/14/14 16/16/16 17/17/17 
f 18/18/18 19/19/19 15/15/15 
f 18/18/18 15/15/15 14/14/14 
f 20/20/20 21/21/21 19/19/19 
f 20/20/20 19/19/19 18/18/18 
f 22/22/22 23/23/23 24/24/24 
f 22/22/22 24/24/24 25/25/25 
f 26/26/26 27/27/27 23/23/23 
f 26/26/26 23/23/23 22/22/22 
f 28/28/28 29/29/29 27/27/27 
f 28/28/28 27/27/27 26/26/26 
f 30/30/30 31/31/31 32/32/32 
f 30/30/30 32/32/32 33/33/33 
f 34/34/34 35/35/35 31/31/31 
f 34/34/34 31/31/31 30/30/30 
f 36/36/36 37/37/37 35/35/35 
f 36/36/36 35/35/35 34/34/34 
f 38/38/38 39/39/39 40/40/40 
f 38/38/38 40/40/40 41/41/41 
f 42/42/42 43/43/43 39/39/39 
f 42/42/42 39/39/39 38/38/38 
f 44/44/44 45/45/45 43/43/43 
f 44/44/44 43/43/43 42/42/42 
f 46/46/46 47/47/47 48/48/48 
f 49/49/49 46/46/46 48/48/48 
f 50/50/50 49/49/49 48/48/48 
f 51/51/51 50/50/50 48/48/48 
f 52/52/52 51/51/51 48/48/48 
f 53/53/53 52/52/52 48/48/48 
f 54/54/54 53/53/53 48/48/48 
f 55/55/55 54/54/54 48/48/48 
f 56/56/56 55/55/55 48/48/48 
f 57/57/57 56/56/56 48/48/48 
f 58/58/58 57/57/57 48/48/48 
f 47/47/47 58/58/58 48/48/48 
f 59/59/59 60/60/60 61/61/61 
f 59/59/59 61/61/61 62/62/62 
f 63/63/63 59/59/59 62/62/62 
f 63/63/63 62/62/62 64/64/64 
f 65/65/65 63/63/63 64/64/64 
f 65/65/65 64/64/64 66/66/66 
f 67/67/67 68/68/68 69/69/69 
f 67/67/67 69/69/69 70/70/70 
f 71/71/71 67/67/67 70/70/70 
f 71/71/71 70/70/70 72/72/72 
f 73/73/73 71/71/71 72/72/72 
f 73/73/73 72/72/72 74/74/74 
f 75/75/75 76/76/76 77/77/77 
f 75/75/75 77/77/77 78/78/78 
f 75/75/75 78/78/78 79/79/79 
f 75/75/75 79/79/79 80/80/80 
