v -1.3843220 0.4489700 0.0622075
vn 0.0000000 0.0000000 -1.0000000
vt 0.7152871 0.7963501
v -1.3843220 0.2791645 0.1325433
vn 0.0000000 -0.7071066 -0.7071069
vt 0.7152871 0.7826705
v -1.7335269 0.2791645 0.1325432
vn 0.0000000 -0.7071066 -0.7071069
vt 0.6871552 0.7826705
v -1.7335269 0.4489700 0.0622075
vn 0.0000000 0.0000000 -1.0000000
vt 0.6871552 0.7963501
v -1.3843220 0.6187756 0.1325433
vn 0.0000000 0.7071069 -0.7071066
vt 0.7152871 0.8100297
v -1.7335269 0.6187756 0.1325433
vn 0.0000000 0.7071069 -0.7071066
vt 0.6871552 0.8100297
v -1.3843220 0.6891113 0.3023488
vn 0.0000000 1.0000000 0.0000000
vt 0.7152874 0.7142726
v -1.3843220 0.6187756 0.1325433
vn 0.0000000 0.7071069 -0.7071066
vt 0.7152874 0.7005930
v -1.7335269 0.6187756 0.1325433
vn 0.0000000 0.7071069 -0.7071066
vt 0.6871554 0.7005926
v -1.7335269 0.6891113 0.3023487
vn 0.0000000 1.0000000 0.0000000
vt 0.6871554 0.7142723
v -1.3843220 0.6187756 0.4721542
vn 0.0000000 0.7071069 0.7071066
vt 0.7152874 0.7279522
v -1.7335269 0.6187756 0.4721542
vn 0.0000000 0.7071069 0.7071066
vt 0.6871552 0.7279519
v -1.3843220 0.4489700 0.5424900
vn 0.0000000 0.0000000 1.0000000
vt 0.7152874 0.7416316
v -1.7335269 0.4489700 0.5424900
vn 0.0000000 0.0000000 1.0000000
vt 0.6871552 0.7416316
v -1.3843220 0.2791645 0.4721543
vn 0.0000000 -0.7071066 0.7071069
vt 0.7152874 0.7553112
v -1.7335269 0.2791645 0.4721543
vn 0.0000000 -0.7071066 0.7071069
vt 0.6871552 0.7553112
v -1.3843220 0.2088287 0.3023488
vn 0.0000000 -1.0000000 0.0000000
vt 0.7152872 0.7689909
v -1.7335269 0.2088287 0.3023487
vn 0.0000000 -1.0000000 0.0000000
vt 0.6871552 0.7689909
v -1.3843220 0.4489700 0.5424900
vn 1.0000000 0.0000000 0.0000000
vt 0.5490943 0.8016118
v -1.3843220 0.2791645 0.1325433
vn 1.0000000 0.0000000 0.0000000
vt 0.5160692 0.7879325
v -1.3843220 0.4489700 0.0622075
vn 1.0000000 0.0000000 0.0000000
vt 0.5104028 0.8016123
v -1.3843220 0.6187756 0.1325433
vn 1.0000000 0.0000000 0.0000000
vt 0.5160688 0.8152917
v -1.3843220 0.6891113 0.3023488
vn 1.0000000 0.0000000 0.0000000
vt 0.5297485 0.8209578
v -1.3843220 0.6187756 0.4721542
vn 1.0000000 0.0000000 0.0000000
vt 0.5434281 0.8152916
v -1.3843220 0.2791645 0.4721543
vn 1.0000000 0.0000000 0.0000000
vt 0.5434283 0.7879326
v -1.3843220 0.2088287 0.3023488
vn 1.0000000 0.0000000 0.0000000
vt 0.5297487 0.7822663
v -1.7335269 0.4489700 0.0622075
vn -1.0000000 0.0000000 0.0000000
vt 0.5490757 0.8016675
v -1.7335269 0.2791645 0.1325432
vn -1.0000000 0.0000000 0.0000000
vt 0.5434094 0.7879878
v -1.7335269 0.4489700 0.5424900
vn -1.0000000 0.0000000 0.0000000
vt 0.5103838 0.8016675
v -1.7335269 0.6187756 0.1325433
vn -1.0000000 0.0000000 0.0000000
vt 0.5434094 0.8153470
v -1.7335269 0.6891113 0.3023487
vn -1.0000000 0.0000000 0.0000000
vt 0.5297298 0.8210133
v -1.7335269 0.6187756 0.4721542
vn -1.0000000 0.0000000 0.0000000
vt 0.5160502 0.8153470
v -1.7335269 0.2088287 0.3023487
vn -1.0000000 0.0000000 0.0000000
vt 0.5297298 0.7823215
v -1.7335269 0.2791645 0.4721543
vn -1.0000000 0.0000000 0.0000000
vt 0.5160502 0.7879878

g group_62984448_105553120374784
f 1/1/1 2/2/2 3/3/3 
f 1/1/1 3/3/3 4/4/4 
f 5/5/5 1/1/1 4/4/4 
f 5/5/5 4/4/4 6/6/6 
f 7/7/7 8/8/8 9/9/9 
f 7/7/7 9/9/9 10/10/10 
f 11/11/11 7/7/7 10/10/10 
f 11/11/11 10/10/10 12/12/12 
f 13/13/13 11/11/11 12/12/12 
f 13/13/13 12/12/12 14/14/14 
f 15/15/15 13/13/13 14/14/14 
f 15/15/15 14/14/14 16/16/16 
f 17/17/17 15/15/15 16/16/16 
f 17/17/17 16/16/16 18/18/18 
f 2/2/2 17/17/17 18/18/18 
f 2/2/2 18/18/18 3/3/3 
f 19/19/19 20/20/20 21/21/21 
f 19/19/19 21/21/21 22/22/22 
f 19/19/19 22/22/22 23/23/23 
f 19/19/19 23/23/23 24/24/24 
f 19/19/19 25/25/25 26/26/26 
f 19/19/19 26/26/26 20/20/20 
f 27/27/27 28/28/28 29/29/29 
f 27/27/27 29/29/29 30/30/30 
f 31/31/31 30/30/30 29/29/29 
f 31/31/31 29/29/29 32/32/32 
f 33/33/33 34/34/34 29/29/29 
f 33/33/33 29/29/29 28/28/28 
