v 1.2271529 4.1546612 0.0691840
vn 0.0000000 -0.4267913 0.9043502
vt 0.4808331 4.3829989
v 1.9066650 4.1546612 0.0691840
vn 0.0000000 -0.5626315 0.8267078
vt 0.8566140 4.3829989
v 1.2271529 4.3216319 0.2725540
vn 0.0000000 -0.9903186 0.1388133
vt 0.4808331 4.1693640
v 1.9066650 4.3216310 0.2725537
vn 0.0000000 -0.9903186 0.1388131
vt 0.8566140 4.1693640
v 1.2271529 -2.8664329 0.0796225
vn 0.0000000 0.3348040 0.9422878
vt 0.4808331 -1.2507920
v 1.9066650 -2.8664329 0.0796225
vn 0.0000000 0.2524232 0.9676170
vt 0.8566140 -1.2507920
v 1.2271529 -3.6042211 0.4912268
vn 0.0000000 0.7935590 0.6084933
vt 0.4808331 -0.7526870
v 1.9066650 -3.6042211 0.4912268
vn 0.0000000 0.6987371 0.7153786
vt 0.8566140 -0.7526870
v 1.2271529 -3.6958821 0.8556586
vn 0.0000000 0.9630083 -0.2694718
vt 0.4808331 -0.5542350
v 1.9066650 -3.6958821 0.8556583
vn 0.0000000 0.9904124 -0.1381426
vt 0.8566140 -0.5542350
v 1.2271529 -3.5629921 1.0858409
vn 0.0000000 0.6092402 -0.7929857
vt 0.4808331 -0.3966904
v 1.9066650 -3.5629930 1.0858409
vn 0.0000000 0.7545483 -0.6562446
vt 0.8566140 -0.3966904
v 1.2271529 4.2230349 0.5000885
vn 0.0000000 -0.7741705 -0.6329771
vt 0.4808331 3.9942119
v 1.9066650 4.2230349 0.5000885
vn 0.0000000 -0.8303359 -0.5572633
vt 0.8566140 3.9942119
v 1.2271529 -3.3602841 1.1869920
vn 0.0000000 0.2400340 -0.9707645
vt 0.4808331 -0.2680162
v 1.9066650 -3.3602879 1.1869920
vn 0.0000000 0.3116796 -0.9501873
vt 0.8566140 -0.2680162
v 1.9066650 4.3216310 0.2725537
vn 1.0000000 0.0000000 0.0000000
vt 0.0208083 4.1693640
v 1.9066650 4.1546612 0.0691840
vn 1.0000000 0.0000000 0.0000000
vt 0.0208083 4.3829989
v 1.9066650 4.1907039 -0.0031320
vn 1.0000000 0.0000000 0.0000000
vt 0.0639165 4.3829989
v 1.9066650 4.3894782 0.2495230
vn 1.0000000 0.0000000 0.0000000
vt 0.0639165 4.1693640
v 1.9066620 -2.8664329 -0.0004428
vn 1.0000000 0.0000000 0.0000000
vt 0.0639165 -1.2507920
v 1.9066650 -2.8664329 0.0796225
vn 1.0000000 0.0000000 0.0000000
vt 0.0208083 -1.2507920
v 1.9066650 -3.6704330 0.4475989
vn 1.0000000 0.0000000 0.0000000
vt 0.0639165 -0.7526870
v 1.9066650 -3.6042211 0.4912268
vn 1.0000000 0.0000000 0.0000000
vt 0.0208083 -0.7526870
v 1.9066650 -3.6958821 0.8556583
vn 1.0000000 0.0000000 0.0000000
vt 0.0208083 -0.5542350
v 1.9066650 -3.7749159 0.8695242
vn 1.0000000 0.0000000 0.0000000
vt 0.0639165 -0.5542350
v 1.9066650 -3.5629930 1.0858409
vn 1.0000000 0.0000000 0.0000000
vt 0.0208083 -0.3966904
v 1.9066650 -3.6146231 1.1472660
vn 1.0000000 0.0000000 0.0000000
vt 0.0639165 -0.3966904
v 1.9066650 -3.3602879 1.1869920
vn 1.0000000 0.0000000 0.0000000
vt 0.0208083 -0.2680162
v 1.9066650 -2.9726040 1.1955060
vn 1.0000000 0.0000000 0.0000000
vt 0.0208083 -0.1101578
v 1.9066660 -2.9726040 1.2719780
vn 1.0000000 0.0000000 0.0000000
vt 0.0639165 -0.1101578
v 1.9066660 -3.3818319 1.2629210
vn 1.0000000 0.0000000 0.0000000
vt 0.0639165 -0.2680162
v 1.9066650 3.7380781 1.1498860
vn 1.0000000 0.0000000 0.0000000
vt 0.0208083 3.5221720
v 1.9066640 3.7749741 1.2159420
vn 1.0000000 0.0000000 0.0000000
vt 0.0639165 3.5221720
v 1.9066650 3.3440790 1.3342270
vn 1.0000000 0.0000000 0.0000000
vt 0.0208083 3.2071230
v 1.9066640 3.3595991 1.4121240
vn 1.0000000 0.0000000 0.0000000
vt 0.0639165 3.2071230
v 1.2271529 4.1907039 -0.0031320
vn -1.0000000 0.0000000 0.0000000
vt 0.4352332 4.3829989
v 1.2271529 4.1546612 0.0691840
vn -1.0000000 0.0000000 0.0000000
vt 0.4808331 4.3829989
v 1.2271529 4.3216319 0.2725540
vn -1.0000000 0.0000000 0.0000000
vt 0.4808331 4.1693640
v 1.2271529 4.3894782 0.2495230
vn -1.0000000 0.0000000 0.0000000
vt 0.4352332 4.1693640
v 1.2271529 -2.8664329 0.0796225
vn -1.0000000 0.0000000 0.0000000
vt 0.4808331 -1.2507920
v 1.2271529 -2.8664329 -0.0004428
vn -1.0000000 0.0000000 0.0000000
vt 0.4352332 -1.2507920
v 1.2271529 -3.6042211 0.4912268
vn -1.0000000 0.0000000 0.0000000
vt 0.4808331 -0.7526870
v 1.2271529 -3.6704330 0.4475989
vn -1.0000000 0.0000000 0.0000000
vt 0.4352332 -0.7526870
v 1.2271529 -3.7749159 0.8695242
vn -1.0000000 0.0000000 0.0000000
vt 0.4352332 -0.5542350
v 1.2271529 -3.6958821 0.8556586
vn -1.0000000 0.0000000 0.0000000
vt 0.4808331 -0.5542350
v 1.2271529 -3.6146231 1.1472660
vn -1.0000000 0.0000000 0.0000000
vt 0.4352332 -0.3966904
v 1.2271529 -3.5629921 1.0858409
vn -1.0000000 0.0000000 0.0000000
vt 0.4808331 -0.3966904
v 1.2271529 4.2745061 0.5586423
vn -1.0000000 0.0000000 0.0000000
vt 0.4352332 3.9942119
v 1.2271529 4.2230349 0.5000885
vn -1.0000000 0.0000000 0.0000000
vt 0.4808331 3.9942119
v 1.2271529 -3.3818271 1.2629200
vn -1.0000000 0.0000000 0.0000000
vt 0.4352332 -0.2680162
v 1.2271529 -3.3602841 1.1869920
vn -1.0000000 0.0000000 0.0000000
vt 0.4808331 -0.2680162
v 1.2271529 4.3894782 0.2495230
vn 0.0000000 0.9995607 0.0296388
vt 0.4352332 4.1693640
v 1.9066650 4.3894782 0.2495230
vn 0.0000000 0.9879711 -0.1546387
vt 0.0639165 4.1693640
v 1.9066650 4.1907039 -0.0031320
vn 0.0000000 0.4366800 -0.8996169
vt 0.0639165 4.3829989
v 1.2271529 4.1907039 -0.0031320
vn 0.0000000 0.4366800 -0.8996169
vt 0.4352332 4.3829989
v 1.2271529 -2.8664329 -0.0004428
vn 0.0000000 -0.3341636 -0.9425151
vt 0.4352332 -1.2507920
v 1.9066620 -2.8664329 -0.0004428
vn 0.0000000 -0.2516578 -0.9678163
vt 0.0639165 -1.2507920
v 1.2271529 -3.6704330 0.4475989
vn 0.0000000 -0.8733467 -0.4870991
vt 0.4352332 -0.7526870
v 1.9066650 -3.6704330 0.4475989
vn 0.0000000 -0.6993009 -0.7148275
vt 0.0639165 -0.7526870
v 1.2271529 -3.7749159 0.8695242
vn 0.0000000 -0.9627300 0.2704646
vt 0.4352332 -0.5542350
v 1.9066650 -3.7749159 0.8695242
vn 0.0000000 -0.9999769 0.0068065
vt 0.0639165 -0.5542350
v 1.2271529 -3.6146231 1.1472660
vn 0.0000000 -0.6847247 0.7288018
vt 0.4352332 -0.3966904
v 1.9066650 -3.6146231 1.1472660
vn 0.0000000 -0.6847268 0.7287999
vt 0.0639165 -0.3966904
v 1.2271529 -3.3818271 1.2629200
vn 0.0000000 -0.3106093 0.9505377
vt 0.4352332 -0.2680162
v 1.9066660 -3.3818319 1.2629210
vn 0.0000000 -0.1666112 0.9860227
vt 0.0639165 -0.2680162
v 1.2271529 -2.9726040 1.2719769
vn 0.0000000 -0.0221272 0.9997552
vt 0.4352332 -0.1101578
v 1.9066660 -2.9726040 1.2719780
vn 0.0000000 -0.0221272 0.9997552
vt 0.0639165 -0.1101578
v 1.2271520 3.3595991 1.4121250
vn 0.0000000 0.4270650 0.9042210
vt 0.4352332 3.2071230
v 1.9066640 3.3595991 1.4121240
vn 0.0000000 0.4270650 0.9042210
vt 0.0639165 3.2071230
v 1.2271529 3.7749751 1.2159430
vn 0.0000000 0.7478901 0.6638226
vt 0.4352332 3.5221720
v 1.9066640 3.7749741 1.2159420
vn 0.0000000 0.7478896 0.6638232
vt 0.0639165 3.5221720
v 1.5856290 4.1546612 0.0691840
vn 0.9697116 -0.1025966 0.2216606
vt 0.9804533 4.3145170
v 1.5856290 4.3216310 0.2725537
vn 0.9639000 -0.2540518 0.0797158
vt 0.9804533 4.1930308
v 1.5597349 4.1087842 0.1612317
vn 0.9683504 -0.1069390 0.2255254
vt 0.9091278 4.3362222
v 1.5597349 4.2352729 0.2982462
vn 0.9650563 -0.2609640 -0.0237545
vt 0.9091278 4.2097521
v 1.5856290 2.5053051 0.0796225
vn 0.9665557 0.0015648 0.2564523
vt 0.9804533 5.1955290
v 1.5597340 2.5053051 0.1804065
vn 0.9687624 0.0010091 0.2479887
vt 0.9091278 5.1955290
v 1.5597360 -2.8664329 0.1815338
vn 0.9653441 0.0907244 0.2447035
vt 0.9091278 -1.2425342
v 1.5856290 -2.8664329 0.0796225
vn 0.9679812 0.0454796 0.2468683
vt 0.9804533 -1.2425342
v 1.5597340 2.5053051 0.1804065
vn 0.9687624 0.0010091 0.2479887
vt 0.9091278 -4.0734949
v 1.5856290 2.5053051 0.0796225
vn 0.9665557 0.0015648 0.2564523
vt 0.9804533 -4.0734949
v 1.5597349 -3.5199440 0.5467591
vn 0.9684002 0.1955158 0.1548373
vt 0.9091278 -0.7438145
v 1.5856290 -3.6042211 0.4912268
vn 0.9679953 0.1972383 0.1551840
vt 0.9804533 -0.7438145
v 1.5597349 -3.5952821 0.8380093
vn 0.9696846 0.2421765 -0.0325933
vt 0.9091278 -0.5542350
v 1.5856290 -3.6958821 0.8556583
vn 0.9692847 0.2437621 -0.0326685
vt 0.9804533 -0.5542350
v 1.5597349 -3.4972720 1.0076571
vn 0.9691448 0.1511007 -0.1947485
vt 0.9091278 -0.4035152
v 1.5856290 -3.5629930 1.0858409
vn 0.9685585 0.1883852 -0.1624977
vt 0.9804533 -0.4178480
v 1.5856290 4.3216310 0.2725537
vn 0.9639000 -0.2540518 0.0797158
vt 0.9804533 4.1382208
v 1.5856290 4.2230349 0.5000882
vn 0.9591341 -0.2317216 -0.1623791
vt 0.9804533 3.9968550
v 1.5597349 4.2352729 0.2982462
vn 0.9650563 -0.2609640 -0.0237545
vt 0.9091278 4.1262259
v 1.5597349 4.1575708 0.4256146
vn 0.9660695 -0.1763806 -0.1886790
vt 0.9091278 3.9968550
v 1.5856290 -3.3602879 1.1869920
vn 0.9684167 0.0775721 -0.2369636
vt 0.9804533 -0.3121051
v 1.5597340 -3.3328590 1.0903530
vn 0.9680024 0.0418314 -0.2474298
vt 0.9091278 -0.2879809
v 1.2271529 3.3440790 1.3342270
vn 0.0000000 -0.4237818 -0.9057643
vt 0.4808331 3.2071230
v 1.2271529 3.7380781 1.1498860
vn 0.0000000 -0.7521971 -0.6589383
vt 0.4808331 3.5221720
v 1.9066650 3.7380781 1.1498860
vn 0.0000000 -0.7521971 -0.6589383
vt 0.8566140 3.5221720
v 1.9066650 3.3440790 1.3342270
vn 0.0000000 -0.4237818 -0.9057643
vt 0.8566140 3.2071230
v 1.9066650 3.9103310 0.8105939
vn 1.0000000 0.0000000 0.0000000
vt 0.0639165 3.7652559
v 1.9066650 3.8641410 0.7503452
vn 1.0000000 0.0000000 0.0000000
vt 0.0208083 3.7652559
v 1.2271529 3.7749751 1.2159430
vn -1.0000000 0.0000000 0.0000000
vt 0.4352332 3.5221720
v 1.2271529 3.7380781 1.1498860
vn -1.0000000 0.0000000 0.0000000
vt 0.4808331 3.5221720
v 1.2271529 3.3440790 1.3342270
vn -1.0000000 0.0000000 0.0000000
vt 0.4808331 3.2071230
v 1.2271520 3.3595991 1.4121250
vn -1.0000000 0.0000000 0.0000000
vt 0.4352332 3.2071230
v 1.2271529 3.9103320 0.8105942
vn 0.0000000 0.7285855 0.6849549
vt 0.4352332 3.7652559
v 1.9066650 3.9103310 0.8105939
vn 0.0000000 0.8611299 0.5083850
vt 0.0639165 3.7652559
v 1.5597349 3.3243260 1.2350680
vn 0.9665853 -0.1136575 -0.2297717
vt 0.9091278 3.2766600
v 1.5597349 3.6663809 1.0658720
vn 0.9712086 -0.1828316 -0.1527302
vt 0.9091278 3.5295639
v 1.5856290 3.3440790 1.3342270
vn 0.9691886 -0.1069033 -0.2219127
vt 0.9804533 3.2819719
v 1.5856290 3.7380781 1.1498860
vn 0.9728430 -0.1780680 -0.1478797
vt 0.9804533 3.5301030
v 1.2271529 3.8641410 0.7503452
vn 0.0000000 -0.8058071 -0.5921783
vt 0.4808331 3.7652559
v 1.9066650 3.8641410 0.7503452
vn 0.0000000 -0.8058071 -0.5921783
vt 0.8566140 3.7652559
v 1.2271529 3.9103320 0.8105942
vn -1.0000000 0.0000000 0.0000000
vt 0.4352332 3.7652559
v 1.2271529 3.8641410 0.7503452
vn -1.0000000 0.0000000 0.0000000
vt 0.4808331 3.7652559
v 1.5856290 3.8641410 0.7503452
vn 0.9674427 -0.2049592 -0.1484802
vt 0.9804533 3.7626121
v 1.5597349 3.7868459 0.6923364
vn 0.9659184 -0.2094419 -0.1521047
vt 0.9091278 3.7652559
v 1.9066650 4.2745061 0.5586420
vn 1.0000000 0.0000000 0.0000000
vt 0.0639165 3.9942119
v 1.9066650 4.2230349 0.5000885
vn 1.0000000 0.0000000 0.0000000
vt 0.0208083 3.9942119
v 1.9066650 4.2745061 0.5586420
vn 0.0000000 0.7894869 0.6137674
vt 0.0639165 3.9942119
v 1.2271529 4.2745061 0.5586423
vn 0.0000000 0.7894869 0.6137675
vt 0.4352332 3.9942119
v 1.2271529 -2.9726040 1.1955060
vn 0.0000000 0.0219563 -0.9997590
vt 0.4808331 -0.1101578
v 1.9066650 -2.9726040 1.1955060
vn 0.0000000 0.0219563 -0.9997590
vt 0.8566140 -0.1101578
v 1.2271529 -2.9726040 1.2719769
vn -1.0000000 0.0000000 0.0000000
vt 0.4352332 -0.1101578
v 1.2271529 -2.9726040 1.1955060
vn -1.0000000 0.0000000 0.0000000
vt 0.4808331 -0.1101578
v 1.5597340 -2.9726040 1.0981840
vn 0.9663624 0.0055891 -0.2571235
vt 0.9091278 -0.0951847
v 1.5856290 -2.9726040 1.1955060
vn 0.9663358 0.0056200 -0.2572229
vt 0.9804533 -0.0951847
v 1.2271529 4.1546612 0.0691840
vn 0.0000000 -0.4267913 0.9043502
vt 0.4808331 4.3829989
v 1.9066650 4.1546612 0.0691840
vn 0.0000000 -0.5626315 0.8267078
vt 0.8566140 4.3829989
v 1.2271529 -2.8664329 0.0796225
vn 0.0000000 0.3348040 0.9422878
vt 0.4808331 -1.2507920
v 1.9066650 -2.8664329 0.0796225
vn 0.0000000 0.2524232 0.9676170
vt 0.8566140 -1.2507920
v 1.9066650 4.1546612 0.0691840
vn 1.0000000 0.0000000 0.0000000
vt 0.0208083 4.3829989
v 1.9066650 4.1907039 -0.0031320
vn 1.0000000 0.0000000 0.0000000
vt 0.0639165 4.3829989
v 1.9066620 -2.8664329 -0.0004428
vn 1.0000000 0.0000000 0.0000000
vt 0.0639165 -1.2507920
v 1.9066650 -2.8664329 0.0796225
vn 1.0000000 0.0000000 0.0000000
vt 0.0208083 -1.2507920
v 1.2271529 4.1907039 -0.0031320
vn -1.0000000 0.0000000 0.0000000
vt 0.4352332 4.3829989
v 1.2271529 4.1546612 0.0691840
vn -1.0000000 0.0000000 0.0000000
vt 0.4808331 4.3829989
v 1.2271529 -2.8664329 0.0796225
vn -1.0000000 0.0000000 0.0000000
vt 0.4808331 -1.2507920
v 1.2271529 -2.8664329 -0.0004428
vn -1.0000000 0.0000000 0.0000000
vt 0.4352332 -1.2507920
v 1.9066650 4.1907039 -0.0031320
vn 0.0000000 0.4366800 -0.8996169
vt 0.0639165 4.3829989
v 1.2271529 4.1907039 -0.0031320
vn 0.0000000 0.4366800 -0.8996169
vt 0.4352332 4.3829989
v 1.2271529 -2.8664329 -0.0004428
vn 0.0000000 -0.3341636 -0.9425151
vt 0.4352332 -1.2507920
v 1.9066620 -2.8664329 -0.0004428
vn 0.0000000 -0.2516578 -0.9678163
vt 0.0639165 -1.2507920

g group_62984784_105553120375296
f 1/1/1 2/2/2 3/3/3 
f 3/3/3 2/2/2 4/4/4 
f 5/5/5 6/6/6 128/128/128 
f 5/5/5 128/128/128 127/127/127 
f 7/7/7 8/8/8 129/129/129 
f 129/129/129 8/8/8 130/130/130 
f 9/9/9 10/10/10 8/8/8 
f 9/9/9 8/8/8 7/7/7 
f 11/11/11 12/12/12 9/9/9 
f 9/9/9 12/12/12 10/10/10 
f 13/13/13 3/3/3 14/14/14 
f 14/14/14 3/3/3 4/4/4 
f 15/15/15 16/16/16 11/11/11 
f 11/11/11 16/16/16 12/12/12 
f 17/17/17 18/18/18 19/19/19 
f 17/17/17 19/19/19 20/20/20 
f 132/132/132 131/131/131 21/21/21 
f 21/21/21 131/131/131 22/22/22 
f 133/133/133 134/134/134 23/23/23 
f 23/23/23 134/134/134 24/24/24 
f 24/24/24 25/25/25 23/23/23 
f 23/23/23 25/25/25 26/26/26 
f 26/26/26 25/25/25 27/27/27 
f 26/26/26 27/27/27 28/28/28 
f 29/29/29 30/30/30 31/31/31 
f 29/29/29 31/31/31 32/32/32 
f 33/33/33 34/34/34 35/35/35 
f 35/35/35 34/34/34 36/36/36 
f 29/29/29 32/32/32 27/27/27 
f 27/27/27 32/32/32 28/28/28 
f 37/37/37 38/38/38 39/39/39 
f 37/37/37 39/39/39 40/40/40 
f 41/41/41 136/136/136 42/42/42 
f 42/42/42 136/136/136 135/135/135 
f 43/43/43 137/137/137 44/44/44 
f 44/44/44 137/137/137 138/138/138 
f 45/45/45 46/46/46 43/43/43 
f 45/45/45 43/43/43 44/44/44 
f 47/47/47 48/48/48 46/46/46 
f 47/47/47 46/46/46 45/45/45 
f 49/49/49 40/40/40 39/39/39 
f 49/49/49 39/39/39 50/50/50 
f 51/51/51 52/52/52 48/48/48 
f 51/51/51 48/48/48 47/47/47 
f 53/53/53 54/54/54 55/55/55 
f 53/53/53 55/55/55 56/56/56 
f 57/57/57 140/140/140 139/139/139 
f 57/57/57 139/139/139 58/58/58 
f 59/59/59 141/141/141 60/60/60 
f 60/60/60 141/141/141 142/142/142 
f 61/61/61 59/59/59 62/62/62 
f 62/62/62 59/59/59 60/60/60 
f 63/63/63 61/61/61 64/64/64 
f 64/64/64 61/61/61 62/62/62 
f 65/65/65 66/66/66 67/67/67 
f 67/67/67 66/66/66 68/68/68 
f 69/69/69 70/70/70 71/71/71 
f 71/71/71 70/70/70 72/72/72 
f 63/63/63 64/64/64 65/65/65 
f 65/65/65 64/64/64 66/66/66 
f 73/73/73 74/74/74 75/75/75 
f 75/75/75 74/74/74 76/76/76 
f 73/73/73 75/75/75 77/77/77 
f 77/77/77 75/75/75 78/78/78 
f 79/79/79 80/80/80 81/81/81 
f 81/81/81 80/80/80 82/82/82 
f 83/83/83 84/84/84 79/79/79 
f 79/79/79 84/84/84 80/80/80 
f 83/83/83 85/85/85 84/84/84 
f 84/84/84 85/85/85 86/86/86 
f 87/87/87 88/88/88 85/85/85 
f 85/85/85 88/88/88 86/86/86 
f 89/89/89 90/90/90 91/91/91 
f 91/91/91 90/90/90 92/92/92 
f 88/88/88 87/87/87 93/93/93 
f 93/93/93 87/87/87 94/94/94 
f 95/95/95 96/96/96 97/97/97 
f 95/95/95 97/97/97 98/98/98 
f 99/99/99 34/34/34 33/33/33 
f 99/99/99 33/33/33 100/100/100 
f 101/101/101 102/102/102 103/103/103 
f 101/101/101 103/103/103 104/104/104 
f 105/105/105 71/71/71 106/106/106 
f 106/106/106 71/71/71 72/72/72 
f 107/107/107 108/108/108 109/109/109 
f 109/109/109 108/108/108 110/110/110 
f 111/111/111 13/13/13 14/14/14 
f 111/111/111 14/14/14 112/112/112 
f 113/113/113 49/49/49 50/50/50 
f 113/113/113 50/50/50 114/114/114 
f 90/90/90 115/115/115 92/92/92 
f 92/92/92 115/115/115 116/116/116 
f 17/17/17 20/20/20 117/117/117 
f 17/17/17 117/117/117 118/118/118 
f 54/54/54 53/53/53 119/119/119 
f 119/119/119 53/53/53 120/120/120 
f 99/99/99 100/100/100 118/118/118 
f 99/99/99 118/118/118 117/117/117 
f 120/120/120 105/105/105 119/119/119 
f 119/119/119 105/105/105 106/106/106 
f 96/96/96 111/111/111 112/112/112 
f 96/96/96 112/112/112 97/97/97 
f 113/113/113 114/114/114 102/102/102 
f 113/113/113 102/102/102 101/101/101 
f 116/116/116 115/115/115 108/108/108 
f 108/108/108 115/115/115 110/110/110 
f 15/15/15 121/121/121 122/122/122 
f 15/15/15 122/122/122 16/16/16 
f 123/123/123 124/124/124 52/52/52 
f 123/123/123 52/52/52 51/51/51 
f 125/125/125 126/126/126 94/94/94 
f 94/94/94 126/126/126 93/93/93 
