v -1.2271529 3.7935021 0.6873929
vn 0.0000000 -0.9238799 0.3826827
vt 0.4808331 0.8469830
v -1.9066650 3.7935021 0.6873929
vn 0.0000000 -0.9238799 0.3826827
vt 0.8566140 0.8469830
v -1.9066650 3.5503330 0.4442245
vn 0.0000000 -0.5333555 0.8458912
vt 0.8566140 0.6568995
v -1.2271529 3.5503330 0.4442245
vn 0.0000000 -0.5333555 0.8458912
vt 0.4808331 0.6568995
v -1.9066650 2.5187221 0.0796225
vn 0.0000000 -0.1690477 0.9856079
vt 0.8566140 0.0732027
v -1.2271529 2.5187221 0.0796225
vn 0.0000000 -0.1690477 0.9856079
vt 0.4808331 0.0731941
v -1.9066650 -4.3765321 0.0796225
vn 0.0000000 0.0000000 1.0000000
vt 0.8566140 -3.8617887
v -1.2271529 -4.3765321 0.0796225
vn 0.0000000 0.0000000 1.0000000
vt 0.4808331 -3.8618059
v -1.2271529 3.3440790 1.3342270
vn 0.0000000 -0.5589435 -0.8292058
vt 0.4808331 1.3582960
v -1.9066650 3.3440790 1.3342270
vn 0.0000000 -0.5589435 -0.8292058
vt 0.8566140 1.3582960
v -1.9066650 3.7935009 1.0312850
vn 0.0000000 -0.8828766 -0.4696051
vt 0.8566140 1.0440730
v -1.2271529 3.7935009 1.0312850
vn 0.0000000 -0.8828766 -0.4696051
vt 0.4808331 1.0440730
v -1.9066650 3.5503330 0.4442245
vn -1.0000000 0.0000000 0.0000000
vt 0.0208083 0.6568995
v -1.9066650 3.7935021 0.6873929
vn -1.0000000 0.0000000 0.0000000
vt 0.0208083 0.8469830
v -1.9066650 3.5863760 0.3719086
vn -1.0000000 0.0000000 0.0000000
vt 0.0639165 0.6568995
v -1.9066650 3.8673079 0.6568210
vn -1.0000000 0.0000000 0.0000000
vt 0.0639165 0.8469830
v -1.9066650 2.5187221 0.0796225
vn -1.0000000 0.0000000 0.0000000
vt 0.0208083 0.0731936
v -1.9066679 2.5187221 0.0004428
vn -1.0000000 0.0000000 0.0000000
vt 0.0639165 0.0731936
v -1.9066650 -4.3765321 0.0796225
vn -1.0000000 0.0000000 0.0000000
vt 0.0208083 -3.8618069
v -1.9066620 -4.3765321 -0.0004428
vn -1.0000000 0.0000000 0.0000000
vt 0.0639165 -3.8618069
v -1.9066650 3.8673079 1.0618560
vn -1.0000000 0.0000000 0.0000000
vt 0.0639165 1.0440730
v -1.9066650 3.7935009 1.0312850
vn -1.0000000 0.0000000 0.0000000
vt 0.0208083 1.0440730
v -1.9066640 3.3595991 1.4121240
vn -1.0000000 0.0000000 0.0000000
vt 0.0639165 1.3582960
v -1.9066650 3.3440790 1.3342270
vn -1.0000000 0.0000000 0.0000000
vt 0.0208083 1.3582960
v -1.2271529 3.8673079 0.6568210
vn 1.0000000 0.0000000 0.0000000
vt 0.4352332 0.8469830
v -1.2271529 3.7935021 0.6873929
vn 1.0000000 0.0000000 0.0000000
vt 0.4808331 0.8469830
v -1.2271529 3.5503330 0.4442245
vn 1.0000000 0.0000000 0.0000000
vt 0.4808331 0.6568995
v -1.2271529 3.5863760 0.3719086
vn 1.0000000 0.0000000 0.0000000
vt 0.4352332 0.6568995
v -1.2271529 2.5187221 0.0004428
vn 1.0000000 0.0000000 0.0000000
vt 0.4352332 0.0731931
v -1.2271529 2.5187221 0.0796225
vn 1.0000000 0.0000000 0.0000000
vt 0.4808331 0.0731941
v -1.2271529 -4.3765321 0.0796225
vn 1.0000000 0.0000000 0.0000000
vt 0.4808331 -3.8618059
v -1.2271529 -4.3765321 -0.0004428
vn 1.0000000 0.0000000 0.0000000
vt 0.4352332 -3.8601542
v -1.2271529 3.3440790 1.3342270
vn 1.0000000 0.0000000 0.0000000
vt 0.4808331 1.3582960
v -1.2271529 3.7935009 1.0312850
vn 1.0000000 0.0000000 0.0000000
vt 0.4808331 1.0440730
v -1.2271520 3.3595991 1.4121250
vn 1.0000000 0.0000000 0.0000000
vt 0.4352332 1.3582960
v -1.2271529 3.8673069 1.0618560
vn 1.0000000 0.0000000 0.0000000
vt 0.4352332 1.0440730
v -1.2271529 3.8673079 0.6568210
vn 0.0000000 0.9680848 -0.2506230
vt 0.4352332 0.8469830
v -1.2271529 3.5863760 0.3719086
vn 0.0000000 0.5980781 -0.8014379
vt 0.4352332 0.6568995
v -1.9066650 3.8673079 0.6568210
vn 0.0000000 0.8653041 -0.5012472
vt 0.0639165 0.8469830
v -1.9066650 3.5863760 0.3719086
vn 0.0000000 0.4672326 -0.8841345
vt 0.0639165 0.6568995
v -1.9066679 2.5187221 0.0004428
vn 0.0000000 0.1666958 -0.9860084
vt 0.0639165 0.0731936
v -1.2271529 2.5187221 0.0004428
vn 0.0000000 0.2218662 -0.9750772
vt 0.4352332 0.0731936
v -1.9066620 -4.3765321 -0.0004428
vn 0.0000000 0.0001284 -1.0000000
vt 0.0639165 -3.8618069
v -1.2271529 -4.3765321 -0.0004428
vn 0.0000000 0.0001284 -1.0000000
vt 0.4352332 -3.8601532
v -1.2271520 3.3595991 1.4121250
vn 0.0000000 0.5678700 0.8231183
vt 0.4352332 1.3582960
v -1.2271529 3.8673069 1.0618560
vn 0.0000000 0.7920211 0.6104938
vt 0.4352332 1.0440730
v -1.9066640 3.3595991 1.4121240
vn 0.0000000 0.5678697 0.8231185
vt 0.0639165 1.3582960
v -1.9066650 3.8673079 1.0618560
vn 0.0000000 0.9522730 0.3052478
vt 0.0639165 1.0440730
v -1.5856290 3.7935021 0.6873929
vn -0.9843372 -0.1697474 0.0476044
vt 0.9804533 0.8479667
v -1.5856290 3.5503330 0.4442245
vn -0.9815272 -0.1013164 0.1622940
vt 0.9804533 0.6806146
v -1.5597340 3.6541729 0.7263623
vn -0.9837151 -0.1531350 0.0940970
vt 0.9091278 0.8469830
v -1.5597349 3.4737000 0.5533908
vn -0.9815965 -0.0994119 0.1630506
vt 0.9091278 0.6393383
v -1.5856290 2.5187221 0.0785574
vn -0.9830028 -0.0319933 0.1807812
vt 0.9804533 0.0731903
v -1.5597340 2.5187221 0.2193643
vn -0.9824252 -0.0323544 0.1838317
vt 0.9091278 0.0731969
v -1.5856290 -4.3765321 0.0796225
vn -0.9829489 0.0000000 0.1838791
vt 0.9804533 -3.8258100
v -1.5597360 -4.3765321 0.2157358
vn -0.9823822 0.0000000 0.1868827
vt 0.9091278 -3.8257961
v -1.5597349 3.3336210 1.2104239
vn -0.9713104 -0.1414043 -0.1912097
vt 0.9091278 1.3422090
v -1.5856290 3.3440790 1.3342270
vn -0.9755875 -0.1270189 -0.1791516
vt 0.9804533 1.3591120
v -1.5597349 3.6544471 0.9731644
vn -0.9837139 -0.1556354 -0.0899147
vt 0.9091278 1.0187440
v -1.5856290 3.7935009 1.0312850
vn -0.9853597 -0.1484389 -0.0838585
vt 0.9804533 1.0187440
v -1.9066650 -2.8556581 1.1181990
vn -1.0000000 0.0000000 0.0000000
vt 0.0208083 4.7541132
v -1.9066660 -2.9316061 1.1181990
vn -1.0000000 0.0000000 0.0000000
vt 0.0639165 4.7541132
v -1.9066660 -2.8332911 1.2966930
vn -1.0000000 0.0000000 0.0000000
vt 0.0639165 4.6520872
v -1.9066650 -2.7795570 1.2429590
vn -1.0000000 0.0000000 0.0000000
vt 0.0208083 4.6520872
v -1.9066660 -2.8332911 1.2966930
vn 0.0000000 -0.6592885 0.7518901
vt 0.0639165 4.6520872
v -1.9066660 -2.9316061 1.1181990
vn 0.0000000 -0.8759207 0.4824553
vt 0.0639165 4.7541132
v -1.2271529 -2.8332911 1.2966920
vn 0.0000000 -0.7446509 0.6674542
vt 0.4352332 4.6520872
v -1.2271529 -2.9316051 1.1181990
vn 0.0000000 -0.8759208 0.4824550
vt 0.4352332 4.7541132
v -1.9066650 -2.8556581 1.1181990
vn 0.0000000 0.8537118 -0.5207458
vt 0.8566140 4.7541132
v -1.9066650 -2.7795570 1.2429590
vn 0.0000000 0.7220264 -0.6918655
vt 0.8566140 4.6520872
v -1.2271529 -2.8556581 1.1181990
vn 0.0000000 0.8537127 -0.5207445
vt 0.4808331 4.7541132
v -1.2271529 -2.7795570 1.2429590
vn 0.0000000 0.6388695 -0.7693152
vt 0.4808331 4.6520872
v -1.2271529 -2.8556581 1.1181990
vn 1.0000000 0.0000000 0.0000000
vt 0.4808331 4.7541132
v -1.2271529 -2.7795570 1.2429590
vn 1.0000000 0.0000000 0.0000000
vt 0.4808331 4.6520872
v -1.2271529 -2.8332911 1.2966920
vn 1.0000000 0.0000000 0.0000000
vt 0.4352332 4.6520872
v -1.2271529 -2.9316051 1.1181990
vn 1.0000000 0.0000000 0.0000000
vt 0.4352332 4.7541132
v -1.5856290 -2.7795570 1.2429590
vn -0.9784148 0.1269104 -0.1630895
vt 0.9804533 4.6636300
v -1.5597340 -2.7308850 1.1181990
vn -0.9778860 0.1519712 -0.1436791
vt 0.9091278 4.6922760
v -1.5856290 -2.8556581 1.1181990
vn -0.9717002 0.2016618 -0.1230099
vt 0.9804533 4.7310238
v -1.9066660 -2.6577010 1.3652840
vn -1.0000000 0.0000000 0.0000000
vt 0.0639165 4.5757661
v -1.9066650 -2.6577010 1.2892410
vn -1.0000000 0.0000000 0.0000000
vt 0.0208083 4.5757661
v -1.9066660 -2.6577010 1.3652840
vn 0.0000000 -0.3638555 0.9314554
vt 0.0639165 4.5757661
v -1.2271529 -2.6577010 1.3652830
vn 0.0000000 -0.3638555 0.9314554
vt 0.4352332 4.5757661
v -1.9066650 -2.6577010 1.2892410
vn 0.0000000 0.3550620 -0.9348428
vt 0.8566140 4.5757661
v -1.2271529 -2.6577010 1.2892410
vn 0.0000000 0.3550620 -0.9348428
vt 0.4808331 4.5757661
v -1.2271529 -2.6577010 1.2892410
vn 1.0000000 0.0000000 0.0000000
vt 0.4808331 4.5757661
v -1.2271529 -2.6577010 1.3652830
vn 1.0000000 0.0000000 0.0000000
vt 0.4352332 4.5757661
v -1.5856290 -2.6577010 1.2892410
vn -0.9765265 0.0764803 -0.2013624
vt 0.9804533 4.5966911
v -1.5597349 -2.6577010 1.1636630
vn -0.9791173 0.0891805 -0.1826917
vt 0.9091278 4.5952482
v -1.2271529 -4.3765321 -0.0004428
vn 0.0000000 -1.0000000 0.0000000
vt 0.0639165 0.6938288
v -1.2271529 -4.3765321 0.0796225
vn 0.0000000 -1.0000000 0.0000000
vt 0.0639165 0.7301223
v -1.9066620 -4.3765321 -0.0004428
vn 0.0000000 -1.0000000 0.0000000
vt 0.4352332 0.6938288
v -1.9066650 -4.3765321 0.0796225
vn 0.0000000 -1.0000000 0.0000000
vt 0.4352332 0.7301223
v -1.2271529 -2.8556581 1.1181990
vn 0.0000000 0.0000000 -1.0000000
vt 0.4352332 0.7301221
v -1.2271529 -2.9316051 1.1181990
vn 0.0000000 0.0000000 -1.0000000
vt 0.4352332 0.6938286
v -1.9066660 -2.9316061 1.1181990
vn 0.0000000 0.0000000 -1.0000000
vt 0.0639165 0.6938286
v -1.9066650 -2.8556581 1.1181990
vn 0.0000000 0.0000000 -1.0000000
vt 0.0639165 0.7301221

g group_62983608_105553120373504
f 1/1/1 2/2/2 3/3/3 
f 1/1/1 3/3/3 4/4/4 
f 3/3/3 5/5/5 6/6/6 
f 3/3/3 6/6/6 4/4/4 
f 5/5/5 7/7/7 8/8/8 
f 5/5/5 8/8/8 6/6/6 
f 9/9/9 10/10/10 11/11/11 
f 9/9/9 11/11/11 12/12/12 
f 12/12/12 11/11/11 2/2/2 
f 12/12/12 2/2/2 1/1/1 
f 13/13/13 14/14/14 15/15/15 
f 15/15/15 14/14/14 16/16/16 
f 13/13/13 15/15/15 17/17/17 
f 17/17/17 15/15/15 18/18/18 
f 19/19/19 17/17/17 20/20/20 
f 20/20/20 17/17/17 18/18/18 
f 21/21/21 22/22/22 23/23/23 
f 23/23/23 22/22/22 24/24/24 
f 16/16/16 14/14/14 22/22/22 
f 16/16/16 22/22/22 21/21/21 
f 25/25/25 26/26/26 27/27/27 
f 25/25/25 27/27/27 28/28/28 
f 29/29/29 28/28/28 30/30/30 
f 30/30/30 28/28/28 27/27/27 
f 30/30/30 31/31/31 29/29/29 
f 29/29/29 31/31/31 32/32/32 
f 33/33/33 34/34/34 35/35/35 
f 35/35/35 34/34/34 36/36/36 
f 36/36/36 34/34/34 26/26/26 
f 36/36/36 26/26/26 25/25/25 
f 37/37/37 38/38/38 39/39/39 
f 39/39/39 38/38/38 40/40/40 
f 41/41/41 40/40/40 42/42/42 
f 42/42/42 40/40/40 38/38/38 
f 43/43/43 41/41/41 42/42/42 
f 43/43/43 42/42/42 44/44/44 
f 45/45/45 46/46/46 47/47/47 
f 47/47/47 46/46/46 48/48/48 
f 46/46/46 37/37/37 48/48/48 
f 48/48/48 37/37/37 39/39/39 
f 49/49/49 50/50/50 51/51/51 
f 51/51/51 50/50/50 52/52/52 
f 53/53/53 54/54/54 50/50/50 
f 50/50/50 54/54/54 52/52/52 
f 53/53/53 55/55/55 54/54/54 
f 54/54/54 55/55/55 56/56/56 
f 57/57/57 58/58/58 59/59/59 
f 59/59/59 58/58/58 60/60/60 
f 51/51/51 59/59/59 49/49/49 
f 49/49/49 59/59/59 60/60/60 
f 61/61/61 62/62/62 63/63/63 
f 61/61/61 63/63/63 64/64/64 
f 65/65/65 66/66/66 67/67/67 
f 67/67/67 66/66/66 68/68/68 
f 69/69/69 70/70/70 71/71/71 
f 71/71/71 70/70/70 72/72/72 
f 73/73/73 74/74/74 75/75/75 
f 73/73/73 75/75/75 76/76/76 
f 77/77/77 78/78/78 79/79/79 
f 64/64/64 63/63/63 80/80/80 
f 64/64/64 80/80/80 81/81/81 
f 82/82/82 65/65/65 67/67/67 
f 82/82/82 67/67/67 83/83/83 
f 70/70/70 84/84/84 85/85/85 
f 70/70/70 85/85/85 72/72/72 
f 74/74/74 86/86/86 87/87/87 
f 74/74/74 87/87/87 75/75/75 
f 88/88/88 89/89/89 77/77/77 
f 77/77/77 89/89/89 78/78/78 
f 90/90/90 91/91/91 92/92/92 
f 92/92/92 91/91/91 93/93/93 
f 94/94/94 95/95/95 96/96/96 
f 94/94/94 96/96/96 97/97/97 
