v 1.4959410 -2.2666521 1.0051540
vn 0.0000000 0.5877841 0.8090179
vt 0.7676650 0.1299050
v 1.4959410 -2.1384051 0.8286372
vn 0.0000000 0.9510568 0.3090164
vt 0.7676650 0.1069220
v 1.4417080 -2.2666521 1.0051540
vn 0.0000000 0.5877842 0.8090178
vt 0.7619550 0.1299050
v 1.4417080 -2.1384051 0.8286372
vn 0.0000000 0.9510567 0.3090165
vt 0.7619550 0.1069220
v 1.4959410 -2.1384051 0.6104509
vn 0.0000000 0.9510562 -0.3090181
vt 0.7676650 0.0839390
v 1.4417080 -2.1384051 0.6104509
vn 0.0000000 0.9510563 -0.3090177
vt 0.7619550 0.0839390
v 1.4959410 -2.2666521 0.4339343
vn 0.0000000 0.5877854 -0.8090169
vt 0.7676650 0.0609560
v 1.4417080 -2.2666521 0.4339343
vn 0.0000000 0.5877857 -0.8090167
vt 0.7619550 0.0609560
v 1.4959410 -2.4741600 0.3665111
vn 0.0000000 0.0000000 -1.0000000
vt 0.7676650 0.0379730
v 1.4417080 -2.4741600 0.3665111
vn 0.0000000 0.0000000 -1.0000000
vt 0.7619550 0.0379730
v 1.4959410 -2.4741600 0.3665111
vn 0.0000000 0.0000000 -1.0000000
vt 0.7619550 0.0379730
v 1.4959410 -2.6816671 0.4339343
vn 0.0000000 -0.5877839 -0.8090181
vt 0.7619550 0.0609560
v 1.4417080 -2.4741600 0.3665111
vn 0.0000000 0.0000000 -1.0000000
vt 0.7676650 0.0379730
v 1.4417080 -2.6816671 0.4339343
vn 0.0000000 -0.5877839 -0.8090181
vt 0.7676650 0.0609560
v 1.4959410 -2.8099141 0.6104509
vn 0.0000000 -0.9510565 -0.3090172
vt 0.7619550 0.0839390
v 1.4417080 -2.8099141 0.6104509
vn 0.0000000 -0.9510564 -0.3090173
vt 0.7676650 0.0839390
v 1.4959410 -2.8099141 0.8286374
vn 0.0000000 -0.9510564 0.3090173
vt 0.7619550 0.1069220
v 1.4417080 -2.8099141 0.8286374
vn 0.0000000 -0.9510565 0.3090172
vt 0.7676650 0.1069220
v 1.4959410 -2.6816671 1.0051540
vn 0.0000000 -0.5877842 0.8090178
vt 0.7619550 0.1299050
v 1.4417080 -2.6816671 1.0051540
vn 0.0000000 -0.5877842 0.8090178
vt 0.7676650 0.1299050
v 1.4959410 -2.4741600 1.0725770
vn 0.0000000 0.0000000 1.0000000
vt 0.7619550 0.1528890
v 1.4417080 -2.4741600 1.0725770
vn 0.0000000 0.0000000 1.0000000
vt 0.7676650 0.1528890
v 1.4959410 -2.4741600 1.0725770
vn 0.0000000 0.0000000 1.0000000
vt 0.7676650 0.1528890
v 1.4417080 -2.4741600 1.0725770
vn 0.0000000 0.0000000 1.0000000
vt 0.7619550 0.1528890
v 1.4417080 -2.6816671 1.0051540
vn -1.0000000 0.0000000 0.0000000
vt 0.7375730 0.4085960
v 1.4417080 -2.4741600 1.0725770
vn -1.0000000 0.0000000 0.0000000
vt 0.7594320 0.4156970
v 1.4417080 -2.8099141 0.8286374
vn -1.0000000 0.0000000 0.0000000
vt 0.7240620 0.3900040
v 1.4417080 -2.6816671 0.4339343
vn -1.0000000 0.0000000 0.0000000
vt 0.7375710 0.3484260
v 1.4417080 -2.8099141 0.6104509
vn -1.0000000 0.0000000 0.0000000
vt 0.7240620 0.3670220
v 1.4417080 -2.2666521 0.4339343
vn -1.0000000 0.0000000 0.0000000
vt 0.7812910 0.3484260
v 1.4417080 -2.4741600 0.3665111
vn -1.0000000 0.0000000 0.0000000
vt 0.7594310 0.3413240
v 1.4417080 -2.1384051 0.8286372
vn -1.0000000 0.0000000 0.0000000
vt 0.7947980 0.3899990
v 1.4417080 -2.1384051 0.6104509
vn -1.0000000 0.0000000 0.0000000
vt 0.7947980 0.3670180
v 1.4417080 -2.2666521 1.0051540
vn -1.0000000 0.0000000 0.0000000
vt 0.7812910 0.4085910
v 1.4959410 -2.4741600 1.0725770
vn 1.0000000 0.0000000 0.0000000
vt 0.7375730 0.4085960
v 1.4959410 -2.6816671 1.0051540
vn 1.0000000 0.0000000 0.0000000
vt 0.7594310 0.4156970
v 1.4959410 -2.2666521 1.0051540
vn 1.0000000 0.0000000 0.0000000
vt 0.7240620 0.3900040
v 1.4959410 -2.1384051 0.6104509
vn 1.0000000 0.0000000 0.0000000
vt 0.7375710 0.3484260
v 1.4959410 -2.1384051 0.8286372
vn 1.0000000 0.0000000 0.0000000
vt 0.7240620 0.3670220
v 1.4959410 -2.4741600 0.3665111
vn 1.0000000 0.0000000 0.0000000
vt 0.7812860 0.3484260
v 1.4959410 -2.2666521 0.4339343
vn 1.0000000 0.0000000 0.0000000
vt 0.7594280 0.3413240
v 1.4959410 -2.8099141 0.6104509
vn 1.0000000 0.0000000 0.0000000
vt 0.7947980 0.3899990
v 1.4959410 -2.6816671 0.4339343
vn 1.0000000 0.0000000 0.0000000
vt 0.7947940 0.3670170
v 1.4959410 -2.8099141 0.8286374
vn 1.0000000 0.0000000 0.0000000
vt 0.7812910 0.4085910
v 1.0650899 -2.2666521 1.0051540
vn 0.0000000 0.5877857 0.8090167
vt 0.7676650 0.1299050
v 1.0650899 -2.1384051 0.8286372
vn 0.0000000 0.9510566 0.3090168
vt 0.7676650 0.1069220
v 1.0108570 -2.2666521 1.0051540
vn 0.0000000 0.5877854 0.8090169
vt 0.7619550 0.1299050
v 1.0108570 -2.1384051 0.8286372
vn 0.0000000 0.9510565 0.3090171
vt 0.7619550 0.1069220
v 1.0650899 -2.1384051 0.6104509
vn 0.0000000 0.9510567 -0.3090165
vt 0.7676650 0.0839390
v 1.0108570 -2.1384051 0.6104509
vn 0.0000000 0.9510567 -0.3090166
vt 0.7619550 0.0839390
v 1.0650899 -2.2666521 0.4339343
vn 0.0000000 0.5877849 -0.8090173
vt 0.7676650 0.0609560
v 1.0108570 -2.2666521 0.4339343
vn 0.0000000 0.5877844 -0.8090177
vt 0.7619550 0.0609560
v 1.0650899 -2.4741600 0.3665111
vn 0.0000000 0.0000000 -1.0000000
vt 0.7676650 0.0379730
v 1.0108570 -2.4741600 0.3665111
vn 0.0000000 0.0000000 -1.0000000
vt 0.7619550 0.0379730
v 1.0650899 -2.4741600 0.3665111
vn 0.0000000 0.0000000 -1.0000000
vt 0.7715430 0.0379390
v 1.0650899 -2.6816671 0.4339343
vn 0.0000000 -0.5877861 -0.8090165
vt 0.7715430 0.0609220
v 1.0108570 -2.4741600 0.3665111
vn 0.0000000 0.0000000 -1.0000000
vt 0.7772530 0.0379390
v 1.0108570 -2.6816671 0.4339343
vn 0.0000000 -0.5877853 -0.8090170
vt 0.7772530 0.0609220
v 1.0650899 -2.8099141 0.6104509
vn 0.0000000 -0.9510563 -0.3090177
vt 0.7715430 0.0839030
v 1.0108570 -2.8099141 0.6104509
vn 0.0000000 -0.9510561 -0.3090184
vt 0.7772530 0.0839030
v 1.0650899 -2.8099141 0.8286374
vn 0.0000000 -0.9510561 0.3090182
vt 0.7715430 0.1068890
v 1.0108570 -2.8099141 0.8286374
vn 0.0000000 -0.9510562 0.3090179
vt 0.7772530 0.1068890
v 1.0650899 -2.6816671 1.0051540
vn 0.0000000 -0.5877854 0.8090169
vt 0.7715430 0.1298700
v 1.0108570 -2.6816671 1.0051540
vn 0.0000000 -0.5877854 0.8090169
vt 0.7772530 0.1298700
v 1.0650899 -2.4741600 1.0725770
vn 0.0000000 0.0000000 1.0000000
vt 0.7715430 0.1528560
v 1.0108570 -2.4741600 1.0725770
vn 0.0000000 0.0000000 1.0000000
vt 0.7772530 0.1528560
v 1.0650899 -2.4741600 1.0725770
vn 0.0000000 0.0000000 1.0000000
vt 0.7676650 0.1528890
v 1.0108570 -2.4741600 1.0725770
vn 0.0000000 0.0000000 1.0000000
vt 0.7619550 0.1528890
v 1.0108570 -2.6816671 1.0051540
vn -1.0000000 0.0000000 0.0000000
vt 0.7375730 0.4085960
v 1.0108570 -2.4741600 1.0725770
vn -1.0000000 0.0000000 0.0000000
vt 0.7594320 0.4156970
v 1.0108570 -2.8099141 0.8286374
vn -1.0000000 0.0000000 0.0000000
vt 0.7240620 0.3900040
v 1.0108570 -2.6816671 0.4339343
vn -1.0000000 0.0000000 0.0000000
vt 0.7375710 0.3484260
v 1.0108570 -2.8099141 0.6104509
vn -1.0000000 0.0000000 0.0000000
vt 0.7240620 0.3670220
v 1.0108570 -2.2666521 0.4339343
vn -1.0000000 0.0000000 0.0000000
vt 0.7812910 0.3484260
v 1.0108570 -2.4741600 0.3665111
vn -1.0000000 0.0000000 0.0000000
vt 0.7594310 0.3413240
v 1.0108570 -2.1384051 0.8286372
vn -1.0000000 0.0000000 0.0000000
vt 0.7947980 0.3899990
v 1.0108570 -2.1384051 0.6104509
vn -1.0000000 0.0000000 0.0000000
vt 0.7947980 0.3670180
v 1.0108570 -2.2666521 1.0051540
vn -1.0000000 0.0000000 0.0000000
vt 0.7812910 0.4085910
v 1.0650899 -2.4741600 1.0725770
vn 1.0000000 0.0000000 0.0000000
vt 0.7375730 0.4085960
v 1.0650899 -2.6816671 1.0051540
vn 1.0000000 0.0000000 0.0000000
vt 0.7594310 0.4156970
v 1.0650899 -2.2666521 1.0051540
vn 1.0000000 0.0000000 0.0000000
vt 0.7240620 0.3900040
v 1.0650899 -2.1384051 0.6104509
vn 1.0000000 0.0000000 0.0000000
vt 0.7375710 0.3484260
v 1.0650899 -2.1384051 0.8286372
vn 1.0000000 0.0000000 0.0000000
vt 0.7240620 0.3670220
v 1.0650899 -2.4741600 0.3665111
vn 1.0000000 0.0000000 0.0000000
vt 0.7812860 0.3484260
v 1.0650899 -2.2666521 0.4339343
vn 1.0000000 0.0000000 0.0000000
vt 0.7594280 0.3413240
v 1.0650899 -2.8099141 0.6104509
vn 1.0000000 0.0000000 0.0000000
vt 0.7947980 0.3899990
v 1.0650899 -2.6816671 0.4339343
vn 1.0000000 0.0000000 0.0000000
vt 0.7947940 0.3670170
v 1.0650899 -2.8099141 0.8286374
vn 1.0000000 0.0000000 0.0000000
vt 0.7812910 0.4085910
v 1.4446880 -2.3452151 0.7939899
vn 0.0000000 0.8660248 0.5000011
vt 0.8862580 0.1218350
v 1.4446880 -2.3452151 0.6450983
vn 0.0000000 0.8660255 -0.4999999
vt 0.8862550 0.1061490
v 0.9788145 -2.3452151 0.7939899
vn 0.0000000 0.8660253 0.5000001
vt 0.8371850 0.1218400
v 0.9788145 -2.3452151 0.6450983
vn 0.0000000 0.8660250 -0.5000008
vt 0.8371810 0.1061580
v 1.4446880 -2.4741600 0.5706523
vn 0.0000000 0.0000000 -1.0000000
vt 0.8862550 0.0904660
v 0.9788145 -2.4741600 0.5706523
vn 0.0000000 0.0000000 -1.0000000
vt 0.8371800 0.0904750
v 1.4446880 -2.4741600 0.5706523
vn 0.0000000 0.0000000 -1.0000000
vt 0.8371800 0.0904750
v 1.4446880 -2.6031041 0.6450981
vn 0.0000000 -0.8660253 -0.5000001
vt 0.8371810 0.1061580
v 0.9788145 -2.4741600 0.5706523
vn 0.0000000 0.0000000 -1.0000000
vt 0.8862550 0.0904660
v 0.9788145 -2.6031041 0.6450981
vn 0.0000000 -0.8660249 -0.5000011
vt 0.8862550 0.1061490
v 1.4446880 -2.6031041 0.7939899
vn 0.0000000 -0.8660248 0.5000011
vt 0.8371850 0.1218400
v 0.9788145 -2.6031041 0.7939899
vn 0.0000000 -0.8660254 0.5000001
vt 0.8862580 0.1218350
v 1.4446880 -2.4741600 0.8684357
vn 0.0000000 0.0000000 1.0000000
vt 0.8371850 0.1375200
v 0.9788145 -2.4741600 0.8684357
vn 0.0000000 0.0000000 1.0000000
vt 0.8862580 0.1375200
v 1.4446880 -2.4741600 0.8684357
vn 0.0000000 0.0000000 1.0000000
vt 0.8862580 0.1375200
v 0.9788145 -2.4741600 0.8684357
vn 0.0000000 0.0000000 1.0000000
vt 0.8371850 0.1375200
v 0.9788145 -2.4741600 0.5706523
vn -1.0000000 0.0000000 0.0000000
vt 0.8120455 0.1315538
v 0.9788145 -2.6031041 0.6450981
vn -1.0000000 0.0000000 0.0000000
vt 0.7984635 0.1393958
v 0.9788145 -2.3452151 0.6450983
vn -1.0000000 0.0000000 0.0000000
vt 0.8256275 0.1393958
v 0.9788145 -2.4741600 0.8684357
vn -1.0000000 0.0000000 0.0000000
vt 0.8120455 0.1629198
v 0.9788145 -2.3452151 0.7939899
vn -1.0000000 0.0000000 0.0000000
vt 0.8256275 0.1550778
v 0.9788145 -2.6031041 0.7939899
vn -1.0000000 0.0000000 0.0000000
vt 0.7984635 0.1550778

g group_61_140627822376960
f 1/1/1 2/2/2 3/3/3 
f 3/3/3 2/2/2 4/4/4 
f 2/2/2 5/5/5 4/4/4 
f 4/4/4 5/5/5 6/6/6 
f 5/5/5 7/7/7 6/6/6 
f 6/6/6 7/7/7 8/8/8 
f 7/7/7 9/9/9 8/8/8 
f 8/8/8 9/9/9 10/10/10 
f 11/11/11 12/12/12 13/13/13 
f 13/13/13 12/12/12 14/14/14 
f 12/12/12 15/15/15 14/14/14 
f 14/14/14 15/15/15 16/16/16 
f 15/15/15 17/17/17 16/16/16 
f 16/16/16 17/17/17 18/18/18 
f 17/17/17 19/19/19 18/18/18 
f 18/18/18 19/19/19 20/20/20 
f 19/19/19 21/21/21 20/20/20 
f 20/20/20 21/21/21 22/22/22 
f 23/23/23 1/1/1 24/24/24 
f 24/24/24 1/1/1 3/3/3 
f 25/25/25 26/26/26 27/27/27 
f 26/26/26 28/28/28 27/27/27 
f 27/27/27 28/28/28 29/29/29 
f 30/30/30 31/31/31 26/26/26 
f 26/26/26 31/31/31 28/28/28 
f 26/26/26 32/32/32 30/30/30 
f 30/30/30 32/32/32 33/33/33 
f 32/32/32 26/26/26 34/34/34 
f 35/35/35 36/36/36 37/37/37 
f 36/36/36 38/38/38 37/37/37 
f 37/37/37 38/38/38 39/39/39 
f 40/40/40 41/41/41 36/36/36 
f 36/36/36 41/41/41 38/38/38 
f 36/36/36 42/42/42 40/40/40 
f 40/40/40 42/42/42 43/43/43 
f 42/42/42 36/36/36 44/44/44 
f 45/45/45 46/46/46 47/47/47 
f 47/47/47 46/46/46 48/48/48 
f 46/46/46 49/49/49 48/48/48 
f 48/48/48 49/49/49 50/50/50 
f 49/49/49 51/51/51 50/50/50 
f 50/50/50 51/51/51 52/52/52 
f 51/51/51 53/53/53 52/52/52 
f 52/52/52 53/53/53 54/54/54 
f 55/55/55 56/56/56 57/57/57 
f 57/57/57 56/56/56 58/58/58 
f 56/56/56 59/59/59 58/58/58 
f 58/58/58 59/59/59 60/60/60 
f 59/59/59 61/61/61 60/60/60 
f 60/60/60 61/61/61 62/62/62 
f 61/61/61 63/63/63 62/62/62 
f 62/62/62 63/63/63 64/64/64 
f 63/63/63 65/65/65 64/64/64 
f 64/64/64 65/65/65 66/66/66 
f 67/67/67 45/45/45 68/68/68 
f 68/68/68 45/45/45 47/47/47 
f 69/69/69 70/70/70 71/71/71 
f 70/70/70 72/72/72 71/71/71 
f 71/71/71 72/72/72 73/73/73 
f 74/74/74 75/75/75 70/70/70 
f 70/70/70 75/75/75 72/72/72 
f 70/70/70 76/76/76 74/74/74 
f 74/74/74 76/76/76 77/77/77 
f 76/76/76 70/70/70 78/78/78 
f 79/79/79 80/80/80 81/81/81 
f 80/80/80 82/82/82 81/81/81 
f 81/81/81 82/82/82 83/83/83 
f 84/84/84 85/85/85 80/80/80 
f 80/80/80 85/85/85 82/82/82 
f 80/80/80 86/86/86 84/84/84 
f 84/84/84 86/86/86 87/87/87 
f 86/86/86 80/80/80 88/88/88 
f 89/89/89 90/90/90 91/91/91 
f 91/91/91 90/90/90 92/92/92 
f 90/90/90 93/93/93 92/92/92 
f 92/92/92 93/93/93 94/94/94 
f 95/95/95 96/96/96 97/97/97 
f 97/97/97 96/96/96 98/98/98 
f 96/96/96 99/99/99 98/98/98 
f 98/98/98 99/99/99 100/100/100 
f 99/99/99 101/101/101 100/100/100 
f 100/100/100 101/101/101 102/102/102 
f 103/103/103 89/89/89 104/104/104 
f 104/104/104 89/89/89 91/91/91 
f 105/105/105 106/106/106 107/107/107 
f 106/106/106 108/108/108 107/107/107 
f 107/107/107 108/108/108 109/109/109 
f 108/108/108 106/106/106 110/110/110 
