v -1.3053740 2.2730639 1.1228290
vn 0.0000000 0.8660252 0.5000004
vt 0.8858680 0.1667860
v -1.2234770 2.2730639 1.1228290
vn 0.0000000 0.8660254 0.4999999
vt 0.8772370 0.1667860
v -1.3053740 2.2730639 1.0027710
vn 0.0000000 0.8660258 -0.4999994
vt 0.8858680 0.1541420
v -1.2234770 2.2730639 1.0027710
vn 0.0000000 0.8660256 -0.4999997
vt 0.8772370 0.1541420
v -1.3053740 2.1690910 0.9427414
vn 0.0000000 0.0000000 -1.0000000
vt 0.8858680 0.1414900
v -1.2234770 2.1690910 0.9427414
vn 0.0000000 0.0000000 -1.0000000
vt 0.8772370 0.1414900
v -1.3053740 2.1690910 0.9427414
vn 0.0000000 0.0000000 -1.0000000
vt 0.8772370 0.1414900
v -1.2234770 2.1690910 0.9427414
vn 0.0000000 0.0000000 -1.0000000
vt 0.8858680 0.1414900
v -1.3053740 2.0651169 1.0027710
vn 0.0000000 -0.8660258 -0.4999993
vt 0.8772370 0.1541420
v -1.2234770 2.0651169 1.0027710
vn 0.0000000 -0.8660258 -0.4999994
vt 0.8858680 0.1541420
v -1.3053740 2.0651169 1.1228290
vn 0.0000000 -0.8660254 0.4999999
vt 0.8772370 0.1667860
v -1.2234770 2.0651169 1.1228290
vn 0.0000000 -0.8660254 0.4999999
vt 0.8858680 0.1667860
v -1.3053740 2.1690910 1.1828580
vn 0.0000000 0.0000000 1.0000000
vt 0.8772370 0.1794330
v -1.2234770 2.1690910 1.1828580
vn 0.0000000 0.0000000 1.0000000
vt 0.8858680 0.1794330
v -1.3053740 2.1690910 1.1828580
vn 0.0000000 0.0000000 1.0000000
vt 0.8858680 0.1794330
v -1.2234770 2.1690910 1.1828580
vn 0.0000000 0.0000000 1.0000000
vt 0.8772370 0.1794330
v -1.3053740 2.1690910 1.1828580
vn -1.0000000 0.0000000 0.0000000
vt 0.8102540 0.3628050
v -1.3053740 2.2730639 1.1228290
vn -1.0000000 0.0000000 0.0000000
vt 0.7993020 0.3564810
v -1.3053740 2.0651169 1.1228290
vn -1.0000000 0.0000000 0.0000000
vt 0.8212060 0.3564810
v -1.3053740 2.1690910 0.9427414
vn -1.0000000 0.0000000 0.0000000
vt 0.8102540 0.3375120
v -1.3053740 2.2730639 1.0027710
vn -1.0000000 0.0000000 0.0000000
vt 0.7993020 0.3438360
v -1.3053740 2.0651169 1.0027710
vn -1.0000000 0.0000000 0.0000000
vt 0.8212060 0.3438360

g group_136_140627822985456
f 1/1/1 2/2/2 3/3/3 
f 2/2/2 4/4/4 3/3/3 
f 3/3/3 4/4/4 5/5/5 
f 4/4/4 6/6/6 5/5/5 
f 7/7/7 8/8/8 9/9/9 
f 8/8/8 10/10/10 9/9/9 
f 9/9/9 10/10/10 11/11/11 
f 10/10/10 12/12/12 11/11/11 
f 11/11/11 12/12/12 13/13/13 
f 12/12/12 14/14/14 13/13/13 
f 15/15/15 16/16/16 1/1/1 
f 16/16/16 2/2/2 1/1/1 
f 17/17/17 18/18/18 19/19/19 
f 19/19/19 18/18/18 20/20/20 
f 18/18/18 21/21/21 20/20/20 
f 20/20/20 22/22/22 19/19/19 
