v 0.7442163 -0.6070472 0.2641903
vn 0.0000000 -0.7071065 0.7071072
vt 0.9155313 0.8215440
v 0.6118156 -0.6070472 0.2641903
vn 0.0000000 -0.7071069 0.7071066
vt 0.8965247 0.8215442
v 0.6118156 -0.6392654 0.1864085
vn 0.0000000 -1.0000000 -0.0000011
vt 0.8965231 0.8335078
v 0.7442163 -0.6392654 0.1864085
vn 0.0000000 -1.0000000 -0.0000011
vt 0.9155320 0.8335080
v 0.7442164 -0.5292653 0.2964085
vn 0.0000000 0.0000006 1.0000000
vt 0.9155320 0.8095800
v 0.6118158 -0.5292653 0.2964085
vn 0.0000000 -0.0000000 1.0000000
vt 0.8965231 0.8095800
v 0.7442164 -0.4514836 0.2641903
vn 0.0000001 0.7071068 0.7071068
vt 0.9155320 0.8454750
v 0.6118158 -0.4514835 0.2641903
vn 0.0000002 0.7071069 0.7071066
vt 0.8965231 0.8454750
v 0.6118158 -0.5292653 0.2964085
vn 0.0000000 -0.0000000 1.0000000
vt 0.8965231 0.8574400
v 0.7442164 -0.5292653 0.2964085
vn 0.0000000 0.0000006 1.0000000
vt 0.9155320 0.8574400
v 0.7442164 -0.4192654 0.1864085
vn 0.0000002 1.0000000 0.0000002
vt 0.9155320 0.8335080
v 0.6118158 -0.4192654 0.1864085
vn 0.0000003 1.0000000 0.0000002
vt 0.8965231 0.8335078
v 0.7442164 -0.4514835 0.1086268
vn 0.0000002 0.7071072 -0.7071064
vt 0.9155314 0.8215440
v 0.6118158 -0.4514835 0.1086268
vn 0.0000003 0.7071074 -0.7071062
vt 0.8965247 0.8215442
v 0.7442164 -0.5292653 0.0764085
vn 0.0000001 0.0000003 -1.0000000
vt 0.9155320 0.8095800
v 0.6118158 -0.5292653 0.0764085
vn 0.0000000 -0.0000003 -1.0000000
vt 0.8965231 0.8095800
v 0.7442163 -0.6070470 0.1086267
vn 0.0000000 -0.7071060 -0.7071076
vt 0.9155320 0.8454750
v 0.6118156 -0.6070470 0.1086267
vn 0.0000000 -0.7071064 -0.7071072
vt 0.8965231 0.8454750
v 0.6118158 -0.5292653 0.0764085
vn 0.0000000 -0.0000003 -1.0000000
vt 0.8965231 0.8574400
v 0.7442164 -0.5292653 0.0764085
vn 0.0000001 0.0000003 -1.0000000
vt 0.9155320 0.8574400
v 0.6118156 -0.6070470 0.1086267
vn -1.0000000 0.0000010 -0.0000004
vt 0.6964650 0.8554260
v 0.6118158 -0.4192654 0.1864085
vn -1.0000000 0.0000009 0.0000001
vt 0.7227670 0.8444220
v 0.6118158 -0.4514835 0.1086268
vn -1.0000000 0.0000011 -0.0000009
vt 0.7182530 0.8554260
v 0.6118158 -0.5292653 0.0764085
vn -1.0000000 0.0000011 -0.0000028
vt 0.7073600 0.8599800
v 0.6118158 -0.5292653 0.2964085
vn -1.0000000 0.0000010 0.0000005
vt 0.7073600 0.8288610
v 0.6118158 -0.4514835 0.2641903
vn -1.0000000 0.0000006 0.0000006
vt 0.7182530 0.8334160
v 0.6118156 -0.6392654 0.1864085
vn -1.0000000 0.0000000 0.0000000
vt 0.6919530 0.8444220
v 0.6118156 -0.6070472 0.2641903
vn -1.0000000 0.0000019 0.0000000
vt 0.6964650 0.8334160
v 0.7442163 -0.6392654 0.1864085
vn 1.0000000 -0.0000014 -0.0000000
vt 0.7974890 0.9659440
v 0.7442164 -0.4514836 0.2641903
vn 1.0000000 -0.0000007 -0.0000006
vt 0.7862930 0.9932470
v 0.7442164 -0.5292653 0.2964085
vn 1.0000000 -0.0000009 -0.0000008
vt 0.7816540 0.9819360
v 0.7442163 -0.6070472 0.2641903
vn 1.0000000 -0.0000028 0.0000011
vt 0.7862930 0.9706270
v 0.7442164 -0.4514835 0.1086268
vn 1.0000000 -0.0000007 0.0000006
vt 0.8086870 0.9932470
v 0.7442164 -0.4192654 0.1864085
vn 1.0000000 -0.0000008 -0.0000000
vt 0.7974890 0.9979290
v 0.7442163 -0.6070470 0.1086267
vn 1.0000000 -0.0000028 -0.0000011
vt 0.8086870 0.9706270
v 0.7442164 -0.5292653 0.0764085
vn 1.0000000 -0.0000009 0.0000008
vt 0.8133250 0.9819360

g group_107_140627908461472
f 1/1/1 2/2/2 3/3/3 
f 3/3/3 4/4/4 1/1/1 
f 5/5/5 6/6/6 2/2/2 
f 2/2/2 1/1/1 5/5/5 
f 7/7/7 8/8/8 9/9/9 
f 9/9/9 10/10/10 7/7/7 
f 11/11/11 12/12/12 8/8/8 
f 8/8/8 7/7/7 11/11/11 
f 13/13/13 14/14/14 12/12/12 
f 12/12/12 11/11/11 13/13/13 
f 15/15/15 16/16/16 14/14/14 
f 14/14/14 13/13/13 15/15/15 
f 17/17/17 18/18/18 19/19/19 
f 19/19/19 20/20/20 17/17/17 
f 4/4/4 3/3/3 18/18/18 
f 18/18/18 17/17/17 4/4/4 
f 21/21/21 22/22/22 23/23/23 
f 23/23/23 24/24/24 21/21/21 
f 21/21/21 25/25/25 26/26/26 
f 26/26/26 22/22/22 21/21/21 
f 21/21/21 27/27/27 28/28/28 
f 28/28/28 25/25/25 21/21/21 
f 29/29/29 30/30/30 31/31/31 
f 31/31/31 32/32/32 29/29/29 
f 29/29/29 33/33/33 34/34/34 
f 34/34/34 30/30/30 29/29/29 
f 29/29/29 35/35/35 36/36/36 
f 36/36/36 33/33/33 29/29/29 
