v 0.7461348 0.4989844 0.8766192
vn 1.0000000 0.0000000 0.0000000
vt 0.7070030 0.8688620
v 0.7461348 0.5839844 0.8766192
vn 1.0000000 -0.0000011 -0.0000000
vt 0.7213300 0.8688620
v 0.7461348 0.4564844 0.9502314
vn 1.0000000 0.0000000 0.0000000
vt 0.6998380 0.8813960
v 0.7461348 0.5839843 1.0238431
vn 1.0000000 -0.0000011 -0.0000000
vt 0.7213300 0.8939290
v 0.7461348 0.4989844 1.0238431
vn 1.0000000 0.0000000 0.0000000
vt 0.7070030 0.8939290
v 0.7461350 0.6264845 0.9502314
vn 1.0000000 -0.0000042 -0.0000000
vt 0.7284920 0.8813960
v 0.6098978 0.4564845 0.9502314
vn -0.0000002 -1.0000000 0.0000003
vt 0.6345290 0.9510106
v 0.7461348 0.4564844 0.9502314
vn -0.0000002 -1.0000000 0.0000004
vt 0.6345290 0.9314533
v 0.7461348 0.4989844 1.0238431
vn -0.0000001 -0.4999998 0.8660256
vt 0.6224500 0.9314533
v 0.6098978 0.4989845 1.0238431
vn -0.0000001 -0.4999997 0.8660256
vt 0.6224498 0.9510106
v 0.7461348 0.5839843 1.0238431
vn 0.0000002 0.4999990 0.8660260
vt 0.6103703 0.9314539
v 0.6098978 0.5839843 1.0238431
vn -0.0000003 0.4999993 0.8660258
vt 0.6103739 0.9510091
v 0.7461350 0.6264845 0.9502314
vn -0.0000007 1.0000000 0.0000005
vt 0.5982930 0.9314533
v 0.6098980 0.6264843 0.9502314
vn -0.0000009 1.0000000 0.0000003
vt 0.5982928 0.9510106
v 0.7461348 0.5839844 0.8766192
vn -0.0000004 0.5000004 -0.8660253
vt 0.5862140 0.9314539
v 0.6098978 0.5839844 0.8766192
vn 0.0000000 0.5000001 -0.8660253
vt 0.5862142 0.9510091
v 0.7461348 0.4989844 0.8766192
vn -0.0000001 -0.5000001 -0.8660253
vt 0.5741321 0.9314550
v 0.6098978 0.4989845 0.8766192
vn -0.0000001 -0.5000001 -0.8660254
vt 0.5741307 0.9510099
v 0.7461348 0.4564844 0.9502314
vn -0.0000002 -1.0000000 0.0000004
vt 0.5620525 0.9314533
v 0.6098978 0.4564845 0.9502314
vn -0.0000002 -1.0000000 0.0000003
vt 0.5620520 0.9510106
v 0.6098978 0.4989845 1.0238431
vn -1.0000000 0.0000000 0.0000000
vt 0.7213300 0.8939290
v 0.6098978 0.5839843 1.0238431
vn -1.0000000 0.0000011 0.0000000
vt 0.7070030 0.8939290
v 0.6098978 0.4564845 0.9502314
vn -1.0000000 0.0000000 0.0000000
vt 0.7284920 0.8813960
v 0.6098978 0.5839844 0.8766192
vn -1.0000000 0.0000011 0.0000000
vt 0.7070030 0.8688620
v 0.6098978 0.4989845 0.8766192
vn -1.0000000 0.0000000 0.0000000
vt 0.7213300 0.8688620
v 0.6098980 0.6264843 0.9502314
vn -1.0000000 0.0000042 0.0000000
vt 0.6998380 0.8813960

g group_115_140627908870080
f 1/1/1 2/2/2 3/3/3 
f 2/2/2 4/4/4 5/5/5 
f 5/5/5 3/3/3 2/2/2 
f 4/4/4 2/2/2 6/6/6 
f 7/7/7 8/8/8 9/9/9 
f 9/9/9 10/10/10 7/7/7 
f 10/10/10 9/9/9 11/11/11 
f 11/11/11 12/12/12 10/10/10 
f 12/12/12 11/11/11 13/13/13 
f 13/13/13 14/14/14 12/12/12 
f 14/14/14 13/13/13 15/15/15 
f 15/15/15 16/16/16 14/14/14 
f 16/16/16 15/15/15 17/17/17 
f 17/17/17 18/18/18 16/16/16 
f 18/18/18 17/17/17 19/19/19 
f 19/19/19 20/20/20 18/18/18 
f 21/21/21 22/22/22 23/23/23 
f 22/22/22 24/24/24 25/25/25 
f 25/25/25 23/23/23 22/22/22 
f 24/24/24 22/22/22 26/26/26 
