v 0.7532775 1.7129320 0.9299386
vn 0.0000002 -0.6255073 -0.7802184
vt 0.2537719 -3.8486643
v 0.7532774 1.4848731 1.0450140
vn -0.0000008 -0.2464905 -0.9691452
vt 0.2537679 -3.4126883
v 0.6027576 1.4848731 1.0450140
vn -0.0000005 -0.2464905 -0.9691452
vt 0.0083450 -3.4126902
v 0.6027576 1.7129310 0.9299386
vn 0.0000005 -0.6255071 -0.7802185
vt 0.0083530 -3.8486652
v 0.6027576 1.8396320 0.7753394
vn -0.0000008 -0.9066193 -0.4219495
vt 0.0083568 -4.1940379
v 0.7532775 1.8396320 0.7753394
vn 0.0000000 -0.9066196 -0.4219489
vt 0.2537745 -4.1940360
v 0.6027576 1.8803310 0.5574331
vn -0.0000040 -0.9107673 -0.4129201
vt 0.0083596 -4.5276108
v 0.7532774 1.8803310 0.5574330
vn -0.0000036 -0.9107676 -0.4129193
vt 0.2537765 -4.5276089
v 0.6027576 1.6364710 0.0969537
vn 0.0000001 -0.0000000 1.0000000
vt 0.0083694 -5.8981390
v 0.7532774 1.6364710 0.0969537
vn 0.0000000 0.0000001 1.0000000
vt 0.2537864 -5.8981371
v 0.7532774 1.7912149 0.0969537
vn -0.0000002 -0.2462678 0.9692018
vt 0.2537847 -5.6533880
v 0.6027576 1.7912149 0.0969538
vn -0.0000001 -0.2462684 0.9692017
vt 0.0083676 -5.6533890
v 0.7532775 0.5602163 0.0967753
vn -0.0000002 0.0000703 1.0000000
vt 0.2538905 6.1785698
v 0.6027577 0.5602162 0.0967752
vn -0.0000002 0.0000703 1.0000000
vt 0.0071479 6.1785269
v 0.6027577 -1.7420820 0.0969371
vn -0.0000010 0.3941955 0.9190266
vt 0.0073702 2.6541500
v 0.7532775 -1.7420810 0.0969371
vn -0.0000016 0.3941931 0.9190277
vt 0.2538106 2.6541619
v 0.7532775 -1.7232800 0.4422243
vn -0.0000020 0.8146756 -0.5799169
vt 0.2537250 1.8955120
v 0.7532775 -1.8339990 0.3351098
vn -0.0000004 0.9205623 -0.3905957
vt 0.2537306 2.1626329
v 0.6027576 -1.8339990 0.3351097
vn -0.0000010 0.9205627 -0.3905948
vt 0.0079070 2.1626351
v 0.6027576 -1.7232800 0.4422243
vn -0.0000023 0.8146756 -0.5799170
vt 0.0080806 1.8955140
v 0.7532777 -1.6346850 0.6327254
vn -0.0000013 0.7736844 -0.6335711
vt 0.2537252 1.5624300
v 0.6027576 -1.6346850 0.6327254
vn -0.0000012 0.7736844 -0.6335711
vt 0.0082184 1.5624300
v 0.7532777 -1.4910580 0.7382811
vn -0.0000005 0.3732659 -0.9277244
vt 0.2537326 1.2704980
v 0.6027576 -1.4910580 0.7382813
vn -0.0000007 0.3732652 -0.9277247
vt 0.0082836 1.2704970
v 0.6027576 0.9557334 1.0613190
vn -0.0000000 0.0502091 -0.9987387
vt 0.0083297 -2.5948050
v 0.7532774 0.9557334 1.0613190
vn -0.0000001 0.0502090 -0.9987388
vt 0.2537610 -2.5948031
v 0.7532775 -1.8340859 0.1936438
vn -0.0000015 0.9286883 0.3708613
vt 0.2537592 2.4040470
v 0.6027576 -1.8340859 0.1936438
vn -0.0000009 0.9286885 0.3708608
vt 0.0076578 2.4040480
v 0.7532774 1.9717220 0.1950162
vn -0.0000012 -0.7823151 0.6228829
vt 0.2537821 -5.2725911
v 0.7532772 2.0223899 0.3768894
vn -0.0000021 -0.9805638 -0.1962004
vt 0.2537796 -4.8854880
v 0.6027575 2.0223911 0.3768894
vn -0.0000016 -0.9805639 -0.1961999
vt 0.0083621 -4.8854890
v 0.6027576 1.9717220 0.1950162
vn -0.0000012 -0.7823155 0.6228824
vt 0.0083647 -5.2725930
v 0.8512067 1.7741920 1.0035400
vn 0.0000002 0.6279542 0.7782503
vt 0.4640490 -3.8486619
v 0.5048280 1.7741920 1.0035400
vn 0.0000000 0.6279542 0.7782503
vt 1.0000880 -3.8486581
v 0.5048280 1.5048230 1.1397200
vn 0.0000004 0.2479045 0.9687845
vt 1.0000880 -3.4126830
v 0.8512065 1.5048230 1.1397200
vn 0.0000007 0.2479045 0.9687845
vt 0.4640490 -3.4126873
v 0.5048280 1.9289910 0.8125179
vn 0.0000011 0.9084279 0.4180416
vt 1.0000880 -4.1940308
v 0.8512067 1.9289910 0.8125178
vn 0.0000001 0.9084287 0.4180400
vt 0.4640490 -4.1940351
v 0.8512067 1.9684790 0.5973972
vn 0.0000019 0.9140559 0.4055883
vt 0.4640490 -4.5276070
v 0.5048282 1.9684800 0.5973973
vn 0.0000022 0.9140555 0.4055892
vt 1.0000880 -4.5276041
v 0.5048280 1.6364710 -0.0012335
vn 0.0000000 0.0000002 -1.0000000
vt 1.0000880 -5.8981309
v 0.5048280 1.8077490 -0.0012335
vn 0.0000002 0.2612391 -0.9652742
vt 1.0000880 -5.6533818
v 0.8512065 1.8077480 -0.0012335
vn 0.0000002 0.2612390 -0.9652742
vt 0.4640490 -5.6533861
v 0.8512065 1.6364710 -0.0012335
vn 0.0000000 0.0000002 -1.0000000
vt 0.4640490 -5.8981352
v 0.8512065 0.5602093 -0.0014120
vn -0.0000000 0.0000249 -1.0000000
vt 0.4640448 6.1775980
v 0.8512065 -1.7697541 -0.0014699
vn 0.0000003 -0.4186411 -0.9081518
vt 0.4640490 2.6541660
v 0.5048281 -1.7697550 -0.0014699
vn 0.0000006 -0.4186420 -0.9081513
vt 1.0000880 2.6541691
v 0.5048282 0.5602092 -0.0014120
vn -0.0000000 0.0000249 -1.0000000
vt 1.0000870 6.1776042
v 0.8512068 -1.8031490 0.4968893
vn 0.0000004 -0.8160787 0.5779409
vt 0.4640490 1.8955131
v 0.5048282 -1.8031490 0.4968893
vn 0.0000006 -0.8160788 0.5779407
vt 1.0000880 1.8955170
v 0.5048282 -1.9191010 0.3812066
vn 0.0000004 -0.9310283 0.3649471
vt 1.0000880 2.1626379
v 0.8512067 -1.9191010 0.3812068
vn 0.0000002 -0.9310281 0.3649477
vt 0.4640490 2.1626339
v 0.8512070 -1.7108400 0.6900296
vn 0.0000004 -0.7706412 0.6372693
vt 0.4640490 1.5624321
v 0.5048281 -1.7108400 0.6900295
vn 0.0000003 -0.7706414 0.6372691
vt 1.0000880 1.5624350
v 0.8512070 -1.5198270 0.8306911
vn 0.0000005 -0.3739100 0.9274650
vt 0.4640490 1.2704999
v 0.8512065 0.9508739 1.1579820
vn 0.0000001 -0.0493534 0.9987814
vt 0.4640490 -2.5948009
v 0.5048280 0.9508739 1.1579820
vn 0.0000000 -0.0493534 0.9987814
vt 1.0000880 -2.5947981
v 0.5048281 -1.5198270 0.8306913
vn 0.0000004 -0.3739099 0.9274651
vt 1.0000880 1.2705040
v 0.8512067 -1.9105099 0.1633283
vn 0.0000003 -0.9311863 -0.3645437
vt 0.4640490 2.4040480
v 0.5048281 -1.9105099 0.1633283
vn 0.0000006 -0.9311864 -0.3645435
vt 1.0000880 2.4040520
v 0.8512065 2.0432191 0.1362940
vn 0.0000006 0.7962697 -0.6049418
vt 0.4640490 -5.2725902
v 0.5048280 2.0432200 0.1362940
vn 0.0000005 0.7962698 -0.6049417
vt 1.0000880 -5.2725859
v 0.5048280 2.1143999 0.4069152
vn 0.0000006 0.9804131 0.1969525
vt 1.0000880 -4.8854818
v 0.8512064 2.1143999 0.4069153
vn 0.0000014 0.9804127 0.1969540
vt 0.4640490 -4.8854861
v 0.5048280 1.7741920 1.0035400
vn -0.6983997 -0.4491619 -0.5572177
vt 0.4640490 -3.7349539
v 0.6027576 1.7129310 0.9299386
vn -0.6990706 -0.4461774 -0.5587718
vt 0.2537711 -3.7349548
v 0.6027576 1.4848731 1.0450140
vn -0.7027432 -0.1795181 -0.6884223
vt 0.2537679 -3.4126883
v 0.5048280 1.5048230 1.1397200
vn -0.7026630 -0.1738857 -0.6899482
vt 0.4640490 -3.4126873
v 0.7532774 1.4848731 1.0450140
vn 0.7027447 -0.1795178 -0.6884210
vt 0.2537679 -3.4126883
v 0.7532775 1.7129320 0.9299386
vn 0.6990719 -0.4461767 -0.5587708
vt 0.2537719 -3.8486643
v 0.8512067 1.7741920 1.0035400
vn 0.6984010 -0.4491612 -0.5572166
vt 0.4640490 -3.8486619
v 0.8512065 1.5048230 1.1397200
vn 0.7026644 -0.1738855 -0.6899469
vt 0.4640490 -3.4126873
v 0.7532775 1.8396320 0.7753394
vn 0.7029809 -0.6441811 -0.3014110
vt 0.2537745 -4.1940360
v 0.8512067 1.9289910 0.8125178
vn 0.7027386 -0.6473443 -0.2951337
vt 0.4640490 -4.1940351
v 0.6027576 1.8396320 0.7753394
vn -0.7029801 -0.6441810 -0.3014130
vt 0.2537745 -4.1940360
v 0.6027576 1.7129310 0.9299386
vn -0.6990706 -0.4461774 -0.5587718
vt 0.2537727 -3.9623718
v 0.5048280 1.7741920 1.0035400
vn -0.6983997 -0.4491619 -0.5572177
vt 0.4640490 -3.9623690
v 0.5048280 1.9289910 0.8125179
vn -0.7027373 -0.6473446 -0.2951360
vt 0.4640490 -4.1940351
v 0.7532774 1.8803310 0.5574330
vn 0.7029378 -0.6477847 -0.2936894
vt 0.2537765 -4.5276089
v 0.8512067 1.9684790 0.5973972
vn 0.7015017 -0.6498936 -0.2924615
vt 0.4640490 -4.5276070
v 0.5048282 1.9684800 0.5973973
vn -0.7015017 -0.6498934 -0.2924618
vt 0.4640490 -4.5276070
v 0.6027576 1.8803310 0.5574331
vn -0.7029386 -0.6477841 -0.2936888
vt 0.2537765 -4.5276089
v 0.7532774 1.7912149 0.0969537
vn 0.7114360 -0.1805250 0.6791683
vt 0.2537847 -5.6533880
v 0.7532774 1.6364710 0.0969537
vn 0.7080370 0.0000001 0.7061753
vt 0.2537864 -5.8981371
v 0.8512065 1.6364710 -0.0012335
vn 0.7080368 -0.0000000 0.7061756
vt 0.4640490 -5.8981352
v 0.8512065 1.8077480 -0.0012335
vn 0.7074379 -0.1724946 0.6854030
vt 0.4640490 -5.6533861
v 0.5048280 1.6364710 -0.0012335
vn -0.7080351 -0.0000001 0.7061773
vt 0.4640490 -5.8981352
v 0.6027576 1.6364710 0.0969537
vn -0.7080351 -0.0000001 0.7061773
vt 0.2537864 -5.8981371
v 0.6027576 1.7912149 0.0969538
vn -0.7114343 -0.1805255 0.6791700
vt 0.2537847 -5.6533880
v 0.5048280 1.8077490 -0.0012335
vn -0.7074361 -0.1724950 0.6854047
vt 0.4640490 -5.6533861
v 0.8512065 1.6364710 -0.0012335
vn 0.0000000 -1.0000000 0.0000000
vt 0.2451084 0.6869329
v 0.7532774 1.6364710 0.0969537
vn 0.0000000 -1.0000000 0.0000000
vt 0.0962716 0.5375092
v 0.6027576 1.6364710 0.0969537
vn 0.0000000 -1.0000000 0.0000000
vt 0.0962725 0.3092687
v 0.5048280 1.6364710 -0.0012335
vn 0.0000000 -1.0000000 0.0000000
vt 0.2451103 0.1617021
v 0.6027577 -1.7420820 0.0969371
vn -0.7074482 0.3159126 0.6322312
vt 0.2538106 2.6541619
v 0.6027577 0.5602162 0.0967752
vn -0.7080352 0.0000497 0.7061772
vt 0.2538899 6.1785712
v 0.5048282 0.5602092 -0.0014120
vn -0.7080653 0.0000471 0.7061470
vt 0.4640504 6.1775980
v 0.5048281 -1.7697550 -0.0014699
vn -0.7189876 0.2759133 0.6379097
vt 0.4640490 2.6541660
v 0.8512065 0.5602093 -0.0014120
vn 0.7080675 0.0000471 0.7061448
vt 0.4640448 6.1775980
v 0.7532775 0.5602163 0.0967753
vn 0.7080373 0.0000496 0.7061751
vt 0.2538905 6.1785698
v 0.7532775 -1.7420810 0.0969371
vn 0.7074502 0.3159112 0.6322296
vt 0.2538106 2.6541619
v 0.8512065 -1.7697541 -0.0014699
vn 0.7189898 0.2759126 0.6379075
vt 0.4640490 2.6541660
v 0.5048282 0.5602092 -0.0014120
vn -0.0000004 1.0000000 -0.0000712
vt 0.2437302 0.6864787
v 0.6027577 0.5602162 0.0967752
vn -0.0000004 1.0000000 -0.0000712
vt 0.0969722 0.5379815
v 0.7532775 0.5602163 0.0967753
vn -0.0000004 1.0000000 -0.0000712
vt 0.0969746 0.3097411
v 0.8512065 0.5602093 -0.0014120
vn -0.0000002 1.0000000 -0.0000718
vt 0.2437357 0.1612485
v 0.5048282 -1.8031490 0.4968893
vn -0.6993025 0.5823726 -0.4145097
vt 0.4640490 1.8955131
v 0.6027576 -1.7232800 0.4422243
vn -0.7028850 0.5800349 -0.4117186
vt 0.2537250 1.8955120
v 0.6027576 -1.8339990 0.3351097
vn -0.6950819 0.6741847 -0.2496724
vt 0.2537306 2.1626329
v 0.5048282 -1.9191010 0.3812066
vn -0.7009580 0.6593592 -0.2718518
vt 0.4640490 2.1626339
v 0.7532775 -1.8339990 0.3351098
vn 0.6950828 0.6741835 -0.2496728
vt 0.2537306 2.1626329
v 0.7532775 -1.7232800 0.4422243
vn 0.7028863 0.5800335 -0.4117184
vt 0.2537250 1.8955120
v 0.8512068 -1.8031490 0.4968893
vn 0.6993037 0.5823712 -0.4145096
vt 0.4640490 1.8955131
v 0.8512067 -1.9191010 0.3812068
vn 0.7009590 0.6593581 -0.2718520
vt 0.4640490 2.1626339
v 0.6027576 -1.6346850 0.6327254
vn -0.6986519 0.5494686 -0.4582247
vt 0.2537247 1.6629310
v 0.5048281 -1.7108400 0.6900295
vn -0.6971337 0.5544504 -0.4545210
vt 0.4640490 1.6629330
v 0.7532777 -1.6346850 0.6327254
vn 0.6986529 0.5494679 -0.4582239
vt 0.2537252 1.5624300
v 0.8512070 -1.7108400 0.6900296
vn 0.6971349 0.5544493 -0.4545205
vt 0.4640490 1.5624321
v 0.5048280 0.9508739 1.1579820
vn -0.7025166 0.0356120 -0.7107759
vt 0.4640490 -2.5948009
v 0.6027576 0.9557334 1.0613190
vn -0.7029365 0.0357113 -0.7103556
vt 0.2537610 -2.5948031
v 0.6027576 -1.4910580 0.7382813
vn -0.7015042 0.2732464 -0.6582008
vt 0.2537326 1.2704980
v 0.5048281 -1.5198270 0.8306913
vn -0.7018452 0.2610354 -0.6627774
vt 0.4640490 1.2704999
v 0.7532777 -1.4910580 0.7382811
vn 0.7015047 0.2732468 -0.6582002
vt 0.2537326 1.2704980
v 0.7532774 0.9557334 1.0613190
vn 0.7029386 0.0357112 -0.7103536
vt 0.2537610 -2.5948031
v 0.8512065 0.9508739 1.1579820
vn 0.7025183 0.0356119 -0.7107741
vt 0.4640490 -2.5948009
v 0.8512070 -1.5198270 0.8306911
vn 0.7018458 0.2610353 -0.6627768
vt 0.4640490 1.2704999
v 0.6027576 -1.8340859 0.1936438
vn -0.6429918 0.7111292 0.2843533
vt 0.2537592 2.4040470
v 0.5048281 -1.9105099 0.1633283
vn -0.6577343 0.7005780 0.2767239
vt 0.4640490 2.4040480
v 0.8512067 -1.9105099 0.1633283
vn 0.6577356 0.7005768 0.2767238
vt 0.4640490 2.4040480
v 0.7532775 -1.8340859 0.1936438
vn 0.6429931 0.7111278 0.2843539
vt 0.2537592 2.4040470
v 0.6027576 -1.6346850 0.6327254
vn -0.6986519 0.5494686 -0.4582247
vt 0.2537258 1.4619290
v 0.5048281 -1.7108400 0.6900295
vn -0.6971337 0.5544504 -0.4545210
vt 0.4640490 1.4619300
v 0.6027576 1.9717220 0.1950162
vn -0.6889795 -0.5780088 0.4372792
vt 0.2537811 -5.1431942
v 0.6027575 2.0223911 0.3768894
vn -0.7003994 -0.7048829 -0.1121643
vt 0.2537796 -4.8854880
v 0.5048280 2.1143999 0.4069152
vn -0.7032946 -0.6948408 -0.1502433
vt 0.4640490 -4.8854861
v 0.5048280 2.0432200 0.1362940
vn -0.6865548 -0.5767000 0.4427862
vt 0.4640490 -5.1431928
v 0.8512064 2.1143999 0.4069153
vn 0.7032960 -0.6948391 -0.1502447
vt 0.4640490 -4.8854861
v 0.7532772 2.0223899 0.3768894
vn 0.7004004 -0.7048818 -0.1121652
vt 0.2537796 -4.8854880
v 0.7532774 1.9717220 0.1950162
vn 0.6889812 -0.5780076 0.4372782
vt 0.2537821 -5.2725911
v 0.8512065 2.0432191 0.1362940
vn 0.6865566 -0.5766987 0.4427851
vt 0.4640490 -5.2725902
v 0.6027576 1.9717220 0.1950162
vn -0.6889795 -0.5780088 0.4372792
vt 0.2537830 -5.4019880
v 0.5048280 2.0432200 0.1362940
vn -0.6865548 -0.5767000 0.4427862
vt 0.4640490 -5.4019861

g group_117_140627908389200
f 1/1/1 2/2/2 3/3/3 
f 3/3/3 4/4/4 1/1/1 
f 5/5/5 6/6/6 1/1/1 
f 1/1/1 4/4/4 5/5/5 
f 5/5/5 7/7/7 8/8/8 
f 8/8/8 6/6/6 5/5/5 
f 9/9/9 10/10/10 11/11/11 
f 11/11/11 12/12/12 9/9/9 
f 13/13/13 14/14/14 15/15/15 
f 15/15/15 16/16/16 13/13/13 
f 17/17/17 18/18/18 19/19/19 
f 19/19/19 20/20/20 17/17/17 
f 21/21/21 17/17/17 20/20/20 
f 20/20/20 22/22/22 21/21/21 
f 23/23/23 24/24/24 25/25/25 
f 25/25/25 26/26/26 23/23/23 
f 26/26/26 25/25/25 3/3/3 
f 3/3/3 2/2/2 26/26/26 
f 27/27/27 28/28/28 19/19/19 
f 19/19/19 18/18/18 27/27/27 
f 21/21/21 22/22/22 24/24/24 
f 24/24/24 23/23/23 21/21/21 
f 29/29/29 30/30/30 31/31/31 
f 31/31/31 32/32/32 29/29/29 
f 11/11/11 29/29/29 32/32/32 
f 32/32/32 12/12/12 11/11/11 
f 7/7/7 31/31/31 30/30/30 
f 30/30/30 8/8/8 7/7/7 
f 33/33/33 34/34/34 35/35/35 
f 35/35/35 36/36/36 33/33/33 
f 37/37/37 34/34/34 33/33/33 
f 33/33/33 38/38/38 37/37/37 
f 37/37/37 38/38/38 39/39/39 
f 39/39/39 40/40/40 37/37/37 
f 41/41/41 42/42/42 43/43/43 
f 43/43/43 44/44/44 41/41/41 
f 45/45/45 46/46/46 47/47/47 
f 47/47/47 48/48/48 45/45/45 
f 49/49/49 50/50/50 51/51/51 
f 51/51/51 52/52/52 49/49/49 
f 53/53/53 54/54/54 50/50/50 
f 50/50/50 49/49/49 53/53/53 
f 55/55/55 56/56/56 57/57/57 
f 57/57/57 58/58/58 55/55/55 
f 56/56/56 36/36/36 35/35/35 
f 35/35/35 57/57/57 56/56/56 
f 59/59/59 52/52/52 51/51/51 
f 51/51/51 60/60/60 59/59/59 
f 53/53/53 55/55/55 58/58/58 
f 58/58/58 54/54/54 53/53/53 
f 61/61/61 62/62/62 63/63/63 
f 63/63/63 64/64/64 61/61/61 
f 43/43/43 42/42/42 62/62/62 
f 62/62/62 61/61/61 43/43/43 
f 40/40/40 39/39/39 64/64/64 
f 64/64/64 63/63/63 40/40/40 
f 65/65/65 66/66/66 67/67/67 
f 67/67/67 68/68/68 65/65/65 
f 69/69/69 70/70/70 71/71/71 
f 71/71/71 72/72/72 69/69/69 
f 71/71/71 70/70/70 73/73/73 
f 73/73/73 74/74/74 71/71/71 
f 75/75/75 76/76/76 77/77/77 
f 77/77/77 78/78/78 75/75/75 
f 73/73/73 79/79/79 80/80/80 
f 80/80/80 74/74/74 73/73/73 
f 81/81/81 82/82/82 75/75/75 
f 75/75/75 78/78/78 81/81/81 
f 83/83/83 84/84/84 85/85/85 
f 85/85/85 86/86/86 83/83/83 
f 87/87/87 88/88/88 89/89/89 
f 89/89/89 90/90/90 87/87/87 
f 91/91/91 92/92/92 93/93/93 
f 93/93/93 94/94/94 91/91/91 
f 95/95/95 96/96/96 97/97/97 
f 97/97/97 98/98/98 95/95/95 
f 99/99/99 100/100/100 101/101/101 
f 101/101/101 102/102/102 99/99/99 
f 103/103/103 104/104/104 105/105/105 
f 105/105/105 106/106/106 103/103/103 
f 107/107/107 108/108/108 109/109/109 
f 109/109/109 110/110/110 107/107/107 
f 111/111/111 112/112/112 113/113/113 
f 113/113/113 114/114/114 111/111/111 
f 115/115/115 108/108/108 107/107/107 
f 107/107/107 116/116/116 115/115/115 
f 113/113/113 112/112/112 117/117/117 
f 117/117/117 118/118/118 113/113/113 
f 119/119/119 120/120/120 121/121/121 
f 121/121/121 122/122/122 119/119/119 
f 123/123/123 124/124/124 125/125/125 
f 125/125/125 126/126/126 123/123/123 
f 67/67/67 120/120/120 119/119/119 
f 119/119/119 68/68/68 67/67/67 
f 125/125/125 124/124/124 69/69/69 
f 69/69/69 72/72/72 125/125/125 
f 109/109/109 127/127/127 128/128/128 
f 128/128/128 110/110/110 109/109/109 
f 129/129/129 130/130/130 111/111/111 
f 111/111/111 114/114/114 129/129/129 
f 122/122/122 121/121/121 131/131/131 
f 131/131/131 132/132/132 122/122/122 
f 117/117/117 123/123/123 126/126/126 
f 126/126/126 118/118/118 117/117/117 
f 133/133/133 134/134/134 135/135/135 
f 135/135/135 136/136/136 133/133/133 
f 137/137/137 138/138/138 139/139/139 
f 139/139/139 140/140/140 137/137/137 
f 90/90/90 89/89/89 141/141/141 
f 141/141/141 142/142/142 90/90/90 
f 139/139/139 83/83/83 86/86/86 
f 86/86/86 140/140/140 139/139/139 
f 80/80/80 79/79/79 138/138/138 
f 138/138/138 137/137/137 80/80/80 
f 134/134/134 82/82/82 81/81/81 
f 81/81/81 135/135/135 134/134/134 
f 27/27/27 16/16/16 15/15/15 
f 15/15/15 28/28/28 27/27/27 
f 128/128/128 127/127/127 95/95/95 
f 95/95/95 98/98/98 128/128/128 
f 46/46/46 59/59/59 60/60/60 
f 60/60/60 47/47/47 46/46/46 
f 101/101/101 130/130/130 129/129/129 
f 129/129/129 102/102/102 101/101/101 
