v 0.7461341 -1.0994160 0.6692525
vn 1.0000000 0.0000000 0.0000000
vt 0.7070030 0.8688620
v 0.7461341 -1.0144160 0.6692526
vn 1.0000000 -0.0000011 -0.0000000
vt 0.7213300 0.8688620
v 0.7461341 -1.1419160 0.7428647
vn 1.0000000 0.0000000 0.0000000
vt 0.6998380 0.8813960
v 0.7461341 -1.0144160 0.8164769
vn 1.0000000 -0.0000011 -0.0000000
vt 0.7213300 0.8939290
v 0.7461341 -1.0994160 0.8164769
vn 1.0000000 0.0000000 0.0000000
vt 0.7070030 0.8939290
v 0.7461343 -0.9719157 0.7428648
vn 1.0000000 -0.0000042 -0.0000000
vt 0.7284920 0.8813960
v 0.6098971 -1.1419160 0.7428647
vn -0.0000002 -1.0000000 -0.0000003
vt 0.6345290 0.9510106
v 0.7461341 -1.1419160 0.7428647
vn 0.0000000 -1.0000000 -0.0000004
vt 0.6345290 0.9314533
v 0.7461341 -1.0994160 0.8164769
vn -0.0000006 -0.4999999 0.8660254
vt 0.6224500 0.9314533
v 0.6098971 -1.0994160 0.8164768
vn -0.0000008 -0.5000001 0.8660254
vt 0.6224498 0.9510106
v 0.7461341 -1.0144160 0.8164769
vn -0.0000008 0.4999996 0.8660256
vt 0.6103703 0.9314539
v 0.6098971 -1.0144160 0.8164768
vn -0.0000009 0.4999993 0.8660258
vt 0.6103739 0.9510091
v 0.7461343 -0.9719157 0.7428648
vn -0.0000008 1.0000000 0.0000007
vt 0.5982930 0.9314533
v 0.6098973 -0.9719158 0.7428648
vn -0.0000006 1.0000000 0.0000009
vt 0.5982928 0.9510106
v 0.7461341 -1.0144160 0.6692526
vn -0.0000003 0.5000011 -0.8660248
vt 0.5862140 0.9314539
v 0.6098971 -1.0144160 0.6692526
vn 0.0000000 0.5000008 -0.8660250
vt 0.5862142 0.9510091
v 0.7461341 -1.0994160 0.6692525
vn 0.0000000 -0.4999993 -0.8660258
vt 0.5741321 0.9314550
v 0.6098971 -1.0994160 0.6692525
vn 0.0000000 -0.4999992 -0.8660259
vt 0.5741307 0.9510100
v 0.7461341 -1.1419160 0.7428647
vn 0.0000000 -1.0000000 -0.0000004
vt 0.5620525 0.9314533
v 0.6098971 -1.1419160 0.7428647
vn -0.0000002 -1.0000000 -0.0000003
vt 0.5620520 0.9510106
v 0.6098971 -1.0994160 0.8164768
vn -1.0000000 0.0000000 0.0000000
vt 0.7213300 0.8939290
v 0.6098971 -1.0144160 0.8164768
vn -1.0000000 0.0000011 0.0000000
vt 0.7070030 0.8939290
v 0.6098971 -1.1419160 0.7428647
vn -1.0000000 0.0000000 0.0000000
vt 0.7284920 0.8813960
v 0.6098971 -1.0144160 0.6692526
vn -1.0000000 0.0000011 0.0000000
vt 0.7070030 0.8688620
v 0.6098971 -1.0994160 0.6692525
vn -1.0000000 0.0000000 0.0000000
vt 0.7213300 0.8688620
v 0.6098973 -0.9719158 0.7428648
vn -1.0000000 0.0000042 0.0000000
vt 0.6998380 0.8813960

g group_111_140627908165808
f 1/1/1 2/2/2 3/3/3 
f 2/2/2 4/4/4 5/5/5 
f 5/5/5 3/3/3 2/2/2 
f 4/4/4 2/2/2 6/6/6 
f 7/7/7 8/8/8 9/9/9 
f 9/9/9 10/10/10 7/7/7 
f 10/10/10 9/9/9 11/11/11 
f 11/11/11 12/12/12 10/10/10 
f 12/12/12 11/11/11 13/13/13 
f 13/13/13 14/14/14 12/12/12 
f 14/14/14 13/13/13 15/15/15 
f 15/15/15 16/16/16 14/14/14 
f 16/16/16 15/15/15 17/17/17 
f 17/17/17 18/18/18 16/16/16 
f 18/18/18 17/17/17 19/19/19 
f 19/19/19 20/20/20 18/18/18 
f 21/21/21 22/22/22 23/23/23 
f 22/22/22 24/24/24 25/25/25 
f 25/25/25 23/23/23 22/22/22 
f 24/24/24 22/22/22 26/26/26 
