v -0.5048257 1.7766720 1.0012430
vn 0.0000000 0.6739703 0.7387584
vt 1.0000880 4.5919571
v -0.5048257 1.9403000 0.7443336
vn 0.0000000 0.9346297 0.3556224
vt 1.0000880 4.1791182
v -0.8512045 1.9403000 0.7443336
vn 0.0000000 0.9346297 0.3556224
vt 0.4640490 4.1791139
v -0.8512045 1.7766720 1.0012430
vn 0.0000000 0.6739703 0.7387584
vt 0.4640490 4.5919542
v -0.5048257 1.5086360 1.1392430
vn 0.0000000 0.2229128 0.9748384
vt 1.0000880 4.9962111
v -0.8512045 1.5086360 1.1392430
vn 0.0000000 0.2229128 0.9748384
vt 0.4640490 4.9962072
v -0.8512046 1.9930840 0.4173443
vn 0.0000000 0.9846844 -0.1743463
vt 0.4640490 3.7094340
v -0.5048257 1.9930840 0.4173443
vn 0.0000000 0.9846845 -0.1743462
vt 1.0000880 3.7094369
v -0.8512046 1.8310510 0.1280267
vn 0.0000000 0.6437717 -0.7652177
vt 0.4640490 3.2570970
v -0.5048257 1.8310510 0.1280267
vn 0.0000000 0.6437717 -0.7652176
vt 1.0000880 3.2571011
v -0.8512046 1.4636270 -0.0013514
vn 0.0000000 0.1684749 -0.9857060
vt 0.4640490 2.7206850
v -0.5048257 1.4636270 -0.0013514
vn 0.0000000 0.1684748 -0.9857060
vt 1.0000880 2.7206891
v -0.8512045 -1.8614700 -0.0013520
vn 0.0000000 -0.1414151 -0.9899504
vt 0.4640490 -2.3576210
v -0.5048255 -1.8614700 -0.0013520
vn 0.0000000 -0.1414152 -0.9899504
vt 1.0000880 -2.3576169
v -0.8512043 -2.2008250 0.0976219
vn 0.0000000 -0.6884350 -0.7252980
vt 0.4640490 -2.8040540
v -0.5048255 -2.2008250 0.0976219
vn 0.0000002 -0.6884353 -0.7252978
vt 1.0000880 -2.8040500
v -0.8512043 -2.2747951 0.3094779
vn 0.0000005 -0.9916795 0.1287313
vt 0.4640490 -3.1346650
v -0.5048255 -2.2747951 0.3094779
vn 0.0000007 -0.9920549 0.1258057
vt 1.0000880 -3.1346607
v -0.5065451 -2.1714211 0.4634847
vn 0.0000006 -0.6069431 0.7947453
vt 1.0000880 -3.3659487
v -0.8529239 -2.1714211 0.4634847
vn 0.0000005 -0.6068150 0.7948431
vt 0.4640490 -3.3659520
v -0.8512045 -1.9802270 0.5278258
vn 0.0000007 -0.4791397 0.8777387
vt 0.4640490 -3.7150269
v -0.5048255 -1.9802260 0.5278258
vn 0.0000007 -0.4799845 0.8772770
vt 1.0000880 -3.7150230
v -0.8512045 -1.7494740 0.7127880
vn 0.0000010 -0.5446639 0.8386544
vt 0.4640490 -4.1711020
v -0.5048255 -1.7494730 0.7127879
vn 0.0000007 -0.5446638 0.8386545
vt 1.0000880 -4.1710982
v -0.8512045 -0.8527886 0.9165098
vn 0.0000006 -0.1272139 0.9918754
vt 0.4640490 -5.5558271
v -0.8512043 -1.5206120 0.8308575
vn 0.0000009 -0.2973567 0.9547665
vt 0.4640490 -4.5346160
v -0.5048255 -1.5206110 0.8308573
vn 0.0000008 -0.2973560 0.9547667
vt 1.0000880 -4.5346122
v -0.5048256 -0.8527883 0.9165096
vn 0.0000006 -0.1272139 0.9918754
vt 1.0000880 -5.5558228
v -0.8512045 0.6442955 1.1168880
vn 0.0000000 -0.0258550 0.9996657
vt 0.4640490 6.2984581
v -0.5048256 0.6442955 1.1168880
vn 0.0000000 -0.0258550 0.9996657
vt 1.0000880 6.2984610
v -0.6027546 1.7109520 0.9280365
vn 0.0000000 -0.6749215 -0.7378896
vt 0.0039575 4.5919499
v -0.7532750 1.7109520 0.9280365
vn 0.0000000 -0.6749215 -0.7378896
vt 0.2414760 4.5919509
v -0.7532750 1.8451160 0.7136744
vn 0.0000000 -0.9346555 -0.3555546
vt 0.2413339 4.1791120
v -0.6027546 1.8451160 0.7136744
vn 0.0000000 -0.9346555 -0.3555547
vt 0.0039369 4.1791110
v -0.6027546 1.4877810 1.0414410
vn 0.0000000 -0.2190463 -0.9757145
vt 0.0039727 4.9962029
v -0.7532750 1.4877810 1.0414410
vn 0.0000000 -0.2190464 -0.9757144
vt 0.2418284 4.9962010
v -0.7532750 1.8935961 0.4274507
vn 0.0000000 -0.9834992 0.1809125
vt 0.2413062 3.7094319
v -0.6027547 1.8935961 0.4274507
vn 0.0000001 -0.9834992 0.1809124
vt 0.0039300 3.7094300
v -0.7532750 1.7637260 0.2066171
vn 0.0000002 -0.6331699 0.7740129
vt 0.2412950 3.2570961
v -0.6027547 1.7637260 0.2066171
vn 0.0000003 -0.6331702 0.7740126
vt 0.0039278 3.2570939
v -0.7532750 1.4531910 0.0995216
vn 0.0000000 -0.1652526 0.9862513
vt 0.2412918 2.7206841
v -0.6027547 1.4531910 0.0995216
vn 0.0000000 -0.1652525 0.9862513
vt 0.0039313 2.7206819
v -0.7532748 -1.8536670 0.0997622
vn 0.0000000 0.1172056 0.9931077
vt 0.2413283 -2.3576231
v -0.6027544 -1.8536670 0.0997622
vn 0.0000000 0.1172057 0.9931077
vt 0.0039649 -2.3576241
v -0.7532748 -2.1381040 0.1678267
vn -0.0000005 0.6727561 0.7398643
vt 0.2413318 -2.8040559
v -0.6027544 -2.1381040 0.1678267
vn 0.0000000 0.6727563 0.7398641
vt 0.0039691 -2.8040581
v -0.6027545 -2.1824601 0.2973994
vn -0.0000010 0.9839652 -0.1783608
vt 0.0039714 -3.1346693
v -0.7532748 -2.1824601 0.2973993
vn -0.0000023 0.9829851 -0.1836852
vt 0.2413340 -3.1346669
v -0.6044740 -2.1098320 0.3847009
vn -0.0000014 0.5604042 -0.8282193
vt 0.0039727 -3.3659563
v -0.7549944 -2.1098330 0.3847008
vn -0.0000023 0.5594477 -0.8288657
vt 0.2413352 -3.3659539
v -0.7532749 -1.9256080 0.4440597
vn -0.0000004 0.4738619 -0.8805992
vt 0.2413375 -3.7150278
v -0.6027545 -1.9256080 0.4440596
vn -0.0000004 0.4747806 -0.8801042
vt 0.0039753 -3.7150297
v -0.7532749 -1.4910580 0.7382813
vn -0.0000015 0.3019992 -0.9533082
vt 0.2413435 -4.5346169
v -0.6027545 -1.4910580 0.7382811
vn -0.0000015 0.3019993 -0.9533082
vt 0.0039810 -4.5346189
v -0.6027545 -1.6968820 0.6277679
vn -0.0000014 0.5519624 -0.8338690
vt 0.0039787 -4.1711049
v -0.7532749 -1.6968820 0.6277681
vn -0.0000012 0.5519626 -0.8338690
vt 0.2413408 -4.1711030
v -0.7532749 -0.8402026 0.8173050
vn -0.0000020 0.1205299 -0.9927097
vt 0.2413509 -5.5558290
v -0.6027545 -0.8402020 0.8173048
vn -0.0000020 0.1205299 -0.9927097
vt 0.0039874 -5.5558310
v -0.6027545 0.6577709 1.0178000
vn 0.0000000 0.0284719 -0.9995946
vt 0.0038590 6.2984552
v -0.7532749 0.6577709 1.0178000
vn 0.0000000 0.0284719 -0.9995946
vt 0.2430334 6.2984529
v -0.7532750 1.7109520 0.9280365
vn -0.7098700 -0.4742670 -0.5207258
vt 0.2414760 4.5919509
v -0.8512045 1.7766720 1.0012430
vn -0.7095369 -0.4737053 -0.5216902
vt 0.4640490 4.5919542
v -0.8512045 1.9403000 0.7443336
vn -0.7117006 -0.6575608 -0.2471763
vt 0.4640490 4.1791139
v -0.7532750 1.8451160 0.7136744
vn -0.7138920 -0.6531749 -0.2524297
vt 0.2413339 4.1791120
v -0.5048257 1.9403000 0.7443336
vn 0.7117027 -0.6575587 -0.2471757
vt 0.4640490 4.1791139
v -0.5048257 1.7766720 1.0012430
vn 0.7095391 -0.4737039 -0.5216886
vt 0.4640490 4.4870510
v -0.6027546 1.7109520 0.9280365
vn 0.7098720 -0.4742656 -0.5207244
vt 0.2414035 4.4870510
v -0.6027546 1.8451160 0.7136744
vn 0.7138942 -0.6531727 -0.2524291
vt 0.2413339 4.1791120
v -0.7532750 1.4877810 1.0414410
vn -0.7140332 -0.1568449 -0.6823168
vt 0.2418284 4.9962010
v -0.8512045 1.5086360 1.1392430
vn -0.7144340 -0.1550005 -0.6823188
vt 0.4640490 4.9962072
v -0.5048257 1.7766720 1.0012430
vn 0.7095391 -0.4737039 -0.5216886
vt 0.4640490 4.6968570
v -0.5048257 1.5086360 1.1392430
vn 0.7144361 -0.1549999 -0.6823167
vt 0.4640490 4.9962072
v -0.6027546 1.4877810 1.0414410
vn 0.7140353 -0.1568444 -0.6823148
vt 0.2418284 4.9962010
v -0.6027546 1.7109520 0.9280365
vn 0.7098720 -0.4742656 -0.5207244
vt 0.2415485 4.6968532
v -0.6027547 1.8935961 0.4274507
vn 0.7137963 -0.6861501 0.1403314
vt 0.2413062 3.7094319
v -0.5048257 1.9930840 0.4173443
vn 0.7168231 -0.6869828 0.1192449
vt 0.4640490 3.7094340
v -0.8512046 1.9930840 0.4173443
vn -0.7168211 -0.6869848 0.1192455
vt 0.4640490 3.7094340
v -0.7532750 1.8935961 0.4274507
vn -0.7137941 -0.6861522 0.1403321
vt 0.2413062 3.7094319
v -0.6027547 1.7637260 0.2066171
vn 0.7242596 -0.4411443 0.5299432
vt 0.2412969 3.4235079
v -0.5048257 1.8310510 0.1280267
vn 0.7263248 -0.4431166 0.5254521
vt 0.4640490 3.4235089
v -0.8512046 1.8310510 0.1280267
vn -0.7263229 -0.4431180 0.5254536
vt 0.4640490 3.2570970
v -0.7532750 1.7637260 0.2066171
vn -0.7242576 -0.4411455 0.5299448
vt 0.2412950 3.2570961
v -0.5048257 1.4636270 -0.0013514
vn 0.7177693 -0.1127099 0.6870980
vt 0.4640490 2.7206850
v -0.5048257 1.8310510 0.1280267
vn 0.7263248 -0.4431166 0.5254521
vt 0.4640490 3.0906861
v -0.6027547 1.7637260 0.2066171
vn 0.7242596 -0.4411443 0.5299432
vt 0.2412931 3.0906849
v -0.6027547 1.4531910 0.0995216
vn 0.7185496 -0.1186294 0.6852836
vt 0.2412918 2.7206841
v -0.8512046 1.4636270 -0.0013514
vn -0.7177672 -0.1127103 0.6871002
vt 0.4640490 2.7206850
v -0.7532750 1.4531910 0.0995216
vn -0.7185474 -0.1186298 0.6852858
vt 0.2412918 2.7206841
v -0.5048255 -1.8614700 -0.0013520
vn 0.7118065 0.0857336 0.6971236
vt 0.4640490 -2.3576210
v -0.6027544 -1.8536670 0.0997622
vn 0.7190441 0.0830793 0.6899807
vt 0.2413283 -2.3576231
v -0.8512045 -1.8614700 -0.0013520
vn -0.7118037 0.0857338 0.6971264
vt 0.4640490 -2.3576210
v -0.7532748 -1.8536670 0.0997622
vn -0.7190412 0.0830796 0.6899837
vt 0.2413283 -2.3576231
v -0.6027544 -2.1381040 0.1678267
vn 0.7013629 0.4930688 0.5147555
vt 0.2413311 -2.7009151
v -0.5048255 -2.2008250 0.0976219
vn 0.6929129 0.4939073 0.5252879
vt 0.4640490 -2.7009130
v -0.8512043 -2.2008250 0.0976219
vn -0.6929105 0.4939085 0.5252899
vt 0.4640490 -2.8040540
v -0.7532748 -2.1381040 0.1678267
vn -0.7013605 0.4930699 0.5147577
vt 0.2413318 -2.8040559
v -0.5048255 -2.2747951 0.3094779
vn 0.6881877 0.7200141 -0.0893169
vt 0.4640490 -3.1346650
v -0.5048255 -2.2008250 0.0976219
vn 0.6929129 0.4939073 0.5252879
vt 0.4640490 -2.8040540
v -0.6027544 -2.1381040 0.1678267
vn 0.7013629 0.4930688 0.5147555
vt 0.2413318 -2.8040559
v -0.6027545 -2.1824601 0.2973994
vn 0.7041113 0.7022604 -0.1051556
vt 0.2413340 -3.1346669
v -0.8512043 -2.2747951 0.3094779
vn -0.6881922 0.7189344 -0.0975950
vt 0.4640490 -3.1346650
v -0.7532748 -2.1824601 0.2973993
vn -0.7056606 0.6999106 -0.1103104
vt 0.2413340 -3.1346669
v -0.5065451 -2.1714211 0.4634847
vn 0.7025035 0.4228626 -0.5724300
vt 0.4640490 -3.3659520
v -0.6044740 -2.1098320 0.3847009
vn 0.7154493 0.3893840 -0.5800968
vt 0.2413352 -3.3659539
v -0.8529239 -2.1714211 0.4634847
vn -0.7011825 0.4221335 -0.5745837
vt 0.4640490 -3.3659520
v -0.7549944 -2.1098330 0.3847008
vn -0.7151935 0.3865358 -0.5823129
vt 0.2413352 -3.3659539
v -0.5048255 -1.9802260 0.5278258
vn 0.7109281 0.3276667 -0.6222667
vt 0.4640490 -3.7150269
v -0.6027545 -1.9256080 0.4440596
vn 0.7132813 0.3333023 -0.6165545
vt 0.2413375 -3.7150278
v -0.8512045 -1.9802270 0.5278258
vn -0.7112969 0.3327717 -0.6191282
vt 0.4640490 -3.7150269
v -0.7532749 -1.9256080 0.4440597
vn -0.7135387 0.3390245 -0.6131272
vt 0.2413375 -3.7150278
v -0.6027545 -1.4910580 0.7382811
vn 0.7077785 0.2110951 -0.6741576
vt 0.2413435 -4.5346169
v -0.5048255 -1.5206110 0.8308573
vn 0.7043762 0.2114067 -0.6776146
vt 0.4640490 -4.5346160
v -0.5048255 -1.7494730 0.7127879
vn 0.7118691 0.3849974 -0.5873835
vt 0.4640490 -4.1711020
v -0.6027545 -1.6968820 0.6277679
vn 0.7143339 0.3868405 -0.5831651
vt 0.2413408 -4.1711030
v -0.8512045 -1.7494740 0.7127880
vn -0.7118674 0.3849984 -0.5873849
vt 0.4640490 -4.1711020
v -0.7532749 -1.6968820 0.6277681
vn -0.7143322 0.3868414 -0.5831666
vt 0.2413408 -4.1711030
v -0.5048256 -0.8527883 0.9165096
vn 0.7123900 0.0852130 -0.6965912
vt 0.4640490 -5.5558271
v -0.6027545 -0.8402020 0.8173048
vn 0.7144620 0.0843317 -0.6945735
vt 0.2413509 -5.5558290
v -0.7532749 -1.4910580 0.7382813
vn -0.7077770 0.2110954 -0.6741591
vt 0.2413435 -4.5346169
v -0.8512043 -1.5206120 0.8308575
vn -0.7043748 0.2114078 -0.6776156
vt 0.4640490 -4.5346160
v -0.8512045 -0.8527886 0.9165098
vn -0.7123874 0.0852134 -0.6965938
vt 0.4640490 -5.5558271
v -0.7532749 -0.8402026 0.8173050
vn -0.7144592 0.0843321 -0.6945761
vt 0.2413509 -5.5558290
v -0.7532749 0.6577709 1.0178000
vn -0.7124673 0.0199789 -0.7014209
vt 0.2430334 6.2984529
v -0.8512045 0.6442955 1.1168880
vn -0.7116111 0.0198013 -0.7022946
vt 0.4640490 6.2984581
v -0.5048256 0.6442955 1.1168880
vn 0.7116132 0.0198014 -0.7022924
vt 0.4640490 6.2984581
v -0.6027545 0.6577709 1.0178000
vn 0.7124693 0.0199789 -0.7014188
vt 0.2430334 6.2984529
v -0.8512045 -0.8527886 0.9165098
vn -0.0000008 0.9920476 0.1258636
vt 0.2340837 0.2376671
v -0.5048256 -0.8527883 0.9165096
vn -0.0000008 0.9920475 0.1258636
vt 0.2340814 0.7818902
v -0.6027545 -0.8402020 0.8173048
vn -0.0000008 0.9920475 0.1258636
vt 0.0769646 0.6280262
v -0.7532749 -0.8402026 0.8173050
vn -0.0000037 0.9920485 0.1258564
vt 0.0769657 0.3915311
v -0.5048256 0.6442955 1.1168880
vn 0.0000000 -0.9908792 -0.1347535
vt 0.2323251 0.2449849
v -0.8512045 0.6442955 1.1168880
vn 0.0000000 -0.9908792 -0.1347535
vt 0.2323191 0.7892084
v -0.7532749 0.6577709 1.0178000
vn 0.0000000 -0.9908792 -0.1347535
vt 0.0752029 0.6353419
v -0.6027545 0.6577709 1.0178000
vn 0.0000000 -0.9908792 -0.1347535
vt 0.0752056 0.3988469

g group_116_140627908066656
f 1/1/1 2/2/2 3/3/3 
f 3/3/3 4/4/4 1/1/1 
f 5/5/5 1/1/1 4/4/4 
f 4/4/4 6/6/6 5/5/5 
f 7/7/7 3/3/3 2/2/2 
f 2/2/2 8/8/8 7/7/7 
f 9/9/9 7/7/7 8/8/8 
f 8/8/8 10/10/10 9/9/9 
f 11/11/11 9/9/9 10/10/10 
f 10/10/10 12/12/12 11/11/11 
f 13/13/13 11/11/11 12/12/12 
f 12/12/12 14/14/14 13/13/13 
f 15/15/15 13/13/13 14/14/14 
f 14/14/14 16/16/16 15/15/15 
f 17/17/17 15/15/15 16/16/16 
f 16/16/16 18/18/18 17/17/17 
f 17/17/17 18/18/18 19/19/19 
f 19/19/19 20/20/20 17/17/17 
f 21/21/21 20/20/20 19/19/19 
f 19/19/19 22/22/22 21/21/21 
f 23/23/23 21/21/21 22/22/22 
f 22/22/22 24/24/24 23/23/23 
f 25/25/25 26/26/26 27/27/27 
f 27/27/27 28/28/28 25/25/25 
f 6/6/6 29/29/29 30/30/30 
f 30/30/30 5/5/5 6/6/6 
f 31/31/31 32/32/32 33/33/33 
f 33/33/33 34/34/34 31/31/31 
f 35/35/35 36/36/36 32/32/32 
f 32/32/32 31/31/31 35/35/35 
f 37/37/37 38/38/38 34/34/34 
f 34/34/34 33/33/33 37/37/37 
f 39/39/39 40/40/40 38/38/38 
f 38/38/38 37/37/37 39/39/39 
f 41/41/41 42/42/42 40/40/40 
f 40/40/40 39/39/39 41/41/41 
f 43/43/43 44/44/44 42/42/42 
f 42/42/42 41/41/41 43/43/43 
f 45/45/45 46/46/46 44/44/44 
f 44/44/44 43/43/43 45/45/45 
f 47/47/47 46/46/46 45/45/45 
f 45/45/45 48/48/48 47/47/47 
f 49/49/49 47/47/47 48/48/48 
f 48/48/48 50/50/50 49/49/49 
f 51/51/51 52/52/52 49/49/49 
f 49/49/49 50/50/50 51/51/51 
f 53/53/53 54/54/54 55/55/55 
f 55/55/55 56/56/56 53/53/53 
f 57/57/57 58/58/58 54/54/54 
f 54/54/54 53/53/53 57/57/57 
f 59/59/59 60/60/60 36/36/36 
f 36/36/36 35/35/35 59/59/59 
f 61/61/61 62/62/62 63/63/63 
f 63/63/63 64/64/64 61/61/61 
f 65/65/65 66/66/66 67/67/67 
f 67/67/67 68/68/68 65/65/65 
f 69/69/69 70/70/70 62/62/62 
f 62/62/62 61/61/61 69/69/69 
f 71/71/71 72/72/72 73/73/73 
f 73/73/73 74/74/74 71/71/71 
f 75/75/75 76/76/76 65/65/65 
f 65/65/65 68/68/68 75/75/75 
f 63/63/63 77/77/77 78/78/78 
f 78/78/78 64/64/64 63/63/63 
f 79/79/79 80/80/80 76/76/76 
f 76/76/76 75/75/75 79/79/79 
f 77/77/77 81/81/81 82/82/82 
f 82/82/82 78/78/78 77/77/77 
f 83/83/83 84/84/84 85/85/85 
f 85/85/85 86/86/86 83/83/83 
f 82/82/82 81/81/81 87/87/87 
f 87/87/87 88/88/88 82/82/82 
f 89/89/89 83/83/83 86/86/86 
f 86/86/86 90/90/90 89/89/89 
f 88/88/88 87/87/87 91/91/91 
f 91/91/91 92/92/92 88/88/88 
f 93/93/93 94/94/94 89/89/89 
f 89/89/89 90/90/90 93/93/93 
f 91/91/91 95/95/95 96/96/96 
f 96/96/96 92/92/92 91/91/91 
f 97/97/97 98/98/98 99/99/99 
f 99/99/99 100/100/100 97/97/97 
f 101/101/101 102/102/102 96/96/96 
f 96/96/96 95/95/95 101/101/101 
f 103/103/103 97/97/97 100/100/100 
f 100/100/100 104/104/104 103/103/103 
f 102/102/102 101/101/101 105/105/105 
f 105/105/105 106/106/106 102/102/102 
f 107/107/107 103/103/103 104/104/104 
f 104/104/104 108/108/108 107/107/107 
f 106/106/106 105/105/105 109/109/109 
f 109/109/109 110/110/110 106/106/106 
f 111/111/111 112/112/112 113/113/113 
f 113/113/113 114/114/114 111/111/111 
f 109/109/109 115/115/115 116/116/116 
f 116/116/116 110/110/110 109/109/109 
f 117/117/117 112/112/112 111/111/111 
f 111/111/111 118/118/118 117/117/117 
f 119/119/119 120/120/120 121/121/121 
f 121/121/121 122/122/122 119/119/119 
f 69/69/69 123/123/123 124/124/124 
f 124/124/124 70/70/70 69/69/69 
f 73/73/73 72/72/72 125/125/125 
f 125/125/125 126/126/126 73/73/73 
f 23/23/23 24/24/24 27/27/27 
f 27/27/27 26/26/26 23/23/23 
f 56/56/56 55/55/55 52/52/52 
f 52/52/52 51/51/51 56/56/56 
f 114/114/114 113/113/113 107/107/107 
f 107/107/107 108/108/108 114/114/114 
f 115/115/115 120/120/120 119/119/119 
f 119/119/119 116/116/116 115/115/115 
f 127/127/127 128/128/128 129/129/129 
f 129/129/129 130/130/130 127/127/127 
f 131/131/131 132/132/132 133/133/133 
f 133/133/133 134/134/134 131/131/131 
