v 0.7075107 1.8547790 0.6268370
vn 1.0000000 -0.0000004 -0.0000000
vt 0.8013970 0.9328920
v 0.7075106 1.5893340 0.2295688
vn 1.0000000 0.0000001 -0.0000004
vt 0.8404630 0.8738320
v 0.7075106 1.7288350 0.3227811
vn 1.0000000 0.0000002 -0.0000005
vt 0.8199240 0.8876900
v 0.7075107 1.8220479 0.4622832
vn 1.0000000 -0.0000018 0.0000004
vt 0.8062130 0.9084310
v 0.7075104 1.2602260 0.2295687
vn 1.0000000 -0.0000005 -0.0000001
vt 0.8888860 0.8738320
v 0.7075106 1.4247791 0.1968368
vn 1.0000000 -0.0000007 0.0000005
vt 0.8646730 0.8689740
v 0.7075105 1.0275110 0.4622831
vn 1.0000000 -0.0000002 -0.0000003
vt 0.9231370 0.9084310
v 0.7075104 1.1207230 0.3227809
vn 1.0000000 -0.0000002 -0.0000005
vt 0.9094200 0.8876900
v 0.7075105 1.0275110 0.7913908
vn 1.0000000 -0.0000002 0.0000003
vt 0.9231370 0.9573430
v 0.7075105 0.9947795 0.6268368
vn 1.0000000 -0.0000003 -0.0000000
vt 0.9279520 0.9328920
v 0.7075104 1.2602260 1.0241050
vn 1.0000000 -0.0000005 0.0000001
vt 0.8888860 0.9919420
v 0.7075104 1.1207230 0.9308928
vn 1.0000000 -0.0000002 0.0000005
vt 0.9094200 0.9780840
v 0.7075106 1.5893331 1.0241050
vn 1.0000000 0.0000001 0.0000004
vt 0.8404630 0.9919420
v 0.7075106 1.4247791 1.0568370
vn 1.0000000 -0.0000007 -0.0000005
vt 0.8646730 0.9967980
v 0.7075107 1.8220479 0.7913908
vn 1.0000000 -0.0000018 -0.0000004
vt 0.8062130 0.9573430
v 0.7075106 1.7288350 0.9308929
vn 1.0000000 0.0000002 0.0000005
vt 0.8199240 0.9780840
v 0.6485224 1.8547790 0.6268370
vn -1.0000000 0.0000004 -0.0000000
vt 0.9279520 0.9328810
v 0.6485223 1.5893331 1.0241050
vn -1.0000000 -0.0000005 -0.0000008
vt 0.8888970 0.9919420
v 0.6485223 1.7288350 0.9308929
vn -1.0000000 -0.0000003 -0.0000007
vt 0.9094200 0.9780840
v 0.6485224 1.8220479 0.7913908
vn -1.0000000 0.0000027 0.0000005
vt 0.9231370 0.9573430
v 0.6485222 1.2602260 1.0241050
vn -1.0000000 0.0000003 -0.0000001
vt 0.8404630 0.9919420
v 0.6485223 1.4247791 1.0568370
vn -1.0000000 0.0000004 0.0000001
vt 0.8646730 0.9967980
v 0.6485222 1.0275110 0.7913908
vn -1.0000000 0.0000002 -0.0000005
vt 0.8062120 0.9573430
v 0.6485222 1.1207230 0.9308928
vn -1.0000000 0.0000002 -0.0000002
vt 0.8199240 0.9780840
v 0.6485222 1.0275110 0.4622831
vn -1.0000000 0.0000002 0.0000005
vt 0.8062120 0.9084200
v 0.6485223 0.9947795 0.6268368
vn -1.0000000 0.0000001 0.0000000
vt 0.8013950 0.9328810
v 0.6485222 1.2602260 0.2295687
vn -1.0000000 0.0000003 0.0000001
vt 0.8404630 0.8738320
v 0.6485222 1.1207230 0.3227809
vn -1.0000000 0.0000002 0.0000002
vt 0.8199240 0.8876900
v 0.6485223 1.5893340 0.2295688
vn -1.0000000 -0.0000001 0.0000004
vt 0.8888970 0.8738320
v 0.6485223 1.4247791 0.1968368
vn -1.0000000 0.0000005 -0.0000002
vt 0.8646730 0.8689620
v 0.6485224 1.8220479 0.4622832
vn -1.0000000 0.0000018 -0.0000004
vt 0.9231370 0.9084200
v 0.6485223 1.7288350 0.3227811
vn -1.0000000 -0.0000002 0.0000005
vt 0.9094200 0.8876900
v 0.6485223 0.9947795 0.6268368
vn 0.0000000 -1.0000000 -0.0000002
vt 0.9875350 0.5604320
v 0.7075105 0.9947795 0.6268368
vn 0.0000000 -1.0000000 -0.0000002
vt 0.9960030 0.5604320
v 0.7075105 1.0275110 0.7913908
vn 0.0000000 -0.9238799 0.3826827
vt 0.9960030 0.5365890
v 0.6485222 1.0275110 0.7913908
vn 0.0000000 -0.9238799 0.3826827
vt 0.9875350 0.5365890
v 0.7075104 1.1207230 0.9308928
vn 0.0000000 -0.7071069 0.7071066
vt 0.9960030 0.5127430
v 0.6485222 1.1207230 0.9308928
vn 0.0000000 -0.7071069 0.7071066
vt 0.9875350 0.5127440
v 0.7075104 1.2602260 1.0241050
vn 0.0000000 -0.3826832 0.9238797
vt 0.9960030 0.4889000
v 0.6485222 1.2602260 1.0241050
vn 0.0000000 -0.3826833 0.9238796
vt 0.9875350 0.4889000
v 0.7075106 1.4247791 1.0568370
vn 0.0000000 -0.0000005 1.0000000
vt 0.9960030 0.4650550
v 0.6485223 1.4247791 1.0568370
vn 0.0000000 -0.0000006 1.0000000
vt 0.9875350 0.4650550
v 0.6485223 1.4247791 1.0568370
vn 0.0000000 -0.0000006 1.0000000
vt 0.9875350 0.6558070
v 0.7075106 1.4247791 1.0568370
vn 0.0000000 -0.0000005 1.0000000
vt 0.9960030 0.6558070
v 0.7075106 1.5893331 1.0241050
vn 0.0000000 0.3826838 0.9238794
vt 0.9960030 0.6319650
v 0.6485223 1.5893331 1.0241050
vn 0.0000000 0.3826838 0.9238794
vt 0.9875350 0.6319650
v 0.7075106 1.7288350 0.9308929
vn 0.0000000 0.7071069 0.7071066
vt 0.9960030 0.6081210
v 0.6485223 1.7288350 0.9308929
vn 0.0000000 0.7071069 0.7071067
vt 0.9875350 0.6081210
v 0.7075107 1.8220479 0.7913908
vn 0.0000000 0.9238794 0.3826838
vt 0.9960030 0.5842780
v 0.6485224 1.8220479 0.7913908
vn 0.0000000 0.9238793 0.3826839
vt 0.9875350 0.5842780
v 0.7075107 1.8547790 0.6268370
vn 0.0000000 1.0000000 0.0000004
vt 0.9960030 0.5604320
v 0.6485224 1.8547790 0.6268370
vn 0.0000000 1.0000000 0.0000004
vt 0.9875350 0.5604320
v 0.7075107 1.8220479 0.4622832
vn 0.0000000 0.9238798 -0.3826829
vt 0.9960030 0.5365890
v 0.6485224 1.8220479 0.4622832
vn 0.0000000 0.9238797 -0.3826830
vt 0.9875350 0.5365890
v 0.7075106 1.7288350 0.3227811
vn 0.0000000 0.7071071 -0.7071065
vt 0.9960030 0.5127430
v 0.6485223 1.7288350 0.3227811
vn 0.0000000 0.7071071 -0.7071065
vt 0.9875350 0.5127440
v 0.7075106 1.5893340 0.2295688
vn 0.0000000 0.3826841 -0.9238793
vt 0.9960030 0.4889000
v 0.6485223 1.5893340 0.2295688
vn 0.0000000 0.3826841 -0.9238793
vt 0.9875350 0.4889000
v 0.7075106 1.4247791 0.1968368
vn 0.0000000 0.0000002 -1.0000000
vt 0.9960030 0.4650550
v 0.6485223 1.4247791 0.1968368
vn -0.0000000 0.0000001 -1.0000000
vt 0.9875350 0.4650550
v 0.6485223 1.4247791 0.1968368
vn -0.0000000 0.0000001 -1.0000000
vt 0.9875350 0.6558070
v 0.7075106 1.4247791 0.1968368
vn 0.0000000 0.0000002 -1.0000000
vt 0.9960030 0.6558070
v 0.7075104 1.2602260 0.2295687
vn -0.0000007 -0.3826836 -0.9238795
vt 0.9960030 0.6319650
v 0.6485222 1.2602260 0.2295687
vn -0.0000007 -0.3826832 -0.9238797
vt 0.9875350 0.6319650
v 0.7075104 1.1207230 0.3227809
vn -0.0000001 -0.7071069 -0.7071066
vt 0.9960030 0.6081210
v 0.6485222 1.1207230 0.3227809
vn 0.0000000 -0.7071069 -0.7071067
vt 0.9875350 0.6081210
v 0.7075105 1.0275110 0.4622831
vn 0.0000000 -0.9238797 -0.3826829
vt 0.9960030 0.5842780
v 0.6485222 1.0275110 0.4622831
vn 0.0000000 -0.9238797 -0.3826829
vt 0.9875350 0.5842780
v 0.7075104 1.2409320 0.4429892
vn 0.9825222 -0.1316248 -0.1316244
vt 0.8917260 0.9055570
v 0.7567691 1.4247800 0.6268370
vn 1.0000000 -0.0000002 -0.0000000
vt 0.8646729 0.9328878
v 0.7075105 1.1647789 0.6268370
vn 0.9825223 -0.1861449 -0.0000002
vt 0.9029360 0.9328920
v 0.7075106 1.4247791 0.3668369
vn 0.9825224 -0.0000006 -0.1861446
vt 0.8646730 0.8942380
v 0.7075106 1.6086270 0.4429892
vn 0.9825224 0.1316241 -0.1316242
vt 0.8376220 0.9055570
v 0.7075106 1.6847800 0.6268370
vn 0.9825224 0.1861447 0.0000000
vt 0.8264080 0.9328920
v 0.7075106 1.6086270 0.8106847
vn 0.9825223 0.1316242 0.1316243
vt 0.8376220 0.9602170
v 0.7075106 1.4247791 0.8868370
vn 0.9825224 -0.0000004 0.1861447
vt 0.8646730 0.9715370
v 0.7075105 1.2409320 0.8106847
vn 0.9825223 -0.1316247 0.1316242
vt 0.8917270 0.9602170
v 0.6485223 1.6086270 0.4429892
vn -0.9846243 0.1235214 -0.1235214
vt 0.8917390 0.9055570
v 0.6023948 1.4247800 0.6268370
vn -1.0000000 0.0000003 0.0000000
vt 0.8646730 0.9328812
v 0.6485223 1.6847800 0.6268370
vn -0.9846243 0.1746856 0.0000000
vt 0.9029360 0.9328810
v 0.6485223 1.4247791 0.3668369
vn -0.9846243 0.0000003 -0.1746855
vt 0.8646730 0.8942380
v 0.6485221 1.2409320 0.4429892
vn -0.9846244 -0.1235209 -0.1235211
vt 0.8376220 0.9055570
v 0.6485222 1.1647800 0.6268370
vn -0.9846243 -0.1746854 -0.0000000
vt 0.8264080 0.9328810
v 0.6485221 1.2409320 0.8106847
vn -0.9846244 -0.1235210 0.1235211
vt 0.8376220 0.9602170
v 0.6485223 1.4247791 0.8868370
vn -0.9846243 0.0000002 0.1746856
vt 0.8646730 0.9715370
v 0.6485223 1.6086270 0.8106847
vn -0.9846243 0.1235214 0.1235215
vt 0.8917390 0.9602170

g group_100_140627851052160
f 1/1/1 2/2/2 3/3/3 
f 3/3/3 4/4/4 1/1/1 
f 1/1/1 5/5/5 6/6/6 
f 6/6/6 2/2/2 1/1/1 
f 1/1/1 7/7/7 8/8/8 
f 8/8/8 5/5/5 1/1/1 
f 1/1/1 9/9/9 10/10/10 
f 10/10/10 7/7/7 1/1/1 
f 1/1/1 11/11/11 12/12/12 
f 12/12/12 9/9/9 1/1/1 
f 1/1/1 13/13/13 14/14/14 
f 14/14/14 11/11/11 1/1/1 
f 1/1/1 15/15/15 16/16/16 
f 16/16/16 13/13/13 1/1/1 
f 17/17/17 18/18/18 19/19/19 
f 19/19/19 20/20/20 17/17/17 
f 17/17/17 21/21/21 22/22/22 
f 22/22/22 18/18/18 17/17/17 
f 17/17/17 23/23/23 24/24/24 
f 24/24/24 21/21/21 17/17/17 
f 17/17/17 25/25/25 26/26/26 
f 26/26/26 23/23/23 17/17/17 
f 17/17/17 27/27/27 28/28/28 
f 28/28/28 25/25/25 17/17/17 
f 17/17/17 29/29/29 30/30/30 
f 30/30/30 27/27/27 17/17/17 
f 17/17/17 31/31/31 32/32/32 
f 32/32/32 29/29/29 17/17/17 
f 33/33/33 34/34/34 35/35/35 
f 35/35/35 36/36/36 33/33/33 
f 36/36/36 35/35/35 37/37/37 
f 37/37/37 38/38/38 36/36/36 
f 38/38/38 37/37/37 39/39/39 
f 39/39/39 40/40/40 38/38/38 
f 40/40/40 39/39/39 41/41/41 
f 41/41/41 42/42/42 40/40/40 
f 43/43/43 44/44/44 45/45/45 
f 45/45/45 46/46/46 43/43/43 
f 46/46/46 45/45/45 47/47/47 
f 47/47/47 48/48/48 46/46/46 
f 48/48/48 47/47/47 49/49/49 
f 49/49/49 50/50/50 48/48/48 
f 50/50/50 49/49/49 51/51/51 
f 51/51/51 52/52/52 50/50/50 
f 52/52/52 51/51/51 53/53/53 
f 53/53/53 54/54/54 52/52/52 
f 54/54/54 53/53/53 55/55/55 
f 55/55/55 56/56/56 54/54/54 
f 56/56/56 55/55/55 57/57/57 
f 57/57/57 58/58/58 56/56/56 
f 58/58/58 57/57/57 59/59/59 
f 59/59/59 60/60/60 58/58/58 
f 61/61/61 62/62/62 63/63/63 
f 63/63/63 64/64/64 61/61/61 
f 64/64/64 63/63/63 65/65/65 
f 65/65/65 66/66/66 64/64/64 
f 66/66/66 65/65/65 67/67/67 
f 67/67/67 68/68/68 66/66/66 
f 68/68/68 67/67/67 34/34/34 
f 34/34/34 33/33/33 68/68/68 
f 69/69/69 70/70/70 71/71/71 
f 72/72/72 70/70/70 69/69/69 
f 73/73/73 70/70/70 72/72/72 
f 74/74/74 70/70/70 73/73/73 
f 75/75/75 70/70/70 74/74/74 
f 76/76/76 70/70/70 75/75/75 
f 77/77/77 70/70/70 76/76/76 
f 71/71/71 70/70/70 77/77/77 
f 78/78/78 79/79/79 80/80/80 
f 81/81/81 79/79/79 78/78/78 
f 82/82/82 79/79/79 81/81/81 
f 83/83/83 79/79/79 82/82/82 
f 84/84/84 79/79/79 83/83/83 
f 85/85/85 79/79/79 84/84/84 
f 86/86/86 79/79/79 85/85/85 
f 80/80/80 79/79/79 86/86/86 
