v -0.7461347 0.1012123 0.8240017
vn -1.0000000 0.0000000 0.0000000
vt 0.7070030 0.8688620
v -0.7461347 0.0587123 0.8976138
vn -1.0000000 0.0000000 0.0000000
vt 0.6998380 0.8813960
v -0.7461347 0.1862122 0.8240017
vn -1.0000000 -0.0000004 0.0000000
vt 0.7213300 0.8688620
v -0.7461347 0.1012123 0.9712260
vn -1.0000000 0.0000000 0.0000000
vt 0.7070030 0.8939290
v -0.7461347 0.1862122 0.9712260
vn -1.0000000 -0.0000004 0.0000000
vt 0.7213300 0.8939290
v -0.7461348 0.2287122 0.8976138
vn -1.0000000 -0.0000014 0.0000000
vt 0.7284920 0.8813960
v -0.6098977 0.0587123 0.8976138
vn 0.0000002 -1.0000000 -0.0000002
vt 0.6345290 0.9510106
v -0.6098977 0.1012123 0.9712259
vn 0.0000011 -0.4999999 0.8660254
vt 0.6224498 0.9510106
v -0.7461347 0.1012123 0.9712260
vn 0.0000009 -0.4999998 0.8660256
vt 0.6224500 0.9314533
v -0.7461347 0.0587123 0.8976138
vn -0.0000001 -1.0000000 -0.0000005
vt 0.6345290 0.9314533
v -0.6098977 0.1862122 0.9712259
vn 0.0000013 0.5000004 0.8660252
vt 0.6103739 0.9510091
v -0.7461347 0.1862122 0.9712260
vn 0.0000012 0.5000001 0.8660254
vt 0.6103703 0.9314539
v -0.6098977 0.2287120 0.8976138
vn 0.0000009 1.0000000 -0.0000002
vt 0.5982928 0.9510106
v -0.7461348 0.2287122 0.8976138
vn 0.0000011 1.0000000 -0.0000006
vt 0.5982930 0.9314533
v -0.6098977 0.1862122 0.8240017
vn 0.0000001 0.5000002 -0.8660253
vt 0.5862142 0.9510091
v -0.7461347 0.1862122 0.8240017
vn 0.0000004 0.5000001 -0.8660254
vt 0.5862140 0.9314539
v -0.6098977 0.1012123 0.8240017
vn -0.0000000 -0.4999996 -0.8660256
vt 0.5741307 0.9510099
v -0.7461347 0.1012123 0.8240017
vn -0.0000001 -0.4999996 -0.8660256
vt 0.5741321 0.9314550
v -0.6098977 0.0587123 0.8976138
vn 0.0000002 -1.0000000 -0.0000002
vt 0.5620520 0.9510106
v -0.7461347 0.0587123 0.8976138
vn -0.0000001 -1.0000000 -0.0000005
vt 0.5620525 0.9314533
v -0.6098977 0.1012123 0.9712259
vn 1.0000000 0.0000000 0.0000000
vt 0.7213300 0.8939290
v -0.6098977 0.0587123 0.8976138
vn 1.0000000 0.0000000 0.0000000
vt 0.7284920 0.8813960
v -0.6098977 0.1862122 0.9712259
vn 1.0000000 0.0000004 0.0000000
vt 0.7070030 0.8939290
v -0.6098977 0.1012123 0.8240017
vn 1.0000000 0.0000000 0.0000000
vt 0.7213300 0.8688620
v -0.6098977 0.1862122 0.8240017
vn 1.0000000 0.0000004 0.0000000
vt 0.7070030 0.8688620
v -0.6098977 0.2287120 0.8976138
vn 1.0000000 0.0000014 0.0000000
vt 0.6998380 0.8813960

g group_80_140627886302064
f 1/1/1 2/2/2 3/3/3 
f 3/3/3 2/2/2 4/4/4 
f 4/4/4 5/5/5 3/3/3 
f 5/5/5 6/6/6 3/3/3 
f 7/7/7 8/8/8 9/9/9 
f 9/9/9 10/10/10 7/7/7 
f 8/8/8 11/11/11 12/12/12 
f 12/12/12 9/9/9 8/8/8 
f 11/11/11 13/13/13 14/14/14 
f 14/14/14 12/12/12 11/11/11 
f 13/13/13 15/15/15 16/16/16 
f 16/16/16 14/14/14 13/13/13 
f 15/15/15 17/17/17 18/18/18 
f 18/18/18 16/16/16 15/15/15 
f 17/17/17 19/19/19 20/20/20 
f 20/20/20 18/18/18 17/17/17 
f 21/21/21 22/22/22 23/23/23 
f 23/23/23 22/22/22 24/24/24 
f 24/24/24 25/25/25 23/23/23 
f 25/25/25 26/26/26 23/23/23 
