v -0.7442166 -1.1145540 0.2641903
vn 0.0000000 -0.7071066 0.7071070
vt 0.9155314 0.8215440
v -0.7442166 -1.1467720 0.1864085
vn 0.0000000 -1.0000000 -0.0000013
vt 0.9155320 0.8335080
v -0.6118160 -1.1467720 0.1864085
vn 0.0000000 -1.0000000 -0.0000013
vt 0.8965231 0.8335078
v -0.6118160 -1.1145540 0.2641903
vn 0.0000000 -0.7071066 0.7071070
vt 0.8965247 0.8215442
v -0.7442166 -1.0367720 0.2964085
vn 0.0000000 0.0000003 1.0000000
vt 0.9155320 0.8095800
v -0.6118160 -1.0367720 0.2964085
vn 0.0000000 0.0000001 1.0000000
vt 0.8965231 0.8095800
v -0.7442167 -0.9589899 0.2641903
vn 0.0000000 0.7071072 0.7071065
vt 0.9155320 0.8454750
v -0.7442166 -1.0367720 0.2964085
vn 0.0000000 0.0000003 1.0000000
vt 0.9155320 0.8574400
v -0.6118160 -1.0367720 0.2964085
vn 0.0000000 0.0000001 1.0000000
vt 0.8965231 0.8574400
v -0.6118160 -0.9589899 0.2641903
vn 0.0000000 0.7071070 0.7071066
vt 0.8965231 0.8454750
v -0.7442167 -0.9267718 0.1864085
vn 0.0000000 1.0000000 -0.0000001
vt 0.9155320 0.8335080
v -0.6118160 -0.9267718 0.1864085
vn 0.0000000 1.0000000 -0.0000001
vt 0.8965231 0.8335078
v -0.7442167 -0.9589899 0.1086268
vn 0.0000000 0.7071072 -0.7071064
vt 0.9155314 0.8215440
v -0.6118160 -0.9589899 0.1086268
vn 0.0000000 0.7071071 -0.7071065
vt 0.8965247 0.8215442
v -0.7442166 -1.0367720 0.0764085
vn 0.0000000 -0.0000000 -1.0000000
vt 0.9155320 0.8095800
v -0.6118160 -1.0367720 0.0764085
vn 0.0000000 -0.0000002 -1.0000000
vt 0.8965231 0.8095800
v -0.7442166 -1.1145530 0.1086268
vn 0.0000000 -0.7071062 -0.7071075
vt 0.9155320 0.8454750
v -0.7442166 -1.0367720 0.0764085
vn 0.0000000 -0.0000000 -1.0000000
vt 0.9155320 0.8574400
v -0.6118160 -1.0367720 0.0764085
vn 0.0000000 -0.0000002 -1.0000000
vt 0.8965231 0.8574400
v -0.6118160 -1.1145530 0.1086268
vn 0.0000000 -0.7071061 -0.7071075
vt 0.8965231 0.8454750
v -0.6118160 -1.1145530 0.1086268
vn 1.0000000 0.0000003 0.0000001
vt 0.6964650 0.8334160
v -0.6118160 -1.0367720 0.0764085
vn 1.0000000 0.0000004 0.0000009
vt 0.7073600 0.8288610
v -0.6118160 -0.9589899 0.1086268
vn 1.0000000 0.0000004 0.0000000
vt 0.7182530 0.8334160
v -0.6118160 -0.9267718 0.1864085
vn 1.0000000 0.0000003 0.0000000
vt 0.7227670 0.8444220
v -0.6118160 -0.9589899 0.2641903
vn 1.0000000 0.0000005 -0.0000001
vt 0.7182530 0.8554260
v -0.6118160 -1.0367720 0.2964085
vn 1.0000000 0.0000004 -0.0000002
vt 0.7073600 0.8599800
v -0.6118160 -1.1145540 0.2641903
vn 1.0000000 0.0000000 0.0000000
vt 0.6964650 0.8554260
v -0.6118160 -1.1467720 0.1864085
vn 1.0000000 0.0000000 0.0000000
vt 0.6919530 0.8444220
v -0.7442166 -1.1467720 0.1864085
vn -1.0000000 -0.0000003 0.0000000
vt 0.7816540 0.9819360
v -0.7442166 -1.1145540 0.2641903
vn -1.0000000 0.0000000 0.0000000
vt 0.7862930 0.9932470
v -0.7442166 -1.0367720 0.2964085
vn -1.0000000 -0.0000005 0.0000005
vt 0.7974890 0.9979290
v -0.7442167 -0.9589899 0.2641903
vn -1.0000000 -0.0000004 0.0000001
vt 0.8086870 0.9932470
v -0.7442167 -0.9267718 0.1864085
vn -1.0000000 -0.0000003 0.0000000
vt 0.8133250 0.9819360
v -0.7442167 -0.9589899 0.1086268
vn -1.0000000 -0.0000004 -0.0000001
vt 0.8086870 0.9706270
v -0.7442166 -1.0367720 0.0764085
vn -1.0000000 -0.0000005 -0.0000005
vt 0.7974890 0.9659440
v -0.7442166 -1.1145530 0.1086268
vn -1.0000000 0.0000000 0.0000000
vt 0.7862930 0.9706270

g group_75_140627908044848
f 1/1/1 2/2/2 3/3/3 
f 3/3/3 4/4/4 1/1/1 
f 5/5/5 1/1/1 4/4/4 
f 4/4/4 6/6/6 5/5/5 
f 7/7/7 8/8/8 9/9/9 
f 9/9/9 10/10/10 7/7/7 
f 11/11/11 7/7/7 10/10/10 
f 10/10/10 12/12/12 11/11/11 
f 13/13/13 11/11/11 12/12/12 
f 12/12/12 14/14/14 13/13/13 
f 15/15/15 13/13/13 14/14/14 
f 14/14/14 16/16/16 15/15/15 
f 17/17/17 18/18/18 19/19/19 
f 19/19/19 20/20/20 17/17/17 
f 2/2/2 17/17/17 20/20/20 
f 20/20/20 3/3/3 2/2/2 
f 21/21/21 22/22/22 23/23/23 
f 23/23/23 24/24/24 21/21/21 
f 21/21/21 24/24/24 25/25/25 
f 25/25/25 26/26/26 21/21/21 
f 21/21/21 26/26/26 27/27/27 
f 27/27/27 28/28/28 21/21/21 
f 29/29/29 30/30/30 31/31/31 
f 31/31/31 32/32/32 29/29/29 
f 29/29/29 32/32/32 33/33/33 
f 33/33/33 34/34/34 29/29/29 
f 29/29/29 34/34/34 35/35/35 
f 35/35/35 36/36/36 29/29/29 
