v 0.8512058 1.4756510 1.1517510
vn 0.0000001 0.2296402 0.9732756
vt 0.4636281 2.9831531
v 0.8512058 1.7468630 1.0203360
vn 0.0000000 0.6325811 0.7744942
vt 0.4578316 2.5335519
v 0.5048270 1.7468630 1.0203360
vn 0.0000002 0.6325808 0.7744944
vt 1.0027800 2.5334020
v 0.5048270 1.4756510 1.1517510
vn 0.0000000 0.2296402 0.9732756
vt 1.0027800 2.9826980
v 0.8512059 1.9118850 0.8042678
vn 0.0000003 0.9410762 0.3381946
vt 0.4632795 2.1372199
v 0.5048271 1.9118850 0.8042678
vn 0.0000006 0.9410762 0.3381946
vt 1.0027800 2.1372199
v 0.8512059 1.9226960 0.5180326
vn 0.0000000 0.9669349 -0.2550236
vt 0.4703417 1.7143430
v 0.5048271 1.9226960 0.5180326
vn -0.0000000 0.9669347 -0.2550241
vt 1.0027820 1.7145710
v 0.8512058 1.4574840 0.1059267
vn 0.0000000 0.3528658 -0.9356740
vt 0.4632795 0.7316450
v 0.5048270 1.4574840 0.1059266
vn 0.0000003 0.3528660 -0.9356739
vt 1.0027800 0.7316450
v 0.5048270 1.7757120 0.2801663
vn -0.0000005 0.6882850 -0.7254404
vt 1.0028210 1.3000931
v 0.8512058 1.7757120 0.2801662
vn -0.0000005 0.6882852 -0.7254403
vt 0.4612131 1.2981060
v 0.8512055 0.9848023 0.0000676
vn 0.0000006 0.1099710 -0.9939348
vt 0.4632795 0.0000675
v 0.5048269 0.9848024 0.0000674
vn 0.0000007 0.1099711 -0.9939348
vt 1.0027800 0.0000675
v 0.5048269 0.9848024 0.0000674
vn 0.0000007 0.1099711 -0.9939348
vt 1.0027800 13.0005398
v 0.8512055 0.9848023 0.0000676
vn 0.0000006 0.1099710 -0.9939348
vt 0.4632795 13.0005398
v 0.8512051 -0.9848028 -0.0000676
vn 0.0000002 -0.1133050 -0.9935603
vt 0.4632795 9.8507023
v 0.5048267 -0.9848030 -0.0000676
vn 0.0000001 -0.1133050 -0.9935603
vt 1.0027800 9.8507023
v 0.8512048 -1.5207540 0.1238209
vn 0.0000010 -0.4279429 -0.9038059
vt 0.4586874 9.0021343
v 0.5048264 -1.5207540 0.1238208
vn 0.0000007 -0.4279433 -0.9038056
vt 1.0027800 9.0006285
v 0.8512048 -1.7218159 0.2789871
vn 0.0000011 -0.8552648 -0.5181912
vt 0.4547665 8.6422787
v 0.8512048 -1.7698420 0.5491354
vn 0.0000007 -0.9906901 0.1361366
vt 0.4632795 8.2607336
v 0.5048264 -1.7698420 0.5491354
vn 0.0000010 -0.9906901 0.1361370
vt 1.0027800 8.2607336
v 0.5048264 -1.7218159 0.2789871
vn 0.0000009 -0.8552651 -0.5181907
vt 1.0027800 8.6410961
v 0.8512048 -1.6728580 0.7503902
vn 0.0000000 -0.7363377 0.6766143
vt 0.4632795 7.9544859
v 0.5048264 -1.6728580 0.7503902
vn 0.0000004 -0.7363374 0.6766145
vt 1.0027800 7.9544859
v 0.5048264 -1.4854860 0.8610693
vn 0.0000002 -0.3216964 0.9468429
vt 1.0027781 7.6573520
v 0.8512048 -1.4854850 0.8610693
vn 0.0000001 -0.3216962 0.9468430
vt 0.4747157 7.6577902
v 0.8512056 0.9480111 1.1581910
vn 0.0000007 -0.0546178 0.9985074
vt 0.4632795 3.7742510
v 0.5048268 0.9480111 1.1581910
vn 0.0000006 -0.0546177 0.9985074
vt 1.0027800 3.7742510
v 0.7532763 1.4518880 1.0575221
vn 0.0000001 -0.2213230 -0.9752006
vt 0.2472231 2.9888649
v 0.6027563 1.4518880 1.0575221
vn -0.0000000 -0.2213229 -0.9752006
vt -0.0014775 2.9887891
v 0.6027564 1.6831220 0.9490312
vn 0.0000006 -0.6230369 -0.7821925
vt -0.0014788 2.5445700
v 0.7532765 1.6831230 0.9490312
vn 0.0000010 -0.6230373 -0.7821921
vt 0.2422425 2.5453091
v 0.7532766 1.8191110 0.7753392
vn 0.0000003 -0.9396005 -0.3422733
vt 0.2428021 2.1372199
v 0.6027565 1.8191110 0.7753392
vn 0.0000000 -0.9396004 -0.3422735
vt -0.0014796 2.1372199
v 0.6027565 1.8274879 0.5320890
vn 0.0000001 -0.9653081 0.2611136
vt -0.0014796 1.7018239
v 0.7532765 1.8274879 0.5320890
vn 0.0000000 -0.9653082 0.2611134
vt 0.2433426 1.7004770
v 0.7532765 1.4233100 0.1955353
vn -0.0000008 -0.3532930 0.9355127
vt 0.2428019 0.7316450
v 0.7532765 1.7177960 0.3582020
vn 0.0000002 -0.6862656 0.7273511
vt 0.2263555 1.3332900
v 0.6027564 1.7177960 0.3582020
vn 0.0000001 -0.6862653 0.7273513
vt -0.0013960 1.3340130
v 0.6027564 1.4233100 0.1955353
vn -0.0000009 -0.3532933 0.9355127
vt -0.0014795 0.7316450
v 0.7532762 0.9772582 0.0969535
vn -0.0000001 -0.1085672 0.9940892
vt 0.2428019 0.0000675
v 0.6027563 0.9772582 0.0969535
vn 0.0000000 -0.1085671 0.9940891
vt -0.0014795 0.0000675
v 0.6027563 0.9772582 0.0969535
vn 0.0000000 -0.1085671 0.9940891
vt -0.0004931 13.0005398
v 0.6027557 -0.9777587 0.0968559
vn -0.0000002 0.1078726 0.9941648
vt -0.0008105 9.8507023
v 0.7532761 -0.9777584 0.0968559
vn -0.0000003 0.1078723 0.9941648
vt 0.2435231 9.8507023
v 0.7532762 0.9772582 0.0969535
vn -0.0000001 -0.1085672 0.9940892
vt 0.2438410 13.0005398
v 0.6027554 -1.4686100 0.2046709
vn -0.0000016 0.4033775 0.9150337
vt -0.0012240 9.0253048
v 0.7532758 -1.4686100 0.2046711
vn -0.0000019 0.4033772 0.9150338
vt 0.2510817 9.0259600
v 0.7532758 -1.6345060 0.3216575
vn -0.0000016 0.8379785 0.5457033
vt 0.2464436 8.6654310
v 0.6027554 -1.6345060 0.3216575
vn -0.0000013 0.8379788 0.5457029
vt -0.0013613 8.6632862
v 0.6027554 -1.6764150 0.5307030
vn -0.0000016 0.9927515 -0.1201857
vt -0.0014280 8.2607336
v 0.7532758 -1.6764150 0.5307030
vn -0.0000021 0.9927514 -0.1201862
vt 0.2428666 8.2607336
v 0.6027554 -1.6067311 0.6791794
vn -0.0000021 0.7401887 -0.6723993
vt -0.0014596 7.9544859
v 0.7532758 -1.6067311 0.6791794
vn -0.0000029 0.7401878 -0.6724002
vt 0.2428370 7.9544859
v 0.6027554 -1.4559309 0.7684932
vn -0.0000007 0.3219333 -0.9467624
vt -0.0014044 7.6462150
v 0.6027561 0.9557337 1.0613190
vn 0.0000000 0.0565577 -0.9983993
vt -0.0014735 3.7742510
v 0.7532761 0.9557336 1.0613190
vn 0.0000000 0.0565578 -0.9983993
vt 0.2428108 3.7742510
v 0.7532758 -1.4559309 0.7684931
vn -0.0000011 0.3219336 -0.9467623
vt 0.2503273 7.6454701
v 0.6027564 1.6831220 0.9490312
vn -0.6983364 -0.4478647 -0.5583399
vt 0.2323465 2.5449800
v 0.6027563 1.4518880 1.0575221
vn -0.7049661 -0.1566527 -0.6917244
vt 0.2446596 2.9897799
v 0.5048270 1.4756510 1.1517510
vn -0.7023782 -0.1617424 -0.6931842
vt 0.4719976 2.9829021
v 0.5048270 1.7468630 1.0203360
vn -0.6984036 -0.4549485 -0.5524982
vt 0.4619963 2.5345540
v 0.8512058 1.4756510 1.1517510
vn 0.7023776 -0.1617427 -0.6931847
vt 0.4636281 2.9831531
v 0.7532763 1.4518880 1.0575221
vn 0.7049655 -0.1566531 -0.6917251
vt 0.2472231 2.9888649
v 0.7532765 1.6831230 0.9490312
vn 0.6983359 -0.4478655 -0.5583398
vt 0.2422425 2.5453091
v 0.8512058 1.7468630 1.0203360
vn 0.6984031 -0.4549492 -0.5524984
vt 0.4578316 2.5335519
v 0.5048271 1.9118850 0.8042678
vn -0.7059085 -0.6669694 -0.2384220
vt 0.4632795 2.1372199
v 0.6027565 1.8191110 0.7753392
vn -0.7042992 -0.6646453 -0.2494179
vt 0.2432182 2.1372199
v 0.7532766 1.8191110 0.7753392
vn 0.7042987 -0.6646459 -0.2494177
vt 0.2428021 2.1372199
v 0.8512059 1.9118850 0.8042678
vn 0.7059079 -0.6669701 -0.2384221
vt 0.4632795 2.1372199
v 0.5048271 1.9226960 0.5180326
vn -0.6998746 -0.6922337 0.1760346
vt 0.4655612 1.7120160
v 0.6027565 1.8274879 0.5320890
vn -0.6975770 -0.6879515 0.2002726
vt 0.2564722 1.7011321
v 0.7532765 1.8274879 0.5320890
vn 0.6975773 -0.6879513 0.2002721
vt 0.2433426 1.7004770
v 0.8512059 1.9226960 0.5180326
vn 0.6998747 -0.6922336 0.1760340
vt 0.4703417 1.7143430
v 0.6027564 1.4233100 0.1955353
vn -0.7006730 -0.2517141 0.6676058
vt 0.2432181 0.7316450
v 0.6027564 1.7177960 0.3582020
vn -0.6995503 -0.5006648 0.5098668
vt 0.2345961 1.3285789
v 0.5048270 1.7757120 0.2801663
vn -0.7015919 -0.4849701 0.5220850
vt 0.4243203 1.2974280
v 0.5048270 1.4574840 0.1059266
vn -0.6996775 -0.2522497 0.6684470
vt 0.4632795 0.7316450
v 0.8512058 1.7757120 0.2801662
vn 0.7015927 -0.4849698 0.5220843
vt 0.4612131 1.2981060
v 0.7532765 1.7177960 0.3582020
vn 0.6995510 -0.5006645 0.5098662
vt 0.2263555 1.3332900
v 0.7532765 1.4233100 0.1955353
vn 0.7006733 -0.2517137 0.6676056
vt 0.2428019 0.7316450
v 0.8512058 1.4574840 0.1059267
vn 0.6996780 -0.2522497 0.6684466
vt 0.4632795 0.7316450
v 0.5048269 0.9848024 0.0000674
vn -0.7037787 -0.0763187 0.7063079
vt 0.4632795 0.0000675
v 0.6027563 0.9772582 0.0969535
vn -0.7041937 -0.0782326 0.7056847
vt 0.2432181 0.0000675
v 0.7532762 0.9772582 0.0969535
vn 0.7041960 -0.0782395 0.7056817
vt 0.2428019 0.0000675
v 0.8512055 0.9848023 0.0000676
vn 0.7037750 -0.0763256 0.7063110
vt 0.4632795 0.0000675
v 0.7532762 0.9772582 0.0969535
vn 0.7041960 -0.0782395 0.7056817
vt 0.2438410 13.0005398
v 0.7532761 -0.9777584 0.0968559
vn 0.7041358 0.0779030 0.7057790
vt 0.2435231 9.8507023
v 0.8512051 -0.9848028 -0.0000676
vn 0.7023975 0.0763148 0.7076820
vt 0.4632795 9.8507023
v 0.8512055 0.9848023 0.0000676
vn 0.7037750 -0.0763256 0.7063110
vt 0.4632795 13.0005398
v 0.6027557 -0.9777587 0.0968559
vn -0.7041330 0.0778971 0.7057824
vt 0.2425491 9.8507023
v 0.6027563 0.9772582 0.0969535
vn -0.7041937 -0.0782326 0.7056847
vt 0.2422317 13.0005398
v 0.5048269 0.9848024 0.0000674
vn -0.7037787 -0.0763187 0.7063079
vt 0.4632795 13.0005398
v 0.5048267 -0.9848030 -0.0000676
vn -0.7024007 0.0763086 0.7076795
vt 0.4632795 9.8507023
v 0.6027554 -1.4686100 0.2046709
vn -0.6974769 0.2823257 0.6586488
vt 0.2345432 9.0286236
v 0.5048264 -1.5207540 0.1238208
vn -0.6908788 0.3083805 0.6539022
vt 0.4790369 9.0018492
v 0.7532758 -1.4686100 0.2046711
vn 0.6974767 0.2823254 0.6586491
vt 0.2510817 9.0259600
v 0.8512048 -1.5207540 0.1238209
vn 0.6908786 0.3083801 0.6539026
vt 0.4586874 9.0021343
v 0.6027554 -1.6764150 0.5307030
vn -0.6994655 0.7097319 -0.0838377
vt 0.2431666 8.2607336
v 0.6027554 -1.6345060 0.3216575
vn -0.7080871 0.5893292 0.3889779
vt 0.2263425 8.6639938
v 0.5048264 -1.7218159 0.2789871
vn -0.6995700 0.6133552 0.3666022
vt 0.4706748 8.6438093
v 0.5048264 -1.7698420 0.5491354
vn -0.6951097 0.7117918 -0.1008715
vt 0.4632795 8.2607336
v 0.8512048 -1.7218159 0.2789871
vn 0.6995697 0.6133554 0.3666027
vt 0.4547665 8.6422787
v 0.7532758 -1.6345060 0.3216575
vn 0.7080867 0.5893295 0.3889782
vt 0.2464436 8.6654310
v 0.7532758 -1.6764150 0.5307030
vn 0.6994652 0.7097321 -0.0838384
vt 0.2428666 8.2607336
v 0.8512048 -1.7698420 0.5491354
vn 0.6951099 0.7117915 -0.1008716
vt 0.4632795 8.2607336
v 0.6027554 -1.6067311 0.6791794
vn -0.7041876 0.5298746 -0.4726022
vt 0.2431982 7.9544859
v 0.5048264 -1.6728580 0.7503902
vn -0.7034975 0.5191306 -0.4853811
vt 0.4632795 7.9544859
v 0.7532758 -1.6067311 0.6791794
vn 0.7041886 0.5298736 -0.4726018
vt 0.2428370 7.9544859
v 0.8512048 -1.6728580 0.7503902
vn 0.7034990 0.5191298 -0.4853796
vt 0.4632795 7.9544859
v 0.7532758 -1.4559309 0.7684931
vn 0.7044048 0.2300890 -0.6714708
vt 0.2503273 7.6454701
v 0.7532761 0.9557336 1.0613190
vn 0.7042835 0.0396620 -0.7088100
vt 0.2428108 3.7742510
v 0.8512056 0.9480111 1.1581910
vn 0.7034578 0.0403753 -0.7095893
vt 0.4632795 3.7742510
v 0.8512048 -1.4854850 0.8610693
vn 0.7044938 0.2275014 -0.6722587
vt 0.4747157 7.6577902
v 0.5048268 0.9480111 1.1581910
vn -0.7034593 0.0403756 -0.7095878
vt 0.4632795 3.7742510
v 0.6027561 0.9557337 1.0613190
vn -0.7042854 0.0396623 -0.7088082
vt 0.2432120 3.7742510
v 0.6027554 -1.4559309 0.7684932
vn -0.7044048 0.2300887 -0.6714709
vt 0.2658107 7.6471758
v 0.5048264 -1.4854860 0.8610693
vn -0.7044934 0.2275017 -0.6722590
vt 0.4767891 7.6559639

g group_37_140627908199888
f 1/1/1 2/2/2 3/3/3 
f 3/3/3 4/4/4 1/1/1 
f 5/5/5 6/6/6 3/3/3 
f 3/3/3 2/2/2 5/5/5 
f 5/5/5 7/7/7 8/8/8 
f 8/8/8 6/6/6 5/5/5 
f 9/9/9 10/10/10 11/11/11 
f 11/11/11 12/12/12 9/9/9 
f 13/13/13 14/14/14 10/10/10 
f 10/10/10 9/9/9 13/13/13 
f 15/15/15 16/16/16 17/17/17 
f 17/17/17 18/18/18 15/15/15 
f 17/17/17 19/19/19 20/20/20 
f 20/20/20 18/18/18 17/17/17 
f 21/21/21 22/22/22 23/23/23 
f 23/23/23 24/24/24 21/21/21 
f 22/22/22 25/25/25 26/26/26 
f 26/26/26 23/23/23 22/22/22 
f 27/27/27 28/28/28 29/29/29 
f 29/29/29 30/30/30 27/27/27 
f 1/1/1 4/4/4 30/30/30 
f 30/30/30 29/29/29 1/1/1 
f 20/20/20 19/19/19 21/21/21 
f 21/21/21 24/24/24 20/20/20 
f 26/26/26 25/25/25 28/28/28 
f 28/28/28 27/27/27 26/26/26 
f 12/12/12 11/11/11 8/8/8 
f 8/8/8 7/7/7 12/12/12 
f 31/31/31 32/32/32 33/33/33 
f 33/33/33 34/34/34 31/31/31 
f 35/35/35 34/34/34 33/33/33 
f 33/33/33 36/36/36 35/35/35 
f 35/35/35 36/36/36 37/37/37 
f 37/37/37 38/38/38 35/35/35 
f 39/39/39 40/40/40 41/41/41 
f 41/41/41 42/42/42 39/39/39 
f 43/43/43 39/39/39 42/42/42 
f 42/42/42 44/44/44 43/43/43 
f 45/45/45 46/46/46 47/47/47 
f 47/47/47 48/48/48 45/45/45 
f 47/47/47 46/46/46 49/49/49 
f 49/49/49 50/50/50 47/47/47 
f 51/51/51 52/52/52 53/53/53 
f 53/53/53 54/54/54 51/51/51 
f 54/54/54 53/53/53 55/55/55 
f 55/55/55 56/56/56 54/54/54 
f 57/57/57 58/58/58 59/59/59 
f 59/59/59 60/60/60 57/57/57 
f 32/32/32 31/31/31 59/59/59 
f 59/59/59 58/58/58 32/32/32 
f 49/49/49 52/52/52 51/51/51 
f 51/51/51 50/50/50 49/49/49 
f 55/55/55 57/57/57 60/60/60 
f 60/60/60 56/56/56 55/55/55 
f 40/40/40 38/38/38 37/37/37 
f 37/37/37 41/41/41 40/40/40 
f 61/61/61 62/62/62 63/63/63 
f 63/63/63 64/64/64 61/61/61 
f 65/65/65 66/66/66 67/67/67 
f 67/67/67 68/68/68 65/65/65 
f 69/69/69 70/70/70 61/61/61 
f 61/61/61 64/64/64 69/69/69 
f 67/67/67 71/71/71 72/72/72 
f 72/72/72 68/68/68 67/67/67 
f 73/73/73 74/74/74 70/70/70 
f 70/70/70 69/69/69 73/73/73 
f 71/71/71 75/75/75 76/76/76 
f 76/76/76 72/72/72 71/71/71 
f 77/77/77 78/78/78 79/79/79 
f 79/79/79 80/80/80 77/77/77 
f 81/81/81 82/82/82 83/83/83 
f 83/83/83 84/84/84 81/81/81 
f 85/85/85 86/86/86 77/77/77 
f 77/77/77 80/80/80 85/85/85 
f 83/83/83 87/87/87 88/88/88 
f 88/88/88 84/84/84 83/83/83 
f 89/89/89 90/90/90 91/91/91 
f 91/91/91 92/92/92 89/89/89 
f 93/93/93 94/94/94 95/95/95 
f 95/95/95 96/96/96 93/93/93 
f 97/97/97 93/93/93 96/96/96 
f 96/96/96 98/98/98 97/97/97 
f 91/91/91 90/90/90 99/99/99 
f 99/99/99 100/100/100 91/91/91 
f 101/101/101 102/102/102 103/103/103 
f 103/103/103 104/104/104 101/101/101 
f 105/105/105 106/106/106 107/107/107 
f 107/107/107 108/108/108 105/105/105 
f 109/109/109 101/101/101 104/104/104 
f 104/104/104 110/110/110 109/109/109 
f 108/108/108 107/107/107 111/111/111 
f 111/111/111 112/112/112 108/108/108 
f 113/113/113 114/114/114 115/115/115 
f 115/115/115 116/116/116 113/113/113 
f 117/117/117 118/118/118 119/119/119 
f 119/119/119 120/120/120 117/117/117 
f 66/66/66 65/65/65 115/115/115 
f 115/115/115 114/114/114 66/66/66 
f 117/117/117 63/63/63 62/62/62 
f 62/62/62 118/118/118 117/117/117 
f 100/100/100 99/99/99 106/106/106 
f 106/106/106 105/105/105 100/100/100 
f 102/102/102 97/97/97 98/98/98 
f 98/98/98 103/103/103 102/102/102 
f 111/111/111 113/113/113 116/116/116 
f 116/116/116 112/112/112 111/111/111 
f 120/120/120 119/119/119 109/109/109 
f 109/109/109 110/110/110 120/120/120 
f 78/78/78 74/74/74 73/73/73 
f 73/73/73 79/79/79 78/78/78 
f 76/76/76 75/75/75 82/82/82 
f 82/82/82 81/81/81 76/76/76 
