v -0.0755311 0.0339147 1.6223860
vn -0.0000033 -1.0000000 -0.0000150
vt 0.0427929 0.8668414
v -0.0981586 0.8360119 1.6450140
vn -0.7065427 -0.0398639 0.7065468
vt 0.0392810 0.9808440
v -0.1075312 0.8360119 1.6223860
vn -0.9992051 -0.0398638 -0.0000033
vt 0.0357570 0.9808440
v -0.0755312 0.8360119 1.6543860
vn -0.0000000 -0.0398635 0.9992051
vt 0.0427930 0.9808440
v -0.0529038 0.8360119 1.6450140
vn 0.7065426 -0.0398636 0.7065470
vt 0.0463070 0.9808440
v -0.0435312 0.8360119 1.6223860
vn 0.9992051 -0.0398636 -0.0000030
vt 0.0498190 0.9808440
v -0.0529038 0.8360119 1.5997590
vn 0.7065436 -0.0398635 -0.7065459
vt 0.0533440 0.9808440
v -0.0755312 0.8360119 1.5903860
vn -0.0000004 -0.0398636 -0.9992051
vt 0.0568560 0.9808440
v -0.0981586 0.8360119 1.5997590
vn -0.7065439 -0.0398637 -0.7065456
vt 0.0322440 0.9808440
v -0.0755312 0.8360119 1.5903860
vn -0.0000004 -0.0398636 -0.9992051
vt 0.0287310 0.9808440
v -0.0755312 0.8360119 1.5903860
vn 0.0000000 1.0000000 0.0000000
vt 0.3154920 0.8047820
v -0.0981586 0.8360119 1.6450140
vn 0.0000000 1.0000000 0.0000000
vt 0.3076530 0.8080030
v -0.0755312 0.8360119 1.6543860
vn 0.0000000 1.0000000 0.0000000
vt 0.3062990 0.8047820
v -0.0529038 0.8360119 1.5997590
vn 0.0000000 1.0000000 0.0000000
vt 0.3141480 0.8015600
v -0.0981586 0.8360119 1.5997590
vn 0.0000000 1.0000000 0.0000000
vt 0.3141480 0.8080030
v -0.1075312 0.8360119 1.6223860
vn 0.0000000 1.0000000 0.0000000
vt 0.3108940 0.8093240
v -0.0435312 0.8360119 1.6223860
vn 0.0000000 1.0000000 0.0000000
vt 0.3108940 0.8002370
v -0.0529038 0.8360119 1.6450140
vn 0.0000000 1.0000000 0.0000000
vt 0.3076530 0.8015600
v -0.0473654 0.7210118 1.7575810
vn -1.0000000 -0.0000002 -0.0000018
vt 0.3280850 0.7727500
v -0.0379928 0.7210118 1.7802089
vn -0.7071080 -0.0000001 0.7071056
vt 0.3280850 0.7762640
v -0.0379928 0.9950118 1.7802089
vn -0.7071096 0.0000000 0.7071040
vt 0.2891440 0.7762640
v -0.0473654 0.9950118 1.7575810
vn -1.0000000 -0.0000000 -0.0000041
vt 0.2891440 0.7727400
v -0.0153654 0.7210116 1.7895809
vn 0.0000010 -0.0000000 1.0000000
vt 0.3280850 0.7797770
v -0.0153654 0.9950118 1.7895809
vn -0.0000003 0.0000000 1.0000000
vt 0.2891440 0.7797770
v 0.0072620 0.7210116 1.7802089
vn 0.7071093 0.0000000 0.7071043
vt 0.3280850 0.7832880
v 0.0072620 0.9950118 1.7802089
vn 0.7071087 0.0000001 0.7071049
vt 0.2891440 0.7832880
v 0.0166346 0.7210116 1.7575810
vn 1.0000000 0.0000001 -0.0000038
vt 0.3280850 0.7868130
v 0.0166346 0.9950118 1.7575810
vn 1.0000000 0.0000002 -0.0000020
vt 0.2891440 0.7868130
v 0.0072620 0.7210116 1.7349540
vn 0.7071083 0.0000001 -0.7071053
vt 0.3280850 0.7903250
v 0.0072620 0.9950118 1.7349540
vn 0.7071090 0.0000002 -0.7071046
vt 0.2891440 0.7903250
v -0.0153654 0.7210116 1.7255810
vn 0.0000011 0.0000000 -1.0000000
vt 0.3280850 0.7938380
v -0.0153654 0.9950118 1.7255810
vn 0.0000000 -0.0000000 -1.0000000
vt 0.2891440 0.7938380
v -0.0153654 0.7210116 1.7255810
vn 0.0000011 0.0000000 -1.0000000
vt 0.3280850 0.7657130
v -0.0379928 0.7210118 1.7349540
vn -0.7071081 -0.0000002 -0.7071055
vt 0.3280850 0.7692260
v -0.0379928 0.9950118 1.7349540
vn -0.7071084 -0.0000001 -0.7071052
vt 0.2891440 0.7692260
v -0.0153654 0.9950118 1.7255810
vn 0.0000000 -0.0000000 -1.0000000
vt 0.2891440 0.7657130
v -0.0153654 0.9950118 1.7255810
vn 0.0000000 1.0000000 0.0000000
vt 0.3476590 0.8042550
v -0.0379928 0.9950118 1.7802089
vn 0.0000000 1.0000000 0.0000000
vt 0.3398170 0.8074630
v -0.0153654 0.9950118 1.7895809
vn 0.0000000 1.0000000 0.0000000
vt 0.3384720 0.8042550
v 0.0072620 0.9950118 1.7349540
vn 0.0000000 1.0000000 0.0000000
vt 0.3463130 0.8010320
v -0.0379928 0.9950118 1.7349540
vn 0.0000000 1.0000000 0.0000000
vt 0.3463130 0.8074640
v -0.0473654 0.9950118 1.7575810
vn 0.0000000 1.0000000 0.0000000
vt 0.3430720 0.8087980
v 0.0166346 0.9950118 1.7575810
vn 0.0000000 1.0000000 0.0000000
vt 0.3430720 0.7996990
v 0.0072620 0.9950118 1.7802089
vn 0.0000000 1.0000000 0.0000000
vt 0.3398170 0.8010320
v 0.0435186 0.7804372 1.6900010
vn 0.0000006 -1.0000000 -0.0000037
vt 0.0417430 0.8184718
v 0.0435186 0.7984372 1.7055891
vn 0.0000004 -0.0000029 1.0000000
vt 0.0378645 0.8184719
v -0.0755312 0.7984372 1.7055891
vn -0.3355590 -0.0000023 0.9420192
vt 0.0378650 0.8015540
v -0.0755312 0.7804372 1.6900010
vn -0.2473977 -0.9367968 0.2473986
vt 0.0417430 0.8015540
v 0.0435186 0.8164374 1.6900010
vn 0.0000011 1.0000000 -0.0000037
vt 0.0339890 0.8184730
v -0.0755312 0.8164374 1.6900010
vn -0.2473990 0.9367963 0.2473994
vt 0.0339890 0.8015520
v 0.0435186 0.7984372 1.6744120
vn 0.0000012 -0.0000026 -1.0000000
vt 0.0301125 0.8184725
v -0.0599427 0.7984372 1.6744120
vn 0.7071072 -0.0000040 -0.7071065
vt 0.0301130 0.8037685
v -0.0599427 0.7984372 1.6744120
vn 0.7071072 -0.0000040 -0.7071065
vt 0.0443230 0.8037690
v 0.0435186 0.7984372 1.6744120
vn 0.0000012 -0.0000026 -1.0000000
vt 0.0443240 0.8184719
v -0.0755312 0.7804372 1.6450140
vn -0.0000003 -1.0000000 0.0000000
vt 0.0417430 0.7920270
v -0.0599427 0.7984372 1.6450140
vn 1.0000000 -0.0000023 0.0000000
vt 0.0443240 0.7920250
v -0.0599427 0.7984372 1.6744120
vn 0.7071072 -0.0000040 -0.7071065
vt 0.0443240 0.7962010
v -0.0755312 0.7804372 1.6900010
vn -0.2473977 -0.9367968 0.2473986
vt 0.0417430 0.7984200
v -0.0755312 0.8164374 1.6450140
vn -0.0000008 1.0000000 -0.0000003
vt 0.0339900 0.7920290
v -0.0755312 0.8164374 1.6900010
vn -0.2473990 0.9367963 0.2473994
vt 0.0339890 0.7984220
v -0.0599427 0.7984372 1.6744120
vn 0.7071072 -0.0000040 -0.7071065
vt 0.0301130 0.7962095
v -0.0599427 0.7984372 1.6450140
vn 1.0000000 -0.0000023 0.0000000
vt 0.0301085 0.7920310
v -0.0911196 0.7984372 1.6450140
vn -1.0000000 -0.0000027 -0.0000004
vt 0.0378590 0.7920265
v -0.0911197 0.7984372 1.6900010
vn -0.9420187 -0.0000024 0.3355604
vt 0.0378645 0.7984210
v -0.0755312 0.7804372 1.6900010
vn -0.2473977 -0.9367968 0.2473986
vt 0.0412010 0.7999870
v -0.0755312 0.8164374 1.6900010
vn -0.2473990 0.9367963 0.2473994
vt 0.0345310 0.7999880
v 0.1107818 0.9003190 1.6565239
vn 1.0000000 0.0000001 0.0000000
vt 0.6324140 0.9766160
v 0.1107818 0.9003190 1.7177410
vn 1.0000000 0.0000001 0.0000000
vt 0.6324140 0.9853100
v 0.1107818 0.7210119 1.7177410
vn 1.0000000 0.0000001 0.0000000
vt 0.6066750 0.9853100
v 0.1107818 0.7210119 1.7177410
vn 0.9823848 -0.0603776 -0.1768465
vt 0.6066750 0.9853100
v 0.0997616 0.7210119 1.6565239
vn 0.9823848 -0.0603776 -0.1768465
vt 0.6066750 0.9766150
v 0.1107818 0.9003190 1.6565239
vn 0.9823848 -0.0603776 -0.1768465
vt 0.6324140 0.9766160
v 0.0407818 0.9003190 1.6565239
vn -0.9869772 -0.0519742 -0.1522325
vt 0.6424680 0.9766160
v 0.0502241 0.7210119 1.6565239
vn -0.9869772 -0.0519742 -0.1522325
vt 0.6682060 0.9766160
v 0.0407818 0.7210119 1.7177410
vn -0.9869772 -0.0519742 -0.1522325
vt 0.6682060 0.9853100
v 0.0407818 0.7210119 1.7177410
vn -1.0000000 -0.0000001 0.0000000
vt 0.6682060 0.9853100
v 0.0407818 0.9003190 1.7177410
vn -1.0000000 -0.0000001 0.0000000
vt 0.6424680 0.9853100
v 0.0407818 0.9003190 1.6565239
vn -1.0000000 -0.0000001 0.0000000
vt 0.6424680 0.9766160
v 0.1107818 0.9003190 1.7177410
vn 0.0000000 1.0000000 0.0000000
vt 0.6324140 0.9853100
v 0.1107818 0.9003190 1.6565239
vn 0.0000000 1.0000000 0.0000000
vt 0.6324140 0.9766160
v 0.0407818 0.9003190 1.6565239
vn 0.0000000 1.0000000 0.0000000
vt 0.6424680 0.9766160
v 0.0407818 0.9003190 1.7177410
vn 0.0000000 1.0000000 0.0000000
vt 0.6424680 0.9853100
v 0.0757819 0.1095435 1.6396240
vn 0.0000465 -0.1298754 -0.9915304
vt 0.0709993 0.9641011
v 0.0510331 0.9205119 1.6943001
vn -0.7418269 0.4748271 0.4735317
vt 0.1857262 0.9452125
v 0.0407818 0.9205119 1.6565239
vn -0.9462342 0.3187734 -0.0549939
vt 0.1863170 0.9565450
v 0.1107818 0.9205119 1.6565239
vn 0.9462342 0.3187736 -0.0549936
vt 0.1863170 0.9717570
v 0.1005305 0.9205119 1.6943001
vn 0.7418268 0.4748272 0.4735315
vt 0.1862373 0.9774188
v 0.1005305 0.9205119 1.6317750
vn 0.6710009 0.3215503 -0.6681042
vt 0.1863170 0.9678420
v 0.0757818 0.9205119 1.6215240
vn -0.0000002 0.3244182 -0.9459138
vt 0.1863170 0.9639380
v 0.0510330 0.9205119 1.6317750
vn -0.6710009 0.3215502 -0.6681043
vt 0.1863170 0.9604600
v 0.0407818 0.9205119 1.6565239
vn -0.9462342 0.3187734 -0.0549939
vt 0.3521050 0.7453600
v 0.0510331 0.9205119 1.6943001
vn -0.7418269 0.4748271 0.4735317
vt 0.3450649 0.7377039
v 0.0757818 0.9588575 1.6565239
vn -0.0000001 0.9986481 -0.0519810
vt 0.3521050 0.7391680
v 0.1005305 0.9205119 1.6943001
vn 0.7418268 0.4748272 0.4735315
vt 0.3462328 0.7348876
v 0.1107818 0.9205119 1.6565239
vn 0.9462342 0.3187736 -0.0549936
vt 0.3521050 0.7329670
v 0.1005305 0.9205119 1.6317750
vn 0.6710009 0.3215503 -0.6681042
vt 0.3565310 0.7347890
v 0.0757818 0.9205119 1.6215240
vn -0.0000002 0.3244182 -0.9459138
vt 0.3583620 0.7391680
v 0.0510330 0.9205119 1.6317750
vn -0.6710009 0.3215502 -0.6681043
vt 0.3565310 0.7435490
v 0.0407818 0.7210119 1.7177410
vn -1.0000000 -0.0000000 -0.0000000
vt 0.3221840 0.9528280
v 0.0510331 0.7210116 1.7424901
vn -0.7071059 0.0000001 0.7071077
vt 0.3221840 0.9566750
v 0.0510330 1.2910120 1.7424901
vn -0.7071056 -0.0000000 0.7071080
vt 0.2411740 0.9566750
v 0.0407817 1.2910120 1.7177410
vn -1.0000000 -0.0000002 0.0000025
vt 0.2411740 0.9528280
v 0.0757818 0.7210116 1.7527410
vn 0.0000019 0.0000000 1.0000000
vt 0.3221840 0.9605240
v 0.0757817 1.2910120 1.7527410
vn -0.0000022 0.0000002 1.0000000
vt 0.2411740 0.9605240
v 0.1005306 0.7210116 1.7424901
vn 0.7071064 0.0000000 0.7071072
vt 0.3221840 0.9643620
v 0.1005305 1.2910120 1.7424901
vn 0.7071058 0.0000002 0.7071078
vt 0.2411740 0.9643620
v 0.1107818 0.7210119 1.7177410
vn 1.0000000 0.0000002 0.0000026
vt 0.3221840 0.9682120
v 0.1107817 1.2910120 1.7177410
vn 1.0000000 0.0000001 -0.0000005
vt 0.2411740 0.9682120
v 0.1005306 0.7210116 1.6929930
vn 0.7071065 0.0000001 -0.7071072
vt 0.3221840 0.9720630
v 0.1005305 1.2910120 1.6929930
vn 0.7071074 0.0000001 -0.7071062
vt 0.2411740 0.9720630
v 0.0757818 0.7210116 1.6827410
vn -0.0000004 -0.0000000 -1.0000000
vt 0.3221840 0.9759000
v 0.0757818 1.2910120 1.6827410
vn 0.0000007 0.0000000 -1.0000000
vt 0.2411740 0.9759000
v 0.0757818 0.7210116 1.6827410
vn -0.0000004 -0.0000000 -1.0000000
vt 0.3221840 0.9451380
v 0.0510331 0.7210116 1.6929930
vn -0.7071061 -0.0000000 -0.7071075
vt 0.3221840 0.9489870
v 0.0510330 1.2910120 1.6929930
vn -0.7071072 -0.0000001 -0.7071064
vt 0.2411740 0.9489870
v 0.0757818 1.2910120 1.6827410
vn 0.0000007 0.0000000 -1.0000000
vt 0.2411740 0.9451380
v 0.0757818 1.2910120 1.6827410
vn -0.0000024 1.0000000 -0.0000000
vt 0.3568370 0.7566610
v 0.0510330 1.2910120 1.7424901
vn 0.0000000 1.0000000 0.0000000
vt 0.3482600 0.7601740
v 0.0757817 1.2910120 1.7527410
vn -0.0000008 1.0000000 0.0000011
vt 0.3467950 0.7566610
v 0.1005305 1.2910120 1.6929930
vn -0.0000040 1.0000000 0.0000003
vt 0.3553730 0.7531500
v 0.0510330 1.2910120 1.6929930
vn 0.0000000 1.0000000 0.0000000
vt 0.3553730 0.7601740
v 0.0407817 1.2910120 1.7177410
vn 0.0000000 1.0000000 0.0000000
vt 0.3518170 0.7616400
v 0.1107817 1.2910120 1.7177410
vn -0.0000016 1.0000000 0.0000018
vt 0.3518170 0.7516850
v 0.1005305 1.2910120 1.7424901
vn 0.0000024 1.0000000 0.0000058
vt 0.3482600 0.7531500
v 0.1399443 0.7210118 1.5784560
vn -0.0000002 1.0000000 0.0000000
vt 0.0936720 0.9396430
v -0.1400558 0.7210118 1.5784560
vn -0.0000002 1.0000000 0.0000000
vt 0.1332670 0.9396430
v -0.1400558 0.7210118 1.7976069
vn -0.0000002 1.0000000 0.0000000
vt 0.1332670 0.9722380
v 0.1399443 0.7210118 1.7976080
vn -0.0000002 1.0000000 -0.0000000
vt 0.0936720 0.9722380
v 0.1399443 0.6353678 1.5590760
vn -0.0000001 0.2207037 -0.9753409
vt 0.1328460 0.9905610
v -0.1400558 0.6353680 1.5590760
vn 0.0000014 0.2207083 -0.9753399
vt 0.0930650 0.9905610
v -0.1400558 0.7210118 1.5784560
vn 0.0000010 0.2207072 -0.9753401
vt 0.0930650 0.9772790
v 0.1399443 0.7210118 1.5784560
vn -0.0000005 0.2207026 -0.9753411
vt 0.1328460 0.9772790
v -0.1400558 0.6353680 1.5590760
vn -1.0000000 -0.0000001 0.0000000
vt 0.1514460 0.9358580
v -0.1400558 0.6353679 1.8287300
vn -1.0000000 0.0000002 -0.0000001
vt 0.1514460 0.9745570
v -0.1400558 0.7210118 1.7976069
vn -1.0000000 0.0000001 -0.0000000
vt 0.1393670 0.9700810
v -0.1400558 0.7210118 1.5784560
vn -1.0000000 -0.0000002 0.0000001
vt 0.1393670 0.9386340
v -0.1400558 0.6353679 1.8287300
vn -0.0000003 0.3415438 0.9398659
vt 0.0942510 0.9219260
v 0.1399443 0.6353678 1.8287300
vn 0.0000001 0.3415423 0.9398665
vt 0.1340320 0.9219250
v 0.1399443 0.7210118 1.7976080
vn 0.0000000 0.3415427 0.9398662
vt 0.1340320 0.9346120
v -0.1400558 0.7210118 1.7976069
vn -0.0000005 0.3415441 0.9398658
vt 0.0942510 0.9346120
v 0.1399443 0.6353678 1.5590760
vn 1.0000000 0.0000003 0.0000001
vt 0.0757180 0.9356790
v 0.1399443 0.7210118 1.5784560
vn 1.0000000 0.0000003 0.0000001
vt 0.0879600 0.9386500
v 0.1399443 0.7210118 1.7976080
vn 1.0000000 0.0000002 0.0000002
vt 0.0879600 0.9700940
v 0.1399443 0.6353678 1.8287300
vn 1.0000000 0.0000002 0.0000002
vt 0.0757180 0.9743780
v 0.0757817 1.4531180 1.7447420
vn 0.0000002 0.0000000 1.0000000
vt 0.5443190 0.9498660
v 0.0991644 1.4531180 1.7312410
vn 0.8660267 0.0000003 0.4999979
vt 0.5404830 0.9498660
v 0.0991644 1.5492260 1.7312410
vn 0.8660275 0.0000003 0.4999964
vt 0.5404830 0.9360630
v 0.0757817 1.5492260 1.7447420
vn 0.0000000 0.0000000 1.0000000
vt 0.5443190 0.9360630
v 0.0991644 1.4531180 1.7042420
vn 0.8660290 0.0000002 -0.4999938
vt 0.5366540 0.9498660
v 0.0991644 1.5492260 1.7042420
vn 0.8660290 0.0000003 -0.4999938
vt 0.5366540 0.9360630
v 0.0757817 1.4531180 1.6907409
vn 0.0000031 -0.0000000 -1.0000000
vt 0.5328170 0.9498660
v 0.0757817 1.5492260 1.6907409
vn 0.0000048 0.0000000 -1.0000000
vt 0.5328170 0.9360630
v 0.0757817 1.4531180 1.6907409
vn 0.0000031 -0.0000000 -1.0000000
vt 0.5558350 0.9498660
v 0.0523990 1.4531180 1.7042420
vn -0.8660271 -0.0000002 -0.4999972
vt 0.5519980 0.9498660
v 0.0523990 1.5492260 1.7042420
vn -0.8660271 -0.0000002 -0.4999971
vt 0.5519980 0.9360630
v 0.0757817 1.5492260 1.6907409
vn 0.0000048 0.0000000 -1.0000000
vt 0.5558350 0.9360630
v 0.0523990 1.4531180 1.7312410
vn -0.8660271 -0.0000002 0.4999972
vt 0.5481590 0.9498660
v 0.0523990 1.5492260 1.7312410
vn -0.8660271 -0.0000002 0.4999971
vt 0.5481590 0.9360630
v 0.0523990 1.4531180 1.7042420
vn 0.0000000 -1.0000000 0.0000000
vt 0.3572390 0.7795910
v 0.0757817 1.4531180 1.6907409
vn 0.0000019 -1.0000000 -0.0000011
vt 0.3538890 0.7776730
v 0.0523990 1.4531180 1.7312410
vn 0.0000000 -1.0000000 0.0000000
vt 0.3572390 0.7834210
v 0.0757817 1.4531180 1.7447420
vn 0.0000000 -1.0000000 0.0000000
vt 0.3538890 0.7853380
v 0.0991644 1.4531180 1.7312410
vn 0.0000019 -1.0000000 -0.0000011
vt 0.3505270 0.7834210
v 0.0757817 1.5492260 1.6907409
vn -0.0000025 1.0000000 0.0000000
vt 0.3538890 0.7776730
v 0.0523990 1.5492260 1.7042420
vn 0.0000000 1.0000000 0.0000000
vt 0.3572390 0.7795910
v 0.0757817 1.5492260 1.7447420
vn -0.0000006 1.0000000 0.0000011
vt 0.3538890 0.7853380
v 0.0991644 1.5492260 1.7042420
vn -0.0000032 1.0000000 0.0000011
vt 0.3505260 0.7795910
v 0.0523990 1.5492260 1.7312410
vn 0.0000000 1.0000000 0.0000000
vt 0.3572390 0.7834210
v 0.0991644 1.5492260 1.7312410
vn 0.0000025 1.0000000 0.0000044
vt 0.3505270 0.7834210
v 0.0991644 1.4531180 1.7042420
vn 0.0000076 -1.0000000 -0.0000044
vt 0.3505260 0.7795910
v 0.0757819 -0.0379946 1.7177410
vn -0.0000052 -1.0000000 -0.0002771
vt 0.5873573 0.9298283
v 0.0928944 1.5528750 1.7177410
vn 0.9980676 -0.0621386 -0.0000030
vt 0.3387540 0.9345145
v 0.0757817 1.5528750 1.7375020
vn -0.0000002 -0.0709239 0.9974818
vt 0.3387540 0.9298200
v 0.0757817 1.5528750 1.6979820
vn -0.0000001 -0.0709988 -0.9974764
vt 0.3387540 0.9391900
v 0.0586690 1.5528750 1.7177410
vn -0.9980676 -0.0621386 -0.0000030
vt 0.3387540 0.9251245
v 0.0757817 1.5528750 1.6979820
vn -0.0000001 -0.0709988 -0.9974764
vt 0.3387540 0.9204510
v 0.1005304 1.8060120 1.7424901
vn 0.7076718 -0.0660675 0.7034456
vt 0.2998180 0.9321740
v 0.0757817 1.8060120 1.7527421
vn -0.0000021 -0.0600954 0.9981927
vt 0.2998190 0.9298200
v 0.1107817 1.8060120 1.7177420
vn 0.9975128 -0.0704866 -0.0000006
vt 0.2998180 0.9344820
v 0.1005304 1.8060120 1.6929930
vn 0.7124190 -0.0664886 -0.6985974
vt 0.2998190 0.9368030
v 0.0757816 1.8060120 1.6823241
vn -0.0000003 -0.0617378 -0.9980925
vt 0.2998180 0.9391230
v 0.0510329 1.8060120 1.6929930
vn -0.7124184 -0.0664887 -0.6985981
vt 0.2998180 0.9228380
v 0.0757816 1.8060120 1.6823241
vn -0.0000003 -0.0617378 -0.9980925
vt 0.2998180 0.9205170
v 0.0407817 1.8060120 1.7177410
vn -0.9975127 -0.0704867 -0.0000009
vt 0.2998180 0.9251570
v 0.0510329 1.8060120 1.7424901
vn -0.7076727 -0.0660673 0.7034448
vt 0.2998180 0.9274680
v 0.1005304 1.8060120 1.7424901
vn -0.3598719 0.8607326 -0.3600440
vt 0.3230170 0.8007240
v 0.1107817 1.8060120 1.7177420
vn -0.5096310 0.8603931 -0.0001735
vt 0.3268870 0.7991300
v 0.0757817 1.7852809 1.7176670
vn -0.0000010 1.0000000 -0.0002509
vt 0.3268980 0.8045510
v 0.1005304 1.8060120 1.6929930
vn -0.3630286 0.8600509 0.3585008
vt 0.3307580 0.8007120
v 0.0757816 1.8060120 1.6823241
vn -0.0000016 0.8625602 0.5059546
vt 0.3324170 0.8045510
v 0.0510329 1.8060120 1.6929930
vn 0.3630255 0.8600522 0.3585008
vt 0.3307580 0.8083930
v 0.0407817 1.8060120 1.7177410
vn 0.5096285 0.8603945 -0.0001750
vt 0.3268870 0.8099730
v 0.0510329 1.8060120 1.7424901
vn 0.3598717 0.8607320 -0.3600454
vt 0.3230170 0.8083920
v 0.0757817 1.8060120 1.7527421
vn 0.0000010 0.8608724 -0.5088209
vt 0.3214120 0.8045510
v -0.0755311 0.0339147 1.6223860
vn -0.0000033 -1.0000000 -0.0000150
vt 0.0427929 0.8668414
v -0.0755311 0.0339147 1.6223860
vn -0.0000033 -1.0000000 -0.0000150
vt 0.0427929 0.8668414
v -0.0755311 0.0339147 1.6223860
vn -0.0000033 -1.0000000 -0.0000150
vt 0.0427929 0.8668414
v -0.0755311 0.0339147 1.6223860
vn -0.0000033 -1.0000000 -0.0000150
vt 0.0427929 0.8668414
v -0.0755311 0.0339147 1.6223860
vn -0.0000033 -1.0000000 -0.0000150
vt 0.0427929 0.8668414
v 0.0435186 0.7804372 1.6900010
vn 0.0000006 -1.0000000 -0.0000037
vt 0.0417430 0.8184718
v -0.0755312 0.7804372 1.6900010
vn -0.2473977 -0.9367968 0.2473986
vt 0.0417430 0.8015540
v 0.0435186 0.8164374 1.6900010
vn 0.0000011 1.0000000 -0.0000037
vt 0.0339890 0.8184730
v -0.0755312 0.8164374 1.6900010
vn -0.2473990 0.9367963 0.2473994
vt 0.0339890 0.8015520
v -0.0755312 0.7804372 1.6450140
vn -0.0000003 -1.0000000 0.0000000
vt 0.0417430 0.7920270
v -0.0755312 0.7804372 1.6900010
vn -0.2473977 -0.9367968 0.2473986
vt 0.0417430 0.7984200
v -0.0755312 0.8164374 1.6450140
vn -0.0000008 1.0000000 -0.0000003
vt 0.0339900 0.7920290
v -0.0755312 0.8164374 1.6900010
vn -0.2473990 0.9367963 0.2473994
vt 0.0339890 0.7984220
v 0.0757819 0.1095435 1.6396240
vn 0.0000465 -0.1298754 -0.9915304
vt 0.0709993 0.9641011
v 0.0757819 0.1095435 1.6396240
vn 0.0000465 -0.1298754 -0.9915304
vt 0.0709993 0.9641011
v 0.0757818 0.9588575 1.6565239
vn -0.0000001 0.9986481 -0.0519810
vt 0.3521050 0.7391680
v 0.0757819 -0.0379946 1.7177410
vn -0.0000052 -1.0000000 -0.0002771
vt 0.5873573 0.9298283
v 0.0757817 1.5528750 1.7375020
vn -0.0000002 -0.0709239 0.9974818
vt 0.3387540 0.9298200
v 0.0757817 1.5528750 1.7375020
vn -0.0000002 -0.0709239 0.9974818
vt 0.3387540 0.9298200

g group_19_140627908236560
f 1/1/1 2/2/2 3/3/3 
f 1/1/1 4/4/4 2/2/2 
f 1/1/1 5/5/5 4/4/4 
f 195/195/195 6/6/6 5/5/5 
f 196/196/196 7/7/7 6/6/6 
f 197/197/197 8/8/8 7/7/7 
f 198/198/198 9/9/9 10/10/10 
f 199/199/199 3/3/3 9/9/9 
f 11/11/11 12/12/12 13/13/13 
f 13/13/13 14/14/14 11/11/11 
f 12/12/12 11/11/11 15/15/15 
f 15/15/15 16/16/16 12/12/12 
f 17/17/17 14/14/14 13/13/13 
f 13/13/13 18/18/18 17/17/17 
f 19/19/19 20/20/20 21/21/21 
f 21/21/21 22/22/22 19/19/19 
f 20/20/20 23/23/23 24/24/24 
f 24/24/24 21/21/21 20/20/20 
f 23/23/23 25/25/25 26/26/26 
f 26/26/26 24/24/24 23/23/23 
f 25/25/25 27/27/27 28/28/28 
f 28/28/28 26/26/26 25/25/25 
f 27/27/27 29/29/29 30/30/30 
f 30/30/30 28/28/28 27/27/27 
f 29/29/29 31/31/31 32/32/32 
f 32/32/32 30/30/30 29/29/29 
f 33/33/33 34/34/34 35/35/35 
f 35/35/35 36/36/36 33/33/33 
f 34/34/34 19/19/19 22/22/22 
f 22/22/22 35/35/35 34/34/34 
f 37/37/37 38/38/38 39/39/39 
f 39/39/39 40/40/40 37/37/37 
f 38/38/38 37/37/37 41/41/41 
f 41/41/41 42/42/42 38/38/38 
f 43/43/43 40/40/40 39/39/39 
f 39/39/39 44/44/44 43/43/43 
f 45/45/45 46/46/46 47/47/47 
f 47/47/47 48/48/48 45/45/45 
f 46/46/46 49/49/49 50/50/50 
f 50/50/50 47/47/47 46/46/46 
f 202/202/202 51/51/51 52/52/52 
f 52/52/52 203/203/203 202/202/202 
f 200/200/200 201/201/201 53/53/53 
f 53/53/53 54/54/54 200/200/200 
f 55/55/55 56/56/56 57/57/57 
f 57/57/57 58/58/58 55/55/55 
f 59/59/59 60/60/60 61/61/61 
f 61/61/61 62/62/62 59/59/59 
f 206/206/206 63/63/63 64/64/64 
f 64/64/64 207/207/207 206/206/206 
f 63/63/63 204/204/204 205/205/205 
f 205/205/205 64/64/64 63/63/63 
f 47/47/47 64/64/64 65/65/65 
f 47/47/47 66/66/66 64/64/64 
f 67/67/67 68/68/68 69/69/69 
f 70/70/70 71/71/71 72/72/72 
f 73/73/73 74/74/74 75/75/75 
f 76/76/76 77/77/77 78/78/78 
f 79/79/79 80/80/80 81/81/81 
f 81/81/81 82/82/82 79/79/79 
f 83/83/83 84/84/84 85/85/85 
f 208/208/208 86/86/86 87/87/87 
f 208/208/208 88/88/88 86/86/86 
f 208/208/208 89/89/89 88/88/88 
f 209/209/209 90/90/90 89/89/89 
f 83/83/83 85/85/85 90/90/90 
f 91/91/91 92/92/92 93/93/93 
f 93/93/93 92/92/92 94/94/94 
f 94/94/94 95/95/95 210/210/210 
f 210/210/210 95/95/95 96/96/96 
f 96/96/96 97/97/97 93/93/93 
f 93/93/93 97/97/97 98/98/98 
f 98/98/98 91/91/91 93/93/93 
f 99/99/99 100/100/100 101/101/101 
f 101/101/101 102/102/102 99/99/99 
f 100/100/100 103/103/103 104/104/104 
f 104/104/104 101/101/101 100/100/100 
f 103/103/103 105/105/105 106/106/106 
f 106/106/106 104/104/104 103/103/103 
f 105/105/105 107/107/107 108/108/108 
f 108/108/108 106/106/106 105/105/105 
f 107/107/107 109/109/109 110/110/110 
f 110/110/110 108/108/108 107/107/107 
f 109/109/109 111/111/111 112/112/112 
f 112/112/112 110/110/110 109/109/109 
f 113/113/113 114/114/114 115/115/115 
f 115/115/115 116/116/116 113/113/113 
f 99/99/99 102/102/102 114/114/114 
f 114/114/114 102/102/102 115/115/115 
f 117/117/117 118/118/118 119/119/119 
f 119/119/119 120/120/120 117/117/117 
f 118/118/118 117/117/117 121/121/121 
f 121/121/121 122/122/122 118/118/118 
f 123/123/123 120/120/120 119/119/119 
f 119/119/119 124/124/124 123/123/123 
f 125/125/125 126/126/126 127/127/127 
f 127/127/127 128/128/128 125/125/125 
f 129/129/129 130/130/130 131/131/131 
f 131/131/131 132/132/132 129/129/129 
f 133/133/133 134/134/134 135/135/135 
f 135/135/135 136/136/136 133/133/133 
f 137/137/137 138/138/138 139/139/139 
f 139/139/139 140/140/140 137/137/137 
f 141/141/141 142/142/142 143/143/143 
f 143/143/143 144/144/144 141/141/141 
f 145/145/145 146/146/146 147/147/147 
f 147/147/147 148/148/148 145/145/145 
f 146/146/146 149/149/149 150/150/150 
f 150/150/150 147/147/147 146/146/146 
f 149/149/149 151/151/151 152/152/152 
f 152/152/152 150/150/150 149/149/149 
f 153/153/153 154/154/154 155/155/155 
f 155/155/155 156/156/156 153/153/153 
f 154/154/154 157/157/157 158/158/158 
f 158/158/158 155/155/155 154/154/154 
f 157/157/157 145/145/145 148/148/148 
f 148/148/148 158/158/158 157/157/157 
f 159/159/159 160/160/160 161/161/161 
f 162/162/162 161/161/161 160/160/160 
f 160/160/160 163/163/163 162/162/162 
f 164/164/164 165/165/165 166/166/166 
f 166/166/166 167/167/167 164/164/164 
f 166/166/166 165/165/165 168/168/168 
f 169/169/169 167/167/167 166/166/166 
f 170/170/170 163/163/163 160/160/160 
f 171/171/171 172/172/172 173/173/173 
f 171/171/171 174/174/174 172/172/172 
f 211/211/211 175/175/175 176/176/176 
f 211/211/211 212/212/212 175/175/175 
f 177/177/177 178/178/178 213/213/213 
f 173/173/173 172/172/172 177/177/177 
f 179/179/179 172/172/172 180/180/180 
f 174/174/174 181/181/181 180/180/180 
f 180/180/180 172/172/172 174/174/174 
f 182/182/182 183/183/183 176/176/176 
f 176/176/176 175/175/175 182/182/182 
f 184/184/184 175/175/175 185/185/185 
f 213/213/213 178/178/178 185/185/185 
f 185/185/185 175/175/175 212/212/212 
f 172/172/172 179/179/179 177/177/177 
f 184/184/184 182/182/182 175/175/175 
f 186/186/186 187/187/187 188/188/188 
f 188/188/188 187/187/187 189/189/189 
f 189/189/189 190/190/190 188/188/188 
f 188/188/188 190/190/190 191/191/191 
f 191/191/191 192/192/192 188/188/188 
f 192/192/192 193/193/193 188/188/188 
f 188/188/188 193/193/193 194/194/194 
f 194/194/194 186/186/186 188/188/188 
