v 0.0405887 1.0872450 1.6646900
vn 0.0000010 0.6630024 0.7486172
vt 0.3345920 0.7726050
v 0.0640887 1.0872450 1.6549560
vn 0.5293506 0.6630019 0.5293548
vt 0.3364230 0.7683330
v 0.0405887 1.1010120 1.6314560
vn -0.0000002 1.0000000 0.0000017
vt 0.3407630 0.7725840
v 0.0170887 1.0872450 1.6549560
vn -0.5293514 0.6630021 0.5293537
vt 0.3363470 0.7769750
v 0.0738227 1.0872450 1.6314560
vn 0.7486163 0.6630035 0.0000014
vt 0.3407390 0.7665760
v 0.0640887 1.0872450 1.6079561
vn 0.5293524 0.6630039 -0.5293505
vt 0.3450330 0.7683430
v 0.0405887 1.0872450 1.5982220
vn -0.0000009 0.6630045 -0.7486154
vt 0.3468220 0.7725840
v 0.0170887 1.0872450 1.6079561
vn -0.5293527 0.6630029 -0.5293515
vt 0.3450770 0.7768650
v 0.0073547 1.0872450 1.6314560
vn -0.7486171 0.6630026 0.0000015
vt 0.3407630 0.7786870
v 0.0405887 1.0872450 1.6646900
vn 0.0000010 0.6630024 0.7486172
vt 0.2351280 0.9659110
v 0.0405887 1.0540110 1.6784559
vn 0.0000004 0.1865638 0.9824429
vt 0.2301090 0.9659110
v 0.0738227 1.0540110 1.6646900
vn 0.6946912 0.1865632 0.6946930
vt 0.2301100 0.9608050
v 0.0640887 1.0872450 1.6549560
vn 0.5293506 0.6630019 0.5293548
vt 0.2350920 0.9608050
v 0.0875887 1.0540119 1.6314560
vn 0.9824427 0.1865645 0.0000019
vt 0.2301100 0.9557510
v 0.0738227 1.0872450 1.6314560
vn 0.7486163 0.6630035 0.0000014
vt 0.2350940 0.9557510
v 0.0738227 1.0540119 1.5982220
vn 0.6946936 0.1865646 -0.6946902
vt 0.2301090 0.9506360
v 0.0640887 1.0872450 1.6079561
vn 0.5293524 0.6630039 -0.5293505
vt 0.2350970 0.9506360
v 0.0405887 1.0540110 1.5844560
vn -0.0000009 0.1865648 -0.9824427
vt 0.2301090 0.9455840
v 0.0405887 1.0872450 1.5982220
vn -0.0000009 0.6630045 -0.7486154
vt 0.2351000 0.9455840
v 0.0405887 1.0872450 1.5982220
vn -0.0000009 0.6630045 -0.7486154
vt 0.2352520 0.9861340
v 0.0405887 1.0540110 1.5844560
vn -0.0000009 0.1865648 -0.9824427
vt 0.2302610 0.9861770
v 0.0073547 1.0540110 1.5982220
vn -0.6946937 0.1865636 -0.6946904
vt 0.2302220 0.9811240
v 0.0170887 1.0872450 1.6079561
vn -0.5293527 0.6630029 -0.5293515
vt 0.2352210 0.9810920
v -0.0064113 1.0540110 1.6314560
vn -0.9824430 0.1865632 0.0000015
vt 0.2301840 0.9760610
v 0.0073547 1.0872450 1.6314560
vn -0.7486171 0.6630026 0.0000015
vt 0.2351850 0.9760180
v 0.0073547 1.0540110 1.6646900
vn -0.6946921 0.1865627 0.6946921
vt 0.2301470 0.9710090
v 0.0170887 1.0872450 1.6549560
vn -0.5293514 0.6630021 0.5293537
vt 0.2351720 0.9709650
v 0.0405888 0.7885210 1.6784559
vn 0.0000002 -0.0000000 1.0000000
vt 0.1924380 0.9659230
v 0.0738228 0.7885210 1.6646900
vn 0.7071064 0.0000002 0.7071072
vt 0.1924400 0.9608180
v 0.0875888 0.7885210 1.6314560
vn 1.0000000 0.0000003 0.0000019
vt 0.1924400 0.9557500
v 0.0738228 0.7885210 1.5982220
vn 0.7071068 -0.0000002 -0.7071068
vt 0.1924390 0.9506360
v 0.0405888 0.7885210 1.5844560
vn -0.0000002 -0.0000005 -1.0000000
vt 0.1924380 0.9455940
v 0.0405888 0.7885210 1.5844560
vn -0.0000002 -0.0000005 -1.0000000
vt 0.1925910 0.9864590
v 0.0073548 0.7885210 1.5982220
vn -0.7071066 -0.0000002 -0.7071069
vt 0.1925530 0.9814160
v -0.0064112 0.7885210 1.6314560
vn -1.0000000 -0.0000003 0.0000016
vt 0.1925140 0.9763440
v 0.0073547 0.7885210 1.6646900
vn -0.7071065 -0.0000002 0.7071071
vt 0.1924780 0.9712930
v 0.0405888 0.7210118 1.7718800
vn 0.0000002 -0.0000000 1.0000000
vt 0.3655220 0.9452310
v 0.0780654 0.7210118 1.7563570
vn 0.7071084 0.0000002 0.7071052
vt 0.3710290 0.9452310
v 0.0780654 0.9960117 1.7563570
vn 0.7071084 0.0000002 0.7071053
vt 0.3710290 0.9861070
v 0.0405887 0.9960117 1.7718800
vn -0.0000000 -0.0000000 1.0000000
vt 0.3655220 0.9861070
v 0.0935888 0.7210118 1.7188801
vn 0.9996690 0.0000003 0.0257294
vt 0.3765490 0.9452310
v 0.0935887 0.9960117 1.7188801
vn 0.9996690 0.0000003 0.0257295
vt 0.3765490 0.9861070
v 0.0780654 0.7210118 1.6751680
vn 1.0000000 0.0000003 0.0000016
vt 0.3829790 0.9452310
v 0.0780654 0.9960117 1.6751680
vn 1.0000000 0.0000003 0.0000016
vt 0.3829790 0.9861070
v 0.0031121 0.7210118 1.6751680
vn -1.0000000 -0.0000003 0.0000017
vt 0.3480540 0.9452310
v -0.0124112 0.7210118 1.7188801
vn -0.9996690 -0.0000003 0.0257294
vt 0.3544840 0.9452310
v -0.0124113 0.9960117 1.7188801
vn -0.9996690 -0.0000003 0.0257293
vt 0.3544840 0.9861070
v 0.0031121 0.9960117 1.6751680
vn -1.0000000 -0.0000003 0.0000017
vt 0.3480540 0.9861070
v 0.0031121 0.7210118 1.7563570
vn -0.7071086 -0.0000002 0.7071050
vt 0.3600020 0.9452310
v 0.0031120 0.9960117 1.7563570
vn -0.7071086 -0.0000002 0.7071050
vt 0.3600020 0.9861070
v 0.0935887 0.9960117 1.7188801
vn 0.0000000 1.0000000 0.0000000
vt 0.2411470 0.9162490
v 0.0780654 0.9960117 1.6751680
vn 0.0000000 1.0000000 0.0000000
vt 0.2473590 0.9184820
v 0.0031121 0.9960117 1.6751680
vn 0.0000000 1.0000000 0.0000000
vt 0.2473590 0.9292400
v -0.0124113 0.9960117 1.7188801
vn 0.0000000 1.0000000 0.0000000
vt 0.2411470 0.9314720
v 0.0031120 0.9960117 1.7563570
vn 0.0000000 1.0000000 0.0000000
vt 0.2358210 0.9292400
v 0.0405887 0.9960117 1.7718800
vn 0.0000000 1.0000000 0.0000000
vt 0.2336140 0.9238590
v 0.0780654 0.9960117 1.7563570
vn 0.0000000 1.0000000 0.0000000
vt 0.2358230 0.9184820
v 0.0935888 0.7885210 1.6314560
vn 0.9948328 0.0000002 0.1015267
vt 0.3894070 0.9552710
v 0.0935887 0.9960117 1.6314560
vn 0.9423411 0.0000003 0.3346540
vt 0.3894070 0.9861080
v 0.0935888 0.7210118 1.6314560
vn 0.9996690 0.0000002 -0.0257275
vt 0.3894070 0.9452310
v 0.0780655 0.7210118 1.5939790
vn 0.7071086 0.0000002 -0.7071050
vt 0.3949280 0.9452300
v 0.0780654 0.7885210 1.5939790
vn 0.7071084 0.0000002 -0.7071052
vt 0.3949280 0.9552710
v 0.0405888 0.7210118 1.5784560
vn -0.0000000 0.0000001 -1.0000000
vt 0.4004450 0.9452310
v 0.0405888 0.7885210 1.5784560
vn -0.0000003 -0.0000000 -1.0000000
vt 0.4004450 0.9552710
v 0.0405888 0.7210118 1.5784560
vn -0.0000000 0.0000001 -1.0000000
vt 0.3305970 0.9452310
v 0.0031121 0.7210118 1.5939790
vn -0.7071086 -0.0000000 -0.7071050
vt 0.3361050 0.9452310
v 0.0031121 0.7885210 1.5939790
vn -0.7071084 0.0000000 -0.7071052
vt 0.3361050 0.9552610
v 0.0405888 0.7885210 1.5784560
vn -0.0000003 -0.0000000 -1.0000000
vt 0.3305970 0.9552610
v -0.0124112 0.7210118 1.6314560
vn -0.9996690 -0.0000003 -0.0257276
vt 0.3416240 0.9452310
v -0.0124112 0.7885210 1.6314560
vn -0.9948329 -0.0000002 0.1015264
vt 0.3416240 0.9552710
v 0.0935887 0.9960117 1.6314560
vn 0.0000000 1.0000000 0.0000000
vt 0.2535750 0.9162490
v -0.0124113 0.9960117 1.6314560
vn 0.0000000 1.0000000 0.0000000
vt 0.2535740 0.9314720
v 0.0935887 0.9960117 1.6314560
vn 0.0000000 0.0000000 -1.0000000
vt 0.4463350 0.8792810
v 0.0935888 0.7885210 1.6314560
vn 0.0000000 0.0000000 -1.0000000
vt 0.4666780 0.8792810
v -0.0124112 0.7885210 1.6314560
vn 0.0000000 0.0000000 -1.0000000
vt 0.4666780 0.8897760
v -0.0124113 0.9960117 1.6314560
vn 0.0000000 0.0000000 -1.0000000
vt 0.4463360 0.8897760
v 0.0935888 0.7885210 1.6314560
vn 0.0000000 1.0000000 0.0000000
vt 0.4666780 0.8792810
v 0.0780654 0.7885210 1.5939790
vn 0.0000000 1.0000000 0.0000000
vt 0.4703510 0.8808190
v 0.0031121 0.7885210 1.5939790
vn 0.0000000 1.0000000 0.0000000
vt 0.4703510 0.8882480
v -0.0124112 0.7885210 1.6314560
vn 0.0000000 1.0000000 0.0000000
vt 0.4666780 0.8897760
v 0.0405888 0.7885210 1.5784560
vn 0.0000000 1.0000000 0.0000000
vt 0.4718740 0.8845270
v -0.0124113 0.9960117 1.6314560
vn -0.9423411 -0.0000003 0.3346539
vt 0.3416240 0.9861070
v -0.0709284 0.7210118 1.7667140
vn -0.0000002 0.0000000 1.0000000
vt 0.6685290 0.9560470
v -0.0426441 0.7210118 1.7549980
vn 0.7071071 0.0000002 0.7071065
vt 0.6642280 0.9560470
v -0.0426442 0.8980119 1.7549980
vn 0.7071071 0.0000002 0.7071065
vt 0.6642280 0.9299700
v -0.0709284 0.8980119 1.7667140
vn 0.0000001 0.0000000 1.0000000
vt 0.6685290 0.9299700
v -0.0309284 0.7210118 1.7267140
vn 1.0000000 0.0000003 0.0000030
vt 0.6599260 0.9560470
v -0.0309284 0.8980119 1.7267140
vn 1.0000000 0.0000003 0.0000030
vt 0.6599260 0.9299700
v -0.0426441 0.7210118 1.6984299
vn 0.7071093 0.0000002 -0.7071044
vt 0.6556230 0.9560470
v -0.0426442 0.8980119 1.6984299
vn 0.7071092 0.0000002 -0.7071044
vt 0.6556230 0.9299700
v -0.0709284 0.7210118 1.6867141
vn -0.0000000 -0.0000000 -1.0000000
vt 0.6517510 0.9560470
v -0.0709284 0.8980119 1.6867141
vn -0.0000002 0.0000000 -1.0000000
vt 0.6517510 0.9299700
v -0.0992127 0.7210118 1.6984299
vn -0.7071095 -0.0000002 -0.7071041
vt 0.6810090 0.9560470
v -0.0992127 0.8980119 1.6984299
vn -0.7071092 -0.0000002 -0.7071044
vt 0.6810090 0.9299700
v -0.0709284 0.7210118 1.6867141
vn -0.0000000 -0.0000000 -1.0000000
vt 0.6848790 0.9560470
v -0.0709284 0.8980119 1.6867141
vn -0.0000002 0.0000000 -1.0000000
vt 0.6848790 0.9299700
v -0.1109284 0.7210118 1.7267140
vn -1.0000000 -0.0000003 0.0000031
vt 0.6767030 0.9560470
v -0.1109284 0.8980119 1.7267140
vn -1.0000000 -0.0000003 0.0000026
vt 0.6767030 0.9299700
v -0.0992127 0.7210118 1.7549980
vn -0.7071074 -0.0000002 0.7071062
vt 0.6724100 0.9560470
v -0.0992127 0.8980119 1.7549980
vn -0.7071071 -0.0000002 0.7071065
vt 0.6724100 0.9299700
v -0.0709284 0.8980119 1.6867141
vn -0.0000004 1.0000000 0.0000005
vt 0.3446700 0.7909820
v -0.0992127 0.8980119 1.7549980
vn -0.0000018 1.0000000 0.0000001
vt 0.3355620 0.7909820
v -0.0709284 0.8980119 1.7667140
vn -0.0000011 1.0000000 0.0000000
vt 0.3355620 0.7872400
v -0.0426442 0.8980119 1.7549980
vn 0.0000000 1.0000000 0.0000000
vt 0.3382300 0.7845950
v -0.1109284 0.8980119 1.7267140
vn -0.0000007 1.0000000 0.0000008
vt 0.3382300 0.7936250
v -0.0992127 0.8980119 1.6984299
vn 0.0000011 1.0000000 0.0000025
vt 0.3420020 0.7936250
v -0.0309284 0.8980119 1.7267140
vn 0.0000000 1.0000000 0.0000000
vt 0.3420030 0.7845950
v -0.0426442 0.8980119 1.6984299
vn 0.0000000 1.0000000 0.0000000
vt 0.3446700 0.7872400
v 0.0405889 -0.2144992 1.7188801
vn 0.0000114 -1.0000000 -0.0000506
vt 0.2766082 1.1124460
v 0.0688730 1.1010110 1.7471640
vn 0.7067834 -0.0303923 0.7067770
vt 0.2723530 0.9162840
v 0.0405887 1.1010110 1.7588800
vn 0.0000016 -0.0303926 0.9995381
vt 0.2766550 0.9162840
v 0.0805887 1.1010110 1.7188801
vn 0.9995381 -0.0303922 0.0000006
vt 0.2680500 0.9162840
v 0.0688730 1.1010110 1.6905960
vn 0.7067775 -0.0303924 -0.7067828
vt 0.2641770 0.9162830
v 0.0405887 1.1010110 1.6788800
vn -0.0000000 -0.0303923 -0.9995381
vt 0.2598720 0.9162840
v 0.0123044 1.1010110 1.6905960
vn -0.7067775 -0.0303926 -0.7067828
vt 0.2891370 0.9162840
v 0.0405887 1.1010110 1.6788800
vn -0.0000000 -0.0303923 -0.9995381
vt 0.2934400 0.9162840
v 0.0005887 1.1010110 1.7188801
vn -0.9995381 -0.0303926 0.0000000
vt 0.2848340 0.9162840
v 0.0123044 1.1010110 1.7471640
vn -0.7067826 -0.0303926 0.7067778
vt 0.2809610 0.9162840
v 0.0405887 1.1010110 1.7588800
vn 0.0000000 1.0000000 0.0000000
vt 0.2886540 0.8052640
v 0.0688730 1.1010110 1.7471640
vn 0.0000000 1.0000000 0.0000000
vt 0.2903490 0.8012410
v 0.0533166 1.1010110 1.7316080
vn 0.0000000 1.0000000 0.0000000
vt 0.2925700 0.8034530
v 0.0405887 1.1010110 1.7368799
vn 0.0000000 1.0000000 0.0000000
vt 0.2918220 0.8052640
v 0.0805887 1.1010110 1.7188801
vn 0.0000000 1.0000000 0.0000000
vt 0.2944030 0.7995810
v 0.0585887 1.1010110 1.7188801
vn 0.0000000 1.0000000 0.0000000
vt 0.2944030 0.8027040
v 0.0688730 1.1010110 1.6905960
vn 0.0000000 1.0000000 0.0000000
vt 0.2984560 0.8012410
v 0.0533166 1.1010110 1.7061520
vn 0.0000000 1.0000000 0.0000000
vt 0.2962250 0.8034520
v 0.0405887 1.1010110 1.6788800
vn 0.0000000 1.0000000 0.0000000
vt 0.3001500 0.8052640
v 0.0405887 1.1010110 1.7008801
vn 0.0000000 1.0000000 0.0000000
vt 0.2969830 0.8052640
v 0.0123044 1.1010110 1.6905960
vn 0.0000000 1.0000000 0.0000000
vt 0.2984690 0.8092850
v 0.0278608 1.1010110 1.7061520
vn 0.0000000 1.0000000 0.0000000
vt 0.2962360 0.8070720
v 0.0005887 1.1010110 1.7188801
vn 0.0000000 1.0000000 0.0000000
vt 0.2944030 0.8109460
v 0.0225887 1.1010110 1.7188801
vn 0.0000000 1.0000000 0.0000000
vt 0.2944030 0.8078230
v 0.0123044 1.1010110 1.7471640
vn 0.0000000 1.0000000 0.0000000
vt 0.2903490 0.8092850
v 0.0278608 1.1010110 1.7316080
vn 0.0000000 1.0000000 0.0000000
vt 0.2925700 0.8070720
v 0.0405887 1.1010110 1.7368799
vn -0.0000036 0.0473161 -0.9988800
vt 0.1394710 0.9888560
v 0.0533166 1.1010110 1.7316080
vn -0.7063231 0.0473149 -0.7063066
vt 0.1393170 0.9876400
v 0.0405888 0.7210118 1.7188801
vn 0.0006629 0.9999998 0.0000174
vt 0.1726220 0.9839780
v 0.0585887 1.1010110 1.7188801
vn -0.9988800 0.0473152 -0.0000033
vt 0.1392100 0.9864270
v 0.0533166 1.1010110 1.7061520
vn -0.7063170 0.0473154 0.7063127
vt 0.1391410 0.9852010
v 0.0405887 1.1010110 1.7008801
vn 0.0000004 0.0473158 0.9988800
vt 0.1391210 0.9839780
v 0.0278608 1.1010110 1.7061520
vn 0.7063171 0.0473157 0.7063125
vt 0.1391410 0.9827510
v 0.0225887 1.1010110 1.7188801
vn 0.9988800 0.0473156 -0.0000017
vt 0.1392100 0.9815250
v 0.0278608 1.1010110 1.7316080
vn 0.7063216 0.0473155 -0.7063081
vt 0.1393170 0.9803110
v 0.0405887 1.1010110 1.7368799
vn -0.0000036 0.0473161 -0.9988800
vt 0.1394730 0.9790980
v 0.1358825 0.7210118 1.5784560
vn -0.0000002 1.0000000 0.0000000
vt 0.0295880 0.9254500
v -0.1441175 0.7210118 1.5784560
vn -0.0000002 1.0000000 0.0000000
vt 0.0691780 0.9254500
v -0.1441175 0.7210118 1.7976069
vn -0.0000002 1.0000000 0.0000000
vt 0.0691780 0.9580550
v 0.1358825 0.7210118 1.7976080
vn -0.0000002 1.0000000 -0.0000000
vt 0.0295880 0.9580550
v 0.1358825 0.6353678 1.5590760
vn -0.0000001 0.2207037 -0.9753409
vt 0.1328460 0.9905610
v -0.1441175 0.6353679 1.5590760
vn 0.0000013 0.2207082 -0.9753399
vt 0.0930650 0.9905610
v -0.1441175 0.7210118 1.5784560
vn 0.0000010 0.2207071 -0.9753402
vt 0.0930650 0.9772790
v 0.1358825 0.7210118 1.5784560
vn -0.0000005 0.2207026 -0.9753411
vt 0.1328460 0.9772790
v -0.1441175 0.6353679 1.5590760
vn -1.0000000 -0.0000001 -0.0000000
vt 0.1514460 0.9358580
v -0.1441175 0.6353679 1.8287300
vn -1.0000000 -0.0000000 -0.0000001
vt 0.1514460 0.9745570
v -0.1441175 0.7210118 1.7976069
vn -1.0000000 -0.0000000 -0.0000000
vt 0.1393670 0.9700810
v -0.1441175 0.7210118 1.5784560
vn -1.0000000 -0.0000002 0.0000000
vt 0.1393670 0.9386340
v -0.1441175 0.6353679 1.8287300
vn -0.0000003 0.3415438 0.9398659
vt 0.0942510 0.9219260
v 0.1358825 0.6353678 1.8287300
vn 0.0000001 0.3415423 0.9398665
vt 0.1340320 0.9219250
v 0.1358825 0.7210118 1.7976080
vn 0.0000000 0.3415427 0.9398662
vt 0.1340320 0.9346120
v -0.1441175 0.7210118 1.7976069
vn -0.0000005 0.3415441 0.9398658
vt 0.0942510 0.9346120
v 0.1358825 0.6353678 1.5590760
vn 1.0000000 0.0000003 0.0000001
vt 0.0757180 0.9356790
v 0.1358825 0.7210118 1.5784560
vn 1.0000000 0.0000003 0.0000001
vt 0.0879600 0.9386500
v 0.1358825 0.7210118 1.7976080
vn 1.0000000 0.0000002 0.0000002
vt 0.0879600 0.9700940
v 0.1358825 0.6353678 1.8287300
vn 1.0000000 0.0000002 0.0000002
vt 0.0757180 0.9743780
v 0.0405889 -0.2144992 1.7188801
vn 0.0000114 -1.0000000 -0.0000506
vt 0.2766082 1.1124460
v 0.0405889 -0.2144992 1.7188801
vn 0.0000114 -1.0000000 -0.0000506
vt 0.2766082 1.1124460
v 0.0405889 -0.2144992 1.7188801
vn 0.0000114 -1.0000000 -0.0000506
vt 0.2766082 1.1124460
v 0.0405889 -0.2144992 1.7188801
vn 0.0000114 -1.0000000 -0.0000506
vt 0.2766082 1.1124460
v 0.0405889 -0.2144992 1.7188801
vn 0.0000114 -1.0000000 -0.0000506
vt 0.2766082 1.1124460
v 0.0405888 0.7210118 1.7188801
vn 0.0006629 0.9999998 0.0000174
vt 0.1726220 0.9839780
v 0.0405888 0.7210118 1.7188801
vn 0.0006629 0.9999998 0.0000174
vt 0.1726220 0.9839780
v 0.0405888 0.7210118 1.7188801
vn 0.0006629 0.9999998 0.0000174
vt 0.1726220 0.9839780
v 0.0405888 0.7210118 1.7188801
vn 0.0006629 0.9999998 0.0000174
vt 0.1726220 0.9839780
v 0.0405888 0.7210118 1.7188801
vn 0.0006629 0.9999998 0.0000174
vt 0.1726220 0.9839780

g group_23_140627913298496
f 1/1/1 2/2/2 3/3/3 
f 3/3/3 4/4/4 1/1/1 
f 3/3/3 2/2/2 5/5/5 
f 3/3/3 5/5/5 6/6/6 
f 6/6/6 7/7/7 3/3/3 
f 3/3/3 7/7/7 8/8/8 
f 8/8/8 9/9/9 3/3/3 
f 3/3/3 9/9/9 4/4/4 
f 10/10/10 11/11/11 12/12/12 
f 12/12/12 13/13/13 10/10/10 
f 13/13/13 12/12/12 14/14/14 
f 14/14/14 15/15/15 13/13/13 
f 15/15/15 14/14/14 16/16/16 
f 16/16/16 17/17/17 15/15/15 
f 17/17/17 16/16/16 18/18/18 
f 18/18/18 19/19/19 17/17/17 
f 20/20/20 21/21/21 22/22/22 
f 22/22/22 23/23/23 20/20/20 
f 23/23/23 22/22/22 24/24/24 
f 24/24/24 25/25/25 23/23/23 
f 25/25/25 24/24/24 26/26/26 
f 26/26/26 27/27/27 25/25/25 
f 27/27/27 26/26/26 11/11/11 
f 11/11/11 10/10/10 27/27/27 
f 12/12/12 11/11/11 28/28/28 
f 28/28/28 29/29/29 12/12/12 
f 14/14/14 12/12/12 29/29/29 
f 29/29/29 30/30/30 14/14/14 
f 16/16/16 14/14/14 30/30/30 
f 30/30/30 31/31/31 16/16/16 
f 18/18/18 16/16/16 31/31/31 
f 31/31/31 32/32/32 18/18/18 
f 22/22/22 21/21/21 33/33/33 
f 33/33/33 34/34/34 22/22/22 
f 24/24/24 22/22/22 34/34/34 
f 34/34/34 35/35/35 24/24/24 
f 26/26/26 24/24/24 35/35/35 
f 35/35/35 36/36/36 26/26/26 
f 11/11/11 26/26/26 36/36/36 
f 36/36/36 28/28/28 11/11/11 
f 37/37/37 38/38/38 39/39/39 
f 39/39/39 40/40/40 37/37/37 
f 38/38/38 41/41/41 42/42/42 
f 42/42/42 39/39/39 38/38/38 
f 41/41/41 43/43/43 44/44/44 
f 44/44/44 42/42/42 41/41/41 
f 45/45/45 46/46/46 47/47/47 
f 47/47/47 48/48/48 45/45/45 
f 46/46/46 49/49/49 50/50/50 
f 50/50/50 47/47/47 46/46/46 
f 49/49/49 37/37/37 40/40/40 
f 40/40/40 50/50/50 49/49/49 
f 51/51/51 52/52/52 53/53/53 
f 53/53/53 54/54/54 51/51/51 
f 51/51/51 54/54/54 55/55/55 
f 55/55/55 56/56/56 51/51/51 
f 56/56/56 57/57/57 51/51/51 
f 58/58/58 59/59/59 44/44/44 
f 44/44/44 43/43/43 58/58/58 
f 60/60/60 61/61/61 62/62/62 
f 62/62/62 58/58/58 60/60/60 
f 61/61/61 63/63/63 64/64/64 
f 64/64/64 62/62/62 61/61/61 
f 65/65/65 66/66/66 67/67/67 
f 67/67/67 68/68/68 65/65/65 
f 66/66/66 69/69/69 70/70/70 
f 70/70/70 67/67/67 66/66/66 
f 69/69/69 45/45/45 70/70/70 
f 52/52/52 71/71/71 72/72/72 
f 72/72/72 53/53/53 52/52/52 
f 73/73/73 74/74/74 75/75/75 
f 75/75/75 76/76/76 73/73/73 
f 77/77/77 78/78/78 79/79/79 
f 79/79/79 80/80/80 77/77/77 
f 78/78/78 81/81/81 79/79/79 
f 43/43/43 60/60/60 58/58/58 
f 48/48/48 82/82/82 70/70/70 
f 70/70/70 45/45/45 48/48/48 
f 83/83/83 84/84/84 85/85/85 
f 85/85/85 86/86/86 83/83/83 
f 84/84/84 87/87/87 88/88/88 
f 88/88/88 85/85/85 84/84/84 
f 87/87/87 89/89/89 90/90/90 
f 90/90/90 88/88/88 87/87/87 
f 89/89/89 91/91/91 92/92/92 
f 92/92/92 90/90/90 89/89/89 
f 93/93/93 94/94/94 95/95/95 
f 95/95/95 94/94/94 96/96/96 
f 93/93/93 97/97/97 98/98/98 
f 98/98/98 94/94/94 93/93/93 
f 97/97/97 99/99/99 100/100/100 
f 100/100/100 98/98/98 97/97/97 
f 99/99/99 83/83/83 86/86/86 
f 86/86/86 100/100/100 99/99/99 
f 101/101/101 102/102/102 103/103/103 
f 103/103/103 104/104/104 101/101/101 
f 105/105/105 102/102/102 101/101/101 
f 101/101/101 106/106/106 105/105/105 
f 101/101/101 104/104/104 107/107/107 
f 107/107/107 108/108/108 101/101/101 
f 109/109/109 110/110/110 111/111/111 
f 109/109/109 112/112/112 110/110/110 
f 109/109/109 113/113/113 112/112/112 
f 165/165/165 114/114/114 113/113/113 
f 166/166/166 115/115/115 116/116/116 
f 167/167/167 117/117/117 115/115/115 
f 168/168/168 118/118/118 117/117/117 
f 169/169/169 111/111/111 118/118/118 
f 119/119/119 120/120/120 121/121/121 
f 121/121/121 122/122/122 119/119/119 
f 120/120/120 123/123/123 124/124/124 
f 124/124/124 121/121/121 120/120/120 
f 123/123/123 125/125/125 126/126/126 
f 126/126/126 124/124/124 123/123/123 
f 125/125/125 127/127/127 128/128/128 
f 128/128/128 126/126/126 125/125/125 
f 127/127/127 129/129/129 130/130/130 
f 130/130/130 128/128/128 127/127/127 
f 129/129/129 131/131/131 132/132/132 
f 132/132/132 130/130/130 129/129/129 
f 131/131/131 133/133/133 134/134/134 
f 134/134/134 132/132/132 131/131/131 
f 133/133/133 119/119/119 122/122/122 
f 122/122/122 134/134/134 133/133/133 
f 135/135/135 136/136/136 137/137/137 
f 136/136/136 138/138/138 137/137/137 
f 138/138/138 139/139/139 137/137/137 
f 139/139/139 140/140/140 170/170/170 
f 140/140/140 141/141/141 171/171/171 
f 141/141/141 142/142/142 172/172/172 
f 142/142/142 143/143/143 173/173/173 
f 143/143/143 144/144/144 174/174/174 
f 145/145/145 146/146/146 147/147/147 
f 147/147/147 148/148/148 145/145/145 
f 149/149/149 150/150/150 151/151/151 
f 151/151/151 152/152/152 149/149/149 
f 153/153/153 154/154/154 155/155/155 
f 155/155/155 156/156/156 153/153/153 
f 157/157/157 158/158/158 159/159/159 
f 159/159/159 160/160/160 157/157/157 
f 161/161/161 162/162/162 163/163/163 
f 163/163/163 164/164/164 161/161/161 
