v -0.0285862 0.7630119 1.7592690
vn 0.8660256 0.0000004 0.4999996
vt 0.4282800 0.8833360
v -0.0588971 0.7630119 1.7767690
vn 0.0000001 0.0000001 1.0000000
vt 0.4231960 0.8833360
v -0.0588971 0.7210118 1.7767690
vn -0.0000002 0.0000000 1.0000000
vt 0.4231960 0.8772880
v -0.0285862 0.7210118 1.7592690
vn 0.8660257 0.0000004 0.4999994
vt 0.4282800 0.8772880
v -0.0285862 0.7630119 1.7242690
vn 0.8660249 0.0000004 -0.5000009
vt 0.4333770 0.8833360
v -0.0285862 0.7210118 1.7242690
vn 0.8660249 0.0000003 -0.5000009
vt 0.4333770 0.8772880
v -0.0588971 0.7630119 1.7067690
vn -0.0000002 -0.0000000 -1.0000000
vt 0.4384640 0.8833360
v -0.0588971 0.7210118 1.7067690
vn 0.0000001 0.0000001 -1.0000000
vt 0.4384640 0.8772880
v -0.0892080 0.7630119 1.7242690
vn -0.8660249 -0.0000001 -0.5000011
vt 0.4130120 0.8833360
v -0.0588971 0.7630119 1.7067690
vn -0.0000002 -0.0000000 -1.0000000
vt 0.4079310 0.8833360
v -0.0588971 0.7210118 1.7067690
vn 0.0000001 0.0000001 -1.0000000
vt 0.4079300 0.8772880
v -0.0892080 0.7210118 1.7242690
vn -0.8660251 0.0000000 -0.5000006
vt 0.4130120 0.8772870
v -0.0892080 0.7630118 1.7592690
vn -0.8660257 0.0000000 0.4999994
vt 0.4180990 0.8833360
v -0.0892080 0.7210118 1.7592690
vn -0.8660257 -0.0000001 0.4999995
vt 0.4180990 0.8772880
v -0.0892080 0.7630118 1.7592690
vn -0.0000029 1.0000000 0.0000017
vt 0.3621860 0.8840550
v -0.0588971 0.7630119 1.7767690
vn -0.0000007 1.0000000 0.0000004
vt 0.3621860 0.8789610
v -0.0892080 0.7630119 1.7242690
vn -0.0000007 1.0000000 0.0000004
vt 0.3666760 0.8865480
v -0.0285862 0.7630119 1.7592690
vn 0.0000000 1.0000000 0.0000000
vt 0.3666760 0.8763670
v -0.0285862 0.7630119 1.7242690
vn 0.0000000 1.0000000 0.0000000
vt 0.3710640 0.8788720
v -0.0588971 0.7630119 1.7067690
vn 0.0000000 1.0000000 0.0000000
vt 0.3710640 0.8839690
v 0.0312377 1.0110120 1.7212400
vn 0.7071077 0.0000000 0.7071059
vt 0.5262840 0.9487350
v -0.0041176 1.0110120 1.7358850
vn 0.3826853 -0.0000003 0.9238788
vt 0.5262840 0.9542430
v -0.0041175 0.7210118 1.7358850
vn 0.3826829 0.0000001 0.9238798
vt 0.4849730 0.9542440
v 0.0312378 0.7210118 1.7212400
vn 0.7071069 0.0000002 0.7071066
vt 0.4849730 0.9487350
v 0.0458824 1.0110120 1.6858850
vn 1.0000000 0.0000003 -0.0000005
vt 0.5262840 0.9432260
v 0.0458825 0.7210118 1.6858850
vn 1.0000000 0.0000003 -0.0000006
vt 0.4849730 0.9432260
v 0.0312377 1.0110120 1.6505300
vn 0.7071064 0.0000002 -0.7071072
vt 0.5262840 0.9377190
v 0.0312378 0.7210118 1.6505300
vn 0.7071064 0.0000002 -0.7071072
vt 0.4849730 0.9377190
v -0.0041176 1.0110120 1.6358850
vn 0.3826825 0.0000001 -0.9238799
vt 0.5262840 0.9322120
v -0.0041175 0.7210118 1.6358850
vn 0.3826825 0.0000001 -0.9238799
vt 0.4849730 0.9322120
v 0.0312377 1.0110120 1.6505300
vn 0.0000000 1.0000000 0.0000000
vt 0.3521890 0.9117280
v -0.0041176 1.0110120 1.6358850
vn 0.0000000 1.0000000 0.0000000
vt 0.3471460 0.9138330
v -0.0041176 1.0110120 1.7358850
vn 0.0000000 1.0000000 0.0000000
vt 0.3471460 0.8994430
v 0.0312377 1.0110120 1.7212400
vn 0.0000000 1.0000000 0.0000000
vt 0.3521890 0.9015480
v 0.0458824 1.0110120 1.6858850
vn 0.0000000 1.0000000 0.0000000
vt 0.3542690 0.9066450
v -0.0041175 0.7210118 1.6358850
vn -1.0000000 -0.0000003 0.0000000
vt 0.2994130 0.9140800
v -0.0041175 0.7210118 1.7358850
vn -1.0000000 -0.0000003 0.0000000
vt 0.2994130 0.8996900
v -0.0041176 1.0110120 1.7358850
vn -1.0000000 -0.0000003 0.0000000
vt 0.3407240 0.8996900
v -0.0041176 1.0110120 1.6358850
vn -1.0000000 -0.0000003 0.0000000
vt 0.3407240 0.9140800
v 0.1358825 0.7210118 1.5784560
vn -0.0000002 1.0000000 0.0000000
vt 0.1704740 0.8890690
v -0.1441175 0.7210118 1.5784560
vn -0.0000002 1.0000000 0.0000000
vt 0.2102560 0.8890690
v -0.1441175 0.7210118 1.7976069
vn -0.0000002 1.0000000 0.0000000
vt 0.2102560 0.9203520
v 0.1358825 0.7210118 1.7976080
vn -0.0000002 1.0000000 -0.0000000
vt 0.1704730 0.9203520
v 0.1358825 0.6353678 1.5590760
vn 0.0000001 0.1368575 -0.9905908
vt 0.2102560 0.9396170
v -0.1441175 0.6353679 1.5590760
vn 0.0000013 0.1368643 -0.9905898
vt 0.1704740 0.9396170
v -0.1441175 0.6828646 1.5656379
vn 0.0000004 0.2286846 -0.9735006
vt 0.1704740 0.9327110
v 0.1358825 0.6828646 1.5656379
vn 0.0000000 0.2286798 -0.9735017
vt 0.2102560 0.9327110
v -0.1441175 0.6353679 1.5590760
vn -1.0000000 -0.0000003 -0.0000001
vt 0.1512480 0.9245050
v -0.1441175 0.6353679 1.8287300
vn -1.0000000 -0.0000006 -0.0000001
vt 0.1512480 0.8858060
v -0.1441176 0.6828646 1.8207310
vn -1.0000000 -0.0000001 -0.0000001
vt 0.1579930 0.8867730
v -0.1441175 0.6828646 1.5656379
vn -1.0000000 -0.0000001 -0.0000001
vt 0.1579930 0.9233790
v -0.1441175 0.6353679 1.8287300
vn 0.0000000 0.1660743 0.9861133
vt 0.1706210 0.8692530
v 0.1358825 0.6353678 1.8287300
vn 0.0000001 0.1660740 0.9861133
vt 0.2104030 0.8692530
v 0.1358825 0.6828646 1.8207310
vn -0.0000002 0.3484283 0.9373354
vt 0.2104030 0.8761380
v -0.1441176 0.6828646 1.8207310
vn 0.0000000 0.3484298 0.9373349
vt 0.1706210 0.8761380
v 0.1358825 0.6353678 1.5590760
vn 1.0000000 0.0000012 0.0000001
vt 0.2285930 0.9244110
v 0.1358825 0.6828646 1.5656379
vn 1.0000000 0.0000004 0.0000001
vt 0.2218380 0.9232370
v 0.1358825 0.6828646 1.8207310
vn 1.0000000 0.0000003 0.0000001
vt 0.2218380 0.8866340
v 0.1358825 0.6353678 1.8287300
vn 1.0000000 0.0000007 0.0000002
vt 0.2285930 0.8857120
v -0.1441175 0.7210118 1.5784560
vn -0.0000005 0.3185112 -0.9479191
vt 0.1704740 0.9261740
v 0.1358825 0.7210118 1.5784560
vn -0.0000000 0.3185083 -0.9479201
vt 0.2102560 0.9261740
v -0.1441175 0.7210118 1.7976069
vn -1.0000000 0.0000007 -0.0000001
vt 0.1634890 0.8887790
v -0.1441175 0.7210118 1.5784560
vn -1.0000000 0.0000000 0.0000000
vt 0.1634890 0.9200610
v 0.1358825 0.7210118 1.7976080
vn -0.0000005 0.5183669 0.8551583
vt 0.2104030 0.8819380
v -0.1441175 0.7210118 1.7976069
vn -0.0000000 0.5183694 0.8551568
vt 0.1706210 0.8819380
v 0.1358825 0.7210118 1.5784560
vn 1.0000000 -0.0000008 0.0000001
vt 0.2165140 0.9197690
v 0.1358825 0.7210118 1.7976080
vn 1.0000000 -0.0000004 0.0000001
vt 0.2165140 0.8884870
v 0.0192650 1.3199199 1.6723850
vn 0.8660258 0.0000014 -0.4999994
vt 0.3769480 0.8965540
v -0.0041177 1.3199199 1.6588850
vn 0.0000002 0.0000023 -1.0000000
vt 0.3731100 0.8965540
v -0.0041177 1.3729200 1.6588850
vn -0.0000000 0.0000022 -1.0000000
vt 0.3731100 0.8889410
v 0.0192649 1.3729200 1.6723850
vn 0.8660255 0.0000014 -0.4999998
vt 0.3769480 0.8889400
v 0.0192650 1.3199199 1.6993850
vn 0.8660265 -0.0000009 0.4999981
vt 0.3807860 0.8965540
v 0.0192649 1.3729200 1.6993850
vn 0.8660259 -0.0000009 0.4999992
vt 0.3807860 0.8889410
v -0.0041177 1.3199199 1.7128850
vn 0.0000002 -0.0000023 1.0000000
vt 0.3846260 0.8965540
v -0.0041177 1.3729200 1.7128850
vn -0.0000000 -0.0000022 1.0000000
vt 0.3846260 0.8889400
v -0.0275004 1.3199199 1.6993850
vn -0.8660264 -0.0000014 0.4999983
vt 0.3884630 0.8965540
v -0.0275004 1.3729200 1.6993850
vn -0.8660259 -0.0000014 0.4999992
vt 0.3884630 0.8889410
v -0.0275004 1.3199199 1.6723850
vn -0.8660257 0.0000009 -0.4999996
vt 0.3923000 0.8965540
v -0.0275004 1.3729200 1.6723850
vn -0.8660255 0.0000009 -0.4999999
vt 0.3923000 0.8889410
v -0.0041177 1.3199199 1.6588850
vn 0.0000002 0.0000023 -1.0000000
vt 0.3961400 0.8965540
v -0.0041177 1.3729200 1.6588850
vn -0.0000000 0.0000022 -1.0000000
vt 0.3961400 0.8889410
v -0.0041177 1.3729200 1.6588850
vn 0.0000000 1.0000000 0.0000000
vt 0.3810400 0.8771880
v -0.0275004 1.3729200 1.6723850
vn 0.0000000 1.0000000 0.0000000
vt 0.3848800 0.8771880
v 0.0192649 1.3729200 1.6723850
vn 0.0000000 1.0000000 0.0000000
vt 0.3791200 0.8805390
v -0.0275004 1.3729200 1.6993850
vn 0.0000000 1.0000000 0.0000000
vt 0.3867980 0.8805390
v -0.0041177 1.3729200 1.7128850
vn 0.0000000 1.0000000 0.0000000
vt 0.3848800 0.8838990
v 0.0192649 1.3729200 1.6993850
vn 0.0000000 1.0000000 0.0000000
vt 0.3810400 0.8838990
v -0.0275004 1.3199199 1.6723850
vn 0.0000102 -1.0000000 0.0000000
vt 0.3810400 0.8771880
v -0.0041177 1.3199199 1.6588850
vn -0.0000013 -1.0000000 -0.0000066
vt 0.3848800 0.8771880
v -0.0275004 1.3199199 1.6993850
vn 0.0000013 -1.0000000 -0.0000022
vt 0.3791200 0.8805390
v 0.0192650 1.3199199 1.6723850
vn -0.0000025 -1.0000000 -0.0000044
vt 0.3867980 0.8805390
v 0.0192650 1.3199199 1.6993850
vn 0.0000000 -1.0000000 0.0000000
vt 0.3848800 0.8838990
v -0.0041177 1.3199199 1.7128850
vn 0.0000000 -1.0000000 0.0000000
vt 0.3810400 0.8838990
v 0.0119625 1.3781500 1.6951690
vn 0.8655621 -0.0328287 0.4997246
vt 0.2585100 0.8887150
v -0.0041177 1.3781500 1.7044530
vn 0.0000003 -0.0328294 0.9994610
vt 0.2585090 0.8859840
v -0.0041175 0.7210118 1.7044530
vn 0.0000000 -0.0000002 1.0000000
vt 0.3553450 0.8859840
v 0.0119628 0.7210118 1.6951690
vn 0.8660290 0.0000002 0.4999939
vt 0.3553800 0.8887070
v 0.0119625 1.3781500 1.6766011
vn 0.8655565 -0.0328288 -0.4997342
vt 0.2585090 0.8914420
v 0.0119628 0.7210118 1.6766011
vn 0.8660231 0.0000004 -0.5000041
vt 0.3554880 0.8914320
v -0.0041177 1.3781500 1.6673170
vn 0.0000006 -0.0328291 -0.9994610
vt 0.2585090 0.8941470
v -0.0041175 0.7210118 1.6673170
vn 0.0000022 0.0000003 -1.0000000
vt 0.3555520 0.8941520
v -0.0201980 1.3781500 1.6766011
vn -0.8655565 -0.0328300 -0.4997341
vt 0.2585090 0.8805240
v -0.0041177 1.3781500 1.6673170
vn 0.0000006 -0.0328291 -0.9994610
vt 0.2585090 0.8778210
v -0.0041175 0.7210118 1.6673170
vn 0.0000022 0.0000003 -1.0000000
vt 0.3555520 0.8778160
v -0.0201978 0.7210118 1.6766011
vn -0.8660222 -0.0000001 -0.5000056
vt 0.3554870 0.8805390
v -0.0201980 1.3781500 1.6951690
vn -0.8655623 -0.0328297 0.4997241
vt 0.2585090 0.8832550
v -0.0201978 0.7210118 1.6951690
vn -0.8660290 -0.0000004 0.4999939
vt 0.3553800 0.8832600
v -0.0041178 1.5410120 1.7150520
vn 0.0000000 -0.0649422 0.9978890
vt 0.2349480 0.8859840
v 0.0211415 1.5410120 1.7004679
vn 0.8641990 -0.0649421 0.4989415
vt 0.2349480 0.8887520
v 0.0211415 1.5410120 1.6713020
vn 0.8641980 -0.0649424 -0.4989432
vt 0.2349480 0.8915100
v -0.0041178 1.5410120 1.6567180
vn 0.0000036 -0.0649429 -0.9978890
vt 0.2349480 0.8942630
v -0.0041178 1.5410120 1.6567180
vn 0.0000036 -0.0649429 -0.9978890
vt 0.2349480 0.8777070
v -0.0293771 1.5410120 1.6713020
vn -0.8641962 -0.0649431 -0.4989462
vt 0.2349480 0.8804590
v -0.0293771 1.5410120 1.7004679
vn -0.8641992 -0.0649423 0.4989412
vt 0.2349480 0.8832150
v 0.0073138 1.5410120 1.6924850
vn 0.0000000 1.0000000 0.0000000
vt 0.3952810 0.8814350
v -0.0041178 1.5410120 1.6990850
vn 0.0000000 1.0000000 0.0000000
vt 0.3968960 0.8823890
v -0.0041178 1.5410120 1.7150520
vn 0.0000000 1.0000000 0.0000000
vt 0.3968960 0.8846770
v 0.0211415 1.5410120 1.7004679
vn 0.0000000 1.0000000 0.0000000
vt 0.3933060 0.8825840
v 0.0073138 1.5410120 1.6792850
vn 0.0000000 1.0000000 0.0000000
vt 0.3952810 0.8795390
v 0.0211415 1.5410120 1.6713020
vn 0.0000000 1.0000000 0.0000000
vt 0.3933060 0.8784000
v -0.0041178 1.5410120 1.6726850
vn 0.0000000 1.0000000 0.0000000
vt 0.3968960 0.8785940
v -0.0041178 1.5410120 1.6567180
vn 0.0000000 1.0000000 0.0000000
vt 0.3968960 0.8763070
v -0.0155493 1.5410120 1.6792850
vn 0.0000000 1.0000000 0.0000000
vt 0.3985210 0.8795390
v -0.0293771 1.5410120 1.6713020
vn 0.0000000 1.0000000 0.0000000
vt 0.4004850 0.8784000
v -0.0155493 1.5410120 1.6924850
vn 0.0000000 1.0000000 0.0000000
vt 0.3985210 0.8814350
v -0.0293771 1.5410120 1.7004679
vn 0.0000000 1.0000000 0.0000000
vt 0.4004850 0.8825840
v -0.0041178 1.5410120 1.6990850
vn 0.0000002 0.0274333 -0.9996237
vt 0.2342910 0.9107830
v 0.0073138 1.5410120 1.6924850
vn -0.8656999 0.0274329 -0.4998111
vt 0.2341820 0.9091770
v -0.0041176 1.0600240 1.6858850
vn -0.0005544 0.9999999 0.0000538
vt 0.2920270 0.9059670
v 0.0073138 1.5410120 1.6792850
vn -0.8656977 0.0274331 0.4998148
vt 0.2341180 0.9075720
v -0.0041178 1.5410120 1.6726850
vn 0.0000002 0.0274333 0.9996237
vt 0.2340950 0.9059670
v -0.0155493 1.5410120 1.6792850
vn 0.8656980 0.0274336 0.4998144
vt 0.2341180 0.9043620
v -0.0155493 1.5410120 1.6924850
vn 0.8656998 0.0274334 -0.4998112
vt 0.2341820 0.9027570
v -0.0041178 1.5410120 1.6990850
vn 0.0000002 0.0274333 -0.9996237
vt 0.2342910 0.9011640
v -0.0041176 1.0600240 1.6858850
vn -0.0005544 0.9999999 0.0000538
vt 0.2920270 0.9059670
v -0.0041176 1.0600240 1.6858850
vn -0.0005544 0.9999999 0.0000538
vt 0.2920270 0.9059670
v -0.0041176 1.0600240 1.6858850
vn -0.0005544 0.9999999 0.0000538
vt 0.2920270 0.9059670
v -0.0041176 1.0600240 1.6858850
vn -0.0005544 0.9999999 0.0000538
vt 0.2920270 0.9059670

g group_21_140627908541968
f 1/1/1 2/2/2 3/3/3 
f 3/3/3 4/4/4 1/1/1 
f 5/5/5 1/1/1 4/4/4 
f 4/4/4 6/6/6 5/5/5 
f 7/7/7 5/5/5 6/6/6 
f 6/6/6 8/8/8 7/7/7 
f 9/9/9 10/10/10 11/11/11 
f 11/11/11 12/12/12 9/9/9 
f 13/13/13 9/9/9 12/12/12 
f 12/12/12 14/14/14 13/13/13 
f 2/2/2 13/13/13 14/14/14 
f 14/14/14 3/3/3 2/2/2 
f 15/15/15 16/16/16 17/17/17 
f 17/17/17 16/16/16 18/18/18 
f 18/18/18 19/19/19 17/17/17 
f 19/19/19 20/20/20 17/17/17 
f 21/21/21 22/22/22 23/23/23 
f 23/23/23 24/24/24 21/21/21 
f 25/25/25 21/21/21 24/24/24 
f 24/24/24 26/26/26 25/25/25 
f 27/27/27 25/25/25 26/26/26 
f 26/26/26 28/28/28 27/27/27 
f 29/29/29 27/27/27 28/28/28 
f 28/28/28 30/30/30 29/29/29 
f 31/31/31 32/32/32 33/33/33 
f 33/33/33 34/34/34 31/31/31 
f 34/34/34 35/35/35 31/31/31 
f 36/36/36 37/37/37 38/38/38 
f 38/38/38 39/39/39 36/36/36 
f 40/40/40 41/41/41 42/42/42 
f 42/42/42 43/43/43 40/40/40 
f 44/44/44 45/45/45 46/46/46 
f 46/46/46 47/47/47 44/44/44 
f 48/48/48 49/49/49 50/50/50 
f 50/50/50 51/51/51 48/48/48 
f 52/52/52 53/53/53 54/54/54 
f 54/54/54 55/55/55 52/52/52 
f 56/56/56 57/57/57 58/58/58 
f 58/58/58 59/59/59 56/56/56 
f 46/46/46 60/60/60 61/61/61 
f 61/61/61 47/47/47 46/46/46 
f 62/62/62 63/63/63 51/51/51 
f 51/51/51 50/50/50 62/62/62 
f 54/54/54 64/64/64 65/65/65 
f 65/65/65 55/55/55 54/54/54 
f 57/57/57 66/66/66 67/67/67 
f 67/67/67 58/58/58 57/57/57 
f 68/68/68 69/69/69 70/70/70 
f 70/70/70 71/71/71 68/68/68 
f 72/72/72 68/68/68 71/71/71 
f 71/71/71 73/73/73 72/72/72 
f 74/74/74 72/72/72 73/73/73 
f 73/73/73 75/75/75 74/74/74 
f 76/76/76 74/74/74 75/75/75 
f 75/75/75 77/77/77 76/76/76 
f 78/78/78 76/76/76 77/77/77 
f 77/77/77 79/79/79 78/78/78 
f 80/80/80 78/78/78 79/79/79 
f 79/79/79 81/81/81 80/80/80 
f 82/82/82 83/83/83 84/84/84 
f 84/84/84 83/83/83 85/85/85 
f 85/85/85 86/86/86 84/84/84 
f 86/86/86 87/87/87 84/84/84 
f 88/88/88 89/89/89 90/90/90 
f 90/90/90 89/89/89 91/91/91 
f 91/91/91 92/92/92 90/90/90 
f 92/92/92 93/93/93 90/90/90 
f 94/94/94 95/95/95 96/96/96 
f 96/96/96 97/97/97 94/94/94 
f 98/98/98 94/94/94 97/97/97 
f 97/97/97 99/99/99 98/98/98 
f 100/100/100 98/98/98 99/99/99 
f 99/99/99 101/101/101 100/100/100 
f 102/102/102 103/103/103 104/104/104 
f 104/104/104 105/105/105 102/102/102 
f 106/106/106 102/102/102 105/105/105 
f 105/105/105 107/107/107 106/106/106 
f 95/95/95 106/106/106 107/107/107 
f 107/107/107 96/96/96 95/95/95 
f 108/108/108 95/95/95 94/94/94 
f 94/94/94 109/109/109 108/108/108 
f 109/109/109 94/94/94 98/98/98 
f 98/98/98 110/110/110 109/109/109 
f 110/110/110 98/98/98 100/100/100 
f 100/100/100 111/111/111 110/110/110 
f 112/112/112 103/103/103 102/102/102 
f 102/102/102 113/113/113 112/112/112 
f 113/113/113 102/102/102 106/106/106 
f 106/106/106 114/114/114 113/113/113 
f 114/114/114 106/106/106 95/95/95 
f 95/95/95 108/108/108 114/114/114 
f 115/115/115 116/116/116 117/117/117 
f 117/117/117 118/118/118 115/115/115 
f 119/119/119 115/115/115 118/118/118 
f 118/118/118 120/120/120 119/119/119 
f 121/121/121 119/119/119 120/120/120 
f 120/120/120 122/122/122 121/121/121 
f 123/123/123 121/121/121 122/122/122 
f 122/122/122 124/124/124 123/123/123 
f 125/125/125 123/123/123 124/124/124 
f 124/124/124 126/126/126 125/125/125 
f 116/116/116 125/125/125 126/126/126 
f 126/126/126 117/117/117 116/116/116 
f 127/127/127 128/128/128 129/129/129 
f 128/128/128 130/130/130 129/129/129 
f 130/130/130 131/131/131 135/135/135 
f 131/131/131 132/132/132 136/136/136 
f 132/132/132 133/133/133 137/137/137 
f 133/133/133 134/134/134 138/138/138 
