v 1.4406030 3.0660131 0.4567795
vn 0.0000000 0.5000005 -0.8660251
vt 0.4764303 0.5937610
v 1.1382880 3.0660131 0.4567795
vn 0.0000000 0.5000005 -0.8660251
vt 0.5102825 0.5937610
v 1.4406030 3.1679511 0.5587175
vn 0.0000000 0.8660253 -0.5000002
vt 0.4764303 0.5814487
v 1.1382880 3.1679511 0.5587175
vn 0.0000000 0.8660253 -0.5000002
vt 0.5102825 0.5814487
v 1.1382880 3.2052629 0.6979675
vn 0.0000000 1.0000000 0.0000001
vt 0.5102825 0.5691317
v 1.4406030 3.2052629 0.6979675
vn 0.0000000 1.0000000 0.0000001
vt 0.4764303 0.5691317
v 1.4406030 3.1679511 0.8372175
vn 0.0000000 0.8660253 0.5000002
vt 0.4764303 0.5937610
v 1.1382880 3.1679511 0.8372175
vn 0.0000000 0.8660253 0.5000001
vt 0.5102825 0.5937610
v 1.4406030 3.0660131 0.9391556
vn 0.0000000 0.5006050 0.8656759
vt 0.4764303 0.5814487
v 1.1382880 3.0660131 0.9391556
vn 0.0000000 0.5006049 0.8656759
vt 0.5102825 0.5814487
v 1.4406030 2.9267640 0.9766760
vn 0.0000000 0.0000004 1.0000000
vt 0.4764303 0.5691317
v 1.1382880 2.9267640 0.9766760
vn 0.0000000 0.0000004 1.0000000
vt 0.5102825 0.5691317
v 1.4406030 2.9267640 0.9766760
vn 0.0000000 0.0000004 1.0000000
vt 0.4764303 0.6060734
v 1.1382880 2.9267640 0.9766760
vn 0.0000000 0.0000004 1.0000000
vt 0.5102825 0.6060734
v 1.4406030 2.7875130 0.9391556
vn 0.0000000 -0.5006045 0.8656762
vt 0.4764303 0.5937610
v 1.1382880 2.7875130 0.9391556
vn 0.0000000 -0.5006045 0.8656762
vt 0.5102825 0.5937610
v 1.4406030 2.6855750 0.8372175
vn 0.0000000 -0.8660257 0.4999995
vt 0.4764303 0.5814487
v 1.1382880 2.6855750 0.8372175
vn 0.0000000 -0.8660257 0.4999996
vt 0.5102825 0.5814487
v 1.1382880 2.6482630 0.6979675
vn 0.0000000 -1.0000000 -0.0000006
vt 0.5102825 0.5691317
v 1.4406030 2.6482630 0.6979675
vn 0.0000000 -1.0000000 -0.0000007
vt 0.4764303 0.5691317
v 1.4406030 2.6855750 0.5587174
vn 0.0000000 -0.8660253 -0.5000002
vt 0.4764303 0.5937610
v 1.1382880 2.6855750 0.5587174
vn 0.0000000 -0.8660253 -0.5000002
vt 0.5102825 0.5937610
v 1.4406030 2.7875130 0.4567794
vn 0.0000000 -0.4999999 -0.8660255
vt 0.4764303 0.5814487
v 1.1382880 2.7875130 0.4567794
vn 0.0000000 -0.4999999 -0.8660254
vt 0.5102825 0.5814487
v 1.4406030 2.9267640 0.4194675
vn 0.0000000 0.0000006 -1.0000000
vt 0.4764303 0.5691317
v 1.1382880 2.9267640 0.4194675
vn 0.0000000 0.0000006 -1.0000000
vt 0.5102825 0.5691317
v 1.4406030 2.9267640 0.4194675
vn 0.0000000 0.0000006 -1.0000000
vt 0.4764303 0.6060734
v 1.1382880 2.9267640 0.4194675
vn 0.0000000 0.0000006 -1.0000000
vt 0.5102825 0.6060734
v 1.4406030 2.7875130 0.4567794
vn 1.0000000 0.0000000 0.0000000
vt 0.6798031 0.6256561
v 1.4406030 2.9267640 0.4194675
vn 1.0000000 0.0000000 0.0000000
vt 0.6839239 0.6102781
v 1.4406030 2.6855750 0.5587174
vn 1.0000000 0.0000000 0.0000000
vt 0.6685429 0.6369172
v 1.4406030 2.6482630 0.6979675
vn 1.0000000 0.0000000 0.0000000
vt 0.6531618 0.6410384
v 1.4406030 2.6855750 0.8372175
vn 1.0000000 0.0000000 0.0000000
vt 0.6377808 0.6369169
v 1.4406030 2.7875130 0.9391556
vn 1.0000000 0.0000000 0.0000000
vt 0.6265213 0.6256561
v 1.4406030 2.9267640 0.9766760
vn 1.0000000 0.0000000 0.0000000
vt 0.6223767 0.6102781
v 1.4406030 3.0660131 0.9391556
vn 1.0000000 0.0000000 0.0000000
vt 0.6265213 0.5948970
v 1.4406030 3.1679511 0.8372175
vn 1.0000000 0.0000000 0.0000000
vt 0.6377804 0.5836358
v 1.4406030 3.2052629 0.6979675
vn 1.0000000 0.0000000 0.0000000
vt 0.6531618 0.5795143
v 1.4406030 3.1679511 0.5587175
vn 1.0000000 0.0000000 0.0000000
vt 0.6685432 0.5836361
v 1.4406030 3.0660131 0.4567795
vn 1.0000000 0.0000000 0.0000000
vt 0.6798028 0.5948969
v 1.1382880 2.9267640 0.4194675
vn -1.0000000 0.0000000 0.0000000
vt 0.4688130 0.9684210
v 1.1382880 2.7875130 0.4567794
vn -1.0000000 0.0000000 0.0000000
vt 0.4647103 0.9531116
v 1.1382880 3.0660131 0.4567795
vn -1.0000000 0.0000000 0.0000000
vt 0.4647104 0.9837336
v 1.1382880 3.1679511 0.5587175
vn -1.0000000 0.0000000 0.0000000
vt 0.4535008 0.9949444
v 1.1382880 3.2052629 0.6979675
vn -1.0000000 0.0000000 0.0000000
vt 0.4381884 0.9990472
v 1.1382880 3.1679511 0.8372175
vn -1.0000000 0.0000000 0.0000000
vt 0.4228760 0.9949440
v 1.1382880 3.0660131 0.9391556
vn -1.0000000 0.0000000 0.0000000
vt 0.4116668 0.9837335
v 1.1382880 2.9267640 0.9766760
vn -1.0000000 0.0000000 0.0000000
vt 0.4075409 0.9684210
v 1.1382880 2.7875130 0.9391556
vn -1.0000000 0.0000000 0.0000000
vt 0.4116669 0.9531115
v 1.1382880 2.6855750 0.8372175
vn -1.0000000 0.0000000 0.0000000
vt 0.4228758 0.9419011
v 1.1382880 2.6482630 0.6979675
vn -1.0000000 0.0000000 0.0000000
vt 0.4381885 0.9377979
v 1.1382880 3.2052629 0.6979675
vn 0.0000000 1.0000000 0.0000001
vt 0.5102825 0.6060734
v 1.1382880 2.6482630 0.6979675
vn 0.0000000 -1.0000000 -0.0000006
vt 0.5102825 0.6060734
v 1.1382880 2.6855750 0.5587174
vn -1.0000000 0.0000000 0.0000000
vt 0.4535010 0.9419013
v 1.4406030 3.2052629 0.6979675
vn 0.0000000 1.0000000 0.0000001
vt 0.4764303 0.6060734
v 1.4406030 2.6482630 0.6979675
vn 0.0000000 -1.0000000 -0.0000007
vt 0.4764303 0.6060734

g group_68_140627852435216
f 1/1/1 2/2/2 3/3/3 
f 2/2/2 4/4/4 3/3/3 
f 4/4/4 5/5/5 6/6/6 
f 7/7/7 8/8/8 9/9/9 
f 8/8/8 10/10/10 9/9/9 
f 9/9/9 10/10/10 11/11/11 
f 10/10/10 12/12/12 11/11/11 
f 13/13/13 14/14/14 15/15/15 
f 14/14/14 16/16/16 15/15/15 
f 15/15/15 16/16/16 17/17/17 
f 16/16/16 18/18/18 17/17/17 
f 18/18/18 19/19/19 20/20/20 
f 21/21/21 22/22/22 23/23/23 
f 22/22/22 24/24/24 23/23/23 
f 23/23/23 24/24/24 25/25/25 
f 24/24/24 26/26/26 25/25/25 
f 27/27/27 28/28/28 1/1/1 
f 28/28/28 2/2/2 1/1/1 
f 29/29/29 30/30/30 31/31/31 
f 31/31/31 30/30/30 32/32/32 
f 33/33/33 30/30/30 34/34/34 
f 34/34/34 30/30/30 35/35/35 
f 35/35/35 30/30/30 36/36/36 
f 36/36/36 30/30/30 37/37/37 
f 37/37/37 30/30/30 38/38/38 
f 39/39/39 30/30/30 40/40/40 
f 41/41/41 42/42/42 43/43/43 
f 43/43/43 42/42/42 44/44/44 
f 44/44/44 42/42/42 45/45/45 
f 46/46/46 42/42/42 47/47/47 
f 47/47/47 42/42/42 48/48/48 
f 48/48/48 42/42/42 49/49/49 
f 49/49/49 42/42/42 50/50/50 
f 50/50/50 42/42/42 51/51/51 
f 52/52/52 8/8/8 7/7/7 
f 53/53/53 22/22/22 21/21/21 
f 32/32/32 30/30/30 33/33/33 
f 38/38/38 30/30/30 39/39/39 
f 51/51/51 42/42/42 54/54/54 
f 45/45/45 42/42/42 46/46/46 
f 6/6/6 3/3/3 4/4/4 
f 20/20/20 17/17/17 18/18/18 
f 7/7/7 55/55/55 52/52/52 
f 21/21/21 56/56/56 53/53/53 
