v -1.4406030 3.0660131 0.4567797
vn 0.0000000 0.5000005 -0.8660251
vt 0.4764303 0.5937610
v -1.4406030 3.1679511 0.5587178
vn 0.0000000 0.8660254 -0.5000001
vt 0.4764303 0.5814487
v -1.1382880 3.0660131 0.4567797
vn 0.0000000 0.5000005 -0.8660251
vt 0.5102825 0.5937610
v -1.1382880 3.1679511 0.5587178
vn 0.0000000 0.8660253 -0.5000002
vt 0.5102825 0.5814487
v -1.4406030 3.2052629 0.6979678
vn 0.0000000 1.0000000 0.0000001
vt 0.4764303 0.5691317
v -1.4406030 3.1679511 0.8372177
vn 0.0000000 0.8660253 0.5000003
vt 0.4764303 0.5937610
v -1.4406030 3.0660131 0.9391558
vn 0.0000000 0.5006049 0.8656759
vt 0.4764303 0.5814487
v -1.1382880 3.1679511 0.8372177
vn 0.0000000 0.8660253 0.5000002
vt 0.5102825 0.5937610
v -1.1382880 3.0660131 0.9391558
vn 0.0000000 0.5006048 0.8656759
vt 0.5102825 0.5814487
v -1.4406030 2.9267640 0.9766762
vn 0.0000000 0.0000004 1.0000000
vt 0.4764303 0.5691317
v -1.1382880 2.9267640 0.9766762
vn 0.0000000 0.0000004 1.0000000
vt 0.5102825 0.5691317
v -1.4406030 2.9267640 0.9766762
vn 0.0000000 0.0000004 1.0000000
vt 0.4764303 0.6060734
v -1.4406030 2.7875130 0.9391558
vn 0.0000000 -0.5006045 0.8656762
vt 0.4764303 0.5937610
v -1.1382880 2.9267640 0.9766762
vn 0.0000000 0.0000004 1.0000000
vt 0.5102825 0.6060734
v -1.1382880 2.7875130 0.9391558
vn 0.0000000 -0.5006045 0.8656762
vt 0.5102825 0.5937610
v -1.4406030 2.6855750 0.8372177
vn 0.0000000 -0.8660257 0.4999995
vt 0.4764303 0.5814487
v -1.1382880 2.6855750 0.8372177
vn 0.0000000 -0.8660257 0.4999995
vt 0.5102825 0.5814487
v -1.4406030 2.6482630 0.6979678
vn 0.0000000 -1.0000000 -0.0000007
vt 0.4764303 0.5691317
v -1.4406030 2.6855750 0.5587176
vn 0.0000000 -0.8660253 -0.5000002
vt 0.4764303 0.5937610
v -1.4406030 2.7875130 0.4567796
vn 0.0000000 -0.4999998 -0.8660256
vt 0.4764303 0.5814487
v -1.1382880 2.6855750 0.5587176
vn 0.0000000 -0.8660253 -0.5000002
vt 0.5102825 0.5937610
v -1.1382880 2.7875130 0.4567796
vn 0.0000000 -0.4999998 -0.8660256
vt 0.5102825 0.5814487
v -1.4406030 2.9267640 0.4194677
vn 0.0000000 0.0000007 -1.0000000
vt 0.4764303 0.5691317
v -1.1382880 2.9267640 0.4194677
vn 0.0000000 0.0000007 -1.0000000
vt 0.5102825 0.5691317
v -1.4406030 2.9267640 0.4194677
vn 0.0000000 0.0000007 -1.0000000
vt 0.4764303 0.6060734
v -1.1382880 2.9267640 0.4194677
vn 0.0000000 0.0000007 -1.0000000
vt 0.5102825 0.6060734
v -1.4406030 2.7875130 0.4567796
vn -1.0000000 0.0000000 0.0000000
vt 0.6798031 0.6256561
v -1.4406030 2.6855750 0.5587176
vn -1.0000000 0.0000000 0.0000000
vt 0.6685429 0.6369172
v -1.4406030 2.9267640 0.4194677
vn -1.0000000 0.0000000 0.0000000
vt 0.6839239 0.6102781
v -1.4406030 2.6482630 0.6979678
vn -1.0000000 0.0000000 0.0000000
vt 0.6531618 0.6410384
v -1.4406030 2.6855750 0.8372177
vn -1.0000000 0.0000000 0.0000000
vt 0.6377808 0.6369169
v -1.4406030 2.7875130 0.9391558
vn -1.0000000 0.0000000 0.0000000
vt 0.6265213 0.6256561
v -1.4406030 2.9267640 0.9766762
vn -1.0000000 0.0000000 0.0000000
vt 0.6223767 0.6102781
v -1.4406030 3.0660131 0.9391558
vn -1.0000000 0.0000000 0.0000000
vt 0.6265213 0.5948970
v -1.4406030 3.1679511 0.8372177
vn -1.0000000 0.0000000 0.0000000
vt 0.6377804 0.5836358
v -1.4406030 3.2052629 0.6979678
vn -1.0000000 0.0000000 0.0000000
vt 0.6531618 0.5795143
v -1.4406030 3.1679511 0.5587178
vn -1.0000000 0.0000000 0.0000000
vt 0.6685432 0.5836361
v -1.4406030 3.0660131 0.4567797
vn -1.0000000 0.0000000 0.0000000
vt 0.6798028 0.5948969
v -1.1382880 2.9267640 0.4194677
vn 1.0000000 0.0000000 0.0000000
vt 0.4688130 0.9684210
v -1.1382880 3.0660131 0.4567797
vn 1.0000000 0.0000000 0.0000000
vt 0.4647104 0.9837336
v -1.1382880 2.7875130 0.4567796
vn 1.0000000 0.0000000 0.0000000
vt 0.4647103 0.9531116
v -1.1382880 3.1679511 0.5587178
vn 1.0000000 0.0000000 0.0000000
vt 0.4535008 0.9949444
v -1.1382880 3.2052629 0.6979678
vn 1.0000000 0.0000000 0.0000000
vt 0.4381884 0.9990472
v -1.1382880 3.1679511 0.8372177
vn 1.0000000 0.0000000 0.0000000
vt 0.4228760 0.9949440
v -1.1382880 3.0660131 0.9391558
vn 1.0000000 0.0000000 0.0000000
vt 0.4116668 0.9837335
v -1.1382880 2.9267640 0.9766762
vn 1.0000000 0.0000000 0.0000000
vt 0.4075409 0.9684210
v -1.1382880 2.7875130 0.9391558
vn 1.0000000 0.0000000 0.0000000
vt 0.4116669 0.9531115
v -1.1382880 2.6855750 0.8372177
vn 1.0000000 0.0000000 0.0000000
vt 0.4228758 0.9419011
v -1.1382880 2.6482630 0.6979678
vn 1.0000000 0.0000000 0.0000000
vt 0.4381885 0.9377979
v -1.4406030 3.2052629 0.6979678
vn 0.0000000 1.0000000 0.0000001
vt 0.4764303 0.6060734
v -1.1382880 3.2052629 0.6979678
vn 0.0000000 1.0000000 0.0000000
vt 0.5102825 0.6060734
v -1.4406030 2.6482630 0.6979678
vn 0.0000000 -1.0000000 -0.0000007
vt 0.4764303 0.6060734
v -1.1382880 2.6482630 0.6979678
vn 0.0000000 -1.0000000 -0.0000006
vt 0.5102825 0.6060734
v -1.1382880 2.6855750 0.5587176
vn 1.0000000 0.0000000 0.0000000
vt 0.4535010 0.9419013
v -1.1382880 3.2052629 0.6979678
vn 0.0000000 1.0000000 0.0000000
vt 0.5102825 0.5691317
v -1.1382880 2.6482630 0.6979678
vn 0.0000000 -1.0000000 -0.0000006
vt 0.5102825 0.5691317

g group_14_140627850271712
f 1/1/1 2/2/2 3/3/3 
f 3/3/3 2/2/2 4/4/4 
f 2/2/2 5/5/5 4/4/4 
f 6/6/6 7/7/7 8/8/8 
f 8/8/8 7/7/7 9/9/9 
f 7/7/7 10/10/10 9/9/9 
f 9/9/9 10/10/10 11/11/11 
f 12/12/12 13/13/13 14/14/14 
f 14/14/14 13/13/13 15/15/15 
f 13/13/13 16/16/16 15/15/15 
f 15/15/15 16/16/16 17/17/17 
f 16/16/16 18/18/18 17/17/17 
f 19/19/19 20/20/20 21/21/21 
f 21/21/21 20/20/20 22/22/22 
f 20/20/20 23/23/23 22/22/22 
f 22/22/22 23/23/23 24/24/24 
f 25/25/25 1/1/1 26/26/26 
f 26/26/26 1/1/1 3/3/3 
f 27/27/27 28/28/28 29/29/29 
f 28/28/28 30/30/30 29/29/29 
f 31/31/31 32/32/32 29/29/29 
f 32/32/32 33/33/33 29/29/29 
f 33/33/33 34/34/34 29/29/29 
f 34/34/34 35/35/35 29/29/29 
f 35/35/35 36/36/36 29/29/29 
f 37/37/37 38/38/38 29/29/29 
f 39/39/39 40/40/40 41/41/41 
f 40/40/40 42/42/42 41/41/41 
f 42/42/42 43/43/43 41/41/41 
f 44/44/44 45/45/45 41/41/41 
f 45/45/45 46/46/46 41/41/41 
f 46/46/46 47/47/47 41/41/41 
f 47/47/47 48/48/48 41/41/41 
f 48/48/48 49/49/49 41/41/41 
f 50/50/50 6/6/6 51/51/51 
f 52/52/52 19/19/19 53/53/53 
f 30/30/30 31/31/31 29/29/29 
f 36/36/36 37/37/37 29/29/29 
f 49/49/49 54/54/54 41/41/41 
f 43/43/43 44/44/44 41/41/41 
f 5/5/5 55/55/55 4/4/4 
f 18/18/18 56/56/56 17/17/17 
f 6/6/6 8/8/8 51/51/51 
f 19/19/19 21/21/21 53/53/53 
