v 1.4342880 1.8202310 0.6337801
vn 0.0000000 0.3864262 -0.9223204
vt 0.4742949 0.6058308
v 1.1408770 1.8202310 0.6337801
vn 0.0000000 0.3864261 -0.9223204
vt 0.5121465 0.6058308
v 1.4342880 1.9294690 0.7439064
vn 0.0000000 0.9254189 -0.3789458
vt 0.4742949 0.6012975
v 1.1408770 1.9294690 0.7439064
vn 0.0000000 0.9254189 -0.3789459
vt 0.5121465 0.6012975
v 1.4342880 1.9288430 0.8990272
vn 0.0000000 0.9223350 0.3863911
vt 0.4742949 0.5967641
v 1.1408770 1.9288430 0.8990272
vn 0.0000000 0.9223351 0.3863910
vt 0.5121465 0.5967641
v 1.4342880 1.8187200 1.0082721
vn 0.0000000 0.3789469 0.9254184
vt 0.4742949 0.5922307
v 1.1408770 1.8187200 1.0082721
vn 0.0000000 0.3789469 0.9254184
vt 0.5121465 0.5922307
v 1.4342880 1.6636000 1.0076391
vn 0.0000000 -0.3864298 0.9223188
vt 0.4742949 0.5876973
v 1.1408770 1.6636000 1.0076391
vn 0.0000000 -0.3864298 0.9223188
vt 0.5121465 0.5876973
v 1.4342880 1.5543621 0.8975165
vn 0.0000000 -0.9254158 0.3789535
vt 0.4742949 0.5831640
v 1.1408770 1.5543621 0.8975165
vn 0.0000000 -0.9254158 0.3789535
vt 0.5121465 0.5831640
v 1.4342880 1.5549880 0.7423958
vn 0.0000000 -0.9223351 -0.3863909
vt 0.4742949 0.5786306
v 1.1408770 1.5549880 0.7423958
vn 0.0000000 -0.9223351 -0.3863909
vt 0.5121465 0.5786306
v 1.4342880 1.6651100 0.6331506
vn 0.0000000 -0.3789584 -0.9254137
vt 0.4742949 0.5740972
v 1.1408770 1.6651100 0.6331506
vn 0.0000000 -0.3789584 -0.9254137
vt 0.5121465 0.5740972
v 1.4342880 1.8202310 0.6337801
vn 0.0000000 0.3864262 -0.9223204
vt 0.4742949 0.5695638
v 1.1408770 1.8202310 0.6337801
vn 0.0000000 0.3864261 -0.9223204
vt 0.5121465 0.5695638
v 1.4342880 1.5549880 0.7423958
vn 1.0000000 0.0000000 0.0000000
vt 0.6982108 0.5650816
v 1.4342880 1.6651100 0.6331506
vn 1.0000000 0.0000000 0.0000000
vt 0.6981847 0.5481681
v 1.4342880 1.5543621 0.8975165
vn 1.0000000 0.0000000 0.0000000
vt 0.6862695 0.5770597
v 1.4342880 1.8202310 0.6337801
vn 1.0000000 0.0000000 0.0000000
vt 0.6862066 0.5362267
v 1.4342880 1.9294690 0.7439064
vn 1.0000000 0.0000000 0.0000000
vt 0.6692930 0.5362529
v 1.4342880 1.9288430 0.8990272
vn 1.0000000 0.0000000 0.0000000
vt 0.6573517 0.5482310
v 1.4342880 1.8187200 1.0082721
vn 1.0000000 0.0000000 0.0000000
vt 0.6573778 0.5651445
v 1.4342880 1.6636000 1.0076391
vn 1.0000000 0.0000000 0.0000000
vt 0.6693560 0.5770859
v 1.1408770 1.6651100 0.6331506
vn -1.0000000 0.0000000 0.0000000
vt 0.6507694 0.5471065
v 1.1408770 1.5549880 0.7423958
vn -1.0000000 0.0000000 0.0000000
vt 0.6387873 0.5352086
v 1.1408770 1.8202310 0.6337801
vn -1.0000000 0.0000000 0.0000000
vt 0.6508290 0.5639924
v 1.1408770 1.5543621 0.8975165
vn -1.0000000 0.0000000 0.0000000
vt 0.6219015 0.5352681
v 1.1408770 1.6636000 1.0076391
vn -1.0000000 0.0000000 0.0000000
vt 0.6100035 0.5472502
v 1.1408770 1.8187200 1.0082721
vn -1.0000000 0.0000000 0.0000000
vt 0.6100630 0.5641360
v 1.1408770 1.9288430 0.8990272
vn -1.0000000 0.0000000 0.0000000
vt 0.6220452 0.5760340
v 1.1408770 1.9294690 0.7439064
vn -1.0000000 0.0000000 0.0000000
vt 0.6389310 0.5759745

g group_7_140627850244624
f 1/1/1 2/2/2 3/3/3 
f 3/3/3 2/2/2 4/4/4 
f 3/3/3 4/4/4 5/5/5 
f 5/5/5 4/4/4 6/6/6 
f 5/5/5 6/6/6 7/7/7 
f 7/7/7 6/6/6 8/8/8 
f 7/7/7 8/8/8 9/9/9 
f 9/9/9 8/8/8 10/10/10 
f 9/9/9 10/10/10 11/11/11 
f 11/11/11 10/10/10 12/12/12 
f 11/11/11 12/12/12 13/13/13 
f 13/13/13 12/12/12 14/14/14 
f 13/13/13 14/14/14 15/15/15 
f 15/15/15 14/14/14 16/16/16 
f 15/15/15 16/16/16 17/17/17 
f 17/17/17 16/16/16 18/18/18 
f 19/19/19 20/20/20 21/21/21 
f 20/20/20 22/22/22 21/21/21 
f 22/22/22 23/23/23 21/21/21 
f 23/23/23 24/24/24 21/21/21 
f 24/24/24 25/25/25 21/21/21 
f 25/25/25 26/26/26 21/21/21 
f 27/27/27 28/28/28 29/29/29 
f 28/28/28 30/30/30 29/29/29 
f 30/30/30 31/31/31 29/29/29 
f 31/31/31 32/32/32 29/29/29 
f 32/32/32 33/33/33 29/29/29 
f 33/33/33 34/34/34 29/29/29 
