v 1.2975960 2.5195010 0.3239121
vn 0.0000000 0.9500293 -0.3121610
vt 0.7568626 0.5348895
v 1.5389251 2.5195010 0.3239121
vn 0.0000000 0.9500291 -0.3121613
vt 0.7820739 0.5348895
v 1.2975960 2.3715091 0.1224877
vn 0.0000000 0.5852551 -0.8108492
vt 0.7568626 0.5611453
v 1.5389251 2.3715091 0.1224877
vn 0.0000000 0.5852549 -0.8108494
vt 0.7820739 0.5611453
v 1.5389251 2.5195010 0.5728864
vn 0.0000000 0.9500294 0.3121607
vt 0.7820739 0.5097508
v 1.2975960 2.5195010 0.5728864
vn 0.0000000 0.9500292 0.3121612
vt 0.7568626 0.5097508
v 1.2975960 2.3715091 0.7743108
vn 0.0000000 0.5852548 0.8108495
vt 0.7568626 0.4834983
v 1.5389251 2.3715091 0.7743108
vn 0.0000000 0.5852551 0.8108492
vt 0.7820739 0.4834983
v 1.2975960 2.1347210 0.8506136
vn 0.0000000 0.0000000 1.0000000
vt 0.7568626 0.4570769
v 1.5389251 2.1347210 0.8506136
vn 0.0000000 0.0000000 1.0000000
vt 0.7820739 0.4570769
v 1.2975960 1.8979321 0.7743108
vn 0.0000000 -0.5852553 0.8108491
vt 0.7568626 0.5611453
v 1.5389251 1.8979321 0.7743108
vn 0.0000000 -0.5852553 0.8108491
vt 0.7820739 0.5611453
v 1.2975960 2.1347210 0.8506136
vn 0.0000000 0.0000000 1.0000000
vt 0.7568626 0.5875690
v 1.5389251 2.1347210 0.8506136
vn 0.0000000 0.0000000 1.0000000
vt 0.7820739 0.5875690
v 1.2975960 1.7499400 0.5728864
vn 0.0000000 -0.9500293 0.3121610
vt 0.7568626 0.5348895
v 1.5389251 1.7499400 0.5728864
vn 0.0000000 -0.9500293 0.3121608
vt 0.7820739 0.5348895
v 1.5389251 1.7499400 0.3239121
vn 0.0000000 -0.9500293 -0.3121608
vt 0.7820739 0.5097509
v 1.2975960 1.7499400 0.3239121
vn 0.0000000 -0.9500293 -0.3121609
vt 0.7568626 0.5097509
v 1.2975960 1.8979321 0.1224877
vn 0.0000000 -0.5852551 -0.8108492
vt 0.7568626 0.4834984
v 1.5389251 1.8979321 0.1224877
vn 0.0000000 -0.5852553 -0.8108491
vt 0.7820739 0.4834984
v 1.2975960 2.1347210 0.0461849
vn 0.0000000 0.0000000 -1.0000000
vt 0.7568626 0.4570769
v 1.5389251 2.1347210 0.0461849
vn 0.0000000 0.0000000 -1.0000000
vt 0.7820739 0.4570769
v 1.2975960 2.1347210 0.0461849
vn 0.0000000 0.0000000 -1.0000000
vt 0.7568626 0.5875690
v 1.5389251 2.1347210 0.0461849
vn 0.0000000 0.0000000 -1.0000000
vt 0.7820739 0.5875690
v 1.2975960 2.1347210 0.0461849
vn -1.0000000 0.0000000 0.0000000
vt 0.9526296 0.5522356
v 1.2975960 1.8979321 0.1224877
vn -1.0000000 0.0000000 0.0000000
vt 0.9773720 0.5602010
v 1.2975960 2.3715091 0.1224877
vn -1.0000000 0.0000000 0.0000000
vt 0.9278867 0.5602072
v 1.2975960 1.7499400 0.3239121
vn -1.0000000 0.0000000 0.0000000
vt 0.9928393 0.5812413
v 1.2975960 1.7499400 0.5728864
vn -1.0000000 0.0000000 0.0000000
vt 0.9928432 0.6072525
v 1.2975960 1.8979321 0.7743108
vn -1.0000000 0.0000000 0.0000000
vt 0.9773823 0.6282982
v 1.2975960 2.1347210 0.8506136
vn -1.0000000 0.0000000 0.0000000
vt 0.9526405 0.6362739
v 1.2975960 2.3715091 0.7743108
vn -1.0000000 0.0000000 0.0000000
vt 0.9278969 0.6283044
v 1.2975960 2.5195010 0.5728864
vn -1.0000000 0.0000000 0.0000000
vt 0.9124293 0.6072627
v 1.2975960 2.5195010 0.3239121
vn -1.0000000 0.0000000 0.0000000
vt 0.9124256 0.5812514
v 1.5389251 2.5195010 0.3239121
vn 0.9569430 -0.2758584 0.0903461
vt 0.9940451 0.6692280
v 1.4162500 2.1347210 0.4483992
vn 1.0000000 0.0000000 0.0000000
vt 0.9526346 0.6826260
v 1.5389251 2.3715091 0.1224877
vn 0.9566288 -0.1707119 0.2360483
vt 0.9781185 0.6475506
v 1.5389251 2.5195010 0.5728864
vn 0.9569429 -0.2758586 -0.0903461
vt 0.9940453 0.6960238
v 1.5389251 2.3715091 0.7743108
vn 0.9566287 -0.1707124 -0.2360482
vt 0.9781173 0.7177028
v 1.5389251 2.1347210 0.8506136
vn 0.9565008 0.0000000 -0.2917297
vt 0.9526346 0.7259159
v 1.5389251 1.8979321 0.7743108
vn 0.9566288 0.1707124 -0.2360480
vt 0.9271478 0.7177028
v 1.5389251 1.7499400 0.5728864
vn 0.9569428 0.2758587 -0.0903462
vt 0.9112204 0.6960238
v 1.5389251 1.7499400 0.3239121
vn 0.9569429 0.2758585 0.0903461
vt 0.9112215 0.6692280
v 1.5389251 1.8979321 0.1224877
vn 0.9566289 0.1707121 0.2360480
vt 0.9271492 0.6475506
v 1.5389251 2.1347210 0.0461849
vn 0.9565008 0.0000000 0.2917298
vt 0.9526362 0.6393377
v 1.5293000 2.2036829 0.4101278
vn 0.1002222 0.8484111 -0.5197635
vt 0.7397509 0.2523631
v 1.4407430 2.2114899 0.4057953
vn 0.1002353 0.8500594 -0.5170609
vt 0.7304633 0.2522853
v 1.5293000 2.2036829 0.4866706
vn 0.1003074 0.8641754 0.4930916
vt 0.7397509 0.2445582
v 1.4407430 2.2114899 0.4910031
vn 0.1003063 0.8639317 0.4935188
vt 0.7304633 0.2446113
v 1.4407430 2.1347210 0.5357944
vn 0.0998457 0.0140922 0.9949031
vt 0.7304633 0.2351931
v 1.5293000 2.1347210 0.5269070
vn 0.0998438 0.0159627 0.9948751
vt 0.7397510 0.2351931
v 1.4407430 2.0579510 0.4910031
vn 0.1002321 -0.8500602 0.5170602
vt 0.7304633 0.2257768
v 1.5293000 2.0657580 0.4866706
vn 0.1002197 -0.8484121 0.5197625
vt 0.7397509 0.2258298
v 1.5293000 2.0657580 0.4101278
vn 0.1003044 -0.8641760 -0.4930912
vt 0.7397509 0.2180232
v 1.4407430 2.0579510 0.4057953
vn 0.1003039 -0.8639320 -0.4935186
vt 0.7304633 0.2181009
v 1.4407430 2.1347210 0.3610040
vn 0.0998466 -0.0140923 -0.9949030
vt 0.7304633 0.2083622
v 1.5293000 2.1347210 0.3698914
vn 0.0998434 -0.0159627 -0.9948751
vt 0.7397510 0.2083622
v 1.4407430 2.1347210 0.3610040
vn 0.0998466 -0.0140923 -0.9949030
vt 0.7304633 0.2620254
v 1.5293000 2.1347210 0.3698914
vn 0.0998434 -0.0159627 -0.9948751
vt 0.7397510 0.2620254
v 1.5293000 2.1347210 0.3698914
vn 1.0000000 0.0000000 0.0000000
vt 0.9526355 0.6744244
v 1.5293000 2.2036829 0.4101278
vn 1.0000000 0.0000000 0.0000000
vt 0.9598398 0.6786287
v 1.5293000 2.0657580 0.4101278
vn 1.0000000 0.0000000 0.0000000
vt 0.9454306 0.6786268
v 1.5293000 2.2036829 0.4866706
vn 1.0000000 0.0000000 0.0000000
vt 0.9598389 0.6866253
v 1.5293000 2.1347210 0.5269070
vn 1.0000000 0.0000000 0.0000000
vt 0.9526339 0.6908282
v 1.5293000 2.0657580 0.4866706
vn 1.0000000 0.0000000 0.0000000
vt 0.9454298 0.6866234

g group_69_105553124536064
f 1/1/1 2/2/2 3/3/3 
f 3/3/3 2/2/2 4/4/4 
f 5/5/5 2/2/2 6/6/6 
f 6/6/6 2/2/2 1/1/1 
f 7/7/7 8/8/8 6/6/6 
f 6/6/6 8/8/8 5/5/5 
f 9/9/9 10/10/10 7/7/7 
f 7/7/7 10/10/10 8/8/8 
f 11/11/11 12/12/12 13/13/13 
f 13/13/13 12/12/12 14/14/14 
f 15/15/15 16/16/16 11/11/11 
f 11/11/11 16/16/16 12/12/12 
f 17/17/17 16/16/16 18/18/18 
f 18/18/18 16/16/16 15/15/15 
f 19/19/19 20/20/20 18/18/18 
f 18/18/18 20/20/20 17/17/17 
f 21/21/21 22/22/22 19/19/19 
f 19/19/19 22/22/22 20/20/20 
f 3/3/3 4/4/4 23/23/23 
f 23/23/23 4/4/4 24/24/24 
f 25/25/25 26/26/26 27/27/27 
f 26/26/26 28/28/28 27/27/27 
f 28/28/28 29/29/29 27/27/27 
f 29/29/29 30/30/30 27/27/27 
f 30/30/30 31/31/31 27/27/27 
f 31/31/31 32/32/32 27/27/27 
f 32/32/32 33/33/33 27/27/27 
f 33/33/33 34/34/34 27/27/27 
f 35/35/35 36/36/36 37/37/37 
f 36/36/36 35/35/35 38/38/38 
f 39/39/39 36/36/36 38/38/38 
f 40/40/40 36/36/36 39/39/39 
f 41/41/41 36/36/36 40/40/40 
f 42/42/42 36/36/36 41/41/41 
f 36/36/36 42/42/42 43/43/43 
f 44/44/44 36/36/36 43/43/43 
f 45/45/45 36/36/36 44/44/44 
f 36/36/36 45/45/45 37/37/37 
f 46/46/46 47/47/47 48/48/48 
f 48/48/48 47/47/47 49/49/49 
f 50/50/50 51/51/51 49/49/49 
f 49/49/49 51/51/51 48/48/48 
f 52/52/52 53/53/53 50/50/50 
f 50/50/50 53/53/53 51/51/51 
f 53/53/53 52/52/52 54/54/54 
f 54/54/54 52/52/52 55/55/55 
f 56/56/56 57/57/57 55/55/55 
f 55/55/55 57/57/57 54/54/54 
f 47/47/47 46/46/46 58/58/58 
f 58/58/58 46/46/46 59/59/59 
f 60/60/60 61/61/61 62/62/62 
f 61/61/61 63/63/63 62/62/62 
f 63/63/63 64/64/64 62/62/62 
f 64/64/64 65/65/65 62/62/62 
