v -1.0844120 -1.9683990 0.0749664
vn 0.9811358 0.0722260 0.1793203
vt 0.9177706 -4.2240372
v -1.1041640 -1.9280239 0.1667786
vn 0.9809819 0.0705702 0.1808157
vt 0.9938517 -4.2240329
v -1.0844120 -2.5476530 0.4836121
vn 0.9772801 0.1203607 0.1744615
vt 0.9177835 -4.7824011
v -1.1041640 -2.5045469 0.5637512
vn 0.9769762 0.1209949 0.1757207
vt 0.9938646 -4.7764239
v -1.0843279 -1.7977749 0.0499268
vn 0.9799396 0.0138331 0.1988144
vt 0.9177673 -4.0861979
v -1.1041640 -1.7961431 0.1475220
vn 0.9799025 0.0149277 0.1989176
vt 0.9938484 -4.0861959
v -1.0843279 1.7346650 0.0499268
vn 0.9810442 -0.0307378 0.1913309
vt 0.9177673 -1.2886939
v -1.1041640 1.7216799 0.1495514
vn 0.9811489 -0.0323719 0.1905225
vt 0.9938484 -1.2886939
v -1.0844120 1.8884120 0.1021118
vn 0.9808173 -0.0845697 0.1756288
vt 0.9177673 -1.1468730
v -1.1041640 1.8459629 0.1929626
vn 0.9811425 -0.0846025 0.1737865
vt 0.9938484 -1.1468730
v -1.1048130 2.6192019 0.6896666
vn 0.9740068 -0.1247978 0.1890404
vt 0.9934846 -0.5017505
v -1.0851899 2.6795349 0.6293640
vn 0.9735292 -0.1260928 0.1906345
vt 0.9177673 -0.4813225
v -1.3221130 2.5254519 0.9978638
vn -0.9770549 0.0264622 -0.2113373
vt 0.9177673 -0.0324163
v -1.3048398 2.5049129 0.9154358
vn -0.9775352 0.0263866 -0.2091136
vt 0.9938484 -0.0100429
v -1.3228760 1.5477290 0.8789673
vn -0.9848077 0.0177411 -0.1727399
vt 0.9177673 0.7772160
v -1.3054810 1.5684969 0.7813263
vn -0.9850053 0.0186708 -0.1715104
vt 0.9938484 0.7772160
v -1.3220830 2.6795349 0.6293640
vn -0.9792659 -0.1116657 0.1690239
vt 0.9177673 -0.4813225
v -1.3228760 1.8884120 0.1021118
vn -0.9850484 -0.0747880 0.1551979
vt 0.9177673 -1.1468730
v -1.3047940 2.6192019 0.6896666
vn -0.9796421 -0.1105095 0.1675975
vt 0.9938484 -0.5017505
v -1.3054810 1.8459629 0.1929626
vn -0.9852824 -0.0747632 0.1537169
vt 0.9938484 -1.1468730
v -1.3228760 1.7346650 0.0499268
vn -0.9853262 -0.0272916 0.1684862
vt 0.9177673 -1.2886939
v -1.3054810 1.7216799 0.1495514
vn -0.9853861 -0.0287048 0.1679000
vt 0.9938484 -1.2886939
v -1.3228760 -1.7977749 0.0499268
vn -0.9844458 0.0122852 0.1752589
vt 0.9177673 -4.0861979
v -1.3054810 -1.7961431 0.1475220
vn -0.9844374 0.0131533 0.1752426
vt 0.9938484 -4.0861959
v -1.3228760 -1.9683990 0.0749664
vn -0.9852799 0.0643928 0.1583573
vt 0.9177706 -4.2240372
v -1.3054810 -1.9280239 0.1667786
vn -0.9851753 0.0629500 0.1595838
vt 0.9938517 -4.2240329
v -1.3228760 -2.5495610 0.4889526
vn -0.9820330 0.1077784 0.1549028
vt 0.9177835 -4.7824011
v -1.3054810 -2.4969330 0.5617523
vn -0.9817560 0.1084392 0.1561926
vt 0.9938646 -4.7764239
v -1.3228760 -2.4185491 0.9343414
vn -0.9848582 -0.0188932 -0.1723291
vt 0.9177673 3.9668870
v -1.3228760 -1.9122159 0.8788300
vn -0.9852226 -0.0138405 -0.1707185
vt 0.9177673 3.5950429
v -1.3054810 -2.4188390 0.8349609
vn -0.9849099 -0.0189208 -0.1720304
vt 0.9938484 3.9668870
v -1.3054810 -1.9261019 0.7794800
vn -0.9852519 -0.0142222 -0.1705183
vt 0.9938484 3.5950429
v -1.3228760 -0.8442841 0.8231049
vn -0.9852473 -0.0060367 -0.1710307
vt 0.9177673 2.7684710
v -1.3054810 -0.8426132 0.7228394
vn -0.9852459 -0.0058443 -0.1710447
vt 0.9938484 2.7684710
v -1.3854680 2.5260158 1.0468900
vn -0.9682817 0.0271153 0.2483852
vt 0.4635689 -0.0231102
v -1.3989720 2.5138850 0.9951477
vn -0.9685110 0.0172409 0.2483732
vt 0.4222666 -0.0231102
v -1.3864751 1.5361329 0.9298096
vn -0.9704928 -0.0214636 0.2401731
vt 0.4635689 0.7772160
v -1.4000549 1.5477290 0.8759003
vn -0.9705925 -0.0223983 0.2396843
vt 0.4222666 0.7772160
v -1.4000549 1.8946530 0.1067505
vn -0.9709796 0.1061252 -0.2143270
vt 0.4222666 -1.1468730
v -1.3988949 2.6791987 0.6296082
vn -0.9705894 0.1948424 -0.1413956
vt 0.4222666 -0.4929956
v -1.3864751 1.9181979 0.0568848
vn -0.9709569 0.1056109 -0.2146839
vt 0.4635688 -1.1468730
v -1.3853909 2.7188721 0.5913086
vn -0.9710521 0.1867546 -0.1489319
vt 0.4635688 -0.4929956
v -1.4000549 1.7408910 0.0551300
vn -0.9714350 0.0389917 -0.2340811
vt 0.4222666 -1.2886939
v -1.3864751 1.7481539 0.0000000
vn -0.9714277 0.0375244 -0.2343507
vt 0.4635688 -1.2886939
v -1.4000549 -1.8144839 0.0551300
vn -0.9713740 -0.0220090 -0.2365338
vt 0.4222666 -4.0861969
v -1.3864751 -1.8213650 0.0000000
vn -0.9712827 -0.0230143 -0.2368125
vt 0.4635688 -4.0861969
v -1.4000549 -1.9683990 0.0846252
vn -0.9718826 -0.0912626 -0.2170607
vt 0.4222666 -4.2240338
v -1.3864751 -1.9911349 0.0334930
vn -0.9717860 -0.0925104 -0.2169648
vt 0.4635688 -4.2240338
v -1.4000549 -2.6221619 0.5756836
vn -0.9702483 -0.2130413 -0.1150287
vt 0.4222666 4.3992820
v -1.3864751 -2.6664119 0.5430908
vn -0.9705907 -0.2079893 -0.1212193
vt 0.4635729 4.3992820
v -1.4000549 -2.6587830 0.6895447
vn -0.9718032 -0.2357657 -0.0036165
vt 0.4222666 4.2908959
v -1.3864751 -2.7149050 0.6896362
vn -0.9719452 -0.2351947 -0.0024589
vt 0.4635729 4.2908959
v -1.4000549 -2.5380549 0.8932800
vn -0.9725901 -0.1233524 0.1971108
vt 0.4222666 4.0732722
v -1.3864751 -2.5633388 0.9444426
vn -0.9723726 -0.1179928 0.2014181
vt 0.4635730 4.0732722
v -1.4000549 -2.4185491 0.9300995
vn -0.9719762 -0.0239874 0.2338520
vt 0.4222666 3.9668870
v -1.3864751 -2.4179988 0.9862976
vn -0.9718246 -0.0179850 0.2350180
vt 0.4635729 3.9668870
v -1.3864751 1.5361329 0.9298096
vn 0.0000000 -0.0904973 0.9958967
vt 0.4635689 0.7772160
v -0.9847183 1.5361329 0.9298096
vn 0.0000000 -0.0904973 0.9958967
vt 0.8546250 0.7772160
v -1.3854680 2.5260158 1.0468900
vn 0.0000000 0.0994745 0.9950401
vt 0.4635689 -0.0231102
v -0.9857254 2.5260158 1.0468900
vn 0.0000000 0.0994771 0.9950398
vt 0.8546249 -0.0231102
v -1.3853909 2.7188721 0.5913086
vn 0.0000000 0.7904342 -0.6125469
vt 0.4635688 -0.4929956
v -0.9857941 2.7188721 0.5913086
vn 0.0000000 0.7904348 -0.6125461
vt 0.8546250 -0.4929956
v -1.3864751 1.9181979 0.0568848
vn 0.0000000 0.4400406 -0.8979779
vt 0.4635688 -1.1468730
v -0.9847183 1.9181979 0.0568848
vn 0.0000000 0.4400409 -0.8979777
vt 0.8546250 -1.1468730
v -0.9847183 -2.4179988 0.9862976
vn 0.0000000 -0.0860284 0.9962927
vt 0.8546247 3.9668870
v -1.3864751 -2.4179988 0.9862976
vn 0.0000000 -0.0860284 0.9962927
vt 0.4635729 3.9668870
v -0.9847183 -2.5633388 0.9444426
vn 0.0000000 -0.5087051 0.8609409
vt 0.8546250 4.0732722
v -1.3864751 -2.5633388 0.9444426
vn 0.0000000 -0.5087050 0.8609409
vt 0.4635730 4.0732722
v -0.9847183 -2.6701050 0.8373413
vn 0.0000000 -0.8581414 0.5134134
vt 0.8546249 4.1789570
v -1.3864751 -2.6701050 0.8373413
vn 0.0000000 -0.8581414 0.5134134
vt 0.4635729 4.1789579
v -0.9847183 -2.7149050 0.6896362
vn 0.0000000 -0.9999213 -0.0125374
vt 0.8546250 4.2908959
v -1.3864751 -2.7149050 0.6896362
vn 0.0000000 -0.9999213 -0.0125374
vt 0.4635729 4.2908959
v -0.9847183 -2.6664119 0.5430908
vn 0.0000000 -0.8685079 -0.4956752
vt 0.8546250 4.3992820
v -1.3864751 -2.6664119 0.5430908
vn 0.0000000 -0.8685079 -0.4956753
vt 0.4635729 4.3992820
v -1.3864751 -1.9911349 0.0334930
vn 0.0000000 -0.3905265 -0.9205917
vt 0.4635688 -4.2240338
v -1.3864751 -1.8213650 0.0000000
vn 0.0000000 -0.0972382 -0.9952611
vt 0.4635688 -4.0861969
v -0.9847183 -1.9911349 0.0334930
vn 0.0000000 -0.3905265 -0.9205917
vt 0.8546213 -4.2240348
v -0.9847183 -1.8213650 0.0000000
vn 0.0000000 -0.0972382 -0.9952611
vt 0.8546232 -4.0861969
v -1.3864751 1.7481539 0.0000000
vn 0.0000000 0.1607135 -0.9870011
vt 0.4635688 -1.2886939
v -0.9847183 1.7481539 0.0000000
vn 0.0000000 0.1607135 -0.9870011
vt 0.8546250 -1.2886939
v -1.3989720 2.5138850 0.9951477
vn 0.0000000 -0.0856785 -0.9963228
vt 0.4222666 -0.0231102
v -0.9722214 2.5138850 0.9951477
vn 0.0000000 -0.0856780 -0.9963229
vt 0.0046461 -0.0231102
v -1.4000549 1.5477290 0.8759003
vn 0.0000000 0.0933503 -0.9956333
vt 0.4222666 0.7772160
v -0.9711304 1.5477290 0.8759003
vn 0.0000000 0.0933502 -0.9956333
vt 0.0046465 0.7772160
v -0.9711304 1.8946530 0.1067505
vn 0.0000000 -0.4401978 0.8979008
vt 0.0046451 -1.1468730
v -0.9722977 2.6791987 0.6296082
vn 0.0000000 -0.7871344 0.6167815
vt 0.0046457 -0.4929956
v -1.4000549 1.8946530 0.1067505
vn 0.0000000 -0.4401981 0.8979007
vt 0.4222666 -1.1468730
v -1.3988949 2.6791987 0.6296082
vn 0.0000000 -0.7871349 0.6167808
vt 0.4222666 -0.4929956
v -1.4000549 -2.4185491 0.9300995
vn 0.0000000 0.0958337 -0.9953973
vt 0.4222666 3.9668870
v -1.4000549 -1.9122159 0.8757628
vn 0.0000000 -0.0793677 -0.9968454
vt 0.4222666 3.5950429
v -0.9711304 -2.4185491 0.9300995
vn 0.0000000 0.0958337 -0.9953973
vt 0.0046494 3.9668870
v -0.9711304 -1.9122159 0.8757628
vn 0.0000000 -0.0793677 -0.9968454
vt 0.0046491 3.5950429
v -1.4000549 -2.5380549 0.8932800
vn 0.0000000 0.5171158 -0.8559154
vt 0.4222666 4.0732722
v -0.9711304 -2.5380549 0.8932800
vn 0.0000000 0.5171158 -0.8559154
vt 0.0046496 4.0732722
v -1.4000549 -2.6228938 0.8079834
vn 0.0000000 0.8584974 -0.5128179
vt 0.4222666 4.1789579
v -0.9711304 -2.6228938 0.8079834
vn 0.0000000 0.8584974 -0.5128179
vt 0.0046496 4.1789570
v -1.4000549 -2.6587830 0.6895447
vn 0.0000000 0.9999641 0.0084800
vt 0.4222666 4.2908959
v -0.9711304 -2.6587830 0.6895447
vn 0.0000000 0.9999641 0.0084800
vt 0.0046497 4.2908959
v -1.4000549 -2.6221619 0.5756836
vn 0.0000000 0.8710174 0.4912522
vt 0.4222666 4.3992820
v -0.9711304 -2.6221619 0.5756836
vn 0.0000000 0.8710175 0.4912521
vt 0.0046498 4.3992820
v -1.4000549 -1.8144839 0.0551300
vn 0.0000000 0.0945273 0.9955223
vt 0.4222666 -4.0861969
v -1.4000549 -1.9683990 0.0846252
vn 0.0000000 0.3883910 0.9214947
vt 0.4222666 -4.2240338
v -0.9711304 -1.8144839 0.0551300
vn 0.0000000 0.0945273 0.9955223
vt 0.0046451 -4.0861969
v -0.9711304 -1.9683990 0.0846252
vn 0.0000000 0.3883909 0.9214947
vt 0.0046465 -4.2240348
v -1.4000549 1.7408910 0.0551300
vn 0.0000000 -0.1612393 0.9869153
vt 0.4222666 -1.2886939
v -0.9711304 1.7408910 0.0551300
vn 0.0000000 -0.1612393 0.9869153
vt 0.0046450 -1.2886939
v -0.9857254 2.5260158 1.0468900
vn 0.9682847 0.0271077 0.2483744
vt 0.4222666 -0.0231102
v -0.9847183 1.5361329 0.9298096
vn 0.9704615 -0.0214717 0.2402985
vt 0.4222666 0.7772160
v -0.9722214 2.5138850 0.9951477
vn 0.9685104 0.0172407 0.2483753
vt 0.4638371 -0.0231102
v -0.9711304 1.5477290 0.8759003
vn 0.9705608 -0.0224065 0.2398119
vt 0.4638367 0.7772160
v -0.9857941 2.7188721 0.5913086
vn 0.9710834 0.1866523 -0.1488555
vt 0.4222666 -0.4929956
v -0.9722977 2.6791987 0.6296082
vn 0.9706203 0.1947389 -0.1413258
vt 0.4638373 -0.4929956
v -0.9847183 1.9181979 0.0568848
vn 0.9709268 0.1056669 -0.2147919
vt 0.4222666 -1.1468730
v -0.9711304 1.8946530 0.1067505
vn 0.9709483 0.1061846 -0.2144390
vt 0.4635688 -1.1468730
v -0.9847183 1.7481539 0.0000000
vn 0.9713969 0.0375443 -0.2344749
vt 0.4222666 -1.2886939
v -0.9711304 1.7408910 0.0551300
vn 0.9714040 0.0390124 -0.2342053
vt 0.4635688 -1.2886939
v -0.9711304 -1.8144839 0.0551300
vn 0.9713432 -0.0220207 -0.2366592
vt 0.4635688 -4.0861969
v -0.9847183 -1.8213650 0.0000000
vn 0.9712518 -0.0230265 -0.2369380
vt 0.4222666 -4.0861979
v -0.9847183 -1.9911349 0.0334930
vn 0.9717556 -0.0925595 -0.2170799
vt 0.4222666 -4.2240348
v -0.9711304 -1.9683990 0.0846252
vn 0.9718524 -0.0913110 -0.2171758
vt 0.4635688 -4.2240338
v -0.9847183 -2.7149050 0.6896362
vn 0.9719149 -0.2353195 -0.0024602
vt 0.4222666 4.2908959
v -0.9847183 -2.6664119 0.5430908
vn 0.9705591 -0.2080994 -0.1212834
vt 0.4222666 4.3992820
v -0.9711304 -2.6587830 0.6895447
vn 0.9717728 -0.2358909 -0.0036184
vt 0.4638348 4.2908959
v -0.9711304 -2.6221619 0.5756836
vn 0.9702164 -0.2131538 -0.1150897
vt 0.4638348 4.3992820
v -0.9847183 -2.4179988 0.9862976
vn 0.9717943 -0.0179946 0.2351427
vt 0.4222666 3.9668870
v -0.9847183 -2.5633388 0.9444426
vn 0.9723428 -0.1180555 0.2015251
vt 0.4222666 4.0732722
v -0.9711304 -2.4185491 0.9300995
vn 0.9719461 -0.0240000 0.2339761
vt 0.4638351 3.9668870
v -0.9711304 -2.5380549 0.8932800
vn 0.9725606 -0.1234178 0.1972156
vt 0.4638350 4.0732722
v -1.3853909 2.7872918 0.7871704
vn -0.9675207 0.2527919 0.0001523
vt 0.4635689 -0.3348600
v -1.3988949 2.7362368 0.7877808
vn -0.9667454 0.2557290 0.0024890
vt 0.4222666 -0.3348600
v -1.3853909 2.7872918 0.7871704
vn 0.0000000 0.9999982 -0.0019085
vt 0.4635689 -0.3348600
v -0.9857941 2.7872918 0.7871704
vn 0.0000000 0.9999982 -0.0019085
vt 0.8546250 -0.3348600
v -0.9722977 2.7362368 0.7877808
vn 0.0000000 -0.9999893 -0.0046206
vt 0.0046459 -0.3348600
v -1.3988949 2.7362368 0.7877808
vn 0.0000000 -0.9999893 -0.0046206
vt 0.4222666 -0.3348600
v -0.9722977 2.7362368 0.7877808
vn 0.9667811 0.2555939 0.0024877
vt 0.4638373 -0.3348600
v -0.9857941 2.7872918 0.7871704
vn 0.9675555 0.2526584 0.0001522
vt 0.4222666 -0.3348600
v -1.3988949 2.6777339 0.9454346
vn -0.9723900 0.1588451 0.1709563
vt 0.4222666 -0.1845967
v -1.3853909 2.7196038 0.9833374
vn -0.9725312 0.1653497 0.1638368
vt 0.4635690 -0.1845967
v -1.3853909 2.7196038 0.9833374
vn 0.0000000 0.7017210 0.7124518
vt 0.4635690 -0.1845967
v -0.9857941 2.7196038 0.9833374
vn 0.0000000 0.7017254 0.7124476
vt 0.8546250 -0.1845967
v -0.9722977 2.6777339 0.9454346
vn 0.0000000 -0.6852548 -0.7283035
vt 0.0046460 -0.1845967
v -1.3988949 2.6777339 0.9454346
vn 0.0000000 -0.6852548 -0.7283035
vt 0.4222666 -0.1845967
v -0.9857941 2.7196038 0.9833374
vn 0.9725608 0.1652479 0.1637640
vt 0.4222666 -0.1845967
v -0.9722977 2.6777339 0.9454346
vn 0.9724174 0.1587507 0.1708881
vt 0.4638372 -0.1845967
v -1.4000549 -1.9122159 0.8757628
vn -0.9710839 0.0191878 0.2379661
vt 0.4222666 3.5950429
v -1.3864751 -1.9044800 0.9305573
vn -0.9710994 0.0187012 0.2379417
vt 0.4635725 3.5950429
v -0.9847183 -1.9044800 0.9305573
vn 0.0000000 0.0799536 0.9967986
vt 0.8546247 3.5950429
v -1.3864751 -1.9044800 0.9305573
vn 0.0000000 0.0799536 0.9967986
vt 0.4635725 3.5950429
v -0.9711304 -0.8442841 0.8201828
vn 0.0000000 -0.0346329 -0.9994001
vt 0.0046486 2.7684710
v -1.4000549 -0.8442841 0.8201828
vn 0.0000000 -0.0346329 -0.9994001
vt 0.4222666 2.7684710
v -0.9711304 -1.9122159 0.8757628
vn 0.9710528 0.0191979 0.2380922
vt 0.4638352 3.5950429
v -0.9847183 -1.9044800 0.9305573
vn 0.9710683 0.0187111 0.2380678
vt 0.4222666 3.5950429
v -1.4000549 -0.8442841 0.8201828
vn -0.9710683 0.0081497 0.2386625
vt 0.4222666 2.7684710
v -1.3864751 -0.8452147 0.8754730
vn -0.9710681 0.0084127 0.2386543
vt 0.4635717 2.7684710
v -0.9847183 -0.8452147 0.8754730
vn 0.0000000 0.0346701 0.9993988
vt 0.8546249 2.7684710
v -1.3864751 -0.8452147 0.8754730
vn 0.0000000 0.0346701 0.9993988
vt 0.4635717 2.7684710
v -0.9847183 -0.8452147 0.8754730
vn 0.9710371 0.0084172 0.2387808
vt 0.4222666 2.7684710
v -0.9711304 -0.8442841 0.8201828
vn 0.9710373 0.0081541 0.2387889
vt 0.4638355 2.7684710
v -1.4000549 0.3577118 0.7994080
vn -0.9711056 -0.0057755 0.2385801
vt 0.4222666 1.7555450
v -1.3864751 0.3539810 0.8546066
vn -0.9711145 -0.0052424 0.2385564
vt 0.4635701 1.7555450
v -0.9711304 0.3577118 0.7994080
vn 0.0000000 0.0234519 -0.9997250
vt 0.0046474 1.7555450
v -1.4000549 0.3577118 0.7994080
vn 0.0000000 0.0234519 -0.9997250
vt 0.4222666 1.7555450
v -0.9711304 0.3577118 0.7994080
vn 0.9710746 -0.0057785 0.2387065
vt 0.4638361 1.7555450
v -0.9847183 0.3539810 0.8546066
vn 0.9710834 -0.0052452 0.2386828
vt 0.4222666 1.7555450
v -1.3864751 0.3539810 0.8546066
vn 0.0000000 -0.0230635 0.9997340
vt 0.4635701 1.7555450
v -0.9847183 0.3539810 0.8546066
vn 0.0000000 -0.0230635 0.9997340
vt 0.8546249 1.7555450
v -1.3228760 0.3577118 0.8023224
vn -0.9852696 0.0038433 -0.1709653
vt 0.9177673 1.7555450
v -1.3054810 0.3643951 0.7022324
vn -0.9852583 0.0042281 -0.1710216
vt 0.9938483 1.7555450
v -0.9847183 -2.6701050 0.8373413
vn 0.9713841 -0.2036132 0.1222889
vt 0.4222666 4.1789579
v -0.9711304 -2.6228938 0.8079834
vn 0.9713938 -0.2042879 0.1210808
vt 0.4638349 4.1789579
v -1.4000549 -2.6228938 0.8079834
vn -0.9714246 -0.2041796 0.1210166
vt 0.4222666 4.1789579
v -1.3864751 -2.6701050 0.8373413
vn -0.9714149 -0.2035053 0.1222241
vt 0.4635729 4.1789579
v -0.9711304 -2.5434718 0.4852142
vn 0.0000000 0.6681189 0.7440545
vt 0.0046498 4.4904771
v -1.4000549 -2.5434718 0.4852142
vn 0.0000000 0.6681189 0.7440545
vt 0.4222666 4.4904780
v -0.9711304 -2.5434718 0.4852142
vn 0.9712749 -0.1599462 -0.1761885
vt 0.4638347 4.4904780
v -0.9847183 -2.5775149 0.4412537
vn 0.9712735 -0.1579597 -0.1779791
vt 0.4222666 4.4904780
v -1.3864751 -2.5775149 0.4412537
vn 0.0000000 -0.6671517 -0.7449219
vt 0.4635730 4.4904780
v -0.9847183 -2.5775149 0.4412537
vn 0.0000000 -0.6671517 -0.7449219
vt 0.8546250 4.4904771
v -1.4000549 -2.5434718 0.4852142
vn -0.9713057 -0.1598616 -0.1760951
vt 0.4222666 4.4904780
v -1.3864751 -2.5775149 0.4412537
vn -0.9713044 -0.1578760 -0.1778848
vt 0.4635730 4.4904780
v -1.4000549 -2.5434718 0.4852142
vn 0.0000000 0.6681189 0.7440545
vt 0.4222666 -4.7707319
v -0.9711304 -2.5434718 0.4852142
vn 0.0000000 0.6681189 0.7440545
vt 0.0046466 -4.7707329
v -0.9711304 -2.5434718 0.4852142
vn 0.9712749 -0.1599462 -0.1761885
vt 0.4635688 -4.7707319
v -0.9847183 -2.5775149 0.4412537
vn 0.9712735 -0.1579597 -0.1779791
vt 0.4222666 -4.7707329
v -1.3864751 -2.5775149 0.4412537
vn 0.0000000 -0.6671517 -0.7449219
vt 0.4635688 -4.7707319
v -0.9847183 -2.5775149 0.4412537
vn 0.0000000 -0.6671517 -0.7449219
vt 0.8546218 -4.7707329
v -1.4000549 -2.5434718 0.4852142
vn -0.9713057 -0.1598616 -0.1760951
vt 0.4222666 -4.7707319
v -1.3864751 -2.5775149 0.4412537
vn -0.9713044 -0.1578760 -0.1778848
vt 0.4635688 -4.7707319

g group_38_106102876203264
f 1/1/1 2/2/2 3/3/3 
f 3/3/3 2/2/2 4/4/4 
f 1/1/1 5/5/5 2/2/2 
f 2/2/2 5/5/5 6/6/6 
f 7/7/7 8/8/8 5/5/5 
f 5/5/5 8/8/8 6/6/6 
f 7/7/7 9/9/9 8/8/8 
f 8/8/8 9/9/9 10/10/10 
f 10/10/10 9/9/9 11/11/11 
f 11/11/11 9/9/9 12/12/12 
f 13/13/13 14/14/14 15/15/15 
f 15/15/15 14/14/14 16/16/16 
f 17/17/17 18/18/18 19/19/19 
f 19/19/19 18/18/18 20/20/20 
f 21/21/21 22/22/22 18/18/18 
f 18/18/18 22/22/22 20/20/20 
f 21/21/21 23/23/23 22/22/22 
f 22/22/22 23/23/23 24/24/24 
f 25/25/25 26/26/26 23/23/23 
f 23/23/23 26/26/26 24/24/24 
f 25/25/25 27/27/27 26/26/26 
f 26/26/26 27/27/27 28/28/28 
f 29/29/29 30/30/30 31/31/31 
f 31/31/31 30/30/30 32/32/32 
f 33/33/33 34/34/34 30/30/30 
f 30/30/30 34/34/34 32/32/32 
f 35/35/35 36/36/36 37/37/37 
f 37/37/37 36/36/36 38/38/38 
f 39/39/39 40/40/40 41/41/41 
f 41/41/41 40/40/40 42/42/42 
f 39/39/39 41/41/41 43/43/43 
f 43/43/43 41/41/41 44/44/44 
f 45/45/45 43/43/43 46/46/46 
f 46/46/46 43/43/43 44/44/44 
f 45/45/45 46/46/46 47/47/47 
f 47/47/47 46/46/46 48/48/48 
f 49/49/49 50/50/50 51/51/51 
f 51/51/51 50/50/50 52/52/52 
f 53/53/53 54/54/54 55/55/55 
f 55/55/55 54/54/54 56/56/56 
f 57/57/57 58/58/58 59/59/59 
f 59/59/59 58/58/58 60/60/60 
f 61/61/61 62/62/62 63/63/63 
f 63/63/63 62/62/62 64/64/64 
f 65/65/65 66/66/66 67/67/67 
f 67/67/67 66/66/66 68/68/68 
f 67/67/67 68/68/68 69/69/69 
f 69/69/69 68/68/68 70/70/70 
f 71/71/71 69/69/69 72/72/72 
f 72/72/72 69/69/69 70/70/70 
f 71/71/71 72/72/72 73/73/73 
f 73/73/73 72/72/72 74/74/74 
f 75/75/75 76/76/76 77/77/77 
f 77/77/77 76/76/76 78/78/78 
f 76/76/76 79/79/79 78/78/78 
f 78/78/78 79/79/79 80/80/80 
f 79/79/79 63/63/63 80/80/80 
f 80/80/80 63/63/63 64/64/64 
f 81/81/81 82/82/82 83/83/83 
f 83/83/83 82/82/82 84/84/84 
f 85/85/85 86/86/86 87/87/87 
f 87/87/87 86/86/86 88/88/88 
f 89/89/89 90/90/90 91/91/91 
f 91/91/91 90/90/90 92/92/92 
f 89/89/89 91/91/91 93/93/93 
f 93/93/93 91/91/91 94/94/94 
f 95/95/95 93/93/93 96/96/96 
f 96/96/96 93/93/93 94/94/94 
f 97/97/97 95/95/95 98/98/98 
f 98/98/98 95/95/95 96/96/96 
f 97/97/97 98/98/98 99/99/99 
f 99/99/99 98/98/98 100/100/100 
f 101/101/101 102/102/102 103/103/103 
f 103/103/103 102/102/102 104/104/104 
f 105/105/105 101/101/101 106/106/106 
f 106/106/106 101/101/101 103/103/103 
f 87/87/87 105/105/105 85/85/85 
f 85/85/85 105/105/105 106/106/106 
f 107/107/107 108/108/108 109/109/109 
f 109/109/109 108/108/108 110/110/110 
f 111/111/111 112/112/112 113/113/113 
f 113/113/113 112/112/112 114/114/114 
f 115/115/115 113/113/113 116/116/116 
f 116/116/116 113/113/113 114/114/114 
f 117/117/117 118/118/118 116/116/116 
f 116/116/116 118/118/118 115/115/115 
f 119/119/119 118/118/118 120/120/120 
f 120/120/120 118/118/118 117/117/117 
f 121/121/121 122/122/122 123/123/123 
f 123/123/123 122/122/122 124/124/124 
f 125/125/125 126/126/126 127/127/127 
f 127/127/127 126/126/126 128/128/128 
f 42/42/42 40/40/40 129/129/129 
f 129/129/129 40/40/40 130/130/130 
f 131/131/131 132/132/132 61/61/61 
f 61/61/61 132/132/132 62/62/62 
f 133/133/133 134/134/134 86/86/86 
f 86/86/86 134/134/134 88/88/88 
f 135/135/135 112/112/112 136/136/136 
f 136/136/136 112/112/112 111/111/111 
f 130/130/130 137/137/137 129/129/129 
f 129/129/129 137/137/137 138/138/138 
f 131/131/131 139/139/139 132/132/132 
f 132/132/132 139/139/139 140/140/140 
f 133/133/133 141/141/141 134/134/134 
f 134/134/134 141/141/141 142/142/142 
f 143/143/143 144/144/144 136/136/136 
f 136/136/136 144/144/144 135/135/135 
f 145/145/145 55/55/55 146/146/146 
f 146/146/146 55/55/55 56/56/56 
f 147/147/147 148/148/148 65/65/65 
f 65/65/65 148/148/148 66/66/66 
f 92/92/92 90/90/90 149/149/149 
f 149/149/149 90/90/90 150/150/150 
f 151/151/151 152/152/152 127/127/127 
f 127/127/127 152/152/152 125/125/125 
f 145/145/145 146/146/146 153/153/153 
f 153/153/153 146/146/146 154/154/154 
f 155/155/155 156/156/156 147/147/147 
f 147/147/147 156/156/156 148/148/148 
f 157/157/157 152/152/152 158/158/158 
f 158/158/158 152/152/152 151/151/151 
f 36/36/36 35/35/35 137/137/137 
f 137/137/137 35/35/35 138/138/138 
f 139/139/139 59/59/59 140/140/140 
f 140/140/140 59/59/59 60/60/60 
f 143/143/143 107/107/107 144/144/144 
f 144/144/144 107/107/107 109/109/109 
f 141/141/141 82/82/82 142/142/142 
f 142/142/142 82/82/82 81/81/81 
f 38/38/38 159/159/159 37/37/37 
f 37/37/37 159/159/159 160/160/160 
f 161/161/161 162/162/162 84/84/84 
f 84/84/84 162/162/162 83/83/83 
f 110/110/110 108/108/108 163/163/163 
f 163/163/163 108/108/108 164/164/164 
f 57/57/57 165/165/165 58/58/58 
f 58/58/58 165/165/165 166/166/166 
f 159/159/159 153/153/153 160/160/160 
f 160/160/160 153/153/153 154/154/154 
f 149/149/149 150/150/150 161/161/161 
f 161/161/161 150/150/150 162/162/162 
f 163/163/163 164/164/164 158/158/158 
f 158/158/158 164/164/164 157/157/157 
f 165/165/165 156/156/156 166/166/166 
f 166/166/166 156/156/156 155/155/155 
f 167/167/167 15/15/15 168/168/168 
f 168/168/168 15/15/15 16/16/16 
f 33/33/33 167/167/167 34/34/34 
f 34/34/34 167/167/167 168/168/168 
f 126/126/126 169/169/169 128/128/128 
f 128/128/128 169/169/169 170/170/170 
f 171/171/171 172/172/172 53/53/53 
f 53/53/53 172/172/172 54/54/54 
f 121/121/121 123/123/123 169/169/169 
f 169/169/169 123/123/123 170/170/170 
f 52/52/52 172/172/172 51/51/51 
f 51/51/51 172/172/172 171/171/171 
f 173/173/173 174/174/174 100/100/100 
f 100/100/100 174/174/174 99/99/99 
f 124/124/124 122/122/122 175/175/175 
f 175/175/175 122/122/122 176/176/176 
f 74/74/74 177/177/177 73/73/73 
f 73/73/73 177/177/177 178/178/178 
f 49/49/49 179/179/179 50/50/50 
f 50/50/50 179/179/179 180/180/180 
f 102/102/102 181/181/181 104/104/104 
f 104/104/104 181/181/181 182/182/182 
f 183/183/183 184/184/184 120/120/120 
f 120/120/120 184/184/184 119/119/119 
f 185/185/185 75/75/75 186/186/186 
f 186/186/186 75/75/75 77/77/77 
f 187/187/187 47/47/47 188/188/188 
f 188/188/188 47/47/47 48/48/48 
