v -1.1092830 0.1309013 0.7415333
vn 0.0000000 0.5188422 0.8548700
vt 0.3715653 0.6472006
v -1.1092820 0.2674694 0.5988464
vn 0.0000000 0.8767673 0.4809150
vt 0.3897616 0.6472006
v -1.2848740 0.1309013 0.7415333
vn 0.0000000 0.5188407 0.8548710
vt 0.3715653 0.6274961
v -1.2848800 0.2674694 0.5988464
vn 0.0000000 0.8767688 0.4809121
vt 0.3897616 0.6274961
v -1.1092830 0.3143997 0.4069939
vn 0.0000000 0.9997603 -0.0218931
vt 0.4080908 0.6472006
v -1.2848821 0.3143997 0.4069939
vn 0.0000004 0.9997603 -0.0218962
vt 0.4080908 0.6274961
v -1.1092850 0.2591152 0.2173796
vn 0.0000024 0.8548709 -0.5188407
vt 0.4264200 0.6472006
v -1.2848840 0.2591152 0.2173786
vn 0.0000010 0.8548695 -0.5188431
vt 0.4264200 0.6274961
v -1.1092830 0.1164312 0.0808105
vn -0.0000008 0.4809207 -0.8767641
vt 0.4447492 0.6472006
v -1.2848821 0.1164303 0.0808105
vn -0.0000026 0.4809166 -0.8767664
vt 0.4447492 0.6274961
v -1.1092870 -0.0754213 0.0338802
vn 0.0000001 -0.0218932 -0.9997603
vt 0.4630784 0.6472006
v -1.2848849 -0.0754223 0.0338802
vn -0.0000006 -0.0218956 -0.9997603
vt 0.4630784 0.6274961
v -1.1092830 -0.2650366 0.0891647
vn -0.0000020 -0.5188473 -0.8548669
vt 0.4813170 0.6472006
v -1.2848821 -0.2650356 0.0891647
vn -0.0000018 -0.5188447 -0.8548685
vt 0.4813170 0.6274961
v -1.1092830 -0.2650366 0.0891647
vn -0.0000020 -0.5188473 -0.8548669
vt 0.3715653 0.6471894
v -1.1092850 -0.4016037 0.2318497
vn -0.0000009 -0.8767682 -0.4809131
vt 0.3898573 0.6471894
v -1.2848821 -0.2650356 0.0891647
vn -0.0000018 -0.5188447 -0.8548685
vt 0.3715653 0.6274961
v -1.2848840 -0.4016037 0.2318497
vn 0.0000000 -0.8767679 -0.4809138
vt 0.3898573 0.6274961
v -1.1092830 -0.4485321 0.4237022
vn 0.0000000 -0.9997602 0.0219018
vt 0.4081493 0.6471894
v -1.2848821 -0.4485321 0.4237022
vn 0.0000000 -0.9997602 0.0218984
vt 0.4081493 0.6274961
v -1.1092820 -0.3932476 0.6133156
vn 0.0000000 -0.8548700 0.5188423
vt 0.4264412 0.6471894
v -1.2848800 -0.3932476 0.6133156
vn 0.0000000 -0.8548717 0.5188395
vt 0.4264412 0.6274961
v -1.1092830 -0.2505646 0.7498837
vn 0.0000000 -0.4809231 0.8767629
vt 0.4447332 0.6471894
v -1.2848740 -0.2505646 0.7498837
vn 0.0000000 -0.4809216 0.8767635
vt 0.4447332 0.6274961
v -1.1092870 -0.0587120 0.7968140
vn 0.0000000 0.0218862 0.9997604
vt 0.4630251 0.6471894
v -1.2848779 -0.0587120 0.7968140
vn 0.0000000 0.0218862 0.9997604
vt 0.4630251 0.6274961
v -1.1092830 0.1309013 0.7415333
vn 0.0000000 0.5188422 0.8548700
vt 0.4813170 0.6471894
v -1.2848740 0.1309013 0.7415333
vn 0.0000000 0.5188407 0.8548710
vt 0.4813170 0.6274961
v -1.1092830 -0.2505646 0.7498837
vn 1.0000000 0.0000221 -0.0000091
vt 0.4292312 0.8332804
v -1.1092820 -0.3932476 0.6133156
vn 1.0000000 0.0000264 -0.0000170
vt 0.4166270 0.8458847
v -1.1092870 -0.0587120 0.7968140
vn 1.0000000 -0.0000001 -0.0000049
vt 0.4338446 0.8160629
v -1.1092830 -0.4485321 0.4237022
vn 1.0000000 0.0000179 -0.0000085
vt 0.3994095 0.8504980
v -1.1092850 -0.4016037 0.2318497
vn 1.0000000 0.0000002 0.0000032
vt 0.3821919 0.8458847
v -1.1092830 -0.2650366 0.0891647
vn 1.0000000 0.0000094 0.0000026
vt 0.3695876 0.8332804
v -1.1092870 -0.0754213 0.0338802
vn 1.0000000 -0.0000000 0.0000000
vt 0.3649742 0.8160629
v -1.1092830 0.1164312 0.0808105
vn 1.0000000 -0.0000093 0.0000030
vt 0.3695876 0.7988451
v -1.1092850 0.2591152 0.2173796
vn 1.0000000 -0.0000001 0.0000032
vt 0.3821919 0.7862409
v -1.1092830 0.3143997 0.4069939
vn 1.0000000 -0.0000183 -0.0000077
vt 0.3994095 0.7816275
v -1.1092820 0.2674694 0.5988464
vn 1.0000000 -0.0000272 -0.0000159
vt 0.4166270 0.7862409
v -1.1092830 0.1309013 0.7415333
vn 1.0000000 -0.0000225 -0.0000082
vt 0.4292312 0.7988451
v -1.2848779 -0.0587120 0.7968140
vn -1.0000000 -0.0000016 -0.0000746
vt 0.1397230 0.5556316
v -1.2848740 0.1309013 0.7415333
vn -1.0000000 0.0000006 0.0000289
vt 0.1344708 0.5752330
v -1.2848740 -0.2505646 0.7498837
vn -1.0000000 0.0000049 0.0000044
vt 0.1344708 0.5360304
v -1.2848800 0.2674694 0.5988464
vn -1.0000000 -0.0000066 0.0000147
vt 0.1201217 0.5895824
v -1.2848821 0.3143997 0.4069939
vn -1.0000000 -0.0000068 0.0000110
vt 0.1005203 0.5948344
v -1.2848840 0.2591152 0.2173786
vn -1.0000000 -0.0000122 0.0000064
vt 0.0809189 0.5895824
v -1.2848821 0.1164303 0.0808105
vn -1.0000000 -0.0000006 0.0000111
vt 0.0665697 0.5752330
v -1.2848849 -0.0754223 0.0338802
vn -1.0000000 0.0000024 0.0000166
vt 0.0613175 0.5556316
v -1.2848821 -0.2650356 0.0891647
vn -1.0000000 -0.0000039 0.0000116
vt 0.0665697 0.5360304
v -1.2848840 -0.4016037 0.2318497
vn -1.0000000 0.0000239 0.0000116
vt 0.0809189 0.5216811
v -1.2848821 -0.4485321 0.4237022
vn -1.0000000 0.0000179 0.0000125
vt 0.1005203 0.5164289
v -1.2848800 -0.3932476 0.6133156
vn -1.0000000 0.0000410 -0.0000015
vt 0.1201217 0.5216811

g group_65_106102876205824
f 1/1/1 2/2/2 3/3/3 
f 3/3/3 2/2/2 4/4/4 
f 2/2/2 5/5/5 4/4/4 
f 4/4/4 5/5/5 6/6/6 
f 5/5/5 7/7/7 6/6/6 
f 6/6/6 7/7/7 8/8/8 
f 7/7/7 9/9/9 8/8/8 
f 8/8/8 9/9/9 10/10/10 
f 9/9/9 11/11/11 10/10/10 
f 10/10/10 11/11/11 12/12/12 
f 11/11/11 13/13/13 12/12/12 
f 12/12/12 13/13/13 14/14/14 
f 15/15/15 16/16/16 17/17/17 
f 17/17/17 16/16/16 18/18/18 
f 16/16/16 19/19/19 18/18/18 
f 18/18/18 19/19/19 20/20/20 
f 19/19/19 21/21/21 20/20/20 
f 20/20/20 21/21/21 22/22/22 
f 21/21/21 23/23/23 22/22/22 
f 22/22/22 23/23/23 24/24/24 
f 23/23/23 25/25/25 24/24/24 
f 24/24/24 25/25/25 26/26/26 
f 25/25/25 27/27/27 26/26/26 
f 26/26/26 27/27/27 28/28/28 
f 29/29/29 30/30/30 31/31/31 
f 30/30/30 32/32/32 31/31/31 
f 32/32/32 33/33/33 31/31/31 
f 33/33/33 34/34/34 31/31/31 
f 34/34/34 35/35/35 31/31/31 
f 35/35/35 36/36/36 31/31/31 
f 36/36/36 37/37/37 31/31/31 
f 37/37/37 38/38/38 31/31/31 
f 38/38/38 39/39/39 31/31/31 
f 39/39/39 40/40/40 31/31/31 
f 41/41/41 42/42/42 43/43/43 
f 42/42/42 44/44/44 43/43/43 
f 44/44/44 45/45/45 43/43/43 
f 45/45/45 46/46/46 43/43/43 
f 46/46/46 47/47/47 43/43/43 
f 47/47/47 48/48/48 43/43/43 
f 48/48/48 49/49/49 43/43/43 
f 49/49/49 50/50/50 43/43/43 
f 50/50/50 51/51/51 43/43/43 
f 51/51/51 52/52/52 43/43/43 
