v -1.0854800 2.6776118 0.6285706
vn 0.0000000 0.7073876 -0.7068260
vt 0.3796460 0.6521765
v -1.3193440 2.6776118 0.6285706
vn 0.0000000 0.7073876 -0.7068260
vt 0.3796467 0.6701875
v -1.0854800 2.7438350 0.7877501
vn 0.0000000 0.9999968 0.0025116
vt 0.3669711 0.6521769
v -1.3193440 2.7438350 0.7877501
vn 0.0000000 0.9999968 0.0025117
vt 0.3669716 0.6701879
v -1.0854800 2.5214229 0.5634460
vn 0.0000000 0.0041988 -0.9999912
vt 0.3980664 0.6521759
v -1.3193440 2.5214229 0.5634460
vn 0.0000000 0.0041988 -0.9999912
vt 0.3980674 0.6701870
v -1.0854800 2.3614650 0.6285707
vn 0.0000000 -0.7065234 -0.7076896
vt 0.3795639 0.6521762
v -1.3193440 2.3614650 0.6285707
vn 0.0000000 -0.7065234 -0.7076897
vt 0.3795641 0.6701873
v -1.0854800 2.5214229 0.5634460
vn 0.0000000 0.0041988 -0.9999912
vt 0.3669774 0.6521766
v -1.3193440 2.5214229 0.5634460
vn 0.0000000 0.0041988 -0.9999912
vt 0.3669775 0.6701877
v -1.0854800 2.2971189 0.7858734
vn 0.0000000 -0.9999986 -0.0016858
vt 0.3980616 0.6521760
v -1.3193440 2.2971189 0.7858734
vn 0.0000000 -0.9999986 -0.0016858
vt 0.3980621 0.6701871
v -1.0854800 2.3614650 0.9447020
vn 0.0000000 -0.7098558 0.7043471
vt 0.3794409 0.6521757
v -1.3193440 2.3614650 0.9447020
vn 0.0000000 -0.7098558 0.7043471
vt 0.3794409 0.6701868
v -1.0854800 2.2971189 0.7858734
vn 0.0000000 -0.9999986 -0.0016858
vt 0.3669783 0.6521759
v -1.3193440 2.2971189 0.7858734
vn 0.0000000 -0.9999986 -0.0016858
vt 0.3669783 0.6701870
v -1.0854800 2.5195308 1.0101770
vn 0.0000000 -0.0000171 1.0000000
vt 0.3980649 0.6521758
v -1.3193440 2.5195308 1.0101770
vn 0.0000000 -0.0000170 1.0000000
vt 0.3980649 0.6701868
v -1.0854800 2.6776118 0.9447020
vn 0.0000000 0.7047722 0.7094336
vt 0.3795225 0.6521760
v -1.3193440 2.6776118 0.9447020
vn 0.0000000 0.7047722 0.7094336
vt 0.3795225 0.6701872
v -1.0854800 2.5195308 1.0101770
vn 0.0000000 -0.0000171 1.0000000
vt 0.3669725 0.6521759
v -1.3193440 2.5195308 1.0101770
vn 0.0000000 -0.0000170 1.0000000
vt 0.3669725 0.6701872
v -1.0854800 2.7438350 0.7877501
vn 0.0000000 0.9999968 0.0025116
vt 0.3980697 0.6521762
v -1.3193440 2.7438350 0.7877501
vn 0.0000000 0.9999968 0.0025117
vt 0.3980697 0.6701874
v -1.3193440 2.7438350 0.7877501
vn -1.0000000 0.0000000 0.0000000
vt 0.3199871 0.8119025
v -1.3193440 2.6776118 0.6285706
vn -1.0000000 0.0000000 0.0000000
vt 0.3265630 0.7960980
v -1.3193440 2.6776118 0.9447020
vn -1.0000000 0.0000000 0.0000000
vt 0.3265632 0.8274847
v -1.3193440 2.5214229 0.5634460
vn -1.0000000 0.0000000 0.0000000
vt 0.3420695 0.7896334
v -1.3193440 2.3614650 0.6285707
vn -1.0000000 0.0000000 0.0000000
vt 0.3579498 0.7960983
v -1.3193440 2.2971189 0.7858734
vn -1.0000000 0.0000000 0.0000000
vt 0.3643391 0.8117161
v -1.3193440 2.3614650 0.9447020
vn -1.0000000 0.0000000 0.0000000
vt 0.3579500 0.8274850
v -1.3193440 2.5195308 1.0101770
vn -1.0000000 0.0000000 0.0000000
vt 0.3422566 0.8339852
v -1.0854800 2.3614650 0.9447020
vn 1.0000000 0.0000000 0.0000000
vt 0.3777469 0.7744983
v -1.0854800 2.2971189 0.7858734
vn 1.0000000 0.0000000 0.0000000
vt 0.3713565 0.7589149
v -1.0854800 2.3614650 0.6285707
vn 1.0000000 0.0000000 0.0000000
vt 0.3776159 0.7434279
v -1.0854800 2.5214229 0.5634460
vn 1.0000000 0.0000000 0.0000000
vt 0.3933090 0.7369624
v -1.0854800 2.7438350 0.7877501
vn 1.0000000 0.0000000 0.0000000
vt 0.4152615 0.7589150
v -1.0854800 2.6776118 0.6285706
vn 1.0000000 0.0000000 0.0000000
vt 0.4086860 0.7432973
v -1.0854800 2.6776118 0.9447020
vn 1.0000000 0.0000000 0.0000000
vt 0.4088171 0.7743675
v -1.0854800 2.5195308 1.0101770
vn 1.0000000 0.0000000 0.0000000
vt 0.3933091 0.7808673

g group_62_106102876205056
f 1/1/1 2/2/2 3/3/3 
f 3/3/3 2/2/2 4/4/4 
f 5/5/5 6/6/6 1/1/1 
f 1/1/1 6/6/6 2/2/2 
f 7/7/7 8/8/8 9/9/9 
f 9/9/9 8/8/8 10/10/10 
f 11/11/11 12/12/12 7/7/7 
f 7/7/7 12/12/12 8/8/8 
f 13/13/13 14/14/14 15/15/15 
f 15/15/15 14/14/14 16/16/16 
f 17/17/17 18/18/18 13/13/13 
f 13/13/13 18/18/18 14/14/14 
f 19/19/19 20/20/20 21/21/21 
f 21/21/21 20/20/20 22/22/22 
f 23/23/23 24/24/24 19/19/19 
f 19/19/19 24/24/24 20/20/20 
f 25/25/25 26/26/26 27/27/27 
f 26/26/26 28/28/28 27/27/27 
f 28/28/28 29/29/29 27/27/27 
f 29/29/29 30/30/30 27/27/27 
f 30/30/30 31/31/31 27/27/27 
f 31/31/31 32/32/32 27/27/27 
f 33/33/33 34/34/34 35/35/35 
f 33/33/33 35/35/35 36/36/36 
f 33/33/33 36/36/36 37/37/37 
f 37/37/37 36/36/36 38/38/38 
f 33/33/33 37/37/37 39/39/39 
f 33/33/33 39/39/39 40/40/40 
