v -1.0871580 1.3012820 1.0105799
vn -0.9913831 -0.0909993 0.0942262
vt 0.6258483 0.3973708
v -1.0871580 1.4193330 1.0570850
vn -0.9913839 0.0022900 0.1309683
vt 0.6108320 0.4035912
v -1.0871580 1.2506900 0.8942184
vn -0.9913827 -0.1309777 0.0022882
vt 0.6320691 0.3823538
v -1.0871580 1.2971840 0.7761701
vn -0.9913834 -0.0942306 -0.0909923
vt 0.6258483 0.3673368
v -1.0871580 1.4135470 0.7255734
vn -0.9913837 -0.0022856 -0.1309703
vt 0.6108320 0.3611167
v -1.0871580 1.5315990 0.7720781
vn -0.9913837 0.0909945 -0.0942251
vt 0.5958147 0.3673368
v -1.0871580 1.5821910 0.8884349
vn -0.9913838 0.1309697 -0.0022841
vt 0.5895939 0.3823537
v -1.0871580 1.5356880 1.0064811
vn -0.9913832 0.0942317 0.0909933
vt 0.5958152 0.3973708
v -1.0871580 1.3012820 1.0105799
vn 0.0000000 -0.6946756 0.7193233
vt 0.9248782 0.5335401
v -0.8727637 1.3012820 1.0105799
vn 0.0000000 -0.6946756 0.7193233
vt 0.8975658 0.5335523
v -1.0871580 1.4193330 1.0570850
vn 0.0000000 0.0174820 0.9998472
vt 0.9248782 0.5185288
v -0.8727637 1.4193330 1.0570850
vn 0.0000000 0.0174820 0.9998472
vt 0.8975660 0.5185338
v -1.0871580 1.2506900 0.8942184
vn 0.0000000 -0.9998475 0.0174644
vt 0.9248916 0.5485505
v -0.8727637 1.2506900 0.8942184
vn 0.0000000 -0.9998475 0.0174644
vt 0.8975789 0.5485700
v -1.0871580 1.2971840 0.7761701
vn 0.0000000 -0.7193540 -0.6946437
vt 0.9248868 0.5335463
v -0.8727637 1.2971849 0.7761653
vn 0.0000000 -0.7193540 -0.6946437
vt 0.8975738 0.5335597
v -1.0871580 1.2506900 0.8942184
vn 0.0000000 -0.9998475 0.0174644
vt 0.9248713 0.5185222
v -0.8727637 1.2506900 0.8942184
vn 0.0000000 -0.9998475 0.0174644
vt 0.8975586 0.5185434
v -1.0871580 1.4135470 0.7255734
vn 0.0000000 -0.0174365 -0.9998480
vt 0.9248868 0.5485699
v -0.8727637 1.4135470 0.7255734
vn 0.0000000 -0.0174365 -0.9998480
vt 0.8975738 0.5485750
v -1.0871580 1.5315990 0.7720781
vn 0.0000000 0.6946678 -0.7193307
vt 0.9248780 0.5335419
v -0.8727637 1.5315990 0.7720781
vn 0.0000000 0.6946678 -0.7193307
vt 0.8975654 0.5335500
v -1.0871580 1.4135470 0.7255734
vn 0.0000000 -0.0174365 -0.9998480
vt 0.9248780 0.5185292
v -0.8727637 1.4135470 0.7255734
vn 0.0000000 -0.0174365 -0.9998480
vt 0.8975652 0.5185324
v -1.0871580 1.5821910 0.8884349
vn 0.0000000 0.9998480 -0.0174358
vt 0.9248871 0.5485544
v -0.8727637 1.5821910 0.8884349
vn 0.0000000 0.9998480 -0.0174358
vt 0.8975744 0.5485673
v -1.0871580 1.5356880 1.0064811
vn 0.0000000 0.7193578 0.6946397
vt 0.9248782 0.5335429
v -0.8727637 1.5356880 1.0064811
vn 0.0000000 0.7193578 0.6946397
vt 0.8975657 0.5335489
v -1.0871580 1.5821910 0.8884349
vn 0.0000000 0.9998480 -0.0174358
vt 0.9248782 0.5185288
v -0.8727637 1.5821910 0.8884349
vn 0.0000000 0.9998480 -0.0174358
vt 0.8975655 0.5185315
v -1.0871580 1.4193330 1.0570850
vn 0.0000000 0.0174820 0.9998472
vt 0.9248847 0.5485562
v -0.8727637 1.4193330 1.0570850
vn 0.0000000 0.0174820 0.9998472
vt 0.8975720 0.5485656

g group_153568048_140627913720528
f 1/1/1 2/2/2 3/3/3 
f 3/3/3 2/2/2 4/4/4 
f 5/5/5 4/4/4 6/6/6 
f 4/4/4 2/2/2 6/6/6 
f 6/6/6 2/2/2 7/7/7 
f 7/7/7 2/2/2 8/8/8 
f 9/9/9 10/10/10 11/11/11 
f 10/10/10 12/12/12 11/11/11 
f 13/13/13 14/14/14 9/9/9 
f 14/14/14 10/10/10 9/9/9 
f 15/15/15 16/16/16 17/17/17 
f 16/16/16 18/18/18 17/17/17 
f 19/19/19 20/20/20 15/15/15 
f 20/20/20 16/16/16 15/15/15 
f 21/21/21 22/22/22 23/23/23 
f 22/22/22 24/24/24 23/23/23 
f 25/25/25 26/26/26 21/21/21 
f 26/26/26 22/22/22 21/21/21 
f 27/27/27 28/28/28 29/29/29 
f 28/28/28 30/30/30 29/29/29 
f 31/31/31 32/32/32 27/27/27 
f 32/32/32 28/28/28 27/27/27 
