v 1.1575370 2.7198410 0.0588987
vn 0.0000000 0.0000000 1.0000000
vt 0.4533821 12.8408499
v 0.8218870 2.7198410 0.0588987
vn 0.0000000 0.0000000 1.0000000
vt 0.8386407 12.8408499
v 1.1575370 -1.7895360 0.0588987
vn 0.0000000 0.0273927 0.9996248
vt 0.4533818 7.7244840
v 0.8218870 -1.7895360 0.0588987
vn 0.0000000 0.0273927 0.9996248
vt 0.8386403 7.7270341
v 0.8218870 -2.3858681 0.0916058
vn 0.0000000 0.1416393 0.9899184
vt 0.8377587 7.0255222
v 1.1575370 -2.3858681 0.0916058
vn 0.0000000 0.2280915 0.9736397
vt 0.4525001 7.0255222
v 1.1575370 -2.7086501 0.4275531
vn 0.0000000 0.9904280 0.1380304
vt 0.4525001 6.3664379
v 1.1575370 -2.5881519 0.1580669
vn 0.0000000 0.7709072 0.6369475
vt 0.4525001 6.7511449
v 0.8218870 -2.7086501 0.4275531
vn 0.0000000 0.9608115 0.2772026
vt 0.8377587 6.3664398
v 0.8218870 -2.5881519 0.1580669
vn 0.0000000 0.5542827 0.8323285
vt 0.8377587 6.7511449
v 1.1575370 -2.7082281 0.8040069
vn 0.0000000 0.8838379 -0.4677933
vt 0.4525001 5.8278761
v 0.8218870 -2.7082281 0.8040069
vn 0.0000000 0.9721183 -0.2344912
vt 0.8377587 5.8278732
v 1.1575370 -2.5809400 0.9484451
vn 0.0000000 0.4392624 -0.8983588
vt 0.4525001 5.6064558
v 0.8218870 -2.5809400 0.9484451
vn 0.0000000 0.6095176 -0.7927725
vt 0.8377587 5.6064548
v 1.1575370 -2.4277279 0.9894984
vn 0.0000000 -0.0126056 -0.9999205
vt 0.4525001 5.3872581
v 0.8218870 -2.4277279 0.9894984
vn 0.0000000 0.1255618 -0.9920859
vt 0.8377587 5.3872581
v 1.1575370 -2.0060370 0.9264080
vn 0.0000000 0.0469460 -0.9988974
vt 0.4525001 4.8690000
v 0.8218870 -2.0060370 0.9264080
vn 0.0000000 -0.0512195 -0.9986874
vt 0.8377587 4.8690019
v 1.1575370 -1.4888160 1.0015301
vn 0.0000000 -0.0635567 -0.9979782
vt 0.4525001 4.2669878
v 0.8218870 -1.4888160 1.0015301
vn 0.0000000 -0.0635567 -0.9979782
vt 0.8377587 4.2669921
v 1.1575370 -0.9227195 0.8439851
vn 0.0000000 -0.1146660 -0.9934041
vt 0.4525001 3.5853240
v 0.8218870 -0.9227195 0.8439851
vn 0.0000000 -0.1146660 -0.9934041
vt 0.8377587 3.5853240
v 1.1575370 0.0012828 1.0124370
vn 0.0000000 -0.0084336 -0.9999645
vt 0.4525001 2.4727230
v 1.1575370 -0.4199967 0.8649076
vn 0.0000000 0.2364876 -0.9716345
vt 0.4525001 3.0026031
v 0.8218870 0.0012828 1.0124370
vn 0.0000000 -0.0084335 -0.9999645
vt 0.8377587 2.4727230
v 0.8218870 -0.4199967 0.8649076
vn 0.0000000 0.1392379 -0.9902590
vt 0.8377587 3.0026031
v 1.1575370 0.6014577 0.7908263
vn 0.0000000 -0.1157546 -0.9932778
vt 0.4525001 1.7163140
v 0.8218870 0.6014577 0.7908263
vn 0.0000000 -0.1157546 -0.9932778
vt 0.8377587 1.7163130
v 1.1575370 0.9790511 0.8370017
vn 0.0000000 0.2902439 -0.9569528
vt 0.4525001 1.2557640
v 0.8218870 0.9790511 0.8370017
vn 0.0000000 0.2902440 -0.9569527
vt 0.8377587 1.2557640
v 1.1575370 1.4164330 1.0576820
vn 0.0000000 0.1436290 -0.9896316
vt 0.4525001 0.6839061
v 0.8218870 1.4164330 1.0576820
vn 0.0000000 -0.2190840 -0.9757060
vt 0.8377587 0.6839061
v 1.1576459 1.5839220 0.9563644
vn -0.0001735 -0.7300867 -0.6833544
vt 0.4525001 0.3878217
v 0.8219960 1.5839210 0.9563654
vn 0.0000000 -0.7299340 -0.6835176
vt 0.8377587 0.3878222
v 1.1575370 2.7198410 0.0588987
vn 1.0000000 0.0000000 0.0000000
vt 0.4524998 12.8408499
v 1.1575370 -1.7895360 0.0588987
vn 1.0000000 0.0000000 0.0000000
vt 0.4524995 7.7204962
v 1.1575370 2.7199731 0.0005778
vn 1.0000000 0.0000000 0.0000000
vt 0.3865741 12.8408499
v 1.1575390 -1.7972130 0.0005778
vn 1.0000000 0.0000000 0.0000000
vt 0.3865750 7.7123861
v 1.1575370 -2.3858681 0.0916058
vn 1.0000000 0.0000000 0.0000000
vt 0.4525001 7.0255222
v 1.1575370 -2.4045680 0.0320011
vn 1.0000000 0.0000000 0.0000000
vt 0.3865744 7.0255222
v 1.1575370 -2.7086501 0.4275531
vn 1.0000000 0.0000000 0.0000000
vt 0.4525001 6.3664379
v 1.1575370 -2.7689970 0.4118930
vn 1.0000000 0.0000000 0.0000000
vt 0.3865744 6.3664389
v 1.1575370 -2.5881519 0.1580669
vn 1.0000000 0.0000000 0.0000000
vt 0.4525001 6.7511449
v 1.1575370 -2.6270030 0.1072097
vn 1.0000000 0.0000000 0.0000000
vt 0.3865744 6.7511449
v 1.1575370 -2.7082281 0.8040069
vn 1.0000000 0.0000000 0.0000000
vt 0.4525001 5.8278761
v 1.1575370 -2.7623200 0.8326618
vn 1.0000000 0.0000000 0.0000000
vt 0.3865744 5.8278751
v 1.1575370 -2.5809400 0.9484451
vn 1.0000000 0.0000000 0.0000000
vt 0.4525001 5.6064582
v 1.1575370 -2.6095951 0.9980771
vn 1.0000000 0.0000000 0.0000000
vt 0.3865744 5.6064582
v 1.1575370 -2.4277279 0.9894984
vn 1.0000000 0.0000000 0.0000000
vt 0.4525001 5.3872581
v 1.1575370 -2.4335670 1.0477620
vn 1.0000000 0.0000000 0.0000000
vt 0.3865744 5.3872590
v 1.1575370 -2.0060370 0.9264080
vn 1.0000000 0.0000000 0.0000000
vt 0.4525001 4.8690000
v 1.1575370 -2.0045381 0.9850813
vn 1.0000000 0.0000000 0.0000000
vt 0.3865744 4.8689990
v 1.1575370 -1.4878350 1.0604630
vn 1.0000000 0.0000000 0.0000000
vt 0.3865744 4.2669878
v 1.1575370 -1.4888160 1.0015301
vn 1.0000000 0.0000000 0.0000000
vt 0.4525001 4.2669902
v 1.1575370 -0.9199929 0.9027081
vn 1.0000000 0.0000000 0.0000000
vt 0.3865744 3.5853260
v 1.1575370 -0.9227195 0.8439851
vn 1.0000000 0.0000000 0.0000000
vt 0.4525001 3.5853260
v 1.1575370 -0.4199967 0.8649076
vn 1.0000000 0.0000000 0.0000000
vt 0.4525001 3.0026031
v 1.1575370 0.0012828 1.0124370
vn 1.0000000 0.0000000 0.0000000
vt 0.4525001 2.4727249
v 1.1575370 -0.4252907 0.9238850
vn 1.0000000 0.0000000 0.0000000
vt 0.3865744 3.0026031
v 1.1575370 0.0002818 1.0712169
vn 1.0000000 0.0000000 0.0000000
vt 0.3865744 2.4727249
v 1.1575370 0.6011535 0.8498567
vn 1.0000000 0.0000000 0.0000000
vt 0.3865744 1.7163130
v 1.1575370 0.6014577 0.7908263
vn 1.0000000 0.0000000 0.0000000
vt 0.4525001 1.7163140
v 1.1575370 1.4143490 1.1165251
vn 1.0000000 -0.0002612 0.0000000
vt 0.3865744 0.6839061
v 1.1575381 0.9726016 0.8959081
vn 1.0000000 0.0000000 0.0000000
vt 0.3865744 1.2557640
v 1.1575370 1.4164330 1.0576820
vn 1.0000000 -0.0002273 0.0001032
vt 0.4525001 0.6839061
v 1.1575370 0.9790511 0.8370017
vn 1.0000000 0.0000000 0.0000000
vt 0.4525001 1.2557640
v 1.1576459 1.5839220 0.9563644
vn 1.0000000 0.0000000 0.0000000
vt 0.4525001 0.5136685
v 1.1576450 1.6252871 0.9962746
vn 1.0000000 -0.0002089 0.0000000
vt 0.3865744 0.5136685
v 0.8218866 -1.7972130 0.0005778
vn -1.0000000 0.0000000 0.0000000
vt 0.3865750 7.7123842
v 0.8218870 -1.7895360 0.0588987
vn -1.0000000 0.0000000 0.0000000
vt 0.4524995 7.7204938
v 0.8218870 2.7199731 0.0005778
vn -1.0000000 0.0000000 0.0000000
vt 0.3865741 12.8408499
v 0.8218870 2.7198410 0.0588987
vn -1.0000000 0.0000000 0.0000000
vt 0.4524998 12.8408499
v 0.8218871 -2.4045680 0.0320011
vn -1.0000000 0.0000000 0.0000000
vt 0.3865744 7.0255222
v 0.8218870 -2.3858681 0.0916058
vn -1.0000000 0.0000000 0.0000000
vt 0.4525001 7.0255222
v 0.8218870 -2.6270030 0.1072097
vn -1.0000000 0.0000000 0.0000000
vt 0.3865744 6.7511449
v 0.8218869 -2.7689970 0.4118930
vn -1.0000000 0.0000000 0.0000000
vt 0.3865744 6.3664379
v 0.8218870 -2.5881519 0.1580669
vn -1.0000000 0.0000000 0.0000000
vt 0.4525001 6.7511449
v 0.8218870 -2.7086501 0.4275531
vn -1.0000000 0.0000000 0.0000000
vt 0.4525001 6.3664379
v 0.8218870 -2.7082281 0.8040069
vn -1.0000000 0.0000000 0.0000000
vt 0.4525001 5.8278751
v 0.8218864 -2.7623200 0.8326618
vn -1.0000000 0.0000000 0.0000000
vt 0.3865744 5.8278761
v 0.8218870 -2.5809400 0.9484451
vn -1.0000000 0.0000000 0.0000000
vt 0.4525001 5.6064548
v 0.8218870 -2.6095951 0.9980771
vn -1.0000000 0.0000000 0.0000000
vt 0.3865744 5.6064539
v 0.8218870 -2.4335670 1.0477620
vn -1.0000000 0.0000000 0.0000000
vt 0.3865744 5.3872590
v 0.8218870 -2.4277279 0.9894984
vn -1.0000000 0.0000000 0.0000000
vt 0.4525001 5.3872581
v 0.8218870 -2.0045381 0.9850813
vn -1.0000000 0.0000000 0.0000000
vt 0.3865744 4.8690019
v 0.8218870 -2.0060370 0.9264080
vn -1.0000000 0.0000000 0.0000000
vt 0.4525001 4.8689981
v 0.8218870 -1.4888160 1.0015301
vn -1.0000000 0.0000000 0.0000000
vt 0.4525001 4.2669921
v 0.8218871 -1.4878350 1.0604630
vn -1.0000000 0.0000000 0.0000000
vt 0.3865744 4.2669878
v 0.8218869 -0.9199929 0.9027081
vn -1.0000000 0.0000000 0.0000000
vt 0.3865744 3.5853260
v 0.8218870 -0.9227195 0.8439851
vn -1.0000000 0.0000000 0.0000000
vt 0.4525001 3.5853260
v 0.8218870 -0.4199967 0.8649076
vn -1.0000000 0.0000000 0.0000000
vt 0.4525001 3.0026040
v 0.8218864 -0.4252907 0.9238849
vn -1.0000000 0.0000000 0.0000000
vt 0.3865744 3.0026040
v 0.8218870 0.0012828 1.0124370
vn -1.0000000 0.0000000 0.0000000
vt 0.4525001 2.4727230
v 0.8218870 0.0002818 1.0712169
vn -1.0000000 0.0000000 0.0000000
vt 0.3865744 2.4727230
v 0.8218871 0.6011535 0.8498567
vn -1.0000000 0.0000000 0.0000000
vt 0.3865744 1.7163140
v 0.8218870 0.6014577 0.7908263
vn -1.0000000 0.0000000 0.0000000
vt 0.4525001 1.7163140
v 0.8218870 0.9790511 0.8370017
vn -1.0000000 0.0000000 0.0000000
vt 0.4525001 1.2557640
v 0.8218870 0.9726016 0.8959080
vn -1.0000000 0.0000000 0.0000000
vt 0.3865744 1.2557640
v 0.8218870 1.4164330 1.0576820
vn -1.0000000 0.0002274 -0.0001038
vt 0.4525001 0.6839061
v 0.8218870 1.4143490 1.1165251
vn -1.0000000 0.0002606 0.0000000
vt 0.3865744 0.6839061
v 0.8219948 1.6252880 0.9962737
vn -1.0000000 0.0002085 0.0000000
vt 0.3865744 0.3878217
v 0.8219960 1.5839210 0.9563654
vn -1.0000000 0.0000000 0.0000000
vt 0.4525001 0.3878222
v 1.1575370 1.4143490 1.1165251
vn 0.0000000 0.0274681 0.9996227
vt 0.3865744 0.6839061
v 1.1576450 1.6252871 0.9962746
vn 0.0001846 0.7165294 0.6975569
vt 0.3865744 0.3878222
v 0.8218870 1.4143490 1.1165251
vn 0.0000000 0.0274687 0.9996227
vt 0.0000000 0.6839061
v 0.8219948 1.6252880 0.9962737
vn 0.0000000 0.7163775 0.6977130
vt 0.0000000 0.3878217
v 0.8218870 0.9726016 0.8959080
vn 0.0000000 -0.2890799 0.9573050
vt 0.0000000 1.2557640
v 1.1575381 0.9726016 0.8959081
vn 0.0000000 -0.2890800 0.9573050
vt 0.3865744 1.2557640
v 0.8218870 0.0002818 1.0712169
vn 0.0000000 -0.1084704 0.9940997
vt 0.0000000 2.4727230
v 1.1575370 0.0002818 1.0712169
vn 0.0000000 0.1280195 0.9917716
vt 0.3865744 2.4727230
v 0.8218871 0.6011535 0.8498567
vn 0.0000000 0.1145590 0.9934165
vt 0.0000000 1.7163140
v 1.1575370 0.6011535 0.8498567
vn 0.0000000 0.1145590 0.9934165
vt 0.3865744 1.7163140
v 0.8218864 -0.4252907 0.9238849
vn 0.0000000 -0.1869259 0.9823741
vt 0.0000000 3.0026040
v 1.1575370 -0.4252907 0.9238850
vn 0.0000000 -0.1869259 0.9823741
vt 0.3865744 3.0026031
v 0.8218871 -1.4878350 1.0604630
vn 0.0000000 -0.0071520 0.9999745
vt 0.0000000 4.2669902
v 1.1575370 -1.4878350 1.0604630
vn 0.0000000 0.1328713 0.9911333
vt 0.3865744 4.2669878
v 0.8218869 -0.9199929 0.9027081
vn 0.0000000 0.1138523 0.9934977
vt 0.0000000 3.5853240
v 1.1575370 -0.9199929 0.9027081
vn 0.0000000 0.1138523 0.9934977
vt 0.3865744 3.5853240
v 0.8218870 -2.0045381 0.9850813
vn 0.0000000 0.0001029 1.0000000
vt 0.0000000 4.8689981
v 1.1575370 -2.0045381 0.9850813
vn 0.0000000 0.0001029 1.0000000
vt 0.3865744 4.8689990
v 1.1575370 -2.4335670 1.0477620
vn 0.0000000 -0.1355531 0.9907701
vt 0.3865744 5.3872561
v 0.8218870 -2.4335670 1.0477620
vn 0.0000000 0.0059447 0.9999824
vt 0.0000000 5.3872581
v 1.1575370 -2.6095951 0.9980771
vn 0.0000000 -0.6003885 0.7997085
vt 0.3865744 5.6064539
v 0.8218870 -2.6095951 0.9980771
vn 0.0000000 -0.4407012 0.8976539
vt 0.0000000 5.6064558
v 1.1575370 -2.7623200 0.8326618
vn 0.0000000 -0.9678974 0.2513456
vt 0.3865744 5.8278751
v 0.8218864 -2.7623200 0.8326618
vn 0.0000000 -0.8740464 0.4858425
vt 0.0000000 5.8278751
v 1.1575370 -2.7689970 0.4118930
vn 0.0000000 -0.9592074 -0.2827034
vt 0.3865744 6.3664379
v 0.8218869 -2.7689970 0.4118930
vn 0.0000000 -0.9910845 -0.1332347
vt 0.0000000 6.3664389
v 1.1575370 -2.6270030 0.1072097
vn 0.0000000 -0.5552726 -0.8316684
vt 0.3865744 6.7511449
v 0.8218870 -2.6270030 0.1072097
vn 0.0000000 -0.7656440 -0.6432646
vt 0.0000000 6.7511449
v 0.8218871 -2.4045680 0.0320011
vn 0.0000000 -0.2326995 -0.9725487
vt 0.0000000 7.0255222
v 0.8218866 -1.7972130 0.0005778
vn 0.0000000 -0.0258431 -0.9996660
vt 0.0000000 7.7270341
v 1.1575370 -2.4045680 0.0320011
vn 0.0000000 -0.1424017 -0.9898090
vt 0.3865744 7.0255222
v 1.1575390 -1.7972130 0.0005778
vn 0.0000000 -0.0258431 -0.9996660
vt 0.3865746 7.7270331
v 1.1575370 2.7199731 0.0005778
vn 0.0000000 0.0000000 -1.0000000
vt 0.3865737 12.8408499
v 0.8218870 2.7199731 0.0005778
vn 0.0000000 0.0000000 -1.0000000
vt 0.0000000 12.8408499
v 1.0103830 0.0012828 1.0124370
vn 0.9760792 -0.0025116 -0.2174008
vt 0.9769037 2.4733341
v 1.0103830 -0.4199967 0.8649076
vn 0.9754341 0.0531046 -0.2137951
vt 0.9769037 3.0032139
v 0.9897122 0.0028636 0.9196111
vn 0.9765043 -0.0025928 -0.2154824
vt 0.8637402 2.4733360
v 0.9897122 -0.4116365 0.7717715
vn 0.9762147 0.0308281 -0.2146030
vt 0.8637402 3.0032151
v 1.0103830 -0.9227269 0.8439896
vn 0.9760394 -0.0255592 -0.2160879
vt 0.9769038 3.5859461
v 0.9897122 -0.9270326 0.7512549
vn 0.9759778 -0.0256107 -0.2163596
vt 0.8637402 3.5859461
v 0.9897122 -2.0085261 0.8338059
vn 0.9760128 -0.0011049 -0.2177107
vt 0.8637402 4.8697639
v 0.9897122 -1.4903640 0.9084631
vn 0.9761499 -0.0142276 -0.2166312
vt 0.8637402 4.2676010
v 1.0103830 -2.0061619 0.9264626
vn 0.9757742 -0.0009811 -0.2187780
vt 0.9769037 4.8697639
v 1.0103830 -1.4888160 1.0015301
vn 0.9761618 -0.0142400 -0.2165764
vt 0.9769037 4.2676010
v 1.0103830 -2.5809400 0.9484451
vn 0.9748672 0.1179319 -0.1890133
vt 0.9769037 5.6070671
v 0.9897122 -2.5356879 0.8700667
vn 0.9760561 0.1147835 -0.1847682
vt 0.8637402 5.6070671
v 1.0103830 -2.4277279 0.9894984
vn 0.9752249 0.0255010 -0.2197410
vt 0.9769037 5.3878698
v 0.9897122 -2.4185059 0.8974886
vn 0.9759563 -0.0056028 -0.2178945
vt 0.8637402 5.3878698
v 1.0103830 -2.7082281 0.8040069
vn 0.9742474 0.2017326 -0.1007275
vt 0.9769037 5.8284869
v 0.9897122 -2.6298499 0.7587550
vn 0.9728389 0.2263342 -0.0485523
vt 0.8637402 5.8284860
v 1.0103830 -2.7086501 0.4275532
vn 0.9690161 0.2417022 0.0508719
vt 0.9769037 6.3670502
v 0.9897122 -2.6284850 0.4468663
vn 0.9699566 0.2382263 0.0493186
vt 0.8637402 6.3670502
v 1.0103830 -2.5881519 0.1580669
vn 0.9729666 0.1564774 0.1698553
vt 0.9769037 6.7517562
v 1.0103830 -2.3858681 0.0916058
vn 0.9705678 0.0537132 0.2347616
vt 0.9769037 7.0255222
v 0.9897122 -2.5335100 0.2261348
vn 0.9740891 0.1530220 0.1665373
vt 0.8637402 6.7517562
v 0.9897122 -2.3624270 0.1725795
vn 0.9722778 0.0312760 0.2317278
vt 0.8637402 7.0255222
v 0.9897122 2.7196319 0.1483861
vn 0.9743437 0.0000000 0.2250652
vt 0.8637554 12.8408499
v 0.9897122 -1.7774100 0.1483864
vn 0.9744313 0.0030858 0.2246643
vt 0.8637503 7.7276440
v 1.0103830 2.7198410 0.0588986
vn 0.9743442 0.0000000 0.2250631
vt 0.9769189 12.8408499
v 1.0103830 -1.7895350 0.0588988
vn 0.9729521 0.0075416 0.2308839
vt 0.9769136 7.7144961
v 1.0103830 1.4164330 1.0576820
vn 0.9759618 -0.0129430 -0.2175570
vt 0.9769037 0.6845174
v 1.0103830 0.9790511 0.8370016
vn 0.9743506 0.0794882 -0.2105294
vt 0.9769037 1.2563760
v 0.9897122 1.4197240 0.9647558
vn 0.9778801 -0.0133701 -0.2087385
vt 0.8637402 0.6845174
v 0.9897122 0.9892361 0.7439771
vn 0.9758935 0.0523992 -0.2118636
vt 0.8637402 1.2563760
v 1.0103830 0.6014577 0.7908262
vn 0.9759179 -0.0271668 -0.2164401
vt 0.9769037 1.7169240
v 0.9897122 0.6019383 0.6976056
vn 0.9758972 -0.0271462 -0.2165358
vt 0.8637402 1.7169240
v 1.0104920 1.5822231 0.9579439
vn 0.9707362 -0.1629188 -0.1764332
vt 0.9769037 0.3878212
v 0.9898235 1.5272200 0.8912755
vn 0.9736609 -0.1850855 -0.1331459
vt 0.8637402 0.3878217
v 1.1575450 1.7542040 0.7550794
vn 0.0007088 0.8819283 0.4713831
vt 0.3865744 0.0671376
v 0.8218947 1.7537400 0.7564522
vn 0.0003550 0.8817225 0.4717683
vt 0.0000000 0.0687861
v 0.8218947 1.7537400 0.7564522
vn -1.0000000 -0.0002237 0.0003166
vt 0.3865744 0.0687861
v 0.8218945 1.7000999 0.7323177
vn -1.0000000 -0.0001631 0.0003684
vt 0.4525001 0.0624694
v 0.8218947 1.7537400 0.7564522
vn -0.0042962 0.4103105 -0.9119358
vt 0.8337124 0.0681357
v 1.1575450 1.7542040 0.7550794
vn -0.0042968 0.4103093 -0.9119363
vt 0.4546974 0.0681360
v 0.8218945 1.7000999 0.7323177
vn -0.0042968 0.4103093 -0.9119363
vt 0.8337125 0.0022800
v 1.1575450 1.7005579 0.7309424
vn -0.0042974 0.4103081 -0.9119369
vt 0.4546975 0.0022801
v 1.1575370 2.7198410 0.0588987
vn 0.0000000 0.9999974 0.0022748
vt 0.4546974 0.0681360
v 1.1575370 2.7199731 0.0005778
vn 0.0000000 0.9999975 0.0022699
vt 0.4546974 0.0022801
v 0.8218870 2.7198410 0.0588987
vn 0.0000000 0.9999975 0.0022699
vt 0.8337124 0.0681360
v 0.8218870 2.7199731 0.0005778
vn 0.0000000 0.9999975 0.0022649
vt 0.8337124 0.0022802
v 1.1575450 1.7005579 0.7309424
vn -0.0006701 -0.8881562 -0.4595411
vt 0.4525001 0.0606955
v 0.8218945 1.7000999 0.7323177
vn -0.0003338 -0.8879511 -0.4599380
vt 0.8377587 0.0624694
v 1.1575450 1.7005579 0.7309424
vn 1.0000000 0.0001605 -0.0003680
vt 0.4525001 -7.2738514
v 1.1575450 1.7542040 0.7550794
vn 1.0000000 0.0002225 -0.0003156
vt 0.3865744 -7.2674103
v 1.1576459 1.5839220 0.9563644
vn 1.0000000 0.0000000 0.0000000
vt 0.4525001 -6.9467258
v 1.1576450 1.6252871 0.9962746
vn 1.0000000 -0.0002089 0.0000000
vt 0.3865744 -6.9467249
v 0.9897198 1.6135080 0.6994028
vn 0.9757873 -0.1992803 -0.0901474
vt 0.8637403 0.0550531
v 1.0103900 1.7004550 0.7309424
vn 0.9720145 -0.2109956 -0.1032887
vt 0.9769036 0.0585751

g group_153552544_140627908082304
f 1/1/1 2/2/2 3/3/3 
f 3/3/3 2/2/2 4/4/4 
f 4/4/4 5/5/5 3/3/3 
f 3/3/3 5/5/5 6/6/6 
f 7/7/7 8/8/8 9/9/9 
f 9/9/9 8/8/8 10/10/10 
f 11/11/11 7/7/7 12/12/12 
f 12/12/12 7/7/7 9/9/9 
f 13/13/13 11/11/11 14/14/14 
f 14/14/14 11/11/11 12/12/12 
f 15/15/15 13/13/13 16/16/16 
f 16/16/16 13/13/13 14/14/14 
f 17/17/17 15/15/15 18/18/18 
f 18/18/18 15/15/15 16/16/16 
f 19/19/19 17/17/17 20/20/20 
f 20/20/20 17/17/17 18/18/18 
f 19/19/19 20/20/20 21/21/21 
f 21/21/21 20/20/20 22/22/22 
f 23/23/23 24/24/24 25/25/25 
f 25/25/25 24/24/24 26/26/26 
f 23/23/23 25/25/25 27/27/27 
f 27/27/27 25/25/25 28/28/28 
f 29/29/29 30/30/30 31/31/31 
f 31/31/31 30/30/30 32/32/32 
f 31/31/31 32/32/32 33/33/33 
f 33/33/33 32/32/32 34/34/34 
f 35/35/35 36/36/36 37/37/37 
f 37/37/37 36/36/36 38/38/38 
f 36/36/36 39/39/39 38/38/38 
f 38/38/38 39/39/39 40/40/40 
f 41/41/41 42/42/42 43/43/43 
f 43/43/43 42/42/42 44/44/44 
f 41/41/41 45/45/45 42/42/42 
f 42/42/42 45/45/45 46/46/46 
f 45/45/45 47/47/47 46/46/46 
f 46/46/46 47/47/47 48/48/48 
f 49/49/49 50/50/50 47/47/47 
f 47/47/47 50/50/50 48/48/48 
f 51/51/51 52/52/52 49/49/49 
f 49/49/49 52/52/52 50/50/50 
f 53/53/53 52/52/52 54/54/54 
f 54/54/54 52/52/52 51/51/51 
f 53/53/53 54/54/54 55/55/55 
f 55/55/55 54/54/54 56/56/56 
f 57/57/57 58/58/58 59/59/59 
f 59/59/59 58/58/58 60/60/60 
f 60/60/60 58/58/58 61/61/61 
f 61/61/61 58/58/58 62/62/62 
f 63/63/63 64/64/64 65/65/65 
f 65/65/65 64/64/64 66/66/66 
f 67/67/67 68/68/68 65/65/65 
f 65/65/65 68/68/68 63/63/63 
f 69/69/69 70/70/70 71/71/71 
f 71/71/71 70/70/70 72/72/72 
f 73/73/73 74/74/74 69/69/69 
f 69/69/69 74/74/74 70/70/70 
f 75/75/75 76/76/76 77/77/77 
f 77/77/77 76/76/76 78/78/78 
f 78/78/78 76/76/76 79/79/79 
f 79/79/79 76/76/76 80/80/80 
f 79/79/79 80/80/80 81/81/81 
f 81/81/81 80/80/80 82/82/82 
f 82/82/82 83/83/83 81/81/81 
f 81/81/81 83/83/83 84/84/84 
f 83/83/83 85/85/85 84/84/84 
f 84/84/84 85/85/85 86/86/86 
f 86/86/86 85/85/85 87/87/87 
f 87/87/87 85/85/85 88/88/88 
f 88/88/88 89/89/89 87/87/87 
f 87/87/87 89/89/89 90/90/90 
f 91/91/91 92/92/92 93/93/93 
f 93/93/93 92/92/92 94/94/94 
f 94/94/94 95/95/95 93/93/93 
f 93/93/93 95/95/95 96/96/96 
f 97/97/97 98/98/98 99/99/99 
f 99/99/99 98/98/98 100/100/100 
f 100/100/100 101/101/101 99/99/99 
f 99/99/99 101/101/101 102/102/102 
f 103/103/103 104/104/104 105/105/105 
f 105/105/105 104/104/104 106/106/106 
f 107/107/107 108/108/108 105/105/105 
f 105/105/105 108/108/108 103/103/103 
f 109/109/109 110/110/110 111/111/111 
f 111/111/111 110/110/110 112/112/112 
f 113/113/113 114/114/114 109/109/109 
f 109/109/109 114/114/114 110/110/110 
f 115/115/115 116/116/116 117/117/117 
f 117/117/117 116/116/116 118/118/118 
f 119/119/119 120/120/120 115/115/115 
f 115/115/115 120/120/120 116/116/116 
f 121/121/121 120/120/120 122/122/122 
f 122/122/122 120/120/120 119/119/119 
f 123/123/123 121/121/121 124/124/124 
f 124/124/124 121/121/121 122/122/122 
f 125/125/125 123/123/123 126/126/126 
f 126/126/126 123/123/123 124/124/124 
f 127/127/127 125/125/125 128/128/128 
f 128/128/128 125/125/125 126/126/126 
f 129/129/129 127/127/127 130/130/130 
f 130/130/130 127/127/127 128/128/128 
f 131/131/131 132/132/132 133/133/133 
f 133/133/133 132/132/132 134/134/134 
f 134/134/134 132/132/132 135/135/135 
f 135/135/135 132/132/132 136/136/136 
f 137/137/137 138/138/138 139/139/139 
f 139/139/139 138/138/138 140/140/140 
f 138/138/138 141/141/141 140/140/140 
f 140/140/140 141/141/141 142/142/142 
f 143/143/143 144/144/144 145/145/145 
f 145/145/145 144/144/144 146/146/146 
f 147/147/147 148/148/148 149/149/149 
f 149/149/149 148/148/148 150/150/150 
f 147/147/147 151/151/151 148/148/148 
f 148/148/148 151/151/151 152/152/152 
f 151/151/151 153/153/153 152/152/152 
f 152/152/152 153/153/153 154/154/154 
f 155/155/155 156/156/156 157/157/157 
f 157/157/157 156/156/156 158/158/158 
f 159/159/159 160/160/160 161/161/161 
f 161/161/161 160/160/160 162/162/162 
f 163/163/163 164/164/164 165/165/165 
f 165/165/165 164/164/164 166/166/166 
f 164/164/164 167/167/167 166/166/166 
f 166/166/166 167/167/167 168/168/168 
f 168/168/168 167/167/167 139/139/139 
f 139/139/139 167/167/167 137/137/137 
f 133/133/133 129/129/129 131/131/131 
f 131/131/131 129/129/129 130/130/130 
f 74/74/74 73/73/73 77/77/77 
f 77/77/77 73/73/73 75/75/75 
f 8/8/8 6/6/6 10/10/10 
f 10/10/10 6/6/6 5/5/5 
f 44/44/44 40/40/40 43/43/43 
f 43/43/43 40/40/40 39/39/39 
f 160/160/160 158/158/158 162/162/162 
f 162/162/162 158/158/158 156/156/156 
f 155/155/155 157/157/157 153/153/153 
f 153/153/153 157/157/157 154/154/154 
f 163/163/163 165/165/165 169/169/169 
f 169/169/169 165/165/165 170/170/170 
f 171/171/171 172/172/172 104/104/104 
f 104/104/104 172/172/172 106/106/106 
f 101/101/101 173/173/173 102/102/102 
f 102/102/102 173/173/173 174/174/174 
f 118/118/118 114/114/114 117/117/117 
f 117/117/117 114/114/114 113/113/113 
f 90/90/90 89/89/89 91/91/91 
f 91/91/91 89/89/89 92/92/92 
f 24/24/24 21/21/21 26/26/26 
f 26/26/26 21/21/21 22/22/22 
f 59/59/59 55/55/55 57/57/57 
f 57/57/57 55/55/55 56/56/56 
f 112/112/112 108/108/108 111/111/111 
f 111/111/111 108/108/108 107/107/107 
f 96/96/96 95/95/95 97/97/97 
f 97/97/97 95/95/95 98/98/98 
f 29/29/29 27/27/27 30/30/30 
f 30/30/30 27/27/27 28/28/28 
f 64/64/64 61/61/61 66/66/66 
f 66/66/66 61/61/61 62/62/62 
f 149/149/149 150/150/150 145/145/145 
f 145/145/145 150/150/150 143/143/143 
f 142/142/142 141/141/141 144/144/144 
f 144/144/144 141/141/141 146/146/146 
f 175/175/175 176/176/176 177/177/177 
f 177/177/177 176/176/176 178/178/178 
f 179/179/179 180/180/180 181/181/181 
f 181/181/181 180/180/180 182/182/182 
f 183/183/183 33/33/33 184/184/184 
f 184/184/184 33/33/33 34/34/34 
f 185/185/185 186/186/186 187/187/187 
f 187/187/187 186/186/186 188/188/188 
f 189/189/189 190/190/190 170/170/170 
f 170/170/170 190/190/190 169/169/169 
