v 0.8218772 2.5160170 1.0633810
vn 0.0000000 -0.4999996 -0.8660256
vt 0.8377590 6.2380848
v 1.1575370 2.5160170 1.0633810
vn 0.0000000 -0.4999996 -0.8660256
vt 0.4525003 6.2380848
v 0.8219766 2.3689079 1.0841410
vn 0.0000000 -0.0716814 -0.9974276
vt 0.8377591 6.4329162
v 1.1576370 2.3689079 1.0841410
vn 0.0000000 -0.0716814 -0.9974276
vt 0.4525003 6.4329152
v 0.8218772 2.6237810 0.9556165
vn 0.0000000 -0.8660250 -0.5000007
vt 0.8377591 6.0371318
v 1.1575370 2.6237810 0.9556165
vn 0.0000000 -0.8660250 -0.5000007
vt 0.4525004 6.0371318
v 0.8218772 2.6632259 0.8084079
vn 0.0000000 -1.0000000 0.0000000
vt 0.8377591 5.8244729
v 1.1575370 2.6632259 0.8084079
vn 0.0000000 -1.0000000 0.0000000
vt 0.4525003 5.8244729
v 0.8218772 2.6237810 0.6611993
vn 0.0000000 -0.8660309 0.4999904
vt 0.8377591 5.6143899
v 1.1575370 2.6237810 0.6611993
vn 0.0000000 -0.8660309 0.4999904
vt 0.4525003 5.6143899
v 1.1575370 1.8628070 0.0669246
vn 0.0000000 -0.1029485 0.9946867
vt 0.4525002 4.4498348
v 0.8218772 1.8628070 0.0669246
vn 0.0000000 -0.1029485 0.9946867
vt 0.8377588 4.4480019
v 0.8218772 -1.8628070 0.0669246
vn 0.0000000 0.3270275 0.9450148
vt 0.8368762 0.0958362
v 1.1575370 -1.8628070 0.0669246
vn 0.0000000 0.3270275 0.9450148
vt 0.4525003 0.0945611
v 0.8218772 -2.5809410 0.4171234
vn 0.0000000 0.5832502 0.8122926
vt 0.8377587 13.1164598
v 1.1575370 -2.5809410 0.4171234
vn 0.0000000 0.5832502 0.8122926
vt 0.4525004 13.1164598
v 0.8218772 -1.8628070 0.0669246
vn 0.0000000 0.3270275 0.9450148
vt 0.8377588 14.0000000
v 1.1575370 -1.8628070 0.0669246
vn 0.0000000 0.3270275 0.9450148
vt 0.4525003 14.0000000
v 0.8218772 -2.6931000 0.5292828
vn 0.0000000 0.8660249 0.5000009
vt 0.8377581 12.8933601
v 1.1575370 -2.6931000 0.5292828
vn 0.0000000 0.8660249 0.5000009
vt 0.4525011 12.8933601
v 0.8218772 -2.7341530 0.6824954
vn 0.0000000 1.0000000 0.0000000
vt 0.8377589 12.6783400
v 1.1575370 -2.7341530 0.6824954
vn 0.0000000 1.0000000 0.0000000
vt 0.4525013 12.6783400
v 0.8218772 -2.6931000 0.8357080
vn 0.0000000 0.8660250 -0.5000007
vt 0.8377581 12.4601603
v 1.1575370 -2.6931000 0.8357080
vn 0.0000000 0.8660250 -0.5000007
vt 0.4525019 12.4601603
v 0.8218772 -2.5809410 0.9478673
vn 0.0000000 0.4999999 -0.8660254
vt 0.8377588 12.2387400
v 1.1575370 -2.5809410 0.9478673
vn 0.0000000 0.4999999 -0.8660254
vt 0.4525010 12.2387400
v 0.8219766 -2.4276280 0.9702367
vn 0.0000000 0.1113963 -0.9937761
vt 0.8377592 12.0195398
v 1.1576370 -2.4276280 0.9702367
vn 0.0000000 0.1113963 -0.9937761
vt 0.4525007 12.0195398
v 1.1575370 2.5446720 1.1130130
vn 1.0000000 0.0000000 0.0000000
vt 0.3865752 6.2380848
v 1.1576370 2.3720810 1.1421180
vn 1.0000000 0.0000000 0.0000000
vt 0.3865741 6.4329162
v 1.1575370 2.5160170 1.0633810
vn 1.0000000 0.0000000 0.0000000
vt 0.4524997 6.2380848
v 1.1576370 2.3689079 1.0841410
vn 1.0000000 0.0000000 0.0000000
vt 0.4525003 6.4329162
v 1.1575370 2.6734121 0.9842712
vn 1.0000000 0.0000000 0.0000000
vt 0.3865743 6.0371318
v 1.1575370 2.6237810 0.9556165
vn 1.0000000 0.0000000 0.0000000
vt 0.4525000 6.0371318
v 1.1575370 2.7226210 0.8084079
vn 1.0000000 0.0000000 0.0000000
vt 0.3865740 5.8244739
v 1.1575370 2.6632259 0.8084079
vn 1.0000000 0.0000000 0.0000000
vt 0.4524999 5.8244729
v 1.1575370 2.6237810 0.6611993
vn 1.0000000 0.0000000 0.0000000
vt 0.4525007 5.6143909
v 1.1575370 2.6734130 0.6325443
vn 1.0000000 0.0000000 0.0000000
vt 0.3865751 5.6143909
v 1.1575370 1.8628070 0.0669246
vn 1.0000000 0.0000000 0.0000000
vt 0.4525004 4.4535432
v 1.1575360 1.8799160 0.0000000
vn 1.0000000 0.0000000 0.0000000
vt 0.3865743 4.4575968
v 1.1575381 -1.8772970 0.0000000
vn 1.0000000 0.0000000 0.0000000
vt 0.3865750 0.0885119
v 1.1575370 -1.8628070 0.0669246
vn 1.0000000 0.0000000 0.0000000
vt 0.4525005 0.0925670
v 1.1575370 -2.5809410 0.4171234
vn 1.0000000 0.0000000 0.0000000
vt 0.4525003 13.1164598
v 1.1575370 -2.6155410 0.3697940
vn 1.0000000 0.0000000 0.0000000
vt 0.3865746 13.1164598
v 1.1575370 -1.8628070 0.0669246
vn 1.0000000 0.0000000 0.0000000
vt 0.4525005 14.0000000
v 1.1575381 -1.8772970 0.0000000
vn 1.0000000 0.0000000 0.0000000
vt 0.3865749 14.0000000
v 1.1575370 -2.7471919 0.5006277
vn 1.0000000 0.0000000 0.0000000
vt 0.3865750 12.8933601
v 1.1575370 -2.6931000 0.5292828
vn 1.0000000 0.0000000 0.0000000
vt 0.4525011 12.8933601
v 1.1575381 -2.7973790 0.6824953
vn 1.0000000 0.0000000 0.0000000
vt 0.3865744 12.6783400
v 1.1575370 -2.7341530 0.6824954
vn 1.0000000 0.0000000 0.0000000
vt 0.4525007 12.6783400
v 1.1575370 -2.6931000 0.8357080
vn 1.0000000 0.0000000 0.0000000
vt 0.4525003 12.4601603
v 1.1575370 -2.7471910 0.8643629
vn 1.0000000 0.0000000 0.0000000
vt 0.3865739 12.4601603
v 1.1575370 -2.5809410 0.9478673
vn 1.0000000 0.0000000 0.0000000
vt 0.4525009 12.2387400
v 1.1575370 -2.6095951 0.9974992
vn 1.0000000 0.0000000 0.0000000
vt 0.3865740 12.2387400
v 1.1576370 -2.4276280 0.9702367
vn 1.0000000 0.0000000 0.0000000
vt 0.4525005 12.0195398
v 1.1576370 -2.4334669 1.0285010
vn 1.0000000 0.0000000 0.0000000
vt 0.3865744 12.0195398
v 0.8219766 2.3689079 1.0841410
vn -1.0000000 0.0000000 0.0000000
vt 0.4525003 6.4329152
v 0.8219766 2.3720810 1.1421180
vn -1.0000000 0.0000000 0.0000000
vt 0.3865747 6.4329162
v 0.8218772 2.5160170 1.0633810
vn -1.0000000 0.0000000 0.0000000
vt 0.4525003 6.2380848
v 0.8218820 2.5446720 1.1130130
vn -1.0000000 0.0000000 0.0000000
vt 0.3865746 6.2380848
v 0.8218819 2.6734121 0.9842712
vn -1.0000000 0.0000000 0.0000000
vt 0.3865748 6.0371318
v 0.8218772 2.6237810 0.9556165
vn -1.0000000 0.0000000 0.0000000
vt 0.4525003 6.0371318
v 0.8218772 2.6632259 0.8084079
vn -1.0000000 0.0000000 0.0000000
vt 0.4525003 5.8244729
v 0.8218868 2.7226210 0.8084079
vn -1.0000000 0.0000000 0.0000000
vt 0.3865748 5.8244729
v 0.8218822 2.6734130 0.6325443
vn -1.0000000 0.0000000 0.0000000
vt 0.3865747 5.6143899
v 0.8218772 2.6237810 0.6611993
vn -1.0000000 0.0000000 0.0000000
vt 0.4525006 5.6143909
v 0.8218772 1.8628070 0.0669246
vn -1.0000000 0.0000000 0.0000000
vt 0.4525002 4.4535451
v 0.8218848 1.8799160 0.0000000
vn -1.0000000 0.0000000 0.0000000
vt 0.3865745 4.4575992
v 0.8218772 -1.8628070 0.0669246
vn -1.0000000 0.0000000 0.0000000
vt 0.4525003 0.0925660
v 0.8218819 -1.8772970 0.0000000
vn -1.0000000 0.0000000 0.0000000
vt 0.3865746 0.0885110
v 0.8218772 -2.5809410 0.4171234
vn -1.0000000 0.0000000 0.0000000
vt 0.4525002 13.1164598
v 0.8218772 -1.8628070 0.0669246
vn -1.0000000 0.0000000 0.0000000
vt 0.4525002 14.0000000
v 0.8218772 -2.6155410 0.3697940
vn -1.0000000 0.0000000 0.0000000
vt 0.3865752 13.1164598
v 0.8218819 -1.8772970 0.0000000
vn -1.0000000 0.0000000 0.0000000
vt 0.3865746 14.0000000
v 0.8218772 -2.6931000 0.5292828
vn -1.0000000 0.0000000 0.0000000
vt 0.4525009 12.8933601
v 0.8218822 -2.7471919 0.5006277
vn -1.0000000 0.0000000 0.0000000
vt 0.3865750 12.8933496
v 0.8218772 -2.7341530 0.6824954
vn -1.0000000 0.0000000 0.0000000
vt 0.4525007 12.6783400
v 0.8218865 -2.7973790 0.6824953
vn -1.0000000 0.0000000 0.0000000
vt 0.3865744 12.6783400
v 0.8218864 -2.7471910 0.8643629
vn -1.0000000 0.0000000 0.0000000
vt 0.3865746 12.4601603
v 0.8218772 -2.6931000 0.8357080
vn -1.0000000 0.0000000 0.0000000
vt 0.4524997 12.4601603
v 0.8218772 -2.6095951 0.9974992
vn -1.0000000 0.0000000 0.0000000
vt 0.3865744 12.2387400
v 0.8218772 -2.5809410 0.9478673
vn -1.0000000 0.0000000 0.0000000
vt 0.4525003 12.2387400
v 0.8219766 -2.4334669 1.0285010
vn -1.0000000 0.0000000 0.0000000
vt 0.3865744 12.0195398
v 0.8219766 -2.4276280 0.9702367
vn -1.0000000 0.0000000 0.0000000
vt 0.4525008 12.0195398
v 1.1576370 -2.4334669 1.0285010
vn 0.0000000 -0.1190848 0.9928841
vt 0.3865743 12.0195398
v 1.1576370 2.3720810 1.1421180
vn 0.0000000 0.0770775 0.9970251
vt 0.3865747 6.4329162
v 0.8219766 -2.4334669 1.0285010
vn 0.0000000 -0.1190848 0.9928841
vt 0.0000000 12.0195398
v 0.8219766 2.3720810 1.1421180
vn 0.0000000 0.0770775 0.9970251
vt 0.0000000 6.4329162
v 0.8218772 -2.6095951 0.9974992
vn 0.0000000 -0.4986268 0.8668168
vt 0.0000000 12.2387400
v 1.1575370 -2.6095951 0.9974992
vn 0.0000000 -0.4986268 0.8668168
vt 0.3865747 12.2387400
v 0.8218864 -2.7471910 0.8643629
vn 0.0000000 -0.8599812 0.5103257
vt 0.0000000 12.4601603
v 1.1575370 -2.7471910 0.8643629
vn 0.0000000 -0.8599812 0.5103257
vt 0.3865741 12.4601603
v 0.8218865 -2.7973790 0.6824953
vn 0.0000000 -1.0000000 0.0000000
vt 0.0000000 12.6783400
v 1.1575381 -2.7973790 0.6824953
vn 0.0000000 -1.0000000 0.0000000
vt 0.3865746 12.6783400
v 0.8218822 -2.7471919 0.5006277
vn 0.0000000 -0.8633715 -0.5045688
vt 0.0000000 12.8933601
v 1.1575370 -2.7471919 0.5006277
vn 0.0000000 -0.8633715 -0.5045688
vt 0.3865744 12.8933496
v 0.8218772 -2.6155410 0.3697940
vn 0.0000000 -0.5825251 -0.8128127
vt 0.0000000 13.1164598
v 1.1575370 -2.6155410 0.3697940
vn 0.0000000 -0.5825251 -0.8128127
vt 0.3865747 13.1164598
v 0.8218819 -1.8772970 0.0000000
vn 0.0000000 -0.1295522 -0.9915726
vt 0.0000000 14.0000000
v 1.1575381 -1.8772970 0.0000000
vn 0.0000000 -0.1295522 -0.9915726
vt 0.3865748 14.0000000
v 0.8218848 1.8799160 0.0000000
vn 0.0000000 0.4505264 -0.8927631
vt 0.0000000 4.4480019
v 1.1575360 1.8799160 0.0000000
vn 0.0000000 0.4505264 -0.8927631
vt 0.3865745 4.4480019
v 0.8218819 -1.8772970 0.0000000
vn 0.0000000 -0.1295522 -0.9915726
vt 0.0000000 0.0958362
v 1.1575381 -1.8772970 0.0000000
vn 0.0000000 -0.1295522 -0.9915726
vt 0.3865747 0.0958352
v 1.1575370 2.6734130 0.6325443
vn 0.0000000 0.8688921 -0.4950016
vt 0.3865747 5.6143899
v 0.8218822 2.6734130 0.6325443
vn 0.0000000 0.8688921 -0.4950016
vt 0.0000000 5.6143899
v 0.8218868 2.7226210 0.8084079
vn 0.0000000 1.0000000 0.0000000
vt 0.0000000 5.8244739
v 1.1575370 2.7226210 0.8084079
vn 0.0000000 1.0000000 0.0000000
vt 0.3865748 5.8244729
v 0.8218819 2.6734121 0.9842712
vn 0.0000000 0.8632542 0.5047694
vt 0.0000000 6.0371332
v 1.1575370 2.6734121 0.9842712
vn 0.0000000 0.8632542 0.5047694
vt 0.3865748 6.0371318
v 0.8218820 2.5446720 1.1130130
vn 0.0000000 0.5035375 0.8639734
vt 0.0000000 6.2380848
v 1.1575370 2.5446720 1.1130130
vn 0.0000000 0.5035375 0.8639734
vt 0.3865747 6.2380848
v 1.0103830 2.3688080 1.1028250
vn 0.9754622 -0.0152207 -0.2196404
vt 0.9768978 6.4335270
v 1.0103830 -2.4277279 0.9889206
vn 0.9755550 0.0233033 -0.2185164
vt 0.9768978 12.0201502
v 0.9897122 2.3637979 1.0112680
vn 0.9754622 -0.0152207 -0.2196404
vt 0.8637350 6.4335270
v 0.9897122 -2.4185059 0.8969107
vn 0.9755550 0.0233033 -0.2185164
vt 0.8637346 12.0201502
v 0.9897122 -2.5262990 0.4918657
vn 0.9752607 0.1278899 0.1803072
vt 0.8637346 13.1170797
v 1.0103830 -2.5809410 0.4171234
vn 0.9752607 0.1278899 0.1803072
vt 0.9768975 13.0792799
v 0.9897122 -1.8399240 0.1648252
vn 0.9708739 0.0272030 0.2380418
vt 0.8637356 14.0006104
v 1.0103830 -1.8628070 0.0622877
vn 0.9708739 0.0272030 0.2380418
vt 0.9768980 14.0006104
v 0.9897122 -1.8399240 0.1648252
vn 0.9708739 0.0272030 0.2380418
vt 0.8637350 0.0964463
v 1.0103830 -1.8628070 0.0622877
vn 0.9708739 0.0272030 0.2380418
vt 0.9768980 0.0898721
v 0.9897122 1.8357880 0.1620970
vn 0.9742480 -0.0954791 0.2042660
vt 0.8637347 4.4486132
v 1.0103830 1.8628060 0.0622874
vn 0.9742480 -0.0954791 0.2042660
vt 0.9768975 4.4939570
v 1.0103830 1.8628060 0.0622874
vn 0.9742480 -0.0954791 0.2042660
vt 0.9768975 4.4037271
v 1.0103830 2.5160170 0.5534349
vn 0.9748939 -0.1462923 0.1678706
vt 0.9768978 5.4133649
v 0.9897122 2.4531040 0.6227211
vn 0.9748939 -0.1462923 0.1678706
vt 0.8637348 5.4133649
v 1.0103830 2.6237810 0.6611993
vn 0.9757812 -0.1886988 0.1106520
vt 0.9768966 5.6150012
v 0.9897122 2.5454030 0.7064513
vn 0.9757812 -0.1886988 0.1106520
vt 0.8637347 5.6150012
v 0.9897122 2.5727220 0.8084079
vn 0.9748955 -0.2226630 0.0000000
vt 0.8637347 5.8250842
v 1.0103830 2.6632259 0.8084079
vn 0.9748955 -0.2226630 0.0000000
vt 0.9768975 5.8250842
v 0.9897122 2.5454021 0.9103645
vn 0.9748956 -0.1928313 -0.1113316
vt 0.8637352 6.0377440
v 1.0103830 2.6237810 0.9556165
vn 0.9748956 -0.1928313 -0.1113316
vt 0.9768975 6.0377440
v 0.9897122 2.4707651 0.9850020
vn 0.9752609 -0.1100030 -0.1917439
vt 0.8637348 6.2386961
v 1.0103830 2.5160170 1.0633810
vn 0.9752609 -0.1100030 -0.1917439
vt 0.9768976 6.2386961

g group_153553048_140627908658992
f 1/1/1 2/2/2 3/3/3 
f 3/3/3 2/2/2 4/4/4 
f 5/5/5 6/6/6 1/1/1 
f 1/1/1 6/6/6 2/2/2 
f 7/7/7 8/8/8 5/5/5 
f 5/5/5 8/8/8 6/6/6 
f 9/9/9 10/10/10 7/7/7 
f 7/7/7 10/10/10 8/8/8 
f 10/10/10 9/9/9 11/11/11 
f 11/11/11 9/9/9 12/12/12 
f 13/13/13 14/14/14 12/12/12 
f 12/12/12 14/14/14 11/11/11 
f 15/15/15 16/16/16 17/17/17 
f 17/17/17 16/16/16 18/18/18 
f 19/19/19 20/20/20 15/15/15 
f 15/15/15 20/20/20 16/16/16 
f 21/21/21 22/22/22 19/19/19 
f 19/19/19 22/22/22 20/20/20 
f 23/23/23 24/24/24 21/21/21 
f 21/21/21 24/24/24 22/22/22 
f 25/25/25 26/26/26 23/23/23 
f 23/23/23 26/26/26 24/24/24 
f 27/27/27 28/28/28 25/25/25 
f 25/25/25 28/28/28 26/26/26 
f 28/28/28 27/27/27 4/4/4 
f 4/4/4 27/27/27 3/3/3 
f 29/29/29 30/30/30 31/31/31 
f 31/31/31 30/30/30 32/32/32 
f 29/29/29 31/31/31 33/33/33 
f 33/33/33 31/31/31 34/34/34 
f 35/35/35 33/33/33 36/36/36 
f 36/36/36 33/33/33 34/34/34 
f 37/37/37 38/38/38 36/36/36 
f 36/36/36 38/38/38 35/35/35 
f 37/37/37 39/39/39 38/38/38 
f 38/38/38 39/39/39 40/40/40 
f 40/40/40 39/39/39 41/41/41 
f 41/41/41 39/39/39 42/42/42 
f 43/43/43 44/44/44 45/45/45 
f 45/45/45 44/44/44 46/46/46 
f 47/47/47 44/44/44 48/48/48 
f 48/48/48 44/44/44 43/43/43 
f 49/49/49 47/47/47 50/50/50 
f 50/50/50 47/47/47 48/48/48 
f 51/51/51 52/52/52 50/50/50 
f 50/50/50 52/52/52 49/49/49 
f 53/53/53 54/54/54 51/51/51 
f 51/51/51 54/54/54 52/52/52 
f 55/55/55 56/56/56 53/53/53 
f 53/53/53 56/56/56 54/54/54 
f 56/56/56 55/55/55 30/30/30 
f 30/30/30 55/55/55 32/32/32 
f 57/57/57 58/58/58 59/59/59 
f 59/59/59 58/58/58 60/60/60 
f 61/61/61 62/62/62 60/60/60 
f 60/60/60 62/62/62 59/59/59 
f 62/62/62 61/61/61 63/63/63 
f 63/63/63 61/61/61 64/64/64 
f 64/64/64 65/65/65 63/63/63 
f 63/63/63 65/65/65 66/66/66 
f 66/66/66 65/65/65 67/67/67 
f 67/67/67 65/65/65 68/68/68 
f 69/69/69 67/67/67 70/70/70 
f 70/70/70 67/67/67 68/68/68 
f 71/71/71 72/72/72 73/73/73 
f 73/73/73 72/72/72 74/74/74 
f 71/71/71 73/73/73 75/75/75 
f 75/75/75 73/73/73 76/76/76 
f 75/75/75 76/76/76 77/77/77 
f 77/77/77 76/76/76 78/78/78 
f 78/78/78 79/79/79 77/77/77 
f 77/77/77 79/79/79 80/80/80 
f 79/79/79 81/81/81 80/80/80 
f 80/80/80 81/81/81 82/82/82 
f 81/81/81 83/83/83 82/82/82 
f 82/82/82 83/83/83 84/84/84 
f 57/57/57 84/84/84 58/58/58 
f 58/58/58 84/84/84 83/83/83 
f 85/85/85 86/86/86 87/87/87 
f 87/87/87 86/86/86 88/88/88 
f 89/89/89 90/90/90 87/87/87 
f 87/87/87 90/90/90 85/85/85 
f 91/91/91 92/92/92 89/89/89 
f 89/89/89 92/92/92 90/90/90 
f 93/93/93 94/94/94 91/91/91 
f 91/91/91 94/94/94 92/92/92 
f 95/95/95 96/96/96 93/93/93 
f 93/93/93 96/96/96 94/94/94 
f 97/97/97 98/98/98 95/95/95 
f 95/95/95 98/98/98 96/96/96 
f 99/99/99 100/100/100 97/97/97 
f 97/97/97 100/100/100 98/98/98 
f 101/101/101 102/102/102 103/103/103 
f 103/103/103 102/102/102 104/104/104 
f 105/105/105 102/102/102 106/106/106 
f 106/106/106 102/102/102 101/101/101 
f 107/107/107 108/108/108 106/106/106 
f 106/106/106 108/108/108 105/105/105 
f 109/109/109 110/110/110 107/107/107 
f 107/107/107 110/110/110 108/108/108 
f 111/111/111 112/112/112 109/109/109 
f 109/109/109 112/112/112 110/110/110 
f 88/88/88 86/86/86 111/111/111 
f 111/111/111 86/86/86 112/112/112 
f 113/113/113 114/114/114 115/115/115 
f 115/115/115 114/114/114 116/116/116 
f 117/117/117 118/118/118 119/119/119 
f 119/119/119 118/118/118 120/120/120 
f 121/121/121 122/122/122 123/123/123 
f 123/123/123 122/122/122 124/124/124 
f 125/125/125 126/126/126 123/123/123 
f 123/123/123 126/126/126 127/127/127 
f 128/128/128 129/129/129 126/126/126 
f 126/126/126 129/129/129 127/127/127 
f 130/130/130 129/129/129 131/131/131 
f 131/131/131 129/129/129 128/128/128 
f 132/132/132 130/130/130 133/133/133 
f 133/133/133 130/130/130 131/131/131 
f 134/134/134 132/132/132 135/135/135 
f 135/135/135 132/132/132 133/133/133 
f 135/135/135 113/113/113 134/134/134 
f 134/134/134 113/113/113 115/115/115 
