v 1.1231840 -0.9092928 0.6000143
vn 0.0000000 0.5150572 0.8571558
vt 0.9818234 0.4835960
v 1.1231840 -0.8039060 0.4908816
vn 0.0000000 0.8746221 0.4848053
vt 0.9818234 0.4648721
v 0.8635938 -0.9092928 0.6000143
vn 0.0000000 0.5150572 0.8571558
vt 0.9497827 0.4835960
v 0.8635938 -0.8039060 0.4908816
vn 0.0000000 0.8746221 0.4848053
vt 0.9497827 0.4648721
v 1.1231840 -0.7672047 0.3436786
vn 0.0000000 0.9998477 -0.0174561
vt 0.9818234 0.4461479
v 0.8635938 -0.7672047 0.3436786
vn 0.0000000 0.9998477 -0.0174561
vt 0.9497827 0.4461480
v 1.1231840 -0.7672047 0.3436786
vn 0.0000000 0.9998477 -0.0174561
vt 0.9818234 0.5023198
v 1.1231840 -0.8090231 0.1978428
vn 0.0000000 0.8571759 -0.5150238
vt 0.9818234 0.4835960
v 0.8635938 -0.7672047 0.3436786
vn 0.0000000 0.9998477 -0.0174561
vt 0.9497825 0.5023197
v 0.8635938 -0.8090231 0.1978428
vn 0.0000000 0.8571759 -0.5150238
vt 0.9497827 0.4835960
v 1.1231840 -0.9181459 0.0924562
vn 0.0000000 0.4848265 -0.8746104
vt 0.9818234 0.4648721
v 0.8635938 -0.9181459 0.0924562
vn 0.0000000 0.4848265 -0.8746104
vt 0.9497827 0.4648721
v 1.1231840 -1.0653510 0.0557537
vn 0.0000000 -0.0174528 -0.9998477
vt 0.9818234 0.4461482
v 0.8635938 -1.0653510 0.0557537
vn 0.0000000 -0.0174528 -0.9998477
vt 0.9497827 0.4461482
v 1.1231840 -1.0653510 0.0557537
vn 0.0000000 -0.0174528 -0.9998477
vt 0.9818234 0.5023198
v 1.1231840 -1.2111861 0.0975712
vn 0.0000000 -0.5150183 -0.8571792
vt 0.9818234 0.4835960
v 0.8635938 -1.0653510 0.0557537
vn 0.0000000 -0.0174528 -0.9998477
vt 0.9497827 0.5023198
v 0.8635938 -1.2111861 0.0975712
vn 0.0000000 -0.5150183 -0.8571792
vt 0.9497827 0.4835960
v 1.1231840 -1.3165820 0.2067020
vn 0.0000000 -0.8746247 -0.4848006
vt 0.9818234 0.4648721
v 0.8635938 -1.3165820 0.2067020
vn 0.0000000 -0.8746247 -0.4848006
vt 0.9497827 0.4648721
v 1.1231840 -1.3532740 0.3539093
vn 0.0000000 -0.9998477 0.0174581
vt 0.9818234 0.4461482
v 0.8635938 -1.3532740 0.3539093
vn 0.0000000 -0.9998477 0.0174581
vt 0.9497824 0.4461483
v 1.1231840 -1.3532740 0.3539093
vn 0.0000000 -0.9998477 0.0174581
vt 0.9818234 0.5023198
v 1.1231840 -1.3114650 0.4997444
vn 0.0000000 -0.8571709 0.5150321
vt 0.9818234 0.4835960
v 0.8635938 -1.3532740 0.3539093
vn 0.0000000 -0.9998477 0.0174581
vt 0.9497831 0.5023198
v 0.8635938 -1.3114650 0.4997444
vn 0.0000000 -0.8571709 0.5150321
vt 0.9497827 0.4835960
v 1.1231840 -1.2023230 0.6051330
vn 0.0000000 -0.4847897 0.8746307
vt 0.9818234 0.4648721
v 0.8635938 -1.2023230 0.6051330
vn 0.0000000 -0.4847897 0.8746307
vt 0.9497827 0.4648721
v 1.1231840 -1.0551180 0.6418349
vn 0.0000000 0.0174730 0.9998474
vt 0.9818234 0.4461482
v 0.8635938 -1.0551180 0.6418349
vn 0.0000000 0.0174730 0.9998474
vt 0.9497827 0.4461482
v 1.1231840 -1.0551180 0.6418349
vn 0.0000000 0.0174730 0.9998474
vt 0.9818234 0.5023198
v 0.8635938 -1.0551180 0.6418349
vn 0.0000000 0.0174730 0.9998474
vt 0.9497827 0.5023198
v 0.8635938 -1.0653510 0.0557537
vn -1.0000000 0.0000000 0.0000000
vt 0.3809926 0.7051984
v 0.8635938 -1.2111861 0.0975712
vn -1.0000000 0.0000000 0.0000000
vt 0.3980534 0.7006271
v 0.8635938 -0.9181459 0.0924562
vn -1.0000000 0.0000000 0.0000000
vt 0.3685034 0.7176880
v 0.8635938 -1.3165820 0.2067020
vn -1.0000000 0.0000000 0.0000000
vt 0.4151143 0.7051986
v 0.8635938 -1.3532740 0.3539093
vn -1.0000000 0.0000000 0.0000000
vt 0.4276034 0.7176878
v 0.8635938 -1.3114650 0.4997444
vn -1.0000000 0.0000000 0.0000000
vt 0.4321747 0.7347487
v 0.8635938 -1.2023230 0.6051330
vn -1.0000000 0.0000000 0.0000000
vt 0.4276035 0.7518095
v 0.8635938 -1.0551180 0.6418349
vn -1.0000000 0.0000000 0.0000000
vt 0.4151143 0.7642989
v 0.8635938 -0.9092928 0.6000143
vn -1.0000000 0.0000000 0.0000000
vt 0.3980534 0.7688705
v 0.8635938 -0.8039060 0.4908816
vn -1.0000000 0.0000000 0.0000000
vt 0.3809926 0.7642990
v 0.8635938 -0.7672047 0.3436786
vn -1.0000000 0.0000000 0.0000000
vt 0.3685034 0.7518095
v 0.8635938 -0.8090231 0.1978428
vn -1.0000000 0.0000000 0.0000000
vt 0.3639315 0.7347487
v 1.1231840 -1.0551180 0.6418349
vn 1.0000000 0.0000000 0.0000000
vt 0.6757684 0.3165115
v 1.1231840 -1.2023230 0.6051330
vn 1.0000000 0.0000000 0.0000000
vt 0.6948428 0.3114004
v 1.1231840 -0.9092928 0.6000143
vn 1.0000000 0.0000000 0.0000000
vt 0.6566939 0.3114004
v 1.1231840 -1.3114650 0.4997444
vn 1.0000000 0.0000000 0.0000000
vt 0.7088060 0.2974369
v 1.1231840 -1.3532740 0.3539093
vn 1.0000000 0.0000000 0.0000000
vt 0.7139168 0.2783625
v 1.1231840 -1.3165820 0.2067020
vn 1.0000000 0.0000000 0.0000000
vt 0.7088060 0.2592882
v 1.1231840 -1.2111861 0.0975712
vn 1.0000000 0.0000000 0.0000000
vt 0.6948428 0.2453246
v 1.1231840 -1.0653510 0.0557537
vn 1.0000000 0.0000000 0.0000000
vt 0.6757684 0.2402137
v 1.1231840 -0.8039060 0.4908816
vn 1.0000000 0.0000000 0.0000000
vt 0.6427307 0.2974369
v 1.1231840 -0.9181459 0.0924562
vn 1.0000000 0.0000000 0.0000000
vt 0.6566939 0.2453246
v 1.1231840 -0.8090231 0.1978428
vn 1.0000000 0.0000000 0.0000000
vt 0.6427307 0.2592882
v 1.1231840 -0.7672047 0.3436786
vn 1.0000000 0.0000000 0.0000000
vt 0.6376193 0.2783625

g group_173624112_140627908224672
f 1/1/1 2/2/2 3/3/3 
f 3/3/3 2/2/2 4/4/4 
f 2/2/2 5/5/5 4/4/4 
f 4/4/4 5/5/5 6/6/6 
f 7/7/7 8/8/8 9/9/9 
f 9/9/9 8/8/8 10/10/10 
f 8/8/8 11/11/11 10/10/10 
f 10/10/10 11/11/11 12/12/12 
f 11/11/11 13/13/13 12/12/12 
f 12/12/12 13/13/13 14/14/14 
f 15/15/15 16/16/16 17/17/17 
f 17/17/17 16/16/16 18/18/18 
f 16/16/16 19/19/19 18/18/18 
f 18/18/18 19/19/19 20/20/20 
f 19/19/19 21/21/21 20/20/20 
f 20/20/20 21/21/21 22/22/22 
f 23/23/23 24/24/24 25/25/25 
f 25/25/25 24/24/24 26/26/26 
f 24/24/24 27/27/27 26/26/26 
f 26/26/26 27/27/27 28/28/28 
f 27/27/27 29/29/29 28/28/28 
f 28/28/28 29/29/29 30/30/30 
f 31/31/31 1/1/1 32/32/32 
f 32/32/32 1/1/1 3/3/3 
f 33/33/33 34/34/34 35/35/35 
f 34/34/34 36/36/36 35/35/35 
f 36/36/36 37/37/37 35/35/35 
f 37/37/37 38/38/38 35/35/35 
f 38/38/38 39/39/39 35/35/35 
f 39/39/39 40/40/40 35/35/35 
f 40/40/40 41/41/41 35/35/35 
f 41/41/41 42/42/42 35/35/35 
f 42/42/42 43/43/43 35/35/35 
f 43/43/43 44/44/44 35/35/35 
f 45/45/45 46/46/46 47/47/47 
f 46/46/46 48/48/48 47/47/47 
f 48/48/48 49/49/49 47/47/47 
f 49/49/49 50/50/50 47/47/47 
f 50/50/50 51/51/51 47/47/47 
f 51/51/51 52/52/52 47/47/47 
f 47/47/47 52/52/52 53/53/53 
f 52/52/52 54/54/54 53/53/53 
f 54/54/54 55/55/55 53/53/53 
f 55/55/55 56/56/56 53/53/53 
