v -0.9751855 0.0996316 0.9539275
vn 0.0000000 0.8746229 0.4848039
vt 0.9145420 0.4747687
v -0.8826660 0.0996316 0.9539275
vn 0.0000000 0.8746229 0.4848039
vt 0.9288688 0.4747687
v -0.9751855 0.0976693 0.8414972
vn 0.0000000 0.8571633 -0.5150448
vt 0.9145420 0.4921830
v -0.8826660 0.0976693 0.8414972
vn 0.0000000 0.8571633 -0.5150448
vt 0.9288688 0.4921830
v -0.9751855 0.0976693 0.8414972
vn 0.0000000 0.8571633 -0.5150448
vt 0.9145341 0.4573529
v -0.8826660 0.0976693 0.8414972
vn 0.0000000 0.8571633 -0.5150448
vt 0.9288619 0.4573529
v -0.9751855 -0.0006797 0.7869836
vn 0.0000000 -0.0174703 -0.9998474
vt 0.9145341 0.4747687
v -0.8826660 -0.0006797 0.7869836
vn 0.0000000 -0.0174703 -0.9998474
vt 0.9288619 0.4747687
v -0.9751855 -0.0970657 0.8449006
vn 0.0000000 -0.8746224 -0.4848049
vt 0.9145341 0.4921845
v -0.8826660 -0.0970657 0.8449006
vn 0.0000000 -0.8746224 -0.4848049
vt 0.9288619 0.4921845
v -0.9751855 -0.0970657 0.8449006
vn 0.0000000 -0.8746224 -0.4848049
vt 0.9145384 0.4573505
v -0.8826660 -0.0970657 0.8449006
vn 0.0000000 -0.8746224 -0.4848049
vt 0.9288688 0.4573505
v -0.9751855 -0.0951040 0.9573308
vn 0.0000000 -0.8571646 0.5150425
vt 0.9145384 0.4747687
v -0.8826660 -0.0951040 0.9573308
vn 0.0000000 -0.8571646 0.5150425
vt 0.9288688 0.4747687
v -0.9751855 0.0032452 1.0118440
vn 0.0000000 0.0174688 0.9998474
vt 0.9145384 0.4921871
v -0.8826660 0.0032451 1.0118440
vn 0.0000000 0.0174688 0.9998474
vt 0.9288688 0.4921871
v -0.9751855 0.0032452 1.0118440
vn 0.0000000 0.0174688 0.9998474
vt 0.9145420 0.4573543
v -0.8826660 0.0032451 1.0118440
vn 0.0000000 0.0174688 0.9998474
vt 0.9288688 0.4573543
v -0.9751855 -0.0006797 0.7869836
vn -1.0000000 0.0000000 0.0000000
vt 0.7152741 0.3018175
v -0.9751855 -0.0951040 0.9573308
vn -1.0000000 0.0000000 0.0000000
vt 0.7303553 0.3279387
v -0.9751855 0.0996316 0.9539275
vn -1.0000000 0.0000000 0.0000000
vt 0.7001932 0.3279387
v -0.9751855 0.0032452 1.0118440
vn -1.0000000 0.0000000 0.0000000
vt 0.7152741 0.3366460
v -0.9751855 -0.0970657 0.8449006
vn -1.0000000 0.0000000 0.0000000
vt 0.7303553 0.3105247
v -0.9751855 0.0976693 0.8414972
vn -1.0000000 0.0000000 0.0000000
vt 0.7001932 0.3105247

g group_153562584_140627934502032
f 1/1/1 2/2/2 3/3/3 
f 2/2/2 4/4/4 3/3/3 
f 5/5/5 6/6/6 7/7/7 
f 6/6/6 8/8/8 7/7/7 
f 7/7/7 8/8/8 9/9/9 
f 8/8/8 10/10/10 9/9/9 
f 11/11/11 12/12/12 13/13/13 
f 12/12/12 14/14/14 13/13/13 
f 13/13/13 14/14/14 15/15/15 
f 14/14/14 16/16/16 15/15/15 
f 17/17/17 18/18/18 1/1/1 
f 18/18/18 2/2/2 1/1/1 
f 19/19/19 20/20/20 21/21/21 
f 20/20/20 22/22/22 21/21/21 
f 20/20/20 19/19/19 23/23/23 
f 19/19/19 21/21/21 24/24/24 
