v -1.1035841 -2.1596980 0.8310583
vn 0.0000000 0.7986414 0.6018072
vt 0.9246129 0.5285560
v -0.8862793 -2.1596980 0.8310583
vn 0.0000000 0.7986414 0.6018072
vt 0.8977800 0.5285560
v -1.1035841 -2.1213019 0.6771843
vn 0.0000000 0.9925472 0.1218611
vt 0.9246129 0.5485772
v -0.8862793 -2.1213019 0.6771843
vn 0.0000000 0.9925472 0.1218611
vt 0.8977798 0.5485772
v -1.1035841 -2.1650219 0.5246328
vn 0.0000000 0.9205238 -0.3906866
vt 0.9246129 0.5285560
v -0.8862793 -2.1650219 0.5246328
vn 0.0000000 0.9205238 -0.3906866
vt 0.8977800 0.5285560
v -1.1035841 -2.2791531 0.4144790
vn 0.0000000 0.6018559 -0.7986047
vt 0.9246129 0.5485772
v -0.8862793 -2.2791531 0.4144790
vn 0.0000000 0.6018559 -0.7986047
vt 0.8977795 0.5485772
v -1.1035841 -2.4330139 0.3761006
vn 0.0000000 0.1218648 -0.9925467
vt 0.9246129 0.5285560
v -0.8862793 -2.4330139 0.3761006
vn 0.0000000 0.1218648 -0.9925467
vt 0.8977800 0.5285560
v -1.1035841 -2.5856330 0.4198562
vn 0.0000000 -0.3907331 -0.9205041
vt 0.9246129 0.5485772
v -0.8862793 -2.5856330 0.4198562
vn 0.0000000 -0.3907331 -0.9205041
vt 0.8977800 0.5485772
v -1.1035841 -2.6957681 0.5339561
vn 0.0000000 -0.7986373 -0.6018128
vt 0.9246129 0.5285560
v -0.8862793 -2.6957681 0.5339561
vn 0.0000000 -0.7986373 -0.6018128
vt 0.8977800 0.5285560
v -1.1035841 -2.7341650 0.6878253
vn 0.0000000 -0.9925472 -0.1218611
vt 0.9246129 0.5485772
v -0.8862793 -2.7341650 0.6878253
vn 0.0000000 -0.9925472 -0.1218611
vt 0.8977798 0.5485772
v -1.1035841 -2.6904249 0.8403730
vn 0.0000000 -0.9204995 0.3907437
vt 0.9246129 0.5285560
v -0.8862793 -2.6904249 0.8403730
vn 0.0000000 -0.9204995 0.3907437
vt 0.8977800 0.5285560
v -1.1035841 -2.5762961 0.9505173
vn 0.0000000 -0.6018218 0.7986304
vt 0.9246129 0.5485772
v -0.8862793 -2.5762961 0.9505173
vn 0.0000000 -0.6018218 0.7986304
vt 0.8977798 0.5485772
v -1.1035841 -2.4224150 0.9889015
vn 0.0000000 -0.1218872 0.9925440
vt 0.9246129 0.5285560
v -0.8862793 -2.4224150 0.9889015
vn 0.0000000 -0.1218872 0.9925440
vt 0.8977800 0.5285560
v -1.1035841 -2.2698450 0.9450983
vn 0.0000000 0.3907363 0.9205027
vt 0.9246129 0.5485772
v -0.8862793 -2.2698450 0.9450983
vn 0.0000000 0.3907363 0.9205027
vt 0.8977800 0.5485772
v -0.8862793 -2.2698450 0.9450983
vn 1.0000000 0.0000000 0.0000000
vt 0.7603991 0.3196000
v -0.8862793 -2.4224150 0.9889015
vn 1.0000000 0.0000000 0.0000000
vt 0.7809334 0.3140979
v -0.8862793 -2.1596980 0.8310583
vn 1.0000000 0.0000000 0.0000000
vt 0.7398642 0.3140980
v -0.8862793 -2.1213019 0.6771843
vn 1.0000000 0.0000000 0.0000000
vt 0.7248318 0.2990656
v -0.8862793 -2.1650219 0.5246328
vn 1.0000000 0.0000000 0.0000000
vt 0.7193298 0.2785311
v -0.8862793 -2.2791531 0.4144790
vn 1.0000000 0.0000000 0.0000000
vt 0.7248318 0.2579963
v -0.8862793 -2.5762961 0.9505173
vn 1.0000000 0.0000000 0.0000000
vt 0.7959658 0.2990658
v -0.8862793 -2.4330139 0.3761006
vn 1.0000000 0.0000000 0.0000000
vt 0.7398642 0.2429638
v -0.8862793 -2.5856330 0.4198562
vn 1.0000000 0.0000000 0.0000000
vt 0.7603992 0.2374615
v -0.8862793 -2.6957681 0.5339561
vn 1.0000000 0.0000000 0.0000000
vt 0.7809333 0.2429638
v -0.8862793 -2.7341650 0.6878253
vn 1.0000000 0.0000000 0.0000000
vt 0.7959658 0.2579963
v -0.8862793 -2.6904249 0.8403730
vn 1.0000000 0.0000000 0.0000000
vt 0.8014684 0.2785311
v -1.1035841 -2.2698450 0.9450983
vn -1.0000000 0.0000000 0.0000000
vt 0.8008315 0.3646269
v -1.1035841 -2.1596980 0.8310583
vn -1.0000000 0.0000000 0.0000000
vt 0.7953289 0.3851616
v -1.1035841 -2.4224150 0.9889015
vn -1.0000000 0.0000000 0.0000000
vt 0.7953289 0.3440921
v -1.1035841 -2.5762961 0.9505173
vn -1.0000000 0.0000000 0.0000000
vt 0.7802965 0.3290596
v -1.1035841 -2.6904249 0.8403730
vn -1.0000000 0.0000000 0.0000000
vt 0.7597623 0.3235573
v -1.1035841 -2.7341650 0.6878253
vn -1.0000000 0.0000000 0.0000000
vt 0.7392274 0.3290596
v -1.1035841 -2.6957681 0.5339561
vn -1.0000000 0.0000000 0.0000000
vt 0.7241949 0.3440921
v -1.1035841 -2.5856330 0.4198562
vn -1.0000000 0.0000000 0.0000000
vt 0.7186928 0.3646269
v -1.1035841 -2.4330139 0.3761006
vn -1.0000000 0.0000000 0.0000000
vt 0.7241949 0.3851614
v -1.1035841 -2.2791531 0.4144790
vn -1.0000000 0.0000000 0.0000000
vt 0.7392274 0.4001938
v -1.1035841 -2.1650219 0.5246328
vn -1.0000000 0.0000000 0.0000000
vt 0.7597623 0.4056958
v -1.1035841 -2.1213019 0.6771843
vn -1.0000000 0.0000000 0.0000000
vt 0.7802965 0.4001938
v -1.1035841 -2.1596980 0.8310583
vn 0.0000000 0.7986414 0.6018072
vt 0.9246129 0.5285560
v -0.8862793 -2.1596980 0.8310583
vn 0.0000000 0.7986414 0.6018072
vt 0.8977800 0.5285560
v -1.1035841 -2.1213019 0.6771843
vn 0.0000000 0.9925472 0.1218611
vt 0.9246129 0.5485772
v -0.8862793 -2.1213019 0.6771843
vn 0.0000000 0.9925472 0.1218611
vt 0.8977798 0.5485772
v -1.1035841 -2.1650219 0.5246328
vn 0.0000000 0.9205238 -0.3906866
vt 0.9246129 0.5285560
v -0.8862793 -2.1650219 0.5246328
vn 0.0000000 0.9205238 -0.3906866
vt 0.8977800 0.5285560
v -1.1035841 -2.2791531 0.4144790
vn 0.0000000 0.6018559 -0.7986047
vt 0.9246129 0.5485772
v -0.8862793 -2.2791531 0.4144790
vn 0.0000000 0.6018559 -0.7986047
vt 0.8977795 0.5485772
v -1.1035841 -2.4330139 0.3761006
vn 0.0000000 0.1218648 -0.9925467
vt 0.9246129 0.5285560
v -0.8862793 -2.4330139 0.3761006
vn 0.0000000 0.1218648 -0.9925467
vt 0.8977800 0.5285560
v -1.1035841 -2.5856330 0.4198562
vn 0.0000000 -0.3907331 -0.9205041
vt 0.9246129 0.5485772
v -0.8862793 -2.5856330 0.4198562
vn 0.0000000 -0.3907331 -0.9205041
vt 0.8977800 0.5485772
v -1.1035841 -2.6957681 0.5339561
vn 0.0000000 -0.7986373 -0.6018128
vt 0.9246129 0.5285560
v -0.8862793 -2.6957681 0.5339561
vn 0.0000000 -0.7986373 -0.6018128
vt 0.8977800 0.5285560
v -1.1035841 -2.7341650 0.6878253
vn 0.0000000 -0.9925472 -0.1218611
vt 0.9246129 0.5485772
v -0.8862793 -2.7341650 0.6878253
vn 0.0000000 -0.9925472 -0.1218611
vt 0.8977798 0.5485772
v -1.1035841 -2.6904249 0.8403730
vn 0.0000000 -0.9204995 0.3907437
vt 0.9246129 0.5285560
v -0.8862793 -2.6904249 0.8403730
vn 0.0000000 -0.9204995 0.3907437
vt 0.8977800 0.5285560
v -1.1035841 -2.5762961 0.9505173
vn 0.0000000 -0.6018218 0.7986304
vt 0.9246129 0.5485772
v -0.8862793 -2.5762961 0.9505173
vn 0.0000000 -0.6018218 0.7986304
vt 0.8977798 0.5485772
v -1.1035841 -2.4224150 0.9889015
vn 0.0000000 -0.1218872 0.9925440
vt 0.9246129 0.5285560
v -0.8862793 -2.4224150 0.9889015
vn 0.0000000 -0.1218872 0.9925440
vt 0.8977800 0.5285560
v -1.1035841 -2.2698450 0.9450983
vn 0.0000000 0.3907363 0.9205027
vt 0.9246129 0.5485772
v -0.8862793 -2.2698450 0.9450983
vn 0.0000000 0.3907363 0.9205027
vt 0.8977800 0.5485772

g group_153551368_140627908929184
f 1/1/1 2/2/2 3/3/3 
f 2/2/2 4/4/4 3/3/3 
f 51/51/51 52/52/52 5/5/5 
f 52/52/52 6/6/6 5/5/5 
f 53/53/53 54/54/54 7/7/7 
f 54/54/54 8/8/8 7/7/7 
f 55/55/55 56/56/56 9/9/9 
f 56/56/56 10/10/10 9/9/9 
f 57/57/57 58/58/58 11/11/11 
f 58/58/58 12/12/12 11/11/11 
f 59/59/59 60/60/60 13/13/13 
f 60/60/60 14/14/14 13/13/13 
f 61/61/61 62/62/62 15/15/15 
f 62/62/62 16/16/16 15/15/15 
f 63/63/63 64/64/64 17/17/17 
f 64/64/64 18/18/18 17/17/17 
f 65/65/65 66/66/66 19/19/19 
f 66/66/66 20/20/20 19/19/19 
f 67/67/67 68/68/68 21/21/21 
f 68/68/68 22/22/22 21/21/21 
f 69/69/69 70/70/70 23/23/23 
f 70/70/70 24/24/24 23/23/23 
f 71/71/71 72/72/72 49/49/49 
f 72/72/72 50/50/50 49/49/49 
f 25/25/25 26/26/26 27/27/27 
f 27/27/27 26/26/26 28/28/28 
f 28/28/28 26/26/26 29/29/29 
f 29/29/29 26/26/26 30/30/30 
f 26/26/26 31/31/31 30/30/30 
f 30/30/30 31/31/31 32/32/32 
f 32/32/32 31/31/31 33/33/33 
f 33/33/33 31/31/31 34/34/34 
f 34/34/34 31/31/31 35/35/35 
f 35/35/35 31/31/31 36/36/36 
f 37/37/37 38/38/38 39/39/39 
f 39/39/39 38/38/38 40/40/40 
f 40/40/40 38/38/38 41/41/41 
f 41/41/41 38/38/38 42/42/42 
f 42/42/42 38/38/38 43/43/43 
f 43/43/43 38/38/38 44/44/44 
f 44/44/44 38/38/38 45/45/45 
f 45/45/45 38/38/38 46/46/46 
f 46/46/46 38/38/38 47/47/47 
f 47/47/47 38/38/38 48/48/48 
