v 0.1019268 0.9776579 1.9862620
vn 0.0000000 0.2223046 0.9749773
vt 0.8124723 0.9552621
v 0.4507626 0.9776581 1.9862610
vn 0.0000000 0.2223046 0.9749773
vt 0.8124714 0.9982513
v 0.1019268 1.0110910 1.9786390
vn 0.0000000 0.2223046 0.9749773
vt 0.8082442 0.9552621
v 0.4507626 1.0110910 1.9786381
vn 0.0000000 0.2223046 0.9749773
vt 0.8082433 0.9982510
v 0.4507626 1.0110910 1.9786381
vn 1.0000000 0.0000000 0.0000000
vt 0.8082433 0.9552621
v 0.4507626 0.9776581 1.9862610
vn 1.0000000 0.0000000 0.0000000
vt 0.8099563 0.9513543
v 0.4507627 1.0565430 1.7470100
vn 1.0000000 0.0000000 0.0000000
vt 0.7791526 0.9552621
v 0.4507627 0.9669157 1.7112520
vn 1.0000000 0.0000000 0.0000000
vt 0.7769437 0.9435601
v 0.4507627 0.9669157 1.7112520
vn 0.0000000 0.3705603 -0.9288085
vt 0.7672679 0.9982439
v 0.1019268 0.9669154 1.7112520
vn 0.0000000 0.3705603 -0.9288085
vt 0.7672689 0.9552621
v 0.4507627 1.0565430 1.7470100
vn 0.0000000 0.3705603 -0.9288085
vt 0.7791526 0.9982458
v 0.1019268 1.0565430 1.7470100
vn 0.0000000 0.3705603 -0.9288085
vt 0.7791526 0.9552621
v 0.1019268 1.0110910 1.9786390
vn -1.0000000 0.0000000 0.0000000
vt 0.8082442 0.9552621
v 0.1019268 1.0565430 1.7470100
vn -1.0000000 0.0000000 0.0000000
vt 0.7791526 0.9552621
v 0.1019268 0.9776579 1.9862620
vn -1.0000000 0.0000000 0.0000000
vt 0.8099563 0.9513543
v 0.1019268 0.9669154 1.7112520
vn -1.0000000 0.0000000 0.0000000
vt 0.7769437 0.9435601
v 0.1019268 1.0110910 1.9786390
vn 0.0000000 0.9812861 0.1925554
vt 0.8082442 0.9552621
v 0.4507626 1.0110910 1.9786381
vn 0.0000000 0.9812861 0.1925554
vt 0.8082433 0.9982510
v 0.1019268 1.0565430 1.7470100
vn 0.0000000 0.9812861 0.1925554
vt 0.7791526 0.9552621
v 0.4507627 1.0565430 1.7470100
vn 0.0000000 0.9812861 0.1925554
vt 0.7791526 0.9982458
v 0.4088166 1.0519630 1.7509220
vn 0.3269848 -0.0011866 -0.9450288
vt 0.5137269 0.9566916
v 0.3422322 1.0519630 1.7509210
vn -0.3269872 -0.0011861 -0.9450281
vt 0.5137269 0.9648201
v 0.4088166 1.4709220 1.7502460
vn 0.3269848 -0.0011866 -0.9450288
vt 0.4614584 0.9566918
v 0.3422322 1.4709210 1.7502460
vn -0.3269872 -0.0011861 -0.9450281
vt 0.4614584 0.9648202
v 0.3274876 1.4709210 1.7745270
vn -0.8994524 -0.0003505 -0.4370186
vt 0.4614584 0.9686100
v 0.3274876 1.0467690 1.7745270
vn -0.8994524 -0.0003505 -0.4370186
vt 0.5144097 0.9686099
v 0.3398246 1.4709210 1.8122710
vn -1.0000000 0.0000000 0.0000000
vt 0.4614584 0.9738523
v 0.3398246 1.0406780 1.8122710
vn -1.0000000 0.0000000 0.0000000
vt 0.5151818 0.9738523
v 0.3398246 1.0406780 1.8122710
vn 0.0000000 0.0000000 1.0000000
vt 0.5151818 0.9738523
v 0.4112242 1.0406780 1.8122710
vn 0.0000000 0.0000000 1.0000000
vt 0.5151818 0.9827686
v 0.3398246 1.4709210 1.8122710
vn 0.0000000 0.0000000 1.0000000
vt 0.4614584 0.9738523
v 0.4112242 1.4709210 1.8122710
vn 0.0000000 0.0000000 1.0000000
vt 0.4614584 0.9827679
v 0.4088166 1.4709220 1.7502460
vn 0.3269848 -0.0011866 -0.9450288
vt 0.4614584 0.9648200
v 0.4235612 1.4709210 1.7745270
vn 0.9281666 0.0000000 0.3721651
vt 0.4614584 0.9686246
v 0.4088166 1.0519630 1.7509220
vn 0.3269848 -0.0011866 -0.9450288
vt 0.5137269 0.9648202
v 0.4235612 1.0467690 1.7745270
vn 0.9281666 0.0000000 0.3721651
vt 0.5144097 0.9686246
v 0.4112242 1.0406780 1.8122710
vn 1.0000000 0.0000000 0.0000000
vt 0.5151818 0.9738523
v 0.4112242 1.4709210 1.8122710
vn 1.0000000 0.0000000 0.0000000
vt 0.4614584 0.9738523
v 0.3758865 1.6868840 1.8343780
vn 0.0000000 0.0164211 -0.9998652
vt 0.3730260 0.9616660
v 0.4017379 1.6868840 1.8450880
vn 0.7070022 0.0164200 -0.7070208
vt 0.3730221 0.9661322
v 0.3758865 1.0171680 1.8233800
vn 0.0000000 0.0164211 -0.9998652
vt 0.2801009 0.9616660
v 0.4095153 1.0171680 1.8373090
vn 0.7070022 0.0164200 -0.7070208
vt 0.2801006 0.9661306
v 0.3500352 1.6868840 1.8450880
vn -0.7070145 0.0164211 -0.7070084
vt 0.3729867 0.9929213
v 0.3758865 1.6868840 1.8343780
vn 0.0000000 0.0164211 -0.9998652
vt 0.3729864 0.9973848
v 0.3422578 1.0171680 1.8373090
vn -0.7070145 0.0164211 -0.7070084
vt 0.2800981 0.9929199
v 0.3758865 1.0171680 1.8233800
vn 0.0000000 0.0164211 -0.9998652
vt 0.2800983 0.9973848
v 0.3393272 1.6868840 1.8709379
vn -0.9998652 0.0164211 0.0000000
vt 0.3729862 0.9884580
v 0.3283283 1.0171680 1.8709379
vn -0.9998652 0.0164211 0.0000000
vt 0.2800983 0.9884546
v 0.3500352 1.6868840 1.8967900
vn -0.7070121 0.0164210 0.7070108
vt 0.3729891 0.9839939
v 0.3422578 1.0171680 1.9045670
vn -0.7070121 0.0164210 0.7070108
vt 0.2800984 0.9839894
v 0.3758865 1.6868840 1.9074980
vn 0.0000000 0.0164210 0.9998652
vt 0.3729942 0.9795281
v 0.3758865 1.0171680 1.9184970
vn 0.0000000 0.0164210 0.9998652
vt 0.2800988 0.9795247
v 0.4017379 1.6868840 1.8967900
vn 0.7069995 0.0164198 0.7070234
vt 0.3730031 0.9750629
v 0.4095153 1.0171680 1.9045670
vn 0.7069995 0.0164198 0.7070234
vt 0.2800994 0.9750597
v 0.4124508 1.6868840 1.8709379
vn 0.9998652 0.0164194 0.0000000
vt 0.3730133 0.9705970
v 0.4234448 1.0171680 1.8709379
vn 0.9998652 0.0164194 0.0000000
vt 0.2801002 0.9705949
v 0.4017379 1.6868840 1.8450880
vn 0.6582201 -0.3653581 -0.6582248
vt 0.3730221 0.9661322
v 0.3758865 1.6868840 1.8343780
vn 0.0000000 -0.3654112 -0.9308462
vt 0.3730260 0.9616660
v 0.4051731 1.7094980 1.8416510
vn 0.4047043 0.8200188 -0.4047020
vt 0.3766228 0.9660755
v 0.3758865 1.7094980 1.8295209
vn 0.0000000 0.8200188 -0.5723366
vt 0.3766225 0.9616047
v 0.3758865 1.6868840 1.8343780
vn 0.0000000 -0.3654112 -0.9308462
vt 0.3729864 0.9973848
v 0.3500352 1.6868840 1.8450880
vn -0.6582163 -0.3654016 -0.6582043
vt 0.3729867 0.9929213
v 0.3758865 1.7094980 1.8295209
vn 0.0000000 0.8200188 -0.5723366
vt 0.3765043 0.9974672
v 0.3466001 1.7094980 1.8416510
vn -0.4046979 0.8200222 -0.4047014
vt 0.3765973 0.9928802
v 0.3393272 1.6868840 1.8709379
vn -0.9308556 -0.3653875 0.0000000
vt 0.3729862 0.9884580
v 0.3344691 1.7094980 1.8709379
vn -0.5723364 0.8200189 0.0000000
vt 0.3766203 0.9884396
v 0.3500352 1.6868840 1.8967900
vn -0.6582159 -0.3653760 0.6582190
vt 0.3729891 0.9839939
v 0.3466001 1.7094980 1.9002250
vn -0.4047100 0.8200137 0.4047067
vt 0.3766223 0.9839966
v 0.3758865 1.6868840 1.9074980
vn 0.0000000 -0.3653644 0.9308646
vt 0.3729942 0.9795281
v 0.3758865 1.7094980 1.9123549
vn 0.0000000 0.8200133 0.5723445
vt 0.3766229 0.9795322
v 0.4017379 1.6868840 1.8967900
vn 0.6582208 -0.3653266 0.6582415
vt 0.3730031 0.9750629
v 0.4051731 1.7094980 1.9002250
vn 0.4047014 0.8200200 0.4047024
vt 0.3766228 0.9750042
v 0.4124508 1.6868840 1.8709379
vn 0.9308857 -0.3653107 0.0000000
vt 0.3730133 0.9705970
v 0.4173039 1.7094980 1.8709379
vn 0.5723360 0.8200192 0.0000000
vt 0.3766229 0.9705662
v 0.3758865 1.7094980 1.8421780
vn 0.0000000 1.0000000 0.0000000
vt 0.9209077 0.9763206
v 0.3962226 1.7094980 1.8506020
vn 0.0000000 1.0000000 0.0000000
vt 0.9148672 0.9788229
v 0.3758865 1.7094980 1.8295209
vn 0.0000000 0.8200188 -0.5723366
vt 0.9208742 0.9711576
v 0.4051731 1.7094980 1.8416510
vn 0.4047043 0.8200188 -0.4047020
vt 0.9112076 0.9752472
v 0.3555504 1.7094980 1.8506020
vn 0.0000000 1.0000000 0.0000000
vt 0.9269483 0.9788229
v 0.3466001 1.7094980 1.8416510
vn -0.4046979 0.8200222 -0.4047014
vt 0.9305238 0.9751633
v 0.3471270 1.7094980 1.8709379
vn 0.0000000 1.0000000 0.0000000
vt 0.9294505 0.9848635
v 0.3344691 1.7094980 1.8709379
vn -0.5723364 0.8200189 0.0000000
vt 0.9346142 0.9848298
v 0.3555504 1.7094990 1.8912740
vn 0.0000000 1.0000000 0.0000000
vt 0.9269483 0.9909041
v 0.3466001 1.7094980 1.9002250
vn -0.4047100 0.8200137 0.4047067
vt 0.9306058 0.9945481
v 0.3758865 1.7094980 1.8996980
vn 0.0000000 1.0000000 0.0000000
vt 0.9209077 0.9934064
v 0.3758865 1.7094980 1.9123549
vn 0.0000000 0.8200133 0.5723445
vt 0.9209076 0.9985442
v 0.3962226 1.7094980 1.8912740
vn 0.0000000 1.0000000 0.0000000
vt 0.9148672 0.9909041
v 0.4051731 1.7094980 1.9002250
vn 0.4047014 0.8200200 0.4047024
vt 0.9112859 0.9945582
v 0.4046461 1.7094980 1.8709379
vn 0.0000000 1.0000000 0.0000000
vt 0.9123650 0.9848635
v 0.4173039 1.7094980 1.8709379
vn 0.5723360 0.8200192 0.0000000
vt 0.9072004 0.9848968
v 0.3962226 1.7094980 1.8506020
vn -0.7036616 0.0987232 0.7036434
vt 0.9148672 0.9788229
v 0.3758865 1.7094980 1.8421780
vn 0.0000000 0.0987257 0.9951147
vt 0.9209077 0.9763206
v 0.3758865 1.4196080 1.8709379
vn 0.0000000 1.0000000 0.0000000
vt 0.9209077 0.9848635
v 0.3555504 1.7094980 1.8506020
vn 0.7036644 0.0987239 0.7036406
vt 0.9269483 0.9788229
v 0.3471270 1.7094980 1.8709379
vn 0.9951149 0.0987239 0.0000000
vt 0.9294505 0.9848635
v 0.3555504 1.7094990 1.8912740
vn 0.7036645 0.0987235 -0.7036405
vt 0.9269483 0.9909041
v 0.3758865 1.7094980 1.8996980
vn 0.0000000 0.0987261 -0.9951147
vt 0.9209077 0.9934064
v 0.3962226 1.7094980 1.8912740
vn -0.7036615 0.0987241 -0.7036434
vt 0.9148672 0.9909041
v 0.4046461 1.7094980 1.8709379
vn -0.9951149 0.0987243 0.0000000
vt 0.9123650 0.9848635
v 0.3214210 1.3763911 1.8424500
vn 0.0000000 0.0000000 1.0000000
vt 0.4590846 0.9747795
v 0.4296278 1.3763911 1.8424500
vn 0.0000000 0.0000000 1.0000000
vt 0.4443684 0.9747794
v 0.3214210 1.4650390 1.8424500
vn 0.0000000 0.0000000 1.0000000
vt 0.4590846 0.9627025
v 0.4296278 1.4650390 1.8424500
vn 0.0000000 0.0000000 1.0000000
vt 0.4443685 0.9627025
v 0.3214210 1.3763911 1.8424500
vn -1.0000000 0.0000000 0.0000000
vt 0.4443684 0.9747794
v 0.3214210 1.4650390 1.8424500
vn -1.0000000 0.0000000 0.0000000
vt 0.4443685 0.9627233
v 0.3304011 1.3763911 1.7997710
vn -0.8806313 0.0000000 -0.4738021
vt 0.4382691 0.9747794
v 0.3304011 1.4650390 1.7997710
vn -0.8806313 0.0000000 -0.4738021
vt 0.4382693 0.9627233
v 0.4296278 1.4650390 1.8424500
vn 1.0000000 0.0000000 0.0000000
vt 0.4443685 0.9627025
v 0.4296278 1.3763911 1.8424500
vn 1.0000000 0.0000000 0.0000000
vt 0.4443684 0.9747794
v 0.4206640 1.4650390 1.7997700
vn 0.8809866 0.0000000 -0.4731414
vt 0.4382693 0.9627233
v 0.4206640 1.3763911 1.7997700
vn 0.8809866 0.0000000 -0.4731414
vt 0.4382691 0.9747794
v 0.4206640 1.4650390 1.7997700
vn 0.0000000 0.0000000 -1.0000000
vt 0.4382693 0.9627233
v 0.4206640 1.3763911 1.7997700
vn 0.0000000 0.0000000 -1.0000000
vt 0.4382691 0.9747794
v 0.3304011 1.4650390 1.7997710
vn 0.0000000 0.0000000 -1.0000000
vt 0.4259934 0.9627233
v 0.3304011 1.3763911 1.7997710
vn 0.0000000 0.0000000 -1.0000000
vt 0.4259934 0.9747794
v 0.3304011 1.4650390 1.7997710
vn 0.0000000 1.0000000 0.0000000
vt 0.4578633 0.9568772
v 0.3214210 1.4650390 1.8424500
vn 0.0000000 1.0000000 0.0000000
vt 0.4590846 0.9627025
v 0.4206640 1.4650390 1.7997700
vn 0.0000000 1.0000000 0.0000000
vt 0.4455875 0.9568772
v 0.4296278 1.4650390 1.8424500
vn 0.0000000 1.0000000 0.0000000
vt 0.4443685 0.9627025
v 0.4296278 1.3763911 1.8424500
vn 0.0000000 -1.0000000 0.0000000
vt 0.4443684 0.9747794
v 0.3214210 1.3763911 1.8424500
vn 0.0000000 -1.0000000 0.0000000
vt 0.4590846 0.9747795
v 0.4206640 1.3763911 1.7997700
vn 0.0000000 -1.0000000 0.0000000
vt 0.4455875 0.9805396
v 0.3304011 1.3763911 1.7997710
vn 0.0000000 -1.0000000 0.0000000
vt 0.4578632 0.9805397
v 0.3755244 1.5149760 1.7387429
vn 0.0000000 -0.0173783 -0.9998490
vt 0.4016485 0.9701884
v 0.3755244 1.4672490 1.7395720
vn 0.0000000 -0.0173783 -0.9998490
vt 0.4016485 0.9647689
v 0.3346296 1.5149760 1.7507160
vn -0.5122102 -0.0117652 -0.8587795
vt 0.4069531 0.9701884
v 0.3346297 1.4672490 1.7515450
vn -0.5122102 -0.0117652 -0.8587795
vt 0.4069958 0.9647689
v 0.3755244 1.4672490 1.8293180
vn 0.0000000 0.0000000 1.0000000
vt 0.3807604 0.9647688
v 0.4138849 1.4672490 1.8200560
vn 0.4852313 0.0000000 0.8743858
vt 0.3856938 0.9647688
v 0.3755243 1.5149760 1.8293180
vn 0.0000000 0.0000000 1.0000000
vt 0.3807600 0.9701884
v 0.4138848 1.5149760 1.8200560
vn 0.4852313 0.0000000 0.8743858
vt 0.3856927 0.9701884
v 0.4164191 1.5149760 1.7507160
vn 0.5122091 -0.0117705 -0.8587801
vt 0.3963439 0.9701884
v 0.4345307 1.5149760 1.7846090
vn 0.9221369 0.0000000 0.3868637
vt 0.3912036 0.9701884
v 0.4164191 1.4672490 1.7515460
vn 0.5122091 -0.0117705 -0.8587801
vt 0.3963013 0.9647689
v 0.4345308 1.4672490 1.7846080
vn 0.9221369 0.0000000 0.3868637
vt 0.3912107 0.9647688
v 0.3165181 1.4672490 1.7846080
vn -0.9221395 0.0000000 0.3868576
vt 0.4120864 0.9647688
v 0.3165180 1.5149760 1.7846090
vn -0.9221395 0.0000000 0.3868576
vt 0.4120934 0.9701884
v 0.3371638 1.5149760 1.8200560
vn -0.4852328 0.0000000 0.8743851
vt 0.4176042 0.9701884
v 0.3371638 1.4672490 1.8200560
vn -0.4852328 0.0000000 0.8743851
vt 0.4176033 0.9647688
v 0.4345307 1.5149760 1.7846090
vn 0.0000000 1.0000000 0.0000000
vt 0.0081552 0.9825842
v 0.4164191 1.5149760 1.7507160
vn 0.0000000 1.0000000 0.0000000
vt 0.0123918 0.9848483
v 0.4138848 1.5149760 1.8200560
vn 0.0000000 1.0000000 0.0000000
vt 0.0037243 0.9851650
v 0.3755244 1.5149760 1.7387429
vn 0.0000000 1.0000000 0.0000000
vt 0.0138885 0.9899601
v 0.3755243 1.5149760 1.8293180
vn 0.0000000 1.0000000 0.0000000
vt 0.0025666 0.9899601
v 0.3346296 1.5149760 1.7507160
vn 0.0000000 1.0000000 0.0000000
vt 0.0123918 0.9950718
v 0.3371638 1.5149760 1.8200560
vn 0.0000000 1.0000000 0.0000000
vt 0.0037243 0.9947550
v 0.3165180 1.5149760 1.7846090
vn 0.0000000 1.0000000 0.0000000
vt 0.0081552 0.9973358
v 0.3755244 1.4672490 1.8293180
vn 0.0000000 0.0000000 1.0000000
vt 0.4225366 0.9647688
v 0.3755243 1.5149760 1.8293180
vn 0.0000000 0.0000000 1.0000000
vt 0.4225371 0.9701884
v 0.3165181 1.4672490 1.7846080
vn 0.0000000 -1.0000000 0.0000000
vt 0.0219961 0.9973358
v 0.3346297 1.4672490 1.7515450
vn 0.0000000 -1.0000000 0.0000000
vt 0.0178633 0.9950718
v 0.3371638 1.4672490 1.8200560
vn 0.0000000 -1.0000000 0.0000000
vt 0.0264271 0.9947550
v 0.3755244 1.4672490 1.7395720
vn 0.0000000 -1.0000000 0.0000000
vt 0.0163666 0.9899601
v 0.3755244 1.4672490 1.8293180
vn 0.0000000 -1.0000000 0.0000000
vt 0.0275848 0.9899601
v 0.4164191 1.4672490 1.7515460
vn 0.0000000 -1.0000000 0.0000000
vt 0.0178634 0.9848483
v 0.4138849 1.4672490 1.8200560
vn 0.0000000 -1.0000000 0.0000000
vt 0.0264270 0.9851650
v 0.4345308 1.4672490 1.7846080
vn 0.0000000 -1.0000000 0.0000000
vt 0.0219961 0.9825842
v 0.3214210 1.0762370 1.8424489
vn 0.0000000 0.0000000 1.0000000
vt 0.4590846 0.9747795
v 0.4296278 1.0762370 1.8424489
vn 0.0000000 0.0000000 1.0000000
vt 0.4443684 0.9747794
v 0.3214210 1.1648840 1.8424500
vn 0.0000000 0.0000000 1.0000000
vt 0.4590846 0.9627025
v 0.4296278 1.1648840 1.8424489
vn 0.0000000 0.0000000 1.0000000
vt 0.4443685 0.9627025
v 0.3214210 1.0762370 1.8424489
vn -1.0000000 0.0000000 0.0000000
vt 0.4443684 0.9747794
v 0.3214210 1.1648840 1.8424500
vn -1.0000000 0.0000000 0.0000000
vt 0.4443685 0.9627233
v 0.3304012 1.0762370 1.7997710
vn -0.8806303 0.0000000 -0.4738041
vt 0.4382691 0.9747794
v 0.3304012 1.1648840 1.7997710
vn -0.8806303 0.0000000 -0.4738041
vt 0.4382693 0.9627233
v 0.4296278 1.1648840 1.8424489
vn 1.0000000 0.0000000 0.0000000
vt 0.4443685 0.9627025
v 0.4296278 1.0762370 1.8424489
vn 1.0000000 0.0000000 0.0000000
vt 0.4443684 0.9747794
v 0.4206640 1.1648840 1.7997700
vn 0.8809848 0.0000000 -0.4731445
vt 0.4382693 0.9627233
v 0.4206640 1.0762370 1.7997710
vn 0.8809848 0.0000000 -0.4731445
vt 0.4382691 0.9747794
v 0.4206640 1.1648840 1.7997700
vn 0.0000000 0.0000000 -1.0000000
vt 0.4382693 0.9627233
v 0.4206640 1.0762370 1.7997710
vn 0.0000000 0.0000000 -1.0000000
vt 0.4382691 0.9747794
v 0.3304012 1.1648840 1.7997710
vn 0.0000000 0.0000000 -1.0000000
vt 0.4259934 0.9627233
v 0.3304012 1.0762370 1.7997710
vn 0.0000000 0.0000000 -1.0000000
vt 0.4259934 0.9747794
v 0.3214210 1.1648840 1.8424500
vn 0.0000000 1.0000000 0.0000000
vt 0.6444612 0.9593679
v 0.4296278 1.1648840 1.8424489
vn 0.0000000 1.0000000 0.0000000
vt 0.6297340 0.9593679
v 0.3304012 1.1648840 1.7997710
vn 0.0000000 1.0000000 0.0000000
vt 0.6432400 0.9652152
v 0.4206640 1.1648840 1.7997700
vn 0.0000000 1.0000000 0.0000000
vt 0.6309531 0.9652152
v 0.4296278 1.0762370 1.8424489
vn 0.0000000 -1.0000000 0.0000000
vt 0.4443684 0.9747794
v 0.3214210 1.0762370 1.8424489
vn 0.0000000 -1.0000000 0.0000000
vt 0.4590846 0.9747795
v 0.4206640 1.0762370 1.7997710
vn 0.0000000 -1.0000000 0.0000000
vt 0.4455875 0.9805396
v 0.3304012 1.0762370 1.7997710
vn 0.0000000 -1.0000000 0.0000000
vt 0.4578632 0.9805397
v 0.3758865 1.4196080 1.8709379
vn 0.0000000 1.0000000 0.0000000
vt 0.9209077 0.9848635
v 0.3758865 1.4196080 1.8709379
vn 0.0000000 1.0000000 0.0000000
vt 0.9209077 0.9848635
v 0.3758865 1.4196080 1.8709379
vn 0.0000000 1.0000000 0.0000000
vt 0.9209077 0.9848635
v 0.3758865 1.4196080 1.8709379
vn 0.0000000 1.0000000 0.0000000
vt 0.9209077 0.9848635

g group_153554224_140627934787328
f 1/1/1 2/2/2 3/3/3 
f 3/3/3 2/2/2 4/4/4 
f 5/5/5 6/6/6 7/7/7 
f 7/7/7 6/6/6 8/8/8 
f 9/9/9 10/10/10 11/11/11 
f 11/11/11 10/10/10 12/12/12 
f 13/13/13 14/14/14 15/15/15 
f 15/15/15 14/14/14 16/16/16 
f 17/17/17 18/18/18 19/19/19 
f 19/19/19 18/18/18 20/20/20 
f 21/21/21 22/22/22 23/23/23 
f 23/23/23 22/22/22 24/24/24 
f 25/25/25 26/26/26 27/27/27 
f 27/27/27 26/26/26 28/28/28 
f 29/29/29 30/30/30 31/31/31 
f 31/31/31 30/30/30 32/32/32 
f 33/33/33 34/34/34 35/35/35 
f 35/35/35 34/34/34 36/36/36 
f 26/26/26 25/25/25 22/22/22 
f 22/22/22 25/25/25 24/24/24 
f 37/37/37 36/36/36 38/38/38 
f 38/38/38 36/36/36 34/34/34 
f 39/39/39 40/40/40 41/41/41 
f 41/41/41 40/40/40 42/42/42 
f 43/43/43 44/44/44 45/45/45 
f 45/45/45 44/44/44 46/46/46 
f 47/47/47 43/43/43 48/48/48 
f 48/48/48 43/43/43 45/45/45 
f 49/49/49 47/47/47 50/50/50 
f 50/50/50 47/47/47 48/48/48 
f 51/51/51 49/49/49 52/52/52 
f 52/52/52 49/49/49 50/50/50 
f 53/53/53 51/51/51 54/54/54 
f 54/54/54 51/51/51 52/52/52 
f 55/55/55 53/53/53 56/56/56 
f 56/56/56 53/53/53 54/54/54 
f 40/40/40 55/55/55 42/42/42 
f 42/42/42 55/55/55 56/56/56 
f 57/57/57 58/58/58 59/59/59 
f 59/59/59 58/58/58 60/60/60 
f 61/61/61 62/62/62 63/63/63 
f 63/63/63 62/62/62 64/64/64 
f 62/62/62 65/65/65 64/64/64 
f 64/64/64 65/65/65 66/66/66 
f 65/65/65 67/67/67 66/66/66 
f 66/66/66 67/67/67 68/68/68 
f 67/67/67 69/69/69 68/68/68 
f 68/68/68 69/69/69 70/70/70 
f 69/69/69 71/71/71 70/70/70 
f 70/70/70 71/71/71 72/72/72 
f 71/71/71 73/73/73 72/72/72 
f 72/72/72 73/73/73 74/74/74 
f 73/73/73 57/57/57 74/74/74 
f 74/74/74 57/57/57 59/59/59 
f 75/75/75 76/76/76 77/77/77 
f 77/77/77 76/76/76 78/78/78 
f 79/79/79 75/75/75 80/80/80 
f 80/80/80 75/75/75 77/77/77 
f 81/81/81 79/79/79 82/82/82 
f 82/82/82 79/79/79 80/80/80 
f 83/83/83 81/81/81 84/84/84 
f 84/84/84 81/81/81 82/82/82 
f 85/85/85 83/83/83 86/86/86 
f 86/86/86 83/83/83 84/84/84 
f 87/87/87 85/85/85 88/88/88 
f 88/88/88 85/85/85 86/86/86 
f 89/89/89 87/87/87 90/90/90 
f 90/90/90 87/87/87 88/88/88 
f 76/76/76 89/89/89 78/78/78 
f 78/78/78 89/89/89 90/90/90 
f 91/91/91 92/92/92 93/93/93 
f 92/92/92 94/94/94 93/93/93 
f 94/94/94 95/95/95 93/93/93 
f 95/95/95 96/96/96 182/182/182 
f 96/96/96 97/97/97 183/183/183 
f 97/97/97 98/98/98 184/184/184 
f 98/98/98 99/99/99 185/185/185 
f 99/99/99 91/91/91 93/93/93 
f 100/100/100 101/101/101 102/102/102 
f 102/102/102 101/101/101 103/103/103 
f 104/104/104 105/105/105 106/106/106 
f 106/106/106 105/105/105 107/107/107 
f 108/108/108 109/109/109 110/110/110 
f 110/110/110 109/109/109 111/111/111 
f 112/112/112 113/113/113 114/114/114 
f 114/114/114 113/113/113 115/115/115 
f 116/116/116 117/117/117 118/118/118 
f 118/118/118 117/117/117 119/119/119 
f 120/120/120 121/121/121 122/122/122 
f 122/122/122 121/121/121 123/123/123 
f 124/124/124 125/125/125 126/126/126 
f 126/126/126 125/125/125 127/127/127 
f 128/128/128 129/129/129 130/130/130 
f 130/130/130 129/129/129 131/131/131 
f 132/132/132 133/133/133 134/134/134 
f 134/134/134 133/133/133 135/135/135 
f 136/136/136 137/137/137 127/127/127 
f 127/127/127 137/137/137 126/126/126 
f 133/133/133 131/131/131 135/135/135 
f 135/135/135 131/131/131 129/129/129 
f 138/138/138 137/137/137 139/139/139 
f 139/139/139 137/137/137 136/136/136 
f 140/140/140 141/141/141 142/142/142 
f 141/141/141 143/143/143 142/142/142 
f 142/142/142 143/143/143 144/144/144 
f 143/143/143 145/145/145 144/144/144 
f 144/144/144 145/145/145 146/146/146 
f 145/145/145 147/147/147 146/146/146 
f 124/124/124 132/132/132 125/125/125 
f 125/125/125 132/132/132 134/134/134 
f 139/139/139 148/148/148 138/138/138 
f 138/138/138 148/148/148 149/149/149 
f 150/150/150 151/151/151 152/152/152 
f 151/151/151 153/153/153 152/152/152 
f 152/152/152 153/153/153 154/154/154 
f 153/153/153 155/155/155 154/154/154 
f 154/154/154 155/155/155 156/156/156 
f 155/155/155 157/157/157 156/156/156 
f 158/158/158 159/159/159 160/160/160 
f 160/160/160 159/159/159 161/161/161 
f 162/162/162 163/163/163 164/164/164 
f 164/164/164 163/163/163 165/165/165 
f 166/166/166 167/167/167 168/168/168 
f 168/168/168 167/167/167 169/169/169 
f 170/170/170 171/171/171 172/172/172 
f 172/172/172 171/171/171 173/173/173 
f 174/174/174 175/175/175 176/176/176 
f 176/176/176 175/175/175 177/177/177 
f 178/178/178 179/179/179 180/180/180 
f 180/180/180 179/179/179 181/181/181 
