v 0.2422669 1.0809070 1.9768800
vn 1.0000000 0.0000000 0.0000000
vt 0.5574887 0.8265908
v 0.2422669 1.0808240 1.7702760
vn 1.0000000 0.0000000 0.0000000
vt 0.5574887 0.8014758
v 0.2422669 1.2490650 1.9768130
vn 1.0000000 0.0000000 0.0000000
vt 0.5779134 0.8265908
v 0.2422669 1.4076051 1.8585430
vn 1.0000000 0.0000000 0.0000000
vt 0.5971754 0.8122213
v 0.2422669 1.3914580 1.7701530
vn 1.0000000 0.0000000 0.0000000
vt 0.5952182 0.8014758
v 0.2422669 1.4075750 1.7823280
vn 1.0000000 0.0000000 0.0000000
vt 0.5971754 0.8029565
v 0.2422669 1.0808240 1.7702760
vn 0.0000000 -0.0003987 -0.9999999
vt 0.5233079 0.9734520
v 0.1084004 1.0808240 1.7702760
vn 0.0000000 -0.0003987 -0.9999999
vt 0.5233079 0.9571801
v 0.2422669 1.3914580 1.7701530
vn 0.0000000 0.3176838 -0.9481967
vt 0.5610374 0.9734520
v 0.1084004 1.3914580 1.7701520
vn 0.0000000 0.3176838 -0.9481967
vt 0.5610374 0.9571799
v 0.1084004 1.0809070 1.9768800
vn -1.0000000 0.0000000 0.0000000
vt 0.5574887 0.8265908
v 0.1084004 1.2490650 1.9768130
vn -1.0000000 0.0000000 0.0000000
vt 0.5779134 0.8265908
v 0.1084004 1.0808240 1.7702760
vn -1.0000000 0.0000000 0.0000000
vt 0.5574889 0.8014758
v 0.1084004 1.3914580 1.7701520
vn -1.0000000 0.0000000 0.0000000
vt 0.5952185 0.8014760
v 0.1084004 1.4076051 1.8585420
vn -1.0000000 0.0000000 0.0000000
vt 0.5971754 0.8122215
v 0.1084004 1.4075750 1.7823280
vn -1.0000000 0.0000000 0.0000000
vt 0.5971754 0.8029568
v 0.2422669 1.4076051 1.8585430
vn 0.0000000 0.5979441 0.8015378
vt 0.5546558 0.8090417
v 0.1084004 1.4076051 1.8585420
vn 0.0000000 0.5979441 0.8015378
vt 0.5546557 0.8253134
v 0.2422669 1.2490650 1.9768130
vn 0.0000000 0.5979441 0.8015378
vt 0.5352432 0.8090415
v 0.1084004 1.2490650 1.9768130
vn 0.0000000 0.5979441 0.8015378
vt 0.5352429 0.8253132
v 0.2422669 1.2490650 1.9768130
vn 0.0000000 0.0003998 0.9999999
vt 0.5352432 0.8090415
v 0.1084004 1.2490650 1.9768130
vn 0.0000000 0.0003998 0.9999999
vt 0.5352429 0.8253132
v 0.2422669 1.0809070 1.9768800
vn 0.0000000 0.0003998 0.9999999
vt 0.5148184 0.8090415
v 0.1084004 1.0809070 1.9768800
vn 0.0000000 0.0003998 0.9999999
vt 0.5148182 0.8253133
v 0.2422669 1.4076051 1.8585430
vn 0.0000000 0.9999999 -0.0004011
vt 0.6183795 0.9767118
v 0.2422669 1.4075750 1.7823280
vn 0.0000000 0.8951122 -0.4458410
vt 0.6276371 0.9767118
v 0.1084004 1.4076051 1.8585420
vn 0.0000000 0.9999999 -0.0004011
vt 0.6183794 0.9929835
v 0.1084004 1.4075750 1.7823280
vn 0.0000000 0.8951122 -0.4458410
vt 0.6276371 0.9929835
v 0.1084004 1.4075750 1.7823280
vn 0.0000000 0.8951122 -0.4458410
vt 0.5629946 0.9571801
v 0.2422669 1.4075750 1.7823280
vn 0.0000000 0.8951122 -0.4458410
vt 0.5629946 0.9734520
v -0.0864647 1.0275060 2.0173571
vn 0.0000000 0.0000000 1.0000000
vt 0.4787147 0.3547127
v 0.2868363 1.0275060 2.0173559
vn 0.0000000 0.0000000 1.0000000
vt 0.4321684 0.3547115
v -0.0864647 1.0833690 2.0173571
vn 0.0000000 0.0000000 1.0000000
vt 0.4787147 0.3505441
v 0.2868363 1.0833690 2.0173559
vn 0.0000000 0.0000000 1.0000000
vt 0.4321684 0.3505429
v 0.2868363 1.0275060 2.0173559
vn 1.0000000 0.0000000 0.0000000
vt 0.4279990 0.3505427
v 0.2868363 1.0275060 1.7107540
vn 1.0000000 0.0000000 0.0000000
vt 0.4280003 0.3123130
v 0.2868363 1.0833690 2.0173559
vn 1.0000000 0.0000000 0.0000000
vt 0.4321684 0.3505429
v 0.2868363 1.0833690 1.7107540
vn 1.0000000 0.0000000 0.0000000
vt 0.4321692 0.3123130
v 0.2868363 1.0275060 1.7107540
vn 0.0000000 0.0000000 -1.0000000
vt 0.4321692 0.3081444
v -0.0864647 1.0275060 1.7107540
vn 0.0000000 0.0000000 -1.0000000
vt 0.4787152 0.3081453
v 0.2868363 1.0833690 1.7107540
vn 0.0000000 0.0000000 -1.0000000
vt 0.4321692 0.3123130
v -0.0864647 1.0833690 1.7107540
vn 0.0000000 0.0000000 -1.0000000
vt 0.4787152 0.3123142
v -0.0864647 1.0275060 1.7107540
vn -1.0000000 0.0000000 0.0000000
vt 0.4828832 0.3123142
v -0.0864647 1.0275060 2.0173571
vn -1.0000000 0.0000000 0.0000000
vt 0.4828832 0.3505439
v -0.0864647 1.0833690 1.7107540
vn -1.0000000 0.0000000 0.0000000
vt 0.4787152 0.3123142
v -0.0864647 1.0833690 2.0173571
vn -1.0000000 0.0000000 0.0000000
vt 0.4787147 0.3505441
v -0.0864647 1.0833690 2.0173571
vn 0.0000000 1.0000000 0.0000000
vt 0.4528655 0.1941042
v 0.2868363 1.0833690 2.0173559
vn 0.0000000 1.0000000 0.0000000
vt 0.4528643 0.2406506
v -0.0864647 1.0833690 1.7107540
vn 0.0000000 1.0000000 0.0000000
vt 0.4146356 0.1941038
v 0.2868363 1.0833690 1.7107540
vn 0.0000000 1.0000000 0.0000000
vt 0.4146344 0.2406497
v 0.1522989 1.9432840 1.9196481
vn -0.7071109 0.0002818 0.7071025
vt 0.7641452 0.9852552
v 0.1522989 1.9277840 1.9196540
vn -0.7071109 0.0002818 0.7071025
vt 0.7620550 0.9852636
v 0.1753336 1.9432880 1.9291900
vn 0.0000000 0.0004061 0.9999999
vt 0.7641451 0.9811447
v 0.1753336 1.9277869 1.9291960
vn 0.0000000 0.0004061 0.9999999
vt 0.7620550 0.9811447
v 0.1983684 1.9432840 1.9196481
vn 0.7071102 0.0002818 0.7071034
vt 0.7641452 0.9770329
v 0.1983684 1.9277840 1.9196540
vn 0.7071102 0.0002818 0.7071034
vt 0.7620550 0.9770253
v 0.2079096 1.9432740 1.8966130
vn 1.0000000 0.0000000 0.0000000
vt 0.7641452 0.9728976
v 0.2079096 1.9277740 1.8966200
vn 1.0000000 0.0000000 0.0000000
vt 0.7620550 0.9728982
v 0.1983684 1.9432650 1.8735790
vn 0.7071047 -0.0002941 -0.7071089
vt 0.7641452 0.9687596
v 0.1983684 1.9277650 1.8735850
vn 0.7071047 -0.0002941 -0.7071089
vt 0.7620550 0.9687743
v 0.1753336 1.9432610 1.8640380
vn 0.0000000 -0.0004131 -0.9999999
vt 0.7641452 0.9646549
v 0.1753336 1.9277610 1.8640440
vn 0.0000000 -0.0004131 -0.9999999
vt 0.7620550 0.9646550
v 0.1753336 1.9432610 1.8640380
vn 0.0000000 -0.0004131 -0.9999999
vt 0.7641452 0.9976321
v 0.1753336 1.9277610 1.8640440
vn 0.0000000 -0.0004131 -0.9999999
vt 0.7620550 0.9976323
v 0.1522989 1.9432650 1.8735790
vn -0.7071041 -0.0002836 -0.7071093
vt 0.7641451 0.9935274
v 0.1522989 1.9277650 1.8735850
vn -0.7071041 -0.0002836 -0.7071093
vt 0.7620550 0.9935133
v 0.1427575 1.9432740 1.8966130
vn -1.0000000 0.0000000 0.0000000
vt 0.7641452 0.9893898
v 0.1427575 1.9277740 1.8966200
vn -1.0000000 0.0000000 0.0000000
vt 0.7620550 0.9893900
v 0.1753336 1.8915160 1.8966210
vn 0.0000000 -0.7317749 -0.6815464
vt 0.7550322 0.9811434
v 0.1522989 1.9277650 1.8735850
vn -0.4821194 -0.7317074 -0.4818353
vt 0.7620550 0.9935133
v 0.1753336 1.9277610 1.8640440
vn 0.0000000 -0.7317749 -0.6815464
vt 0.7620550 0.9976323
v 0.1753336 1.9277610 1.8640440
vn 0.0000000 -0.7317749 -0.6815464
vt 0.7620550 0.9646550
v 0.1983684 1.9277650 1.8735850
vn 0.4821339 -0.7316912 -0.4818453
vt 0.7620550 0.9687743
v 0.2079096 1.9277740 1.8966200
vn 0.6818370 -0.7315041 0.0002953
vt 0.7620550 0.9728982
v 0.1983684 1.9277840 1.9196540
vn 0.4821422 -0.7313035 0.4824253
vt 0.7620550 0.9770253
v 0.1753336 1.9277869 1.9291960
vn 0.0000000 -0.7312276 0.6821336
vt 0.7620550 0.9811447
v 0.1522989 1.9277840 1.9196540
vn -0.4821461 -0.7313024 0.4824230
vt 0.7620550 0.9852636
v 0.1427575 1.9277740 1.8966200
vn -0.6818345 -0.7315066 0.0002972
vt 0.7620550 0.9893900
v 0.1548071 1.9244601 1.8760951
vn -0.7070275 0.0148023 -0.7070312
vt 0.7614143 0.9935114
v 0.1753336 1.9244560 1.8675920
vn 0.0000000 0.0146854 -0.9998922
vt 0.7614143 0.9976331
v 0.1434906 1.1379650 1.8650920
vn -0.7067391 0.0319562 -0.7067522
vt 0.6475692 0.9935066
v 0.1753336 1.1379600 1.8519020
vn 0.0000000 0.0318395 -0.9994930
vt 0.6475692 0.9976332
v 0.1753336 1.9244560 1.8675920
vn 0.0000000 0.0146854 -0.9998922
vt 0.7614143 0.9646558
v 0.1958601 1.9244601 1.8760951
vn 0.7070259 0.0148022 -0.7070327
vt 0.7614143 0.9687768
v 0.1753336 1.1379600 1.8519020
vn 0.0000000 0.0318395 -0.9994930
vt 0.6475692 0.9646560
v 0.2071767 1.1379650 1.8650920
vn 0.7067383 0.0319562 -0.7067530
vt 0.6475692 0.9687828
v 0.2043625 1.9244680 1.8966210
vn 0.9998863 0.0150843 0.0000000
vt 0.7614143 0.9729000
v 0.2203665 1.1379780 1.8969350
vn 0.9994802 0.0322379 0.0000000
vt 0.6475692 0.9729056
v 0.1958601 1.9244760 1.9171480
vn 0.7070266 0.0153657 0.7070200
vt 0.7614143 0.9770215
v 0.2071767 1.1379910 1.9287781
vn 0.7067388 0.0325209 0.7067267
vt 0.6475692 0.9770255
v 0.1753336 1.9244790 1.9256500
vn 0.0000000 0.0154822 0.9998802
vt 0.7614143 0.9811447
v 0.1753336 1.1379960 1.9419680
vn 0.0000000 0.0326384 0.9994673
vt 0.6475692 0.9811447
v 0.1548071 1.9244760 1.9171480
vn -0.7070270 0.0153658 0.7070197
vt 0.7614143 0.9852663
v 0.1434906 1.1379910 1.9287781
vn -0.7067392 0.0325208 0.7067264
vt 0.6475692 0.9852638
v 0.1463048 1.9244680 1.8966210
vn -0.9998863 0.0150842 0.0000000
vt 0.7614143 0.9893880
v 0.1303008 1.1379780 1.8969350
vn -0.9994802 0.0322380 0.0000000
vt 0.6475692 0.9893837
v 0.1563277 1.9432740 1.8966130
vn 0.0000000 0.9999999 -0.0003994
vt 0.3649185 0.2461908
v 0.1427575 1.9432740 1.8966130
vn 0.0000000 0.9999999 -0.0003994
vt 0.3620428 0.2462222
v 0.1618944 1.9432800 1.9100530
vn 0.0000000 0.9999999 -0.0004027
vt 0.3660692 0.2433328
v 0.1522989 1.9432840 1.9196481
vn 0.0000000 0.9999999 -0.0004027
vt 0.3640147 0.2413212
v 0.1753336 1.9432820 1.9156190
vn 0.0000000 0.9999999 -0.0003969
vt 0.3689072 0.2421257
v 0.1753336 1.9432880 1.9291900
vn 0.0000000 0.9999999 -0.0003969
vt 0.3688789 0.2392507
v 0.1887728 1.9432800 1.9100530
vn 0.0000000 0.9999999 -0.0004028
vt 0.3717680 0.2432766
v 0.1983684 1.9432840 1.9196481
vn 0.0000000 0.9999999 -0.0004028
vt 0.3737820 0.2412249
v 0.1943395 1.9432740 1.8966130
vn 0.0000000 0.9999999 -0.0003994
vt 0.3729751 0.2461107
v 0.2079096 1.9432740 1.8966130
vn 0.0000000 0.9999999 -0.0003994
vt 0.3758503 0.2460836
v 0.1887728 1.9432690 1.8831739
vn 0.0000000 0.9999999 -0.0003936
vt 0.3718231 0.2489659
v 0.1983684 1.9432650 1.8735790
vn 0.0000000 0.9999999 -0.0003936
vt 0.3738744 0.2509777
v 0.1753336 1.9432670 1.8776079
vn 0.0000000 0.9999999 -0.0003969
vt 0.3689877 0.2501706
v 0.1753336 1.9432610 1.8640380
vn 0.0000000 0.9999999 -0.0003969
vt 0.3690157 0.2530414
v 0.1618944 1.9432690 1.8831739
vn 0.0000000 0.9999999 -0.0003936
vt 0.3661297 0.2490207
v 0.1522989 1.9432650 1.8735790
vn 0.0000000 0.9999999 -0.0003936
vt 0.3641202 0.2510720
v 0.1563277 1.9432740 1.8966130
vn 0.9977485 0.0670673 0.0000000
vt 0.4163914 0.3044610
v 0.1618944 1.9432800 1.9100530
vn 0.7055139 0.0667861 -0.7055422
vt 0.4163484 0.3061224
v 0.1753336 1.6605279 1.8967260
vn 0.0000000 0.9999999 -0.0003824
vt 0.3839893 0.3044609
v 0.1753336 1.9432820 1.9156190
vn 0.0000000 0.0666685 -0.9977752
vt 0.4162205 0.3077795
v 0.1887728 1.9432800 1.9100530
vn -0.7055155 0.0667856 -0.7055406
vt 0.4163485 0.3061225
v 0.1943395 1.9432740 1.8966130
vn -0.9977484 0.0670678 0.0000000
vt 0.4163912 0.3044609
v 0.1887728 1.9432690 1.8831739
vn -0.7055178 0.0673489 0.7054848
vt 0.4163488 0.3027995
v 0.1753336 1.9432670 1.8776079
vn 0.0000000 0.0674656 0.9977216
vt 0.4162206 0.3011424
v 0.1618944 1.9432690 1.8831739
vn 0.7055153 0.0673482 0.7054873
vt 0.4163484 0.3027993
v 0.0165629 1.3670650 1.7908061
vn -0.0011794 0.0973934 -0.9952453
vt 0.4124739 0.9975421
v 0.0200783 1.0768000 1.7908061
vn 0.0000000 0.0000000 -1.0000000
vt 0.3788640 0.9977446
v -0.0178806 1.3666470 1.8364090
vn -0.9988033 0.0489057 0.0005190
vt 0.4120994 0.9908823
v -0.0143652 1.0763830 1.8364090
vn -0.9999267 -0.0121100 0.0000000
vt 0.3788395 0.9910558
v 0.0510063 1.3674819 1.8364090
vn 0.9973259 0.0730812 0.0005189
vt 0.4120983 0.9792705
v 0.0545218 1.0772170 1.8364090
vn 0.9999267 0.0121102 0.0000000
vt 0.3788382 0.9791066
v 0.0165629 1.3670650 1.7908061
vn -0.0011794 0.0973934 -0.9952453
vt 0.4124713 0.9726107
v 0.0200783 1.0768000 1.7908061
vn 0.0000000 0.0000000 -1.0000000
vt 0.3788611 0.9724178
v 0.0200783 1.0768000 1.8662400
vn -0.4999634 -0.0060550 0.8660254
vt 0.3788309 0.9850812
v 0.0165629 1.3670650 1.8662400
vn -0.4998164 0.0402179 0.8651972
vt 0.4120106 0.9850763
v 0.0150912 1.4885790 1.8575200
vn 0.4079252 0.5627530 0.7189618
vt 0.4262784 0.9849820
v 0.0346356 1.4888149 1.8405930
vn -0.0121126 0.9999267 0.0000000
vt 0.4284592 0.9824820
v -0.0044531 1.4883420 1.8405930
vn -0.0121126 0.9999267 0.0000000
vt 0.4284394 0.9874994
v 0.0150912 1.4885790 1.8147160
vn -0.0121200 0.9999266 0.0000000
vt 0.4317680 0.9850038
v 0.0150912 1.4885790 1.8147160
vn -0.0023384 0.1930407 -0.9811880
vt 0.4272230 0.9773000
v 0.0346356 1.4888149 1.8405930
vn 0.9910245 0.1336765 0.0010365
vt 0.4265724 0.9813645
v -0.0044531 1.4883420 1.8405930
vn -0.9939713 0.1096356 0.0010366
vt 0.4265740 0.9887831
v 0.0150912 1.4885790 1.8147160
vn -0.0023384 0.1930407 -0.9811880
vt 0.4272261 0.9928477
v 0.0150912 1.4885790 1.8575200
vn -0.4214366 0.5527079 0.7189612
vt 0.4264314 0.9850738
v 0.1753336 1.8915160 1.8966210
vn 0.0000000 -0.7317749 -0.6815464
vt 0.7550322 0.9811434
v 0.1753336 1.8915160 1.8966210
vn 0.0000000 -0.7317749 -0.6815464
vt 0.7550322 0.9811434
v 0.1753336 1.8915160 1.8966210
vn 0.0000000 -0.7317749 -0.6815464
vt 0.7550322 0.9811434
v 0.1753336 1.8915160 1.8966210
vn 0.0000000 -0.7317749 -0.6815464
vt 0.7550322 0.9811434
v 0.1753336 1.8915160 1.8966210
vn 0.0000000 -0.7317749 -0.6815464
vt 0.7550322 0.9811434
v 0.1753336 1.6605279 1.8967260
vn 0.0000000 0.9999999 -0.0003824
vt 0.3839893 0.3044609
v 0.1753336 1.6605279 1.8967260
vn 0.0000000 0.9999999 -0.0003824
vt 0.3839893 0.3044609
v 0.1753336 1.6605279 1.8967260
vn 0.0000000 0.9999999 -0.0003824
vt 0.3839893 0.3044609
v 0.1753336 1.9432820 1.9156190
vn 0.0000000 0.0666685 -0.9977752
vt 0.4162205 0.3077795
v 0.1753336 1.9432670 1.8776079
vn 0.0000000 0.0674656 0.9977216
vt 0.4162206 0.3011424

g group_153553384_140627908610656
f 1/1/1 2/2/2 3/3/3 
f 4/4/4 3/3/3 5/5/5 
f 5/5/5 3/3/3 2/2/2 
f 4/4/4 5/5/5 6/6/6 
f 7/7/7 8/8/8 9/9/9 
f 9/9/9 8/8/8 10/10/10 
f 11/11/11 12/12/12 13/13/13 
f 13/13/13 12/12/12 14/14/14 
f 14/14/14 12/12/12 15/15/15 
f 15/15/15 16/16/16 14/14/14 
f 17/17/17 18/18/18 19/19/19 
f 19/19/19 18/18/18 20/20/20 
f 21/21/21 22/22/22 23/23/23 
f 23/23/23 22/22/22 24/24/24 
f 25/25/25 26/26/26 27/27/27 
f 27/27/27 26/26/26 28/28/28 
f 29/29/29 30/30/30 10/10/10 
f 10/10/10 30/30/30 9/9/9 
f 31/31/31 32/32/32 33/33/33 
f 33/33/33 32/32/32 34/34/34 
f 35/35/35 36/36/36 37/37/37 
f 37/37/37 36/36/36 38/38/38 
f 39/39/39 40/40/40 41/41/41 
f 41/41/41 40/40/40 42/42/42 
f 43/43/43 44/44/44 45/45/45 
f 45/45/45 44/44/44 46/46/46 
f 47/47/47 48/48/48 49/49/49 
f 49/49/49 48/48/48 50/50/50 
f 51/51/51 52/52/52 53/53/53 
f 53/53/53 52/52/52 54/54/54 
f 53/53/53 54/54/54 55/55/55 
f 55/55/55 54/54/54 56/56/56 
f 55/55/55 56/56/56 57/57/57 
f 57/57/57 56/56/56 58/58/58 
f 57/57/57 58/58/58 59/59/59 
f 59/59/59 58/58/58 60/60/60 
f 59/59/59 60/60/60 61/61/61 
f 61/61/61 60/60/60 62/62/62 
f 63/63/63 64/64/64 65/65/65 
f 65/65/65 64/64/64 66/66/66 
f 65/65/65 66/66/66 67/67/67 
f 67/67/67 66/66/66 68/68/68 
f 67/67/67 68/68/68 51/51/51 
f 51/51/51 68/68/68 52/52/52 
f 69/69/69 70/70/70 71/71/71 
f 69/69/69 72/72/72 73/73/73 
f 69/69/69 73/73/73 74/74/74 
f 141/141/141 74/74/74 75/75/75 
f 142/142/142 75/75/75 76/76/76 
f 143/143/143 76/76/76 77/77/77 
f 144/144/144 77/77/77 78/78/78 
f 145/145/145 78/78/78 70/70/70 
f 79/79/79 80/80/80 81/81/81 
f 81/81/81 80/80/80 82/82/82 
f 83/83/83 84/84/84 85/85/85 
f 85/85/85 84/84/84 86/86/86 
f 84/84/84 87/87/87 86/86/86 
f 86/86/86 87/87/87 88/88/88 
f 87/87/87 89/89/89 88/88/88 
f 88/88/88 89/89/89 90/90/90 
f 89/89/89 91/91/91 90/90/90 
f 90/90/90 91/91/91 92/92/92 
f 91/91/91 93/93/93 92/92/92 
f 92/92/92 93/93/93 94/94/94 
f 93/93/93 95/95/95 94/94/94 
f 94/94/94 95/95/95 96/96/96 
f 95/95/95 79/79/79 96/96/96 
f 96/96/96 79/79/79 81/81/81 
f 97/97/97 98/98/98 99/99/99 
f 99/99/99 98/98/98 100/100/100 
f 99/99/99 100/100/100 101/101/101 
f 101/101/101 100/100/100 102/102/102 
f 101/101/101 102/102/102 103/103/103 
f 103/103/103 102/102/102 104/104/104 
f 103/103/103 104/104/104 105/105/105 
f 105/105/105 104/104/104 106/106/106 
f 105/105/105 106/106/106 107/107/107 
f 107/107/107 106/106/106 108/108/108 
f 107/107/107 108/108/108 109/109/109 
f 109/109/109 108/108/108 110/110/110 
f 109/109/109 110/110/110 111/111/111 
f 111/111/111 110/110/110 112/112/112 
f 111/111/111 112/112/112 97/97/97 
f 97/97/97 112/112/112 98/98/98 
f 113/113/113 114/114/114 115/115/115 
f 114/114/114 116/116/116 115/115/115 
f 149/149/149 117/117/117 146/146/146 
f 117/117/117 118/118/118 115/115/115 
f 118/118/118 119/119/119 115/115/115 
f 119/119/119 120/120/120 115/115/115 
f 150/150/150 121/121/121 147/147/147 
f 121/121/121 113/113/113 148/148/148 
f 122/122/122 123/123/123 124/124/124 
f 124/124/124 123/123/123 125/125/125 
f 126/126/126 127/127/127 128/128/128 
f 128/128/128 127/127/127 129/129/129 
f 127/127/127 126/126/126 130/130/130 
f 130/130/130 126/126/126 131/131/131 
f 130/130/130 131/131/131 125/125/125 
f 125/125/125 131/131/131 124/124/124 
f 132/132/132 133/133/133 134/134/134 
f 134/134/134 133/133/133 135/135/135 
f 128/128/128 136/136/136 126/126/126 
f 126/126/126 136/136/136 137/137/137 
f 138/138/138 139/139/139 124/124/124 
f 124/124/124 139/139/139 122/122/122 
f 126/126/126 137/137/137 131/131/131 
f 131/131/131 137/137/137 140/140/140 
f 124/124/124 131/131/131 138/138/138 
f 138/138/138 131/131/131 140/140/140 
