v -0.9122501 -2.9984181 1.1303940
vn 0.0000000 -0.2109762 0.9774912
vt 0.4166279 3.1769631
v -0.9777203 -0.3506969 1.1198601
vn -0.2967919 0.0283881 0.9545202
vt 0.4166279 1.3787200
v -1.5803180 -2.9984181 1.1303940
vn -0.0382681 -0.1334122 0.9903215
vt 0.0683278 3.1769631
v -1.6147150 -0.3506968 0.9254385
vn -0.2519926 -0.1370940 0.9579692
vt 0.0683297 1.3787200
v -0.9314583 3.9716599 0.0000000
vn 0.0000000 0.0000000 -1.0000000
vt 0.4165924 8.7297583
v -0.9314571 3.3877831 0.0000000
vn 0.0202752 -0.3116157 -0.9499919
vt 0.4165962 8.3492308
v -1.5980890 3.9278071 0.0000000
vn 0.0000000 0.0000000 -1.0000000
vt 0.0682973 8.7297544
v -1.5980840 3.3439300 0.0000000
vn 0.0202752 -0.3116157 -0.9499919
vt 0.0683010 8.3492289
v -1.5803180 -2.7657111 0.0000000
vn 0.0000000 -0.0476702 -0.9988632
vt 0.0683307 4.1759191
v -1.5980771 2.7189829 0.0000000
vn -0.0175932 0.2891831 -0.9571121
vt 0.0683045 7.9267821
v -0.9122501 -2.7657111 0.0000000
vn 0.0000000 -0.0476702 -0.9988632
vt 0.4166281 4.1759200
v -0.9314548 2.7628369 0.0000000
vn -0.0175932 0.2891831 -0.9571121
vt 0.4165999 7.9267850
v -1.5803180 -3.1764390 0.2602682
vn 0.0000000 -0.6661413 -0.7458256
vt 0.0683276 3.9056530
v -0.9122501 -3.1764390 0.2602682
vn 0.0000000 -0.6661413 -0.7458256
vt 0.4166279 3.9056530
v -1.5803180 -3.3434141 0.5699661
vn 0.0000000 -0.9255348 -0.3786626
vt 0.0683277 3.6879060
v -0.9122501 -3.3434141 0.5699661
vn 0.0000000 -0.9255348 -0.3786626
vt 0.4166279 3.6879060
v -1.5803180 -3.2092500 1.0493610
vn 0.0000000 -0.6039247 0.7970414
vt 0.0683277 3.3072169
v -0.9122501 -3.2092500 1.0493610
vn 0.0000000 -0.6039247 0.7970414
vt 0.4166279 3.3072169
v -0.9122501 -3.3423669 0.8397348
vn 0.0000000 -0.9167303 0.3995066
vt 0.4166279 3.5074680
v -1.5803180 -3.3423669 0.8397348
vn 0.0000000 -0.9167303 0.3995066
vt 0.0683277 3.5074680
v -0.9314583 3.9716599 0.0727481
vn 0.9978433 0.0656417 0.0000000
vt 0.4766271 8.7297573
v -0.9314571 3.4108679 0.0727481
vn 0.9977843 0.0665323 -0.0002034
vt 0.4766271 8.3492317
v -0.9314583 3.9716599 0.0000000
vn 0.9978433 0.0656417 0.0000000
vt 0.4165924 8.7297583
v -0.9314571 3.3877831 0.0000000
vn 0.9977843 0.0665323 -0.0002034
vt 0.4165962 8.3492308
v -1.5980840 3.3439300 0.0000000
vn -0.9977833 -0.0665479 0.0002186
vt 0.0683010 8.3492289
v -1.5980840 3.3670149 0.0727481
vn -0.9977833 -0.0665479 0.0002186
vt 0.0077809 8.3492270
v -1.5980890 3.9278071 0.0000000
vn -0.9978433 -0.0656419 0.0000000
vt 0.0682973 8.7297544
v -1.5980890 3.9278071 0.0727481
vn -0.9978433 -0.0656419 0.0000000
vt 0.0077772 8.7297544
v -0.9122504 -2.7657111 0.0734805
vn 0.9999977 0.0021763 0.0000000
vt 0.4766271 4.1759200
v -0.9122501 -2.7657111 0.0000000
vn 0.9999977 0.0021763 0.0000000
vt 0.4166281 4.1759200
v -0.9314548 2.7376060 0.0727481
vn 0.9978527 0.0654862 0.0012327
vt 0.4766271 7.9267850
v -0.9314548 2.7628369 0.0000000
vn 0.9978527 0.0654862 0.0012327
vt 0.4165999 7.9267850
v -1.5803190 -2.7657111 0.0734805
vn -0.9999980 -0.0020333 0.0000000
vt 0.0078127 4.1759191
v -1.5980771 2.6937521 0.0727481
vn -0.9978542 -0.0654639 -0.0012127
vt 0.0077845 7.9267821
v -1.5803180 -2.7657111 0.0000000
vn -0.9999980 -0.0020333 0.0000000
vt 0.0683307 4.1759191
v -1.5980771 2.7189829 0.0000000
vn -0.9978542 -0.0654639 -0.0012127
vt 0.0683045 7.9267821
v -0.9122501 -3.1764390 0.2602682
vn 1.0000000 0.0000000 0.0000000
vt 0.4166279 3.9056530
v -0.9122505 -3.1238589 0.3126276
vn 1.0000000 0.0000000 0.0000000
vt 0.4766271 3.9056540
v -1.5803180 -3.1764390 0.2602682
vn -1.0000000 0.0000000 0.0000000
vt 0.0683276 3.9056530
v -1.5803190 -3.1238589 0.3126276
vn -1.0000000 0.0000000 0.0000000
vt 0.0078125 3.9056530
v -0.9122501 -3.3434141 0.5699661
vn 1.0000000 0.0000000 0.0000000
vt 0.4166279 3.6879060
v -0.9122505 -3.2770269 0.5927640
vn 1.0000000 0.0000000 0.0000000
vt 0.4766271 3.6879060
v -1.5803190 -3.2770269 0.5927640
vn -1.0000000 0.0000000 0.0000000
vt 0.0078125 3.6879060
v -1.5803180 -3.3434141 0.5699661
vn -1.0000000 0.0000000 0.0000000
vt 0.0683277 3.6879060
v -0.9122501 -2.9984181 1.1303940
vn 0.9995908 0.0028769 0.0284607
vt 0.4166279 3.1769631
v -0.9122504 -2.9836149 1.0584390
vn 0.9995908 0.0028769 0.0284607
vt 0.4766271 3.1769640
v -0.9777203 -0.3506969 1.1198601
vn 0.9606887 0.0383251 0.2749698
vt 0.4166279 1.3787200
v -0.9569070 -0.3506969 1.0516061
vn 0.9606887 0.0383251 0.2749698
vt 0.4766271 1.3787200
v -0.9122501 -3.2092500 1.0493610
vn 1.0000000 0.0000000 0.0000000
vt 0.4166279 3.3072169
v -0.9122505 -3.1652820 0.9913335
vn 1.0000000 0.0000000 0.0000000
vt 0.4766271 3.3072181
v -1.5803180 -2.9836140 1.0584390
vn -0.9995904 -0.0028988 -0.0284721
vt 0.0078125 3.1769631
v -1.5803190 -3.1652820 0.9913335
vn -1.0000000 0.0000000 0.0000000
vt 0.0078125 3.3072169
v -1.5803180 -2.9984181 1.1303940
vn -0.9995904 -0.0028988 -0.0284721
vt 0.0683278 3.1769631
v -1.5803180 -3.2092500 1.0493610
vn -1.0000000 0.0000000 0.0000000
vt 0.0683277 3.3072169
v -0.9122501 -3.3423669 0.8397348
vn 1.0000000 0.0000000 0.0000000
vt 0.4166279 3.5074680
v -0.9122506 -3.2762361 0.8098607
vn 1.0000000 0.0000000 0.0000000
vt 0.4766271 3.5074680
v -1.5803180 -3.3423669 0.8397348
vn -1.0000000 0.0000000 0.0000000
vt 0.0683277 3.5074680
v -1.5803190 -3.2762361 0.8098607
vn -1.0000000 0.0000000 0.0000000
vt 0.0078125 3.5074680
v -1.5980840 3.3670149 0.0727481
vn -0.0199362 0.3062898 0.9517295
vt 0.8221861 8.3492317
v -0.9314571 3.4108679 0.0727481
vn -0.0199362 0.3062898 0.9517295
vt 0.4766271 8.3492317
v -1.5980890 3.9278071 0.0727481
vn 0.0000000 0.0000000 1.0000000
vt 0.8221823 8.7297592
v -0.9314583 3.9716599 0.0727481
vn 0.0000000 0.0000000 1.0000000
vt 0.4766271 8.7297573
v -1.5803190 -2.7657111 0.0734805
vn 0.0000000 0.0474138 0.9988754
vt 0.8222170 4.1759200
v -0.9122504 -2.7657111 0.0734805
vn 0.0000000 0.0474138 0.9988754
vt 0.4766271 4.1759200
v -1.5980771 2.6937521 0.0727481
vn 0.0173550 -0.2853670 0.9582612
vt 0.8221895 7.9267859
v -0.9314548 2.7376060 0.0727481
vn 0.0173550 -0.2853670 0.9582612
vt 0.4766271 7.9267850
v -0.9122505 -3.1238589 0.3126276
vn 0.0000000 0.6619646 0.7495351
vt 0.4766271 3.9056540
v -1.5803190 -3.1238589 0.3126276
vn 0.0000000 0.6619646 0.7495351
vt 0.8222170 3.9056540
v -1.5803190 -3.2770269 0.5927640
vn 0.0000000 0.9299469 0.3676940
vt 0.8222170 3.6879070
v -0.9122505 -3.2770269 0.5927640
vn 0.0000000 0.9299469 0.3676940
vt 0.4766271 3.6879060
v -1.5803190 -3.1652820 0.9913335
vn 0.0000000 0.5996797 -0.8002402
vt 0.8222170 3.3072181
v -1.5803180 -2.9836140 1.0584390
vn 0.0382375 0.1312094 -0.9906170
vt 0.8222170 3.1769640
v -0.9122505 -3.1652820 0.9913335
vn 0.0000000 0.5996797 -0.8002402
vt 0.4766271 3.3072181
v -0.9122504 -2.9836149 1.0584390
vn 0.0000000 0.2074049 -0.9782552
vt 0.4766271 3.1769640
v -1.5803190 -3.2762361 0.8098607
vn 0.0000000 0.9174092 -0.3979453
vt 0.8222170 3.5074689
v -0.9122506 -3.2762361 0.8098607
vn 0.0000000 0.9174092 -0.3979453
vt 0.4766271 3.5074680
v -1.2648110 3.3890109 0.0727481
vn -0.9803442 -0.0029294 0.1972731
vt 0.8794059 8.3492460
v -1.2647570 3.4330361 0.1933960
vn -0.9803442 -0.0029294 0.1972731
vt 0.9613538 8.3798389
v -1.2648950 3.9479790 0.0727481
vn -0.9742262 -0.0640881 0.2162775
vt 0.8796010 8.7297745
v -1.2648340 3.9497330 0.1933960
vn -0.9742262 -0.0640881 0.2162775
vt 0.9613538 8.7297392
v -1.2647110 2.7160220 0.0727481
vn -0.9725605 -0.1237949 0.1969798
vt 0.8792274 7.9268012
v -1.2730100 -2.7657111 0.0734805
vn -0.9766170 0.0081138 0.2148334
vt 0.8777699 4.1759281
v -1.2646450 2.6781421 0.1933960
vn -0.9725605 -0.1237949 0.1969798
vt 0.9613538 7.9088998
v -1.2462840 -2.7657111 0.1953738
vn -0.9766170 0.0081138 0.2148334
vt 0.9600775 4.1759109
v -1.2462840 -3.0379291 0.4011572
vn -0.9776567 0.1384645 0.1581612
vt 0.9600775 3.9280500
v -1.2730100 -3.1238589 0.3126276
vn -0.9776567 0.1384645 0.1581612
vt 0.8777699 3.9056530
v -1.2408960 -0.3491933 0.8410841
vn -0.8769894 -0.0370214 -0.4790815
vt 0.9600775 1.3776979
v -1.2462840 -2.9595151 0.9388326
vn -0.9704773 0.0401462 -0.2378279
vt 0.9600775 3.1571591
v -1.3009239 -0.3491933 0.9465903
vn -0.8769894 -0.0370214 -0.4790815
vt 0.8777699 1.3776979
v -1.2730100 -2.9836140 1.0584390
vn -0.9724017 0.0549150 -0.2267585
vt 0.8777699 3.1769631
v -1.6147150 -0.3506968 0.9254385
vn -0.9606762 -0.0386352 -0.2749703
vt 0.0683297 1.3787200
v -1.5939010 -0.3506969 0.8571851
vn -0.9606762 -0.0386352 -0.2749703
vt 0.0078125 1.3787200
v -0.9569070 -0.3506969 1.0516061
vn 0.2967914 -0.0284066 -0.9545198
vt 0.4766271 1.3787200
v -1.5939010 -0.3506969 0.8571851
vn 0.2519912 0.1370382 -0.9579775
vt 0.8222170 1.3787210
v -1.3277349 -0.0247214 1.0022060
vn -0.8906682 -0.0184469 -0.4542797
vt 0.8777699 1.1567570
v -1.2762671 -0.0247214 0.8923405
vn -0.8906682 -0.0184469 -0.4542797
vt 0.9600775 1.1567570
v -1.6316490 1.6927590 0.7118280
vn -0.9552807 -0.0591222 -0.2897298
vt 0.0078125 0.0162740
v -1.6524700 1.0656890 0.9026725
vn -0.9629969 -0.0455136 -0.2656418
vt 0.0078125 0.4159780
v -1.6539170 1.6927590 0.7794830
vn -0.9552807 -0.0591222 -0.2897298
vt 0.0683316 0.0162740
v -1.6715780 1.0656890 0.9714422
vn -0.9629969 -0.0455136 -0.2656418
vt 0.0683308 0.4159780
v -1.0087880 1.0656890 1.0815250
vn 0.2630255 -0.1380337 -0.9548635
vt 0.4766271 0.4159784
v -1.6524700 1.0656890 0.9026725
vn 0.2630255 -0.1380337 -0.9548635
vt 0.8222170 0.4159788
v -0.9970712 1.6927590 0.9206958
vn 0.2798083 -0.2659347 -0.9224890
vt 0.4766271 0.0162745
v -1.6316490 1.6927590 0.7118280
vn 0.2798083 -0.2659347 -0.9224890
vt 0.8222170 0.0162749
v -1.0278960 1.0656890 1.1502950
vn -0.2630218 0.1381221 0.9548518
vt 0.4166279 0.4159780
v -1.0193390 1.6927590 0.9883511
vn -0.2797914 0.2661478 0.9224327
vt 0.4166279 0.0162740
v -1.6715780 1.0656890 0.9714422
vn -0.2630218 0.1381221 0.9548518
vt 0.0683308 0.4159780
v -1.6539170 1.6927590 0.7794830
vn -0.2797914 0.2661478 0.9224327
vt 0.0683316 0.0162740
v -1.0278960 1.0656890 1.1502950
vn 0.9630361 0.0446546 0.2656454
vt 0.4166279 0.4159780
v -1.0087880 1.0656890 1.0815250
vn 0.9630361 0.0446546 0.2656454
vt 0.4766271 0.4159784
v -1.0193390 1.6927590 0.9883511
vn 0.9552830 0.0591225 0.2897223
vt 0.4166279 0.0162740
v -0.9970712 1.6927590 0.9206958
vn 0.9552830 0.0591225 0.2897223
vt 0.4766271 0.0162745
v -1.3563790 1.0656890 0.9849439
vn -0.8796694 -0.0694174 -0.4704923
vt 0.8777699 0.4159780
v -1.3397460 1.6927590 0.8079066
vn -0.8640033 -0.1111564 -0.4910628
vt 0.8777699 0.0162740
v -1.2989399 1.0656890 0.8780536
vn -0.8796694 -0.0694174 -0.4704923
vt 0.9600775 0.4159780
v -1.2774550 1.6927590 0.7041374
vn -0.8640033 -0.1111564 -0.4910628
vt 0.9600775 0.0162740
v -1.6316490 1.6927590 0.7118280
vn 0.0000000 1.0000000 0.0000000
vt 0.0683295 0.2948733
v -1.6539170 1.6927590 0.7794830
vn 0.0000000 1.0000000 0.0000000
vt 0.0683295 0.3459841
v -0.9970712 1.6927590 0.9206958
vn 0.0000000 1.0000000 0.0000000
vt 0.4166279 0.2948733
v -1.0193390 1.6927590 0.9883511
vn 0.0000000 1.0000000 0.0000000
vt 0.4166279 0.3459841
v -0.9314583 3.9716599 0.0727481
vn -0.0656411 0.9978434 0.0000000
vt 0.0683295 0.2948733
v -0.9314583 3.9716599 0.0000000
vn -0.0656411 0.9978434 0.0000000
vt 0.0683295 0.3459841
v -1.5980890 3.9278071 0.0727481
vn -0.0656411 0.9978434 0.0000000
vt 0.4166279 0.2948733
v -1.5980890 3.9278071 0.0000000
vn -0.0656411 0.9978434 0.0000000
vt 0.4166279 0.3459841
v -1.5980800 2.9275260 0.2240518
vn 0.0163506 -0.2822955 0.9591882
vt 0.8221881 8.0817566
v -0.9314559 2.9663849 0.2251041
vn 0.0163506 -0.2822955 0.9591882
vt 0.4766271 8.0817547
v -0.9314559 2.9663849 0.2251041
vn 0.9979662 0.0636972 0.0025149
vt 0.4766271 8.0817547
v -0.9314559 3.0001011 0.1606677
vn 0.9979662 0.0636972 0.0025149
vt 0.4165986 8.0817556
v -1.5980800 2.9612420 0.1596155
vn -0.0158109 0.2732524 -0.9618124
vt 0.0683032 8.0817518
v -0.9314559 3.0001011 0.1606677
vn -0.0158109 0.2732524 -0.9618124
vt 0.4165986 8.0817556
v -1.5980800 2.9612420 0.1596155
vn -0.9979668 -0.0636873 -0.0024958
vt 0.0683032 8.0817518
v -1.5980800 2.9275260 0.2240518
vn -0.9979668 -0.0636873 -0.0024958
vt 0.0077832 8.0817518
v -1.2647460 2.9443150 0.2239655
vn -0.9710196 -0.1209664 0.2061266
vt 0.8792928 8.0817709
v -1.2646790 2.8899529 0.3308710
vn -0.9704934 -0.1185793 0.2099562
vt 0.9613538 8.0408993
v -1.2647250 3.2209430 0.3367410
vn -0.9780090 -0.0008184 0.2085610
vt 0.9613538 8.2091703
v -1.2647790 3.1802111 0.2225833
vn -0.9799640 0.0189047 0.1982758
vt 0.8793467 8.2092047
v -1.5980819 3.1598890 0.2225302
vn -0.0209416 0.3093365 0.9507221
vt 0.8221872 8.2091904
v -0.9314559 3.2013791 0.2235706
vn -0.0209416 0.3093365 0.9507221
vt 0.4766271 8.2091885
v -0.9314559 3.1778200 0.1547607
vn 0.9979014 0.0647434 0.0010791
vt 0.4165974 8.2091894
v -0.9314559 3.2013791 0.2235706
vn 0.9979014 0.0647434 0.0010791
vt 0.4766271 8.2091885
v -1.5980810 3.1363289 0.1537207
vn 0.0220357 -0.3273447 -0.9446480
vt 0.0683021 8.2091856
v -0.9314559 3.1778200 0.1547607
vn 0.0220357 -0.3273447 -0.9446480
vt 0.4165974 8.2091894
v -1.5980819 3.1598890 0.2225302
vn -0.9978996 -0.0647715 -0.0010632
vt 0.0077821 8.2091856
v -1.5980810 3.1363289 0.1537207
vn -0.9978996 -0.0647715 -0.0010632
vt 0.0683021 8.2091856
v -1.6269970 -0.0246829 0.9362502
vn 0.2269270 0.1224259 -0.9661864
vt 0.8222170 1.1567310
v -0.9764229 -0.0246829 1.0796320
vn 0.2490960 0.0887639 -0.9644025
vt 0.4766271 1.1567310
v -0.9764229 -0.0246829 1.0796320
vn 0.9684852 0.0287878 0.2474020
vt 0.4766271 1.1567310
v -0.9917587 -0.0246828 1.1492940
vn 0.9684852 0.0287878 0.2474020
vt 0.4166279 1.1567310
v -0.9917587 -0.0246828 1.1492940
vn -0.2490970 -0.0888135 0.9643977
vt 0.4166279 1.1567310
v -1.6423330 -0.0246828 1.0059110
vn -0.2269198 -0.1227263 0.9661500
vt 0.0683299 1.1567310
v -1.6269970 -0.0246829 0.9362502
vn -0.9684509 -0.0299456 -0.2473988
vt 0.0078125 1.1567310
v -1.6423330 -0.0246828 1.0059110
vn -0.9684509 -0.0299456 -0.2473988
vt 0.0683299 1.1567310

g group_47_105553122447616
f 1/1/1 2/2/2 3/3/3 
f 3/3/3 2/2/2 4/4/4 
f 5/5/5 6/6/6 7/7/7 
f 7/7/7 6/6/6 8/8/8 
f 9/9/9 10/10/10 11/11/11 
f 11/11/11 10/10/10 12/12/12 
f 9/9/9 11/11/11 13/13/13 
f 13/13/13 11/11/11 14/14/14 
f 13/13/13 14/14/14 15/15/15 
f 15/15/15 14/14/14 16/16/16 
f 17/17/17 18/18/18 3/3/3 
f 3/3/3 18/18/18 1/1/1 
f 19/19/19 18/18/18 20/20/20 
f 20/20/20 18/18/18 17/17/17 
f 16/16/16 19/19/19 15/15/15 
f 15/15/15 19/19/19 20/20/20 
f 21/21/21 22/22/22 23/23/23 
f 23/23/23 22/22/22 24/24/24 
f 25/25/25 26/26/26 27/27/27 
f 27/27/27 26/26/26 28/28/28 
f 29/29/29 30/30/30 31/31/31 
f 31/31/31 30/30/30 32/32/32 
f 33/33/33 34/34/34 35/35/35 
f 35/35/35 34/34/34 36/36/36 
f 30/30/30 29/29/29 37/37/37 
f 37/37/37 29/29/29 38/38/38 
f 35/35/35 39/39/39 33/33/33 
f 33/33/33 39/39/39 40/40/40 
f 37/37/37 38/38/38 41/41/41 
f 41/41/41 38/38/38 42/42/42 
f 43/43/43 40/40/40 44/44/44 
f 44/44/44 40/40/40 39/39/39 
f 45/45/45 46/46/46 47/47/47 
f 47/47/47 46/46/46 48/48/48 
f 49/49/49 50/50/50 45/45/45 
f 45/45/45 50/50/50 46/46/46 
f 51/51/51 52/52/52 53/53/53 
f 53/53/53 52/52/52 54/54/54 
f 49/49/49 55/55/55 50/50/50 
f 50/50/50 55/55/55 56/56/56 
f 54/54/54 52/52/52 57/57/57 
f 57/57/57 52/52/52 58/58/58 
f 42/42/42 56/56/56 41/41/41 
f 41/41/41 56/56/56 55/55/55 
f 57/57/57 58/58/58 44/44/44 
f 44/44/44 58/58/58 43/43/43 
f 59/59/59 60/60/60 61/61/61 
f 61/61/61 60/60/60 62/62/62 
f 63/63/63 64/64/64 65/65/65 
f 65/65/65 64/64/64 66/66/66 
f 67/67/67 64/64/64 68/68/68 
f 68/68/68 64/64/64 63/63/63 
f 68/68/68 69/69/69 67/67/67 
f 67/67/67 69/69/69 70/70/70 
f 71/71/71 72/72/72 73/73/73 
f 73/73/73 72/72/72 74/74/74 
f 75/75/75 71/71/71 76/76/76 
f 76/76/76 71/71/71 73/73/73 
f 69/69/69 75/75/75 70/70/70 
f 70/70/70 75/75/75 76/76/76 
f 77/77/77 78/78/78 79/79/79 
f 79/79/79 78/78/78 80/80/80 
f 81/81/81 82/82/82 83/83/83 
f 83/83/83 82/82/82 84/84/84 
f 85/85/85 84/84/84 86/86/86 
f 86/86/86 84/84/84 82/82/82 
f 87/87/87 88/88/88 89/89/89 
f 89/89/89 88/88/88 90/90/90 
f 53/53/53 91/91/91 51/51/51 
f 51/51/51 91/91/91 92/92/92 
f 74/74/74 72/72/72 93/93/93 
f 93/93/93 72/72/72 94/94/94 
f 95/95/95 96/96/96 89/89/89 
f 89/89/89 96/96/96 87/87/87 
f 97/97/97 98/98/98 99/99/99 
f 99/99/99 98/98/98 100/100/100 
f 101/101/101 102/102/102 103/103/103 
f 103/103/103 102/102/102 104/104/104 
f 105/105/105 106/106/106 107/107/107 
f 107/107/107 106/106/106 108/108/108 
f 109/109/109 110/110/110 111/111/111 
f 111/111/111 110/110/110 112/112/112 
f 113/113/113 114/114/114 115/115/115 
f 115/115/115 114/114/114 116/116/116 
f 117/117/117 118/118/118 119/119/119 
f 119/119/119 118/118/118 120/120/120 
f 121/121/121 122/122/122 123/123/123 
f 123/123/123 122/122/122 124/124/124 
f 65/65/65 66/66/66 125/125/125 
f 125/125/125 66/66/66 126/126/126 
f 127/127/127 31/31/31 128/128/128 
f 128/128/128 31/31/31 32/32/32 
f 10/10/10 129/129/129 12/12/12 
f 12/12/12 129/129/129 130/130/130 
f 36/36/36 34/34/34 131/131/131 
f 131/131/131 34/34/34 132/132/132 
f 81/81/81 83/83/83 133/133/133 
f 133/133/133 83/83/83 134/134/134 
f 134/134/134 135/135/135 133/133/133 
f 133/133/133 135/135/135 136/136/136 
f 125/125/125 126/126/126 137/137/137 
f 137/137/137 126/126/126 138/138/138 
f 139/139/139 140/140/140 128/128/128 
f 128/128/128 140/140/140 127/127/127 
f 129/129/129 141/141/141 130/130/130 
f 130/130/130 141/141/141 142/142/142 
f 132/132/132 143/143/143 131/131/131 
f 131/131/131 143/143/143 144/144/144 
f 137/137/137 138/138/138 59/59/59 
f 59/59/59 138/138/138 60/60/60 
f 24/24/24 22/22/22 139/139/139 
f 139/139/139 22/22/22 140/140/140 
f 141/141/141 8/8/8 142/142/142 
f 142/142/142 8/8/8 6/6/6 
f 143/143/143 26/26/26 144/144/144 
f 144/144/144 26/26/26 25/25/25 
f 77/77/77 136/136/136 78/78/78 
f 78/78/78 136/136/136 135/135/135 
f 102/102/102 101/101/101 145/145/145 
f 145/145/145 101/101/101 146/146/146 
f 147/147/147 110/110/110 148/148/148 
f 148/148/148 110/110/110 109/109/109 
f 149/149/149 105/105/105 150/150/150 
f 150/150/150 105/105/105 107/107/107 
f 98/98/98 151/151/151 100/100/100 
f 100/100/100 151/151/151 152/152/152 
f 95/95/95 113/113/113 96/96/96 
f 96/96/96 113/113/113 115/115/115 
f 145/145/145 146/146/146 94/94/94 
f 94/94/94 146/146/146 93/93/93 
f 48/48/48 147/147/147 47/47/47 
f 47/47/47 147/147/147 148/148/148 
f 152/152/152 151/151/151 91/91/91 
f 91/91/91 151/151/151 92/92/92 
f 2/2/2 149/149/149 4/4/4 
f 4/4/4 149/149/149 150/150/150 
