v -1.2033870 -2.0284319 0.9109288
vn 0.0000000 0.8607683 -0.5089970
vt 0.7641748 0.6277198
v -1.2033870 -2.0284319 1.0083410
vn 0.0000000 0.8607675 0.5089984
vt 0.7641733 0.6377761
v -0.9849933 -2.0284319 0.9109288
vn 0.0000000 0.8607674 -0.5089985
vt 0.7413589 0.6277198
v -0.9849933 -2.0284319 1.0083410
vn 0.0000000 0.8607682 0.5089973
vt 0.7413569 0.6377761
v -0.9849933 -2.1205380 1.0666890
vn 0.0000000 0.0000000 1.0000000
vt 0.7413536 0.6498688
v -1.2033870 -2.1205380 1.0666890
vn 0.0000000 0.0000000 1.0000000
vt 0.7641708 0.6498688
v -0.9849933 -2.2126441 1.0083410
vn 0.0000000 -0.8607674 0.5089985
vt 0.7413548 0.6622625
v -1.2033870 -2.2126441 1.0083410
vn 0.0000000 -0.8607683 0.5089970
vt 0.7641714 0.6622625
v -1.2033870 -2.2126441 0.9109288
vn 0.0000000 -0.8607675 -0.5089984
vt 0.7641715 0.6727715
v -0.9849933 -2.2126441 0.9109288
vn 0.0000000 -0.8607682 -0.5089973
vt 0.7413552 0.6727715
v -0.9849933 -2.1205380 0.8525807
vn 0.0000000 0.0000000 -1.0000000
vt 0.7413594 0.6156289
v -0.9849933 -2.2126441 0.9109288
vn 0.0000000 -0.8607682 -0.5089973
vt 0.7413594 0.6045357
v -1.2033870 -2.1205380 0.8525807
vn 0.0000000 0.0000000 -1.0000000
vt 0.7641751 0.6156289
v -1.2033870 -2.2126441 0.9109288
vn 0.0000000 -0.8607675 -0.5089984
vt 0.7641751 0.6045357
v -1.2033870 -2.1205380 0.8525807
vn -1.0000000 0.0000000 0.0000000
vt 0.8899024 0.6533797
v -1.2033870 -2.2126441 0.9109288
vn -1.0000000 0.0000000 0.0000000
vt 0.8803295 0.6595438
v -1.2033870 -2.0284319 0.9109288
vn -1.0000000 0.0000000 0.0000000
vt 0.8995718 0.6594158
v -1.2033870 -2.2126441 1.0083410
vn -1.0000000 0.0000000 0.0000000
vt 0.8804150 0.6697199
v -1.2033870 -2.1205380 1.0666890
vn -1.0000000 0.0000000 0.0000000
vt 0.8900896 0.6757464
v -1.2033870 -2.0284319 1.0083410
vn -1.0000000 0.0000000 0.0000000
vt 0.8996573 0.6695918

g group_66_105553124535296
f 1/1/1 2/2/2 3/3/3 
f 3/3/3 2/2/2 4/4/4 
f 5/5/5 4/4/4 6/6/6 
f 6/6/6 4/4/4 2/2/2 
f 7/7/7 5/5/5 8/8/8 
f 8/8/8 5/5/5 6/6/6 
f 8/8/8 9/9/9 7/7/7 
f 7/7/7 9/9/9 10/10/10 
f 11/11/11 12/12/12 13/13/13 
f 13/13/13 12/12/12 14/14/14 
f 3/3/3 11/11/11 1/1/1 
f 1/1/1 11/11/11 13/13/13 
f 15/15/15 16/16/16 17/17/17 
f 16/16/16 18/18/18 17/17/17 
f 18/18/18 19/19/19 17/17/17 
f 19/19/19 20/20/20 17/17/17 
