v -1.1001979 0.9841751 0.9879623
vn 0.1037637 -0.6660028 0.7386971
vt 0.0898690 0.2157290
v -1.1001979 0.9475413 0.8995199
vn 0.1037638 -0.9932728 -0.0514027
vt 0.0999910 0.2157290
v -0.9029534 0.9658582 0.9437411
vn 0.1915455 -0.9067729 0.3755972
vt 0.0949300 0.2365850
v -1.1001979 0.9841751 0.8110777
vn 0.1037642 -0.7386969 -0.6660029
vt 0.1101120 0.2157290
v -0.9029534 1.0283970 0.7927606
vn 0.1915454 -0.3755972 -0.9067729
vt 0.1151730 0.2365850
v -1.1001979 1.0726180 0.7744436
vn 0.1037638 0.0514023 -0.9932728
vt 0.1202340 0.2157290
v -1.1001979 1.1610600 0.8110776
vn 0.1037635 0.6660035 -0.7386965
vt 0.1303560 0.2157290
v -0.9029534 1.1793770 0.8552987
vn 0.1915452 0.9067727 -0.3755979
vt 0.1303590 0.2365850
v -1.1001979 1.1610600 0.8110776
vn 0.1037635 0.6660035 -0.7386965
vt 0.0898690 0.2157290
v -1.1001979 1.1976939 0.8995199
vn 0.1037635 0.9932729 0.0514019
vt 0.0999910 0.2157290
v -0.9029534 1.1793770 0.8552987
vn 0.1915452 0.9067727 -0.3755979
vt 0.0949300 0.2365850
v -1.1001979 1.1610600 0.9879622
vn 0.1037635 0.7386971 0.6660029
vt 0.1101120 0.2157290
v -0.9029534 1.1168389 1.0062790
vn 0.1915453 0.3755984 0.9067725
vt 0.1151730 0.2365850
v -1.1001979 1.0726180 1.0245960
vn 0.1037635 -0.0514014 0.9932729
vt 0.1202340 0.2157290
v -1.1001979 0.9841751 0.9879623
vn 0.1037637 -0.6660028 0.7386971
vt 0.1303640 0.2157290
v -0.9029534 0.9658582 0.9437411
vn 0.1915455 -0.9067729 0.3755972
vt 0.1303680 0.2365850
v -1.1001979 0.9475413 0.8995199
vn -1.0000000 0.0000000 0.0000000
vt 0.3302320 0.2328550
v -1.1001979 0.9841751 0.9879623
vn -1.0000000 0.0000000 0.0000000
vt 0.3302320 0.2227380
v -1.1001979 1.0726180 1.0245960
vn -1.0000000 0.0000000 0.0000000
vt 0.3373860 0.2155850
v -1.1001979 1.1610600 0.9879622
vn -1.0000000 0.0000000 0.0000000
vt 0.3475020 0.2155850
v -1.1001979 1.1976939 0.8995199
vn -1.0000000 0.0000000 0.0000000
vt 0.3546560 0.2227380
v -1.1001979 1.1610600 0.8110776
vn -1.0000000 0.0000000 0.0000000
vt 0.3546560 0.2328550
v -1.1001979 1.0726180 0.7744436
vn -1.0000000 0.0000000 0.0000000
vt 0.3475020 0.2400090
v -1.1001979 0.9841751 0.8110777
vn -1.0000000 0.0000000 0.0000000
vt 0.3373860 0.2400090

g group_61874968_140627911894256
f 1/1/1 2/2/2 3/3/3 
f 2/2/2 4/4/4 5/5/5 
f 5/5/5 3/3/3 2/2/2 
f 4/4/4 6/6/6 5/5/5 
f 6/6/6 7/7/7 8/8/8 
f 8/8/8 5/5/5 6/6/6 
f 9/9/9 10/10/10 11/11/11 
f 10/10/10 12/12/12 13/13/13 
f 13/13/13 11/11/11 10/10/10 
f 12/12/12 14/14/14 13/13/13 
f 15/15/15 16/16/16 13/13/13 
f 13/13/13 14/14/14 15/15/15 
f 17/17/17 18/18/18 19/19/19 
f 19/19/19 20/20/20 21/21/21 
f 19/19/19 21/21/21 22/22/22 
f 17/17/17 19/19/19 22/22/22 
f 17/17/17 22/22/22 23/23/23 
f 17/17/17 23/23/23 24/24/24 
