v -0.9608111 0.3407548 0.1095059
vn 0.0000000 -0.5877852 -0.8090170
vt 0.1824310 0.5188310
v -0.9608111 0.2461181 0.2397621
vn 0.0000000 -0.9510565 -0.3090171
vt 0.1994370 0.5188310
v -1.1424810 0.2461181 0.2397621
vn 0.0000000 -0.9510565 -0.3090171
vt 0.1994370 0.4996430
v -1.1424810 0.3407548 0.1095059
vn 0.0000000 -0.5877852 -0.8090171
vt 0.1824310 0.4996430
v -0.9608111 0.2461181 0.4007680
vn 0.0000000 -0.9510566 0.3090169
vt 0.2164420 0.5188310
v -1.1424810 0.2461181 0.4007680
vn 0.0000000 -0.9510566 0.3090169
vt 0.2164420 0.4996430
v -0.9608111 0.3407549 0.5310244
vn 0.0000000 -0.5877854 0.8090169
vt 0.2334480 0.5188310
v -1.1424810 0.3407549 0.5310244
vn 0.0000000 -0.5877854 0.8090169
vt 0.2334480 0.4996430
v -1.1424810 0.3407549 0.5310244
vn 0.0000000 -0.5877854 0.8090169
vt 0.2334480 0.4996430
v -0.9608111 0.3407549 0.5310244
vn 0.0000000 -0.5877854 0.8090169
vt 0.2334480 0.5188310
v -0.9608111 0.4938806 0.5807780
vn 0.0000000 0.0000004 1.0000000
vt 0.2164430 0.5188310
v -1.1424810 0.4938806 0.5807780
vn 0.0000000 0.0000004 1.0000000
vt 0.2164430 0.4996430
v -1.1424810 0.6470062 0.5310244
vn 0.0000000 0.5877858 0.8090166
vt 0.1994370 0.4996430
v -0.9608111 0.6470062 0.5310244
vn 0.0000000 0.5877858 0.8090166
vt 0.1994370 0.5188310
v -0.9608111 0.7416428 0.4007679
vn 0.0000000 0.9510567 0.3090165
vt 0.1824310 0.5188310
v -1.1424810 0.7416428 0.4007679
vn 0.0000000 0.9510567 0.3090165
vt 0.1824310 0.4996430
v -0.9608111 0.7416428 0.2397621
vn 0.0000000 0.9510565 -0.3090172
vt 0.1654260 0.5188310
v -1.1424810 0.7416428 0.2397621
vn 0.0000000 0.9510564 -0.3090173
vt 0.1654260 0.4996430
v -1.1424810 0.6470060 0.1095058
vn 0.0000000 0.5877854 -0.8090169
vt 0.1484200 0.4996430
v -0.9608111 0.6470060 0.1095058
vn 0.0000000 0.5877854 -0.8090169
vt 0.1484200 0.5188310
v -0.9608111 0.6470060 0.1095058
vn 0.0000000 0.5877854 -0.8090169
vt 0.1484200 0.5188310
v -0.9608111 0.4938806 0.0597523
vn 0.0000000 0.0000001 -1.0000000
vt 0.1654260 0.5188310
v -1.1424810 0.4938806 0.0597523
vn 0.0000000 0.0000001 -1.0000000
vt 0.1654260 0.4996430
v -1.1424810 0.6470060 0.1095058
vn 0.0000000 0.5877854 -0.8090169
vt 0.1484200 0.4996430
v -0.9608111 0.4938806 0.0597523
vn 1.0000000 0.0000000 0.0000000
vt 0.1464830 0.5983820
v -0.9608111 0.6470060 0.1095058
vn 1.0000000 0.0000000 0.0000000
vt 0.1301480 0.5930740
v -0.9608111 0.7416428 0.2397621
vn 1.0000000 0.0000000 0.0000000
vt 0.1200520 0.5791790
v -0.9608111 0.7416428 0.4007679
vn 1.0000000 0.0000000 0.0000000
vt 0.1200520 0.5620030
v -0.9608111 0.6470062 0.5310244
vn 1.0000000 0.0000000 0.0000000
vt 0.1301480 0.5481070
v -0.9608111 0.4938806 0.5807780
vn 1.0000000 0.0000000 0.0000000
vt 0.1464830 0.5427990
v -1.1424810 0.3407549 0.5310244
vn -1.0000000 0.0000000 0.0000000
vt 0.2008740 0.5406010
v -1.1424810 0.4938806 0.5807780
vn -1.0000000 0.0000000 0.0000000
vt 0.2061820 0.5569360
v -1.1424810 0.6470062 0.5310244
vn -1.0000000 0.0000000 0.0000000
vt 0.2008740 0.5732720
v -1.1424810 0.7416428 0.4007679
vn -1.0000000 0.0000000 0.0000000
vt 0.1869780 0.5833670
v -1.1424810 0.7416428 0.2397621
vn -1.0000000 0.0000000 0.0000000
vt 0.1698020 0.5833670
v -1.1424810 0.6470060 0.1095058
vn -1.0000000 0.0000000 0.0000000
vt 0.1559060 0.5732720
v -1.1424810 0.4938806 0.0597523
vn -1.0000000 0.0000000 0.0000000
vt 0.1505990 0.5569360
v -1.1424810 0.3407548 0.1095059
vn -1.0000000 0.0000000 0.0000000
vt 0.1559060 0.5406010
v -1.1424810 0.2461181 0.2397621
vn -1.0000000 0.0000000 0.0000000
vt 0.1698020 0.5305050
v -1.1424810 0.2461181 0.4007680
vn -1.0000000 0.0000000 0.0000000
vt 0.1869780 0.5305050
v -0.9608111 0.3407549 0.5310244
vn 1.0000000 0.0000000 0.0000000
vt 0.1301480 0.5481070
v -0.9608111 0.2461181 0.4007680
vn 1.0000000 0.0000000 0.0000000
vt 0.1200520 0.5620030
v -0.9608111 0.2461181 0.2397621
vn 1.0000000 0.0000000 0.0000000
vt 0.1200520 0.5791790
v -0.9608111 0.3407548 0.1095059
vn 1.0000000 0.0000000 0.0000000
vt 0.1301480 0.5930740
v -0.9608111 0.4938806 0.0597523
vn 1.0000000 0.0000000 0.0000000
vt 0.1464830 0.5983820
v -0.9608111 0.4938806 0.5807780
vn 1.0000000 0.0000000 0.0000000
vt 0.1464830 0.5427990

g group_61948856_140627911952816
f 1/1/1 2/2/2 3/3/3 
f 3/3/3 4/4/4 1/1/1 
f 3/3/3 2/2/2 5/5/5 
f 5/5/5 6/6/6 3/3/3 
f 6/6/6 5/5/5 7/7/7 
f 7/7/7 8/8/8 6/6/6 
f 9/9/9 10/10/10 11/11/11 
f 11/11/11 12/12/12 9/9/9 
f 13/13/13 12/12/12 11/11/11 
f 11/11/11 14/14/14 13/13/13 
f 14/14/14 15/15/15 16/16/16 
f 16/16/16 13/13/13 14/14/14 
f 15/15/15 17/17/17 18/18/18 
f 18/18/18 16/16/16 15/15/15 
f 19/19/19 18/18/18 17/17/17 
f 17/17/17 20/20/20 19/19/19 
f 21/21/21 22/22/22 23/23/23 
f 23/23/23 24/24/24 21/21/21 
f 4/4/4 23/23/23 22/22/22 
f 22/22/22 1/1/1 4/4/4 
f 25/25/25 26/26/26 27/27/27 
f 27/27/27 28/28/28 29/29/29 
f 25/25/25 27/27/27 29/29/29 
f 25/25/25 29/29/29 30/30/30 
f 31/31/31 32/32/32 33/33/33 
f 33/33/33 34/34/34 35/35/35 
f 35/35/35 36/36/36 37/37/37 
f 37/37/37 38/38/38 39/39/39 
f 35/35/35 37/37/37 39/39/39 
f 33/33/33 35/35/35 39/39/39 
f 31/31/31 33/33/33 39/39/39 
f 31/31/31 39/39/39 40/40/40 
f 46/46/46 41/41/41 42/42/42 
f 42/42/42 43/43/43 44/44/44 
f 46/46/46 42/42/42 44/44/44 
f 46/46/46 44/44/44 45/45/45 
