v 1.1002209 0.9841762 0.9879624
vn -0.1037637 -0.6660031 0.7386968
vt 0.0898690 0.2157290
v 0.9029765 0.9658592 0.9437411
vn -0.1915453 -0.9067730 0.3755971
vt 0.0949300 0.2365850
v 1.1002209 0.9475423 0.8995200
vn -0.1037637 -0.9932728 -0.0514026
vt 0.0999910 0.2157290
v 0.9029765 1.0283971 0.7927607
vn -0.1915454 -0.3755974 -0.9067729
vt 0.1151730 0.2365850
v 1.1002209 0.9841762 0.8110777
vn -0.1037641 -0.7386969 -0.6660030
vt 0.1101120 0.2157290
v 1.1002209 1.0726191 0.7744437
vn -0.1037638 0.0514024 -0.9932728
vt 0.1202340 0.2157290
v 0.9029765 1.1793780 0.8552988
vn -0.1915452 0.9067727 -0.3755979
vt 0.1303590 0.2365850
v 1.1002209 1.1610610 0.8110777
vn -0.1037635 0.6660035 -0.7386965
vt 0.1303560 0.2157290
v 1.1002209 1.1610610 0.8110777
vn -0.1037635 0.6660035 -0.7386965
vt 0.0898690 0.2157290
v 0.9029765 1.1793780 0.8552988
vn -0.1915452 0.9067727 -0.3755979
vt 0.0949300 0.2365850
v 1.1002209 1.1976950 0.8995200
vn -0.1037636 0.9932729 0.0514019
vt 0.0999910 0.2157290
v 0.9029765 1.1168400 1.0062790
vn -0.1915454 0.3755981 0.9067726
vt 0.1151730 0.2365850
v 1.1002209 1.1610610 0.9879624
vn -0.1037635 0.7386971 0.6660029
vt 0.1101120 0.2157290
v 1.1002209 1.0726191 1.0245960
vn -0.1037636 -0.0514018 0.9932729
vt 0.1202340 0.2157290
v 1.1002209 0.9841762 0.9879624
vn -0.1037637 -0.6660031 0.7386968
vt 0.1303640 0.2157290
v 0.9029765 0.9658592 0.9437411
vn -0.1915453 -0.9067730 0.3755971
vt 0.1303680 0.2365850
v 1.1002209 0.9475423 0.8995200
vn 1.0000000 0.0000000 0.0000000
vt 0.3302320 0.2328550
v 1.1002209 0.9841762 0.8110777
vn 1.0000000 0.0000000 0.0000000
vt 0.3373860 0.2400090
v 1.1002209 1.0726191 0.7744437
vn 1.0000000 0.0000000 0.0000000
vt 0.3475020 0.2400090
v 1.1002209 1.1610610 0.8110777
vn 1.0000000 0.0000000 0.0000000
vt 0.3546560 0.2328550
v 1.1002209 1.1976950 0.8995200
vn 1.0000000 0.0000000 0.0000000
vt 0.3546560 0.2227380
v 1.1002209 1.1610610 0.9879624
vn 1.0000000 0.0000000 0.0000000
vt 0.3475020 0.2155850
v 1.1002209 1.0726191 1.0245960
vn 1.0000000 0.0000000 0.0000000
vt 0.3373860 0.2155850
v 1.1002209 0.9841762 0.9879624
vn 1.0000000 0.0000000 0.0000000
vt 0.3302320 0.2227380

g group_61949192_140627912957008
f 1/1/1 2/2/2 3/3/3 
f 3/3/3 2/2/2 4/4/4 
f 4/4/4 5/5/5 3/3/3 
f 5/5/5 4/4/4 6/6/6 
f 6/6/6 4/4/4 7/7/7 
f 7/7/7 8/8/8 6/6/6 
f 9/9/9 10/10/10 11/11/11 
f 11/11/11 10/10/10 12/12/12 
f 12/12/12 13/13/13 11/11/11 
f 13/13/13 12/12/12 14/14/14 
f 15/15/15 14/14/14 12/12/12 
f 12/12/12 16/16/16 15/15/15 
f 17/17/17 18/18/18 19/19/19 
f 17/17/17 19/19/19 20/20/20 
f 21/21/21 22/22/22 23/23/23 
f 20/20/20 21/21/21 23/23/23 
f 17/17/17 20/20/20 23/23/23 
f 17/17/17 23/23/23 24/24/24 
