v -0.9608111 1.7667099 0.1095056
vn 0.0000000 -0.5877852 -0.8090171
vt 0.1824310 0.5188310
v -0.9608111 1.6720729 0.2397619
vn 0.0000000 -0.9510565 -0.3090173
vt 0.1994370 0.5188310
v -1.1424810 1.6720729 0.2397619
vn 0.0000000 -0.9510565 -0.3090172
vt 0.1994370 0.4996430
v -1.1424810 1.7667099 0.1095056
vn 0.0000000 -0.5877851 -0.8090171
vt 0.1824310 0.4996430
v -1.1424810 1.6720729 0.4007677
vn 0.0000000 -0.9510566 0.3090169
vt 0.2164420 0.4996430
v -0.9608111 1.6720729 0.4007677
vn 0.0000000 -0.9510566 0.3090169
vt 0.2164420 0.5188310
v -0.9608111 1.7667099 0.5310242
vn 0.0000000 -0.5877855 0.8090169
vt 0.2334480 0.5188310
v -1.1424810 1.7667099 0.5310242
vn 0.0000000 -0.5877855 0.8090169
vt 0.2334480 0.4996430
v -0.9608111 1.7667099 0.5310242
vn 0.0000000 -0.5877855 0.8090169
vt 0.2334480 0.5188310
v -0.9608111 1.9198350 0.5807778
vn 0.0000000 0.0000001 1.0000000
vt 0.2164430 0.5188310
v -1.1424810 1.9198350 0.5807778
vn 0.0000000 0.0000001 1.0000000
vt 0.2164430 0.4996430
v -1.1424810 1.7667099 0.5310242
vn 0.0000000 -0.5877855 0.8090169
vt 0.2334480 0.4996430
v -0.9608111 2.0729609 0.5310242
vn 0.0000000 0.5877858 0.8090166
vt 0.1994370 0.5188310
v -1.1424810 2.0729609 0.5310242
vn 0.0000000 0.5877858 0.8090166
vt 0.1994370 0.4996430
v -0.9608111 2.1675968 0.4007677
vn 0.0000000 0.9510567 0.3090166
vt 0.1824310 0.5188310
v -1.1424810 2.1675968 0.4007677
vn 0.0000000 0.9510567 0.3090166
vt 0.1824310 0.4996430
v -0.9608111 2.1675968 0.2397618
vn 0.0000000 0.9510565 -0.3090170
vt 0.1654260 0.5188310
v -1.1424810 2.1675968 0.2397618
vn 0.0000000 0.9510565 -0.3090169
vt 0.1654260 0.4996430
v -0.9608111 2.0729609 0.1095056
vn 0.0000000 0.5877854 -0.8090169
vt 0.1484200 0.5188310
v -1.1424810 2.0729609 0.1095056
vn 0.0000000 0.5877855 -0.8090169
vt 0.1484200 0.4996430
v -1.1424810 1.9198350 0.0597521
vn 0.0000000 0.0000000 -1.0000000
vt 0.1654260 0.4996430
v -1.1424810 2.0729609 0.1095056
vn 0.0000000 0.5877855 -0.8090169
vt 0.1484200 0.4996430
v -0.9608111 2.0729609 0.1095056
vn 0.0000000 0.5877854 -0.8090169
vt 0.1484200 0.5188310
v -0.9608111 1.9198350 0.0597521
vn 0.0000000 0.0000000 -1.0000000
vt 0.1654260 0.5188310
v -0.9608111 1.9198350 0.5807778
vn 1.0000000 0.0000000 0.0000000
vt 0.1464830 0.5427990
v -0.9608111 1.9198350 0.0597521
vn 1.0000000 0.0000000 0.0000000
vt 0.1464830 0.5983820
v -0.9608111 2.0729609 0.1095056
vn 1.0000000 0.0000000 0.0000000
vt 0.1301480 0.5930740
v -0.9608111 2.1675968 0.2397618
vn 1.0000000 0.0000000 0.0000000
vt 0.1200520 0.5791790
v -0.9608111 2.1675968 0.4007677
vn 1.0000000 0.0000000 0.0000000
vt 0.1200520 0.5620030
v -0.9608111 2.0729609 0.5310242
vn 1.0000000 0.0000000 0.0000000
vt 0.1301480 0.5481070
v -1.1424810 1.7667099 0.5310242
vn -1.0000000 0.0000000 0.0000000
vt 0.2008740 0.5406010
v -1.1424810 1.9198350 0.5807778
vn -1.0000000 0.0000000 0.0000000
vt 0.2061820 0.5569360
v -1.1424810 2.0729609 0.5310242
vn -1.0000000 0.0000000 0.0000000
vt 0.2008740 0.5732720
v -1.1424810 2.1675968 0.4007677
vn -1.0000000 0.0000000 0.0000000
vt 0.1869780 0.5833670
v -1.1424810 2.1675968 0.2397618
vn -1.0000000 0.0000000 0.0000000
vt 0.1698020 0.5833670
v -1.1424810 2.0729609 0.1095056
vn -1.0000000 0.0000000 0.0000000
vt 0.1559060 0.5732720
v -1.1424810 1.9198350 0.0597521
vn -1.0000000 0.0000000 0.0000000
vt 0.1505990 0.5569360
v -1.1424810 1.7667099 0.1095056
vn -1.0000000 0.0000000 0.0000000
vt 0.1559060 0.5406010
v -1.1424810 1.6720729 0.2397619
vn -1.0000000 0.0000000 0.0000000
vt 0.1698020 0.5305050
v -1.1424810 1.6720729 0.4007677
vn -1.0000000 0.0000000 0.0000000
vt 0.1869780 0.5305050
v -0.9608111 1.7667099 0.5310242
vn 1.0000000 0.0000000 0.0000000
vt 0.1301480 0.5481070
v -0.9608111 1.6720729 0.4007677
vn 1.0000000 0.0000000 0.0000000
vt 0.1200520 0.5620030
v -0.9608111 1.6720729 0.2397619
vn 1.0000000 0.0000000 0.0000000
vt 0.1200520 0.5791790
v -0.9608111 1.7667099 0.1095056
vn 1.0000000 0.0000000 0.0000000
vt 0.1301480 0.5930740
v -0.9608111 1.9198350 0.5807778
vn 1.0000000 0.0000000 0.0000000
vt 0.1464830 0.5427990
v -0.9608111 1.9198350 0.0597521
vn 1.0000000 0.0000000 0.0000000
vt 0.1464830 0.5983820

g group_14782120_140627911670880
f 1/1/1 2/2/2 3/3/3 
f 3/3/3 4/4/4 1/1/1 
f 5/5/5 3/3/3 2/2/2 
f 2/2/2 6/6/6 5/5/5 
f 5/5/5 6/6/6 7/7/7 
f 7/7/7 8/8/8 5/5/5 
f 9/9/9 10/10/10 11/11/11 
f 11/11/11 12/12/12 9/9/9 
f 11/11/11 10/10/10 13/13/13 
f 13/13/13 14/14/14 11/11/11 
f 13/13/13 15/15/15 16/16/16 
f 16/16/16 14/14/14 13/13/13 
f 16/16/16 15/15/15 17/17/17 
f 17/17/17 18/18/18 16/16/16 
f 18/18/18 17/17/17 19/19/19 
f 19/19/19 20/20/20 18/18/18 
f 21/21/21 22/22/22 23/23/23 
f 23/23/23 24/24/24 21/21/21 
f 4/4/4 21/21/21 24/24/24 
f 24/24/24 1/1/1 4/4/4 
f 25/25/25 26/26/26 27/27/27 
f 25/25/25 27/27/27 28/28/28 
f 25/25/25 28/28/28 29/29/29 
f 25/25/25 29/29/29 30/30/30 
f 31/31/31 32/32/32 33/33/33 
f 33/33/33 34/34/34 35/35/35 
f 35/35/35 36/36/36 37/37/37 
f 37/37/37 38/38/38 39/39/39 
f 35/35/35 37/37/37 39/39/39 
f 33/33/33 35/35/35 39/39/39 
f 31/31/31 33/33/33 39/39/39 
f 31/31/31 39/39/39 40/40/40 
f 45/45/45 41/41/41 42/42/42 
f 42/42/42 43/43/43 44/44/44 
f 45/45/45 42/42/42 44/44/44 
f 45/45/45 44/44/44 46/46/46 
