v 1.1002209 -1.8672521 0.9879624
vn -0.1037644 -0.6660032 0.7386966
vt 0.0898690 0.2157290
v 0.9029765 -1.8855691 0.9437411
vn -0.1915458 -0.9067728 0.3755974
vt 0.0949300 0.2365850
v 1.1002209 -1.9038861 0.8995200
vn -0.1037644 -0.9932728 -0.0514024
vt 0.0999910 0.2157290
v 0.9029765 -1.8230311 0.7927607
vn -0.1915457 -0.3755973 -0.9067729
vt 0.1151730 0.2365850
v 1.1002209 -1.8672521 0.8110777
vn -0.1037644 -0.7386969 -0.6660029
vt 0.1101120 0.2157290
v 1.1002209 -1.7788100 0.7744437
vn -0.1037638 0.0514022 -0.9932728
vt 0.1202340 0.2157290
v 0.9029765 -1.6720511 0.8552988
vn -0.1915455 0.9067727 -0.3755976
vt 0.1303590 0.2365850
v 1.1002209 -1.6903681 0.8110777
vn -0.1037636 0.6660031 -0.7386969
vt 0.1303560 0.2157290
v 1.1002209 -1.6903681 0.8110777
vn -0.1037636 0.6660031 -0.7386969
vt 0.0898690 0.2157290
v 0.9029765 -1.6720511 0.8552988
vn -0.1915455 0.9067727 -0.3755976
vt 0.0949300 0.2365850
v 1.1002209 -1.6537330 0.8995200
vn -0.1037642 0.9932728 0.0514021
vt 0.0999910 0.2157290
v 0.9029765 -1.7345891 1.0062790
vn -0.1915455 0.3755972 0.9067729
vt 0.1151730 0.2365850
v 1.1002209 -1.6903681 0.9879624
vn -0.1037640 0.7386967 0.6660032
vt 0.1101120 0.2157290
v 1.1002209 -1.7788100 1.0245960
vn -0.1037640 -0.0514021 0.9932728
vt 0.1202340 0.2157290
v 0.9029765 -1.8855691 0.9437411
vn -0.1915458 -0.9067728 0.3755974
vt 0.1303680 0.2365850
v 1.1002209 -1.8672521 0.9879624
vn -0.1037644 -0.6660032 0.7386966
vt 0.1303640 0.2157290
v 1.1002209 -1.9038861 0.8995200
vn 1.0000000 0.0000000 0.0000000
vt 0.3302320 0.2328550
v 1.1002209 -1.8672521 0.8110777
vn 1.0000000 0.0000000 0.0000000
vt 0.3373860 0.2400090
v 1.1002209 -1.7788100 0.7744437
vn 1.0000000 0.0000000 0.0000000
vt 0.3475020 0.2400090
v 1.1002209 -1.6903681 0.8110777
vn 1.0000000 0.0000000 0.0000000
vt 0.3546560 0.2328550
v 1.1002209 -1.6537330 0.8995200
vn 1.0000000 0.0000000 0.0000000
vt 0.3546560 0.2227380
v 1.1002209 -1.6903681 0.9879624
vn 1.0000000 0.0000000 0.0000000
vt 0.3475020 0.2155850
v 1.1002209 -1.7788100 1.0245960
vn 1.0000000 0.0000000 0.0000000
vt 0.3373860 0.2155850
v 1.1002209 -1.8672521 0.9879624
vn 1.0000000 0.0000000 0.0000000
vt 0.3302320 0.2227380

g group_61951208_140627909787360
f 1/1/1 2/2/2 3/3/3 
f 3/3/3 2/2/2 4/4/4 
f 4/4/4 5/5/5 3/3/3 
f 5/5/5 4/4/4 6/6/6 
f 6/6/6 4/4/4 7/7/7 
f 7/7/7 8/8/8 6/6/6 
f 9/9/9 10/10/10 11/11/11 
f 10/10/10 12/12/12 13/13/13 
f 13/13/13 11/11/11 10/10/10 
f 13/13/13 12/12/12 14/14/14 
f 15/15/15 16/16/16 14/14/14 
f 14/14/14 12/12/12 15/15/15 
f 17/17/17 18/18/18 19/19/19 
f 17/17/17 19/19/19 20/20/20 
f 20/20/20 21/21/21 22/22/22 
f 17/17/17 20/20/20 22/22/22 
f 22/22/22 23/23/23 24/24/24 
f 17/17/17 22/22/22 24/24/24 
