v -0.8482377 2.2818840 1.0557470
vn 1.0000000 0.0000000 0.0000000
vt 0.2817760 0.6318130
v -0.8482377 2.1121380 0.9272170
vn 1.0000000 0.0000000 0.0000000
vt 0.2817750 0.6094560
v -0.8482377 2.0503581 0.7234592
vn 1.0000000 0.0000000 0.0000000
vt 0.2686350 0.5913690
v -0.8482377 2.1201429 0.5223025
vn 1.0000000 0.0000000 0.0000000
vt 0.2473720 0.5844610
v -0.8482377 2.2948370 0.4005820
vn 1.0000000 0.0000000 0.0000000
vt 0.2261100 0.5913690
v -0.8482377 2.4947600 1.0599560
vn 1.0000000 0.0000000 0.0000000
vt 0.2686350 0.6499000
v -0.8482377 2.5077140 0.4047908
vn 1.0000000 0.0000000 0.0000000
vt 0.2129690 0.6094560
v -0.8482377 2.6774600 0.5333211
vn 1.0000000 0.0000000 0.0000000
vt 0.2129690 0.6318130
v -0.8482377 2.7392399 0.7370791
vn 1.0000000 0.0000000 0.0000000
vt 0.2261100 0.6499000
v -0.8482377 2.6694551 0.9382358
vn 1.0000000 0.0000000 0.0000000
vt 0.2473720 0.6568080
v -0.8482377 2.7392399 0.7370791
vn -0.9945199 0.1045272 0.0020666
vt 0.2261100 0.6499000
v -0.8844536 2.3947990 0.7302691
vn -1.0000000 0.0000000 0.0000000
vt 0.2473720 0.6206340
v -0.8482377 2.6694551 0.9382358
vn -0.9945199 0.0833496 0.0631114
vt 0.2473720 0.6568080
v -0.7795468 2.2928560 0.8704286
vn 0.0000000 -0.6085913 0.7934839
vt 0.3957460 0.0042770
v -1.2352589 2.2928560 0.8704286
vn 0.0000000 -0.6085913 0.7934839
vt 0.3957910 0.0490470
v -1.2352589 2.2356291 0.7145327
vn 0.0000000 -0.9956567 -0.0931011
vt 0.3781190 0.0490660
v -0.7795468 2.2356291 0.7145327
vn 0.0000000 -0.9956566 -0.0931015
vt 0.3780730 0.0042770
v -0.7795468 2.4708970 0.8864207
vn 0.0000000 0.4541920 0.8909038
vt 0.4160100 0.0042750
v -1.2352589 2.4708970 0.8864207
vn 0.0000000 0.4541923 0.8909037
vt 0.4160550 0.0490280
v -1.2352589 2.5547390 0.7460055
vn 0.0000000 0.9956566 0.0931019
vt 0.4331970 0.0490100
v -0.7795470 2.5547390 0.7460055
vn 0.0000000 0.9956566 0.0931017
vt 0.4331520 0.0042770
v -0.7795467 2.4975131 0.5901096
vn 0.0000002 0.6085908 -0.7934843
vt 0.4508240 0.0042770
v -1.2352589 2.4975131 0.5901095
vn 0.0000001 0.6085913 -0.7934840
vt 0.4508690 0.0489920
v -0.7795465 2.3194711 0.5741175
vn 0.0000001 -0.4541928 -0.8909034
vt 0.4705080 0.0042750
v -1.2352589 2.3194711 0.5741175
vn 0.0000000 -0.4541931 -0.8909033
vt 0.4705530 0.0489740
v -1.2352589 2.2356291 0.7145327
vn 0.0000000 -0.9956567 -0.0931011
vt 0.4813900 0.0489610
v -0.7795468 2.2356291 0.7145327
vn 0.0000000 -0.9956566 -0.0931015
vt 0.4813450 0.0042770
v -1.2515529 2.1259661 0.9218010
vn -0.0000067 -0.9268607 -0.3754053
vt 0.3824230 0.0625320
v -1.2697079 2.1656320 0.8238665
vn -0.0000067 -0.9268608 -0.3754053
vt 0.3800790 0.0650840
v -1.2333980 2.1656320 0.8238664
vn -0.0000067 -0.9268607 -0.3754053
vt 0.3800790 0.0616810
v -1.2333980 2.2351592 0.9199099
vn 0.0000000 0.0173161 0.9998501
vt 0.3800790 0.0616810
v -1.2697079 2.2351592 0.9199099
vn 0.0000000 0.0173161 0.9998501
vt 0.3800790 0.0650840
v -1.2515529 2.1259661 0.9218010
vn 0.0000000 0.0173161 0.9998501
vt 0.3824230 0.0625320
v -1.2515529 2.0680699 0.7748049
vn -0.0000025 -0.6462409 -0.7631335
vt 0.3824230 0.0625320
v -1.2697079 2.1487050 0.7065216
vn -0.0000025 -0.6462409 -0.7631335
vt 0.3800790 0.0650840
v -1.2333980 2.1487050 0.7065215
vn -0.0000025 -0.6462409 -0.7631335
vt 0.3800790 0.0616810
v -1.2333980 2.1656320 0.8238664
vn -0.0000015 -0.4492693 0.8933964
vt 0.3800790 0.0616810
v -1.2697079 2.1656320 0.8238665
vn -0.0000015 -0.4492693 0.8933964
vt 0.3800790 0.0650840
v -1.2515529 2.0680699 0.7748049
vn -0.0000015 -0.4492693 0.8933964
vt 0.3824230 0.0625320
v -1.2515529 2.0851181 0.6177410
vn 0.0000048 -0.2175745 -0.9760437
vt 0.3824230 0.0625320
v -1.2697079 2.1882501 0.5947515
vn 0.0000048 -0.2175745 -0.9760437
vt 0.3800790 0.0650840
v -1.2333980 2.1882501 0.5947517
vn 0.0000048 -0.2175745 -0.9760438
vt 0.3800790 0.0616810
v -1.2333980 2.1487050 0.7065215
vn 0.0000019 -0.8129874 0.5822812
vt 0.3800790 0.0616810
v -1.2697079 2.1487050 0.7065216
vn 0.0000019 -0.8129874 0.5822812
vt 0.3800790 0.0650840
v -1.2515529 2.0851181 0.6177410
vn 0.0000019 -0.8129874 0.5822812
vt 0.3824230 0.0625320
v -1.2515529 2.1732039 0.4865899
vn 0.0000000 0.2609320 -0.9653572
vt 0.3824230 0.0625320
v -1.2697079 2.2752061 0.5141608
vn 0.0000000 0.2609320 -0.9653572
vt 0.3800790 0.0650840
v -1.2333980 2.2752061 0.5141608
vn 0.0000000 0.2609320 -0.9653572
vt 0.3800790 0.0616810
v -1.2333980 2.1882501 0.5947517
vn -0.0000007 -0.9904630 0.1377789
vt 0.3800790 0.0616810
v -1.2697079 2.1882501 0.5947515
vn -0.0000007 -0.9904630 0.1377789
vt 0.3800790 0.0650840
v -1.2515529 2.1732039 0.4865899
vn -0.0000007 -0.9904630 0.1377789
vt 0.3824230 0.0625320
v -1.2515529 2.3121481 0.4113961
vn -0.0000053 0.6796641 -0.7335235
vt 0.3824230 0.0625320
v -1.2697079 2.3896542 0.4832114
vn -0.0000053 0.6796640 -0.7335236
vt 0.3800790 0.0650840
v -1.2333980 2.3896551 0.4832115
vn -0.0000053 0.6796641 -0.7335235
vt 0.3800790 0.0616810
v -1.2333980 2.2752061 0.5141608
vn 0.0000000 -0.9410421 -0.3382896
vt 0.3800790 0.0616810
v -1.2697079 2.2752061 0.5141608
vn 0.0000000 -0.9410421 -0.3382896
vt 0.3800790 0.0650840
v -1.2515529 2.3121481 0.4113961
vn 0.0000000 -0.9410421 -0.3382896
vt 0.3824230 0.0625320
v -1.2515529 2.4701221 0.4093854
vn -0.0000022 0.9426957 -0.3336538
vt 0.3824230 0.0625320
v -1.2697079 2.5053771 0.5089931
vn -0.0000022 0.9426957 -0.3336538
vt 0.3800790 0.0650840
v -1.2333980 2.5053771 0.5089929
vn -0.0000022 0.9426957 -0.3336538
vt 0.3800790 0.0616810
v -1.2333980 2.3896551 0.4832115
vn 0.0000125 -0.6760442 -0.7368611
vt 0.3800790 0.0616810
v -1.2697079 2.3896542 0.4832114
vn 0.0000125 -0.6760442 -0.7368611
vt 0.3800790 0.0650840
v -1.2515529 2.4701221 0.4093854
vn 0.0000125 -0.6760442 -0.7368611
vt 0.3824230 0.0625320
v -1.2515529 2.6109362 0.4810181
vn 0.0000000 0.9897725 0.1426550
vt 0.3824230 0.0625320
v -1.2697079 2.5958622 0.5856000
vn 0.0000000 0.9897725 0.1426550
vt 0.3800790 0.0650840
v -1.2333980 2.5958622 0.5856000
vn 0.0000000 0.9897725 0.1426550
vt 0.3800790 0.0616810
v -1.2333980 2.5053771 0.5089929
vn -0.0000063 -0.2561742 -0.9666306
vt 0.3800790 0.0616810
v -1.2697079 2.5053771 0.5089931
vn -0.0000063 -0.2561742 -0.9666306
vt 0.3800790 0.0650840
v -1.2515529 2.6109362 0.4810181
vn -0.0000063 -0.2561742 -0.9666306
vt 0.3824230 0.0625320
v -1.2515529 2.7023311 0.6098843
vn -0.0000019 0.8101106 0.5862772
vt 0.3824230 0.0625320
v -1.2697079 2.6403830 0.6954826
vn -0.0000019 0.8101106 0.5862772
vt 0.3800790 0.0650840
v -1.2333980 2.6403830 0.6954827
vn -0.0000019 0.8101105 0.5862772
vt 0.3800790 0.0616810
v -1.2333980 2.5958622 0.5856000
vn 0.0000000 0.2223775 -0.9749607
vt 0.3800790 0.0616810
v -1.2697079 2.5958622 0.5856000
vn 0.0000000 0.2223775 -0.9749606
vt 0.3800790 0.0650840
v -1.2515529 2.7023311 0.6098843
vn 0.0000000 0.2223775 -0.9749606
vt 0.3824230 0.0625320
v -1.2515529 2.7233710 0.7664635
vn 0.0000000 0.4448632 0.8955986
vt 0.3824230 0.0625320
v -1.2697079 2.6287401 0.8134692
vn 0.0000000 0.4448631 0.8955986
vt 0.3800790 0.0650840
v -1.2333980 2.6287401 0.8134692
vn 0.0000000 0.4448631 0.8955986
vt 0.3800790 0.0616810
v -1.2333980 2.6403830 0.6954827
vn 0.0000025 0.6499889 -0.7599437
vt 0.3800790 0.0616810
v -1.2697079 2.6403830 0.6954826
vn 0.0000025 0.6499889 -0.7599437
vt 0.3800790 0.0650840
v -1.2515529 2.7233710 0.7664635
vn 0.0000025 0.6499889 -0.7599437
vt 0.3824230 0.0625320
v -1.2515529 2.6692359 0.9148855
vn 0.0000000 -0.0222939 0.9997514
vt 0.3824230 0.0625320
v -1.2697079 2.5636001 0.9125298
vn 0.0000000 -0.0222939 0.9997514
vt 0.3800790 0.0650840
v -1.2333980 2.5636001 0.9125298
vn 0.0000000 -0.0222939 0.9997514
vt 0.3800790 0.0616810
v -1.2333980 2.6287401 0.8134692
vn 0.0000000 0.9286965 -0.3708406
vt 0.3800790 0.0616810
v -1.2697079 2.6287401 0.8134692
vn 0.0000000 0.9286965 -0.3708407
vt 0.3800790 0.0650840
v -1.2515529 2.6692359 0.9148855
vn 0.0000000 0.9286965 -0.3708407
vt 0.3824230 0.0625320
v -1.2515529 2.5523281 1.0211500
vn 0.0000000 -0.4843426 0.8748784
vt 0.3824230 0.0625320
v -1.2697079 2.4598861 0.9699727
vn 0.0000000 -0.4843427 0.8748784
vt 0.3800790 0.0650840
v -1.2333980 2.4598861 0.9699727
vn 0.0000000 -0.4843427 0.8748784
vt 0.3800790 0.0616810
v -1.2333980 2.5636001 0.9125298
vn 0.0000000 0.9946585 0.1032201
vt 0.3800790 0.0616810
v -1.2697079 2.5636001 0.9125298
vn 0.0000000 0.9946585 0.1032201
vt 0.3800790 0.0650840
v -1.2515529 2.5523281 1.0211500
vn 0.0000000 0.9946585 0.1032201
vt 0.3824230 0.0625320
v -1.2515529 2.3994269 1.0609120
vn 0.0000000 -0.8354378 0.5495850
vt 0.3824230 0.0625320
v -1.2697079 2.3413570 0.9726378
vn 0.0000000 -0.8354378 0.5495850
vt 0.3800790 0.0650840
v -1.2333980 2.3413570 0.9726378
vn 0.0000000 -0.8354378 0.5495850
vt 0.3800790 0.0616810
v -1.2333980 2.4598861 0.9699727
vn 0.0000000 0.8327592 0.5536354
vt 0.3800790 0.0616810
v -1.2697079 2.4598861 0.9699727
vn 0.0000000 0.8327592 0.5536354
vt 0.3800790 0.0650840
v -1.2515529 2.3994269 1.0609120
vn 0.0000000 0.8327591 0.5536355
vt 0.3824230 0.0625320
v -1.2515529 2.2455621 1.0250649
vn 0.0000000 -0.9951422 0.0984484
vt 0.3824230 0.0625320
v -1.2697079 2.2351592 0.9199099
vn 0.0000000 -0.9951422 0.0984484
vt 0.3800790 0.0650840
v -1.2333980 2.2351592 0.9199099
vn 0.0000000 -0.9951422 0.0984484
vt 0.3800790 0.0616810
v -1.2333980 2.3413570 0.9726378
vn 0.0000000 0.4800907 0.8772189
vt 0.3800790 0.0616810
v -1.2697079 2.3413570 0.9726378
vn 0.0000000 0.4800907 0.8772188
vt 0.3800790 0.0650840
v -1.2515529 2.2455621 1.0250649
vn 0.0000000 0.4800907 0.8772188
vt 0.3824230 0.0625320
v -1.2515529 2.2455621 1.0250649
vn 0.9800661 -0.0883510 0.1779457
vt 0.2114930 0.6268400
v -1.2333980 2.2351592 0.9199099
vn 0.9965463 -0.0532670 0.0637038
vt 0.2032310 0.6192910
v -1.2333980 2.3413570 0.9726378
vn 0.9965460 -0.0175602 0.0811654
vt 0.2009130 0.6315230
v -1.2515529 2.3994269 1.0609120
vn 0.9800656 0.0044661 0.1986242
vt 0.2047210 0.6420470
v -1.2333980 2.4598861 0.9699727
vn 0.9965460 0.0221709 0.0800291
vt 0.1931770 0.6412770
v -1.2515529 2.5523281 1.0211500
vn 0.9800656 0.0962592 0.1737976
vt 0.1916590 0.6523640
v -1.2333980 2.5636001 0.9125298
vn 0.9965460 0.0568224 0.0605591
vt 0.1817950 0.6463180
v -1.2515529 2.6692359 0.9148855
vn 0.9800655 0.1660006 0.1091575
vt 0.1752970 0.6554300
v -1.2333980 2.6287401 0.8134692
vn 0.9965460 0.0784566 0.0272164
vt 0.1693730 0.6454910
v -1.2515529 2.7233710 0.7664635
vn 0.9800657 0.1977134 0.0195116
vt 0.1593860 0.6505410
v -1.2333980 2.6403830 0.6954827
vn 0.9965460 0.0821182 -0.0123613
vt 0.1587590 0.6389880
v -1.2515529 2.7023311 0.6098843
vn 0.9800655 0.1841350 -0.0746055
vt 0.1475690 0.6388170
v -1.2333980 2.5958622 0.5856000
vn 0.9965460 0.0669678 -0.0491073
vt 0.1523820 0.6282960
v -1.2515529 2.6109362 0.4810181
vn 0.9800655 0.1283738 -0.1516306
vt 0.1425530 0.6229450
v -1.2333980 2.5053771 0.5089929
vn 0.9965460 0.0364760 -0.0746039
vt 0.1517050 0.6158660
v -1.2515529 2.4701221 0.4093854
vn 0.9800655 0.0432030 -0.1939205
vt 0.1454880 0.6065600
v -1.2333980 2.3896551 0.4832115
vn 0.9965460 -0.0023717 -0.0830093
vt 0.1568820 0.6045440
v -1.2515529 2.3121481 0.4113961
vn 0.9800657 -0.0518625 -0.1917854
vt 0.1557020 0.5934150
v -1.2333980 2.2752061 0.5141608
vn 0.9965460 -0.0406760 -0.0723993
vt 0.1667270 0.5969250
v -1.2515529 2.1732039 0.4865899
vn 0.9800656 -0.1350491 -0.1457161
vt 0.1708540 0.5865230
v -1.2333980 2.1882501 0.5947517
vn 0.9965460 -0.0696622 -0.0452036
vt 0.1789850 0.5947540
v -1.2515529 2.0851181 0.6177410
vn 0.9800655 -0.1872978 -0.0662667
vt 0.1874730 0.5874610
v -1.2333980 2.1487050 0.7065215
vn 0.9965459 -0.0826902 -0.0076527
vt 0.1908480 0.5985290
v -1.2515529 2.0680699 0.7748049
vn 0.9800654 -0.1966399 0.0283649
vt 0.2017530 0.5960160
v -1.2333980 2.1656320 0.8238664
vn 0.9965459 -0.0767748 0.0316524
vt 0.1995980 0.6073830
v -1.2515529 2.1259661 0.9218010
vn 0.9800659 -0.1609308 0.1164996
vt 0.2104220 0.6102260
v -1.2515529 2.1259661 0.9218010
vn -0.9800657 -0.1609318 0.1165000
vt 0.2101990 0.6103150
v -1.2697079 2.2351592 0.9199099
vn -0.9965462 -0.0532674 0.0637041
vt 0.2032310 0.6192910
v -1.2697079 2.1656320 0.8238665
vn -0.9965459 -0.0767751 0.0316526
vt 0.1995980 0.6073830
v -1.2515529 2.0680699 0.7748049
vn -0.9800652 -0.1966409 0.0283654
vt 0.2015960 0.5961970
v -1.2697079 2.1487050 0.7065216
vn -0.9965459 -0.0826908 -0.0076526
vt 0.1908480 0.5985290
v -1.2515529 2.0851181 0.6177410
vn -0.9800652 -0.1872991 -0.0662669
vt 0.1874190 0.5876950
v -1.2697079 2.1882501 0.5947515
vn -0.9965459 -0.0696627 -0.0452040
vt 0.1789850 0.5947540
v -1.2515529 2.1732039 0.4865899
vn -0.9800653 -0.1350498 -0.1457173
vt 0.1709140 0.5867550
v -1.2697079 2.2752061 0.5141608
vn -0.9965459 -0.0406763 -0.0723997
vt 0.1667270 0.5969250
v -1.2515529 2.3121481 0.4113961
vn -0.9800653 -0.0518634 -0.1917868
vt 0.1558630 0.5935930
v -1.2697079 2.3896542 0.4832114
vn -0.9965459 -0.0023718 -0.0830099
vt 0.1568820 0.6045440
v -1.2515529 2.4701221 0.4093854
vn -0.9800653 0.0432037 -0.1939214
vt 0.1457140 0.6066420
v -1.2697079 2.5053771 0.5089931
vn -0.9965459 0.0364762 -0.0746042
vt 0.1517050 0.6158660
v -1.2515529 2.6109362 0.4810181
vn -0.9800653 0.1283742 -0.1516315
vt 0.1427910 0.6229130
v -1.2697079 2.5958622 0.5856000
vn -0.9965459 0.0669682 -0.0491077
vt 0.1523820 0.6282960
v -1.2515529 2.7023311 0.6098843
vn -0.9800652 0.1841362 -0.0746060
vt 0.1477640 0.6386780
v -1.2697079 2.6403830 0.6954826
vn -0.9965460 0.0821187 -0.0123614
vt 0.1587580 0.6389880
v -1.2515529 2.7233710 0.7664635
vn -0.9800654 0.1977146 0.0195117
vt 0.1594950 0.6503270
v -1.2697079 2.6287401 0.8134692
vn -0.9965459 0.0784571 0.0272166
vt 0.1693730 0.6454910
v -1.2515529 2.6692359 0.9148855
vn -0.9800653 0.1660016 0.1091581
vt 0.1752940 0.6551900
v -1.2697079 2.5636001 0.9125298
vn -0.9965459 0.0568228 0.0605595
vt 0.1817950 0.6463180
v -1.2515529 2.5523281 1.0211500
vn -0.9800653 0.0962599 0.1737987
vt 0.1915450 0.6521530
v -1.2697079 2.4598861 0.9699727
vn -0.9965459 0.0221710 0.0800296
vt 0.1931770 0.6412770
v -1.2515529 2.3994269 1.0609120
vn -0.9800653 0.0044661 0.1986255
vt 0.2045220 0.6419130
v -1.2697079 2.3413570 0.9726378
vn -0.9965459 -0.0175603 0.0811660
vt 0.2009130 0.6315230
v -1.2515529 2.2455621 1.0250649
vn -0.9800658 -0.0883516 0.1779468
vt 0.2112550 0.6268140
v -0.8482377 2.1201429 0.5223025
vn -0.9945199 -0.0833495 -0.0631114
vt 0.2473720 0.5844610
v -0.8482377 2.0503581 0.7234592
vn -0.9945199 -0.1045271 -0.0020666
vt 0.2686350 0.5913690
v -0.8482377 2.1121380 0.9272170
vn -0.9945199 -0.0857790 0.0597676
vt 0.2817750 0.6094560
v -0.8482377 2.2818840 1.0557470
vn -0.9945199 -0.0342662 0.0987726
vt 0.2817760 0.6318130
v -0.8482377 2.4947600 1.0599560
vn -0.9945199 0.0303352 0.1000499
vt 0.2686350 0.6499000
v -0.8482377 2.6774600 0.5333211
vn -0.9945199 0.0857790 -0.0597676
vt 0.2129690 0.6318130
v -0.8482377 2.5077140 0.4047908
vn -0.9945199 0.0342662 -0.0987725
vt 0.2129690 0.6094560
v -0.8482377 2.2948370 0.4005820
vn -0.9945199 -0.0303352 -0.1000498
vt 0.2261100 0.5913690

g group_61950200_140627913009792
f 1/1/1 2/2/2 3/3/3 
f 3/3/3 4/4/4 5/5/5 
f 1/1/1 3/3/3 5/5/5 
f 6/6/6 1/1/1 5/5/5 
f 6/6/6 5/5/5 7/7/7 
f 6/6/6 7/7/7 8/8/8 
f 6/6/6 8/8/8 9/9/9 
f 6/6/6 9/9/9 10/10/10 
f 11/11/11 12/12/12 13/13/13 
f 14/14/14 15/15/15 16/16/16 
f 16/16/16 17/17/17 14/14/14 
f 14/14/14 18/18/18 19/19/19 
f 19/19/19 15/15/15 14/14/14 
f 20/20/20 19/19/19 18/18/18 
f 18/18/18 21/21/21 20/20/20 
f 22/22/22 23/23/23 20/20/20 
f 20/20/20 21/21/21 22/22/22 
f 23/23/23 22/22/22 24/24/24 
f 24/24/24 25/25/25 23/23/23 
f 26/26/26 25/25/25 24/24/24 
f 24/24/24 27/27/27 26/26/26 
f 28/28/28 29/29/29 30/30/30 
f 31/31/31 32/32/32 33/33/33 
f 34/34/34 35/35/35 36/36/36 
f 37/37/37 38/38/38 39/39/39 
f 40/40/40 41/41/41 42/42/42 
f 43/43/43 44/44/44 45/45/45 
f 46/46/46 47/47/47 48/48/48 
f 49/49/49 50/50/50 51/51/51 
f 52/52/52 53/53/53 54/54/54 
f 55/55/55 56/56/56 57/57/57 
f 58/58/58 59/59/59 60/60/60 
f 61/61/61 62/62/62 63/63/63 
f 64/64/64 65/65/65 66/66/66 
f 67/67/67 68/68/68 69/69/69 
f 70/70/70 71/71/71 72/72/72 
f 73/73/73 74/74/74 75/75/75 
f 76/76/76 77/77/77 78/78/78 
f 79/79/79 80/80/80 81/81/81 
f 82/82/82 83/83/83 84/84/84 
f 85/85/85 86/86/86 87/87/87 
f 88/88/88 89/89/89 90/90/90 
f 91/91/91 92/92/92 93/93/93 
f 94/94/94 95/95/95 96/96/96 
f 97/97/97 98/98/98 99/99/99 
f 100/100/100 101/101/101 102/102/102 
f 103/103/103 104/104/104 105/105/105 
f 106/106/106 107/107/107 108/108/108 
f 109/109/109 108/108/108 110/110/110 
f 111/111/111 110/110/110 112/112/112 
f 113/113/113 112/112/112 114/114/114 
f 115/115/115 114/114/114 116/116/116 
f 117/117/117 116/116/116 118/118/118 
f 119/119/119 118/118/118 120/120/120 
f 121/121/121 120/120/120 122/122/122 
f 123/123/123 122/122/122 124/124/124 
f 125/125/125 124/124/124 126/126/126 
f 127/127/127 126/126/126 128/128/128 
f 129/129/129 128/128/128 130/130/130 
f 131/131/131 130/130/130 107/107/107 
f 108/108/108 107/107/107 110/110/110 
f 110/110/110 107/107/107 114/114/114 
f 114/114/114 112/112/112 110/110/110 
f 114/114/114 107/107/107 118/118/118 
f 118/118/118 116/116/116 114/114/114 
f 107/107/107 122/122/122 120/120/120 
f 120/120/120 118/118/118 107/107/107 
f 126/126/126 124/124/124 122/122/122 
f 122/122/122 107/107/107 126/126/126 
f 107/107/107 130/130/130 128/128/128 
f 128/128/128 126/126/126 107/107/107 
f 132/132/132 133/133/133 134/134/134 
f 135/135/135 134/134/134 136/136/136 
f 137/137/137 136/136/136 138/138/138 
f 139/139/139 138/138/138 140/140/140 
f 141/141/141 140/140/140 142/142/142 
f 143/143/143 142/142/142 144/144/144 
f 145/145/145 144/144/144 146/146/146 
f 147/147/147 146/146/146 148/148/148 
f 149/149/149 148/148/148 150/150/150 
f 151/151/151 150/150/150 152/152/152 
f 153/153/153 152/152/152 154/154/154 
f 155/155/155 154/154/154 156/156/156 
f 157/157/157 156/156/156 133/133/133 
f 136/136/136 134/134/134 133/133/133 
f 133/133/133 156/156/156 136/136/136 
f 138/138/138 136/136/136 156/156/156 
f 156/156/156 140/140/140 138/138/138 
f 156/156/156 144/144/144 142/142/142 
f 142/142/142 140/140/140 156/156/156 
f 144/144/144 156/156/156 148/148/148 
f 148/148/148 146/146/146 144/144/144 
f 152/152/152 150/150/150 148/148/148 
f 148/148/148 156/156/156 152/152/152 
f 152/152/152 156/156/156 154/154/154 
f 158/158/158 159/159/159 12/12/12 
f 12/12/12 159/159/159 160/160/160 
f 12/12/12 160/160/160 161/161/161 
f 12/12/12 161/161/161 162/162/162 
f 12/12/12 162/162/162 13/13/13 
f 163/163/163 12/12/12 11/11/11 
f 164/164/164 12/12/12 163/163/163 
f 165/165/165 12/12/12 164/164/164 
f 158/158/158 12/12/12 165/165/165 
