v -0.0971704 0.8749259 2.0050211
vn -0.6642798 0.4083025 -0.6261162
vt 0.1491440 0.2265180
v -0.0971704 0.9414896 2.0710781
vn -0.8461795 0.3753737 -0.3782523
vt 0.1411640 0.2265180
v 0.0750759 0.8749259 2.0050211
vn 0.0000000 0.5462357 -0.8376315
vt 0.1491440 0.2058690
v 0.0750759 0.9414896 2.0710781
vn 0.0000000 0.7044007 -0.7098026
vt 0.1411640 0.2058690
v -0.0971704 0.8494154 2.3196721
vn -0.8550352 0.1266578 0.5028644
vt 0.1601690 0.2465200
v -0.0971704 0.7423180 2.3466470
vn -0.6579166 0.0074755 0.7530537
vt 0.1492260 0.2465210
v 0.0750759 0.8494154 2.3196721
vn 0.0000000 0.2442444 0.9697137
vt 0.1602740 0.2294540
v 0.0750759 0.7423180 2.3466470
vn 0.0000000 0.0099264 0.9999508
vt 0.1492260 0.2294540
v -0.0971704 0.6629516 2.3283241
vn -0.6846990 -0.1639463 0.7101471
vt 0.1411550 0.2465200
v 0.0750759 0.6629516 2.3283241
vn 0.0000000 -0.2249458 0.9743713
vt 0.1411550 0.2294540
v -0.0971704 0.7828647 1.9688740
vn -0.6950700 0.2627593 -0.6692050
vt 0.1601810 0.2265180
v 0.0750759 0.7828647 1.9688740
vn 0.0000000 0.3654804 -0.9308190
vt 0.1601810 0.2058690
v -0.0971704 0.6629516 2.3283241
vn -0.6846990 -0.1639463 0.7101471
vt 0.3613500 0.2185840
v -0.0971704 0.7423180 2.3466470
vn -0.6579166 0.0074755 0.7530537
vt 0.3706560 0.2194570
v -0.0971704 0.7828647 1.9688740
vn -0.6950700 0.2627593 -0.6692050
vt 0.3613550 0.2626240
v -0.0971704 0.8494154 2.3196721
vn -0.8550352 0.1266578 0.5028644
vt 0.3815440 0.2263610
v -0.0971704 0.9228280 2.2443321
vn -1.0000000 0.0000000 0.0000000
vt 0.3868840 0.2373610
v -0.0971704 0.8749259 2.0050211
vn -0.6642798 0.4083025 -0.6261162
vt 0.3728350 0.2620080
v -0.0971704 0.9514492 2.1408100
vn -1.0000000 0.0000000 0.0000000
vt 0.3862500 0.2498300
v -0.0971704 0.9414896 2.0710781
vn -0.8461795 0.3753737 -0.3782523
vt 0.3825980 0.2571580
v 0.0750759 0.6629516 2.3283241
vn 1.0000000 0.0000000 0.0000000
vt 0.3613500 0.2185840
v 0.0750759 0.7828647 1.9688740
vn 1.0000000 0.0000000 0.0000000
vt 0.3613550 0.2626240
v 0.0750759 0.7423180 2.3466470
vn 1.0000000 0.0000000 0.0000000
vt 0.3706560 0.2194570
v 0.0750759 0.8494154 2.3196721
vn 1.0000000 0.0000000 0.0000000
vt 0.3815440 0.2263610
v 0.0750759 0.9228280 2.2443321
vn 1.0000000 0.0000000 0.0000000
vt 0.3868840 0.2373610
v 0.0750759 0.8749259 2.0050211
vn 1.0000000 0.0000000 0.0000000
vt 0.3728350 0.2620080
v 0.0750759 0.9514492 2.1408100
vn 1.0000000 0.0000000 0.0000000
vt 0.3862500 0.2498300
v 0.0750759 0.9414896 2.0710781
vn 1.0000000 0.0000000 0.0000000
vt 0.3825980 0.2571580
v 0.1302791 0.8439605 2.3965280
vn 0.2943610 -0.3130608 0.9029644
vt 0.3233020 0.8226630
v -0.1523736 0.8439605 2.3965280
vn -0.2862407 -0.2999563 0.9099959
vt 0.3233000 0.8532300
v 0.1302791 0.8103702 2.3846371
vn 0.2845328 -0.8259845 0.4866114
vt 0.3195390 0.8213180
v -0.1550440 0.8103702 2.3846371
vn -0.3065476 -0.8189580 0.4851148
vt 0.3196120 0.8548390
v -0.1878159 0.9020716 2.3587959
vn -0.9509423 0.1852077 0.2478043
vt 0.3305590 0.8563500
v -0.1885661 0.9767915 2.2566800
vn -0.9682246 0.2271026 0.1047168
vt 0.3429200 0.8566920
v -0.2053560 0.8625119 2.3061481
vn -0.9883576 0.0369130 0.1476034
vt 0.3302450 0.8636650
v -0.2053560 0.9159399 2.2315011
vn -0.9689494 0.2242423 0.1041756
vt 0.3422480 0.8638250
v 0.1657214 0.9020716 2.3587959
vn 0.9509423 0.1852078 0.2478043
vt 0.3305880 0.8195560
v 0.1832615 0.8625119 2.3061481
vn 0.9883576 0.0369130 0.1476033
vt 0.3302230 0.8122380
v 0.1664715 0.9767915 2.2566800
vn 0.9682246 0.2271026 0.1047168
vt 0.3429220 0.8192020
v 0.1832615 0.9159399 2.2315011
vn 0.9689494 0.2242423 0.1041756
vt 0.3422390 0.8120690
v 0.1569130 0.8649033 2.3867209
vn 0.7005898 -0.0259681 0.7130916
vt 0.3259810 0.8203630
v 0.1711218 0.8455723 2.3720570
vn 0.8496733 -0.3165354 0.4217353
vt 0.3248070 0.8176520
v -0.1790075 0.8649033 2.3867209
vn -0.7005900 -0.0259684 0.7130914
vt 0.3259220 0.8555410
v -0.1932164 0.8455723 2.3720570
vn -0.8539318 -0.3082123 0.4192919
vt 0.3247660 0.8582520
v -0.2053560 0.8625119 2.3061481
vn 0.0000000 -0.7732342 -0.6341206
vt 0.2181900 0.1893080
v 0.1832615 0.8625119 2.3061481
vn 0.0000000 -0.7732342 -0.6341206
vt 0.2181870 0.2129710
v -0.1740934 0.8248920 2.3437071
vn 0.0000000 -0.6896768 -0.7241174
vt 0.2149770 0.1912010
v 0.1519989 0.8248920 2.3437071
vn 0.0000000 -0.6896766 -0.7241176
vt 0.2149770 0.2110780
v -0.1523736 0.8439605 2.3965280
vn 0.0000000 0.4240928 0.9056188
vt 0.3233000 0.8532300
v 0.1302791 0.8439605 2.3965280
vn 0.0000000 0.4240929 0.9056188
vt 0.3233020 0.8226630
v -0.1790075 0.8649033 2.3867209
vn 0.0000000 0.5520349 0.8338210
vt 0.3259220 0.8555410
v 0.1569130 0.8649033 2.3867209
vn 0.0000000 0.5520350 0.8338210
vt 0.3259810 0.8203630
v 0.1664715 0.9767915 2.2566800
vn 0.0000000 0.9090329 0.4167244
vt 0.3429220 0.8192020
v -0.1885661 0.9767915 2.2566800
vn 0.0000000 0.9090329 0.4167244
vt 0.3429200 0.8566920
v 0.1657214 0.9020716 2.3587959
vn 0.0000000 0.7183368 0.6956956
vt 0.3305880 0.8195560
v -0.1878159 0.9020716 2.3587959
vn 0.0000000 0.7183368 0.6956956
vt 0.3305590 0.8563500
v 0.1832615 0.9159399 2.2315011
vn 0.0000000 -0.9091311 -0.4165103
vt 0.2237100 0.2129380
v -0.2053560 0.9159399 2.2315011
vn 0.0000000 -0.9091310 -0.4165103
vt 0.2237140 0.1893420
v 0.1832615 0.9368616 2.1452570
vn 0.0000000 -0.9967690 -0.0803221
vt 0.2290240 0.2129110
v -0.2053560 0.9368616 2.1452570
vn 0.0000000 -0.9967690 -0.0803221
vt 0.2290310 0.1893710
v 0.1664715 1.0027170 2.1453309
vn 0.9684185 0.2488187 0.0159671
vt 0.3543940 0.8190810
v 0.1832615 0.9368616 2.1452570
vn 0.9689581 0.2463204 0.0211322
vt 0.3535490 0.8116550
v 0.1664715 1.0027170 2.1453309
vn 0.0000000 0.9980386 0.0626015
vt 0.3543940 0.8190810
v -0.1885661 1.0027170 2.1453309
vn 0.0000000 0.9980386 0.0626015
vt 0.3544020 0.8568120
v -0.1885661 1.0027170 2.1453309
vn -0.9684185 0.2488186 0.0159672
vt 0.3544020 0.8568120
v -0.2053560 0.9368616 2.1452570
vn -0.9689581 0.2463204 0.0211322
vt 0.3535540 0.8642380
v -0.1523736 0.8170983 2.3495500
vn 0.0000000 -0.5998728 -0.8000954
vt 0.2143910 0.1925160
v 0.1302791 0.8170983 2.3495500
vn 0.0000000 -0.5998728 -0.8000954
vt 0.2143860 0.2097630
v -0.1740934 0.8248920 2.3437071
vn -0.6395009 -0.7679313 -0.0363342
vt 0.3219310 0.8606990
v -0.1523736 0.8170983 2.3495500
vn -0.1493326 -0.9689306 -0.1971631
vt 0.3195540 0.8591810
v 0.1302791 0.8170983 2.3495500
vn 0.1590113 -0.9696113 -0.1859283
vt 0.2143860 0.2097630
v 0.1302791 0.8103702 2.3846371
vn 0.2845328 -0.8259845 0.4866114
vt 0.2122180 0.2097660
v -0.1523736 0.8170983 2.3495500
vn -0.1493326 -0.9689306 -0.1971631
vt 0.2143910 0.1925160
v -0.1550440 0.8103702 2.3846371
vn -0.3065476 -0.8189580 0.4851148
vt 0.2122210 0.1923500
v 0.1519989 0.8248920 2.3437071
vn 0.6367359 -0.7708771 -0.0177715
vt 0.3218970 0.8153150
v 0.1302791 0.8170983 2.3495500
vn 0.1590113 -0.9696113 -0.1859283
vt 0.3195690 0.8169500
v 0.1832615 0.8957347 1.9906510
vn 0.0000000 -0.8884491 0.4589752
vt 0.2387500 0.2128960
v 0.1832615 0.9300417 2.0570600
vn 0.0000000 -0.9618782 0.2734781
vt 0.2342990 0.2128970
v -0.2053560 0.8957347 1.9906510
vn 0.0000000 -0.8884491 0.4589752
vt 0.2387570 0.1893890
v -0.2053560 0.9300417 2.0570600
vn 0.0000000 -0.9618782 0.2734782
vt 0.2343060 0.1893870
v 0.1664715 0.9909511 2.0320220
vn 0.0000000 0.9514060 -0.3079394
vt 0.3660250 0.8188770
v -0.1885661 0.9909511 2.0320220
vn 0.0000000 0.9514060 -0.3079394
vt 0.3660310 0.8570160
v -0.1885661 0.9909511 2.0320220
vn -0.9723961 0.2279762 -0.0497270
vt 0.3660310 0.8570160
v -0.2053560 0.9300417 2.0570600
vn -0.9690685 0.2377439 -0.0662134
vt 0.3645430 0.8643510
v -0.1964695 0.9388908 1.9395990
vn -0.9832819 0.1812000 -0.0179828
vt 0.3771710 0.8584520
v -0.2053560 0.8957347 1.9906510
vn -0.9793395 0.1953706 -0.0521969
vt 0.3732930 0.8653430
v 0.1832615 0.9300417 2.0570600
vn 0.9690685 0.2377439 -0.0662134
vt 0.3645420 0.8115420
v 0.1832615 0.8957347 1.9906510
vn 0.9793395 0.1953707 -0.0521970
vt 0.3732960 0.8105530
v 0.1664715 0.9909511 2.0320220
vn 0.9723961 0.2279762 -0.0497270
vt 0.3660250 0.8188770
v 0.1743749 0.9388908 1.9395990
vn 0.9832819 0.1812001 -0.0179830
vt 0.3771850 0.8174430
v 0.1743749 0.9388908 1.9395990
vn 0.0000000 -0.7636975 -0.6455743
vt 0.2427330 0.2123640
v 0.1832615 0.8957347 1.9906510
vn 0.0000000 -0.7636975 -0.6455743
vt 0.2387500 0.2128960
v -0.1964695 0.9388908 1.9395990
vn 0.0000000 -0.7636975 -0.6455743
vt 0.2427410 0.1899240
v -0.2053560 0.8957347 1.9906510
vn 0.0000000 -0.7636975 -0.6455743
vt 0.2387570 0.1893890
v 0.1743749 0.9388908 1.9395990
vn 0.0000000 0.8712849 -0.4907776
vt 0.3771850 0.8174430
v -0.1964695 0.9388908 1.9395990
vn 0.0000000 0.8712849 -0.4907777
vt 0.3771710 0.8584520
v -0.0130445 0.8181272 2.3824999
vn -0.9818435 -0.1669856 0.0899956
vt 0.9697300 0.1160990
v -0.0043491 0.8093044 2.3825791
vn -0.0831273 -0.9470392 0.3101719
vt 0.9697300 0.1194820
v -0.0119412 0.8279948 2.4128461
vn -0.9812058 -0.1197684 0.1512970
vt 0.9766730 0.1160990
v -0.0031568 0.8209754 2.4188261
vn 0.0064357 -0.7279512 0.6855989
vt 0.9766730 0.1194820
v -0.0043491 0.8093044 2.3825791
vn -0.0831273 -0.9470392 0.3101719
vt 0.9697300 0.1194820
v 0.0043584 0.8179172 2.3842480
vn 0.9780557 -0.2077017 0.0163470
vt 0.9697300 0.1160990
v -0.0031568 0.8209754 2.4188261
vn 0.0064357 -0.7279512 0.6855989
vt 0.9766730 0.1194820
v 0.0055574 0.8279686 2.4127300
vn 0.9842750 -0.1322767 0.1170707
vt 0.9766730 0.1160990
v -0.0043368 0.8267322 2.3841701
vn -0.0418109 0.9431149 -0.3298274
vt 0.9697300 0.1127700
v -0.0032272 0.8349355 2.4067709
vn 0.0052983 0.7062102 -0.7079824
vt 0.9766730 0.1127700
v -0.0043368 0.8267322 2.3841701
vn -0.0418109 0.9431149 -0.3298274
vt 0.9697300 0.1127700
v -0.0032272 0.8349355 2.4067709
vn 0.0052983 0.7062102 -0.7079824
vt 0.9766730 0.1127700
v -0.0118149 0.8530406 2.4223750
vn -0.9748452 0.0350220 0.2201142
vt 0.9824490 0.1160990
v -0.0029889 0.8544214 2.4313841
vn 0.0077361 0.1525225 0.9882697
vt 0.9824490 0.1194820
v 0.0056832 0.8530143 2.4222591
vn 0.9781314 0.0314288 0.2055999
vt 0.9824490 0.1160990
v -0.0029889 0.8544214 2.4313841
vn 0.0077361 0.1525225 0.9882697
vt 0.9824490 0.1194820
v -0.0031425 0.8516362 2.4132710
vn -0.0074492 -0.1518354 -0.9883777
vt 0.9824490 0.1127700
v -0.0031425 0.8516362 2.4132710
vn -0.0074492 -0.1518354 -0.9883777
vt 0.9824490 0.1127700
v -0.0117431 0.8750256 2.3711700
vn -0.9970160 0.0770927 -0.0039903
vt 0.9975200 0.1160990
v -0.0119089 0.8740490 2.4058001
vn -0.9818697 0.1615289 0.0991985
vt 0.9891050 0.1160990
v -0.0030355 0.8838300 2.3707869
vn -0.0570941 0.9978417 0.0324372
vt 0.9975200 0.1194810
v -0.0031138 0.8825017 2.4093330
vn 0.0031184 0.8965926 0.4428455
vt 0.9891050 0.1194810
v -0.0031138 0.8825017 2.4093330
vn 0.0031184 0.8965926 0.4428455
vt 0.9891050 0.1194810
v 0.0055897 0.8740202 2.4056690
vn 0.9837156 0.1544815 0.0918646
vt 0.9891050 0.1160990
v -0.0030355 0.8838300 2.3707869
vn -0.0570941 0.9978417 0.0324372
vt 0.9975200 0.1194810
v 0.0056601 0.8753065 2.3730080
vn 0.9957706 0.0913803 0.0095272
vt 0.9975200 0.1160980
v -0.0032057 0.8656095 2.4020360
vn -0.0069472 -0.8881198 -0.4595595
vt 0.9891050 0.1127700
v -0.0030477 0.8665125 2.3734651
vn -0.0308965 -0.9990184 -0.0317455
vt 0.9975200 0.1127700
v -0.0032057 0.8656095 2.4020360
vn -0.0069472 -0.8881198 -0.4595595
vt 0.9891050 0.1127700
v -0.0901118 0.9858821 2.1249390
vn -0.9999035 0.0138940 0.0000013
vt 0.9611570 0.8168290
v -0.0674516 0.9858821 2.1796451
vn -0.7070334 0.0138949 0.7070437
vt 0.9668030 0.8168290
v -0.0666450 2.6746709 2.1249390
vn -0.9999035 0.0138947 0.0000257
vt 0.9611570 0.9958730
v -0.0508580 2.6746709 2.1630499
vn -0.7070317 0.0138948 0.7070453
vt 0.9668030 0.9958730
v -0.0127442 0.9858821 2.2023051
vn 0.0000010 0.0138953 0.9999035
vt 0.9724420 0.8168290
v -0.0127447 2.6746709 2.1788371
vn -0.0000030 0.0138952 0.9999035
vt 0.9724420 0.9958740
v 0.0419627 0.9858821 2.1796451
vn 0.7070322 0.0138950 0.7070449
vt 0.9781080 0.8168290
v 0.0253691 2.6746709 2.1630499
vn 0.7070320 0.0138949 0.7070450
vt 0.9781080 0.9958740
v 0.0646232 0.9858821 2.1249390
vn 0.9999035 0.0138947 0.0000015
vt 0.9837830 0.8168290
v 0.0411559 2.6746709 2.1249390
vn 0.9999035 0.0138939 0.0000247
vt 0.9837830 0.9958730
v 0.0419627 0.9858821 2.0702331
vn 0.7070324 0.0138935 -0.7070447
vt 0.9894490 0.8168290
v 0.0253691 2.6746709 2.0868230
vn 0.7070497 0.0138928 -0.7070274
vt 0.9894480 0.9958730
v -0.0127443 0.9858821 2.0475731
vn 0.0000010 0.0138921 -0.9999035
vt 0.9951110 0.8168290
v -0.0127447 2.6746709 2.0710361
vn -0.0000027 0.0138923 -0.9999035
vt 0.9951110 0.9958730
v -0.0127443 0.9858821 2.0475731
vn 0.0000010 0.0138921 -0.9999035
vt 0.9487290 0.8168290
v -0.0674516 0.9858821 2.0702331
vn -0.7070335 0.0138928 -0.7070436
vt 0.9552190 0.8168290
v -0.0127447 2.6746709 2.0710361
vn -0.0000027 0.0138923 -0.9999035
vt 0.9487290 0.9958740
v -0.0508580 2.6746709 2.0868230
vn -0.7070495 0.0138936 -0.7070276
vt 0.9552190 0.9958740
v -0.0666450 2.6746709 2.1249390
vn 0.0000000 1.0000000 0.0000000
vt 0.6037470 0.3585900
v -0.0508580 2.6746709 2.1630499
vn 0.0000000 1.0000000 0.0000000
vt 0.6099640 0.3523730
v -0.0553203 2.6746709 2.1249390
vn 0.0000000 1.0000000 0.0000000
vt 0.6059770 0.3595130
v -0.0428502 2.6746709 2.1550429
vn 0.0000000 1.0000000 0.0000000
vt 0.6108880 0.3546020
v -0.0127447 2.6746709 2.1788371
vn 0.0000000 1.0000000 0.0000000
vt 0.6187570 0.3523720
v -0.0127447 2.6746709 2.1675119
vn 0.0000000 1.0000000 0.0000000
vt 0.6178330 0.3546020
v 0.0253691 2.6746709 2.1630499
vn 0.0000000 1.0000000 0.0000000
vt 0.6249740 0.3585900
v 0.0173612 2.6746709 2.1550429
vn 0.0000000 1.0000000 0.0000000
vt 0.6227440 0.3595130
v 0.0411559 2.6746709 2.1249390
vn 0.0000000 1.0000000 0.0000000
vt 0.6249750 0.3673810
v 0.0298310 2.6746709 2.1249390
vn 0.0000000 1.0000000 0.0000000
vt 0.6227450 0.3664580
v 0.0253691 2.6746709 2.0868230
vn 0.0000000 1.0000000 0.0000000
vt 0.6187570 0.3735990
v 0.0173612 2.6746709 2.0948350
vn 0.0000000 1.0000000 0.0000000
vt 0.6178340 0.3713690
v -0.0127447 2.6746709 2.0710361
vn 0.0000000 1.0000000 0.0000000
vt 0.6099650 0.3736000
v -0.0127447 2.6746709 2.0823610
vn 0.0000000 1.0000000 0.0000000
vt 0.6108880 0.3713700
v -0.0508580 2.6746709 2.0868230
vn 0.0000000 1.0000000 0.0000000
vt 0.6037470 0.3673820
v -0.0428502 2.6746709 2.0948350
vn 0.0000000 1.0000000 0.0000000
vt 0.6059780 0.3664580
v -0.0553203 2.6746709 2.1249390
vn 0.9996815 0.0252371 -0.0000014
vt 0.7436380 0.4791640
v -0.0428502 2.6746709 2.1550429
vn 0.7068655 0.0252365 -0.7068977
vt 0.7463340 0.4791640
v -0.0127443 0.9881659 2.1249390
vn 0.0000165 0.9999996 0.0009449
vt 0.7382070 0.5523400
v -0.0127447 2.6746709 2.1675119
vn 0.0000028 0.0252354 -0.9996815
vt 0.7490330 0.4791640
v -0.0127447 2.6746709 2.1675119
vn 0.0000028 0.0252354 -0.9996815
vt 0.7274480 0.4791640
v 0.0173612 2.6746709 2.1550429
vn -0.7068669 0.0252363 -0.7068964
vt 0.7301470 0.4791640
v 0.0298310 2.6746709 2.1249390
vn -0.9996815 0.0252366 -0.0000014
vt 0.7328450 0.4791640
v 0.0173612 2.6746709 2.0948350
vn -0.7069201 0.0252364 0.7068431
vt 0.7355060 0.4791640
v -0.0127447 2.6746709 2.0823610
vn 0.0000028 0.0252387 0.9996815
vt 0.7382460 0.4791640
v -0.0428502 2.6746709 2.0948350
vn 0.7069188 0.0252366 0.7068443
vt 0.7409380 0.4791640
v -0.0130445 0.8181272 2.3824999
vn -0.9818435 -0.1669856 0.0899956
vt 0.9697300 0.1160990
v -0.0119412 0.8279948 2.4128461
vn -0.9812058 -0.1197684 0.1512970
vt 0.9766730 0.1160990
v -0.0119412 0.8279948 2.4128461
vn -0.9812058 -0.1197684 0.1512970
vt 0.9766730 0.1160990
v 0.0043584 0.8179172 2.3842480
vn 0.9780557 -0.2077017 0.0163470
vt 0.9697300 0.1160990
v 0.0055574 0.8279686 2.4127300
vn 0.9842750 -0.1322767 0.1170707
vt 0.9766730 0.1160990
v 0.0055574 0.8279686 2.4127300
vn 0.9842750 -0.1322767 0.1170707
vt 0.9766730 0.1160990
v -0.0118149 0.8530406 2.4223750
vn -0.9748452 0.0350220 0.2201142
vt 0.9824490 0.1160990
v -0.0118149 0.8530406 2.4223750
vn -0.9748452 0.0350220 0.2201142
vt 0.9824490 0.1160990
v 0.0056832 0.8530143 2.4222591
vn 0.9781314 0.0314288 0.2055999
vt 0.9824490 0.1160990
v 0.0056832 0.8530143 2.4222591
vn 0.9781314 0.0314288 0.2055999
vt 0.9824490 0.1160990
v -0.0117431 0.8750256 2.3711700
vn -0.9970160 0.0770927 -0.0039903
vt 0.9975200 0.1160990
v -0.0119089 0.8740490 2.4058001
vn -0.9818697 0.1615289 0.0991985
vt 0.9891050 0.1160990
v -0.0119089 0.8740490 2.4058001
vn -0.9818697 0.1615289 0.0991985
vt 0.9891050 0.1160990
v 0.0055897 0.8740202 2.4056690
vn 0.9837156 0.1544815 0.0918646
vt 0.9891050 0.1160990
v 0.0055897 0.8740202 2.4056690
vn 0.9837156 0.1544815 0.0918646
vt 0.9891050 0.1160990
v 0.0056601 0.8753065 2.3730080
vn 0.9957706 0.0913803 0.0095272
vt 0.9975200 0.1160980
v -0.0030477 0.8665125 2.3734651
vn -0.0308965 -0.9990184 -0.0317455
vt 0.9975200 0.1127700
v -0.0127443 0.9881659 2.1249390
vn 0.0000165 0.9999996 0.0009449
vt 0.7382070 0.5523400
v -0.0127443 0.9881659 2.1249390
vn 0.0000165 0.9999996 0.0009449
vt 0.7382070 0.5523400
v -0.0127443 0.9881659 2.1249390
vn 0.0000165 0.9999996 0.0009449
vt 0.7382070 0.5523400
v -0.0127443 0.9881659 2.1249390
vn 0.0000165 0.9999996 0.0009449
vt 0.7382070 0.5523400
v -0.0127443 0.9881659 2.1249390
vn 0.0000165 0.9999996 0.0009449
vt 0.7382070 0.5523400

g group_61872784_140627911598352
f 1/1/1 2/2/2 3/3/3 
f 3/3/3 2/2/2 4/4/4 
f 5/5/5 6/6/6 7/7/7 
f 7/7/7 6/6/6 8/8/8 
f 6/6/6 9/9/9 8/8/8 
f 8/8/8 9/9/9 10/10/10 
f 1/1/1 3/3/3 11/11/11 
f 11/11/11 3/3/3 12/12/12 
f 13/13/13 14/14/14 15/15/15 
f 14/14/14 16/16/16 15/15/15 
f 16/16/16 17/17/17 15/15/15 
f 15/15/15 17/17/17 18/18/18 
f 17/17/17 19/19/19 18/18/18 
f 18/18/18 19/19/19 20/20/20 
f 21/21/21 22/22/22 23/23/23 
f 23/23/23 22/22/22 24/24/24 
f 24/24/24 22/22/22 25/25/25 
f 22/22/22 26/26/26 25/25/25 
f 25/25/25 26/26/26 27/27/27 
f 26/26/26 28/28/28 27/27/27 
f 29/29/29 30/30/30 31/31/31 
f 31/31/31 30/30/30 32/32/32 
f 33/33/33 34/34/34 35/35/35 
f 35/35/35 34/34/34 36/36/36 
f 37/37/37 38/38/38 39/39/39 
f 39/39/39 38/38/38 40/40/40 
f 41/41/41 42/42/42 37/37/37 
f 37/37/37 42/42/42 38/38/38 
f 41/41/41 29/29/29 42/42/42 
f 42/42/42 29/29/29 31/31/31 
f 43/43/43 44/44/44 30/30/30 
f 30/30/30 44/44/44 32/32/32 
f 43/43/43 33/33/33 44/44/44 
f 44/44/44 33/33/33 35/35/35 
f 45/45/45 46/46/46 47/47/47 
f 47/47/47 46/46/46 48/48/48 
f 49/49/49 50/50/50 51/51/51 
f 51/51/51 50/50/50 52/52/52 
f 53/53/53 54/54/54 55/55/55 
f 55/55/55 54/54/54 56/56/56 
f 46/46/46 45/45/45 57/57/57 
f 57/57/57 45/45/45 58/58/58 
f 57/57/57 58/58/58 59/59/59 
f 59/59/59 58/58/58 60/60/60 
f 61/61/61 39/39/39 62/62/62 
f 62/62/62 39/39/39 40/40/40 
f 63/63/63 64/64/64 53/53/53 
f 53/53/53 64/64/64 54/54/54 
f 65/65/65 66/66/66 34/34/34 
f 34/34/34 66/66/66 36/36/36 
f 51/51/51 52/52/52 56/56/56 
f 56/56/56 52/52/52 55/55/55 
f 47/47/47 48/48/48 67/67/67 
f 67/67/67 48/48/48 68/68/68 
f 44/44/44 35/35/35 69/69/69 
f 44/44/44 69/69/69 32/32/32 
f 32/32/32 69/69/69 70/70/70 
f 71/71/71 72/72/72 73/73/73 
f 73/73/73 72/72/72 74/74/74 
f 42/42/42 31/31/31 75/75/75 
f 75/75/75 31/31/31 76/76/76 
f 38/38/38 42/42/42 75/75/75 
f 77/77/77 78/78/78 79/79/79 
f 79/79/79 78/78/78 80/80/80 
f 78/78/78 59/59/59 80/80/80 
f 80/80/80 59/59/59 60/60/60 
f 63/63/63 81/81/81 64/64/64 
f 64/64/64 81/81/81 82/82/82 
f 83/83/83 84/84/84 65/65/65 
f 65/65/65 84/84/84 66/66/66 
f 85/85/85 86/86/86 83/83/83 
f 83/83/83 86/86/86 84/84/84 
f 87/87/87 88/88/88 89/89/89 
f 89/89/89 88/88/88 90/90/90 
f 62/62/62 87/87/87 61/61/61 
f 61/61/61 87/87/87 89/89/89 
f 91/91/91 92/92/92 93/93/93 
f 93/93/93 92/92/92 94/94/94 
f 81/81/81 95/95/95 82/82/82 
f 82/82/82 95/95/95 96/96/96 
f 97/97/97 98/98/98 99/99/99 
f 99/99/99 98/98/98 100/100/100 
f 101/101/101 102/102/102 103/103/103 
f 103/103/103 102/102/102 104/104/104 
f 105/105/105 106/106/106 173/173/173 
f 173/173/173 106/106/106 174/174/174 
f 170/170/170 171/171/171 107/107/107 
f 107/107/107 171/171/171 108/108/108 
f 99/99/99 100/100/100 109/109/109 
f 109/109/109 100/100/100 110/110/110 
f 175/175/175 111/111/111 103/103/103 
f 103/103/103 111/111/111 112/112/112 
f 106/106/106 113/113/113 175/175/175 
f 175/175/175 113/113/113 178/178/178 
f 108/108/108 172/172/172 114/114/114 
f 114/114/114 172/172/172 176/176/176 
f 115/115/115 116/116/116 117/117/117 
f 117/117/117 116/116/116 118/118/118 
f 119/119/119 120/120/120 121/121/121 
f 121/121/121 120/120/120 122/122/122 
f 183/183/183 123/123/123 185/185/185 
f 185/185/185 123/123/123 124/124/124 
f 186/186/186 125/125/125 180/180/180 
f 180/180/180 125/125/125 181/181/181 
f 182/182/182 109/109/109 118/118/118 
f 118/118/118 109/109/109 110/110/110 
f 112/112/112 111/111/111 119/119/119 
f 119/119/119 111/111/111 120/120/120 
f 179/179/179 113/113/113 184/184/184 
f 184/184/184 113/113/113 123/123/123 
f 125/125/125 114/114/114 182/182/182 
f 182/182/182 114/114/114 177/177/177 
f 126/126/126 127/127/127 128/128/128 
f 128/128/128 127/127/127 129/129/129 
f 127/127/127 130/130/130 129/129/129 
f 129/129/129 130/130/130 131/131/131 
f 130/130/130 132/132/132 131/131/131 
f 131/131/131 132/132/132 133/133/133 
f 132/132/132 134/134/134 133/133/133 
f 133/133/133 134/134/134 135/135/135 
f 134/134/134 136/136/136 135/135/135 
f 135/135/135 136/136/136 137/137/137 
f 136/136/136 138/138/138 137/137/137 
f 137/137/137 138/138/138 139/139/139 
f 140/140/140 141/141/141 142/142/142 
f 142/142/142 141/141/141 143/143/143 
f 141/141/141 126/126/126 143/143/143 
f 143/143/143 126/126/126 128/128/128 
f 144/144/144 145/145/145 146/146/146 
f 146/146/146 145/145/145 147/147/147 
f 145/145/145 148/148/148 147/147/147 
f 147/147/147 148/148/148 149/149/149 
f 148/148/148 150/150/150 149/149/149 
f 149/149/149 150/150/150 151/151/151 
f 150/150/150 152/152/152 151/151/151 
f 151/151/151 152/152/152 153/153/153 
f 152/152/152 154/154/154 153/153/153 
f 153/153/153 154/154/154 155/155/155 
f 154/154/154 156/156/156 155/155/155 
f 155/155/155 156/156/156 157/157/157 
f 156/156/156 158/158/158 157/157/157 
f 157/157/157 158/158/158 159/159/159 
f 158/158/158 144/144/144 159/159/159 
f 159/159/159 144/144/144 146/146/146 
f 160/160/160 161/161/161 162/162/162 
f 161/161/161 163/163/163 162/162/162 
f 164/164/164 165/165/165 162/162/162 
f 165/165/165 166/166/166 187/187/187 
f 166/166/166 167/167/167 188/188/188 
f 167/167/167 168/168/168 189/189/189 
f 168/168/168 169/169/169 190/190/190 
f 169/169/169 160/160/160 191/191/191 
