v -2.0647521 -0.4235896 0.1443178
vn -0.0004470 -0.7395098 -0.6731458
vt 0.8029459 0.3398057
v -1.1212510 -0.4247299 0.1443178
vn -0.0004470 -0.7395098 -0.6731458
vt 0.7615920 0.3396837
v -1.1212510 -0.4891235 0.3245289
vn -0.0006043 -0.9999680 0.0079810
vt 0.7615920 0.3201929
v -2.0647521 -0.4891234 0.3245289
vn -0.0006043 -0.9999680 0.0079810
vt 0.8029459 0.3201929
v -1.1212510 -0.4247299 0.4961049
vn -0.0004510 -0.7462354 0.6656821
vt 0.7615922 0.3009111
v -2.0647521 -0.4235896 0.4961049
vn -0.0004510 -0.7462354 0.6656821
vt 0.8029462 0.3008456
v -2.0647521 -0.4235896 0.4961049
vn -0.0004510 -0.7462354 0.6656821
vt 0.8029459 0.3000693
v -1.1212510 -0.4247299 0.4961049
vn -0.0004510 -0.7462354 0.6656821
vt 0.7615922 0.2999231
v -1.1212510 -0.2314996 0.5954114
vn -0.0005022 -0.0011403 0.9999992
vt 0.7615917 0.3215581
v -2.0647521 -0.2314993 0.5954113
vn -0.0005022 -0.0011403 0.9999992
vt 0.8029454 0.3215581
v -1.1212510 -0.0364807 0.4961049
vn -0.0010098 0.7473156 0.6644686
vt 0.7615917 0.3451903
v -2.0647521 -0.0390305 0.4961049
vn -0.0010098 0.7473156 0.6644686
vt 0.8029455 0.3449174
v -1.1212510 0.0261255 0.3245289
vn -0.0013512 0.9999681 0.0078794
vt 0.7615915 0.3638121
v -2.0647521 0.0261255 0.3245289
vn -0.0013512 0.9999681 0.0078794
vt 0.8029454 0.3638121
v -1.1212510 -0.0364807 0.1443178
vn -0.0010006 0.7405754 -0.6719725
vt 0.7615916 0.3838312
v -2.0647521 -0.0390305 0.1443178
vn -0.0010006 0.7405754 -0.6719725
vt 0.8029454 0.3839780
v -2.0647521 -0.0390305 0.1443178
vn -0.0010006 0.7405754 -0.6719725
vt 0.8029462 0.3837450
v -1.1212510 -0.0364807 0.1443178
vn -0.0010006 0.7405754 -0.6719725
vt 0.7615922 0.3840716
v -1.1212510 -0.2314996 0.0536467
vn -0.0004584 -0.0010785 -0.9999993
vt 0.7615920 0.3624469
v -2.0647521 -0.2314993 0.0536467
vn -0.0004584 -0.0010785 -0.9999993
vt 0.8029459 0.3624469
v -2.0647521 -0.2314993 0.5954113
vn -1.0000000 0.0000000 0.0000000
vt 0.7650108 0.4558416
v -2.0647521 -0.0390305 0.4961049
vn -1.0000000 0.0000000 0.0000000
vt 0.7449557 0.4661886
v -2.0647521 -0.4235896 0.4961049
vn -1.0000000 0.0000000 0.0000000
vt 0.7850253 0.4661886
v -2.0647521 -0.4891234 0.3245289
vn -1.0000000 0.0000000 0.0000000
vt 0.7918543 0.4840671
v -2.0647521 0.0261255 0.3245289
vn -1.0000000 0.0000000 0.0000000
vt 0.7381670 0.4840671
v -2.0647521 -0.4235896 0.1443178
vn -1.0000000 0.0000000 0.0000000
vt 0.7850253 0.5028445
v -2.0647521 -0.2314993 0.0536467
vn -1.0000000 0.0000000 0.0000000
vt 0.7650108 0.5122923
v -2.0647521 -0.0390305 0.1443178
vn -1.0000000 0.0000000 0.0000000
vt 0.7449557 0.5028445
v -1.1212510 -0.2314996 0.5954114
vn 1.0000000 0.0000000 0.0000000
vt 0.7650108 0.4558416
v -1.1212510 -0.4247299 0.4961049
vn 1.0000000 0.0000000 0.0000000
vt 0.7448373 0.4661892
v -1.1212510 -0.0364807 0.4961049
vn 1.0000000 0.0000000 0.0000000
vt 0.7854199 0.4661892
v -1.1212510 0.0261255 0.3245289
vn 1.0000000 0.0000000 0.0000000
vt 0.7918543 0.4840671
v -1.1212510 -0.4891235 0.3245289
vn 1.0000000 0.0000000 0.0000000
vt 0.7381670 0.4840671
v -1.1212510 -0.0364807 0.1443178
vn 1.0000000 0.0000000 0.0000000
vt 0.7854197 0.5028447
v -1.1212510 -0.2314996 0.0536467
vn 1.0000000 0.0000000 0.0000000
vt 0.7650108 0.5122923
v -1.1212510 -0.4247299 0.1443178
vn 1.0000000 0.0000000 0.0000000
vt 0.7448372 0.5028447

g group_73010224_140627909390800
f 1/1/1 2/2/2 3/3/3 
f 1/1/1 3/3/3 4/4/4 
f 4/4/4 3/3/3 5/5/5 
f 4/4/4 5/5/5 6/6/6 
f 7/7/7 8/8/8 9/9/9 
f 7/7/7 9/9/9 10/10/10 
f 9/9/9 11/11/11 12/12/12 
f 9/9/9 12/12/12 10/10/10 
f 11/11/11 13/13/13 14/14/14 
f 11/11/11 14/14/14 12/12/12 
f 14/14/14 13/13/13 15/15/15 
f 14/14/14 15/15/15 16/16/16 
f 17/17/17 18/18/18 19/19/19 
f 17/17/17 19/19/19 20/20/20 
f 19/19/19 2/2/2 1/1/1 
f 19/19/19 1/1/1 20/20/20 
f 21/21/21 22/22/22 23/23/23 
f 23/23/23 22/22/22 24/24/24 
f 22/22/22 25/25/25 24/24/24 
f 24/24/24 25/25/25 26/26/26 
f 26/26/26 25/25/25 27/27/27 
f 27/27/27 25/25/25 28/28/28 
f 29/29/29 30/30/30 31/31/31 
f 31/31/31 30/30/30 32/32/32 
f 30/30/30 33/33/33 32/32/32 
f 32/32/32 33/33/33 34/34/34 
f 34/34/34 33/33/33 35/35/35 
f 35/35/35 33/33/33 36/36/36 
