v 2.0647521 -1.3006310 0.1443178
vn 0.0005686 -0.9407413 -0.3391248
vt 0.8029459 0.3398057
v 2.0647521 -1.3661650 0.3245289
vn 0.0005686 -0.9407413 -0.3391248
vt 0.8029459 0.3201929
v 1.1212510 -1.3661650 0.3245289
vn 0.0005686 -0.9407413 -0.3391248
vt 0.7615920 0.3201929
v 1.1212510 -1.3017720 0.1443178
vn 0.0005686 -0.9407413 -0.3391248
vt 0.7615920 0.3396837
v 2.0647521 -1.3661650 0.3245289
vn 0.0005652 -0.9352084 0.3540974
vt 0.8029459 0.3201929
v 2.0647521 -1.3006310 0.4961049
vn 0.0005652 -0.9352084 0.3540974
vt 0.8029462 0.3008456
v 1.1212510 -1.3017720 0.4961049
vn 0.0005652 -0.9352084 0.3540974
vt 0.7615922 0.3009111
v 1.1212510 -1.3661650 0.3245289
vn 0.0005652 -0.9352084 0.3540974
vt 0.7615920 0.3201929
v 2.0647521 -1.3006310 0.4961049
vn 0.0002769 -0.4581650 0.8888672
vt 0.8029459 0.3000693
v 2.0647521 -1.1085410 0.5954113
vn 0.0002769 -0.4581650 0.8888672
vt 0.8029454 0.3215581
v 1.1212510 -1.1085410 0.5954114
vn 0.0002769 -0.4581650 0.8888672
vt 0.7615917 0.3215581
v 1.1212510 -1.3017720 0.4961049
vn 0.0002769 -0.4581650 0.8888672
vt 0.7615922 0.2999231
v 1.1212510 -1.1085410 0.5954114
vn 0.0006163 0.4561368 0.8899094
vt 0.7615917 0.3215581
v 2.0647521 -1.1085410 0.5954113
vn 0.0006163 0.4561368 0.8899094
vt 0.8029454 0.3215581
v 2.0647521 -0.9160721 0.4961049
vn 0.0006163 0.4561368 0.8899094
vt 0.8029455 0.3449174
v 1.1212510 -0.9135223 0.4961049
vn 0.0006163 0.4561368 0.8899094
vt 0.7615917 0.3451903
v 1.1212510 -0.9135223 0.4961049
vn 0.0012663 0.9371517 0.3489200
vt 0.7615917 0.3451903
v 2.0647521 -0.9160721 0.4961049
vn 0.0012663 0.9371517 0.3489200
vt 0.8029455 0.3449174
v 2.0647521 -0.8509161 0.3245289
vn 0.0012663 0.9371517 0.3489200
vt 0.8029454 0.3638121
v 1.1212510 -0.8509161 0.3245289
vn 0.0012663 0.9371517 0.3489200
vt 0.7615915 0.3638121
v 2.0647521 -0.8509161 0.3245289
vn 0.0012736 0.9425337 -0.3341087
vt 0.8029454 0.3638121
v 2.0647521 -0.9160721 0.1443178
vn 0.0012736 0.9425337 -0.3341087
vt 0.8029454 0.3839780
v 1.1212510 -0.9135223 0.1443178
vn 0.0012736 0.9425337 -0.3341087
vt 0.7615916 0.3838312
v 1.1212510 -0.8509161 0.3245289
vn 0.0012736 0.9425337 -0.3341087
vt 0.7615915 0.3638121
v 2.0647521 -0.9160721 0.1443178
vn 0.0005727 0.4238728 -0.9057216
vt 0.8029462 0.3837450
v 2.0647521 -1.1085410 0.0536467
vn 0.0005727 0.4238728 -0.9057216
vt 0.8029459 0.3624469
v 1.1212510 -1.1085410 0.0536467
vn 0.0005727 0.4238728 -0.9057216
vt 0.7615920 0.3624469
v 1.1212510 -0.9135223 0.1443178
vn 0.0005727 0.4238728 -0.9057216
vt 0.7615922 0.3840716
v 1.1212510 -1.1085410 0.0536467
vn 0.0002574 -0.4258253 -0.9048054
vt 0.7615920 0.3624469
v 2.0647521 -1.1085410 0.0536467
vn 0.0002574 -0.4258253 -0.9048054
vt 0.8029459 0.3624469
v 2.0647521 -1.3006310 0.1443178
vn 0.0002574 -0.4258253 -0.9048054
vt 0.8029459 0.3398057
v 1.1212510 -1.3017720 0.1443178
vn 0.0002574 -0.4258253 -0.9048054
vt 0.7615920 0.3396837
v 2.0647521 -1.1085410 0.5954113
vn 1.0000000 0.0000000 0.0000000
vt 0.7650108 0.4558416
v 2.0647521 -1.3006310 0.4961049
vn 1.0000000 0.0000000 0.0000000
vt 0.7850253 0.4661886
v 2.0647521 -0.9160721 0.4961049
vn 1.0000000 0.0000000 0.0000000
vt 0.7449557 0.4661886
v 2.0647521 -1.3661650 0.3245289
vn 1.0000000 0.0000000 0.0000000
vt 0.7918543 0.4840671
v 2.0647521 -0.8509161 0.3245289
vn 1.0000000 0.0000000 0.0000000
vt 0.7381670 0.4840671
v 2.0647521 -1.3006310 0.1443178
vn 1.0000000 0.0000000 0.0000000
vt 0.7850253 0.5028445
v 2.0647521 -1.1085410 0.0536467
vn 1.0000000 0.0000000 0.0000000
vt 0.7650108 0.5122923
v 2.0647521 -0.9160721 0.1443178
vn 1.0000000 0.0000000 0.0000000
vt 0.7449557 0.5028445
v 1.1212510 -1.1085410 0.5954114
vn -1.0000000 0.0000000 0.0000000
vt 0.7650108 0.4558416
v 1.1212510 -0.9135223 0.4961049
vn -1.0000000 0.0000000 0.0000000
vt 0.7854199 0.4661892
v 1.1212510 -1.3017720 0.4961049
vn -1.0000000 0.0000000 0.0000000
vt 0.7448373 0.4661892
v 1.1212510 -0.8509161 0.3245289
vn -1.0000000 0.0000000 0.0000000
vt 0.7918543 0.4840671
v 1.1212510 -1.3661650 0.3245289
vn -1.0000000 0.0000000 0.0000000
vt 0.7381670 0.4840671
v 1.1212510 -0.9135223 0.1443178
vn -1.0000000 0.0000000 0.0000000
vt 0.7854197 0.5028447
v 1.1212510 -1.1085410 0.0536467
vn -1.0000000 0.0000000 0.0000000
vt 0.7650108 0.5122923
v 1.1212510 -1.3017720 0.1443178
vn -1.0000000 0.0000000 0.0000000
vt 0.7448372 0.5028447

g group_73011568_140627857366352
f 1/1/1 2/2/2 3/3/3 
f 1/1/1 3/3/3 4/4/4 
f 5/5/5 6/6/6 7/7/7 
f 5/5/5 7/7/7 8/8/8 
f 9/9/9 10/10/10 11/11/11 
f 9/9/9 11/11/11 12/12/12 
f 13/13/13 14/14/14 15/15/15 
f 13/13/13 15/15/15 16/16/16 
f 17/17/17 18/18/18 19/19/19 
f 17/17/17 19/19/19 20/20/20 
f 21/21/21 22/22/22 23/23/23 
f 21/21/21 23/23/23 24/24/24 
f 25/25/25 26/26/26 27/27/27 
f 25/25/25 27/27/27 28/28/28 
f 29/29/29 30/30/30 31/31/31 
f 29/29/29 31/31/31 32/32/32 
f 33/33/33 34/34/34 35/35/35 
f 34/34/34 36/36/36 35/35/35 
f 35/35/35 36/36/36 37/37/37 
f 36/36/36 38/38/38 37/37/37 
f 38/38/38 39/39/39 37/37/37 
f 39/39/39 40/40/40 37/37/37 
f 41/41/41 42/42/42 43/43/43 
f 42/42/42 44/44/44 43/43/43 
f 43/43/43 44/44/44 45/45/45 
f 44/44/44 46/46/46 45/45/45 
f 46/46/46 47/47/47 45/45/45 
f 47/47/47 48/48/48 45/45/45 
