v -1.3359710 -2.6824360 0.9529349
vn 0.0000000 -0.8660269 0.4999974
vt 0.0392690 0.5616379
v -1.3359710 -2.7335310 0.7622436
vn 0.0000000 -1.0000000 0.0000011
vt 0.0570687 0.5616379
v -1.1079561 -2.7335310 0.7622436
vn 0.0000000 -1.0000000 0.0000011
vt 0.0570687 0.5821941
v -1.3359710 -2.5428391 1.0925320
vn 0.0000000 -0.5000002 0.8660253
vt 0.0214704 0.5616379
v -1.1079561 -2.6824360 0.9529349
vn 0.0000000 -0.8660269 0.4999974
vt 0.0392690 0.5821941
v -1.3359710 -2.3521450 1.1436280
vn 0.0000000 0.0000001 1.0000000
vt 0.0036686 0.5616379
v -1.1079561 -2.5428391 1.0925320
vn 0.0000000 -0.5000002 0.8660253
vt 0.0214704 0.5821941
v -1.3359710 -2.1614499 1.0925320
vn 0.0000000 0.4999992 0.8660259
vt 0.0926692 0.5616379
v -1.3359710 -2.3521450 1.1436280
vn 0.0000000 0.0000001 1.0000000
vt 0.1104688 0.5616379
v -1.1079561 -2.3521450 1.1436280
vn 0.0000000 0.0000001 1.0000000
vt 0.1104688 0.5821941
v -1.3359710 -2.0218530 0.9529348
vn 0.0000000 0.8660272 0.4999968
vt 0.0748705 0.5616379
v -1.1079561 -2.1614499 1.0925320
vn 0.0000000 0.4999992 0.8660259
vt 0.0926692 0.5821941
v -1.3359710 -1.9707590 0.7622431
vn 0.0000001 1.0000000 0.0000005
vt 0.0570687 0.5616379
v -1.1079561 -2.0218530 0.9529348
vn -0.0000001 0.8660272 0.4999969
vt 0.0748705 0.5821941
v -1.3359710 -2.0218530 0.5715504
vn 0.0000001 0.8660303 -0.4999916
vt 0.0392690 0.5616379
v -1.1079561 -1.9707590 0.7622434
vn -0.0000001 1.0000000 0.0000012
vt 0.0570687 0.5821941
v -1.3359710 -2.1614499 0.4319502
vn 0.0000000 0.5000014 -0.8660246
vt 0.0214704 0.5616379
v -1.1079561 -2.0218530 0.5715504
vn 0.0000000 0.8660303 -0.4999915
vt 0.0392690 0.5821941
v -1.3359710 -2.3521450 0.3808551
vn 0.0000000 -0.0000003 -1.0000000
vt 0.0036686 0.5616379
v -1.1079561 -2.1614499 0.4319502
vn 0.0000000 0.5000014 -0.8660246
vt 0.0214704 0.5821941
v -1.3359710 -2.5428391 0.4319503
vn 0.0000000 -0.5000029 -0.8660238
vt 0.0926692 0.5616379
v -1.3359710 -2.3521450 0.3808551
vn 0.0000000 -0.0000003 -1.0000000
vt 0.1104688 0.5616379
v -1.1079561 -2.3521450 0.3808551
vn 0.0000000 -0.0000003 -1.0000000
vt 0.1104688 0.5821941
v -1.3359710 -2.6824360 0.5715505
vn 0.0000000 -0.8660301 -0.4999919
vt 0.0748705 0.5616379
v -1.1079561 -2.5428391 0.4319503
vn 0.0000000 -0.5000029 -0.8660237
vt 0.0926692 0.5821941
v -1.1079561 -2.6824360 0.5715505
vn 0.0000000 -0.8660302 -0.4999918
vt 0.0748705 0.5821941
v -1.1079561 -2.6824360 0.5715505
vn 1.0000000 0.0000000 0.0000000
vt 0.0831034 0.3968844
v -1.1079561 -2.6824360 0.9529349
vn 1.0000000 0.0000000 0.0000000
vt 0.0831034 0.4312689
v -1.1079561 -2.7335310 0.7622436
vn 1.0000000 0.0000000 0.0000000
vt 0.0784964 0.4140782
v -1.3359710 -2.7335310 0.7622436
vn -1.0000000 0.0000000 0.0000000
vt 0.0723100 0.4140635
v -1.3359710 -2.6824360 0.9529349
vn -1.0000000 0.0000000 0.0000000
vt 0.0677030 0.4312562
v -1.3359710 -2.6824360 0.5715505
vn -1.0000000 0.0000000 0.0000000
vt 0.0677030 0.3968728
v -1.1079561 -2.3521450 0.3808551
vn 1.0000000 0.0000000 0.0000000
vt 0.1128777 0.3796917
v -1.1079561 -2.1614499 0.4319502
vn 1.0000000 0.0000000 0.0000000
vt 0.1300704 0.3842986
v -1.1079561 -2.3521450 1.1436280
vn 1.0000000 0.0000000 0.0000000
vt 0.1128777 0.4484595
v -1.3359710 -2.3521450 1.1436280
vn -1.0000000 0.0000000 0.0000000
vt 0.0379287 0.4484500
v -1.3359710 -2.1614499 1.0925320
vn -1.0000000 0.0000000 0.0000000
vt 0.0207349 0.4438431
v -1.3359710 -2.3521450 0.3808551
vn -1.0000000 0.0000000 0.0000000
vt 0.0379287 0.3796822
v -1.1079561 -2.0218530 0.5715504
vn 1.0000000 0.0000000 0.0000000
vt 0.1426552 0.3968844
v -1.1079561 -2.1614499 1.0925320
vn 1.0000000 0.0000000 0.0000000
vt 0.1300704 0.4438525
v -1.3359710 -2.0218530 0.9529348
vn -1.0000000 0.0000000 0.0000000
vt 0.0081481 0.4312562
v -1.3359710 -2.1614499 0.4319502
vn -1.0000000 0.0000000 0.0000000
vt 0.0207349 0.3842891
v -1.1079561 -2.5428391 0.4319503
vn 1.0000000 0.0000000 0.0000000
vt 0.0956839 0.3842986
v -1.1079561 -2.5428391 1.0925320
vn 1.0000000 0.0000000 0.0000000
vt 0.0956839 0.4438525
v -1.3359710 -2.5428391 1.0925320
vn -1.0000000 0.0000000 0.0000000
vt 0.0551162 0.4438431
v -1.3359710 -2.5428391 0.4319503
vn -1.0000000 0.0000000 0.0000000
vt 0.0551162 0.3842891
v -1.1079561 -1.9707590 0.7622434
vn 1.0000000 0.0000000 0.0000000
vt 0.1472621 0.4140782
v -1.1079561 -2.0218530 0.9529348
vn 1.0000000 0.0000000 0.0000000
vt 0.1426552 0.4312689
v -1.3359710 -1.9707590 0.7622431
vn -1.0000000 0.0000000 0.0000000
vt 0.0035411 0.4140635
v -1.3359710 -2.0218530 0.5715504
vn -1.0000000 0.0000000 0.0000000
vt 0.0081481 0.3968728
v -1.1079561 -2.3521450 1.1436280
vn 0.0000000 0.0000001 1.0000000
vt 0.0036686 0.5821941
v -1.1079561 -2.3521450 0.3808551
vn 0.0000000 -0.0000003 -1.0000000
vt 0.0036686 0.5821941

g group_99_107202387797760
f 1/1/1 2/2/2 3/3/3 
f 4/4/4 1/1/1 5/5/5 
f 6/6/6 4/4/4 7/7/7 
f 8/8/8 9/9/9 10/10/10 
f 11/11/11 8/8/8 12/12/12 
f 13/13/13 11/11/11 14/14/14 
f 15/15/15 13/13/13 16/16/16 
f 17/17/17 15/15/15 18/18/18 
f 19/19/19 17/17/17 20/20/20 
f 21/21/21 22/22/22 23/23/23 
f 24/24/24 21/21/21 25/25/25 
f 2/2/2 24/24/24 26/26/26 
f 27/27/27 28/28/28 29/29/29 
f 30/30/30 31/31/31 32/32/32 
f 33/33/33 34/34/34 35/35/35 
f 36/36/36 37/37/37 38/38/38 
f 34/34/34 39/39/39 40/40/40 
f 37/37/37 41/41/41 42/42/42 
f 43/43/43 33/33/33 44/44/44 
f 45/45/45 36/36/36 46/46/46 
f 27/27/27 43/43/43 28/28/28 
f 31/31/31 45/45/45 32/32/32 
f 39/39/39 47/47/47 48/48/48 
f 41/41/41 49/49/49 50/50/50 
f 3/3/3 5/5/5 1/1/1 
f 5/5/5 7/7/7 4/4/4 
f 7/7/7 51/51/51 6/6/6 
f 10/10/10 12/12/12 8/8/8 
f 12/12/12 14/14/14 11/11/11 
f 14/14/14 16/16/16 13/13/13 
f 16/16/16 18/18/18 15/15/15 
f 18/18/18 20/20/20 17/17/17 
f 20/20/20 52/52/52 19/19/19 
f 23/23/23 25/25/25 21/21/21 
f 25/25/25 26/26/26 24/24/24 
f 26/26/26 3/3/3 2/2/2 
f 34/34/34 40/40/40 35/35/35 
f 37/37/37 42/42/42 38/38/38 
f 39/39/39 48/48/48 40/40/40 
f 41/41/41 50/50/50 42/42/42 
f 33/33/33 35/35/35 44/44/44 
f 36/36/36 38/38/38 46/46/46 
f 43/43/43 44/44/44 28/28/28 
f 45/45/45 46/46/46 32/32/32 
