v 1.3946609 2.3808370 0.9411294
vn 0.0000000 -0.4694164 -0.8829769
vt 0.9161532 0.3086994
v 1.0492690 1.1192350 1.1861920
vn 0.0000000 -0.0957819 -0.9954023
vt 0.4948076 1.9118830
v 1.0492690 2.3808370 0.9411294
vn 0.0000000 -0.4694167 -0.8829768
vt 0.4948076 0.3086994
v 1.3946609 2.4769521 0.8450142
vn 0.0000000 -0.8660256 -0.4999997
vt 0.9161532 0.1019738
v 1.0492680 2.4769521 0.8450142
vn 0.0000000 -0.8660257 -0.4999995
vt 0.4948076 0.1019738
v 1.3946609 2.5121329 0.7137182
vn 0.0000000 -1.0000000 -0.0000010
vt 0.9161532 -0.1022930
v 1.0492680 2.5121329 0.7137182
vn 0.0000000 -1.0000000 -0.0000013
vt 0.4948076 -0.1022930
v 1.3946609 2.4769521 0.5824221
vn 0.0000000 -0.8660257 0.4999995
vt 0.9161532 -0.3065591
v 1.0492690 1.7736510 0.0584592
vn 0.0000000 -0.1305261 0.9914449
vt 0.4948076 -1.4619031
v 1.3946609 1.7736510 0.0584592
vn 0.0000000 -0.1305261 0.9914449
vt 0.9161532 -1.4619031
v 1.0492690 1.9049470 0.0936399
vn 0.0000000 -0.4580815 0.8889102
vt 0.4948076 -1.2703791
v 1.3946609 -1.7741840 0.0584589
vn 0.0000000 0.1215571 0.9925845
vt 0.9161532 -5.8269029
v 1.0492690 -1.7741840 0.0584589
vn 0.0000000 0.1215571 0.9925845
vt 0.4948076 8.6702213
v 1.3946609 -2.1844521 0.1604761
vn 0.0000000 0.4313583 0.9021807
vt 0.9161532 8.1287785
v 1.3946609 -1.7741840 0.0584589
vn 0.0000000 0.1215571 0.9925845
vt 0.9161532 8.6702213
v 1.0492690 -2.1844521 0.1604761
vn 0.0000000 0.4313583 0.9021807
vt 0.4948076 8.1287785
v 1.3946609 -2.5428381 0.4319505
vn 0.0000000 0.6570045 0.7538867
vt 0.9161532 7.5583091
v 1.0492690 -2.5428381 0.4319505
vn 0.0000000 0.6570045 0.7538867
vt 0.4948076 7.5583091
v 1.3946609 -2.6824350 0.5715477
vn 0.0000000 0.8660252 0.5000004
vt 0.9161532 7.2925692
v 1.0492690 -2.6824350 0.5715477
vn 0.0000000 0.8660252 0.5000004
vt 0.4948076 7.2925692
v 1.3946609 -2.7335310 0.7622414
vn 0.0000000 1.0000000 -0.0000001
vt 0.9161532 7.0129709
v 1.0492690 -2.7335310 0.7622414
vn 0.0000000 1.0000000 -0.0000001
vt 0.4948076 7.0129709
v 1.3946609 -2.6824350 0.9529350
vn 0.0000000 0.8660253 -0.5000002
vt 0.9161532 6.7333660
v 1.0492690 -2.6824350 0.9529350
vn 0.0000000 0.8660253 -0.5000002
vt 0.4948076 6.7333660
v 1.3946609 -2.5428381 1.0925320
vn 0.0000000 0.5000003 -0.8660253
vt 0.9161532 6.1818128
v 1.0492690 -2.5428381 1.0925320
vn 0.0000000 0.5000003 -0.8660253
vt 0.4948076 6.1818128
v 1.3946609 -2.3521440 1.1436280
vn 0.0000000 0.1522170 -0.9883471
vt 0.9161532 6.4537539
v 1.0492690 -2.3521440 1.1436280
vn 0.0000000 0.1522170 -0.9883471
vt 0.4948076 6.4537539
v 1.3946609 -1.3815080 1.1861920
vn 0.0000000 0.0219098 -0.9997600
vt 0.9161532 4.9849520
v 1.0492690 -1.3815080 1.1861920
vn 0.0000000 0.0219098 -0.9997600
vt 0.4948076 4.9849520
v 1.3946609 1.1192350 1.1861920
vn 0.0000000 -0.0957819 -0.9954023
vt 0.9161532 1.9118830
v 1.0492690 2.4769521 0.5824221
vn 0.0000000 -0.8660259 0.4999992
vt 0.4948076 -0.3065591
v 1.3946609 2.3808370 0.4863068
vn 0.0000000 -0.6725405 0.7400603
vt 0.9161532 -0.4954603
v 1.0492690 2.3808370 0.4863068
vn 0.0000000 -0.6725405 0.7400604
vt 0.4948076 -0.4954603
v 1.3946609 1.9049470 0.0936399
vn 0.0000000 -0.4580815 0.8889102
vt 0.9161532 -1.2703791
v 1.0492690 1.1249300 1.2453730
vn 0.0000000 0.0967180 0.9953119
vt 0.4358297 1.9118830
v 1.3946609 2.4087460 0.9936267
vn 0.0000000 0.4687010 0.8833569
vt 0.0117274 0.3086994
v 1.0492690 2.4087460 0.9936267
vn -0.0000000 0.4687013 0.8833568
vt 0.4358297 0.3086994
v 1.3946609 2.5284410 0.8747416
vn -0.0000000 0.8651751 0.5014699
vt 0.0117274 0.1019673
v 1.3946609 2.5715880 0.7137182
vn -0.0000000 1.0000000 0.0000008
vt 0.0117274 -0.1023116
v 1.0492680 2.5284410 0.8747415
vn -0.0000001 0.8651753 0.5014696
vt 0.4358297 0.1019738
v 1.3946609 2.5284410 0.5526947
vn 0.0000000 0.8691837 -0.4944895
vt 0.0117274 -0.3065846
v 1.0492680 2.5715880 0.7137182
vn 0.0000000 1.0000000 0.0000011
vt 0.4358297 -0.1022930
v 1.3946609 1.9321820 0.0407899
vn 0.0000000 0.4596794 -0.8880850
vt 0.0117274 -1.2703791
v 1.3946609 1.7814111 -0.0005210
vn 0.0000000 0.1333188 -0.9910732
vt 0.0117274 -1.4619031
v 1.0492690 1.9321820 0.0407899
vn 0.0000000 0.4596794 -0.8880849
vt 0.4358297 -1.2703791
v 1.3946609 -1.7814111 -0.0005210
vn 0.0000000 -0.1223863 -0.9924825
vt 0.0117274 -5.8269601
v 1.0492690 1.7814111 -0.0005210
vn 0.0000000 0.1333188 -0.9910732
vt 0.4358297 -1.4619031
v 1.3946609 -2.2100980 0.1068371
vn 0.0000000 -0.4310730 -0.9023171
vt 0.0117274 8.1287785
v 1.0492690 -1.7814111 -0.0005210
vn 0.0000000 -0.1223863 -0.9924825
vt 0.4358297 8.6702213
v 1.3946609 -1.7814111 -0.0005210
vn 0.0000000 -0.1223863 -0.9924825
vt 0.0117274 8.6702213
v 1.3946609 -2.5818999 0.3871283
vn 0.0000000 -0.6594108 -0.7517829
vt 0.0117274 7.5583091
v 1.0492690 -2.2100980 0.1068371
vn 0.0000000 -0.4310730 -0.9023171
vt 0.4358297 8.1287785
v 1.3946609 -2.7339239 0.5418203
vn 0.0000000 -0.8681909 -0.4962305
vt 0.0117274 7.2925692
v 1.0492690 -2.5818999 0.3871283
vn 0.0000000 -0.6594108 -0.7517829
vt 0.4358297 7.5583091
v 1.3946609 -2.7929859 0.7622415
vn 0.0000000 -1.0000000 0.0000002
vt 0.0117274 7.0129709
v 1.0492690 -2.7339239 0.5418203
vn 0.0000000 -0.8681909 -0.4962304
vt 0.4358297 7.2925692
v 1.3946609 -2.7339239 0.9826624
vn 0.0000000 -0.8660253 0.5000004
vt 0.0117274 6.7333660
v 1.0492690 -2.7929859 0.7622415
vn 0.0000000 -1.0000000 0.0000002
vt 0.4358297 7.0129709
v 1.3946609 -2.5725651 1.1440220
vn 0.0000000 -0.5033007 0.8641113
vt 0.0117274 6.4537539
v 1.0492690 -2.7339239 0.9826624
vn 0.0000000 -0.8660252 0.5000004
vt 0.4358297 6.7333660
v 1.3946609 -2.3611951 1.2023910
vn 0.0000000 -0.1561574 0.9877322
vt 0.0117274 6.1850491
v 1.0492690 -2.5725651 1.1440220
vn 0.0000000 -0.5033008 0.8641113
vt 0.4358297 6.4537539
v 1.3946609 -1.3828100 1.2456330
vn 0.0000000 -0.0220309 0.9997573
vt 0.0117274 4.9849720
v 1.0492690 -2.3611951 1.2023910
vn 0.0000000 -0.1561574 0.9877322
vt 0.4358297 6.1850491
v 1.3946609 1.1249300 1.2453730
vn 0.0000000 0.0967180 0.9953119
vt 0.0117274 1.9118960
v 1.0492690 -1.3828100 1.2456330
vn 0.0000000 -0.0220309 0.9997573
vt 0.4358297 4.9849520
v 1.3946609 2.4208231 0.4423067
vn 0.0000000 0.6764767 -0.7364641
vt 0.0117274 -0.4954851
v 1.0492690 2.5284410 0.5526947
vn 0.0000000 0.8691838 -0.4944892
vt 0.4358297 -0.3065591
v 1.0492690 2.4208231 0.4423067
vn 0.0000000 0.6764767 -0.7364641
vt 0.4358297 -0.4954603
v 1.0492690 1.1192350 1.1861920
vn -1.0000000 0.0000000 -0.0000000
vt 0.4948076 1.9118830
v 1.0492690 1.1249300 1.2453730
vn -1.0000000 0.0000000 -0.0000000
vt 0.4358297 1.9118830
v 1.0492690 2.3808370 0.9411294
vn -1.0000000 -0.0000016 0.0000008
vt 0.4948076 0.3086994
v 1.3946609 2.3808370 0.9411294
vn 1.0000000 0.0000000 0.0000000
vt 0.4948076 0.3086989
v 1.3946609 2.4087460 0.9936267
vn 1.0000000 0.0000000 0.0000000
vt 0.4358297 0.3086994
v 1.3946609 1.1249300 1.2453730
vn 1.0000000 0.0000000 0.0000000
vt 0.4358297 1.9118830
v 1.3946609 2.4769521 0.8450142
vn 1.0000000 0.0000000 0.0000000
vt 0.4948076 0.1019733
v 1.3946609 2.5284410 0.8747416
vn 1.0000000 0.0000000 0.0000000
vt 0.4358297 0.1019738
v 1.0492690 2.4087460 0.9936267
vn -1.0000000 -0.0000013 0.0000010
vt 0.4358297 0.3086994
v 1.0492680 2.4769521 0.8450142
vn -1.0000000 -0.0000009 0.0000012
vt 0.4948076 0.1019738
v 1.3946609 2.5121329 0.7137182
vn 1.0000000 0.0000000 0.0000000
vt 0.4948076 -0.1022933
v 1.3946609 2.5715880 0.7137182
vn 1.0000000 0.0000000 0.0000000
vt 0.4358297 -0.1022928
v 1.0492680 2.5284410 0.8747415
vn -1.0000000 -0.0000007 0.0000013
vt 0.4358297 0.1019738
v 1.0492680 2.5121329 0.7137182
vn -1.0000000 0.0000000 -0.0000018
vt 0.4948076 -0.1022930
v 1.3946609 2.4769521 0.5824221
vn 1.0000000 0.0000000 0.0000000
vt 0.4948076 -0.3065596
v 1.3946609 2.5284410 0.5526947
vn 1.0000000 0.0000000 0.0000000
vt 0.4358297 -0.3065591
v 1.0492680 2.5715880 0.7137182
vn -1.0000000 -0.0000002 -0.0000017
vt 0.4358297 -0.1022930
v 1.0492690 2.4769521 0.5824221
vn -1.0000000 -0.0000006 -0.0000014
vt 0.4948076 -0.3065591
v 1.0492690 1.9049470 0.0936399
vn -1.0000000 0.0000000 0.0000000
vt 0.4948076 -1.2703791
v 1.0492690 1.9321820 0.0407899
vn -1.0000000 0.0000000 0.0000000
vt 0.4358297 -1.2703791
v 1.0492690 1.7736510 0.0584592
vn -1.0000000 0.0000000 0.0000000
vt 0.4948076 -1.4619031
v 1.3946609 1.7736510 0.0584592
vn 1.0000000 0.0000000 0.0000000
vt 0.4948076 -1.4619040
v 1.3946609 1.9321820 0.0407899
vn 1.0000000 0.0000000 0.0000000
vt 0.4358297 -1.2703781
v 1.3946609 1.9049470 0.0936399
vn 1.0000000 0.0000000 0.0000000
vt 0.4948076 -1.2703791
v 1.3946609 -1.7741840 0.0584589
vn 1.0000000 0.0000000 0.0000000
vt 0.4948076 -5.8269029
v 1.3946609 1.7814111 -0.0005210
vn 1.0000000 0.0000000 0.0000000
vt 0.4358297 -1.4619040
v 1.0492690 1.7814111 -0.0005210
vn -1.0000000 0.0000000 0.0000000
vt 0.4358297 -1.4619031
v 1.0492690 -1.7741840 0.0584589
vn -1.0000000 0.0000000 0.0000000
vt 0.4948076 -5.8269029
v 1.3946609 -2.1844521 0.1604761
vn 1.0000000 0.0000000 0.0000000
vt 0.4948076 8.1287785
v 1.3946609 -1.7814111 -0.0005210
vn 1.0000000 0.0000000 0.0000000
vt 0.4358297 8.6702223
v 1.3946609 -1.7741840 0.0584589
vn 1.0000000 0.0000000 0.0000000
vt 0.4948076 8.6702213
v 1.0492690 -1.7741840 0.0584589
vn -1.0000000 0.0000000 0.0000000
vt 0.4948076 8.6702213
v 1.0492690 -1.7814111 -0.0005210
vn -1.0000000 0.0000000 0.0000000
vt 0.4358297 8.6702213
v 1.0492690 -2.1844521 0.1604761
vn -1.0000000 0.0000000 0.0000000
vt 0.4948076 8.1287785
v 1.3946609 -2.5428381 0.4319505
vn 1.0000000 0.0000000 0.0000000
vt 0.4948076 7.5583091
v 1.3946609 -2.2100980 0.1068371
vn 1.0000000 0.0000000 0.0000000
vt 0.4358297 8.1287785
v 1.0492690 -2.2100980 0.1068371
vn -1.0000000 0.0000000 0.0000000
vt 0.4358297 8.1287785
v 1.0492690 -2.5428381 0.4319505
vn -1.0000000 0.0000002 -0.0000002
vt 0.4948076 7.5583091
v 1.3946609 -2.6824350 0.5715477
vn 1.0000000 0.0000000 0.0000000
vt 0.4948076 7.2925692
v 1.3946609 -2.5818999 0.3871283
vn 1.0000000 0.0000000 0.0000000
vt 0.4358297 7.5583100
v 1.0492690 -2.5818999 0.3871283
vn -1.0000000 0.0000002 -0.0000002
vt 0.4358297 7.5583091
v 1.0492690 -2.6824350 0.5715477
vn -1.0000000 0.0000002 -0.0000002
vt 0.4948076 7.2925692
v 1.3946609 -2.7335310 0.7622414
vn 1.0000000 0.0000000 0.0000000
vt 0.4948076 7.0129700
v 1.3946609 -2.7339239 0.5418203
vn 1.0000000 0.0000000 0.0000000
vt 0.4358297 7.2925692
v 1.0492690 -2.7339239 0.5418203
vn -1.0000000 0.0000001 -0.0000002
vt 0.4358297 7.2925692
v 1.0492690 -2.7335310 0.7622414
vn -1.0000000 0.0000000 0.0000000
vt 0.4948076 7.0129709
v 1.3946609 -2.6824350 0.9529350
vn 1.0000000 0.0000000 0.0000000
vt 0.4948076 6.7333651
v 1.3946609 -2.7929859 0.7622415
vn 1.0000000 0.0000000 0.0000000
vt 0.4358297 7.0129709
v 1.0492690 -2.7929859 0.7622415
vn -1.0000000 0.0000000 0.0000000
vt 0.4358297 7.0129709
v 1.0492690 -2.6824350 0.9529350
vn -1.0000000 0.0000000 0.0000000
vt 0.4948076 6.7333660
v 1.3946609 -2.5428381 1.0925320
vn 1.0000000 0.0000000 0.0000000
vt 0.4948076 6.4537530
v 1.3946609 -2.7339239 0.9826624
vn 1.0000000 0.0000000 0.0000000
vt 0.4358297 6.7333660
v 1.0492690 -2.7339239 0.9826624
vn -1.0000000 0.0000000 0.0000000
vt 0.4358297 6.7333660
v 1.0492690 -2.5428381 1.0925320
vn -1.0000000 0.0000003 0.0000002
vt 0.4948076 6.4537539
v 1.3946609 -2.3521440 1.1436280
vn 1.0000000 0.0000000 0.0000000
vt 0.4948076 6.1850491
v 1.3946609 -2.5725651 1.1440220
vn 1.0000000 0.0000000 0.0000000
vt 0.4358297 6.4537539
v 1.0492690 -2.5725651 1.1440220
vn -1.0000000 0.0000003 0.0000001
vt 0.4358297 6.4537539
v 1.0492690 -2.3521440 1.1436280
vn -1.0000000 0.0000003 0.0000001
vt 0.4948076 6.1850491
v 1.3946609 -1.3815080 1.1861920
vn 1.0000000 0.0000000 0.0000000
vt 0.4948076 4.9849520
v 1.3946609 -2.3611951 1.2023910
vn 1.0000000 0.0000000 0.0000000
vt 0.4358297 6.1850491
v 1.0492690 -2.3611951 1.2023910
vn -1.0000000 0.0000003 0.0000000
vt 0.4358297 6.1850491
v 1.0492690 -1.3815080 1.1861920
vn -1.0000000 -0.0000000 -0.0000000
vt 0.4948076 4.9849520
v 1.3946609 1.1192350 1.1861920
vn 1.0000000 0.0000000 0.0000000
vt 0.4948076 1.9118820
v 1.3946609 -1.3828100 1.2456330
vn 1.0000000 0.0000000 0.0000000
vt 0.4358297 4.9849520
v 1.0492690 -1.3828100 1.2456330
vn -1.0000000 -0.0000000 -0.0000000
vt 0.4358297 4.9849520
v 1.3946609 2.3808370 0.4863068
vn 1.0000000 0.0000000 0.0000000
vt 0.4948076 -0.4954607
v 1.3946609 2.4208231 0.4423067
vn 1.0000000 0.0000000 0.0000000
vt 0.4358297 -0.4954603
v 1.0492690 2.5284410 0.5526947
vn -1.0000000 -0.0000007 -0.0000013
vt 0.4358297 -0.3065591
v 1.0492690 2.3808370 0.4863068
vn -1.0000000 0.0000000 0.0000000
vt 0.4948076 -0.4954603
v 1.0492690 2.4208231 0.4423067
vn -1.0000000 0.0000000 0.0000000
vt 0.4358297 -0.4954603
v 1.2399780 1.9049470 0.0936399
vn 0.9839897 -0.0811858 0.1586607
vt 0.9164228 -1.2703791
v 1.2219650 1.7607170 0.1567027
vn 0.9837552 -0.0229224 0.1780459
vt 0.9956024 -1.4619031
v 1.2399780 1.7736510 0.0584591
vn 0.9838765 -0.0233446 0.1773194
vt 0.9164236 -1.4619031
v 1.2399780 -1.7741840 0.0584589
vn 0.9838760 0.0217433 0.1775250
vt 0.9164236 -5.8269029
v 1.2219650 -1.7621390 0.1568154
vn 0.9838449 0.0217229 0.1776999
vt 0.9956023 -5.8269029
v 1.2399780 -2.1844521 0.1604761
vn 0.9839122 0.0768714 0.1612686
vt 0.9164228 8.1287785
v 1.2219650 -1.7621390 0.1568154
vn 0.9838449 0.0217229 0.1776999
vt 0.9956024 8.6702213
v 1.2219650 -2.1417079 0.2498744
vn 0.9839156 0.0767927 0.1612853
vt 0.9956024 8.1287785
v 1.2399780 -2.5428381 0.4319505
vn 0.9838328 0.1178930 0.1348116
vt 0.9164228 7.5583091
v 1.2219650 -2.4777341 0.5066541
vn 0.9836980 0.1180613 0.1356463
vt 0.9956023 7.5583091
v 1.2399780 -2.6824350 0.5715477
vn 0.9830313 0.1281210 0.1312800
vt 0.9164228 7.2925692
v 1.2219650 -2.5966189 0.6210935
vn 0.9825693 0.1289203 0.1339296
vt 0.9956023 7.2925692
v 1.2399780 -1.3815080 1.1861920
vn 0.9838704 0.0038709 -0.1788410
vt 0.9164228 4.9849520
v 1.2219650 -2.3370609 1.0456920
vn 0.9836994 0.0078712 -0.1796486
vt 0.9956023 6.1818128
v 1.2219650 -1.3793370 1.0871240
vn 0.9838747 0.0038658 -0.1788174
vt 0.9956023 4.9849520
v 1.2399780 1.1192350 1.1861920
vn 0.9838781 -0.0171155 -0.1780196
vt 0.9164228 1.9118830
v 1.2219650 1.1097440 1.0875560
vn 0.9838462 -0.0171169 -0.1781958
vt 0.9956023 1.9118830
v 1.2399780 2.3808370 0.4863069
vn 0.9837700 -0.1146461 0.1380323
vt 0.9164228 -0.4954603
v 1.2219650 1.8595550 0.1817232
vn 0.9839088 -0.0805798 0.1594693
vt 0.9956024 -1.2703791
v 1.2399780 2.3808370 0.9411294
vn 0.9824600 -0.0350217 -0.1831549
vt 0.9164228 0.3086994
v 1.2219650 1.7607170 0.1567027
vn -0.9837554 -0.0229222 0.1780448
vt 0.9956015 -1.4619031
v 1.2039520 1.9049470 0.0936399
vn -0.9839899 -0.0811853 0.1586596
vt 0.9164228 -1.2703791
v 1.2039520 1.7736510 0.0584591
vn -0.9838767 -0.0233444 0.1773183
vt 0.9164228 -1.4619031
v 1.2219650 -1.7621390 0.1568154
vn -0.9838452 0.0217228 0.1776987
vt 0.9956016 -5.8269029
v 1.2039520 -1.7741840 0.0584589
vn -0.9838763 0.0217431 0.1775239
vt 0.9164228 -5.8269029
v 1.2219650 -2.1417079 0.2498744
vn -0.9839159 0.0767923 0.1612843
vt 0.9956015 8.1287785
v 1.2219650 -1.7621390 0.1568154
vn -0.9838452 0.0217228 0.1776987
vt 0.9956015 8.6702213
v 1.2039520 -2.1844521 0.1604761
vn -0.9839124 0.0768709 0.1612676
vt 0.9164228 8.1287785
v 1.2219650 -2.4777341 0.5066541
vn -0.9836982 0.1180604 0.1356450
vt 0.9956016 7.5583091
v 1.2039520 -2.5428381 0.4319505
vn -0.9838331 0.1178923 0.1348107
vt 0.9164228 7.5583091
v 1.2219650 -2.5966189 0.6210935
vn -0.9825701 0.1289186 0.1339258
vt 0.9956016 7.2925692
v 1.2039520 -2.6824350 0.5715477
vn -0.9830319 0.1281196 0.1312773
vt 0.9164228 7.2925692
v 1.2219650 1.8595550 0.1817232
vn -0.9839090 -0.0805793 0.1594683
vt 0.9956015 -1.2703791
v 1.2039520 2.3808370 0.4863069
vn -0.9837702 -0.1146454 0.1380315
vt 0.9164228 -0.4954603
v 1.0492690 -1.7741840 0.0584589
vn 0.0000000 0.1215571 0.9925845
vt 0.4948076 -5.8269029
v 1.0492690 -1.7814111 -0.0005210
vn 0.0000000 -0.1223863 -0.9924825
vt 0.4358297 -5.8269029
v 1.3946609 -1.7814111 -0.0005210
vn 1.0000000 0.0000000 0.0000000
vt 0.4358297 -5.8269029
v 1.0492690 -1.7814111 -0.0005210
vn -1.0000000 0.0000000 0.0000000
vt 0.4358297 -5.8269029
v 1.2219650 2.3141940 0.5596404
vn 0.9838458 -0.1144352 0.1376668
vt 0.9956023 -0.4954603
v 1.2219650 2.3141940 0.5596404
vn -0.9838459 -0.1144344 0.1376659
vt 0.9956016 -0.4954603
v 1.2399780 -1.7741840 0.0584589
vn 0.9838760 0.0217433 0.1775250
vt 0.9164228 8.6702213
v 1.2039520 -1.7741840 0.0584589
vn -0.9838763 0.0217431 0.1775239
vt 0.9164228 8.6702213
v 1.2399780 -2.3521440 1.1436280
vn 0.9836881 0.0078805 -0.1797100
vt 0.9164228 6.1818128
v 1.2219650 2.3343220 0.8536341
vn 0.9823754 -0.0350717 -0.1835990
vt 0.9956023 0.3086994
v 1.3946609 -2.5428381 1.0925320
vn 0.0000000 0.5000003 -0.8660253
vt 0.9161532 6.1818128
v 1.0492690 -2.5428381 1.0925320
vn 0.0000000 0.5000003 -0.8660253
vt 0.4948076 6.1818128
v 1.3946609 -2.3521440 1.1436280
vn 0.0000000 0.1522170 -0.9883471
vt 0.9161532 6.4537539
v 1.0492690 -2.3521440 1.1436280
vn 0.0000000 0.1522170 -0.9883471
vt 0.4948076 6.4537539

g group_138_107202387877632
f 1/1/1 2/2/2 3/3/3 
f 3/3/3 4/4/4 1/1/1 
f 5/5/5 6/6/6 4/4/4 
f 7/7/7 8/8/8 6/6/6 
f 9/9/9 10/10/10 11/11/11 
f 9/9/9 12/12/12 10/10/10 
f 13/13/13 14/14/14 15/15/15 
f 16/16/16 17/17/17 14/14/14 
f 18/18/18 19/19/19 17/17/17 
f 20/20/20 21/21/21 19/19/19 
f 22/22/22 23/23/23 21/21/21 
f 24/24/24 25/25/25 23/23/23 
f 26/26/26 27/27/27 185/185/185 
f 28/28/28 29/29/29 187/187/187 
f 30/30/30 31/31/31 29/29/29 
f 32/32/32 33/33/33 8/8/8 
f 34/34/34 35/35/35 33/33/33 
f 36/36/36 37/37/37 38/38/38 
f 39/39/39 38/38/38 37/37/37 
f 40/40/40 41/41/41 39/39/39 
f 42/42/42 43/43/43 40/40/40 
f 44/44/44 45/45/45 46/46/46 
f 47/47/47 48/48/48 45/45/45 
f 49/49/49 50/50/50 51/51/51 
f 52/52/52 53/53/53 49/49/49 
f 54/54/54 55/55/55 52/52/52 
f 56/56/56 57/57/57 54/54/54 
f 58/58/58 59/59/59 56/56/56 
f 60/60/60 61/61/61 58/58/58 
f 62/62/62 63/63/63 60/60/60 
f 64/64/64 65/65/65 62/62/62 
f 66/66/66 67/67/67 64/64/64 
f 68/68/68 69/69/69 42/42/42 
f 44/44/44 70/70/70 68/68/68 
f 71/71/71 72/72/72 73/73/73 
f 74/74/74 75/75/75 76/76/76 
f 77/77/77 78/78/78 75/75/75 
f 73/73/73 79/79/79 80/80/80 
f 81/81/81 82/82/82 78/78/78 
f 80/80/80 83/83/83 84/84/84 
f 85/85/85 86/86/86 82/82/82 
f 84/84/84 87/87/87 88/88/88 
f 89/89/89 90/90/90 91/91/91 
f 92/92/92 93/93/93 94/94/94 
f 95/95/95 96/96/96 92/92/92 
f 91/91/91 97/97/97 98/98/98 
f 99/99/99 100/100/100 101/101/101 
f 102/102/102 103/103/103 104/104/104 
f 105/105/105 106/106/106 99/99/99 
f 104/104/104 107/107/107 108/108/108 
f 109/109/109 110/110/110 105/105/105 
f 108/108/108 111/111/111 112/112/112 
f 113/113/113 114/114/114 109/109/109 
f 112/112/112 115/115/115 116/116/116 
f 117/117/117 118/118/118 113/113/113 
f 116/116/116 119/119/119 120/120/120 
f 121/121/121 122/122/122 117/117/117 
f 120/120/120 123/123/123 124/124/124 
f 125/125/125 126/126/126 121/121/121 
f 124/124/124 127/127/127 128/128/128 
f 129/129/129 130/130/130 125/125/125 
f 128/128/128 131/131/131 132/132/132 
f 133/133/133 76/76/76 134/134/134 
f 132/132/132 135/135/135 71/71/71 
f 136/136/136 137/137/137 86/86/86 
f 88/88/88 138/138/138 139/139/139 
f 94/94/94 93/93/93 137/137/137 
f 139/139/139 140/140/140 89/89/89 
f 141/141/141 142/142/142 143/143/143 
f 144/144/144 142/142/142 145/145/145 
f 146/146/146 147/147/147 148/148/148 
f 149/149/149 148/148/148 150/150/150 
f 151/151/151 150/150/150 152/152/152 
f 153/153/153 154/154/154 155/155/155 
f 156/156/156 155/155/155 157/157/157 
f 141/141/141 158/158/158 159/159/159 
f 157/157/157 160/160/160 156/156/156 
f 161/161/161 162/162/162 163/163/163 
f 164/164/164 161/161/161 165/165/165 
f 166/166/166 167/167/167 168/168/168 
f 169/169/169 166/166/166 170/170/170 
f 171/171/171 169/169/169 172/172/172 
f 173/173/173 174/174/174 162/162/162 
f 30/30/30 2/2/2 31/31/31 
f 66/66/66 36/36/36 67/67/67 
f 1/1/1 31/31/31 2/2/2 
f 36/36/36 66/66/66 37/37/37 
f 3/3/3 5/5/5 4/4/4 
f 39/39/39 41/41/41 38/38/38 
f 5/5/5 7/7/7 6/6/6 
f 40/40/40 43/43/43 41/41/41 
f 7/7/7 32/32/32 8/8/8 
f 42/42/42 69/69/69 43/43/43 
f 32/32/32 34/34/34 33/33/33 
f 68/68/68 70/70/70 69/69/69 
f 34/34/34 11/11/11 35/35/35 
f 44/44/44 46/46/46 70/70/70 
f 10/10/10 35/35/35 11/11/11 
f 45/45/45 48/48/48 46/46/46 
f 9/9/9 175/175/175 12/12/12 
f 47/47/47 176/176/176 48/48/48 
f 13/13/13 16/16/16 14/14/14 
f 49/49/49 53/53/53 50/50/50 
f 16/16/16 18/18/18 17/17/17 
f 52/52/52 55/55/55 53/53/53 
f 18/18/18 20/20/20 19/19/19 
f 54/54/54 57/57/57 55/55/55 
f 20/20/20 22/22/22 21/21/21 
f 56/56/56 59/59/59 57/57/57 
f 22/22/22 24/24/24 23/23/23 
f 58/58/58 61/61/61 59/59/59 
f 24/24/24 186/186/186 25/25/25 
f 60/60/60 63/63/63 61/61/61 
f 26/26/26 188/188/188 27/27/27 
f 62/62/62 65/65/65 63/63/63 
f 28/28/28 30/30/30 29/29/29 
f 64/64/64 67/67/67 65/65/65 
f 134/134/134 129/129/129 133/133/133 
f 76/76/76 133/133/133 74/74/74 
f 75/75/75 74/74/74 77/77/77 
f 78/78/78 77/77/77 81/81/81 
f 82/82/82 81/81/81 85/85/85 
f 86/86/86 85/85/85 136/136/136 
f 137/137/137 136/136/136 94/94/94 
f 92/92/92 96/96/96 93/93/93 
f 95/95/95 177/177/177 96/96/96 
f 99/99/99 106/106/106 100/100/100 
f 105/105/105 110/110/110 106/106/106 
f 109/109/109 114/114/114 110/110/110 
f 113/113/113 118/118/118 114/114/114 
f 117/117/117 122/122/122 118/118/118 
f 121/121/121 126/126/126 122/122/122 
f 125/125/125 130/130/130 126/126/126 
f 129/129/129 134/134/134 130/130/130 
f 135/135/135 72/72/72 71/71/71 
f 131/131/131 135/135/135 132/132/132 
f 127/127/127 131/131/131 128/128/128 
f 123/123/123 127/127/127 124/124/124 
f 119/119/119 123/123/123 120/120/120 
f 115/115/115 119/119/119 116/116/116 
f 111/111/111 115/115/115 112/112/112 
f 107/107/107 111/111/111 108/108/108 
f 103/103/103 107/107/107 104/104/104 
f 97/97/97 178/178/178 98/98/98 
f 90/90/90 97/97/97 91/91/91 
f 140/140/140 90/90/90 89/89/89 
f 138/138/138 140/140/140 139/139/139 
f 87/87/87 138/138/138 88/88/88 
f 83/83/83 87/87/87 84/84/84 
f 79/79/79 83/83/83 80/80/80 
f 72/72/72 79/79/79 73/73/73 
f 141/141/141 159/159/159 142/142/142 
f 161/161/161 173/173/173 162/162/162 
f 158/158/158 179/179/179 159/159/159 
f 173/173/173 180/180/180 174/174/174 
f 144/144/144 143/143/143 142/142/142 
f 161/161/161 163/163/163 165/165/165 
f 146/146/146 181/181/181 147/147/147 
f 167/167/167 182/182/182 168/168/168 
f 149/149/149 146/146/146 148/148/148 
f 166/166/166 168/168/168 170/170/170 
f 151/151/151 149/149/149 150/150/150 
f 169/169/169 170/170/170 172/172/172 
f 153/153/153 183/183/183 154/154/154 
f 156/156/156 153/153/153 155/155/155 
f 157/157/157 184/184/184 160/160/160 
