v 1.1192859 2.8604541 0.0584601
vn 0.0000000 -0.0000003 1.0000000
vt 0.4938358 -0.1234618
v 1.0492690 -1.7741840 0.0584589
vn 0.0000000 0.1221444 0.9925123
vt 0.4948076 -5.8269029
v 1.4646780 2.8604541 0.0584601
vn 0.0000000 -0.0000003 1.0000000
vt 0.9161539 -0.1234468
v 1.0492690 -1.7741840 0.0584589
vn 0.0000000 0.1221444 0.9925123
vt 0.4948076 8.6702213
v 1.3946609 -2.1844521 0.1604761
vn 0.0000000 0.4313583 0.9021807
vt 0.9161532 8.1287785
v 1.3946609 -1.7741840 0.0584589
vn 0.0000000 0.1209753 0.9926555
vt 0.9161532 8.6702213
v 1.0492690 -2.1844521 0.1604761
vn 0.0000000 0.4313583 0.9021807
vt 0.4948076 8.1287785
v 1.3946609 -2.5428381 0.4319505
vn 0.0000000 0.6570045 0.7538867
vt 0.9161532 7.5583091
v 1.0492690 -2.5428381 0.4319505
vn 0.0000000 0.6570045 0.7538867
vt 0.4948076 7.5583091
v 1.3946609 -2.6824350 0.5715477
vn 0.0000000 0.8660252 0.5000004
vt 0.9161532 7.2925692
v 1.0492690 -2.6824350 0.5715477
vn 0.0000000 0.8660252 0.5000004
vt 0.4948076 7.2925692
v 1.3946609 -2.7335310 0.7622414
vn 0.0000000 1.0000000 -0.0000001
vt 0.9161532 7.0129709
v 1.0492690 -2.7335310 0.7622414
vn 0.0000000 1.0000000 -0.0000001
vt 0.4948076 7.0129709
v 1.3946609 -2.6824350 0.9529350
vn 0.0000000 0.8660253 -0.5000002
vt 0.9161532 6.7333660
v 1.0492690 -2.6824350 0.9529350
vn 0.0000000 0.8660253 -0.5000002
vt 0.4948076 6.7333660
v 1.3946609 -2.5428381 1.0925320
vn 0.0000000 0.5000003 -0.8660253
vt 0.9161532 6.1818128
v 1.0492690 -2.5428381 1.0925320
vn 0.0000000 0.5000003 -0.8660253
vt 0.4948076 6.1818128
v 1.3946609 -2.3521440 1.1436280
vn 0.0000000 0.1522170 -0.9883471
vt 0.9161532 6.4537539
v 1.0492690 -2.3521440 1.1436280
vn 0.0000000 0.1522170 -0.9883471
vt 0.4948076 6.4537539
v 1.3946609 -1.3815080 1.1861920
vn 0.0000000 0.0219098 -0.9997600
vt 0.9161532 4.9849520
v 1.0492690 -1.3815080 1.1861920
vn -0.0000000 0.0219098 -0.9997600
vt 0.4948076 4.9849520
v 1.3946609 -0.1311363 1.1861920
vn 0.0000000 -0.1736489 -0.9848077
vt 0.9161532 3.4351830
v 1.3946609 -1.7814111 -0.0005210
vn 0.0000000 -0.1218023 -0.9925544
vt 0.0117274 -5.8269601
v 1.1192859 2.8682151 -0.0005201
vn 0.0000000 0.0000002 -1.0000000
vt 0.4358304 -0.1236562
v 1.4646780 2.8682151 -0.0005201
vn 0.0000000 0.0000002 -1.0000000
vt 0.0127039 -0.1236703
v 1.3946609 -2.2100980 0.1068371
vn 0.0000000 -0.4310730 -0.9023171
vt 0.0117274 8.1287785
v 1.0492690 -1.7814111 -0.0005210
vn 0.0000000 -0.1229756 -0.9924097
vt 0.4358297 8.6702213
v 1.3946609 -1.7814111 -0.0005210
vn 0.0000000 -0.1218023 -0.9925544
vt 0.0117274 8.6702213
v 1.3946609 -2.5818999 0.3871283
vn 0.0000000 -0.6594108 -0.7517829
vt 0.0117274 7.5583091
v 1.0492690 -2.2100980 0.1068371
vn 0.0000000 -0.4310730 -0.9023171
vt 0.4358297 8.1287785
v 1.3946609 -2.7339239 0.5418203
vn 0.0000000 -0.8681909 -0.4962305
vt 0.0117274 7.2925692
v 1.0492690 -2.5818999 0.3871283
vn 0.0000000 -0.6594108 -0.7517829
vt 0.4358297 7.5583091
v 1.3946609 -2.7929859 0.7622415
vn 0.0000000 -1.0000000 0.0000002
vt 0.0117274 7.0129709
v 1.0492690 -2.7339239 0.5418203
vn 0.0000000 -0.8681909 -0.4962304
vt 0.4358297 7.2925692
v 1.3946609 -2.7339239 0.9826624
vn 0.0000000 -0.8660253 0.5000004
vt 0.0117274 6.7333660
v 1.0492690 -2.7929859 0.7622415
vn 0.0000000 -1.0000000 0.0000002
vt 0.4358297 7.0129709
v 1.3946609 -2.5725651 1.1440220
vn 0.0000000 -0.5033007 0.8641113
vt 0.0117274 6.4537539
v 1.0492690 -2.7339239 0.9826624
vn 0.0000000 -0.8660252 0.5000004
vt 0.4358297 6.7333660
v 1.3946609 -2.3611951 1.2023910
vn 0.0000000 -0.1561574 0.9877322
vt 0.0117274 6.1850491
v 1.0492690 -2.5725651 1.1440220
vn 0.0000000 -0.5033008 0.8641113
vt 0.4358297 6.4537539
v 1.3946609 -1.3828100 1.2456330
vn 0.0000000 -0.0220312 0.9997573
vt 0.0117274 4.9849720
v 1.0492690 -2.3611951 1.2023910
vn 0.0000000 -0.1561574 0.9877322
vt 0.4358297 6.1850491
v 1.3946609 -1.7741840 0.0584589
vn 0.9999711 -0.0075533 0.0009256
vt 0.4948076 -5.8269029
v 1.3946609 -1.7814111 -0.0005210
vn 0.9999711 -0.0075569 0.0009092
vt 0.4358297 -5.8269029
v 1.4646780 2.8604541 0.0584601
vn 0.9998848 -0.0150573 -0.0019505
vt 0.4948085 -0.1234618
v 1.1192859 2.8604541 0.0584601
vn -0.9998848 0.0150573 0.0019506
vt 0.4880607 -0.1234618
v 1.0492690 -1.7814111 -0.0005210
vn -0.9999711 0.0075569 -0.0009092
vt 0.4358297 -5.8269029
v 1.0492690 -1.7741840 0.0584589
vn -0.9999711 0.0075533 -0.0009256
vt 0.4948076 -5.8269029
v 1.3946609 -2.1844521 0.1604761
vn 1.0000000 0.0000000 0.0000000
vt 0.4948076 8.1287785
v 1.3946609 -1.7814111 -0.0005210
vn 0.9999711 -0.0075569 0.0009092
vt 0.4358297 8.6702223
v 1.3946609 -1.7741840 0.0584589
vn 0.9999711 -0.0075533 0.0009256
vt 0.4948076 8.6702213
v 1.0492690 -1.7741840 0.0584589
vn -0.9999711 0.0075533 -0.0009256
vt 0.4948076 8.6702213
v 1.0492690 -1.7814111 -0.0005210
vn -0.9999711 0.0075569 -0.0009092
vt 0.4358297 8.6702213
v 1.0492690 -2.1844521 0.1604761
vn -1.0000000 0.0000000 0.0000000
vt 0.4948076 8.1287785
v 1.3946609 -2.5428381 0.4319505
vn 1.0000000 0.0000000 0.0000000
vt 0.4948076 7.5583091
v 1.3946609 -2.2100980 0.1068371
vn 1.0000000 0.0000000 0.0000000
vt 0.4358297 8.1287785
v 1.0492690 -2.2100980 0.1068371
vn -1.0000000 0.0000000 0.0000000
vt 0.4358297 8.1287785
v 1.0492690 -2.5428381 0.4319505
vn -1.0000000 0.0000002 -0.0000002
vt 0.4948076 7.5583091
v 1.3946609 -2.6824350 0.5715477
vn 1.0000000 0.0000000 0.0000000
vt 0.4948076 7.2925692
v 1.3946609 -2.5818999 0.3871283
vn 1.0000000 0.0000000 0.0000000
vt 0.4358297 7.5583100
v 1.0492690 -2.5818999 0.3871283
vn -1.0000000 0.0000002 -0.0000002
vt 0.4358297 7.5583091
v 1.0492690 -2.6824350 0.5715477
vn -1.0000000 0.0000002 -0.0000002
vt 0.4948076 7.2925692
v 1.3946609 -2.7335310 0.7622414
vn 1.0000000 0.0000000 0.0000000
vt 0.4948076 7.0129700
v 1.3946609 -2.7339239 0.5418203
vn 1.0000000 0.0000000 0.0000000
vt 0.4358297 7.2925692
v 1.0492690 -2.7339239 0.5418203
vn -1.0000000 0.0000001 -0.0000002
vt 0.4358297 7.2925692
v 1.0492690 -2.7335310 0.7622414
vn -1.0000000 0.0000000 0.0000000
vt 0.4948076 7.0129709
v 1.3946609 -2.6824350 0.9529350
vn 1.0000000 0.0000000 0.0000000
vt 0.4948076 6.7333651
v 1.3946609 -2.7929859 0.7622415
vn 1.0000000 0.0000000 0.0000000
vt 0.4358297 7.0129709
v 1.0492690 -2.7929859 0.7622415
vn -1.0000000 0.0000000 0.0000000
vt 0.4358297 7.0129709
v 1.0492690 -2.6824350 0.9529350
vn -1.0000000 0.0000000 0.0000000
vt 0.4948076 6.7333660
v 1.3946609 -2.5428381 1.0925320
vn 1.0000000 0.0000000 0.0000000
vt 0.4948076 6.4537530
v 1.3946609 -2.7339239 0.9826624
vn 1.0000000 0.0000000 0.0000000
vt 0.4358297 6.7333660
v 1.0492690 -2.7339239 0.9826624
vn -1.0000000 0.0000000 0.0000000
vt 0.4358297 6.7333660
v 1.0492690 -2.5428381 1.0925320
vn -1.0000000 0.0000003 0.0000002
vt 0.4948076 6.4537539
v 1.3946609 -2.3521440 1.1436280
vn 1.0000000 0.0000000 0.0000000
vt 0.4948076 6.1850491
v 1.3946609 -2.5725651 1.1440220
vn 1.0000000 0.0000000 0.0000000
vt 0.4358297 6.4537539
v 1.0492690 -2.5725651 1.1440220
vn -1.0000000 0.0000003 0.0000001
vt 0.4358297 6.4537539
v 1.0492690 -2.3521440 1.1436280
vn -1.0000000 0.0000003 0.0000001
vt 0.4948076 6.1850491
v 1.3946609 -1.3815080 1.1861920
vn 1.0000000 0.0000000 0.0000000
vt 0.4948076 4.9849520
v 1.3946609 -2.3611951 1.2023910
vn 1.0000000 0.0000000 0.0000000
vt 0.4358297 6.1850491
v 1.0492690 -2.3611951 1.2023910
vn -1.0000000 0.0000003 0.0000000
vt 0.4358297 6.1850491
v 1.0492690 -1.3815080 1.1861920
vn -1.0000000 0.0000000 0.0000000
vt 0.4948076 4.9849520
v 1.0492690 -1.3828100 1.2456330
vn -1.0000000 0.0000000 0.0000000
vt 0.4358297 4.9849520
v 1.0492690 -0.1311363 1.1861920
vn -1.0000000 0.0000000 0.0000000
vt 0.4948076 3.4351830
v 1.2399780 -1.7741840 0.0584589
vn 0.9838487 0.0142871 0.1784311
vt 0.9164236 -5.8269029
v 1.3099951 2.8604541 0.0584600
vn 0.9838319 -0.0149382 0.1784704
vt 0.9011791 -0.1234385
v 1.2219650 -1.7621390 0.1568154
vn 0.9838213 0.0143102 0.1785805
vt 0.9956023 -5.8269029
v 1.2399780 -2.1844521 0.1604761
vn 0.9839122 0.0768714 0.1612686
vt 0.9164228 8.1287785
v 1.2219650 -1.7621390 0.1568154
vn 0.9838213 0.0143102 0.1785805
vt 0.9956024 8.6702213
v 1.2219650 -2.1417079 0.2498744
vn 0.9839156 0.0767927 0.1612853
vt 0.9956024 8.1287785
v 1.2399780 -2.5428381 0.4319505
vn 0.9838328 0.1178930 0.1348116
vt 0.9164228 7.5583091
v 1.2219650 -2.4777341 0.5066541
vn 0.9836980 0.1180613 0.1356463
vt 0.9956023 7.5583091
v 1.2399780 -2.6824350 0.5715477
vn 0.9830313 0.1281210 0.1312800
vt 0.9164228 7.2925692
v 1.2219650 -2.5966189 0.6210935
vn 0.9825693 0.1289203 0.1339296
vt 0.9956023 7.2925692
v 1.2399780 -1.3815080 1.1861920
vn 0.9838686 0.0038856 -0.1788504
vt 0.9164228 4.9849520
v 1.2219650 -2.3370609 1.0456920
vn 0.9836994 0.0078712 -0.1796486
vt 0.9956023 6.1818128
v 1.2219650 -1.3793370 1.0871240
vn 0.9838764 0.0038809 -0.1788075
vt 0.9956023 4.9849520
v 1.2219650 -1.7621390 0.1568154
vn -0.9838177 0.0291874 0.1767793
vt 0.9956016 -5.8269029
v 1.2919821 2.8475201 0.1567037
vn -0.9831557 0.0148539 0.1821652
vt 0.9903167 -0.1231325
v 1.2039520 -1.7741840 0.0584589
vn -0.9838435 0.0292249 0.1766293
vt 0.9164228 -5.8269029
v 1.2219650 -2.1417079 0.2498744
vn -0.9839159 0.0767923 0.1612843
vt 0.9956015 8.1287785
v 1.2219650 -1.7621390 0.1568154
vn -0.9838177 0.0291874 0.1767793
vt 0.9956015 8.6702213
v 1.2039520 -2.1844521 0.1604761
vn -0.9839124 0.0768709 0.1612676
vt 0.9164228 8.1287785
v 1.2219650 -2.4777341 0.5066541
vn -0.9836982 0.1180604 0.1356450
vt 0.9956016 7.5583091
v 1.2039520 -2.5428381 0.4319505
vn -0.9838331 0.1178923 0.1348107
vt 0.9164228 7.5583091
v 1.2219650 -2.5966189 0.6210935
vn -0.9825701 0.1289186 0.1339258
vt 0.9956016 7.2925692
v 1.2039520 -2.6824350 0.5715477
vn -0.9830319 0.1281196 0.1312773
vt 0.9164228 7.2925692
v 1.0492690 -1.3828100 1.2456330
vn -0.0000000 -0.0220312 0.9997573
vt 0.4358297 4.9849520
v 1.3946609 -1.3828100 1.2456330
vn 1.0000000 0.0000000 0.0000000
vt 0.4358297 4.9849520
v 1.2399780 -1.7741840 0.0584589
vn 0.9838487 0.0142871 0.1784311
vt 0.9164228 8.6702213
v 1.2039520 -1.7741840 0.0584589
vn -0.9838435 0.0292249 0.1766293
vt 0.9164228 8.6702213
v 1.2399780 -2.3521440 1.1436280
vn 0.9836881 0.0078805 -0.1797100
vt 0.9164228 6.1818128
v 1.0492690 -0.1206982 1.2455029
vn 0.0000002 0.1866844 0.9824200
vt 0.4358297 3.4351830
v 1.3946609 -0.1206981 1.2455029
vn -0.0000001 0.1866852 0.9824198
vt 0.0117268 3.4351830
v 1.3946609 -0.1206981 1.2455029
vn 1.0000000 0.0000000 0.0000000
vt 0.4358289 3.4351830
v 1.3946609 -0.1311363 1.1861920
vn 1.0000000 0.0000000 0.0000000
vt 0.4948076 3.4351830
v 1.2399780 -0.1311363 1.1861920
vn 0.9837874 -0.0297155 -0.1768600
vt 0.9164228 3.4351830
v 1.2219650 -0.1347963 1.0873400
vn 0.9831665 -0.0431311 -0.1775481
vt 0.9956023 3.4351830
v 1.0492690 -0.1311363 1.1861920
vn 0.0000000 -0.1736488 -0.9848077
vt 0.4948076 3.4351830
v 1.0492690 -0.1206982 1.2455029
vn -1.0000000 0.0000000 0.0000000
vt 0.4355267 3.4351830
v 1.0492690 -0.0371391 1.1519800
vn 0.0000000 -0.6755908 -0.7372768
vt 0.4948076 3.3219330
v 1.0492690 -0.1206982 1.2455029
vn -1.0000000 0.0000000 0.0000000
vt 0.4360755 3.4351830
v 1.0492690 -0.0371391 1.1519800
vn -1.0000000 0.0000000 0.0000000
vt 0.4948076 3.3219330
v 1.0492690 0.0071012 1.1951280
vn 0.0000006 0.6866037 0.7270319
vt 0.4358279 3.3219330
v 1.3946609 0.0071012 1.1951280
vn 0.0000002 0.6866044 0.7270312
vt 0.0117104 3.3219330
v 1.3946609 0.0071012 1.1951280
vn 1.0000000 0.0000000 0.0000000
vt 0.4393136 3.3219330
v 1.3946609 -0.1206981 1.2455029
vn 1.0000000 0.0000000 0.0000000
vt 0.4363807 3.4351830
v 1.3946609 -0.0371391 1.1519800
vn 1.0000000 0.0000000 0.0000000
vt 0.4948076 3.3219330
v 1.2399780 -0.0371391 1.1519800
vn 0.9857281 -0.1145335 -0.1233787
vt 0.9164228 3.3219330
v 1.2219650 -0.1108577 1.0766340
vn 0.9851488 -0.1174789 -0.1252226
vt 0.9954680 3.3219330
v 1.3946609 -0.0371391 1.1519800
vn 0.0000000 -0.6755908 -0.7372768
vt 0.9161532 3.3219330
v 1.0492690 0.0071012 1.1951280
vn -1.0000000 0.0000000 0.0000000
vt 0.4384179 3.3219330
v 1.0492690 0.0430765 0.9799567
vn 0.0000000 -0.9762959 -0.2164398
vt 0.4948076 3.0850091
v 1.0492690 0.0071012 1.1951280
vn -1.0000000 0.0000000 0.0000000
vt 0.4368719 3.3219330
v 1.0492690 0.0430765 0.9799567
vn -1.0000000 0.0000000 0.0000000
vt 0.4948076 3.0850091
v 1.0492690 0.1010858 0.9916252
vn 0.0000005 0.9078576 0.4192788
vt 0.4358287 3.0850091
v 1.0492690 0.0071012 1.1951280
vn 0.0000006 0.6866037 0.7270319
vt 0.4358487 3.3219330
v 1.3946609 0.1010857 0.9916251
vn 0.0000004 0.9078576 0.4192788
vt 0.0117182 3.0850091
v 1.3946609 0.1010857 0.9916251
vn 1.0000000 0.0000000 0.0000000
vt 0.4375678 3.0850091
v 1.3946609 0.0071012 1.1951280
vn 1.0000000 0.0000000 0.0000000
vt 0.4373350 3.3219330
v 1.3946609 0.0430765 0.9799567
vn 1.0000000 0.0000000 0.0000000
vt 0.4948076 3.0850091
v 1.2399780 0.0430765 0.9799567
vn 0.9845398 -0.1709704 -0.0380854
vt 0.9164228 3.0850091
v 1.2219650 -0.0555098 0.9569783
vn 0.9845049 -0.1713026 -0.0374894
vt 0.9962586 3.0850091
v 1.3946609 0.0430765 0.9799567
vn -0.0000000 -0.9762959 -0.2164398
vt 0.9161532 3.0850091
v 1.0492690 0.1010858 0.9916252
vn -1.0000000 0.0000000 0.0000000
vt 0.4370411 3.0850091
v 1.3946609 0.0071012 1.1951280
vn 0.0000002 0.6866044 0.7270312
vt 0.0117274 3.3219330
v 1.0492690 0.0430766 0.7014015
vn -0.0000000 -1.0000000 -0.0000004
vt 0.4948076 2.7499430
v 1.0492690 0.1023574 0.9935120
vn -1.0000000 0.0000000 0.0000000
vt 0.4358393 3.0850091
v 1.0492690 0.0430766 0.7014015
vn -1.0000000 0.0000000 0.0000000
vt 0.4948076 2.7499430
v 1.0492690 0.1023287 0.6976150
vn -0.0000000 1.0000000 -0.0000971
vt 0.4358297 2.7499430
v 1.0492690 0.1023574 0.9935120
vn 0.0000002 1.0000000 -0.0000969
vt 0.4358422 3.0850091
v 1.3946609 0.1023287 0.6976150
vn 0.0000002 1.0000000 -0.0000969
vt 0.0117274 2.7499571
v 1.3946609 0.1023287 0.6976150
vn 1.0000000 0.0000000 0.0000000
vt 0.4358297 2.7499430
v 1.3946609 0.1023573 0.9935119
vn 1.0000000 0.0000000 0.0000000
vt 0.4362516 3.0850091
v 1.3946609 0.0430766 0.7014014
vn 1.0000000 0.0000000 0.0000000
vt 0.4948076 2.7499421
v 1.2399780 0.0430766 0.7014014
vn 0.9837686 -0.1794417 -0.0000001
vt 0.9164228 2.7499430
v 1.2219650 -0.0556769 0.7077121
vn 0.9837559 -0.1795112 0.0000260
vt 0.9956023 2.7499430
v 1.3946609 0.0430766 0.7014014
vn -0.0000000 -1.0000000 -0.0000004
vt 0.9161532 2.7499430
v 1.0492690 0.1023287 0.6976150
vn -1.0000000 0.0000000 0.0000000
vt 0.4358297 2.7499430
v 1.3946609 0.1023573 0.9935119
vn 0.0000003 1.0000000 -0.0000967
vt 0.0117274 3.0850091
v 1.2219650 -0.0555098 0.9569783
vn 0.9845049 -0.1713026 -0.0374894
vt 0.9956061 3.0850091
v 1.3946609 0.1023287 0.6976150
vn -0.0000002 -0.0637740 -0.9979644
vt 0.0118019 0.9155591
v 1.0492690 0.0430766 0.7014015
vn -0.0000002 -0.0637740 -0.9979644
vt 0.4344012 0.8429142
v 1.0492690 0.1023287 0.6976150
vn -0.0000002 -0.0637740 -0.9979644
vt 0.4344011 0.9155591
v 1.4646780 2.8604541 0.0584601
vn 0.0000000 0.9914549 0.1304502
vt 0.4344012 0.8512274
v 1.4646780 2.8682151 -0.0005201
vn 0.0000001 0.9914548 0.1304506
vt 0.4344011 0.9238723
v 1.1192859 2.8604541 0.0584601
vn 0.0000006 0.9914544 0.1304537
vt 0.0118018 0.8512272
v 1.3946609 0.0430766 0.7014014
vn -0.0000002 -0.0637740 -0.9979644
vt 0.0118019 0.8429139
v 1.1192859 2.8682151 -0.0005201
vn 0.0000007 0.9914544 0.1304541
vt 0.0118018 0.9238721
v 1.3946609 -1.7741840 0.0584589
vn 0.0000000 0.1209753 0.9926555
vt 0.9161532 -5.8269029
v 1.0492690 -1.7814111 -0.0005210
vn 0.0000000 -0.1229756 -0.9924097
vt 0.4358297 -5.8269029
v 1.4646780 2.8682151 -0.0005201
vn 0.9998847 -0.0150569 -0.0019791
vt 0.4290827 -0.1236711
v 1.1192859 2.8682151 -0.0005201
vn -0.9998847 0.0150569 0.0019792
vt 0.4358302 -0.1236711
v 1.2919821 2.8475201 0.1567037
vn 0.9838413 -0.0149395 0.1784183
vt 0.9856216 -0.1231098
v 1.2739691 2.8604541 0.0584600
vn -0.9831467 0.0148527 0.1822145
vt 0.9160365 -0.1234620
v 1.3946609 -2.5428381 1.0925320
vn 0.0000000 0.5000003 -0.8660253
vt 0.9161532 6.1818128
v 1.0492690 -2.5428381 1.0925320
vn 0.0000000 0.5000003 -0.8660253
vt 0.4948076 6.1818128
v 1.3946609 -2.3521440 1.1436280
vn 0.0000000 0.1522170 -0.9883471
vt 0.9161532 6.4537539
v 1.0492690 -2.3521440 1.1436280
vn 0.0000000 0.1522170 -0.9883471
vt 0.4948076 6.4537539

g group_87_107202387846656
f 1/1/1 2/2/2 3/3/3 
f 4/4/4 5/5/5 6/6/6 
f 7/7/7 8/8/8 5/5/5 
f 9/9/9 10/10/10 8/8/8 
f 11/11/11 12/12/12 10/10/10 
f 13/13/13 14/14/14 12/12/12 
f 15/15/15 16/16/16 14/14/14 
f 17/17/17 18/18/18 176/176/176 
f 19/19/19 20/20/20 178/178/178 
f 21/21/21 22/22/22 20/20/20 
f 23/23/23 24/24/24 25/25/25 
f 26/26/26 27/27/27 28/28/28 
f 29/29/29 30/30/30 26/26/26 
f 31/31/31 32/32/32 29/29/29 
f 33/33/33 34/34/34 31/31/31 
f 35/35/35 36/36/36 33/33/33 
f 37/37/37 38/38/38 35/35/35 
f 39/39/39 40/40/40 37/37/37 
f 41/41/41 42/42/42 39/39/39 
f 43/43/43 44/44/44 45/45/45 
f 46/46/46 47/47/47 48/48/48 
f 49/49/49 50/50/50 51/51/51 
f 52/52/52 53/53/53 54/54/54 
f 55/55/55 56/56/56 49/49/49 
f 54/54/54 57/57/57 58/58/58 
f 59/59/59 60/60/60 55/55/55 
f 58/58/58 61/61/61 62/62/62 
f 63/63/63 64/64/64 59/59/59 
f 62/62/62 65/65/65 66/66/66 
f 67/67/67 68/68/68 63/63/63 
f 66/66/66 69/69/69 70/70/70 
f 71/71/71 72/72/72 67/67/67 
f 70/70/70 73/73/73 74/74/74 
f 75/75/75 76/76/76 71/71/71 
f 74/74/74 77/77/77 78/78/78 
f 79/79/79 80/80/80 75/75/75 
f 78/78/78 81/81/81 82/82/82 
f 82/82/82 83/83/83 84/84/84 
f 85/85/85 86/86/86 87/87/87 
f 88/88/88 89/89/89 90/90/90 
f 91/91/91 90/90/90 92/92/92 
f 93/93/93 92/92/92 94/94/94 
f 95/95/95 96/96/96 97/97/97 
f 98/98/98 99/99/99 100/100/100 
f 101/101/101 102/102/102 103/103/103 
f 104/104/104 101/101/101 105/105/105 
f 106/106/106 104/104/104 107/107/107 
f 4/4/4 7/7/7 5/5/5 
f 26/26/26 30/30/30 27/27/27 
f 7/7/7 9/9/9 8/8/8 
f 29/29/29 32/32/32 30/30/30 
f 9/9/9 11/11/11 10/10/10 
f 31/31/31 34/34/34 32/32/32 
f 11/11/11 13/13/13 12/12/12 
f 33/33/33 36/36/36 34/34/34 
f 13/13/13 15/15/15 14/14/14 
f 35/35/35 38/38/38 36/36/36 
f 15/15/15 177/177/177 16/16/16 
f 37/37/37 40/40/40 38/38/38 
f 17/17/17 179/179/179 18/18/18 
f 39/39/39 42/42/42 40/40/40 
f 19/19/19 21/21/21 20/20/20 
f 41/41/41 108/108/108 42/42/42 
f 49/49/49 56/56/56 50/50/50 
f 55/55/55 60/60/60 56/56/56 
f 59/59/59 64/64/64 60/60/60 
f 63/63/63 68/68/68 64/64/64 
f 67/67/67 72/72/72 68/68/68 
f 71/71/71 76/76/76 72/72/72 
f 75/75/75 80/80/80 76/76/76 
f 79/79/79 109/109/109 80/80/80 
f 81/81/81 83/83/83 82/82/82 
f 77/77/77 81/81/81 78/78/78 
f 73/73/73 77/77/77 74/74/74 
f 69/69/69 73/73/73 70/70/70 
f 65/65/65 69/69/69 66/66/66 
f 61/61/61 65/65/65 62/62/62 
f 57/57/57 61/61/61 58/58/58 
f 53/53/53 57/57/57 54/54/54 
f 88/88/88 110/110/110 89/89/89 
f 102/102/102 111/111/111 103/103/103 
f 91/91/91 88/88/88 90/90/90 
f 101/101/101 103/103/103 105/105/105 
f 93/93/93 91/91/91 92/92/92 
f 104/104/104 105/105/105 107/107/107 
f 95/95/95 112/112/112 96/96/96 
f 113/113/113 108/108/108 114/114/114 
f 115/115/115 109/109/109 116/116/116 
f 117/117/117 95/95/95 118/118/118 
f 108/108/108 41/41/41 114/114/114 
f 21/21/21 119/119/119 22/22/22 
f 83/83/83 120/120/120 84/84/84 
f 109/109/109 79/79/79 116/116/116 
f 95/95/95 97/97/97 118/118/118 
f 119/119/119 121/121/121 22/22/22 
f 122/122/122 123/123/123 84/84/84 
f 124/124/124 113/113/113 125/125/125 
f 126/126/126 127/127/127 128/128/128 
f 129/129/129 117/117/117 130/130/130 
f 121/121/121 131/131/131 22/22/22 
f 122/122/122 132/132/132 123/123/123 
f 113/113/113 114/114/114 125/125/125 
f 127/127/127 116/116/116 128/128/128 
f 117/117/117 118/118/118 130/130/130 
f 121/121/121 133/133/133 131/131/131 
f 134/134/134 135/135/135 123/123/123 
f 136/136/136 137/137/137 138/138/138 
f 139/139/139 140/140/140 141/141/141 
f 142/142/142 129/129/129 143/143/143 
f 133/133/133 144/144/144 131/131/131 
f 134/134/134 145/145/145 135/135/135 
f 137/137/137 146/146/146 138/138/138 
f 140/140/140 128/128/128 141/141/141 
f 129/129/129 130/130/130 143/143/143 
f 133/133/133 147/147/147 144/144/144 
f 148/148/148 149/149/149 135/135/135 
f 150/150/150 151/151/151 152/152/152 
f 153/153/153 154/154/154 155/155/155 
f 156/156/156 142/142/142 157/157/157 
f 147/147/147 158/158/158 144/144/144 
f 148/148/148 159/159/159 149/149/149 
f 151/151/151 160/160/160 152/152/152 
f 154/154/154 141/141/141 155/155/155 
f 142/142/142 161/161/161 157/157/157 
f 162/162/162 163/163/163 164/164/164 
f 165/165/165 166/166/166 167/167/167 
f 162/162/162 168/168/168 163/163/163 
f 166/166/166 169/169/169 167/167/167 
f 2/2/2 170/170/170 3/3/3 
f 23/23/23 171/171/171 24/24/24 
f 44/44/44 172/172/172 45/45/45 
f 46/46/46 173/173/173 47/47/47 
f 86/86/86 174/174/174 87/87/87 
f 99/99/99 175/175/175 100/100/100 
