v 1.3210560 0.9549330 0.1897546
vn 0.0000000 -0.8660219 -0.5000061
vt 0.1576235 0.5004497
v 1.1228729 1.0510480 0.0936392
vn 0.0000000 -0.5000002 -0.8660253
vt 0.1450419 0.5187889
v 1.3210560 1.0510480 0.0936392
vn 0.0000000 -0.5000002 -0.8660253
vt 0.1450419 0.5004497
v 1.3210560 0.9197502 0.3210508
vn 0.0000000 -1.0000000 -0.0000081
vt 0.1702040 0.5004497
v 1.1228729 0.9549330 0.1897546
vn 0.0000000 -0.8660219 -0.5000061
vt 0.1576235 0.5187889
v 1.3210560 0.9549308 0.4523473
vn 0.0000000 -0.8660250 0.5000008
vt 0.1827814 0.5004497
v 1.1228729 0.9197502 0.3210508
vn 0.0000000 -1.0000000 -0.0000081
vt 0.1702040 0.5187889
v 1.3210560 1.0510460 0.5484622
vn 0.0000000 -0.4999946 0.8660285
vt 0.1198829 0.5004497
v 1.1228729 0.9549308 0.4523473
vn 0.0000000 -0.8660250 0.5000008
vt 0.1073024 0.5187889
v 1.3210560 0.9549308 0.4523473
vn 0.0000000 -0.8660250 0.5000008
vt 0.1073024 0.5004497
v 1.3210560 1.1823440 0.5836420
vn 0.0000000 0.0000047 1.0000000
vt 0.1324614 0.5004497
v 1.1228729 1.0510460 0.5484622
vn 0.0000000 -0.4999947 0.8660285
vt 0.1198829 0.5187889
v 1.3210560 1.3136400 0.5484613
vn 0.0000000 0.4999999 0.8660254
vt 0.1450419 0.5004497
v 1.1228729 1.1823440 0.5836420
vn 0.0000000 0.0000046 1.0000000
vt 0.1324614 0.5187889
v 1.3210560 1.4097550 0.4523460
vn 0.0000000 0.8660258 0.4999994
vt 0.1576235 0.5004497
v 1.1228729 1.3136400 0.5484613
vn 0.0000000 0.4999999 0.8660254
vt 0.1450419 0.5187889
v 1.3210560 1.4449360 0.3210497
vn 0.0000000 1.0000000 -0.0000006
vt 0.1702040 0.5004497
v 1.1228729 1.4097550 0.4523460
vn 0.0000000 0.8660259 0.4999992
vt 0.1576235 0.5187889
v 1.3210560 1.4097550 0.1897541
vn 0.0000000 0.8660257 -0.4999995
vt 0.1827814 0.5004497
v 1.1228729 1.4449360 0.3210497
vn 0.0000000 1.0000000 -0.0000007
vt 0.1702040 0.5187889
v 1.3210560 1.3136400 0.0936384
vn 0.0000000 0.4999982 -0.8660265
vt 0.1198829 0.5004497
v 1.1228729 1.4097550 0.1897541
vn 0.0000000 0.8660257 -0.4999995
vt 0.1073024 0.5187889
v 1.3210560 1.4097550 0.1897541
vn 0.0000000 0.8660257 -0.4999995
vt 0.1073024 0.5004497
v 1.3210560 1.1823440 0.0584585
vn 0.0000000 -0.0000023 -1.0000000
vt 0.1324614 0.5004497
v 1.1228729 1.1823440 0.0584585
vn 0.0000000 -0.0000023 -1.0000000
vt 0.1324614 0.5187889
v 1.1228729 1.1823440 0.0584585
vn -1.0000000 0.0000000 0.0000000
vt 0.1022350 0.4587776
v 1.1228729 1.0510480 0.0936392
vn -1.0000000 0.0000000 0.0000000
vt 0.1054921 0.4709262
v 1.1228729 0.9549330 0.1897546
vn -1.0000000 0.0000000 0.0000000
vt 0.1022350 0.4830768
v 1.3210560 1.0510480 0.0936392
vn 1.0000000 0.0000000 0.0000000
vt 0.0033199 0.4766395
v 1.3210560 1.1823440 0.0584585
vn 1.0000000 0.0000000 0.0000000
vt 0.0065748 0.4644889
v 1.3210560 0.9549330 0.1897546
vn 1.0000000 0.0000000 0.0000000
vt 0.0065748 0.4887880
v 1.1228729 1.4097550 0.1897541
vn -1.0000000 0.0000000 0.0000000
vt 0.0811908 0.4466281
v 1.1228729 0.9549308 0.4523473
vn -1.0000000 0.0000000 0.0000000
vt 0.0811908 0.4952232
v 1.1228729 1.4449360 0.3210497
vn -1.0000000 0.0000002 0.0000003
vt 0.0690413 0.4498831
v 1.3210560 0.9549308 0.4523473
vn 1.0000000 0.0000000 0.0000000
vt 0.0276179 0.5009364
v 1.3210560 1.4097550 0.1897541
vn 1.0000000 0.0000000 0.0000000
vt 0.0276179 0.4523404
v 1.3210560 1.0510460 0.5484622
vn 1.0000000 -0.0000002 -0.0000003
vt 0.0397685 0.4976826
v 1.1228729 1.0510460 0.5484622
vn -1.0000000 0.0000002 0.0000003
vt 0.0690413 0.4919692
v 1.1228729 1.4097550 0.4523460
vn -1.0000000 0.0000006 0.0000010
vt 0.0601478 0.4587776
v 1.3210560 1.4449360 0.3210497
vn 1.0000000 -0.0000002 -0.0000003
vt 0.0397685 0.4555964
v 1.3210560 1.1823440 0.5836420
vn 1.0000000 -0.0000006 -0.0000010
vt 0.0486599 0.4887880
v 1.1228729 1.3136400 0.0936384
vn 0.0000000 0.4999981 -0.8660265
vt 0.1198829 0.5187889
v 1.3210560 0.9197502 0.3210508
vn 1.0000000 0.0000000 0.0000000
vt 0.0154705 0.4976826
v 1.3210560 1.3136400 0.0936384
vn 1.0000000 0.0000000 0.0000000
vt 0.0154705 0.4555964
v 1.1228729 1.3136400 0.0936384
vn -1.0000000 0.0000000 0.0000000
vt 0.0933457 0.4498831
v 1.1228729 0.9197502 0.3210508
vn -1.0000000 0.0000000 0.0000000
vt 0.0933457 0.4919692
v 1.3210560 1.4097550 0.4523460
vn 1.0000000 -0.0000006 -0.0000010
vt 0.0486599 0.4644889
v 1.3210560 1.3136400 0.5484613
vn 1.0000000 0.0000000 0.0000000
vt 0.0519149 0.4766395
v 1.1228729 1.1823440 0.5836420
vn -1.0000000 0.0000006 0.0000010
vt 0.0601478 0.4830768
v 1.1228729 1.3136400 0.5484613
vn -1.0000000 0.0000000 0.0000000
vt 0.0568970 0.4709262
v 1.1228729 0.9549308 0.4523473
vn 0.0000000 -0.8660250 0.5000008
vt 0.1827814 0.5187889
v 1.1228729 1.4097550 0.1897541
vn 0.0000000 0.8660257 -0.4999995
vt 0.1827814 0.5187889

g group_131_107202387875840
f 1/1/1 2/2/2 3/3/3 
f 4/4/4 5/5/5 1/1/1 
f 6/6/6 7/7/7 4/4/4 
f 8/8/8 9/9/9 10/10/10 
f 11/11/11 12/12/12 8/8/8 
f 13/13/13 14/14/14 11/11/11 
f 15/15/15 16/16/16 13/13/13 
f 17/17/17 18/18/18 15/15/15 
f 19/19/19 20/20/20 17/17/17 
f 21/21/21 22/22/22 23/23/23 
f 24/24/24 25/25/25 21/21/21 
f 3/3/3 25/25/25 24/24/24 
f 26/26/26 27/27/27 28/28/28 
f 29/29/29 30/30/30 31/31/31 
f 32/32/32 33/33/33 34/34/34 
f 35/35/35 36/36/36 37/37/37 
f 34/34/34 38/38/38 39/39/39 
f 37/37/37 40/40/40 41/41/41 
f 21/21/21 25/25/25 42/42/42 
f 43/43/43 44/44/44 35/35/35 
f 45/45/45 46/46/46 32/32/32 
f 41/41/41 47/47/47 48/48/48 
f 39/39/39 49/49/49 50/50/50 
f 26/26/26 28/28/28 45/45/45 
f 31/31/31 30/30/30 43/43/43 
f 2/2/2 1/1/1 5/5/5 
f 5/5/5 4/4/4 7/7/7 
f 7/7/7 6/6/6 51/51/51 
f 9/9/9 8/8/8 12/12/12 
f 12/12/12 11/11/11 14/14/14 
f 14/14/14 13/13/13 16/16/16 
f 16/16/16 15/15/15 18/18/18 
f 18/18/18 17/17/17 20/20/20 
f 20/20/20 19/19/19 52/52/52 
f 22/22/22 21/21/21 42/42/42 
f 25/25/25 3/3/3 2/2/2 
f 34/34/34 33/33/33 38/38/38 
f 37/37/37 36/36/36 40/40/40 
f 39/39/39 38/38/38 49/49/49 
f 41/41/41 40/40/40 47/47/47 
f 35/35/35 44/44/44 36/36/36 
f 32/32/32 46/46/46 33/33/33 
f 45/45/45 28/28/28 46/46/46 
f 43/43/43 30/30/30 44/44/44 
