v 1.3210560 -0.4602760 0.0936405
vn 0.0000000 0.5000092 -0.8660201
vt 0.1576235 0.5004497
v 1.1228729 -0.3641605 0.1897558
vn 0.0000000 0.8660253 -0.5000002
vt 0.1450419 0.5187889
v 1.3210560 -0.3641605 0.1897558
vn 0.0000000 0.8660253 -0.5000003
vt 0.1450419 0.5004497
v 1.3210560 -0.5915732 0.0584565
vn 0.0000000 0.0000058 -1.0000000
vt 0.1702040 0.5004497
v 1.1228729 -0.4602760 0.0936405
vn 0.0000000 0.5000092 -0.8660201
vt 0.1576235 0.5187889
v 1.3210560 -0.7228692 0.0936386
vn 0.0000000 -0.5000064 -0.8660218
vt 0.1827814 0.5004497
v 1.1228729 -0.5915732 0.0584565
vn 0.0000000 0.0000059 -1.0000000
vt 0.1702040 0.5187889
v 1.3210560 -0.8189837 0.1897539
vn 0.0000000 -0.8660290 -0.4999937
vt 0.1198829 0.5004497
v 1.1228729 -0.7228692 0.0936386
vn 0.0000000 -0.5000064 -0.8660218
vt 0.1073024 0.5187889
v 1.3210560 -0.7228692 0.0936386
vn 0.0000000 -0.5000064 -0.8660218
vt 0.1073024 0.5004497
v 1.3210560 -0.8541634 0.3210517
vn 0.0000000 -1.0000000 0.0000053
vt 0.1324614 0.5004497
v 1.1228729 -0.8189837 0.1897539
vn 0.0000000 -0.8660290 -0.4999937
vt 0.1198829 0.5187889
v 1.3210560 -0.8189827 0.4523477
vn 0.0000000 -0.8660252 0.5000004
vt 0.1450419 0.5004497
v 1.1228729 -0.8541634 0.3210517
vn 0.0000000 -1.0000000 0.0000052
vt 0.1324614 0.5187889
v 1.3210560 -0.7228673 0.5484630
vn 0.0000000 -0.4999995 0.8660257
vt 0.1576235 0.5004497
v 1.1228729 -0.8189827 0.4523477
vn 0.0000000 -0.8660252 0.5000004
vt 0.1450419 0.5187889
v 1.3210560 -0.5915713 0.5836436
vn -0.0000000 -0.0000008 1.0000000
vt 0.1702040 0.5004497
v 1.1228729 -0.7228673 0.5484630
vn 0.0000000 -0.4999995 0.8660257
vt 0.1576235 0.5187889
v 1.3210560 -0.4602758 0.5484633
vn -0.0000002 0.4999990 0.8660260
vt 0.1827814 0.5004497
v 1.1228729 -0.5915714 0.5836436
vn 0.0000000 -0.0000009 1.0000000
vt 0.1702040 0.5187889
v 1.3210560 -0.3641599 0.4523475
vn -0.0000001 0.8660263 0.4999985
vt 0.1198829 0.5004497
v 1.1228729 -0.4602759 0.5484633
vn -0.0000001 0.4999989 0.8660260
vt 0.1073024 0.5187889
v 1.3210560 -0.4602758 0.5484633
vn -0.0000002 0.4999990 0.8660260
vt 0.1073024 0.5004497
v 1.3210560 -0.3289799 0.3210519
vn 0.0000000 1.0000000 -0.0000016
vt 0.1324614 0.5004497
v 1.1228729 -0.3641599 0.4523475
vn 0.0000000 0.8660263 0.4999986
vt 0.1198829 0.5187889
v 1.1228729 -0.3289799 0.3210519
vn 0.0000000 1.0000000 -0.0000016
vt 0.1324614 0.5187889
v 1.1228729 -0.3289799 0.3210519
vn -1.0000000 0.0000000 0.0000000
vt 0.1022350 0.4587776
v 1.1228729 -0.3641605 0.1897558
vn -1.0000000 0.0000000 0.0000000
vt 0.1054921 0.4709262
v 1.1228729 -0.4602760 0.0936405
vn -1.0000000 0.0000000 0.0000000
vt 0.1022350 0.4830768
v 1.3210560 -0.3641605 0.1897558
vn 1.0000000 0.0000000 0.0000000
vt 0.0033199 0.4766395
v 1.3210560 -0.3289799 0.3210519
vn 1.0000000 0.0000000 0.0000000
vt 0.0065748 0.4644889
v 1.3210560 -0.4602760 0.0936405
vn 1.0000000 0.0000000 0.0000000
vt 0.0065748 0.4887880
v 1.1228729 -0.4602759 0.5484633
vn -1.0000000 0.0000000 0.0000000
vt 0.0811908 0.4466281
v 1.1228729 -0.7228692 0.0936386
vn -1.0000000 0.0000000 0.0000000
vt 0.0811908 0.4952232
v 1.1228729 -0.5915714 0.5836436
vn -1.0000000 0.0000000 0.0000000
vt 0.0690413 0.4498831
v 1.3210560 -0.7228692 0.0936386
vn 1.0000000 0.0000000 0.0000000
vt 0.0276179 0.5009364
v 1.3210560 -0.4602758 0.5484633
vn 1.0000000 0.0000000 0.0000000
vt 0.0276179 0.4523404
v 1.3210560 -0.8189837 0.1897539
vn 1.0000000 0.0000000 0.0000000
vt 0.0397685 0.4976826
v 1.1228729 -0.3641599 0.4523475
vn -1.0000000 0.0000000 0.0000000
vt 0.0933457 0.4498831
v 1.1228729 -0.5915732 0.0584565
vn -1.0000000 0.0000000 0.0000000
vt 0.0933457 0.4919692
v 1.3210560 -0.5915732 0.0584565
vn 1.0000000 0.0000000 0.0000000
vt 0.0154705 0.4976826
v 1.3210560 -0.3641599 0.4523475
vn 1.0000000 0.0000000 0.0000000
vt 0.0154705 0.4555964
v 1.1228729 -0.8189837 0.1897539
vn -1.0000000 0.0000000 0.0000000
vt 0.0690413 0.4919692
v 1.1228729 -0.7228673 0.5484630
vn -1.0000000 0.0000000 0.0000000
vt 0.0601478 0.4587776
v 1.3210560 -0.5915713 0.5836436
vn 1.0000000 0.0000000 0.0000000
vt 0.0397685 0.4555964
v 1.3210560 -0.8541634 0.3210517
vn 1.0000000 0.0000000 0.0000000
vt 0.0486599 0.4887880
v 1.1228729 -0.8541634 0.3210517
vn -1.0000000 0.0000000 0.0000000
vt 0.0601478 0.4830768
v 1.1228729 -0.8189827 0.4523477
vn -1.0000000 0.0000000 0.0000000
vt 0.0568970 0.4709262
v 1.3210560 -0.7228673 0.5484630
vn 1.0000000 0.0000000 0.0000000
vt 0.0486599 0.4644889
v 1.3210560 -0.8189827 0.4523477
vn 1.0000000 0.0000000 0.0000000
vt 0.0519149 0.4766395
v 1.1228729 -0.7228692 0.0936386
vn 0.0000000 -0.5000064 -0.8660218
vt 0.1827814 0.5187889
v 1.1228729 -0.4602759 0.5484633
vn -0.0000001 0.4999989 0.8660260
vt 0.1827814 0.5187889

g group_129_107202387875328
f 1/1/1 2/2/2 3/3/3 
f 4/4/4 5/5/5 1/1/1 
f 6/6/6 7/7/7 4/4/4 
f 8/8/8 9/9/9 10/10/10 
f 11/11/11 12/12/12 8/8/8 
f 13/13/13 14/14/14 11/11/11 
f 15/15/15 16/16/16 13/13/13 
f 17/17/17 18/18/18 15/15/15 
f 19/19/19 20/20/20 17/17/17 
f 21/21/21 22/22/22 23/23/23 
f 24/24/24 25/25/25 21/21/21 
f 3/3/3 26/26/26 24/24/24 
f 27/27/27 28/28/28 29/29/29 
f 30/30/30 31/31/31 32/32/32 
f 33/33/33 34/34/34 35/35/35 
f 36/36/36 37/37/37 38/38/38 
f 39/39/39 40/40/40 33/33/33 
f 41/41/41 42/42/42 36/36/36 
f 27/27/27 29/29/29 39/39/39 
f 32/32/32 31/31/31 41/41/41 
f 35/35/35 43/43/43 44/44/44 
f 38/38/38 45/45/45 46/46/46 
f 44/44/44 47/47/47 48/48/48 
f 46/46/46 49/49/49 50/50/50 
f 2/2/2 1/1/1 5/5/5 
f 5/5/5 4/4/4 7/7/7 
f 7/7/7 6/6/6 51/51/51 
f 9/9/9 8/8/8 12/12/12 
f 12/12/12 11/11/11 14/14/14 
f 14/14/14 13/13/13 16/16/16 
f 16/16/16 15/15/15 18/18/18 
f 18/18/18 17/17/17 20/20/20 
f 20/20/20 19/19/19 52/52/52 
f 22/22/22 21/21/21 25/25/25 
f 25/25/25 24/24/24 26/26/26 
f 26/26/26 3/3/3 2/2/2 
f 35/35/35 34/34/34 43/43/43 
f 38/38/38 37/37/37 45/45/45 
f 33/33/33 40/40/40 34/34/34 
f 36/36/36 42/42/42 37/37/37 
f 39/39/39 29/29/29 40/40/40 
f 41/41/41 31/31/31 42/42/42 
f 44/44/44 43/43/43 47/47/47 
f 46/46/46 45/45/45 49/49/49 
