v 1.3236990 1.0304170 1.1494020
vn 0.0000000 -0.7071038 0.7071098
vt 0.1372664 0.4742770
v 1.1255150 0.9936249 1.0605830
vn 0.0000000 -1.0000000 -0.0000009
vt 0.1285994 0.4921421
v 1.3236990 0.9936249 1.0605830
vn 0.0000000 -1.0000000 -0.0000008
vt 0.1285994 0.4742770
v 1.3236990 1.1192360 1.1861930
vn 0.0000000 0.0000044 1.0000000
vt 0.1459344 0.4742770
v 1.1255150 1.0304170 1.1494020
vn 0.0000000 -0.7071038 0.7071098
vt 0.1372664 0.4921421
v 1.3236990 1.2080520 1.1494020
vn 0.0000000 0.7071066 0.7071069
vt 0.1199303 0.4742770
v 1.1255150 1.1192360 1.1861930
vn 0.0000000 0.0000044 1.0000000
vt 0.1112633 0.4921421
v 1.3236990 1.1192360 1.1861930
vn 0.0000000 0.0000044 1.0000000
vt 0.1112633 0.4742770
v 1.3236990 1.2448440 1.0605830
vn 0.0000000 1.0000000 -0.0000018
vt 0.1285994 0.4742770
v 1.1255150 1.2080520 1.1494020
vn 0.0000000 0.7071067 0.7071069
vt 0.1199303 0.4921421
v 1.3236990 1.2080520 0.9717640
vn 0.0000000 0.7071034 -0.7071103
vt 0.1372664 0.4742770
v 1.1255150 1.2448440 1.0605830
vn 0.0000000 1.0000000 -0.0000018
vt 0.1285994 0.4921421
v 1.3236990 1.1192360 0.9349737
vn 0.0000000 0.0000043 -1.0000000
vt 0.1459344 0.4742770
v 1.1255150 1.2080520 0.9717640
vn 0.0000000 0.7071034 -0.7071103
vt 0.1372664 0.4921421
v 1.3236990 1.0304170 0.9717640
vn 0.0000000 -0.7071012 -0.7071124
vt 0.1199303 0.4742770
v 1.1255150 1.1192360 0.9349737
vn 0.0000000 0.0000043 -1.0000000
vt 0.1112633 0.4921421
v 1.3236990 1.1192360 0.9349737
vn 0.0000000 0.0000043 -1.0000000
vt 0.1112633 0.4742770
v 1.1255150 1.0304170 0.9717640
vn 0.0000000 -0.7071012 -0.7071124
vt 0.1199303 0.4921421
v 1.3236990 0.9936249 1.0605830
vn 1.0000000 0.0000000 0.0000000
vt 0.1305678 0.4566838
v 1.3236990 1.0304170 0.9717640
vn 1.0000000 0.0000000 0.0000000
vt 0.1338871 0.4486765
v 1.3236990 1.0304170 1.1494020
vn 1.0000000 0.0000000 0.0000000
vt 0.1338871 0.4646891
v 1.3236990 1.1192360 1.1861930
vn 1.0000000 0.0000000 0.0000000
vt 0.1418933 0.4680073
v 1.3236990 1.1192360 0.9349737
vn 1.0000000 0.0000000 0.0000000
vt 0.1418933 0.4453562
v 1.3236990 1.2080520 1.1494020
vn 1.0000000 0.0000000 0.0000000
vt 0.1498985 0.4646891
v 1.3236990 1.2080520 0.9717640
vn 1.0000000 0.0000000 0.0000000
vt 0.1498985 0.4486765
v 1.3236990 1.2448440 1.0605830
vn 1.0000000 0.0000000 0.0000000
vt 0.1532178 0.4566838
v 1.1255150 1.1192360 1.1861930
vn 0.0000000 0.0000044 1.0000000
vt 0.1459344 0.4921421
v 1.1255150 1.1192360 0.9349737
vn 0.0000000 0.0000043 -1.0000000
vt 0.1459344 0.4921421

g group_132_107202387876096
f 1/1/1 2/2/2 3/3/3 
f 4/4/4 5/5/5 1/1/1 
f 6/6/6 7/7/7 8/8/8 
f 9/9/9 10/10/10 6/6/6 
f 11/11/11 12/12/12 9/9/9 
f 13/13/13 14/14/14 11/11/11 
f 15/15/15 16/16/16 17/17/17 
f 3/3/3 18/18/18 15/15/15 
f 19/19/19 20/20/20 21/21/21 
f 22/22/22 23/23/23 24/24/24 
f 24/24/24 25/25/25 26/26/26 
f 21/21/21 20/20/20 22/22/22 
f 2/2/2 1/1/1 5/5/5 
f 5/5/5 4/4/4 27/27/27 
f 7/7/7 6/6/6 10/10/10 
f 10/10/10 9/9/9 12/12/12 
f 12/12/12 11/11/11 14/14/14 
f 14/14/14 13/13/13 28/28/28 
f 16/16/16 15/15/15 18/18/18 
f 18/18/18 3/3/3 2/2/2 
f 24/24/24 23/23/23 25/25/25 
f 22/22/22 20/20/20 23/23/23 
