v 1.1211830 -1.6490650 0.2035426
vn -1.0000000 0.0000000 0.0000000
vt 0.7204370 0.4680470
v 1.1211830 -1.9602050 0.0746636
vn -1.0000000 0.0000000 0.0000000
vt 0.6978240 0.4452510
v 1.1211830 -1.6490650 0.8258191
vn -1.0000000 0.0000000 0.0000000
vt 0.7754440 0.4452510
v 1.1211830 -1.9602050 0.9547052
vn -1.0000000 0.0000000 0.0000000
vt 0.7754440 0.4131010
v 1.1565551 -1.9602050 0.9547052
vn 1.0000000 0.0000000 0.0000000
vt 0.8376090 0.4710510
v 1.1565551 -2.2713449 0.8258191
vn 1.0000000 0.0000000 0.0000000
vt 0.8037440 0.4710510
v 1.1565551 -1.9602050 0.0746637
vn 1.0000000 0.0000000 0.0000000
vt 0.8037440 0.3904700
v 1.1565551 -2.2713449 0.8258191
vn 1.0000000 0.0000000 0.0000000
vt 0.8037440 0.4710510
v 1.1565551 -2.2713449 0.2035426
vn 1.0000000 0.0000000 0.0000000
vt 0.7804320 0.4138960
v 1.1565551 -1.9602050 0.0746637
vn 1.0000000 0.0000000 0.0000000
vt 0.8037440 0.3904700
v 1.1211830 -1.9602050 0.9547052
vn -1.0000000 0.0000000 0.0000000
vt 0.7754440 0.4131010
v 1.1211830 -1.9602050 0.0746636
vn -1.0000000 0.0000000 0.0000000
vt 0.6978240 0.4452510
v 1.1211830 -2.2713449 0.8258191
vn -1.0000000 0.0000000 0.0000000
vt 0.7525880 0.3904270
v 1.1211830 -1.9602050 0.0746636
vn -1.0000000 0.0000000 0.0000000
vt 0.6978240 0.4452510
v 1.1211830 -2.2713449 0.2035426
vn -1.0000000 0.0000000 0.0000000
vt 0.6978240 0.4131010
v 1.1211830 -2.2713449 0.8258191
vn -1.0000000 0.0000000 0.0000000
vt 0.7525880 0.3904270
v 1.1565551 -1.9602050 0.9547052
vn 1.0000000 0.0000000 0.0000000
vt 0.8376090 0.4710510
v 1.1565551 -1.9602050 0.0746637
vn 1.0000000 0.0000000 0.0000000
vt 0.8037440 0.3904700
v 1.1565551 -1.6490650 0.8258191
vn 1.0000000 0.0000000 0.0000000
vt 0.8612740 0.4472720
v 1.1565551 -1.9602050 0.0746637
vn 1.0000000 0.0000000 0.0000000
vt 0.8037440 0.3904700
v 1.1565551 -1.6490650 0.2035426
vn 1.0000000 0.0000000 0.0000000
vt 0.8376090 0.3904700
v 1.1565551 -1.6490650 0.8258191
vn 1.0000000 0.0000000 0.0000000
vt 0.8612740 0.4472720
v 1.1211830 -1.5201859 0.5146828
vn -1.0000000 0.0000000 0.0000000
vt 0.7525880 0.4680470
v 1.1211830 -2.2713449 0.2035426
vn -1.0000000 0.0000000 0.0000000
vt 0.6978240 0.4131010
v 1.1211830 -2.4002230 0.5146828
vn -1.0000000 0.0000000 0.0000000
vt 0.7204370 0.3904270
v 1.1211830 -2.2713449 0.8258191
vn -1.0000000 0.0000000 0.0000000
vt 0.7525880 0.3904270
v 1.1565551 -2.2713449 0.8258191
vn 1.0000000 0.0000000 0.0000000
vt 0.8037440 0.4710510
v 1.1565551 -2.4002240 0.5146828
vn 1.0000000 0.0000000 0.0000000
vt 0.7804320 0.4472720
v 1.1565551 -2.2713449 0.2035426
vn 1.0000000 0.0000000 0.0000000
vt 0.7804320 0.4138960
v 1.1565551 -1.6490650 0.2035426
vn 1.0000000 0.0000000 0.0000000
vt 0.8376090 0.3904700
v 1.1565551 -1.5201859 0.5146828
vn 1.0000000 0.0000000 0.0000000
vt 0.8612740 0.4138960
v 1.1565551 -1.6490650 0.8258191
vn 1.0000000 0.0000000 0.0000000
vt 0.8612740 0.4472720
v 1.5855660 -1.9602050 0.9546790
vn 0.0000000 0.0000000 1.0000000
vt 0.9452480 0.3888010
v 1.5855660 -1.7402050 0.8957378
vn 0.0000000 0.4999999 0.8660254
vt 0.9211560 0.3888010
v 1.4929490 -1.7402050 0.8957376
vn 0.0000000 0.5000002 0.8660253
vt 0.9219441 0.3983689
v 1.4929490 -1.7402050 0.8957376
vn 0.0000000 0.5000002 0.8660253
vt 0.9219441 0.3983689
v 1.4929500 -1.9602050 0.9546791
vn 0.0000000 0.0000000 1.0000000
vt 0.9452485 0.3986630
v 1.5855660 -1.9602050 0.9546790
vn 0.0000000 0.0000000 1.0000000
vt 0.9452480 0.3888010
v 1.4929500 -1.5202050 0.5146829
vn 0.0000000 1.0000000 0.0000000
vt 0.8725935 0.3986635
v 1.4929490 -1.5791540 0.7346790
vn 0.0000000 0.8660254 0.5000001
vt 0.8959439 0.3888000
v 1.5855660 -1.5791540 0.7346791
vn 0.0000000 0.8660253 0.5000002
vt 0.8967780 0.3888000
v 1.5855660 -1.5791540 0.7346791
vn 0.0000000 0.8660253 0.5000002
vt 0.8967780 0.3888000
v 1.5855660 -1.5202050 0.5146828
vn 0.0000000 1.0000000 0.0000000
vt 0.8725940 0.3888010
v 1.4929500 -1.5202050 0.5146829
vn 0.0000000 1.0000000 0.0000000
vt 0.8725935 0.3986635
v 1.4929500 -2.1802051 0.1336307
vn 0.0000000 -0.4999986 -0.8660262
vt 0.9219441 0.3983689
v 1.4929500 -1.9602050 0.0746821
vn 0.0000000 0.0000000 -1.0000000
vt 0.9452485 0.3986630
v 1.5855660 -1.9602050 0.0746821
vn 0.0000000 0.0000000 -1.0000000
vt 0.9452480 0.3888010
v 1.5855660 -1.9602050 0.0746821
vn 0.0000000 0.0000000 -1.0000000
vt 0.9452480 0.3888010
v 1.5855660 -2.1802051 0.1336307
vn 0.0000000 -0.4999989 -0.8660261
vt 0.9211560 0.3888010
v 1.4929500 -2.1802051 0.1336307
vn 0.0000000 -0.4999986 -0.8660262
vt 0.9219441 0.3983689
v 1.4929500 -2.4002061 0.5146829
vn 0.0000000 -1.0000000 0.0000000
vt 0.8725935 0.3986635
v 1.4929500 -2.3412409 0.2946807
vn 0.0000000 -0.8660246 -0.5000016
vt 0.8959439 0.3888000
v 1.5855660 -2.3412409 0.2946807
vn 0.0000000 -0.8660246 -0.5000015
vt 0.8967780 0.3888000
v 1.5855660 -2.3412409 0.2946807
vn 0.0000000 -0.8660246 -0.5000015
vt 0.8967780 0.3888000
v 1.5855660 -2.4002049 0.5146829
vn 0.0000000 -1.0000000 0.0000000
vt 0.8725940 0.3888010
v 1.4929500 -2.4002061 0.5146829
vn 0.0000000 -1.0000000 0.0000000
vt 0.8725935 0.3986635
v 1.4929500 -2.1802051 0.1336307
vn -1.0000000 0.0000000 0.0000000
vt 0.5276951 0.4118337
v 1.4929500 -2.3412409 0.2946807
vn -1.0000000 0.0000000 0.0000000
vt 0.5079317 0.4157831
v 1.4929500 -2.4002061 0.5146829
vn -1.0000000 0.0000000 0.0000000
vt 0.4927908 0.4290852
v 1.4929500 -1.9602050 0.0746821
vn -1.0000000 0.0000000 0.0000000
vt 0.5467853 0.4182949
v 1.4929500 -2.1802051 0.1336307
vn -1.0000000 0.0000000 0.0000000
vt 0.5276951 0.4118337
v 1.4929500 -2.4002061 0.5146829
vn -1.0000000 0.0000000 0.0000000
vt 0.4927908 0.4290852
v 1.4929500 -2.3412409 0.7346792
vn -1.0000000 0.0000000 0.0000000
vt 0.4863295 0.4481756
v 1.4929500 -1.9602050 0.0746821
vn -1.0000000 0.0000000 0.0000000
vt 0.5467853 0.4182949
v 1.4929500 -2.3412409 0.7346792
vn -1.0000000 0.0000000 0.0000000
vt 0.4863295 0.4481756
v 1.4929500 -2.1802051 0.8957378
vn -1.0000000 0.0000000 0.0000000
vt 0.4902790 0.4679390
v 1.4929500 -1.9602050 0.9546791
vn -1.0000000 0.0000000 0.0000000
vt 0.5035812 0.4830799
v 1.4929490 -1.5791540 0.7346790
vn -1.0000000 0.0000000 0.0000000
vt 0.5424350 0.4855916
v 1.4929500 -1.5202050 0.5146829
vn -1.0000000 0.0000000 0.0000000
vt 0.5575758 0.4722894
v 1.4929500 -1.5791540 0.2946810
vn -1.0000000 0.0000000 0.0000000
vt 0.5640370 0.4531991
v 1.4929490 -1.7402050 0.8957376
vn -1.0000000 0.0000000 0.0000000
vt 0.5226716 0.4895413
v 1.4929490 -1.5791540 0.7346790
vn -1.0000000 0.0000000 0.0000000
vt 0.5424350 0.4855916
v 1.4929500 -1.5791540 0.2946810
vn -1.0000000 0.0000000 0.0000000
vt 0.5640370 0.4531991
v 1.4929500 -1.9602050 0.9546791
vn -1.0000000 0.0000000 0.0000000
vt 0.5035812 0.4830799
v 1.4929490 -1.7402050 0.8957376
vn -1.0000000 0.0000000 0.0000000
vt 0.5226716 0.4895413
v 1.4929500 -1.5791540 0.2946810
vn -1.0000000 0.0000000 0.0000000
vt 0.5640370 0.4531991
v 1.4929500 -1.9602050 0.9546791
vn -1.0000000 0.0000000 0.0000000
vt 0.5035812 0.4830799
v 1.4929500 -1.5791540 0.2946810
vn -1.0000000 0.0000000 0.0000000
vt 0.5640370 0.4531991
v 1.4929500 -1.7402050 0.1336309
vn -1.0000000 0.0000000 0.0000000
vt 0.5600874 0.4334356
v 1.5855660 -2.4002049 0.5146829
vn 0.9835884 0.1804270 0.0000000
vt 0.9392730 0.8108620
v 1.5048540 -1.9602050 0.5146828
vn 1.0000000 0.0000000 0.0000000
vt 0.8949280 0.8395880
v 1.5855660 -2.3412409 0.7346792
vn 0.9835883 0.1562544 -0.0902137
vt 0.9476960 0.8368830
v 1.5855660 -2.3412409 0.7346792
vn 0.9835883 0.1562544 -0.0902137
vt 0.9476960 0.8368830
v 1.5855660 -2.1802051 0.8957379
vn 0.9835883 0.0902135 -0.1562545
vt 0.9419800 0.8636290
v 1.5855660 -2.1802051 0.8957379
vn 0.9835883 0.0902135 -0.1562545
vt 0.9419800 0.8636290
v 1.5855660 -1.9602050 0.9546790
vn 0.9835884 0.0000000 -0.1804271
vt 0.9236560 0.8839330
v 1.5855660 -1.9602050 0.9546790
vn 0.9835884 0.0000000 -0.1804271
vt 0.9236560 0.8839330
v 1.5048540 -1.9602050 0.5146828
vn 1.0000000 0.0000000 0.0000000
vt 0.8949280 0.8395880
v 1.5855660 -1.7402050 0.8957378
vn 0.9835885 -0.0902131 -0.1562542
vt 0.8976350 0.8923550
v 1.5855660 -1.7402050 0.8957378
vn 0.9835885 -0.0902131 -0.1562542
vt 0.8976350 0.8923550
v 1.5048540 -1.9602050 0.5146828
vn 1.0000000 0.0000000 0.0000000
vt 0.8949280 0.8395880
v 1.5855660 -1.5791540 0.7346791
vn 0.9835885 -0.1562541 -0.0902133
vt 0.8708890 0.8866390
v 1.5855660 -1.5791540 0.7346791
vn 0.9835885 -0.1562541 -0.0902133
vt 0.8708890 0.8866390
v 1.5855660 -1.5202050 0.5146828
vn 0.9835885 -0.1804267 0.0000000
vt 0.8505840 0.8683150
v 1.5855660 -1.5202050 0.5146828
vn 0.9835885 -0.1804267 0.0000000
vt 0.8505840 0.8683150
v 1.5048540 -1.9602050 0.5146828
vn 1.0000000 0.0000000 0.0000000
vt 0.8949280 0.8395880
v 1.5855660 -1.5791540 0.2946809
vn 0.9835885 -0.1562541 0.0902133
vt 0.8421620 0.8422950
v 1.5855660 -1.5791540 0.2946809
vn 0.9835885 -0.1562541 0.0902133
vt 0.8421620 0.8422950
v 1.5855660 -1.7402050 0.1336308
vn 0.9835884 -0.0902131 0.1562543
vt 0.8478780 0.8155480
v 1.5855660 -1.7402050 0.1336308
vn 0.9835884 -0.0902131 0.1562543
vt 0.8478780 0.8155480
v 1.5048540 -1.9602050 0.5146828
vn 1.0000000 0.0000000 0.0000000
vt 0.8949280 0.8395880
v 1.5855660 -1.9602050 0.0746821
vn 0.9835883 0.0000000 0.1804272
vt 0.8662020 0.7952450
v 1.5855660 -1.9602050 0.0746821
vn 0.9835883 0.0000000 0.1804272
vt 0.8662020 0.7952450
v 1.5048540 -1.9602050 0.5146828
vn 1.0000000 0.0000000 0.0000000
vt 0.8949280 0.8395880
v 1.5855660 -2.1802051 0.1336307
vn 0.9835883 0.0902134 0.1562547
vt 0.8922220 0.7868210
v 1.5855660 -2.1802051 0.1336307
vn 0.9835883 0.0902134 0.1562547
vt 0.8922220 0.7868210
v 1.5855660 -2.3412409 0.2946807
vn 0.9835883 0.1562543 0.0902137
vt 0.9189680 0.7925390
v 1.5855660 -2.3412409 0.2946807
vn 0.9835883 0.1562543 0.0902137
vt 0.9189680 0.7925390
v 1.5855660 -2.4002049 0.5146829
vn 0.9835884 0.1804270 0.0000000
vt 0.9392730 0.8108620
v 1.5393651 -1.8130450 0.4299073
vn 1.0000000 0.0000000 0.0000000
vt 0.0145586 0.4106303
v 1.5393651 -1.8131690 0.5996677
vn 1.0000000 0.0000000 0.0000000
vt 0.0145712 0.3924961
v 1.5393660 -1.9599980 0.3449265
vn 1.0000000 0.0000000 0.0000000
vt 0.0302572 0.4197086
v 1.5393660 -2.1070721 0.4296983
vn 1.0000000 0.0000000 0.0000000
vt 0.0459681 0.4106528
v 1.5393660 -2.1071961 0.5994548
vn 1.0000000 0.0000000 0.0000000
vt 0.0459807 0.3925186
v 1.5393660 -1.9602430 0.6844432
vn 1.0000000 0.0000000 0.0000000
vt 0.0302821 0.3834403
v 1.5855660 -1.5202050 0.5146828
vn 0.0000000 1.0000000 0.0000000
vt 0.8725940 0.3888010
v 1.5855660 -1.5791540 0.2946809
vn 0.0000000 0.8660253 -0.5000001
vt 0.8967780 0.3888000
v 1.4929500 -1.5791540 0.2946810
vn 0.0000000 0.8660254 -0.4999999
vt 0.9005264 0.3888012
v 1.4929500 -1.5791540 0.2946810
vn 0.0000000 0.8660254 -0.4999999
vt 0.9005264 0.3888012
v 1.4929500 -1.5202050 0.5146829
vn 0.0000000 1.0000000 0.0000000
vt 0.8810336 0.3983689
v 1.5855660 -1.5202050 0.5146828
vn 0.0000000 1.0000000 0.0000000
vt 0.8725940 0.3888010
v 1.5855660 -1.5791540 0.2946809
vn 0.0000000 0.8660253 -0.5000001
vt 0.8967780 0.3888000
v 1.5855660 -1.7402050 0.1336308
vn 0.0000000 0.4999999 -0.8660254
vt 0.9211560 0.3888010
v 1.4929500 -1.7402050 0.1336309
vn 0.0000000 0.4999997 -0.8660256
vt 0.9173862 0.3983689
v 1.4929500 -1.7402050 0.1336309
vn 0.0000000 0.4999997 -0.8660256
vt 0.9173862 0.3983689
v 1.4929500 -1.5791540 0.2946810
vn 0.0000000 0.8660254 -0.4999999
vt 0.9005264 0.3888012
v 1.5855660 -1.5791540 0.2946809
vn 0.0000000 0.8660253 -0.5000001
vt 0.8967780 0.3888000
v 1.5855660 -1.9602050 0.0746821
vn 0.0000000 0.0000000 -1.0000000
vt 0.9452480 0.3888010
v 1.4929500 -1.9602050 0.0746821
vn 0.0000000 0.0000000 -1.0000000
vt 0.9368297 0.3888010
v 1.4929500 -1.9602050 0.0746821
vn 0.0000000 0.0000000 -1.0000000
vt 0.9368297 0.3888010
v 1.4929500 -1.7402050 0.1336309
vn 0.0000000 0.4999997 -0.8660256
vt 0.9173862 0.3983689
v 1.5855660 -1.7402050 0.1336308
vn 0.0000000 0.4999999 -0.8660254
vt 0.9211560 0.3888010
v 1.4929500 -2.1802051 0.1336307
vn 0.0000000 -0.4999986 -0.8660262
vt 0.9219441 0.3983689
v 1.5855660 -2.4002049 0.5146829
vn 0.0000000 -1.0000000 0.0000000
vt 0.8725940 0.3888010
v 1.5855660 -2.3412409 0.7346792
vn 0.0000000 -0.8660248 0.5000011
vt 0.8967780 0.3888000
v 1.4929500 -2.3412409 0.7346792
vn 0.0000000 -0.8660247 0.5000014
vt 0.9005265 0.3888011
v 1.4929500 -2.3412409 0.7346792
vn 0.0000000 -0.8660247 0.5000014
vt 0.9005265 0.3888011
v 1.4929500 -2.4002061 0.5146829
vn 0.0000000 -1.0000000 0.0000000
vt 0.8810336 0.3983689
v 1.5855660 -2.4002049 0.5146829
vn 0.0000000 -1.0000000 0.0000000
vt 0.8725940 0.3888010
v 1.5855660 -2.3412409 0.7346792
vn 0.0000000 -0.8660248 0.5000011
vt 0.8967780 0.3888000
v 1.5855660 -2.1802051 0.8957379
vn 0.0000000 -0.4999996 0.8660257
vt 0.9211560 0.3888010
v 1.4929500 -2.1802051 0.8957378
vn 0.0000000 -0.4999997 0.8660256
vt 0.9173862 0.3983689
v 1.4929500 -2.1802051 0.8957378
vn 0.0000000 -0.4999997 0.8660256
vt 0.9173862 0.3983689
v 1.4929500 -2.3412409 0.7346792
vn 0.0000000 -0.8660247 0.5000014
vt 0.9005265 0.3888011
v 1.5855660 -2.3412409 0.7346792
vn 0.0000000 -0.8660248 0.5000011
vt 0.8967780 0.3888000
v 1.5855660 -2.1802051 0.8957379
vn 0.0000000 -0.4999996 0.8660257
vt 0.9211560 0.3888010
v 1.4929500 -1.9602050 0.9546791
vn 0.0000000 0.0000000 1.0000000
vt 0.9368297 0.3888010
v 1.4929500 -1.9602050 0.9546791
vn 0.0000000 0.0000000 1.0000000
vt 0.9368297 0.3888010
v 1.4929500 -2.1802051 0.8957378
vn 0.0000000 -0.4999997 0.8660256
vt 0.9173862 0.3983689
v 1.5855660 -2.1802051 0.8957379
vn 0.0000000 -0.4999996 0.8660257
vt 0.9211560 0.3888010
v 1.4929490 -1.7402050 0.8957376
vn 0.0000000 0.5000002 0.8660253
vt 0.9219441 0.3983689
v 1.5855660 -1.9602050 0.9546790
vn 0.0000000 0.0000000 1.0000000
vt 0.9452480 0.3888010
v 1.4929490 -1.5791540 0.7346790
vn 0.0000000 0.8660254 0.5000001
vt 0.8959439 0.3888000
v 1.5855660 -1.5791540 0.7346791
vn 0.0000000 0.8660253 0.5000002
vt 0.8967780 0.3888000
v 1.4929500 -2.3412409 0.2946807
vn 0.0000000 -0.8660246 -0.5000016
vt 0.8959439 0.3888000
v 1.5855660 -2.3412409 0.2946807
vn 0.0000000 -0.8660246 -0.5000015
vt 0.8967780 0.3888000
v 1.5855660 -1.7402050 0.1336308
vn 0.0000000 0.4999999 -0.8660254
vt 0.9211560 0.3888010

g group_63371656_140627864929104
f 1/1/1 2/2/2 3/3/3 
f 2/2/2 4/4/4 3/3/3 
f 5/5/5 6/6/6 7/7/7 
f 8/8/8 9/9/9 10/10/10 
f 11/11/11 12/12/12 13/13/13 
f 14/14/14 15/15/15 16/16/16 
f 17/17/17 18/18/18 19/19/19 
f 20/20/20 21/21/21 22/22/22 
f 3/3/3 23/23/23 1/1/1 
f 24/24/24 25/25/25 26/26/26 
f 27/27/27 28/28/28 29/29/29 
f 30/30/30 31/31/31 32/32/32 
f 33/33/33 34/34/34 35/35/35 
f 36/36/36 37/37/37 38/38/38 
f 39/39/39 40/40/40 41/41/41 
f 42/42/42 43/43/43 44/44/44 
f 45/45/45 46/46/46 47/47/47 
f 48/48/48 49/49/49 50/50/50 
f 51/51/51 52/52/52 53/53/53 
f 54/54/54 55/55/55 56/56/56 
f 57/57/57 58/58/58 59/59/59 
f 60/60/60 61/61/61 62/62/62 
f 60/60/60 62/62/62 63/63/63 
f 64/64/64 65/65/65 66/66/66 
f 64/64/64 66/66/66 67/67/67 
f 68/68/68 69/69/69 70/70/70 
f 71/71/71 72/72/72 73/73/73 
f 74/74/74 75/75/75 76/76/76 
f 77/77/77 78/78/78 79/79/79 
f 60/60/60 74/74/74 79/79/79 
f 80/80/80 81/81/81 82/82/82 
f 83/83/83 81/81/81 84/84/84 
f 85/85/85 81/81/81 86/86/86 
f 87/87/87 88/88/88 89/89/89 
f 90/90/90 91/91/91 92/92/92 
f 93/93/93 81/81/81 94/94/94 
f 95/95/95 96/96/96 97/97/97 
f 98/98/98 96/96/96 99/99/99 
f 100/100/100 101/101/101 102/102/102 
f 103/103/103 104/104/104 105/105/105 
f 106/106/106 101/101/101 107/107/107 
f 108/108/108 81/81/81 109/109/109 
f 110/110/110 111/111/111 112/112/112 
f 112/112/112 111/111/111 113/113/113 
f 113/113/113 111/111/111 114/114/114 
f 114/114/114 111/111/111 115/115/115 
f 116/116/116 117/117/117 118/118/118 
f 119/119/119 120/120/120 121/121/121 
f 122/122/122 123/123/123 124/124/124 
f 125/125/125 126/126/126 127/127/127 
f 157/157/157 128/128/128 129/129/129 
f 130/130/130 131/131/131 132/132/132 
f 156/156/156 155/155/155 133/133/133 
f 50/50/50 49/49/49 54/54/54 
f 134/134/134 135/135/135 136/136/136 
f 137/137/137 138/138/138 139/139/139 
f 140/140/140 141/141/141 142/142/142 
f 143/143/143 144/144/144 145/145/145 
f 146/146/146 152/152/152 147/147/147 
f 148/148/148 149/149/149 150/150/150 
f 154/154/154 153/153/153 151/151/151 
f 35/35/35 34/34/34 42/42/42 
