v 1.4129950 1.2726730 0.5146822
vn -0.1938117 0.9778225 -0.0793741
vt 0.9463460 0.4245910
v 1.2192420 1.2431990 0.6246821
vn -0.2109054 0.9441989 0.2529969
vt 0.9343360 0.4017040
v 1.4129950 1.2137250 0.7346820
vn -0.1938134 0.8071322 0.5576504
vt 0.9223260 0.4245910
v 1.4129950 1.2137250 0.7346820
vn -0.1938134 0.8071322 0.5576504
vt 0.9223260 0.4245910
v 1.2192420 1.2431990 0.6246821
vn -0.2109054 0.9441989 0.2529969
vt 0.9343360 0.4017040
v 1.4129950 1.0526741 0.8957333
vn -0.1938137 0.5576519 0.8071312
vt 0.8983410 0.4245910
v 1.2192420 0.9426742 0.9252077
vn -0.2109058 0.2529975 0.9441986
vt 0.8863645 0.4017040
v 1.4129950 1.0526741 0.8957333
vn -0.1938137 0.5576519 0.8071312
vt 0.8983410 0.4245910
v 1.2192420 0.9426742 0.9252077
vn -0.2109058 0.2529975 0.9441986
vt 0.8863645 0.4017040
v 1.4129950 0.8326741 0.9546821
vn -0.1938133 -0.0793748 0.9778221
vt 0.8743880 0.4245910
v 1.4129950 0.8326741 0.9546821
vn -0.1938133 -0.0793748 0.9778221
vt 0.8743880 0.4245910
v 1.2192420 0.9426742 0.9252077
vn -0.2109058 0.2529975 0.9441986
vt 0.8743880 0.4017040
v 1.4129950 0.6126742 0.8957333
vn -0.1938133 -0.4201705 0.8865062
vt 0.8983330 0.4245910
v 1.2192420 0.5321487 0.8152078
vn -0.2109056 -0.6912014 0.6912014
vt 0.9103320 0.4017040
v 1.4129950 0.6126742 0.8957333
vn -0.1938133 -0.4201705 0.8865062
vt 0.8983330 0.4245910
v 1.2192420 0.5321487 0.8152078
vn -0.2109056 -0.6912014 0.6912014
vt 0.9103320 0.4017040
v 1.4129950 0.4516231 0.7346822
vn -0.1938132 -0.8865062 0.4201705
vt 0.9223320 0.4245910
v 1.4129950 0.4516231 0.7346822
vn -0.1938132 -0.8865062 0.4201705
vt 0.9223320 0.4245910
v 1.2192420 0.5321487 0.8152078
vn -0.2109056 -0.6912014 0.6912014
vt 0.9103320 0.4017040
v 1.4129950 0.3926742 0.5146822
vn -0.1938134 -0.9778221 0.0793748
vt 0.9463460 0.4245910
v 1.2192420 0.4221486 0.4046821
vn -0.2109056 -0.9441987 -0.2529974
vt 0.9463460 0.4017040
v 1.2192420 1.1332000 0.2141567
vn -0.2109057 0.6912017 -0.6912010
vt 0.9103335 0.4017040
v 1.2192420 1.2431990 0.6246821
vn -0.2109054 0.9441989 0.2529969
vt 0.9463460 0.4017040
v 1.4129950 1.2137250 0.2946823
vn -0.1938129 0.8865066 -0.4201698
vt 0.9223260 0.4245910
v 1.4129950 1.2726730 0.5146822
vn -0.1938117 0.9778225 -0.0793741
vt 0.9463460 0.4245910
v 1.2192420 1.1332000 0.2141567
vn -0.2109057 0.6912017 -0.6912010
vt 0.9103335 0.4017040
v 1.4129950 1.2137250 0.2946823
vn -0.1938129 0.8865066 -0.4201698
vt 0.9223260 0.4245910
v 1.4129950 1.0526741 0.1336311
vn -0.1938134 0.4201709 -0.8865060
vt 0.8983410 0.4245910
v 1.2192420 0.7226742 0.1041566
vn -0.2109056 -0.2529970 -0.9441988
vt 0.8743880 0.4017040
v 1.2192420 1.1332000 0.2141567
vn -0.2109057 0.6912017 -0.6912010
vt 0.9103335 0.4017040
v 1.4129950 0.8326741 0.0746822
vn -0.1938133 0.0793751 -0.9778221
vt 0.8743880 0.4245910
v 1.4129950 1.0526741 0.1336311
vn -0.1938134 0.4201709 -0.8865060
vt 0.8983410 0.4245910
v 1.2192420 0.7226742 0.1041566
vn -0.2109056 -0.2529970 -0.9441988
vt 0.8863605 0.4017040
v 1.4129950 0.8326741 0.0746822
vn -0.1938133 0.0793751 -0.9778221
vt 0.8743880 0.4245910
v 1.4129950 0.6126742 0.1336309
vn -0.1938136 -0.5576515 -0.8071314
vt 0.8983330 0.4245910
v 1.2192420 0.4221486 0.4046821
vn -0.2109056 -0.9441987 -0.2529974
vt 0.9343385 0.4017040
v 1.2192420 0.7226742 0.1041566
vn -0.2109056 -0.2529970 -0.9441988
vt 0.8863605 0.4017040
v 1.4129950 0.4516231 0.2946820
vn -0.1938133 -0.8071314 -0.5576516
vt 0.9223320 0.4245910
v 1.4129950 0.6126742 0.1336309
vn -0.1938136 -0.5576515 -0.8071314
vt 0.8983330 0.4245910
v 1.2192420 0.4221486 0.4046821
vn -0.2109056 -0.9441987 -0.2529974
vt 0.9343385 0.4017040
v 1.4129950 0.4516231 0.2946820
vn -0.1938133 -0.8071314 -0.5576516
vt 0.9223320 0.4245910
v 1.4129950 0.3926742 0.5146822
vn -0.1938134 -0.9778221 0.0793748
vt 0.9463460 0.4245910
v 1.2192420 0.7226742 0.1041566
vn -1.0000000 0.0000000 0.0000000
vt 0.5228025 0.4914720
v 1.2192420 0.4221486 0.4046821
vn -1.0000000 0.0000000 0.0000000
vt 0.4880210 0.4688170
v 1.2192420 0.5321487 0.8152078
vn -1.0000000 0.0000000 0.0000000
vt 0.4902490 0.4273685
v 1.2192420 0.7226742 0.1041566
vn -1.0000000 0.0000000 0.0000000
vt 0.5228025 0.4914720
v 1.2192420 0.5321487 0.8152078
vn -1.0000000 0.0000000 0.0000000
vt 0.4902490 0.4273685
v 1.2192420 0.9426742 0.9252077
vn -1.0000000 0.0000000 0.0000000
vt 0.5272595 0.4085735
v 1.4129950 0.3926742 0.5146822
vn 0.9905772 -0.1369559 0.0000000
vt 0.2475700 0.4234460
v 1.4738290 0.8326740 0.5146822
vn 1.0000000 0.0000000 0.0000000
vt 0.2098821 0.4604213
v 1.4129950 0.4516231 0.7346822
vn 0.9905771 -0.1186075 0.0684787
vt 0.2240810 0.4095080
v 1.4129950 0.4516231 0.7346822
vn 0.9905771 -0.1186075 0.0684787
vt 0.2240810 0.4095080
v 1.4738290 0.8326740 0.5146822
vn 1.0000000 0.0000000 0.0000000
vt 0.2098821 0.4604213
v 1.4129950 0.6126742 0.8957333
vn 0.9905770 -0.0684782 0.1186078
vt 0.1967710 0.4094200
v 1.4129950 0.6126742 0.8957333
vn 0.9905770 -0.0684782 0.1186078
vt 0.1967710 0.4094200
v 1.4738290 0.8326740 0.5146822
vn 1.0000000 0.0000000 0.0000000
vt 0.2098821 0.4604213
v 1.4129950 0.8326741 0.9546821
vn 0.9905771 0.0000000 0.1369564
vt 0.1729550 0.4232050
v 1.4129950 0.8326741 0.9546821
vn 0.9905771 0.0000000 0.1369564
vt 0.1729550 0.4232050
v 1.4738290 0.8326740 0.5146822
vn 1.0000000 0.0000000 0.0000000
vt 0.2098821 0.4604213
v 1.4129950 1.0526741 0.8957333
vn 0.9905771 0.0684782 0.1186077
vt 0.1590170 0.4460400
v 1.4129950 1.0526741 0.8957333
vn 0.9905771 0.0684782 0.1186077
vt 0.1590170 0.4460400
v 1.4738290 0.8326740 0.5146822
vn 1.0000000 0.0000000 0.0000000
vt 0.2098821 0.4604213
v 1.4129950 1.2137250 0.7346820
vn 0.9905771 0.1186078 0.0684781
vt 0.1589260 0.4742430
v 1.4129950 1.2137250 0.7346820
vn 0.9905771 0.1186078 0.0684781
vt 0.1589260 0.4742430
v 1.4738290 0.8326740 0.5146822
vn 1.0000000 0.0000000 0.0000000
vt 0.2098821 0.4604213
v 1.4129950 1.2726730 0.5146822
vn 0.9905770 0.1369566 0.0000000
vt 0.1727140 0.4978190
v 1.4129950 1.2726730 0.5146822
vn 0.9905770 0.1369566 0.0000000
vt 0.1727140 0.4978190
v 1.4738290 0.8326740 0.5146822
vn 1.0000000 0.0000000 0.0000000
vt 0.2098821 0.4604213
v 1.4129950 1.2137250 0.2946823
vn 0.9905771 0.1186078 -0.0684781
vt 0.1964430 0.5113430
v 1.4129950 1.2137250 0.2946823
vn 0.9905771 0.1186078 -0.0684781
vt 0.1964430 0.5113430
v 1.4129950 1.0526741 0.1336311
vn 0.9905771 0.0684782 -0.1186077
vt 0.2237530 0.5114310
v 1.4129950 1.0526741 0.1336311
vn 0.9905771 0.0684782 -0.1186077
vt 0.2237530 0.5114310
v 1.4738290 0.8326740 0.5146822
vn 1.0000000 0.0000000 0.0000000
vt 0.2098821 0.4604213
v 1.4129950 0.8326741 0.0746822
vn 0.9905771 0.0000000 -0.1369564
vt 0.2473300 0.4980590
v 1.4129950 0.8326741 0.0746822
vn 0.9905771 0.0000000 -0.1369564
vt 0.2473300 0.4980590
v 1.4738290 0.8326740 0.5146822
vn 1.0000000 0.0000000 0.0000000
vt 0.2098821 0.4604213
v 1.4129950 0.6126742 0.1336309
vn 0.9905771 -0.0684782 -0.1186077
vt 0.2608520 0.4745710
v 1.4129950 0.6126742 0.1336309
vn 0.9905771 -0.0684782 -0.1186077
vt 0.2608520 0.4745710
v 1.4738290 0.8326740 0.5146822
vn 1.0000000 0.0000000 0.0000000
vt 0.2098821 0.4604213
v 1.4129950 0.4516231 0.2946820
vn 0.9905771 -0.1186075 -0.0684787
vt 0.2609430 0.4463690
v 1.4129950 0.4516231 0.2946820
vn 0.9905771 -0.1186075 -0.0684787
vt 0.2609430 0.4463690
v 1.4738290 0.8326740 0.5146822
vn 1.0000000 0.0000000 0.0000000
vt 0.2098821 0.4604213
v 1.4129950 0.3926742 0.5146822
vn 0.9905772 -0.1369559 0.0000000
vt 0.2475700 0.4234460
v 1.2192420 1.1332000 0.2141567
vn -1.0000000 0.0000000 0.0000000
vt 0.5598125 0.4726770
v 1.2192420 1.2431990 0.6246821
vn -1.0000000 0.0000000 0.0000000
vt 0.5620410 0.4312280

g group_63377664_140627864860032
f 1/1/1 2/2/2 3/3/3 
f 4/4/4 5/5/5 6/6/6 
f 5/5/5 7/7/7 6/6/6 
f 8/8/8 9/9/9 10/10/10 
f 11/11/11 12/12/12 13/13/13 
f 12/12/12 14/14/14 13/13/13 
f 15/15/15 16/16/16 17/17/17 
f 18/18/18 19/19/19 20/20/20 
f 19/19/19 21/21/21 20/20/20 
f 22/22/22 23/23/23 24/24/24 
f 23/23/23 25/25/25 24/24/24 
f 26/26/26 27/27/27 28/28/28 
f 29/29/29 30/30/30 31/31/31 
f 30/30/30 32/32/32 31/31/31 
f 33/33/33 34/34/34 35/35/35 
f 36/36/36 37/37/37 38/38/38 
f 37/37/37 39/39/39 38/38/38 
f 40/40/40 41/41/41 42/42/42 
f 43/43/43 44/44/44 45/45/45 
f 46/46/46 47/47/47 48/48/48 
f 49/49/49 50/50/50 51/51/51 
f 52/52/52 53/53/53 54/54/54 
f 55/55/55 56/56/56 57/57/57 
f 58/58/58 59/59/59 60/60/60 
f 61/61/61 62/62/62 63/63/63 
f 64/64/64 65/65/65 66/66/66 
f 67/67/67 68/68/68 69/69/69 
f 70/70/70 53/53/53 71/71/71 
f 72/72/72 73/73/73 74/74/74 
f 75/75/75 76/76/76 77/77/77 
f 78/78/78 79/79/79 80/80/80 
f 81/81/81 82/82/82 83/83/83 
f 46/46/46 48/48/48 84/84/84 
f 48/48/48 85/85/85 84/84/84 
