v -1.4130020 2.3954899 0.5146828
vn 0.1938124 0.9778223 -0.0793744
vt 0.9463460 0.4245910
v -1.4130020 2.3365409 0.7346787
vn 0.1938129 0.8071324 0.5576504
vt 0.9223260 0.4245910
v -1.2192490 2.3660150 0.6246827
vn 0.2109054 0.9441989 0.2529969
vt 0.9343360 0.4017040
v -1.4130020 2.3365409 0.7346787
vn 0.1938129 0.8071324 0.5576504
vt 0.9223260 0.4245910
v -1.4130020 2.1754899 0.8957377
vn 0.1938138 0.5576519 0.8071311
vt 0.8983410 0.4245910
v -1.2192490 2.3660150 0.6246827
vn 0.2109054 0.9441989 0.2529969
vt 0.9343360 0.4017040
v -1.2192490 2.0654900 0.9252121
vn 0.2109060 0.2529974 0.9441986
vt 0.8863645 0.4017040
v -1.4130020 2.1754899 0.8957377
vn 0.1938138 0.5576519 0.8071311
vt 0.8983410 0.4245910
v -1.4130020 1.9554900 0.9546788
vn 0.1938133 -0.0793748 0.9778221
vt 0.8743880 0.4245910
v -1.2192490 2.0654900 0.9252121
vn 0.2109060 0.2529974 0.9441986
vt 0.8863645 0.4017040
v -1.4130020 1.9554900 0.9546788
vn 0.1938133 -0.0793748 0.9778221
vt 0.8743880 0.4245910
v -1.4130020 1.7354900 0.8957377
vn 0.1938133 -0.4201705 0.8865062
vt 0.8983330 0.4245910
v -1.2192490 2.0654900 0.9252121
vn 0.2109060 0.2529974 0.9441986
vt 0.8743880 0.4017040
v -1.2192490 1.6549650 0.8152122
vn 0.2109056 -0.6912014 0.6912014
vt 0.9103320 0.4017040
v -1.4130020 1.7354900 0.8957377
vn 0.1938133 -0.4201705 0.8865062
vt 0.8983330 0.4245910
v -1.4130020 1.5744550 0.7346790
vn 0.1938132 -0.8865062 0.4201705
vt 0.9223320 0.4245910
v -1.2192490 1.6549650 0.8152122
vn 0.2109056 -0.6912014 0.6912014
vt 0.9103320 0.4017040
v -1.4130020 1.5744550 0.7346790
vn 0.1938132 -0.8865062 0.4201705
vt 0.9223320 0.4245910
v -1.4129870 1.5154901 0.5146828
vn 0.1938135 -0.9778221 0.0793747
vt 0.9463460 0.4245910
v -1.2192490 1.6549650 0.8152122
vn 0.2109056 -0.6912014 0.6912014
vt 0.9103320 0.4017040
v -1.2192490 1.6549650 0.8152122
vn 0.2109056 -0.6912014 0.6912014
vt 0.9103320 0.4017040
v -1.4129870 1.5154901 0.5146828
vn 0.1938135 -0.9778221 0.0793747
vt 0.9463460 0.4245910
v -1.2192490 1.5449650 0.4046827
vn 0.2109056 -0.9441987 -0.2529974
vt 0.9463460 0.4017040
v -1.2192490 2.2560310 0.2141573
vn 0.2109056 0.6912019 -0.6912009
vt 0.9103335 0.4017040
v -1.4130020 2.3365409 0.2946810
vn 0.1938128 0.8865067 -0.4201697
vt 0.9223260 0.4245910
v -1.2192490 2.3660150 0.6246827
vn 0.2109054 0.9441989 0.2529969
vt 0.9463460 0.4017040
v -1.4130020 2.3954899 0.5146828
vn 0.1938124 0.9778223 -0.0793744
vt 0.9463460 0.4245910
v -1.2192490 2.2560310 0.2141573
vn 0.2109056 0.6912019 -0.6912009
vt 0.9103335 0.4017040
v -1.4130020 2.1754899 0.1336308
vn 0.1938136 0.4201710 -0.8865058
vt 0.8983410 0.4245910
v -1.4130020 2.3365409 0.2946810
vn 0.1938128 0.8865067 -0.4201697
vt 0.9223260 0.4245910
v -1.2192490 1.8454900 0.1041562
vn 0.2109056 -0.2529971 -0.9441987
vt 0.8743880 0.4017040
v -1.4130020 1.9554900 0.0746823
vn 0.1938134 0.0793751 -0.9778221
vt 0.8743880 0.4245910
v -1.2192490 2.2560310 0.2141573
vn 0.2109056 0.6912019 -0.6912009
vt 0.9103335 0.4017040
v -1.4130020 2.1754899 0.1336308
vn 0.1938136 0.4201710 -0.8865058
vt 0.8983410 0.4245910
v -1.2192490 1.8454900 0.1041562
vn 0.2109056 -0.2529971 -0.9441987
vt 0.8863605 0.4017040
v -1.4130020 1.7354900 0.1336306
vn 0.1938134 -0.5576516 -0.8071314
vt 0.8983330 0.4245910
v -1.4130020 1.9554900 0.0746823
vn 0.1938134 0.0793751 -0.9778221
vt 0.8743880 0.4245910
v -1.2192490 1.5449650 0.4046827
vn 0.2109056 -0.9441987 -0.2529974
vt 0.9343385 0.4017040
v -1.4130020 1.5744550 0.2946807
vn 0.1938132 -0.8071314 -0.5576516
vt 0.9223320 0.4245910
v -1.2192490 1.8454900 0.1041562
vn 0.2109056 -0.2529971 -0.9441987
vt 0.8863605 0.4017040
v -1.2192490 1.8454900 0.1041562
vn 0.2109056 -0.2529971 -0.9441987
vt 0.8863605 0.4017040
v -1.4130020 1.7354900 0.1336306
vn 0.1938134 -0.5576516 -0.8071314
vt 0.8983330 0.4245910
v -1.2192490 1.5449650 0.4046827
vn 0.2109056 -0.9441987 -0.2529974
vt 0.9343385 0.4017040
v -1.4129870 1.5154901 0.5146828
vn 0.1938135 -0.9778221 0.0793747
vt 0.9463460 0.4245910
v -1.4130020 1.5744550 0.2946807
vn 0.1938132 -0.8071314 -0.5576516
vt 0.9223320 0.4245910
v -1.2192490 1.8454900 0.1041562
vn 1.0000000 0.0000000 0.0000000
vt 0.5228025 0.4914720
v -1.2192490 1.6549650 0.8152122
vn 1.0000000 0.0000000 0.0000000
vt 0.4902490 0.4273685
v -1.2192490 1.5449650 0.4046827
vn 1.0000000 0.0000000 0.0000000
vt 0.4880210 0.4688170
v -1.2192490 1.8454900 0.1041562
vn 1.0000000 0.0000000 0.0000000
vt 0.5228025 0.4914720
v -1.2192490 2.0654900 0.9252121
vn 1.0000000 0.0000000 0.0000000
vt 0.5272595 0.4085735
v -1.2192490 1.6549650 0.8152122
vn 1.0000000 0.0000000 0.0000000
vt 0.4902490 0.4273685
v -1.4129870 1.5154901 0.5146828
vn -0.9905772 -0.1369559 0.0000000
vt 0.2475700 0.4234460
v -1.4130020 1.5744550 0.7346790
vn -0.9905771 -0.1186075 0.0684787
vt 0.2240810 0.4095080
v -1.4738359 1.9554900 0.5146828
vn -1.0000000 0.0000000 0.0000000
vt 0.2098821 0.4604213
v -1.4130020 1.5744550 0.7346790
vn -0.9905771 -0.1186075 0.0684787
vt 0.2240810 0.4095080
v -1.4130020 1.7354900 0.8957377
vn -0.9905770 -0.0684782 0.1186078
vt 0.1967710 0.4094200
v -1.4738359 1.9554900 0.5146828
vn -1.0000000 0.0000000 0.0000000
vt 0.2098821 0.4604213
v -1.4130020 1.7354900 0.8957377
vn -0.9905770 -0.0684782 0.1186078
vt 0.1967710 0.4094200
v -1.4130020 1.9554900 0.9546788
vn -0.9905770 0.0000000 0.1369565
vt 0.1729550 0.4232050
v -1.4738359 1.9554900 0.5146828
vn -1.0000000 0.0000000 0.0000000
vt 0.2098821 0.4604213
v -1.4130020 1.9554900 0.9546788
vn -0.9905770 0.0000000 0.1369565
vt 0.1729550 0.4232050
v -1.4130020 2.1754899 0.8957377
vn -0.9905771 0.0684783 0.1186077
vt 0.1590170 0.4460400
v -1.4738359 1.9554900 0.5146828
vn -1.0000000 0.0000000 0.0000000
vt 0.2098821 0.4604213
v -1.4130020 2.1754899 0.8957377
vn -0.9905771 0.0684783 0.1186077
vt 0.1590170 0.4460400
v -1.4130020 2.3365409 0.7346787
vn -0.9905770 0.1186079 0.0684781
vt 0.1589260 0.4742430
v -1.4738359 1.9554900 0.5146828
vn -1.0000000 0.0000000 0.0000000
vt 0.2098821 0.4604213
v -1.4130020 2.3365409 0.7346787
vn -0.9905770 0.1186079 0.0684781
vt 0.1589260 0.4742430
v -1.4130020 2.3954899 0.5146828
vn -0.9905770 0.1369565 0.0000000
vt 0.1727140 0.4978190
v -1.4738359 1.9554900 0.5146828
vn -1.0000000 0.0000000 0.0000000
vt 0.2098821 0.4604213
v -1.4130020 2.3954899 0.5146828
vn -0.9905770 0.1369565 0.0000000
vt 0.1727140 0.4978190
v -1.4130020 2.3365409 0.2946810
vn -0.9905770 0.1186078 -0.0684781
vt 0.1964430 0.5113430
v -1.4738359 1.9554900 0.5146828
vn -1.0000000 0.0000000 0.0000000
vt 0.2098821 0.4604213
v -1.4130020 2.3365409 0.2946810
vn -0.9905770 0.1186078 -0.0684781
vt 0.1964430 0.5113430
v -1.4130020 2.1754899 0.1336308
vn -0.9905771 0.0684783 -0.1186076
vt 0.2237530 0.5114310
v -1.4738359 1.9554900 0.5146828
vn -1.0000000 0.0000000 0.0000000
vt 0.2098821 0.4604213
v -1.4130020 2.1754899 0.1336308
vn -0.9905771 0.0684783 -0.1186076
vt 0.2237530 0.5114310
v -1.4130020 1.9554900 0.0746823
vn -0.9905771 0.0000000 -0.1369564
vt 0.2473300 0.4980590
v -1.4130020 1.9554900 0.0746823
vn -0.9905771 0.0000000 -0.1369564
vt 0.2473300 0.4980590
v -1.4130020 1.7354900 0.1336306
vn -0.9905771 -0.0684782 -0.1186077
vt 0.2608520 0.4745710
v -1.4738359 1.9554900 0.5146828
vn -1.0000000 0.0000000 0.0000000
vt 0.2098821 0.4604213
v -1.4130020 1.7354900 0.1336306
vn -0.9905771 -0.0684782 -0.1186077
vt 0.2608520 0.4745710
v -1.4130020 1.5744550 0.2946807
vn -0.9905771 -0.1186075 -0.0684787
vt 0.2609430 0.4463690
v -1.4738359 1.9554900 0.5146828
vn -1.0000000 0.0000000 0.0000000
vt 0.2098821 0.4604213
v -1.4130020 1.5744550 0.2946807
vn -0.9905771 -0.1186075 -0.0684787
vt 0.2609430 0.4463690
v -1.4129870 1.5154901 0.5146828
vn -0.9905772 -0.1369559 0.0000000
vt 0.2475700 0.4234460
v -1.4738359 1.9554900 0.5146828
vn -1.0000000 0.0000000 0.0000000
vt 0.2098821 0.4604213
v -1.2192490 1.8454900 0.1041562
vn 1.0000000 0.0000000 0.0000000
vt 0.5228025 0.4914720
v -1.2192490 2.2560310 0.2141573
vn 1.0000000 0.0000000 0.0000000
vt 0.5598125 0.4726770
v -1.2192490 2.0654900 0.9252121
vn 1.0000000 0.0000000 0.0000000
vt 0.5272595 0.4085735
v -1.2192490 2.2560310 0.2141573
vn 1.0000000 0.0000000 0.0000000
vt 0.5598125 0.4726770
v -1.2192490 2.3660150 0.6246827
vn 1.0000000 0.0000000 0.0000000
vt 0.5620410 0.4312280

g group_63369808_140627862009216
f 1/1/1 2/2/2 3/3/3 
f 4/4/4 5/5/5 6/6/6 
f 6/6/6 5/5/5 7/7/7 
f 8/8/8 9/9/9 10/10/10 
f 11/11/11 12/12/12 13/13/13 
f 13/13/13 12/12/12 14/14/14 
f 15/15/15 16/16/16 17/17/17 
f 18/18/18 19/19/19 20/20/20 
f 21/21/21 22/22/22 23/23/23 
f 24/24/24 25/25/25 26/26/26 
f 26/26/26 25/25/25 27/27/27 
f 28/28/28 29/29/29 30/30/30 
f 31/31/31 32/32/32 33/33/33 
f 33/33/33 32/32/32 34/34/34 
f 35/35/35 36/36/36 37/37/37 
f 38/38/38 39/39/39 40/40/40 
f 41/41/41 39/39/39 42/42/42 
f 43/43/43 44/44/44 45/45/45 
f 46/46/46 47/47/47 48/48/48 
f 49/49/49 50/50/50 51/51/51 
f 52/52/52 53/53/53 54/54/54 
f 55/55/55 56/56/56 57/57/57 
f 58/58/58 59/59/59 60/60/60 
f 61/61/61 62/62/62 63/63/63 
f 64/64/64 65/65/65 66/66/66 
f 67/67/67 68/68/68 69/69/69 
f 70/70/70 71/71/71 72/72/72 
f 73/73/73 74/74/74 75/75/75 
f 76/76/76 77/77/77 54/54/54 
f 78/78/78 79/79/79 80/80/80 
f 81/81/81 82/82/82 83/83/83 
f 84/84/84 85/85/85 86/86/86 
f 87/87/87 88/88/88 89/89/89 
f 50/50/50 90/90/90 91/91/91 
