v -1.4204100 -2.4704800 0.9605495
vn -1.0000000 0.0000000 0.0000000
vt 0.1088330 0.5034775
v -1.4204100 -2.6592619 0.9229879
vn -1.0000000 0.0000000 0.0000000
vt 0.1312210 0.4990240
v -1.4204100 -2.5195320 1.0485060
vn -1.0000000 0.0000000 0.0000000
vt 0.1146520 0.5139090
v -1.4204100 -2.6475930 1.0230330
vn -1.0000000 0.0000000 0.0000000
vt 0.1298380 0.5108880
v -1.4204100 -2.7561569 0.9504921
vn -1.0000000 0.0000000 0.0000000
vt 0.1427120 0.5022860
v -1.4204100 -2.7662070 0.7629414
vn -1.0000000 0.0000000 0.0000000
vt 0.1439045 0.4800435
v -1.4204100 -2.8286979 0.8419352
vn -1.0000000 0.0000000 0.0000000
vt 0.1513150 0.4894110
v -1.4204100 -2.8542011 0.7138671
vn -1.0000000 0.0000000 0.0000000
vt 0.1543350 0.4742250
v -1.4204100 -2.7286830 0.5741371
vn -1.0000000 0.0000000 0.0000000
vt 0.1394505 0.4576540
v -1.4204100 -2.8286979 0.5858103
vn -1.0000000 0.0000000 0.0000000
vt 0.1513150 0.4590380
v -1.4204100 -2.7561569 0.4772459
vn -1.0000000 0.0000000 0.0000000
vt 0.1427120 0.4461630
v -1.4204100 -2.5685990 0.4671961
vn -1.0000000 0.0000000 0.0000000
vt 0.1204700 0.4449715
v -1.4204100 -2.6475930 0.4047051
vn -1.0000000 0.0000000 0.0000000
vt 0.1298380 0.4375610
v -1.4204100 -2.5195320 0.3792287
vn -1.0000000 0.0000000 0.0000000
vt 0.1146520 0.4345400
v -1.4204100 -2.3798020 0.5047502
vn -1.0000000 0.0000000 0.0000000
vt 0.0980810 0.4494250
v -1.4204100 -2.3914859 0.4047051
vn -1.0000000 0.0000000 0.0000000
vt 0.0994650 0.4375610
v -1.4204100 -2.2829070 0.4772459
vn -1.0000000 0.0000000 0.0000000
vt 0.0865900 0.4461630
v -1.4204100 -2.2728570 0.6648005
vn -1.0000000 0.0000000 0.0000000
vt 0.0853980 0.4684060
v -1.4204100 -2.2103660 0.5858104
vn -1.0000000 0.0000000 0.0000000
vt 0.0779880 0.4590380
v -1.4204100 -2.1848929 0.7138671
vn -1.0000000 0.0000000 0.0000000
vt 0.0749670 0.4742250
v -1.4204100 -2.3104110 0.8535972
vn -1.0000000 0.0000000 0.0000000
vt 0.0898515 0.4907950
v -1.4204100 -2.2103660 0.8419352
vn -1.0000000 0.0000000 0.0000000
vt 0.0779880 0.4894110
v -1.4204110 -2.2829061 0.9504921
vn -1.0000000 0.0000000 0.0000000
vt 0.0865900 0.5022860
v -1.4204100 -2.3914859 1.0230330
vn -1.0000000 0.0000000 0.0000000
vt 0.0994650 0.5108880
v -1.4204100 -2.3104110 0.8535972
vn -0.2685920 -0.8009166 -0.5351551
vt 0.8118525 0.0553420
v -1.2387660 -2.4742000 0.9417648
vn -0.3294746 -0.1841977 -0.9260225
vt 0.8251542 0.0698627
v -1.4204100 -2.4704800 0.9605495
vn -0.1048172 -0.1940159 -0.9753826
vt 0.8270545 0.0553420
v -1.4204100 -2.3104110 0.8535972
vn -0.2685920 -0.8009166 -0.5351551
vt 0.8118525 0.0553420
v -1.2387660 -2.2916341 0.6685430
vn -0.3294741 -0.9260226 0.1841979
vt 0.8042465 0.0698630
v -1.2387660 -2.4742000 0.9417648
vn -0.3294746 -0.1841977 -0.9260225
vt 0.8251542 0.0698627
v -1.4204100 -2.2728570 0.6648005
vn -0.1048164 -0.9753826 0.1940163
vt 0.8004430 0.0553420
v -1.2387660 -2.2916341 0.6685430
vn -0.3294741 -0.9260226 0.1841979
vt 0.8042465 0.0698630
v -1.4204100 -2.3104110 0.8535972
vn -0.2685920 -0.8009166 -0.5351551
vt 0.8118525 0.0553420
v -1.4204100 -2.3798020 0.5047502
vn -0.2685911 -0.5351552 0.8009168
vt 0.8194849 0.0553420
v -1.2387660 -2.2916341 0.6685430
vn -0.3294741 -0.9260226 0.1841979
vt 0.8061552 0.0698625
v -1.4204100 -2.2728570 0.6648005
vn -0.1048164 -0.9753826 0.1940163
vt 0.8042465 0.0553420
v -1.4204100 -2.3798020 0.5047502
vn -0.2685911 -0.5351552 0.8009168
vt 0.8194849 0.0553420
v -1.2387660 -2.5648789 0.4859731
vn -0.3294741 0.1841971 0.9260228
vt 0.8270830 0.0698630
v -1.2387660 -2.2916341 0.6685430
vn -0.3294741 -0.9260226 0.1841979
vt 0.8061552 0.0698625
v -1.4204100 -2.5685990 0.4671961
vn -0.1048175 0.1940165 0.9753824
vt 0.8308810 0.0553420
v -1.2387660 -2.5648789 0.4859731
vn -0.3294741 0.1841971 0.9260228
vt 0.8270830 0.0698630
v -1.4204100 -2.3798020 0.5047502
vn -0.2685911 -0.5351552 0.8009168
vt 0.8194849 0.0553420
v -1.2387660 -2.4742000 0.9417648
vn -0.3294746 -0.1841977 -0.9260225
vt 0.8270545 0.0698625
v -1.4204100 -2.6592619 0.9229879
vn -0.2685921 0.5351551 -0.8009166
vt 0.8194555 0.0553420
v -1.4204100 -2.4704800 0.9605495
vn -0.1048172 -0.1940159 -0.9753826
vt 0.8308530 0.0553420
v -1.2387660 -2.4742000 0.9417648
vn -0.3294746 -0.1841977 -0.9260225
vt 0.8270545 0.0698625
v -1.2387660 -2.7474301 0.7591988
vn -0.3294742 0.9260228 -0.1841970
vt 0.8061477 0.0698630
v -1.4204100 -2.6592619 0.9229879
vn -0.2685921 0.5351551 -0.8009166
vt 0.8194555 0.0553420
v -1.2387660 -2.7474301 0.7591988
vn -0.3294742 0.9260228 -0.1841970
vt 0.8061477 0.0698630
v -1.4204100 -2.7662070 0.7629414
vn -0.1048164 0.9753829 -0.1940145
vt 0.8042465 0.0553420
v -1.4204100 -2.6592619 0.9229879
vn -0.2685921 0.5351551 -0.8009166
vt 0.8194555 0.0553420
v -1.2387660 -2.7474301 0.7591988
vn -0.3294742 0.9260228 -0.1841970
vt 0.8042465 0.0698625
v -1.4204100 -2.7286830 0.5741371
vn -0.2685916 0.8009164 0.5351555
vt 0.8118675 0.0553420
v -1.4204100 -2.7662070 0.7629414
vn -0.1048164 0.9753829 -0.1940145
vt 0.8004430 0.0553420
v -1.2387660 -2.7474301 0.7591988
vn -0.3294742 0.9260228 -0.1841970
vt 0.8042465 0.0698625
v -1.2387660 -2.5648789 0.4859731
vn -0.3294741 0.1841971 0.9260228
vt 0.8251830 0.0698630
v -1.4204100 -2.7286830 0.5741371
vn -0.2685916 0.8009164 0.5351555
vt 0.8118675 0.0553420
v -1.2387660 -2.5648789 0.4859731
vn -0.3294741 0.1841971 0.9260228
vt 0.8251830 0.0698630
v -1.4204100 -2.5685990 0.4671961
vn -0.1048175 0.1940165 0.9753824
vt 0.8270830 0.0553420
v -1.4204100 -2.7286830 0.5741371
vn -0.2685916 0.8009164 0.5351555
vt 0.8118675 0.0553420
v -1.4204100 -2.5195320 1.0485060
vn 0.0660705 0.0339099 0.9972386
vt 0.7981890 0.0540410
v -1.4204100 -2.6475930 1.0230330
vn 0.0660703 -0.4129549 0.9083518
vt 0.7881470 0.0540410
v -1.1953090 -2.5835619 1.0357770
vn 0.0968491 -0.1941731 0.9761747
vt 0.7931679 0.0711400
v -1.4204100 -2.6475930 1.0230330
vn 0.0660703 -0.4129549 0.9083518
vt 0.7881470 0.0540410
v -1.4204100 -2.7561569 0.9504921
vn 0.0660705 -0.6811767 0.7291317
vt 0.7783660 0.0540410
v -1.1953090 -2.5835619 1.0357770
vn 0.0968491 -0.1941731 0.9761747
vt 0.7931679 0.0711400
v -1.1953090 -2.7924280 0.8962098
vn 0.0968488 -0.8275615 0.5529578
vt 0.7734110 0.0711400
v -1.4204100 -2.7561569 0.9504921
vn 0.0660705 -0.6811767 0.7291317
vt 0.7783660 0.0540410
v -1.4204100 -2.8286979 0.8419352
vn 0.0660705 -0.9343058 0.3502960
vt 0.7684560 0.0540410
v -1.1953090 -2.7924280 0.8962098
vn 0.0968488 -0.8275615 0.5529578
vt 0.7734110 0.0711400
v -1.4204100 -2.8286979 0.8419352
vn 0.0660705 -0.9343058 0.3502960
vt 0.7684560 0.0540410
v -1.4204100 -2.8542011 0.7138671
vn 0.0660696 -0.9972386 0.0339101
vt 0.7585450 0.0540410
v -1.1953090 -2.7924280 0.8962098
vn 0.0968488 -0.8275615 0.5529578
vt 0.7734110 0.0711400
v -1.1953090 -2.7924280 0.8962098
vn 0.0968488 -0.8275615 0.5529578
vt 0.7734110 0.0711400
v -1.4204100 -2.8542011 0.7138671
vn 0.0660696 -0.9972386 0.0339101
vt 0.7585450 0.0540410
v -1.1953090 -2.8414340 0.6498444
vn 0.0968482 -0.9761747 -0.1941737
vt 0.7585440 0.0711400
v -1.4204100 -2.8542011 0.7138671
vn 0.0660696 -0.9972386 0.0339101
vt 0.7585450 0.0540410
v -1.4204100 -2.8286979 0.5858103
vn 0.0660709 -0.9083512 -0.4129560
vt 0.7684560 0.0540410
v -1.1953090 -2.8414340 0.6498444
vn 0.0968482 -0.9761747 -0.1941737
vt 0.7635000 0.0711400
v -1.4204100 -2.8286979 0.5858103
vn 0.0660709 -0.9083512 -0.4129560
vt 0.7684560 0.0540410
v -1.4204100 -2.7561569 0.4772459
vn 0.0660705 -0.7291322 -0.6811762
vt 0.7783660 0.0540410
v -1.1953090 -2.8414340 0.6498444
vn 0.0968482 -0.9761747 -0.1941737
vt 0.7635000 0.0711400
v -1.1953090 -2.7018740 0.4409755
vn 0.0968488 -0.5529584 -0.8275611
vt 0.7832565 0.0711400
v -1.4204100 -2.7561569 0.4772459
vn 0.0660705 -0.7291322 -0.6811762
vt 0.7783660 0.0540410
v -1.4204100 -2.6475930 0.4047051
vn 0.0660713 -0.3502981 -0.9343050
vt 0.7881470 0.0540410
v -1.1953090 -2.7018740 0.4409755
vn 0.0968488 -0.5529584 -0.8275611
vt 0.7832565 0.0711400
v -1.4204100 -2.6475930 0.4047051
vn 0.0660713 -0.3502981 -0.9343050
vt 0.7881470 0.0540410
v -1.4204100 -2.5195320 0.3792287
vn 0.0660706 -0.0339100 -0.9972386
vt 0.7981890 0.0540410
v -1.1953090 -2.7018740 0.4409755
vn 0.0968488 -0.5529584 -0.8275611
vt 0.7832565 0.0711400
v -1.1953090 -2.4555011 0.3919688
vn 0.0968491 0.1941728 -0.9761748
vt 0.7981890 0.0711400
v -1.1953090 -2.3371890 0.9867625
vn 0.0968492 0.5529584 0.8275610
vt 0.7832565 0.0711400
v -1.4204100 -2.3914859 1.0230330
vn 0.0660704 0.3502985 0.9343050
vt 0.7881470 0.0540410
v -1.1953090 -2.5835619 1.0357770
vn 0.0968491 -0.1941731 0.9761747
vt 0.7981890 0.0711400
v -1.4204100 -2.5195320 1.0485060
vn 0.0660705 0.0339099 0.9972386
vt 0.7981890 0.0540410
v -1.1953090 -2.3371890 0.9867625
vn 0.0968492 0.5529584 0.8275610
vt 0.7832565 0.0711400
v -1.4204110 -2.2829061 0.9504921
vn 0.0660705 0.7291322 0.6811762
vt 0.7783660 0.0540410
v -1.4204100 -2.3914859 1.0230330
vn 0.0660704 0.3502985 0.9343050
vt 0.7881470 0.0540410
v -1.1953090 -2.1976290 0.7778973
vn 0.0968495 0.9761747 0.1941732
vt 0.7635000 0.0711400
v -1.4204100 -2.2103660 0.8419352
vn 0.0660707 0.9083515 0.4129555
vt 0.7684560 0.0540410
v -1.1953090 -2.3371890 0.9867625
vn 0.0968492 0.5529584 0.8275610
vt 0.7832565 0.0711400
v -1.4204110 -2.2829061 0.9504921
vn 0.0660705 0.7291322 0.6811762
vt 0.7783660 0.0540410
v -1.1953090 -2.1976290 0.7778973
vn 0.0968495 0.9761747 0.1941732
vt 0.7635000 0.0711400
v -1.4204100 -2.1848929 0.7138671
vn 0.0660710 0.9972386 -0.0339098
vt 0.7585450 0.0540410
v -1.4204100 -2.2103660 0.8419352
vn 0.0660707 0.9083515 0.4129555
vt 0.7684560 0.0540410
v -1.1953090 -2.2466359 0.5315281
vn 0.0968492 0.8275608 -0.5529588
vt 0.7734110 0.0711400
v -1.4204100 -2.2103660 0.5858104
vn 0.0660706 0.9343047 -0.3502990
vt 0.7684560 0.0540410
v -1.1953090 -2.1976290 0.7778973
vn 0.0968495 0.9761747 0.1941732
vt 0.7585440 0.0711400
v -1.4204100 -2.1848929 0.7138671
vn 0.0660710 0.9972386 -0.0339098
vt 0.7585450 0.0540410
v -1.1953090 -2.2466359 0.5315281
vn 0.0968492 0.8275608 -0.5529588
vt 0.7734110 0.0711400
v -1.4204100 -2.2829070 0.4772459
vn 0.0660695 0.6811768 -0.7291317
vt 0.7783660 0.0540410
v -1.4204100 -2.2103660 0.5858104
vn 0.0660706 0.9343047 -0.3502990
vt 0.7684560 0.0540410
v -1.1953090 -2.4555011 0.3919688
vn 0.0968491 0.1941728 -0.9761748
vt 0.7931679 0.0711400
v -1.4204100 -2.3914859 0.4047051
vn 0.0660702 0.4129548 -0.9083518
vt 0.7881470 0.0540410
v -1.1953090 -2.2466359 0.5315281
vn 0.0968492 0.8275608 -0.5529588
vt 0.7734110 0.0711400
v -1.4204100 -2.2829070 0.4772459
vn 0.0660695 0.6811768 -0.7291317
vt 0.7783660 0.0540410
v -1.1953090 -2.4555011 0.3919688
vn 0.0968491 0.1941728 -0.9761748
vt 0.7931679 0.0711400
v -1.4204100 -2.5195320 0.3792287
vn 0.0660706 -0.0339100 -0.9972386
vt 0.7981890 0.0540410
v -1.4204100 -2.3914859 0.4047051
vn 0.0660702 0.4129548 -0.9083518
vt 0.7881470 0.0540410
v -1.1953090 -2.7924280 0.8962098
vn 1.0000000 0.0000000 0.0000000
vt 0.0158815 0.4349210
v -1.1953090 -2.8414340 0.6498444
vn 1.0000000 0.0000000 0.0000000
vt 0.0396265 0.4301975
v -1.1953090 -2.7018740 0.4409755
vn 1.0000000 0.0000000 0.0000000
vt 0.0597580 0.4436480
v -1.2574360 -2.3094630 0.9239435
vn -0.6105378 0.5600196 0.5600194
vt 0.0122750 0.5593450
v -1.4888639 -2.4356310 0.7977830
vn -0.6105379 0.5600197 0.5600191
vt 0.0279440 0.5436740
v -1.2574360 -2.5195320 1.0109570
vn -0.6105382 0.0000000 0.7919868
vt 0.0387140 0.5702950
v -1.2574360 -2.5195320 1.0109570
vn -0.6105382 0.0000000 0.7919868
vt 0.0387140 0.5702950
v -1.4888639 -2.4356310 0.7977830
vn -0.6105379 0.5600197 0.5600191
vt 0.0279440 0.5436740
v -1.4888639 -2.5195320 0.8325421
vn -0.6105385 0.0000000 0.7919866
vt 0.0387130 0.5481350
v -1.2574360 -2.2224650 0.7138670
vn -0.6105379 0.7919870 0.0000000
vt 0.0013240 0.5329070
v -1.4888639 -2.4008560 0.7138671
vn -0.6105376 0.7919874 0.0000000
vt 0.0234850 0.5329060
v -1.2574360 -2.3094630 0.9239435
vn -0.6105378 0.5600196 0.5600194
vt 0.0122750 0.5593450
v -1.2574360 -2.3094630 0.9239435
vn -0.6105378 0.5600196 0.5600194
vt 0.0122750 0.5593450
v -1.4888639 -2.4008560 0.7138671
vn -0.6105376 0.7919874 0.0000000
vt 0.0234850 0.5329060
v -1.4888639 -2.4356310 0.7977830
vn -0.6105379 0.5600197 0.5600191
vt 0.0279440 0.5436740
v -1.2574360 -2.3094630 0.5038022
vn -0.6105385 0.5600191 -0.5600191
vt 0.0122750 0.5064680
v -1.4888639 -2.4356160 0.6299551
vn -0.6105379 0.5600187 -0.5600201
vt 0.0279460 0.5221380
v -1.2574360 -2.2224650 0.7138670
vn -0.6105379 0.7919870 0.0000000
vt 0.0013240 0.5329070
v -1.4888639 -2.4356160 0.6299551
vn -0.6105379 0.5600187 -0.5600201
vt 0.0279460 0.5221380
v -1.2574360 -2.5195320 0.4167888
vn -0.6105385 0.0000000 -0.7919866
vt 0.0387140 0.4955170
v -1.4888639 -2.5195320 0.5951960
vn -0.6105385 0.0000000 -0.7919866
vt 0.0387140 0.5176780
v -1.2574360 -2.3094630 0.5038022
vn -0.6105385 0.5600191 -0.5600191
vt 0.0122750 0.5064680
v -1.2574360 -2.3094630 0.5038022
vn -0.6105385 0.5600191 -0.5600191
vt 0.0122750 0.5064680
v -1.4888639 -2.5195320 0.5951960
vn -0.6105385 0.0000000 -0.7919866
vt 0.0387140 0.5176780
v -1.4888639 -2.4356160 0.6299551
vn -0.6105379 0.5600187 -0.5600201
vt 0.0279460 0.5221380
v -1.2574360 -2.7296009 0.5038022
vn -0.6105387 -0.5600191 -0.5600188
vt 0.0651510 0.5064680
v -1.4888639 -2.6034479 0.6299551
vn -0.6105388 -0.5600188 -0.5600191
vt 0.0494820 0.5221390
v -1.2574360 -2.5195320 0.4167888
vn -0.6105385 0.0000000 -0.7919866
vt 0.0387140 0.4955170
v -1.2574360 -2.5195320 0.4167888
vn -0.6105385 0.0000000 -0.7919866
vt 0.0387140 0.4955170
v -1.4888639 -2.6034479 0.6299551
vn -0.6105388 -0.5600188 -0.5600191
vt 0.0494820 0.5221390
v -1.4888639 -2.5195320 0.5951960
vn -0.6105385 0.0000000 -0.7919866
vt 0.0387140 0.5176780
v -1.2574360 -2.8166139 0.7138672
vn -0.6105385 -0.7919866 0.0000000
vt 0.0761020 0.5329070
v -1.4888639 -2.6382070 0.7138671
vn -0.6105387 -0.7919864 0.0000000
vt 0.0539410 0.5329070
v -1.2574360 -2.7296009 0.5038022
vn -0.6105387 -0.5600191 -0.5600188
vt 0.0651510 0.5064680
v -1.2574360 -2.7296009 0.5038022
vn -0.6105387 -0.5600191 -0.5600188
vt 0.0651510 0.5064680
v -1.4888639 -2.6382070 0.7138671
vn -0.6105387 -0.7919864 0.0000000
vt 0.0539410 0.5329070
v -1.4888639 -2.6034479 0.6299551
vn -0.6105388 -0.5600188 -0.5600191
vt 0.0494820 0.5221390
v -1.2574360 -2.7296000 0.9239435
vn -0.6105384 -0.5600190 0.5600194
vt 0.0651510 0.5593450
v -1.4888639 -2.6034479 0.7977830
vn -0.6105384 -0.5600190 0.5600192
vt 0.0494810 0.5436750
v -1.2574360 -2.8166139 0.7138672
vn -0.6105385 -0.7919866 0.0000000
vt 0.0761020 0.5329070
v -1.4888639 -2.6034479 0.7977830
vn -0.6105384 -0.5600190 0.5600192
vt 0.0494810 0.5436750
v -1.2574360 -2.5195320 1.0109570
vn -0.6105382 0.0000000 0.7919868
vt 0.0387140 0.5702950
v -1.4888639 -2.5195320 0.8325421
vn -0.6105385 0.0000000 0.7919866
vt 0.0387130 0.5481350
v -1.2574360 -2.7296000 0.9239435
vn -0.6105384 -0.5600190 0.5600194
vt 0.0651510 0.5593450
v -1.2574360 -2.7296000 0.9239435
vn -0.6105384 -0.5600190 0.5600194
vt 0.0651510 0.5593450
v -1.4888639 -2.5195320 0.8325421
vn -0.6105385 0.0000000 0.7919866
vt 0.0387130 0.5481350
v -1.4888639 -2.6034479 0.7977830
vn -0.6105384 -0.5600190 0.5600192
vt 0.0494810 0.5436750
v -1.4888639 -2.4356160 0.6299551
vn -1.0000000 0.0000000 0.0000000
vt 0.0279460 0.5221380
v -1.4888639 -2.6034479 0.6299551
vn -1.0000000 0.0000000 0.0000000
vt 0.0494820 0.5221390
v -1.4888639 -2.4008560 0.7138671
vn -1.0000000 0.0000000 0.0000000
vt 0.0234850 0.5329060
v -1.4888639 -2.6382070 0.7138671
vn -1.0000000 0.0000000 0.0000000
vt 0.0539410 0.5329070
v -1.4169130 -2.7635310 0.6105507
vn 0.0377277 0.2759316 -0.9604366
vt 0.9066140 0.9640100
v -1.4169130 -2.2601981 0.7551612
vn 0.0377385 0.2759340 -0.9604355
vt 0.9381770 0.9640100
v -1.2900690 -2.7648530 0.6151536
vn 0.0377297 0.2759320 -0.9604363
vt 0.9066140 0.9719500
v -1.2900690 -2.2615221 0.7597575
vn 0.0377404 0.2759344 -0.9604353
vt 0.9381770 0.9719500
v -1.2900690 -2.7804000 0.6692573
vn 0.0377252 -0.2760081 0.9604146
vt 0.9066140 0.9719500
v -1.2900690 -2.2770801 0.8139036
vn 0.0377388 -0.2760112 0.9604133
vt 0.9381770 0.9719500
v -1.4169130 -2.7817540 0.6738672
vn 0.0377277 -0.2760086 0.9604145
vt 0.9066140 0.9640100
v -1.4169130 -2.2784181 0.8185082
vn 0.0377413 -0.2760117 0.9604130
vt 0.9381770 0.9640100
v -1.4169130 -2.2601981 0.7551612
vn -1.0000000 0.0000000 0.0000000
vt 0.0838970 0.4791210
v -1.4169130 -2.7635310 0.6105507
vn -1.0000000 0.0000000 0.0000000
vt 0.1435860 0.4619720
v -1.4169130 -2.2784181 0.8185082
vn -1.0000000 0.0000000 0.0000000
vt 0.0860560 0.4866340
v -1.4169130 -2.7817540 0.6738672
vn -1.0000000 0.0000000 0.0000000
vt 0.1457440 0.4694800
v -1.4169130 -2.7322910 0.8726022
vn 0.0377277 -0.6937969 -0.7191818
vt 0.9066140 0.9640100
v -1.4169130 -2.3553920 0.5090101
vn 0.0377403 -0.6937943 -0.7191836
vt 0.9381770 0.9640100
v -1.2900690 -2.7289660 0.8760561
vn 0.0377300 -0.6937965 -0.7191821
vt 0.9066140 0.9719500
v -1.2900690 -2.3520660 0.5124586
vn 0.0377426 -0.6937938 -0.7191840
vt 0.9381770 0.9719500
v -1.2900690 -2.6898811 0.9165739
vn 0.0377281 0.6937386 0.7192380
vt 0.9066140 0.9719500
v -1.2900690 -2.3129530 0.5530053
vn 0.0377373 0.6937369 0.7192392
vt 0.9381770 0.9719500
v -1.4169130 -2.6865561 0.9200131
vn 0.0377298 0.6937383 0.7192382
vt 0.9066140 0.9640100
v -1.4169130 -2.3096271 0.5564527
vn 0.0377389 0.6937364 0.7192395
vt 0.9381770 0.9640100
v -1.4169130 -2.3553920 0.5090101
vn -1.0000000 0.0000000 0.0000000
vt 0.0951860 0.4499300
v -1.4169130 -2.7322910 0.8726022
vn -1.0000000 0.0000000 0.0000000
vt 0.1398820 0.4930480
v -1.4169130 -2.3096271 0.5564527
vn -1.0000000 0.0000000 0.0000000
vt 0.0897590 0.4555560
v -1.4169130 -2.6865561 0.9200131
vn -1.0000000 0.0000000 0.0000000
vt 0.1344590 0.4986710
v -1.4169130 -2.4897239 0.9765747
vn 0.0377262 -0.9697282 0.2412553
vt 0.9381770 0.9640100
v -1.4169130 -2.6161580 0.4683763
vn 0.0377376 -0.9697284 0.2412525
vt 0.9066140 0.9640100
v -1.2900690 -2.4850769 0.9754182
vn 0.0377282 -0.9697282 0.2412548
vt 0.9381770 0.9719500
v -1.2900690 -2.6115091 0.4672205
vn 0.0377397 -0.9697284 0.2412520
vt 0.9066140 0.9719500
v -1.2900690 -2.4304450 0.9618285
vn 0.0377262 0.9697477 -0.2411767
vt 0.9381770 0.9719500
v -1.2900690 -2.5568371 0.4536210
vn 0.0377381 0.9697480 -0.2411737
vt 0.9066140 0.9719500
v -1.4169130 -2.4257979 0.9606807
vn 0.0377283 0.9697477 -0.2411761
vt 0.9381770 0.9640100
v -1.4169130 -2.5521891 0.4524639
vn 0.0377402 0.9697480 -0.2411732
vt 0.9066140 0.9640100
v -1.4169130 -2.6161580 0.4683763
vn -1.0000000 0.0000000 0.0000000
vt 0.1261100 0.4451110
v -1.4169130 -2.4897239 0.9765747
vn -1.0000000 0.0000000 0.0000000
vt 0.1111170 0.5053790
v -1.4169130 -2.5521891 0.4524639
vn -1.0000000 0.0000000 0.0000000
vt 0.1185250 0.4432240
v -1.4169130 -2.5521891 0.4524639
vn -1.0000000 0.0000000 0.0000000
vt 0.1185250 0.4432240
v -1.4169130 -2.4897239 0.9765747
vn -1.0000000 0.0000000 0.0000000
vt 0.1111170 0.5053790
v -1.4169130 -2.4257979 0.9606807
vn -1.0000000 0.0000000 0.0000000
vt 0.1035350 0.5034930
v -1.4888639 -2.6034479 0.7977830
vn -1.0000000 0.0000000 0.0000000
vt 0.0494810 0.5436750
v -1.4888639 -2.4356310 0.7977830
vn -1.0000000 0.0000000 0.0000000
vt 0.0279440 0.5436740
v -1.1953090 -2.5835619 1.0357770
vn 1.0000000 0.0000000 0.0000000
vt 0.0024305 0.4550515
v -1.1953090 -2.4555011 0.3919688
vn 1.0000000 0.0000000 0.0000000
vt 0.0644810 0.4673945
v -1.1953090 -2.3371890 0.9867625
vn 1.0000000 0.0000000 0.0000000
vt 0.0071540 0.4787980
v -1.1953090 -2.2466359 0.5315281
vn 1.0000000 0.0000000 0.0000000
vt 0.0510300 0.4875255
v -1.1953090 -2.1976290 0.7778973
vn 1.0000000 0.0000000 0.0000000
vt 0.0272840 0.4922485
v -1.4888639 -2.5195320 0.5951960
vn -1.0000000 0.0000000 0.0000000
vt 0.0387140 0.5176780
v -1.4888639 -2.5195320 0.8325421
vn -1.0000000 0.0000000 0.0000000
vt 0.0387130 0.5481350

g group_16719488_140627861368272
f 1/1/1 2/2/2 3/3/3 
f 3/3/3 2/2/2 4/4/4 
f 4/4/4 2/2/2 5/5/5 
f 2/2/2 6/6/6 5/5/5 
f 5/5/5 6/6/6 7/7/7 
f 7/7/7 6/6/6 8/8/8 
f 6/6/6 9/9/9 8/8/8 
f 8/8/8 9/9/9 10/10/10 
f 10/10/10 9/9/9 11/11/11 
f 9/9/9 12/12/12 11/11/11 
f 11/11/11 12/12/12 13/13/13 
f 13/13/13 12/12/12 14/14/14 
f 12/12/12 15/15/15 14/14/14 
f 14/14/14 15/15/15 16/16/16 
f 16/16/16 15/15/15 17/17/17 
f 15/15/15 18/18/18 17/17/17 
f 17/17/17 18/18/18 19/19/19 
f 19/19/19 18/18/18 20/20/20 
f 18/18/18 21/21/21 20/20/20 
f 20/20/20 21/21/21 22/22/22 
f 22/22/22 21/21/21 23/23/23 
f 21/21/21 1/1/1 23/23/23 
f 23/23/23 1/1/1 24/24/24 
f 24/24/24 1/1/1 3/3/3 
f 25/25/25 26/26/26 27/27/27 
f 28/28/28 29/29/29 30/30/30 
f 31/31/31 32/32/32 33/33/33 
f 34/34/34 35/35/35 36/36/36 
f 37/37/37 38/38/38 39/39/39 
f 40/40/40 41/41/41 42/42/42 
f 43/43/43 44/44/44 45/45/45 
f 46/46/46 47/47/47 48/48/48 
f 49/49/49 50/50/50 51/51/51 
f 52/52/52 53/53/53 54/54/54 
f 55/55/55 56/56/56 57/57/57 
f 58/58/58 59/59/59 60/60/60 
f 61/61/61 62/62/62 63/63/63 
f 64/64/64 65/65/65 66/66/66 
f 66/66/66 65/65/65 67/67/67 
f 68/68/68 69/69/69 70/70/70 
f 71/71/71 72/72/72 73/73/73 
f 74/74/74 75/75/75 76/76/76 
f 77/77/77 78/78/78 79/79/79 
f 80/80/80 81/81/81 82/82/82 
f 82/82/82 81/81/81 83/83/83 
f 84/84/84 85/85/85 86/86/86 
f 87/87/87 88/88/88 89/89/89 
f 89/89/89 88/88/88 90/90/90 
f 91/91/91 92/92/92 93/93/93 
f 93/93/93 92/92/92 94/94/94 
f 95/95/95 96/96/96 97/97/97 
f 98/98/98 99/99/99 100/100/100 
f 100/100/100 99/99/99 101/101/101 
f 102/102/102 103/103/103 104/104/104 
f 105/105/105 106/106/106 107/107/107 
f 107/107/107 106/106/106 108/108/108 
f 109/109/109 110/110/110 111/111/111 
f 112/112/112 113/113/113 114/114/114 
f 114/114/114 113/113/113 115/115/115 
f 116/116/116 117/117/117 118/118/118 
f 119/119/119 120/120/120 121/121/121 
f 122/122/122 123/123/123 124/124/124 
f 125/125/125 126/126/126 127/127/127 
f 128/128/128 129/129/129 130/130/130 
f 131/131/131 132/132/132 133/133/133 
f 134/134/134 135/135/135 136/136/136 
f 128/128/128 137/137/137 129/129/129 
f 138/138/138 139/139/139 140/140/140 
f 141/141/141 142/142/142 143/143/143 
f 144/144/144 145/145/145 146/146/146 
f 147/147/147 148/148/148 149/149/149 
f 150/150/150 151/151/151 152/152/152 
f 153/153/153 154/154/154 155/155/155 
f 156/156/156 157/157/157 158/158/158 
f 150/150/150 159/159/159 151/151/151 
f 160/160/160 161/161/161 162/162/162 
f 163/163/163 164/164/164 165/165/165 
f 166/166/166 167/167/167 168/168/168 
f 168/168/168 167/167/167 169/169/169 
f 170/170/170 171/171/171 172/172/172 
f 172/172/172 171/171/171 173/173/173 
f 174/174/174 175/175/175 176/176/176 
f 176/176/176 175/175/175 177/177/177 
f 178/178/178 179/179/179 180/180/180 
f 180/180/180 179/179/179 181/181/181 
f 182/182/182 183/183/183 184/184/184 
f 184/184/184 183/183/183 185/185/185 
f 186/186/186 187/187/187 188/188/188 
f 188/188/188 187/187/187 189/189/189 
f 190/190/190 191/191/191 192/192/192 
f 192/192/192 191/191/191 193/193/193 
f 194/194/194 195/195/195 196/196/196 
f 196/196/196 195/195/195 197/197/197 
f 198/198/198 199/199/199 200/200/200 
f 200/200/200 199/199/199 201/201/201 
f 202/202/202 203/203/203 204/204/204 
f 205/205/205 206/206/206 207/207/207 
f 169/169/169 208/208/208 168/168/168 
f 168/168/168 208/208/208 209/209/209 
f 210/210/210 211/211/211 212/212/212 
f 121/121/121 211/211/211 210/210/210 
f 211/211/211 213/213/213 212/212/212 
f 119/119/119 121/121/121 210/210/210 
f 212/212/212 213/213/213 214/214/214 
f 167/167/167 166/166/166 215/215/215 
f 209/209/209 208/208/208 216/216/216 
