v -1.3210560 -1.4102870 0.4523461
vn 0.0000000 -0.8660293 0.4999934
vt 0.1324603 0.5004497
v -1.3210560 -1.4454679 0.3210500
vn 0.0000000 -1.0000000 0.0000004
vt 0.1450419 0.5004497
v -1.1228729 -1.4454679 0.3210500
vn 0.0000000 -1.0000000 0.0000005
vt 0.1450419 0.5187889
v -1.3210560 -1.3141720 0.5484650
vn 0.0000000 -0.5000044 0.8660229
vt 0.1198798 0.5004497
v -1.1228729 -1.4102870 0.4523461
vn 0.0000000 -0.8660293 0.4999934
vt 0.1324603 0.5187889
v -1.3210560 -1.1828769 0.5836443
vn -0.0000058 -0.0000033 1.0000000
vt 0.1073024 0.5004497
v -1.1228729 -1.3141720 0.5484650
vn -0.0000026 -0.5000075 0.8660211
vt 0.1198798 0.5187889
v -1.3210560 -1.0515800 0.5484649
vn -0.0000026 0.5000066 0.8660216
vt 0.1702008 0.5004497
v -1.3210560 -1.1828769 0.5836443
vn -0.0000058 -0.0000033 1.0000000
vt 0.1827814 0.5004497
v -1.1228729 -1.1828769 0.5836460
vn -0.0000058 -0.0000033 1.0000000
vt 0.1827814 0.5187889
v -1.3210560 -0.9554652 0.4523460
vn 0.0000000 0.8660308 0.4999907
vt 0.1576224 0.5004497
v -1.1228729 -1.0515800 0.5484649
vn 0.0000000 0.5000096 0.8660199
vt 0.1702008 0.5187889
v -1.3210560 -0.9202847 0.3210499
vn 0.0000000 1.0000000 -0.0000000
vt 0.1450419 0.5004497
v -1.1228729 -0.9554652 0.4523460
vn 0.0000000 0.8660308 0.4999907
vt 0.1576224 0.5187889
v -1.3210560 -0.9554652 0.1897539
vn 0.0000000 0.8660256 -0.4999996
vt 0.1324603 0.5004497
v -1.1228729 -0.9202847 0.3210499
vn 0.0000000 1.0000000 0.0000000
vt 0.1450419 0.5187889
v -1.3210560 -1.0515810 0.0936387
vn 0.0000000 0.4999999 -0.8660255
vt 0.1198798 0.5004497
v -1.1228729 -0.9554652 0.1897539
vn 0.0000000 0.8660257 -0.4999996
vt 0.1324603 0.5187889
v -1.3210560 -1.1828769 0.0584579
vn 0.0000000 -0.0000011 -1.0000000
vt 0.1073024 0.5004497
v -1.1228729 -1.0515810 0.0936387
vn 0.0000000 0.4999999 -0.8660254
vt 0.1198798 0.5187889
v -1.3210560 -1.3141720 0.0936387
vn 0.0000000 -0.5000005 -0.8660251
vt 0.1702008 0.5004497
v -1.3210560 -1.1828769 0.0584579
vn 0.0000000 -0.0000011 -1.0000000
vt 0.1827814 0.5004497
v -1.1228729 -1.1828769 0.0584579
vn 0.0000000 -0.0000011 -1.0000000
vt 0.1827814 0.5187889
v -1.3210560 -1.4102870 0.1897540
vn 0.0000000 -0.8660248 -0.5000011
vt 0.1576224 0.5004497
v -1.1228729 -1.3141720 0.0936387
vn 0.0000000 -0.5000005 -0.8660251
vt 0.1702008 0.5187889
v -1.1228729 -1.4102870 0.1897540
vn 0.0000000 -0.8660248 -0.5000011
vt 0.1576224 0.5187889
v -1.1228729 -1.4102870 0.1897540
vn 1.0000000 0.0000000 0.0000000
vt 0.0601541 0.4587776
v -1.1228729 -1.4102870 0.4523461
vn 1.0000000 0.0000000 0.0000000
vt 0.0601541 0.4830768
v -1.1228729 -1.4454679 0.3210500
vn 1.0000000 0.0000000 0.0000000
vt 0.0568970 0.4709262
v -1.3210560 -1.4454679 0.3210500
vn -1.0000000 0.0000000 0.0000000
vt 0.0519149 0.4766395
v -1.3210560 -1.4102870 0.4523461
vn -1.0000000 0.0000000 0.0000000
vt 0.0486599 0.4887880
v -1.3210560 -1.4102870 0.1897540
vn -1.0000000 0.0000000 0.0000000
vt 0.0486599 0.4644889
v -1.1228729 -1.1828769 0.0584579
vn 1.0000000 0.0000000 0.0000000
vt 0.0811982 0.4466281
v -1.1228729 -1.0515810 0.0936387
vn 1.0000000 0.0000000 0.0000000
vt 0.0933478 0.4498831
v -1.1228729 -1.1828769 0.5836460
vn 1.0000000 0.0000000 0.0000000
vt 0.0811982 0.4952232
v -1.3210560 -1.1828769 0.5836443
vn -1.0000000 0.0000000 0.0000000
vt 0.0276169 0.5009364
v -1.3210560 -1.0515800 0.5484649
vn -1.0000000 0.0000000 0.0000000
vt 0.0154663 0.4976826
v -1.3210560 -1.1828769 0.0584579
vn -1.0000000 0.0000000 0.0000000
vt 0.0276169 0.4523404
v -1.1228729 -0.9554652 0.1897539
vn 1.0000000 0.0000000 0.0000000
vt 0.1022413 0.4587776
v -1.1228729 -1.0515800 0.5484649
vn 1.0000000 0.0000000 0.0000000
vt 0.0933478 0.4919692
v -1.3210560 -0.9554652 0.4523460
vn -1.0000000 0.0000000 0.0000000
vt 0.0065748 0.4887880
v -1.3210560 -1.0515810 0.0936387
vn -1.0000000 0.0000000 0.0000000
vt 0.0154663 0.4555964
v -1.1228729 -0.9202847 0.3210499
vn 1.0000000 0.0000000 0.0000000
vt 0.1054921 0.4709262
v -1.1228729 -0.9554652 0.4523460
vn 1.0000000 0.0000000 0.0000000
vt 0.1022413 0.4830768
v -1.3210560 -0.9202847 0.3210499
vn -1.0000000 0.0000000 0.0000000
vt 0.0033199 0.4766395
v -1.3210560 -0.9554652 0.1897539
vn -1.0000000 0.0000000 0.0000000
vt 0.0065748 0.4644889
v -1.1228729 -1.3141720 0.0936387
vn 1.0000000 0.0000000 0.0000000
vt 0.0690434 0.4498831
v -1.1228729 -1.3141720 0.5484650
vn 1.0000000 0.0000000 0.0000000
vt 0.0690434 0.4919692
v -1.3210560 -1.3141720 0.5484650
vn -1.0000000 0.0000000 0.0000000
vt 0.0397643 0.4976826
v -1.3210560 -1.3141720 0.0936387
vn -1.0000000 0.0000000 0.0000000
vt 0.0397643 0.4555964
v -1.1228729 -1.1828769 0.5836460
vn -0.0000058 -0.0000033 1.0000000
vt 0.1073024 0.5187889
v -1.1228729 -1.1828769 0.0584579
vn 0.0000000 -0.0000011 -1.0000000
vt 0.1073024 0.5187889

g group_152_107202387881216
f 1/1/1 2/2/2 3/3/3 
f 4/4/4 1/1/1 5/5/5 
f 6/6/6 4/4/4 7/7/7 
f 8/8/8 9/9/9 10/10/10 
f 11/11/11 8/8/8 12/12/12 
f 13/13/13 11/11/11 14/14/14 
f 15/15/15 13/13/13 16/16/16 
f 17/17/17 15/15/15 18/18/18 
f 19/19/19 17/17/17 20/20/20 
f 21/21/21 22/22/22 23/23/23 
f 24/24/24 21/21/21 25/25/25 
f 2/2/2 24/24/24 26/26/26 
f 27/27/27 28/28/28 29/29/29 
f 30/30/30 31/31/31 32/32/32 
f 33/33/33 34/34/34 35/35/35 
f 36/36/36 37/37/37 38/38/38 
f 34/34/34 39/39/39 40/40/40 
f 37/37/37 41/41/41 42/42/42 
f 39/39/39 43/43/43 44/44/44 
f 41/41/41 45/45/45 46/46/46 
f 47/47/47 33/33/33 48/48/48 
f 49/49/49 36/36/36 50/50/50 
f 27/27/27 47/47/47 28/28/28 
f 31/31/31 49/49/49 32/32/32 
f 3/3/3 5/5/5 1/1/1 
f 5/5/5 7/7/7 4/4/4 
f 7/7/7 51/51/51 6/6/6 
f 10/10/10 12/12/12 8/8/8 
f 12/12/12 14/14/14 11/11/11 
f 14/14/14 16/16/16 13/13/13 
f 16/16/16 18/18/18 15/15/15 
f 18/18/18 20/20/20 17/17/17 
f 20/20/20 52/52/52 19/19/19 
f 23/23/23 25/25/25 21/21/21 
f 25/25/25 26/26/26 24/24/24 
f 26/26/26 3/3/3 2/2/2 
f 34/34/34 40/40/40 35/35/35 
f 37/37/37 42/42/42 38/38/38 
f 39/39/39 44/44/44 40/40/40 
f 41/41/41 46/46/46 42/42/42 
f 33/33/33 35/35/35 48/48/48 
f 36/36/36 38/38/38 50/50/50 
f 47/47/47 48/48/48 28/28/28 
f 49/49/49 50/50/50 32/32/32 
