v 1.3210560 2.0221300 0.8450121
vn 0.0000000 -0.8660243 0.5000019
vt 0.1577836 0.5251207
v 1.1228729 1.9869490 0.7137177
vn 0.0000000 -1.0000000 0.0000012
vt 0.1455276 0.5429837
v 1.3210560 1.9869490 0.7137177
vn 0.0000000 -1.0000000 0.0000013
vt 0.1455276 0.5251207
v 1.3210560 2.1182449 0.9411271
vn 0.0000000 -0.4999985 0.8660263
vt 0.1700386 0.5251207
v 1.1228729 2.0221300 0.8450121
vn 0.0000000 -0.8660243 0.5000020
vt 0.1577836 0.5429837
v 1.3210560 2.2495410 0.9763074
vn 0.0000000 0.0000011 1.0000000
vt 0.1822924 0.5251207
v 1.1228729 2.1182449 0.9411271
vn 0.0000000 -0.4999985 0.8660263
vt 0.1700386 0.5429837
v 1.3210560 2.3808370 0.9411270
vn 0.0000000 0.4999984 0.8660263
vt 0.1210125 0.5251207
v 1.1228729 2.2495410 0.9763074
vn 0.0000000 0.0000011 1.0000000
vt 0.1087576 0.5429837
v 1.3210560 2.2495410 0.9763074
vn 0.0000000 0.0000011 1.0000000
vt 0.1087576 0.5251207
v 1.3210560 2.4769530 0.8450117
vn 0.0000000 0.8660235 0.5000033
vt 0.1332674 0.5251207
v 1.1228729 2.3808370 0.9411270
vn 0.0000000 0.4999984 0.8660263
vt 0.1210125 0.5429837
v 1.3210560 2.5121329 0.7137177
vn -0.0000005 1.0000000 0.0000011
vt 0.1455276 0.5251207
v 1.1228729 2.4769530 0.8450117
vn 0.0000005 0.8660232 0.5000040
vt 0.1332674 0.5429837
v 1.3210560 2.4769530 0.5824220
vn -0.0000005 0.8660233 -0.5000037
vt 0.1577836 0.5251207
v 1.1228729 2.5121329 0.7137190
vn 0.0000005 1.0000000 0.0000046
vt 0.1455276 0.5429837
v 1.3210560 2.3808370 0.4863077
vn 0.0000000 0.4999971 -0.8660271
vt 0.1700386 0.5251207
v 1.1228729 2.4769530 0.5824220
vn 0.0000000 0.8660237 -0.5000030
vt 0.1577836 0.5429837
v 1.3210560 2.2495410 0.4511270
vn 0.0000000 0.0000004 -1.0000000
vt 0.1822924 0.5251207
v 1.1228729 2.3808370 0.4863077
vn 0.0000000 0.4999971 -0.8660271
vt 0.1700386 0.5429837
v 1.3210560 2.1182449 0.4863077
vn 0.0000000 -0.4999984 -0.8660263
vt 0.1210125 0.5251207
v 1.1228729 2.2495410 0.4511270
vn 0.0000000 0.0000004 -1.0000000
vt 0.1087576 0.5429837
v 1.3210560 2.2495410 0.4511270
vn 0.0000000 0.0000004 -1.0000000
vt 0.1087576 0.5251207
v 1.3210560 2.0221300 0.5824220
vn 0.0000000 -0.8660239 -0.5000026
vt 0.1332674 0.5251207
v 1.1228729 2.1182449 0.4863077
vn 0.0000000 -0.4999984 -0.8660263
vt 0.1210125 0.5429837
v 1.1228729 2.0221300 0.5824220
vn 0.0000000 -0.8660239 -0.5000026
vt 0.1332674 0.5429837
v 1.1228729 2.0221300 0.5824220
vn -1.0000000 0.0000000 0.0000000
vt 0.0993962 0.5128184
v 1.1228729 1.9869490 0.7137177
vn -1.0000000 0.0000000 0.0000000
vt 0.1025669 0.5246571
v 1.1228729 2.0221300 0.8450121
vn -1.0000000 0.0000000 0.0000000
vt 0.0993962 0.5364916
v 1.3210560 1.9869490 0.7137177
vn 1.0000000 0.0000000 0.0000000
vt 0.0030807 0.5307624
v 1.3210560 2.0221300 0.5824220
vn 1.0000000 0.0000000 0.0000000
vt 0.0062545 0.5189269
v 1.3210560 2.0221300 0.8450121
vn 1.0000000 0.0000000 0.0000000
vt 0.0062545 0.5425990
v 1.1228729 2.2495410 0.4511270
vn -1.0000000 0.0000000 0.0000000
vt 0.0788916 0.5009797
v 1.1228729 2.2495410 0.9763074
vn -1.0000000 0.0000000 0.0000000
vt 0.0788916 0.5483282
v 1.1228729 2.3808370 0.4863077
vn -1.0000000 0.0000000 0.0000000
vt 0.0670581 0.5041525
v 1.3210560 2.2495410 0.9763074
vn 1.0000000 0.0000000 0.0000000
vt 0.0267570 0.5544345
v 1.3210560 2.2495410 0.4511270
vn 1.0000000 0.0000000 0.0000000
vt 0.0267570 0.5070882
v 1.3210560 2.3808370 0.9411270
vn 1.0000000 0.0000000 0.0000000
vt 0.0385915 0.5512649
v 1.1228729 2.3808370 0.9411270
vn -1.0000000 0.0000000 0.0000000
vt 0.0670581 0.5451564
v 1.1228729 2.4769530 0.5824220
vn -1.0000000 0.0000000 0.0000000
vt 0.0583901 0.5128184
v 1.3210560 2.3808370 0.4863077
vn 1.0000000 0.0000000 0.0000000
vt 0.0385915 0.5102610
v 1.3210560 2.4769530 0.8450117
vn 1.0000000 0.0000000 0.0000000
vt 0.0472574 0.5425990
v 1.1228729 2.4769530 0.8450117
vn -1.0000000 0.0000000 0.0000000
vt 0.0583901 0.5364916
v 1.1228729 2.5121329 0.7137190
vn -1.0000000 0.0000000 0.0000000
vt 0.0552205 0.5246571
v 1.3210560 2.4769530 0.5824220
vn 1.0000000 0.0000000 0.0000000
vt 0.0472574 0.5189269
v 1.3210560 2.5121329 0.7137177
vn 1.0000000 0.0000000 0.0000000
vt 0.0504302 0.5307624
v 1.1228729 2.1182449 0.4863077
vn -1.0000000 0.0000000 0.0000000
vt 0.0907282 0.5041525
v 1.1228729 2.1182449 0.9411271
vn -1.0000000 0.0000000 0.0000000
vt 0.0907282 0.5451564
v 1.3210560 2.1182449 0.9411271
vn 1.0000000 0.0000000 0.0000000
vt 0.0149194 0.5512649
v 1.3210560 2.1182449 0.4863077
vn 1.0000000 0.0000000 0.0000000
vt 0.0149194 0.5102610
v 1.1228729 2.2495410 0.9763074
vn 0.0000000 0.0000011 1.0000000
vt 0.1822924 0.5429837
v 1.1228729 2.2495410 0.4511270
vn 0.0000000 0.0000004 -1.0000000
vt 0.1822924 0.5429837

g group_133_107202387876352
f 1/1/1 2/2/2 3/3/3 
f 4/4/4 5/5/5 1/1/1 
f 6/6/6 7/7/7 4/4/4 
f 8/8/8 9/9/9 10/10/10 
f 11/11/11 12/12/12 8/8/8 
f 13/13/13 14/14/14 11/11/11 
f 15/15/15 16/16/16 13/13/13 
f 17/17/17 18/18/18 15/15/15 
f 19/19/19 20/20/20 17/17/17 
f 21/21/21 22/22/22 23/23/23 
f 24/24/24 25/25/25 21/21/21 
f 3/3/3 26/26/26 24/24/24 
f 27/27/27 28/28/28 29/29/29 
f 30/30/30 31/31/31 32/32/32 
f 33/33/33 34/34/34 35/35/35 
f 36/36/36 37/37/37 38/38/38 
f 35/35/35 39/39/39 40/40/40 
f 38/38/38 41/41/41 42/42/42 
f 40/40/40 43/43/43 44/44/44 
f 42/42/42 45/45/45 46/46/46 
f 47/47/47 48/48/48 33/33/33 
f 49/49/49 50/50/50 36/36/36 
f 27/27/27 29/29/29 47/47/47 
f 32/32/32 31/31/31 49/49/49 
f 2/2/2 1/1/1 5/5/5 
f 5/5/5 4/4/4 7/7/7 
f 7/7/7 6/6/6 51/51/51 
f 9/9/9 8/8/8 12/12/12 
f 12/12/12 11/11/11 14/14/14 
f 14/14/14 13/13/13 16/16/16 
f 16/16/16 15/15/15 18/18/18 
f 18/18/18 17/17/17 20/20/20 
f 20/20/20 19/19/19 52/52/52 
f 22/22/22 21/21/21 25/25/25 
f 25/25/25 24/24/24 26/26/26 
f 26/26/26 3/3/3 2/2/2 
f 35/35/35 34/34/34 39/39/39 
f 38/38/38 37/37/37 41/41/41 
f 40/40/40 39/39/39 43/43/43 
f 42/42/42 41/41/41 45/45/45 
f 33/33/33 48/48/48 34/34/34 
f 36/36/36 50/50/50 37/37/37 
f 47/47/47 29/29/29 48/48/48 
f 49/49/49 31/31/31 50/50/50 
