v -1.3210560 1.0510480 0.5484607
vn 0.0000000 -0.5000061 0.8660219
vt 0.1324603 0.5004497
v -1.3210560 0.9549325 0.4523454
vn 0.0000000 -0.8660253 0.5000001
vt 0.1450419 0.5004497
v -1.1228729 0.9549325 0.4523454
vn 0.0000000 -0.8660253 0.5000002
vt 0.1450419 0.5187889
v -1.3210560 1.1823440 0.5836434
vn 0.0000000 -0.0000081 1.0000000
vt 0.1198798 0.5004497
v -1.1228729 1.0510480 0.5484607
vn 0.0000000 -0.5000061 0.8660219
vt 0.1324603 0.5187889
v -1.3210560 1.3136410 0.5484629
vn 0.0000000 0.5000008 0.8660250
vt 0.1073024 0.5004497
v -1.1228729 1.1823440 0.5836434
vn 0.0000000 -0.0000081 1.0000000
vt 0.1198798 0.5187889
v -1.3210560 1.4097559 0.4523473
vn 0.0000000 0.8660288 0.4999941
vt 0.1702008 0.5004497
v -1.3210560 1.3136410 0.5484629
vn 0.0000000 0.5000008 0.8660250
vt 0.1827814 0.5004497
v -1.1228729 1.3136410 0.5484629
vn 0.0000000 0.5000008 0.8660250
vt 0.1827814 0.5187889
v -1.3210560 1.4449350 0.3210495
vn 0.0000000 1.0000000 -0.0000047
vt 0.1576224 0.5004497
v -1.1228729 1.4097559 0.4523473
vn 0.0000000 0.8660287 0.4999943
vt 0.1702008 0.5187889
v -1.3210560 1.4097550 0.1897535
vn 0.0000000 0.8660254 -0.5000000
vt 0.1450419 0.5004497
v -1.1228729 1.4449350 0.3210495
vn 0.0000000 1.0000000 -0.0000046
vt 0.1576224 0.5187889
v -1.3210560 1.3136390 0.0936381
vn 0.0000000 0.4999988 -0.8660261
vt 0.1324603 0.5004497
v -1.1228729 1.4097550 0.1897535
vn 0.0000000 0.8660254 -0.5000000
vt 0.1450419 0.5187889
v -1.3210560 1.1823430 0.0584577
vn 0.0000000 -0.0000005 -1.0000000
vt 0.1198798 0.5004497
v -1.1228729 1.3136390 0.0936381
vn 0.0000000 0.4999987 -0.8660262
vt 0.1324603 0.5187889
v -1.3210560 1.0510470 0.0936382
vn 0.0000000 -0.4999994 -0.8660258
vt 0.1073024 0.5004497
v -1.1228729 1.1823430 0.0584577
vn 0.0000000 -0.0000006 -1.0000000
vt 0.1198798 0.5187889
v -1.3210560 0.9549317 0.1897538
vn 0.0000000 -0.8660265 -0.4999981
vt 0.1702008 0.5004497
v -1.3210560 1.0510470 0.0936382
vn 0.0000000 -0.4999994 -0.8660258
vt 0.1827814 0.5004497
v -1.1228729 1.0510470 0.0936382
vn 0.0000000 -0.4999994 -0.8660257
vt 0.1827814 0.5187889
v -1.3210560 0.9197518 0.3210493
vn 0.0000000 -1.0000000 0.0000024
vt 0.1576224 0.5004497
v -1.1228729 0.9197518 0.3210493
vn 0.0000000 -1.0000000 0.0000024
vt 0.1576224 0.5187889
v -1.1228729 0.9197518 0.3210493
vn 1.0000000 0.0000000 0.0000000
vt 0.0601541 0.4587776
v -1.1228729 1.0510480 0.5484607
vn 1.0000000 0.0000000 0.0000000
vt 0.0601541 0.4830768
v -1.1228729 0.9549325 0.4523454
vn 1.0000000 0.0000000 0.0000000
vt 0.0568970 0.4709262
v -1.3210560 0.9549325 0.4523454
vn -1.0000000 0.0000000 0.0000000
vt 0.0519149 0.4766395
v -1.3210560 1.0510480 0.5484607
vn -1.0000000 0.0000000 0.0000000
vt 0.0486599 0.4887880
v -1.3210560 0.9197518 0.3210493
vn -1.0000000 0.0000000 0.0000000
vt 0.0486599 0.4644889
v -1.1228729 1.0510470 0.0936382
vn 1.0000000 0.0000000 0.0000000
vt 0.0811982 0.4466281
v -1.1228729 1.1823430 0.0584577
vn 1.0000000 0.0000003 -0.0000002
vt 0.0933478 0.4498831
v -1.1228729 1.3136410 0.5484629
vn 1.0000000 0.0000000 0.0000000
vt 0.0811982 0.4952232
v -1.3210560 1.3136410 0.5484629
vn -1.0000000 0.0000000 0.0000000
vt 0.0276169 0.5009364
v -1.3210560 1.4097559 0.4523473
vn -1.0000000 -0.0000003 0.0000002
vt 0.0154663 0.4976826
v -1.3210560 1.0510470 0.0936382
vn -1.0000000 0.0000000 0.0000000
vt 0.0276169 0.4523404
v -1.1228729 1.3136390 0.0936381
vn 1.0000000 0.0000010 -0.0000006
vt 0.1022413 0.4587776
v -1.1228729 1.4097559 0.4523473
vn 1.0000000 0.0000003 -0.0000002
vt 0.0933478 0.4919692
v -1.3210560 1.4449350 0.3210495
vn -1.0000000 -0.0000010 0.0000006
vt 0.0065748 0.4887880
v -1.3210560 1.1823430 0.0584577
vn -1.0000000 -0.0000003 0.0000002
vt 0.0154663 0.4555964
v -1.1228729 0.9549317 0.1897538
vn 0.0000000 -0.8660265 -0.4999981
vt 0.1702008 0.5187889
v -1.3210560 1.1823440 0.5836434
vn -1.0000000 0.0000000 0.0000000
vt 0.0397643 0.4976826
v -1.3210560 0.9549317 0.1897538
vn -1.0000000 0.0000000 0.0000000
vt 0.0397643 0.4555964
v -1.1228729 0.9549317 0.1897538
vn 1.0000000 0.0000000 0.0000000
vt 0.0690434 0.4498831
v -1.1228729 1.1823440 0.5836434
vn 1.0000000 0.0000000 0.0000000
vt 0.0690434 0.4919692
v -1.3210560 1.4097550 0.1897535
vn -1.0000000 0.0000000 0.0000000
vt 0.0033199 0.4766395
v -1.3210560 1.3136390 0.0936381
vn -1.0000000 -0.0000010 0.0000006
vt 0.0065748 0.4644889
v -1.1228729 1.4097550 0.1897535
vn 1.0000000 0.0000000 0.0000000
vt 0.1054921 0.4709262
v -1.1228729 1.4449350 0.3210495
vn 1.0000000 0.0000010 -0.0000006
vt 0.1022413 0.4830768
v -1.1228729 1.3136410 0.5484629
vn 0.0000000 0.5000008 0.8660250
vt 0.1073024 0.5187889
v -1.1228729 1.0510470 0.0936382
vn 0.0000000 -0.4999994 -0.8660257
vt 0.1073024 0.5187889

g group_144_107202387879168
f 1/1/1 2/2/2 3/3/3 
f 4/4/4 1/1/1 5/5/5 
f 6/6/6 4/4/4 7/7/7 
f 8/8/8 9/9/9 10/10/10 
f 11/11/11 8/8/8 12/12/12 
f 13/13/13 11/11/11 14/14/14 
f 15/15/15 13/13/13 16/16/16 
f 17/17/17 15/15/15 18/18/18 
f 19/19/19 17/17/17 20/20/20 
f 21/21/21 22/22/22 23/23/23 
f 24/24/24 21/21/21 25/25/25 
f 2/2/2 24/24/24 25/25/25 
f 26/26/26 27/27/27 28/28/28 
f 29/29/29 30/30/30 31/31/31 
f 32/32/32 33/33/33 34/34/34 
f 35/35/35 36/36/36 37/37/37 
f 33/33/33 38/38/38 39/39/39 
f 36/36/36 40/40/40 41/41/41 
f 21/21/21 42/42/42 25/25/25 
f 43/43/43 35/35/35 44/44/44 
f 45/45/45 32/32/32 46/46/46 
f 40/40/40 47/47/47 48/48/48 
f 38/38/38 49/49/49 50/50/50 
f 26/26/26 45/45/45 27/27/27 
f 30/30/30 43/43/43 31/31/31 
f 3/3/3 5/5/5 1/1/1 
f 5/5/5 7/7/7 4/4/4 
f 7/7/7 51/51/51 6/6/6 
f 10/10/10 12/12/12 8/8/8 
f 12/12/12 14/14/14 11/11/11 
f 14/14/14 16/16/16 13/13/13 
f 16/16/16 18/18/18 15/15/15 
f 18/18/18 20/20/20 17/17/17 
f 20/20/20 52/52/52 19/19/19 
f 23/23/23 42/42/42 21/21/21 
f 25/25/25 3/3/3 2/2/2 
f 33/33/33 39/39/39 34/34/34 
f 36/36/36 41/41/41 37/37/37 
f 38/38/38 50/50/50 39/39/39 
f 40/40/40 48/48/48 41/41/41 
f 35/35/35 37/37/37 44/44/44 
f 32/32/32 34/34/34 46/46/46 
f 45/45/45 46/46/46 27/27/27 
f 43/43/43 44/44/44 31/31/31 
