v 1.3359710 -2.6824360 0.9529349
vn 0.0000000 -0.8660269 0.4999974
vt 0.0748684 0.5616379
v 1.1079561 -2.7335310 0.7622436
vn 0.0000000 -1.0000000 0.0000011
vt 0.0570687 0.5821941
v 1.3359710 -2.7335310 0.7622436
vn 0.0000000 -1.0000000 0.0000011
vt 0.0570687 0.5616379
v 1.3359710 -2.5428391 1.0925320
vn 0.0000000 -0.5000002 0.8660253
vt 0.0926670 0.5616379
v 1.1079561 -2.6824360 0.9529349
vn 0.0000000 -0.8660269 0.4999974
vt 0.0748684 0.5821941
v 1.3359710 -2.3521450 1.1436280
vn 0.0000000 0.0000001 1.0000000
vt 0.1104688 0.5616379
v 1.1079561 -2.5428391 1.0925320
vn 0.0000000 -0.5000002 0.8660253
vt 0.0926670 0.5821941
v 1.3359710 -2.1614499 1.0925320
vn 0.0000000 0.4999992 0.8660259
vt 0.0214683 0.5616379
v 1.1079561 -2.3521450 1.1436280
vn 0.0000000 0.0000001 1.0000000
vt 0.0036686 0.5821941
v 1.3359710 -2.3521450 1.1436280
vn 0.0000000 0.0000001 1.0000000
vt 0.0036686 0.5616379
v 1.3359710 -2.0218530 0.9529348
vn 0.0000000 0.8660272 0.4999968
vt 0.0392669 0.5616379
v 1.1079561 -2.1614499 1.0925320
vn 0.0000000 0.4999992 0.8660259
vt 0.0214683 0.5821941
v 1.3359710 -1.9707590 0.7622431
vn -0.0000001 1.0000000 0.0000005
vt 0.0570687 0.5616379
v 1.1079561 -2.0218530 0.9529348
vn 0.0000001 0.8660272 0.4999969
vt 0.0392669 0.5821941
v 1.3359710 -2.0218530 0.5715504
vn -0.0000001 0.8660303 -0.4999916
vt 0.0748684 0.5616379
v 1.1079561 -1.9707590 0.7622434
vn 0.0000001 1.0000000 0.0000012
vt 0.0570687 0.5821941
v 1.3359710 -2.1614499 0.4319502
vn 0.0000000 0.5000014 -0.8660246
vt 0.0926670 0.5616379
v 1.1079561 -2.0218530 0.5715504
vn 0.0000000 0.8660303 -0.4999915
vt 0.0748684 0.5821941
v 1.3359710 -2.3521450 0.3808551
vn 0.0000000 -0.0000003 -1.0000000
vt 0.1104688 0.5616379
v 1.1079561 -2.1614499 0.4319502
vn 0.0000000 0.5000014 -0.8660246
vt 0.0926670 0.5821941
v 1.3359710 -2.5428391 0.4319503
vn 0.0000000 -0.5000029 -0.8660238
vt 0.0214683 0.5616379
v 1.1079561 -2.3521450 0.3808551
vn 0.0000000 -0.0000003 -1.0000000
vt 0.0036686 0.5821941
v 1.3359710 -2.3521450 0.3808551
vn 0.0000000 -0.0000003 -1.0000000
vt 0.0036686 0.5616379
v 1.3359710 -2.6824360 0.5715505
vn 0.0000000 -0.8660301 -0.4999919
vt 0.0392669 0.5616379
v 1.1079561 -2.5428391 0.4319503
vn 0.0000000 -0.5000029 -0.8660237
vt 0.0214683 0.5821941
v 1.1079561 -2.6824360 0.5715505
vn 0.0000000 -0.8660302 -0.4999918
vt 0.0392669 0.5821941
v 1.1079561 -2.6824360 0.5715505
vn -1.0000000 0.0000000 0.0000000
vt 0.1426551 0.3968844
v 1.1079561 -2.7335310 0.7622436
vn -1.0000000 0.0000000 0.0000000
vt 0.1472621 0.4140782
v 1.1079561 -2.6824360 0.9529349
vn -1.0000000 0.0000000 0.0000000
vt 0.1426551 0.4312689
v 1.3359710 -2.7335310 0.7622436
vn 1.0000000 0.0000000 0.0000000
vt 0.0035411 0.4140635
v 1.3359710 -2.6824360 0.5715505
vn 1.0000000 0.0000000 0.0000000
vt 0.0081481 0.3968728
v 1.3359710 -2.6824360 0.9529349
vn 1.0000000 0.0000000 0.0000000
vt 0.0081481 0.4312562
v 1.1079561 -2.3521450 0.3808551
vn -1.0000000 0.0000000 0.0000000
vt 0.1128808 0.3796917
v 1.1079561 -2.3521450 1.1436280
vn -1.0000000 0.0000000 0.0000000
vt 0.1128808 0.4484595
v 1.1079561 -2.1614499 0.4319502
vn -1.0000000 0.0000000 0.0000000
vt 0.0956881 0.3842986
v 1.3359710 -2.3521450 1.1436280
vn 1.0000000 0.0000000 0.0000000
vt 0.0379224 0.4484500
v 1.3359710 -2.3521450 0.3808551
vn 1.0000000 0.0000000 0.0000000
vt 0.0379224 0.3796822
v 1.3359710 -2.1614499 1.0925320
vn 1.0000000 0.0000000 0.0000000
vt 0.0551162 0.4438431
v 1.1079561 -2.1614499 1.0925320
vn -1.0000000 0.0000000 0.0000000
vt 0.0956881 0.4438525
v 1.1079561 -2.0218530 0.5715504
vn -1.0000000 0.0000000 0.0000000
vt 0.0831033 0.3968844
v 1.3359710 -2.1614499 0.4319502
vn 1.0000000 0.0000000 0.0000000
vt 0.0551162 0.3842891
v 1.3359710 -2.0218530 0.9529348
vn 1.0000000 0.0000000 0.0000000
vt 0.0677030 0.4312562
v 1.1079561 -2.5428391 0.4319503
vn -1.0000000 0.0000000 0.0000000
vt 0.1300746 0.3842986
v 1.1079561 -2.5428391 1.0925320
vn -1.0000000 0.0000000 0.0000000
vt 0.1300746 0.4438525
v 1.3359710 -2.5428391 1.0925320
vn 1.0000000 0.0000000 0.0000000
vt 0.0207349 0.4438431
v 1.3359710 -2.5428391 0.4319503
vn 1.0000000 0.0000000 0.0000000
vt 0.0207349 0.3842891
v 1.1079561 -2.0218530 0.9529348
vn -1.0000000 0.0000000 0.0000000
vt 0.0831033 0.4312689
v 1.1079561 -1.9707590 0.7622434
vn -1.0000000 0.0000000 0.0000000
vt 0.0784964 0.4140782
v 1.3359710 -2.0218530 0.5715504
vn 1.0000000 0.0000000 0.0000000
vt 0.0677030 0.3968728
v 1.3359710 -1.9707590 0.7622431
vn 1.0000000 0.0000000 0.0000000
vt 0.0723100 0.4140635
v 1.1079561 -2.3521450 1.1436280
vn 0.0000000 0.0000001 1.0000000
vt 0.1104688 0.5821941
v 1.1079561 -2.3521450 0.3808551
vn 0.0000000 -0.0000003 -1.0000000
vt 0.1104688 0.5821941

g group_110_107202387869696
f 1/1/1 2/2/2 3/3/3 
f 4/4/4 5/5/5 1/1/1 
f 6/6/6 7/7/7 4/4/4 
f 8/8/8 9/9/9 10/10/10 
f 11/11/11 12/12/12 8/8/8 
f 13/13/13 14/14/14 11/11/11 
f 15/15/15 16/16/16 13/13/13 
f 17/17/17 18/18/18 15/15/15 
f 19/19/19 20/20/20 17/17/17 
f 21/21/21 22/22/22 23/23/23 
f 24/24/24 25/25/25 21/21/21 
f 3/3/3 26/26/26 24/24/24 
f 27/27/27 28/28/28 29/29/29 
f 30/30/30 31/31/31 32/32/32 
f 33/33/33 34/34/34 35/35/35 
f 36/36/36 37/37/37 38/38/38 
f 35/35/35 39/39/39 40/40/40 
f 38/38/38 41/41/41 42/42/42 
f 43/43/43 44/44/44 33/33/33 
f 45/45/45 46/46/46 36/36/36 
f 27/27/27 29/29/29 43/43/43 
f 32/32/32 31/31/31 45/45/45 
f 40/40/40 47/47/47 48/48/48 
f 42/42/42 49/49/49 50/50/50 
f 2/2/2 1/1/1 5/5/5 
f 5/5/5 4/4/4 7/7/7 
f 7/7/7 6/6/6 51/51/51 
f 9/9/9 8/8/8 12/12/12 
f 12/12/12 11/11/11 14/14/14 
f 14/14/14 13/13/13 16/16/16 
f 16/16/16 15/15/15 18/18/18 
f 18/18/18 17/17/17 20/20/20 
f 20/20/20 19/19/19 52/52/52 
f 22/22/22 21/21/21 25/25/25 
f 25/25/25 24/24/24 26/26/26 
f 26/26/26 3/3/3 2/2/2 
f 35/35/35 34/34/34 39/39/39 
f 38/38/38 37/37/37 41/41/41 
f 40/40/40 39/39/39 47/47/47 
f 42/42/42 41/41/41 49/49/49 
f 33/33/33 44/44/44 34/34/34 
f 36/36/36 46/46/46 37/37/37 
f 43/43/43 29/29/29 44/44/44 
f 45/45/45 31/31/31 46/46/46 
