v -0.9291394 -1.3929980 0.1054837
vn 0.9809352 0.0041147 0.1942918
vt 0.9958225 0.4761401
v -0.9147218 -1.3929980 0.0326733
vn 0.9809427 0.0028095 0.1942771
vt 0.8710070 0.4761401
v -0.9147218 1.7854290 0.0326733
vn 0.9809532 0.0000000 0.1942443
vt 0.8711454 5.3623319
v -0.9291394 1.7854290 0.1054837
vn 0.9809532 0.0000000 0.1942443
vt 0.9959610 5.3623319
v -0.9441728 1.7854290 0.0326733
vn -0.9793425 0.0000000 0.2022084
vt 0.8711454 5.3623319
v -0.9441728 -1.3928670 0.0326733
vn -0.9793425 0.0000000 0.2022084
vt 0.8710070 0.4761401
v -0.9291394 -1.3929980 0.1054837
vn -0.9793425 0.0000000 0.2022084
vt 0.9958225 0.4761401
v -0.9291394 1.7854290 0.1054837
vn -0.9793425 0.0000000 0.2022084
vt 0.9959610 5.3623319
v -0.9291394 -1.5547900 0.1585240
vn 0.9805555 0.1104947 0.1621784
vt 0.9958225 0.1247372
v -0.9147218 -1.5955679 0.0997534
vn 0.9805565 0.1107288 0.1620125
vt 0.8710070 0.1247372
v -0.9291394 -1.6594650 0.2881079
vn 0.9807337 0.1816975 0.0717459
vt 0.9958225 -0.2092451
v -0.9147219 -1.7261781 0.2589406
vn 0.9807406 0.1807192 0.0740840
vt 0.8710070 -0.2092451
v -0.9291394 -1.6719160 0.4504112
vn 0.9801230 0.1943659 -0.0397596
vt 0.9958225 -0.5455496
v -0.9147218 -1.7418480 0.4641362
vn 0.9801240 0.1944572 -0.0392870
vt 0.8710070 -0.5455496
v -0.9291393 -1.5975330 0.5944737
vn 0.9808874 0.1353189 -0.1398172
vt 0.9958225 -0.8822826
v -0.9147218 -1.6464540 0.6484000
vn 0.9808964 0.1333223 -0.1416599
vt 0.8710070 -0.8822826
v -0.9291394 -1.4425451 0.6684982
vn 0.9800391 0.0126340 -0.1984032
vt 0.9958225 -1.2202170
v -0.9147217 -1.4565570 0.7384283
vn 0.9800265 0.0121502 -0.1984954
vt 0.8710070 -1.2202170
v -0.9293022 -0.5718481 0.6506648
vn 0.9794774 -0.0038482 -0.2015175
vt 0.9958225 -2.6463840
v -0.9148845 -0.5825320 0.7213610
vn 0.9794774 -0.0038482 -0.2015175
vt 0.8710070 -2.6506519
v -1.1221060 1.7854290 0.0000000
vn 0.0000000 0.0000000 -1.0000000
vt 0.4789612 5.3623319
v -0.8782824 1.7854290 0.0000000
vn 0.0000000 0.0000000 -1.0000000
vt 0.8569589 5.3623319
v -1.1221060 -1.3929980 0.0000000
vn 0.0000000 -0.0215820 -0.9997671
vt 0.4801111 0.4761401
v -0.8782824 -1.3929980 0.0000000
vn 0.0000000 -0.0215820 -0.9997671
vt 0.8581088 0.4761401
v -1.1221060 1.7854290 0.0347711
vn -1.0000000 0.0000000 0.0000000
vt 0.4263919 5.3623319
v -1.1221060 1.7854290 0.0000000
vn -1.0000000 0.0000000 0.0000000
vt 0.4789612 5.3623319
v -1.1221060 -1.3929980 0.0347711
vn -1.0000000 0.0000000 0.0000000
vt 0.4275418 0.4761401
v -1.1221060 -1.3929980 0.0000000
vn -1.0000000 0.0000000 0.0000000
vt 0.4801111 0.4761401
v -0.8782824 1.7854290 0.0347711
vn 0.0000000 0.0000000 1.0000000
vt 0.0515369 5.3623319
v -1.1221060 1.7854290 0.0347711
vn 0.0000000 0.0000000 1.0000000
vt 0.4263919 5.3623319
v -0.8782824 -1.3928670 0.0347711
vn 0.0000000 0.0197110 0.9998057
vt 0.0526867 0.4761401
v -1.1221060 -1.3929980 0.0347711
vn 0.0000000 0.0197361 0.9998052
vt 0.4275418 0.4761401
v -1.0751480 -1.3929980 0.1054837
vn -0.9809352 0.0041147 0.1942918
vt 0.9958225 0.4761401
v -1.0751480 1.7854290 0.1054837
vn -0.9809532 0.0000000 0.1942443
vt 0.9959610 5.3623319
v -1.0895660 1.7854290 0.0326733
vn -0.9809532 0.0000000 0.1942443
vt 0.8711454 5.3623319
v -1.0895660 -1.3929980 0.0326733
vn -0.9809427 0.0028095 0.1942771
vt 0.8710070 0.4761401
v -0.8782824 1.7854290 0.0347711
vn 1.0000000 0.0000000 0.0000000
vt 0.0515369 5.3623319
v -0.8782824 -1.3928670 0.0347711
vn 1.0000000 0.0000000 0.0000000
vt 0.0526867 0.4761401
v -0.8782824 1.7854290 0.0000000
vn 1.0000000 0.0000000 0.0000000
vt -0.0003133 5.3623319
v -0.8782824 -1.3929980 0.0000000
vn 1.0000000 0.0000000 0.0000000
vt 0.0008366 0.4761401
v -1.0601150 1.7854290 0.0326733
vn 0.9793426 0.0000000 0.2022084
vt 0.8711454 5.3623319
v -1.0751480 1.7854290 0.1054837
vn 0.9793425 0.0000000 0.2022084
vt 0.9959610 5.3623319
v -1.0751480 -1.3929980 0.1054837
vn 0.9793425 0.0000000 0.2022084
vt 0.9958225 0.4761401
v -1.0601150 -1.3928670 0.0326733
vn 0.9793425 0.0000000 0.2022084
vt 0.8710070 0.4761401
v -0.8782824 -1.6138670 0.0733798
vn 0.0000000 -0.5606447 -0.8280565
vt 0.8581088 0.1247372
v -1.1221060 -1.6138670 0.0733798
vn 0.0000000 -0.5606447 -0.8280565
vt 0.4801111 0.1247372
v -0.8782824 -1.5943930 0.1014468
vn 1.0000000 0.0000000 0.0000000
vt 0.0526868 0.1247372
v -0.8782824 -1.6138670 0.0733798
vn 1.0000000 0.0000000 0.0000000
vt 0.0008366 0.1247372
v -1.1221060 -1.6138670 0.0733798
vn -1.0000000 0.0000000 0.0000000
vt 0.4801111 0.1247372
v -1.1221060 -1.5943930 0.1014468
vn -1.0000000 0.0000000 0.0000000
vt 0.4275418 0.1247372
v -1.1221060 -1.5943930 0.1014468
vn 0.0000000 0.5618225 0.8272578
vt 0.4275418 0.1247372
v -0.8782824 -1.5943930 0.1014468
vn 0.0000000 0.5617399 0.8273139
vt 0.0526868 0.1247372
v -1.0895660 -1.5955679 0.0997534
vn -0.9805565 0.1107290 0.1620125
vt 0.8710070 0.1247372
v -1.0751480 -1.5547900 0.1585240
vn -0.9805555 0.1104949 0.1621783
vt 0.9958225 0.1247372
v -0.8782824 -1.7561150 0.2458517
vn 0.0000000 -0.9279941 -0.3725950
vt 0.8581088 -0.2092451
v -1.1221060 -1.7561150 0.2458517
vn 0.0000000 -0.9279940 -0.3725953
vt 0.4801111 -0.2092451
v -0.8782824 -1.7242550 0.2597810
vn 1.0000000 0.0000000 0.0000000
vt 0.0526868 -0.2092451
v -0.8782824 -1.7561150 0.2458517
vn 1.0000000 0.0000000 0.0000000
vt 0.0008366 -0.2092451
v -1.1221060 -1.7561150 0.2458517
vn -1.0000000 0.0000000 0.0000000
vt 0.4801111 -0.2092451
v -1.1221050 -1.7242550 0.2597810
vn -1.0000000 0.0000000 0.0000000
vt 0.4275418 -0.2092451
v -1.1221050 -1.7242550 0.2597810
vn 0.0000000 0.9280143 0.3725446
vt 0.4275418 -0.2092451
v -0.8782824 -1.7242550 0.2597810
vn 0.0000000 0.9280143 0.3725446
vt 0.0526868 -0.2092451
v -1.0895660 -1.7261781 0.2589406
vn -0.9807405 0.1807196 0.0740840
vt 0.8710070 -0.2092451
v -1.0751480 -1.6594650 0.2881079
vn -0.9807336 0.1816979 0.0717459
vt 0.9958225 -0.2092451
v -0.8782825 -1.7732300 0.4702954
vn 0.0000000 -0.9795263 0.2013161
vt 0.8581088 -0.5455496
v -1.1221060 -1.7732300 0.4702954
vn 0.0000000 -0.9795263 0.2013163
vt 0.4801111 -0.5455496
v -0.8782825 -1.7398330 0.4637408
vn 1.0000000 0.0000000 0.0000000
vt 0.0526868 -0.5455496
v -0.8782825 -1.7732300 0.4702954
vn 1.0000000 0.0000000 0.0000000
vt 0.0008366 -0.5455496
v -1.1221060 -1.7732300 0.4702954
vn -1.0000000 0.0000000 0.0000000
vt 0.4801111 -0.5455496
v -1.1221060 -1.7398330 0.4637408
vn -1.0000000 0.0000000 0.0000000
vt 0.4275418 -0.5455496
v -1.1221060 -1.7398330 0.4637408
vn 0.0000000 0.9796959 -0.2004892
vt 0.4275418 -0.5455496
v -0.8782825 -1.7398330 0.4637408
vn 0.0000000 0.9796958 -0.2004898
vt 0.0526868 -0.5455496
v -1.0895660 -1.7418480 0.4641362
vn -0.9801240 0.1944571 -0.0392870
vt 0.8710070 -0.5455496
v -1.0751480 -1.6719160 0.4504112
vn -0.9801230 0.1943658 -0.0397596
vt 0.9958225 -0.5455496
v -0.8782824 -1.6684080 0.6725996
vn 0.0000000 -0.6943914 0.7195975
vt 0.8581088 -0.8822826
v -1.1221060 -1.6684080 0.6725996
vn 0.0000000 -0.6943915 0.7195974
vt 0.4801111 -0.8822826
v -0.8782825 -1.6450440 0.6468462
vn 1.0000000 0.0000000 0.0000000
vt 0.0526868 -0.8822826
v -0.8782824 -1.6684080 0.6725996
vn 1.0000000 0.0000000 0.0000000
vt 0.0008366 -0.8822826
v -1.1221060 -1.6684080 0.6725996
vn -1.0000000 0.0000000 0.0000000
vt 0.4801111 -0.8822826
v -1.1221060 -1.6450440 0.6468462
vn -1.0000000 0.0000000 0.0000000
vt 0.4275418 -0.8822826
v -1.1221060 -1.6450440 0.6468462
vn 0.0000000 0.6929811 -0.7209558
vt 0.4275418 -0.8822826
v -0.8782825 -1.6450440 0.6468462
vn -0.0002105 0.6928111 -0.7211192
vt 0.0526868 -0.8822826
v -1.0895660 -1.6464540 0.6484000
vn -0.9808964 0.1333224 -0.1416599
vt 0.8710070 -0.8822826
v -1.0751480 -1.5975330 0.5944737
vn -0.9808874 0.1353189 -0.1398172
vt 0.9958225 -0.8822826
v -0.8782823 -1.4628440 0.7698096
vn 0.0000000 -0.0699595 0.9975498
vt 0.8581088 -1.2202170
v -1.1221060 -1.4628440 0.7698096
vn 0.0000000 -0.0699778 0.9975486
vt 0.4801111 -1.2202170
v -0.8782825 -1.4560720 0.7362572
vn 1.0000000 -0.0001490 -0.0001300
vt 0.0526868 -1.2202170
v -0.8782823 -1.4628440 0.7698096
vn 1.0000000 -0.0001507 0.0000000
vt 0.0008366 -1.2202170
v -1.1221060 -1.4628440 0.7698096
vn -1.0000000 0.0001515 0.0000000
vt 0.4801111 -1.2202170
v -1.1221060 -1.4561530 0.7364133
vn -1.0000000 0.0001510 0.0000000
vt 0.4275418 -1.2202170
v -1.1221060 -1.4561530 0.7364133
vn -0.0005831 0.0655568 -0.9978487
vt 0.4275418 -1.2202170
v -0.8782825 -1.4560720 0.7362572
vn -0.0045017 0.0643529 -0.9979171
vt 0.0526868 -1.2202170
v -1.0895660 -1.4565570 0.7384283
vn -0.9800265 0.0121503 -0.1984954
vt 0.8710070 -1.2202170
v -1.0751480 -1.4425451 0.6684982
vn -0.9800391 0.0126341 -0.1984031
vt 0.9958225 -1.2202170
v -1.2824171 0.6711105 0.2052782
vn -0.9225352 -0.0920890 -0.3747644
vt 0.8581088 -5.0356178
v -1.1884120 0.6278381 -0.0154943
vn -0.9466236 0.0067743 -0.3222700
vt 0.4801111 -5.0356178
v -1.2759240 0.4717683 0.2382785
vn -0.9798831 -0.0345350 -0.1965620
vt 0.8581088 -4.6861801
v -1.2136000 0.4176885 0.0095778
vn -0.9588287 0.0645363 -0.2765546
vt 0.4801111 -4.7056432
v -1.2824171 0.6711105 0.2052782
vn -0.3879096 0.1382234 0.9112741
vt 0.0008366 -5.0356178
v -1.2759240 0.4717683 0.2382785
vn -0.2605404 0.2134415 0.9415739
vt 0.0008366 -4.7136941
v -1.2541749 0.6711866 0.2172884
vn -0.3758391 0.1374502 0.9164346
vt 0.0526868 -5.0356178
v -1.2463890 0.4739597 0.2456950
vn -0.2366811 0.2324931 0.9433605
vt 0.0526868 -4.7078338
v -1.1601710 0.6279141 -0.0034842
vn 0.3881093 -0.1343293 -0.9117713
vt 0.4275418 -5.0356178
v -1.1840650 0.4198801 0.0169943
vn 0.2590895 -0.2297721 -0.9381244
vt 0.4275418 -4.7121658
v -1.1884120 0.6278381 -0.0154943
vn 0.3764202 -0.1353146 -0.9165139
vt 0.4801111 -5.0356178
v -1.2136000 0.4176885 0.0095778
vn 0.2388508 -0.2468876 -0.9391469
vt 0.4801111 -4.7056432
v -1.2541749 0.6711866 0.2172884
vn 0.9225625 0.0904472 0.3750969
vt 0.0526868 -5.0356178
v -1.2463890 0.4739597 0.2456950
vn 0.9511863 0.1607256 0.2634614
vt 0.0526868 -4.7078338
v -1.1601710 0.6279141 -0.0034842
vn 0.9466701 -0.0088589 0.3220826
vt 0.4275418 -5.0356178
v -1.1840650 0.4198801 0.0169943
vn 0.9857719 -0.0323302 0.1649504
vt 0.4275418 -4.7121658
v -1.1329930 0.4349754 0.0768783
vn -0.0765300 0.1333585 0.9881086
vt 0.9958225 -4.7161760
v -1.1179620 0.6124402 0.0646833
vn -0.1015381 0.1043922 0.9893394
vt 0.9982505 -4.9997492
v -1.1840709 0.6149459 0.0526460
vn -0.1015381 0.1043922 0.9893394
vt 0.8741691 -4.9987850
v -1.1999110 0.4336295 0.0751403
vn -0.0230183 0.1600740 0.9868366
vt 0.8710070 -4.7055068
v -0.8781195 -0.5873264 0.7484273
vn -0.0001405 0.0090006 0.9999595
vt 0.8581088 -2.6631370
v -1.1219430 -0.5873264 0.7484273
vn 0.0000000 0.0114125 0.9999349
vt 0.4801111 -2.6692679
v -0.8782824 -0.5811154 0.7099429
vn 0.9999757 0.0062295 -0.0031453
vt 0.0526868 -2.6634531
v -0.8781195 -0.5873264 0.7484273
vn 0.9999833 0.0046839 -0.0034117
vt 0.0008366 -2.6650989
v -1.1219430 -0.5873264 0.7484273
vn -0.9999893 0.0045761 0.0007365
vt 0.4801111 -2.6692679
v -1.1219430 -0.5822241 0.7167168
vn -0.9999808 0.0061515 0.0007624
vt 0.4275418 -2.6680801
v -1.1219430 -0.5822241 0.7167168
vn -0.0238201 -0.0140399 -0.9996177
vt 0.4275418 -2.6680801
v -0.8782824 -0.5811154 0.7099429
vn -0.0279352 -0.0125738 -0.9995307
vt 0.0526868 -2.6634531
v -1.0894030 -0.5825320 0.7213610
vn -0.9796524 0.0018792 -0.2006929
vt 0.8710070 -2.6506519
v -1.0749860 -0.5718481 0.6506648
vn -0.9797001 0.0036597 -0.2004352
vt 0.9958225 -2.6463840
v -1.1221060 1.7854290 0.0000000
vn 0.0000000 1.0000000 0.0000000
vt 0.4844620 0.3506886
v -1.1221060 1.7854290 0.0347711
vn 0.0000000 1.0000000 0.0000000
vt 0.4844623 0.3769732
v -0.8782824 1.7854290 0.0000000
vn 0.0000000 1.0000000 0.0000000
vt 0.8559947 0.3506886
v -0.8782824 1.7854290 0.0347711
vn 0.0000000 1.0000000 0.0000000
vt 0.8559947 0.3769732
v -0.8842630 -0.3340487 0.7623112
vn -0.0654371 0.1130758 0.9914292
vt 0.8581088 -3.0270410
v -1.1165310 -0.4080933 0.7579957
vn -0.0424103 0.0764214 0.9961733
vt 0.4801111 -2.9500079
v -0.8841924 -0.3318932 0.7248947
vn 0.9989278 0.0450370 0.0107247
vt 0.0526868 -3.0506310
v -0.8842630 -0.3340487 0.7623112
vn 0.9992135 0.0394623 0.0038985
vt 0.0008366 -3.0436668
v -1.1162980 -0.4070379 0.7273255
vn -0.9997296 -0.0152211 -0.0175844
vt 0.4275418 -2.9625199
v -1.1165310 -0.4080933 0.7579957
vn -0.9999746 -0.0021515 -0.0067939
vt 0.4801111 -2.9500079
v -0.8841924 -0.3318932 0.7248947
vn 0.0381648 -0.0918358 -0.9950426
vt 0.0526868 -3.0506310
v -1.1162980 -0.4070379 0.7273255
vn 0.0107148 -0.0631633 -0.9979457
vt 0.4275418 -2.9625199
v -1.0853000 -0.3971563 0.7322475
vn -0.9743968 0.0010493 -0.2248331
vt 0.8710070 -2.9061861
v -1.0710670 -0.3905241 0.6626569
vn -0.9702518 -0.0179502 -0.2414317
vt 0.9958225 -2.9370680
v -0.8948737 -0.1932261 0.7164943
vn -0.1681663 0.3588541 0.9181197
vt 0.8581088 -3.2124619
v -1.1245170 -0.2745132 0.7062036
vn -0.2471166 0.4197708 0.8733419
vt 0.4801111 -3.1902447
v -0.8884644 -0.2080277 0.6903857
vn 0.9656476 0.2392469 0.1014177
vt 0.0526868 -3.2334590
v -0.8948737 -0.1932261 0.7164943
vn 0.9593417 0.2707708 0.0796661
vt 0.0008366 -3.2407398
v -1.1181080 -0.2893148 0.6800951
vn -0.9597439 -0.2607057 -0.1045192
vt 0.4275418 -3.1912341
v -1.1245170 -0.2745132 0.7062036
vn -0.9661973 -0.2437156 -0.0840568
vt 0.4801111 -3.1902447
v -0.8884644 -0.2080277 0.6903857
vn 0.2561840 -0.3591871 -0.8974154
vt 0.0526868 -3.2334590
v -1.1181080 -0.2893148 0.6800951
vn 0.1933241 -0.5038255 -0.8418941
vt 0.4275418 -3.1912341
v -1.0874610 -0.2784666 0.6814684
vn -0.8938665 -0.3178128 -0.3162240
vt 0.8710070 -3.0843792
v -1.0601940 -0.3052705 0.6263188
vn -0.8884154 -0.3324171 -0.3165707
vt 0.9958225 -3.0886593
v -1.1641040 -0.1748347 0.6002821
vn -0.5487530 0.5096917 0.6626346
vt 0.4801111 -3.4465027
v -0.9595005 -0.0476074 0.6377025
vn -0.3430936 0.4402342 0.8297474
vt 0.8581088 -3.4426012
v -0.9595005 -0.0476074 0.6377025
vn 0.8169799 0.5635666 0.1222150
vt 0.0008366 -3.4894114
v -0.9444442 -0.0661542 0.6184373
vn 0.8401496 0.5263482 0.1307908
vt 0.0526868 -3.4742098
v -1.1490480 -0.1933816 0.5810169
vn -0.8230460 -0.5512537 -0.1368020
vt 0.4275418 -3.4469309
v -1.1641040 -0.1748347 0.6002821
vn -0.8370578 -0.5348037 -0.1154091
vt 0.4801111 -3.4465027
v -0.9444442 -0.0661542 0.6184373
vn 0.4778363 -0.3665917 -0.7983001
vt 0.0526868 -3.4742098
v -1.1490480 -0.1933816 0.5810169
vn 0.4222699 -0.6036233 -0.6762596
vt 0.4275418 -3.4469309
v -1.1257000 -0.1717827 0.5880109
vn -0.7020152 -0.6323938 -0.3274947
vt 0.8710070 -3.2984428
v -1.0774890 -0.2084882 0.5470806
vn -0.7127196 -0.6206472 -0.3268455
vt 0.9958225 -3.2895947
v -1.2064260 -0.1035990 0.4641953
vn -0.7956855 0.3889520 0.4643285
vt 0.4801111 -3.7049580
v -1.0461420 0.0659227 0.5350554
vn -0.6047167 0.4004197 0.6884634
vt 0.8581088 -3.6931429
v -1.0461420 0.0659227 0.5350554
vn 0.6148470 0.7454486 0.2574290
vt 0.0008366 -3.7542362
v -1.0304450 0.0619806 0.5089804
vn 0.6082938 0.7512397 0.2561593
vt 0.0526868 -3.7663350
v -1.1907290 -0.1075410 0.4381204
vn -0.6166504 -0.7376257 -0.2750466
vt 0.4275418 -3.7319517
v -1.2064260 -0.1035990 0.4641953
vn -0.6374223 -0.7275411 -0.2537259
vt 0.4801111 -3.7049580
v -1.1907290 -0.1075410 0.4381204
vn 0.6851815 -0.5315618 -0.4979642
vt 0.4275418 -3.7319517
v -1.1693380 -0.0849175 0.4475771
vn -0.5026489 -0.7739491 -0.3851583
vt 0.8710070 -3.5694261
v -1.1263380 -0.0833120 0.3960812
vn -0.3844008 -0.8147285 -0.4341125
vt 0.9958225 -3.6323042
v -1.2449460 0.0215845 0.2163225
vn -0.9441412 0.1485709 0.2941498
vt 0.4801111 -4.1052022
v -1.1370960 0.1850229 0.3806773
vn -0.8226982 0.1541488 0.5471799
vt 0.8581088 -4.0437899
v -1.1115839 0.1842695 0.3636364
vn 0.3871285 0.7424254 0.5467505
vt 0.0526868 -4.1052399
v -1.1370960 0.1850229 0.3806773
vn 0.3914424 0.7302669 0.5598958
vt 0.0008366 -4.1106839
v -1.2194340 0.0208311 0.1992817
vn -0.3935293 -0.7019569 -0.5936254
vt 0.4275418 -4.1197801
v -1.2449460 0.0215845 0.2163225
vn -0.3820159 -0.7638923 -0.5201273
vt 0.4801111 -4.1052022
v -1.2194340 0.0208311 0.1992817
vn 0.8610351 -0.3060943 -0.4061095
vt 0.4275418 -4.1197801
v -1.0304450 0.0619806 0.5089804
vn 0.7355587 -0.3135565 -0.6005294
vt 0.0526868 -3.7663350
v -1.2052799 0.0420046 0.2195345
vn -0.2200587 -0.7341018 -0.6423931
vt 0.8710070 -4.0252361
v -1.1445251 0.0497772 0.1921153
vn -0.1846634 -0.6676837 -0.7211781
vt 0.9958225 -4.0589752
v -1.2496470 0.1824617 0.0934684
vn -0.9998609 -0.0059189 -0.0155906
vt 0.4801111 -4.3633809
v -1.2281400 0.2987346 0.3120503
vn -0.9421427 -0.1385935 0.3052198
vt 0.8581088 -4.3293490
v -1.2281400 0.2987346 0.3120503
vn 0.0731041 0.4341996 0.8978455
vt 0.0008366 -4.3961120
v -1.1982640 0.3032550 0.3066804
vn 0.1087717 0.4684942 0.8767450
vt 0.0526868 -4.3824029
v -1.2197710 0.1869820 0.0880984
vn -0.0858793 -0.4085727 -0.9086766
vt 0.4275418 -4.3738718
v -1.2496470 0.1824617 0.0934684
vn -0.1108038 -0.4516396 -0.8852933
vt 0.4801111 -4.3633809
v -1.1982640 0.3032550 0.3066804
vn 0.9695871 0.2262833 -0.0932560
vt 0.0526868 -4.3824029
v -1.1115839 0.1842695 0.3636364
vn 0.8914097 0.0290501 -0.4522665
vt 0.0526868 -4.1052399
v -1.2197710 0.1869820 0.0880984
vn 0.9787798 -0.1004825 -0.1785873
vt 0.4275418 -4.3738718
v -1.2147120 0.2174186 0.1418649
vn 0.3568075 0.3283947 0.8745543
vt 0.8710070 -4.3381462
v -1.1445251 0.0497772 0.1921153
vn 0.5586116 0.4153908 0.7179161
vt 0.9958225 -4.0589752
v -1.1521360 0.2196911 0.1173575
vn 0.3172610 0.3127766 0.8952744
vt 0.9958225 -4.3582029
v -1.1924700 0.0611686 0.2378653
vn 0.6687182 0.4560053 0.5872608
vt 0.8710070 -4.0250902
v -1.2171150 0.2029585 0.1163209
vn -0.0908094 -0.4758894 -0.8748046
vt 0.8710070 -4.3309369
v -1.1521360 0.2196911 0.1173575
vn -0.0908094 -0.4758894 -0.8748045
vt 0.9958225 -4.3582029
v -1.2824171 0.6711105 0.2052782
vn 0.0672105 0.9841225 -0.1642733
vt 0.4845526 0.3507551
v -1.2541749 0.6711866 0.2172884
vn 0.0672105 0.9841225 -0.1642733
vt 0.4845526 0.3770398
v -1.1884120 0.6278381 -0.0154943
vn 0.0672103 0.9841225 -0.1642737
vt 0.8570765 0.3507555
v -1.1601710 0.6279141 -0.0034842
vn 0.0672103 0.9841225 -0.1642737
vt 0.8570765 0.3770402

g group_70_106102878300416
f 1/1/1 2/2/2 3/3/3 
f 1/1/1 3/3/3 4/4/4 
f 5/5/5 6/6/6 7/7/7 
f 5/5/5 7/7/7 8/8/8 
f 1/1/1 9/9/9 10/10/10 
f 1/1/1 10/10/10 2/2/2 
f 9/9/9 11/11/11 12/12/12 
f 9/9/9 12/12/12 10/10/10 
f 11/11/11 13/13/13 14/14/14 
f 11/11/11 14/14/14 12/12/12 
f 14/14/14 13/13/13 15/15/15 
f 14/14/14 15/15/15 16/16/16 
f 15/15/15 17/17/17 18/18/18 
f 15/15/15 18/18/18 16/16/16 
f 17/17/17 19/19/19 20/20/20 
f 17/17/17 20/20/20 18/18/18 
f 21/21/21 22/22/22 23/23/23 
f 23/23/23 22/22/22 24/24/24 
f 25/25/25 26/26/26 27/27/27 
f 27/27/27 26/26/26 28/28/28 
f 29/29/29 30/30/30 31/31/31 
f 31/31/31 30/30/30 32/32/32 
f 33/33/33 34/34/34 35/35/35 
f 33/33/33 35/35/35 36/36/36 
f 37/37/37 38/38/38 39/39/39 
f 39/39/39 38/38/38 40/40/40 
f 41/41/41 42/42/42 43/43/43 
f 41/41/41 43/43/43 44/44/44 
f 24/24/24 45/45/45 23/23/23 
f 23/23/23 45/45/45 46/46/46 
f 47/47/47 48/48/48 38/38/38 
f 38/38/38 48/48/48 40/40/40 
f 28/28/28 49/49/49 27/27/27 
f 27/27/27 49/49/49 50/50/50 
f 32/32/32 51/51/51 31/31/31 
f 31/31/31 51/51/51 52/52/52 
f 33/33/33 36/36/36 53/53/53 
f 33/33/33 53/53/53 54/54/54 
f 45/45/45 55/55/55 46/46/46 
f 46/46/46 55/55/55 56/56/56 
f 47/47/47 57/57/57 48/48/48 
f 48/48/48 57/57/57 58/58/58 
f 59/59/59 60/60/60 49/49/49 
f 49/49/49 60/60/60 50/50/50 
f 51/51/51 61/61/61 52/52/52 
f 52/52/52 61/61/61 62/62/62 
f 54/54/54 53/53/53 63/63/63 
f 54/54/54 63/63/63 64/64/64 
f 55/55/55 65/65/65 56/56/56 
f 56/56/56 65/65/65 66/66/66 
f 67/67/67 68/68/68 57/57/57 
f 57/57/57 68/68/68 58/58/58 
f 59/59/59 69/69/69 60/60/60 
f 60/60/60 69/69/69 70/70/70 
f 61/61/61 71/71/71 62/62/62 
f 62/62/62 71/71/71 72/72/72 
f 64/64/64 63/63/63 73/73/73 
f 64/64/64 73/73/73 74/74/74 
f 65/65/65 75/75/75 66/66/66 
f 66/66/66 75/75/75 76/76/76 
f 67/67/67 77/77/77 68/68/68 
f 68/68/68 77/77/77 78/78/78 
f 79/79/79 80/80/80 69/69/69 
f 69/69/69 80/80/80 70/70/70 
f 71/71/71 81/81/81 72/72/72 
f 72/72/72 81/81/81 82/82/82 
f 73/73/73 83/83/83 84/84/84 
f 73/73/73 84/84/84 74/74/74 
f 75/75/75 85/85/85 76/76/76 
f 76/76/76 85/85/85 86/86/86 
f 87/87/87 88/88/88 77/77/77 
f 77/77/77 88/88/88 78/78/78 
f 79/79/79 89/89/89 80/80/80 
f 80/80/80 89/89/89 90/90/90 
f 81/81/81 91/91/91 82/82/82 
f 82/82/82 91/91/91 92/92/92 
f 84/84/84 83/83/83 93/93/93 
f 84/84/84 93/93/93 94/94/94 
f 95/95/95 96/96/96 97/97/97 
f 97/97/97 96/96/96 98/98/98 
f 99/99/99 100/100/100 101/101/101 
f 101/101/101 100/100/100 102/102/102 
f 103/103/103 104/104/104 105/105/105 
f 105/105/105 104/104/104 106/106/106 
f 107/107/107 108/108/108 109/109/109 
f 109/109/109 108/108/108 110/110/110 
f 111/111/111 112/112/112 113/113/113 
f 111/111/111 113/113/113 114/114/114 
f 115/115/115 116/116/116 85/85/85 
f 85/85/85 116/116/116 86/86/86 
f 117/117/117 118/118/118 87/87/87 
f 87/87/87 118/118/118 88/88/88 
f 89/89/89 119/119/119 90/90/90 
f 90/90/90 119/119/119 120/120/120 
f 91/91/91 121/121/121 92/92/92 
f 92/92/92 121/121/121 122/122/122 
f 94/94/94 93/93/93 123/123/123 
f 94/94/94 123/123/123 124/124/124 
f 125/125/125 126/126/126 127/127/127 
f 127/127/127 126/126/126 128/128/128 
f 129/129/129 130/130/130 115/115/115 
f 115/115/115 130/130/130 116/116/116 
f 131/131/131 132/132/132 117/117/117 
f 117/117/117 132/132/132 118/118/118 
f 133/133/133 120/120/120 134/134/134 
f 134/134/134 120/120/120 119/119/119 
f 135/135/135 122/122/122 136/136/136 
f 136/136/136 122/122/122 121/121/121 
f 137/137/137 138/138/138 124/124/124 
f 137/137/137 124/124/124 123/123/123 
f 139/139/139 140/140/140 129/129/129 
f 129/129/129 140/140/140 130/130/130 
f 141/141/141 142/142/142 131/131/131 
f 131/131/131 142/142/142 132/132/132 
f 143/143/143 133/133/133 144/144/144 
f 144/144/144 133/133/133 134/134/134 
f 145/145/145 135/135/135 146/146/146 
f 146/146/146 135/135/135 136/136/136 
f 147/147/147 148/148/148 138/138/138 
f 147/147/147 138/138/138 137/137/137 
f 149/149/149 140/140/140 150/150/150 
f 150/150/150 140/140/140 139/139/139 
f 151/151/151 142/142/142 152/152/152 
f 152/152/152 142/142/142 141/141/141 
f 153/153/153 143/143/143 154/154/154 
f 154/154/154 143/143/143 144/144/144 
f 155/155/155 145/145/145 156/156/156 
f 156/156/156 145/145/145 146/146/146 
f 147/147/147 157/157/157 158/158/158 
f 147/147/147 158/158/158 148/148/148 
f 159/159/159 149/149/149 160/160/160 
f 160/160/160 149/149/149 150/150/150 
f 161/161/161 151/151/151 162/162/162 
f 162/162/162 151/151/151 152/152/152 
f 163/163/163 153/153/153 164/164/164 
f 164/164/164 153/153/153 154/154/154 
f 165/165/165 155/155/155 156/156/156 
f 166/166/166 167/167/167 158/158/158 
f 166/166/166 158/158/158 157/157/157 
f 168/168/168 159/159/159 169/169/169 
f 169/169/169 159/159/159 160/160/160 
f 170/170/170 171/171/171 162/162/162 
f 162/162/162 171/171/171 161/161/161 
f 172/172/172 163/163/163 173/173/173 
f 173/173/173 163/163/163 164/164/164 
f 174/174/174 175/175/175 165/165/165 
f 176/176/176 177/177/177 167/167/167 
f 176/176/176 167/167/167 166/166/166 
f 178/178/178 168/168/168 179/179/179 
f 179/179/179 168/168/168 169/169/169 
f 180/180/180 171/171/171 181/181/181 
f 181/181/181 171/171/171 170/170/170 
f 182/182/182 172/172/172 183/183/183 
f 183/183/183 172/172/172 173/173/173 
f 184/184/184 185/185/185 186/186/186 
f 186/186/186 185/185/185 174/174/174 
f 187/187/187 188/188/188 189/189/189 
f 187/187/187 189/189/189 114/114/114 
f 188/188/188 187/187/187 190/190/190 
f 191/191/191 192/192/192 177/177/177 
f 191/191/191 177/177/177 176/176/176 
f 98/98/98 178/178/178 97/97/97 
f 97/97/97 178/178/178 179/179/179 
f 100/100/100 180/180/180 102/102/102 
f 102/102/102 180/180/180 181/181/181 
f 104/104/104 182/182/182 106/106/106 
f 106/106/106 182/182/182 183/183/183 
f 108/108/108 184/184/184 110/110/110 
f 110/110/110 184/184/184 186/186/186 
f 111/111/111 114/114/114 189/189/189 
f 165/165/165 175/175/175 155/155/155 
f 174/174/174 185/185/185 175/175/175 
f 193/193/193 194/194/194 195/195/195 
f 195/195/195 194/194/194 196/196/196 
