v -1.1264989 -1.8052713 0.0453971
vn 0.1912780 -0.3033114 -0.9334961
vt 0.8038068 0.9524629
v -1.1264989 -1.9699469 0.2720535
vn 0.1912782 -0.9815359 0.0000000
vt 0.8038023 0.9310435
v -1.3426331 -1.8789163 0.0693259
vn 0.1305217 -0.6314180 -0.7643791
vt 0.7739763 0.9524629
v -1.3426331 -1.9699469 0.1946185
vn 0.1305219 -0.9220863 -0.3643088
vt 0.7739807 0.9310435
v -1.3426331 -1.9699469 0.1946185
vn 0.1305219 -0.9220863 -0.3643088
vt 0.7739807 0.9310435
v -1.1264989 -1.9699469 0.2720535
vn 0.1912782 -0.9815359 0.0000000
vt 0.8038021 0.9203759
v -1.3426331 -1.9699469 0.3494885
vn 0.1305217 -0.9220863 0.3643089
vt 0.7739816 0.9097084
v -1.1264989 -1.9699469 0.2720535
vn 0.1912782 -0.9815359 0.0000000
vt 0.8038019 0.9097084
v -1.1264989 -1.8052713 0.4987098
vn 0.1912781 -0.3033113 0.9334962
vt 0.8038019 0.8883711
v -1.3426331 -1.9699469 0.3494885
vn 0.1305217 -0.9220863 0.3643089
vt 0.7739816 0.9097084
v -1.3426331 -1.8789163 0.4747811
vn 0.1305213 -0.6314178 0.7643794
vt 0.7739760 0.8883711
v -1.3426331 -1.8789163 0.4747811
vn 0.1305213 -0.6314178 0.7643794
vt 0.7739760 0.8883711
v -1.1264989 -1.8052713 0.4987098
vn 0.1912781 -0.3033113 0.9334962
vt 0.8038040 0.8777034
v -1.3426331 -1.7316262 0.5226386
vn 0.1305219 0.0615372 0.9895338
vt 0.7739781 0.8670356
v -1.1264989 -1.8052713 0.4987098
vn 0.1912781 -0.3033113 0.9334962
vt 0.8038062 0.8670356
v -1.1264989 -1.5388206 0.4121348
vn 0.1912788 0.7940788 0.5769326
vt 0.8038019 0.8457841
v -1.3426331 -1.7316262 0.5226386
vn 0.1305219 0.0615372 0.9895338
vt 0.7739781 0.8670356
v -1.3426331 -1.5843358 0.4747811
vn 0.1305221 0.5318480 0.8367208
vt 0.7739810 0.8457841
v -1.3426331 -1.5843358 0.4747811
vn 0.1305221 0.5318480 0.8367208
vt 0.7739810 0.8457841
v -1.1264989 -1.5388206 0.4121348
vn 0.1912788 0.7940788 0.5769326
vt 0.8038019 0.8564099
v -1.3426331 -1.4933052 0.3494885
vn 0.1305227 0.9601185 0.2472575
vt 0.7739781 0.8670356
v -1.1264989 -1.5388206 0.1319721
vn 0.1912788 0.7940789 -0.5769325
vt 0.8038037 0.8990397
v -1.3426331 -1.4933052 0.1946184
vn 0.1305228 0.9601185 -0.2472575
vt 0.7739799 0.8883711
v -1.3426331 -1.5843358 0.0693258
vn 0.1305221 0.5318481 -0.8367208
vt 0.7739776 0.9097084
v -1.1264989 -1.8052713 0.0453971
vn 0.1912780 -0.3033114 -0.9334961
vt 0.8038033 0.9417532
v -1.3426331 -1.7316262 0.0214683
vn 0.1305218 0.0615372 -0.9895338
vt 0.7739781 0.9310435
v -1.3426331 -1.8789163 0.0693259
vn 0.1305217 -0.6314180 -0.7643791
vt 0.7739787 0.9524629
v -1.1264989 -1.5388206 0.1319721
vn 1.0000000 0.0000000 0.0000000
vt 0.7041456 0.8854950
v -1.1264989 -1.5388206 0.4121348
vn 1.0000000 0.0000000 0.0000000
vt 0.7204807 0.9212833
v -1.1264989 -1.8052713 0.0453971
vn 1.0000000 0.0000000 0.0000000
vt 0.7330779 0.8588740
v -1.1264989 -1.8052713 0.4987098
vn 1.0000000 0.0000000 0.0000000
vt 0.7595097 0.9167809
v -1.1264989 -1.9699469 0.2720535
vn 1.0000000 0.0000000 0.0000000
vt 0.7672954 0.8782095
v -1.3426331 -1.7316262 0.0214683
vn -1.0000000 0.0000000 0.0000000
vt 0.2349408 0.0159260
v -1.3426331 -1.8789163 0.0693259
vn -1.0000000 0.0000000 0.0000000
vt 0.2565836 0.0134298
v -1.3426331 -1.5843358 0.0693258
vn -1.0000000 0.0000000 0.0000000
vt 0.2188970 0.0306889
v -1.3426331 -1.9699469 0.1946185
vn -1.0000000 0.0000000 0.0000000
vt 0.2755583 0.0241517
v -1.3426331 -1.9699469 0.3494885
vn -1.0000000 0.0000000 0.0000000
vt 0.2846173 0.0439973
v -1.3426331 -1.8789163 0.4747811
vn -1.0000000 0.0000000 0.0000000
vt 0.2802995 0.0653868
v -1.3426331 -1.7316262 0.5226386
vn -1.0000000 0.0000000 0.0000000
vt 0.2642555 0.0801490
v -1.3426331 -1.5843358 0.4747811
vn -1.0000000 0.0000000 0.0000000
vt 0.2426125 0.0826456
v -1.3426331 -1.4933052 0.3494885
vn -1.0000000 0.0000000 0.0000000
vt 0.2236379 0.0719235
v -1.3426331 -1.4933052 0.1946184
vn -1.0000000 0.0000000 0.0000000
vt 0.2145798 0.0520774

g group_65221760_140627860548224
f 1/1/1 2/2/2 3/3/3 
f 3/3/3 2/2/2 4/4/4 
f 5/5/5 6/6/6 7/7/7 
f 8/8/8 9/9/9 10/10/10 
f 10/10/10 9/9/9 11/11/11 
f 12/12/12 13/13/13 14/14/14 
f 15/15/15 16/16/16 17/17/17 
f 17/17/17 16/16/16 18/18/18 
f 19/19/19 20/20/20 21/21/21 
f 20/20/20 22/22/22 21/21/21 
f 21/21/21 22/22/22 23/23/23 
f 23/23/23 22/22/22 24/24/24 
f 22/22/22 25/25/25 24/24/24 
f 24/24/24 25/25/25 26/26/26 
f 26/26/26 25/25/25 27/27/27 
f 28/28/28 29/29/29 30/30/30 
f 29/29/29 31/31/31 30/30/30 
f 31/31/31 32/32/32 30/30/30 
f 33/33/33 34/34/34 35/35/35 
f 34/34/34 36/36/36 35/35/35 
f 36/36/36 37/37/37 35/35/35 
f 37/37/37 38/38/38 35/35/35 
f 38/38/38 39/39/39 35/35/35 
f 39/39/39 40/40/40 35/35/35 
f 40/40/40 41/41/41 35/35/35 
f 41/41/41 42/42/42 35/35/35 
