v 1.4337170 2.7058699 0.8812288
vn -0.0000007 0.9238804 0.3826814
vt 0.4683166 -4.1787448
v 1.0442359 2.7058699 0.8812287
vn -0.0000008 0.9238803 0.3826815
vt 0.8177187 -4.1787448
v 1.4337170 2.6180401 1.0126760
vn -0.0000004 0.6556970 0.7550241
vt 0.4683166 -4.0336971
v 1.0442359 2.6180401 1.0126760
vn 0.0000002 0.6556982 0.7550231
vt 0.8177187 -4.0336971
v 1.4337170 2.4109981 1.1122971
vn 0.0000004 0.2105660 0.9775797
vt 0.4683166 -3.8156409
v 1.0442359 2.4109981 1.1122971
vn 0.0000006 0.2105663 0.9775796
vt 0.8177187 -3.8156409
v 1.4337170 2.4929090 0.3543050
vn 0.0000000 0.5922661 -0.8057425
vt 0.4683166 -4.7587600
v 1.0442359 2.4929090 0.3543050
vn -0.0000000 0.5922661 -0.8057424
vt 0.8177187 -4.7587600
v 1.4337170 2.6619551 0.5053987
vn -0.0000000 0.8342904 -0.5513253
vt 0.4683167 -4.5412631
v 1.0442359 2.6619551 0.5053988
vn -0.0000001 0.8342904 -0.5513253
vt 0.8177187 -4.5412631
v 1.4337170 2.7367110 0.7261758
vn -0.0000000 0.9978836 -0.0650267
vt 0.4683166 -4.3237529
v 1.0442359 2.7367110 0.7261758
vn -0.0000005 0.9978836 -0.0650256
vt 0.8177187 -4.3237529
v 1.4337170 1.9620460 0.0372749
vn -0.0000000 0.4006967 -0.9162108
vt 0.4683166 -5.4010539
v 1.0442359 1.9620460 0.0372749
vn 0.0000000 0.4006967 -0.9162108
vt 0.8177187 -5.4010539
v 1.4337170 1.8307430 -0.0013644
vn -0.0000000 0.1424078 -0.9898081
vt 0.4683167 6.4710059
v 1.4337170 -1.8307430 0.0001406
vn 0.0000000 -0.1531270 -0.9882065
vt 0.4683167 2.9872019
v 1.0442359 1.8307430 -0.0013644
vn -0.0000000 0.1424079 -0.9898081
vt 0.8177187 6.4710059
v 1.0442350 -1.8307430 0.0001406
vn -0.6633387 -0.0032732 -0.7483121
vt 0.8177187 2.9872019
v 1.4337170 1.8307430 -0.0013644
vn -0.0000000 0.1424078 -0.9898081
vt 0.4683166 -5.5289989
v 1.0442359 1.8307430 -0.0013644
vn -0.0000000 0.1424079 -0.9898081
vt 0.8177187 -5.5289989
v 1.4302640 -2.7890470 0.7603928
vn -0.0000006 -0.9238794 0.3826838
vt 0.4683167 1.6481860
v 1.4302640 -2.7019639 0.8907205
vn -0.0000005 -0.6622410 0.7492910
vt 0.4683167 1.5045390
v 1.0476890 -2.7890470 0.7603928
vn -0.0000011 -0.9238789 0.3826849
vt 0.8177187 1.6481860
v 1.0476890 -2.7019639 0.8907205
vn 0.0000001 -0.6622419 0.7492902
vt 0.8177187 1.5045390
v 1.4302640 -2.4982309 0.9931531
vn 0.0000001 -0.2425723 0.9701334
vt 0.4683167 1.2891350
v 1.0476890 -2.4982309 0.9931531
vn 0.0000000 -0.2425721 0.9701334
vt 0.8177187 1.2891350
v 1.4302640 -2.5727770 0.2357825
vn -0.0000005 -0.4918795 -0.8706633
vt 0.4683167 2.2228050
v 1.4302640 -2.7455060 0.3877660
vn -0.0000011 -0.8321377 -0.5545691
vt 0.4683167 2.0071130
v 1.0476890 -2.5727761 0.2357825
vn -0.0000006 -0.4918793 -0.8706634
vt 0.8177187 2.2228050
v 1.0476890 -2.7455051 0.3877661
vn -0.0000003 -0.8321370 -0.5545701
vt 0.8177187 2.0071130
v 1.4302640 -2.8196249 0.6066614
vn 0.0000004 -0.9978834 -0.0650284
vt 0.4683167 1.7918330
v 1.0476880 -2.8196261 0.6066613
vn 0.0000001 -0.9978835 -0.0650272
vt 0.8177187 1.7918330
v 1.4337170 2.6705990 0.8666188
vn 0.0000003 -0.9238791 -0.3826844
vt 0.4266656 -4.1787448
v 1.4337170 2.5910430 0.9856812
vn 0.0000002 -0.6534668 -0.7569553
vt 0.4266656 -4.0336971
v 1.0442359 2.6705990 0.8666188
vn 0.0000004 -0.9238791 -0.3826846
vt 0.0714123 -4.1787448
v 1.0442359 2.5910430 0.9856812
vn 0.0000000 -0.6534671 -0.7569549
vt 0.0714123 -4.0336971
v 1.4337170 2.4017601 1.0753860
vn 0.0000000 -0.2076458 -0.9782041
vt 0.4266656 -3.8156409
v 1.0442359 2.4017601 1.0753860
vn 0.0000000 -0.2076458 -0.9782041
vt 0.0714123 -3.8156409
v 1.4337170 2.4719820 0.3871154
vn 0.0000000 -0.5885395 0.8084685
vt 0.4266656 -4.7587600
v 1.4337170 2.6308210 0.5262013
vn 0.0000007 -0.8314701 0.5555696
vt 0.4266656 -4.5412631
v 1.0442359 2.4719820 0.3871154
vn 0.0000003 -0.5885399 0.8084682
vt 0.0714123 -4.7587600
v 1.0442359 2.6308210 0.5262013
vn 0.0000006 -0.8314697 0.5555701
vt 0.0714123 -4.5412631
v 1.4337170 2.6985340 0.7261757
vn 0.0000004 -0.9978836 0.0650267
vt 0.4266656 -4.3237529
v 1.0442359 2.6985340 0.7261757
vn 0.0000002 -0.9978836 0.0650268
vt 0.0714123 -4.3237529
v 1.0442359 1.9464160 0.0725676
vn 0.0000000 -0.4016360 0.9157994
vt 0.0714123 -5.4010539
v 1.4337170 1.9464160 0.0725676
vn 0.0000000 -0.4773227 0.8787281
vt 0.4266656 -5.4010539
v 1.4337170 1.8252370 0.0367631
vn 0.0000000 -0.2833583 0.9590141
vt 0.4266656 -5.5289989
v 1.4337170 1.9464160 0.0725676
vn 0.0000000 -0.2833583 0.9590141
vt 0.4266656 -5.4010539
v 1.0442359 1.8252370 0.0367631
vn 0.0000000 -0.1429277 0.9897332
vt 0.0714123 -5.5289989
v 1.4302640 -2.6749690 0.8637252
vn 0.0000000 0.6596299 -0.7515906
vt 0.4266657 1.5045390
v 1.4302640 -2.7537761 0.7457832
vn 0.0000007 0.9238801 -0.3826822
vt 0.4266657 1.6481860
v 1.0476890 -2.6749690 0.8637252
vn 0.0000004 0.6596306 -0.7515900
vt 0.0714124 1.5045390
v 1.0476890 -2.7537761 0.7457832
vn -0.0000001 0.9238793 -0.3826842
vt 0.0714123 1.6481860
v 1.4302640 -2.4874671 0.9563680
vn 0.0000000 0.2392297 -0.9709630
vt 0.4266657 1.2891350
v 1.0476890 -2.4874671 0.9563680
vn 0.0000000 0.2392297 -0.9709630
vt 0.0714123 1.2891350
v 1.4302640 -2.7143731 0.4085687
vn -0.0000000 0.8314692 0.5555708
vt 0.4266657 2.0071130
v 1.4302640 -2.5570271 0.2707915
vn 0.0000006 0.4909111 0.8712097
vt 0.4266657 2.2228050
v 1.0476890 -2.7143719 0.4085687
vn 0.0000010 0.8314680 0.5555727
vt 0.0714123 2.0071130
v 1.0476890 -2.5570271 0.2707915
vn 0.0000006 0.4909109 0.8712098
vt 0.0714124 2.2228050
v 1.4302640 -2.7814491 0.6066614
vn -0.0000006 0.9978836 0.0650252
vt 0.4266657 1.7918330
v 1.0476890 -2.7814491 0.6066614
vn -0.0000008 0.9978837 0.0650238
vt 0.0714123 1.7918330
v 1.4337170 2.6705990 0.8666188
vn 1.0000000 0.0000000 0.0000000
vt 0.4266656 -4.1787448
v 1.4337170 2.7058699 0.8812288
vn 1.0000000 -0.0000004 -0.0000004
vt 0.4683166 -4.1787448
v 1.4337170 2.5910430 0.9856812
vn 1.0000000 -0.0000032 -0.0000050
vt 0.4266656 -4.0336971
v 1.4337170 2.6180401 1.0126760
vn 1.0000000 -0.0000036 -0.0000053
vt 0.4683166 -4.0336971
v 1.0442359 2.5910430 0.9856812
vn -1.0000000 0.0000000 0.0000000
vt 0.0714123 -4.0336971
v 1.0442359 2.6180401 1.0126760
vn -1.0000000 0.0000000 0.0000000
vt 0.0286223 -4.0336971
v 1.0442359 2.6705990 0.8666188
vn -1.0000000 0.0000000 0.0000000
vt 0.0714123 -4.1787448
v 1.0442359 2.7058699 0.8812287
vn -1.0000000 0.0000000 0.0000000
vt 0.0286223 -4.1787448
v 1.4337170 2.4017601 1.0753860
vn 0.9999999 -0.0003622 0.0000834
vt 0.4266656 -3.8156409
v 1.4337170 2.4109981 1.1122971
vn 0.9999999 -0.0003464 0.0000802
vt 0.4683166 -3.8156409
v 1.0442359 2.4017601 1.0753860
vn -0.9999999 -0.0003624 0.0000907
vt 0.0714123 -3.8156409
v 1.0442359 2.4109981 1.1122971
vn -0.9999999 -0.0003464 0.0000856
vt 0.0286223 -3.8156409
v 1.4337170 2.4719820 0.3871154
vn 1.0000000 0.0000000 0.0000000
vt 0.4266656 -4.7587600
v 1.4337170 2.4929090 0.3543050
vn 1.0000000 0.0000000 0.0000000
vt 0.4683166 -4.7587600
v 1.4337170 2.6308210 0.5262013
vn 1.0000000 0.0000000 0.0000000
vt 0.4266656 -4.5412631
v 1.4337170 2.6619551 0.5053987
vn 1.0000000 0.0000000 0.0000000
vt 0.4683167 -4.5412631
v 1.0442359 2.4719820 0.3871154
vn -1.0000000 0.0000000 0.0000000
vt 0.0714123 -4.7587600
v 1.0442359 2.6308210 0.5262013
vn -1.0000000 0.0000000 0.0000000
vt 0.0714123 -4.5412631
v 1.0442359 2.4929090 0.3543050
vn -1.0000000 0.0000000 0.0000000
vt 0.0286223 -4.7587600
v 1.0442359 2.6619551 0.5053988
vn -1.0000000 0.0000000 0.0000000
vt 0.0286223 -4.5412631
v 1.4337170 2.6985340 0.7261757
vn 1.0000000 0.0000000 0.0000000
vt 0.4266656 -4.3237529
v 1.4337170 2.7367110 0.7261758
vn 1.0000000 0.0000000 0.0000000
vt 0.4683166 -4.3237529
v 1.0442359 2.6985340 0.7261757
vn -1.0000000 0.0000000 0.0000000
vt 0.0714123 -4.3237529
v 1.0442359 2.7367110 0.7261758
vn -1.0000000 0.0000000 0.0000000
vt 0.0286223 -4.3237529
v 1.0442359 1.9464160 0.0725676
vn -1.0000000 0.0000000 0.0000000
vt 0.0714123 -5.4010539
v 1.0442359 1.9620460 0.0372749
vn -1.0000000 0.0000000 0.0000000
vt 0.0286223 -5.4010539
v 1.4337170 1.9464160 0.0725676
vn 1.0000000 0.0000009 0.0000004
vt 0.4266656 -5.4010539
v 1.4337170 1.9620460 0.0372749
vn 1.0000000 0.0000009 0.0000003
vt 0.4683166 -5.4010539
v 1.0442359 1.8252370 0.0367631
vn -1.0000000 0.0000001 0.0000000
vt 0.0714123 6.4710059
v 1.0442359 1.8307430 -0.0013644
vn -1.0000000 0.0000001 0.0000000
vt 0.0286223 6.4710059
v 1.0442350 -1.8257990 0.0384295
vn -0.9999974 -0.0022635 0.0003113
vt 0.0714124 2.9872019
v 1.0442350 -1.8307430 0.0001406
vn -1.0000000 0.0000001 -0.0000000
vt 0.0286222 2.9872019
v 1.4337170 -1.8257990 0.0384295
vn 0.9999974 -0.0022631 0.0003113
vt 0.4266657 2.9872019
v 1.4337170 -1.8307430 0.0001406
vn 0.9999976 -0.0021945 0.0002834
vt 0.4683167 2.9872019
v 1.4337170 1.8252370 0.0367631
vn 1.0000000 0.0000008 0.0000002
vt 0.4266657 6.4710059
v 1.4337170 1.8307430 -0.0013644
vn 1.0000000 0.0000008 0.0000001
vt 0.4683167 6.4710059
v 1.4337170 1.8252370 0.0367631
vn 1.0000000 0.0000008 0.0000002
vt 0.4266656 -5.5289989
v 1.4337170 1.8307430 -0.0013644
vn 1.0000000 0.0000008 0.0000001
vt 0.4683166 -5.5289989
v 1.0442359 1.8252370 0.0367631
vn -1.0000000 0.0000001 0.0000000
vt 0.0714123 -5.5289989
v 1.0442359 1.8307430 -0.0013644
vn -1.0000000 0.0000001 0.0000000
vt 0.0286223 -5.5289989
v 1.4302640 -2.5570271 0.2707915
vn 0.9999977 -0.0019585 0.0008845
vt 0.4266657 2.2228050
v 1.4302640 -2.5727770 0.2357825
vn 0.9999971 -0.0022094 0.0009711
vt 0.4683167 2.2228050
v 1.0476890 -2.7537761 0.7457832
vn -1.0000000 0.0000007 0.0000005
vt 0.0714123 1.6481860
v 1.0476890 -2.7890470 0.7603928
vn -1.0000000 0.0000003 0.0000007
vt 0.0286223 1.6481860
v 1.0476890 -2.6749690 0.8637252
vn -1.0000000 -0.0000002 -0.0000002
vt 0.0714124 1.5045390
v 1.0476890 -2.7019639 0.8907205
vn -1.0000000 -0.0000002 -0.0000002
vt 0.0286222 1.5045390
v 1.4302640 -2.6749690 0.8637252
vn 1.0000000 0.0000002 0.0000002
vt 0.4266657 1.5045390
v 1.4302640 -2.7019639 0.8907205
vn 1.0000000 0.0000002 0.0000002
vt 0.4683167 1.5045390
v 1.4302640 -2.7537761 0.7457832
vn 1.0000000 0.0000000 0.0000000
vt 0.4266657 1.6481860
v 1.4302640 -2.7890470 0.7603928
vn 1.0000000 -0.0000003 -0.0000000
vt 0.4683167 1.6481860
v 1.0476890 -2.4874671 0.9563680
vn -0.9999999 -0.0003579 -0.0001039
vt 0.0714123 1.2891350
v 1.0476890 -2.4982309 0.9931531
vn -0.9999999 -0.0003392 -0.0000993
vt 0.0286222 1.2891350
v 1.4302640 -2.4874671 0.9563680
vn 0.9999999 -0.0003588 -0.0001050
vt 0.4266657 1.2891350
v 1.4302640 -2.4982309 0.9931531
vn 0.9999999 -0.0003401 -0.0000985
vt 0.4683167 1.2891350
v 1.0476890 -2.5570271 0.2707915
vn -0.9999977 -0.0019605 0.0008819
vt 0.0714124 2.2228050
v 1.0476890 -2.5727761 0.2357825
vn -0.9999971 -0.0022109 0.0009690
vt 0.0286222 2.2228050
v 1.0476890 -2.7143719 0.4085687
vn -1.0000000 0.0000027 0.0000015
vt 0.0714123 2.0071130
v 1.0476890 -2.7455051 0.3877661
vn -1.0000000 0.0000030 0.0000016
vt 0.0286222 2.0071130
v 1.4302640 -2.7143731 0.4085687
vn 1.0000000 -0.0000027 -0.0000011
vt 0.4266657 2.0071130
v 1.4302640 -2.7455060 0.3877660
vn 1.0000000 -0.0000029 -0.0000013
vt 0.4683167 2.0071130
v 1.0476890 -2.7814491 0.6066614
vn -1.0000000 0.0000061 0.0000002
vt 0.0714123 1.7918330
v 1.0476880 -2.8196261 0.6066613
vn -1.0000000 0.0000057 0.0000003
vt 0.0286222 1.7918330
v 1.4302640 -2.7814491 0.6066614
vn 1.0000000 -0.0000029 -0.0000006
vt 0.4266657 1.7918330
v 1.4302640 -2.8196249 0.6066614
vn 1.0000000 -0.0000031 -0.0000006
vt 0.4683167 1.7918330
v 1.0442350 -1.8307430 0.0001406
vn -0.0000001 -0.3026675 -0.9530963
vt 0.8177187 2.9872019
v 1.4337170 -1.8257990 0.0384295
vn 0.0000001 0.1532391 0.9881892
vt 0.4266657 2.9872019
v 1.4337170 1.8252370 0.0367631
vn 0.0000000 0.0004564 0.9999999
vt 0.4266657 6.4710059
v 1.0442350 -1.8257990 0.0384295
vn 0.0000000 0.1532391 0.9881892
vt 0.0714124 2.9872019
v 1.0442359 1.8252370 0.0367631
vn 0.0000000 -0.1429277 0.9897332
vt 0.0714123 6.4710059
v 1.0442350 -1.8307430 0.0001406
vn -0.6633387 -0.0032732 -0.7483121
vt 0.0286222 2.9872019
v 1.2286000 2.6308210 0.5262014
vn -0.9994217 -0.0284935 0.0185576
vt 0.9290594 -4.5412660
v 1.2287019 2.4719820 0.3871154
vn -0.9994837 -0.0186934 0.0261335
vt 0.9290594 -4.7587619
v 1.2315580 2.5582800 0.5746713
vn -0.9994145 -0.0226538 0.0256414
vt 0.9930279 -4.5412660
v 1.2315741 2.4232211 0.4635628
vn -0.9994974 -0.0183913 0.0258216
vt 0.9930279 -4.7587619
v 1.2315741 1.9099990 0.1547990
vn -0.9994911 -0.0128598 0.0291919
vt 0.9930279 -5.4010558
v 1.2287019 1.9464160 0.0725676
vn -0.9994895 -0.0128636 0.0292456
vt 0.9290594 -5.4010558
v 1.2315741 1.8124070 0.1255999
vn -0.9994894 -0.0045885 0.0316209
vt 0.9930279 -5.5289989
v 1.2287019 1.8252370 0.0367631
vn -0.9994885 -0.0045713 0.0316548
vt 0.9290594 -5.5289989
v 1.2287019 1.8252370 0.0367631
vn -0.9994885 -0.0045713 0.0316548
vt 0.9290594 6.4710059
v 1.2287019 -1.8257990 0.0384296
vn -0.9994903 0.0048315 0.0315562
vt 0.9290594 2.9872079
v 1.2315741 1.8124070 0.1255999
vn -0.9994894 -0.0045885 0.0316209
vt 0.9930279 6.4710059
v 1.2315741 -1.8142790 0.1276424
vn -0.9994904 0.0049931 0.0315297
vt 0.9930279 2.9872079
v 1.2287019 -2.5570281 0.2707916
vn -0.9993953 0.0145894 0.0315616
vt 0.9290594 2.2228110
v 1.2315741 -2.5203340 0.3523620
vn -0.9994832 0.0115471 0.0299991
vt 0.9930279 2.2228110
v 1.2330450 -2.6418331 0.4570386
vn -0.9990096 0.0369734 0.0247556
vt 0.9930279 2.0071180
v 1.2287019 -2.7143741 0.4085687
vn -0.9987633 0.0413395 0.0276222
vt 0.9290594 2.0071180
v 1.2287019 -2.7814491 0.6066614
vn -0.9993891 0.0349478 -0.0003458
vt 0.9290594 1.7918390
v 1.2315741 -2.6924951 0.6066614
vn -0.9994760 0.0322721 -0.0025245
vt 0.9930279 1.7918390
v 1.2287019 -2.7537770 0.7457832
vn -0.9994791 0.0298158 -0.0123500
vt 0.9290594 1.6481889
v 1.2315741 -2.6715939 0.7117428
vn -0.9994792 0.0298159 -0.0123500
vt 0.9930279 1.6481889
v 1.2287019 -2.6749699 0.8637254
vn -0.9994774 0.0215308 -0.0241093
vt 0.9290594 1.5045420
v 1.2315741 -2.6120710 0.8008261
vn -0.9994823 0.0208135 -0.0245375
vt 0.9930279 1.5045420
v 1.2287019 -2.4874671 0.9563681
vn -0.9994745 0.0076718 -0.0314932
vt 0.9290594 1.2891380
v 1.2315741 -2.4628980 0.8705818
vn -0.9767950 0.0210850 -0.2131361
vt 0.9930279 1.2891390
v 1.2447610 2.6308210 0.5262014
vn 0.9887372 -0.1244248 0.0831700
vt 0.9290594 -4.5412660
v 1.2315580 2.5582800 0.5746713
vn 0.9889420 -0.1229711 0.0828969
vt 0.9930279 -4.5412660
v 1.2447610 2.4719820 0.3871154
vn 0.9893560 -0.0842261 0.1186617
vt 0.9290594 -4.7587619
v 1.2315741 2.4232211 0.4635628
vn 0.9895650 -0.0833695 0.1175185
vt 0.9930279 -4.7587619
v 1.2447610 1.9464160 0.0725676
vn 0.9894015 -0.0584622 0.1329166
vt 0.9290594 -5.4010558
v 1.2315741 1.9099990 0.1547990
vn 0.9894349 -0.0584471 0.1326745
vt 0.9930279 -5.4010558
v 1.2447610 1.8252370 0.0367631
vn 0.9893797 -0.0207753 0.1438619
vt 0.9290594 -5.5289989
v 1.2315741 1.8124070 0.1255999
vn 0.9894003 -0.0208544 0.1437090
vt 0.9930279 -5.5289989
v 1.2447610 1.8252370 0.0367631
vn 0.9893797 -0.0207753 0.1438619
vt 0.9290594 6.4710059
v 1.2315741 1.8124070 0.1255999
vn 0.9894003 -0.0208544 0.1437090
vt 0.9930279 6.4710059
v 1.2447610 -1.8257990 0.0384295
vn 0.9894188 0.0219613 0.1434160
vt 0.9290594 2.9872079
v 1.2315741 -1.8142790 0.1276424
vn 0.9894197 0.0226879 0.1432968
vt 0.9930279 2.9872079
v 1.2447610 -2.5570271 0.2707915
vn 0.9895301 0.0714543 0.1253969
vt 0.9290594 2.2228110
v 1.2315741 -2.5203340 0.3523620
vn 0.9891154 0.0777241 0.1249389
vt 0.9930279 2.2228110
v 1.2447610 -2.7143741 0.4085687
vn 0.9911033 0.1106644 0.0739436
vt 0.9290594 2.0071180
v 1.2330450 -2.6418331 0.4570386
vn 0.9904574 0.1145171 0.0766808
vt 0.9930279 2.0071180
v 1.2447610 -2.7814491 0.6066614
vn 0.9895201 0.1440171 0.0104401
vt 0.9290594 1.7918390
v 1.2315741 -2.6924951 0.6066614
vn 0.9890533 0.1466206 0.0166122
vt 0.9930279 1.7918390
v 1.2447610 -2.7537770 0.7457833
vn 0.9891897 0.1354791 -0.0561168
vt 0.9290594 1.6481889
v 1.2315741 -2.6715939 0.7117428
vn 0.9891897 0.1354795 -0.0561168
vt 0.9930279 1.6481889
v 1.2447610 -2.6749699 0.8637255
vn 0.9891556 0.0978226 -0.1095536
vt 0.9290594 1.5045420
v 1.2315741 -2.6120710 0.8008261
vn 0.9892551 0.0945896 -0.1114773
vt 0.9930279 1.5045420
v 1.2447610 -2.4874671 0.9563681
vn 0.9889294 0.0365423 -0.1438175
vt 0.9290594 1.2891380
v 1.2315741 -2.4628980 0.8705818
vn 0.9889870 0.0626925 -0.1340689
vt 0.9930279 1.2891390
v 1.2447610 2.4017601 1.0753870
vn 0.9890115 -0.0307880 -0.1445973
vt 0.9290594 -3.8156433
v 1.2315410 2.3829150 0.9889801
vn -0.0681363 -0.2145904 -0.9743246
vt 0.9930279 -3.8156433
v 1.2447610 2.5910430 0.9856814
vn 0.9891858 -0.0965084 -0.1104425
vt 0.9290594 -4.0337009
v 1.2315410 2.5281439 0.9227821
vn 0.9890305 -0.0935741 -0.1142915
vt 0.9930279 -4.0337009
v 1.2447610 2.6705990 0.8666188
vn 0.9891368 -0.1358086 -0.0562536
vt 0.9290594 -4.1787419
v 1.2315410 2.5884171 0.8325784
vn 0.9891368 -0.1358083 -0.0562536
vt 0.9930279 -4.1787419
v 1.2447610 2.6985350 0.7261757
vn 0.9891027 -0.1469926 0.0083154
vt 0.9290594 -4.3237591
v 1.2315410 2.6095810 0.7261758
vn 0.9890740 -0.1469595 0.0116431
vt 0.9930279 -4.3237591
v 1.2284970 2.4017601 1.0753860
vn -0.9993659 -0.0087761 -0.0345065
vt 0.9290594 -3.8156433
v 1.2284970 2.5910430 0.9856815
vn -0.9994177 -0.0224541 -0.0256922
vt 0.9290594 -4.0337009
v 1.2315410 2.5281439 0.9227821
vn -0.9994092 -0.0217657 -0.0265988
vt 0.9930279 -4.0337009
v 1.2284970 2.6705990 0.8666188
vn -0.9994150 -0.0315957 -0.0130873
vt 0.9290594 -4.1787419
v 1.2315410 2.5884171 0.8325784
vn -0.9994151 -0.0315956 -0.0130873
vt 0.9930279 -4.1787419
v 1.2284970 2.6985350 0.7261757
vn -0.9994137 -0.0341987 0.0016892
vt 0.9290594 -4.3237591
v 1.2315410 2.6095810 0.7261758
vn -0.9994157 -0.0340920 0.0024616
vt 0.9930279 -4.3237591
v 1.2315580 2.5582800 0.5746713
vn -0.9993833 -0.0332927 0.0111646
vt 0.9930279 -4.5412660

g group_15892224_140627862781056
f 1/1/1 2/2/2 3/3/3 
f 2/2/2 4/4/4 3/3/3 
f 3/3/3 4/4/4 5/5/5 
f 4/4/4 6/6/6 5/5/5 
f 7/7/7 8/8/8 9/9/9 
f 8/8/8 10/10/10 9/9/9 
f 9/9/9 10/10/10 11/11/11 
f 10/10/10 12/12/12 11/11/11 
f 11/11/11 12/12/12 1/1/1 
f 12/12/12 2/2/2 1/1/1 
f 7/7/7 13/13/13 8/8/8 
f 13/13/13 14/14/14 8/8/8 
f 15/15/15 16/16/16 17/17/17 
f 16/16/16 18/18/18 17/17/17 
f 19/19/19 20/20/20 13/13/13 
f 20/20/20 14/14/14 13/13/13 
f 21/21/21 22/22/22 23/23/23 
f 22/22/22 24/24/24 23/23/23 
f 22/22/22 25/25/25 24/24/24 
f 25/25/25 26/26/26 24/24/24 
f 27/27/27 28/28/28 29/29/29 
f 28/28/28 30/30/30 29/29/29 
f 28/28/28 31/31/31 30/30/30 
f 31/31/31 32/32/32 30/30/30 
f 31/31/31 21/21/21 32/32/32 
f 21/21/21 23/23/23 32/32/32 
f 33/33/33 34/34/34 35/35/35 
f 34/34/34 36/36/36 35/35/35 
f 34/34/34 37/37/37 36/36/36 
f 37/37/37 38/38/38 36/36/36 
f 39/39/39 40/40/40 41/41/41 
f 40/40/40 42/42/42 41/41/41 
f 40/40/40 43/43/43 42/42/42 
f 43/43/43 44/44/44 42/42/42 
f 43/43/43 33/33/33 44/44/44 
f 33/33/33 35/35/35 44/44/44 
f 45/45/45 46/46/46 41/41/41 
f 46/46/46 39/39/39 41/41/41 
f 47/47/47 48/48/48 49/49/49 
f 46/46/46 45/45/45 49/49/49 
f 50/50/50 51/51/51 52/52/52 
f 51/51/51 53/53/53 52/52/52 
f 54/54/54 50/50/50 55/55/55 
f 50/50/50 52/52/52 55/55/55 
f 56/56/56 57/57/57 58/58/58 
f 57/57/57 59/59/59 58/58/58 
f 60/60/60 56/56/56 61/61/61 
f 56/56/56 58/58/58 61/61/61 
f 51/51/51 60/60/60 53/53/53 
f 60/60/60 61/61/61 53/53/53 
f 54/54/54 55/55/55 38/38/38 
f 38/38/38 37/37/37 54/54/54 
f 62/62/62 63/63/63 64/64/64 
f 63/63/63 65/65/65 64/64/64 
f 66/66/66 67/67/67 68/68/68 
f 67/67/67 69/69/69 68/68/68 
f 64/64/64 65/65/65 70/70/70 
f 65/65/65 71/71/71 70/70/70 
f 72/72/72 73/73/73 66/66/66 
f 73/73/73 67/67/67 66/66/66 
f 74/74/74 75/75/75 76/76/76 
f 75/75/75 77/77/77 76/76/76 
f 78/78/78 79/79/79 80/80/80 
f 79/79/79 81/81/81 80/80/80 
f 76/76/76 77/77/77 82/82/82 
f 77/77/77 83/83/83 82/82/82 
f 84/84/84 85/85/85 79/79/79 
f 85/85/85 81/81/81 79/79/79 
f 82/82/82 83/83/83 62/62/62 
f 83/83/83 63/63/63 62/62/62 
f 68/68/68 69/69/69 84/84/84 
f 69/69/69 85/85/85 84/84/84 
f 78/78/78 80/80/80 86/86/86 
f 80/80/80 87/87/87 86/86/86 
f 74/74/74 88/88/88 75/75/75 
f 88/88/88 89/89/89 75/75/75 
f 90/90/90 91/91/91 92/92/92 
f 91/91/91 93/93/93 92/92/92 
f 94/94/94 95/95/95 96/96/96 
f 95/95/95 97/97/97 96/96/96 
f 88/88/88 98/98/98 89/89/89 
f 98/98/98 99/99/99 89/89/89 
f 86/86/86 87/87/87 100/100/100 
f 87/87/87 101/101/101 100/100/100 
f 102/102/102 103/103/103 94/94/94 
f 103/103/103 95/95/95 94/94/94 
f 104/104/104 105/105/105 106/106/106 
f 105/105/105 107/107/107 106/106/106 
f 108/108/108 109/109/109 110/110/110 
f 109/109/109 111/111/111 110/110/110 
f 106/106/106 107/107/107 112/112/112 
f 107/107/107 113/113/113 112/112/112 
f 114/114/114 115/115/115 108/108/108 
f 115/115/115 109/109/109 108/108/108 
f 116/116/116 117/117/117 118/118/118 
f 117/117/117 119/119/119 118/118/118 
f 102/102/102 120/120/120 103/103/103 
f 120/120/120 121/121/121 103/103/103 
f 118/118/118 119/119/119 122/122/122 
f 119/119/119 123/123/123 122/122/122 
f 124/124/124 125/125/125 120/120/120 
f 125/125/125 121/121/121 120/120/120 
f 122/122/122 123/123/123 104/104/104 
f 123/123/123 105/105/105 104/104/104 
f 110/110/110 111/111/111 124/124/124 
f 111/111/111 125/125/125 124/124/124 
f 115/115/115 114/114/114 70/70/70 
f 70/70/70 71/71/71 115/115/115 
f 112/112/112 113/113/113 73/73/73 
f 73/73/73 72/72/72 112/112/112 
f 16/16/16 27/27/27 126/126/126 
f 27/27/27 29/29/29 126/126/126 
f 127/127/127 128/128/128 129/129/129 
f 128/128/128 130/130/130 129/129/129 
f 57/57/57 127/127/127 59/59/59 
f 127/127/127 129/129/129 59/59/59 
f 116/116/116 92/92/92 117/117/117 
f 92/92/92 131/131/131 117/117/117 
f 25/25/25 5/5/5 6/6/6 
f 6/6/6 26/26/26 25/25/25 
f 132/132/132 133/133/133 134/134/134 
f 133/133/133 135/135/135 134/134/134 
f 135/135/135 133/133/133 136/136/136 
f 133/133/133 137/137/137 136/136/136 
f 136/136/136 137/137/137 138/138/138 
f 137/137/137 139/139/139 138/138/138 
f 140/140/140 141/141/141 142/142/142 
f 141/141/141 143/143/143 142/142/142 
f 141/141/141 144/144/144 143/143/143 
f 144/144/144 145/145/145 143/143/143 
f 145/145/145 144/144/144 146/146/146 
f 144/144/144 147/147/147 146/146/146 
f 147/147/147 148/148/148 146/146/146 
f 148/148/148 149/149/149 146/146/146 
f 148/148/148 150/150/150 149/149/149 
f 150/150/150 151/151/151 149/149/149 
f 150/150/150 152/152/152 151/151/151 
f 152/152/152 153/153/153 151/151/151 
f 152/152/152 154/154/154 153/153/153 
f 154/154/154 155/155/155 153/153/153 
f 156/156/156 157/157/157 158/158/158 
f 157/157/157 159/159/159 158/158/158 
f 160/160/160 158/158/158 161/161/161 
f 158/158/158 159/159/159 161/161/161 
f 162/162/162 160/160/160 163/163/163 
f 160/160/160 161/161/161 163/163/163 
f 164/164/164 165/165/165 166/166/166 
f 165/165/165 167/167/167 166/166/166 
f 166/166/166 167/167/167 168/168/168 
f 167/167/167 169/169/169 168/168/168 
f 170/170/170 168/168/168 171/171/171 
f 168/168/168 169/169/169 171/171/171 
f 170/170/170 171/171/171 172/172/172 
f 171/171/171 173/173/173 172/172/172 
f 172/172/172 173/173/173 174/174/174 
f 173/173/173 175/175/175 174/174/174 
f 174/174/174 175/175/175 176/176/176 
f 175/175/175 177/177/177 176/176/176 
f 176/176/176 177/177/177 178/178/178 
f 177/177/177 179/179/179 178/178/178 
f 180/180/180 181/181/181 182/182/182 
f 181/181/181 183/183/183 182/182/182 
f 182/182/182 183/183/183 184/184/184 
f 183/183/183 185/185/185 184/184/184 
f 184/184/184 185/185/185 186/186/186 
f 185/185/185 187/187/187 186/186/186 
f 186/186/186 187/187/187 156/156/156 
f 187/187/187 157/157/157 156/156/156 
f 181/181/181 180/180/180 178/178/178 
f 188/188/188 181/181/181 178/178/178 
f 188/188/188 178/178/178 155/155/155 
f 188/188/188 155/155/155 154/154/154 
f 188/188/188 189/189/189 181/181/181 
f 189/189/189 190/190/190 181/181/181 
f 189/189/189 191/191/191 190/190/190 
f 191/191/191 192/192/192 190/190/190 
f 191/191/191 193/193/193 192/192/192 
f 193/193/193 194/194/194 192/192/192 
f 193/193/193 132/132/132 194/194/194 
f 132/132/132 195/195/195 194/194/194 
