v 1.3346097 -1.5886202 0.7836024
vn -0.0667199 -0.5637130 -0.8232716
vt 0.0180835 0.0196553
v 1.3346097 -1.6345412 0.8478127
vn -0.0667207 -0.9612862 -0.2673523
vt 0.0284908 0.0196553
v 1.1324502 -1.6115807 0.8157075
vn -0.1204092 -0.8074777 -0.5774785
vt 0.0232870 0.0463510
v 1.1324502 -1.6105113 0.9585095
vn -0.1204092 -0.7987397 0.5895054
vt 0.0441015 0.0463510
v 1.3346097 -1.6339501 0.9267517
vn -0.0667212 -0.9571750 0.2817167
vt 0.0388975 0.0196553
v 1.3346097 -1.5870726 0.9902674
vn -0.0667210 -0.5513217 0.8316205
vt 0.0493050 0.0196556
v 1.1324502 -1.4743683 1.0016211
vn -0.1204094 0.3138283 0.9418139
vt 0.0649159 0.0463510
v 1.3346097 -1.5118146 1.0140989
vn -0.0667210 -0.0278550 0.9973828
vt 0.0597125 0.0196556
v 1.3346097 -1.4369218 0.9891431
vn -0.0667203 0.6205527 0.7813212
vt 0.0701196 0.0196556
v 1.1324502 -1.3912964 0.8854632
vn -0.1204091 0.9926965 -0.0074317
vt 0.0545088 0.0463510
v 1.3346097 -1.3910010 0.9249327
vn -0.0667200 0.9399598 0.3347000
vt 0.0597125 0.0196556
v 1.3346097 -1.3915918 0.8459938
vn -0.0667211 0.9348438 -0.3487341
vt 0.0493050 0.0196556
v 1.1324502 -1.4760981 0.7705623
vn -0.1204096 0.2996922 -0.9464070
vt 0.0336944 0.0463508
v 1.3346097 -1.4384688 0.7824780
vn -0.0667214 0.6087835 -0.7905257
vt 0.0388975 0.0196553
v 1.3346097 -1.5137274 0.7586466
vn -0.0667203 -0.0427883 -0.9968538
vt 0.0284908 0.0196553
v 1.3346097 -1.5137274 0.7586466
vn 1.0000000 0.0000000 0.0000000
vt 0.9706820 0.5203816
v 1.3346097 -1.4384688 0.7824780
vn 1.0000000 0.0000000 0.0000000
vt 0.9674377 0.5103806
v 1.3346097 -1.5886202 0.7836024
vn 1.0000000 0.0000000 0.0000000
vt 0.9674377 0.5303827
v 1.3346097 -1.6345412 0.8478127
vn 1.0000000 0.0000000 0.0000000
vt 0.9589446 0.5365639
v 1.3346097 -1.6339501 0.9267517
vn 1.0000000 0.0000000 0.0000000
vt 0.9484462 0.5365639
v 1.3346097 -1.5870726 0.9902674
vn 1.0000000 0.0000000 0.0000000
vt 0.9399532 0.5303827
v 1.3346097 -1.5118146 1.0140989
vn 1.0000000 0.0000000 0.0000000
vt 0.9367087 0.5203816
v 1.3346097 -1.4369218 0.9891431
vn 1.0000000 0.0000000 0.0000000
vt 0.9399530 0.5103806
v 1.3346097 -1.3910010 0.9249327
vn 1.0000000 0.0000000 0.0000000
vt 0.9484462 0.5041996
v 1.3346097 -1.3915918 0.8459938
vn 1.0000000 0.0000000 0.0000000
vt 0.9589446 0.5041996
v 1.3346097 -1.5886202 0.7836024
vn -0.0667199 -0.5637130 -0.8232716
vt 0.0180835 0.0196553
v 1.1324502 -1.6115807 0.8157075
vn -0.1204092 -0.8074777 -0.5774785
vt 0.0232870 0.0463510
v 1.1324502 -1.4743683 1.0016211
vn -0.1204094 0.3138283 0.9418139
vt 0.0649159 0.0463510
v 1.3346097 -1.4369218 0.9891431
vn -0.0667203 0.6205527 0.7813212
vt 0.0701196 0.0196556

g group_65222768_140627860549824
f 1/1/1 2/2/2 3/3/3 
f 3/3/3 2/2/2 4/4/4 
f 2/2/2 5/5/5 4/4/4 
f 5/5/5 6/6/6 4/4/4 
f 4/4/4 6/6/6 7/7/7 
f 6/6/6 8/8/8 7/7/7 
f 8/8/8 9/9/9 7/7/7 
f 28/28/28 29/29/29 10/10/10 
f 29/29/29 11/11/11 10/10/10 
f 11/11/11 12/12/12 10/10/10 
f 10/10/10 12/12/12 13/13/13 
f 12/12/12 14/14/14 13/13/13 
f 14/14/14 15/15/15 13/13/13 
f 13/13/13 15/15/15 27/27/27 
f 15/15/15 26/26/26 27/27/27 
f 16/16/16 17/17/17 18/18/18 
f 18/18/18 17/17/17 19/19/19 
f 19/19/19 17/17/17 20/20/20 
f 20/20/20 17/17/17 21/21/21 
f 21/21/21 17/17/17 22/22/22 
f 22/22/22 17/17/17 23/23/23 
f 23/23/23 17/17/17 24/24/24 
f 24/24/24 17/17/17 25/25/25 
