v -1.3360047 1.3164892 0.8290476
vn 0.0667199 -0.5637127 -0.8232718
vt 0.0180835 0.0196553
v -1.1338452 1.2935287 0.8611526
vn 0.1204093 -0.8074775 -0.5774788
vt 0.0232870 0.0463510
v -1.3360047 1.2705681 0.8932579
vn 0.0667206 -0.9612862 -0.2673525
vt 0.0284908 0.0196553
v -1.1338452 1.2945980 1.0039546
vn 0.1204091 -0.7987400 0.5895051
vt 0.0441015 0.0463510
v -1.3360047 1.2711593 0.9721968
vn 0.0667206 -0.9571748 0.2817175
vt 0.0388975 0.0196553
v -1.3360047 1.3180367 1.0357124
vn 0.0667210 -0.5513225 0.8316200
vt 0.0493050 0.0196556
v -1.1338452 1.4307411 1.0470663
vn 0.1204091 0.3138286 0.9418138
vt 0.0649159 0.0463510
v -1.3360047 1.3932947 1.0595441
vn 0.0667212 -0.0278559 0.9973828
vt 0.0597125 0.0196556
v -1.3360047 1.4681875 1.0345883
vn 0.0667200 0.6205531 0.7813209
vt 0.0701196 0.0196556
v -1.1338452 1.5138129 0.9309084
vn 0.1204088 0.9926966 -0.0074319
vt 0.0545088 0.0463510
v -1.3360047 1.5141083 0.9703778
vn 0.0667200 0.9399598 0.3347000
vt 0.0597125 0.0196556
v -1.3360047 1.5135175 0.8914389
vn 0.0667212 0.9348438 -0.3487338
vt 0.0493050 0.0196556
v -1.1338452 1.4290112 0.8160074
vn 0.1204095 0.2996920 -0.9464070
vt 0.0336944 0.0463508
v -1.3360047 1.4666405 0.8279231
vn 0.0667214 0.6087835 -0.7905257
vt 0.0388975 0.0196553
v -1.3360047 1.3913819 0.8040917
vn 0.0667202 -0.0427889 -0.9968538
vt 0.0284908 0.0196553
v -1.3360047 1.3913819 0.8040917
vn -1.0000000 0.0000000 0.0000000
vt 0.9706820 0.5203816
v -1.3360047 1.3164892 0.8290476
vn -1.0000000 0.0000000 0.0000000
vt 0.9674377 0.5303827
v -1.3360047 1.4666405 0.8279231
vn -1.0000000 0.0000000 0.0000000
vt 0.9674377 0.5103806
v -1.3360047 1.2705681 0.8932579
vn -1.0000000 0.0000000 0.0000000
vt 0.9589446 0.5365639
v -1.3360047 1.2711593 0.9721968
vn -1.0000000 0.0000000 0.0000000
vt 0.9484462 0.5365639
v -1.3360047 1.3180367 1.0357124
vn -1.0000000 0.0000000 0.0000000
vt 0.9399532 0.5303827
v -1.3360047 1.3932947 1.0595441
vn -1.0000000 0.0000000 0.0000000
vt 0.9367087 0.5203816
v -1.3360047 1.4681875 1.0345883
vn -1.0000000 0.0000000 0.0000000
vt 0.9399530 0.5103806
v -1.3360047 1.5141083 0.9703778
vn -1.0000000 0.0000000 0.0000000
vt 0.9484462 0.5041996
v -1.3360047 1.5135175 0.8914389
vn -1.0000000 0.0000000 0.0000000
vt 0.9589446 0.5041996
v -1.3360047 1.3164892 0.8290476
vn 0.0667199 -0.5637127 -0.8232718
vt 0.0180835 0.0196553
v -1.1338452 1.2935287 0.8611526
vn 0.1204093 -0.8074775 -0.5774788
vt 0.0232870 0.0463510
v -1.1338452 1.4307411 1.0470663
vn 0.1204091 0.3138286 0.9418138
vt 0.0649159 0.0463510
v -1.3360047 1.4681875 1.0345883
vn 0.0667200 0.6205531 0.7813209
vt 0.0701196 0.0196556

g group_15896848_140627860642208
f 1/1/1 2/2/2 3/3/3 
f 2/2/2 4/4/4 3/3/3 
f 3/3/3 4/4/4 5/5/5 
f 5/5/5 4/4/4 6/6/6 
f 4/4/4 7/7/7 6/6/6 
f 6/6/6 7/7/7 8/8/8 
f 8/8/8 7/7/7 9/9/9 
f 28/28/28 10/10/10 29/29/29 
f 29/29/29 10/10/10 11/11/11 
f 11/11/11 10/10/10 12/12/12 
f 10/10/10 13/13/13 12/12/12 
f 12/12/12 13/13/13 14/14/14 
f 14/14/14 13/13/13 15/15/15 
f 13/13/13 27/27/27 15/15/15 
f 15/15/15 27/27/27 26/26/26 
f 16/16/16 17/17/17 18/18/18 
f 17/17/17 19/19/19 18/18/18 
f 19/19/19 20/20/20 18/18/18 
f 20/20/20 21/21/21 18/18/18 
f 21/21/21 22/22/22 18/18/18 
f 22/22/22 23/23/23 18/18/18 
f 23/23/23 24/24/24 18/18/18 
f 24/24/24 25/25/25 18/18/18 
