v 1.3664210 -2.5166590 0.9105173
vn 0.0000001 -0.0275659 0.9996200
vt 0.9771087 0.9828303
v 1.3664200 -2.3681610 0.8809793
vn 0.0000000 0.4080048 0.9129798
vt 0.9771087 0.9685708
v 1.1059730 -2.5166590 0.9105173
vn 0.0000000 -0.0275657 0.9996200
vt 0.9496387 0.9828303
v 1.3664210 -2.4976449 0.2300224
vn 0.0000002 0.0275653 -0.9996200
vt 0.9771087 0.9970424
v 1.3664210 -2.6461420 0.2595604
vn 0.0000000 -0.4080055 -0.9129795
vt 0.9771087 0.9828109
v 1.1059730 -2.4976449 0.2300224
vn 0.0000000 0.0275651 -0.9996200
vt 0.9496391 0.9970424
v 1.3664210 -2.3509560 0.2677107
vn 1.0000000 0.0000000 0.0000000
vt 0.9656812 0.4378631
v 1.3664210 -2.2349529 0.3652978
vn 1.0000000 0.0000000 0.0000000
vt 0.9551826 0.4253832
v 1.3664210 -2.4976449 0.2300224
vn 1.0000000 0.0000000 0.0000000
vt 0.9697358 0.4536440
v 1.1059730 -2.4976449 0.2300224
vn -1.0000000 -0.0000001 0.0000035
vt 0.9697360 0.4536441
v 1.1059730 -2.6461420 0.2595604
vn -1.0000000 -0.0000000 0.0000003
vt 0.9665578 0.4696195
v 1.1059730 -2.3509550 0.2677107
vn -1.0000000 0.0000000 0.0000001
vt 0.9656813 0.4378630
v 1.3664210 -2.7672420 0.3505151
vn 0.0000000 -0.7631267 -0.6462489
vt 0.9771087 0.9685750
v 1.1059730 -2.6461420 0.2595604
vn 0.0000000 -0.4080054 -0.9129795
vt 0.9496391 0.9828109
v 1.3664210 -2.8370700 0.4850662
vn 0.0000000 -0.9677418 -0.2519443
vt 0.9771087 0.9543260
v 1.1059730 -2.7672420 0.3505151
vn 0.0000000 -0.7631267 -0.6462489
vt 0.9496391 0.9685750
v 1.3664200 -2.8417261 0.6368207
vn 0.0000000 -0.9807852 0.1950909
vt 0.9771087 0.9400549
v 1.1059730 -2.8370700 0.4850662
vn 0.0000000 -0.9677418 -0.2519442
vt 0.9496391 0.9543260
v 1.1059730 -2.7793500 0.7752417
vn 0.0000000 -0.7976628 0.6031037
vt 0.9496387 0.9827248
v 1.1059730 -2.8417261 0.6368207
vn -0.0000001 -0.9807851 0.1950911
vt 0.9496387 0.9683336
v 1.3664210 -2.7793500 0.7752419
vn -0.0000002 -0.7976624 0.6031043
vt 0.9771087 0.9827250
v 1.1059730 -2.6633480 0.8728291
vn 0.0000003 -0.4577301 0.8890912
vt 0.9496387 0.9970940
v 1.3664210 -2.6633470 0.8728291
vn 0.0000001 -0.4577294 0.8890916
vt 0.9771087 0.9970940
v 1.3664210 -2.2470610 0.7900246
vn 0.0000006 0.7631264 0.6462493
vt 0.9771087 0.9543070
v 1.1059730 -2.3681610 0.8809793
vn 0.0000002 0.4080044 0.9129800
vt 0.9496387 0.9685708
v 1.3664210 -2.1772330 0.6554735
vn 0.0000009 0.9677420 0.2519433
vt 0.9771087 0.9400302
v 1.1059730 -2.2470610 0.7900246
vn 0.0000008 0.7631261 0.6462497
vt 0.9496387 0.9543070
v 1.3664210 -2.1725781 0.5037189
vn 0.0000003 0.9807850 -0.1950921
vt 0.9771087 0.9542969
v 1.1059730 -2.1772330 0.6554735
vn 0.0000006 0.9677421 0.2519428
vt 0.9496387 0.9400299
v 1.1059730 -2.2349529 0.3652978
vn 0.0000004 0.7976627 -0.6031039
vt 0.9496391 0.9685644
v 1.1059730 -2.1725781 0.5037189
vn 0.0000000 0.9807848 -0.1950925
vt 0.9496391 0.9542972
v 1.3664210 -2.2349529 0.3652978
vn 0.0000000 0.7976622 -0.6031045
vt 0.9771087 0.9685645
v 1.1059730 -2.3509550 0.2677107
vn 0.0000007 0.4577298 -0.8890914
vt 0.9496391 0.9828098
v 1.3664210 -2.3509560 0.2677107
vn 0.0000004 0.4577291 -0.8890917
vt 0.9771087 0.9828098
v 1.3664210 -2.1725781 0.5037189
vn 1.0000000 0.0000000 0.0000000
vt 0.9402912 0.4186729
v 1.3664210 -2.1772330 0.6554735
vn 1.0000000 -0.0000001 0.0000002
vt 0.9239652 0.4191737
v 1.3664210 -2.2470610 0.7900246
vn 1.0000000 -0.0000048 -0.0000025
vt 0.9094899 0.4266858
v 1.3664200 -2.3681610 0.8809793
vn 1.0000000 0.0000026 0.0000038
vt 0.8997048 0.4397140
v 1.3664210 -2.5166590 0.9105173
vn 1.0000000 0.0000005 0.0000007
vt 0.8965271 0.4556897
v 1.3664210 -2.6633470 0.8728291
vn 1.0000000 0.0000000 0.0000000
vt 0.9005814 0.4714705
v 1.3664210 -2.7793500 0.7752419
vn 1.0000000 -0.0000009 0.0000002
vt 0.9110800 0.4839505
v 1.3664200 -2.8417261 0.6368207
vn 1.0000000 -0.0000103 0.0000020
vt 0.9259719 0.4906611
v 1.3664210 -2.8370700 0.4850662
vn 1.0000000 -0.0000009 0.0000002
vt 0.9422981 0.4901602
v 1.3664210 -2.7672420 0.3505151
vn 1.0000000 0.0000000 0.0000000
vt 0.9567729 0.4826478
v 1.3664210 -2.6461420 0.2595604
vn 1.0000000 0.0000000 0.0000000
vt 0.9665577 0.4696195
v 1.1059730 -2.7672420 0.3505151
vn -1.0000000 -0.0000001 -0.0000001
vt 0.9567729 0.4826478
v 1.1059730 -2.8370700 0.4850662
vn -1.0000000 0.0000000 0.0000000
vt 0.9422981 0.4901602
v 1.1059730 -2.8417261 0.6368207
vn -1.0000000 -0.0000003 -0.0000002
vt 0.9259719 0.4906611
v 1.1059730 -2.7793500 0.7752417
vn -1.0000000 0.0000012 -0.0000014
vt 0.9110800 0.4839505
v 1.1059730 -2.6633480 0.8728291
vn -1.0000000 0.0000001 -0.0000003
vt 0.9005814 0.4714705
v 1.1059730 -2.5166590 0.9105173
vn -1.0000000 0.0000005 -0.0000018
vt 0.8965269 0.4556896
v 1.1059730 -2.3681610 0.8809793
vn -1.0000000 0.0000004 0.0000015
vt 0.8997048 0.4397140
v 1.1059730 -2.2470610 0.7900246
vn -1.0000000 -0.0000000 0.0000000
vt 0.9094900 0.4266858
v 1.1059730 -2.1772330 0.6554735
vn -1.0000000 -0.0000016 -0.0000008
vt 0.9239653 0.4191738
v 1.1059730 -2.1725781 0.5037189
vn -1.0000000 0.0000002 -0.0000003
vt 0.9402913 0.4186729
v 1.1059730 -2.2349529 0.3652978
vn -1.0000000 0.0000000 0.0000000
vt 0.9551827 0.4253832
v 1.1059730 -2.8417261 0.6368207
vn -0.0000001 -0.9807851 0.1950911
vt 0.9496391 0.9400549
v 1.3664200 -2.8417261 0.6368207
vn 0.0000000 -0.9807852 0.1950909
vt 0.9771087 0.9683336
v 1.3664210 -2.4976449 0.2300224
vn 0.0000002 0.0275653 -0.9996200
vt 0.9771087 0.9970424
v 1.1059730 -2.4976449 0.2300224
vn 0.0000000 0.0275651 -0.9996200
vt 0.9496391 0.9970424
v 1.1059730 -2.6633480 0.8728291
vn 0.0000003 -0.4577301 0.8890912
vt 0.9496387 0.9970940
v 1.3664210 -2.6633470 0.8728291
vn 0.0000001 -0.4577294 0.8890916
vt 0.9771087 0.9970940
v 1.3664210 -2.1772330 0.6554735
vn 0.0000009 0.9677420 0.2519433
vt 0.9771087 0.9400302
v 1.1059730 -2.1772330 0.6554735
vn 0.0000006 0.9677421 0.2519428
vt 0.9496387 0.9400299

g group_151838656_140627851876240
f 1/1/1 2/2/2 3/3/3 
f 4/4/4 5/5/5 6/6/6 
f 7/7/7 8/8/8 9/9/9 
f 10/10/10 11/11/11 12/12/12 
f 5/5/5 13/13/13 14/14/14 
f 13/13/13 15/15/15 16/16/16 
f 15/15/15 17/17/17 18/18/18 
f 19/19/19 20/20/20 21/21/21 
f 22/22/22 19/19/19 23/23/23 
f 3/3/3 61/61/61 1/1/1 
f 2/2/2 24/24/24 25/25/25 
f 24/24/24 26/26/26 27/27/27 
f 63/63/63 28/28/28 29/29/29 
f 30/30/30 31/31/31 32/32/32 
f 33/33/33 30/30/30 34/34/34 
f 60/60/60 33/33/33 59/59/59 
f 2/2/2 25/25/25 3/3/3 
f 5/5/5 14/14/14 6/6/6 
f 8/8/8 35/35/35 36/36/36 
f 36/36/36 37/37/37 38/38/38 
f 36/36/36 38/38/38 39/39/39 
f 39/39/39 40/40/40 41/41/41 
f 41/41/41 42/42/42 43/43/43 
f 39/39/39 41/41/41 43/43/43 
f 43/43/43 44/44/44 45/45/45 
f 43/43/43 45/45/45 9/9/9 
f 39/39/39 43/43/43 9/9/9 
f 36/36/36 39/39/39 9/9/9 
f 8/8/8 36/36/36 9/9/9 
f 46/46/46 47/47/47 48/48/48 
f 48/48/48 49/49/49 50/50/50 
f 46/46/46 48/48/48 50/50/50 
f 50/50/50 51/51/51 52/52/52 
f 50/50/50 52/52/52 53/53/53 
f 53/53/53 54/54/54 55/55/55 
f 55/55/55 56/56/56 12/12/12 
f 53/53/53 55/55/55 12/12/12 
f 50/50/50 53/53/53 12/12/12 
f 46/46/46 50/50/50 12/12/12 
f 11/11/11 46/46/46 12/12/12 
f 13/13/13 16/16/16 14/14/14 
f 15/15/15 18/18/18 16/16/16 
f 17/17/17 57/57/57 18/18/18 
f 20/20/20 58/58/58 21/21/21 
f 19/19/19 21/21/21 23/23/23 
f 61/61/61 62/62/62 1/1/1 
f 24/24/24 27/27/27 25/25/25 
f 26/26/26 64/64/64 27/27/27 
f 28/28/28 31/31/31 29/29/29 
f 31/31/31 28/28/28 32/32/32 
f 30/30/30 32/32/32 34/34/34 
f 33/33/33 34/34/34 59/59/59 
