v 1.3425421 -1.6154050 0.4985230
vn 0.0094614 0.5742753 0.8186076
vt 0.9777020 0.9059106
v 1.3425410 -1.5247689 0.3737737
vn 0.0252105 0.9479815 0.3173255
vt 0.9777021 0.8919300
v 1.1288620 -1.5847780 0.4739364
vn -0.0410079 0.6992201 0.7137293
vt 0.9982944 0.9024609
v 1.3425410 -1.5247689 0.2195749
vn 0.0259572 0.9480779 -0.3169774
vt 0.9777021 0.8779495
v 1.1288620 -1.5094610 0.2964306
vn -0.0455203 0.9989634 -0.0002535
vt 0.9983187 0.8851119
v 1.3425421 -1.6154050 0.0948255
vn 0.0113535 0.5744593 -0.8184544
vt 0.9777021 0.8639691
v 1.1288620 -1.5847780 0.1189248
vn -0.0393804 0.6990132 -0.7140236
vt 0.9984888 0.8683534
v 1.1288620 -1.7619680 0.0461403
vn -0.0302268 0.0000946 -0.9995431
vt 0.9983061 0.8777045
v 1.3425421 -1.7620569 0.0471756
vn 0.0048446 -0.0000818 -0.9999883
vt 0.9777020 0.8779451
v 1.3425421 -1.9087080 0.0948256
vn 0.0108901 -0.5745648 -0.8183866
vt 0.9777020 0.8919211
v 1.3425421 -1.9993440 0.2195750
vn 0.0251731 -0.9481110 -0.3169415
vt 0.9777020 0.9058971
v 1.1288620 -1.9391580 0.1189249
vn -0.0399605 -0.6989024 -0.7140999
vt 0.9982923 0.8953267
v 1.3425421 -1.9993440 0.3737737
vn 0.0244260 -0.9480144 0.3172886
vt 0.9777020 0.9198731
v 1.1288620 -2.0144761 0.2964306
vn -0.0463497 -0.9989253 -0.0002536
vt 0.9983218 0.9126753
v 1.3425421 -1.9087090 0.4985231
vn 0.0089972 -0.5743811 0.8185386
vt 0.9777020 0.9338490
v 1.1288620 -1.9391580 0.4739364
vn -0.0415892 -0.6991088 0.7138048
vt 0.9984488 0.9290842
v 1.3425421 -1.9087090 0.4985231
vn 0.0089972 -0.5743811 0.8185386
vt 0.9777020 0.9338719
v 1.1288620 -1.7619680 0.5467209
vn -0.0325067 0.0000950 0.9994715
vt 0.9983096 0.9200777
v 1.1288620 -1.9391580 0.4739364
vn -0.0415892 -0.6991088 0.7138048
vt 0.9984311 0.9326792
v 1.3425421 -1.7620569 0.5461732
vn 0.0025632 -0.0000810 0.9999967
vt 0.9777020 0.9198910
v 1.1288620 -1.5847780 0.4739364
vn -1.0000000 0.0000000 0.0000000
vt 0.8891432 0.0412008
v 1.1288620 -1.5094610 0.2964306
vn -1.0000000 0.0000000 0.0000000
vt 0.9033571 0.0474049
v 1.1288620 -1.7619680 0.5467209
vn -1.0000000 0.0000000 0.0000000
vt 0.8832002 0.0272281
v 1.3425421 -1.7620569 0.5461732
vn 1.0000000 0.0000000 0.0000000
vt 0.9097798 0.7404391
v 1.3425421 -1.9087080 0.0948256
vn 1.0000000 0.0000000 0.0000000
vt 0.9592022 0.7564974
v 1.3425421 -1.7620569 0.0471756
vn 1.0000000 0.0000000 0.0000000
vt 0.9644200 0.7404391
v 1.3425421 -1.6154050 0.4985230
vn 1.0000000 0.0000016 0.0000000
vt 0.9149974 0.7243807
v 1.3425410 -1.5247689 0.2195749
vn 1.0000000 0.0000066 0.0000000
vt 0.9455422 0.7144561
v 1.3425410 -1.5247689 0.3737737
vn 1.0000000 0.0000066 0.0000000
vt 0.9286574 0.7144561
v 1.1288620 -1.5847780 0.1189248
vn -1.0000000 0.0000000 0.0000000
vt 0.9175693 0.0414720
v 1.1288620 -1.7619680 0.0461403
vn -1.0000000 0.0000000 0.0000000
vt 0.9235445 0.0272287
v 1.1288620 -1.9391580 0.1189249
vn -1.0000000 0.0000000 0.0000000
vt 0.9177815 0.0413766
v 1.1288620 -2.0144761 0.2964306
vn -1.0000000 0.0000000 0.0000000
vt 0.9033793 0.0476211
v 1.1288620 -1.9391580 0.4739364
vn -1.0000000 0.0000000 0.0000000
vt 0.8890575 0.0415071
v 1.3425421 -1.9087090 0.4985231
vn 1.0000000 0.0000000 0.0000000
vt 0.9149974 0.7564974
v 1.3425421 -1.9993440 0.3737737
vn 1.0000000 0.0000000 0.0000000
vt 0.9286574 0.7664220
v 1.3425421 -1.9993440 0.2195750
vn 1.0000000 0.0000000 0.0000000
vt 0.9455422 0.7664220
v 1.3425421 -1.6154050 0.0948255
vn 1.0000000 0.0000016 0.0000000
vt 0.9592022 0.7243807
v 1.3425421 -1.6154050 0.0948255
vn 0.0113535 0.5744593 -0.8184544
vt 0.9777021 0.8639691
v 1.1288620 -1.5847780 0.1189248
vn -0.0393804 0.6990132 -0.7140236
vt 0.9984888 0.8683534
v 1.1288620 -1.7619680 0.5467209
vn -1.0000000 0.0000000 0.0000000
vt 0.8832002 0.0272281
v 1.1288620 -1.7619680 0.0461403
vn -1.0000000 0.0000000 0.0000000
vt 0.9235445 0.0272287

g group_201516360_140627854246896
f 1/1/1 2/2/2 3/3/3 
f 2/2/2 4/4/4 5/5/5 
f 4/4/4 6/6/6 7/7/7 
f 39/39/39 8/8/8 40/40/40 
f 9/9/9 10/10/10 8/8/8 
f 10/10/10 11/11/11 12/12/12 
f 11/11/11 13/13/13 14/14/14 
f 13/13/13 15/15/15 16/16/16 
f 17/17/17 18/18/18 19/19/19 
f 20/20/20 1/1/1 18/18/18 
f 21/21/21 22/22/22 23/23/23 
f 24/24/24 25/25/25 26/26/26 
f 27/27/27 28/28/28 29/29/29 
f 2/2/2 5/5/5 3/3/3 
f 10/10/10 12/12/12 8/8/8 
f 11/11/11 14/14/14 12/12/12 
f 1/1/1 3/3/3 18/18/18 
f 22/22/22 30/30/30 31/31/31 
f 32/32/32 33/33/33 34/34/34 
f 32/32/32 34/34/34 41/41/41 
f 42/42/42 32/32/32 41/41/41 
f 22/22/22 31/31/31 23/23/23 
f 24/24/24 35/35/35 36/36/36 
f 24/24/24 36/36/36 37/37/37 
f 24/24/24 37/37/37 25/25/25 
f 27/27/27 24/24/24 26/26/26 
f 27/27/27 26/26/26 38/38/38 
f 27/27/27 38/38/38 28/28/28 
f 7/7/7 5/5/5 4/4/4 
f 39/39/39 9/9/9 8/8/8 
f 16/16/16 14/14/14 13/13/13 
f 17/17/17 20/20/20 18/18/18 
