v -1.1542280 -1.4755950 0.9613011
vn 0.0000000 0.7071067 0.7071068
vt 0.9503214 0.0414715
v -1.1542280 -1.4361219 0.8660045
vn 0.0000000 1.0000000 0.0000001
vt 0.9614614 0.0414715
v -1.3219630 -1.4361219 0.8660045
vn 0.0000000 1.0000000 0.0000001
vt 0.9614614 0.0595869
v -1.1542280 -1.4755950 0.7707079
vn 0.0000000 0.7071066 -0.7071070
vt 0.9726014 0.0414715
v -1.3219630 -1.4755950 0.7707079
vn 0.0000000 0.7071066 -0.7071069
vt 0.9726014 0.0595869
v -1.1542280 -1.4755950 0.7707079
vn 0.0000000 0.7071066 -0.7071070
vt 0.9503214 0.0414715
v -1.1542280 -1.5708920 0.7312348
vn 0.0000000 0.0000000 -1.0000000
vt 0.9614612 0.0414715
v -1.3219630 -1.5708920 0.7312348
vn 0.0000000 0.0000000 -1.0000000
vt 0.9614612 0.0595869
v -1.1542280 -1.6661880 0.7707079
vn 0.0000000 -0.7071070 -0.7071066
vt 0.9726014 0.0414715
v -1.3219630 -1.6661880 0.7707079
vn 0.0000000 -0.7071069 -0.7071066
vt 0.9726014 0.0595869
v -1.1542280 -1.6661880 0.7707079
vn 0.0000000 -0.7071070 -0.7071066
vt 0.9503214 0.0414715
v -1.1542280 -1.7056620 0.8660045
vn 0.0000000 -1.0000000 0.0000001
vt 0.9614612 0.0414715
v -1.3219630 -1.7056620 0.8660045
vn 0.0000000 -1.0000000 0.0000001
vt 0.9614612 0.0595869
v -1.1542280 -1.6661880 0.9613011
vn 0.0000000 -0.7071072 0.7071065
vt 0.9726014 0.0414715
v -1.3219630 -1.6661880 0.9613011
vn 0.0000000 -0.7071072 0.7071065
vt 0.9726014 0.0595869
v -1.1542280 -1.6661880 0.9613011
vn 0.0000000 -0.7071072 0.7071065
vt 0.9503214 0.0414715
v -1.1542280 -1.5708920 1.0007740
vn 0.0000000 -0.0000000 1.0000000
vt 0.9614613 0.0414715
v -1.3219630 -1.5708920 1.0007740
vn 0.0000000 0.0000000 1.0000000
vt 0.9614613 0.0595869
v -1.1542280 -1.4755950 0.9613011
vn 0.0000000 0.7071067 0.7071068
vt 0.9726014 0.0414715
v -1.3219630 -1.4755950 0.9613011
vn 0.0000000 0.7071067 0.7071069
vt 0.9726014 0.0595869
v -1.1542280 -1.4755950 0.9613011
vn 1.0000000 0.0000000 0.0000000
vt 0.9239809 0.1458927
v -1.1542280 -1.4755950 0.7707079
vn 1.0000000 0.0000000 0.0000000
vt 0.9166831 0.1458927
v -1.1542280 -1.4361219 0.8660045
vn 1.0000000 0.0000000 0.0000000
vt 0.9203320 0.1444552
v -1.3219630 -1.4755950 0.9613011
vn -1.0000000 0.0000000 0.0000000
vt 0.9719870 0.1468605
v -1.3219630 -1.6661880 0.9613011
vn -1.0000000 0.0000000 0.0000000
vt 0.9719870 0.1279917
v -1.3219630 -1.5708920 1.0007740
vn -1.0000000 0.0000000 0.0000000
vt 0.9760960 0.1374261
v -1.3219630 -1.4755950 0.9613011
vn 0.0000000 0.7071067 0.7071069
vt 0.9503214 0.0595869
v -1.3219630 -1.4755950 0.7707079
vn 0.0000000 0.7071066 -0.7071069
vt 0.9503214 0.0595869
v -1.3219630 -1.6661880 0.7707079
vn 0.0000000 -0.7071069 -0.7071066
vt 0.9503214 0.0595869
v -1.3219630 -1.6661880 0.9613011
vn 0.0000000 -0.7071072 0.7071065
vt 0.9503214 0.0595869
v -1.1542280 -1.5708920 1.0007740
vn 1.0000000 0.0000000 0.0000000
vt 0.9254923 0.1493631
v -1.1542280 -1.6661880 0.9613011
vn 1.0000000 0.0000000 0.0000000
vt 0.9239809 0.1528335
v -1.1542280 -1.7056620 0.8660045
vn 1.0000000 0.0000000 0.0000000
vt 0.9203320 0.1542710
v -1.1542280 -1.6661880 0.7707079
vn 1.0000000 0.0000000 0.0000000
vt 0.9166831 0.1528335
v -1.1542280 -1.5708920 0.7312348
vn 1.0000000 0.0000000 0.0000000
vt 0.9151716 0.1493631
v -1.3219630 -1.4361219 0.8660045
vn -1.0000000 0.0000000 0.0000000
vt 0.9620672 0.1507683
v -1.3219630 -1.4755950 0.7707079
vn -1.0000000 0.0000000 0.0000000
vt 0.9521475 0.1468605
v -1.3219630 -1.5708920 0.7312348
vn -1.0000000 0.0000000 0.0000000
vt 0.9480385 0.1374261
v -1.3219630 -1.6661880 0.7707079
vn -1.0000000 0.0000000 0.0000000
vt 0.9521475 0.1279917
v -1.3219630 -1.7056620 0.8660045
vn -1.0000000 0.0000000 0.0000000
vt 0.9620672 0.1240839

g group_201521736_140627853725072
f 1/1/1 2/2/2 3/3/3 
f 2/2/2 4/4/4 5/5/5 
f 6/6/6 7/7/7 8/8/8 
f 7/7/7 9/9/9 10/10/10 
f 11/11/11 12/12/12 13/13/13 
f 12/12/12 14/14/14 15/15/15 
f 16/16/16 17/17/17 18/18/18 
f 17/17/17 19/19/19 20/20/20 
f 21/21/21 22/22/22 23/23/23 
f 24/24/24 25/25/25 26/26/26 
f 3/3/3 27/27/27 1/1/1 
f 5/5/5 3/3/3 2/2/2 
f 8/8/8 28/28/28 6/6/6 
f 10/10/10 8/8/8 7/7/7 
f 13/13/13 29/29/29 11/11/11 
f 15/15/15 13/13/13 12/12/12 
f 18/18/18 30/30/30 16/16/16 
f 20/20/20 18/18/18 17/17/17 
f 21/21/21 31/31/31 32/32/32 
f 21/21/21 32/32/32 33/33/33 
f 21/21/21 33/33/33 34/34/34 
f 21/21/21 34/34/34 35/35/35 
f 21/21/21 35/35/35 22/22/22 
f 24/24/24 36/36/36 37/37/37 
f 24/24/24 37/37/37 38/38/38 
f 24/24/24 38/38/38 39/39/39 
f 24/24/24 39/39/39 40/40/40 
f 24/24/24 40/40/40 25/25/25 
