v 1.2618120 0.6190384 0.8602173
vn 0.9619343 -0.2702377 -0.0406699
vt 1.0007070 -4.0184221
v 1.2437340 0.5541070 0.8342291
vn 0.9659821 -0.2579122 -0.0189730
vt 0.9297249 -4.0415978
v 1.2618130 0.6250069 0.6568328
vn 0.9688550 -0.2476290 -0.0002325
vt 1.0007070 -4.2548442
v 1.2437350 0.5526461 0.6505803
vn 0.9701414 -0.2425324 0.0019355
vt 0.9297249 -4.2539830
v 1.2437340 -0.1100091 0.7841495
vn 0.9679002 -0.0053254 -0.2512788
vt 0.9297250 -3.2375727
v 1.2437340 0.4405735 0.9702763
vn 0.9683014 -0.0182145 -0.2491200
vt 0.9297249 -3.7695069
v 1.2618110 -0.1056866 0.8537561
vn 0.9679300 0.0002650 -0.2512202
vt 1.0007070 -3.2375727
v 1.2618110 -0.5709302 1.0250350
vn 0.9676193 -0.0361401 -0.2498136
vt 1.0007070 -2.7741160
v 1.2618110 -1.5718070 0.9900270
vn 0.9679504 0.0240257 -0.2499896
vt 0.9997870 -1.7621031
v 1.2437340 -0.5709302 0.9550728
vn 0.9671627 -0.0463179 -0.2499021
vt 0.9297249 -2.7741160
v 1.2618110 -2.8606670 0.5200010
vn 0.9635737 0.2657410 -0.0301257
vt 0.9997855 -0.3764141
v 1.2437340 -2.7936370 0.5313266
vn 0.9638770 0.2630830 -0.0415753
vt 0.9297249 -0.3764141
v 1.2618110 -2.8299150 0.6530287
vn 0.9642516 0.2564334 -0.0667894
vt 0.9997860 -0.5193706
v 1.2437340 -2.7645919 0.6361150
vn 0.9659269 0.2494113 -0.0691315
vt 0.9297249 -0.5193706
v 1.2618110 -3.2853920 0.0408027
vn 0.9646263 -0.0006421 0.2636206
vt 0.9995050 -0.1189133
v 1.2618110 3.1611209 0.0565060
vn 0.9666471 -0.0007066 0.2561113
vt 0.9995933 5.8899322
v 1.2437340 -3.2850010 0.1069518
vn 0.9646406 -0.0006426 0.2635682
vt 0.9297250 -0.1189133
v 1.2437330 3.1611209 0.1247518
vn 0.9666606 -0.0007070 0.2560601
vt 0.9297249 5.8895202
v 1.2256560 -2.8606670 0.5200009
vn -0.9635737 0.2657410 -0.0301257
vt 0.9992725 -0.3764141
v 1.2256560 -2.8299150 0.6530287
vn -0.9642516 0.2564334 -0.0667894
vt 0.9992731 -0.5193706
v 1.2437340 -2.7936370 0.5313266
vn -0.9638770 0.2630831 -0.0415753
vt 0.9297249 -0.3764141
v 1.2437340 -2.7645919 0.6361150
vn -0.9659269 0.2494113 -0.0691315
vt 0.9297249 -0.5193706
v 1.2256560 3.1611209 0.0565060
vn -0.9666611 -0.0006238 0.2560586
vt 0.9990818 5.8899322
v 1.2256560 -3.2853920 0.0408027
vn -0.9646406 -0.0007273 0.2635681
vt 0.9989882 -0.1189133
v 1.2437330 3.1611209 0.1247518
vn -0.9666475 -0.0006245 0.2561099
vt 0.9297249 5.8895202
v 1.2437340 -3.2850010 0.1069518
vn -0.9646261 -0.0007280 0.2636210
vt 0.9297250 -0.1189133
v 1.2618110 -2.3127091 0.8673336
vn 0.9598804 0.0431275 -0.2770736
vt 0.9997870 -1.0184340
v 1.2437340 -1.5718070 0.9200308
vn 0.9677035 0.0260334 -0.2507434
vt 0.9297249 -1.7621031
v 1.2618110 -2.8663599 0.2894433
vn 0.9633512 0.2681615 -0.0066215
vt 0.9997840 -0.1315870
v 1.2437340 -2.8008111 0.3140077
vn 0.9636472 0.2670871 -0.0069596
vt 0.9297249 -0.1561954
v 1.2437340 -2.8008111 0.3140077
vn -0.9636472 0.2670871 -0.0069596
vt 0.9297249 -0.1561954
v 1.2256560 -2.8663599 0.2894433
vn -0.9633512 0.2681615 -0.0066215
vt 0.9992710 -0.1315870
v 1.2437340 0.5412210 0.9202493
vn 0.9637385 -0.2215933 -0.1486762
vt 0.9297249 -3.8889079
v 1.2618110 0.5751805 0.9781494
vn 0.9626762 -0.1902751 -0.1924838
vt 1.0007070 -3.8889079
v 1.2618110 0.4405735 1.0399270
vn 0.9678754 -0.0106021 -0.2512068
vt 1.0007070 -3.7695069
v 1.4298950 -2.8606670 0.5200009
vn 1.0000000 0.0000000 0.0000000
vt 0.4045050 -0.3764141
v 1.4298950 -2.8987210 0.5124682
vn 1.0000000 0.0000000 0.0000000
vt 0.4571361 -0.3764141
v 1.4298950 -2.8663599 0.2813973
vn 1.0000000 0.0000000 0.0000000
vt 0.4045050 -0.1684997
v 1.4298950 -2.9015620 0.2813720
vn 0.0000000 -0.9999245 0.0122947
vt 0.4571361 -0.1684997
v 1.4298950 -2.8987210 0.5124682
vn 0.0000000 -0.9906330 0.1365519
vt 0.4571361 -0.3764141
v 1.0494300 -2.9015620 0.2813720
vn 0.0000000 -0.9999244 0.0122947
vt 0.8168250 -0.1684997
v 1.0494300 -2.9015620 0.2813720
vn -1.0000000 0.0000034 -0.0000006
vt 0.0202790 -0.1684997
v 1.0494291 -2.8987210 0.5124682
vn -1.0000000 0.0000061 -0.0000001
vt 0.0202790 -0.3764141
v 1.0494300 -2.8663599 0.2813973
vn -1.0000000 0.0000037 -0.0000005
vt 0.0718696 -0.1684997
v 1.4298950 -2.8098669 0.6971607
vn 1.0000000 0.0000000 0.0000000
vt 0.4045050 -0.5789917
v 1.4298950 -2.8448350 0.7136833
vn 1.0000000 0.0000001 -0.0000001
vt 0.4571361 -0.5789917
v 1.4298950 -2.8448350 0.7136833
vn 0.0000000 -0.8819841 0.4712791
vt 0.4571361 -0.5789917
v 1.0494291 -2.8987210 0.5124682
vn 0.0000000 -0.9906330 0.1365519
vt 0.8168250 -0.3764141
v 1.0494300 -2.8448350 0.7136833
vn -1.0000000 -0.0000023 0.0000012
vt 0.0202790 -0.5789917
v 1.0494300 -2.8606670 0.5200009
vn -1.0000000 0.0000057 0.0000000
vt 0.0718696 -0.3764141
v 1.4298950 -2.6750319 0.8546892
vn 1.0000000 0.0000014 -0.0000026
vt 0.4045050 -0.7635288
v 1.4298950 -2.5076311 0.9040208
vn 1.0000000 0.0000003 -0.0000002
vt 0.4045050 -0.8864502
v 1.4298950 -2.6901319 0.8901344
vn 1.0000000 0.0000014 -0.0000025
vt 0.4571361 -0.7635288
v 1.4298950 -2.6901319 0.8901344
vn 0.0000000 -0.5348965 0.8449176
vt 0.4571361 -0.7635288
v 1.4298950 -2.5090859 0.9417621
vn 0.0000002 -0.0467673 0.9989058
vt 0.4571361 -0.8864502
v 1.0494300 -2.6901319 0.8901344
vn 0.0000001 -0.5348967 0.8449175
vt 0.8168250 -0.7635288
v 1.0494300 -2.5090859 0.9417623
vn -1.0000000 0.0000000 0.0000000
vt 0.0202790 -0.8864502
v 1.0494300 -2.5076311 0.9040208
vn -1.0000000 -0.0000000 0.0000002
vt 0.0718696 -0.8864502
v 1.0494300 -2.6901319 0.8901344
vn -1.0000000 -0.0000015 0.0000025
vt 0.0202790 -0.7635288
v 1.4298950 -2.5076311 0.9040208
vn -0.0000002 0.0502493 -0.9987367
vt 0.4045050 -0.8864502
v 1.4298950 -2.6750319 0.8546892
vn -0.0000001 0.5436012 -0.8393437
vt 0.4045050 -0.7635288
v 1.0494300 -2.5076311 0.9040208
vn 0.0189790 0.0152021 -0.9997044
vt 0.0718696 -0.8864502
v 1.4298950 -2.3127091 0.8673335
vn 1.0000000 0.0000000 0.0000000
vt 0.4045050 -1.0184340
v 1.4298950 -2.3005550 0.9029056
vn 1.0000000 -0.0000000 0.0000000
vt 0.4571361 -1.0184340
v 1.4298950 -2.3005550 0.9029056
vn 0.0000002 0.0070578 0.9999751
vt 0.4571361 -1.0184340
v 1.0494300 -2.5090859 0.9417623
vn 0.0000003 -0.0467673 0.9989058
vt 0.8168250 -0.8864502
v 1.0494300 -2.3005550 0.9029056
vn -1.0000000 0.0000000 -0.0000001
vt 0.0202790 -1.0184340
v 1.4298950 -1.5718070 0.9900268
vn 0.0080704 0.1089067 -0.9940192
vt 0.4045050 -1.7621031
v 1.0494300 -2.3127091 0.8464540
vn 0.0464390 -0.0568803 -0.9973004
vt 0.0718696 -1.0184340
v 1.0494300 -1.5718070 0.9900268
vn 0.0000000 0.1129445 -0.9936013
vt 0.0788929 -1.7714150
v 1.4298950 -0.1056866 0.8537560
vn 1.0000000 0.0000000 0.0000000
vt 0.4045050 -3.2375727
v 1.4298950 0.4405735 1.0399270
vn 1.0000000 -0.0000000 0.0000035
vt 0.4045050 -3.7695069
v 1.4298950 -0.1034467 0.8917722
vn 1.0000000 -0.0000000 0.0000001
vt 0.4571361 -3.2375727
v 1.4298950 -0.1034467 0.8917722
vn 0.0000000 0.0105444 0.9999444
vt 0.4571361 -3.2375727
v 1.0494300 0.4404793 1.0780590
vn 0.0000001 0.0443374 0.9990166
vt 0.8193859 -3.7695069
v 1.0494300 -0.1034467 0.8917722
vn -0.0000001 0.0105443 0.9999444
vt 0.8193859 -3.2375727
v 1.0494300 -0.1056866 0.8537560
vn 0.0000000 -0.0121427 -0.9999263
vt 0.0718696 -3.2375727
v 1.0494300 0.4405735 1.0399270
vn 0.0000000 -0.0508806 -0.9987048
vt 0.0718696 -3.7695069
v 1.4298950 -0.1056866 0.8537560
vn 0.0000000 -0.0121427 -0.9999263
vt 0.4045050 -3.2375727
v 1.4298950 0.5751804 0.9781495
vn 1.0000000 0.0000065 0.0000071
vt 0.4045050 -3.8889079
v 1.4298950 0.5937719 1.0098470
vn 1.0000000 0.0000051 0.0000075
vt 0.4571361 -3.8889079
v 1.4298950 0.4404793 1.0780590
vn 0.0000000 0.0443379 0.9990166
vt 0.4571361 -3.7695069
v 1.4298950 0.5937719 1.0098470
vn 0.0000002 0.7158460 0.6982582
vt 0.4571361 -3.8889079
v 1.4298960 0.6220407 0.6363714
vn 0.0000000 -0.9996448 -0.0266540
vt 0.4045050 -4.2653322
v 1.4298950 0.6160722 0.8602174
vn -0.0000001 -0.9838057 -0.1792383
vt 0.4045050 -4.0126281
v 1.0494310 0.6220407 0.6363714
vn -0.0000003 -0.9996448 -0.0266535
vt 0.0718696 -4.2648120
v 1.0494300 -0.5709302 1.0250350
vn 0.0000000 -0.1582260 -0.9874030
vt 0.0718696 -2.7741160
v 1.0494300 3.1611209 0.0565060
vn 0.0000000 -0.0024360 0.9999970
vt 0.0718696 5.8892279
v 1.0494300 -3.2853920 0.0408025
vn 0.0000000 -0.0024360 0.9999970
vt 0.0718696 -0.1189133
v 1.4298950 3.1611209 0.0565060
vn 0.0000000 -0.0024360 0.9999970
vt 0.4045050 5.8891158
v 1.4298950 -3.2853920 0.0408025
vn 0.0000000 -0.0024360 0.9999970
vt 0.4045050 -0.1189133
v 1.4298950 -0.5709302 1.0250350
vn 1.0000000 -0.0000001 0.0000000
vt 0.4045050 -2.7741160
v 1.4298950 -1.5722980 1.0279959
vn 1.0000000 -0.0000002 0.0000031
vt 0.4571361 -1.7621031
v 1.4298950 -1.5718070 0.9900268
vn 1.0000000 -0.0000002 0.0000031
vt 0.4045050 -1.7621031
v 1.4298950 -0.5711635 1.0630610
vn -0.0000002 0.1573645 0.9875406
vt 0.4571361 -2.7741160
v 1.0494291 -1.5722980 1.0279959
vn -0.0000000 -0.1023792 0.9947455
vt 0.8197007 -1.7764890
v 1.4298950 -1.5722980 1.0279959
vn 0.0000000 -0.1023792 0.9947455
vt 0.4571361 -1.7621031
v 1.4298950 3.1611209 0.0565060
vn 1.0000000 0.0000000 -0.0000024
vt 0.4045050 5.8891158
v 1.4298950 -3.2853920 0.0408025
vn 1.0000000 0.0000000 -0.0000000
vt 0.4045050 -0.1189133
v 1.4298950 3.1616521 0.0060884
vn 1.0000000 0.0000000 -0.0000024
vt 0.4571361 5.8897090
v 1.4298950 -3.2856660 0.0018209
vn 1.0000000 0.0000000 -0.0000000
vt 0.4571361 -0.1189133
v 1.4298950 3.1616521 0.0060884
vn 0.0000000 0.0006619 -0.9999998
vt 0.4571361 5.8897090
v 1.4298950 -3.2856660 0.0018209
vn 0.0000001 0.0006619 -0.9999998
vt 0.4571361 -0.1189133
v 1.0494300 3.1616521 0.0060884
vn 0.0000000 0.0006619 -0.9999998
vt 0.8168185 5.8897638
v 1.0494300 -3.2856660 0.0018208
vn 0.0000001 0.0006619 -0.9999998
vt 0.8188160 -0.1189133
v 1.0494300 3.1616521 0.0060884
vn -1.0000000 -0.0000000 0.0000024
vt 0.0202790 5.8905540
v 1.0494300 -3.2856660 0.0018208
vn -1.0000000 -0.0000000 0.0000000
vt 0.0202790 -0.1189133
v 1.0494300 3.1611209 0.0565060
vn -1.0000000 -0.0000000 0.0000024
vt 0.0718696 5.8892279
v 1.0494300 -3.2853920 0.0408025
vn -1.0000000 0.0000000 0.0000000
vt 0.0718696 -0.1189133
v 1.4298950 -2.8606670 0.5200009
vn 0.0000000 0.9885376 -0.1509752
vt 0.4045050 -0.3764141
v 1.4298950 -2.8663599 0.2813973
vn 0.0000000 0.9997155 -0.0238527
vt 0.4045050 -0.1684997
v 1.0494300 -2.8606670 0.5200009
vn 0.0000000 0.9885376 -0.1509752
vt 0.0718696 -0.3764141
v 1.4298950 -2.8098669 0.6971607
vn 0.0000000 0.8806360 -0.4737935
vt 0.4045050 -0.5789917
v 1.0494300 -2.8098669 0.6971607
vn 0.0000000 0.8806360 -0.4737935
vt 0.0718696 -0.5789917
v 1.0494300 -2.8448350 0.7136833
vn 0.0000000 -0.8819842 0.4712790
vt 0.8168250 -0.5789917
v 1.0494300 -2.6750319 0.8546892
vn -1.0000000 -0.0000018 0.0000026
vt 0.0718696 -0.7635288
v 1.0494300 -2.6750319 0.8546892
vn 0.0000000 0.5436013 -0.8393435
vt 0.0718696 -0.7635288
v 1.4298950 -2.3127091 0.8673335
vn 0.0358769 -0.0269085 -0.9989939
vt 0.4045050 -1.0184340
v 1.0494300 -2.3127091 0.8464540
vn -1.0000000 0.0000000 0.0000000
vt 0.0718696 -1.0184340
v 1.0494300 -1.5718070 0.9900268
vn -1.0000000 0.0000007 -0.0000060
vt 0.0788929 -1.7714150
v 1.4298950 -0.5709302 1.0250350
vn 0.0000000 -0.1582260 -0.9874030
vt 0.4045050 -2.7741160
v 1.4298950 -0.5711635 1.0630610
vn 1.0000000 -0.0000001 -0.0000000
vt 0.4571361 -2.7741160
v 1.0494300 -0.5711635 1.0630610
vn -0.0000003 0.1573645 0.9875406
vt 0.8193859 -2.7741160
v 1.4298950 0.6500263 0.8744575
vn 1.0000000 0.0000059 0.0000038
vt 0.4571361 -4.0126281
v 1.4298950 0.6160722 0.8602174
vn 1.0000000 0.0000051 0.0000039
vt 0.4045050 -4.0126281
v 1.4298960 0.6600219 0.6399148
vn 1.0000000 0.0000001 0.0000043
vt 0.4571361 -4.2657061
v 1.0494300 0.6500264 0.8744576
vn 0.0000002 0.9762899 0.2164674
vt 0.8193859 -4.0126281
v 1.4298950 0.6500263 0.8744575
vn 0.0000002 0.9762900 0.2164665
vt 0.4571361 -4.0126281
v 1.0494310 0.6600220 0.6399149
vn 0.0000002 0.9990931 0.0425787
vt 0.8193859 -4.2658229
v 1.0494300 0.6160724 0.8602173
vn -0.0000004 -0.9838056 -0.1792389
vt 0.0718696 -4.0126281
v 1.0494300 0.5751804 0.9781495
vn -0.0000001 -0.7403888 -0.6721789
vt 0.0718696 -3.8889079
v 1.0494300 0.5937719 1.0098470
vn 0.0000002 0.7158453 0.6982589
vt 0.8193859 -3.8889079
v 1.4298950 0.5751804 0.9781495
vn 0.0000000 -0.7403896 -0.6721780
vt 0.4045050 -3.8889079
v 1.4298960 0.6220407 0.6363714
vn 0.0000000 0.0928895 -0.9956764
vt 0.4201166 0.6994313
v 1.0494310 0.6220407 0.6363714
vn -0.0000003 0.0928923 -0.9956762
vt 0.0685671 0.6994312
v 1.4298960 0.6600219 0.6399148
vn -0.0000000 0.0928897 -0.9956764
vt 0.4201166 0.6643367
v 1.4298950 -2.8663599 0.2813973
vn 0.0000000 0.0007204 -0.9999998
vt 0.4226009 0.6657969
v 1.4298950 -2.9015620 0.2813720
vn 0.0000000 0.0007204 -0.9999998
vt 0.4226009 0.6982537
v 1.0494300 -2.8663599 0.2813973
vn 0.0000000 0.0007204 -0.9999998
vt 0.0718105 0.6657969
v 1.4298950 -3.2853920 0.0408025
vn 0.0000000 -0.9999753 0.0070396
vt 0.4194376 0.7000105
v 1.0494300 -3.2853920 0.0408025
vn -0.0000000 -0.9999753 0.0070395
vt 0.0656035 0.7000104
v 1.4298950 -3.2856660 0.0018209
vn -0.0000000 -0.9999753 0.0070396
vt 0.4194376 0.6637574
v 1.0494300 -3.2856660 0.0018208
vn -0.0000000 -0.9999753 0.0070395
vt 0.0656035 0.6637573
v 1.4298950 3.1616521 0.0060884
vn 0.0000000 0.9999446 0.0105306
vt 0.4172690 0.7051271
v 1.0494300 3.1616521 0.0060884
vn 0.0000000 0.9999446 0.0105306
vt 0.0664705 0.7051271
v 1.4298950 3.1611209 0.0565060
vn 0.0000000 0.9999446 0.0105306
vt 0.4172691 0.6586408
v 1.0494300 3.1611209 0.0565060
vn 0.0000000 0.9999446 0.0105306
vt 0.0664707 0.6586409
v 1.2437340 -2.3104780 0.8054507
vn 0.9594028 0.0432320 -0.2787066
vt 0.9297249 -1.0184340
v 1.4298950 -2.9015620 0.2813720
vn 1.0000000 0.0000000 0.0000000
vt 0.4571361 -0.1684997
v 1.0494300 -2.8098669 0.6971607
vn -1.0000000 -0.0000028 0.0000012
vt 0.0718696 -0.5789917
v 1.4298950 -2.5090859 0.9417621
vn 1.0000000 0.0000003 0.0000000
vt 0.4571361 -0.8864502
v 1.0494300 -2.3005550 0.9029056
vn 0.0000002 0.0070578 0.9999751
vt 0.8168250 -1.0184340
v 1.4298950 0.4404793 1.0780590
vn 1.0000000 -0.0000001 0.0000031
vt 0.4571361 -3.7695069
v 1.4298950 0.4405735 1.0399270
vn 0.0000000 -0.0508810 -0.9987047
vt 0.4045050 -3.7695069
v 1.0494300 -2.8663599 0.2813973
vn 0.0000000 0.9997155 -0.0238527
vt 0.0718696 -0.1684997
v 1.0494291 -1.5722980 1.0279959
vn -1.0000000 0.0000007 -0.0000063
vt 0.0685576 -1.8199060
v 1.4298960 0.6220407 0.6363714
vn 1.0000000 -0.0000004 0.0000042
vt 0.4045050 -4.2653322
v 1.4298960 0.6600219 0.6399148
vn 0.0000002 0.9990931 0.0425786
vt 0.4571361 -4.2657061
v 1.0494310 0.6600220 0.6399149
vn -0.0000003 0.0928925 -0.9956762
vt 0.0685672 0.6643366
v 1.0494300 -2.9015620 0.2813720
vn 0.0000000 0.0007204 -0.9999998
vt 0.0718105 0.6982537

g group_201517872_140627854144000
f 1/1/1 2/2/2 3/3/3 
f 3/3/3 2/2/2 4/4/4 
f 5/5/5 6/6/6 7/7/7 
f 8/8/8 5/5/5 7/7/7 
f 8/8/8 9/9/9 10/10/10 
f 11/11/11 12/12/12 13/13/13 
f 13/13/13 12/12/12 14/14/14 
f 15/15/15 16/16/16 17/17/17 
f 17/17/17 16/16/16 18/18/18 
f 19/19/19 20/20/20 21/21/21 
f 21/21/21 20/20/20 22/22/22 
f 23/23/23 24/24/24 25/25/25 
f 25/25/25 24/24/24 26/26/26 
f 27/27/27 28/28/28 9/9/9 
f 29/29/29 30/30/30 11/11/11 
f 11/11/11 30/30/30 12/12/12 
f 21/21/21 31/31/31 19/19/19 
f 19/19/19 31/31/31 32/32/32 
f 2/2/2 1/1/1 33/33/33 
f 33/33/33 1/1/1 34/34/34 
f 33/33/33 34/34/34 6/6/6 
f 6/6/6 34/34/34 35/35/35 
f 36/36/36 37/37/37 38/38/38 
f 39/39/39 40/40/40 41/41/41 
f 42/42/42 43/43/43 44/44/44 
f 45/45/45 46/46/46 36/36/36 
f 40/40/40 47/47/47 48/48/48 
f 43/43/43 49/49/49 50/50/50 
f 51/51/51 52/52/52 53/53/53 
f 54/54/54 55/55/55 56/56/56 
f 57/57/57 58/58/58 59/59/59 
f 60/60/60 61/61/61 62/62/62 
f 63/63/63 64/64/64 52/52/52 
f 55/55/55 65/65/65 66/66/66 
f 57/57/57 67/67/67 58/58/58 
f 68/68/68 69/69/69 70/70/70 
f 71/71/71 72/72/72 73/73/73 
f 74/74/74 75/75/75 76/76/76 
f 77/77/77 78/78/78 79/79/79 
f 80/80/80 81/81/81 72/72/72 
f 82/82/82 83/83/83 75/75/75 
f 84/84/84 85/85/85 86/86/86 
f 79/79/79 87/87/87 77/77/77 
f 88/88/88 89/89/89 90/90/90 
f 90/90/90 89/89/89 91/91/91 
f 92/92/92 93/93/93 94/94/94 
f 95/95/95 96/96/96 97/97/97 
f 98/98/98 99/99/99 100/100/100 
f 100/100/100 99/99/99 101/101/101 
f 102/102/102 103/103/103 104/104/104 
f 104/104/104 103/103/103 105/105/105 
f 106/106/106 107/107/107 108/108/108 
f 108/108/108 107/107/107 109/109/109 
f 110/110/110 111/111/111 112/112/112 
f 113/113/113 110/110/110 114/114/114 
f 53/53/53 46/46/46 51/51/51 
f 47/47/47 54/54/54 115/115/115 
f 59/59/59 116/116/116 49/49/49 
f 61/61/61 113/113/113 117/117/117 
f 64/64/64 94/94/94 93/93/93 
f 69/69/69 118/118/118 62/62/62 
f 97/97/97 96/96/96 65/65/65 
f 119/119/119 67/67/67 120/120/120 
f 87/87/87 121/121/121 70/70/70 
f 122/122/122 71/71/71 73/73/73 
f 123/123/123 95/95/95 76/76/76 
f 124/124/124 125/125/125 126/126/126 
f 127/127/127 128/128/128 129/129/129 
f 130/130/130 85/85/85 131/131/131 
f 81/81/81 80/80/80 124/124/124 
f 132/132/132 83/83/83 127/127/127 
f 131/131/131 133/133/133 78/78/78 
f 134/134/134 135/135/135 136/136/136 
f 137/137/137 138/138/138 139/139/139 
f 140/140/140 141/141/141 142/142/142 
f 142/142/142 141/141/141 143/143/143 
f 144/144/144 145/145/145 146/146/146 
f 146/146/146 145/145/145 147/147/147 
f 6/6/6 35/35/35 7/7/7 
f 8/8/8 10/10/10 5/5/5 
f 9/9/9 28/28/28 10/10/10 
f 27/27/27 148/148/148 28/28/28 
f 37/37/37 149/149/149 38/38/38 
f 40/40/40 48/48/48 41/41/41 
f 43/43/43 50/50/50 44/44/44 
f 46/46/46 37/37/37 36/36/36 
f 47/47/47 115/115/115 48/48/48 
f 49/49/49 150/150/150 50/50/50 
f 52/52/52 151/151/151 53/53/53 
f 55/55/55 66/66/66 56/56/56 
f 58/58/58 116/116/116 59/59/59 
f 61/61/61 117/117/117 62/62/62 
f 64/64/64 151/151/151 52/52/52 
f 65/65/65 152/152/152 66/66/66 
f 67/67/67 119/119/119 58/58/58 
f 68/68/68 118/118/118 69/69/69 
f 72/72/72 153/153/153 73/73/73 
f 74/74/74 82/82/82 75/75/75 
f 78/78/78 154/154/154 79/79/79 
f 81/81/81 153/153/153 72/72/72 
f 83/83/83 132/132/132 75/75/75 
f 85/85/85 130/130/130 86/86/86 
f 79/79/79 121/121/121 87/87/87 
f 92/92/92 122/122/122 93/93/93 
f 95/95/95 123/123/123 96/96/96 
f 111/111/111 155/155/155 112/112/112 
f 110/110/110 112/112/112 114/114/114 
f 46/46/46 45/45/45 51/51/51 
f 54/54/54 56/56/56 115/115/115 
f 116/116/116 150/150/150 49/49/49 
f 113/113/113 114/114/114 117/117/117 
f 64/64/64 63/63/63 94/94/94 
f 118/118/118 60/60/60 62/62/62 
f 96/96/96 152/152/152 65/65/65 
f 67/67/67 156/156/156 120/120/120 
f 121/121/121 68/68/68 70/70/70 
f 122/122/122 92/92/92 71/71/71 
f 95/95/95 74/74/74 76/76/76 
f 125/125/125 157/157/157 126/126/126 
f 128/128/128 158/158/158 129/129/129 
f 85/85/85 133/133/133 131/131/131 
f 80/80/80 125/125/125 124/124/124 
f 83/83/83 128/128/128 127/127/127 
f 133/133/133 154/154/154 78/78/78 
f 135/135/135 159/159/159 136/136/136 
f 138/138/138 160/160/160 139/139/139 
