v -1.1542280 1.5452850 1.0269459
vn 0.0000000 0.7071077 0.7071059
vt 0.9503214 0.0414715
v -1.1542280 1.5847580 0.9316497
vn 0.0000000 1.0000000 -0.0000001
vt 0.9614614 0.0414715
v -1.3219630 1.5847580 0.9316497
vn 0.0000000 1.0000000 -0.0000001
vt 0.9614614 0.0595869
v -1.1542280 1.5452850 0.8363531
vn 0.0000000 0.7071074 -0.7071062
vt 0.9726014 0.0414715
v -1.3219630 1.5452850 0.8363531
vn 0.0000000 0.7071074 -0.7071062
vt 0.9726014 0.0595869
v -1.1542280 1.5452850 0.8363531
vn 0.0000000 0.7071074 -0.7071062
vt 0.9503214 0.0414715
v -1.1542280 1.4499890 0.7968800
vn 0.0000000 0.0000000 -1.0000000
vt 0.9614612 0.0414715
v -1.3219630 1.4499890 0.7968800
vn 0.0000000 0.0000000 -1.0000000
vt 0.9614612 0.0595869
v -1.1542280 1.3546920 0.8363531
vn 0.0000000 -0.7071066 -0.7071069
vt 0.9726014 0.0414715
v -1.3219630 1.3546920 0.8363531
vn 0.0000000 -0.7071066 -0.7071069
vt 0.9726014 0.0595869
v -1.1542280 1.3546920 0.8363531
vn 0.0000000 -0.7071066 -0.7071069
vt 0.9503214 0.0414715
v -1.1542280 1.3152190 0.9316497
vn 0.0000000 -1.0000000 0.0000001
vt 0.9614612 0.0414715
v -1.3219630 1.3152190 0.9316497
vn 0.0000000 -1.0000000 0.0000001
vt 0.9614612 0.0595869
v -1.1542280 1.3546920 1.0269459
vn 0.0000000 -0.7071071 0.7071065
vt 0.9726014 0.0414715
v -1.3219630 1.3546920 1.0269459
vn 0.0000000 -0.7071072 0.7071065
vt 0.9726014 0.0595869
v -1.1542280 1.3546920 1.0269459
vn 0.0000000 -0.7071071 0.7071065
vt 0.9503214 0.0414715
v -1.1542280 1.4499890 1.0664200
vn 0.0000000 -0.0000005 1.0000000
vt 0.9614613 0.0414715
v -1.3219630 1.4499890 1.0664200
vn 0.0000000 -0.0000005 1.0000000
vt 0.9614613 0.0595869
v -1.1542280 1.5452850 1.0269459
vn 0.0000000 0.7071077 0.7071059
vt 0.9726014 0.0414715
v -1.3219630 1.5452850 1.0269459
vn 0.0000000 0.7071077 0.7071059
vt 0.9726014 0.0595869
v -1.3219630 1.5452850 1.0269459
vn -1.0000000 0.0000000 0.0000000
vt 0.9719870 0.1468605
v -1.3219630 1.3546920 1.0269459
vn -1.0000000 0.0000000 0.0000000
vt 0.9719870 0.1279917
v -1.3219630 1.4499890 1.0664200
vn -1.0000000 0.0000000 0.0000000
vt 0.9760960 0.1374261
v -1.3219630 1.5452850 1.0269459
vn 0.0000000 0.7071077 0.7071059
vt 0.9503214 0.0595869
v -1.3219630 1.5452850 0.8363531
vn 0.0000000 0.7071074 -0.7071062
vt 0.9503214 0.0595869
v -1.3219630 1.3546920 0.8363531
vn 0.0000000 -0.7071066 -0.7071069
vt 0.9503214 0.0595869
v -1.3219630 1.3546920 1.0269459
vn 0.0000000 -0.7071072 0.7071065
vt 0.9503214 0.0595869
v -1.3219630 1.5847580 0.9316497
vn -1.0000000 0.0000000 0.0000000
vt 0.9620672 0.1507683
v -1.3219630 1.5452850 0.8363531
vn -1.0000000 0.0000000 0.0000000
vt 0.9521475 0.1468605
v -1.3219630 1.4499890 0.7968800
vn -1.0000000 0.0000000 0.0000000
vt 0.9480385 0.1374261
v -1.3219630 1.3546920 0.8363531
vn -1.0000000 0.0000000 0.0000000
vt 0.9521475 0.1279917
v -1.3219630 1.3152190 0.9316497
vn -1.0000000 0.0000000 0.0000000
vt 0.9620672 0.1240839

g group_201518208_140627851613984
f 1/1/1 2/2/2 3/3/3 
f 2/2/2 4/4/4 5/5/5 
f 6/6/6 7/7/7 8/8/8 
f 7/7/7 9/9/9 10/10/10 
f 11/11/11 12/12/12 13/13/13 
f 12/12/12 14/14/14 15/15/15 
f 16/16/16 17/17/17 18/18/18 
f 17/17/17 19/19/19 20/20/20 
f 21/21/21 22/22/22 23/23/23 
f 3/3/3 24/24/24 1/1/1 
f 5/5/5 3/3/3 2/2/2 
f 8/8/8 25/25/25 6/6/6 
f 10/10/10 8/8/8 7/7/7 
f 13/13/13 26/26/26 11/11/11 
f 15/15/15 13/13/13 12/12/12 
f 18/18/18 27/27/27 16/16/16 
f 20/20/20 18/18/18 17/17/17 
f 21/21/21 28/28/28 29/29/29 
f 21/21/21 29/29/29 30/30/30 
f 21/21/21 30/30/30 31/31/31 
f 21/21/21 31/31/31 32/32/32 
f 21/21/21 32/32/32 22/22/22 
