v 1.3425421 -0.6087670 0.4985231
vn 0.0094616 0.5742751 0.8186077
vt 0.9777020 0.9338719
v 1.3425410 -0.5181313 0.3737737
vn 0.0252111 0.9479815 0.3173254
vt 0.9777020 0.9198912
v 1.1288620 -0.5781397 0.4739363
vn -0.0410077 0.6992202 0.7137293
vt 0.9983401 0.9289753
v 1.3425410 -0.5181314 0.2195749
vn 0.0259580 0.9480776 -0.3169780
vt 0.9777020 0.9059106
v 1.1288620 -0.5028223 0.2964306
vn -0.0455196 0.9989634 -0.0002536
vt 0.9983135 0.9130932
v 1.3425421 -0.6087672 0.0948255
vn 0.0113542 0.5744590 -0.8184546
vt 0.9777020 0.8919301
v 1.1288620 -0.5781398 0.1189248
vn -0.0393796 0.6990131 -0.7140238
vt 0.9983416 0.8956296
v 1.1288620 -0.7553299 0.0461404
vn -0.0302268 0.0000947 -0.9995431
vt 0.9983568 0.8780259
v 1.3425410 -0.7554188 0.0471755
vn 0.0048444 -0.0000818 -0.9999883
vt 0.9777020 0.8779495
v 1.3425410 -0.9020706 0.0948256
vn 0.0108892 -0.5745650 -0.8183866
vt 0.9777020 0.8639691
v 1.3425410 -0.9927063 0.2195750
vn 0.0251719 -0.9481110 -0.3169416
vt 0.9777020 0.8779451
v 1.1288620 -0.9325201 0.1189249
vn -0.0399615 -0.6989018 -0.7141004
vt 0.9983113 0.8685027
v 1.3425410 -0.9927062 0.3737737
vn 0.0244255 -0.9480140 0.3172901
vt 0.9777020 0.8919211
v 1.1288620 -1.0078380 0.2964306
vn -0.0463509 -0.9989252 -0.0002533
vt 0.9983148 0.8847054
v 1.3425410 -0.9020703 0.4985231
vn 0.0089976 -0.5743799 0.8185394
vt 0.9777020 0.9058971
v 1.1288620 -0.9325200 0.4739365
vn -0.0415891 -0.6991079 0.7138057
vt 0.9983445 0.9021863
v 1.1288620 -0.7553299 0.5467208
vn -0.0325065 0.0000948 0.9994715
vt 0.9983396 0.9197862
v 1.3425410 -0.7554187 0.5461730
vn 0.0025635 -0.0000814 0.9999967
vt 0.9777020 0.9198729
v 1.3425421 -0.6087670 0.4985231
vn 0.0094616 0.5742751 0.8186077
vt 0.9777020 0.9338490
v 1.1288620 -0.5781397 0.4739363
vn -1.0000000 0.0000000 0.0000000
vt 0.8891432 0.0412008
v 1.1288620 -0.5028223 0.2964306
vn -1.0000000 0.0000000 0.0000000
vt 0.9033571 0.0474049
v 1.1288620 -0.7553299 0.5467208
vn -1.0000000 0.0000000 0.0000000
vt 0.8832002 0.0272281
v 1.3425410 -0.7554187 0.5461730
vn 1.0000000 -0.0000020 0.0000000
vt 0.9097798 0.7404391
v 1.3425410 -0.9020706 0.0948256
vn 1.0000000 0.0000000 0.0000000
vt 0.9592022 0.7564974
v 1.3425410 -0.7554188 0.0471755
vn 1.0000000 -0.0000020 0.0000000
vt 0.9644200 0.7404391
v 1.3425421 -0.6087670 0.4985231
vn 1.0000000 -0.0000014 0.0000000
vt 0.9149974 0.7243807
v 1.3425410 -0.5181314 0.2195749
vn 1.0000000 0.0000066 -0.0000000
vt 0.9455422 0.7144561
v 1.3425410 -0.5181313 0.3737737
vn 1.0000000 0.0000066 -0.0000000
vt 0.9286574 0.7144561
v 1.1288620 -0.5781397 0.4739363
vn -0.0410077 0.6992202 0.7137293
vt 0.9982667 0.9325088
v 1.1288620 -0.5781398 0.1189248
vn -1.0000000 0.0000000 0.0000000
vt 0.9175693 0.0414720
v 1.1288620 -0.7553299 0.0461404
vn -1.0000000 0.0000000 0.0000000
vt 0.9235445 0.0272287
v 1.1288620 -0.9325201 0.1189249
vn -1.0000000 0.0000000 0.0000000
vt 0.9177815 0.0413766
v 1.1288620 -1.0078380 0.2964306
vn -1.0000000 0.0000000 0.0000000
vt 0.9033793 0.0476211
v 1.1288620 -0.9325200 0.4739365
vn -1.0000000 0.0000000 0.0000000
vt 0.8890575 0.0415071
v 1.3425410 -0.9020703 0.4985231
vn 1.0000000 0.0000000 0.0000000
vt 0.9149974 0.7564974
v 1.3425410 -0.9927062 0.3737737
vn 1.0000000 0.0000000 0.0000000
vt 0.9286574 0.7664220
v 1.3425410 -0.9927063 0.2195750
vn 1.0000000 0.0000000 0.0000000
vt 0.9455422 0.7664220
v 1.3425421 -0.6087672 0.0948255
vn 1.0000000 -0.0000014 0.0000000
vt 0.9592022 0.7243807
v 1.3425410 -0.9020706 0.0948256
vn 0.0108892 -0.5745650 -0.8183866
vt 0.9777020 0.8639691
v 1.1288620 -0.9325201 0.1189249
vn -0.0399615 -0.6989018 -0.7141004
vt 0.9983113 0.8685027
v 1.1288620 -0.7553299 0.5467208
vn -1.0000000 0.0000000 0.0000000
vt 0.8832002 0.0272281
v 1.1288620 -0.7553299 0.0461404
vn -1.0000000 0.0000000 0.0000000
vt 0.9235445 0.0272287

g group_201516528_140627854247344
f 1/1/1 2/2/2 3/3/3 
f 2/2/2 4/4/4 5/5/5 
f 4/4/4 6/6/6 7/7/7 
f 6/6/6 8/8/8 7/7/7 
f 9/9/9 10/10/10 8/8/8 
f 39/39/39 11/11/11 12/12/12 
f 11/11/11 13/13/13 14/14/14 
f 13/13/13 15/15/15 16/16/16 
f 15/15/15 17/17/17 16/16/16 
f 18/18/18 19/19/19 17/17/17 
f 20/20/20 21/21/21 22/22/22 
f 23/23/23 24/24/24 25/25/25 
f 26/26/26 27/27/27 28/28/28 
f 2/2/2 5/5/5 3/3/3 
f 10/10/10 40/40/40 8/8/8 
f 11/11/11 14/14/14 12/12/12 
f 19/19/19 29/29/29 17/17/17 
f 21/21/21 30/30/30 31/31/31 
f 32/32/32 33/33/33 34/34/34 
f 32/32/32 34/34/34 41/41/41 
f 42/42/42 32/32/32 41/41/41 
f 21/21/21 31/31/31 22/22/22 
f 23/23/23 35/35/35 36/36/36 
f 23/23/23 36/36/36 37/37/37 
f 23/23/23 37/37/37 24/24/24 
f 26/26/26 23/23/23 25/25/25 
f 26/26/26 25/25/25 38/38/38 
f 26/26/26 38/38/38 27/27/27 
f 7/7/7 5/5/5 4/4/4 
f 6/6/6 9/9/9 8/8/8 
f 16/16/16 14/14/14 13/13/13 
f 15/15/15 18/18/18 17/17/17 
