v 1.3425421 -1.1117450 0.4985230
vn 0.0094617 0.5742747 0.8186080
vt 0.9777020 0.9059106
v 1.3425410 -1.0211090 0.3737737
vn 0.0252110 0.9479814 0.3173259
vt 0.9777020 0.8919301
v 1.1288620 -1.0811180 0.4739363
vn -0.0410076 0.6992202 0.7137293
vt 0.9982944 0.9024609
v 1.3425410 -1.0211090 0.2195750
vn 0.0259579 0.9480777 -0.3169778
vt 0.9777020 0.8779495
v 1.1288620 -1.0058000 0.2964306
vn -0.0455198 0.9989634 -0.0002533
vt 0.9983187 0.8851119
v 1.3425421 -1.1117450 0.0948256
vn 0.0113543 0.5744587 -0.8184548
vt 0.9777020 0.8639691
v 1.1288620 -1.0811180 0.1189249
vn -0.0393796 0.6990131 -0.7140237
vt 0.9984888 0.8683534
v 1.1288620 -1.2583081 0.0461404
vn -0.0302268 0.0000949 -0.9995431
vt 0.9983061 0.8777044
v 1.3425421 -1.2583970 0.0471756
vn 0.0048445 -0.0000819 -0.9999883
vt 0.9777020 0.8779451
v 1.3425421 -1.4050490 0.0948256
vn 0.0108892 -0.5745651 -0.8183865
vt 0.9777020 0.8919211
v 1.3425421 -1.4956850 0.2195750
vn 0.0251722 -0.9481109 -0.3169417
vt 0.9777020 0.9058971
v 1.1288620 -1.4354980 0.1189249
vn -0.0399613 -0.6989018 -0.7141005
vt 0.9982923 0.8953266
v 1.3425421 -1.4956850 0.3737737
vn -0.0690696 -0.9256899 0.3719241
vt 0.9777020 0.9198731
v 1.1288620 -1.5108160 0.2964306
vn -0.0183580 -0.9992437 0.0342789
vt 0.9983218 0.9126753
v 1.3425421 -1.4050490 0.4985230
vn -0.0595273 -0.5957907 0.8009307
vt 0.9777020 0.9338490
v 1.1288620 -1.4354980 0.4739364
vn 0.0396951 -0.7233168 0.6893744
vt 0.9984488 0.9290842
v 1.3425421 -1.4050490 0.4985230
vn -0.0595273 -0.5957907 0.8009307
vt 0.9777020 0.9338719
v 1.3425421 -1.2583970 0.5461731
vn -0.0166107 -0.0176234 0.9997067
vt 0.9777020 0.9198910
v 1.1288620 -1.4354980 0.4739364
vn 0.0396951 -0.7233168 0.6893744
vt 0.9984311 0.9326792
v 1.1288620 -1.2583081 0.5467209
vn -0.0150898 -0.0149721 0.9997740
vt 0.9983096 0.9200777
v 1.1288620 -1.0811180 0.4739363
vn -1.0000000 0.0000000 0.0000000
vt 0.8891432 0.0412008
v 1.1288620 -1.0058000 0.2964306
vn -1.0000000 0.0000000 0.0000000
vt 0.9033571 0.0474049
v 1.1288620 -1.2583081 0.5467209
vn -1.0000000 0.0000000 0.0000000
vt 0.8832002 0.0272281
v 1.3425421 -1.2583970 0.5461731
vn 1.0000000 0.0000000 0.0000000
vt 0.9097798 0.7404391
v 1.3425421 -1.4050490 0.0948256
vn 1.0000000 0.0000000 0.0000000
vt 0.9592022 0.7564974
v 1.3425421 -1.2583970 0.0471756
vn 1.0000000 0.0000000 0.0000000
vt 0.9644200 0.7404391
v 1.3425421 -1.1117450 0.4985230
vn 1.0000000 0.0000016 0.0000000
vt 0.9149974 0.7243807
v 1.3425410 -1.0211090 0.2195750
vn 1.0000000 0.0000066 0.0000000
vt 0.9455422 0.7144561
v 1.3425410 -1.0211090 0.3737737
vn 1.0000000 0.0000066 0.0000000
vt 0.9286574 0.7144561
v 1.1288620 -1.0811180 0.1189249
vn -1.0000000 0.0000000 0.0000000
vt 0.9175693 0.0414720
v 1.1288620 -1.2583081 0.0461404
vn -1.0000000 0.0000000 0.0000000
vt 0.9235445 0.0272287
v 1.1288620 -1.4354980 0.1189249
vn -1.0000000 0.0000000 0.0000000
vt 0.9177815 0.0413766
v 1.1288620 -1.5108160 0.2964306
vn -1.0000000 0.0000000 0.0000000
vt 0.9033793 0.0476211
v 1.1288620 -1.4354980 0.4739364
vn -1.0000000 0.0000000 0.0000000
vt 0.8890575 0.0415071
v 1.3425421 -1.4050490 0.4985230
vn 1.0000000 0.0000000 0.0000000
vt 0.9149974 0.7564974
v 1.3425421 -1.4956850 0.3737737
vn 1.0000000 0.0000000 0.0000000
vt 0.9286574 0.7664220
v 1.3425421 -1.4956850 0.2195750
vn 1.0000000 0.0000000 0.0000000
vt 0.9455422 0.7664220
v 1.3425421 -1.1117450 0.0948256
vn 1.0000000 0.0000016 0.0000000
vt 0.9592022 0.7243807
v 1.3425421 -1.1117450 0.0948256
vn 0.0113543 0.5744587 -0.8184548
vt 0.9777020 0.8639691
v 1.1288620 -1.0811180 0.1189249
vn -0.0393796 0.6990131 -0.7140237
vt 0.9984888 0.8683534
v 1.1288620 -1.2583081 0.5467209
vn -1.0000000 0.0000000 0.0000000
vt 0.8832002 0.0272281
v 1.1288620 -1.2583081 0.0461404
vn -1.0000000 0.0000000 0.0000000
vt 0.9235445 0.0272287

g group_151839664_140627851877520
f 1/1/1 2/2/2 3/3/3 
f 2/2/2 4/4/4 5/5/5 
f 4/4/4 6/6/6 7/7/7 
f 39/39/39 8/8/8 40/40/40 
f 9/9/9 10/10/10 8/8/8 
f 10/10/10 11/11/11 12/12/12 
f 11/11/11 13/13/13 14/14/14 
f 14/14/14 15/15/15 16/16/16 
f 17/17/17 18/18/18 19/19/19 
f 18/18/18 1/1/1 20/20/20 
f 21/21/21 22/22/22 23/23/23 
f 24/24/24 25/25/25 26/26/26 
f 27/27/27 28/28/28 29/29/29 
f 2/2/2 5/5/5 3/3/3 
f 10/10/10 12/12/12 8/8/8 
f 11/11/11 14/14/14 12/12/12 
f 1/1/1 3/3/3 20/20/20 
f 22/22/22 30/30/30 31/31/31 
f 32/32/32 33/33/33 34/34/34 
f 32/32/32 34/34/34 41/41/41 
f 42/42/42 32/32/32 41/41/41 
f 22/22/22 31/31/31 23/23/23 
f 24/24/24 35/35/35 36/36/36 
f 24/24/24 36/36/36 37/37/37 
f 24/24/24 37/37/37 25/25/25 
f 27/27/27 24/24/24 26/26/26 
f 27/27/27 26/26/26 38/38/38 
f 27/27/27 38/38/38 28/28/28 
f 7/7/7 5/5/5 4/4/4 
f 39/39/39 9/9/9 8/8/8 
f 14/14/14 13/13/13 15/15/15 
f 18/18/18 20/20/20 19/19/19 
