v -1.3664150 -2.5166590 0.9105178
vn -0.0000001 -0.0275658 0.9996200
vt 0.9771087 0.9828303
v -1.1059670 -2.5166590 0.9105178
vn 0.0000000 -0.0275655 0.9996200
vt 0.9496390 0.9828303
v -1.3664140 -2.3681610 0.8809798
vn 0.0000000 0.4080050 0.9129797
vt 0.9771087 0.9685708
v -1.3664150 -2.4976449 0.2300229
vn -0.0000002 0.0275651 -0.9996200
vt 0.9771087 0.9970424
v -1.1059670 -2.4976449 0.2300229
vn 0.0000000 0.0275649 -0.9996200
vt 0.9496390 0.9970424
v -1.3664150 -2.6461420 0.2595610
vn 0.0000000 -0.4080057 -0.9129794
vt 0.9771087 0.9828109
v -1.3664150 -2.3509560 0.2677112
vn -1.0000000 0.0000000 0.0000000
vt 0.9656812 0.4378631
v -1.3664150 -2.4976449 0.2300229
vn -1.0000000 0.0000000 0.0000000
vt 0.9697358 0.4536440
v -1.3664150 -2.2349529 0.3652983
vn -1.0000000 0.0000000 0.0000000
vt 0.9551826 0.4253832
v -1.1059670 -2.4976449 0.2300229
vn 1.0000000 -0.0000001 0.0000035
vt 0.9697360 0.4536441
v -1.1059670 -2.3509550 0.2677112
vn 1.0000000 0.0000000 0.0000001
vt 0.9656813 0.4378630
v -1.1059670 -2.6461420 0.2595610
vn 1.0000000 -0.0000000 0.0000003
vt 0.9665578 0.4696195
v -1.1059670 -2.6461420 0.2595610
vn 0.0000000 -0.4080056 -0.9129795
vt 0.9496391 0.9828109
v -1.3664150 -2.7672420 0.3505157
vn 0.0000000 -0.7631267 -0.6462489
vt 0.9771087 0.9685750
v -1.1059670 -2.7672420 0.3505157
vn 0.0000000 -0.7631267 -0.6462489
vt 0.9496391 0.9685750
v -1.3664150 -2.8370700 0.4850668
vn 0.0000000 -0.9677418 -0.2519443
vt 0.9771087 0.9543260
v -1.1059670 -2.8370700 0.4850668
vn 0.0000000 -0.9677418 -0.2519441
vt 0.9496391 0.9543260
v -1.3664140 -2.8417261 0.6368213
vn 0.0000000 -0.9807851 0.1950916
vt 0.9771087 0.9400549
v -1.1059670 -2.7793500 0.7752423
vn -0.0000000 -0.7976623 0.6031044
vt 0.9496390 0.9827248
v -1.3664150 -2.7793500 0.7752424
vn 0.0000002 -0.7976619 0.6031049
vt 0.9771087 0.9827248
v -1.1059670 -2.8417261 0.6368213
vn 0.0000001 -0.9807851 0.1950917
vt 0.9496390 0.9683336
v -1.1059670 -2.6633470 0.8728297
vn -0.0000003 -0.4577300 0.8890913
vt 0.9496390 0.9970940
v -1.3664150 -2.6633470 0.8728297
vn -0.0000001 -0.4577293 0.8890916
vt 0.9771087 0.9970940
v -1.1059670 -2.3681610 0.8809798
vn -0.0000002 0.4080046 0.9129798
vt 0.9496390 0.9685708
v -1.3664150 -2.2470610 0.7900251
vn -0.0000006 0.7631269 0.6462487
vt 0.9771087 0.9543070
v -1.1059670 -2.2470610 0.7900251
vn -0.0000008 0.7631266 0.6462491
vt 0.9496390 0.9543070
v -1.3664150 -2.1772330 0.6554739
vn -0.0000009 0.9677422 0.2519427
vt 0.9771087 0.9400302
v -1.1059670 -2.1772330 0.6554739
vn -0.0000006 0.9677423 0.2519421
vt 0.9496390 0.9400302
v -1.3664150 -2.1725781 0.5037194
vn -0.0000003 0.9807850 -0.1950920
vt 0.9771087 0.9542969
v -1.1059670 -2.2349529 0.3652983
vn -0.0000004 0.7976627 -0.6031039
vt 0.9496390 0.9685644
v -1.3664150 -2.2349529 0.3652983
vn 0.0000000 0.7976622 -0.6031045
vt 0.9771087 0.9685644
v -1.1059670 -2.1725781 0.5037194
vn 0.0000000 0.9807848 -0.1950925
vt 0.9496390 0.9542969
v -1.1059670 -2.3509550 0.2677112
vn -0.0000007 0.4577296 -0.8890914
vt 0.9496391 0.9828098
v -1.3664150 -2.3509560 0.2677112
vn -0.0000004 0.4577290 -0.8890918
vt 0.9771087 0.9828098
v -1.3664150 -2.1772330 0.6554739
vn -1.0000000 -0.0000002 0.0000002
vt 0.9239652 0.4191737
v -1.3664150 -2.1725781 0.5037194
vn -1.0000000 0.0000000 0.0000000
vt 0.9402912 0.4186729
v -1.3664140 -2.3681610 0.8809798
vn -1.0000000 0.0000035 0.0000051
vt 0.8997048 0.4397140
v -1.3664150 -2.2470610 0.7900251
vn -1.0000000 -0.0000065 -0.0000033
vt 0.9094899 0.4266858
v -1.3664150 -2.5166590 0.9105178
vn -1.0000000 0.0000007 0.0000010
vt 0.8965271 0.4556897
v -1.3664150 -2.7793500 0.7752424
vn -1.0000000 -0.0000012 0.0000002
vt 0.9110800 0.4839505
v -1.3664150 -2.6633470 0.8728297
vn -1.0000000 0.0000000 0.0000000
vt 0.9005814 0.4714705
v -1.3664150 -2.8370700 0.4850668
vn -1.0000000 -0.0000012 0.0000002
vt 0.9422981 0.4901602
v -1.3664140 -2.8417261 0.6368213
vn -1.0000000 -0.0000137 0.0000027
vt 0.9259719 0.4906611
v -1.3664150 -2.6461420 0.2595610
vn -1.0000000 0.0000000 0.0000000
vt 0.9665577 0.4696195
v -1.3664150 -2.7672420 0.3505157
vn -1.0000000 0.0000000 0.0000000
vt 0.9567729 0.4826478
v -1.1059670 -2.7672420 0.3505157
vn 1.0000000 -0.0000001 -0.0000001
vt 0.9567729 0.4826478
v -1.1059670 -2.8417261 0.6368213
vn 1.0000000 -0.0000003 -0.0000002
vt 0.9259719 0.4906611
v -1.1059670 -2.8370700 0.4850668
vn 1.0000000 0.0000000 0.0000000
vt 0.9422981 0.4901602
v -1.1059670 -2.6633470 0.8728297
vn 1.0000000 0.0000001 -0.0000003
vt 0.9005814 0.4714705
v -1.1059670 -2.7793500 0.7752423
vn 1.0000000 0.0000012 -0.0000014
vt 0.9110800 0.4839505
v -1.1059670 -2.3681610 0.8809798
vn 1.0000000 0.0000004 0.0000015
vt 0.8997048 0.4397140
v -1.1059670 -2.5166590 0.9105178
vn 1.0000000 0.0000005 -0.0000018
vt 0.8965269 0.4556896
v -1.1059670 -2.2470610 0.7900251
vn 1.0000000 -0.0000000 0.0000000
vt 0.9094900 0.4266858
v -1.1059670 -2.1725781 0.5037194
vn 1.0000000 0.0000002 -0.0000003
vt 0.9402913 0.4186729
v -1.1059670 -2.1772330 0.6554739
vn 1.0000000 -0.0000016 -0.0000008
vt 0.9239653 0.4191738
v -1.1059670 -2.2349529 0.3652983
vn 1.0000000 0.0000000 0.0000000
vt 0.9551827 0.4253832
v -1.1059670 -2.8417261 0.6368213
vn 0.0000001 -0.9807851 0.1950917
vt 0.9496391 0.9400549
v -1.3664140 -2.8417261 0.6368213
vn 0.0000000 -0.9807851 0.1950916
vt 0.9771087 0.9683336
v -1.3664150 -2.4976449 0.2300229
vn -0.0000002 0.0275651 -0.9996200
vt 0.9771087 0.9970424
v -1.1059670 -2.4976449 0.2300229
vn 0.0000000 0.0275649 -0.9996200
vt 0.9496390 0.9970424
v -1.1059670 -2.6633470 0.8728297
vn -0.0000003 -0.4577300 0.8890913
vt 0.9496390 0.9970940
v -1.3664150 -2.6633470 0.8728297
vn -0.0000001 -0.4577293 0.8890916
vt 0.9771087 0.9970940
v -1.3664150 -2.1772330 0.6554739
vn -0.0000009 0.9677422 0.2519427
vt 0.9771087 0.9400302
v -1.1059670 -2.1772330 0.6554739
vn -0.0000006 0.9677423 0.2519421
vt 0.9496390 0.9400302

g group_151834624_140627822904736
f 1/1/1 2/2/2 3/3/3 
f 4/4/4 5/5/5 6/6/6 
f 7/7/7 8/8/8 9/9/9 
f 10/10/10 11/11/11 12/12/12 
f 6/6/6 13/13/13 14/14/14 
f 14/14/14 15/15/15 16/16/16 
f 16/16/16 17/17/17 18/18/18 
f 19/19/19 20/20/20 21/21/21 
f 22/22/22 23/23/23 19/19/19 
f 2/2/2 1/1/1 61/61/61 
f 3/3/3 24/24/24 25/25/25 
f 25/25/25 26/26/26 27/27/27 
f 63/63/63 28/28/28 29/29/29 
f 30/30/30 31/31/31 32/32/32 
f 33/33/33 34/34/34 30/30/30 
f 60/60/60 59/59/59 33/33/33 
f 3/3/3 2/2/2 24/24/24 
f 6/6/6 5/5/5 13/13/13 
f 9/9/9 35/35/35 36/36/36 
f 35/35/35 37/37/37 38/38/38 
f 35/35/35 39/39/39 37/37/37 
f 39/39/39 40/40/40 41/41/41 
f 40/40/40 42/42/42 43/43/43 
f 39/39/39 42/42/42 40/40/40 
f 42/42/42 44/44/44 45/45/45 
f 42/42/42 8/8/8 44/44/44 
f 39/39/39 8/8/8 42/42/42 
f 35/35/35 8/8/8 39/39/39 
f 9/9/9 8/8/8 35/35/35 
f 46/46/46 47/47/47 48/48/48 
f 47/47/47 49/49/49 50/50/50 
f 46/46/46 49/49/49 47/47/47 
f 49/49/49 51/51/51 52/52/52 
f 49/49/49 53/53/53 51/51/51 
f 53/53/53 54/54/54 55/55/55 
f 54/54/54 11/11/11 56/56/56 
f 53/53/53 11/11/11 54/54/54 
f 49/49/49 11/11/11 53/53/53 
f 46/46/46 11/11/11 49/49/49 
f 12/12/12 11/11/11 46/46/46 
f 14/14/14 13/13/13 15/15/15 
f 16/16/16 15/15/15 17/17/17 
f 18/18/18 17/17/17 57/57/57 
f 21/21/21 20/20/20 58/58/58 
f 19/19/19 23/23/23 20/20/20 
f 61/61/61 1/1/1 62/62/62 
f 25/25/25 24/24/24 26/26/26 
f 27/27/27 26/26/26 64/64/64 
f 29/29/29 28/28/28 32/32/32 
f 32/32/32 31/31/31 29/29/29 
f 30/30/30 34/34/34 31/31/31 
f 33/33/33 59/59/59 34/34/34 
