v 1.3425421 0.3989028 0.4985231
vn 0.0094620 0.5742745 0.8186082
vt 0.9777020 0.9198729
v 1.3425410 0.4895386 0.3737738
vn 0.0252115 0.9479814 0.3173257
vt 0.9777020 0.9338490
v 1.1288620 0.4295302 0.4739364
vn -0.0410073 0.6992202 0.7137294
vt 0.9983276 0.9233872
v 1.3425410 0.4895386 0.3737738
vn 0.0252115 0.9479814 0.3173257
vt 0.9777020 0.9338719
v 1.3425410 0.4895385 0.2195749
vn 0.0259584 0.9480776 -0.3169781
vt 0.9777020 0.9198910
v 1.1288620 0.5048476 0.2964306
vn -0.0455192 0.9989635 -0.0002536
vt 0.9983405 0.9273173
v 1.3425421 0.3989028 0.0948256
vn 0.0113545 0.5744588 -0.8184547
vt 0.9777020 0.9059106
v 1.1288620 0.4295302 0.1189248
vn -0.0393793 0.6990131 -0.7140238
vt 0.9983416 0.9096101
v 1.1288620 0.2523400 0.0461404
vn -0.0302267 0.0000947 -0.9995431
vt 0.9983061 0.8920816
v 1.3425421 0.2522511 0.0471756
vn 0.0048447 -0.0000821 -0.9999883
vt 0.9777020 0.8919301
v 1.3425421 0.1055994 0.0948256
vn 0.0108893 -0.5745650 -0.8183866
vt 0.9777020 0.8779495
v 1.3425421 0.0149637 0.2195750
vn 0.0251717 -0.9481110 -0.3169417
vt 0.9777020 0.8639691
v 1.1288620 0.0751499 0.1189249
vn -0.0399615 -0.6989020 -0.7141002
vt 0.9983642 0.8744010
v 1.3425421 0.0149637 0.3737737
vn 0.0244250 -0.9480141 0.3172896
vt 0.9777020 0.8779451
v 1.1288620 -0.0001675 0.2964307
vn -0.0463512 -0.9989252 -0.0002534
vt 0.9983148 0.8705760
v 1.3425421 0.1055994 0.4985231
vn 0.0089970 -0.5743803 0.8185391
vt 0.9777020 0.8919211
v 1.1288620 0.0751499 0.4739364
vn -0.0415898 -0.6991082 0.7138053
vt 0.9983445 0.8882103
v 1.1288620 0.2523400 0.5467209
vn -0.0325065 0.0000948 0.9994715
vt 0.9983096 0.9057659
v 1.3425421 0.2522511 0.5461731
vn 0.0025635 -0.0000818 0.9999968
vt 0.9777020 0.9058971
v 1.1288620 0.4295302 0.4739364
vn -1.0000000 0.0000000 0.0000000
vt 0.8891432 0.0412008
v 1.1288620 0.5048476 0.2964306
vn -1.0000000 0.0000000 0.0000000
vt 0.9033571 0.0474049
v 1.1288620 0.2523400 0.5467209
vn -1.0000000 0.0000000 0.0000000
vt 0.8832002 0.0272281
v 1.3425421 0.2522511 0.5461731
vn 1.0000000 0.0000000 0.0000000
vt 0.9097798 0.7404391
v 1.3425421 0.1055994 0.0948256
vn 1.0000000 0.0000000 0.0000000
vt 0.9592022 0.7564974
v 1.3425421 0.2522511 0.0471756
vn 1.0000000 0.0000000 0.0000000
vt 0.9644200 0.7404391
v 1.3425421 0.3989028 0.4985231
vn 1.0000000 0.0000016 -0.0000000
vt 0.9149974 0.7243807
v 1.3425410 0.4895385 0.2195749
vn 1.0000000 0.0000066 -0.0000000
vt 0.9455422 0.7144561
v 1.3425410 0.4895386 0.3737738
vn 1.0000000 0.0000066 -0.0000000
vt 0.9286574 0.7144561
v 1.1288620 0.5048476 0.2964306
vn -0.0455192 0.9989635 -0.0002536
vt 0.9982324 0.9342079
v 1.1288620 0.4295302 0.1189248
vn -1.0000000 0.0000000 0.0000000
vt 0.9175693 0.0414720
v 1.1288620 0.2523400 0.0461404
vn -1.0000000 0.0000000 0.0000000
vt 0.9235445 0.0272287
v 1.1288620 0.0751499 0.1189249
vn -1.0000000 0.0000000 0.0000000
vt 0.9177815 0.0413766
v 1.1288620 -0.0001675 0.2964307
vn -1.0000000 0.0000000 0.0000000
vt 0.9033793 0.0476211
v 1.1288620 0.0751499 0.4739364
vn -1.0000000 0.0000000 0.0000000
vt 0.8890575 0.0415071
v 1.3425421 0.1055994 0.4985231
vn 1.0000000 0.0000000 0.0000000
vt 0.9149974 0.7564974
v 1.3425421 0.0149637 0.3737737
vn 1.0000000 0.0000000 0.0000000
vt 0.9286574 0.7664220
v 1.3425421 0.0149637 0.2195750
vn 1.0000000 0.0000000 0.0000000
vt 0.9455422 0.7664220
v 1.3425421 0.3989028 0.0948256
vn 1.0000000 0.0000016 0.0000000
vt 0.9592022 0.7243807
v 1.3425421 0.0149637 0.2195750
vn 0.0251717 -0.9481110 -0.3169417
vt 0.9777020 0.8639691
v 1.1288620 -0.0001675 0.2964307
vn -0.0463512 -0.9989252 -0.0002534
vt 0.9983148 0.8705760
v 1.1288620 0.2523400 0.5467209
vn -1.0000000 0.0000000 0.0000000
vt 0.8832002 0.0272281
v 1.1288620 0.2523400 0.0461404
vn -1.0000000 0.0000000 0.0000000
vt 0.9235445 0.0272287

g group_201520392_140627853721392
f 1/1/1 2/2/2 3/3/3 
f 4/4/4 5/5/5 6/6/6 
f 5/5/5 7/7/7 8/8/8 
f 7/7/7 9/9/9 8/8/8 
f 10/10/10 11/11/11 9/9/9 
f 11/11/11 12/12/12 13/13/13 
f 39/39/39 14/14/14 15/15/15 
f 14/14/14 16/16/16 17/17/17 
f 16/16/16 18/18/18 17/17/17 
f 19/19/19 1/1/1 18/18/18 
f 20/20/20 21/21/21 22/22/22 
f 23/23/23 24/24/24 25/25/25 
f 26/26/26 27/27/27 28/28/28 
f 2/2/2 29/29/29 3/3/3 
f 11/11/11 13/13/13 9/9/9 
f 12/12/12 40/40/40 13/13/13 
f 1/1/1 3/3/3 18/18/18 
f 21/21/21 30/30/30 31/31/31 
f 32/32/32 33/33/33 34/34/34 
f 32/32/32 34/34/34 41/41/41 
f 42/42/42 32/32/32 41/41/41 
f 21/21/21 31/31/31 22/22/22 
f 23/23/23 35/35/35 36/36/36 
f 23/23/23 36/36/36 37/37/37 
f 23/23/23 37/37/37 24/24/24 
f 26/26/26 23/23/23 25/25/25 
f 26/26/26 25/25/25 38/38/38 
f 26/26/26 38/38/38 27/27/27 
f 8/8/8 6/6/6 5/5/5 
f 7/7/7 10/10/10 9/9/9 
f 17/17/17 15/15/15 14/14/14 
f 16/16/16 19/19/19 18/18/18 
