v 1.3425421 1.4088870 0.4985231
vn 0.0094616 0.5742745 0.8186082
vt 0.9777020 0.9058971
v 1.3425410 1.4995230 0.3737737
vn 0.0252111 0.9479812 0.3173265
vt 0.9777020 0.9198729
v 1.1288620 1.4395140 0.4739363
vn -0.0410077 0.6992198 0.7137297
vt 0.9982944 0.9093456
v 1.3425410 1.4995230 0.2195749
vn 0.0259581 0.9480774 -0.3169785
vt 0.9777020 0.9338490
v 1.1288620 1.5148320 0.2964306
vn -0.0455197 0.9989634 -0.0002535
vt 0.9983265 0.9271713
v 1.3425410 1.4995230 0.2195749
vn 0.0259581 0.9480774 -0.3169785
vt 0.9777020 0.9338719
v 1.3425421 1.4088870 0.0948256
vn 0.0113542 0.5744585 -0.8184550
vt 0.9777020 0.9198910
v 1.1288620 1.4395140 0.1189248
vn -0.0393796 0.6990125 -0.7140244
vt 0.9983416 0.9236661
v 1.1288620 1.2623240 0.0461404
vn -0.0302267 0.0000949 -0.9995431
vt 0.9983061 0.9060622
v 1.3425421 1.2622350 0.0471756
vn 0.0048445 -0.0000820 -0.9999883
vt 0.9777020 0.9059106
v 1.3425421 1.1155829 0.0948256
vn 0.0108895 -0.5745648 -0.8183867
vt 0.9777020 0.8919301
v 1.3425421 1.0249480 0.2195750
vn 0.0251720 -0.9481109 -0.3169419
vt 0.9777020 0.8779495
v 1.1288620 1.0851340 0.1189249
vn -0.0399612 -0.6989018 -0.7141004
vt 0.9982923 0.8885235
v 1.3425421 1.0249480 0.3737738
vn 0.0244252 -0.9480141 0.3172896
vt 0.9777020 0.8639691
v 1.1288620 1.0098161 0.2964306
vn -0.0463510 -0.9989252 -0.0002536
vt 0.9985112 0.8705775
v 1.3425421 1.1155829 0.4985231
vn 0.0089972 -0.5743800 0.8185394
vt 0.9777020 0.8779451
v 1.1288620 1.0851340 0.4739364
vn -0.0415895 -0.6991081 0.7138054
vt 0.9983445 0.8740932
v 1.1288620 1.2623240 0.5467209
vn -0.0325066 0.0000954 0.9994715
vt 0.9983096 0.8917899
v 1.3425421 1.2622350 0.5461731
vn 0.0025634 -0.0000816 0.9999967
vt 0.9777020 0.8919211
v 1.1288620 1.4395140 0.4739363
vn -1.0000000 0.0000000 0.0000000
vt 0.8891432 0.0412008
v 1.1288620 1.5148320 0.2964306
vn -1.0000000 0.0000000 0.0000000
vt 0.9033571 0.0474049
v 1.1288620 1.2623240 0.5467209
vn -1.0000000 0.0000000 0.0000000
vt 0.8832002 0.0272281
v 1.3425421 1.2622350 0.5461731
vn 1.0000000 0.0000000 0.0000000
vt 0.9097798 0.7404391
v 1.3425421 1.1155829 0.0948256
vn 1.0000000 0.0000000 0.0000000
vt 0.9592022 0.7564974
v 1.3425421 1.2622350 0.0471756
vn 1.0000000 0.0000000 0.0000000
vt 0.9644200 0.7404391
v 1.3425421 1.4088870 0.4985231
vn 1.0000000 0.0000016 0.0000000
vt 0.9149974 0.7243807
v 1.3425410 1.4995230 0.2195749
vn 1.0000000 0.0000066 0.0000000
vt 0.9455422 0.7144561
v 1.3425410 1.4995230 0.3737737
vn 1.0000000 0.0000066 0.0000000
vt 0.9286574 0.7144561
v 1.1288620 1.4395140 0.1189248
vn -1.0000000 0.0000000 0.0000000
vt 0.9175693 0.0414720
v 1.1288620 1.2623240 0.0461404
vn -1.0000000 0.0000000 0.0000000
vt 0.9235445 0.0272287
v 1.1288620 1.0851340 0.1189249
vn -1.0000000 0.0000000 0.0000000
vt 0.9177815 0.0413766
v 1.1288620 1.0098161 0.2964306
vn -1.0000000 0.0000000 0.0000000
vt 0.9033793 0.0476211
v 1.1288620 1.0851340 0.4739364
vn -1.0000000 0.0000000 0.0000000
vt 0.8890575 0.0415071
v 1.3425421 1.1155829 0.4985231
vn 1.0000000 0.0000000 0.0000000
vt 0.9149974 0.7564974
v 1.3425421 1.0249480 0.3737738
vn 1.0000000 0.0000000 0.0000000
vt 0.9286574 0.7664220
v 1.3425421 1.0249480 0.2195750
vn 1.0000000 0.0000000 0.0000000
vt 0.9455422 0.7664220
v 1.3425421 1.4088870 0.0948256
vn 1.0000000 0.0000016 0.0000000
vt 0.9592022 0.7243807
v 1.1288620 1.5148320 0.2964306
vn -0.0455197 0.9989634 -0.0002535
vt 0.9984897 0.9345115
v 1.3425421 1.0249480 0.3737738
vn 0.0244252 -0.9480141 0.3172896
vt 0.9777020 0.8639691
v 1.1288620 1.0098161 0.2964306
vn -0.0463510 -0.9989252 -0.0002536
vt 0.9985112 0.8705775
v 1.1288620 1.2623240 0.5467209
vn -1.0000000 0.0000000 0.0000000
vt 0.8832002 0.0272281
v 1.1288620 1.2623240 0.0461404
vn -1.0000000 0.0000000 0.0000000
vt 0.9235445 0.0272287

g group_151839160_140627851876752
f 1/1/1 2/2/2 3/3/3 
f 2/2/2 4/4/4 5/5/5 
f 6/6/6 7/7/7 8/8/8 
f 7/7/7 9/9/9 8/8/8 
f 10/10/10 11/11/11 9/9/9 
f 11/11/11 12/12/12 13/13/13 
f 12/12/12 14/14/14 15/15/15 
f 39/39/39 16/16/16 17/17/17 
f 16/16/16 18/18/18 17/17/17 
f 19/19/19 1/1/1 18/18/18 
f 20/20/20 21/21/21 22/22/22 
f 23/23/23 24/24/24 25/25/25 
f 26/26/26 27/27/27 28/28/28 
f 2/2/2 5/5/5 3/3/3 
f 11/11/11 13/13/13 9/9/9 
f 12/12/12 15/15/15 13/13/13 
f 1/1/1 3/3/3 18/18/18 
f 21/21/21 29/29/29 30/30/30 
f 31/31/31 32/32/32 33/33/33 
f 31/31/31 33/33/33 41/41/41 
f 42/42/42 31/31/31 41/41/41 
f 21/21/21 30/30/30 22/22/22 
f 23/23/23 34/34/34 35/35/35 
f 23/23/23 35/35/35 36/36/36 
f 23/23/23 36/36/36 24/24/24 
f 26/26/26 23/23/23 25/25/25 
f 26/26/26 25/25/25 37/37/37 
f 26/26/26 37/37/37 27/27/27 
f 8/8/8 38/38/38 6/6/6 
f 7/7/7 10/10/10 9/9/9 
f 17/17/17 40/40/40 39/39/39 
f 16/16/16 19/19/19 18/18/18 
