v -1.3425550 -0.6087670 0.4985232
vn -0.0094616 0.5742753 0.8186076
vt 0.9777020 0.9338719
v -1.1288750 -0.5781397 0.4739365
vn 0.0410077 0.6992204 0.7137291
vt 0.9983401 0.9289753
v -1.3425550 -0.5181313 0.3737738
vn -0.0252111 0.9479815 0.3173254
vt 0.9777020 0.9198912
v -1.1288750 -0.5028223 0.2964308
vn 0.0455197 0.9989634 -0.0002537
vt 0.9983135 0.9130932
v -1.3425550 -0.5181314 0.2195750
vn -0.0259580 0.9480776 -0.3169782
vt 0.9777020 0.9059106
v -1.1288750 -0.5781398 0.1189250
vn 0.0393797 0.6990129 -0.7140239
vt 0.9983416 0.8956296
v -1.3425550 -0.6087672 0.0948257
vn -0.0113542 0.5744588 -0.8184547
vt 0.9777020 0.8919301
v -1.1288750 -0.7553300 0.0461405
vn 0.0302268 0.0000946 -0.9995431
vt 0.9983568 0.8780259
v -1.3425550 -0.7554189 0.0471757
vn -0.0048445 -0.0000819 -0.9999883
vt 0.9777020 0.8779495
v -1.3425550 -0.9020706 0.0948258
vn -0.0108892 -0.5745652 -0.8183864
vt 0.9777020 0.8639691
v -1.1288750 -0.9325202 0.1189251
vn 0.0399614 -0.6989021 -0.7141001
vt 0.9983113 0.8685027
v -1.3425550 -0.9927063 0.2195752
vn -0.0251719 -0.9481111 -0.3169415
vt 0.9777020 0.8779451
v -1.1288750 -1.0078380 0.2964309
vn 0.0463508 -0.9989252 -0.0002531
vt 0.9983148 0.8847054
v -1.3425550 -0.9927062 0.3737739
vn -0.0244256 -0.9480140 0.3172902
vt 0.9777020 0.8919211
v -1.1288750 -0.9325200 0.4739366
vn 0.0415891 -0.6991079 0.7138057
vt 0.9983445 0.9021863
v -1.3425550 -0.9020703 0.4985232
vn -0.0089976 -0.5743798 0.8185395
vt 0.9777020 0.9058971
v -1.1288750 -0.7553299 0.5467210
vn 0.0325065 0.0000949 0.9994715
vt 0.9983396 0.9197862
v -1.3425550 -0.7554187 0.5461732
vn -0.0025635 -0.0000812 0.9999967
vt 0.9777020 0.9198729
v -1.3425550 -0.6087670 0.4985232
vn -0.0094616 0.5742753 0.8186076
vt 0.9777020 0.9338490
v -1.1288750 -0.5781397 0.4739365
vn 1.0000000 0.0000000 0.0000000
vt 0.8891432 0.0412008
v -1.1288750 -0.7553299 0.5467210
vn 1.0000000 0.0000000 0.0000000
vt 0.8832002 0.0272281
v -1.1288750 -0.5028223 0.2964308
vn 1.0000000 0.0000000 0.0000000
vt 0.9033571 0.0474049
v -1.3425550 -0.7554187 0.5461732
vn -1.0000000 -0.0000020 0.0000000
vt 0.9097798 0.7404391
v -1.3425550 -0.7554189 0.0471757
vn -1.0000000 -0.0000020 0.0000000
vt 0.9644200 0.7404391
v -1.3425550 -0.9020706 0.0948258
vn -1.0000000 0.0000000 0.0000000
vt 0.9592022 0.7564974
v -1.3425550 -0.6087670 0.4985232
vn -1.0000000 -0.0000014 0.0000000
vt 0.9149974 0.7243807
v -1.3425550 -0.5181313 0.3737738
vn -1.0000000 0.0000066 -0.0000000
vt 0.9286574 0.7144561
v -1.3425550 -0.5181314 0.2195750
vn -1.0000000 0.0000066 -0.0000000
vt 0.9455422 0.7144561
v -1.1288750 -0.5781397 0.4739365
vn 0.0410077 0.6992204 0.7137291
vt 0.9982667 0.9325088
v -1.1288750 -0.7553300 0.0461405
vn 1.0000000 0.0000000 0.0000000
vt 0.9235445 0.0272287
v -1.1288750 -0.5781398 0.1189250
vn 1.0000000 0.0000000 0.0000000
vt 0.9175693 0.0414720
v -1.1288750 -0.9325202 0.1189251
vn 1.0000000 0.0000000 0.0000000
vt 0.9177815 0.0413766
v -1.1288750 -0.9325200 0.4739366
vn 1.0000000 0.0000000 0.0000000
vt 0.8890575 0.0415071
v -1.1288750 -1.0078380 0.2964309
vn 1.0000000 0.0000000 0.0000000
vt 0.9033793 0.0476211
v -1.3425550 -0.9927062 0.3737739
vn -1.0000000 0.0000000 0.0000000
vt 0.9286574 0.7664220
v -1.3425550 -0.9020703 0.4985232
vn -1.0000000 0.0000000 0.0000000
vt 0.9149974 0.7564974
v -1.3425550 -0.9927063 0.2195752
vn -1.0000000 0.0000000 0.0000000
vt 0.9455422 0.7664220
v -1.3425550 -0.6087672 0.0948257
vn -1.0000000 -0.0000014 0.0000000
vt 0.9592022 0.7243807
v -1.3425550 -0.9020706 0.0948258
vn -0.0108892 -0.5745652 -0.8183864
vt 0.9777020 0.8639691
v -1.1288750 -0.9325202 0.1189251
vn 0.0399614 -0.6989021 -0.7141001
vt 0.9983113 0.8685027
v -1.1288750 -0.7553299 0.5467210
vn 1.0000000 0.0000000 0.0000000
vt 0.8832002 0.0272281
v -1.1288750 -0.7553300 0.0461405
vn 1.0000000 0.0000000 0.0000000
vt 0.9235445 0.0272287

g group_201522408_140627853726896
f 1/1/1 2/2/2 3/3/3 
f 3/3/3 4/4/4 5/5/5 
f 5/5/5 6/6/6 7/7/7 
f 7/7/7 6/6/6 8/8/8 
f 9/9/9 8/8/8 10/10/10 
f 39/39/39 11/11/11 12/12/12 
f 12/12/12 13/13/13 14/14/14 
f 14/14/14 15/15/15 16/16/16 
f 16/16/16 15/15/15 17/17/17 
f 18/18/18 17/17/17 19/19/19 
f 20/20/20 21/21/21 22/22/22 
f 23/23/23 24/24/24 25/25/25 
f 26/26/26 27/27/27 28/28/28 
f 3/3/3 2/2/2 4/4/4 
f 10/10/10 8/8/8 40/40/40 
f 12/12/12 11/11/11 13/13/13 
f 19/19/19 17/17/17 29/29/29 
f 22/22/22 30/30/30 31/31/31 
f 32/32/32 33/33/33 34/34/34 
f 32/32/32 41/41/41 33/33/33 
f 42/42/42 41/41/41 32/32/32 
f 22/22/22 21/21/21 30/30/30 
f 23/23/23 35/35/35 36/36/36 
f 23/23/23 37/37/37 35/35/35 
f 23/23/23 25/25/25 37/37/37 
f 26/26/26 24/24/24 23/23/23 
f 26/26/26 38/38/38 24/24/24 
f 26/26/26 28/28/28 38/38/38 
f 6/6/6 5/5/5 4/4/4 
f 7/7/7 8/8/8 9/9/9 
f 15/15/15 14/14/14 13/13/13 
f 16/16/16 17/17/17 18/18/18 
