v 1.1542280 0.5371006 1.0135700
vn 0.0000000 0.7071072 0.7071065
vt 0.9503214 0.0414715
v 1.3219630 0.5765737 0.9182732
vn 0.0000000 1.0000000 -0.0000002
vt 0.9614614 0.0595869
v 1.1542280 0.5765737 0.9182732
vn 0.0000000 1.0000000 -0.0000002
vt 0.9614614 0.0414715
v 1.3219630 0.5371006 0.8229766
vn 0.0000000 0.7071068 -0.7071068
vt 0.9726014 0.0595869
v 1.1542280 0.5371006 0.8229766
vn 0.0000000 0.7071068 -0.7071068
vt 0.9726014 0.0414715
v 1.1542280 0.5371006 0.8229766
vn 0.0000000 0.7071068 -0.7071068
vt 0.9503214 0.0414715
v 1.3219630 0.4418040 0.7835035
vn 0.0000000 0.0000001 -1.0000000
vt 0.9614612 0.0595869
v 1.1542280 0.4418040 0.7835035
vn 0.0000000 0.0000001 -1.0000000
vt 0.9614612 0.0414715
v 1.3219630 0.3465073 0.8229766
vn 0.0000000 -0.7071068 -0.7071068
vt 0.9726014 0.0595869
v 1.1542280 0.3465073 0.8229766
vn 0.0000000 -0.7071068 -0.7071068
vt 0.9726014 0.0414715
v 1.1542280 0.3465073 0.8229766
vn 0.0000000 -0.7071068 -0.7071068
vt 0.9503214 0.0414715
v 1.3219630 0.3070342 0.9182732
vn 0.0000000 -1.0000000 -0.0000001
vt 0.9614612 0.0595869
v 1.1542280 0.3070342 0.9182732
vn 0.0000000 -1.0000000 -0.0000001
vt 0.9614612 0.0414715
v 1.3219630 0.3465074 1.0135700
vn 0.0000000 -0.7071072 0.7071065
vt 0.9726014 0.0595869
v 1.1542280 0.3465074 1.0135700
vn 0.0000000 -0.7071072 0.7071065
vt 0.9726014 0.0414715
v 1.1542280 0.3465074 1.0135700
vn 0.0000000 -0.7071072 0.7071065
vt 0.9503214 0.0414715
v 1.3219630 0.4418039 1.0530430
vn 0.0000000 -0.0000001 1.0000000
vt 0.9614613 0.0595869
v 1.1542280 0.4418039 1.0530430
vn 0.0000000 -0.0000001 1.0000000
vt 0.9614613 0.0414715
v 1.3219630 0.5371006 1.0135700
vn 0.0000000 0.7071072 0.7071065
vt 0.9726014 0.0595869
v 1.1542280 0.5371006 1.0135700
vn 0.0000000 0.7071072 0.7071065
vt 0.9726014 0.0414715
v 1.3219630 0.5371006 1.0135700
vn 1.0000000 0.0000000 0.0000000
vt 0.9719870 0.1468605
v 1.3219630 0.5371006 0.8229766
vn 1.0000000 0.0000000 0.0000000
vt 0.9521475 0.1468605
v 1.3219630 0.5765737 0.9182732
vn 1.0000000 0.0000000 0.0000000
vt 0.9620672 0.1507683
v 1.3219630 0.5371006 1.0135700
vn 0.0000000 0.7071072 0.7071065
vt 0.9503214 0.0595869
v 1.3219630 0.5371006 0.8229766
vn 0.0000000 0.7071068 -0.7071068
vt 0.9503214 0.0595869
v 1.3219630 0.3465073 0.8229766
vn 0.0000000 -0.7071068 -0.7071068
vt 0.9503214 0.0595869
v 1.3219630 0.3465074 1.0135700
vn 0.0000000 -0.7071072 0.7071065
vt 0.9503214 0.0595869
v 1.3219630 0.4418039 1.0530430
vn 1.0000000 0.0000000 0.0000000
vt 0.9760960 0.1374261
v 1.3219630 0.3465074 1.0135700
vn 1.0000000 0.0000000 0.0000000
vt 0.9719870 0.1279917
v 1.3219630 0.3070342 0.9182732
vn 1.0000000 0.0000000 0.0000000
vt 0.9620672 0.1240839
v 1.3219630 0.3465073 0.8229766
vn 1.0000000 0.0000000 0.0000000
vt 0.9521475 0.1279917
v 1.3219630 0.4418040 0.7835035
vn 1.0000000 0.0000000 0.0000000
vt 0.9480385 0.1374261

g group_151838824_140627853464320
f 1/1/1 2/2/2 3/3/3 
f 3/3/3 4/4/4 5/5/5 
f 6/6/6 7/7/7 8/8/8 
f 8/8/8 9/9/9 10/10/10 
f 11/11/11 12/12/12 13/13/13 
f 13/13/13 14/14/14 15/15/15 
f 16/16/16 17/17/17 18/18/18 
f 18/18/18 19/19/19 20/20/20 
f 21/21/21 22/22/22 23/23/23 
f 1/1/1 24/24/24 2/2/2 
f 3/3/3 2/2/2 4/4/4 
f 6/6/6 25/25/25 7/7/7 
f 8/8/8 7/7/7 9/9/9 
f 11/11/11 26/26/26 12/12/12 
f 13/13/13 12/12/12 14/14/14 
f 16/16/16 27/27/27 17/17/17 
f 18/18/18 17/17/17 19/19/19 
f 21/21/21 28/28/28 29/29/29 
f 21/21/21 29/29/29 30/30/30 
f 21/21/21 30/30/30 31/31/31 
f 21/21/21 31/31/31 32/32/32 
f 21/21/21 32/32/32 22/22/22 
