v -1.3425550 -0.1051074 0.4985231
vn -0.0094617 0.5742751 0.8186077
vt 0.9777020 0.9338719
v -1.1288750 -0.0744800 0.4739364
vn 0.0410075 0.6992204 0.7137291
vt 0.9983401 0.9289752
v -1.3425550 -0.0144717 0.3737737
vn -0.0252114 0.9479815 0.3173254
vt 0.9777020 0.9198910
v -1.1288750 0.0008374 0.2964306
vn 0.0455193 0.9989634 -0.0002538
vt 0.9983135 0.9130930
v -1.3425550 -0.0144717 0.2195750
vn -0.0259583 0.9480776 -0.3169781
vt 0.9777020 0.9059106
v -1.1288750 -0.0744802 0.1189248
vn 0.0393794 0.6990129 -0.7140239
vt 0.9983416 0.8956297
v -1.3425550 -0.1051075 0.0948256
vn -0.0113544 0.5744585 -0.8184550
vt 0.9777020 0.8919301
v -1.1288750 -0.2516703 0.0461404
vn 0.0302267 0.0000945 -0.9995431
vt 0.9983568 0.8780259
v -1.3425550 -0.2517593 0.0471756
vn -0.0048447 -0.0000824 -0.9999883
vt 0.9777020 0.8779495
v -1.3425550 -0.3984109 0.0948257
vn -0.0108892 -0.5745652 -0.8183864
vt 0.9777020 0.8639691
v -1.1288750 -0.4288604 0.1189250
vn 0.0399616 -0.6989020 -0.7141002
vt 0.9983113 0.8685027
v -1.3425550 -0.4890466 0.2195751
vn -0.0251718 -0.9481109 -0.3169417
vt 0.9777020 0.8779451
v -1.1288750 -0.5041779 0.2964308
vn 0.0463511 -0.9989252 -0.0002532
vt 0.9983148 0.8847054
v -1.3425550 -0.4890466 0.3737738
vn -0.0244251 -0.9480140 0.3172900
vt 0.9777020 0.8919211
v -1.1288750 -0.4288603 0.4739364
vn 0.0415898 -0.6991081 0.7138054
vt 0.9983445 0.9021863
v -1.3425550 -0.3984108 0.4985231
vn -0.0089970 -0.5743801 0.8185393
vt 0.9777020 0.9058971
v -1.1288750 -0.2516702 0.5467209
vn 0.0325067 0.0000950 0.9994715
vt 0.9983396 0.9197862
v -1.3425550 -0.2517591 0.5461732
vn -0.0025634 -0.0000817 0.9999968
vt 0.9777020 0.9198729
v -1.3425550 -0.1051074 0.4985231
vn -0.0094617 0.5742751 0.8186077
vt 0.9777020 0.9338490
v -1.1288750 -0.0744800 0.4739364
vn 1.0000000 0.0000000 0.0000000
vt 0.8891432 0.0412008
v -1.1288750 -0.2516702 0.5467209
vn 1.0000000 0.0000000 0.0000000
vt 0.8832002 0.0272281
v -1.1288750 0.0008374 0.2964306
vn 1.0000000 0.0000000 0.0000000
vt 0.9033571 0.0474049
v -1.3425550 -0.2517591 0.5461732
vn -1.0000000 0.0000000 0.0000000
vt 0.9097798 0.7404391
v -1.3425550 -0.2517593 0.0471756
vn -1.0000000 0.0000000 0.0000000
vt 0.9644200 0.7404391
v -1.3425550 -0.3984109 0.0948257
vn -1.0000000 0.0000000 0.0000000
vt 0.9592022 0.7564974
v -1.3425550 -0.1051074 0.4985231
vn -1.0000000 0.0000013 -0.0000000
vt 0.9149974 0.7243807
v -1.3425550 -0.0144717 0.3737737
vn -1.0000000 0.0000053 -0.0000000
vt 0.9286574 0.7144561
v -1.3425550 -0.0144717 0.2195750
vn -1.0000000 0.0000053 -0.0000000
vt 0.9455422 0.7144561
v -1.1288750 -0.0744800 0.4739364
vn 0.0410075 0.6992204 0.7137291
vt 0.9982667 0.9325089
v -1.1288750 -0.2516703 0.0461404
vn 1.0000000 0.0000000 0.0000000
vt 0.9235445 0.0272287
v -1.1288750 -0.0744802 0.1189248
vn 1.0000000 0.0000000 0.0000000
vt 0.9175693 0.0414720
v -1.1288750 -0.4288604 0.1189250
vn 1.0000000 0.0000000 0.0000000
vt 0.9177815 0.0413766
v -1.1288750 -0.4288603 0.4739364
vn 1.0000000 0.0000000 0.0000000
vt 0.8890575 0.0415071
v -1.1288750 -0.5041779 0.2964308
vn 1.0000000 0.0000000 0.0000000
vt 0.9033793 0.0476211
v -1.3425550 -0.4890466 0.3737738
vn -1.0000000 0.0000000 0.0000000
vt 0.9286574 0.7664220
v -1.3425550 -0.3984108 0.4985231
vn -1.0000000 0.0000000 0.0000000
vt 0.9149974 0.7564974
v -1.3425550 -0.4890466 0.2195751
vn -1.0000000 0.0000000 0.0000000
vt 0.9455422 0.7664220
v -1.3425550 -0.1051075 0.0948256
vn -1.0000000 0.0000013 -0.0000000
vt 0.9592022 0.7243807
v -1.3425550 -0.3984109 0.0948257
vn -0.0108892 -0.5745652 -0.8183864
vt 0.9777020 0.8639691
v -1.1288750 -0.4288604 0.1189250
vn 0.0399616 -0.6989020 -0.7141002
vt 0.9983113 0.8685027
v -1.1288750 -0.2516702 0.5467209
vn 1.0000000 0.0000000 0.0000000
vt 0.8832002 0.0272281
v -1.1288750 -0.2516703 0.0461404
vn 1.0000000 0.0000000 0.0000000
vt 0.9235445 0.0272287

g group_201522744_140627853727920
f 1/1/1 2/2/2 3/3/3 
f 3/3/3 4/4/4 5/5/5 
f 5/5/5 6/6/6 7/7/7 
f 7/7/7 6/6/6 8/8/8 
f 9/9/9 8/8/8 10/10/10 
f 39/39/39 11/11/11 12/12/12 
f 12/12/12 13/13/13 14/14/14 
f 14/14/14 15/15/15 16/16/16 
f 16/16/16 15/15/15 17/17/17 
f 18/18/18 17/17/17 19/19/19 
f 20/20/20 21/21/21 22/22/22 
f 23/23/23 24/24/24 25/25/25 
f 26/26/26 27/27/27 28/28/28 
f 3/3/3 2/2/2 4/4/4 
f 10/10/10 8/8/8 40/40/40 
f 12/12/12 11/11/11 13/13/13 
f 19/19/19 17/17/17 29/29/29 
f 22/22/22 30/30/30 31/31/31 
f 32/32/32 33/33/33 34/34/34 
f 32/32/32 41/41/41 33/33/33 
f 42/42/42 41/41/41 32/32/32 
f 22/22/22 21/21/21 30/30/30 
f 23/23/23 35/35/35 36/36/36 
f 23/23/23 37/37/37 35/35/35 
f 23/23/23 25/25/25 37/37/37 
f 26/26/26 24/24/24 23/23/23 
f 26/26/26 38/38/38 24/24/24 
f 26/26/26 28/28/28 38/38/38 
f 6/6/6 5/5/5 4/4/4 
f 7/7/7 8/8/8 9/9/9 
f 15/15/15 14/14/14 13/13/13 
f 16/16/16 17/17/17 18/18/18 
