v -1.2810000 -2.7336831 0.9260954
vn -1.0000000 0.0000000 0.0000000
vt 0.6091149 0.2163215
v -1.2810000 -2.7805450 1.0392330
vn -1.0000000 0.0000000 0.0000000
vt 0.6216155 0.2111157
v -1.2810000 -2.7336831 1.1523700
vn -1.0000000 0.0000000 0.0000000
vt 0.6341159 0.2163215
v -1.2810000 -2.6205461 1.1992331
vn -1.0000000 0.0000000 0.0000000
vt 0.6392943 0.2288894
v -1.2810000 -2.5074091 1.1523700
vn -1.0000000 0.0000000 0.0000000
vt 0.6341159 0.2414575
v -1.2810000 -2.4605460 1.0392320
vn -1.0000000 0.0000000 0.0000000
vt 0.6216153 0.2466633
v -1.2810000 -2.5074091 0.9260955
vn -1.0000000 0.0000000 0.0000000
vt 0.6091149 0.2414575
v -1.2810000 -2.6205461 0.8792326
vn -1.0000000 0.0000000 0.0000000
vt 0.6039369 0.2288894
v -1.2810000 -2.7805450 1.0392330
vn 0.0000000 -1.0000000 0.0000003
vt 0.5717961 0.3366210
v -1.0640000 -2.7805450 1.0392330
vn 0.0000000 -1.0000000 0.0000003
vt 0.6105757 0.3366210
v -1.0640000 -2.7336831 1.1523700
vn 0.0000000 -0.7071075 0.7071061
vt 0.6105757 0.3586232
v -1.2810000 -2.7336831 1.1523700
vn 0.0000000 -0.7071075 0.7071061
vt 0.5717961 0.3586232
v -1.0640000 -2.6205461 1.1992331
vn 0.0000000 0.0000004 1.0000000
vt 0.6105757 0.3806256
v -1.2810000 -2.6205461 1.1992331
vn 0.0000000 0.0000003 1.0000000
vt 0.5717961 0.3806256
v -1.2810000 -2.6205461 1.1992331
vn 0.0000000 0.0000003 1.0000000
vt 0.5717961 0.3366212
v -1.0640000 -2.6205461 1.1992331
vn 0.0000000 0.0000004 1.0000000
vt 0.6105757 0.3366212
v -1.0640000 -2.5074091 1.1523700
vn 0.0000000 0.7071066 0.7071070
vt 0.6105757 0.3586234
v -1.2810000 -2.5074091 1.1523700
vn 0.0000000 0.7071066 0.7071069
vt 0.5717961 0.3586234
v -1.0640000 -2.4605460 1.0392320
vn 0.0000000 1.0000000 -0.0000003
vt 0.6105757 0.3806256
v -1.2810000 -2.4605460 1.0392320
vn 0.0000000 1.0000000 -0.0000003
vt 0.5717961 0.3806256
v -1.2810000 -2.4605460 1.0392320
vn 0.0000000 1.0000000 -0.0000003
vt 0.5717961 0.3366213
v -1.0640000 -2.4605460 1.0392320
vn 0.0000000 1.0000000 -0.0000003
vt 0.6105759 0.3366213
v -1.0640000 -2.5074091 0.9260955
vn 0.0000000 0.7071062 -0.7071074
vt 0.6105759 0.3586234
v -1.2810000 -2.5074091 0.9260955
vn 0.0000000 0.7071063 -0.7071073
vt 0.5717961 0.3586234
v -1.0640000 -2.6205461 0.8792326
vn 0.0000000 0.0000008 -1.0000000
vt 0.6105759 0.3806256
v -1.2810000 -2.6205461 0.8792326
vn 0.0000000 0.0000008 -1.0000000
vt 0.5717961 0.3806256
v -1.2810000 -2.6205461 0.8792326
vn 0.0000000 0.0000008 -1.0000000
vt 0.5717961 0.3366213
v -1.0640000 -2.6205461 0.8792326
vn 0.0000000 0.0000008 -1.0000000
vt 0.6105757 0.3366213
v -1.0640000 -2.7336831 0.9260954
vn 0.0000000 -0.7071072 -0.7071064
vt 0.6105757 0.3586236
v -1.2810000 -2.7336831 0.9260954
vn 0.0000000 -0.7071072 -0.7071064
vt 0.5717961 0.3586236
v -1.0640000 -2.7805450 1.0392330
vn 0.0000000 -1.0000000 0.0000003
vt 0.6105757 0.3806257
v -1.2810000 -2.7805450 1.0392330
vn 0.0000000 -1.0000000 0.0000003
vt 0.5717961 0.3806257

g group_67350824_140627909838704
f 1/1/1 2/2/2 3/3/3 
f 3/3/3 4/4/4 1/1/1 
f 1/1/1 4/4/4 5/5/5 
f 5/5/5 6/6/6 1/1/1 
f 1/1/1 6/6/6 7/7/7 
f 7/7/7 8/8/8 1/1/1 
f 9/9/9 10/10/10 11/11/11 
f 11/11/11 12/12/12 9/9/9 
f 12/12/12 11/11/11 13/13/13 
f 13/13/13 14/14/14 12/12/12 
f 15/15/15 16/16/16 17/17/17 
f 17/17/17 18/18/18 15/15/15 
f 18/18/18 17/17/17 19/19/19 
f 19/19/19 20/20/20 18/18/18 
f 21/21/21 22/22/22 23/23/23 
f 23/23/23 24/24/24 21/21/21 
f 24/24/24 23/23/23 25/25/25 
f 25/25/25 26/26/26 24/24/24 
f 27/27/27 28/28/28 29/29/29 
f 29/29/29 30/30/30 27/27/27 
f 30/30/30 29/29/29 31/31/31 
f 31/31/31 32/32/32 30/30/30 
