v -1.3489690 2.7797680 0.8918240
vn 0.0000000 -1.0000000 0.0000002
vt 0.0251005 0.8412752
v -1.2768060 2.7797680 0.8918240
vn 0.0000000 -1.0000000 0.0000001
vt 0.0251005 0.8490451
v -1.2768060 2.8363211 1.1028800
vn 0.0000000 -0.8660253 0.5000002
vt 0.0016929 0.8490451
v -1.3489690 2.8363211 1.1028800
vn 0.0000000 -0.8660253 0.5000003
vt 0.0016929 0.8412752
v -1.3489690 2.8363211 1.1028800
vn 0.0000000 -0.8660253 0.5000003
vt 0.0485093 0.8412752
v -1.2768060 2.8363211 1.1028800
vn 0.0000000 -0.8660253 0.5000002
vt 0.0485093 0.8490451
v -1.2768060 2.9908240 1.2573839
vn 0.0000000 -0.4999998 0.8660255
vt 0.0251011 0.8490451
v -1.3489690 2.9908240 1.2573839
vn 0.0000000 -0.4999998 0.8660255
vt 0.0251011 0.8412752
v -1.2768060 3.2018800 1.3139360
vn 0.0000000 0.0000006 1.0000000
vt 0.0016929 0.8490451
v -1.3489690 3.2018800 1.3139360
vn 0.0000000 0.0000006 1.0000000
vt 0.0016929 0.8412752
v -1.3489690 3.2018800 1.3139360
vn 0.0000000 0.0000006 1.0000000
vt 0.0485094 0.8412752
v -1.2768060 3.2018800 1.3139360
vn 0.0000000 0.0000006 1.0000000
vt 0.0485094 0.8490451
v -1.2768060 3.4129369 1.2573830
vn 0.0000000 0.5000005 0.8660251
vt 0.0251011 0.8490451
v -1.3489690 3.4129369 1.2573830
vn 0.0000000 0.5000005 0.8660251
vt 0.0251011 0.8412752
v -1.2768060 3.5674400 1.1028800
vn 0.0000000 0.8660253 0.5000002
vt 0.0016929 0.8490451
v -1.3489690 3.5674400 1.1028800
vn 0.0000000 0.8660253 0.5000001
vt 0.0016929 0.8412752
v -1.3489690 3.5674400 1.1028800
vn 0.0000000 0.8660253 0.5000001
vt 0.0016929 0.8412752
v -1.2768060 3.5674400 1.1028800
vn 0.0000000 0.8660253 0.5000002
vt 0.0016929 0.8490451
v -1.2768060 3.6239920 0.8918240
vn 0.0000000 1.0000000 0.0000000
vt 0.0251003 0.8490451
v -1.3489690 3.6239920 0.8918240
vn 0.0000000 1.0000000 0.0000000
vt 0.0251003 0.8412752
v -1.2768060 3.5674400 0.6807681
vn 0.0000000 0.8660252 -0.5000004
vt 0.0485082 0.8490451
v -1.3489690 3.5674400 0.6807681
vn 0.0000000 0.8660253 -0.5000003
vt 0.0485082 0.8412752
v -1.3489690 3.5674400 0.6807681
vn 0.0000000 0.8660253 -0.5000003
vt 0.0485079 0.8412752
v -1.2768060 3.5674400 0.6807681
vn 0.0000000 0.8660252 -0.5000004
vt 0.0485079 0.8490451
v -1.2768060 3.4129360 0.5262643
vn 0.0000000 0.5000005 -0.8660251
vt 0.0251005 0.8490451
v -1.3489690 3.4129360 0.5262643
vn 0.0000000 0.5000005 -0.8660251
vt 0.0251005 0.8412752
v -1.2768060 3.2018809 0.4697119
vn 0.0000000 0.0000010 -1.0000000
vt 0.0016929 0.8490451
v -1.3489690 3.2018809 0.4697119
vn 0.0000000 0.0000011 -1.0000000
vt 0.0016929 0.8412752
v -1.3489690 3.2018809 0.4697119
vn 0.0000000 0.0000011 -1.0000000
vt 0.0485085 0.8412752
v -1.2768060 3.2018809 0.4697119
vn 0.0000000 0.0000010 -1.0000000
vt 0.0485085 0.8490451
v -1.2768060 2.9908240 0.5262640
vn 0.0000000 -0.4999995 -0.8660257
vt 0.0251011 0.8490451
v -1.3489690 2.9908240 0.5262640
vn 0.0000000 -0.4999995 -0.8660257
vt 0.0251011 0.8412752
v -1.2768060 2.8363211 0.6807678
vn 0.0000000 -0.8660253 -0.5000001
vt 0.0016929 0.8490451
v -1.3489690 2.8363211 0.6807678
vn 0.0000000 -0.8660253 -0.5000001
vt 0.0016929 0.8412752
v -1.3489690 2.8363211 0.6807678
vn 0.0000000 -0.8660253 -0.5000001
vt 0.0485079 0.8412752
v -1.2768060 2.8363211 0.6807678
vn 0.0000000 -0.8660253 -0.5000001
vt 0.0485079 0.8490451
v -1.2768060 3.5674400 0.6807681
vn 1.0000000 0.0000000 0.0000000
vt 0.5226089 0.7937587
v -1.2768060 3.6239920 0.8918240
vn 1.0000000 0.0000000 0.0000000
vt 0.5120055 0.7956362
v -1.2768060 3.5674400 1.1028800
vn 1.0000000 0.0000000 0.0000000
vt 0.5018892 0.7919315
v -1.2768060 3.4129369 1.2573830
vn 1.0000000 0.0000000 0.0000000
vt 0.4949707 0.7836368
v -1.2768060 3.4129369 1.2573830
vn 1.0000000 0.0000000 0.0000000
vt 0.4949707 0.7836368
v -1.2768060 3.2018800 1.3139360
vn 1.0000000 0.0000000 0.0000000
vt 0.4931045 0.7729753
v -1.2768060 3.5674400 0.6807681
vn 1.0000000 0.0000000 0.0000000
vt 0.5226089 0.7937587
v -1.2768060 3.2018800 1.3139360
vn 1.0000000 0.0000000 0.0000000
vt 0.4931045 0.7729753
v -1.2768060 2.9908240 1.2573839
vn 1.0000000 0.0000000 0.0000000
vt 0.4967901 0.7628041
v -1.2768060 2.8363211 1.1028800
vn 1.0000000 0.0000000 0.0000000
vt 0.5050406 0.7558481
v -1.2768060 3.5674400 0.6807681
vn 1.0000000 0.0000003 0.0000005
vt 0.5226089 0.7937587
v -1.2768060 2.8363211 1.1028800
vn 1.0000000 0.0000003 0.0000005
vt 0.5050406 0.7558481
v -1.2768060 2.7797680 0.8918240
vn 1.0000000 0.0000003 0.0000005
vt 0.5156456 0.7539713
v -1.2768060 3.5674400 0.6807681
vn 1.0000000 0.0000002 0.0000000
vt 0.5226089 0.7937587
v -1.2768060 2.7797680 0.8918240
vn 1.0000000 0.0000002 0.0000000
vt 0.5156456 0.7539713
v -1.2768060 2.8363211 0.6807678
vn 1.0000000 0.0000002 0.0000000
vt 0.5257630 0.7576777
v -1.2768060 3.5674400 0.6807681
vn 1.0000000 0.0000002 0.0000002
vt 0.5226089 0.7937587
v -1.2768060 2.8363211 0.6807678
vn 1.0000000 0.0000002 0.0000002
vt 0.5257630 0.7576777
v -1.2768060 2.9908240 0.5262640
vn 1.0000000 0.0000002 0.0000002
vt 0.5326812 0.7659737
v -1.2768060 3.5674400 0.6807681
vn 1.0000000 0.0000001 0.0000004
vt 0.5226089 0.7937587
v -1.2768060 2.9908240 0.5262640
vn 1.0000000 0.0000001 0.0000004
vt 0.5326812 0.7659737
v -1.2768060 3.2018809 0.4697119
vn 1.0000000 0.0000001 0.0000004
vt 0.5345460 0.7766354
v -1.2768060 3.2018809 0.4697119
vn 1.0000000 0.0000008 -0.0000008
vt 0.5345460 0.7766354
v -1.2768060 3.4129360 0.5262643
vn 1.0000000 0.0000008 -0.0000008
vt 0.5308588 0.7868052
v -1.3489690 2.8363211 0.6807678
vn -1.0000000 0.0000000 0.0000000
vt 0.9598793 0.3487797
v -1.3489690 2.7797680 0.8918240
vn -1.0000000 0.0000000 0.0000000
vt 0.9679399 0.3694811
v -1.3489690 2.8363211 1.1028800
vn -1.0000000 0.0000000 0.0000000
vt 0.9647087 0.3911747
v -1.3489690 2.8363211 0.6807678
vn -1.0000000 0.0000000 0.0000000
vt 0.9598793 0.3487797
v -1.3489690 2.8363211 1.1028800
vn -1.0000000 0.0000000 0.0000000
vt 0.9647087 0.3911747
v -1.3489690 2.9908240 1.2573839
vn -1.0000000 0.0000000 0.0000000
vt 0.9513949 0.4082654
v -1.3489690 2.8363211 0.6807678
vn -1.0000000 0.0000000 0.0000000
vt 0.9598793 0.3487797
v -1.3489690 2.9908240 1.2573839
vn -1.0000000 0.0000000 0.0000000
vt 0.9513949 0.4082654
v -1.3489690 3.2018800 1.3139360
vn -1.0000000 0.0000000 0.0000000
vt 0.9315434 0.4165666
v -1.3489690 2.8363211 0.6807678
vn -1.0000000 0.0000000 0.0000000
vt 0.9598793 0.3487797
v -1.3489690 3.2018800 1.3139360
vn -1.0000000 0.0000000 0.0000000
vt 0.9315434 0.4165666
v -1.3489690 3.4129369 1.2573830
vn -1.0000000 0.0000000 0.0000000
vt 0.9102098 0.4140446
v -1.3489690 2.8363211 0.6807678
vn -1.0000000 0.0000000 0.0000000
vt 0.9598793 0.3487797
v -1.3489690 3.4129369 1.2573830
vn -1.0000000 0.0000000 0.0000000
vt 0.9102098 0.4140446
v -1.3489690 3.5674400 1.1028800
vn -1.0000000 0.0000000 0.0000000
vt 0.8927817 0.4013138
v -1.3489690 2.8363211 0.6807678
vn -1.0000000 0.0000000 0.0000000
vt 0.9598793 0.3487797
v -1.3489690 3.5674400 1.1028800
vn -1.0000000 0.0000000 0.0000000
vt 0.8927817 0.4013138
v -1.3489690 3.6239920 0.8918240
vn -1.0000000 0.0000000 0.0000000
vt 0.8837739 0.3814698
v -1.3489690 2.8363211 0.6807678
vn -1.0000000 0.0000000 0.0000000
vt 0.9598793 0.3487797
v -1.3489690 3.6239920 0.8918240
vn -1.0000000 0.0000000 0.0000000
vt 0.8837739 0.3814698
v -1.3489690 3.5674400 0.6807681
vn -1.0000000 0.0000000 0.0000000
vt 0.8857352 0.3594759
v -1.3489690 2.8363211 0.6807678
vn -1.0000000 0.0000000 0.0000000
vt 0.9598793 0.3487797
v -1.3489690 3.5674400 0.6807681
vn -1.0000000 0.0000000 0.0000000
vt 0.8857352 0.3594759
v -1.3489690 3.4129360 0.5262643
vn -1.0000000 0.0000000 0.0000000
vt 0.8986509 0.3411300
v -1.3489690 2.8363211 0.6807678
vn -1.0000000 0.0000000 0.0000000
vt 0.9598793 0.3487797
v -1.3489690 3.4129360 0.5262643
vn -1.0000000 0.0000000 0.0000000
vt 0.8986509 0.3411300
v -1.3489690 3.2018809 0.4697119
vn -1.0000000 0.0000000 0.0000000
vt 0.9194296 0.3317364
v -1.3489690 2.8363211 0.6807678
vn -1.0000000 0.0000000 0.0000000
vt 0.9598793 0.3487797
v -1.3489690 3.2018809 0.4697119
vn -1.0000000 0.0000000 0.0000000
vt 0.9194296 0.3317364
v -1.3489690 2.9908240 0.5262640
vn -1.0000000 0.0000000 0.0000000
vt 0.9421258 0.3346514
v -1.0509940 3.4131351 0.5259210
vn -1.0000000 0.0000000 0.0000000
vt 0.8570914 0.4009896
v -1.0509940 3.2018800 0.4693155
vn -1.0000000 0.0000000 0.0000000
vt 0.8605052 0.4138053
v -1.0509940 2.9906261 0.5259210
vn -1.0000000 0.0000000 0.0000000
vt 0.8570914 0.4266207
v -1.0509940 2.8359771 0.6805698
vn -1.0000000 0.0000000 0.0000000
vt 0.8477588 0.4360026
v -1.0509940 2.7793720 0.8918240
vn -1.0000000 0.0000000 0.0000000
vt 0.8350124 0.4394367
v -1.0509940 2.8359771 1.1030780
vn -1.0000000 0.0000000 0.0000000
vt 0.8222642 0.4360026
v -1.0509940 2.9906261 1.2577270
vn -1.0000000 0.0000000 0.0000000
vt 0.8129336 0.4266207
v -1.0509940 3.2018800 1.3143330
vn -1.0000000 0.0000000 0.0000000
vt 0.8095179 0.4138053
v -1.0509940 3.4131351 1.2577270
vn -1.0000000 0.0000000 0.0000000
vt 0.8129336 0.4009896
v -1.0509940 3.5677831 1.1030780
vn -1.0000000 0.0000000 0.0000000
vt 0.8222642 0.3916078
v -1.0509940 3.6243889 0.8918240
vn -1.0000000 0.0000000 0.0000000
vt 0.8350124 0.3881737
v -1.0509940 3.5677831 0.6805698
vn -1.0000000 0.0000000 0.0000000
vt 0.8477588 0.3916078
v -1.0440640 3.2018800 0.4693155
vn 1.0000000 0.0000000 0.0000000
vt 0.7302317 0.7402232
v -1.0440640 3.4131351 0.5259210
vn 1.0000000 0.0000000 0.0000000
vt 0.7100742 0.7347925
v -1.0440640 3.5677831 0.6805698
vn 1.0000000 0.0000000 0.0000000
vt 0.6953177 0.7199551
v -1.0440640 3.6243889 0.8918240
vn 1.0000000 0.0000000 0.0000000
vt 0.6899162 0.6996899
v -1.0440640 3.5677831 1.1030780
vn 1.0000000 0.0000000 0.0000000
vt 0.6953177 0.6794246
v -1.0440640 3.4131351 1.2577270
vn 1.0000000 0.0000000 0.0000000
vt 0.7100742 0.6645873
v -1.0440640 3.2018800 1.3143330
vn 1.0000000 0.0000000 0.0000000
vt 0.7302317 0.6591566
v -1.0440640 2.9906261 1.2577270
vn 1.0000000 0.0000000 0.0000000
vt 0.7503892 0.6645873
v -1.0440640 2.8359771 1.1030780
vn 1.0000000 0.0000000 0.0000000
vt 0.7651460 0.6794246
v -1.0440640 2.7793720 0.8918240
vn 1.0000000 0.0000000 0.0000000
vt 0.7705474 0.6996899
v -1.0440640 2.8359771 0.6805698
vn 1.0000000 0.0000000 0.0000000
vt 0.7651460 0.7199551
v -1.0440640 2.9906261 0.5259210
vn 1.0000000 0.0000000 0.0000000
vt 0.7503892 0.7347925

g group_67352168_140627938986000
f 1/1/1 2/2/2 3/3/3 
f 3/3/3 4/4/4 1/1/1 
f 5/5/5 6/6/6 7/7/7 
f 7/7/7 8/8/8 5/5/5 
f 8/8/8 7/7/7 9/9/9 
f 9/9/9 10/10/10 8/8/8 
f 11/11/11 12/12/12 13/13/13 
f 13/13/13 14/14/14 11/11/11 
f 14/14/14 13/13/13 15/15/15 
f 15/15/15 16/16/16 14/14/14 
f 17/17/17 18/18/18 19/19/19 
f 19/19/19 20/20/20 17/17/17 
f 20/20/20 19/19/19 21/21/21 
f 21/21/21 22/22/22 20/20/20 
f 23/23/23 24/24/24 25/25/25 
f 25/25/25 26/26/26 23/23/23 
f 26/26/26 25/25/25 27/27/27 
f 27/27/27 28/28/28 26/26/26 
f 29/29/29 30/30/30 31/31/31 
f 31/31/31 32/32/32 29/29/29 
f 32/32/32 31/31/31 33/33/33 
f 33/33/33 34/34/34 32/32/32 
f 35/35/35 36/36/36 2/2/2 
f 2/2/2 1/1/1 35/35/35 
f 37/37/37 38/38/38 39/39/39 
f 37/37/37 39/39/39 40/40/40 
f 37/37/37 41/41/41 42/42/42 
f 43/43/43 44/44/44 45/45/45 
f 43/43/43 45/45/45 46/46/46 
f 47/47/47 48/48/48 49/49/49 
f 50/50/50 51/51/51 52/52/52 
f 53/53/53 54/54/54 55/55/55 
f 56/56/56 57/57/57 58/58/58 
f 53/53/53 59/59/59 60/60/60 
f 61/61/61 62/62/62 63/63/63 
f 64/64/64 65/65/65 66/66/66 
f 67/67/67 68/68/68 69/69/69 
f 70/70/70 71/71/71 72/72/72 
f 73/73/73 74/74/74 75/75/75 
f 76/76/76 77/77/77 78/78/78 
f 79/79/79 80/80/80 81/81/81 
f 82/82/82 83/83/83 84/84/84 
f 85/85/85 86/86/86 87/87/87 
f 88/88/88 89/89/89 90/90/90 
f 91/91/91 92/92/92 93/93/93 
f 93/93/93 94/94/94 91/91/91 
f 91/91/91 94/94/94 95/95/95 
f 95/95/95 96/96/96 91/91/91 
f 91/91/91 96/96/96 97/97/97 
f 97/97/97 98/98/98 91/91/91 
f 91/91/91 98/98/98 99/99/99 
f 99/99/99 100/100/100 91/91/91 
f 91/91/91 100/100/100 101/101/101 
f 101/101/101 102/102/102 91/91/91 
f 103/103/103 104/104/104 105/105/105 
f 105/105/105 106/106/106 103/103/103 
f 103/103/103 106/106/106 107/107/107 
f 107/107/107 108/108/108 103/103/103 
f 103/103/103 108/108/108 109/109/109 
f 109/109/109 110/110/110 103/103/103 
f 103/103/103 110/110/110 111/111/111 
f 111/111/111 112/112/112 103/103/103 
f 103/103/103 112/112/112 113/113/113 
f 113/113/113 114/114/114 103/103/103 
