v -1.2811910 -0.3445010 0.1022387
vn -1.0000000 0.0000000 0.0000000
vt 0.8529545 0.2609832
v -1.2811910 -0.3997984 0.2357385
vn -1.0000000 0.0000000 0.0000000
vt 0.8596170 0.2771557
v -1.2811910 -0.3445010 0.3692383
vn -1.0000000 0.0000000 0.0000000
vt 0.8529545 0.2933282
v -1.2811910 -0.2110010 0.4245357
vn -1.0000000 0.0000000 0.0000000
vt 0.8368684 0.3000273
v -1.2811910 -0.0775012 0.3692383
vn -1.0000000 0.0000000 0.0000000
vt 0.8207829 0.2933282
v -1.2811910 -0.0222040 0.2357385
vn -1.0000000 0.0000000 0.0000000
vt 0.8141193 0.2771557
v -1.2811910 -0.0775018 0.1022387
vn -1.0000000 0.0000000 0.0000000
vt 0.8207829 0.2609832
v -1.2811910 -0.2110013 0.0469414
vn -1.0000000 0.0000000 0.0000000
vt 0.8368684 0.2542841
v -1.2811910 -0.3997984 0.2357385
vn 0.0000000 -1.0000000 -0.0000000
vt 0.2679421 0.4205231
v -1.0637800 -0.3997984 0.2357385
vn 0.0000000 -1.0000000 -0.0000000
vt 0.2679421 0.4448878
v -1.0637800 -0.3445010 0.3692383
vn 0.0000000 -0.7071065 0.7071071
vt 0.2518356 0.4448878
v -1.2811910 -0.3445010 0.3692383
vn 0.0000000 -0.7071065 0.7071071
vt 0.2518357 0.4205231
v -1.0637800 -0.2110010 0.4245357
vn 0.0000000 0.0000004 1.0000000
vt 0.2357276 0.4448878
v -1.2811910 -0.2110010 0.4245357
vn 0.0000000 0.0000003 1.0000000
vt 0.2357276 0.4205231
v -1.2811910 -0.2110010 0.4245357
vn 0.0000000 0.0000003 1.0000000
vt 0.2679421 0.4205231
v -1.0637800 -0.2110010 0.4245357
vn 0.0000000 0.0000004 1.0000000
vt 0.2679421 0.4448878
v -1.0637800 -0.0775012 0.3692383
vn 0.0000000 0.7071072 0.7071064
vt 0.2518356 0.4448878
v -1.2811910 -0.0775012 0.3692383
vn 0.0000000 0.7071071 0.7071065
vt 0.2518357 0.4205231
v -1.0637800 -0.0222040 0.2357385
vn 0.0000000 1.0000000 -0.0000020
vt 0.2357276 0.4448878
v -1.2811910 -0.0222040 0.2357385
vn 0.0000000 1.0000000 -0.0000020
vt 0.2357276 0.4205231
v -1.2811910 -0.0222040 0.2357385
vn 0.0000000 1.0000000 -0.0000020
vt 0.2679405 0.4205231
v -1.0637800 -0.0222040 0.2357385
vn 0.0000000 1.0000000 -0.0000020
vt 0.2679405 0.4448879
v -1.0637800 -0.0775018 0.1022387
vn 0.0000000 0.7071060 -0.7071076
vt 0.2518339 0.4448879
v -1.2811910 -0.0775018 0.1022387
vn 0.0000000 0.7071060 -0.7071076
vt 0.2518339 0.4205231
v -1.0637800 -0.2110013 0.0469414
vn 0.0000000 0.0000004 -1.0000000
vt 0.2357276 0.4448879
v -1.2811910 -0.2110013 0.0469414
vn 0.0000000 0.0000005 -1.0000000
vt 0.2357276 0.4205231
v -1.2811910 -0.2110013 0.0469414
vn 0.0000000 0.0000005 -1.0000000
vt 0.2679421 0.4205231
v -1.0637800 -0.2110013 0.0469414
vn 0.0000000 0.0000004 -1.0000000
vt 0.2679421 0.4448879
v -1.0637800 -0.3445010 0.1022387
vn 0.0000000 -0.7071067 -0.7071069
vt 0.2518339 0.4448879
v -1.2811910 -0.3445010 0.1022387
vn 0.0000000 -0.7071068 -0.7071068
vt 0.2518340 0.4205231
v -1.0637800 -0.3997984 0.2357385
vn 0.0000000 -1.0000000 -0.0000000
vt 0.2357276 0.4448879
v -1.2811910 -0.3997984 0.2357385
vn 0.0000000 -1.0000000 -0.0000000
vt 0.2357276 0.4205231
v -1.0637800 -0.3445010 0.3692383
vn 1.0000000 0.0000000 0.0000000
vt 0.2185465 0.7204782
v -1.0637800 -0.3997984 0.2357385
vn 1.0000000 0.0000000 0.0000000
vt 0.2073821 0.7251278
v -1.0637800 -0.3445010 0.1022387
vn 1.0000000 0.0000000 0.0000000
vt 0.1962176 0.7204782
v -1.0637800 -0.2110013 0.0469414
vn 1.0000000 0.0000000 0.0000000
vt 0.1915943 0.7092535
v -1.0637800 -0.0775018 0.1022387
vn 1.0000000 0.0000000 0.0000000
vt 0.1962176 0.6980290
v -1.0637800 -0.0222040 0.2357385
vn 1.0000000 0.0000000 0.0000000
vt 0.2073821 0.6933795
v -1.0637800 -0.0775012 0.3692383
vn 1.0000000 0.0000000 0.0000000
vt 0.2185465 0.6980290
v -1.0637800 -0.2110010 0.4245357
vn 1.0000000 0.0000000 0.0000000
vt 0.2231714 0.7092535

g group_67306112_140627913421152
f 1/1/1 2/2/2 3/3/3 
f 3/3/3 4/4/4 1/1/1 
f 1/1/1 4/4/4 5/5/5 
f 5/5/5 6/6/6 1/1/1 
f 1/1/1 6/6/6 7/7/7 
f 7/7/7 8/8/8 1/1/1 
f 9/9/9 10/10/10 11/11/11 
f 11/11/11 12/12/12 9/9/9 
f 12/12/12 11/11/11 13/13/13 
f 13/13/13 14/14/14 12/12/12 
f 15/15/15 16/16/16 17/17/17 
f 17/17/17 18/18/18 15/15/15 
f 18/18/18 17/17/17 19/19/19 
f 19/19/19 20/20/20 18/18/18 
f 21/21/21 22/22/22 23/23/23 
f 23/23/23 24/24/24 21/21/21 
f 24/24/24 23/23/23 25/25/25 
f 25/25/25 26/26/26 24/24/24 
f 27/27/27 28/28/28 29/29/29 
f 29/29/29 30/30/30 27/27/27 
f 30/30/30 29/29/29 31/31/31 
f 31/31/31 32/32/32 30/30/30 
f 33/33/33 34/34/34 35/35/35 
f 35/35/35 36/36/36 33/33/33 
f 33/33/33 36/36/36 37/37/37 
f 37/37/37 38/38/38 33/33/33 
f 33/33/33 38/38/38 39/39/39 
f 39/39/39 40/40/40 33/33/33 
