v 1.2810000 -0.8741459 0.9904618
vn 1.0000000 0.0000000 0.0000000
vt 0.6091149 0.2163215
v 1.2810000 -0.7610086 1.2635990
vn 1.0000000 0.0000000 0.0000000
vt 0.6392943 0.2288894
v 1.2810000 -0.8741458 1.2167360
vn 1.0000000 0.0000000 0.0000000
vt 0.6341159 0.2163215
v 1.2810000 -0.9210086 1.1035990
vn 1.0000000 0.0000000 0.0000000
vt 0.6216155 0.2111157
v 1.2810000 -0.6010087 1.1035990
vn 1.0000000 0.0000000 0.0000000
vt 0.6216153 0.2466633
v 1.2810000 -0.6478717 1.2167360
vn 1.0000000 0.0000000 0.0000000
vt 0.6341159 0.2414575
v 1.2810000 -0.7610086 0.9435989
vn 1.0000000 0.0000000 0.0000000
vt 0.6039369 0.2288894
v 1.2810000 -0.6478717 0.9904619
vn 1.0000000 0.0000000 0.0000000
vt 0.6091149 0.2414575
v 1.2810000 -0.9210086 1.1035990
vn 0.0000000 -1.0000000 0.0000005
vt 0.5717961 0.3366210
v 1.2810000 -0.8741458 1.2167360
vn 0.0000000 -0.7071069 0.7071066
vt 0.5717961 0.3586232
v 1.0640000 -0.8741458 1.2167360
vn 0.0000000 -0.7071069 0.7071066
vt 0.6105757 0.3586232
v 1.0640000 -0.9210086 1.1035990
vn 0.0000000 -1.0000000 0.0000005
vt 0.6105757 0.3366210
v 1.2810000 -0.7610086 1.2635990
vn 0.0000000 0.0000005 1.0000000
vt 0.5717961 0.3806256
v 1.0640000 -0.7610086 1.2635990
vn 0.0000000 0.0000006 1.0000000
vt 0.6105757 0.3806256
v 1.2810000 -0.7610086 1.2635990
vn 0.0000000 0.0000005 1.0000000
vt 0.5717961 0.3366212
v 1.2810000 -0.6478717 1.2167360
vn 0.0000000 0.7071069 0.7071067
vt 0.5717961 0.3586234
v 1.0640000 -0.6478717 1.2167360
vn 0.0000000 0.7071069 0.7071067
vt 0.6105757 0.3586234
v 1.0640000 -0.7610086 1.2635990
vn 0.0000000 0.0000006 1.0000000
vt 0.6105757 0.3366212
v 1.2810000 -0.6010087 1.1035990
vn 0.0000000 1.0000000 -0.0000003
vt 0.5717961 0.3806256
v 1.0640000 -0.6010087 1.1035990
vn 0.0000000 1.0000000 -0.0000003
vt 0.6105757 0.3806256
v 1.2810000 -0.6010087 1.1035990
vn 0.0000000 1.0000000 -0.0000003
vt 0.5717961 0.3366213
v 1.2810000 -0.6478717 0.9904619
vn 0.0000000 0.7071067 -0.7071069
vt 0.5717961 0.3586234
v 1.0640000 -0.6478717 0.9904619
vn 0.0000000 0.7071067 -0.7071069
vt 0.6105759 0.3586234
v 1.0640000 -0.6010087 1.1035990
vn 0.0000000 1.0000000 -0.0000003
vt 0.6105759 0.3366213
v 1.2810000 -0.7610086 0.9435989
vn 0.0000000 0.0000011 -1.0000000
vt 0.5717961 0.3806256
v 1.0640000 -0.7610086 0.9435989
vn 0.0000000 0.0000011 -1.0000000
vt 0.6105759 0.3806256
v 1.2810000 -0.7610086 0.9435989
vn 0.0000000 0.0000011 -1.0000000
vt 0.5717961 0.3366213
v 1.2810000 -0.8741459 0.9904618
vn 0.0000000 -0.7071070 -0.7071066
vt 0.5717961 0.3586236
v 1.0640000 -0.8741459 0.9904618
vn 0.0000000 -0.7071071 -0.7071065
vt 0.6105757 0.3586236
v 1.0640000 -0.7610086 0.9435989
vn 0.0000000 0.0000011 -1.0000000
vt 0.6105757 0.3366213
v 1.2810000 -0.9210086 1.1035990
vn 0.0000000 -1.0000000 0.0000005
vt 0.5717961 0.3806257
v 1.0640000 -0.9210086 1.1035990
vn 0.0000000 -1.0000000 0.0000005
vt 0.6105757 0.3806257

g group_18205496_140627821516192
f 1/1/1 2/2/2 3/3/3 
f 3/3/3 4/4/4 1/1/1 
f 1/1/1 5/5/5 6/6/6 
f 6/6/6 2/2/2 1/1/1 
f 1/1/1 7/7/7 8/8/8 
f 8/8/8 5/5/5 1/1/1 
f 9/9/9 10/10/10 11/11/11 
f 11/11/11 12/12/12 9/9/9 
f 10/10/10 13/13/13 14/14/14 
f 14/14/14 11/11/11 10/10/10 
f 15/15/15 16/16/16 17/17/17 
f 17/17/17 18/18/18 15/15/15 
f 16/16/16 19/19/19 20/20/20 
f 20/20/20 17/17/17 16/16/16 
f 21/21/21 22/22/22 23/23/23 
f 23/23/23 24/24/24 21/21/21 
f 22/22/22 25/25/25 26/26/26 
f 26/26/26 23/23/23 22/22/22 
f 27/27/27 28/28/28 29/29/29 
f 29/29/29 30/30/30 27/27/27 
f 28/28/28 31/31/31 32/32/32 
f 32/32/32 29/29/29 28/28/28 
