v 1.3489690 2.7797680 0.8918240
vn 0.0000000 -1.0000000 0.0000002
vt 0.0251005 0.8412752
v 1.3489690 2.8363211 1.1028800
vn 0.0000000 -0.8660253 0.5000004
vt 0.0016929 0.8412752
v 1.2768060 2.8363211 1.1028800
vn 0.0000000 -0.8660253 0.5000002
vt 0.0016929 0.8490451
v 1.2768060 2.7797680 0.8918240
vn 0.0000000 -1.0000000 0.0000001
vt 0.0251005 0.8490451
v 1.3489690 2.8363211 1.1028800
vn 0.0000000 -0.8660253 0.5000004
vt 0.0485093 0.8412752
v 1.3489690 2.9908240 1.2573839
vn 0.0000000 -0.4999998 0.8660255
vt 0.0251011 0.8412752
v 1.2768060 2.9908240 1.2573839
vn 0.0000000 -0.4999998 0.8660255
vt 0.0251011 0.8490451
v 1.2768060 2.8363211 1.1028800
vn 0.0000000 -0.8660253 0.5000002
vt 0.0485093 0.8490451
v 1.3489690 3.2018800 1.3139360
vn 0.0000000 0.0000006 1.0000000
vt 0.0016929 0.8412752
v 1.2768060 3.2018800 1.3139360
vn 0.0000000 0.0000006 1.0000000
vt 0.0016929 0.8490451
v 1.3489690 3.2018800 1.3139360
vn 0.0000000 0.0000006 1.0000000
vt 0.0485094 0.8412752
v 1.3489690 3.4129369 1.2573830
vn 0.0000000 0.5000005 0.8660251
vt 0.0251011 0.8412752
v 1.2768060 3.4129369 1.2573830
vn 0.0000000 0.5000005 0.8660251
vt 0.0251011 0.8490451
v 1.2768060 3.2018800 1.3139360
vn 0.0000000 0.0000006 1.0000000
vt 0.0485094 0.8490451
v 1.3489690 3.5674400 1.1028800
vn 0.0000000 0.8660253 0.5000002
vt 0.0016929 0.8412752
v 1.2768060 3.5674400 1.1028800
vn 0.0000000 0.8660253 0.5000002
vt 0.0016929 0.8490451
v 1.3489690 3.5674400 1.1028800
vn 0.0000000 0.8660253 0.5000002
vt 0.0016929 0.8412752
v 1.3489690 3.6239920 0.8918240
vn 0.0000000 1.0000000 0.0000000
vt 0.0251003 0.8412752
v 1.2768060 3.6239920 0.8918240
vn 0.0000000 1.0000000 0.0000000
vt 0.0251003 0.8490451
v 1.2768060 3.5674400 1.1028800
vn 0.0000000 0.8660253 0.5000002
vt 0.0016929 0.8490451
v 1.3489690 3.5674400 0.6807681
vn 0.0000000 0.8660253 -0.5000004
vt 0.0485082 0.8412752
v 1.2768060 3.5674400 0.6807681
vn 0.0000000 0.8660252 -0.5000004
vt 0.0485082 0.8490451
v 1.3489690 3.5674400 0.6807681
vn 0.0000000 0.8660253 -0.5000004
vt 0.0485079 0.8412752
v 1.3489690 3.4129360 0.5262643
vn 0.0000000 0.5000005 -0.8660251
vt 0.0251005 0.8412752
v 1.2768060 3.4129360 0.5262643
vn 0.0000000 0.5000005 -0.8660251
vt 0.0251005 0.8490451
v 1.2768060 3.5674400 0.6807681
vn 0.0000000 0.8660252 -0.5000004
vt 0.0485079 0.8490451
v 1.3489690 3.2018809 0.4697119
vn 0.0000000 0.0000011 -1.0000000
vt 0.0016929 0.8412752
v 1.2768060 3.2018809 0.4697119
vn 0.0000000 0.0000010 -1.0000000
vt 0.0016929 0.8490451
v 1.3489690 3.2018809 0.4697119
vn 0.0000000 0.0000011 -1.0000000
vt 0.0485085 0.8412752
v 1.3489690 2.9908240 0.5262640
vn 0.0000000 -0.4999995 -0.8660257
vt 0.0251011 0.8412752
v 1.2768060 2.9908240 0.5262640
vn 0.0000000 -0.4999995 -0.8660257
vt 0.0251011 0.8490451
v 1.2768060 3.2018809 0.4697119
vn 0.0000000 0.0000010 -1.0000000
vt 0.0485085 0.8490451
v 1.3489690 2.8363211 0.6807678
vn 0.0000000 -0.8660253 -0.5000002
vt 0.0016929 0.8412752
v 1.2768060 2.8363211 0.6807678
vn 0.0000000 -0.8660253 -0.5000001
vt 0.0016929 0.8490451
v 1.3489690 2.8363211 0.6807678
vn 0.0000000 -0.8660253 -0.5000002
vt 0.0485079 0.8412752
v 1.2768060 2.8363211 0.6807678
vn 0.0000000 -0.8660253 -0.5000001
vt 0.0485079 0.8490451
v 1.2768060 3.5674400 0.6807681
vn -1.0000000 0.0000008 -0.0000008
vt 0.5226089 0.7937587
v 1.2768060 3.4129360 0.5262643
vn -1.0000000 0.0000008 -0.0000008
vt 0.5308588 0.7868052
v 1.2768060 3.2018809 0.4697119
vn -1.0000000 0.0000008 -0.0000008
vt 0.5345460 0.7766354
v 1.2768060 3.5674400 0.6807681
vn -1.0000000 0.0000001 0.0000004
vt 0.5226089 0.7937587
v 1.2768060 3.2018809 0.4697119
vn -1.0000000 0.0000001 0.0000004
vt 0.5345460 0.7766354
v 1.2768060 2.9908240 0.5262640
vn -1.0000000 0.0000001 0.0000004
vt 0.5326812 0.7659737
v 1.2768060 2.9908240 0.5262640
vn -1.0000000 0.0000002 0.0000002
vt 0.5326812 0.7659737
v 1.2768060 2.8363211 0.6807678
vn -1.0000000 0.0000002 0.0000002
vt 0.5257630 0.7576777
v 1.2768060 3.5674400 0.6807681
vn -1.0000000 0.0000002 0.0000000
vt 0.5226089 0.7937587
v 1.2768060 2.8363211 0.6807678
vn -1.0000000 0.0000002 0.0000000
vt 0.5257630 0.7576777
v 1.2768060 2.7797680 0.8918240
vn -1.0000000 0.0000002 0.0000000
vt 0.5156456 0.7539713
v 1.2768060 3.5674400 0.6807681
vn -1.0000000 0.0000003 0.0000005
vt 0.5226089 0.7937587
v 1.2768060 2.7797680 0.8918240
vn -1.0000000 0.0000003 0.0000005
vt 0.5156456 0.7539713
v 1.2768060 2.8363211 1.1028800
vn -1.0000000 0.0000003 0.0000005
vt 0.5050406 0.7558481
v 1.2768060 3.5674400 0.6807681
vn -1.0000000 0.0000000 0.0000000
vt 0.5226089 0.7937587
v 1.2768060 2.8363211 1.1028800
vn -1.0000000 0.0000000 0.0000000
vt 0.5050406 0.7558481
v 1.2768060 2.9908240 1.2573839
vn -1.0000000 0.0000000 0.0000000
vt 0.4967901 0.7628041
v 1.2768060 3.2018800 1.3139360
vn -1.0000000 0.0000000 0.0000000
vt 0.4931045 0.7729753
v 1.2768060 3.5674400 0.6807681
vn -1.0000000 0.0000000 0.0000000
vt 0.5226089 0.7937587
v 1.2768060 3.2018800 1.3139360
vn -1.0000000 0.0000000 0.0000000
vt 0.4931045 0.7729753
v 1.2768060 3.4129369 1.2573830
vn -1.0000000 0.0000000 0.0000000
vt 0.4949707 0.7836368
v 1.2768060 3.5674400 0.6807681
vn -1.0000000 0.0000000 0.0000000
vt 0.5226089 0.7937587
v 1.2768060 3.4129369 1.2573830
vn -1.0000000 0.0000000 0.0000000
vt 0.4949707 0.7836368
v 1.2768060 3.5674400 1.1028800
vn -1.0000000 0.0000000 0.0000000
vt 0.5018892 0.7919315
v 1.2768060 3.6239920 0.8918240
vn -1.0000000 0.0000000 0.0000000
vt 0.5120055 0.7956362
v 1.3489690 2.8363211 0.6807678
vn 1.0000000 0.0000000 0.0000000
vt 0.9598793 0.3487797
v 1.3489690 2.9908240 0.5262640
vn 1.0000000 0.0000000 0.0000000
vt 0.9421258 0.3346514
v 1.3489690 3.2018809 0.4697119
vn 1.0000000 0.0000000 0.0000000
vt 0.9194296 0.3317364
v 1.3489690 2.8363211 0.6807678
vn 1.0000000 0.0000000 0.0000000
vt 0.9598793 0.3487797
v 1.3489690 3.2018809 0.4697119
vn 1.0000000 0.0000000 0.0000000
vt 0.9194296 0.3317364
v 1.3489690 3.4129360 0.5262643
vn 1.0000000 0.0000000 0.0000000
vt 0.8986509 0.3411300
v 1.3489690 2.8363211 0.6807678
vn 1.0000000 0.0000000 0.0000000
vt 0.9598793 0.3487797
v 1.3489690 3.4129360 0.5262643
vn 1.0000000 0.0000000 0.0000000
vt 0.8986509 0.3411300
v 1.3489690 3.5674400 0.6807681
vn 1.0000000 0.0000000 0.0000000
vt 0.8857352 0.3594759
v 1.3489690 2.8363211 0.6807678
vn 1.0000000 0.0000000 0.0000000
vt 0.9598793 0.3487797
v 1.3489690 3.5674400 0.6807681
vn 1.0000000 0.0000000 0.0000000
vt 0.8857352 0.3594759
v 1.3489690 3.6239920 0.8918240
vn 1.0000000 0.0000000 0.0000000
vt 0.8837739 0.3814698
v 1.3489690 2.8363211 0.6807678
vn 1.0000000 0.0000000 0.0000000
vt 0.9598793 0.3487797
v 1.3489690 3.6239920 0.8918240
vn 1.0000000 0.0000000 0.0000000
vt 0.8837739 0.3814698
v 1.3489690 3.5674400 1.1028800
vn 1.0000000 0.0000000 0.0000000
vt 0.8927817 0.4013138
v 1.3489690 2.8363211 0.6807678
vn 1.0000000 0.0000000 0.0000000
vt 0.9598793 0.3487797
v 1.3489690 3.5674400 1.1028800
vn 1.0000000 0.0000000 0.0000000
vt 0.8927817 0.4013138
v 1.3489690 3.4129369 1.2573830
vn 1.0000000 0.0000000 0.0000000
vt 0.9102098 0.4140446
v 1.3489690 2.8363211 0.6807678
vn 1.0000000 0.0000000 0.0000000
vt 0.9598793 0.3487797
v 1.3489690 3.4129369 1.2573830
vn 1.0000000 0.0000000 0.0000000
vt 0.9102098 0.4140446
v 1.3489690 3.2018800 1.3139360
vn 1.0000000 0.0000000 0.0000000
vt 0.9315434 0.4165666
v 1.3489690 2.8363211 0.6807678
vn 1.0000000 0.0000000 0.0000000
vt 0.9598793 0.3487797
v 1.3489690 3.2018800 1.3139360
vn 1.0000000 0.0000000 0.0000000
vt 0.9315434 0.4165666
v 1.3489690 2.9908240 1.2573839
vn 1.0000000 0.0000000 0.0000000
vt 0.9513949 0.4082654
v 1.3489690 2.8363211 0.6807678
vn 1.0000000 0.0000000 0.0000000
vt 0.9598793 0.3487797
v 1.3489690 2.9908240 1.2573839
vn 1.0000000 0.0000000 0.0000000
vt 0.9513949 0.4082654
v 1.3489690 2.8363211 1.1028800
vn 1.0000000 0.0000000 0.0000000
vt 0.9647087 0.3911747
v 1.3489690 2.8363211 0.6807678
vn 1.0000000 0.0000000 0.0000000
vt 0.9598793 0.3487797
v 1.3489690 2.8363211 1.1028800
vn 1.0000000 0.0000000 0.0000000
vt 0.9647087 0.3911747
v 1.3489690 2.7797680 0.8918240
vn 1.0000000 0.0000000 0.0000000
vt 0.9679399 0.3694811
v 1.0440940 3.2018800 0.4693155
vn -1.0000000 0.0000000 0.0000000
vt 0.7302313 0.7402231
v 1.0440940 3.6243889 0.8918240
vn -1.0000000 0.0000000 0.0000000
vt 0.6899164 0.6996899
v 1.0440940 3.5677831 0.6805698
vn -1.0000000 0.0000000 0.0000000
vt 0.6953176 0.7199557
v 1.0440940 3.4131351 0.5259210
vn -1.0000000 0.0000000 0.0000000
vt 0.7100741 0.7347921
v 1.0440940 3.4131351 1.2577270
vn -1.0000000 0.0000000 0.0000000
vt 0.7100739 0.6645876
v 1.0440940 3.5677831 1.1030780
vn -1.0000000 0.0000000 0.0000000
vt 0.6953176 0.6794238
v 1.0440940 2.9906261 1.2577270
vn -1.0000000 0.0000000 0.0000000
vt 0.7503895 0.6645874
v 1.0440940 3.2018800 1.3143330
vn -1.0000000 0.0000000 0.0000000
vt 0.7302316 0.6591568
v 1.0440940 2.7793720 0.8918240
vn -1.0000000 0.0000000 0.0000000
vt 0.7705473 0.6996899
v 1.0440940 2.8359771 1.1030780
vn -1.0000000 0.0000000 0.0000000
vt 0.7651460 0.6794239
v 1.0440940 2.9906261 0.5259210
vn -1.0000000 0.0000000 0.0000000
vt 0.7503894 0.7347921
v 1.0440940 2.8359771 0.6805698
vn -1.0000000 0.0000000 0.0000000
vt 0.7651460 0.7199557
v 1.0509640 3.4131351 0.5259210
vn 1.0000000 0.0000000 0.0000000
vt 0.8570904 0.4009894
v 1.0509640 2.8359771 0.6805698
vn 1.0000000 0.0000000 0.0000000
vt 0.8477589 0.4360026
v 1.0509640 2.9906261 0.5259210
vn 1.0000000 0.0000000 0.0000000
vt 0.8570904 0.4266208
v 1.0509640 3.2018800 0.4693155
vn 1.0000000 0.0000000 0.0000000
vt 0.8605061 0.4138052
v 1.0509640 2.8359771 1.1030780
vn 1.0000000 0.0000000 0.0000000
vt 0.8222647 0.4360025
v 1.0509640 2.7793720 0.8918240
vn 1.0000000 0.0000000 0.0000000
vt 0.8350118 0.4394366
v 1.0509640 3.2018800 1.3143330
vn 1.0000000 0.0000000 0.0000000
vt 0.8095178 0.4138053
v 1.0509640 2.9906261 1.2577270
vn 1.0000000 0.0000000 0.0000000
vt 0.8129331 0.4266208
v 1.0509640 3.5677831 1.1030780
vn 1.0000000 0.0000000 0.0000000
vt 0.8222642 0.3916077
v 1.0509640 3.4131351 1.2577270
vn 1.0000000 0.0000000 0.0000000
vt 0.8129332 0.4009896
v 1.0509640 3.5677831 0.6805698
vn 1.0000000 0.0000000 0.0000000
vt 0.8477594 0.3916078
v 1.0509640 3.6243889 0.8918240
vn 1.0000000 0.0000000 0.0000000
vt 0.8350119 0.3881738

g group_67312352_140627909842960
f 1/1/1 2/2/2 3/3/3 
f 3/3/3 4/4/4 1/1/1 
f 5/5/5 6/6/6 7/7/7 
f 7/7/7 8/8/8 5/5/5 
f 6/6/6 9/9/9 10/10/10 
f 10/10/10 7/7/7 6/6/6 
f 11/11/11 12/12/12 13/13/13 
f 13/13/13 14/14/14 11/11/11 
f 12/12/12 15/15/15 16/16/16 
f 16/16/16 13/13/13 12/12/12 
f 17/17/17 18/18/18 19/19/19 
f 19/19/19 20/20/20 17/17/17 
f 18/18/18 21/21/21 22/22/22 
f 22/22/22 19/19/19 18/18/18 
f 23/23/23 24/24/24 25/25/25 
f 25/25/25 26/26/26 23/23/23 
f 24/24/24 27/27/27 28/28/28 
f 28/28/28 25/25/25 24/24/24 
f 29/29/29 30/30/30 31/31/31 
f 31/31/31 32/32/32 29/29/29 
f 30/30/30 33/33/33 34/34/34 
f 34/34/34 31/31/31 30/30/30 
f 35/35/35 1/1/1 4/4/4 
f 4/4/4 36/36/36 35/35/35 
f 37/37/37 38/38/38 39/39/39 
f 40/40/40 41/41/41 42/42/42 
f 37/37/37 43/43/43 44/44/44 
f 45/45/45 46/46/46 47/47/47 
f 48/48/48 49/49/49 50/50/50 
f 51/51/51 52/52/52 53/53/53 
f 51/51/51 53/53/53 54/54/54 
f 55/55/55 56/56/56 57/57/57 
f 58/58/58 59/59/59 60/60/60 
f 55/55/55 60/60/60 61/61/61 
f 62/62/62 63/63/63 64/64/64 
f 65/65/65 66/66/66 67/67/67 
f 68/68/68 69/69/69 70/70/70 
f 71/71/71 72/72/72 73/73/73 
f 74/74/74 75/75/75 76/76/76 
f 77/77/77 78/78/78 79/79/79 
f 80/80/80 81/81/81 82/82/82 
f 83/83/83 84/84/84 85/85/85 
f 86/86/86 87/87/87 88/88/88 
f 89/89/89 90/90/90 91/91/91 
f 92/92/92 93/93/93 94/94/94 
f 94/94/94 95/95/95 92/92/92 
f 92/92/92 96/96/96 97/97/97 
f 97/97/97 93/93/93 92/92/92 
f 92/92/92 98/98/98 99/99/99 
f 99/99/99 96/96/96 92/92/92 
f 92/92/92 100/100/100 101/101/101 
f 101/101/101 98/98/98 92/92/92 
f 92/92/92 102/102/102 103/103/103 
f 103/103/103 100/100/100 92/92/92 
f 104/104/104 105/105/105 106/106/106 
f 106/106/106 107/107/107 104/104/104 
f 104/104/104 108/108/108 109/109/109 
f 109/109/109 105/105/105 104/104/104 
f 104/104/104 110/110/110 111/111/111 
f 111/111/111 108/108/108 104/104/104 
f 104/104/104 112/112/112 113/113/113 
f 113/113/113 110/110/110 104/104/104 
f 104/104/104 114/114/114 115/115/115 
f 115/115/115 112/112/112 104/104/104 
