v -0.2175838 2.1079330 2.1481071
vn -1.0000000 0.0000000 0.0000000
vt 0.3466463 0.9157095
v -0.2175838 1.6757760 2.1481071
vn -1.0000000 0.0000000 0.0000000
vt 0.3878825 0.9157239
v -0.2175838 1.6957550 2.2762079
vn -1.0000000 0.0000000 0.0000000
vt 0.3859718 0.9280115
v -0.2175838 2.1079440 2.2762151
vn -1.0000000 0.0000000 0.0000000
vt 0.3466413 0.9279985
v 0.1750578 1.6957550 2.2762079
vn 1.0000000 -0.0000000 0.0000002
vt 0.3859712 0.9864098
v 0.1750579 1.6757760 2.1481071
vn 1.0000000 -0.0000000 0.0000002
vt 0.3878818 0.9986991
v 0.1750579 2.1079330 2.1481071
vn 1.0000000 -0.0000000 0.0000002
vt 0.3466456 0.9987124
v 0.1750579 2.1079330 2.1481071
vn 1.0000000 -0.0000000 0.0000002
vt 0.3466456 0.9987124
v 0.1750578 2.1079440 2.2762151
vn 1.0000000 -0.0000000 0.0000002
vt 0.3466399 0.9864227
v 0.1750578 1.6957550 2.2762079
vn 1.0000000 -0.0000000 0.0000002
vt 0.3859712 0.9864098
v 0.1750579 1.6757760 2.1481071
vn 0.0000000 0.0000006 -1.0000000
vt 0.4397088 0.8870692
v -0.2175838 1.6757760 2.1481071
vn 0.0000000 0.0000006 -1.0000000
vt 0.4397218 0.9305861
v -0.2175838 2.1079330 2.1481071
vn 0.0000000 0.0000006 -1.0000000
vt 0.3920819 0.9306006
v -0.2175838 2.1079330 2.1481071
vn 0.0000000 0.0000006 -1.0000000
vt 0.3920819 0.9306006
v 0.1750579 2.1079330 2.1481071
vn 0.0000000 0.0000006 -1.0000000
vt 0.3920691 0.8870845
v 0.1750579 1.6757760 2.1481071
vn 0.0000000 0.0000006 -1.0000000
vt 0.4397088 0.8870692
v 0.1750579 2.1079330 2.1481071
vn 0.0000000 1.0000000 -0.0000837
vt 0.4419408 0.9304556
v -0.2175838 2.1079330 2.1481071
vn 0.0000000 1.0000000 -0.0000837
vt 0.4419408 0.8886561
v -0.2175838 2.1079440 2.2762151
vn 0.0000000 1.0000000 -0.0000837
vt 0.4555061 0.8886561
v 0.1750578 2.1079440 2.2762151
vn 0.0000000 1.0000000 -0.0000837
vt 0.4555061 0.9304556
v -0.2175838 2.1079440 2.2762151
vn -0.7919129 0.0000782 0.6106342
vt 0.3466413 0.9279985
v -0.2175838 1.6957550 2.2762079
vn -0.7920043 -0.0000099 0.6105155
vt 0.3859718 0.9280115
v -0.0711165 1.6995320 2.4662161
vn -0.6114393 -0.0004192 0.7912912
vt 0.3856034 0.9510684
v -0.0711164 1.9959360 2.4661410
vn -0.6530361 0.0001932 0.7573267
vt 0.3573202 0.9510522
v -0.0018751 1.9775670 2.4957359
vn 0.0040822 0.0000479 0.9999917
vt 0.3590702 0.9582767
v -0.0018751 1.6992480 2.4954100
vn 0.0035791 -0.0011727 0.9999929
vt 0.3856275 0.9582767
v 0.0660020 1.6995320 2.4662161
vn 0.6666536 -0.0004339 0.7453676
vt 0.3856034 0.9653653
v 0.0660021 1.9959360 2.4661410
vn 0.7176351 0.0001769 0.6964193
vt 0.3573202 0.9653813
v 0.1750578 2.1079440 2.2762151
vn -0.0000003 0.8613665 0.5079840
vt 0.4555061 0.9304556
v -0.2175838 2.1079440 2.2762151
vn 0.0000000 0.8613663 0.5079843
vt 0.4555061 0.8886561
v -0.0711164 1.9959360 2.4661410
vn -0.0000004 0.8593155 0.5114458
vt 0.4756164 0.9042484
v 0.0660021 1.9959360 2.4661410
vn -0.0000009 0.8591808 0.5116721
vt 0.4756164 0.9188454
v 0.1750578 2.1079440 2.2762151
vn 0.8672292 0.0000661 0.4979091
vt 0.3466399 0.9864227
v 0.1750578 1.6957550 2.2762079
vn 0.8672980 -0.0000081 0.4977893
vt 0.3859712 0.9864098
v -0.0018751 1.9775670 2.4957359
vn -0.0000009 0.8496425 0.5273591
vt 0.4787501 0.9116200
v -0.2438633 1.6554060 2.6778510
vn 0.0000001 0.4755127 0.8797089
vt 0.4311199 0.9984750
v 0.1964324 1.6554060 2.6778510
vn 0.0000001 0.4755127 0.8797089
vt 0.3891069 0.9984750
v 0.1964324 1.7116801 2.6474340
vn 0.0000001 0.7619846 0.6475952
vt 0.3891069 0.9923384
v -0.2438633 1.7116801 2.6474340
vn 0.0000002 0.7619851 0.6475946
vt 0.4311199 0.9923384
v -0.2438633 1.6481740 2.6644721
vn -0.0000002 -0.8797099 0.4755109
vt 0.4329160 0.9969382
v 0.1964324 1.6481740 2.6644721
vn -0.0000002 -0.8797099 0.4755108
vt 0.4749289 0.9969382
v 0.1964324 1.6554060 2.6778510
vn -0.0000002 -0.8797100 0.4755108
vt 0.4749289 0.9983974
v -0.2438633 1.6554060 2.6778510
vn -0.0000002 -0.8797099 0.4755108
vt 0.4329160 0.9983974
v -0.2438633 1.7003030 2.6362951
vn -0.0000003 -0.7665765 -0.6421530
vt 0.4329160 0.9912532
v 0.1964324 1.7003020 2.6362951
vn -0.0000004 -0.7665766 -0.6421529
vt 0.4749289 0.9912532
v 0.1964324 1.6481740 2.6644721
vn -0.0000002 -0.4755166 -0.8797067
vt 0.4749289 0.9969382
v -0.2438633 1.6481740 2.6644721
vn -0.0000001 -0.4755158 -0.8797072
vt 0.4329160 0.9969382
v -0.2438634 1.7414750 2.5614581
vn 0.0000001 0.9861213 0.1660265
vt 0.4311199 0.9833815
v 0.1964324 1.7414750 2.5614581
vn 0.0000000 0.9861212 0.1660270
vt 0.3891069 0.9833815
v 0.1964324 1.7262650 2.5577810
vn -0.0000005 -0.9494360 -0.3139607
vt 0.4749287 0.9831012
v -0.2438634 1.7262660 2.5577810
vn -0.0000004 -0.9494362 -0.3139603
vt 0.4329162 0.9831014
v 0.1964323 1.7414750 2.0887139
vn 0.0000000 0.9044543 -0.4265707
vt 0.3891069 0.9380307
v -0.2438633 1.7414750 2.0887139
vn 0.0000000 0.9044542 -0.4265707
vt 0.4311199 0.9380307
v 0.1964323 1.7000951 2.0546041
vn 0.0000000 0.6360751 -0.7716272
vt 0.3891069 0.9330817
v -0.2438634 1.7000951 2.0546041
vn 0.0000000 0.6360751 -0.7716272
vt 0.4311199 0.9330817
v -0.2438634 1.7000951 2.0546041
vn 0.0000000 -0.8258144 0.5639420
vt 0.4748885 0.9606453
v 0.1964323 1.7000951 2.0546041
vn 0.0000000 -0.8258144 0.5639420
vt 0.4328774 0.9606453
v 0.1964323 1.7262650 2.0929270
vn 0.0000000 -0.8258144 0.5639420
vt 0.4328769 0.9553620
v 0.1964323 1.7262650 2.0929270
vn 0.0000000 -0.8258144 0.5639420
vt 0.4328769 0.9553620
v -0.2438633 1.7262650 2.0929270
vn 0.0000000 -0.8258144 0.5639420
vt 0.4748892 0.9553627
v -0.2438634 1.7000951 2.0546041
vn 0.0000000 -0.8258144 0.5639420
vt 0.4748885 0.9606453
v -0.2438633 1.6554060 2.6778510
vn -1.0000000 0.0000000 0.0000000
vt 0.3418377 0.8761468
v -0.2438633 1.7116801 2.6474340
vn -1.0000000 -0.0000002 0.0000002
vt 0.3447403 0.8815453
v -0.2438633 1.7003030 2.6362951
vn -1.0000000 -0.0000002 0.0000003
vt 0.3458030 0.8804544
v -0.2438633 1.6481740 2.6644721
vn -1.0000000 0.0000000 0.0000000
vt 0.3431148 0.8754529
v -0.2438634 1.7414750 2.5614581
vn -1.0000000 0.0000000 -0.0000002
vt 0.3527469 0.8854729
v -0.2438633 1.7414750 2.0887139
vn -1.0000000 0.0000001 0.0000003
vt 0.3978540 0.8854729
v -0.2438633 1.7262650 2.0929270
vn -1.0000000 0.0000001 0.0000004
vt 0.3974526 0.8840138
v -0.2438634 1.7262660 2.5577810
vn -1.0000000 0.0000000 -0.0000002
vt 0.3530972 0.8840135
v -0.2438634 1.7414750 2.5614581
vn -1.0000000 -0.0000002 0.0000007
vt 0.3527469 0.8854729
v -0.2438634 1.7262660 2.5577810
vn -1.0000000 -0.0000002 0.0000007
vt 0.3530972 0.8840135
v -0.2438634 1.7000951 2.0546041
vn -1.0000000 0.0000003 0.0000010
vt 0.4011089 0.8815032
v 0.1964324 1.7003020 2.6362951
vn 1.0000000 -0.0000003 0.0000003
vt 0.3457975 0.8804531
v 0.1964324 1.7116801 2.6474340
vn 1.0000000 -0.0000003 0.0000003
vt 0.3447346 0.8815451
v 0.1964324 1.6554060 2.6778510
vn 1.0000000 -0.0000006 0.0000004
vt 0.3418322 0.8761454
v 0.1964324 1.6481740 2.6644721
vn 1.0000000 -0.0000007 0.0000004
vt 0.3431088 0.8754517
v 0.1964324 1.7414750 2.5614581
vn 1.0000000 0.0000000 -0.0000002
vt 0.3527433 0.8854727
v 0.1964324 1.7262650 2.5577810
vn 1.0000000 0.0000001 -0.0000002
vt 0.3530951 0.8840138
v 0.1964323 1.7262650 2.0929270
vn 1.0000000 -0.0000008 0.0000005
vt 0.3974547 0.8840138
v 0.1964323 1.7414750 2.0887139
vn 1.0000000 -0.0000009 0.0000004
vt 0.3978590 0.8854727
v 0.1964324 1.7414750 2.5614581
vn 1.0000000 -0.0000001 0.0000002
vt 0.3527433 0.8854727
v 0.1964324 1.7262650 2.5577810
vn 1.0000000 -0.0000000 0.0000002
vt 0.3530951 0.8840138
v 0.1964323 1.7000951 2.0546041
vn 1.0000000 -0.0000006 0.0000012
vt 0.4011137 0.8815025
v 0.1964324 1.4183429 2.5577810
vn 0.0000005 0.0000008 1.0000000
vt 0.4749281 0.9624740
v 0.1964324 1.7262650 2.5577810
vn 0.0000005 0.0000008 1.0000000
vt 0.4749287 0.9831012
v -0.2438634 1.7262660 2.5577810
vn 0.0000005 0.0000008 1.0000000
vt 0.4329162 0.9831014
v -0.2438634 1.7262660 2.5577810
vn -0.0000005 -0.0000008 1.0000000
vt 0.4329162 0.9831014
v -0.2438634 1.4183429 2.5577810
vn -0.0000005 -0.0000008 1.0000000
vt 0.4329159 0.9624748
v 0.1964324 1.4183429 2.5577810
vn -0.0000005 -0.0000008 1.0000000
vt 0.4749281 0.9624740
v -0.2438634 1.4183429 2.5577810
vn -1.0000000 0.0000001 -0.0000002
vt 0.3530970 0.8633872
v -0.2438633 1.4183429 2.0929270
vn -1.0000000 0.0000000 -0.0000002
vt 0.3974533 0.8633877
v -0.2438633 1.4183429 2.0929270
vn 0.0000000 -0.0000008 -1.0000000
vt 0.4748901 0.9347369
v -0.2438633 1.7262650 2.0929270
vn 0.0000000 -0.0000008 -1.0000000
vt 0.4748892 0.9553627
v 0.1964323 1.7262650 2.0929270
vn 0.0000000 -0.0000008 -1.0000000
vt 0.4328769 0.9553620
v 0.1964323 1.7262650 2.0929270
vn -0.0000005 0.0000000 -1.0000000
vt 0.4328769 0.9553620
v 0.1964323 1.4183420 2.0929270
vn -0.0000005 0.0000000 -1.0000000
vt 0.4328769 0.9347357
v -0.2438633 1.4183429 2.0929270
vn -0.0000005 0.0000000 -1.0000000
vt 0.4748901 0.9347369
v 0.1964323 1.4183420 2.0929270
vn 1.0000000 -0.0000001 -0.0000002
vt 0.3974533 0.8633877
v 0.1964323 1.7262650 2.0929270
vn 1.0000000 -0.0000001 -0.0000002
vt 0.3974547 0.8840138
v 0.1964324 1.7262650 2.5577810
vn 1.0000000 -0.0000002 -0.0000002
vt 0.3530951 0.8840138
v 0.1964324 1.4183429 2.5577810
vn 1.0000000 -0.0000002 -0.0000002
vt 0.3530970 0.8633872
v 0.1964323 1.4183420 2.0929270
vn 1.0000000 -0.0000002 -0.0000002
vt 0.3974533 0.8633877
v 0.0646337 1.9688680 2.3755600
vn 0.9510154 0.0094010 -0.3090005
vt 0.0015977 0.9245974
v 0.0386776 4.8713779 2.3839800
vn 0.9510142 0.0094010 -0.3090043
vt 0.2786698 0.9252371
v 0.0386776 4.8713779 2.4087231
vn 0.9510148 0.0094038 0.3090023
vt 0.2786698 0.9278334
v 0.0646337 1.9688680 2.4171700
vn 0.9510147 0.0094038 0.3090027
vt 0.0015977 0.9272278
v 0.0241340 4.8713779 2.4287410
vn 0.5877649 0.0094060 0.8089771
vt 0.2786698 0.9304298
v 0.0401757 1.9688680 2.4508331
vn 0.5877560 0.0094059 0.8089836
vt 0.0015977 0.9298584
v 0.0006018 4.8713779 2.4363871
vn -0.0000024 0.0094068 0.9999558
vt 0.2786698 0.9330252
v 0.0006018 1.9688680 2.4636910
vn -0.0000016 0.0094068 0.9999558
vt 0.0015977 0.9324898
v -0.0229304 4.8713779 2.4287410
vn -0.5877650 0.0094059 0.8089771
vt 0.2786698 0.9356201
v -0.0389721 1.9688680 2.4508331
vn -0.5877586 0.0094060 0.8089817
vt 0.0015977 0.9351217
v -0.0374741 4.8713779 2.4087231
vn -0.9510143 0.0094038 0.3090037
vt 0.2786744 0.9382135
v -0.0634301 1.9688680 2.4171700
vn -0.9510143 0.0094037 0.3090039
vt 0.0015930 0.9377552
v -0.0374741 4.8713779 2.3839800
vn -0.9510148 0.0094010 -0.3090025
vt 0.2786620 0.9408072
v -0.0634302 1.9688680 2.3755600
vn -0.9510160 0.0094010 -0.3089987
vt 0.0015575 0.9403890
v -0.0229304 4.8713779 2.3639619
vn -0.5877485 0.0093987 -0.8089891
vt 0.2786449 0.9434020
v -0.0389721 1.9688680 2.3418961
vn -0.5877609 0.0093988 -0.8089801
vt 0.0015266 0.9430219
v 0.0006018 4.8713789 2.3563170
vn 0.0000110 0.0093979 -0.9999559
vt 0.2786130 0.9459977
v 0.0006018 1.9688680 2.3290370
vn 0.0000029 0.0093980 -0.9999558
vt 0.0015105 0.9456539
v 0.0006018 1.9688680 2.3290370
vn 0.0000029 0.0093980 -0.9999558
vt 0.0015828 0.9193354
v 0.0006018 4.8713789 2.3563170
vn 0.0000110 0.0093979 -0.9999559
vt 0.2786846 0.9200451
v 0.0241339 4.8713789 2.3639619
vn 0.5877556 0.0093989 -0.8089839
vt 0.2786698 0.9226409
v 0.0401757 1.9688680 2.3418961
vn 0.5877624 0.0093988 -0.8089790
vt 0.0015977 0.9219666
v -0.0183635 4.8713779 2.4224551
vn 0.5767803 0.1926553 -0.7938567
vt 0.6815934 0.7022114
v 0.0006031 4.7070279 2.3963511
vn -0.0000060 1.0000000 0.0000068
vt 0.6714724 0.7238371
v -0.0300847 4.8713779 2.4063220
vn 0.9332426 0.1926535 -0.3032210
vt 0.6789393 0.7022114
v 0.0312882 4.8713779 2.3863809
vn 0.0000043 1.0000000 0.0000093
vt 0.3301962 0.9595503
v 0.0386776 4.8713779 2.3839800
vn 0.0000031 1.0000000 0.0000096
vt 0.3291196 0.9592005
v 0.0241339 4.8713789 2.3639619
vn 0.0000084 1.0000000 0.0000080
vt 0.3312386 0.9562839
v 0.0195670 4.8713789 2.3702481
vn 0.0000102 1.0000000 0.0000074
vt 0.3319040 0.9571998
v 0.0006018 4.8713789 2.3563170
vn -0.0000101 1.0000000 -0.0000000
vt 0.3346671 0.9551699
v 0.0006018 4.8713789 2.3640859
vn -0.0000101 1.0000000 0.0000013
vt 0.3346671 0.9563019
v -0.0229304 4.8713779 2.3639619
vn -0.0000102 1.0000000 0.0000055
vt 0.3380958 0.9562839
v -0.0183635 4.8713779 2.3702481
vn -0.0000102 1.0000000 0.0000074
vt 0.3374304 0.9571998
v -0.0374741 4.8713779 2.3839800
vn 0.0000000 1.0000000 0.0000000
vt 0.3402147 0.9592004
v -0.0300847 4.8713779 2.3863809
vn 0.0000000 1.0000000 0.0000000
vt 0.3391381 0.9595503
v -0.0374741 4.8713779 2.4087231
vn 0.0000031 1.0000000 0.0000096
vt 0.3402147 0.9628054
v -0.0300847 4.8713779 2.4063220
vn 0.0000043 1.0000000 0.0000093
vt 0.3391381 0.9624556
v -0.0229304 4.8713779 2.4287410
vn 0.0000084 1.0000000 0.0000080
vt 0.3380958 0.9657220
v -0.0183635 4.8713779 2.4224551
vn 0.0000102 1.0000000 0.0000074
vt 0.3374304 0.9648062
v 0.0006018 4.8713779 2.4363871
vn -0.0000101 1.0000000 0.0000000
vt 0.3346671 0.9668361
v 0.0006018 4.8713779 2.4286170
vn -0.0000101 1.0000000 0.0000013
vt 0.3346671 0.9657041
v 0.0241340 4.8713779 2.4287410
vn -0.0000102 1.0000000 0.0000055
vt 0.3312386 0.9657221
v 0.0195671 4.8713779 2.4224551
vn -0.0000102 1.0000000 0.0000074
vt 0.3319040 0.9648063
v 0.0386776 4.8713779 2.4087231
vn 0.0000000 1.0000000 0.0000000
vt 0.3291196 0.9628056
v 0.0312882 4.8713779 2.4063220
vn 0.0000000 1.0000000 0.0000000
vt 0.3301962 0.9624557
v 0.0312882 4.8713779 2.3863809
vn -0.9332434 0.1926350 0.3032302
vt 0.6665533 0.7022114
v 0.0195670 4.8713789 2.3702481
vn -0.5767750 0.1926343 0.7938656
vt 0.6690304 0.7022114
v 0.0006018 4.8713789 2.3640859
vn -0.0000092 0.1926375 0.9812701
vt 0.6714726 0.7022114
v -0.0183635 4.8713779 2.3702481
vn 0.5767682 0.1926448 0.7938680
vt 0.6739148 0.7022114
v -0.0300847 4.8713779 2.3863809
vn 0.9332413 0.1926500 0.3032271
vt 0.6763920 0.7022114
v 0.0006018 4.8713779 2.4286170
vn -0.0000085 0.1926523 -0.9812671
vt 0.6843919 0.7022114
v 0.0195671 4.8713779 2.4224551
vn -0.5767818 0.1926451 -0.7938581
vt 0.6613520 0.7022114
v 0.0006018 4.8713779 2.4286170
vn -0.0000085 0.1926523 -0.9812671
vt 0.6585535 0.7022114
v 0.0312882 4.8713779 2.4063220
vn -0.9332428 0.1926394 -0.3032293
vt 0.6640059 0.7022114
v 0.0006031 4.7070279 2.3963511
vn -0.0000060 1.0000000 0.0000068
vt 0.6714724 0.7238371
v 0.0006031 4.7070279 2.3963511
vn -0.0000060 1.0000000 0.0000068
vt 0.6714724 0.7238371
v 0.0006031 4.7070279 2.3963511
vn -0.0000060 1.0000000 0.0000068
vt 0.6714724 0.7238371
v 0.0006031 4.7070279 2.3963511
vn -0.0000060 1.0000000 0.0000068
vt 0.6714724 0.7238371
v 0.0006031 4.7070279 2.3963511
vn -0.0000060 1.0000000 0.0000068
vt 0.6714724 0.7238371

g group_67306808_140627910036400
f 1/1/1 2/2/2 3/3/3 
f 3/3/3 4/4/4 1/1/1 
f 5/5/5 6/6/6 7/7/7 
f 8/8/8 9/9/9 10/10/10 
f 11/11/11 12/12/12 13/13/13 
f 14/14/14 15/15/15 16/16/16 
f 17/17/17 18/18/18 19/19/19 
f 19/19/19 20/20/20 17/17/17 
f 21/21/21 22/22/22 23/23/23 
f 23/23/23 24/24/24 21/21/21 
f 25/25/25 26/26/26 27/27/27 
f 27/27/27 28/28/28 25/25/25 
f 29/29/29 30/30/30 31/31/31 
f 31/31/31 32/32/32 29/29/29 
f 23/23/23 26/26/26 25/25/25 
f 25/25/25 24/24/24 23/23/23 
f 33/33/33 28/28/28 27/27/27 
f 27/27/27 34/34/34 33/33/33 
f 31/31/31 35/35/35 32/32/32 
f 36/36/36 37/37/37 38/38/38 
f 38/38/38 39/39/39 36/36/36 
f 40/40/40 41/41/41 42/42/42 
f 42/42/42 43/43/43 40/40/40 
f 44/44/44 45/45/45 46/46/46 
f 46/46/46 47/47/47 44/44/44 
f 48/48/48 39/39/39 38/38/38 
f 38/38/38 49/49/49 48/48/48 
f 50/50/50 45/45/45 44/44/44 
f 44/44/44 51/51/51 50/50/50 
f 48/48/48 49/49/49 52/52/52 
f 52/52/52 53/53/53 48/48/48 
f 53/53/53 52/52/52 54/54/54 
f 54/54/54 55/55/55 53/53/53 
f 56/56/56 57/57/57 58/58/58 
f 59/59/59 60/60/60 61/61/61 
f 62/62/62 63/63/63 64/64/64 
f 64/64/64 65/65/65 62/62/62 
f 66/66/66 67/67/67 68/68/68 
f 68/68/68 69/69/69 66/66/66 
f 64/64/64 63/63/63 70/70/70 
f 70/70/70 71/71/71 64/64/64 
f 68/68/68 67/67/67 72/72/72 
f 73/73/73 74/74/74 75/75/75 
f 75/75/75 76/76/76 73/73/73 
f 77/77/77 78/78/78 79/79/79 
f 79/79/79 80/80/80 77/77/77 
f 81/81/81 74/74/74 73/73/73 
f 73/73/73 82/82/82 81/81/81 
f 83/83/83 80/80/80 79/79/79 
f 84/84/84 85/85/85 86/86/86 
f 87/87/87 88/88/88 89/89/89 
f 90/90/90 69/69/69 68/68/68 
f 68/68/68 91/91/91 90/90/90 
f 92/92/92 93/93/93 94/94/94 
f 95/95/95 96/96/96 97/97/97 
f 98/98/98 99/99/99 78/78/78 
f 100/100/100 101/101/101 102/102/102 
f 103/103/103 104/104/104 105/105/105 
f 105/105/105 106/106/106 103/103/103 
f 106/106/106 105/105/105 107/107/107 
f 107/107/107 108/108/108 106/106/106 
f 108/108/108 107/107/107 109/109/109 
f 109/109/109 110/110/110 108/108/108 
f 110/110/110 109/109/109 111/111/111 
f 111/111/111 112/112/112 110/110/110 
f 112/112/112 111/111/111 113/113/113 
f 113/113/113 114/114/114 112/112/112 
f 114/114/114 113/113/113 115/115/115 
f 115/115/115 116/116/116 114/114/114 
f 116/116/116 115/115/115 117/117/117 
f 117/117/117 118/118/118 116/116/116 
f 118/118/118 117/117/117 119/119/119 
f 119/119/119 120/120/120 118/118/118 
f 121/121/121 122/122/122 123/123/123 
f 123/123/123 124/124/124 121/121/121 
f 124/124/124 123/123/123 104/104/104 
f 104/104/104 103/103/103 124/124/124 
f 125/125/125 126/126/126 127/127/127 
f 128/128/128 129/129/129 130/130/130 
f 130/130/130 131/131/131 128/128/128 
f 131/131/131 130/130/130 132/132/132 
f 132/132/132 133/133/133 131/131/131 
f 133/133/133 132/132/132 134/134/134 
f 134/134/134 135/135/135 133/133/133 
f 135/135/135 134/134/134 136/136/136 
f 136/136/136 137/137/137 135/135/135 
f 137/137/137 136/136/136 138/138/138 
f 138/138/138 139/139/139 137/137/137 
f 139/139/139 138/138/138 140/140/140 
f 140/140/140 141/141/141 139/139/139 
f 141/141/141 140/140/140 142/142/142 
f 142/142/142 143/143/143 141/141/141 
f 143/143/143 142/142/142 144/144/144 
f 144/144/144 145/145/145 143/143/143 
f 145/145/145 144/144/144 146/146/146 
f 146/146/146 147/147/147 145/145/145 
f 147/147/147 146/146/146 129/129/129 
f 129/129/129 128/128/128 147/147/147 
f 148/148/148 149/149/149 157/157/157 
f 157/157/157 149/149/149 150/150/150 
f 157/157/157 150/150/150 151/151/151 
f 158/158/158 151/151/151 152/152/152 
f 158/158/158 152/152/152 127/127/127 
f 153/153/153 126/126/126 125/125/125 
f 154/154/154 159/159/159 155/155/155 
f 156/156/156 160/160/160 154/154/154 
f 148/148/148 161/161/161 156/156/156 
