v -0.2175838 2.1079330 2.1481071
vn -1.0000000 0.0000000 0.0000000
vt 0.3466463 0.9157095
v -0.2175838 1.6757760 2.1481071
vn -1.0000000 0.0000000 0.0000000
vt 0.3878825 0.9157239
v -0.2175838 1.6957550 2.2762079
vn -1.0000000 0.0000000 0.0000000
vt 0.3859718 0.9280115
v -0.2175838 2.1079440 2.2762151
vn -1.0000000 0.0000000 0.0000000
vt 0.3466413 0.9279985
v 0.1750578 1.6957550 2.2762079
vn 1.0000000 -0.0000000 0.0000002
vt 0.3859712 0.9864098
v 0.1750579 1.6757760 2.1481071
vn 1.0000000 -0.0000000 0.0000002
vt 0.3878818 0.9986991
v 0.1750579 2.1079330 2.1481071
vn 1.0000000 -0.0000000 0.0000002
vt 0.3466456 0.9987124
v 0.1750579 2.1079330 2.1481071
vn 1.0000000 -0.0000000 0.0000002
vt 0.3466456 0.9987124
v 0.1750578 2.1079440 2.2762151
vn 1.0000000 -0.0000000 0.0000002
vt 0.3466399 0.9864227
v 0.1750578 1.6957550 2.2762079
vn 1.0000000 -0.0000000 0.0000002
vt 0.3859712 0.9864098
v 0.1750579 1.6757760 2.1481071
vn 0.0000000 0.0000006 -1.0000000
vt 0.4397088 0.8870692
v -0.2175838 1.6757760 2.1481071
vn 0.0000000 0.0000006 -1.0000000
vt 0.4397218 0.9305861
v -0.2175838 2.1079330 2.1481071
vn 0.0000000 0.0000006 -1.0000000
vt 0.3920819 0.9306006
v -0.2175838 2.1079330 2.1481071
vn 0.0000000 0.0000006 -1.0000000
vt 0.3920819 0.9306006
v 0.1750579 2.1079330 2.1481071
vn 0.0000000 0.0000006 -1.0000000
vt 0.3920691 0.8870845
v 0.1750579 1.6757760 2.1481071
vn 0.0000000 0.0000006 -1.0000000
vt 0.4397088 0.8870692
v 0.1750579 2.1079330 2.1481071
vn 0.0000000 1.0000000 -0.0000837
vt 0.4419408 0.9304556
v -0.2175838 2.1079330 2.1481071
vn 0.0000000 1.0000000 -0.0000837
vt 0.4419408 0.8886561
v -0.2175838 2.1079440 2.2762151
vn 0.0000000 1.0000000 -0.0000837
vt 0.4555061 0.8886561
v 0.1750578 2.1079440 2.2762151
vn 0.0000000 1.0000000 -0.0000837
vt 0.4555061 0.9304556
v -0.2175838 2.1079440 2.2762151
vn -0.7919129 0.0000782 0.6106342
vt 0.3466413 0.9279985
v -0.2175838 1.6957550 2.2762079
vn -0.7920043 -0.0000099 0.6105155
vt 0.3859718 0.9280115
v -0.0711165 1.6995320 2.4662161
vn -0.6114393 -0.0004192 0.7912912
vt 0.3856034 0.9510684
v -0.0711164 1.9959360 2.4661410
vn -0.6530361 0.0001932 0.7573267
vt 0.3573202 0.9510522
v -0.0018751 1.9775670 2.4957359
vn 0.0040822 0.0000479 0.9999917
vt 0.3590702 0.9582767
v -0.0018751 1.6992480 2.4954100
vn 0.0035791 -0.0011727 0.9999929
vt 0.3856275 0.9582767
v 0.0660020 1.6995320 2.4662161
vn 0.6666536 -0.0004339 0.7453676
vt 0.3856034 0.9653653
v 0.0660021 1.9959360 2.4661410
vn 0.7176351 0.0001769 0.6964193
vt 0.3573202 0.9653813
v 0.1750578 2.1079440 2.2762151
vn -0.0000003 0.8613665 0.5079840
vt 0.4555061 0.9304556
v -0.2175838 2.1079440 2.2762151
vn 0.0000000 0.8613663 0.5079843
vt 0.4555061 0.8886561
v -0.0711164 1.9959360 2.4661410
vn -0.0000004 0.8593155 0.5114458
vt 0.4756164 0.9042484
v 0.0660021 1.9959360 2.4661410
vn -0.0000009 0.8591808 0.5116721
vt 0.4756164 0.9188454
v 0.1750578 2.1079440 2.2762151
vn 0.8672292 0.0000661 0.4979091
vt 0.3466399 0.9864227
v 0.1750578 1.6957550 2.2762079
vn 0.8672980 -0.0000081 0.4977893
vt 0.3859712 0.9864098
v -0.0018751 1.9775670 2.4957359
vn -0.0000009 0.8496425 0.5273591
vt 0.4787501 0.9116200
v -0.2438633 1.6554060 2.6778510
vn 0.0000001 0.4755127 0.8797089
vt 0.4311199 0.9984750
v 0.1964324 1.6554060 2.6778510
vn 0.0000001 0.4755127 0.8797089
vt 0.3891069 0.9984750
v 0.1964324 1.7116801 2.6474340
vn 0.0000001 0.7619846 0.6475952
vt 0.3891069 0.9923384
v -0.2438633 1.7116801 2.6474340
vn 0.0000002 0.7619851 0.6475946
vt 0.4311199 0.9923384
v -0.2438633 1.6481740 2.6644721
vn -0.0000002 -0.8797099 0.4755109
vt 0.4329160 0.9969382
v 0.1964324 1.6481740 2.6644721
vn -0.0000002 -0.8797099 0.4755108
vt 0.4749289 0.9969382
v 0.1964324 1.6554060 2.6778510
vn -0.0000002 -0.8797100 0.4755108
vt 0.4749289 0.9983974
v -0.2438633 1.6554060 2.6778510
vn -0.0000002 -0.8797099 0.4755108
vt 0.4329160 0.9983974
v -0.2438633 1.7003030 2.6362951
vn -0.0000003 -0.7665765 -0.6421530
vt 0.4329160 0.9912532
v 0.1964324 1.7003020 2.6362951
vn -0.0000004 -0.7665766 -0.6421529
vt 0.4749289 0.9912532
v 0.1964324 1.6481740 2.6644721
vn -0.0000002 -0.4755166 -0.8797067
vt 0.4749289 0.9969382
v -0.2438633 1.6481740 2.6644721
vn -0.0000001 -0.4755158 -0.8797072
vt 0.4329160 0.9969382
v -0.2438634 1.7414750 2.5614581
vn 0.0000001 0.9861213 0.1660265
vt 0.4311199 0.9833815
v 0.1964324 1.7414750 2.5614581
vn 0.0000000 0.9861212 0.1660270
vt 0.3891069 0.9833815
v 0.1964324 1.7262650 2.5577810
vn -0.0000005 -0.9494360 -0.3139607
vt 0.4749287 0.9831012
v -0.2438634 1.7262660 2.5577810
vn -0.0000004 -0.9494362 -0.3139603
vt 0.4329162 0.9831014
v 0.1964323 1.7414750 2.0887139
vn 0.0000000 0.9044543 -0.4265707
vt 0.3891069 0.9380307
v -0.2438633 1.7414750 2.0887139
vn 0.0000000 0.9044542 -0.4265707
vt 0.4311199 0.9380307
v 0.1964323 1.7000951 2.0546041
vn 0.0000000 0.6360751 -0.7716272
vt 0.3891069 0.9330817
v -0.2438634 1.7000951 2.0546041
vn 0.0000000 0.6360751 -0.7716272
vt 0.4311199 0.9330817
v -0.2438634 1.7000951 2.0546041
vn 0.0000000 -0.8258144 0.5639420
vt 0.4748885 0.9606453
v 0.1964323 1.7000951 2.0546041
vn 0.0000000 -0.8258144 0.5639420
vt 0.4328774 0.9606453
v 0.1964323 1.7262650 2.0929270
vn 0.0000000 -0.8258144 0.5639420
vt 0.4328769 0.9553620
v 0.1964323 1.7262650 2.0929270
vn 0.0000000 -0.8258144 0.5639420
vt 0.4328769 0.9553620
v -0.2438633 1.7262650 2.0929270
vn 0.0000000 -0.8258144 0.5639420
vt 0.4748892 0.9553627
v -0.2438634 1.7000951 2.0546041
vn 0.0000000 -0.8258144 0.5639420
vt 0.4748885 0.9606453
v -0.2438633 1.6554060 2.6778510
vn -1.0000000 0.0000000 0.0000000
vt 0.3418377 0.8761468
v -0.2438633 1.7116801 2.6474340
vn -1.0000000 -0.0000002 0.0000002
vt 0.3447403 0.8815453
v -0.2438633 1.7003030 2.6362951
vn -1.0000000 -0.0000002 0.0000003
vt 0.3458030 0.8804544
v -0.2438633 1.6481740 2.6644721
vn -1.0000000 0.0000000 0.0000000
vt 0.3431148 0.8754529
v -0.2438634 1.7414750 2.5614581
vn -1.0000000 0.0000000 -0.0000002
vt 0.3527469 0.8854729
v -0.2438633 1.7414750 2.0887139
vn -1.0000000 0.0000001 0.0000003
vt 0.3978540 0.8854729
v -0.2438633 1.7262650 2.0929270
vn -1.0000000 0.0000001 0.0000004
vt 0.3974526 0.8840138
v -0.2438634 1.7262660 2.5577810
vn -1.0000000 0.0000000 -0.0000002
vt 0.3530972 0.8840135
v -0.2438634 1.7414750 2.5614581
vn -1.0000000 -0.0000002 0.0000007
vt 0.3527469 0.8854729
v -0.2438634 1.7262660 2.5577810
vn -1.0000000 -0.0000002 0.0000007
vt 0.3530972 0.8840135
v -0.2438634 1.7000951 2.0546041
vn -1.0000000 0.0000003 0.0000010
vt 0.4011089 0.8815032
v 0.1964324 1.7003020 2.6362951
vn 1.0000000 -0.0000003 0.0000003
vt 0.3457975 0.8804531
v 0.1964324 1.7116801 2.6474340
vn 1.0000000 -0.0000003 0.0000003
vt 0.3447346 0.8815451
v 0.1964324 1.6554060 2.6778510
vn 1.0000000 -0.0000006 0.0000004
vt 0.3418322 0.8761454
v 0.1964324 1.6481740 2.6644721
vn 1.0000000 -0.0000007 0.0000004
vt 0.3431088 0.8754517
v 0.1964324 1.7414750 2.5614581
vn 1.0000000 0.0000000 -0.0000002
vt 0.3527433 0.8854727
v 0.1964324 1.7262650 2.5577810
vn 1.0000000 0.0000001 -0.0000002
vt 0.3530951 0.8840138
v 0.1964323 1.7262650 2.0929270
vn 1.0000000 -0.0000008 0.0000005
vt 0.3974547 0.8840138
v 0.1964323 1.7414750 2.0887139
vn 1.0000000 -0.0000009 0.0000004
vt 0.3978590 0.8854727
v 0.1964324 1.7414750 2.5614581
vn 1.0000000 -0.0000001 0.0000002
vt 0.3527433 0.8854727
v 0.1964324 1.7262650 2.5577810
vn 1.0000000 -0.0000000 0.0000002
vt 0.3530951 0.8840138
v 0.1964323 1.7000951 2.0546041
vn 1.0000000 -0.0000006 0.0000012
vt 0.4011137 0.8815025
v 0.1964324 1.4183429 2.5577810
vn 0.0000005 0.0000008 1.0000000
vt 0.4749281 0.9624740
v 0.1964324 1.7262650 2.5577810
vn 0.0000005 0.0000008 1.0000000
vt 0.4749287 0.9831012
v -0.2438634 1.7262660 2.5577810
vn 0.0000005 0.0000008 1.0000000
vt 0.4329162 0.9831014
v -0.2438634 1.7262660 2.5577810
vn -0.0000005 -0.0000008 1.0000000
vt 0.4329162 0.9831014
v -0.2438634 1.4183429 2.5577810
vn -0.0000005 -0.0000008 1.0000000
vt 0.4329159 0.9624748
v 0.1964324 1.4183429 2.5577810
vn -0.0000005 -0.0000008 1.0000000
vt 0.4749281 0.9624740
v -0.2438634 1.4183429 2.5577810
vn -1.0000000 0.0000001 -0.0000002
vt 0.3530970 0.8633872
v -0.2438633 1.4183429 2.0929270
vn -1.0000000 0.0000000 -0.0000002
vt 0.3974533 0.8633877
v -0.2438633 1.4183429 2.0929270
vn 0.0000000 -0.0000008 -1.0000000
vt 0.4748901 0.9347369
v -0.2438633 1.7262650 2.0929270
vn 0.0000000 -0.0000008 -1.0000000
vt 0.4748892 0.9553627
v 0.1964323 1.7262650 2.0929270
vn 0.0000000 -0.0000008 -1.0000000
vt 0.4328769 0.9553620
v 0.1964323 1.7262650 2.0929270
vn -0.0000005 0.0000000 -1.0000000
vt 0.4328769 0.9553620
v 0.1964323 1.4183420 2.0929270
vn -0.0000005 0.0000000 -1.0000000
vt 0.4328769 0.9347357
v -0.2438633 1.4183429 2.0929270
vn -0.0000005 0.0000000 -1.0000000
vt 0.4748901 0.9347369
v 0.1964323 1.4183420 2.0929270
vn 1.0000000 -0.0000001 -0.0000002
vt 0.3974533 0.8633877
v 0.1964323 1.7262650 2.0929270
vn 1.0000000 -0.0000001 -0.0000002
vt 0.3974547 0.8840138
v 0.1964324 1.7262650 2.5577810
vn 1.0000000 -0.0000002 -0.0000002
vt 0.3530951 0.8840138
v 0.1964324 1.4183429 2.5577810
vn 1.0000000 -0.0000002 -0.0000002
vt 0.3530970 0.8633872
v 0.1964323 1.4183420 2.0929270
vn 1.0000000 -0.0000002 -0.0000002
vt 0.3974533 0.8633877
v 0.0377725 3.8434961 2.3843420
vn 0.9509814 0.0127415 -0.3089855
vt 0.0016284 0.9676106
v 0.0377725 3.8434961 2.4089041
vn 0.9509796 0.0127324 0.3089916
vt 0.0016283 0.9652861
v 0.0604748 1.9693710 2.4162600
vn 0.9509805 0.0127325 0.3089885
vt 0.1805320 0.9652086
v 0.0604748 1.9693710 2.3769319
vn 0.9509774 0.0127414 -0.3089978
vt 0.1805321 0.9675897
v 0.0233354 3.8434961 2.4287751
vn 0.5877436 0.0127289 0.8089472
vt 0.0016283 0.9629612
v 0.0373587 1.9693710 2.4480760
vn 0.5877367 0.0127290 0.8089522
vt 0.1805320 0.9628277
v -0.0000244 3.8434961 2.4363661
vn 0.0000009 0.0127322 0.9999190
vt 0.0016283 0.9606367
v -0.0000440 1.9693710 2.4602289
vn -0.0000067 0.0127322 0.9999189
vt 0.1805320 0.9604465
v -0.0233842 3.8434961 2.4287751
vn -0.5877411 0.0127411 0.8089488
vt 0.0016284 0.9583130
v -0.0374466 1.9693710 2.4480760
vn -0.5877436 0.0127411 0.8089470
vt 0.1805320 0.9580643
v -0.0378213 3.8434961 2.4089041
vn -0.9509788 0.0127522 0.3089932
vt 0.0016399 0.9559907
v -0.0605627 1.9693710 2.4162591
vn -0.9509802 0.0127522 0.3089887
vt 0.1805204 0.9556809
v -0.0378214 3.8434961 2.3843420
vn -0.9509805 0.0127612 -0.3089873
vt 0.0016234 0.9536566
v -0.0605627 1.9693710 2.3769319
vn -0.9509779 0.0127613 -0.3089956
vt 0.1804639 0.9532877
v -0.0233842 3.8434961 2.3644710
vn -0.5877318 0.0127649 -0.8089551
vt 0.0015952 0.9513211
v -0.0374467 1.9693710 2.3451159
vn -0.5877386 0.0127647 -0.8089502
vt 0.1804189 0.9508940
v -0.0000244 3.8434961 2.3568809
vn 0.0000029 0.0127614 -0.9999186
vt 0.0015671 0.9489865
v -0.0000440 1.9693710 2.3329630
vn -0.0000025 0.0127615 -0.9999186
vt 0.1803740 0.9485003
v -0.0000244 3.8434961 2.3568809
vn 0.0000029 0.0127614 -0.9999186
vt 0.0016283 0.9722562
v 0.0233354 3.8434961 2.3644710
vn 0.5877351 0.0127525 -0.8089529
vt 0.0016283 0.9699341
v 0.0373587 1.9693710 2.3451159
vn 0.5877348 0.0127525 -0.8089532
vt 0.1805320 0.9699717
v -0.0000440 1.9693710 2.3329630
vn -0.0000025 0.0127615 -0.9999186
vt 0.1805320 0.9723554
v -0.0182969 3.8434961 2.4217730
vn 0.5780774 0.1810010 -0.7956539
vt 0.6816181 0.7022114
v -0.0000241 3.6745801 2.3966229
vn 0.0000003 1.0000000 -0.0000057
vt 0.6714724 0.7238371
v -0.0295900 3.8434961 2.4062290
vn 0.9353496 0.1810007 -0.3039076
vt 0.6789721 0.7022114
v 0.0295411 3.8434961 2.3870170
vn 0.0000000 1.0000000 0.0000000
vt 0.3309881 0.9583743
v 0.0377725 3.8434961 2.3843420
vn 0.0000000 1.0000000 0.0000000
vt 0.3299671 0.9576324
v 0.0233354 3.8434961 2.3644710
vn 0.0000000 1.0000000 0.0000000
vt 0.3328647 0.9555272
v 0.0182481 3.8434961 2.3714740
vn 0.0000000 1.0000000 0.0000000
vt 0.3332548 0.9567276
v -0.0000244 3.8434961 2.3568809
vn 0.0000000 1.0000000 0.0000000
vt 0.3364465 0.9555272
v -0.0000244 3.8434961 2.3655360
vn 0.0000000 1.0000000 0.0000000
vt 0.3360565 0.9567276
v -0.0233842 3.8434961 2.3644710
vn 0.0000000 1.0000000 0.0000000
vt 0.3393442 0.9576325
v -0.0182969 3.8434961 2.3714740
vn 0.0000000 1.0000000 0.0000000
vt 0.3383231 0.9583744
v -0.0378214 3.8434961 2.3843420
vn 0.0000000 1.0000000 0.0000000
vt 0.3404510 0.9610389
v -0.0295900 3.8434961 2.3870170
vn 0.0000000 1.0000000 0.0000000
vt 0.3391889 0.9610389
v -0.0378213 3.8434961 2.4089041
vn 0.0000000 1.0000000 0.0000000
vt 0.3393441 0.9644454
v -0.0295900 3.8434961 2.4062290
vn 0.0000000 1.0000000 0.0000000
vt 0.3383231 0.9637035
v -0.0233842 3.8434961 2.4287751
vn 0.0000000 1.0000000 0.0000000
vt 0.3364464 0.9665507
v -0.0182969 3.8434961 2.4217730
vn 0.0000000 1.0000000 0.0000000
vt 0.3360564 0.9653503
v -0.0000244 3.8434961 2.4363661
vn 0.0000000 1.0000000 0.0000000
vt 0.3328646 0.9665506
v -0.0000244 3.8434961 2.4277101
vn 0.0000000 1.0000000 0.0000000
vt 0.3332547 0.9653503
v 0.0233354 3.8434961 2.4287751
vn 0.0000000 1.0000000 0.0000000
vt 0.3299670 0.9644453
v 0.0182481 3.8434961 2.4217730
vn 0.0000000 1.0000000 0.0000000
vt 0.3309881 0.9637035
v 0.0377725 3.8434961 2.4089041
vn 0.0000000 1.0000000 0.0000000
vt 0.3288602 0.9610388
v 0.0295411 3.8434961 2.4062290
vn 0.0000000 1.0000000 0.0000000
vt 0.3301223 0.9610388
v 0.0295411 3.8434961 2.3870170
vn -0.9353472 0.1809976 0.3039170
vt 0.6665251 0.7022114
v 0.0182481 3.8434961 2.3714740
vn -0.5780782 0.1809975 0.7956542
vt 0.6690145 0.7022114
v -0.0000244 3.8434961 2.3655360
vn 0.0000001 0.1809999 0.9834831
vt 0.6714728 0.7022114
v -0.0182969 3.8434961 2.3714740
vn 0.5780779 0.1810000 0.7956539
vt 0.6739312 0.7022114
v -0.0295900 3.8434961 2.3870170
vn 0.9353465 0.1810017 0.3039166
vt 0.6764205 0.7022114
v -0.0000244 3.8434961 2.4277101
vn 0.0000008 0.1809986 -0.9834834
vt 0.6843919 0.7022114
v 0.0182481 3.8434961 2.4217730
vn -0.5780774 0.1809987 -0.7956545
vt 0.6613274 0.7022114
v -0.0000244 3.8434961 2.4277101
vn 0.0000008 0.1809986 -0.9834834
vt 0.6585535 0.7022114
v 0.0295411 3.8434961 2.4062290
vn -0.9353506 0.1809967 -0.3039071
vt 0.6639735 0.7022114
v -0.0000241 3.6745801 2.3966229
vn 0.0000003 1.0000000 -0.0000057
vt 0.6714724 0.7238371
v -0.0000241 3.6745801 2.3966229
vn 0.0000003 1.0000000 -0.0000057
vt 0.6714724 0.7238371
v -0.0000241 3.6745801 2.3966229
vn 0.0000003 1.0000000 -0.0000057
vt 0.6714724 0.7238371
v -0.0000241 3.6745801 2.3966229
vn 0.0000003 1.0000000 -0.0000057
vt 0.6714724 0.7238371
v -0.0000241 3.6745801 2.3966229
vn 0.0000003 1.0000000 -0.0000057
vt 0.6714724 0.7238371

g group_67304520_140627913420896
f 1/1/1 2/2/2 3/3/3 
f 3/3/3 4/4/4 1/1/1 
f 5/5/5 6/6/6 7/7/7 
f 8/8/8 9/9/9 10/10/10 
f 11/11/11 12/12/12 13/13/13 
f 14/14/14 15/15/15 16/16/16 
f 17/17/17 18/18/18 19/19/19 
f 19/19/19 20/20/20 17/17/17 
f 21/21/21 22/22/22 23/23/23 
f 23/23/23 24/24/24 21/21/21 
f 25/25/25 26/26/26 27/27/27 
f 27/27/27 28/28/28 25/25/25 
f 29/29/29 30/30/30 31/31/31 
f 31/31/31 32/32/32 29/29/29 
f 23/23/23 26/26/26 25/25/25 
f 25/25/25 24/24/24 23/23/23 
f 33/33/33 28/28/28 27/27/27 
f 27/27/27 34/34/34 33/33/33 
f 31/31/31 35/35/35 32/32/32 
f 36/36/36 37/37/37 38/38/38 
f 38/38/38 39/39/39 36/36/36 
f 40/40/40 41/41/41 42/42/42 
f 42/42/42 43/43/43 40/40/40 
f 44/44/44 45/45/45 46/46/46 
f 46/46/46 47/47/47 44/44/44 
f 48/48/48 39/39/39 38/38/38 
f 38/38/38 49/49/49 48/48/48 
f 50/50/50 45/45/45 44/44/44 
f 44/44/44 51/51/51 50/50/50 
f 48/48/48 49/49/49 52/52/52 
f 52/52/52 53/53/53 48/48/48 
f 53/53/53 52/52/52 54/54/54 
f 54/54/54 55/55/55 53/53/53 
f 56/56/56 57/57/57 58/58/58 
f 59/59/59 60/60/60 61/61/61 
f 62/62/62 63/63/63 64/64/64 
f 64/64/64 65/65/65 62/62/62 
f 66/66/66 67/67/67 68/68/68 
f 68/68/68 69/69/69 66/66/66 
f 64/64/64 63/63/63 70/70/70 
f 70/70/70 71/71/71 64/64/64 
f 68/68/68 67/67/67 72/72/72 
f 73/73/73 74/74/74 75/75/75 
f 75/75/75 76/76/76 73/73/73 
f 77/77/77 78/78/78 79/79/79 
f 79/79/79 80/80/80 77/77/77 
f 81/81/81 74/74/74 73/73/73 
f 73/73/73 82/82/82 81/81/81 
f 83/83/83 80/80/80 79/79/79 
f 84/84/84 85/85/85 86/86/86 
f 87/87/87 88/88/88 89/89/89 
f 90/90/90 69/69/69 68/68/68 
f 68/68/68 91/91/91 90/90/90 
f 92/92/92 93/93/93 94/94/94 
f 95/95/95 96/96/96 97/97/97 
f 98/98/98 99/99/99 78/78/78 
f 100/100/100 101/101/101 102/102/102 
f 103/103/103 104/104/104 105/105/105 
f 105/105/105 106/106/106 103/103/103 
f 104/104/104 107/107/107 108/108/108 
f 108/108/108 105/105/105 104/104/104 
f 107/107/107 109/109/109 110/110/110 
f 110/110/110 108/108/108 107/107/107 
f 109/109/109 111/111/111 112/112/112 
f 112/112/112 110/110/110 109/109/109 
f 111/111/111 113/113/113 114/114/114 
f 114/114/114 112/112/112 111/111/111 
f 113/113/113 115/115/115 116/116/116 
f 116/116/116 114/114/114 113/113/113 
f 115/115/115 117/117/117 118/118/118 
f 118/118/118 116/116/116 115/115/115 
f 117/117/117 119/119/119 120/120/120 
f 120/120/120 118/118/118 117/117/117 
f 121/121/121 122/122/122 123/123/123 
f 123/123/123 124/124/124 121/121/121 
f 122/122/122 103/103/103 106/106/106 
f 106/106/106 123/123/123 122/122/122 
f 125/125/125 126/126/126 127/127/127 
f 128/128/128 129/129/129 130/130/130 
f 130/130/130 131/131/131 128/128/128 
f 131/131/131 130/130/130 132/132/132 
f 132/132/132 133/133/133 131/131/131 
f 133/133/133 132/132/132 134/134/134 
f 134/134/134 135/135/135 133/133/133 
f 135/135/135 134/134/134 136/136/136 
f 136/136/136 137/137/137 135/135/135 
f 137/137/137 136/136/136 138/138/138 
f 138/138/138 139/139/139 137/137/137 
f 139/139/139 138/138/138 140/140/140 
f 140/140/140 141/141/141 139/139/139 
f 141/141/141 140/140/140 142/142/142 
f 142/142/142 143/143/143 141/141/141 
f 143/143/143 142/142/142 144/144/144 
f 144/144/144 145/145/145 143/143/143 
f 145/145/145 144/144/144 146/146/146 
f 146/146/146 147/147/147 145/145/145 
f 147/147/147 146/146/146 129/129/129 
f 129/129/129 128/128/128 147/147/147 
f 148/148/148 149/149/149 157/157/157 
f 157/157/157 149/149/149 150/150/150 
f 157/157/157 150/150/150 151/151/151 
f 158/158/158 151/151/151 152/152/152 
f 158/158/158 152/152/152 127/127/127 
f 153/153/153 126/126/126 125/125/125 
f 154/154/154 159/159/159 155/155/155 
f 156/156/156 160/160/160 154/154/154 
f 148/148/148 161/161/161 156/156/156 
