v 0.9400930 0.1926528 0.4064179
vn 0.3176739 -0.9424092 -0.1046338
vt 0.7526925 0.9820955
v 1.0367060 0.2156787 0.4923518
vn 0.2566287 -0.9335770 0.2501513
vt 0.7646646 0.9968243
v 0.9400930 0.2387065 0.5782858
vn 0.3176734 -0.7638334 0.5618203
vt 0.7765546 0.9820955
v 0.9400930 0.2387065 0.5782858
vn 0.3176734 -0.7638334 0.5618203
vt 0.7765546 0.9820955
v 1.0367060 0.2156787 0.4923518
vn 0.2566287 -0.9335770 0.2501513
vt 0.7646646 0.9968243
v 1.0367060 0.4504546 0.7271276
vn 0.2566284 -0.2501512 0.9335771
vt 0.8142261 0.9968243
v 0.9400930 0.3645207 0.7041016
vn 0.3176727 -0.5618200 0.7638340
vt 0.8020712 0.9820955
v 0.9400930 0.3645207 0.7041016
vn 0.3176727 -0.5618200 0.7638340
vt 0.7526925 0.9820955
v 1.0367060 0.4504546 0.7271276
vn 0.2566284 -0.2501512 0.9335771
vt 0.7646646 0.9968243
v 0.9400930 0.5363885 0.7501535
vn 0.3176732 0.1046338 0.9424094
vt 0.7765546 0.9820955
v 0.9400930 0.5363885 0.7501535
vn 0.3176732 0.1046338 0.9424094
vt 0.7765546 0.9820955
v 1.0367060 0.4504546 0.7271276
vn 0.2566284 -0.2501512 0.9335771
vt 0.7646646 0.9968243
v 1.0367060 0.7711605 0.6411898
vn 0.2566278 0.6834263 0.6834257
vt 0.8144255 0.9968243
v 0.9400930 0.7082600 0.7041016
vn 0.3176726 0.3805895 0.8684675
vt 0.8020548 0.9820955
v 0.9400930 0.7082600 0.7041016
vn 0.3176726 0.3805895 0.8684675
vt 0.7030273 0.9820955
v 1.0367060 0.7711605 0.6411898
vn 0.2566278 0.6834263 0.6834257
vt 0.7153978 0.9968243
v 0.9400930 0.8340760 0.5782856
vn 0.3176727 0.8684676 0.3805890
vt 0.7275192 0.9820955
v 0.9400930 0.8340760 0.5782856
vn 0.3176727 0.8684676 0.3805890
vt 0.7275192 0.9820955
v 1.0367060 0.7711605 0.6411898
vn 0.2566278 0.6834263 0.6834257
vt 0.7153978 0.9968243
v 1.0367060 0.8571019 0.3204858
vn 0.2566276 0.9335773 -0.2501515
vt 0.7646646 0.9968243
v 0.9400929 0.8801277 0.4064178
vn 0.3176716 0.9424101 0.1046329
vt 0.7526925 0.9820955
v 0.9400929 0.8801277 0.4064178
vn 0.3176716 0.9424101 0.1046329
vt 0.7526925 0.9820955
v 1.0367060 0.8571019 0.3204858
vn 0.2566276 0.9335773 -0.2501515
vt 0.7646646 0.9968243
v 0.9400929 0.8340759 0.2345500
vn 0.3176725 0.7638338 -0.5618204
vt 0.7765546 0.9820955
v 0.9400929 0.8340759 0.2345500
vn 0.3176725 0.7638338 -0.5618204
vt 0.4918416 0.9775997
v 1.0367060 0.8571019 0.3204858
vn 0.2566276 0.9335773 -0.2501515
vt 0.5036293 0.9807582
v 1.0367060 0.6223223 0.0857091
vn 0.2566279 0.2501510 -0.9335773
vt 0.4714247 0.9485537
v 1.0367060 0.6223223 0.0857091
vn 0.2566279 0.2501510 -0.9335773
vt 0.4714247 0.9485537
v 0.9400929 0.7082599 0.1087350
vn 0.3176726 0.5618200 -0.7638340
vt 0.4745831 0.9603413
v 0.9400929 0.8340759 0.2345500
vn 0.3176725 0.7638338 -0.5618204
vt 0.4918416 0.9775997
v 0.9400929 0.7082599 0.1087350
vn 0.3176726 0.5618200 -0.7638340
vt 0.7526925 0.9820955
v 1.0367060 0.6223223 0.0857091
vn 0.2566279 0.2501510 -0.9335773
vt 0.7646646 0.9968243
v 0.9400929 0.5363884 0.0626838
vn 0.3176723 -0.1046337 -0.9424098
vt 0.7765546 0.9820955
v 0.9400929 0.5363884 0.0626838
vn 0.3176723 -0.1046337 -0.9424098
vt 0.7765546 0.9820955
v 1.0367060 0.6223223 0.0857091
vn 0.2566279 0.2501510 -0.9335773
vt 0.7646646 0.9968243
v 1.0367060 0.3016127 0.1716439
vn 0.2566288 -0.6834257 -0.6834260
vt 0.8144255 0.9968243
v 0.9400929 0.3645206 0.1087350
vn 0.3176735 -0.3805887 -0.8684675
vt 0.8020550 0.9820955
v 0.9400929 0.3645206 0.1087350
vn 0.3176735 -0.3805887 -0.8684675
vt 0.7030273 0.9820955
v 1.0367060 0.3016127 0.1716439
vn 0.2566288 -0.6834257 -0.6834260
vt 0.7153978 0.9968243
v 0.9400929 0.2387065 0.2345500
vn 0.3176734 -0.8684672 -0.3805895
vt 0.7275192 0.9820955
v 0.9400929 0.2387065 0.2345500
vn 0.3176734 -0.8684672 -0.3805895
vt 0.7275192 0.9820955
v 1.0367060 0.3016127 0.1716439
vn 0.2566288 -0.6834257 -0.6834260
vt 0.7153978 0.9968243
v 1.0367060 0.2156787 0.4923518
vn 0.2566287 -0.9335770 0.2501513
vt 0.7646646 0.9968243
v 0.9400930 0.1926528 0.4064179
vn 0.3176739 -0.9424092 -0.1046338
vt 0.7526925 0.9820955
v 0.9400930 0.2387065 0.5782858
vn -1.0000000 0.0000000 0.0000000
vt 0.4745694 0.9603554
v 0.9400930 0.3645207 0.7041016
vn -1.0000000 0.0000000 0.0000000
vt 0.4918278 0.9776136
v 0.9400930 0.5363885 0.7501535
vn -1.0000000 0.0000000 0.0000000
vt 0.5154030 0.9839307
v 0.9400930 0.7082600 0.7041016
vn -1.0000000 0.0000000 0.0000000
vt 0.5389784 0.9776137
v 0.9400930 0.8340760 0.5782856
vn -1.0000000 0.0000000 0.0000000
vt 0.5562367 0.9603554
v 0.9400929 0.8801277 0.4064178
vn -1.0000000 0.0000000 0.0000000
vt 0.5625538 0.9367800
v 0.9400929 0.8340759 0.2345500
vn -1.0000000 0.0000000 0.0000000
vt 0.5562367 0.9132048
v 0.9400929 0.7082599 0.1087350
vn -1.0000000 0.0000000 0.0000000
vt 0.5389785 0.8959464
v 0.9400929 0.5363884 0.0626838
vn -1.0000000 0.0000000 0.0000000
vt 0.5154031 0.8896294
v 0.9400929 0.3645206 0.1087350
vn -1.0000000 0.0000000 0.0000000
vt 0.4918279 0.8959464
v 0.9400929 0.2387065 0.2345500
vn -1.0000000 0.0000000 0.0000000
vt 0.4745694 0.9132046
v 0.9400930 0.1926528 0.4064179
vn -1.0000000 0.0000000 0.0000000
vt 0.4682524 0.9367800
v 1.2986510 0.5363885 0.7501535
vn 0.0000000 0.0000000 1.0000000
vt 0.7398510 0.9650681
v 1.3952640 0.5363883 0.7501535
vn 0.0000000 0.0000000 1.0000000
vt 0.7398510 0.9783207
v 1.3952640 0.7082601 0.7041017
vn 0.0000000 0.5000001 0.8660254
vt 0.7642579 0.9783207
v 1.2986510 0.7082601 0.7041017
vn 0.0000000 0.4999999 0.8660254
vt 0.7642579 0.9650681
v 1.3952650 0.8340760 0.5782857
vn 0.0000000 0.8660254 0.4999999
vt 0.7887367 0.9783207
v 1.2986510 0.8340760 0.5782857
vn 0.0000000 0.8660254 0.5000001
vt 0.7887367 0.9650681
v 1.2986510 0.8340760 0.5782857
vn 0.0000000 0.8660254 0.5000001
vt 0.7154440 0.9650681
v 1.3952650 0.8340760 0.5782857
vn 0.0000000 0.8660254 0.4999999
vt 0.7154440 0.9783207
v 1.3952640 0.8801279 0.4064178
vn 0.0000000 1.0000000 0.0000000
vt 0.7398510 0.9783207
v 1.2986510 0.8801279 0.4064178
vn 0.0000000 1.0000000 0.0000000
vt 0.7398510 0.9650681
v 1.3952650 0.8340760 0.2345500
vn 0.0000000 0.8660253 -0.5000002
vt 0.7642579 0.9783207
v 1.2986510 0.8340760 0.2345500
vn 0.0000000 0.8660253 -0.5000002
vt 0.7642579 0.9650681
v 1.3952640 0.7082599 0.1087349
vn 0.0000000 0.4999996 -0.8660256
vt 0.7887367 0.9783207
v 1.2986510 0.7082599 0.1087350
vn 0.0000000 0.4999995 -0.8660257
vt 0.7887367 0.9650681
v 1.2986510 0.7082599 0.1087350
vn 0.0000000 0.4999995 -0.8660257
vt 0.7154440 0.9650681
v 1.3952640 0.7082599 0.1087349
vn 0.0000000 0.4999996 -0.8660256
vt 0.7154440 0.9783207
v 1.3952640 0.5363883 0.0626837
vn 0.0000000 0.0000000 -1.0000000
vt 0.7398510 0.9783207
v 1.2986510 0.5363883 0.0626837
vn 0.0000000 0.0000000 -1.0000000
vt 0.7398510 0.9650681
v 1.3952640 0.3645206 0.1087351
vn 0.0000000 -0.4999999 -0.8660255
vt 0.7642579 0.9783207
v 1.2986510 0.3645205 0.1087350
vn 0.0000000 -0.4999999 -0.8660254
vt 0.7642579 0.9650681
v 1.3952640 0.2387065 0.2345501
vn 0.0000000 -0.8660253 -0.5000002
vt 0.7887367 0.9783207
v 1.2986510 0.2387044 0.2345500
vn 0.0000000 -0.8660253 -0.5000001
vt 0.7887367 0.9650681
v 1.2986510 0.2387044 0.2345500
vn 0.0000000 -0.8660253 -0.5000001
vt 0.7154440 0.9650681
v 1.3952640 0.2387065 0.2345501
vn 0.0000000 -0.8660253 -0.5000002
vt 0.7154440 0.9783207
v 1.3952640 0.1926527 0.4064178
vn 0.0000000 -1.0000000 0.0000000
vt 0.7398510 0.9783207
v 1.2986510 0.1926527 0.4064179
vn 0.0000000 -1.0000000 0.0000000
vt 0.7398510 0.9650681
v 1.3952640 0.2387064 0.5782858
vn 0.0000000 -0.8660257 0.4999996
vt 0.7642579 0.9783207
v 1.2986510 0.2387064 0.5782858
vn 0.0000000 -0.8660256 0.4999996
vt 0.7642579 0.9650681
v 1.3952640 0.3645203 0.7041017
vn 0.0000000 -0.5000001 0.8660254
vt 0.7887367 0.9783207
v 1.2986510 0.3645204 0.7041017
vn 0.0000000 -0.4999996 0.8660257
vt 0.7887367 0.9650681
v 1.2986510 0.3645204 0.7041017
vn 0.0000000 -0.4999996 0.8660257
vt 0.7154440 0.9650681
v 1.3952640 0.3645203 0.7041017
vn 0.0000000 -0.5000001 0.8660254
vt 0.7154440 0.9783207
v 1.3952640 0.3645203 0.7041017
vn 1.0000000 0.0000000 0.0000000
vt 0.4711846 0.7397896
v 1.3952640 0.2387064 0.5782858
vn 1.0000000 0.0000000 0.0000000
vt 0.4539262 0.7225312
v 1.3952640 0.1926527 0.4064178
vn 1.0000000 0.0000000 0.0000000
vt 0.4303509 0.7162142
v 1.3952640 0.2387065 0.2345501
vn 1.0000000 0.0000000 0.0000000
vt 0.4067754 0.7225311
v 1.3952640 0.3645206 0.1087351
vn 1.0000000 0.0000000 0.0000000
vt 0.3895172 0.7397896
v 1.3952640 0.5363883 0.0626837
vn 1.0000000 0.0000000 0.0000000
vt 0.3832002 0.7633649
v 1.3952640 0.7082599 0.1087349
vn 1.0000000 0.0000000 0.0000000
vt 0.3895172 0.7869402
v 1.3952650 0.8340760 0.2345500
vn 1.0000000 0.0000000 0.0000000
vt 0.4067755 0.8041986
v 1.3952640 0.8801279 0.4064178
vn 1.0000000 0.0000000 0.0000000
vt 0.4303509 0.8105156
v 1.3952650 0.8340760 0.5782857
vn 1.0000000 0.0000000 0.0000000
vt 0.4539263 0.8041986
v 1.3952640 0.7082601 0.7041017
vn 1.0000000 0.0000000 0.0000000
vt 0.4711846 0.7869402
v 1.3952640 0.5363883 0.7501535
vn 1.0000000 0.0000000 0.0000000
vt 0.4775016 0.7633649
v 1.2986510 0.7082601 0.7041017
vn -1.0000000 0.0000000 0.0000000
vt 0.4745620 0.9603767
v 1.2986510 0.8340760 0.5782857
vn -1.0000000 0.0000000 0.0000000
vt 0.4918203 0.9776349
v 1.2986510 0.8801279 0.4064178
vn -1.0000000 0.0000000 0.0000000
vt 0.5153957 0.9839519
v 1.2986510 0.8340760 0.2345500
vn -1.0000000 0.0000000 0.0000000
vt 0.5389711 0.9776349
v 1.2986510 0.7082599 0.1087350
vn -1.0000000 0.0000000 0.0000000
vt 0.5562294 0.9603767
v 1.2986510 0.5363883 0.0626837
vn -1.0000000 0.0000000 0.0000000
vt 0.5625463 0.9368013
v 1.2986510 0.3645205 0.1087350
vn -1.0000000 0.0000000 0.0000000
vt 0.5562294 0.9132260
v 1.2986510 0.2387044 0.2345500
vn -1.0000000 0.0000000 0.0000000
vt 0.5389711 0.8959676
v 1.2986510 0.1926527 0.4064179
vn -1.0000000 0.0000000 0.0000000
vt 0.5153957 0.8896507
v 1.2986510 0.2387064 0.5782858
vn -1.0000000 0.0000000 0.0000000
vt 0.4918203 0.8959676
v 1.2986510 0.3645204 0.7041017
vn -1.0000000 0.0000000 0.0000000
vt 0.4745620 0.9132259
v 1.2986510 0.5363885 0.7501535
vn -1.0000000 0.0000000 0.0000000
vt 0.4682450 0.9368013
v 1.0367060 0.4504546 0.7271276
vn 1.0000000 0.0000000 0.0000000
vt 0.5594091 0.9249784
v 1.0367060 0.2156787 0.4923518
vn 1.0000000 0.0000000 0.0000000
vt 0.5272046 0.8927739
v 1.0367060 0.3016127 0.1716439
vn 1.0000000 0.0000000 0.0000000
vt 0.4832124 0.9045615
v 1.0367060 0.7711605 0.6411898
vn 1.0000000 0.0000000 0.0000000
vt 0.5476214 0.9689707
v 1.0367060 0.8571019 0.3204858
vn 1.0000000 0.0000000 0.0000000
vt 0.5036293 0.9807582
v 1.0367060 0.6223223 0.0857091
vn 1.0000000 0.0000000 0.0000000
vt 0.4714247 0.9485537

g group_17532808_140627863035504
f 1/1/1 2/2/2 3/3/3 
f 4/4/4 5/5/5 6/6/6 
f 6/6/6 7/7/7 4/4/4 
f 8/8/8 9/9/9 10/10/10 
f 11/11/11 12/12/12 13/13/13 
f 13/13/13 14/14/14 11/11/11 
f 15/15/15 16/16/16 17/17/17 
f 18/18/18 19/19/19 20/20/20 
f 20/20/20 21/21/21 18/18/18 
f 22/22/22 23/23/23 24/24/24 
f 25/25/25 26/26/26 27/27/27 
f 28/28/28 29/29/29 30/30/30 
f 31/31/31 32/32/32 33/33/33 
f 34/34/34 35/35/35 36/36/36 
f 36/36/36 37/37/37 34/34/34 
f 38/38/38 39/39/39 40/40/40 
f 41/41/41 42/42/42 43/43/43 
f 43/43/43 44/44/44 41/41/41 
f 45/45/45 46/46/46 47/47/47 
f 45/45/45 47/47/47 48/48/48 
f 45/45/45 48/48/48 49/49/49 
f 45/45/45 49/49/49 50/50/50 
f 45/45/45 50/50/50 51/51/51 
f 45/45/45 51/51/51 52/52/52 
f 45/45/45 52/52/52 53/53/53 
f 45/45/45 53/53/53 54/54/54 
f 45/45/45 54/54/54 55/55/55 
f 56/56/56 45/45/45 55/55/55 
f 57/57/57 58/58/58 59/59/59 
f 59/59/59 60/60/60 57/57/57 
f 60/60/60 59/59/59 61/61/61 
f 61/61/61 62/62/62 60/60/60 
f 63/63/63 64/64/64 65/65/65 
f 65/65/65 66/66/66 63/63/63 
f 66/66/66 65/65/65 67/67/67 
f 67/67/67 68/68/68 66/66/66 
f 68/68/68 67/67/67 69/69/69 
f 69/69/69 70/70/70 68/68/68 
f 71/71/71 72/72/72 73/73/73 
f 73/73/73 74/74/74 71/71/71 
f 74/74/74 73/73/73 75/75/75 
f 75/75/75 76/76/76 74/74/74 
f 76/76/76 75/75/75 77/77/77 
f 77/77/77 78/78/78 76/76/76 
f 79/79/79 80/80/80 81/81/81 
f 81/81/81 82/82/82 79/79/79 
f 82/82/82 81/81/81 83/83/83 
f 83/83/83 84/84/84 82/82/82 
f 84/84/84 83/83/83 85/85/85 
f 85/85/85 86/86/86 84/84/84 
f 87/87/87 88/88/88 58/58/58 
f 58/58/58 57/57/57 87/87/87 
f 89/89/89 90/90/90 91/91/91 
f 89/89/89 91/91/91 92/92/92 
f 89/89/89 92/92/92 93/93/93 
f 89/89/89 93/93/93 94/94/94 
f 89/89/89 94/94/94 95/95/95 
f 89/89/89 95/95/95 96/96/96 
f 89/89/89 96/96/96 97/97/97 
f 89/89/89 97/97/97 98/98/98 
f 89/89/89 98/98/98 99/99/99 
f 100/100/100 89/89/89 99/99/99 
f 101/101/101 102/102/102 103/103/103 
f 101/101/101 103/103/103 104/104/104 
f 101/101/101 104/104/104 105/105/105 
f 101/101/101 105/105/105 106/106/106 
f 101/101/101 106/106/106 107/107/107 
f 101/101/101 107/107/107 108/108/108 
f 101/101/101 108/108/108 109/109/109 
f 101/101/101 109/109/109 110/110/110 
f 101/101/101 110/110/110 111/111/111 
f 112/112/112 101/101/101 111/111/111 
f 113/113/113 114/114/114 115/115/115 
f 116/116/116 113/113/113 115/115/115 
f 117/117/117 116/116/116 115/115/115 
f 118/118/118 117/117/117 115/115/115 
