v 1.2986510 -0.3672904 0.7501535
vn 0.0000000 0.0000000 1.0000000
vt 0.7398510 0.9650681
v 1.3952650 -0.3672905 0.7501535
vn 0.0000000 0.0000000 1.0000000
vt 0.7398510 0.9783207
v 1.3952650 -0.1954207 0.7041016
vn 0.0000000 0.5000002 0.8660253
vt 0.7642579 0.9783207
v 1.2986510 -0.1954207 0.7041016
vn 0.0000000 0.5000001 0.8660253
vt 0.7642579 0.9650681
v 1.3952650 -0.0696047 0.5782894
vn 0.0000000 0.8660256 0.4999997
vt 0.7887367 0.9783207
v 1.2986510 -0.0696047 0.5782894
vn 0.0000000 0.8660256 0.4999997
vt 0.7887367 0.9650681
v 1.2986510 -0.0696047 0.5782894
vn 0.0000000 0.8660256 0.4999997
vt 0.7154440 0.9650681
v 1.3952650 -0.0696047 0.5782894
vn 0.0000000 0.8660256 0.4999997
vt 0.7154440 0.9783207
v 1.3952650 -0.0235535 0.4064178
vn 0.0000000 1.0000000 0.0000000
vt 0.7398510 0.9783207
v 1.2986510 -0.0235535 0.4064178
vn 0.0000000 1.0000000 0.0000000
vt 0.7398510 0.9650681
v 1.3952650 -0.0696053 0.2345519
vn 0.0000000 0.8660253 -0.5000001
vt 0.7642579 0.9783207
v 1.2986510 -0.0696053 0.2345519
vn 0.0000000 0.8660254 -0.5000001
vt 0.7642579 0.9650681
v 1.3952650 -0.1954208 0.1087359
vn 0.0000000 0.4999996 -0.8660256
vt 0.7887367 0.9783207
v 1.2986510 -0.1954208 0.1087360
vn 0.0000000 0.4999996 -0.8660256
vt 0.7887367 0.9650681
v 1.2986510 -0.1954208 0.1087360
vn 0.0000000 0.4999996 -0.8660256
vt 0.7154440 0.9650681
v 1.3952650 -0.1954208 0.1087359
vn 0.0000000 0.4999996 -0.8660256
vt 0.7154440 0.9783207
v 1.3952650 -0.3672906 0.0626841
vn 0.0000000 0.0000000 -1.0000000
vt 0.7398510 0.9783207
v 1.2986510 -0.3672906 0.0626841
vn 0.0000000 0.0000000 -1.0000000
vt 0.7398510 0.9650681
v 1.3952650 -0.5391583 0.1087360
vn 0.0000000 -0.4999999 -0.8660254
vt 0.7642579 0.9783207
v 1.2986510 -0.5391585 0.1087359
vn 0.0000000 -0.4999999 -0.8660254
vt 0.7642579 0.9650681
v 1.3952650 -0.6649705 0.2345520
vn 0.0000000 -0.8660254 -0.4999999
vt 0.7887367 0.9783207
v 1.2986510 -0.6649706 0.2345519
vn 0.0000000 -0.8660255 -0.4999999
vt 0.7887367 0.9650681
v 1.2986510 -0.6649706 0.2345519
vn 0.0000000 -0.8660255 -0.4999999
vt 0.7154440 0.9650681
v 1.3952650 -0.6649705 0.2345520
vn 0.0000000 -0.8660254 -0.4999999
vt 0.7154440 0.9783207
v 1.3952650 -0.7110223 0.4064178
vn 0.0000000 -1.0000000 0.0000000
vt 0.7398510 0.9783207
v 1.2986510 -0.7110223 0.4064218
vn 0.0000000 -1.0000000 0.0000000
vt 0.7398510 0.9650681
v 1.3952650 -0.6649705 0.5782895
vn 0.0000000 -0.8660257 0.4999996
vt 0.7642579 0.9783207
v 1.2986510 -0.6649705 0.5782894
vn 0.0000000 -0.8660257 0.4999994
vt 0.7642579 0.9650681
v 1.3952650 -0.5391585 0.7041017
vn 0.0000000 -0.5000001 0.8660253
vt 0.7887367 0.9783207
v 1.2986510 -0.5391585 0.7041017
vn 0.0000000 -0.5000001 0.8660254
vt 0.7887367 0.9650681
v 1.2986510 -0.5391585 0.7041017
vn 0.0000000 -0.5000001 0.8660254
vt 0.7154440 0.9650681
v 1.3952650 -0.5391585 0.7041017
vn 0.0000000 -0.5000001 0.8660253
vt 0.7154440 0.9783207
v 1.3952650 -0.5391585 0.7041017
vn 1.0000000 0.0000000 0.0000000
vt 0.4711846 0.7397896
v 1.3952650 -0.6649705 0.5782895
vn 1.0000000 0.0000000 0.0000000
vt 0.4539262 0.7225312
v 1.3952650 -0.7110223 0.4064178
vn 1.0000000 0.0000000 0.0000000
vt 0.4303509 0.7162142
v 1.3952650 -0.6649705 0.2345520
vn 1.0000000 0.0000000 0.0000000
vt 0.4067754 0.7225311
v 1.3952650 -0.5391583 0.1087360
vn 1.0000000 0.0000000 0.0000000
vt 0.3895172 0.7397896
v 1.3952650 -0.3672906 0.0626841
vn 1.0000000 0.0000000 0.0000000
vt 0.3832002 0.7633649
v 1.3952650 -0.1954208 0.1087359
vn 1.0000000 0.0000000 0.0000000
vt 0.3895172 0.7869402
v 1.3952650 -0.0696053 0.2345519
vn 1.0000000 0.0000000 0.0000000
vt 0.4067755 0.8041986
v 1.3952650 -0.0235535 0.4064178
vn 1.0000000 0.0000000 0.0000000
vt 0.4303509 0.8105156
v 1.3952650 -0.0696047 0.5782894
vn 1.0000000 0.0000000 0.0000000
vt 0.4539263 0.8041986
v 1.3952650 -0.1954207 0.7041016
vn 1.0000000 0.0000000 0.0000000
vt 0.4711846 0.7869402
v 1.3952650 -0.3672905 0.7501535
vn 1.0000000 0.0000000 0.0000000
vt 0.4775016 0.7633649
v 1.2986510 -0.1954207 0.7041016
vn -1.0000000 0.0000000 0.0000000
vt 0.4745620 0.9603767
v 1.2986510 -0.0696047 0.5782894
vn -1.0000000 0.0000000 0.0000000
vt 0.4918203 0.9776349
v 1.2986510 -0.0235535 0.4064178
vn -1.0000000 0.0000000 0.0000000
vt 0.5153957 0.9839519
v 1.2986510 -0.0696053 0.2345519
vn -1.0000000 0.0000000 0.0000000
vt 0.5389711 0.9776349
v 1.2986510 -0.1954208 0.1087360
vn -1.0000000 0.0000000 0.0000000
vt 0.5562294 0.9603767
v 1.2986510 -0.3672906 0.0626841
vn -1.0000000 0.0000000 0.0000000
vt 0.5625463 0.9368013
v 1.2986510 -0.5391585 0.1087359
vn -1.0000000 0.0000000 0.0000000
vt 0.5562294 0.9132260
v 1.2986510 -0.6649706 0.2345519
vn -1.0000000 0.0000000 0.0000000
vt 0.5389711 0.8959676
v 1.2986510 -0.7110223 0.4064218
vn -1.0000000 0.0000000 0.0000000
vt 0.5153957 0.8896507
v 1.2986510 -0.6649705 0.5782894
vn -1.0000000 0.0000000 0.0000000
vt 0.4918203 0.8959676
v 1.2986510 -0.5391585 0.7041017
vn -1.0000000 0.0000000 0.0000000
vt 0.4745620 0.9132259
v 1.2986510 -0.3672904 0.7501535
vn -1.0000000 0.0000000 0.0000000
vt 0.4682450 0.9368013
v 0.9400932 -0.3672904 0.7501534
vn 0.3176728 -0.1046334 0.9424096
vt 0.7526925 0.9820955
v 1.0367060 -0.2813546 0.7271274
vn 0.2566284 0.2501515 0.9335771
vt 0.7646646 0.9968243
v 0.9400931 -0.1954207 0.7041015
vn 0.3176729 0.5618203 0.7638337
vt 0.7765546 0.9820955
v 0.9400931 -0.1954207 0.7041015
vn 0.3176729 0.5618203 0.7638337
vt 0.7765546 0.9820955
v 1.0367060 -0.2813546 0.7271274
vn 0.2566284 0.2501515 0.9335771
vt 0.7646646 0.9968243
v 1.0367060 -0.0465794 0.4923554
vn 0.2566284 0.9335772 0.2501509
vt 0.8142261 0.9968243
v 0.9400931 -0.0696047 0.5782893
vn 0.3176730 0.7638339 0.5618199
vt 0.8020712 0.9820955
v 0.9400931 -0.0696047 0.5782893
vn 0.3176730 0.7638339 0.5618199
vt 0.7526925 0.9820955
v 1.0367060 -0.0465794 0.4923554
vn 0.2566284 0.9335772 0.2501509
vt 0.7646646 0.9968243
v 0.9400931 -0.0235535 0.4064177
vn 0.3176728 0.9424096 -0.1046339
vt 0.7765546 0.9820955
v 0.9400931 -0.0235535 0.4064177
vn 0.3176728 0.9424096 -0.1046339
vt 0.7765546 0.9820955
v 1.0367060 -0.0465794 0.4923554
vn 0.2566284 0.9335772 0.2501509
vt 0.7646646 0.9968243
v 1.0367060 -0.1325129 0.1716438
vn 0.2566280 0.6834258 -0.6834261
vt 0.8144255 0.9968243
v 0.9400931 -0.0696053 0.2345519
vn 0.3176731 0.8684674 -0.3805894
vt 0.8020548 0.9820955
v 0.9400931 -0.0696053 0.2345519
vn 0.3176731 0.8684674 -0.3805894
vt 0.7030273 0.9820955
v 1.0367060 -0.1325129 0.1716438
vn 0.2566280 0.6834258 -0.6834261
vt 0.7153978 0.9968243
v 0.9400931 -0.1954209 0.1087358
vn 0.3176726 0.3805889 -0.8684677
vt 0.7275192 0.9820955
v 0.9400931 -0.1954209 0.1087358
vn 0.3176726 0.3805889 -0.8684677
vt 0.7275192 0.9820955
v 1.0367060 -0.1325129 0.1716438
vn 0.2566280 0.6834258 -0.6834261
vt 0.7153978 0.9968243
v 1.0367060 -0.4532245 0.0857100
vn 0.2566283 -0.2501511 -0.9335772
vt 0.7646646 0.9968243
v 0.9400930 -0.3672906 0.0626841
vn 0.3176722 0.1046331 -0.9424099
vt 0.7526925 0.9820955
v 0.9400930 -0.3672906 0.0626841
vn 0.3176722 0.1046331 -0.9424099
vt 0.7526925 0.9820955
v 1.0367060 -0.4532245 0.0857100
vn 0.2566283 -0.2501511 -0.9335772
vt 0.7646646 0.9968243
v 0.9400930 -0.5391585 0.1087359
vn 0.3176734 -0.5618200 -0.7638337
vt 0.7765546 0.9820955
v 0.9400930 -0.5391585 0.1087359
vn 0.3176734 -0.5618200 -0.7638337
vt 0.7765546 0.9820955
v 1.0367060 -0.4532245 0.0857100
vn 0.2566283 -0.2501511 -0.9335772
vt 0.7646646 0.9968243
v 1.0367060 -0.6879965 0.3204858
vn 0.2566273 -0.9335776 -0.2501506
vt 0.8142261 0.9968243
v 0.9400930 -0.6649705 0.2345519
vn 0.3176728 -0.7638340 -0.5618199
vt 0.8020712 0.9820955
v 0.9400930 -0.6649705 0.2345519
vn 0.3176728 -0.7638340 -0.5618199
vt 0.7526925 0.9820955
v 1.0367060 -0.6879965 0.3204858
vn 0.2566273 -0.9335776 -0.2501506
vt 0.7646646 0.9968243
v 0.9400930 -0.7110221 0.4064178
vn 0.3176720 -0.9424098 0.1046343
vt 0.7765546 0.9820955
v 0.9400930 -0.7110221 0.4064178
vn 0.3176720 -0.9424098 0.1046343
vt 0.7765546 0.9820955
v 1.0367060 -0.6879965 0.3204858
vn 0.2566273 -0.9335776 -0.2501506
vt 0.7646646 0.9968243
v 1.0367060 -0.6020663 0.6411936
vn 0.2566290 -0.6834258 0.6834257
vt 0.8144255 0.9968243
v 0.9400930 -0.6649705 0.5782894
vn 0.3176742 -0.8684673 0.3805886
vt 0.8020550 0.9820955
v 0.9400930 -0.6649705 0.5782894
vn 0.3176742 -0.8684673 0.3805886
vt 0.7030273 0.9820955
v 1.0367060 -0.6020663 0.6411936
vn 0.2566290 -0.6834258 0.6834257
vt 0.7153978 0.9968243
v 0.9400930 -0.5391583 0.7041016
vn 0.3176736 -0.3805895 0.8684671
vt 0.7275192 0.9820955
v 0.9400930 -0.5391583 0.7041016
vn 0.3176736 -0.3805895 0.8684671
vt 0.7275192 0.9820955
v 1.0367060 -0.6020663 0.6411936
vn 0.2566290 -0.6834258 0.6834257
vt 0.7153978 0.9968243
v 1.0367060 -0.2813546 0.7271274
vn 0.2566284 0.2501515 0.9335771
vt 0.7646646 0.9968243
v 0.9400932 -0.3672904 0.7501534
vn 0.3176728 -0.1046334 0.9424096
vt 0.7526925 0.9820955
v 0.9400931 -0.1954207 0.7041015
vn -1.0000000 0.0000000 0.0000000
vt 0.4745694 0.9603554
v 0.9400931 -0.0696047 0.5782893
vn -1.0000000 0.0000000 0.0000000
vt 0.4918278 0.9776136
v 0.9400931 -0.0235535 0.4064177
vn -1.0000000 0.0000000 0.0000000
vt 0.5154030 0.9839307
v 0.9400931 -0.0696053 0.2345519
vn -1.0000000 0.0000000 0.0000000
vt 0.5389784 0.9776137
v 0.9400931 -0.1954209 0.1087358
vn -1.0000000 0.0000000 0.0000000
vt 0.5562367 0.9603554
v 0.9400930 -0.3672906 0.0626841
vn -1.0000000 0.0000000 0.0000000
vt 0.5625538 0.9367800
v 0.9400930 -0.5391585 0.1087359
vn -1.0000000 0.0000000 0.0000000
vt 0.5562367 0.9132048
v 0.9400930 -0.6649705 0.2345519
vn -1.0000000 0.0000000 0.0000000
vt 0.5389785 0.8959464
v 0.9400930 -0.7110221 0.4064178
vn -1.0000000 0.0000000 0.0000000
vt 0.5154031 0.8896294
v 0.9400930 -0.6649705 0.5782894
vn -1.0000000 0.0000000 0.0000000
vt 0.4918279 0.8959464
v 0.9400930 -0.5391583 0.7041016
vn -1.0000000 0.0000000 0.0000000
vt 0.4745694 0.9132046
v 0.9400932 -0.3672904 0.7501534
vn -1.0000000 0.0000000 0.0000000
vt 0.4682524 0.9367800
v 1.0367060 -0.2813546 0.7271274
vn 1.0000000 0.0000000 0.0000000
vt 0.5272046 0.8927739
v 1.0367060 -0.6020663 0.6411936
vn 1.0000000 0.0000000 0.0000000
vt 0.4832124 0.9045615
v 1.0367060 -0.6879965 0.3204858
vn 1.0000000 0.0000000 0.0000000
vt 0.4714247 0.9485537
v 1.0367060 -0.4532245 0.0857100
vn 1.0000000 0.0000000 0.0000000
vt 0.5036293 0.9807582
v 1.0367060 -0.1325129 0.1716438
vn 1.0000000 0.0000000 0.0000000
vt 0.5476214 0.9689707
v 1.0367060 -0.0465794 0.4923554
vn 1.0000000 0.0000000 0.0000000
vt 0.5594091 0.9249784

g group_17535328_140627862109328
f 1/1/1 2/2/2 3/3/3 
f 3/3/3 4/4/4 1/1/1 
f 4/4/4 3/3/3 5/5/5 
f 5/5/5 6/6/6 4/4/4 
f 7/7/7 8/8/8 9/9/9 
f 9/9/9 10/10/10 7/7/7 
f 10/10/10 9/9/9 11/11/11 
f 11/11/11 12/12/12 10/10/10 
f 12/12/12 11/11/11 13/13/13 
f 13/13/13 14/14/14 12/12/12 
f 15/15/15 16/16/16 17/17/17 
f 17/17/17 18/18/18 15/15/15 
f 18/18/18 17/17/17 19/19/19 
f 19/19/19 20/20/20 18/18/18 
f 20/20/20 19/19/19 21/21/21 
f 21/21/21 22/22/22 20/20/20 
f 23/23/23 24/24/24 25/25/25 
f 25/25/25 26/26/26 23/23/23 
f 26/26/26 25/25/25 27/27/27 
f 27/27/27 28/28/28 26/26/26 
f 28/28/28 27/27/27 29/29/29 
f 29/29/29 30/30/30 28/28/28 
f 31/31/31 32/32/32 2/2/2 
f 2/2/2 1/1/1 31/31/31 
f 33/33/33 34/34/34 35/35/35 
f 35/35/35 36/36/36 37/37/37 
f 33/33/33 35/35/35 37/37/37 
f 37/37/37 38/38/38 39/39/39 
f 39/39/39 40/40/40 41/41/41 
f 37/37/37 39/39/39 41/41/41 
f 33/33/33 37/37/37 41/41/41 
f 41/41/41 42/42/42 43/43/43 
f 33/33/33 41/41/41 43/43/43 
f 44/44/44 33/33/33 43/43/43 
f 45/45/45 46/46/46 47/47/47 
f 45/45/45 47/47/47 48/48/48 
f 45/45/45 48/48/48 49/49/49 
f 45/45/45 49/49/49 50/50/50 
f 45/45/45 50/50/50 51/51/51 
f 45/45/45 51/51/51 52/52/52 
f 45/45/45 52/52/52 53/53/53 
f 45/45/45 53/53/53 54/54/54 
f 45/45/45 54/54/54 55/55/55 
f 56/56/56 45/45/45 55/55/55 
f 57/57/57 58/58/58 59/59/59 
f 60/60/60 61/61/61 62/62/62 
f 62/62/62 63/63/63 60/60/60 
f 64/64/64 65/65/65 66/66/66 
f 67/67/67 68/68/68 69/69/69 
f 69/69/69 70/70/70 67/67/67 
f 71/71/71 72/72/72 73/73/73 
f 74/74/74 75/75/75 76/76/76 
f 76/76/76 77/77/77 74/74/74 
f 78/78/78 79/79/79 80/80/80 
f 81/81/81 82/82/82 83/83/83 
f 83/83/83 84/84/84 81/81/81 
f 85/85/85 86/86/86 87/87/87 
f 88/88/88 89/89/89 90/90/90 
f 90/90/90 91/91/91 88/88/88 
f 92/92/92 93/93/93 94/94/94 
f 95/95/95 96/96/96 97/97/97 
f 97/97/97 98/98/98 95/95/95 
f 99/99/99 100/100/100 101/101/101 
f 99/99/99 101/101/101 102/102/102 
f 99/99/99 102/102/102 103/103/103 
f 99/99/99 103/103/103 104/104/104 
f 99/99/99 104/104/104 105/105/105 
f 99/99/99 105/105/105 106/106/106 
f 99/99/99 106/106/106 107/107/107 
f 99/99/99 107/107/107 108/108/108 
f 99/99/99 108/108/108 109/109/109 
f 110/110/110 99/99/99 109/109/109 
f 111/111/111 112/112/112 113/113/113 
f 111/111/111 113/113/113 114/114/114 
f 111/111/111 114/114/114 115/115/115 
f 111/111/111 115/115/115 116/116/116 
