v -1.2516510 -1.6531121 0.6366125
vn 0.0000000 -0.9178477 0.3969329
vt 0.0704575 0.5490670
v -1.4514509 -1.6103669 0.7354553
vn 0.0000000 -0.9178477 0.3969329
vt 0.0536318 0.5604985
v -1.4514509 -1.6958580 0.5377698
vn 0.0000000 -0.9178477 0.3969329
vt 0.0536318 0.5376355
v -1.2516510 -1.6531121 0.6366125
vn 0.2601978 -0.5758910 0.7750140
vt 0.0704575 0.4690452
v -1.2516510 -1.3305240 0.8763193
vn 0.2602061 -0.5758948 0.7750083
vt 0.0704575 0.5033399
v -1.4514509 -1.6103669 0.7354553
vn 0.2602061 -0.5758948 0.7750083
vt 0.0536318 0.4690452
v -1.4514509 -1.4374959 0.8639137
vn 0.2602144 -0.5758989 0.7750025
vt 0.0536318 0.4919083
v -1.2516510 -1.3305240 0.8763193
vn 0.0000000 -0.1151975 0.9933426
vt 0.0704575 0.5033399
v -1.4514509 -1.2235510 0.8887248
vn 0.0000000 -0.1151975 0.9933426
vt 0.0536318 0.5147715
v -1.4514509 -1.4374959 0.8639137
vn 0.0000000 -0.1151975 0.9933426
vt 0.0536318 0.4919083
v -1.2516510 -1.3305240 0.8763193
vn 0.2602093 0.3832335 0.8862411
vt 0.0704575 0.5033399
v -1.2516510 -0.9616370 0.7168028
vn 0.2602094 0.3832339 0.8862408
vt 0.0704575 0.5490674
v -1.4514509 -1.2235510 0.8887248
vn 0.2602094 0.3832339 0.8862408
vt 0.0536318 0.5147715
v -1.4514509 -1.0258640 0.8032396
vn 0.2602095 0.3832343 0.8862407
vt 0.0536318 0.5376357
v -1.2516510 -0.9616370 0.7168028
vn 0.0000000 0.8026688 0.5964252
vt 0.0704575 0.5490674
v -1.4514509 -0.8974100 0.6303661
vn 0.0000000 0.8026688 0.5964252
vt 0.0536318 0.5604987
v -1.4514509 -1.0258640 0.8032396
vn 0.0000000 0.8026688 0.5964252
vt 0.0536318 0.5376357
v -1.2516510 -0.9616370 0.7168028
vn 0.2601979 0.9591270 0.1112314
vt 0.0704575 0.4690453
v -1.2516510 -0.9153385 0.3175790
vn 0.2602147 0.9591212 0.1112425
vt 0.0704575 0.5033399
v -1.4514509 -0.8974100 0.6303661
vn 0.2602147 0.9591212 0.1112425
vt 0.0536317 0.4690454
v -1.4514509 -0.8725932 0.4164212
vn 0.2602314 0.9591154 0.1112537
vt 0.0536318 0.4919083
v -1.2516510 -0.9153385 0.3175790
vn 0.0000000 0.9178475 -0.3969332
vt 0.0704575 0.5033399
v -1.4514509 -0.9580840 0.2187367
vn 0.0000000 0.9178475 -0.3969332
vt 0.0536318 0.5147715
v -1.4514509 -0.8725932 0.4164212
vn 0.0000000 0.9178475 -0.3969332
vt 0.0536318 0.4919083
v -1.2516510 -0.9153385 0.3175790
vn 0.2601970 0.5758922 -0.7750134
vt 0.0704575 0.5033399
v -1.2516510 -1.2379270 0.0778720
vn 0.2602070 0.5758966 -0.7750068
vt 0.0704575 0.5490675
v -1.4514509 -0.9580840 0.2187367
vn 0.2602070 0.5758966 -0.7750068
vt 0.0536318 0.5147715
v -1.4514509 -1.1309540 0.0902772
vn 0.2602171 0.5759010 -0.7750000
vt 0.0536318 0.5376359
v -1.2516510 -1.2379270 0.0778720
vn 0.0000000 0.1151948 -0.9933429
vt 0.0704575 0.5490675
v -1.4514509 -1.3448991 0.0654668
vn 0.0000000 0.1151948 -0.9933429
vt 0.0536318 0.5604991
v -1.4514509 -1.1309540 0.0902772
vn 0.0000000 0.1151948 -0.9933429
vt 0.0536318 0.5376359
v -1.2516510 -1.2379270 0.0778720
vn 0.2602080 -0.3832346 -0.8862410
vt 0.0704575 0.4690450
v -1.2516510 -1.6068140 0.2373888
vn 0.2602105 -0.3832329 -0.8862410
vt 0.0704575 0.5033396
v -1.4514509 -1.3448991 0.0654668
vn 0.2602105 -0.3832329 -0.8862410
vt 0.0536318 0.4690450
v -1.4514509 -1.5425870 0.1509514
vn 0.2602130 -0.3832312 -0.8862410
vt 0.0536318 0.4919080
v -1.2516510 -1.6068140 0.2373888
vn 0.0000000 -0.8026716 -0.5964214
vt 0.0704575 0.5033396
v -1.4514509 -1.6710401 0.3238260
vn 0.0000000 -0.8026716 -0.5964214
vt 0.0536318 0.5147712
v -1.4514509 -1.5425870 0.1509514
vn 0.0000000 -0.8026716 -0.5964214
vt 0.0536318 0.4919080
v -1.2516510 -1.6068140 0.2373888
vn 0.2601968 -0.9591272 -0.1112319
vt 0.0704575 0.5033396
v -1.2516510 -1.6531121 0.6366125
vn 0.2602155 -0.9591208 -0.1112447
vt 0.0704575 0.5490670
v -1.4514509 -1.6710401 0.3238260
vn 0.2602155 -0.9591208 -0.1112447
vt 0.0536318 0.5147712
v -1.4514509 -1.6958580 0.5377698
vn 0.2602341 -0.9591142 -0.1112576
vt 0.0536318 0.5376355
v -1.2516510 -1.6531121 0.6366125
vn 1.0000000 0.0000000 0.0000000
vt 0.1984044 0.5528804
v -1.2516510 -1.6068140 0.2373888
vn 1.0000000 0.0000000 0.0000000
vt 0.2067219 0.5218383
v -1.2516510 -0.9153385 0.3175790
vn 1.0000000 0.0000000 0.0000000
vt 0.2604883 0.5362450
v -1.4514509 -1.6710401 0.3238260
vn -1.0000000 0.0000000 0.0000000
vt 0.1420632 0.5217161
v -1.4514509 -1.6958580 0.5377698
vn -1.0000000 0.0000000 0.0000000
vt 0.1285237 0.5080141
v -1.4514509 -0.9580840 0.2187367
vn -1.0000000 0.0000000 0.0000000
vt 0.1980763 0.4898244
v -1.4514509 -0.8725932 0.4164212
vn -1.0000000 0.0000000 0.0000000
vt 0.1932030 0.4711880
v -1.2516510 -0.9616370 0.7168028
vn 1.0000000 0.0000000 0.0000000
vt 0.2521704 0.5672872
v -1.4514509 -0.8974100 0.6303661
vn -1.0000000 0.0000000 0.0000000
vt 0.1796631 0.4574849
v -1.4514509 -1.6103669 0.7354553
vn -1.0000000 0.0000000 0.0000000
vt 0.1236500 0.4893768
v -1.2516510 -1.2379270 0.0778720
vn 1.0000000 0.0000000 0.0000000
vt 0.2377636 0.5135208
v -1.4514509 -1.5425870 0.1509514
vn -1.0000000 0.0000000 0.0000000
vt 0.1606393 0.5268136
v -1.4514509 -1.1309540 0.0902772
vn -1.0000000 0.0000000 0.0000000
vt 0.1929792 0.5084007
v -1.2516510 -1.3305240 0.8763193
vn 1.0000000 0.0000000 0.0000000
vt 0.2211283 0.5756051
v -1.4514509 -1.0258640 0.8032396
vn -1.0000000 0.0000000 0.0000000
vt 0.1610870 0.4523878
v -1.4514509 -1.4374959 0.8639137
vn -1.0000000 0.0000000 0.0000000
vt 0.1287473 0.4708010
v -1.4514509 -1.3448991 0.0654668
vn -1.0000000 0.0000000 0.0000000
vt 0.1792763 0.5219403
v -1.4514509 -1.2235510 0.8887248
vn -1.0000000 0.0000000 0.0000000
vt 0.1424503 0.4572616
v -1.2605970 -1.2847461 0.4782292
vn 0.2148273 -0.8929657 0.3955521
vt 0.0606029 0.6347926
v -1.5913590 -1.3412240 0.5303677
vn 0.2148273 -0.8929657 0.3955521
vt 0.0729376 0.6377837
v -1.5912679 -1.3642250 0.4783917
vn 0.2148273 -0.8929657 0.3955521
vt 0.0729344 0.6416869
v -1.2605970 -1.2847461 0.4782292
vn 0.2167836 0.3974731 0.8916389
vt 0.0606029 0.6347926
v -1.5913590 -1.2302361 0.5343477
vn 0.2167836 0.3974731 0.8916389
vt 0.0729376 0.6292786
v -1.5912679 -1.2842250 0.5583926
vn 0.2167836 0.3974731 0.8916389
vt 0.0729344 0.6333578
v -1.2605970 -1.2847461 0.4782292
vn 0.2157509 0.8868397 -0.4086159
vt 0.0606027 0.6320130
v -1.5913590 -1.2298570 0.4227136
vn 0.2157509 0.8868397 -0.4086159
vt 0.0729376 0.6292512
v -1.5912679 -1.2042249 0.4783917
vn 0.2157509 0.8868397 -0.4086159
vt 0.0729343 0.6249944
v -1.2605970 -1.2847461 0.4782292
vn 0.2123125 -0.4204913 -0.8821058
vt 0.0606027 0.6320130
v -1.5913590 -1.3397470 0.4248370
vn 0.2123125 -0.4204913 -0.8821058
vt 0.0729377 0.6376315
v -1.5912679 -1.2842250 0.3983922
vn 0.2123125 -0.4204913 -0.8821058
vt 0.0729343 0.6333718
v -1.5913590 -1.2302361 0.5343477
vn 0.2157830 0.8853164 0.4118891
vt 0.0729376 0.6292786
v -1.2605970 -1.2847461 0.4782292
vn 0.2157830 0.8853164 0.4118891
vt 0.0606029 0.6347926
v -1.5912679 -1.2042249 0.4783917
vn 0.2157830 0.8853164 0.4118891
vt 0.0729343 0.6249943
v -1.5913590 -1.3397470 0.4248370
vn 0.2133410 -0.8884231 -0.4064358
vt 0.0729377 0.6376315
v -1.2605970 -1.2847461 0.4782292
vn 0.2133410 -0.8884231 -0.4064358
vt 0.0606027 0.6320130
v -1.5912679 -1.3642250 0.4783917
vn 0.2133410 -0.8884231 -0.4064358
vt 0.0729344 0.6416868
v -1.5913590 -1.3412240 0.5303677
vn 0.2118997 -0.4314797 0.8768830
vt 0.0729376 0.6377837
v -1.2605970 -1.2847461 0.4782292
vn 0.2118997 -0.4314797 0.8768830
vt 0.0606029 0.6347926
v -1.5912679 -1.2842250 0.5583926
vn 0.2118997 -0.4314797 0.8768830
vt 0.0729344 0.6333578
v -1.5913590 -1.2298570 0.4227136
vn 0.2157961 0.3990313 -0.8911824
vt 0.0729376 0.6292512
v -1.2605970 -1.2847461 0.4782292
vn 0.2157961 0.3990313 -0.8911824
vt 0.0606027 0.6320130
v -1.5912679 -1.2842250 0.3983922
vn 0.2157961 0.3990313 -0.8911824
vt 0.0729343 0.6333718
v -1.5912679 -1.2842250 0.5583926
vn -0.9999939 -0.0001270 0.0035062
vt 0.1541310 0.5667764
v -1.5913590 -1.2302361 0.5343477
vn -0.9999996 0.0000000 0.0009525
vt 0.1583953 0.5632220
v -1.5913590 -1.3412240 0.5303677
vn -0.9999999 0.0000000 0.0004524
vt 0.1541310 0.5727422
v -1.5912679 -1.2042249 0.4783917
vn -0.9999998 0.0005767 -0.0002345
vt 0.1641899 0.5633485
v -1.5913590 -1.2298570 0.4227136
vn -0.9999999 0.0000000 -0.0004924
vt 0.1678208 0.5678167
v -1.5912679 -1.3642250 0.4783917
vn -0.9999998 -0.0005778 0.0002443
vt 0.1575589 0.5768352
v -1.5913590 -1.3397470 0.4248370
vn -0.9999996 0.0000000 -0.0009371
vt 0.1630876 0.5769914
v -1.5912679 -1.2842250 0.3983922
vn -0.9999936 0.0000000 -0.0035904
vt 0.1676177 0.5734074

g group_26268608_140627887513248
f 1/1/1 2/2/2 3/3/3 
f 4/4/4 5/5/5 6/6/6 
f 6/6/6 5/5/5 7/7/7 
f 8/8/8 9/9/9 10/10/10 
f 11/11/11 12/12/12 13/13/13 
f 13/13/13 12/12/12 14/14/14 
f 15/15/15 16/16/16 17/17/17 
f 18/18/18 19/19/19 20/20/20 
f 20/20/20 19/19/19 21/21/21 
f 22/22/22 23/23/23 24/24/24 
f 25/25/25 26/26/26 27/27/27 
f 27/27/27 26/26/26 28/28/28 
f 29/29/29 30/30/30 31/31/31 
f 32/32/32 33/33/33 34/34/34 
f 34/34/34 33/33/33 35/35/35 
f 36/36/36 37/37/37 38/38/38 
f 39/39/39 40/40/40 41/41/41 
f 41/41/41 40/40/40 42/42/42 
f 43/43/43 44/44/44 45/45/45 
f 46/46/46 47/47/47 48/48/48 
f 48/48/48 47/47/47 49/49/49 
f 43/43/43 45/45/45 50/50/50 
f 49/49/49 47/47/47 51/51/51 
f 51/51/51 47/47/47 52/52/52 
f 45/45/45 44/44/44 53/53/53 
f 46/46/46 48/48/48 54/54/54 
f 54/54/54 48/48/48 55/55/55 
f 43/43/43 50/50/50 56/56/56 
f 51/51/51 52/52/52 57/57/57 
f 57/57/57 52/52/52 58/58/58 
f 55/55/55 59/59/59 54/54/54 
f 58/58/58 60/60/60 57/57/57 
f 61/61/61 62/62/62 63/63/63 
f 64/64/64 65/65/65 66/66/66 
f 67/67/67 68/68/68 69/69/69 
f 70/70/70 71/71/71 72/72/72 
f 73/73/73 74/74/74 75/75/75 
f 76/76/76 77/77/77 78/78/78 
f 79/79/79 80/80/80 81/81/81 
f 82/82/82 83/83/83 84/84/84 
f 85/85/85 86/86/86 87/87/87 
f 86/86/86 88/88/88 87/87/87 
f 88/88/88 89/89/89 87/87/87 
f 87/87/87 89/89/89 90/90/90 
f 90/90/90 89/89/89 91/91/91 
f 89/89/89 92/92/92 91/91/91 
