v 1.2516510 1.6913199 0.0919234
vn 0.0000000 -0.2855217 -0.9583722
vt 0.0704575 0.5490670
v 1.4514509 1.7945260 0.0611757
vn 0.0000000 -0.2855217 -0.9583722
vt 0.0536318 0.5376355
v 1.4514509 1.5881130 0.1226711
vn 0.0000000 -0.2855217 -0.9583722
vt 0.0536318 0.5604985
v 1.2516510 1.6913199 0.0919234
vn -0.2601988 -0.7014129 -0.6635635
vt 0.0704575 0.4690452
v 1.4514509 1.5881130 0.1226711
vn -0.2602065 -0.7014081 -0.6635656
vt 0.0536318 0.4690452
v 1.2516510 1.4151210 0.3838770
vn -0.2602065 -0.7014081 -0.6635656
vt 0.0704575 0.5033399
v 1.4514509 1.4400990 0.2791243
vn -0.2602142 -0.7014034 -0.6635675
vt 0.0536318 0.4919083
v 1.2516510 1.4151210 0.3838770
vn 0.0000000 -0.9727288 -0.2319455
vt 0.0704575 0.5033399
v 1.4514509 1.4400990 0.2791243
vn 0.0000000 -0.9727288 -0.2319455
vt 0.0536318 0.4919083
v 1.4514509 1.3901430 0.4886296
vn 0.0000000 -0.9727288 -0.2319455
vt 0.0536318 0.5147715
v 1.2516510 1.4151210 0.3838770
vn -0.2602092 -0.9253663 0.2756601
vt 0.0704575 0.5033399
v 1.4514509 1.3901430 0.4886296
vn -0.2602091 -0.9253665 0.2756594
vt 0.0536318 0.5147715
v 1.2516510 1.5298610 0.7690494
vn -0.2602091 -0.9253665 0.2756594
vt 0.0704575 0.5490674
v 1.4514509 1.4516320 0.6950444
vn -0.2602091 -0.9253667 0.2756588
vt 0.0536318 0.5376357
v 1.2516510 1.5298610 0.7690494
vn 0.0000000 -0.6872247 0.7264448
vt 0.0704575 0.5490674
v 1.4514509 1.4516320 0.6950444
vn 0.0000000 -0.6872247 0.7264448
vt 0.0536318 0.5376357
v 1.4514509 1.6080890 0.8430544
vn 0.0000000 -0.6872247 0.7264448
vt 0.0536318 0.5604987
v 1.2516510 1.5298610 0.7690494
vn -0.2601967 -0.2239563 0.9392238
vt 0.0704575 0.4690453
v 1.4514509 1.6080890 0.8430544
vn -0.2602143 -0.2239673 0.9392163
vt 0.0536317 0.4690454
v 1.2516510 1.9208000 0.8622683
vn -0.2602143 -0.2239673 0.9392163
vt 0.0704575 0.5033399
v 1.4514509 1.8175941 0.8930159
vn -0.2602320 -0.2239781 0.9392088
vt 0.0536318 0.4919083
v 1.2516510 1.9208000 0.8622683
vn 0.0000000 0.2855223 0.9583721
vt 0.0704575 0.5033399
v 1.4514509 1.8175941 0.8930159
vn 0.0000000 0.2855223 0.9583721
vt 0.0536318 0.4919083
v 1.4514509 2.0240059 0.8315207
vn 0.0000000 0.2855223 0.9583721
vt 0.0536318 0.5147715
v 1.2516510 1.9208000 0.8622683
vn -0.2601967 0.7014130 0.6635641
vt 0.0704575 0.5033399
v 1.4514509 2.0240059 0.8315207
vn -0.2602065 0.7014069 0.6635668
vt 0.0536318 0.5147715
v 1.2516510 2.1969991 0.5703149
vn -0.2602065 0.7014069 0.6635668
vt 0.0704575 0.5490675
v 1.4514509 2.1720209 0.6750675
vn -0.2602161 0.7014009 0.6635695
vt 0.0536318 0.5376359
v 1.2516510 2.1969991 0.5703149
vn 0.0000000 0.9727297 0.2319415
vt 0.0704575 0.5490675
v 1.4514509 2.1720209 0.6750675
vn 0.0000000 0.9727297 0.2319415
vt 0.0536318 0.5376359
v 1.4514509 2.2219760 0.4655624
vn 0.0000000 0.9727297 0.2319415
vt 0.0536318 0.5604991
v 1.2516510 2.1969991 0.5703149
vn -0.2602084 0.9253666 -0.2756597
vt 0.0704575 0.4690450
v 1.4514509 2.2219760 0.4655624
vn -0.2602104 0.9253662 -0.2756591
vt 0.0536318 0.4690450
v 1.2516510 2.0822589 0.1851426
vn -0.2602104 0.9253662 -0.2756591
vt 0.0704575 0.5033396
v 1.4514509 2.1604879 0.2591476
vn -0.2602125 0.9253658 -0.2756585
vt 0.0536318 0.4919080
v 1.2516510 2.0822589 0.1851426
vn 0.0000000 0.6872236 -0.7264459
vt 0.0704575 0.5033396
v 1.4514509 2.1604879 0.2591476
vn 0.0000000 0.6872236 -0.7264459
vt 0.0536318 0.4919080
v 1.4514509 2.0040300 0.1111376
vn 0.0000000 0.6872236 -0.7264459
vt 0.0536318 0.5147712
v 1.2516510 2.0822589 0.1851426
vn -0.2601968 0.2239573 -0.9392235
vt 0.0704575 0.5033396
v 1.4514509 2.0040300 0.1111376
vn -0.2602155 0.2239689 -0.9392155
vt 0.0536318 0.5147712
v 1.2516510 1.6913199 0.0919234
vn -0.2602155 0.2239689 -0.9392155
vt 0.0704575 0.5490670
v 1.4514509 1.7945260 0.0611757
vn -0.2602343 0.2239805 -0.9392076
vt 0.0536318 0.5376355
v 1.2516510 1.6913199 0.0919234
vn -1.0000000 0.0000000 0.0000000
vt 0.1984044 0.5528804
v 1.2516510 1.9208000 0.8622683
vn -1.0000000 0.0000000 0.0000000
vt 0.2604883 0.5362450
v 1.2516510 2.0822589 0.1851426
vn -1.0000000 0.0000000 0.0000000
vt 0.2067219 0.5218383
v 1.4514509 2.0040300 0.1111376
vn 1.0000000 0.0000000 0.0000000
vt 0.1420632 0.5217161
v 1.4514509 2.0240059 0.8315207
vn 1.0000000 0.0000000 0.0000000
vt 0.1980763 0.4898244
v 1.4514509 1.7945260 0.0611757
vn 1.0000000 0.0000000 0.0000000
vt 0.1285237 0.5080141
v 1.4514509 1.8175941 0.8930159
vn 1.0000000 0.0000000 0.0000000
vt 0.1932030 0.4711880
v 1.2516510 1.5298610 0.7690494
vn -1.0000000 0.0000000 0.0000000
vt 0.2521704 0.5672872
v 1.4514509 1.6080890 0.8430544
vn 1.0000000 0.0000000 0.0000000
vt 0.1796631 0.4574849
v 1.4514509 1.5881130 0.1226711
vn 1.0000000 0.0000000 0.0000000
vt 0.1236500 0.4893768
v 1.2516510 2.1969991 0.5703149
vn -1.0000000 0.0000000 0.0000000
vt 0.2377636 0.5135208
v 1.4514509 2.1604879 0.2591476
vn 1.0000000 0.0000000 0.0000000
vt 0.1606393 0.5268136
v 1.4514509 2.1720209 0.6750675
vn 1.0000000 0.0000000 0.0000000
vt 0.1929792 0.5084007
v 1.2516510 1.4151210 0.3838770
vn -1.0000000 0.0000000 0.0000000
vt 0.2211283 0.5756051
v 1.4514509 1.4516320 0.6950444
vn 1.0000000 0.0000000 0.0000000
vt 0.1610870 0.4523878
v 1.4514509 1.4400990 0.2791243
vn 1.0000000 0.0000000 0.0000000
vt 0.1287473 0.4708010
v 1.4514509 2.2219760 0.4655624
vn 1.0000000 0.0000000 0.0000000
vt 0.1792763 0.5219403
v 1.4514509 1.3901430 0.4886296
vn 1.0000000 0.0000000 0.0000000
vt 0.1424503 0.4572616
v 1.2605970 1.8049260 0.4765755
vn -0.2148280 -0.3955535 -0.8929650
vt 0.0606029 0.6347926
v 1.5912679 1.8047640 0.3970959
vn -0.2148280 -0.3955535 -0.8929650
vt 0.0729344 0.6416869
v 1.5913590 1.7527879 0.4200975
vn -0.2148280 -0.3955535 -0.8929650
vt 0.0729376 0.6377837
v 1.2605970 1.8049260 0.4765755
vn -0.2167831 -0.8916398 0.3974715
vt 0.0606029 0.6347926
v 1.5912679 1.7247630 0.4770959
vn -0.2167831 -0.8916398 0.3974715
vt 0.0729344 0.6333578
v 1.5913590 1.7488080 0.5310849
vn -0.2167831 -0.8916398 0.3974715
vt 0.0729376 0.6292786
v 1.2605970 1.8049260 0.4765755
vn -0.2157499 0.4086169 0.8868395
vt 0.0606027 0.6320130
v 1.5912679 1.8047640 0.5570959
vn -0.2157499 0.4086169 0.8868395
vt 0.0729343 0.6249944
v 1.5913590 1.8604420 0.5314640
vn -0.2157499 0.4086169 0.8868395
vt 0.0729376 0.6292512
v 1.2605970 1.8049260 0.4765755
vn -0.2123132 0.8821034 -0.4204958
vt 0.0606027 0.6320130
v 1.5912679 1.8847630 0.4770960
vn -0.2123132 0.8821034 -0.4204958
vt 0.0729343 0.6333718
v 1.5913590 1.8583180 0.4215744
vn -0.2123132 0.8821034 -0.4204958
vt 0.0729377 0.6376315
v 1.5913590 1.7488080 0.5310849
vn -0.2157833 -0.4118891 0.8853163
vt 0.0729376 0.6292786
v 1.5912679 1.8047640 0.5570959
vn -0.2157833 -0.4118891 0.8853163
vt 0.0729343 0.6249943
v 1.2605970 1.8049260 0.4765755
vn -0.2157833 -0.4118891 0.8853163
vt 0.0606029 0.6347926
v 1.5913590 1.8583180 0.4215744
vn -0.2133406 0.4064377 -0.8884223
vt 0.0729377 0.6376315
v 1.5912679 1.8047640 0.3970959
vn -0.2133406 0.4064377 -0.8884223
vt 0.0729344 0.6416868
v 1.2605970 1.8049260 0.4765755
vn -0.2133406 0.4064377 -0.8884223
vt 0.0606027 0.6320130
v 1.5913590 1.7527879 0.4200975
vn -0.2119007 -0.8768811 -0.4314831
vt 0.0729376 0.6377837
v 1.5912679 1.7247630 0.4770959
vn -0.2119007 -0.8768811 -0.4314831
vt 0.0729344 0.6333578
v 1.2605970 1.8049260 0.4765755
vn -0.2119007 -0.8768811 -0.4314831
vt 0.0606029 0.6347926
v 1.5913590 1.8604420 0.5314640
vn -0.2157950 0.8911817 0.3990335
vt 0.0729376 0.6292512
v 1.5912679 1.8847630 0.4770960
vn -0.2157950 0.8911817 0.3990335
vt 0.0729343 0.6333718
v 1.2605970 1.8049260 0.4765755
vn -0.2157950 0.8911817 0.3990335
vt 0.0606027 0.6320130
v 1.5912679 1.7247630 0.4770959
vn 0.9999939 -0.0035094 -0.0001257
vt 0.1541310 0.5667764
v 1.5913590 1.7527879 0.4200975
vn 0.9999999 -0.0004536 0.0000000
vt 0.1541310 0.5727422
v 1.5913590 1.7488080 0.5310849
vn 0.9999996 -0.0009524 0.0000000
vt 0.1583953 0.5632220
v 1.5912679 1.8047640 0.5570959
vn 0.9999998 0.0002346 0.0005760
vt 0.1641899 0.5633485
v 1.5913590 1.8604420 0.5314640
vn 0.9999999 0.0004933 0.0000000
vt 0.1678208 0.5678167
v 1.5912679 1.8047640 0.3970959
vn 0.9999998 -0.0002450 -0.0005767
vt 0.1575589 0.5768352
v 1.5913590 1.8583180 0.4215744
vn 0.9999996 0.0009414 0.0000000
vt 0.1630876 0.5769914
v 1.5912679 1.8847630 0.4770960
vn 0.9999936 0.0035989 0.0000000
vt 0.1676177 0.5734074

g group_26247744_140627883481520
f 1/1/1 2/2/2 3/3/3 
f 4/4/4 5/5/5 6/6/6 
f 5/5/5 7/7/7 6/6/6 
f 8/8/8 9/9/9 10/10/10 
f 11/11/11 12/12/12 13/13/13 
f 12/12/12 14/14/14 13/13/13 
f 15/15/15 16/16/16 17/17/17 
f 18/18/18 19/19/19 20/20/20 
f 19/19/19 21/21/21 20/20/20 
f 22/22/22 23/23/23 24/24/24 
f 25/25/25 26/26/26 27/27/27 
f 26/26/26 28/28/28 27/27/27 
f 29/29/29 30/30/30 31/31/31 
f 32/32/32 33/33/33 34/34/34 
f 33/33/33 35/35/35 34/34/34 
f 36/36/36 37/37/37 38/38/38 
f 39/39/39 40/40/40 41/41/41 
f 40/40/40 42/42/42 41/41/41 
f 43/43/43 44/44/44 45/45/45 
f 46/46/46 47/47/47 48/48/48 
f 47/47/47 49/49/49 48/48/48 
f 43/43/43 50/50/50 44/44/44 
f 49/49/49 51/51/51 48/48/48 
f 51/51/51 52/52/52 48/48/48 
f 44/44/44 53/53/53 45/45/45 
f 46/46/46 54/54/54 47/47/47 
f 54/54/54 55/55/55 47/47/47 
f 43/43/43 56/56/56 50/50/50 
f 51/51/51 57/57/57 52/52/52 
f 57/57/57 58/58/58 52/52/52 
f 55/55/55 54/54/54 59/59/59 
f 58/58/58 57/57/57 60/60/60 
f 61/61/61 62/62/62 63/63/63 
f 64/64/64 65/65/65 66/66/66 
f 67/67/67 68/68/68 69/69/69 
f 70/70/70 71/71/71 72/72/72 
f 73/73/73 74/74/74 75/75/75 
f 76/76/76 77/77/77 78/78/78 
f 79/79/79 80/80/80 81/81/81 
f 82/82/82 83/83/83 84/84/84 
f 85/85/85 86/86/86 87/87/87 
f 87/87/87 86/86/86 88/88/88 
f 88/88/88 86/86/86 89/89/89 
f 86/86/86 90/90/90 89/89/89 
f 90/90/90 91/91/91 89/89/89 
f 89/89/89 91/91/91 92/92/92 
