v -1.2516510 -0.6272631 0.5918359
vn 0.0000000 -0.9583722 0.2855218
vt 0.0704575 0.5490670
v -1.4514509 -0.5965154 0.6950429
vn 0.0000000 -0.9583722 0.2855218
vt 0.0536318 0.5604985
v -1.4514509 -0.6580108 0.4886292
vn 0.0000000 -0.9583722 0.2855218
vt 0.0536318 0.5376355
v -1.2516510 -0.6272631 0.5918359
vn 0.2601988 -0.6635624 0.7014139
vt 0.0704575 0.4690452
v -1.2516510 -0.3353095 0.8680347
vn 0.2602066 -0.6635655 0.7014081
vt 0.0704575 0.5033399
v -1.4514509 -0.5965154 0.6950429
vn 0.2602066 -0.6635655 0.7014081
vt 0.0536318 0.4690452
v -1.4514509 -0.4400621 0.8430566
vn 0.2602144 -0.6635686 0.7014023
vt 0.0536318 0.4919083
v -1.2516510 -0.3353095 0.8680347
vn 0.0000000 -0.2319446 0.9727290
vt 0.0704575 0.5033399
v -1.4514509 -0.2305569 0.8930125
vn 0.0000000 -0.2319446 0.9727290
vt 0.0536318 0.5147715
v -1.4514509 -0.4400621 0.8430566
vn 0.0000000 -0.2319446 0.9727290
vt 0.0536318 0.4919083
v -1.2516510 -0.3353095 0.8680347
vn 0.2602088 0.2756591 0.9253666
vt 0.0704575 0.5033399
v -1.2516510 0.0498629 0.7532948
vn 0.2602094 0.2756592 0.9253665
vt 0.0704575 0.5490674
v -1.4514509 -0.2305569 0.8930125
vn 0.2602094 0.2756592 0.9253665
vt 0.0536318 0.5147715
v -1.4514509 -0.0241421 0.8315233
vn 0.2602099 0.2756594 0.9253663
vt 0.0536318 0.5376357
v -1.2516510 0.0498629 0.7532948
vn 0.0000000 0.7264451 0.6872245
vt 0.0704575 0.5490674
v -1.4514509 0.1238679 0.6750664
vn 0.0000000 0.7264451 0.6872245
vt 0.0536318 0.5604987
v -1.4514509 -0.0241421 0.8315233
vn 0.0000000 0.7264451 0.6872245
vt 0.0536318 0.5376357
v -1.2516510 0.0498629 0.7532948
vn 0.2601976 0.9392234 0.2239567
vt 0.0704575 0.4690453
v -1.2516510 0.1430818 0.3623557
vn 0.2602147 0.9392162 0.2239672
vt 0.0704575 0.5033399
v -1.4514509 0.1238679 0.6750664
vn 0.2602147 0.9392162 0.2239672
vt 0.0536317 0.4690454
v -1.4514509 0.1738294 0.4655618
vn 0.2602319 0.9392089 0.2239778
vt 0.0536318 0.4919083
v -1.2516510 0.1430818 0.3623557
vn 0.0000000 0.9583722 -0.2855218
vt 0.0704575 0.5033399
v -1.4514509 0.1123342 0.2591493
vn 0.0000000 0.9583722 -0.2855218
vt 0.0536318 0.5147715
v -1.4514509 0.1738294 0.4655618
vn 0.0000000 0.9583722 -0.2855218
vt 0.0536318 0.4919083
v -1.2516510 0.1430818 0.3623557
vn 0.2601970 0.6635635 -0.7014137
vt 0.0704575 0.5033399
v -1.2516510 -0.1488715 0.0861566
vn 0.2602068 0.6635672 -0.7014065
vt 0.0704575 0.5490675
v -1.4514509 0.1123342 0.2591493
vn 0.2602068 0.6635672 -0.7014065
vt 0.0536318 0.5147715
v -1.4514509 -0.0441190 0.1111343
vn 0.2602167 0.6635709 -0.7013993
vt 0.0536318 0.5376359
v -1.2516510 -0.1488715 0.0861566
vn 0.0000000 0.2319418 -0.9727297
vt 0.0704575 0.5490675
v -1.4514509 -0.2536241 0.0611790
vn 0.0000000 0.2319418 -0.9727297
vt 0.0536318 0.5604991
v -1.4514509 -0.0441190 0.1111343
vn 0.0000000 0.2319418 -0.9727297
vt 0.0536318 0.5376359
v -1.2516510 -0.1488715 0.0861566
vn 0.2602082 -0.2756602 -0.9253665
vt 0.0704575 0.4690450
v -1.2516510 -0.5340438 0.2008969
vn 0.2602106 -0.2756588 -0.9253663
vt 0.0704575 0.5033396
v -1.4514509 -0.2536241 0.0611790
vn 0.2602106 -0.2756588 -0.9253663
vt 0.0536318 0.4690450
v -1.4514509 -0.4600388 0.1226678
vn 0.2602128 -0.2756575 -0.9253660
vt 0.0536318 0.4919080
v -1.2516510 -0.5340438 0.2008969
vn 0.0000000 -0.7264470 -0.6872225
vt 0.0704575 0.5033396
v -1.4514509 -0.6080489 0.2791258
vn 0.0000000 -0.7264470 -0.6872225
vt 0.0536318 0.5147712
v -1.4514509 -0.4600388 0.1226678
vn 0.0000000 -0.7264470 -0.6872225
vt 0.0536318 0.4919080
v -1.2516510 -0.5340438 0.2008969
vn 0.2601970 -0.9392235 -0.2239572
vt 0.0704575 0.5033396
v -1.2516510 -0.6272631 0.5918359
vn 0.2602156 -0.9392155 -0.2239691
vt 0.0704575 0.5490670
v -1.4514509 -0.6080489 0.2791258
vn 0.2602156 -0.9392155 -0.2239691
vt 0.0536318 0.5147712
v -1.4514509 -0.6580108 0.4886292
vn 0.2602342 -0.9392074 -0.2239811
vt 0.0536318 0.5376355
v -1.2516510 -0.6272631 0.5918359
vn 1.0000000 0.0000000 0.0000000
vt 0.1984044 0.5528804
v -1.2516510 -0.5340438 0.2008969
vn 1.0000000 0.0000000 0.0000000
vt 0.2067219 0.5218383
v -1.2516510 0.1430818 0.3623557
vn 1.0000000 0.0000000 0.0000000
vt 0.2604883 0.5362450
v -1.4514509 -0.6080489 0.2791258
vn -1.0000000 0.0000000 0.0000000
vt 0.1420632 0.5217161
v -1.4514509 -0.6580108 0.4886292
vn -1.0000000 0.0000000 0.0000000
vt 0.1285237 0.5080141
v -1.4514509 0.1123342 0.2591493
vn -1.0000000 0.0000000 0.0000000
vt 0.1980763 0.4898244
v -1.4514509 0.1738294 0.4655618
vn -1.0000000 0.0000000 0.0000000
vt 0.1932030 0.4711880
v -1.2516510 0.0498629 0.7532948
vn 1.0000000 0.0000000 0.0000000
vt 0.2521704 0.5672872
v -1.4514509 0.1238679 0.6750664
vn -1.0000000 0.0000000 0.0000000
vt 0.1796631 0.4574849
v -1.4514509 -0.5965154 0.6950429
vn -1.0000000 0.0000000 0.0000000
vt 0.1236500 0.4893768
v -1.2516510 -0.1488715 0.0861566
vn 1.0000000 0.0000000 0.0000000
vt 0.2377636 0.5135208
v -1.4514509 -0.4600388 0.1226678
vn -1.0000000 0.0000000 0.0000000
vt 0.1606393 0.5268136
v -1.4514509 -0.0441190 0.1111343
vn -1.0000000 0.0000000 0.0000000
vt 0.1929792 0.5084007
v -1.2516510 -0.3353095 0.8680347
vn 1.0000000 0.0000000 0.0000000
vt 0.2211283 0.5756051
v -1.4514509 -0.0241421 0.8315233
vn -1.0000000 0.0000000 0.0000000
vt 0.1610870 0.4523878
v -1.4514509 -0.4400621 0.8430566
vn -1.0000000 0.0000000 0.0000000
vt 0.1287473 0.4708010
v -1.4514509 -0.2536241 0.0611790
vn -1.0000000 0.0000000 0.0000000
vt 0.1792763 0.5219403
v -1.4514509 -0.2305569 0.8930125
vn -1.0000000 0.0000000 0.0000000
vt 0.1424503 0.4572616
v -1.2605970 -0.2426109 0.4782292
vn 0.2148272 -0.8929651 0.3955536
vt 0.0606029 0.6347926
v -1.5913590 -0.2990889 0.5303677
vn 0.2148272 -0.8929651 0.3955536
vt 0.0729376 0.6377837
v -1.5912679 -0.3220906 0.4783917
vn 0.2148272 -0.8929651 0.3955536
vt 0.0729344 0.6416869
v -1.2605970 -0.2426109 0.4782292
vn 0.2167829 0.3974723 0.8916395
vt 0.0606029 0.6347926
v -1.5913590 -0.1881016 0.5343477
vn 0.2167829 0.3974723 0.8916395
vt 0.0729376 0.6292786
v -1.5912679 -0.2420905 0.5583926
vn 0.2167829 0.3974723 0.8916395
vt 0.0729344 0.6333578
v -1.2605970 -0.2426109 0.4782292
vn 0.2157502 0.8868390 -0.4086178
vt 0.0606027 0.6320130
v -1.5913590 -0.1877225 0.4227136
vn 0.2157502 0.8868390 -0.4086178
vt 0.0729376 0.6292512
v -1.5912679 -0.1620906 0.4783917
vn 0.2157502 0.8868390 -0.4086178
vt 0.0729343 0.6249944
v -1.2605970 -0.2426109 0.4782292
vn 0.2123137 -0.4204932 -0.8821046
vt 0.0606027 0.6320130
v -1.5913590 -0.2976120 0.4248370
vn 0.2123137 -0.4204932 -0.8821046
vt 0.0729377 0.6376315
v -1.5912679 -0.2420905 0.3983922
vn 0.2123137 -0.4204932 -0.8821046
vt 0.0729343 0.6333718
v -1.5913590 -0.1881016 0.5343477
vn 0.2157827 0.8853165 0.4118890
vt 0.0729376 0.6292786
v -1.2605970 -0.2426109 0.4782292
vn 0.2157827 0.8853165 0.4118890
vt 0.0606029 0.6347926
v -1.5912679 -0.1620906 0.4783917
vn 0.2157827 0.8853165 0.4118890
vt 0.0729343 0.6249943
v -1.5913590 -0.2976120 0.4248370
vn 0.2133406 -0.8884216 -0.4064394
vt 0.0729377 0.6376315
v -1.2605970 -0.2426109 0.4782292
vn 0.2133406 -0.8884216 -0.4064394
vt 0.0606027 0.6320130
v -1.5912679 -0.3220906 0.4783917
vn 0.2133406 -0.8884216 -0.4064394
vt 0.0729344 0.6416868
v -1.5913590 -0.2990889 0.5303677
vn 0.2119008 -0.4314819 0.8768817
vt 0.0729376 0.6377837
v -1.2605970 -0.2426109 0.4782292
vn 0.2119008 -0.4314819 0.8768817
vt 0.0606029 0.6347926
v -1.5912679 -0.2420905 0.5583926
vn 0.2119008 -0.4314819 0.8768817
vt 0.0729344 0.6333578
v -1.5913590 -0.1877225 0.4227136
vn 0.2157953 0.3990298 -0.8911833
vt 0.0729376 0.6292512
v -1.2605970 -0.2426109 0.4782292
vn 0.2157953 0.3990298 -0.8911833
vt 0.0606027 0.6320130
v -1.5912679 -0.2420905 0.3983922
vn 0.2157953 0.3990298 -0.8911833
vt 0.0729343 0.6333718
v -1.5912679 -0.2420905 0.5583926
vn -0.9999939 -0.0001270 0.0035062
vt 0.1541310 0.5667764
v -1.5913590 -0.1881016 0.5343477
vn -0.9999996 0.0000000 0.0009525
vt 0.1583953 0.5632220
v -1.5913590 -0.2990889 0.5303677
vn -0.9999999 0.0000000 0.0004524
vt 0.1541310 0.5727422
v -1.5912679 -0.1620906 0.4783917
vn -0.9999998 0.0005767 -0.0002345
vt 0.1641899 0.5633485
v -1.5913590 -0.1877225 0.4227136
vn -0.9999999 0.0000000 -0.0004924
vt 0.1678208 0.5678167
v -1.5912679 -0.3220906 0.4783917
vn -0.9999998 -0.0005778 0.0002443
vt 0.1575589 0.5768352
v -1.5913590 -0.2976120 0.4248370
vn -0.9999996 0.0000000 -0.0009371
vt 0.1630876 0.5769914
v -1.5912679 -0.2420905 0.3983922
vn -0.9999936 0.0000000 -0.0035904
vt 0.1676177 0.5734074

g group_61486936_140627886231248
f 1/1/1 2/2/2 3/3/3 
f 4/4/4 5/5/5 6/6/6 
f 6/6/6 5/5/5 7/7/7 
f 8/8/8 9/9/9 10/10/10 
f 11/11/11 12/12/12 13/13/13 
f 13/13/13 12/12/12 14/14/14 
f 15/15/15 16/16/16 17/17/17 
f 18/18/18 19/19/19 20/20/20 
f 20/20/20 19/19/19 21/21/21 
f 22/22/22 23/23/23 24/24/24 
f 25/25/25 26/26/26 27/27/27 
f 27/27/27 26/26/26 28/28/28 
f 29/29/29 30/30/30 31/31/31 
f 32/32/32 33/33/33 34/34/34 
f 34/34/34 33/33/33 35/35/35 
f 36/36/36 37/37/37 38/38/38 
f 39/39/39 40/40/40 41/41/41 
f 41/41/41 40/40/40 42/42/42 
f 43/43/43 44/44/44 45/45/45 
f 46/46/46 47/47/47 48/48/48 
f 48/48/48 47/47/47 49/49/49 
f 43/43/43 45/45/45 50/50/50 
f 49/49/49 47/47/47 51/51/51 
f 51/51/51 47/47/47 52/52/52 
f 45/45/45 44/44/44 53/53/53 
f 46/46/46 48/48/48 54/54/54 
f 54/54/54 48/48/48 55/55/55 
f 43/43/43 50/50/50 56/56/56 
f 51/51/51 52/52/52 57/57/57 
f 57/57/57 52/52/52 58/58/58 
f 55/55/55 59/59/59 54/54/54 
f 58/58/58 60/60/60 57/57/57 
f 61/61/61 62/62/62 63/63/63 
f 64/64/64 65/65/65 66/66/66 
f 67/67/67 68/68/68 69/69/69 
f 70/70/70 71/71/71 72/72/72 
f 73/73/73 74/74/74 75/75/75 
f 76/76/76 77/77/77 78/78/78 
f 79/79/79 80/80/80 81/81/81 
f 82/82/82 83/83/83 84/84/84 
f 85/85/85 86/86/86 87/87/87 
f 86/86/86 88/88/88 87/87/87 
f 88/88/88 89/89/89 87/87/87 
f 87/87/87 89/89/89 90/90/90 
f 90/90/90 89/89/89 91/91/91 
f 89/89/89 92/92/92 91/91/91 
