v -1.1215039 0.8919621 0.4770959
vn 0.0000000 -0.9238753 0.3826936
vt 0.0528728 0.4997752
v -1.1215039 1.0138320 0.7713068
vn 0.0000000 -0.9238753 0.3826936
vt 0.0528728 0.4698412
v -1.2201940 0.8919621 0.4770959
vn 0.0000000 -0.9238753 0.3826936
vt 0.0594527 0.4997752
v -1.2201940 1.0138320 0.7713068
vn 0.0000000 -0.9238754 0.3826936
vt 0.0594527 0.4698412
v -1.1215039 1.0138320 0.7713068
vn 0.0000000 -0.3826841 0.9238793
vt 0.0528728 0.5596436
v -1.1215039 1.3080420 0.8931728
vn 0.0000000 -0.3826838 0.9238794
vt 0.0528728 0.5297093
v -1.2201940 1.0138320 0.7713068
vn 0.0000000 -0.3826838 0.9238794
vt 0.0594527 0.5596436
v -1.2201940 1.3080420 0.8931728
vn 0.0000000 -0.3826835 0.9238795
vt 0.0594527 0.5297093
v -1.1215039 1.3080420 0.8931728
vn 0.0000000 0.3826840 0.9238793
vt 0.0528728 0.5297093
v -1.1215039 1.6022520 0.7713068
vn 0.0000000 0.3826838 0.9238794
vt 0.0528728 0.4997752
v -1.2201940 1.3080420 0.8931728
vn 0.0000000 0.3826838 0.9238794
vt 0.0594527 0.5297093
v -1.2201940 1.6022520 0.7713068
vn 0.0000000 0.3826835 0.9238795
vt 0.0594527 0.4997752
v -1.1215039 1.6022520 0.7713068
vn 0.0000000 0.9238756 0.3826929
vt 0.0528728 0.4997752
v -1.1215039 1.7241220 0.4770959
vn 0.0000000 0.9238755 0.3826932
vt 0.0528728 0.4698412
v -1.2201940 1.6022520 0.7713068
vn 0.0000000 0.9238755 0.3826932
vt 0.0594527 0.4997752
v -1.2201940 1.7241220 0.4770959
vn 0.0000000 0.9238754 0.3826934
vt 0.0594527 0.4698411
v -1.1215039 1.7241220 0.4770959
vn 0.0000000 0.9238752 -0.3826939
vt 0.0528728 0.5596436
v -1.1215039 1.6022520 0.1828859
vn 0.0000000 0.9238751 -0.3826943
vt 0.0528728 0.5297093
v -1.2201940 1.7241220 0.4770959
vn 0.0000000 0.9238751 -0.3826943
vt 0.0594527 0.5596434
v -1.2201940 1.6022520 0.1828859
vn 0.0000000 0.9238750 -0.3826945
vt 0.0594527 0.5297093
v -1.1215039 1.6022520 0.1828859
vn 0.0000000 0.3826849 -0.9238790
vt 0.0528728 0.5297093
v -1.1215039 1.3080420 0.0610196
vn 0.0000000 0.3826848 -0.9238790
vt 0.0528728 0.4997752
v -1.2201940 1.6022520 0.1828859
vn 0.0000000 0.3826848 -0.9238790
vt 0.0594527 0.5297093
v -1.2201940 1.3080420 0.0610196
vn 0.0000000 0.3826846 -0.9238791
vt 0.0594527 0.4997752
v -1.1215039 1.3080420 0.0610196
vn 0.0000000 -0.3826849 -0.9238790
vt 0.0528728 0.5596436
v -1.1215039 1.0138320 0.1828859
vn 0.0000000 -0.3826849 -0.9238789
vt 0.0528728 0.5297093
v -1.2201940 1.3080420 0.0610196
vn 0.0000000 -0.3826849 -0.9238789
vt 0.0594527 0.5596436
v -1.2201940 1.0138320 0.1828859
vn 0.0000000 -0.3826851 -0.9238789
vt 0.0594527 0.5297093
v -1.1215039 1.0138320 0.1828859
vn 0.0000000 -0.9238749 -0.3826946
vt 0.0528728 0.5297093
v -1.1215039 0.8919621 0.4770959
vn 0.0000000 -0.9238749 -0.3826947
vt 0.0528728 0.4997752
v -1.2201940 1.0138320 0.1828859
vn 0.0000000 -0.9238749 -0.3826947
vt 0.0594527 0.5297093
v -1.2201940 0.8919621 0.4770959
vn 0.0000000 -0.9238748 -0.3826949
vt 0.0594527 0.4997752
v -1.1215039 0.8919621 0.4770959
vn 1.0000000 0.0000000 0.0000000
vt 0.1946945 0.5446105
v -1.1215039 1.0138320 0.1828859
vn 1.0000000 0.0000000 0.0000000
vt 0.2048574 0.5200751
v -1.1215039 1.7241220 0.4770959
vn 1.0000000 0.0000000 0.0000000
vt 0.2640902 0.5446105
v -1.1215039 1.6022520 0.1828859
vn 1.0000000 0.0000000 0.0000000
vt 0.2539272 0.5200761
v -1.2201940 1.0138320 0.1828859
vn -1.0000000 0.0000000 0.0000000
vt 0.2539269 0.5200753
v -1.2201940 0.8919621 0.4770959
vn -1.0000000 0.0000000 0.0000000
vt 0.2640897 0.5446103
v -1.2201940 1.6022520 0.1828859
vn -1.0000000 0.0000000 0.0000000
vt 0.2048574 0.5200753
v -1.2201940 1.7241220 0.4770959
vn -1.0000000 0.0000000 0.0000000
vt 0.1946946 0.5446103
v -1.1215039 1.0138320 0.7713068
vn 1.0000000 0.0000000 0.0000000
vt 0.2048574 0.5691449
v -1.1215039 1.6022520 0.7713068
vn 1.0000000 0.0000000 0.0000000
vt 0.2539272 0.5691449
v -1.2201940 1.6022520 0.7713068
vn -1.0000000 0.0000000 0.0000000
vt 0.2048575 0.5691454
v -1.2201940 1.0138320 0.7713068
vn -1.0000000 0.0000000 0.0000000
vt 0.2539270 0.5691454
v -1.1215039 1.3080420 0.0610196
vn 1.0000000 0.0000000 0.0000000
vt 0.2293919 0.5099130
v -1.2201940 1.3080420 0.0610196
vn -1.0000000 0.0000000 0.0000000
vt 0.2293919 0.5099131
v -1.1215039 1.3080420 0.8931728
vn 1.0000000 0.0000000 0.0000000
vt 0.2293919 0.5793077
v -1.2201940 1.3080420 0.8931728
vn -1.0000000 0.0000000 0.0000000
vt 0.2293919 0.5793077
v -1.5008260 1.3922610 0.8695985
vn 0.5090480 0.5805604 0.6354682
vt 0.0777957 0.3895156
v -1.5008260 1.6889770 0.5985213
vn 0.5090201 0.5805780 0.6354744
vt 0.0777957 0.4195861
v -1.5918760 1.4974329 0.8464503
vn 0.5090201 0.5805780 0.6354744
vt 0.0684879 0.3995394
v -1.5918760 1.6564400 0.7011751
vn 0.5089924 0.5805957 0.6354805
vt 0.0684879 0.4195861
v -1.5918760 1.6564400 0.7011751
vn 0.0000000 0.9532630 0.3021420
vt 0.0684879 0.3393987
v -1.5008260 1.6889770 0.5985213
vn 0.0000000 0.9532630 0.3021420
vt 0.0777957 0.3494220
v -1.5918760 1.7215140 0.4958675
vn 0.0000000 0.9532630 0.3021420
vt 0.0684879 0.3594453
v -1.5008260 1.6889770 0.5985213
vn 0.5090271 0.8406247 -0.1850449
vt 0.0777957 0.3494220
v -1.5008260 1.6025760 0.2060191
vn 0.5090278 0.8406240 -0.1850459
vt 0.0777957 0.3895158
v -1.5918760 1.7215140 0.4958675
vn 0.5090278 0.8406240 -0.1850459
vt 0.0684879 0.3594453
v -1.5918760 1.6752110 0.2855247
vn 0.5090286 0.8406233 -0.1850469
vt 0.0684879 0.3794920
v -1.5918760 1.6752110 0.2855247
vn 0.0000000 0.7382856 -0.6744883
vt 0.0684879 0.3794920
v -1.5008260 1.6025760 0.2060191
vn 0.0000000 0.7382856 -0.6744883
vt 0.0777957 0.3895158
v -1.5918760 1.5299410 0.1265136
vn 0.0000000 0.7382856 -0.6744883
vt 0.0684879 0.3995396
v -1.5008260 1.6025760 0.2060191
vn 0.5090283 0.2600581 -0.8205242
vt 0.0777957 0.3895158
v -1.5008260 1.2194591 0.0845940
vn 0.5090157 0.2600547 -0.8205331
vt 0.0777957 0.4195863
v -1.5918760 1.5299410 0.1265136
vn 0.5090157 0.2600547 -0.8205331
vt 0.0684879 0.3995396
v -1.5918760 1.3246320 0.0614456
vn 0.5090032 0.2600513 -0.8205420
vt 0.0684879 0.4195863
v -1.5918760 1.3246320 0.0614456
vn 0.0000000 -0.2149547 -0.9766240
vt 0.0684879 0.3393989
v -1.5008260 1.2194591 0.0845940
vn 0.0000000 -0.2149547 -0.9766240
vt 0.0777957 0.3494221
v -1.5918760 1.1142870 0.1077424
vn 0.0000000 -0.2149547 -0.9766240
vt 0.0684879 0.3594454
v -1.5008260 1.2194591 0.0845940
vn 0.5090477 -0.5805601 -0.6354687
vt 0.0777957 0.3494221
v -1.5008260 0.9227432 0.3556712
vn 0.5090197 -0.5805787 -0.6354741
vt 0.0777957 0.3895158
v -1.5918760 1.1142870 0.1077424
vn 0.5090197 -0.5805787 -0.6354741
vt 0.0684879 0.3594454
v -1.5918760 0.9552804 0.2530171
vn 0.5089918 -0.5805972 -0.6354796
vt 0.0684879 0.3794920
v -1.5918760 0.9552804 0.2530171
vn 0.0000000 -0.9532618 -0.3021457
vt 0.0684879 0.3794920
v -1.5008260 0.9227432 0.3556712
vn 0.0000000 -0.9532618 -0.3021457
vt 0.0777957 0.3895158
v -1.5918760 0.8902061 0.4583252
vn 0.0000000 -0.9532618 -0.3021457
vt 0.0684879 0.3995397
v -1.5008260 0.9227432 0.3556712
vn 0.5090303 -0.8406227 0.1850449
vt 0.0777957 0.3895158
v -1.5008260 1.0091439 0.7481734
vn 0.5090274 -0.8406241 0.1850469
vt 0.0777957 0.4195864
v -1.5918760 0.8902061 0.4583252
vn 0.5090274 -0.8406241 0.1850469
vt 0.0684879 0.3995397
v -1.5918760 0.9365092 0.6686677
vn 0.5090244 -0.8406254 0.1850490
vt 0.0684879 0.4195864
v -1.5918760 0.9365092 0.6686677
vn 0.0000000 -0.7382871 0.6744867
vt 0.0684879 0.3393986
v -1.5008260 1.0091439 0.7481734
vn 0.0000000 -0.7382871 0.6744867
vt 0.0777957 0.3494219
v -1.5918760 1.0817790 0.8276791
vn 0.0000000 -0.7382871 0.6744867
vt 0.0684879 0.3594451
v -1.5008260 1.0091439 0.7481734
vn 0.5090314 -0.2600577 0.8205225
vt 0.0777957 0.3494219
v -1.5008260 1.3922610 0.8695985
vn 0.5090138 -0.2600538 0.8205346
vt 0.0777957 0.3895156
v -1.5918760 1.0817790 0.8276791
vn 0.5090138 -0.2600538 0.8205346
vt 0.0684879 0.3594451
v -1.5918760 1.2870890 0.8927467
vn 0.5089962 -0.2600498 0.8205467
vt 0.0684879 0.3794917
v -1.5918760 1.2870890 0.8927467
vn 0.0000000 0.2149528 0.9766245
vt 0.0684879 0.3794917
v -1.5008260 1.3922610 0.8695985
vn 0.0000000 0.2149528 0.9766245
vt 0.0777957 0.3895156
v -1.5918760 1.4974329 0.8464503
vn 0.0000000 0.2149528 0.9766245
vt 0.0684879 0.3995394
v -1.5008260 1.2194591 0.0845940
vn 1.0000000 0.0000000 0.0000000
vt 0.1970556 0.5796033
v -1.5008260 1.3922610 0.8695985
vn 1.0000000 0.0000000 0.0000000
vt 0.1247891 0.5602396
v -1.5008260 0.9227432 0.3556712
vn 1.0000000 0.0000000 0.0000000
vt 0.1873734 0.5434699
v -1.5918760 1.2870890 0.8927467
vn -1.0000000 0.0000000 0.0000000
vt 0.1865835 0.5409168
v -1.5918760 1.4974329 0.8464503
vn -1.0000000 0.0000000 0.0000000
vt 0.1976483 0.5576327
v -1.5918760 0.9552804 0.2530171
vn -1.0000000 0.0000000 0.0000000
vt 0.1229716 0.5622000
v -1.5918760 1.1142870 0.1077424
vn -1.0000000 0.0000000 0.0000000
vt 0.1241959 0.5822097
v -1.5008260 1.6889770 0.5985213
vn 1.0000000 0.0000000 0.0000000
vt 0.1344707 0.5963731
v -1.5918760 1.3246320 0.0614456
vn -1.0000000 0.0000000 0.0000000
vt 0.1352606 0.5989267
v -1.5918760 1.6564400 0.7011751
vn -1.0000000 0.0000000 0.0000000
vt 0.1988725 0.5776424
v -1.5008260 1.0091439 0.7481734
vn 1.0000000 0.0000000 0.0000000
vt 0.1512399 0.5337882
v -1.5918760 1.0817790 0.8276791
vn -1.0000000 0.0000000 0.0000000
vt 0.1686433 0.5319718
v -1.5918760 0.8902061 0.4583252
vn -1.0000000 0.0000000 0.0000000
vt 0.1319166 0.5442598
v -1.5008260 1.6025760 0.2060191
vn 1.0000000 0.0000000 0.0000000
vt 0.1706037 0.6060553
v -1.5918760 1.5299410 0.1265136
vn -1.0000000 0.0000000 0.0000000
vt 0.1532008 0.6078717
v -1.5918760 1.7215140 0.4958675
vn -1.0000000 0.0000000 0.0000000
vt 0.1899275 0.5955837
v -1.5918760 0.9365092 0.6686677
vn -1.0000000 0.0000000 0.0000000
vt 0.1486336 0.5331950
v -1.5918760 1.6752110 0.2855247
vn -1.0000000 0.0000000 0.0000000
vt 0.1732106 0.6066474

g group_61454496_140627860529248
f 1/1/1 2/2/2 3/3/3 
f 3/3/3 2/2/2 4/4/4 
f 5/5/5 6/6/6 7/7/7 
f 7/7/7 6/6/6 8/8/8 
f 9/9/9 10/10/10 11/11/11 
f 11/11/11 10/10/10 12/12/12 
f 13/13/13 14/14/14 15/15/15 
f 15/15/15 14/14/14 16/16/16 
f 17/17/17 18/18/18 19/19/19 
f 19/19/19 18/18/18 20/20/20 
f 21/21/21 22/22/22 23/23/23 
f 23/23/23 22/22/22 24/24/24 
f 25/25/25 26/26/26 27/27/27 
f 27/27/27 26/26/26 28/28/28 
f 29/29/29 30/30/30 31/31/31 
f 31/31/31 30/30/30 32/32/32 
f 33/33/33 34/34/34 35/35/35 
f 35/35/35 34/34/34 36/36/36 
f 37/37/37 38/38/38 39/39/39 
f 39/39/39 38/38/38 40/40/40 
f 33/33/33 35/35/35 41/41/41 
f 41/41/41 35/35/35 42/42/42 
f 40/40/40 38/38/38 43/43/43 
f 43/43/43 38/38/38 44/44/44 
f 34/34/34 45/45/45 36/36/36 
f 39/39/39 46/46/46 37/37/37 
f 42/42/42 47/47/47 41/41/41 
f 44/44/44 48/48/48 43/43/43 
f 49/49/49 50/50/50 51/51/51 
f 51/51/51 50/50/50 52/52/52 
f 53/53/53 54/54/54 55/55/55 
f 56/56/56 57/57/57 58/58/58 
f 58/58/58 57/57/57 59/59/59 
f 60/60/60 61/61/61 62/62/62 
f 63/63/63 64/64/64 65/65/65 
f 65/65/65 64/64/64 66/66/66 
f 67/67/67 68/68/68 69/69/69 
f 70/70/70 71/71/71 72/72/72 
f 72/72/72 71/71/71 73/73/73 
f 74/74/74 75/75/75 76/76/76 
f 77/77/77 78/78/78 79/79/79 
f 79/79/79 78/78/78 80/80/80 
f 81/81/81 82/82/82 83/83/83 
f 84/84/84 85/85/85 86/86/86 
f 86/86/86 85/85/85 87/87/87 
f 88/88/88 89/89/89 90/90/90 
f 91/91/91 92/92/92 93/93/93 
f 94/94/94 95/95/95 96/96/96 
f 96/96/96 95/95/95 97/97/97 
f 92/92/92 91/91/91 98/98/98 
f 97/97/97 95/95/95 99/99/99 
f 99/99/99 95/95/95 100/100/100 
f 93/93/93 92/92/92 101/101/101 
f 94/94/94 96/96/96 102/102/102 
f 102/102/102 96/96/96 103/103/103 
f 98/98/98 91/91/91 104/104/104 
f 99/99/99 100/100/100 105/105/105 
f 105/105/105 100/100/100 106/106/106 
f 103/103/103 107/107/107 102/102/102 
f 106/106/106 108/108/108 105/105/105 
