v -1.1215039 -2.0616710 0.7885182
vn 0.0000000 -0.3239941 0.9460591
vt 0.0528728 0.4997752
v -1.1215039 -1.7603960 0.8916953
vn 0.0000000 -0.3239945 0.9460590
vt 0.0528728 0.4698412
v -1.2201940 -2.0616710 0.7885182
vn 0.0000000 -0.3239945 0.9460590
vt 0.0594527 0.4997752
v -1.2201940 -1.7603960 0.8916953
vn 0.0000000 -0.3239948 0.9460589
vt 0.0594527 0.4698412
v -1.1215039 -1.7603960 0.8916953
vn 0.0000000 0.4398553 0.8980687
vt 0.0528728 0.5596436
v -1.1215039 -1.4744051 0.7516230
vn 0.0000000 0.4398552 0.8980687
vt 0.0528728 0.5297093
v -1.2201940 -1.7603960 0.8916953
vn 0.0000000 0.4398552 0.8980687
vt 0.0594527 0.5596436
v -1.2201940 -1.4744051 0.7516230
vn 0.0000000 0.4398549 0.8980688
vt 0.0594527 0.5297093
v -1.1215039 -1.4744051 0.7516230
vn 0.0000000 0.9460558 0.3240039
vt 0.0528728 0.5297093
v -1.1215039 -1.3712260 0.4503508
vn 0.0000000 0.9460555 0.3240045
vt 0.0528728 0.4997752
v -1.2201940 -1.4744051 0.7516230
vn 0.0000000 0.9460555 0.3240045
vt 0.0594527 0.5297093
v -1.2201940 -1.3712260 0.4503508
vn 0.0000000 0.9460554 0.3240051
vt 0.0594527 0.4997752
v -1.1215039 -1.3712260 0.4503508
vn 0.0000000 0.8980729 -0.4398467
vt 0.0528728 0.4997752
v -1.1215039 -1.5112960 0.1643568
vn 0.0000000 0.8980729 -0.4398467
vt 0.0528728 0.4698412
v -1.2201940 -1.3712260 0.4503508
vn 0.0000000 0.8980729 -0.4398467
vt 0.0594527 0.4997752
v -1.2201940 -1.5112960 0.1643568
vn 0.0000000 0.8980729 -0.4398467
vt 0.0594527 0.4698411
v -1.1215039 -1.5112960 0.1643568
vn 0.0000000 0.3239948 -0.9460589
vt 0.0528728 0.5596436
v -1.1215039 -1.8125710 0.0611802
vn 0.0000000 0.3239942 -0.9460591
vt 0.0528728 0.5297093
v -1.2201940 -1.5112960 0.1643568
vn 0.0000000 0.3239942 -0.9460591
vt 0.0594527 0.5596434
v -1.2201940 -1.8125710 0.0611802
vn 0.0000000 0.3239937 -0.9460593
vt 0.0594527 0.5297093
v -1.1215039 -1.8125710 0.0611802
vn 0.0000000 -0.4398553 -0.8980687
vt 0.0528728 0.5297093
v -1.1215039 -2.0985620 0.2012524
vn 0.0000000 -0.4398550 -0.8980688
vt 0.0528728 0.4997752
v -1.2201940 -1.8125710 0.0611802
vn 0.0000000 -0.4398550 -0.8980688
vt 0.0594527 0.5297093
v -1.2201940 -2.0985620 0.2012524
vn 0.0000000 -0.4398547 -0.8980690
vt 0.0594527 0.4997752
v -1.1215039 -2.0985620 0.2012524
vn 0.0000000 -0.9460555 -0.3240046
vt 0.0528728 0.5596436
v -1.1215039 -2.2017410 0.5025247
vn 0.0000000 -0.9460559 -0.3240034
vt 0.0528728 0.5297093
v -1.2201940 -2.0985620 0.2012524
vn 0.0000000 -0.9460559 -0.3240034
vt 0.0594527 0.5596436
v -1.2201940 -2.2017410 0.5025247
vn 0.0000000 -0.9460563 -0.3240023
vt 0.0594527 0.5297093
v -1.1215039 -2.2017410 0.5025247
vn 0.0000000 -0.8980739 0.4398448
vt 0.0528728 0.5297093
v -1.1215039 -2.0616710 0.7885182
vn 0.0000000 -0.8980737 0.4398451
vt 0.0528728 0.4997752
v -1.2201940 -2.2017410 0.5025247
vn 0.0000000 -0.8980737 0.4398451
vt 0.0594527 0.5297093
v -1.2201940 -2.0616710 0.7885182
vn 0.0000000 -0.8980735 0.4398455
vt 0.0594527 0.4997752
v -1.1215039 -2.0616710 0.7885182
vn 1.0000000 0.0000000 0.0000000
vt 0.1946945 0.5446105
v -1.1215039 -2.2017410 0.5025247
vn 1.0000000 0.0000000 0.0000000
vt 0.2048574 0.5200751
v -1.1215039 -1.5112960 0.1643568
vn 1.0000000 0.0000000 0.0000000
vt 0.2640902 0.5446105
v -1.1215039 -1.8125710 0.0611802
vn 1.0000000 0.0000000 0.0000000
vt 0.2539272 0.5200761
v -1.2201940 -2.2017410 0.5025247
vn -1.0000000 0.0000000 0.0000000
vt 0.2539269 0.5200753
v -1.2201940 -2.0616710 0.7885182
vn -1.0000000 0.0000000 0.0000000
vt 0.2640897 0.5446103
v -1.2201940 -1.8125710 0.0611802
vn -1.0000000 0.0000000 0.0000000
vt 0.2048574 0.5200753
v -1.2201940 -1.5112960 0.1643568
vn -1.0000000 0.0000000 0.0000000
vt 0.1946946 0.5446103
v -1.1215039 -1.7603960 0.8916953
vn 1.0000000 0.0000000 0.0000000
vt 0.2048574 0.5691449
v -1.1215039 -1.3712260 0.4503508
vn 1.0000000 0.0000000 0.0000000
vt 0.2539272 0.5691449
v -1.2201940 -1.3712260 0.4503508
vn -1.0000000 0.0000000 0.0000000
vt 0.2048575 0.5691454
v -1.2201940 -1.7603960 0.8916953
vn -1.0000000 0.0000000 0.0000000
vt 0.2539270 0.5691454
v -1.1215039 -2.0985620 0.2012524
vn 1.0000000 0.0000000 0.0000000
vt 0.2293919 0.5099130
v -1.2201940 -2.0985620 0.2012524
vn -1.0000000 0.0000000 0.0000000
vt 0.2293919 0.5099131
v -1.1215039 -1.4744051 0.7516230
vn 1.0000000 0.0000000 0.0000000
vt 0.2293919 0.5793077
v -1.2201940 -1.4744051 0.7516230
vn -1.0000000 0.0000000 0.0000000
vt 0.2293919 0.5793077
v -1.5008260 -1.4363860 0.6728629
vn 0.5090464 0.8606056 -0.0151607
vt 0.0777957 0.3895156
v -1.5008260 -1.4434650 0.2710257
vn 0.5090199 0.8606211 -0.0151718
vt 0.0777957 0.4195861
v -1.5918760 -1.3841900 0.5786689
vn 0.5090199 0.8606211 -0.0151718
vt 0.0684879 0.3995394
v -1.5918760 -1.3879890 0.3633231
vn 0.5089934 0.8606366 -0.0151829
vt 0.0684879 0.4195861
v -1.5918760 -1.3879890 0.3633231
vn 0.0000000 0.8570915 -0.5151643
vt 0.0684879 0.3393987
v -1.5008260 -1.4434650 0.2710257
vn 0.0000000 0.8570915 -0.5151643
vt 0.0777957 0.3494220
v -1.5918760 -1.4989409 0.1787282
vn 0.0000000 0.8570915 -0.5151643
vt 0.0684879 0.3594453
v -1.5008260 -1.4434650 0.2710257
vn 0.5090275 0.4171807 -0.7528953
vt 0.0777957 0.3494220
v -1.5008260 -1.7950050 0.0762372
vn 0.5090274 0.4171800 -0.7528957
vt 0.0777957 0.3895158
v -1.5918760 -1.4989409 0.1787282
vn 0.5090274 0.4171800 -0.7528957
vt 0.0684879 0.3594453
v -1.5918760 -1.6873330 0.0743407
vn 0.5090275 0.4171793 -0.7528961
vt 0.0684879 0.3794920
v -1.5918760 -1.6873330 0.0743407
vn 0.0000000 -0.0176113 -0.9998449
vt 0.0684879 0.3794920
v -1.5008260 -1.7950050 0.0762372
vn 0.0000000 -0.0176113 -0.9998449
vt 0.0777957 0.3895158
v -1.5918760 -1.9026780 0.0781338
vn 0.0000000 -0.0176113 -0.9998449
vt 0.0684879 0.3995396
v -1.5008260 -1.7950050 0.0762372
vn 0.5090293 -0.4434372 -0.7377349
vt 0.0777957 0.3895158
v -1.5008260 -2.1394670 0.2832855
vn 0.5090160 -0.4434448 -0.7377394
vt 0.0777957 0.4195863
v -1.5918760 -1.9026780 0.0781338
vn 0.5090160 -0.4434448 -0.7377394
vt 0.0684879 0.3995396
v -1.5918760 -2.0872700 0.1890911
vn 0.5090026 -0.4434526 -0.7377440
vt 0.0684879 0.4195863
v -1.5918760 -2.0872700 0.1890911
vn 0.0000000 -0.8746842 -0.4846933
vt 0.0684879 0.3393989
v -1.5008260 -2.1394670 0.2832855
vn 0.0000000 -0.8746842 -0.4846933
vt 0.0777957 0.3494221
v -1.5918760 -2.1916630 0.3774800
vn 0.0000000 -0.8746842 -0.4846933
vt 0.0684879 0.3594454
v -1.5008260 -2.1394670 0.2832855
vn 0.5090463 -0.8606057 0.0151607
vt 0.0777957 0.3494221
v -1.5008260 -2.1323881 0.6851228
vn 0.5090188 -0.8606217 0.0151723
vt 0.0777957 0.3895158
v -1.5918760 -2.1916630 0.3774800
vn 0.5090188 -0.8606217 0.0151723
vt 0.0684879 0.3594454
v -1.5918760 -2.1878641 0.5928249
vn 0.5089913 -0.8606378 0.0151840
vt 0.0684879 0.3794920
v -1.5918760 -2.1878641 0.5928249
vn 0.0000000 -0.8570933 0.5151613
vt 0.0684879 0.3794920
v -1.5008260 -2.1323881 0.6851228
vn 0.0000000 -0.8570933 0.5151613
vt 0.0777957 0.3895158
v -1.5918760 -2.0769119 0.7774207
vn 0.0000000 -0.8570933 0.5151613
vt 0.0684879 0.3995397
v -1.5008260 -2.1323881 0.6851228
vn 0.5090297 -0.4171799 0.7528942
vt 0.0777957 0.3895158
v -1.5008260 -1.7808470 0.8799113
vn 0.5090268 -0.4171791 0.7528967
vt 0.0777957 0.4195864
v -1.5918760 -2.0769119 0.7774207
vn 0.5090268 -0.4171791 0.7528967
vt 0.0684879 0.3995397
v -1.5918760 -1.8885200 0.8818076
vn 0.5090238 -0.4171782 0.7528990
vt 0.0684879 0.4195864
v -1.5918760 -1.8885200 0.8818076
vn 0.0000000 0.0176085 0.9998450
vt 0.0684879 0.3393986
v -1.5008260 -1.7808470 0.8799113
vn 0.0000000 0.0176085 0.9998450
vt 0.0777957 0.3494219
v -1.5918760 -1.6731750 0.8780151
vn 0.0000000 0.0176085 0.9998450
vt 0.0684879 0.3594451
v -1.5008260 -1.7808470 0.8799113
vn 0.5090313 0.4434378 0.7377331
vt 0.0777957 0.3494219
v -1.5008260 -1.4363860 0.6728629
vn 0.5090135 0.4434476 0.7377394
vt 0.0777957 0.3895156
v -1.5918760 -1.6731750 0.8780151
vn 0.5090135 0.4434476 0.7377394
vt 0.0684879 0.3594451
v -1.5918760 -1.4885830 0.7670567
vn 0.5089956 0.4434575 0.7377458
vt 0.0684879 0.3794917
v -1.5918760 -1.4885830 0.7670567
vn 0.0000000 0.8746825 0.4846964
vt 0.0684879 0.3794917
v -1.5008260 -1.4363860 0.6728629
vn 0.0000000 0.8746825 0.4846964
vt 0.0777957 0.3895156
v -1.5918760 -1.3841900 0.5786689
vn 0.0000000 0.8746825 0.4846964
vt 0.0684879 0.3995394
v -1.5008260 -2.1394670 0.2832855
vn 1.0000000 0.0000000 0.0000000
vt 0.1970556 0.5796033
v -1.5008260 -1.4363860 0.6728629
vn 1.0000000 0.0000000 0.0000000
vt 0.1247891 0.5602396
v -1.5008260 -2.1323881 0.6851228
vn 1.0000000 0.0000000 0.0000000
vt 0.1873734 0.5434699
v -1.5918760 -1.4885830 0.7670567
vn -1.0000000 0.0000000 0.0000000
vt 0.1865835 0.5409168
v -1.5918760 -1.3841900 0.5786689
vn -1.0000000 0.0000000 0.0000000
vt 0.1976483 0.5576327
v -1.5918760 -2.1878641 0.5928249
vn -1.0000000 0.0000000 0.0000000
vt 0.1229716 0.5622000
v -1.5918760 -2.1916630 0.3774800
vn -1.0000000 0.0000000 0.0000000
vt 0.1241959 0.5822097
v -1.5008260 -1.4434650 0.2710257
vn 1.0000000 0.0000000 0.0000000
vt 0.1344707 0.5963731
v -1.5918760 -2.0872700 0.1890911
vn -1.0000000 0.0000000 0.0000000
vt 0.1352606 0.5989267
v -1.5918760 -1.3879890 0.3633231
vn -1.0000000 0.0000000 0.0000000
vt 0.1988725 0.5776424
v -1.5008260 -1.7808470 0.8799113
vn 1.0000000 0.0000000 0.0000000
vt 0.1512399 0.5337882
v -1.5918760 -1.6731750 0.8780151
vn -1.0000000 0.0000000 0.0000000
vt 0.1686433 0.5319718
v -1.5918760 -2.0769119 0.7774207
vn -1.0000000 0.0000000 0.0000000
vt 0.1319166 0.5442598
v -1.5008260 -1.7950050 0.0762372
vn 1.0000000 0.0000000 0.0000000
vt 0.1706037 0.6060553
v -1.5918760 -1.9026780 0.0781338
vn -1.0000000 0.0000000 0.0000000
vt 0.1532008 0.6078717
v -1.5918760 -1.4989409 0.1787282
vn -1.0000000 0.0000000 0.0000000
vt 0.1899275 0.5955837
v -1.5918760 -1.8885200 0.8818076
vn -1.0000000 0.0000000 0.0000000
vt 0.1486336 0.5331950
v -1.5918760 -1.6873330 0.0743407
vn -1.0000000 0.0000000 0.0000000
vt 0.1732106 0.6066474

g group_26251104_140627883521792
f 1/1/1 2/2/2 3/3/3 
f 3/3/3 2/2/2 4/4/4 
f 5/5/5 6/6/6 7/7/7 
f 7/7/7 6/6/6 8/8/8 
f 9/9/9 10/10/10 11/11/11 
f 11/11/11 10/10/10 12/12/12 
f 13/13/13 14/14/14 15/15/15 
f 15/15/15 14/14/14 16/16/16 
f 17/17/17 18/18/18 19/19/19 
f 19/19/19 18/18/18 20/20/20 
f 21/21/21 22/22/22 23/23/23 
f 23/23/23 22/22/22 24/24/24 
f 25/25/25 26/26/26 27/27/27 
f 27/27/27 26/26/26 28/28/28 
f 29/29/29 30/30/30 31/31/31 
f 31/31/31 30/30/30 32/32/32 
f 33/33/33 34/34/34 35/35/35 
f 35/35/35 34/34/34 36/36/36 
f 37/37/37 38/38/38 39/39/39 
f 39/39/39 38/38/38 40/40/40 
f 33/33/33 35/35/35 41/41/41 
f 41/41/41 35/35/35 42/42/42 
f 40/40/40 38/38/38 43/43/43 
f 43/43/43 38/38/38 44/44/44 
f 34/34/34 45/45/45 36/36/36 
f 39/39/39 46/46/46 37/37/37 
f 42/42/42 47/47/47 41/41/41 
f 44/44/44 48/48/48 43/43/43 
f 49/49/49 50/50/50 51/51/51 
f 51/51/51 50/50/50 52/52/52 
f 53/53/53 54/54/54 55/55/55 
f 56/56/56 57/57/57 58/58/58 
f 58/58/58 57/57/57 59/59/59 
f 60/60/60 61/61/61 62/62/62 
f 63/63/63 64/64/64 65/65/65 
f 65/65/65 64/64/64 66/66/66 
f 67/67/67 68/68/68 69/69/69 
f 70/70/70 71/71/71 72/72/72 
f 72/72/72 71/71/71 73/73/73 
f 74/74/74 75/75/75 76/76/76 
f 77/77/77 78/78/78 79/79/79 
f 79/79/79 78/78/78 80/80/80 
f 81/81/81 82/82/82 83/83/83 
f 84/84/84 85/85/85 86/86/86 
f 86/86/86 85/85/85 87/87/87 
f 88/88/88 89/89/89 90/90/90 
f 91/91/91 92/92/92 93/93/93 
f 94/94/94 95/95/95 96/96/96 
f 96/96/96 95/95/95 97/97/97 
f 92/92/92 91/91/91 98/98/98 
f 97/97/97 95/95/95 99/99/99 
f 99/99/99 95/95/95 100/100/100 
f 93/93/93 92/92/92 101/101/101 
f 94/94/94 96/96/96 102/102/102 
f 102/102/102 96/96/96 103/103/103 
f 98/98/98 91/91/91 104/104/104 
f 99/99/99 100/100/100 105/105/105 
f 105/105/105 100/100/100 106/106/106 
f 103/103/103 107/107/107 102/102/102 
f 106/106/106 108/108/108 105/105/105 
