v -1.2516510 0.4581077 0.7381642
vn 0.0000000 -0.7602694 0.6496080
vt 0.0704575 0.5490670
v -1.4514509 0.5280638 0.8200375
vn 0.0000000 -0.7602694 0.6496080
vt 0.0536318 0.5604985
v -1.4514509 0.3881516 0.6562912
vn 0.0000000 -0.7602694 0.6496080
vt 0.0536318 0.5376355
v -1.2516510 0.4581077 0.7381642
vn 0.2601988 -0.3221431 0.9102310
vt 0.0704575 0.4690452
v -1.2516510 0.8369785 0.8722519
vn 0.2602065 -0.3221478 0.9102271
vt 0.0704575 0.5033399
v -1.4514509 0.5280638 0.8200375
vn 0.2602065 -0.3221478 0.9102271
vt 0.0536318 0.4690452
v -1.4514509 0.7310959 0.8918959
vn 0.2602142 -0.3221523 0.9102233
vt 0.0536318 0.4919083
v -1.2516510 0.8369785 0.8722519
vn 0.0000000 0.1824146 0.9832217
vt 0.0704575 0.5033399
v -1.4514509 0.9428610 0.8526077
vn 0.0000000 0.1824146 0.9832217
vt 0.0536318 0.5147715
v -1.4514509 0.7310959 0.8918959
vn 0.0000000 0.1824146 0.9832217
vt 0.0536318 0.4919083
v -1.2516510 0.8369785 0.8722519
vn 0.2602093 0.6272091 0.7340981
vt 0.0704575 0.5033399
v -1.2516510 1.1425380 0.6111836
vn 0.2602093 0.6272092 0.7340978
vt 0.0704575 0.5490674
v -1.4514509 0.9428610 0.8526077
vn 0.2602093 0.6272092 0.7340978
vt 0.0536318 0.5147715
v -1.4514509 1.1066110 0.7127007
vn 0.2602093 0.6272094 0.7340977
vt 0.0536318 0.5376357
v -1.2516510 1.1425380 0.6111836
vn 0.0000000 0.9427069 0.3336222
vt 0.0704575 0.5490674
v -1.4514509 1.1784641 0.5096667
vn 0.0000000 0.9427069 0.3336222
vt 0.0536318 0.5604987
v -1.4514509 1.1066110 0.7127007
vn 0.0000000 0.9427069 0.3336222
vt 0.0536318 0.5376357
v -1.2516510 1.1425380 0.6111836
vn 0.2601975 0.9493552 -0.1761303
vt 0.0704575 0.4690453
v -1.2516510 1.0692260 0.2160272
vn 0.2602144 0.9493529 -0.1761178
vt 0.0704575 0.5033399
v -1.4514509 1.1784641 0.5096667
vn 0.2602144 0.9493529 -0.1761178
vt 0.0536317 0.4690454
v -1.4514509 1.1391820 0.2978999
vn 0.2602313 0.9493507 -0.1761053
vt 0.0536318 0.4919083
v -1.2516510 1.0692260 0.2160272
vn 0.0000000 0.7602690 -0.6496084
vt 0.0704575 0.5033399
v -1.4514509 0.9992700 0.1341545
vn 0.0000000 0.7602690 -0.6496084
vt 0.0536318 0.5147715
v -1.4514509 1.1391820 0.2978999
vn 0.0000000 0.7602690 -0.6496084
vt 0.0536318 0.4919083
v -1.2516510 1.0692260 0.2160272
vn 0.2601964 0.3221441 -0.9102314
vt 0.0704575 0.5033399
v -1.2516510 0.6903550 0.0819392
vn 0.2602067 0.3221502 -0.9102262
vt 0.0704575 0.5490675
v -1.4514509 0.9992700 0.1341545
vn 0.2602067 0.3221502 -0.9102262
vt 0.0536318 0.5147715
v -1.4514509 0.7962375 0.0622949
vn 0.2602170 0.3221563 -0.9102211
vt 0.0536318 0.5376359
v -1.2516510 0.6903550 0.0819392
vn 0.0000000 -0.1824182 -0.9832211
vt 0.0704575 0.5490675
v -1.4514509 0.5844727 0.1015839
vn 0.0000000 -0.1824182 -0.9832211
vt 0.0536318 0.5604991
v -1.4514509 0.7962375 0.0622949
vn 0.0000000 -0.1824182 -0.9832211
vt 0.0536318 0.5376359
v -1.2516510 0.6903550 0.0819392
vn 0.2602075 -0.6272101 -0.7340978
vt 0.0704575 0.4690450
v -1.2516510 0.3847961 0.3430078
vn 0.2602102 -0.6272088 -0.7340980
vt 0.0704575 0.5033396
v -1.4514509 0.5844727 0.1015839
vn 0.2602102 -0.6272088 -0.7340980
vt 0.0536318 0.4690450
v -1.4514509 0.4207226 0.2414903
vn 0.2602130 -0.6272074 -0.7340982
vt 0.0536318 0.4919080
v -1.2516510 0.3847961 0.3430078
vn 0.0000000 -0.9427079 -0.3336194
vt 0.0704575 0.5033396
v -1.4514509 0.3488696 0.4445253
vn 0.0000000 -0.9427079 -0.3336194
vt 0.0536318 0.5147712
v -1.4514509 0.4207226 0.2414903
vn 0.0000000 -0.9427079 -0.3336194
vt 0.0536318 0.4919080
v -1.2516510 0.3847961 0.3430078
vn 0.2601968 -0.9493556 0.1761295
vt 0.0704575 0.5033396
v -1.2516510 0.4581077 0.7381642
vn 0.2602155 -0.9493530 0.1761157
vt 0.0704575 0.5490670
v -1.4514509 0.3488696 0.4445253
vn 0.2602155 -0.9493530 0.1761157
vt 0.0536318 0.5147712
v -1.4514509 0.3881516 0.6562912
vn 0.2602343 -0.9493505 0.1761020
vt 0.0536318 0.5376355
v -1.2516510 0.4581077 0.7381642
vn 1.0000000 0.0000000 0.0000000
vt 0.1984044 0.5528804
v -1.2516510 0.3847961 0.3430078
vn 1.0000000 0.0000000 0.0000000
vt 0.2067219 0.5218383
v -1.2516510 1.0692260 0.2160272
vn 1.0000000 0.0000000 0.0000000
vt 0.2604883 0.5362450
v -1.4514509 0.3488696 0.4445253
vn -1.0000000 0.0000000 0.0000000
vt 0.1420632 0.5217161
v -1.4514509 0.3881516 0.6562912
vn -1.0000000 0.0000000 0.0000000
vt 0.1285237 0.5080141
v -1.4514509 0.9992700 0.1341545
vn -1.0000000 0.0000000 0.0000000
vt 0.1980763 0.4898244
v -1.4514509 1.1391820 0.2978999
vn -1.0000000 0.0000000 0.0000000
vt 0.1932030 0.4711880
v -1.2516510 1.1425380 0.6111836
vn 1.0000000 0.0000000 0.0000000
vt 0.2521704 0.5672872
v -1.4514509 1.1784641 0.5096667
vn -1.0000000 0.0000000 0.0000000
vt 0.1796631 0.4574849
v -1.4514509 0.5280638 0.8200375
vn -1.0000000 0.0000000 0.0000000
vt 0.1236500 0.4893768
v -1.2516510 0.6903550 0.0819392
vn 1.0000000 0.0000000 0.0000000
vt 0.2377636 0.5135208
v -1.4514509 0.4207226 0.2414903
vn -1.0000000 0.0000000 0.0000000
vt 0.1606393 0.5268136
v -1.4514509 0.7962375 0.0622949
vn -1.0000000 0.0000000 0.0000000
vt 0.1929792 0.5084007
v -1.2516510 0.8369785 0.8722519
vn 1.0000000 0.0000000 0.0000000
vt 0.2211283 0.5756051
v -1.4514509 1.1066110 0.7127007
vn -1.0000000 0.0000000 0.0000000
vt 0.1610870 0.4523878
v -1.4514509 0.7310959 0.8918959
vn -1.0000000 0.0000000 0.0000000
vt 0.1287473 0.4708010
v -1.4514509 0.5844727 0.1015839
vn -1.0000000 0.0000000 0.0000000
vt 0.1792763 0.5219403
v -1.4514509 0.9428610 0.8526077
vn -1.0000000 0.0000000 0.0000000
vt 0.1424503 0.4572616
v -1.2605970 0.7631464 0.4782292
vn 0.2148271 -0.8929648 0.3955542
vt 0.0606029 0.6347926
v -1.5913590 0.7066685 0.5303677
vn 0.2148271 -0.8929648 0.3955542
vt 0.0729376 0.6377837
v -1.5912679 0.6836668 0.4783917
vn 0.2148271 -0.8929648 0.3955542
vt 0.0729344 0.6416869
v -1.2605970 0.7631464 0.4782292
vn 0.2167832 0.3974722 0.8916395
vt 0.0606029 0.6347926
v -1.5913590 0.8176558 0.5343477
vn 0.2167832 0.3974722 0.8916395
vt 0.0729376 0.6292786
v -1.5912679 0.7636668 0.5583926
vn 0.2167832 0.3974722 0.8916395
vt 0.0729344 0.6333578
v -1.2605970 0.7631464 0.4782292
vn 0.2157502 0.8868381 -0.4086198
vt 0.0606027 0.6320130
v -1.5913590 0.8180349 0.4227136
vn 0.2157502 0.8868381 -0.4086198
vt 0.0729376 0.6292512
v -1.5912679 0.8436668 0.4783917
vn 0.2157502 0.8868381 -0.4086198
vt 0.0729343 0.6249944
v -1.2605970 0.7631464 0.4782292
vn 0.2123134 -0.4204929 -0.8821047
vt 0.0606027 0.6320130
v -1.5913590 0.7081454 0.4248370
vn 0.2123134 -0.4204929 -0.8821047
vt 0.0729377 0.6376315
v -1.5912679 0.7636669 0.3983922
vn 0.2123134 -0.4204929 -0.8821047
vt 0.0729343 0.6333718
v -1.5913590 0.8176558 0.5343477
vn 0.2157827 0.8853163 0.4118895
vt 0.0729376 0.6292786
v -1.2605970 0.7631464 0.4782292
vn 0.2157827 0.8853163 0.4118895
vt 0.0606029 0.6347926
v -1.5912679 0.8436668 0.4783917
vn 0.2157827 0.8853163 0.4118895
vt 0.0729343 0.6249943
v -1.5913590 0.7081454 0.4248370
vn 0.2133404 -0.8884206 -0.4064415
vt 0.0729377 0.6376315
v -1.2605970 0.7631464 0.4782292
vn 0.2133404 -0.8884206 -0.4064415
vt 0.0606027 0.6320130
v -1.5912679 0.6836668 0.4783917
vn 0.2133404 -0.8884206 -0.4064415
vt 0.0729344 0.6416868
v -1.5913590 0.7066685 0.5303677
vn 0.2119002 -0.4314813 0.8768821
vt 0.0729376 0.6377837
v -1.2605970 0.7631464 0.4782292
vn 0.2119002 -0.4314813 0.8768821
vt 0.0606029 0.6347926
v -1.5912679 0.7636668 0.5583926
vn 0.2119002 -0.4314813 0.8768821
vt 0.0729344 0.6333578
v -1.5913590 0.8180349 0.4227136
vn 0.2157957 0.3990307 -0.8911828
vt 0.0729376 0.6292512
v -1.2605970 0.7631464 0.4782292
vn 0.2157957 0.3990307 -0.8911828
vt 0.0606027 0.6320130
v -1.5912679 0.7636669 0.3983922
vn 0.2157957 0.3990307 -0.8911828
vt 0.0729343 0.6333718
v -1.5912679 0.7636668 0.5583926
vn -0.9999939 -0.0001270 0.0035062
vt 0.1541310 0.5667764
v -1.5913590 0.8176558 0.5343477
vn -0.9999996 0.0000000 0.0009525
vt 0.1583953 0.5632220
v -1.5913590 0.7066685 0.5303677
vn -0.9999999 0.0000000 0.0004524
vt 0.1541310 0.5727422
v -1.5912679 0.8436668 0.4783917
vn -0.9999998 0.0005767 -0.0002345
vt 0.1641899 0.5633485
v -1.5913590 0.8180349 0.4227136
vn -0.9999999 0.0000000 -0.0004924
vt 0.1678208 0.5678167
v -1.5912679 0.6836668 0.4783917
vn -0.9999998 -0.0005778 0.0002443
vt 0.1575589 0.5768352
v -1.5913590 0.7081454 0.4248370
vn -0.9999996 0.0000000 -0.0009371
vt 0.1630876 0.5769914
v -1.5912679 0.7636669 0.3983922
vn -0.9999936 0.0000000 -0.0035904
vt 0.1676177 0.5734074

g group_26249088_140627883466960
f 1/1/1 2/2/2 3/3/3 
f 4/4/4 5/5/5 6/6/6 
f 6/6/6 5/5/5 7/7/7 
f 8/8/8 9/9/9 10/10/10 
f 11/11/11 12/12/12 13/13/13 
f 13/13/13 12/12/12 14/14/14 
f 15/15/15 16/16/16 17/17/17 
f 18/18/18 19/19/19 20/20/20 
f 20/20/20 19/19/19 21/21/21 
f 22/22/22 23/23/23 24/24/24 
f 25/25/25 26/26/26 27/27/27 
f 27/27/27 26/26/26 28/28/28 
f 29/29/29 30/30/30 31/31/31 
f 32/32/32 33/33/33 34/34/34 
f 34/34/34 33/33/33 35/35/35 
f 36/36/36 37/37/37 38/38/38 
f 39/39/39 40/40/40 41/41/41 
f 41/41/41 40/40/40 42/42/42 
f 43/43/43 44/44/44 45/45/45 
f 46/46/46 47/47/47 48/48/48 
f 48/48/48 47/47/47 49/49/49 
f 43/43/43 45/45/45 50/50/50 
f 49/49/49 47/47/47 51/51/51 
f 51/51/51 47/47/47 52/52/52 
f 45/45/45 44/44/44 53/53/53 
f 46/46/46 48/48/48 54/54/54 
f 54/54/54 48/48/48 55/55/55 
f 43/43/43 50/50/50 56/56/56 
f 51/51/51 52/52/52 57/57/57 
f 57/57/57 52/52/52 58/58/58 
f 55/55/55 59/59/59 54/54/54 
f 58/58/58 60/60/60 57/57/57 
f 61/61/61 62/62/62 63/63/63 
f 64/64/64 65/65/65 66/66/66 
f 67/67/67 68/68/68 69/69/69 
f 70/70/70 71/71/71 72/72/72 
f 73/73/73 74/74/74 75/75/75 
f 76/76/76 77/77/77 78/78/78 
f 79/79/79 80/80/80 81/81/81 
f 82/82/82 83/83/83 84/84/84 
f 85/85/85 86/86/86 87/87/87 
f 86/86/86 88/88/88 87/87/87 
f 88/88/88 89/89/89 87/87/87 
f 87/87/87 89/89/89 90/90/90 
f 90/90/90 89/89/89 91/91/91 
f 89/89/89 92/92/92 91/91/91 
