v 1.1215430 -1.1754270 0.4770959
vn 0.0000000 -0.9238752 0.3826941
vt 0.0528728 0.4997752
v 1.2202340 -1.1754270 0.4770959
vn 0.0000000 -0.9238752 0.3826941
vt 0.0594527 0.4997752
v 1.1215430 -1.0535570 0.7713068
vn 0.0000000 -0.9238752 0.3826941
vt 0.0528728 0.4698412
v 1.2202340 -1.0535570 0.7713068
vn 0.0000000 -0.9238752 0.3826941
vt 0.0594527 0.4698412
v 1.1215430 -1.0535570 0.7713068
vn 0.0000000 -0.3826840 0.9238793
vt 0.0528728 0.5596436
v 1.2202340 -1.0535570 0.7713068
vn 0.0000000 -0.3826842 0.9238793
vt 0.0594527 0.5596436
v 1.1215430 -0.7593472 0.8931728
vn 0.0000000 -0.3826842 0.9238793
vt 0.0528728 0.5297093
v 1.2202340 -0.7593472 0.8931728
vn 0.0000000 -0.3826844 0.9238791
vt 0.0594527 0.5297093
v 1.1215430 -0.7593472 0.8931728
vn 0.0000000 0.3826840 0.9238793
vt 0.0528728 0.5297093
v 1.2202340 -0.7593472 0.8931728
vn 0.0000000 0.3826840 0.9238793
vt 0.0594527 0.5297093
v 1.1215430 -0.4651370 0.7713068
vn 0.0000000 0.3826840 0.9238793
vt 0.0528728 0.4997752
v 1.2202340 -0.4651370 0.7713068
vn 0.0000000 0.3826841 0.9238793
vt 0.0594527 0.4997752
v 1.1215430 -0.4651370 0.7713068
vn 0.0000000 0.9238756 0.3826930
vt 0.0528728 0.4997752
v 1.2202340 -0.4651370 0.7713068
vn 0.0000000 0.9238754 0.3826935
vt 0.0594527 0.4997752
v 1.1215430 -0.3432672 0.4770959
vn 0.0000000 0.9238754 0.3826935
vt 0.0528728 0.4698412
v 1.2202340 -0.3432672 0.4770959
vn 0.0000000 0.9238752 0.3826939
vt 0.0594527 0.4698411
v 1.1215430 -0.3432672 0.4770959
vn 0.0000000 0.9238752 -0.3826939
vt 0.0528728 0.5596436
v 1.2202340 -0.3432672 0.4770959
vn 0.0000000 0.9238751 -0.3826943
vt 0.0594527 0.5596434
v 1.1215430 -0.4651370 0.1828859
vn 0.0000000 0.9238751 -0.3826943
vt 0.0528728 0.5297093
v 1.2202340 -0.4651370 0.1828859
vn 0.0000000 0.9238749 -0.3826946
vt 0.0594527 0.5297093
v 1.1215430 -0.4651370 0.1828859
vn 0.0000000 0.3826854 -0.9238787
vt 0.0528728 0.5297093
v 1.2202340 -0.4651370 0.1828859
vn 0.0000000 0.3826847 -0.9238790
vt 0.0594527 0.5297093
v 1.1215430 -0.7593472 0.0610196
vn 0.0000000 0.3826847 -0.9238790
vt 0.0528728 0.4997752
v 1.2202340 -0.7593472 0.0610196
vn 0.0000000 0.3826840 -0.9238793
vt 0.0594527 0.4997752
v 1.1215430 -0.7593472 0.0610196
vn 0.0000000 -0.3826857 -0.9238786
vt 0.0528728 0.5596436
v 1.2202340 -0.7593472 0.0610196
vn 0.0000000 -0.3826851 -0.9238789
vt 0.0594527 0.5596436
v 1.1215430 -1.0535570 0.1828859
vn 0.0000000 -0.3826851 -0.9238789
vt 0.0528728 0.5297093
v 1.2202340 -1.0535570 0.1828859
vn 0.0000000 -0.3826844 -0.9238791
vt 0.0594527 0.5297093
v 1.1215430 -1.0535570 0.1828859
vn 0.0000000 -0.9238749 -0.3826946
vt 0.0528728 0.5297093
v 1.2202340 -1.0535570 0.1828859
vn 0.0000000 -0.9238748 -0.3826949
vt 0.0594527 0.5297093
v 1.1215430 -1.1754270 0.4770959
vn 0.0000000 -0.9238748 -0.3826949
vt 0.0528728 0.4997752
v 1.2202340 -1.1754270 0.4770959
vn 0.0000000 -0.9238747 -0.3826952
vt 0.0594527 0.4997752
v 1.1215430 -1.1754270 0.4770959
vn -1.0000000 0.0000000 0.0000000
vt 0.1946945 0.5446105
v 1.1215430 -0.3432672 0.4770959
vn -1.0000000 0.0000000 0.0000000
vt 0.2640902 0.5446105
v 1.1215430 -1.0535570 0.1828859
vn -1.0000000 0.0000000 0.0000000
vt 0.2048574 0.5200751
v 1.1215430 -0.4651370 0.1828859
vn -1.0000000 0.0000000 0.0000000
vt 0.2539272 0.5200761
v 1.2202340 -1.0535570 0.1828859
vn 1.0000000 0.0000000 0.0000000
vt 0.2539269 0.5200753
v 1.2202340 -0.4651370 0.1828859
vn 1.0000000 0.0000000 0.0000000
vt 0.2048574 0.5200753
v 1.2202340 -1.1754270 0.4770959
vn 1.0000000 0.0000000 0.0000000
vt 0.2640897 0.5446103
v 1.2202340 -0.3432672 0.4770959
vn 1.0000000 0.0000000 0.0000000
vt 0.1946946 0.5446103
v 1.1215430 -1.0535570 0.7713068
vn -1.0000000 0.0000000 0.0000000
vt 0.2048574 0.5691449
v 1.1215430 -0.4651370 0.7713068
vn -1.0000000 0.0000000 0.0000000
vt 0.2539272 0.5691449
v 1.2202340 -0.4651370 0.7713068
vn 1.0000000 0.0000000 0.0000000
vt 0.2048575 0.5691454
v 1.2202340 -1.0535570 0.7713068
vn 1.0000000 0.0000000 0.0000000
vt 0.2539270 0.5691454
v 1.1215430 -0.7593472 0.0610196
vn -1.0000000 0.0000000 0.0000000
vt 0.2293919 0.5099130
v 1.2202340 -0.7593472 0.0610196
vn 1.0000000 0.0000000 0.0000000
vt 0.2293919 0.5099131
v 1.1215430 -0.7593472 0.8931728
vn -1.0000000 0.0000000 0.0000000
vt 0.2293919 0.5793077
v 1.2202340 -0.7593472 0.8931728
vn 1.0000000 0.0000000 0.0000000
vt 0.2293919 0.5793077
v 1.5008661 -0.6751282 0.8695985
vn -0.5090486 0.5805578 0.6354700
vt 0.0777957 0.3895156
v 1.5919150 -0.5699562 0.8464503
vn -0.5090204 0.5805777 0.6354746
vt 0.0684879 0.3995394
v 1.5008661 -0.3784122 0.5985213
vn -0.5090204 0.5805777 0.6354746
vt 0.0777957 0.4195861
v 1.5919150 -0.4109488 0.7011751
vn -0.5089921 0.5805973 0.6354792
vt 0.0684879 0.4195861
v 1.5919150 -0.4109488 0.7011751
vn 0.0000000 0.9532631 0.3021415
vt 0.0684879 0.3393987
v 1.5919150 -0.3458754 0.4958675
vn 0.0000000 0.9532631 0.3021415
vt 0.0684879 0.3594453
v 1.5008661 -0.3784122 0.5985213
vn 0.0000000 0.9532631 0.3021415
vt 0.0777957 0.3494220
v 1.5008661 -0.3784122 0.5985213
vn -0.5090277 0.8406242 -0.1850455
vt 0.0777957 0.3494220
v 1.5919150 -0.3458754 0.4958675
vn -0.5090274 0.8406243 -0.1850459
vt 0.0684879 0.3594453
v 1.5008661 -0.4648132 0.2060191
vn -0.5090274 0.8406243 -0.1850459
vt 0.0777957 0.3895158
v 1.5919150 -0.3921780 0.2855247
vn -0.5090269 0.8406246 -0.1850462
vt 0.0684879 0.3794920
v 1.5919150 -0.3921780 0.2855247
vn 0.0000000 0.7382860 -0.6744878
vt 0.0684879 0.3794920
v 1.5919150 -0.5374484 0.1265136
vn 0.0000000 0.7382860 -0.6744878
vt 0.0684879 0.3995396
v 1.5008661 -0.4648132 0.2060191
vn 0.0000000 0.7382860 -0.6744878
vt 0.0777957 0.3895158
v 1.5008661 -0.4648132 0.2060191
vn -0.5090287 0.2600566 -0.8205245
vt 0.0777957 0.3895158
v 1.5919150 -0.5374484 0.1265136
vn -0.5090157 0.2600547 -0.8205332
vt 0.0684879 0.3995396
v 1.5008661 -0.8479299 0.0845940
vn -0.5090157 0.2600547 -0.8205332
vt 0.0777957 0.4195863
v 1.5919150 -0.7427576 0.0614456
vn -0.5090026 0.2600527 -0.8205419
vt 0.0684879 0.4195863
v 1.5919150 -0.7427576 0.0614456
vn 0.0000000 -0.2149550 -0.9766240
vt 0.0684879 0.3393989
v 1.5919150 -0.9531023 0.1077424
vn 0.0000000 -0.2149550 -0.9766240
vt 0.0684879 0.3594454
v 1.5008661 -0.8479299 0.0845940
vn 0.0000000 -0.2149550 -0.9766240
vt 0.0777957 0.3494221
v 1.5008661 -0.8479299 0.0845940
vn -0.5090484 -0.5805584 -0.6354697
vt 0.0777957 0.3494221
v 1.5919150 -0.9531023 0.1077424
vn -0.5090197 -0.5805784 -0.6354743
vt 0.0684879 0.3594454
v 1.5008661 -1.1446460 0.3556712
vn -0.5090197 -0.5805784 -0.6354743
vt 0.0777957 0.3895158
v 1.5919150 -1.1121089 0.2530171
vn -0.5089912 -0.5805986 -0.6354788
vt 0.0684879 0.3794920
v 1.5919150 -1.1121089 0.2530171
vn 0.0000000 -0.9532621 -0.3021447
vt 0.0684879 0.3794920
v 1.5919150 -1.1771830 0.4583252
vn 0.0000000 -0.9532621 -0.3021447
vt 0.0684879 0.3995397
v 1.5008661 -1.1446460 0.3556712
vn 0.0000000 -0.9532621 -0.3021447
vt 0.0777957 0.3895158
v 1.5008661 -1.1446460 0.3556712
vn -0.5090303 -0.8406227 0.1850449
vt 0.0777957 0.3895158
v 1.5919150 -1.1771830 0.4583252
vn -0.5090263 -0.8406248 0.1850466
vt 0.0684879 0.3995397
v 1.5008661 -1.0582449 0.7481734
vn -0.5090263 -0.8406248 0.1850466
vt 0.0777957 0.4195864
v 1.5919150 -1.1308800 0.6686677
vn -0.5090224 -0.8406268 0.1850483
vt 0.0684879 0.4195864
v 1.5919150 -1.1308800 0.6686677
vn 0.0000000 -0.7382871 0.6744867
vt 0.0684879 0.3393986
v 1.5919150 -0.9856100 0.8276791
vn 0.0000000 -0.7382871 0.6744867
vt 0.0684879 0.3594451
v 1.5008661 -1.0582449 0.7481734
vn 0.0000000 -0.7382871 0.6744867
vt 0.0777957 0.3494219
v 1.5008661 -1.0582449 0.7481734
vn -0.5090309 -0.2600567 0.8205231
vt 0.0777957 0.3494219
v 1.5919150 -0.9856100 0.8276791
vn -0.5090132 -0.2600538 0.8205349
vt 0.0684879 0.3594451
v 1.5008661 -0.6751282 0.8695985
vn -0.5090132 -0.2600538 0.8205349
vt 0.0777957 0.3895156
v 1.5919150 -0.7803000 0.8927467
vn -0.5089954 -0.2600510 0.8205469
vt 0.0684879 0.3794917
v 1.5919150 -0.7803000 0.8927467
vn 0.0000000 0.2149538 0.9766242
vt 0.0684879 0.3794917
v 1.5919150 -0.5699562 0.8464503
vn 0.0000000 0.2149538 0.9766242
vt 0.0684879 0.3995394
v 1.5008661 -0.6751282 0.8695985
vn 0.0000000 0.2149538 0.9766242
vt 0.0777957 0.3895156
v 1.5008661 -0.8479299 0.0845940
vn -1.0000000 0.0000000 0.0000000
vt 0.1970556 0.5796033
v 1.5008661 -1.1446460 0.3556712
vn -1.0000000 0.0000000 0.0000000
vt 0.1873734 0.5434699
v 1.5008661 -0.6751282 0.8695985
vn -1.0000000 0.0000000 0.0000000
vt 0.1247891 0.5602396
v 1.5919150 -0.7803000 0.8927467
vn 1.0000000 0.0000000 0.0000000
vt 0.1865835 0.5409168
v 1.5919150 -1.1121089 0.2530171
vn 1.0000000 0.0000000 0.0000000
vt 0.1229716 0.5622000
v 1.5919150 -0.5699562 0.8464503
vn 1.0000000 0.0000000 0.0000000
vt 0.1976483 0.5576327
v 1.5919150 -0.9531023 0.1077424
vn 1.0000000 0.0000000 0.0000000
vt 0.1241959 0.5822097
v 1.5008661 -0.3784122 0.5985213
vn -1.0000000 0.0000000 0.0000000
vt 0.1344707 0.5963731
v 1.5919150 -0.7427576 0.0614456
vn 1.0000000 0.0000000 0.0000000
vt 0.1352606 0.5989267
v 1.5919150 -0.4109488 0.7011751
vn 1.0000000 0.0000000 0.0000000
vt 0.1988725 0.5776424
v 1.5008661 -1.0582449 0.7481734
vn -1.0000000 0.0000000 0.0000000
vt 0.1512399 0.5337882
v 1.5919150 -0.9856100 0.8276791
vn 1.0000000 0.0000000 0.0000000
vt 0.1686433 0.5319718
v 1.5919150 -1.1771830 0.4583252
vn 1.0000000 0.0000000 0.0000000
vt 0.1319166 0.5442598
v 1.5008661 -0.4648132 0.2060191
vn -1.0000000 0.0000000 0.0000000
vt 0.1706037 0.6060553
v 1.5919150 -0.5374484 0.1265136
vn 1.0000000 0.0000000 0.0000000
vt 0.1532008 0.6078717
v 1.5919150 -0.3458754 0.4958675
vn 1.0000000 0.0000000 0.0000000
vt 0.1899275 0.5955837
v 1.5919150 -1.1308800 0.6686677
vn 1.0000000 0.0000000 0.0000000
vt 0.1486336 0.5331950
v 1.5919150 -0.3921780 0.2855247
vn 1.0000000 0.0000000 0.0000000
vt 0.1732106 0.6066474

g group_61487608_140627886333472
f 1/1/1 2/2/2 3/3/3 
f 2/2/2 4/4/4 3/3/3 
f 5/5/5 6/6/6 7/7/7 
f 6/6/6 8/8/8 7/7/7 
f 9/9/9 10/10/10 11/11/11 
f 10/10/10 12/12/12 11/11/11 
f 13/13/13 14/14/14 15/15/15 
f 14/14/14 16/16/16 15/15/15 
f 17/17/17 18/18/18 19/19/19 
f 18/18/18 20/20/20 19/19/19 
f 21/21/21 22/22/22 23/23/23 
f 22/22/22 24/24/24 23/23/23 
f 25/25/25 26/26/26 27/27/27 
f 26/26/26 28/28/28 27/27/27 
f 29/29/29 30/30/30 31/31/31 
f 30/30/30 32/32/32 31/31/31 
f 33/33/33 34/34/34 35/35/35 
f 34/34/34 36/36/36 35/35/35 
f 37/37/37 38/38/38 39/39/39 
f 38/38/38 40/40/40 39/39/39 
f 33/33/33 41/41/41 34/34/34 
f 41/41/41 42/42/42 34/34/34 
f 40/40/40 43/43/43 39/39/39 
f 43/43/43 44/44/44 39/39/39 
f 35/35/35 36/36/36 45/45/45 
f 38/38/38 37/37/37 46/46/46 
f 42/42/42 41/41/41 47/47/47 
f 44/44/44 43/43/43 48/48/48 
f 49/49/49 50/50/50 51/51/51 
f 50/50/50 52/52/52 51/51/51 
f 53/53/53 54/54/54 55/55/55 
f 56/56/56 57/57/57 58/58/58 
f 57/57/57 59/59/59 58/58/58 
f 60/60/60 61/61/61 62/62/62 
f 63/63/63 64/64/64 65/65/65 
f 64/64/64 66/66/66 65/65/65 
f 67/67/67 68/68/68 69/69/69 
f 70/70/70 71/71/71 72/72/72 
f 71/71/71 73/73/73 72/72/72 
f 74/74/74 75/75/75 76/76/76 
f 77/77/77 78/78/78 79/79/79 
f 78/78/78 80/80/80 79/79/79 
f 81/81/81 82/82/82 83/83/83 
f 84/84/84 85/85/85 86/86/86 
f 85/85/85 87/87/87 86/86/86 
f 88/88/88 89/89/89 90/90/90 
f 91/91/91 92/92/92 93/93/93 
f 94/94/94 95/95/95 96/96/96 
f 95/95/95 97/97/97 96/96/96 
f 93/93/93 98/98/98 91/91/91 
f 97/97/97 99/99/99 96/96/96 
f 99/99/99 100/100/100 96/96/96 
f 92/92/92 101/101/101 93/93/93 
f 94/94/94 102/102/102 95/95/95 
f 102/102/102 103/103/103 95/95/95 
f 98/98/98 104/104/104 91/91/91 
f 99/99/99 105/105/105 100/100/100 
f 105/105/105 106/106/106 100/100/100 
f 103/103/103 102/102/102 107/107/107 
f 106/106/106 105/105/105 108/108/108 
