v -1.1215039 -0.0069178 0.7885182
vn 0.0000000 -0.3239942 0.9460591
vt 0.0528728 0.4997752
v -1.1215039 0.2943576 0.8916953
vn 0.0000000 -0.3239944 0.9460590
vt 0.0528728 0.4698412
v -1.2201940 -0.0069178 0.7885182
vn 0.0000000 -0.3239944 0.9460590
vt 0.0594527 0.4997752
v -1.2201940 0.2943576 0.8916953
vn 0.0000000 -0.3239946 0.9460589
vt 0.0594527 0.4698412
v -1.1215039 0.2943576 0.8916953
vn 0.0000000 0.4398553 0.8980687
vt 0.0528728 0.5596436
v -1.1215039 0.5803482 0.7516230
vn 0.0000000 0.4398551 0.8980688
vt 0.0528728 0.5297093
v -1.2201940 0.2943576 0.8916953
vn 0.0000000 0.4398551 0.8980688
vt 0.0594527 0.5596436
v -1.2201940 0.5803482 0.7516230
vn 0.0000000 0.4398549 0.8980688
vt 0.0594527 0.5297093
v -1.1215039 0.5803482 0.7516230
vn 0.0000000 0.9460558 0.3240039
vt 0.0528728 0.5297093
v -1.1215039 0.6835277 0.4503508
vn 0.0000000 0.9460556 0.3240043
vt 0.0528728 0.4997752
v -1.2201940 0.5803482 0.7516230
vn 0.0000000 0.9460556 0.3240043
vt 0.0594527 0.5297093
v -1.2201940 0.6835277 0.4503508
vn 0.0000000 0.9460555 0.3240047
vt 0.0594527 0.4997752
v -1.1215039 0.6835277 0.4503508
vn 0.0000000 0.8980731 -0.4398463
vt 0.0528728 0.4997752
v -1.1215039 0.5434572 0.1643568
vn 0.0000000 0.8980729 -0.4398467
vt 0.0528728 0.4698412
v -1.2201940 0.6835277 0.4503508
vn 0.0000000 0.8980729 -0.4398467
vt 0.0594527 0.4997752
v -1.2201940 0.5434572 0.1643568
vn 0.0000000 0.8980728 -0.4398469
vt 0.0594527 0.4698411
v -1.1215039 0.5434572 0.1643568
vn 0.0000000 0.3239949 -0.9460588
vt 0.0528728 0.5596436
v -1.1215039 0.2421826 0.0611802
vn 0.0000000 0.3239943 -0.9460590
vt 0.0528728 0.5297093
v -1.2201940 0.5434572 0.1643568
vn 0.0000000 0.3239943 -0.9460590
vt 0.0594527 0.5596434
v -1.2201940 0.2421826 0.0611802
vn 0.0000000 0.3239936 -0.9460593
vt 0.0594527 0.5297093
v -1.1215039 0.2421826 0.0611802
vn 0.0000000 -0.4398551 -0.8980688
vt 0.0528728 0.5297093
v -1.1215039 -0.0438084 0.2012524
vn 0.0000000 -0.4398549 -0.8980689
vt 0.0528728 0.4997752
v -1.2201940 0.2421826 0.0611802
vn 0.0000000 -0.4398549 -0.8980689
vt 0.0594527 0.5297093
v -1.2201940 -0.0438084 0.2012524
vn 0.0000000 -0.4398545 -0.8980691
vt 0.0594527 0.4997752
v -1.1215039 -0.0438084 0.2012524
vn 0.0000000 -0.9460561 -0.3240030
vt 0.0528728 0.5596436
v -1.1215039 -0.1469875 0.5025247
vn 0.0000000 -0.9460560 -0.3240033
vt 0.0528728 0.5297093
v -1.2201940 -0.0438084 0.2012524
vn 0.0000000 -0.9460560 -0.3240033
vt 0.0594527 0.5596436
v -1.2201940 -0.1469875 0.5025247
vn 0.0000000 -0.9460559 -0.3240035
vt 0.0594527 0.5297093
v -1.1215039 -0.1469875 0.5025247
vn 0.0000000 -0.8980738 0.4398449
vt 0.0528728 0.5297093
v -1.1215039 -0.0069178 0.7885182
vn 0.0000000 -0.8980737 0.4398451
vt 0.0528728 0.4997752
v -1.2201940 -0.1469875 0.5025247
vn 0.0000000 -0.8980737 0.4398451
vt 0.0594527 0.5297093
v -1.2201940 -0.0069178 0.7885182
vn 0.0000000 -0.8980735 0.4398455
vt 0.0594527 0.4997752
v -1.1215039 -0.0069178 0.7885182
vn 1.0000000 0.0000000 0.0000000
vt 0.1946945 0.5446105
v -1.1215039 -0.1469875 0.5025247
vn 1.0000000 0.0000000 0.0000000
vt 0.2048574 0.5200751
v -1.1215039 0.5434572 0.1643568
vn 1.0000000 0.0000000 0.0000000
vt 0.2640902 0.5446105
v -1.1215039 0.2421826 0.0611802
vn 1.0000000 0.0000000 0.0000000
vt 0.2539272 0.5200761
v -1.2201940 -0.1469875 0.5025247
vn -1.0000000 0.0000000 0.0000000
vt 0.2539269 0.5200753
v -1.2201940 -0.0069178 0.7885182
vn -1.0000000 0.0000000 0.0000000
vt 0.2640897 0.5446103
v -1.2201940 0.2421826 0.0611802
vn -1.0000000 0.0000000 0.0000000
vt 0.2048574 0.5200753
v -1.2201940 0.5434572 0.1643568
vn -1.0000000 0.0000000 0.0000000
vt 0.1946946 0.5446103
v -1.1215039 0.2943576 0.8916953
vn 1.0000000 0.0000000 0.0000000
vt 0.2048574 0.5691449
v -1.1215039 0.6835277 0.4503508
vn 1.0000000 0.0000000 0.0000000
vt 0.2539272 0.5691449
v -1.2201940 0.6835277 0.4503508
vn -1.0000000 0.0000000 0.0000000
vt 0.2048575 0.5691454
v -1.2201940 0.2943576 0.8916953
vn -1.0000000 0.0000000 0.0000000
vt 0.2539270 0.5691454
v -1.1215039 -0.0438084 0.2012524
vn 1.0000000 0.0000000 0.0000000
vt 0.2293919 0.5099130
v -1.2201940 -0.0438084 0.2012524
vn -1.0000000 0.0000000 0.0000000
vt 0.2293919 0.5099131
v -1.1215039 0.5803482 0.7516230
vn 1.0000000 0.0000000 0.0000000
vt 0.2293919 0.5793077
v -1.2201940 0.5803482 0.7516230
vn -1.0000000 0.0000000 0.0000000
vt 0.2293919 0.5793077
v -1.5918760 0.6705637 0.5786689
vn 0.0000000 0.9998444 -0.0176393
vt 0.0684879 0.3995394
v -1.5008260 0.6686641 0.4709960
vn 0.0000000 0.9998444 -0.0176393
vt 0.0777957 0.4095627
v -1.5918760 0.6667645 0.3633231
vn 0.0000000 0.9998444 -0.0176393
vt 0.0684879 0.4195861
v -1.5008260 0.6686641 0.4709960
vn 0.5090098 0.7377461 -0.4434409
vt 0.0777957 0.3393987
v -1.5008260 0.4616162 0.1265344
vn 0.5090244 0.7377406 -0.4434330
vt 0.0777957 0.3694686
v -1.5918760 0.6667645 0.3633231
vn 0.5090244 0.7377406 -0.4434330
vt 0.0684879 0.3393987
v -1.5918760 0.5558119 0.1787282
vn 0.5090390 0.7377353 -0.4434252
vt 0.0684879 0.3594453
v -1.5918760 0.5558119 0.1787282
vn 0.0000000 0.4846694 -0.8746974
vt 0.0684879 0.3594453
v -1.5008260 0.4616162 0.1265344
vn 0.0000000 0.4846694 -0.8746974
vt 0.0777957 0.3694686
v -1.5918760 0.3674207 0.0743407
vn 0.0000000 0.4846694 -0.8746974
vt 0.0684879 0.3794920
v -1.5008260 0.4616162 0.1265344
vn 0.5090269 -0.0151592 -0.8606171
vt 0.0777957 0.3694686
v -1.5008260 0.0597792 0.1336124
vn 0.5090271 -0.0151591 -0.8606170
vt 0.0777957 0.4095629
v -1.5918760 0.3674207 0.0743407
vn 0.5090271 -0.0151591 -0.8606170
vt 0.0684879 0.3794920
v -1.5918760 0.1520752 0.0781338
vn 0.5090272 -0.0151590 -0.8606170
vt 0.0684879 0.3995396
v -1.5918760 0.1520752 0.0781338
vn 0.0000000 -0.5151843 -0.8570794
vt 0.0684879 0.3995396
v -1.5008260 0.0597792 0.1336124
vn 0.0000000 -0.5151843 -0.8570794
vt 0.0777957 0.4095629
v -1.5918760 -0.0325167 0.1890911
vn 0.0000000 -0.5151843 -0.8570794
vt 0.0684879 0.4195863
v -1.5008260 0.0597792 0.1336124
vn 0.5090080 -0.7529055 -0.4171859
vt 0.0777957 0.3393989
v -1.5008260 -0.1350101 0.4851524
vn 0.5090365 -0.7528850 -0.4171883
vt 0.0777957 0.3694687
v -1.5918760 -0.0325167 0.1890911
vn 0.5090365 -0.7528850 -0.4171883
vt 0.0684879 0.3393989
v -1.5918760 -0.1369098 0.3774800
vn 0.5090647 -0.7528645 -0.4171908
vt 0.0684879 0.3594454
v -1.5918760 -0.1369098 0.3774800
vn 0.0000000 -0.9998444 0.0176401
vt 0.0684879 0.3594454
v -1.5008260 -0.1350101 0.4851524
vn 0.0000000 -0.9998444 0.0176401
vt 0.0777957 0.3694687
v -1.5918760 -0.1331105 0.5928249
vn 0.0000000 -0.9998444 0.0176401
vt 0.0684879 0.3794920
v -1.5008260 -0.1350101 0.4851524
vn 0.5090073 -0.7377477 0.4434410
vt 0.0777957 0.3694687
v -1.5008260 0.0720375 0.8296141
vn 0.5090238 -0.7377422 0.4434311
vt 0.0777957 0.4095631
v -1.5918760 -0.1331105 0.5928249
vn 0.5090238 -0.7377422 0.4434311
vt 0.0684879 0.3794920
v -1.5918760 -0.0221581 0.7774207
vn 0.5090403 -0.7377368 0.4434212
vt 0.0684879 0.3995397
v -1.5918760 -0.0221581 0.7774207
vn 0.0000000 -0.4846672 0.8746986
vt 0.0684879 0.3995397
v -1.5008260 0.0720375 0.8296141
vn 0.0000000 -0.4846672 0.8746986
vt 0.0777957 0.4095631
v -1.5918760 0.1662332 0.8818076
vn 0.0000000 -0.4846672 0.8746986
vt 0.0684879 0.4195864
v -1.5008260 0.0720375 0.8296141
vn 0.5090249 0.0151598 0.8606183
vt 0.0777957 0.3393986
v -1.5008260 0.4738747 0.8225359
vn 0.5090294 0.0151580 0.8606157
vt 0.0777957 0.3694684
v -1.5918760 0.1662332 0.8818076
vn 0.5090294 0.0151580 0.8606157
vt 0.0684879 0.3393986
v -1.5918760 0.3815787 0.8780151
vn 0.5090340 0.0151562 0.8606130
vt 0.0684879 0.3594451
v -1.5918760 0.3815787 0.8780151
vn 0.0000000 0.5151888 0.8570767
vt 0.0684879 0.3594451
v -1.5008260 0.4738747 0.8225359
vn 0.0000000 0.5151888 0.8570767
vt 0.0777957 0.3694684
v -1.5918760 0.5661707 0.7670567
vn 0.0000000 0.5151888 0.8570767
vt 0.0684879 0.3794917
v -1.5008260 0.4738747 0.8225359
vn 0.5090081 0.7529047 0.4171874
vt 0.0777957 0.3694684
v -1.5008260 0.6686641 0.4709960
vn 0.5090371 0.7528841 0.4171892
vt 0.0777957 0.4095627
v -1.5918760 0.5661707 0.7670567
vn 0.5090371 0.7528841 0.4171892
vt 0.0684879 0.3794917
v -1.5918760 0.6705637 0.5786689
vn 0.5090663 0.7528634 0.4171910
vt 0.0684879 0.3995394
v -1.5008260 0.6686641 0.4709960
vn 1.0000000 0.0000000 0.0000000
vt 0.1247891 0.5796033
v -1.5008260 0.4738747 0.8225359
vn 1.0000000 0.0000000 0.0000000
vt 0.1344707 0.5434699
v -1.5008260 -0.1350101 0.4851524
vn 1.0000000 0.0000000 0.0000000
vt 0.1970556 0.5602396
v -1.5918760 0.5661707 0.7670567
vn -1.0000000 0.0000000 0.0000000
vt 0.1865835 0.5409168
v -1.5918760 0.6705637 0.5786689
vn -1.0000000 0.0000000 0.0000000
vt 0.1976483 0.5576327
v -1.5918760 -0.1331105 0.5928249
vn -1.0000000 0.0000000 0.0000000
vt 0.1229716 0.5622000
v -1.5918760 -0.1369098 0.3774800
vn -1.0000000 0.0000000 0.0000000
vt 0.1241959 0.5822097
v -1.5008260 0.0597792 0.1336124
vn 1.0000000 0.0000000 0.0000000
vt 0.1873734 0.5963731
v -1.5918760 -0.0325167 0.1890911
vn -1.0000000 0.0000000 0.0000000
vt 0.1352606 0.5989267
v -1.5918760 0.6667645 0.3633231
vn -1.0000000 0.0000000 0.0000000
vt 0.1988725 0.5776424
v -1.5008260 0.0720375 0.8296141
vn 1.0000000 0.0000000 0.0000000
vt 0.1706037 0.5337882
v -1.5918760 0.3815787 0.8780151
vn -1.0000000 0.0000000 0.0000000
vt 0.1686433 0.5319718
v -1.5918760 -0.0221581 0.7774207
vn -1.0000000 0.0000000 0.0000000
vt 0.1319166 0.5442598
v -1.5008260 0.4616162 0.1265344
vn 1.0000000 0.0000000 0.0000000
vt 0.1512399 0.6060553
v -1.5918760 0.1520752 0.0781338
vn -1.0000000 0.0000000 0.0000000
vt 0.1532008 0.6078717
v -1.5918760 0.5558119 0.1787282
vn -1.0000000 0.0000000 0.0000000
vt 0.1899275 0.5955837
v -1.5918760 0.1662332 0.8818076
vn -1.0000000 0.0000000 0.0000000
vt 0.1486336 0.5331950
v -1.5918760 0.3674207 0.0743407
vn -1.0000000 0.0000000 0.0000000
vt 0.1732106 0.6066474

g group_61483240_140627860515808
f 1/1/1 2/2/2 3/3/3 
f 3/3/3 2/2/2 4/4/4 
f 5/5/5 6/6/6 7/7/7 
f 7/7/7 6/6/6 8/8/8 
f 9/9/9 10/10/10 11/11/11 
f 11/11/11 10/10/10 12/12/12 
f 13/13/13 14/14/14 15/15/15 
f 15/15/15 14/14/14 16/16/16 
f 17/17/17 18/18/18 19/19/19 
f 19/19/19 18/18/18 20/20/20 
f 21/21/21 22/22/22 23/23/23 
f 23/23/23 22/22/22 24/24/24 
f 25/25/25 26/26/26 27/27/27 
f 27/27/27 26/26/26 28/28/28 
f 29/29/29 30/30/30 31/31/31 
f 31/31/31 30/30/30 32/32/32 
f 33/33/33 34/34/34 35/35/35 
f 35/35/35 34/34/34 36/36/36 
f 37/37/37 38/38/38 39/39/39 
f 39/39/39 38/38/38 40/40/40 
f 33/33/33 35/35/35 41/41/41 
f 41/41/41 35/35/35 42/42/42 
f 40/40/40 38/38/38 43/43/43 
f 43/43/43 38/38/38 44/44/44 
f 34/34/34 45/45/45 36/36/36 
f 39/39/39 46/46/46 37/37/37 
f 42/42/42 47/47/47 41/41/41 
f 44/44/44 48/48/48 43/43/43 
f 49/49/49 50/50/50 51/51/51 
f 52/52/52 53/53/53 54/54/54 
f 54/54/54 53/53/53 55/55/55 
f 56/56/56 57/57/57 58/58/58 
f 59/59/59 60/60/60 61/61/61 
f 61/61/61 60/60/60 62/62/62 
f 63/63/63 64/64/64 65/65/65 
f 66/66/66 67/67/67 68/68/68 
f 68/68/68 67/67/67 69/69/69 
f 70/70/70 71/71/71 72/72/72 
f 73/73/73 74/74/74 75/75/75 
f 75/75/75 74/74/74 76/76/76 
f 77/77/77 78/78/78 79/79/79 
f 80/80/80 81/81/81 82/82/82 
f 82/82/82 81/81/81 83/83/83 
f 84/84/84 85/85/85 86/86/86 
f 87/87/87 88/88/88 89/89/89 
f 89/89/89 88/88/88 90/90/90 
f 91/91/91 92/92/92 93/93/93 
f 94/94/94 95/95/95 96/96/96 
f 96/96/96 95/95/95 97/97/97 
f 91/91/91 93/93/93 98/98/98 
f 97/97/97 95/95/95 99/99/99 
f 99/99/99 95/95/95 100/100/100 
f 93/93/93 92/92/92 101/101/101 
f 94/94/94 96/96/96 102/102/102 
f 102/102/102 96/96/96 103/103/103 
f 91/91/91 98/98/98 104/104/104 
f 99/99/99 100/100/100 105/105/105 
f 105/105/105 100/100/100 106/106/106 
f 103/103/103 107/107/107 102/102/102 
f 106/106/106 108/108/108 105/105/105 
