v 1.2769630 2.5483534 0.9618033
vn 1.0000000 0.0000007 -0.0000006
vt 0.1053469 0.6040048
v 1.2769630 2.3108504 0.7890024
vn 1.0000000 0.0000006 -0.0000008
vt 0.1259742 0.6323556
v 1.2769630 2.3106575 0.6348121
vn 1.0000000 -0.0000010 0.0000007
vt 0.1443803 0.6323788
v 1.2769630 2.4011555 0.5097012
vn 1.0000000 -0.0000004 0.0000007
vt 0.1593150 0.6215761
v 1.2769630 2.5483544 0.4605176
vn 1.0000000 0.0000008 0.0000005
vt 0.1651860 0.6040048
v 1.2769630 2.6948915 0.5092445
vn 1.0000000 0.0000013 0.0000004
vt 0.1593696 0.5865127
v 1.2769630 2.7856605 0.6334627
vn 1.0000000 0.0000008 0.0000002
vt 0.1445414 0.5756775
v 1.2769630 2.7863085 0.7889066
vn 1.0000000 0.0000004 -0.0000002
vt 0.1259858 0.5756000
v 1.2769630 2.6955855 0.9135900
vn 1.0000000 -0.0000004 -0.0000013
vt 0.1111024 0.5864295
v 1.2769630 2.4018404 0.9138114
vn 1.0000000 0.0000044 -0.0000061
vt 0.1110759 0.6214943
v 1.2769630 2.4018404 0.9138114
vn 0.0000000 -0.5880925 0.8087937
vt 0.2534922 0.3687900
v 1.2769630 2.5483534 0.9618033
vn 0.0000000 -0.0000427 1.0000000
vt 0.2534921 0.3872789
v 1.0342510 2.4018404 0.9138114
vn 0.0000000 -0.5880926 0.8087937
vt 0.2245194 0.3688503
v 1.0342500 2.5483534 0.9618033
vn 0.0000000 -0.0000422 1.0000000
vt 0.2245194 0.3872789
v 1.2769630 2.3108504 0.7890024
vn 0.0000000 -0.9506102 0.3103874
vt 0.2534921 0.3501990
v 1.0342500 2.3108504 0.7890024
vn 0.0000000 -0.9506103 0.3103870
vt 0.2245243 0.3502944
v 1.2769630 2.5483544 0.4605176
vn 0.0000000 -0.0007225 -0.9999998
vt 0.2534924 0.3407562
v 1.2769630 2.4011555 0.5097012
vn 0.0000000 -0.5919852 -0.8059489
vt 0.2534924 0.3592772
v 1.0342500 2.5483544 0.4605176
vn 0.0000000 -0.0007221 -0.9999998
vt 0.2245195 0.3407562
v 1.0342510 2.4011555 0.5097012
vn 0.0000000 -0.5919853 -0.8059488
vt 0.2245191 0.3593130
v 1.2769630 2.3108504 0.7890024
vn 0.0000000 -0.9506102 0.3103874
vt 0.2534923 0.3870979
v 1.0342500 2.3106575 0.6348121
vn 0.0000000 -0.9515730 -0.3074229
vt 0.2245192 0.3718204
v 1.2769630 2.3106575 0.6348121
vn 0.0000000 -0.9515729 -0.3074233
vt 0.2534926 0.3747204
v 1.2769630 2.6948915 0.5092445
vn 0.0000000 0.5894539 -0.8078021
vt 0.2534934 0.3688014
v 1.2769630 2.5483544 0.4605176
vn 0.0000000 -0.0007225 -0.9999998
vt 0.2534934 0.3873090
v 1.0342500 2.6948915 0.5092445
vn 0.0000000 0.5894540 -0.8078020
vt 0.2245205 0.3688547
v 1.0342500 2.5483544 0.4605176
vn 0.0000000 -0.0007221 -0.9999998
vt 0.2245205 0.3873090
v 1.2769630 2.7856605 0.6334627
vn 0.0000000 0.9499843 -0.3122978
vt 0.2534935 0.3502969
v 1.0342500 2.7856605 0.6334627
vn 0.0000000 0.9499844 -0.3122976
vt 0.2245246 0.3503884
v 1.2769630 2.7856605 0.6334627
vn 0.0000000 0.9499843 -0.3122978
vt 0.2534935 0.3872001
v 1.0342500 2.7863085 0.7889066
vn 0.0000000 0.9515892 0.3073727
vt 0.2245211 0.3717813
v 1.2769630 2.7863085 0.7889066
vn 0.0000000 0.9515892 0.3073727
vt 0.2534941 0.3746890
v 1.2769630 2.6955855 0.9135900
vn 0.0000000 0.5884278 0.8085498
vt 0.2534940 0.3592812
v 1.0342500 2.6955855 0.9135900
vn 0.0000000 0.5884281 0.8085496
vt 0.2245208 0.3593170
v 1.2769630 2.5483534 0.9618033
vn 0.0000000 -0.0000427 1.0000000
vt 0.2534937 0.3407926
v 1.0342500 2.5483534 0.9618033
vn 0.0000000 -0.0000422 1.0000000
vt 0.2245207 0.3407931
v 1.0342500 2.5483544 0.4605176
vn -1.0000000 -0.0000013 -0.0000001
vt 0.1293961 0.5519500
v 1.0342510 2.4011555 0.5097012
vn -1.0000000 -0.0000008 -0.0000005
vt 0.1118244 0.5460788
v 1.0342500 2.5483534 0.9618033
vn -1.0000000 -0.0000008 0.0000003
vt 0.1293960 0.4921111
v 1.0342500 2.3106575 0.6348121
vn -1.0000000 0.0000015 -0.0000011
vt 0.1010217 0.5311443
v 1.0342500 2.3108504 0.7890024
vn -1.0000000 -0.0000004 0.0000005
vt 0.1010448 0.5127383
v 1.0342510 2.4018404 0.9138114
vn -1.0000000 -0.0000030 0.0000041
vt 0.1119063 0.4978397
v 1.0342500 2.6955855 0.9135900
vn -1.0000000 -0.0000009 -0.0000003
vt 0.1118208 0.4978662
v 1.0342500 2.6948915 0.5092445
vn -1.0000000 0.0000002 -0.0000003
vt 0.1119036 0.5461333
v 1.0342500 2.7856605 0.6334627
vn -1.0000000 -0.0000001 -0.0000004
vt 0.1010685 0.5313053
v 1.0342500 2.7863085 0.7889066
vn -1.0000000 -0.0000034 -0.0000015
vt 0.1009911 0.5127496
v 1.0342500 2.3108504 0.7890024
vn 0.0000000 -0.9506103 0.3103870
vt 0.2245195 0.3870979
v 1.0342500 2.7856605 0.6334627
vn 0.0000000 0.9499844 -0.3122976
vt 0.2245205 0.3871997
v 1.0342500 2.5483544 0.4605176
vn -1.0000000 -0.0000013 -0.0000001
vt 0.1293961 0.5519500
v 1.0342500 2.5483534 0.9618033
vn -1.0000000 -0.0000008 0.0000003
vt 0.1293960 0.4921111

g group_64360040_140627912325536
f 1/1/1 2/2/2 3/3/3 
f 1/1/1 3/3/3 4/4/4 
f 1/1/1 5/5/5 6/6/6 
f 1/1/1 6/6/6 7/7/7 
f 1/1/1 7/7/7 8/8/8 
f 1/1/1 8/8/8 9/9/9 
f 1/1/1 10/10/10 2/2/2 
f 1/1/1 4/4/4 5/5/5 
f 11/11/11 12/12/12 13/13/13 
f 12/12/12 14/14/14 13/13/13 
f 15/15/15 11/11/11 16/16/16 
f 11/11/11 13/13/13 16/16/16 
f 17/17/17 18/18/18 19/19/19 
f 18/18/18 20/20/20 19/19/19 
f 21/21/21 22/22/22 23/23/23 
f 18/18/18 23/23/23 20/20/20 
f 23/23/23 22/22/22 20/20/20 
f 24/24/24 25/25/25 26/26/26 
f 25/25/25 27/27/27 26/26/26 
f 28/28/28 24/24/24 29/29/29 
f 24/24/24 26/26/26 29/29/29 
f 30/30/30 31/31/31 32/32/32 
f 33/33/33 32/32/32 34/34/34 
f 32/32/32 31/31/31 34/34/34 
f 35/35/35 33/33/33 36/36/36 
f 33/33/33 34/34/34 36/36/36 
f 37/37/37 38/38/38 39/39/39 
f 38/38/38 40/40/40 39/39/39 
f 40/40/40 41/41/41 39/39/39 
f 39/39/39 41/41/41 42/42/42 
f 50/50/50 43/43/43 49/49/49 
f 49/49/49 43/43/43 44/44/44 
f 44/44/44 43/43/43 45/45/45 
f 45/45/45 43/43/43 46/46/46 
f 22/22/22 21/21/21 47/47/47 
f 31/31/31 30/30/30 48/48/48 
