v -1.0357990 1.7173644 0.0433180
vn 1.0000000 0.0000011 0.0000001
vt 0.2113888 0.5457888
v -1.0358000 1.7173635 0.8617126
vn 1.0000000 0.0000002 0.0000000
vt 0.2121785 0.6375235
v -1.0357990 1.5155314 0.0993510
vn 1.0000000 0.0000003 0.0000006
vt 0.1888198 0.5522647
v -1.0358000 1.3644935 0.2472429
vn 1.0000000 -0.0000014 0.0000008
vt 0.1720326 0.5689873
v -1.0358000 1.3095374 0.4497143
vn 1.0000000 -0.0000000 -0.0000001
vt 0.1660678 0.5917339
v -1.0357990 1.5148854 0.8057886
vn 1.0000000 0.0000006 -0.0000007
vt 0.1894283 0.6314486
v -1.0358000 1.3639164 0.6560477
vn 1.0000000 -0.0000011 0.0000003
vt 0.1723618 0.6148089
v -1.2803169 1.3639164 0.6560477
vn -1.0000000 0.0000000 0.0000000
vt 0.7531422 0.6808913
v -1.2803169 1.5148854 0.8057886
vn -1.0000000 0.0000000 0.0000000
vt 0.7355205 0.6983697
v -1.2803169 1.3095385 0.4497144
vn -1.0000000 0.0000000 -0.0000000
vt 0.7594892 0.6568072
v -1.2803169 1.7173644 0.8617126
vn -1.0000000 0.0000000 0.0000000
vt 0.7118864 0.7048977
v -1.2803169 1.9243073 0.8057273
vn -1.0000000 0.0000000 0.0000000
vt 0.6877310 0.6983638
v -1.2803169 2.0714855 0.6581782
vn -1.0000000 0.0000000 0.0000000
vt 0.6705515 0.6811415
v -1.2803169 2.1296265 0.4497147
vn -1.0000000 -0.0000000 0.0000003
vt 0.6637641 0.6568089
v -1.2803169 2.0733764 0.2468670
vn -1.0000000 -0.0000001 0.0000002
vt 0.6703296 0.6331316
v -1.2803169 1.9230394 0.0975742
vn -1.0000000 -0.0000002 -0.0000004
vt 0.6878775 0.6157054
v -1.2803169 1.7173644 0.0433179
vn -1.0000000 -0.0000002 -0.0000002
vt 0.7118847 0.6093716
v -1.2803169 1.5155314 0.0993512
vn -1.0000000 -0.0000006 -0.0000007
vt 0.7354435 0.6159115
v -1.2803169 1.3644935 0.2472430
vn -1.0000000 0.0000011 0.0000003
vt 0.7530736 0.6331739
v -1.2803169 1.3639164 0.6560477
vn -0.0000008 -0.8660316 0.4999893
vt 0.2911606 0.4592847
v -1.0358000 1.3095374 0.4497143
vn -0.0000022 -0.9999933 -0.0036757
vt 0.3025708 0.4408132
v -1.0358000 1.3639164 0.6560477
vn 0.0000000 -0.8660312 0.4999900
vt 0.3025708 0.4592794
v -1.2803169 1.5148854 0.8057886
vn 0.0000000 -0.5015560 0.8651252
vt 0.2911606 0.4961948
v -1.0357990 1.5148854 0.8057886
vn -0.0000001 -0.5015562 0.8651251
vt 0.3025708 0.4961906
v -1.2803169 1.7173644 0.8617126
vn 0.0000001 -0.0026348 0.9999965
vt 0.2911606 0.5146575
v -1.0358000 1.7173635 0.8617126
vn -0.0000001 -0.0026355 0.9999965
vt 0.3025708 0.5146575
v -1.2803169 1.9243073 0.8057273
vn 0.0000001 0.5015880 0.8651066
vt 0.2911611 0.4592808
v -1.0358000 1.7173635 0.8617126
vn -0.0000001 -0.0026355 0.9999965
vt 0.3025708 0.4408132
v -1.0358000 1.9243073 0.8057273
vn 0.0000000 0.5015880 0.8651067
vt 0.3025708 0.4592768
v -1.2803169 2.0714855 0.6581782
vn 0.0000000 0.8637835 0.5038632
vt 0.2911611 0.4869650
v -1.0358000 2.0714855 0.6581782
vn -0.0000000 0.8637835 0.5038632
vt 0.3025708 0.4869606
v -1.2803169 2.1296265 0.4497147
vn 0.0000000 0.9999998 0.0007431
vt 0.2911611 0.5146575
v -1.0358000 2.1296265 0.4497148
vn 0.0000000 0.9999998 0.0007433
vt 0.3025708 0.5146575
v -1.2803169 2.0733764 0.2468670
vn 0.0000004 0.8629614 -0.5052698
vt 0.2911611 0.4592860
v -1.0358000 2.1296265 0.4497148
vn 0.0000000 0.9999998 0.0007433
vt 0.3025708 0.4408132
v -1.0358000 2.0733764 0.2468672
vn 0.0000003 0.8629616 -0.5052695
vt 0.3025708 0.4592808
v -1.2803169 1.9230394 0.0975742
vn 0.0000002 0.4968078 -0.8678606
vt 0.2911611 0.4869704
v -1.0358000 1.9230394 0.0975742
vn 0.0000001 0.4968078 -0.8678606
vt 0.3025708 0.4869641
v -1.2803169 1.7173644 0.0433179
vn 0.0000002 -0.0064412 -0.9999793
vt 0.2911611 0.5146575
v -1.0357990 1.7173644 0.0433180
vn 0.0000000 -0.0064412 -0.9999793
vt 0.3025708 0.5146575
v -1.2803169 1.5155314 0.0993512
vn -0.0000004 -0.4993406 -0.8664058
vt 0.2911606 0.4592811
v -1.0357990 1.7173644 0.0433180
vn 0.0000000 -0.0064412 -0.9999793
vt 0.3025708 0.4408132
v -1.0357990 1.5155314 0.0993510
vn -0.0000005 -0.4993405 -0.8664059
vt 0.3025708 0.4777315
v -1.2803169 1.3644935 0.2472430
vn -0.0000003 -0.8625641 -0.5059479
vt 0.2911606 0.4961927
v -1.0358000 1.3644935 0.2472429
vn -0.0000010 -0.8625634 -0.5059490
vt 0.3025708 0.4961875
v -1.2803169 1.3095385 0.4497144
vn -0.0000021 -0.9999933 -0.0036754
vt 0.2911606 0.5146575
v -1.0358000 1.3095374 0.4497143
vn -0.0000022 -0.9999933 -0.0036757
vt 0.3025708 0.5146575
v -1.0358000 1.7173635 0.8617126
vn 1.0000000 0.0000002 0.0000000
vt 0.2125215 0.6373647
v -1.0357990 1.7173644 0.0433180
vn 1.0000000 0.0000011 0.0000001
vt 0.2115942 0.5456323
v -1.0358000 1.9243073 0.8057273
vn 1.0000000 0.0000001 0.0000001
vt 0.1892621 0.6313240
v -1.0358000 1.9230394 0.0975742
vn 1.0000000 0.0000004 -0.0000000
vt 0.1886019 0.5519468
v -1.0358000 2.0733764 0.2468672
vn 1.0000000 0.0000000 0.0000000
vt 0.1719199 0.5688512
v -1.0358000 2.1296265 0.4497148
vn 1.0000000 0.0000000 0.0000000
vt 0.1658448 0.5916518
v -1.0358000 2.0714855 0.6581782
vn 1.0000000 0.0000000 0.0000000
vt 0.1725979 0.6149522
v -1.2803169 1.3095385 0.4497144
vn -0.0000021 -0.9999933 -0.0036754
vt 0.2911606 0.4408132
v -1.2803169 1.7173644 0.8617126
vn 0.0000001 -0.0026348 0.9999965
vt 0.2911611 0.4408132
v -1.2803169 2.1296265 0.4497147
vn 0.0000000 0.9999998 0.0007431
vt 0.2911611 0.4408132
v -1.2803169 1.7173644 0.0433179
vn 0.0000002 -0.0064412 -0.9999793
vt 0.2911606 0.4408132

g group_64362224_140627912642512
f 1/1/1 2/2/2 3/3/3 
f 3/3/3 2/2/2 4/4/4 
f 4/4/4 2/2/2 5/5/5 
f 2/2/2 6/6/6 5/5/5 
f 6/6/6 7/7/7 5/5/5 
f 8/8/8 9/9/9 10/10/10 
f 9/9/9 11/11/11 10/10/10 
f 11/11/11 12/12/12 10/10/10 
f 12/12/12 13/13/13 10/10/10 
f 13/13/13 14/14/14 10/10/10 
f 14/14/14 15/15/15 10/10/10 
f 15/15/15 16/16/16 10/10/10 
f 16/16/16 17/17/17 10/10/10 
f 17/17/17 18/18/18 10/10/10 
f 10/10/10 18/18/18 19/19/19 
f 20/20/20 21/21/21 22/22/22 
f 23/23/23 22/22/22 24/24/24 
f 25/25/25 24/24/24 26/26/26 
f 27/27/27 28/28/28 29/29/29 
f 30/30/30 29/29/29 31/31/31 
f 32/32/32 31/31/31 33/33/33 
f 34/34/34 35/35/35 36/36/36 
f 37/37/37 36/36/36 38/38/38 
f 39/39/39 38/38/38 40/40/40 
f 41/41/41 42/42/42 43/43/43 
f 44/44/44 43/43/43 45/45/45 
f 46/46/46 45/45/45 47/47/47 
f 48/48/48 49/49/49 50/50/50 
f 49/49/49 51/51/51 50/50/50 
f 51/51/51 52/52/52 50/50/50 
f 52/52/52 53/53/53 50/50/50 
f 53/53/53 54/54/54 50/50/50 
f 21/21/21 20/20/20 55/55/55 
f 22/22/22 23/23/23 20/20/20 
f 24/24/24 25/25/25 23/23/23 
f 28/28/28 27/27/27 56/56/56 
f 29/29/29 30/30/30 27/27/27 
f 31/31/31 32/32/32 30/30/30 
f 35/35/35 34/34/34 57/57/57 
f 36/36/36 37/37/37 34/34/34 
f 38/38/38 39/39/39 37/37/37 
f 42/42/42 41/41/41 58/58/58 
f 43/43/43 44/44/44 41/41/41 
f 45/45/45 46/46/46 44/44/44 
