v 1.0041060 -2.8453076 0.6044385
vn 0.0000009 -0.9999328 0.0115958
vt 0.0560094 5.7551432
v 1.3438940 -2.8453066 0.6044385
vn 0.0000012 -0.9999328 0.0115962
vt 0.4373764 5.7551432
v 1.0041060 -2.8010395 0.7762113
vn 0.0000008 -0.8701347 0.4928140
vt 0.0526595 5.5785670
v 1.3438940 -2.8010385 0.7762113
vn 0.0000003 -0.8701351 0.4928133
vt 0.4377528 5.5763679
v 1.0041060 -2.6654775 0.9136789
vn -0.0000002 -0.5006062 0.8656752
vt 0.0569026 5.3818688
v 1.3438940 -2.6654775 0.9136791
vn -0.0000003 -0.5006065 0.8656750
vt 0.4387577 5.3837152
v 1.0041060 -2.4939287 0.9586208
vn -0.0000002 -0.0870615 0.9962029
vt 0.0560094 5.1970420
v 1.3438940 -2.4939287 0.9586208
vn 0.0000000 -0.0870613 0.9962029
vt 0.4373764 5.1970420
v 1.0041060 -2.8045626 0.4296635
vn 0.0000000 -0.8715576 -0.4902932
vt 0.0581286 5.9341130
v 1.3438940 -2.8045626 0.4296635
vn 0.0000005 -0.8715580 -0.4902925
vt 0.4365321 5.9352589
v 1.0041060 -2.0432186 0.0421931
vn -0.0000002 -0.2577902 -0.9662009
vt 0.0577928 6.8542991
v 1.3438940 -2.6700876 0.2979620
vn 0.0000000 -0.5490144 -0.8358130
vt 0.4365747 6.1281590
v 1.0041060 -2.6700876 0.2979620
vn 0.0000001 -0.5490143 -0.8358130
vt 0.0602692 6.1344261
v 1.3438940 2.7051914 0.9498505
vn 0.0000000 0.5876239 0.8091342
vt 0.4368612 -0.4025621
v 1.0041060 2.7051914 0.9498505
vn -0.0000002 0.5876235 0.8091345
vt 0.0553417 -0.4021803
v 1.3438940 2.5367794 1.0050030
vn 0.0000001 0.0864193 0.9962589
vt 0.4373764 -0.2237163
v 1.0041060 2.5367794 1.0050030
vn -0.0000002 0.0864181 0.9962590
vt 0.0560094 -0.2237163
v 1.3438940 2.8070304 0.8104790
vn 0.0000000 0.9499786 0.3123148
vt 0.4343055 -0.5800490
v 1.0041060 2.8070304 0.8104790
vn 0.0000000 0.9499786 0.3123148
vt 0.0571851 -0.5804524
v 1.0041060 2.8078685 0.6119868
vn 0.0000000 0.9509894 -0.3092235
vt 0.0608457 -0.7722802
v 1.3438940 2.8078685 0.6119868
vn 0.0000000 0.9509894 -0.3092235
vt 0.4407288 -0.7748550
v 1.3438940 2.7064013 0.4736883
vn 0.0000000 0.6669552 -0.7450979
vt 0.4356366 -0.9512706
v 1.0041060 2.7064013 0.4736883
vn 0.0000000 0.6669552 -0.7450979
vt 0.0600168 -0.9525654
v 1.0041060 -1.7260566 0.8956102
vn 0.0000000 0.0404550 0.9991814
vt 0.0560094 4.3759570
v 1.3438940 -1.7260566 0.8956102
vn 0.0000000 0.0404550 0.9991814
vt 0.4373764 4.3759570
v 1.3438940 1.8023435 0.8989385
vn 0.0000000 -0.0721212 0.9973959
vt 0.4373764 0.5668111
v 1.0041060 1.8023435 0.8989385
vn 0.0000000 -0.0721212 0.9973959
vt 0.0560094 0.5668111
v 1.0041060 -1.7304466 0.0000047
vn -0.0000000 -0.0669893 -0.9977537
vt 0.0560094 7.1779580
v 1.3438940 -2.0432186 0.0421931
vn -0.0000002 -0.2577903 -0.9662009
vt 0.4311358 6.8549390
v 1.3438940 -1.7304466 0.0000047
vn 0.0000000 -0.0669893 -0.9977537
vt 0.4373764 7.1779580
v 1.0041060 2.0048585 0.0697660
vn 0.0000000 0.3669945 -0.9302231
vt 0.0560094 -1.8128901
v 1.3438940 2.0048585 0.0697660
vn 0.0000001 0.3669945 -0.9302231
vt 0.4373764 -1.8127980
v 1.0041060 -1.7304466 0.0000047
vn -0.0000000 -0.0669893 -0.9977537
vt 0.0560094 -5.8220420
v 1.0041060 1.7057234 -0.0000048
vn 0.0000000 0.1143207 -0.9934439
vt 0.0560094 -2.1370699
v 1.3438940 -1.7304466 0.0000047
vn 0.0000000 -0.0669893 -0.9977537
vt 0.4373764 -5.8220420
v 1.3438940 1.7057234 -0.0000048
vn 0.0000000 0.1143207 -0.9934439
vt 0.4373764 -2.1372080
v 1.0041060 -2.7948096 0.6044384
vn -1.0000000 0.0000000 0.0000001
vt 0.0036601 5.7551441
v 1.0041060 -2.8453076 0.6044385
vn -1.0000000 0.0000000 0.0000000
vt 0.0560094 5.7551432
v 1.0041060 -2.7543855 0.7568868
vn -1.0000000 0.0000002 0.0000007
vt -0.0024549 5.5766611
v 1.0041060 -2.8010395 0.7762113
vn -1.0000000 0.0000003 0.0000006
vt 0.0526595 5.5785670
v 1.3438940 -2.7543855 0.7568868
vn 1.0000000 -0.0000001 -0.0000003
vt 0.4939222 5.5734200
v 1.3438940 -2.8010385 0.7762113
vn 1.0000000 -0.0000001 -0.0000004
vt 0.4377528 5.5763679
v 1.3438940 -2.7948096 0.6044384
vn 1.0000000 -0.0000000 0.0000000
vt 0.4924499 5.7551432
v 1.3438940 -2.8453066 0.6044385
vn 1.0000000 -0.0000000 0.0000000
vt 0.4373764 5.7551432
v 1.3438940 -2.6654775 0.9136791
vn 1.0000000 0.0000003 0.0000001
vt 0.4387577 5.3837152
v 1.3438940 -2.6461525 0.8670251
vn 1.0000000 0.0000003 0.0000001
vt 0.4928629 5.3870049
v 1.3438940 -2.4914875 0.9077582
vn 1.0000000 0.0000004 0.0000000
vt 0.4924499 5.1970420
v 1.3438940 -2.4939287 0.9586208
vn 1.0000000 0.0000004 0.0000000
vt 0.4373764 5.1970420
v 1.0041060 -2.7579095 0.4489881
vn -1.0000000 0.0000001 -0.0000003
vt 0.0064874 5.9368730
v 1.0041060 -2.8045626 0.4296635
vn -1.0000000 0.0000001 -0.0000004
vt 0.0581286 5.9341130
v 1.3438940 -2.7579095 0.4489881
vn 1.0000000 -0.0000001 0.0000003
vt 0.4902399 5.9393702
v 1.3438940 -2.8045626 0.4296635
vn 1.0000000 -0.0000001 0.0000003
vt 0.4365321 5.9352589
v 1.3438940 -2.6455886 0.3386771
vn 1.0000000 0.0000000 0.0000000
vt 0.4867131 6.1363959
v 1.3438940 -2.0432186 0.0421931
vn 1.0000000 0.0000002 -0.0000000
vt 0.4311358 6.8549390
v 1.3438940 -2.0327947 0.0924517
vn 1.0000000 0.0000002 -0.0000000
vt 0.4912195 6.8500409
v 1.0041060 -2.0432186 0.0421931
vn -1.0000000 -0.0000002 0.0000000
vt 0.0577928 6.8542991
v 1.0041060 -2.6455886 0.3386770
vn -1.0000000 0.0000000 0.0000000
vt 0.0026900 6.1443338
v 1.0041060 -2.0327947 0.0924517
vn -1.0000000 -0.0000002 0.0000000
vt 0.0162767 6.8539672
v 1.3438940 -2.6700876 0.2979620
vn 1.0000000 0.0000000 0.0000000
vt 0.4365747 6.1281590
v 1.0041060 -2.6700876 0.2979620
vn -1.0000000 0.0000000 0.0000000
vt 0.0602692 6.1344261
v 1.3438940 2.6759284 0.5145229
vn 1.0000000 -0.0000001 -0.0000000
vt 0.4901983 -0.9509044
v 1.3438940 2.7064013 0.4736883
vn 1.0000000 -0.0000001 -0.0000000
vt 0.4356366 -0.9512706
v 1.3438940 2.7647984 0.6368530
vn 1.0000000 0.0000000 0.0000000
vt 0.4944661 -0.7703676
v 1.3438940 2.8078685 0.6119868
vn 1.0000000 0.0000000 0.0000000
vt 0.4407288 -0.7748550
v 1.0041060 2.6759284 0.5145229
vn -1.0000000 0.0000001 0.0000000
vt 0.0046413 -0.9501808
v 1.0041060 2.7647984 0.6368530
vn -1.0000000 0.0000000 0.0000000
vt -0.0046790 -0.7731823
v 1.0041060 2.7064013 0.4736883
vn -1.0000000 0.0000001 0.0000000
vt 0.0600168 -0.9525654
v 1.0041060 2.8078685 0.6119868
vn -1.0000000 0.0000000 0.0000000
vt 0.0608457 -0.7722802
v 1.3438940 1.8050154 0.8475322
vn 1.0000000 0.0000000 0.0000000
vt 0.4924499 0.5668111
v 1.3438940 1.8023435 0.8989385
vn 1.0000000 0.0000000 0.0000000
vt 0.4373764 0.5668111
v 1.3438940 -1.7272105 0.8441491
vn 1.0000000 0.0000000 0.0000000
vt 0.4924499 4.3759570
v 1.3438940 -1.7260566 0.8956102
vn 1.0000000 0.0000000 0.0000000
vt 0.4373764 4.3759570
v 1.3438940 2.5343554 0.9547445
vn 1.0000000 0.0000000 0.0000000
vt 0.4924499 -0.2237163
v 1.3438940 -1.7272125 0.0512877
vn 1.0000000 0.0000002 -0.0000000
vt 0.4924499 7.1779580
v 1.3438940 -1.7304466 0.0000047
vn 1.0000000 0.0000002 -0.0000000
vt 0.4373764 7.1779580
v 1.0041060 -1.7272125 0.0512877
vn -1.0000000 -0.0000002 0.0000000
vt 0.0036601 7.1779580
v 1.0041060 -1.7304466 0.0000047
vn -1.0000000 -0.0000002 0.0000000
vt 0.0560094 7.1779580
v 1.0041060 1.9845335 0.1155469
vn -1.0000000 0.0000001 0.0000000
vt 0.0036601 -1.8127990
v 1.0041060 2.0048585 0.0697660
vn -1.0000000 0.0000001 0.0000000
vt 0.0560094 -1.8128901
v 1.3438940 1.9845335 0.1155469
vn 1.0000000 -0.0000001 -0.0000000
vt 0.4924499 -1.8127990
v 1.3438940 2.0048585 0.0697660
vn 1.0000000 -0.0000001 -0.0000000
vt 0.4373764 -1.8127980
v 1.3438940 1.7057234 -0.0000048
vn 1.0000000 0.0000000 0.0000000
vt 0.4373764 -2.1372080
v 1.3438940 1.7024895 0.0512781
vn 1.0000000 0.0000000 0.0000000
vt 0.4924499 -2.1372080
v 1.3438940 -1.7304466 0.0000047
vn 1.0000000 0.0000002 -0.0000000
vt 0.4373764 -5.8220420
v 1.3438940 -1.7272125 0.0512877
vn 1.0000000 0.0000002 -0.0000000
vt 0.4924499 -5.8220420
v 1.0041060 -1.7272125 0.0512877
vn -1.0000000 -0.0000002 0.0000000
vt 0.0036601 -5.8220420
v 1.0041060 1.7024895 0.0512781
vn -1.0000000 0.0000000 0.0000000
vt 0.0036601 -2.1372080
v 1.0041060 -1.7304466 0.0000047
vn -1.0000000 -0.0000002 0.0000000
vt 0.0560094 -5.8220420
v 1.0041060 1.7057234 -0.0000048
vn -1.0000000 0.0000000 0.0000000
vt 0.0560094 -2.1370699
v 1.0041060 -2.7543855 0.7568868
vn 0.0000000 0.8688431 -0.4950876
vt 0.8672170 5.5718269
v 1.3438940 -2.7543855 0.7568868
vn -0.0000003 0.8688433 -0.4950872
vt 0.4939222 5.5734200
v 1.0041060 -2.7948096 0.6044384
vn -0.0000004 0.9999146 -0.0130683
vt 0.8666496 5.7551441
v 1.3438940 -2.7948096 0.6044384
vn -0.0000005 0.9999146 -0.0130681
vt 0.4924499 5.7551432
v 1.0041060 -2.7543855 0.7568868
vn 0.0000000 0.8688431 -0.4950876
vt 0.8666496 5.4787002
v 1.3438940 -2.6461525 0.8670251
vn 0.0000000 0.5019222 -0.8649128
vt 0.4928629 5.3870049
v 1.0041060 -2.6461525 0.8670251
vn 0.0000000 0.5019221 -0.8649129
vt 0.8658927 5.3880472
v 1.0041060 -2.4914875 0.9077582
vn 0.0000000 0.0871288 -0.9961970
vt 0.8666496 5.1970420
v 1.3438940 -2.4914875 0.9077582
vn 0.0000000 0.0871289 -0.9961970
vt 0.4924499 5.1970420
v 1.0041060 -2.7579095 0.4489881
vn -0.0000002 0.8709107 0.4914414
vt 0.8662974 5.9400630
v 1.3438940 -2.7579095 0.4489881
vn -0.0000000 0.8709108 0.4914411
vt 0.4902399 5.9393702
v 1.3438940 -2.6455886 0.3386771
vn -0.0000001 0.5473683 0.8368919
vt 0.4867131 6.1363959
v 1.0041060 -2.0327947 0.0924517
vn 0.0000001 0.2551303 0.9669067
vt 0.8666494 6.8503408
v 1.0041060 -2.6455886 0.3386770
vn -0.0000001 0.5473683 0.8368918
vt 0.8636882 6.1444001
v 1.0041060 2.6803255 0.9067809
vn 0.0000000 -0.5988472 -0.8008633
vt 0.8674611 -0.4077920
v 1.3438940 2.6803255 0.9067809
vn 0.0000000 -0.5988474 -0.8008631
vt 0.4929487 -0.4072194
v 1.0041060 2.5343554 0.9547445
vn 0.0000000 -0.0856538 -0.9963250
vt 0.8666496 -0.2237163
v 1.3438940 2.5343554 0.9547445
vn 0.0000000 -0.0856540 -0.9963250
vt 0.4924499 -0.2237163
v 1.0041060 2.7639604 0.7856129
vn 0.0000000 -0.9538801 -0.3001880
vt 0.8671750 -0.5899178
v 1.3438940 2.7639604 0.7856129
vn 0.0000000 -0.9538801 -0.3001880
vt 0.4933743 -0.5874507
v 1.3438940 2.7647984 0.6368530
vn 0.0000000 -0.9519294 0.3063176
vt 0.4944661 -0.7703676
v 1.0041060 2.7647984 0.6368530
vn 0.0000000 -0.9519293 0.3063177
vt 0.8657925 -0.7700288
v 1.0041060 2.6759284 0.5145229
vn 0.0000000 -0.6690646 0.7432042
vt 0.8666340 -0.9507686
v 1.3438940 2.6759284 0.5145229
vn 0.0000000 -0.6690646 0.7432042
vt 0.4901983 -0.9509044
v 1.3438940 1.8050154 0.8475322
vn -0.0000000 0.0733897 -0.9973034
vt 0.4924499 0.5668111
v 1.3438940 -1.7272105 0.8441491
vn 0.0000000 -0.0410278 -0.9991580
vt 0.4924499 4.3759570
v 1.0041060 -1.7272105 0.8441491
vn 0.0000000 -0.0410278 -0.9991580
vt 0.8666496 4.3759570
v 1.0041060 1.8050154 0.8475322
vn 0.0000000 0.0733897 -0.9973034
vt 0.8666496 0.5668111
v 1.3438940 -2.0327947 0.0924517
vn 0.0000002 0.2551304 0.9669067
vt 0.4912195 6.8500409
v 1.0041060 -1.7272125 0.0512877
vn 0.0000000 0.0669020 0.9977596
vt 0.8666496 7.1779580
v 1.3438940 -1.7272125 0.0512877
vn 0.0000000 0.0669020 0.9977596
vt 0.4924499 7.1779580
v 1.0041060 1.9845335 0.1155469
vn 0.0000000 -0.3650731 0.9309789
vt 0.8666496 -1.8127971
v 1.3438940 1.9845335 0.1155469
vn 0.0000000 -0.3650730 0.9309789
vt 0.4924499 -1.8127990
v 1.3438940 -1.7272125 0.0512877
vn 0.0000000 0.0669020 0.9977596
vt 0.4924499 -5.8220420
v 1.3438940 1.7024895 0.0512781
vn 0.0000000 -0.1117853 0.9937324
vt 0.4924499 -2.1372080
v 1.0041060 -1.7272125 0.0512877
vn 0.0000000 0.0669020 0.9977596
vt 0.8666496 -5.8220420
v 1.0041060 1.7024895 0.0512781
vn 0.0000000 -0.1117853 0.9937324
vt 0.8666496 -2.1372080
v 1.1727630 1.9392555 0.2073263
vn 0.0000077 0.3530475 -0.9356054
vt 0.8844327 -1.8127980
v 1.1727630 2.6413283 0.6018687
vn -0.0000167 0.4990155 -0.8665931
vt 0.8872104 -0.9443277
v 1.1827630 1.9815915 0.1155484
vn -0.9950861 0.0361416 -0.0921815
vt 0.9858354 -1.8127980
v 1.1827630 2.6729856 0.5145249
vn -0.9940776 0.0543161 -0.0941255
vt 0.9858785 -0.9510953
v 1.1727639 1.8078865 0.7462413
vn 0.0000004 -0.0727727 0.9973485
vt 0.8844327 0.5668111
v 1.1827630 1.8020724 0.8475337
vn -0.9951777 -0.0072764 0.0978186
vt 0.9858354 0.5668111
v 1.1827630 2.5314124 0.9547466
vn -0.9951209 -0.0143773 0.0976107
vt 0.9858354 -0.2237163
v 1.1827630 -1.7301536 0.8441477
vn -0.9951761 0.0040704 0.0980209
vt 0.9858354 4.3759570
v 1.1727630 -1.7328856 0.7427275
vn 0.0000033 0.0406980 0.9991715
vt 0.8844327 4.3759570
v 1.1727630 -2.5100825 0.8075554
vn -0.0000077 0.0830400 0.9965462
vt 0.8844327 5.1970420
v 1.1827630 -2.4944305 0.9077563
vn -0.9951490 0.0081596 0.0980408
vt 0.9858354 5.1970420
v 1.1827630 -2.6105084 0.3242039
vn -0.9950831 -0.0374396 -0.0916956
vt 0.9858354 6.1746731
v 1.1727630 -2.5630925 0.4133642
vn -0.0003471 -0.3727021 -0.9279510
vt 0.8844327 6.1746731
v 1.1827630 -2.0309076 0.0875489
vn -0.9956244 -0.0239355 -0.0903284
vt 0.9887981 6.8501730
v 1.1727639 -1.9975805 0.1899253
vn -0.0033152 -0.2477570 -0.9688165
vt 0.8912391 6.8570471
v 1.1827630 -2.0309076 0.0875489
vn -0.9956244 -0.0239355 -0.0903284
vt 0.9973879 6.8510251
v 1.1727639 -1.9975805 0.1899253
vn -0.0033152 -0.2477570 -0.9688165
vt 0.8887021 6.8704600
v 1.1727630 -1.7237796 0.1523781
vn -0.0003579 -0.0662364 -0.9978039
vt 0.8820400 7.1708498
v 1.1827630 -1.7301545 0.0512862
vn -0.9951621 -0.0059020 -0.0980690
vt 0.9858354 -5.8220420
v 1.1727630 -1.7237796 0.1523781
vn -0.0003579 -0.0662364 -0.9978039
vt 0.8844327 -5.8220420
v 1.1827630 1.6995465 0.0512795
vn -0.9951398 0.0105583 -0.0979052
vt 0.9858354 -2.1372080
v 1.1727630 1.6931714 0.1523714
vn 0.0000124 0.1132386 -0.9935678
vt 0.8844327 -2.1372080
v 1.1827630 1.6995465 0.0512795
vn -0.9951398 0.0105583 -0.0979052
vt 0.9941922 -2.1377749
v 1.1727630 1.6931714 0.1523714
vn 0.0000124 0.1132386 -0.9935678
vt 0.8780947 -2.1188209
v 1.1727630 1.9392555 0.2073263
vn 0.0000077 0.3530475 -0.9356054
vt 0.8798018 -1.8274169
v 1.1627650 2.6729856 0.5145249
vn 0.9940791 0.0543092 -0.0941137
vt 0.9889541 -0.9511014
v 1.1627640 1.9815915 0.1155484
vn 0.9950873 0.0361391 -0.0921698
vt 0.9858354 -1.8127980
v 1.1727630 2.5488803 0.8553917
vn 0.0000125 -0.1456036 0.9893430
vt 0.8844327 -0.2237163
v 1.1627640 2.5314124 0.9547466
vn 0.9951200 -0.0143506 0.0976230
vt 0.9858354 -0.2237163
v 1.1627640 1.8020724 0.8475337
vn 0.9951757 -0.0072913 0.0978377
vt 0.9858354 0.5668111
v 1.1627640 -1.7301536 0.8441477
vn 0.9951777 0.0040607 0.0980042
vt 0.9858354 4.3759570
v 1.1627640 -2.4944305 0.9077563
vn 0.9951513 0.0081743 0.0980157
vt 0.9858354 5.1970420
v 1.1627640 -2.6105084 0.3242040
vn 0.9950736 -0.0365375 -0.0921610
vt 0.9858354 6.1746731
v 1.1627650 -2.0309076 0.0944221
vn 0.9951382 -0.0255532 -0.0951159
vt 0.9967657 6.8503528
v 1.1627650 -2.0309076 0.0944221
vn 0.9951382 -0.0255532 -0.0951159
vt 0.9982159 6.8492279
v 1.1627640 -1.7301556 0.0512863
vn 0.9951630 -0.0069570 -0.0979909
vt 0.9920043 7.1822271
v 1.1727630 -1.7237796 0.1523781
vn -0.0003579 -0.0662364 -0.9978039
vt 0.8809610 7.1713390
v 1.1627640 -1.7301556 0.0512863
vn 0.9951630 -0.0069570 -0.0979909
vt 0.9858354 -5.8220420
v 1.1627660 1.6995465 0.0512794
vn 0.9951419 0.0105565 -0.0978834
vt 0.9858354 -2.1372080
v 1.1627660 1.6995465 0.0512794
vn 0.9951419 0.0105565 -0.0978834
vt 0.9914433 -2.1377130
v 1.1627640 1.9815915 0.1155484
vn 0.9950873 0.0361391 -0.0921698
vt 0.9941938 -1.8034039
v 1.1727630 1.9392555 0.2073263
vn 0.0000077 0.3530475 -0.9356054
vt 0.8791264 -1.8265982
v 1.0041060 2.7639604 0.7856129
vn -1.0000000 0.0000000 0.0000000
vt -0.0074301 -0.6067727
v 1.3438940 2.8070304 0.8104790
vn 1.0000000 0.0000000 0.0000000
vt 0.4343055 -0.5800490
v 1.3438940 2.7639604 0.7856129
vn 1.0000000 0.0000000 0.0000000
vt 0.4933743 -0.5874507
v 1.3438940 2.5367794 1.0050030
vn 1.0000000 0.0000000 0.0000000
vt 0.4373764 -0.2237163
v 1.1827630 -1.7301545 0.0512862
vn -0.9951621 -0.0059020 -0.0980690
vt 0.9921668 7.1812859
v 1.1827630 1.9815915 0.1155484
vn -0.9950861 0.0361416 -0.0921815
vt 0.9947116 -1.8034570
v 1.1727639 -1.9975805 0.1899253
vn -0.0033152 -0.2477570 -0.9688165
vt 0.8884726 6.8684821
v 1.1727630 1.6931714 0.1523714
vn 0.0000124 0.1132386 -0.9935678
vt 0.8754746 -2.1179869
v 1.0041060 2.8070304 0.8104790
vn -1.0000000 0.0000000 0.0000000
vt 0.0571851 -0.5804524

g group_16752576_140627909732944
f 1/1/1 2/2/2 3/3/3 
f 2/2/2 4/4/4 3/3/3 
f 4/4/4 5/5/5 3/3/3 
f 5/5/5 6/6/6 7/7/7 
f 6/6/6 8/8/8 7/7/7 
f 9/9/9 10/10/10 1/1/1 
f 10/10/10 2/2/2 1/1/1 
f 11/11/11 12/12/12 13/13/13 
f 9/9/9 13/13/13 10/10/10 
f 13/13/13 12/12/12 10/10/10 
f 14/14/14 15/15/15 16/16/16 
f 15/15/15 17/17/17 16/16/16 
f 18/18/18 19/19/19 14/14/14 
f 19/19/19 15/15/15 14/14/14 
f 20/20/20 18/18/18 21/21/21 
f 22/22/22 23/23/23 21/21/21 
f 23/23/23 20/20/20 21/21/21 
f 24/24/24 25/25/25 26/26/26 
f 27/27/27 24/24/24 26/26/26 
f 26/26/26 17/17/17 27/27/27 
f 11/11/11 28/28/28 29/29/29 
f 28/28/28 30/30/30 29/29/29 
f 23/23/23 22/22/22 31/31/31 
f 22/22/22 32/32/32 31/31/31 
f 24/24/24 8/8/8 25/25/25 
f 33/33/33 34/34/34 35/35/35 
f 34/34/34 36/36/36 35/35/35 
f 37/37/37 38/38/38 39/39/39 
f 38/38/38 40/40/40 39/39/39 
f 41/41/41 42/42/42 43/43/43 
f 42/42/42 44/44/44 43/43/43 
f 45/45/45 41/41/41 46/46/46 
f 47/47/47 48/48/48 46/46/46 
f 48/48/48 45/45/45 46/46/46 
f 49/49/49 50/50/50 37/37/37 
f 50/50/50 38/38/38 37/37/37 
f 43/43/43 44/44/44 51/51/51 
f 44/44/44 52/52/52 51/51/51 
f 53/53/53 54/54/54 55/55/55 
f 56/56/56 57/57/57 58/58/58 
f 51/51/51 52/52/52 53/53/53 
f 52/52/52 59/59/59 53/53/53 
f 57/57/57 60/60/60 49/49/49 
f 60/60/60 50/50/50 49/49/49 
f 61/61/61 62/62/62 63/63/63 
f 62/62/62 64/64/64 63/63/63 
f 65/65/65 66/66/66 67/67/67 
f 66/66/66 68/68/68 67/67/67 
f 69/69/69 70/70/70 71/71/71 
f 70/70/70 72/72/72 71/71/71 
f 73/73/73 70/70/70 69/69/69 
f 72/72/72 47/47/47 71/71/71 
f 74/74/74 55/55/55 75/75/75 
f 55/55/55 54/54/54 75/75/75 
f 76/76/76 77/77/77 58/58/58 
f 77/77/77 56/56/56 58/58/58 
f 78/78/78 65/65/65 79/79/79 
f 65/65/65 67/67/67 79/79/79 
f 80/80/80 81/81/81 61/61/61 
f 81/81/81 62/62/62 61/61/61 
f 82/82/82 83/83/83 84/84/84 
f 83/83/83 85/85/85 84/84/84 
f 86/86/86 87/87/87 88/88/88 
f 87/87/87 89/89/89 88/88/88 
f 82/82/82 80/80/80 83/83/83 
f 90/90/90 91/91/91 92/92/92 
f 91/91/91 93/93/93 92/92/92 
f 94/94/94 95/95/95 91/91/91 
f 96/96/96 95/95/95 94/94/94 
f 97/97/97 98/98/98 96/96/96 
f 98/98/98 95/95/95 96/96/96 
f 92/92/92 93/93/93 99/99/99 
f 93/93/93 100/100/100 99/99/99 
f 101/101/101 102/102/102 103/103/103 
f 99/99/99 100/100/100 103/103/103 
f 100/100/100 101/101/101 103/103/103 
f 104/104/104 105/105/105 106/106/106 
f 105/105/105 107/107/107 106/106/106 
f 108/108/108 109/109/109 104/104/104 
f 109/109/109 105/105/105 104/104/104 
f 110/110/110 108/108/108 111/111/111 
f 112/112/112 113/113/113 111/111/111 
f 113/113/113 110/110/110 111/111/111 
f 110/110/110 109/109/109 108/108/108 
f 114/114/114 115/115/115 116/116/116 
f 117/117/117 114/114/114 116/116/116 
f 107/107/107 117/117/117 106/106/106 
f 102/102/102 118/118/118 119/119/119 
f 118/118/118 120/120/120 119/119/119 
f 121/121/121 122/122/122 112/112/112 
f 122/122/122 113/113/113 112/112/112 
f 115/115/115 97/97/97 116/116/116 
f 123/123/123 124/124/124 125/125/125 
f 124/124/124 126/126/126 125/125/125 
f 89/89/89 78/78/78 79/79/79 
f 36/36/36 31/31/31 32/32/32 
f 127/127/127 128/128/128 129/129/129 
f 129/129/129 128/128/128 130/130/130 
f 131/131/131 132/132/132 133/133/133 
f 132/132/132 131/131/131 134/134/134 
f 134/134/134 131/131/131 135/135/135 
f 136/136/136 137/137/137 134/134/134 
f 138/138/138 139/139/139 140/140/140 
f 140/140/140 139/139/139 141/141/141 
f 142/142/142 143/143/143 144/144/144 
f 145/145/145 146/146/146 147/147/147 
f 147/147/147 146/146/146 148/148/148 
f 149/149/149 150/150/150 151/151/151 
f 152/152/152 128/128/128 153/153/153 
f 153/153/153 128/128/128 127/127/127 
f 154/154/154 155/155/155 156/156/156 
f 157/157/157 131/131/131 156/156/156 
f 131/131/131 157/157/157 135/135/135 
f 135/135/135 157/157/157 158/158/158 
f 159/159/159 160/160/160 139/139/139 
f 139/139/139 160/160/160 141/141/141 
f 161/161/161 162/162/162 163/163/163 
f 164/164/164 165/165/165 146/146/146 
f 146/146/146 165/165/165 148/148/148 
f 166/166/166 167/167/167 168/168/168 
f 169/169/169 68/68/68 66/66/66 
f 124/124/124 121/121/121 126/126/126 
f 5/5/5 4/4/4 6/6/6 
f 12/12/12 11/11/11 29/29/29 
f 18/18/18 20/20/20 19/19/19 
f 17/17/17 26/26/26 16/16/16 
f 8/8/8 24/24/24 7/7/7 
f 41/41/41 45/45/45 42/42/42 
f 54/54/54 53/53/53 59/59/59 
f 57/57/57 56/56/56 60/60/60 
f 63/63/63 170/170/170 171/171/171 
f 63/63/63 64/64/64 170/170/170 
f 70/70/70 73/73/73 172/172/172 
f 47/47/47 72/72/72 48/48/48 
f 80/80/80 82/82/82 81/81/81 
f 102/102/102 101/101/101 118/118/118 
f 117/117/117 107/107/107 114/114/114 
f 97/97/97 115/115/115 98/98/98 
f 78/78/78 89/89/89 87/87/87 
f 31/31/31 36/36/36 34/34/34 
f 133/133/133 154/154/154 131/131/131 
f 134/134/134 135/135/135 136/136/136 
f 144/144/144 173/173/173 142/142/142 
f 151/151/151 174/174/174 149/149/149 
f 156/156/156 131/131/131 154/154/154 
f 158/158/158 136/136/136 135/135/135 
f 163/163/163 175/175/175 161/161/161 
f 168/168/168 176/176/176 166/166/166 
f 68/68/68 169/169/169 177/177/177 
f 121/121/121 124/124/124 122/122/122 
