v 1.0356740 0.8540978 0.0433188
vn -1.0000000 0.0000006 0.0000000
vt 0.2113888 0.5457888
v 1.0356740 0.6522653 0.0993516
vn -1.0000000 0.0000003 0.0000002
vt 0.1888198 0.5522647
v 1.0356740 0.8540960 0.8617134
vn -1.0000000 0.0000000 0.0000001
vt 0.2121785 0.6375235
v 1.0356740 0.5012266 0.2472433
vn -1.0000000 -0.0000007 0.0000004
vt 0.1720326 0.5689873
v 1.0356740 0.4462702 0.4497145
vn -1.0000000 -0.0000002 0.0000001
vt 0.1660678 0.5917339
v 1.0356740 0.6516180 0.8057891
vn -1.0000000 -0.0000002 0.0000001
vt 0.1894283 0.6314486
v 1.0356740 0.5006494 0.6560481
vn -1.0000000 -0.0000018 0.0000011
vt 0.1723618 0.6148089
v 1.2801920 0.4462708 0.4497147
vn 1.0000000 0.0000015 0.0000002
vt 0.7594892 0.6568072
v 1.2801920 0.6522653 0.0993517
vn 1.0000000 0.0000002 0.0000001
vt 0.7354435 0.6159115
v 1.2801920 0.5006494 0.6560481
vn 1.0000000 0.0000004 -0.0000001
vt 0.7531422 0.6808913
v 1.2801920 0.6516181 0.8057891
vn 1.0000000 -0.0000003 -0.0000002
vt 0.7355205 0.6983697
v 1.2801920 0.8540964 0.8617134
vn 1.0000000 -0.0000003 -0.0000002
vt 0.7118864 0.7048977
v 1.2801920 1.0610394 0.8057286
vn 1.0000000 -0.0000001 -0.0000003
vt 0.6877310 0.6983638
v 1.2801920 1.2082185 0.6581796
vn 1.0000000 -0.0000003 -0.0000002
vt 0.6705515 0.6811415
v 1.2801920 1.2663594 0.4497162
vn 1.0000000 -0.0000004 -0.0000000
vt 0.6637641 0.6568089
v 1.2801920 1.2101104 0.2468685
vn 1.0000000 -0.0000004 0.0000000
vt 0.6703296 0.6331316
v 1.2801920 1.0597734 0.0975754
vn 1.0000000 -0.0000003 -0.0000003
vt 0.6878775 0.6157054
v 1.2801920 0.8540978 0.0433188
vn 1.0000000 -0.0000003 0.0000011
vt 0.7118847 0.6093716
v 1.2801920 0.5012267 0.2472433
vn 1.0000000 0.0000021 0.0000006
vt 0.7530736 0.6331739
v 1.2801920 0.5006494 0.6560481
vn 0.0000006 -0.8660325 0.4999878
vt 0.2911606 0.4592847
v 1.0356740 0.4462702 0.4497145
vn 0.0000018 -0.9999933 -0.0036769
vt 0.3025708 0.4408132
v 1.2801920 0.4462708 0.4497147
vn 0.0000018 -0.9999933 -0.0036767
vt 0.2911606 0.4408132
v 1.2801920 0.6516181 0.8057891
vn 0.0000001 -0.5015575 0.8651243
vt 0.2911606 0.4961948
v 1.0356740 0.5006494 0.6560481
vn 0.0000000 -0.8660321 0.4999884
vt 0.3025708 0.4592794
v 1.2801920 0.8540964 0.8617134
vn -0.0000001 -0.0026362 0.9999965
vt 0.2911606 0.5146575
v 1.0356740 0.6516180 0.8057891
vn 0.0000002 -0.5015576 0.8651243
vt 0.3025708 0.4961906
v 1.2801920 1.0610394 0.8057286
vn -0.0000001 0.5015857 0.8651080
vt 0.2911611 0.4592808
v 1.0356740 0.8540960 0.8617134
vn 0.0000001 -0.0026370 0.9999965
vt 0.3025708 0.4408132
v 1.2801920 0.8540964 0.8617134
vn -0.0000001 -0.0026362 0.9999965
vt 0.2911611 0.4408132
v 1.2801920 1.2082185 0.6581796
vn 0.0000000 0.8637827 0.5038646
vt 0.2911611 0.4869650
v 1.0356740 1.0610394 0.8057286
vn 0.0000000 0.5015855 0.8651081
vt 0.3025708 0.4592768
v 1.2801920 1.2663594 0.4497162
vn -0.0000000 0.9999998 0.0007444
vt 0.2911611 0.5146575
v 1.0356740 1.2082185 0.6581796
vn 0.0000000 0.8637826 0.5038646
vt 0.3025708 0.4869606
v 1.2801920 1.2101104 0.2468685
vn -0.0000005 0.8629624 -0.5052682
vt 0.2911611 0.4592860
v 1.0356740 1.2663594 0.4497163
vn -0.0000000 0.9999998 0.0007446
vt 0.3025708 0.4408132
v 1.2801920 1.2663594 0.4497162
vn -0.0000000 0.9999998 0.0007444
vt 0.2911611 0.4408132
v 1.2801920 1.0597734 0.0975754
vn -0.0000002 0.4968088 -0.8678600
vt 0.2911611 0.4869704
v 1.0356740 1.2101104 0.2468687
vn -0.0000003 0.8629627 -0.5052677
vt 0.3025708 0.4592808
v 1.2801920 0.8540978 0.0433188
vn -0.0000001 -0.0064398 -0.9999793
vt 0.2911611 0.5146575
v 1.0356740 1.0597734 0.0975754
vn -0.0000000 0.4968090 -0.8678600
vt 0.3025708 0.4869641
v 1.2801920 0.6522653 0.0993517
vn 0.0000004 -0.4993393 -0.8664066
vt 0.2911606 0.4592811
v 1.0356740 0.8540978 0.0433188
vn 0.0000001 -0.0064398 -0.9999793
vt 0.3025708 0.4408132
v 1.2801920 0.8540978 0.0433188
vn -0.0000001 -0.0064398 -0.9999793
vt 0.2911606 0.4408132
v 1.2801920 0.5012267 0.2472433
vn 0.0000004 -0.8625630 -0.5059497
vt 0.2911606 0.4961927
v 1.0356740 0.6522653 0.0993516
vn 0.0000005 -0.4993390 -0.8664067
vt 0.3025708 0.4777315
v 1.2801920 0.4462708 0.4497147
vn 0.0000018 -0.9999933 -0.0036767
vt 0.2911606 0.5146575
v 1.0356740 0.5012266 0.2472433
vn 0.0000010 -0.8625625 -0.5059506
vt 0.3025708 0.4961875
v 1.0356740 0.8540960 0.8617134
vn -1.0000000 0.0000000 0.0000001
vt 0.2125215 0.6373647
v 1.0356740 1.0610394 0.8057286
vn -1.0000000 0.0000000 0.0000000
vt 0.1892621 0.6313240
v 1.0356740 0.8540978 0.0433188
vn -1.0000000 0.0000006 0.0000000
vt 0.2115942 0.5456323
v 1.0356740 1.0597734 0.0975754
vn -1.0000000 0.0000000 0.0000000
vt 0.1886019 0.5519468
v 1.0356740 1.2101104 0.2468687
vn -1.0000000 0.0000000 0.0000000
vt 0.1719199 0.5688512
v 1.0356740 1.2663594 0.4497163
vn -1.0000000 0.0000000 0.0000000
vt 0.1658448 0.5916518
v 1.0356740 1.2082185 0.6581796
vn -1.0000000 0.0000000 0.0000000
vt 0.1725979 0.6149522
v 1.0356740 0.8540960 0.8617134
vn 0.0000001 -0.0026370 0.9999965
vt 0.3025708 0.5146575
v 1.0356740 1.2663594 0.4497163
vn -0.0000000 0.9999998 0.0007446
vt 0.3025708 0.5146575
v 1.0356740 0.8540978 0.0433188
vn 0.0000001 -0.0064398 -0.9999793
vt 0.3025708 0.5146575
v 1.0356740 0.4462702 0.4497145
vn 0.0000018 -0.9999933 -0.0036769
vt 0.3025708 0.5146575

g group_16751568_140627909242960
f 1/1/1 2/2/2 3/3/3 
f 2/2/2 4/4/4 3/3/3 
f 4/4/4 5/5/5 3/3/3 
f 3/3/3 5/5/5 6/6/6 
f 6/6/6 5/5/5 7/7/7 
f 8/8/8 9/9/9 10/10/10 
f 10/10/10 9/9/9 11/11/11 
f 11/11/11 9/9/9 12/12/12 
f 12/12/12 9/9/9 13/13/13 
f 13/13/13 9/9/9 14/14/14 
f 14/14/14 9/9/9 15/15/15 
f 15/15/15 9/9/9 16/16/16 
f 16/16/16 9/9/9 17/17/17 
f 17/17/17 9/9/9 18/18/18 
f 19/19/19 9/9/9 8/8/8 
f 20/20/20 21/21/21 22/22/22 
f 23/23/23 24/24/24 20/20/20 
f 25/25/25 26/26/26 23/23/23 
f 27/27/27 28/28/28 29/29/29 
f 30/30/30 31/31/31 27/27/27 
f 32/32/32 33/33/33 30/30/30 
f 34/34/34 35/35/35 36/36/36 
f 37/37/37 38/38/38 34/34/34 
f 39/39/39 40/40/40 37/37/37 
f 41/41/41 42/42/42 43/43/43 
f 44/44/44 45/45/45 41/41/41 
f 46/46/46 47/47/47 44/44/44 
f 48/48/48 49/49/49 50/50/50 
f 50/50/50 49/49/49 51/51/51 
f 51/51/51 49/49/49 52/52/52 
f 52/52/52 49/49/49 53/53/53 
f 53/53/53 49/49/49 54/54/54 
f 21/21/21 20/20/20 24/24/24 
f 24/24/24 23/23/23 26/26/26 
f 26/26/26 25/25/25 55/55/55 
f 28/28/28 27/27/27 31/31/31 
f 31/31/31 30/30/30 33/33/33 
f 33/33/33 32/32/32 56/56/56 
f 35/35/35 34/34/34 38/38/38 
f 38/38/38 37/37/37 40/40/40 
f 40/40/40 39/39/39 57/57/57 
f 42/42/42 41/41/41 45/45/45 
f 45/45/45 44/44/44 47/47/47 
f 47/47/47 46/46/46 58/58/58 
