v -1.0357990 0.8540971 0.0433174
vn 1.0000000 0.0000011 0.0000001
vt 0.2113888 0.5457888
v -1.0358000 0.8540966 0.8617120
vn 1.0000000 0.0000002 0.0000000
vt 0.2121785 0.6375235
v -1.0357990 0.6522646 0.0993505
vn 1.0000000 0.0000003 0.0000006
vt 0.1888198 0.5522647
v -1.0358000 0.5012262 0.2472424
vn 1.0000000 -0.0000014 0.0000008
vt 0.1720326 0.5689873
v -1.0358000 0.4462701 0.4497137
vn 1.0000000 -0.0000000 -0.0000001
vt 0.1660678 0.5917339
v -1.0357990 0.6516186 0.8057880
vn 1.0000000 0.0000006 -0.0000007
vt 0.1894283 0.6314486
v -1.0358000 0.5006496 0.6560472
vn 1.0000000 -0.0000011 0.0000003
vt 0.1723618 0.6148089
v -1.2803169 0.5006496 0.6560472
vn -1.0000000 0.0000000 0.0000000
vt 0.7531422 0.6808913
v -1.2803169 0.6516186 0.8057880
vn -1.0000000 0.0000000 0.0000000
vt 0.7355205 0.6983697
v -1.2803169 0.4462708 0.4497139
vn -1.0000000 0.0000000 -0.0000000
vt 0.7594892 0.6568072
v -1.2803169 0.8540970 0.8617120
vn -1.0000000 0.0000000 0.0000000
vt 0.7118864 0.7048977
v -1.2803169 1.0610404 0.8057268
vn -1.0000000 0.0000000 0.0000000
vt 0.6877310 0.6983638
v -1.2803169 1.2082185 0.6581777
vn -1.0000000 0.0000000 0.0000000
vt 0.6705515 0.6811415
v -1.2803169 1.2663594 0.4497141
vn -1.0000000 -0.0000000 0.0000003
vt 0.6637641 0.6568089
v -1.2803169 1.2101104 0.2468665
vn -1.0000000 -0.0000001 0.0000002
vt 0.6703296 0.6331316
v -1.2803169 1.0597725 0.0975736
vn -1.0000000 -0.0000002 -0.0000004
vt 0.6878775 0.6157054
v -1.2803169 0.8540971 0.0433174
vn -1.0000000 -0.0000002 -0.0000002
vt 0.7118847 0.6093716
v -1.2803169 0.6522647 0.0993506
vn -1.0000000 -0.0000006 -0.0000007
vt 0.7354435 0.6159115
v -1.2803169 0.5012263 0.2472425
vn -1.0000000 0.0000011 0.0000003
vt 0.7530736 0.6331739
v -1.2803169 0.5006496 0.6560472
vn -0.0000007 -0.8660317 0.4999892
vt 0.2911606 0.4592847
v -1.0358000 0.4462701 0.4497137
vn -0.0000020 -0.9999933 -0.0036754
vt 0.3025708 0.4408132
v -1.0358000 0.5006496 0.6560472
vn -0.0000001 -0.8660313 0.4999898
vt 0.3025708 0.4592794
v -1.2803169 0.6516186 0.8057880
vn -0.0000001 -0.5015562 0.8651251
vt 0.2911606 0.4961948
v -1.0357990 0.6516186 0.8057880
vn -0.0000002 -0.5015563 0.8651251
vt 0.3025708 0.4961906
v -1.2803169 0.8540970 0.8617120
vn 0.0000001 -0.0026344 0.9999965
vt 0.2911606 0.5146575
v -1.0358000 0.8540966 0.8617120
vn -0.0000001 -0.0026353 0.9999965
vt 0.3025708 0.5146575
v -1.2803169 1.0610404 0.8057268
vn 0.0000001 0.5015872 0.8651072
vt 0.2911611 0.4592808
v -1.0358000 0.8540966 0.8617120
vn -0.0000001 -0.0026353 0.9999965
vt 0.3025708 0.4408132
v -1.0358000 1.0610404 0.8057268
vn 0.0000000 0.5015870 0.8651072
vt 0.3025708 0.4592768
v -1.2803169 1.2082185 0.6581777
vn 0.0000000 0.8637834 0.5038635
vt 0.2911611 0.4869650
v -1.0358000 1.2082185 0.6581777
vn -0.0000000 0.8637833 0.5038635
vt 0.3025708 0.4869606
v -1.2803169 1.2663594 0.4497141
vn 0.0000000 0.9999998 0.0007429
vt 0.2911611 0.5146575
v -1.0358000 1.2663594 0.4497142
vn 0.0000000 0.9999998 0.0007431
vt 0.3025708 0.5146575
v -1.2803169 1.2101104 0.2468665
vn 0.0000004 0.8629615 -0.5052696
vt 0.2911611 0.4592860
v -1.0358000 1.2663594 0.4497142
vn 0.0000000 0.9999998 0.0007431
vt 0.3025708 0.4408132
v -1.0358000 1.2101104 0.2468667
vn 0.0000003 0.8629618 -0.5052693
vt 0.3025708 0.4592808
v -1.2803169 1.0597725 0.0975736
vn 0.0000002 0.4968074 -0.8678608
vt 0.2911611 0.4869704
v -1.0358000 1.0597725 0.0975736
vn 0.0000000 0.4968074 -0.8678608
vt 0.3025708 0.4869641
v -1.2803169 0.8540971 0.0433174
vn 0.0000001 -0.0064413 -0.9999793
vt 0.2911611 0.5146575
v -1.0357990 0.8540971 0.0433174
vn -0.0000001 -0.0064414 -0.9999793
vt 0.3025708 0.5146575
v -1.2803169 0.6522647 0.0993506
vn -0.0000004 -0.4993406 -0.8664058
vt 0.2911606 0.4592811
v -1.0357990 0.8540971 0.0433174
vn -0.0000001 -0.0064414 -0.9999793
vt 0.3025708 0.4408132
v -1.0357990 0.6522646 0.0993505
vn -0.0000005 -0.4993404 -0.8664059
vt 0.3025708 0.4777315
v -1.2803169 0.5012263 0.2472425
vn -0.0000004 -0.8625639 -0.5059482
vt 0.2911606 0.4961927
v -1.0358000 0.5012262 0.2472424
vn -0.0000011 -0.8625634 -0.5059491
vt 0.3025708 0.4961875
v -1.2803169 0.4462708 0.4497139
vn -0.0000020 -0.9999933 -0.0036752
vt 0.2911606 0.5146575
v -1.0358000 0.4462701 0.4497137
vn -0.0000020 -0.9999933 -0.0036754
vt 0.3025708 0.5146575
v -1.0358000 0.8540966 0.8617120
vn 1.0000000 0.0000002 0.0000000
vt 0.2125215 0.6373647
v -1.0357990 0.8540971 0.0433174
vn 1.0000000 0.0000011 0.0000001
vt 0.2115942 0.5456323
v -1.0358000 1.0610404 0.8057268
vn 1.0000000 0.0000001 0.0000001
vt 0.1892621 0.6313240
v -1.0358000 1.0597725 0.0975736
vn 1.0000000 0.0000004 -0.0000000
vt 0.1886019 0.5519468
v -1.0358000 1.2101104 0.2468667
vn 1.0000000 0.0000000 0.0000000
vt 0.1719199 0.5688512
v -1.0358000 1.2663594 0.4497142
vn 1.0000000 0.0000000 0.0000000
vt 0.1658448 0.5916518
v -1.0358000 1.2082185 0.6581777
vn 1.0000000 0.0000000 0.0000000
vt 0.1725979 0.6149522
v -1.2803169 0.4462708 0.4497139
vn -0.0000020 -0.9999933 -0.0036752
vt 0.2911606 0.4408132
v -1.2803169 0.8540970 0.8617120
vn 0.0000001 -0.0026344 0.9999965
vt 0.2911611 0.4408132
v -1.2803169 1.2663594 0.4497141
vn 0.0000000 0.9999998 0.0007429
vt 0.2911611 0.4408132
v -1.2803169 0.8540971 0.0433174
vn 0.0000001 -0.0064413 -0.9999793
vt 0.2911606 0.4408132

g group_16746672_140627912654336
f 1/1/1 2/2/2 3/3/3 
f 3/3/3 2/2/2 4/4/4 
f 4/4/4 2/2/2 5/5/5 
f 2/2/2 6/6/6 5/5/5 
f 6/6/6 7/7/7 5/5/5 
f 8/8/8 9/9/9 10/10/10 
f 9/9/9 11/11/11 10/10/10 
f 11/11/11 12/12/12 10/10/10 
f 12/12/12 13/13/13 10/10/10 
f 13/13/13 14/14/14 10/10/10 
f 14/14/14 15/15/15 10/10/10 
f 15/15/15 16/16/16 10/10/10 
f 16/16/16 17/17/17 10/10/10 
f 17/17/17 18/18/18 10/10/10 
f 10/10/10 18/18/18 19/19/19 
f 20/20/20 21/21/21 22/22/22 
f 23/23/23 22/22/22 24/24/24 
f 25/25/25 24/24/24 26/26/26 
f 27/27/27 28/28/28 29/29/29 
f 30/30/30 29/29/29 31/31/31 
f 32/32/32 31/31/31 33/33/33 
f 34/34/34 35/35/35 36/36/36 
f 37/37/37 36/36/36 38/38/38 
f 39/39/39 38/38/38 40/40/40 
f 41/41/41 42/42/42 43/43/43 
f 44/44/44 43/43/43 45/45/45 
f 46/46/46 45/45/45 47/47/47 
f 48/48/48 49/49/49 50/50/50 
f 49/49/49 51/51/51 50/50/50 
f 51/51/51 52/52/52 50/50/50 
f 52/52/52 53/53/53 50/50/50 
f 53/53/53 54/54/54 50/50/50 
f 21/21/21 20/20/20 55/55/55 
f 22/22/22 23/23/23 20/20/20 
f 24/24/24 25/25/25 23/23/23 
f 28/28/28 27/27/27 56/56/56 
f 29/29/29 30/30/30 27/27/27 
f 31/31/31 32/32/32 30/30/30 
f 35/35/35 34/34/34 57/57/57 
f 36/36/36 37/37/37 34/34/34 
f 38/38/38 39/39/39 37/37/37 
f 42/42/42 41/41/41 58/58/58 
f 43/43/43 44/44/44 41/41/41 
f 45/45/45 46/46/46 44/44/44 
