v -0.2387517 1.2217630 1.7116740
vn -0.6757073 0.0000000 0.7371700
vt 0.7450092 0.3611019
v -0.2029502 1.2217630 1.7444910
vn -0.0059936 0.0000000 0.9999821
vt 0.7450092 0.3682063
v -0.2387517 1.4393080 1.7116740
vn -0.6109822 0.4270806 0.6665605
vt 0.7167706 0.3611070
v -0.2029502 1.4393080 1.7444910
vn -0.0005230 0.5826039 0.8127561
vt 0.7167543 0.3682086
v -0.1668521 1.2217500 1.7122000
vn 0.6680155 0.0003927 0.7441472
vt 0.7449978 0.3752457
v -0.1671829 1.4393080 1.7116740
vn 0.6105258 0.4294927 0.6654279
vt 0.7167570 0.3753102
v -0.2387517 1.4393080 1.7116740
vn -0.6109822 0.4270806 0.6665605
vt 0.7791602 0.0273120
v -0.2029502 1.4393080 1.7444910
vn -0.0005230 0.5826039 0.8127561
vt 0.7838101 0.0230498
v -0.1671829 1.4393080 1.7116740
vn 0.6105258 0.4294927 0.6654279
vt 0.7884564 0.0273121
v -0.2649949 1.2096350 1.6148170
vn -0.6508851 0.0931570 -0.7534390
vt 0.8083921 0.0007420
v -0.2649949 1.2235330 1.7397200
vn -0.8005240 0.0000009 0.5993008
vt 0.7921155 0.0025029
v -0.2649949 1.4365990 1.6553850
vn -0.7432376 0.2513823 -0.6200039
vt 0.8031577 0.0300255
v -0.2649949 1.4751390 1.7397200
vn -0.6252426 0.6295334 0.4612586
vt 0.7921155 0.0349981
v -0.2649949 1.4649971 1.6736410
vn -0.6691900 0.6442125 -0.3703716
vt 0.8008026 0.0336894
v -0.2649949 1.4365990 1.6553850
vn -0.7432376 0.2513823 -0.6200039
vt 0.7434486 0.0181122
v -0.2022291 1.4365990 1.6403260
vn 0.0001593 0.3504566 -0.9365790
vt 0.7439838 0.0096827
v -0.2649949 1.2096350 1.6148170
vn -0.6508851 0.0931570 -0.7534390
vt 0.7731938 0.0181122
v -0.1395597 1.2096350 1.6148170
vn 0.6508858 0.0931447 -0.7534400
vt 0.7731901 0.0014133
v -0.2022291 1.4649971 1.6585820
vn 0.0001059 0.8167629 -0.5769735
vt 0.7399731 0.0097570
v -0.2649949 1.4649971 1.6736410
vn -0.6691900 0.6442125 -0.3703716
vt 0.7387782 0.0181121
v -0.2649949 1.4751390 1.7397200
vn -0.6252426 0.6295334 0.4612586
vt 0.7296140 0.0181121
v -0.1395597 1.4365990 1.6553850
vn 0.7433472 0.2513482 -0.6198864
vt 0.7433892 0.0014133
v -0.2022291 1.4751390 1.7545210
vn 0.0001256 0.6925607 0.7213597
vt 0.7275115 0.0098302
v -0.1395597 1.4751390 1.7397200
vn 0.6253055 0.6295525 0.4611471
vt 0.7295341 0.0014133
v -0.1395597 1.4649971 1.6736410
vn 0.6692497 0.6441976 -0.3702896
vt 0.7386531 0.0014133
v -0.1395597 1.2096350 1.6148170
vn 0.6508858 0.0931447 -0.7534400
vt 0.8083745 0.0007487
v -0.1395597 1.4365990 1.6553850
vn 0.7433472 0.2513482 -0.6198864
vt 0.8031429 0.0300205
v -0.1395597 1.2235330 1.7397200
vn 0.8006244 0.0000013 0.5991666
vt 0.7921044 0.0025094
v -0.1395597 1.4751390 1.7397200
vn 0.6253055 0.6295525 0.4611471
vt 0.7921044 0.0349910
v -0.1395597 1.4649971 1.6736410
vn 0.6692497 0.6441976 -0.3702896
vt 0.8007883 0.0336829
v -0.1534350 1.2235330 1.7429971
vn -0.6572841 0.0029519 0.7536371
vt 0.7902641 0.0025094
v -0.1522529 1.4611520 1.7427180
vn -0.0919416 -0.3605644 0.9281918
vt 0.7902641 0.0331736
v -0.2022291 1.4605500 1.7545210
vn 0.0062446 -0.6579852 0.7530050
vt 0.7838275 0.0330958
v -0.2022291 1.4751390 1.7545210
vn 0.0001256 0.6925607 0.7213597
vt 0.7838280 0.0349771
v -0.2503574 1.4599700 1.7431710
vn 0.1038825 -0.3645250 0.9253810
vt 0.7774504 0.0330207
v -0.2649949 1.4751390 1.7397200
vn -0.6252426 0.6295334 0.4612586
vt 0.7755106 0.0349771
v -0.2649949 1.2235330 1.7397200
vn -0.8005240 0.0000009 0.5993008
vt 0.7755116 0.0025276
v -0.2503576 1.2235330 1.7431720
vn 0.6544890 0.0000008 0.7560715
vt 0.7774509 0.0025276
v -0.1522529 1.4611520 1.7427180
vn -0.0919416 -0.3605644 0.9281918
vt 0.8169196 0.0021144
v -0.1523499 1.4605610 1.6852770
vn -0.6360152 -0.6242317 0.4536735
vt 0.8094740 0.0021144
v -0.1534350 1.2235330 1.7429971
vn -0.6572841 0.0029519 0.7536371
vt 0.8169196 0.0330189
v -0.1529409 1.2121270 1.6424741
vn -0.6464564 -0.0976249 0.7566793
vt 0.8039275 0.0345023
v -0.2022291 1.4605500 1.7545210
vn 0.0062446 -0.6579852 0.7530050
vt 0.7204493 0.0267466
v -0.2022868 1.4602600 1.6737870
vn 0.0109529 -0.7159948 0.6980197
vt 0.7305839 0.0267853
v -0.1522529 1.4611520 1.7427180
vn -0.0919416 -0.3605644 0.9281918
vt 0.7221407 0.0333920
v -0.1523499 1.4605610 1.6852770
vn -0.6360152 -0.6242317 0.4536735
vt 0.7299717 0.0334266
v -0.2503574 1.4599700 1.7431710
vn 0.1038825 -0.3645250 0.9253810
vt 0.7221743 0.0203454
v -0.2503574 1.4599700 1.6858079
vn 0.6419075 -0.6248196 0.4444719
vt 0.7300330 0.0203925
v -0.2503574 1.4599700 1.7431710
vn 0.1038825 -0.3645250 0.9253810
vt 0.8169003 0.0021144
v -0.2503576 1.2235330 1.7431720
vn 0.6544890 0.0000008 0.7560715
vt 0.8169196 0.0330189
v -0.2503574 1.4599700 1.6858079
vn 0.6419075 -0.6248196 0.4444719
vt 0.8094629 0.0021144
v -0.2503576 1.2121270 1.6428660
vn 0.6485034 -0.0989817 0.7547491
vt 0.8039275 0.0345023
v -0.2503576 1.2121270 1.6428660
vn 0.6485034 -0.0989817 0.7547491
vt 0.7627706 0.0204400
v -0.1529409 1.2121270 1.6424741
vn -0.6464564 -0.0976249 0.7566793
vt 0.7627677 0.0333943
v 0.1124108 1.2363710 1.7077680
vn -0.0000000 0.9974040 0.0720089
vt 0.3285665 0.0436891
v -0.3566105 1.2363710 1.7077680
vn 0.0000001 0.9974040 0.0720094
vt 0.3285665 0.1046050
v -0.3566106 1.1530340 1.8970540
vn 0.0000002 0.9152230 0.4029478
vt 0.3012335 0.1046050
v 0.1124108 1.2013160 1.5813960
vn -0.0000001 0.8602221 -0.5099196
vt 0.3455991 0.0436891
v -0.3566106 1.2013160 1.5813960
vn 0.0000000 0.8602221 -0.5099196
vt 0.3455991 0.1046050
v 0.1124107 1.0670390 1.4508780
vn 0.0000000 0.6970004 -0.7170708
vt 0.3699197 0.0436891
v -0.3566106 1.0670390 1.4508780
vn 0.0000000 0.6970005 -0.7170707
vt 0.3699197 0.1046050
v -0.3074026 -0.0134119 1.7750930
vn 0.0000000 -0.9999853 -0.0054253
vt 0.2857143 -0.1618427
v -0.3474806 1.2369380 1.7596670
vn -0.6952866 0.5972248 -0.3998740
vt 0.2341030 0.0068137
v -0.3074024 1.2369380 1.7365280
vn 0.0000001 0.5983948 -0.8012014
vt 0.2280919 0.0068273
v -0.3074026 -0.0134119 1.7750930
vn 0.0000000 -0.9999853 -0.0054253
vt 0.2659369 -0.1844393
v -0.3474806 1.2369380 1.8059450
vn -0.6954387 0.5949007 0.4030610
vt 0.2401119 0.0068001
v -0.3074026 -0.0134119 1.7750930
vn 0.0000000 -0.9999853 -0.0054253
vt 0.2383143 -0.1818948
v -0.3074024 1.2369380 1.8290840
vn 0.0000000 0.5937427 0.8046550
vt 0.2461193 0.0067994
v -0.3074026 -0.0134119 1.7750930
vn 0.0000000 -0.9999853 -0.0054253
vt 0.2229715 -0.1705453
v -0.2673243 1.2369380 1.8059450
vn 0.6954388 0.5949006 0.4030610
vt 0.2521272 0.0067992
v -0.3074026 -0.0134119 1.7750930
vn 0.0000000 -0.9999853 -0.0054253
vt 0.2251689 -0.1640848
v -0.2673243 1.2369380 1.7596670
vn 0.6952866 0.5972247 -0.3998740
vt 0.2581351 0.0068132
v -0.3074026 -0.0134119 1.7750930
vn 0.0000000 -0.9999853 -0.0054253
vt 0.2527480 -0.2224551
v -0.3074024 1.2369380 1.7365280
vn 0.0000001 0.5983948 -0.8012014
vt 0.2641462 0.0068273
v -0.3074024 1.2369380 1.7365280
vn 0.0000001 0.5983948 -0.8012014
vt 0.9204068 0.9547538
v -0.3474806 1.2369380 1.7596670
vn -0.6952866 0.5972248 -0.3998740
vt 0.9234120 0.9495485
v -0.2673243 1.2369380 1.7596670
vn 0.6952866 0.5972247 -0.3998740
vt 0.9234120 0.9599594
v -0.3474806 1.2369380 1.8059450
vn -0.6954387 0.5949007 0.4030610
vt 0.9294221 0.9495485
v -0.3074024 1.2369380 1.8290840
vn 0.0000000 0.5937427 0.8046550
vt 0.9324276 0.9547538
v -0.2673243 1.2369380 1.8059450
vn 0.6954388 0.5949006 0.4030610
vt 0.9294221 0.9599594
v -0.3074024 1.2369380 1.6431969
vn 0.0000000 0.5964616 -0.8026417
vt 0.2460290 0.0075068
v -0.3074026 -0.1567116 1.6933320
vn -0.0003137 -0.9999954 0.0030369
vt 0.2711434 0.1859414
v -0.3474806 1.2369380 1.6663370
vn -0.6944752 0.5969785 -0.4016479
vt 0.2400141 0.0075068
v -0.3074026 -0.1567116 1.6933320
vn -0.0003137 -0.9999954 0.0030369
vt 0.2197669 0.2761407
v -0.3474806 1.2369380 1.7126150
vn -0.6944043 0.5980202 0.4002181
vt 0.2340012 0.0075068
v -0.3074024 1.2369380 1.7357540
vn -0.0000004 0.5985453 0.8010890
vt 0.2279905 0.0075068
v -0.3074024 1.2369380 1.7357540
vn -0.0000004 0.5985453 0.8010890
vt 0.2640794 0.0075068
v -0.3074026 -0.1567116 1.6933320
vn -0.0003137 -0.9999954 0.0030369
vt 0.2344756 0.2599789
v -0.2673243 1.2369380 1.7126150
vn 0.6944053 0.5980186 0.4002187
vt 0.2580687 0.0075068
v -0.2673243 1.2369380 1.6663370
vn 0.6944751 0.5969781 -0.4016485
vt 0.2520502 0.0075068
v -0.3074026 -0.1567116 1.6933320
vn -0.0003137 -0.9999954 0.0030369
vt 0.2221915 0.2142747
v -0.3074024 1.2369380 1.6431969
vn 0.0000000 0.5964616 -0.8026417
vt 0.8259890 0.9195753
v -0.3474806 1.2369380 1.6663370
vn -0.6944752 0.5969785 -0.4016479
vt 0.8289940 0.9143699
v -0.2673243 1.2369380 1.6663370
vn 0.6944751 0.5969781 -0.4016485
vt 0.8289940 0.9247806
v -0.3474806 1.2369380 1.7126150
vn -0.6944043 0.5980202 0.4002181
vt 0.8350047 0.9143699
v -0.3074024 1.2369380 1.7357540
vn -0.0000004 0.5985453 0.8010890
vt 0.8380103 0.9195753
v -0.2673243 1.2369380 1.7126150
vn 0.6944053 0.5980186 0.4002187
vt 0.8350047 0.9247806
v -0.2029502 1.6412220 1.7303630
vn 0.0002509 -0.0570651 0.9983705
vt 0.6603020 0.0267621
v -0.2056482 0.0119929 1.7116740
vn 0.0101870 -0.9999271 -0.0064878
vt 0.7116836 0.0305726
v -0.1867582 1.6412220 1.7210180
vn 0.8645934 -0.0577948 0.4991374
vt 0.6603020 0.0292989
v -0.1867582 1.6412220 1.7023300
vn 0.8645942 -0.0577939 -0.4991361
vt 0.6603020 0.0318394
v -0.2029502 1.6412220 1.6929860
vn 0.0002511 -0.0570631 -0.9983705
vt 0.6603020 0.0343844
v -0.2029502 1.6412220 1.6929860
vn 0.0002511 -0.0570631 -0.9983705
vt 0.6603020 0.0191376
v -0.2056482 0.0119929 1.7116740
vn 0.0101870 -0.9999271 -0.0064878
vt 0.7116836 0.0216790
v -0.2191417 1.6412220 1.7023300
vn -0.8645393 -0.0563673 -0.4993943
vt 0.6603020 0.0216836
v -0.2056482 0.0119929 1.7116740
vn 0.0101870 -0.9999271 -0.0064878
vt 0.7116836 0.0242189
v -0.2191417 1.6412220 1.7210180
vn -0.8645383 -0.0563680 0.4993959
vt 0.6603020 0.0242245
v -0.2029502 1.7339220 1.7397650
vn -0.0000048 0.8397673 0.5429466
vt 0.6501945 0.0267621
v -0.1786124 1.7339220 1.7257200
vn 0.4702775 0.8396761 0.2716306
vt 0.6501949 0.0293026
v -0.1786124 1.7339220 1.6976290
vn 0.4702777 0.8396785 -0.2716230
vt 0.6501952 0.0318430
v -0.2029502 1.7339220 1.6835830
vn -0.0000054 0.8397680 -0.5429454
vt 0.6501952 0.0343844
v -0.2029502 1.7339220 1.6835830
vn -0.0000054 0.8397680 -0.5429454
vt 0.6501929 0.0191376
v -0.2272874 1.7339220 1.6976290
vn -0.4702756 0.8396831 -0.2716125
vt 0.6501929 0.0216799
v -0.2272874 1.7339220 1.7257200
vn -0.4702761 0.8396791 0.2716238
vt 0.6501938 0.0242203
v -0.2029490 1.5768720 1.7364900
vn 0.0000268 -0.6100211 0.7923852
vt 0.7873521 0.0122212
v -0.1814494 1.5768720 1.7240820
vn 0.6862193 -0.6099840 0.3962609
vt 0.7873521 0.0154372
v -0.2029502 1.6302680 1.7364900
vn -0.0000016 0.6100151 0.7923898
vt 0.7804164 0.0122143
v -0.1814494 1.6302680 1.7240820
vn 0.6862189 0.6099719 0.3962801
vt 0.7804164 0.0154467
v -0.1814494 1.5768720 1.6992650
vn 0.6862202 -0.6099774 -0.3962694
vt 0.7873660 0.0186549
v -0.1814494 1.6302691 1.6992660
vn 0.6862147 0.6099874 -0.3962635
vt 0.7804311 0.0186758
v -0.2029490 1.5768720 1.6868570
vn 0.0000282 -0.6100224 -0.7923842
vt 0.7873803 0.0218773
v -0.2029502 1.6302691 1.6868570
vn -0.0000002 0.6100267 -0.7923809
vt 0.7804449 0.0219013
v -0.2029490 1.5768720 1.6868570
vn 0.0000282 -0.6100224 -0.7923842
vt 0.7873803 0.0025513
v -0.2244517 1.5768720 1.6992650
vn -0.6862139 -0.6099737 -0.3962862
vt 0.7873803 0.0057772
v -0.2029502 1.6302691 1.6868570
vn -0.0000002 0.6100267 -0.7923809
vt 0.7804449 0.0025419
v -0.2244511 1.6302691 1.6992660
vn -0.6862109 0.6099904 -0.3962655
vt 0.7804449 0.0057636
v -0.2244517 1.5768720 1.7240820
vn -0.6862126 -0.6099795 0.3962793
vt 0.7873660 0.0090020
v -0.2244511 1.6302680 1.7240820
vn -0.6862149 0.6099740 0.3962839
vt 0.7804311 0.0089854
v -0.2244517 1.5768720 1.7240820
vn -0.6862126 -0.6099795 0.3962793
vt 0.7149470 0.0282209
v -0.2244517 1.5768720 1.6992650
vn -0.6862139 -0.6099737 -0.3962862
vt 0.7181697 0.0282209
v -0.2029490 1.5768720 1.7364900
vn 0.0000268 -0.6100211 0.7923852
vt 0.7133355 0.0310130
v -0.2029490 1.5768720 1.6868570
vn 0.0000282 -0.6100224 -0.7923842
vt 0.7197813 0.0310130
v -0.1814494 1.5768720 1.7240820
vn 0.6862193 -0.6099840 0.3962609
vt 0.7149470 0.0338058
v -0.1814494 1.5768720 1.6992650
vn 0.6862202 -0.6099774 -0.3962694
vt 0.7181697 0.0338058
v -0.1814494 1.6302680 1.7240820
vn 0.6862189 0.6099719 0.3962801
vt 0.7181697 0.0247390
v -0.1814494 1.6302691 1.6992660
vn 0.6862147 0.6099874 -0.3962635
vt 0.7149470 0.0247390
v -0.2029502 1.6302680 1.7364900
vn -0.0000016 0.6100151 0.7923898
vt 0.7197813 0.0219464
v -0.2029502 1.6302691 1.6868570
vn -0.0000002 0.6100267 -0.7923809
vt 0.7133355 0.0219464
v -0.2244511 1.6302691 1.6992660
vn -0.6862109 0.6099904 -0.3962655
vt 0.7149470 0.0191541
v -0.2244511 1.6302680 1.7240820
vn -0.6862149 0.6099740 0.3962839
vt 0.7181697 0.0191541
v -0.2029502 1.7339220 1.7397650
vn -0.0000048 0.8397673 0.5429466
vt 0.7693923 0.0322836
v -0.1786124 1.7339220 1.7257200
vn 0.4702775 0.8396761 0.2716306
vt 0.7647428 0.0296003
v -0.2029502 1.6872400 1.7116740
vn 0.0000050 1.0000000 0.0000015
vt 0.7693923 0.0269174
v -0.1786124 1.7339220 1.6976290
vn 0.4702777 0.8396785 -0.2716230
vt 0.7647428 0.0242341
v -0.2029502 1.7339220 1.6835830
vn -0.0000054 0.8397680 -0.5429454
vt 0.7693923 0.0215511
v -0.2272874 1.7339220 1.6976290
vn -0.4702756 0.8396831 -0.2716125
vt 0.7740406 0.0242341
v -0.2272874 1.7339220 1.7257200
vn -0.4702761 0.8396791 0.2716238
vt 0.7740406 0.0296003
v 0.1124108 1.1530340 1.8970540
vn 0.0000000 0.9152232 0.4029475
vt 0.3012335 0.0436891
v -0.0326656 2.5124609 1.5886950
vn -0.6713152 0.0005484 -0.7411718
vt 0.7937515 0.5914128
v -0.0046546 2.5124609 1.5795979
vn 0.0000060 0.0005484 -0.9999999
vt 0.7901302 0.5914128
v -0.0330880 1.1927050 1.5881140
vn -0.4970701 0.0005484 -0.8677102
vt 0.7937515 0.4315706
v -0.0046549 1.1892240 1.5788800
vn 0.0000060 0.0005484 -0.9999999
vt 0.7901302 0.4315706
v -0.0499776 2.5124619 1.6125129
vn -0.9787759 0.0005484 -0.2049327
vt 0.7973714 0.5914128
v -0.0506603 1.1996440 1.6122910
vn -0.9121619 0.0005484 -0.4098297
vt 0.7973714 0.4315702
v -0.0499776 2.5124619 1.6419530
vn -0.9122049 0.0005484 0.4097341
vt 0.8009904 0.5914128
v -0.0506603 1.2087810 1.6421740
vn -0.9788034 0.0005484 0.2048016
vt 0.8009904 0.4315702
v -0.0326656 2.5124609 1.6657701
vn -0.4971149 0.0005484 0.8676845
vt 0.8046103 0.5914128
v -0.0330880 1.2121390 1.6663500
vn -0.6713663 0.0005484 0.7411255
vt 0.8046103 0.4315706
v -0.0046546 2.5124609 1.6748670
vn 0.1076276 0.0005484 0.9941912
vt 0.8082317 0.5914128
v -0.0046549 1.2121390 1.6755850
vn -0.1076276 0.0005484 0.9941912
vt 0.8082317 0.4315706
v 0.0233557 2.5124609 1.6657701
vn 0.5876445 0.0005484 0.8091191
vt 0.8118520 0.5914128
v 0.0237781 1.2121390 1.6663500
vn 0.5876614 0.0005484 0.8091068
vt 0.8118520 0.4315706
v 0.0406678 2.5124619 1.6419530
vn 0.9122049 0.0005484 0.4097341
vt 0.8154722 0.5914128
v 0.0413505 1.2087810 1.6421740
vn 0.9788034 0.0005484 0.2048016
vt 0.8154722 0.4315706
v 0.0406678 2.5124609 1.6125129
vn 0.9787759 0.0005484 -0.2049327
vt 0.8190911 0.5914128
v 0.0413505 1.1996440 1.6122910
vn 0.9121566 0.0005484 -0.4098414
vt 0.8190911 0.4315702
v 0.0233557 2.5124609 1.5886950
vn 0.6713170 0.0005484 -0.7411702
vt 0.8227120 0.5914128
v 0.0237781 1.1927050 1.5881140
vn 0.4970701 0.0005484 -0.8677103
vt 0.8227120 0.4315706
v -0.0046546 2.5124609 1.5795979
vn 0.0000060 0.0005484 -0.9999999
vt 0.8263322 0.5914128
v -0.0046549 1.1892240 1.5788800
vn 0.0000060 0.0005484 -0.9999999
vt 0.8263322 0.4315706
v -0.0046546 2.5124609 1.5795979
vn 0.0000000 1.0000000 0.0000000
vt 0.3497141 0.1091180
v -0.0326656 2.5124609 1.5886950
vn 0.0000060 1.0000000 -0.0000238
vt 0.3527215 0.1100951
v -0.0046547 2.5124609 1.5893880
vn 0.0000000 1.0000000 -0.0000119
vt 0.3497194 0.1101930
v -0.0269085 2.5124609 1.5966160
vn 0.0000060 1.0000000 -0.0000238
vt 0.3520900 0.1109635
v -0.0499776 2.5124619 1.6125129
vn 0.0000060 1.0000000 -0.0000238
vt 0.3545800 0.1126519
v -0.0406623 2.5124619 1.6155380
vn 0.0000000 1.0000000 -0.0000119
vt 0.3535564 0.1129801
v -0.0499776 2.5124619 1.6419530
vn 0.0000000 1.0000000 0.0000119
vt 0.3545800 0.1158119
v -0.0406623 2.5124619 1.6389270
vn 0.0000119 1.0000000 0.0000119
vt 0.3535564 0.1154726
v -0.0326656 2.5124609 1.6657701
vn 0.0000119 1.0000000 0.0000119
vt 0.3527215 0.1183689
v -0.0269085 2.5124609 1.6578490
vn 0.0000060 1.0000000 0.0000238
vt 0.3520909 0.1174889
v -0.0046546 2.5124609 1.6748670
vn 0.0000000 1.0000000 0.0000238
vt 0.3497141 0.1193457
v -0.0046547 2.5124609 1.6650770
vn 0.0000000 1.0000000 0.0000238
vt 0.3497194 0.1182590
v 0.0233557 2.5124609 1.6657701
vn -0.0000060 1.0000000 0.0000119
vt 0.3467076 0.1183689
v 0.0175987 2.5124609 1.6578500
vn -0.0000060 1.0000000 0.0000238
vt 0.3473479 0.1174889
v 0.0406678 2.5124619 1.6419530
vn -0.0000060 1.0000000 0.0000119
vt 0.3448490 0.1158119
v 0.0313525 2.5124619 1.6389270
vn -0.0000060 1.0000000 0.0000000
vt 0.3458825 0.1154726
v 0.0406678 2.5124609 1.6125129
vn 0.0000000 1.0000000 -0.0000119
vt 0.3448490 0.1126519
v 0.0313525 2.5124609 1.6155380
vn 0.0000000 1.0000000 -0.0000119
vt 0.3458825 0.1129801
v 0.0233557 2.5124609 1.5886950
vn 0.0000000 1.0000000 0.0000000
vt 0.3467076 0.1100951
v 0.0175987 2.5124609 1.5966160
vn 0.0000000 1.0000000 0.0000000
vt 0.3473479 0.1109638
v -0.0046547 2.5124609 1.5893880
vn 0.0000000 0.1443380 0.9895285
vt 0.6716468 0.7123966
v -0.0269085 2.5124609 1.5966160
vn 0.5815002 0.1443628 0.8006353
vt 0.6735128 0.7134967
v -0.0046549 2.2530191 1.6272330
vn -0.0000060 1.0000000 0.0000000
vt 0.6548574 0.7432730
v -0.0406623 2.5124619 1.6155380
vn 0.9410582 0.1443863 0.3058792
vt 0.6752734 0.7147591
v -0.0406623 2.5124619 1.6389270
vn 0.9410582 0.1443863 -0.3058792
vt 0.6769137 0.7161728
v -0.0269085 2.5124609 1.6578490
vn 0.5814885 0.1443622 -0.8006439
vt 0.6784216 0.7177274
v -0.0046547 2.5124609 1.6650770
vn 0.0000000 0.1443380 -0.9895285
vt 0.6797853 0.7194105
v -0.0046547 2.5124609 1.6650770
vn 0.0000000 0.1443380 -0.9895285
vt 0.6612788 0.7095830
v 0.0175987 2.5124609 1.6578500
vn -0.5815003 0.1443628 -0.8006353
vt 0.6634368 0.7097700
v 0.0313525 2.5124619 1.6389270
vn -0.9410582 0.1443863 -0.3058792
vt 0.6655692 0.7101485
v 0.0313525 2.5124609 1.6155380
vn -0.9410582 0.1443863 0.3058792
vt 0.6676590 0.7107157
v 0.0175987 2.5124609 1.5966160
vn -0.5815003 0.1443628 0.8006353
vt 0.6696902 0.7114670
v -0.2056482 0.0119929 1.7116740
vn 0.0101870 -0.9999271 -0.0064878
vt 0.7116836 0.0305726
v -0.2029502 1.6872400 1.7116740
vn 0.0000050 1.0000000 0.0000015
vt 0.7693923 0.0269174
v -0.2029502 1.6872400 1.7116740
vn 0.0000050 1.0000000 0.0000015
vt 0.7693923 0.0269174
v -0.2029502 1.6872400 1.7116740
vn 0.0000050 1.0000000 0.0000015
vt 0.7693923 0.0269174
v -0.2029502 1.6872400 1.7116740
vn 0.0000050 1.0000000 0.0000015
vt 0.7693923 0.0269174
v -0.0046549 2.2530191 1.6272330
vn -0.0000060 1.0000000 0.0000000
vt 0.6548574 0.7432730
v -0.0046549 2.2530191 1.6272330
vn -0.0000060 1.0000000 0.0000000
vt 0.6548574 0.7432730
v -0.0046549 2.2530191 1.6272330
vn -0.0000060 1.0000000 0.0000000
vt 0.6548574 0.7432730
v -0.0046549 2.2530191 1.6272330
vn -0.0000060 1.0000000 0.0000000
vt 0.6548574 0.7432730
v -0.0046549 2.2530191 1.6272330
vn -0.0000060 1.0000000 0.0000000
vt 0.6548574 0.7432730
v -0.0046549 2.2530191 1.6272330
vn -0.0000060 1.0000000 0.0000000
vt 0.6548574 0.7432730
v -0.0046549 2.2530191 1.6272330
vn -0.0000060 1.0000000 0.0000000
vt 0.6548574 0.7432730

g group_64361888_140627912642960
f 1/1/1 2/2/2 3/3/3 
f 3/3/3 2/2/2 4/4/4 
f 2/2/2 5/5/5 4/4/4 
f 4/4/4 5/5/5 6/6/6 
f 7/7/7 8/8/8 9/9/9 
f 10/10/10 11/11/11 12/12/12 
f 13/13/13 14/14/14 11/11/11 
f 12/12/12 11/11/11 14/14/14 
f 15/15/15 16/16/16 17/17/17 
f 17/17/17 16/16/16 18/18/18 
f 19/19/19 20/20/20 21/21/21 
f 20/20/20 19/19/19 15/15/15 
f 15/15/15 19/19/19 16/16/16 
f 18/18/18 16/16/16 22/22/22 
f 19/19/19 23/23/23 24/24/24 
f 16/16/16 19/19/19 22/22/22 
f 22/22/22 19/19/19 25/25/25 
f 26/26/26 27/27/27 28/28/28 
f 29/29/29 28/28/28 30/30/30 
f 27/27/27 30/30/30 28/28/28 
f 31/31/31 28/28/28 32/32/32 
f 32/32/32 28/28/28 29/29/29 
f 33/33/33 34/34/34 35/35/35 
f 35/35/35 34/34/34 36/36/36 
f 36/36/36 37/37/37 35/35/35 
f 35/35/35 37/37/37 38/38/38 
f 29/29/29 34/34/34 32/32/32 
f 32/32/32 34/34/34 33/33/33 
f 39/39/39 40/40/40 41/41/41 
f 41/41/41 40/40/40 42/42/42 
f 43/43/43 44/44/44 45/45/45 
f 45/45/45 44/44/44 46/46/46 
f 47/47/47 48/48/48 43/43/43 
f 43/43/43 48/48/48 44/44/44 
f 49/49/49 50/50/50 51/51/51 
f 51/51/51 50/50/50 52/52/52 
f 48/48/48 53/53/53 44/44/44 
f 53/53/53 54/54/54 44/44/44 
f 44/44/44 54/54/54 46/46/46 
f 55/55/55 56/56/56 57/57/57 
f 55/55/55 58/58/58 56/56/56 
f 56/56/56 58/58/58 59/59/59 
f 58/58/58 60/60/60 59/59/59 
f 59/59/59 60/60/60 61/61/61 
f 62/62/62 63/63/63 64/64/64 
f 65/65/65 66/66/66 63/63/63 
f 67/67/67 68/68/68 66/66/66 
f 68/68/68 69/69/69 70/70/70 
f 70/70/70 71/71/71 72/72/72 
f 72/72/72 73/73/73 74/74/74 
f 75/75/75 76/76/76 77/77/77 
f 76/76/76 78/78/78 77/77/77 
f 78/78/78 79/79/79 77/77/77 
f 79/79/79 80/80/80 77/77/77 
f 81/81/81 82/82/82 83/83/83 
f 83/83/83 84/84/84 85/85/85 
f 84/84/84 86/86/86 85/85/85 
f 87/87/87 88/88/88 89/89/89 
f 88/88/88 90/90/90 89/89/89 
f 91/91/91 81/81/81 90/90/90 
f 92/92/92 93/93/93 94/94/94 
f 93/93/93 95/95/95 94/94/94 
f 95/95/95 96/96/96 94/94/94 
f 96/96/96 97/97/97 94/94/94 
f 98/98/98 99/99/99 100/100/100 
f 100/100/100 99/99/99 101/101/101 
f 101/101/101 203/203/203 102/102/102 
f 103/103/103 104/104/104 105/105/105 
f 105/105/105 106/106/106 107/107/107 
f 107/107/107 99/99/99 98/98/98 
f 98/98/98 100/100/100 108/108/108 
f 108/108/108 100/100/100 109/109/109 
f 100/100/100 101/101/101 109/109/109 
f 109/109/109 101/101/101 110/110/110 
f 101/101/101 102/102/102 110/110/110 
f 110/110/110 102/102/102 111/111/111 
f 103/103/103 105/105/105 112/112/112 
f 112/112/112 105/105/105 113/113/113 
f 105/105/105 107/107/107 113/113/113 
f 113/113/113 107/107/107 114/114/114 
f 107/107/107 98/98/98 114/114/114 
f 114/114/114 98/98/98 108/108/108 
f 115/115/115 116/116/116 117/117/117 
f 117/117/117 116/116/116 118/118/118 
f 116/116/116 119/119/119 118/118/118 
f 118/118/118 119/119/119 120/120/120 
f 119/119/119 121/121/121 120/120/120 
f 120/120/120 121/121/121 122/122/122 
f 123/123/123 124/124/124 125/125/125 
f 125/125/125 124/124/124 126/126/126 
f 124/124/124 127/127/127 126/126/126 
f 126/126/126 127/127/127 128/128/128 
f 127/127/127 115/115/115 128/128/128 
f 128/128/128 115/115/115 117/117/117 
f 129/129/129 130/130/130 131/131/131 
f 130/130/130 132/132/132 131/131/131 
f 131/131/131 132/132/132 133/133/133 
f 132/132/132 134/134/134 133/133/133 
f 135/135/135 136/136/136 137/137/137 
f 136/136/136 138/138/138 137/137/137 
f 138/138/138 139/139/139 137/137/137 
f 139/139/139 140/140/140 137/137/137 
f 141/141/141 142/142/142 143/143/143 
f 142/142/142 144/144/144 143/143/143 
f 144/144/144 145/145/145 204/204/204 
f 145/145/145 146/146/146 205/205/205 
f 146/146/146 147/147/147 206/206/206 
f 147/147/147 141/141/141 207/207/207 
f 21/21/21 23/23/23 19/19/19 
f 24/24/24 25/25/25 19/19/19 
f 57/57/57 148/148/148 55/55/55 
f 149/149/149 150/150/150 151/151/151 
f 151/151/151 150/150/150 152/152/152 
f 153/153/153 149/149/149 154/154/154 
f 154/154/154 149/149/149 151/151/151 
f 155/155/155 153/153/153 156/156/156 
f 156/156/156 153/153/153 154/154/154 
f 157/157/157 155/155/155 158/158/158 
f 158/158/158 155/155/155 156/156/156 
f 159/159/159 157/157/157 160/160/160 
f 160/160/160 157/157/157 158/158/158 
f 161/161/161 159/159/159 162/162/162 
f 162/162/162 159/159/159 160/160/160 
f 161/161/161 162/162/162 163/163/163 
f 163/163/163 162/162/162 164/164/164 
f 163/163/163 164/164/164 165/165/165 
f 165/165/165 164/164/164 166/166/166 
f 165/165/165 166/166/166 167/167/167 
f 167/167/167 166/166/166 168/168/168 
f 167/167/167 168/168/168 169/169/169 
f 169/169/169 168/168/168 170/170/170 
f 171/171/171 172/172/172 173/173/173 
f 173/173/173 172/172/172 174/174/174 
f 172/172/172 175/175/175 174/174/174 
f 174/174/174 175/175/175 176/176/176 
f 175/175/175 177/177/177 176/176/176 
f 176/176/176 177/177/177 178/178/178 
f 177/177/177 179/179/179 178/178/178 
f 178/178/178 179/179/179 180/180/180 
f 179/179/179 181/181/181 180/180/180 
f 180/180/180 181/181/181 182/182/182 
f 181/181/181 183/183/183 182/182/182 
f 182/182/182 183/183/183 184/184/184 
f 183/183/183 185/185/185 184/184/184 
f 184/184/184 185/185/185 186/186/186 
f 185/185/185 187/187/187 186/186/186 
f 186/186/186 187/187/187 188/188/188 
f 187/187/187 189/189/189 188/188/188 
f 188/188/188 189/189/189 190/190/190 
f 189/189/189 171/171/171 190/190/190 
f 190/190/190 171/171/171 173/173/173 
f 191/191/191 192/192/192 193/193/193 
f 192/192/192 194/194/194 193/193/193 
f 194/194/194 195/195/195 193/193/193 
f 195/195/195 196/196/196 208/208/208 
f 196/196/196 197/197/197 209/209/209 
f 198/198/198 199/199/199 210/210/210 
f 199/199/199 200/200/200 211/211/211 
f 200/200/200 201/201/201 212/212/212 
f 201/201/201 202/202/202 213/213/213 
f 202/202/202 191/191/191 214/214/214 
