v -0.0130794 2.5738535 1.6293640
vn 0.0000087 -0.0367550 -0.9993243
vt 0.5327702 0.0015503
v -0.0336238 2.5738535 1.6360360
vn -0.5872584 -0.0367586 -0.8085644
vt 0.5327702 0.0047670
v -0.0130794 2.6547215 1.6226031
vn 0.0000057 -0.0833045 -0.9965242
vt 0.5217047 0.0015503
v -0.0375984 2.6547205 1.6305670
vn -0.5856127 -0.0833157 -0.8062979
vt 0.5217047 0.0047520
v -0.0463204 2.5738535 1.6535040
vn -0.9503844 -0.0367670 -0.3088975
vt 0.5327702 0.0079834
v -0.0527522 2.6547205 1.6514150
vn -0.9477174 -0.0833363 -0.3080369
vt 0.5217047 0.0079533
v -0.0463204 2.5738535 1.6750970
vn -0.9503836 -0.0367681 0.3088999
vt 0.5327702 0.0111988
v -0.0527522 2.6547205 1.6771860
vn -0.9477192 -0.0833344 0.3080320
vt 0.5217047 0.0111559
v -0.0336238 2.5738535 1.6925650
vn -0.5925950 -0.0367745 0.8046607
vt 0.5327702 0.0144157
v -0.0375984 2.6547205 1.6980340
vn -0.5865086 -0.0818440 0.8057973
vt 0.5217047 0.0143604
v -0.0139623 2.5738535 1.6992370
vn -0.0131775 -0.0376008 0.9992059
vt 0.5327702 0.0176358
v -0.0130794 2.6547215 1.7059979
vn 0.0010721 -0.0818566 0.9966435
vt 0.5217047 0.0175787
v 0.0074638 2.5738535 1.6925650
vn 0.5827539 -0.0375990 0.8117784
vt 0.5327702 0.0208564
v 0.0114397 2.6547215 1.6980340
vn 0.5856164 -0.0833172 0.8062951
vt 0.5217047 0.0208078
v 0.0201616 2.5738535 1.6750970
vn 0.9503779 -0.0367699 0.3089173
vt 0.5327702 0.0240756
v 0.0265935 2.6547215 1.6771860
vn 0.9477181 -0.0833349 0.3080352
vt 0.5217047 0.0240374
v 0.0201616 2.5738535 1.6535040
vn 0.9503776 -0.0367684 -0.3089182
vt 0.5327702 0.0272962
v 0.0265935 2.6547215 1.6514150
vn 0.9477164 -0.0833381 -0.3080396
vt 0.5217047 0.0272709
v 0.0074638 2.5738535 1.6360360
vn 0.5872461 -0.0367600 -0.8085733
vt 0.5327702 0.0305171
v 0.0114397 2.6547215 1.6305670
vn 0.5856158 -0.0833199 -0.8062952
vt 0.5217047 0.0305052
v -0.0130794 2.5738535 1.6293640
vn 0.0000087 -0.0367550 -0.9993243
vt 0.5327702 0.0337400
v -0.0130794 2.6547215 1.6226031
vn 0.0000057 -0.0833045 -0.9965242
vt 0.5217047 0.0337400
v -0.0390584 1.6985384 1.6285590
vn -0.5858626 0.0779576 -0.8066521
vt 0.6479880 0.0047700
v -0.0130794 1.6985384 1.6201220
vn -0.0000008 0.0779452 -0.9969577
vt 0.6479880 0.0015508
v -0.0551137 1.6985384 1.6506490
vn -0.9481304 0.0779795 -0.3081687
vt 0.6479880 0.0079883
v -0.0551137 1.6985384 1.6779530
vn -0.9481303 0.0779768 0.3081697
vt 0.6479879 0.0112070
v -0.0390584 1.6985384 1.7000420
vn -0.5894508 0.0769387 0.8041320
vt 0.6479880 0.0144263
v -0.0139623 1.6985384 1.7084800
vn -0.0107763 0.0769422 0.9969773
vt 0.6479880 0.0176455
v 0.0128990 1.6985384 1.7000420
vn 0.5818905 0.0779878 0.8095193
vt 0.6479879 0.0208647
v 0.0289543 1.6985384 1.6779530
vn 0.9481307 0.0779788 0.3081679
vt 0.6479880 0.0240830
v 0.0289543 1.6985384 1.6506480
vn 0.9481299 0.0779760 -0.3081712
vt 0.6479880 0.0273015
v 0.0128990 1.6985384 1.6285590
vn 0.5858644 0.0779554 -0.8066510
vt 0.6479879 0.0305208
v -0.0130794 1.6985384 1.6201220
vn -0.0000008 0.0779452 -0.9969577
vt 0.6479880 0.0337400
v -0.0390584 1.6985384 1.6285590
vn -0.5858626 0.0779576 -0.8066521
vt 0.3344743 0.0375412
v -0.0130794 1.6985384 1.6201220
vn -0.0000008 0.0779452 -0.9969577
vt 0.3344743 0.0415309
v -0.0443868 1.6357975 1.6212280
vn -0.5861827 0.0706813 -0.8070899
vt 0.3267573 0.0375404
v -0.0130794 1.6357975 1.6110600
vn 0.0000023 0.0706726 -0.9974996
vt 0.3267573 0.0415309
v -0.0551137 1.6985384 1.6506490
vn -0.9481304 0.0779795 -0.3081687
vt 0.3344743 0.0335514
v -0.0637361 1.6357975 1.6478480
vn -0.9486452 0.0706997 -0.3083404
vt 0.3267580 0.0335505
v -0.0551137 1.6985384 1.6779530
vn -0.9481303 0.0779768 0.3081697
vt 0.3344743 0.0295623
v -0.0637361 1.6357975 1.6807530
vn -0.9486455 0.0707015 0.3083391
vt 0.3267580 0.0295624
v -0.0390584 1.6985384 1.7000420
vn -0.5894508 0.0769387 0.8041320
vt 0.3344743 0.0255726
v -0.0443868 1.6357975 1.7073730
vn -0.5861828 0.0706824 0.8070897
vt 0.3267573 0.0255726
v -0.0139623 1.6985384 1.7084800
vn -0.0107763 0.0769422 0.9969773
vt 0.3344743 0.0215821
v -0.0130794 1.6357975 1.7175410
vn 0.0006835 0.0714782 0.9974419
vt 0.3267573 0.0215828
v 0.0128990 1.6985384 1.7000420
vn 0.5818905 0.0779878 0.8095193
vt 0.3344743 0.0175915
v 0.0182274 1.6357975 1.7073730
vn 0.5856630 0.0714701 0.8073976
vt 0.3267573 0.0175924
v 0.0289543 1.6985384 1.6779530
vn 0.9481307 0.0779788 0.3081679
vt 0.3344743 0.0136024
v 0.0375767 1.6357975 1.6807530
vn 0.9486461 0.0706997 0.3083376
vt 0.3267580 0.0136024
v 0.0289543 1.6985384 1.6506480
vn 0.9481299 0.0779760 -0.3081712
vt 0.3344743 0.0096136
v 0.0375767 1.6357975 1.6478480
vn 0.9486450 0.0707006 -0.3083410
vt 0.3267573 0.0096136
v 0.0128990 1.6985384 1.6285590
vn 0.5858644 0.0779554 -0.8066510
vt 0.3344743 0.0056236
v 0.0182274 1.6357975 1.6212280
vn 0.5861865 0.0706819 -0.8070870
vt 0.3267573 0.0056236
v -0.0130794 1.6985384 1.6201220
vn -0.0000008 0.0779452 -0.9969577
vt 0.3344743 0.0016332
v -0.0130794 1.6357975 1.6110600
vn 0.0000023 0.0706726 -0.9974996
vt 0.3267573 0.0016332
v -0.0443871 1.2966964 1.6212280
vn -0.5876571 0.0000005 -0.8091101
vt 0.2900899 0.0375404
v -0.0130797 1.2966964 1.6110600
vn 0.0000033 -0.0000001 -1.0000000
vt 0.2900899 0.0415309
v -0.0637358 1.2966964 1.6478480
vn -0.9510266 -0.0000002 -0.3091091
vt 0.2900899 0.0335505
v -0.0637358 1.2966964 1.6807530
vn -0.9510260 -0.0000006 0.3091108
vt 0.2900899 0.0295623
v -0.0443871 1.2966964 1.7073730
vn -0.5876524 0.0000000 0.8091136
vt 0.2900899 0.0255726
v -0.0130797 1.2966964 1.7175410
vn 0.0000033 0.0000000 1.0000000
vt 0.2900899 0.0215828
v 0.0182277 1.2966964 1.7073730
vn 0.5876529 0.0000000 0.8091132
vt 0.2900899 0.0175924
v 0.0375764 1.2966975 1.6807530
vn 0.9510253 -0.0000003 0.3091130
vt 0.2900899 0.0136033
v 0.0375764 1.2966964 1.6478480
vn 0.9510258 -0.0000011 -0.3091115
vt 0.2900899 0.0096141
v 0.0182277 1.2966964 1.6212280
vn 0.5876580 -0.0000008 -0.8091095
vt 0.2900899 0.0056236
v -0.0130797 1.2966964 1.6110600
vn 0.0000033 -0.0000001 -1.0000000
vt 0.2900898 0.0016332
v -0.0130794 2.6547215 1.6226031
vn -0.0000097 1.0000000 0.0000000
vt 0.8368983 0.6539183
v -0.0375984 2.6547205 1.6305670
vn -0.0000250 1.0000000 -0.0000253
vt 0.8399055 0.6549172
v -0.0130794 2.6547215 1.6343530
vn -0.0000089 1.0000000 -0.0000050
vt 0.8368773 0.6554958
v -0.0306893 2.6547215 1.6400729
vn -0.0000238 1.0000000 -0.0000328
vt 0.8389615 0.6561807
v -0.0527522 2.6547205 1.6514150
vn -0.0000386 1.0000000 -0.0000125
vt 0.8417524 0.6574923
v -0.0415730 2.6547215 1.6550460
vn -0.0000386 1.0000000 -0.0000125
vt 0.8402450 0.6579590
v -0.0527522 2.6547205 1.6771860
vn -0.0000386 1.0000000 0.0000125
vt 0.8417314 0.6606599
v -0.0415730 2.6547215 1.6735550
vn -0.0000386 1.0000000 0.0000125
vt 0.8402374 0.6601518
v -0.0375984 2.6547205 1.6980340
vn -0.0000317 1.0000000 0.0000271
vt 0.8398515 0.6632102
v -0.0306893 2.6547215 1.6885279
vn -0.0000281 1.0000000 0.0000235
vt 0.8389418 0.6619220
v -0.0130794 2.6547215 1.7059979
vn -0.0000054 1.0000000 0.0000054
vt 0.8368315 0.6641699
v -0.0130794 2.6547215 1.6942480
vn 0.0000000 1.0000000 0.0000000
vt 0.8368524 0.6625923
v 0.0114397 2.6547215 1.6980340
vn 0.0000000 1.0000000 0.0000000
vt 0.8338243 0.6631715
v 0.0045305 2.6547215 1.6885279
vn 0.0000000 1.0000000 0.0000000
vt 0.8347687 0.6619077
v 0.0265935 2.6547215 1.6771860
vn 0.0000000 1.0000000 0.0000000
vt 0.8319786 0.6605965
v 0.0154143 2.6547215 1.6735550
vn 0.0000000 1.0000000 0.0000000
vt 0.8334852 0.6601293
v 0.0265935 2.6547215 1.6514150
vn 0.0000000 1.0000000 0.0000000
vt 0.8319988 0.6574286
v 0.0154143 2.6547215 1.6550460
vn 0.0000000 1.0000000 0.0000000
vt 0.8334926 0.6579365
v 0.0114397 2.6547215 1.6305670
vn 0.0000000 1.0000000 0.0000000
vt 0.8338783 0.6548780
v 0.0045305 2.6547215 1.6400729
vn 0.0000000 1.0000000 0.0000000
vt 0.8347882 0.6561667
v -0.0130794 2.6547215 1.6343530
vn 0.0000000 0.1708189 0.9853024
vt 0.6719857 0.7121980
v -0.0306893 2.6547215 1.6400729
vn 0.5790225 0.1708425 0.7972113
vt 0.6738831 0.7133926
v -0.0130794 2.4819815 1.6643010
vn 0.0000003 1.0000000 0.0000023
vt 0.6545880 0.7436892
v -0.0415730 2.6547215 1.6550460
vn 0.9370388 0.1708819 0.3045614
vt 0.6756436 0.7147803
v -0.0415730 2.6547215 1.6735550
vn 0.9370382 0.1708819 -0.3045631
vt 0.6772476 0.7163457
v -0.0306893 2.6547215 1.6885279
vn 0.5790235 0.1708419 -0.7972107
vt 0.6786778 0.7180719
v -0.0130794 2.6547215 1.6942480
vn 0.0000000 0.1708189 -0.9853024
vt 0.6799183 0.7199396
v -0.0130794 2.6547215 1.6942480
vn 0.0000000 0.1708189 -0.9853024
vt 0.6612324 0.7095094
v 0.0045305 2.6547215 1.6885279
vn -0.5790234 0.1708419 -0.7972108
vt 0.6634733 0.7095849
v 0.0154143 2.6547215 1.6735550
vn -0.9370382 0.1708819 -0.3045632
vt 0.6656933 0.7098961
v 0.0154143 2.6547215 1.6550460
vn -0.9370388 0.1708819 0.3045615
vt 0.6678677 0.7104398
v 0.0045305 2.6547215 1.6400729
vn -0.5790223 0.1708425 0.7972114
vt 0.6699730 0.7112100
v -0.0709716 1.1525154 1.4710060
vn 0.0000000 0.5310891 -0.8473160
vt 0.6500375 0.0016961
v 0.0509716 1.3380865 1.5873200
vn 0.0000000 0.8749540 -0.4842061
vt 0.6793498 0.0172489
v 0.0509716 1.1525154 1.4710060
vn 0.0000000 0.5310891 -0.8473160
vt 0.6500375 0.0172489
v -0.0709716 1.3380865 1.5873200
vn 0.0000000 0.8749540 -0.4842061
vt 0.6793498 0.0016961
v 0.0509716 1.3380865 1.7764260
vn 0.0000000 0.9112475 0.4118593
vt 0.7043161 0.0172489
v -0.0709716 1.3380865 1.7764260
vn 0.0000000 0.9112475 0.4118594
vt 0.7043161 0.0016961
v -0.0709716 1.2176775 1.8824190
vn 0.0000000 0.6607438 0.7506115
vt 0.7252136 0.0016961
v 0.0509716 1.2176775 1.8824190
vn 0.0000000 0.6607438 0.7506115
vt 0.7252136 0.0172489
v -0.0130794 2.4819815 1.6643010
vn 0.0000003 1.0000000 0.0000023
vt 0.6545880 0.7436892
v -0.0130794 2.4819815 1.6643010
vn 0.0000003 1.0000000 0.0000023
vt 0.6545880 0.7436892
v -0.0130794 2.4819815 1.6643010
vn 0.0000003 1.0000000 0.0000023
vt 0.6545880 0.7436892
v -0.0130794 2.4819815 1.6643010
vn 0.0000003 1.0000000 0.0000023
vt 0.6545880 0.7436892
v -0.0130794 2.4819815 1.6643010
vn 0.0000003 1.0000000 0.0000023
vt 0.6545880 0.7436892
v -0.0130794 2.4819815 1.6643010
vn 0.0000003 1.0000000 0.0000023
vt 0.6545880 0.7436892
v -0.0130794 2.4819815 1.6643010
vn 0.0000003 1.0000000 0.0000023
vt 0.6545880 0.7436892

g group_16755264_140627909221840
f 1/1/1 2/2/2 3/3/3 
f 3/3/3 2/2/2 4/4/4 
f 2/2/2 5/5/5 4/4/4 
f 4/4/4 5/5/5 6/6/6 
f 5/5/5 7/7/7 6/6/6 
f 6/6/6 7/7/7 8/8/8 
f 7/7/7 9/9/9 8/8/8 
f 8/8/8 9/9/9 10/10/10 
f 9/9/9 11/11/11 10/10/10 
f 10/10/10 11/11/11 12/12/12 
f 11/11/11 13/13/13 12/12/12 
f 12/12/12 13/13/13 14/14/14 
f 13/13/13 15/15/15 14/14/14 
f 14/14/14 15/15/15 16/16/16 
f 15/15/15 17/17/17 16/16/16 
f 16/16/16 17/17/17 18/18/18 
f 17/17/17 19/19/19 18/18/18 
f 18/18/18 19/19/19 20/20/20 
f 19/19/19 21/21/21 20/20/20 
f 20/20/20 21/21/21 22/22/22 
f 2/2/2 1/1/1 23/23/23 
f 23/23/23 1/1/1 24/24/24 
f 5/5/5 2/2/2 25/25/25 
f 25/25/25 2/2/2 23/23/23 
f 7/7/7 5/5/5 26/26/26 
f 26/26/26 5/5/5 25/25/25 
f 9/9/9 7/7/7 27/27/27 
f 27/27/27 7/7/7 26/26/26 
f 11/11/11 9/9/9 28/28/28 
f 28/28/28 9/9/9 27/27/27 
f 13/13/13 11/11/11 29/29/29 
f 29/29/29 11/11/11 28/28/28 
f 15/15/15 13/13/13 30/30/30 
f 30/30/30 13/13/13 29/29/29 
f 17/17/17 15/15/15 31/31/31 
f 31/31/31 15/15/15 30/30/30 
f 19/19/19 17/17/17 32/32/32 
f 32/32/32 17/17/17 31/31/31 
f 21/21/21 19/19/19 33/33/33 
f 33/33/33 19/19/19 32/32/32 
f 34/34/34 35/35/35 36/36/36 
f 36/36/36 35/35/35 37/37/37 
f 38/38/38 34/34/34 39/39/39 
f 39/39/39 34/34/34 36/36/36 
f 40/40/40 38/38/38 41/41/41 
f 41/41/41 38/38/38 39/39/39 
f 42/42/42 40/40/40 43/43/43 
f 43/43/43 40/40/40 41/41/41 
f 44/44/44 42/42/42 45/45/45 
f 45/45/45 42/42/42 43/43/43 
f 46/46/46 44/44/44 47/47/47 
f 47/47/47 44/44/44 45/45/45 
f 48/48/48 46/46/46 49/49/49 
f 49/49/49 46/46/46 47/47/47 
f 50/50/50 48/48/48 51/51/51 
f 51/51/51 48/48/48 49/49/49 
f 52/52/52 50/50/50 53/53/53 
f 53/53/53 50/50/50 51/51/51 
f 54/54/54 52/52/52 55/55/55 
f 55/55/55 52/52/52 53/53/53 
f 36/36/36 37/37/37 56/56/56 
f 56/56/56 37/37/37 57/57/57 
f 39/39/39 36/36/36 58/58/58 
f 58/58/58 36/36/36 56/56/56 
f 41/41/41 39/39/39 59/59/59 
f 59/59/59 39/39/39 58/58/58 
f 43/43/43 41/41/41 60/60/60 
f 60/60/60 41/41/41 59/59/59 
f 45/45/45 43/43/43 61/61/61 
f 61/61/61 43/43/43 60/60/60 
f 47/47/47 45/45/45 62/62/62 
f 62/62/62 45/45/45 61/61/61 
f 49/49/49 47/47/47 63/63/63 
f 63/63/63 47/47/47 62/62/62 
f 51/51/51 49/49/49 64/64/64 
f 64/64/64 49/49/49 63/63/63 
f 53/53/53 51/51/51 65/65/65 
f 65/65/65 51/51/51 64/64/64 
f 55/55/55 53/53/53 66/66/66 
f 66/66/66 53/53/53 65/65/65 
f 67/67/67 68/68/68 69/69/69 
f 69/69/69 68/68/68 70/70/70 
f 68/68/68 71/71/71 70/70/70 
f 70/70/70 71/71/71 72/72/72 
f 71/71/71 73/73/73 72/72/72 
f 72/72/72 73/73/73 74/74/74 
f 73/73/73 75/75/75 74/74/74 
f 74/74/74 75/75/75 76/76/76 
f 75/75/75 77/77/77 76/76/76 
f 76/76/76 77/77/77 78/78/78 
f 77/77/77 79/79/79 78/78/78 
f 78/78/78 79/79/79 80/80/80 
f 79/79/79 81/81/81 80/80/80 
f 80/80/80 81/81/81 82/82/82 
f 81/81/81 83/83/83 82/82/82 
f 82/82/82 83/83/83 84/84/84 
f 83/83/83 85/85/85 84/84/84 
f 84/84/84 85/85/85 86/86/86 
f 85/85/85 67/67/67 86/86/86 
f 86/86/86 67/67/67 69/69/69 
f 87/87/87 88/88/88 89/89/89 
f 88/88/88 90/90/90 89/89/89 
f 90/90/90 91/91/91 89/89/89 
f 91/91/91 92/92/92 107/107/107 
f 92/92/92 93/93/93 108/108/108 
f 94/94/94 95/95/95 109/109/109 
f 95/95/95 96/96/96 110/110/110 
f 96/96/96 97/97/97 111/111/111 
f 97/97/97 98/98/98 112/112/112 
f 98/98/98 87/87/87 113/113/113 
f 99/99/99 100/100/100 101/101/101 
f 99/99/99 102/102/102 100/100/100 
f 100/100/100 102/102/102 103/103/103 
f 102/102/102 104/104/104 103/103/103 
f 103/103/103 104/104/104 105/105/105 
f 105/105/105 106/106/106 103/103/103 
