v -0.0707408 1.2229327 1.4813260
vn 0.0000000 0.3090176 -0.9510564
vt 0.6584518 0.0016961
v -0.0707408 1.2817147 1.5112780
vn 0.0000000 0.6291705 -0.7772673
vt 0.6668661 0.0016961
v 0.0512023 1.2229327 1.4813260
vn 0.0000000 0.3090176 -0.9510564
vt 0.6584518 0.0172489
v 0.0512023 1.2817147 1.5112780
vn 0.0000000 0.6291705 -0.7772673
vt 0.6668661 0.0172489
v -0.0707408 1.3433417 1.5873200
vn 0.0000000 0.8910065 -0.4539905
vt 0.6793498 0.0016961
v 0.0512023 1.3433417 1.5873200
vn 0.0000000 0.8910065 -0.4539905
vt 0.6793498 0.0172489
v -0.0707408 1.3686377 1.6818730
vn 0.0000000 1.0000000 -0.0000002
vt 0.6918327 0.0016961
v 0.0512023 1.3686377 1.6818730
vn 0.0000000 1.0000000 -0.0000001
vt 0.6918327 0.0172489
v -0.0707408 1.3433417 1.7764260
vn 0.0000000 0.8910066 0.4539904
vt 0.7043161 0.0016961
v 0.0512023 1.3433417 1.7764260
vn 0.0000000 0.8910066 0.4539903
vt 0.7043161 0.0172489
v -0.0707408 1.2817147 1.8524669
vn 0.0000000 0.6291693 0.7772683
vt 0.7168002 0.0016961
v 0.0512023 1.2817147 1.8524669
vn 0.0000000 0.6291693 0.7772683
vt 0.7168002 0.0172489
v -0.0707408 1.2229327 1.8824190
vn 0.0000000 0.4539904 0.8910066
vt 0.7252136 0.0016961
v 0.0512023 1.2229327 1.8824190
vn 0.0000000 0.4539904 0.8910066
vt 0.7252136 0.0172489
v -0.0707408 1.1577706 1.4710060
vn 0.0000000 0.1564327 -0.9876887
vt 0.6500375 0.0016961
v 0.0512023 1.1577706 1.4710060
vn 0.0000000 0.1564327 -0.9876887
vt 0.6500375 0.0172489
v -0.0408595 2.6432347 1.6257631
vn -0.5876516 0.0005456 -0.8091139
vt 0.7937515 0.5914128
v -0.0128486 2.6432347 1.6166660
vn 0.0000028 0.0005442 -0.9999999
vt 0.7901302 0.5914128
v -0.0412819 1.3234787 1.6251820
vn -0.5573465 0.0005431 -0.8302799
vt 0.7937515 0.4315706
v -0.0128489 1.3199977 1.6159480
vn 0.0000019 0.0005426 -0.9999999
vt 0.7901302 0.4315706
v -0.0581716 2.6432347 1.6495810
vn -0.9510244 0.0005488 -0.3091155
vt 0.7973714 0.5914128
v -0.0588543 1.3304167 1.6493580
vn -0.9323799 0.0005446 -0.3614795
vt 0.7973714 0.4315702
v -0.0581716 2.6432347 1.6790210
vn -0.9510241 0.0005515 0.3091164
vt 0.8009904 0.5914128
v -0.0588543 1.3395547 1.6792420
vn -0.9626322 0.0005481 0.2708120
vt 0.8009904 0.4315702
v -0.0408595 2.6432347 1.7028379
vn -0.5876502 0.0005521 0.8091150
vt 0.8046103 0.5914128
v -0.0412819 1.3429117 1.7034180
vn -0.5966808 0.0005512 0.8024785
vt 0.8046103 0.4315706
v -0.0128486 2.6432347 1.7119350
vn -0.0000005 0.0005518 0.9999999
vt 0.8082317 0.5914128
v -0.0128489 1.3429117 1.7126530
vn -0.0000002 0.0005518 0.9999999
vt 0.8082317 0.4315706
v 0.0151618 2.6432347 1.7028379
vn 0.5876514 0.0005519 0.8091140
vt 0.8118520 0.5914128
v 0.0155842 1.3429117 1.7034180
vn 0.5966800 0.0005511 0.8024791
vt 0.8118520 0.4315706
v 0.0324738 2.6432347 1.6790210
vn 0.9510244 0.0005514 0.3091156
vt 0.8154722 0.5914128
v 0.0331565 1.3395547 1.6792420
vn 0.9626321 0.0005481 0.2708119
vt 0.8154722 0.4315706
v 0.0324738 2.6432347 1.6495810
vn 0.9510246 0.0005488 -0.3091148
vt 0.8190911 0.5914128
v 0.0331565 1.3304167 1.6493580
vn 0.9323791 0.0005446 -0.3614818
vt 0.8190911 0.4315702
v 0.0151618 2.6432347 1.6257631
vn 0.5876527 0.0005456 -0.8091131
vt 0.8227120 0.5914128
v 0.0155842 1.3234787 1.6251820
vn 0.5573473 0.0005430 -0.8302793
vt 0.8227120 0.4315706
v -0.0128486 2.6432347 1.6166660
vn 0.0000028 0.0005442 -0.9999999
vt 0.8263322 0.5914128
v -0.0128489 1.3199977 1.6159480
vn 0.0000019 0.0005426 -0.9999999
vt 0.8263322 0.4315706
v -0.0128486 2.6432347 1.6166660
vn 0.0000000 1.0000000 0.0000000
vt 0.3497141 0.1091180
v -0.0408595 2.6432347 1.6257631
vn 0.0000069 1.0000000 -0.0000050
vt 0.3527215 0.1100951
v -0.0128487 2.6432347 1.6264560
vn 0.0000000 1.0000000 0.0000000
vt 0.3497194 0.1101930
v -0.0351024 2.6432347 1.6336840
vn 0.0000062 1.0000000 -0.0000059
vt 0.3520900 0.1109635
v -0.0581716 2.6432347 1.6495810
vn 0.0000043 1.0000000 -0.0000088
vt 0.3545800 0.1126519
v -0.0488563 2.6432347 1.6526060
vn 0.0000033 1.0000000 -0.0000102
vt 0.3535564 0.1129801
v -0.0581716 2.6432347 1.6790210
vn 0.0000026 1.0000000 0.0000081
vt 0.3545800 0.1158119
v -0.0488563 2.6432347 1.6759950
vn 0.0000037 1.0000000 0.0000078
vt 0.3535564 0.1154726
v -0.0408595 2.6432347 1.7028379
vn 0.0000070 1.0000000 0.0000068
vt 0.3527215 0.1183689
v -0.0351024 2.6432347 1.6949170
vn 0.0000087 1.0000000 0.0000063
vt 0.3520909 0.1174889
v -0.0128486 2.6432347 1.7119350
vn 0.0000000 1.0000000 0.0000000
vt 0.3497141 0.1193457
v -0.0128487 2.6432347 1.7021450
vn 0.0000000 1.0000000 0.0000000
vt 0.3497194 0.1182590
v 0.0151618 2.6432347 1.7028379
vn -0.0000069 1.0000000 0.0000050
vt 0.3467076 0.1183689
v 0.0094047 2.6432347 1.6949170
vn -0.0000062 1.0000000 0.0000059
vt 0.3473479 0.1174889
v 0.0324738 2.6432347 1.6790210
vn -0.0000016 1.0000000 0.0000007
vt 0.3448490 0.1158119
v 0.0231585 2.6432347 1.6759950
vn -0.0000017 1.0000000 0.0000017
vt 0.3458825 0.1154726
v 0.0324738 2.6432347 1.6495810
vn -0.0000017 1.0000000 -0.0000096
vt 0.3448490 0.1126519
v 0.0231585 2.6432347 1.6526060
vn -0.0000033 1.0000000 -0.0000102
vt 0.3458825 0.1129801
v 0.0151618 2.6432347 1.6257631
vn 0.0000000 1.0000000 0.0000000
vt 0.3467076 0.1100951
v 0.0094047 2.6432347 1.6336840
vn 0.0000000 1.0000000 0.0000000
vt 0.3473479 0.1109638
v -0.0128487 2.6432347 1.6264560
vn -0.0000029 0.1443415 0.9895279
vt 0.6714702 0.7124187
v -0.0351024 2.6432347 1.6336840
vn 0.5815057 0.1443615 0.8006315
vt 0.6733182 0.7135086
v -0.0128489 2.3837926 1.6643010
vn 0.0000127 1.0000000 -0.0000134
vt 0.6548865 0.7430400
v -0.0488563 2.6432347 1.6526060
vn 0.9410605 0.1443950 0.3058679
vt 0.6750609 0.7147579
v -0.0488563 2.6432347 1.6759950
vn 0.9410606 0.1443949 -0.3058678
vt 0.6766854 0.7161581
v -0.0351024 2.6432347 1.6949170
vn 0.5815039 0.1443612 -0.8006329
vt 0.6781788 0.7176978
v -0.0128487 2.6432347 1.7021450
vn -0.0000006 0.1443406 -0.9895281
vt 0.6795292 0.7193648
v -0.0128487 2.6432347 1.7021450
vn -0.0000006 0.1443406 -0.9895281
vt 0.6612018 0.7096310
v 0.0094047 2.6432347 1.6949170
vn -0.5815054 0.1443615 -0.8006318
vt 0.6633393 0.7098165
v 0.0231585 2.6432347 1.6759950
vn -0.9410599 0.1443949 -0.3058698
vt 0.6654512 0.7101915
v 0.0231585 2.6432347 1.6526060
vn -0.9410605 0.1443953 0.3058679
vt 0.6675208 0.7107534
v 0.0094047 2.6432347 1.6336840
vn -0.5815051 0.1443615 0.8006320
vt 0.6695325 0.7114978
v -0.0128489 2.3837926 1.6643010
vn 0.0000127 1.0000000 -0.0000134
vt 0.6548865 0.7430400
v -0.0128489 2.3837926 1.6643010
vn 0.0000127 1.0000000 -0.0000134
vt 0.6548865 0.7430400
v -0.0128489 2.3837926 1.6643010
vn 0.0000127 1.0000000 -0.0000134
vt 0.6548865 0.7430400
v -0.0128489 2.3837926 1.6643010
vn 0.0000127 1.0000000 -0.0000134
vt 0.6548865 0.7430400
v -0.0128489 2.3837926 1.6643010
vn 0.0000127 1.0000000 -0.0000134
vt 0.6548865 0.7430400
v -0.0128489 2.3837926 1.6643010
vn 0.0000127 1.0000000 -0.0000134
vt 0.6548865 0.7430400
v -0.0128489 2.3837926 1.6643010
vn 0.0000127 1.0000000 -0.0000134
vt 0.6548865 0.7430400

g group_16753752_140627909766736
f 1/1/1 2/2/2 3/3/3 
f 3/3/3 2/2/2 4/4/4 
f 2/2/2 5/5/5 4/4/4 
f 4/4/4 5/5/5 6/6/6 
f 5/5/5 7/7/7 6/6/6 
f 6/6/6 7/7/7 8/8/8 
f 7/7/7 9/9/9 8/8/8 
f 8/8/8 9/9/9 10/10/10 
f 9/9/9 11/11/11 10/10/10 
f 10/10/10 11/11/11 12/12/12 
f 11/11/11 13/13/13 12/12/12 
f 12/12/12 13/13/13 14/14/14 
f 15/15/15 1/1/1 16/16/16 
f 16/16/16 1/1/1 3/3/3 
f 17/17/17 18/18/18 19/19/19 
f 19/19/19 18/18/18 20/20/20 
f 21/21/21 17/17/17 22/22/22 
f 22/22/22 17/17/17 19/19/19 
f 23/23/23 21/21/21 24/24/24 
f 24/24/24 21/21/21 22/22/22 
f 25/25/25 23/23/23 26/26/26 
f 26/26/26 23/23/23 24/24/24 
f 27/27/27 25/25/25 28/28/28 
f 28/28/28 25/25/25 26/26/26 
f 29/29/29 27/27/27 30/30/30 
f 30/30/30 27/27/27 28/28/28 
f 29/29/29 30/30/30 31/31/31 
f 31/31/31 30/30/30 32/32/32 
f 31/31/31 32/32/32 33/33/33 
f 33/33/33 32/32/32 34/34/34 
f 33/33/33 34/34/34 35/35/35 
f 35/35/35 34/34/34 36/36/36 
f 35/35/35 36/36/36 37/37/37 
f 37/37/37 36/36/36 38/38/38 
f 39/39/39 40/40/40 41/41/41 
f 41/41/41 40/40/40 42/42/42 
f 40/40/40 43/43/43 42/42/42 
f 42/42/42 43/43/43 44/44/44 
f 43/43/43 45/45/45 44/44/44 
f 44/44/44 45/45/45 46/46/46 
f 45/45/45 47/47/47 46/46/46 
f 46/46/46 47/47/47 48/48/48 
f 47/47/47 49/49/49 48/48/48 
f 48/48/48 49/49/49 50/50/50 
f 49/49/49 51/51/51 50/50/50 
f 50/50/50 51/51/51 52/52/52 
f 51/51/51 53/53/53 52/52/52 
f 52/52/52 53/53/53 54/54/54 
f 53/53/53 55/55/55 54/54/54 
f 54/54/54 55/55/55 56/56/56 
f 55/55/55 57/57/57 56/56/56 
f 56/56/56 57/57/57 58/58/58 
f 57/57/57 39/39/39 58/58/58 
f 58/58/58 39/39/39 41/41/41 
f 59/59/59 60/60/60 61/61/61 
f 60/60/60 62/62/62 61/61/61 
f 62/62/62 63/63/63 61/61/61 
f 63/63/63 64/64/64 71/71/71 
f 64/64/64 65/65/65 72/72/72 
f 66/66/66 67/67/67 73/73/73 
f 67/67/67 68/68/68 74/74/74 
f 68/68/68 69/69/69 75/75/75 
f 69/69/69 70/70/70 76/76/76 
f 70/70/70 59/59/59 77/77/77 
