v -1.0003440 -0.0763499 0.6224481
vn 0.6913403 0.6787503 0.2476825
vt 0.7607130 0.5637486
v -1.0003440 -0.3071194 0.8532176
vn 1.0000000 0.0000000 0.0000000
vt 0.7204897 0.5804400
v -1.0003440 -0.0763499 0.2960908
vn 0.6365308 0.7169226 -0.2843423
vt 0.7773523 0.5235038
v -1.0003440 -0.6335700 0.8534416
vn 1.0000000 0.0000000 0.0000000
vt 0.6802220 0.5638235
v -1.0003440 -0.8642462 0.6224481
vn 1.0000000 0.0000000 0.0000000
vt 0.6635534 0.5235774
v -1.0003440 -0.8642464 0.2960907
vn 1.0000000 0.0000000 0.0000000
vt 0.6801929 0.4833326
v -1.0003440 -0.6334769 0.0653212
vn 1.0000000 0.0000000 0.0000000
vt 0.7204161 0.4666411
v -1.0003440 -0.3070265 0.0650977
vn 1.0000000 0.0000000 0.0000000
vt 0.7606838 0.4832577
v -1.1114620 -0.0436496 0.4592699
vn -1.0000000 0.0000000 0.0000000
vt 0.8558393 0.6541052
v -1.1114620 -0.1018366 0.2465383
vn -1.0000000 0.0000000 0.0000000
vt 0.8439854 0.6278564
v -1.1114620 -0.1018365 0.6720010
vn -1.0000000 0.0000000 0.0000000
vt 0.8794028 0.6706668
v -1.1114690 -0.2575671 0.0908081
vn -1.0000000 0.0000000 0.0000000
vt 0.8466913 0.5992230
v -1.1114700 -0.2575671 0.8277313
vn -1.0000000 0.0000000 0.0000000
vt 0.9080362 0.6733728
v -1.1114690 -0.4702984 0.0326210
vn -1.0000000 0.0000000 0.0000000
vt 0.8632526 0.5756595
v -1.1114620 -0.6830298 0.0908081
vn -1.0000000 0.0000000 0.0000000
vt 0.8895016 0.5638056
v -1.1114690 -0.8387597 0.2465383
vn -1.0000000 0.0000000 0.0000000
vt 0.9181350 0.5665115
v -1.1114690 -0.8969470 0.4592697
vn -1.0000000 0.0000000 0.0000000
vt 0.9416986 0.5830730
v -1.1114620 -0.8387597 0.6720010
vn -1.0000000 0.0000000 0.0000000
vt 0.9535526 0.6093218
v -1.1114690 -0.6830298 0.8277313
vn -1.0000000 0.0000000 0.0000000
vt 0.9508466 0.6379554
v -1.1114690 -0.4702984 0.8859184
vn -1.0000000 0.0000000 0.0000000
vt 0.9342850 0.6615189
v -1.0003440 -0.3071194 0.8532176
vn 0.0352237 0.3686540 0.9288991
vt 0.9004523 0.4178613
v -1.1114700 -0.2575671 0.8277313
vn 0.0629409 0.5644698 0.8230507
vt 0.8823667 0.4031880
v -1.1114690 -0.4702984 0.8859184
vn 0.0872433 -0.0337629 0.9956147
vt 0.9113427 0.4031881
v -1.0003440 -0.0763499 0.6224481
vn 0.6913403 0.6787503 0.2476825
vt 0.8480992 0.4178615
v -1.1114620 -0.1018365 0.6720010
vn 0.1528960 0.8442712 0.5136428
vt 0.8530542 0.4031880
v -1.1114700 -0.2575671 0.8277313
vn 0.0629409 0.5644698 0.8230507
vt 0.8823667 0.4031880
v -1.0003440 -0.3071194 0.8532176
vn 0.0352237 0.3686540 0.9288991
vt 0.9004523 0.4178613
v -1.0003440 -0.0763499 0.2960908
vn 0.6365308 0.7169226 -0.2843423
vt 0.8217670 0.4178616
v -1.1114620 -0.0436496 0.4592699
vn 0.0884004 0.9955013 0.0340938
vt 0.8407220 0.4031879
v -1.1114620 -0.1018365 0.6720010
vn 0.1528960 0.8442712 0.5136428
vt 0.8530542 0.4031880
v -1.0003440 -0.0763499 0.6224481
vn 0.6913403 0.6787503 0.2476825
vt 0.8480992 0.4178615
v -1.0003440 -0.8642462 0.6224481
vn 0.0351496 -0.9289835 0.3684483
vt 0.9004530 0.4178614
v -1.1114620 -0.8387597 0.6720010
vn 0.0622854 -0.8232245 0.5642890
vt 0.8823674 0.4031880
v -1.1114690 -0.8969470 0.4592697
vn 0.0884025 -0.9955012 -0.0340933
vt 0.9113430 0.4031881
v -1.0003440 -0.6335700 0.8534416
vn 0.1464707 -0.3389528 0.9293317
vt 0.8480998 0.4178616
v -1.1114690 -0.6830298 0.8277313
vn 0.1517296 -0.5138507 0.8443552
vt 0.8530579 0.4031880
v -1.1114620 -0.8387597 0.6720010
vn 0.0622854 -0.8232245 0.5642890
vt 0.8823674 0.4031880
v -1.0003440 -0.8642462 0.6224481
vn 0.0351496 -0.9289835 0.3684483
vt 0.9004530 0.4178614
v -1.0003440 -0.3071194 0.8532176
vn 0.0352237 0.3686540 0.9288991
vt 0.8217653 0.4178616
v -1.1114690 -0.4702984 0.8859184
vn 0.0872433 -0.0337629 0.9956147
vt 0.8407220 0.4031879
v -1.1114690 -0.6830298 0.8277313
vn 0.1517296 -0.5138507 0.8443552
vt 0.8530579 0.4031880
v -1.0003440 -0.6335700 0.8534416
vn 0.1464707 -0.3389528 0.9293317
vt 0.8480998 0.4178616
v -1.0003440 -0.6334769 0.0653212
vn 0.0352209 -0.3686530 -0.9288996
vt 0.9004521 0.4178613
v -1.1114620 -0.6830298 0.0908081
vn 0.0629392 -0.5644709 -0.8230500
vt 0.8823666 0.4031880
v -1.1114690 -0.4702984 0.0326210
vn 0.0872409 0.0337636 -0.9956149
vt 0.9113426 0.4031882
v -1.0003440 -0.8642464 0.2960907
vn 0.1477695 -0.9290955 -0.3390364
vt 0.8480994 0.4178615
v -1.1114690 -0.8387597 0.2465383
vn 0.1528956 -0.8442717 -0.5136421
vt 0.8530543 0.4031880
v -1.1114620 -0.6830298 0.0908081
vn 0.0629392 -0.5644709 -0.8230500
vt 0.8823666 0.4031880
v -1.0003440 -0.6334769 0.0653212
vn 0.0352209 -0.3686530 -0.9288996
vt 0.9004521 0.4178613
v -1.0003440 -0.8642462 0.6224481
vn 0.0351496 -0.9289835 0.3684483
vt 0.8217673 0.4178616
v -1.1114690 -0.8969470 0.4592697
vn 0.0884025 -0.9955012 -0.0340933
vt 0.8407222 0.4031880
v -1.1114690 -0.8387597 0.2465383
vn 0.1528956 -0.8442717 -0.5136421
vt 0.8530543 0.4031880
v -1.0003440 -0.8642464 0.2960907
vn 0.1477695 -0.9290955 -0.3390364
vt 0.8480994 0.4178615
v -1.0003440 -0.0763499 0.2960908
vn 0.6365308 0.7169226 -0.2843423
vt 0.8911428 0.4178613
v -1.1114620 -0.1018366 0.2465383
vn 0.0622814 0.8232245 -0.5642895
vt 0.8642653 0.4031880
v -1.1114620 -0.0436496 0.4592699
vn 0.0884004 0.9955013 0.0340938
vt 0.8902227 0.4031882
v -1.0003440 -0.3070265 0.0650977
vn 0.1464680 0.3389535 -0.9293318
vt 0.8453863 0.4178615
v -1.1114690 -0.2575671 0.0908081
vn 0.1517264 0.5138497 -0.8443564
vt 0.8492006 0.4031880
v -1.1114620 -0.1018366 0.2465383
vn 0.0622814 0.8232245 -0.5642895
vt 0.8642653 0.4031880
v -1.0003440 -0.0763499 0.2960908
vn 0.6365308 0.7169226 -0.2843423
vt 0.8911428 0.4178613
v -1.0003440 -0.6334769 0.0653212
vn 0.0352209 -0.3686530 -0.9288996
vt 0.8224546 0.4178616
v -1.1114690 -0.4702984 0.0326210
vn 0.0872409 0.0337636 -0.9956149
vt 0.8405663 0.4031880
v -1.1114690 -0.2575671 0.0908081
vn 0.1517264 0.5138497 -0.8443564
vt 0.8492006 0.4031880
v -1.0003440 -0.3070265 0.0650977
vn 0.1464680 0.3389535 -0.9293318
vt 0.8453863 0.4178615

g group_33128544_140627855162288
f 1/1/1 2/2/2 3/3/3 
f 2/2/2 4/4/4 3/3/3 
f 4/4/4 5/5/5 3/3/3 
f 5/5/5 6/6/6 3/3/3 
f 6/6/6 7/7/7 3/3/3 
f 7/7/7 8/8/8 3/3/3 
f 9/9/9 10/10/10 11/11/11 
f 10/10/10 12/12/12 11/11/11 
f 11/11/11 12/12/12 13/13/13 
f 12/12/12 14/14/14 13/13/13 
f 14/14/14 15/15/15 13/13/13 
f 15/15/15 16/16/16 13/13/13 
f 16/16/16 17/17/17 13/13/13 
f 17/17/17 18/18/18 13/13/13 
f 18/18/18 19/19/19 13/13/13 
f 19/19/19 20/20/20 13/13/13 
f 21/21/21 22/22/22 23/23/23 
f 24/24/24 25/25/25 26/26/26 
f 24/24/24 26/26/26 27/27/27 
f 28/28/28 29/29/29 30/30/30 
f 28/28/28 30/30/30 31/31/31 
f 32/32/32 33/33/33 34/34/34 
f 35/35/35 36/36/36 37/37/37 
f 35/35/35 37/37/37 38/38/38 
f 39/39/39 40/40/40 41/41/41 
f 39/39/39 41/41/41 42/42/42 
f 43/43/43 44/44/44 45/45/45 
f 46/46/46 47/47/47 48/48/48 
f 46/46/46 48/48/48 49/49/49 
f 50/50/50 51/51/51 52/52/52 
f 50/50/50 52/52/52 53/53/53 
f 54/54/54 55/55/55 56/56/56 
f 57/57/57 58/58/58 59/59/59 
f 57/57/57 59/59/59 60/60/60 
f 61/61/61 62/62/62 63/63/63 
f 61/61/61 63/63/63 64/64/64 
