v -1.0788389 -0.0205823 0.9830514
vn 0.0000000 0.3826838 0.9238794
vt 0.6766191 0.3716847
v -1.0284860 -0.0205823 0.9830514
vn 0.0000000 0.3826838 0.9238794
vt 0.6766190 0.3613922
v -1.0284860 0.0452965 0.9557635
vn 0.0000000 0.7071074 0.7071062
vt 0.7048740 0.3613922
v -1.0788389 0.0452965 0.9557635
vn 0.0000000 0.7071074 0.7071062
vt 0.7048739 0.3716846
v -1.0284860 0.0725843 0.8898847
vn 0.0000000 1.0000000 0.0000000
vt 0.7190015 0.3613922
v -1.0788389 0.0725843 0.8898848
vn 0.0000000 1.0000000 0.0000000
vt 0.7190015 0.3716846
v -1.0788389 0.0725843 0.8898848
vn 0.0000000 1.0000000 0.0000000
vt 0.6907761 0.3716846
v -1.0284860 0.0725843 0.8898847
vn 0.0000000 1.0000000 0.0000000
vt 0.6907761 0.3613922
v -1.0284860 0.0452965 0.8240060
vn 0.0000000 0.7071069 -0.7071066
vt 0.7049034 0.3613922
v -1.0788389 0.0452965 0.8240060
vn 0.0000000 0.7071072 -0.7071065
vt 0.7049034 0.3716846
v -1.0284860 -0.0205823 0.7967182
vn 0.0000000 0.3826831 -0.9238797
vt 0.7190309 0.3613922
v -1.0788389 -0.0205823 0.7967182
vn 0.0000000 0.3826831 -0.9238797
vt 0.7190309 0.3716847
v -1.0284860 -0.0864610 0.9557635
vn 0.0000000 -0.7071070 0.7071066
vt 0.7049033 0.3613922
v -1.0284860 -0.0205823 0.9830514
vn 0.0000000 -0.3826833 0.9238796
vt 0.7190308 0.3613922
v -1.0788389 -0.0205823 0.9830514
vn 0.0000000 -0.3826835 0.9238796
vt 0.7190307 0.3716847
v -1.0788389 -0.0864610 0.9557635
vn 0.0000000 -0.7071068 0.7071067
vt 0.7049033 0.3716847
v -1.0284860 -0.1137489 0.8898848
vn 0.0000000 -1.0000000 0.0000000
vt 0.6907758 0.3613922
v -1.0788389 -0.1137489 0.8898848
vn 0.0000000 -1.0000000 0.0000000
vt 0.6907759 0.3716846
v -1.0284860 -0.0864610 0.8240060
vn 0.0000000 -0.7071069 -0.7071066
vt 0.6766483 0.3613922
v -1.0788389 -0.0864610 0.8240060
vn 0.0000000 -0.7071066 -0.7071069
vt 0.6766483 0.3716846
v -1.0788389 -0.0864610 0.8240060
vn 0.0000000 -0.7071066 -0.7071069
vt 0.7048737 0.3716846
v -1.0788389 -0.0205823 0.7967182
vn 0.0000000 -0.3826831 -0.9238797
vt 0.6766189 0.3716847
v -1.0284860 -0.0205823 0.7967182
vn 0.0000000 -0.3826831 -0.9238797
vt 0.6766189 0.3613922
v -1.0284860 -0.0864610 0.8240060
vn 0.0000000 -0.7071069 -0.7071066
vt 0.7048737 0.3613922
v -1.0788389 -0.0864610 0.8240060
vn -1.0000000 0.0000000 0.0000000
vt 0.8116758 0.6435182
v -1.0788389 -0.1137489 0.8898848
vn -1.0000000 0.0000000 0.0000000
vt 0.7939441 0.6508629
v -1.0788389 -0.0205823 0.7967182
vn -1.0000000 0.0000000 0.0000000
vt 0.8190205 0.6257863
v -1.0788389 -0.0864610 0.9557635
vn -1.0000000 0.0000000 0.0000000
vt 0.7762122 0.6435182
v -1.0788389 -0.0205823 0.9830514
vn -1.0000000 0.0000000 0.0000000
vt 0.7688674 0.6257864
v -1.0788389 0.0452965 0.9557635
vn -1.0000000 0.0000000 0.0000000
vt 0.7762121 0.6080546
v -1.0788389 0.0725843 0.8898848
vn -1.0000000 0.0000000 0.0000000
vt 0.7939439 0.6007098
v -1.0788389 0.0452965 0.8240060
vn -1.0000000 0.0000000 0.0000000
vt 0.8116758 0.6080545

g group_66522272_140627855067472
f 1/1/1 2/2/2 3/3/3 
f 1/1/1 3/3/3 4/4/4 
f 4/4/4 3/3/3 5/5/5 
f 4/4/4 5/5/5 6/6/6 
f 7/7/7 8/8/8 9/9/9 
f 7/7/7 9/9/9 10/10/10 
f 10/10/10 9/9/9 11/11/11 
f 10/10/10 11/11/11 12/12/12 
f 13/13/13 14/14/14 15/15/15 
f 13/13/13 15/15/15 16/16/16 
f 17/17/17 13/13/13 16/16/16 
f 17/17/17 16/16/16 18/18/18 
f 19/19/19 17/17/17 18/18/18 
f 19/19/19 18/18/18 20/20/20 
f 21/21/21 22/22/22 23/23/23 
f 21/21/21 23/23/23 24/24/24 
f 25/25/25 26/26/26 27/27/27 
f 26/26/26 28/28/28 27/27/27 
f 28/28/28 29/29/29 27/27/27 
f 29/29/29 30/30/30 27/27/27 
f 30/30/30 31/31/31 27/27/27 
f 31/31/31 32/32/32 27/27/27 
