v -1.1935360 -2.3293960 0.6112680
vn -1.0000000 0.0000000 0.0000000
vt 0.8830137 0.5338147
v -1.1935360 -2.2873671 0.7659927
vn -1.0000000 0.0000000 0.0000000
vt 0.8762749 0.5589238
v -1.1935360 -2.2873671 0.4565434
vn -1.0000000 0.0000000 0.0000000
vt 0.8761226 0.5087469
v -1.1935360 -2.1741011 0.8792592
vn -1.0000000 0.0000000 0.0000000
vt 0.8579645 0.5773457
v -1.1935360 -2.1741011 0.3432770
vn -1.0000000 0.0000000 0.0000000
vt 0.8577008 0.4904365
v -1.1935360 -2.0193751 0.9212886
vn -1.0000000 0.0000000 0.0000000
vt 0.8328966 0.5842369
v -1.1935370 -1.8646510 0.8792592
vn -1.0000000 0.0000000 0.0000000
vt 0.8077874 0.5774980
v -1.1935360 -1.7513840 0.7659928
vn -1.0000000 0.0000000 0.0000000
vt 0.7893656 0.5591875
v -1.1935360 -1.7093550 0.6112680
vn -1.0000000 0.0000000 0.0000000
vt 0.7824745 0.5341197
v -1.1935360 -1.7513850 0.4565434
vn -1.0000000 0.0000000 0.0000000
vt 0.7892133 0.5090106
v -1.1935360 -1.8646510 0.3432768
vn -1.0000000 0.0000000 0.0000000
vt 0.8075236 0.4905887
v -1.1935360 -2.0193760 0.3012472
vn -1.0000000 0.0000000 0.0000000
vt 0.8325915 0.4836975
v -1.1550710 -1.8646510 0.8792592
vn 0.0000000 0.5014887 0.8651642
vt 0.8888761 0.4439540
v -1.1935370 -1.8646510 0.8792592
vn 0.0000000 0.5014889 0.8651641
vt 0.8888761 0.4374911
v -1.1935360 -2.0193751 0.9212886
vn 0.0000000 0.0000000 1.0000000
vt 0.9092011 0.4374911
v -1.1550710 -2.0193760 0.9212887
vn 0.0000000 0.0000000 1.0000000
vt 0.9092011 0.4439541
v -1.1550710 -1.7513840 0.7659928
vn 0.0000000 0.8651646 0.5014880
vt 0.8482271 0.4439540
v -1.1935360 -1.7513840 0.7659928
vn 0.0000000 0.8651644 0.5014884
vt 0.8482271 0.4374911
v -1.1550710 -1.7093550 0.6112679
vn 0.0000000 1.0000000 0.0000000
vt 0.8279026 0.4439539
v -1.1935360 -1.7093550 0.6112680
vn 0.0000000 1.0000000 0.0000000
vt 0.8279026 0.4374912
v -1.1550710 -2.2873671 0.7659929
vn 0.0000000 -0.8651642 0.5014887
vt 0.8888761 0.4439540
v -1.1935360 -2.2873671 0.7659927
vn 0.0000000 -0.8651648 0.5014879
vt 0.8888761 0.4374911
v -1.1935360 -2.3293960 0.6112680
vn 0.0000000 -1.0000000 0.0000000
vt 0.9092011 0.4374911
v -1.1550710 -2.3293960 0.6112680
vn 0.0000000 -1.0000000 0.0000000
vt 0.9092011 0.4439541
v -1.1550710 -2.1741011 0.8792592
vn 0.0000000 -0.5014884 0.8651644
vt 0.8482271 0.4439540
v -1.1935360 -2.1741011 0.8792592
vn 0.0000000 -0.5014887 0.8651643
vt 0.8482271 0.4374911
v -1.1550710 -2.0193760 0.9212887
vn 0.0000000 0.0000000 1.0000000
vt 0.8279026 0.4439539
v -1.1935360 -2.0193751 0.9212886
vn 0.0000000 0.0000000 1.0000000
vt 0.8279026 0.4374912
v -1.1550710 -1.7513850 0.4565431
vn 0.0000000 0.8651639 -0.5014892
vt 0.8888761 0.4439540
v -1.1935360 -1.7513850 0.4565434
vn 0.0000000 0.8651649 -0.5014876
vt 0.8888761 0.4374911
v -1.1935360 -1.7093550 0.6112680
vn 0.0000000 1.0000000 0.0000000
vt 0.9092011 0.4374911
v -1.1550710 -1.7093550 0.6112679
vn 0.0000000 1.0000000 0.0000000
vt 0.9092011 0.4439541
v -1.1550710 -1.8646510 0.3432767
vn 0.0000000 0.5014868 -0.8651653
vt 0.8482271 0.4439540
v -1.1935360 -1.8646510 0.3432768
vn 0.0000000 0.5014914 -0.8651627
vt 0.8482271 0.4374911
v -1.1550710 -2.0193760 0.3012472
vn 0.0000000 0.0000000 -1.0000000
vt 0.8279026 0.4439539
v -1.1935360 -2.0193760 0.3012472
vn 0.0000000 0.0000000 -1.0000000
vt 0.8279026 0.4374912
v -1.1550710 -2.1741011 0.3432767
vn 0.0000000 -0.5014890 -0.8651641
vt 0.8888761 0.4439540
v -1.1935360 -2.1741011 0.3432770
vn 0.0000000 -0.5014902 -0.8651634
vt 0.8888761 0.4374911
v -1.1935360 -2.0193760 0.3012472
vn 0.0000000 0.0000000 -1.0000000
vt 0.9092011 0.4374911
v -1.1550710 -2.0193760 0.3012472
vn 0.0000000 0.0000000 -1.0000000
vt 0.9092011 0.4439541
v -1.1550710 -2.2873671 0.4565431
vn 0.0000000 -0.8651640 -0.5014892
vt 0.8482271 0.4439540
v -1.1935360 -2.2873671 0.4565434
vn 0.0000000 -0.8651650 -0.5014874
vt 0.8482271 0.4374911
v -1.1550710 -2.3293960 0.6112680
vn 0.0000000 -1.0000000 0.0000000
vt 0.8279026 0.4439539
v -1.1935360 -2.3293960 0.6112680
vn 0.0000000 -1.0000000 0.0000000
vt 0.8279026 0.4374912
v -1.1845360 -1.9153920 0.6112679
vn 0.0000000 1.0000000 0.0000000
vt 0.9992216 0.3725798
v -1.1845360 -2.0193760 0.7152513
vn 0.0000000 0.0000000 1.0000000
vt 0.9833589 0.3725985
v -0.9410068 -2.0193751 0.7152513
vn 0.0000000 0.0000000 1.0000000
vt 0.9833643 0.3463311
v -0.9410068 -1.9153920 0.6112679
vn 0.0000000 1.0000000 0.0000000
vt 0.9992245 0.3463562
v -1.1845360 -2.1233590 0.6112680
vn 0.0000000 -1.0000000 0.0000000
vt 0.9674975 0.3725952
v -0.9410068 -2.1233590 0.6112679
vn 0.0000000 -1.0000000 0.0000000
vt 0.9675029 0.3463278
v -0.9410068 -2.0193751 0.7152513
vn 0.0000000 0.0000000 1.0000000
vt 0.9833643 0.3463311
v -1.1845360 -2.1233590 0.6112680
vn 0.0000000 -1.0000000 0.0000000
vt 0.9676057 0.3725578
v -1.1845360 -2.0193760 0.5072845
vn 0.0000000 0.0000000 -1.0000000
vt 0.9834145 0.3725578
v -0.9410068 -2.0193760 0.5072845
vn 0.0000000 0.0000000 -1.0000000
vt 0.9834145 0.3463779
v -0.9410068 -2.1233590 0.6112679
vn 0.0000000 -1.0000000 0.0000000
vt 0.9676059 0.3463779
v -1.1845360 -2.0193760 0.5072845
vn 0.0000000 0.0000000 -1.0000000
vt 0.9834145 0.3725578
v -1.1845360 -1.9153920 0.6112679
vn 0.0000000 1.0000000 0.0000000
vt 0.9992216 0.3725798
v -0.9410068 -1.9153920 0.6112679
vn 0.0000000 1.0000000 0.0000000
vt 0.9992245 0.3463562
v -0.9070013 -1.7513850 0.4565431
vn 1.0000000 0.0000000 0.0000000
vt 0.9910228 0.4977634
v -0.9070013 -1.7093550 0.6112679
vn 1.0000000 0.0000000 0.0000000
vt 0.9978423 0.5230792
v -0.9070013 -1.8646510 0.3432767
vn 1.0000000 0.0000000 0.0000000
vt 0.9725397 0.4792024
v -0.9070016 -1.7513850 0.7659927
vn 1.0000000 0.0000000 0.0000000
vt 0.9909160 0.5483662
v -0.9070016 -1.8646510 0.8792592
vn 1.0000000 0.0000000 0.0000000
vt 0.9723551 0.5668491
v -0.9070013 -2.0193760 0.9212885
vn 1.0000000 0.0000000 0.0000000
vt 0.9470394 0.5736686
v -0.9070013 -2.1741011 0.8792592
vn 1.0000000 0.0000000 0.0000000
vt 0.9217523 0.5667425
v -0.9070013 -2.2873671 0.7659927
vn 1.0000000 0.0000000 0.0000000
vt 0.9032696 0.5481816
v -0.9070013 -2.3293960 0.6112679
vn 1.0000000 0.0000000 0.0000000
vt 0.8964500 0.5228658
v -0.9070013 -2.2873671 0.4565431
vn 1.0000000 0.0000000 0.0000000
vt 0.9033762 0.4975789
v -0.9070013 -2.1741011 0.3432767
vn 1.0000000 0.0000000 0.0000000
vt 0.9219369 0.4790960
v -0.9070013 -2.0193760 0.3012472
vn 1.0000000 0.0000000 0.0000000
vt 0.9472528 0.4722764
v -0.9454669 -2.3293960 0.6112679
vn -1.0000000 0.0000000 0.0000000
vt 0.9978424 0.5230793
v -0.9454669 -2.2873671 0.7659927
vn -1.0000000 0.0000000 0.0000000
vt 0.9909161 0.5483661
v -0.9454669 -2.2873671 0.4565431
vn -1.0000000 0.0000000 0.0000000
vt 0.9910228 0.4977634
v -0.9454669 -2.1741011 0.8792592
vn -1.0000000 0.0000000 0.0000000
vt 0.9723552 0.5668491
v -0.9454669 -2.1741011 0.3432767
vn -1.0000000 0.0000000 0.0000000
vt 0.9725398 0.4792024
v -0.9454669 -2.0193760 0.9212885
vn -1.0000000 0.0000000 0.0000000
vt 0.9470395 0.5736686
v -0.9454669 -1.8646510 0.8792592
vn -1.0000000 0.0000000 0.0000000
vt 0.9217525 0.5667425
v -0.9454669 -1.7513850 0.7659927
vn -1.0000000 0.0000000 0.0000000
vt 0.9032696 0.5481816
v -0.9454669 -1.7093550 0.6112679
vn -1.0000000 0.0000000 0.0000000
vt 0.8964501 0.5228658
v -0.9454669 -1.7513850 0.4565431
vn -1.0000000 0.0000000 0.0000000
vt 0.9033763 0.4975789
v -0.9454669 -1.8646510 0.3432767
vn -1.0000000 0.0000000 0.0000000
vt 0.9219371 0.4790960
v -0.9454669 -2.0193760 0.3012472
vn -1.0000000 0.0000000 0.0000000
vt 0.9472529 0.4722764
v -0.9070016 -1.8646510 0.8792592
vn 0.0000000 0.5014887 0.8651642
vt 0.8888761 0.4439540
v -0.9454669 -1.8646510 0.8792592
vn 0.0000000 0.5014889 0.8651642
vt 0.8888761 0.4374911
v -0.9454669 -2.0193760 0.9212885
vn 0.0000000 0.0000000 1.0000000
vt 0.9092011 0.4374911
v -0.9070013 -2.0193760 0.9212885
vn 0.0000000 0.0000000 1.0000000
vt 0.9092011 0.4439541
v -0.9070016 -1.7513850 0.7659927
vn 0.0000000 0.8651642 0.5014887
vt 0.8482271 0.4439540
v -0.9454669 -1.7513850 0.7659927
vn 0.0000000 0.8651642 0.5014887
vt 0.8482271 0.4374911
v -0.9070013 -1.7093550 0.6112679
vn 0.0000000 1.0000000 0.0000000
vt 0.8279026 0.4439539
v -0.9454669 -1.7093550 0.6112679
vn 0.0000000 1.0000000 0.0000000
vt 0.8279026 0.4374912
v -0.9070013 -2.2873671 0.7659927
vn 0.0000000 -0.8651642 0.5014889
vt 0.8888761 0.4439540
v -0.9454669 -2.2873671 0.7659927
vn 0.0000000 -0.8651642 0.5014889
vt 0.8888761 0.4374911
v -0.9454669 -2.3293960 0.6112679
vn 0.0000000 -1.0000000 0.0000000
vt 0.9092011 0.4374911
v -0.9070013 -2.3293960 0.6112679
vn 0.0000000 -1.0000000 0.0000000
vt 0.9092011 0.4439541
v -0.9070013 -2.1741011 0.8792592
vn 0.0000000 -0.5014884 0.8651644
vt 0.8482271 0.4439540
v -0.9454669 -2.1741011 0.8792592
vn 0.0000000 -0.5014884 0.8651644
vt 0.8482271 0.4374911
v -0.9070013 -2.0193760 0.9212885
vn 0.0000000 0.0000000 1.0000000
vt 0.8279026 0.4439539
v -0.9454669 -2.0193760 0.9212885
vn 0.0000000 0.0000000 1.0000000
vt 0.8279026 0.4374912
v -0.9070013 -1.7513850 0.4565431
vn 0.0000000 0.8651644 -0.5014884
vt 0.8888761 0.4439540
v -0.9454669 -1.7513850 0.4565431
vn 0.0000000 0.8651644 -0.5014884
vt 0.8888761 0.4374911
v -0.9454669 -1.7093550 0.6112679
vn 0.0000000 1.0000000 0.0000000
vt 0.9092011 0.4374911
v -0.9070013 -1.7093550 0.6112679
vn 0.0000000 1.0000000 0.0000000
vt 0.9092011 0.4439541
v -0.9070013 -1.8646510 0.3432767
vn 0.0000000 0.5014889 -0.8651641
vt 0.8482271 0.4439540
v -0.9454669 -1.8646510 0.3432767
vn 0.0000000 0.5014889 -0.8651641
vt 0.8482271 0.4374911
v -0.9070013 -2.0193760 0.3012472
vn 0.0000000 0.0000000 -1.0000000
vt 0.8279026 0.4439539
v -0.9454669 -2.0193760 0.3012472
vn 0.0000000 0.0000000 -1.0000000
vt 0.8279026 0.4374912
v -0.9070013 -2.1741011 0.3432767
vn 0.0000000 -0.5014892 -0.8651640
vt 0.8888761 0.4439540
v -0.9454669 -2.1741011 0.3432767
vn 0.0000000 -0.5014892 -0.8651640
vt 0.8888761 0.4374911
v -0.9454669 -2.0193760 0.3012472
vn 0.0000000 0.0000000 -1.0000000
vt 0.9092011 0.4374911
v -0.9070013 -2.0193760 0.3012472
vn 0.0000000 0.0000000 -1.0000000
vt 0.9092011 0.4439541
v -0.9070013 -2.2873671 0.4565431
vn 0.0000000 -0.8651641 -0.5014890
vt 0.8482271 0.4439540
v -0.9454669 -2.2873671 0.4565431
vn 0.0000000 -0.8651641 -0.5014890
vt 0.8482271 0.4374911
v -0.9070013 -2.3293960 0.6112679
vn 0.0000000 -1.0000000 0.0000000
vt 0.8279026 0.4439539
v -0.9454669 -2.3293960 0.6112679
vn 0.0000000 -1.0000000 0.0000000
vt 0.8279026 0.4374912

g group_66522944_140627855071120
f 1/1/1 2/2/2 3/3/3 
f 2/2/2 4/4/4 3/3/3 
f 3/3/3 4/4/4 5/5/5 
f 4/4/4 6/6/6 5/5/5 
f 6/6/6 7/7/7 5/5/5 
f 7/7/7 8/8/8 5/5/5 
f 8/8/8 9/9/9 5/5/5 
f 9/9/9 10/10/10 5/5/5 
f 10/10/10 11/11/11 5/5/5 
f 11/11/11 12/12/12 5/5/5 
f 13/13/13 14/14/14 15/15/15 
f 13/13/13 15/15/15 16/16/16 
f 13/13/13 17/17/17 18/18/18 
f 13/13/13 18/18/18 14/14/14 
f 19/19/19 20/20/20 18/18/18 
f 19/19/19 18/18/18 17/17/17 
f 21/21/21 22/22/22 23/23/23 
f 21/21/21 23/23/23 24/24/24 
f 21/21/21 25/25/25 26/26/26 
f 21/21/21 26/26/26 22/22/22 
f 27/27/27 28/28/28 26/26/26 
f 27/27/27 26/26/26 25/25/25 
f 29/29/29 30/30/30 31/31/31 
f 29/29/29 31/31/31 32/32/32 
f 29/29/29 33/33/33 34/34/34 
f 29/29/29 34/34/34 30/30/30 
f 35/35/35 36/36/36 34/34/34 
f 35/35/35 34/34/34 33/33/33 
f 37/37/37 38/38/38 39/39/39 
f 37/37/37 39/39/39 40/40/40 
f 37/37/37 41/41/41 42/42/42 
f 37/37/37 42/42/42 38/38/38 
f 43/43/43 44/44/44 42/42/42 
f 43/43/43 42/42/42 41/41/41 
f 45/45/45 46/46/46 47/47/47 
f 45/45/45 47/47/47 48/48/48 
f 46/46/46 49/49/49 50/50/50 
f 46/46/46 50/50/50 51/51/51 
f 52/52/52 53/53/53 54/54/54 
f 52/52/52 54/54/54 55/55/55 
f 56/56/56 57/57/57 58/58/58 
f 56/56/56 58/58/58 54/54/54 
f 59/59/59 60/60/60 61/61/61 
f 60/60/60 62/62/62 61/61/61 
f 62/62/62 63/63/63 61/61/61 
f 63/63/63 64/64/64 61/61/61 
f 64/64/64 65/65/65 61/61/61 
f 65/65/65 66/66/66 61/61/61 
f 66/66/66 67/67/67 61/61/61 
f 67/67/67 68/68/68 61/61/61 
f 68/68/68 69/69/69 61/61/61 
f 69/69/69 70/70/70 61/61/61 
f 71/71/71 72/72/72 73/73/73 
f 72/72/72 74/74/74 73/73/73 
f 73/73/73 74/74/74 75/75/75 
f 74/74/74 76/76/76 75/75/75 
f 76/76/76 77/77/77 75/75/75 
f 77/77/77 78/78/78 75/75/75 
f 78/78/78 79/79/79 75/75/75 
f 79/79/79 80/80/80 75/75/75 
f 80/80/80 81/81/81 75/75/75 
f 81/81/81 82/82/82 75/75/75 
f 83/83/83 84/84/84 85/85/85 
f 83/83/83 85/85/85 86/86/86 
f 83/83/83 87/87/87 88/88/88 
f 83/83/83 88/88/88 84/84/84 
f 89/89/89 90/90/90 88/88/88 
f 89/89/89 88/88/88 87/87/87 
f 91/91/91 92/92/92 93/93/93 
f 91/91/91 93/93/93 94/94/94 
f 91/91/91 95/95/95 96/96/96 
f 91/91/91 96/96/96 92/92/92 
f 97/97/97 98/98/98 96/96/96 
f 97/97/97 96/96/96 95/95/95 
f 99/99/99 100/100/100 101/101/101 
f 99/99/99 101/101/101 102/102/102 
f 99/99/99 103/103/103 104/104/104 
f 99/99/99 104/104/104 100/100/100 
f 105/105/105 106/106/106 104/104/104 
f 105/105/105 104/104/104 103/103/103 
f 107/107/107 108/108/108 109/109/109 
f 107/107/107 109/109/109 110/110/110 
f 107/107/107 111/111/111 112/112/112 
f 107/107/107 112/112/112 108/108/108 
f 113/113/113 114/114/114 112/112/112 
f 113/113/113 112/112/112 111/111/111 
