v -1.0003440 1.7819300 0.2955681
vn 1.0000000 0.0000000 0.0000000
vt 0.7607130 0.5637486
v -1.0003440 1.7823631 0.6219252
vn 1.0000000 0.0000000 0.0000000
vt 0.7204897 0.5804400
v -1.0003440 1.5508550 0.0651051
vn 1.0000000 0.0000000 0.0000000
vt 0.7773523 0.5235038
v -1.0003440 1.5519930 0.8532248
vn 1.0000000 0.0000000 0.0000000
vt 0.6802220 0.5638235
v -1.0003440 1.2255430 0.8534338
vn 1.0000000 0.0000000 0.0000000
vt 0.6635534 0.5235774
v -1.0003440 0.9944677 0.6229707
vn 1.0000000 0.0000000 0.0000000
vt 0.6801929 0.4833326
v -1.0003440 0.9940344 0.2966136
vn 1.0000000 0.0000000 0.0000000
vt 0.7204161 0.4666411
v -1.0003440 1.2244051 0.0653146
vn 1.0000000 0.0000000 0.0000000
vt 0.7606838 0.4832577
v -1.1114620 1.8148470 0.4592699
vn -1.0000000 0.0000000 0.0000000
vt 0.8430533 0.6182476
v -1.1114620 1.7566611 0.2465382
vn -1.0000000 0.0000000 0.0000000
vt 0.8508222 0.5905138
v -1.1114620 1.7566611 0.6720010
vn -1.0000000 0.0000000 0.0000000
vt 0.8504815 0.6460747
v -1.1114620 1.7566611 0.2465382
vn -1.0000000 0.0000000 0.0000000
vt 0.8508222 0.5905138
v -1.1114690 1.6009300 0.0908081
vn -1.0000000 0.0000000 0.0000000
vt 0.8712834 0.5703017
v -1.1114620 1.7566611 0.6720010
vn -1.0000000 0.0000000 0.0000000
vt 0.8504815 0.6460747
v -1.1114700 1.6009300 0.8277313
vn -1.0000000 0.0000000 0.0000000
vt 0.8706936 0.6665360
v -1.1114690 1.3881990 0.0326210
vn -1.0000000 0.0000000 0.0000000
vt 0.8991104 0.5628734
v -1.1114620 1.1754670 0.0908081
vn -1.0000000 0.0000000 0.0000000
vt 0.9268442 0.5706423
v -1.1114690 1.0197370 0.2465383
vn -1.0000000 0.0000000 0.0000000
vt 0.9470564 0.5911036
v -1.1114690 0.9615503 0.4592697
vn -1.0000000 0.0000000 0.0000000
vt 0.9544846 0.6189307
v -1.1114620 1.0197370 0.6720010
vn -1.0000000 0.0000000 0.0000000
vt 0.9467158 0.6466645
v -1.1114690 1.1754670 0.8277313
vn -1.0000000 0.0000000 0.0000000
vt 0.9262545 0.6668766
v -1.1114690 1.3881990 0.8859184
vn -1.0000000 0.0000000 0.0000000
vt 0.8984274 0.6743049
v -1.0003440 1.5519930 0.8532248
vn 0.0344648 0.3698218 0.9284633
vt 0.9004517 0.4178613
v -1.1114700 1.6009300 0.8277313
vn 0.0614230 0.5646639 0.8230321
vt 0.8824344 0.4031880
v -1.1114690 1.3881990 0.8859184
vn 0.0875680 -0.0339860 0.9955786
vt 0.9114144 0.4031881
v -1.0003440 1.7823631 0.6219252
vn 0.1471906 0.9297732 0.3374266
vt 0.8481008 0.4178615
v -1.1114620 1.7566611 0.6720010
vn 0.1521441 0.8444595 0.5135567
vt 0.8531212 0.4031880
v -1.1114700 1.6009300 0.8277313
vn 0.0614230 0.5646639 0.8230321
vt 0.8824344 0.4031880
v -1.0003440 1.5519930 0.8532248
vn 0.0344648 0.3698218 0.9284633
vt 0.9004517 0.4178613
v -1.0003440 1.7819300 0.2955681
vn 0.0359868 0.9284396 -0.3697362
vt 0.8217293 0.4178616
v -1.1114620 1.8148470 0.4592699
vn 0.0884339 0.9955142 0.0336300
vt 0.8407599 0.4031879
v -1.1114620 1.7566611 0.6720010
vn 0.1521441 0.8444595 0.5135567
vt 0.8531212 0.4031880
v -1.0003440 1.7823631 0.6219252
vn 0.1471906 0.9297732 0.3374266
vt 0.8481008 0.4178615
v -1.0003440 0.9944677 0.6229707
vn 0.0359892 -0.9284396 0.3697360
vt 0.9004512 0.4178614
v -1.1114620 1.0197370 0.6720010
vn 0.0628531 -0.8231423 0.5643458
vt 0.8824378 0.4031880
v -1.1114690 0.9615503 0.4592697
vn 0.0884340 -0.9955142 -0.0336292
vt 0.9114175 0.4031881
v -1.0003440 1.2255430 0.8534338
vn 0.1471844 -0.3377662 0.9296508
vt 0.8481044 0.4178616
v -1.1114690 1.1754670 0.8277313
vn 0.1525961 -0.5138308 0.8442110
vt 0.8531219 0.4031880
v -1.1114620 1.0197370 0.6720010
vn 0.0628531 -0.8231423 0.5643458
vt 0.8824378 0.4031880
v -1.0003440 0.9944677 0.6229707
vn 0.0359892 -0.9284396 0.3697360
vt 0.9004512 0.4178614
v -1.0003440 1.5519930 0.8532248
vn 0.0344648 0.3698218 0.9284633
vt 0.8217219 0.4178616
v -1.1114690 1.3881990 0.8859184
vn 0.0875680 -0.0339860 0.9955786
vt 0.8407619 0.4031879
v -1.1114690 1.1754670 0.8277313
vn 0.1525961 -0.5138308 0.8442110
vt 0.8531219 0.4031880
v -1.0003440 1.2255430 0.8534338
vn 0.1471844 -0.3377662 0.9296508
vt 0.8481044 0.4178616
v -1.0003440 1.2244051 0.0653146
vn 0.0344639 -0.3698206 -0.9284638
vt 0.9004517 0.4178613
v -1.1114620 1.1754670 0.0908081
vn 0.0614233 -0.5646642 -0.8230320
vt 0.8824344 0.4031880
v -1.1114690 1.3881990 0.0326210
vn 0.0875656 0.0339856 -0.9955789
vt 0.9114143 0.4031882
v -1.0003440 0.9940344 0.2966136
vn 0.1471901 -0.9297730 -0.3374275
vt 0.8481010 0.4178615
v -1.1114690 1.0197370 0.2465383
vn 0.1521434 -0.8444595 -0.5135568
vt 0.8531213 0.4031880
v -1.1114620 1.1754670 0.0908081
vn 0.0614233 -0.5646642 -0.8230320
vt 0.8824344 0.4031880
v -1.0003440 1.2244051 0.0653146
vn 0.0344639 -0.3698206 -0.9284638
vt 0.9004517 0.4178613
v -1.0003440 0.9944677 0.6229707
vn 0.0359892 -0.9284396 0.3697360
vt 0.8217298 0.4178616
v -1.1114690 0.9615503 0.4592697
vn 0.0884340 -0.9955142 -0.0336292
vt 0.8407602 0.4031880
v -1.1114690 1.0197370 0.2465383
vn 0.1521434 -0.8444595 -0.5135568
vt 0.8531213 0.4031880
v -1.0003440 0.9940344 0.2966136
vn 0.1471901 -0.9297730 -0.3374275
vt 0.8481010 0.4178615
v -1.0003440 1.7819300 0.2955681
vn 0.0359868 0.9284396 -0.3697362
vt 0.8911412 0.4178613
v -1.1114620 1.7566611 0.2465382
vn 0.0628494 0.8231428 -0.5643455
vt 0.8643090 0.4031880
v -1.1114620 1.8148470 0.4592699
vn 0.0884339 0.9955142 0.0336300
vt 0.8903101 0.4031882
v -1.0003440 1.5508550 0.0651051
vn 0.1471809 0.3377658 -0.9296516
vt 0.8453861 0.4178615
v -1.1114690 1.6009300 0.0908081
vn 0.1525924 0.5138301 -0.8442122
vt 0.8492379 0.4031880
v -1.1114620 1.7566611 0.2465382
vn 0.0628494 0.8231428 -0.5643455
vt 0.8643090 0.4031880
v -1.0003440 1.7819300 0.2955681
vn 0.0359868 0.9284396 -0.3697362
vt 0.8911412 0.4178613
v -1.0003440 1.2244051 0.0653146
vn 0.0344639 -0.3698206 -0.9284638
vt 0.8224199 0.4178616
v -1.1114690 1.3881990 0.0326210
vn 0.0875656 0.0339856 -0.9955789
vt 0.8406084 0.4031880
v -1.1114690 1.6009300 0.0908081
vn 0.1525924 0.5138301 -0.8442122
vt 0.8492379 0.4031880
v -1.0003440 1.5508550 0.0651051
vn 0.1471809 0.3377658 -0.9296516
vt 0.8453861 0.4178615

g group_66517736_140627855001008
f 1/1/1 2/2/2 3/3/3 
f 2/2/2 4/4/4 3/3/3 
f 4/4/4 5/5/5 3/3/3 
f 5/5/5 6/6/6 3/3/3 
f 6/6/6 7/7/7 3/3/3 
f 7/7/7 8/8/8 3/3/3 
f 9/9/9 10/10/10 11/11/11 
f 12/12/12 13/13/13 14/14/14 
f 14/14/14 13/13/13 15/15/15 
f 13/13/13 16/16/16 15/15/15 
f 16/16/16 17/17/17 15/15/15 
f 17/17/17 18/18/18 15/15/15 
f 18/18/18 19/19/19 15/15/15 
f 19/19/19 20/20/20 15/15/15 
f 20/20/20 21/21/21 15/15/15 
f 21/21/21 22/22/22 15/15/15 
f 23/23/23 24/24/24 25/25/25 
f 26/26/26 27/27/27 28/28/28 
f 26/26/26 28/28/28 29/29/29 
f 30/30/30 31/31/31 32/32/32 
f 30/30/30 32/32/32 33/33/33 
f 34/34/34 35/35/35 36/36/36 
f 37/37/37 38/38/38 39/39/39 
f 37/37/37 39/39/39 40/40/40 
f 41/41/41 42/42/42 43/43/43 
f 41/41/41 43/43/43 44/44/44 
f 45/45/45 46/46/46 47/47/47 
f 48/48/48 49/49/49 50/50/50 
f 48/48/48 50/50/50 51/51/51 
f 52/52/52 53/53/53 54/54/54 
f 52/52/52 54/54/54 55/55/55 
f 56/56/56 57/57/57 58/58/58 
f 59/59/59 60/60/60 61/61/61 
f 59/59/59 61/61/61 62/62/62 
f 63/63/63 64/64/64 65/65/65 
f 63/63/63 65/65/65 66/66/66 
