v -1.4981630 2.9053850 0.1544803
vn -1.0000000 -0.0000005 0.0000009
vt 0.4993175 -2.5086060
v -1.4981630 2.6892371 0.0173078
vn -1.0000000 0.0000004 -0.0000013
vt 0.4993185 -2.7247181
v -1.4981630 2.6708159 0.1034870
vn -1.0000000 0.0000004 -0.0000010
vt 0.4176375 -2.7186000
v -1.4981620 2.8424399 0.2122699
vn -1.0000000 -0.0000005 0.0000011
vt 0.4176384 -2.5086060
v -1.4981630 3.0357800 0.8158945
vn -1.0000000 0.0000001 0.0000001
vt 0.4993143 -1.9074481
v -1.4981630 2.9926600 0.3829061
vn -1.0000000 0.0000008 -0.0000006
vt 0.4993157 -2.2966959
v -1.4981630 2.9103761 0.4145657
vn -1.0000000 0.0000011 -0.0000007
vt 0.4176393 -2.2882650
v -1.4981630 2.9471221 0.8166395
vn -1.0000000 0.0000000 0.0000001
vt 0.4176395 -1.9074481
v -1.4981630 2.8600910 1.1225070
vn -1.0000000 0.0000000 0.0000000
vt 0.4993125 -1.6100900
v -1.4981630 2.9978149 0.9665941
vn -1.0000000 0.0000000 0.0000000
vt 0.4993129 -1.7818861
v -1.4981630 2.9163260 0.9345556
vn -1.0000000 0.0000000 0.0000000
vt 0.4176395 -1.7790270
v -1.4981630 2.8132119 1.0536380
vn -1.0000000 0.0000000 0.0000000
vt 0.4176395 -1.6124620
v -1.4981630 2.6708159 0.1034870
vn 0.0000000 -0.3156440 0.9488777
vt 0.4176375 -2.7186000
v -1.0439200 2.6708159 0.1034870
vn 0.0000000 -0.3156441 0.9488777
vt 0.0083128 -2.7186000
v -1.0439200 2.8424399 0.2122699
vn 0.0000000 -0.7869619 0.6170016
vt 0.0083135 -2.5086060
v -1.4981620 2.8424399 0.2122699
vn 0.0000000 -0.7869619 0.6170016
vt 0.4176384 -2.5086060
v -1.0439200 2.4847431 0.0000001
vn 0.0000000 0.0422053 -0.9991090
vt 0.9086434 -2.8992989
v -1.4981630 2.4847431 0.0000001
vn 0.0000000 0.0422053 -0.9991090
vt 0.4993187 -2.8992989
v -1.4981630 2.6892371 0.0173078
vn 0.0000000 0.3192724 -0.9476630
vt 0.4993185 -2.7247181
v -1.0439200 2.6892371 0.0173078
vn 0.0000000 0.3192724 -0.9476630
vt 0.9086429 -2.7247181
v -1.0439200 2.9053850 0.1544803
vn 0.0000000 0.7743362 -0.6327744
vt 0.9086413 -2.5086060
v -1.4981630 2.9053850 0.1544803
vn 0.0000000 0.7743362 -0.6327745
vt 0.4993175 -2.5086060
v -1.0439200 3.0357800 0.8158945
vn 0.0000000 0.9972805 0.0736994
vt 0.9086350 -1.9074481
v -1.0439200 2.9926600 0.3829061
vn 0.0000000 0.9731839 -0.2300285
vt 0.9086376 -2.2966959
v -1.4981630 2.9926600 0.3829061
vn 0.0000000 0.9731839 -0.2300285
vt 0.4993157 -2.2966959
v -1.4981630 3.0357800 0.8158945
vn 0.0000000 0.9972805 0.0736994
vt 0.4993143 -1.9074481
v -1.0439200 2.8600910 1.1225070
vn 0.0000000 0.5329499 0.8461468
vt 0.9086322 -1.6094620
v -1.0439200 2.9978149 0.9665941
vn 0.0000000 0.8845993 0.4663519
vt 0.9086328 -1.7806680
v -1.4981630 2.9978149 0.9665941
vn 0.0000000 0.8845993 0.4663519
vt 0.4993129 -1.7818861
v -1.4981630 2.8600910 1.1225070
vn 0.0000000 0.5329499 0.8461468
vt 0.4993125 -1.6100900
v -1.4981630 2.4847431 0.0890679
vn -1.0000000 0.0000001 -0.0000013
vt 0.4176374 -2.8992989
v -1.4981630 2.4847431 0.0000001
vn -1.0000000 0.0000001 -0.0000013
vt 0.4993187 -2.8992989
v -1.4981630 -3.2915120 -0.0000001
vn -1.0000000 -0.0000000 -0.0000000
vt 0.4993262 -8.1211958
v -1.4981630 -3.2915120 0.0890676
vn -1.0000000 -0.0000000 0.0000000
vt 0.4176345 -8.1211958
v -1.0439200 2.4847431 0.0890679
vn 0.0000000 -0.0386589 0.9992525
vt 0.0083125 -2.8992989
v -1.4981630 2.4847431 0.0890679
vn 0.0000000 -0.0386589 0.9992525
vt 0.4176374 -2.8992989
v -1.4981630 -3.2915120 0.0890676
vn 0.0000000 -0.0000000 1.0000000
vt 0.4176345 -8.1211958
v -1.0439200 -3.2915120 0.0890676
vn 0.0000000 -0.0000000 1.0000000
vt 0.0083047 -8.1211958
v -1.0439200 -0.8927228 0.8558061
vn 0.0000000 0.4195710 -0.9077225
vt 0.0083144 2.1616609
v -1.4981630 -0.8927228 0.8558061
vn 0.0000000 0.4195710 -0.9077225
vt 0.4176391 2.1616609
v -1.4981630 -0.6639978 1.0464760
vn 0.0000000 0.5056295 -0.8627508
vt 0.4176393 1.8686670
v -1.0439200 -0.6639978 1.0464760
vn 0.0000000 0.5056295 -0.8627508
vt 0.0083148 1.8686670
v -1.0439200 -3.2915120 -0.0000001
vn 0.0000000 0.0000000 -1.0000000
vt 0.9086563 -8.1211958
v -1.4981630 -3.2915120 -0.0000001
vn 0.0000000 0.0000000 -1.0000000
vt 0.4993262 -8.1211958
v -1.4981630 2.9103761 0.4145657
vn 0.0000000 -0.9785358 0.2060768
vt 0.4176393 -2.2882650
v -1.0439200 2.9103761 0.4145657
vn 0.0000000 -0.9785358 0.2060768
vt 0.0083156 -2.2882650
v -1.0439200 2.9471221 0.8166395
vn 0.0000000 -0.9966266 -0.0820706
vt 0.0083172 -1.9074481
v -1.4981630 2.9471221 0.8166395
vn 0.0000000 -0.9966266 -0.0820706
vt 0.4176395 -1.9074481
v -1.0439200 2.9163260 0.9345556
vn 0.0000000 -0.8848805 -0.4658180
vt 0.0083172 -1.7795310
v -1.4981630 2.9163260 0.9345556
vn 0.0000000 -0.8848805 -0.4658180
vt 0.4176395 -1.7790270
v -1.0439200 2.8132119 1.0536380
vn 0.0000000 -0.5321622 -0.8466424
vt 0.0083172 -1.6131380
v -1.4981630 2.8132119 1.0536380
vn 0.0000000 -0.5321622 -0.8466424
vt 0.4176395 -1.6124620
v -1.4981630 2.6157200 1.1072680
vn -1.0000000 0.0000000 0.0000000
vt 0.4176395 -1.3885789
v -1.4981630 2.6125770 1.1928509
vn -1.0000000 0.0000000 0.0000000
vt 0.4993130 -1.3917871
v -1.4981630 2.6125770 1.1928509
vn 0.0000000 0.1473271 0.9890878
vt 0.4993130 -1.3917871
v -1.0439200 2.6125770 1.1928509
vn 0.0000000 0.1473271 0.9890878
vt 0.9086329 -1.3908291
v -1.0439200 2.6157200 1.1072680
vn 0.0000000 -0.1406911 -0.9900535
vt 0.0083172 -1.3891470
v -1.4981630 2.6157200 1.1072680
vn 0.0000000 -0.1406911 -0.9900535
vt 0.4176395 -1.3885789
v -1.4981630 0.4991713 1.1435831
vn -1.0000000 0.0000000 0.0000000
vt 0.4176394 0.7685360
v -1.4981630 0.4991713 1.2326500
vn -1.0000000 0.0000000 0.0000000
vt 0.4993153 0.7685360
v -1.4981630 0.4991713 1.2326500
vn 0.0000000 -0.0733957 0.9973029
vt 0.4993153 0.7685360
v -1.0439200 0.4991713 1.2326500
vn 0.0000000 -0.0733957 0.9973029
vt 0.9086357 0.7685360
v -1.0439200 0.4991713 1.1435831
vn 0.0000000 0.0742305 -0.9972411
vt 0.0083159 0.7685360
v -1.4981630 0.4991713 1.1435831
vn 0.0000000 0.0742305 -0.9972411
vt 0.4176394 0.7685360
v -1.4981630 -0.0392255 1.0535150
vn -1.0000000 0.0000000 0.0000000
vt 0.4176393 1.2753119
v -1.4981630 -0.0392255 1.1425830
vn -1.0000000 0.0000000 0.0000000
vt 0.4993159 1.2708650
v -1.4981630 -0.0392255 1.1425830
vn 0.0000000 -0.0310915 0.9995165
vt 0.4993159 1.2708650
v -1.0439200 -0.0392255 1.1425830
vn 0.0000000 -0.0310915 0.9995165
vt 0.9086366 1.2708650
v -1.4981630 -0.0392255 1.0535150
vn 0.0000000 0.0294145 -0.9995673
vt 0.4176393 1.2753119
v -1.0439200 -0.0392255 1.0535150
vn 0.0000000 0.0294145 -0.9995673
vt 0.0083154 1.2753119
v -1.4981630 -0.5127281 1.1043340
vn -1.0000000 0.0000000 0.0000000
vt 0.4176393 1.7083369
v -1.4981630 -0.5177137 1.1923130
vn -1.0000000 0.0000000 0.0000000
vt 0.4993165 1.7038910
v -1.4981630 -0.5177137 1.1923130
vn 0.0000000 -0.1189376 0.9929017
vt 0.4993165 1.7038910
v -1.0439200 -0.5177137 1.1923130
vn 0.0000000 -0.1189376 0.9929017
vt 0.9086373 1.7038910
v -1.0439200 -0.5127281 1.1043340
vn 0.0000000 0.1288412 -0.9916652
vt 0.0083150 1.7083369
v -1.4981630 -0.5127281 1.1043340
vn 0.0000000 0.1288412 -0.9916652
vt 0.4176393 1.7083369
v -1.4981630 -0.6639978 1.0464760
vn -1.0000000 0.0000000 0.0000000
vt 0.4176393 1.8686670
v -1.4981630 -0.6892223 1.1312580
vn -1.0000000 0.0000000 0.0000000
vt 0.4993166 1.8530999
v -1.4981630 -0.6892223 1.1312580
vn 0.0000000 -0.5018467 0.8649566
vt 0.4993166 1.8530999
v -1.0439200 -0.6892223 1.1312580
vn 0.0000000 -0.5018468 0.8649566
vt 0.9086375 1.8530999
v -1.4981630 -0.8927228 0.8558061
vn -1.0000000 0.0000000 0.0000000
vt 0.4176391 2.1616609
v -1.4981630 -0.9099301 0.9417585
vn -1.0000000 0.0000000 0.0000000
vt 0.4993170 2.1514220
v -1.4981630 -0.9099301 0.9417585
vn 0.0000000 -0.4315727 0.9020782
vt 0.4993170 2.1514220
v -1.0439200 -0.9099301 0.9417585
vn 0.0000000 -0.4315727 0.9020782
vt 0.9086381 2.1514220
v -1.4981630 -1.1923780 0.8040478
vn -1.0000000 0.0000000 0.0000000
vt 0.4176391 2.4469190
v -1.4981630 -1.2278160 0.8829254
vn -1.0000000 0.0000000 0.0000000
vt 0.4993173 2.4469190
v -1.4981630 -1.2278160 0.8829254
vn 0.0000000 -0.4381010 0.8989258
vt 0.4993173 2.4469190
v -1.0439200 -1.2278160 0.8829254
vn 0.0000000 -0.4381010 0.8989258
vt 0.9086384 2.4469190
v -1.4981630 -1.3481630 0.6615230
vn -1.0000000 0.0000000 0.0000000
vt 0.4176391 2.6636860
v -1.4981630 -1.4191430 0.7137719
vn -1.0000000 0.0000000 0.0000000
vt 0.4993174 2.6636860
v -1.4981630 -1.4191430 0.7137719
vn 0.0000000 -0.6623599 0.7491858
vt 0.4993174 2.6636860
v -1.0439200 -1.4191430 0.7137719
vn 0.0000000 -0.6623600 0.7491857
vt 0.9086386 2.6636860
v -1.0439200 -1.1923780 0.8040478
vn 0.0000000 0.4403666 -0.8978181
vt 0.0083141 2.4469190
v -1.4981630 -1.1923780 0.8040478
vn 0.0000000 0.4403666 -0.8978181
vt 0.4176391 2.4469190
v -1.4981630 -1.3481630 0.6615230
vn 0.0000000 0.6750076 -0.7378108
vt 0.4176391 2.6636860
v -1.0439200 -1.3481630 0.6615230
vn 0.0000000 0.6750076 -0.7378108
vt 0.0083141 2.6636860
v -1.4981630 -3.2915120 0.0890676
vn 0.0000000 -1.0000000 0.0000000
vt 0.5008967 0.8541307
v -1.4981630 -3.2915120 -0.0000001
vn 0.0000000 -1.0000000 0.0000000
vt 0.5008967 0.9052134
v -1.0439200 -3.2915120 -0.0000001
vn 0.0000000 -1.0000000 0.0000000
vt 0.9086357 0.9052134
v -1.0439200 -3.2915120 0.0890676
vn 0.0000000 -1.0000000 0.0000000
vt 0.9086357 0.8541307
v -1.4981630 -1.4191430 0.7137719
vn 0.0000000 -0.5928172 -0.8053371
vt 0.5008967 0.9052131
v -1.4981630 -1.3481630 0.6615230
vn 0.0000000 -0.5928172 -0.8053371
vt 0.5008967 0.8541305
v -1.0439200 -1.3481630 0.6615230
vn 0.0000000 -0.5928172 -0.8053371
vt 0.9086357 0.8541305
v -1.0439200 -1.4191430 0.7137719
vn 0.0000000 -0.5928172 -0.8053371
vt 0.9086357 0.9052131
v -1.0439200 2.6708159 0.1034870
vn 1.0000000 -0.0000004 0.0000011
vt 0.4176375 -2.7186000
v -1.0439200 2.6892371 0.0173078
vn 1.0000000 -0.0000004 0.0000013
vt 0.4993185 -2.7247181
v -1.0439200 2.9053850 0.1544803
vn 1.0000000 -0.0000003 -0.0000000
vt 0.4993175 -2.5086060
v -1.0439200 2.8424399 0.2122699
vn 1.0000000 -0.0000002 -0.0000002
vt 0.4176384 -2.5086060
v -1.0439200 2.9103761 0.4145657
vn 1.0000000 0.0000000 0.0000000
vt 0.4176393 -2.2882650
v -1.0439200 2.9926600 0.3829061
vn 1.0000000 0.0000000 0.0000000
vt 0.4993157 -2.2966959
v -1.0439200 3.0357800 0.8158945
vn 1.0000000 0.0000000 0.0000000
vt 0.4993143 -1.9074481
v -1.0439200 2.9471221 0.8166395
vn 1.0000000 0.0000000 0.0000000
vt 0.4176395 -1.9074481
v -1.0439200 -3.2915120 -0.0000001
vn 1.0000000 0.0000000 0.0000000
vt 0.4993262 -8.1211958
v -1.0439200 2.4847431 0.0000001
vn 1.0000000 -0.0000001 0.0000013
vt 0.4993187 -2.8992989
v -1.0439200 2.4847431 0.0890679
vn 1.0000000 -0.0000001 0.0000013
vt 0.4176374 -2.8992989
v -1.0439200 -3.2915120 0.0890676
vn 1.0000000 0.0000000 0.0000000
vt 0.4176345 -8.1211958
v -1.0439200 2.9978149 0.9665941
vn 1.0000000 0.0000000 0.0000000
vt 0.4993129 -1.7852221
v -1.0439200 2.9163260 0.9345556
vn 1.0000000 0.0000000 0.0000000
vt 0.4176395 -1.7809060
v -1.2525070 2.8424430 0.2122665
vn 0.9489323 -0.2460174 0.1974915
vt 0.9308651 -2.5091109
v -1.2753201 2.7917981 0.2589162
vn 0.9497039 -0.2517836 0.1861922
vt 0.9939767 -2.4997380
v -1.2753201 2.6673510 0.1794794
vn 0.9531467 -0.1105794 0.2815734
vt 0.9939435 -2.7014251
v -1.2525070 2.6708181 0.1034772
vn 0.9554658 -0.0837337 0.2829731
vt 0.9308651 -2.7199891
v -1.2753201 2.8456450 0.4395052
vn 0.9480922 -0.3129082 0.0566533
vt 0.9939767 -2.2827029
v -1.2525070 2.9103761 0.4145657
vn 0.9475453 -0.3129619 0.0649056
vt 0.9308651 -2.2971370
v -1.2525070 2.9471221 0.8166395
vn 0.9433733 -0.3302069 0.0317847
vt 0.9308651 -1.9211650
v -1.2753201 2.8822470 0.8171847
vn 0.9429719 -0.3313203 0.0321086
vt 0.9939767 -1.9190311
v -1.2753201 -3.2915120 0.1528769
vn 0.9417617 -0.0000046 0.3362811
vt 0.9956711 -8.1211958
v -1.2525070 -3.2915120 0.0890676
vn 0.9416306 -0.0000000 0.3366479
vt 0.9308753 -8.1211958
v -1.2525070 2.4847431 0.0890679
vn 0.9561251 -0.0124113 0.2926955
vt 0.9308651 -2.8992989
v -1.2753201 2.4847431 0.1633874
vn 0.9558892 -0.0135298 0.2934159
vt 0.9939767 -2.8992989
v -1.2981330 2.8424430 0.2122665
vn -0.9489328 -0.2460162 0.1974906
vt 0.9308651 -2.5091109
v -1.2981330 2.6708181 0.1034772
vn -0.9554663 -0.0837333 0.2829717
vt 0.9308651 -2.7199891
v -1.2753201 2.6673510 0.1794794
vn -0.9531472 -0.1105788 0.2815721
vt 0.9939435 -2.7014251
v -1.2753201 2.7917981 0.2589162
vn -0.9497043 -0.2517825 0.1861914
vt 0.9939767 -2.4997380
v -1.2753201 2.8456450 0.4395052
vn -0.9480928 -0.3129067 0.0566530
vt 0.9939767 -2.2827029
v -1.2753201 2.8822470 0.8171847
vn -0.9429724 -0.3313187 0.0321084
vt 0.9939767 -1.9190311
v -1.2981330 2.9471221 0.8166395
vn -0.9433738 -0.3302054 0.0317846
vt 0.9308651 -1.9211659
v -1.2981330 2.9103761 0.4145657
vn -0.9475458 -0.3129605 0.0649053
vt 0.9308651 -2.2971351
v -1.2981330 2.4847431 0.0890679
vn -0.9561256 -0.0124113 0.2926942
vt 0.9308651 -2.8992989
v -1.2981330 -3.2915120 0.0890676
vn -0.9416312 -0.0000000 0.3366463
vt 0.9308753 -8.1211958
v -1.2753201 -3.2915120 0.1528769
vn -0.9417622 -0.0000046 0.3362796
vt 0.9956711 -8.1211958
v -1.2753201 2.4847431 0.1633874
vn -0.9558896 -0.0135298 0.2934145
vt 0.9939767 -2.8992989
v -1.2981330 2.4860320 1.1217999
vn -0.9110506 -0.0109011 -0.4121506
vt 0.9308651 -1.2274730
v -1.2753201 2.4987180 1.0711260
vn -0.9107801 -0.0108805 -0.4127483
vt 0.9939767 -1.2240500
v -1.2753201 1.4891300 1.0977401
vn -0.9187808 -0.0115015 -0.3946006
vt 0.9939767 -0.2331271
v -1.2981330 1.4936060 1.1508360
vn -0.9190769 -0.0115250 -0.3939097
vt 0.9308651 -0.2308373
v -1.2981330 1.4159720 1.1468120
vn -0.9336541 0.0022129 -0.3581692
vt 0.9308651 -0.1179851
v -1.2753201 1.4206250 1.0874820
vn -0.9334370 0.0022584 -0.3587341
vt 0.9939767 -0.1178167
v -1.2753201 0.4991713 1.0816810
vn -0.9378018 0.0309092 -0.3457927
vt 0.9939767 0.7685360
v -1.2981330 0.4991713 1.1435820
vn -0.9379411 0.0279949 -0.3456629
vt 0.9308651 0.7685360
v -1.2753201 -0.0392255 0.9909866
vn -0.9393901 0.0093015 -0.3427239
vt 0.9939767 1.2710609
v -1.2981330 -0.0392255 1.0535150
vn -0.9392864 0.0109874 -0.3429583
vt 0.9308651 1.2708960
v -1.2753201 -0.5092026 1.0420990
vn -0.9394981 0.0492227 -0.3389993
vt 0.9939767 1.7091219
v -1.2981330 -0.5127304 1.1043540
vn -0.9388950 0.0413749 -0.3417079
vt 0.9308651 1.7067360
v -1.2753201 -0.6461294 0.9864177
vn -0.9351112 0.1902956 -0.2989225
vt 0.9939767 1.8808650
v -1.2981330 -0.6640306 1.0465860
vn -0.9360186 0.1740151 -0.3059215
vt 0.9308651 1.8513870
v -1.2753201 -0.8804195 0.7942587
vn -0.9246510 0.2414983 -0.2944472
vt 0.9939767 2.1574650
v -1.2981330 -0.8927228 0.8558061
vn -0.9252347 0.2408575 -0.2931355
vt 0.9308651 2.1472690

g group_63366216_105553124573184
f 1/1/1 2/2/2 3/3/3 
f 3/3/3 4/4/4 1/1/1 
f 5/5/5 6/6/6 7/7/7 
f 7/7/7 8/8/8 5/5/5 
f 9/9/9 10/10/10 11/11/11 
f 11/11/11 12/12/12 9/9/9 
f 13/13/13 14/14/14 15/15/15 
f 15/15/15 16/16/16 13/13/13 
f 17/17/17 18/18/18 19/19/19 
f 19/19/19 20/20/20 17/17/17 
f 21/21/21 20/20/20 19/19/19 
f 19/19/19 22/22/22 21/21/21 
f 23/23/23 24/24/24 25/25/25 
f 25/25/25 26/26/26 23/23/23 
f 27/27/27 28/28/28 29/29/29 
f 29/29/29 30/30/30 27/27/27 
f 31/31/31 32/32/32 33/33/33 
f 33/33/33 34/34/34 31/31/31 
f 35/35/35 36/36/36 37/37/37 
f 37/37/37 38/38/38 35/35/35 
f 39/39/39 40/40/40 41/41/41 
f 41/41/41 42/42/42 39/39/39 
f 17/17/17 43/43/43 44/44/44 
f 44/44/44 18/18/18 17/17/17 
f 3/3/3 2/2/2 32/32/32 
f 32/32/32 31/31/31 3/3/3 
f 14/14/14 13/13/13 36/36/36 
f 36/36/36 35/35/35 14/14/14 
f 22/22/22 25/25/25 24/24/24 
f 24/24/24 21/21/21 22/22/22 
f 6/6/6 1/1/1 4/4/4 
f 4/4/4 7/7/7 6/6/6 
f 45/45/45 16/16/16 15/15/15 
f 15/15/15 46/46/46 45/45/45 
f 45/45/45 46/46/46 47/47/47 
f 47/47/47 48/48/48 45/45/45 
f 8/8/8 11/11/11 10/10/10 
f 10/10/10 5/5/5 8/8/8 
f 26/26/26 29/29/29 28/28/28 
f 28/28/28 23/23/23 26/26/26 
f 47/47/47 49/49/49 50/50/50 
f 50/50/50 48/48/48 47/47/47 
f 50/50/50 49/49/49 51/51/51 
f 51/51/51 52/52/52 50/50/50 
f 53/53/53 54/54/54 9/9/9 
f 9/9/9 12/12/12 53/53/53 
f 30/30/30 55/55/55 56/56/56 
f 56/56/56 27/27/27 30/30/30 
f 51/51/51 57/57/57 58/58/58 
f 58/58/58 52/52/52 51/51/51 
f 53/53/53 59/59/59 60/60/60 
f 60/60/60 54/54/54 53/53/53 
f 56/56/56 55/55/55 61/61/61 
f 61/61/61 62/62/62 56/56/56 
f 57/57/57 63/63/63 64/64/64 
f 64/64/64 58/58/58 57/57/57 
f 59/59/59 65/65/65 66/66/66 
f 66/66/66 60/60/60 59/59/59 
f 61/61/61 67/67/67 68/68/68 
f 68/68/68 62/62/62 61/61/61 
f 69/69/69 64/64/64 63/63/63 
f 63/63/63 70/70/70 69/69/69 
f 66/66/66 65/65/65 71/71/71 
f 71/71/71 72/72/72 66/66/66 
f 68/68/68 67/67/67 73/73/73 
f 73/73/73 74/74/74 68/68/68 
f 75/75/75 76/76/76 69/69/69 
f 69/69/69 70/70/70 75/75/75 
f 71/71/71 77/77/77 78/78/78 
f 78/78/78 72/72/72 71/71/71 
f 74/74/74 73/73/73 79/79/79 
f 79/79/79 80/80/80 74/74/74 
f 42/42/42 41/41/41 76/76/76 
f 76/76/76 75/75/75 42/42/42 
f 77/77/77 81/81/81 82/82/82 
f 82/82/82 78/78/78 77/77/77 
f 80/80/80 79/79/79 83/83/83 
f 83/83/83 84/84/84 80/80/80 
f 82/82/82 81/81/81 85/85/85 
f 85/85/85 86/86/86 82/82/82 
f 84/84/84 83/83/83 87/87/87 
f 87/87/87 88/88/88 84/84/84 
f 85/85/85 89/89/89 90/90/90 
f 90/90/90 86/86/86 85/85/85 
f 88/88/88 87/87/87 91/91/91 
f 91/91/91 92/92/92 88/88/88 
f 93/93/93 94/94/94 40/40/40 
f 40/40/40 39/39/39 93/93/93 
f 95/95/95 94/94/94 93/93/93 
f 93/93/93 96/96/96 95/95/95 
f 97/97/97 98/98/98 99/99/99 
f 99/99/99 100/100/100 97/97/97 
f 101/101/101 102/102/102 103/103/103 
f 103/103/103 104/104/104 101/101/101 
f 105/105/105 106/106/106 107/107/107 
f 107/107/107 108/108/108 105/105/105 
f 109/109/109 110/110/110 111/111/111 
f 111/111/111 112/112/112 109/109/109 
f 113/113/113 114/114/114 115/115/115 
f 115/115/115 116/116/116 113/113/113 
f 114/114/114 106/106/106 105/105/105 
f 105/105/105 115/115/115 114/114/114 
f 108/108/108 107/107/107 110/110/110 
f 110/110/110 109/109/109 108/108/108 
f 117/117/117 118/118/118 112/112/112 
f 112/112/112 111/111/111 117/117/117 
f 119/119/119 120/120/120 121/121/121 
f 121/121/121 122/122/122 119/119/119 
f 123/123/123 124/124/124 125/125/125 
f 125/125/125 126/126/126 123/123/123 
f 127/127/127 128/128/128 129/129/129 
f 129/129/129 130/130/130 127/127/127 
f 121/121/121 130/130/130 129/129/129 
f 129/129/129 122/122/122 121/121/121 
f 120/120/120 119/119/119 124/124/124 
f 124/124/124 123/123/123 120/120/120 
f 131/131/131 132/132/132 133/133/133 
f 133/133/133 134/134/134 131/131/131 
f 135/135/135 136/136/136 137/137/137 
f 137/137/137 138/138/138 135/135/135 
f 139/139/139 140/140/140 141/141/141 
f 141/141/141 142/142/142 139/139/139 
f 139/139/139 142/142/142 133/133/133 
f 133/133/133 132/132/132 139/139/139 
f 138/138/138 131/131/131 134/134/134 
f 134/134/134 135/135/135 138/138/138 
f 143/143/143 144/144/144 145/145/145 
f 145/145/145 146/146/146 143/143/143 
f 147/147/147 148/148/148 149/149/149 
f 149/149/149 150/150/150 147/147/147 
f 149/149/149 151/151/151 152/152/152 
f 152/152/152 150/150/150 149/149/149 
f 152/152/152 151/151/151 153/153/153 
f 153/153/153 154/154/154 152/152/152 
f 153/153/153 155/155/155 156/156/156 
f 156/156/156 154/154/154 153/153/153 
f 155/155/155 157/157/157 158/158/158 
f 158/158/158 156/156/156 155/155/155 
