v -1.1899860 2.6403069 0.5066212
vn 1.0000000 0.0000000 0.0000000
vt 0.6419689 0.3487675
v -1.1899860 2.7943881 0.5479071
vn 1.0000000 0.0000000 0.0000000
vt 0.6573771 0.3528963
v -1.1899860 2.9071829 0.6607022
vn 1.0000000 0.0000000 0.0000000
vt 0.6686565 0.3641756
v -1.1899860 2.9484689 0.8147832
vn 1.0000000 0.0000000 0.0000000
vt 0.6727852 0.3795839
v -1.1899860 2.9071829 0.9688643
vn 1.0000000 0.0000000 0.0000000
vt 0.6686565 0.3949920
v -1.1899860 2.7943881 1.0816590
vn 1.0000000 0.0000000 0.0000000
vt 0.6573771 0.4062715
v -1.1899860 2.6403069 1.1229450
vn 1.0000000 0.0000000 0.0000000
vt 0.6419689 0.4104000
v -1.1899860 2.4862261 1.0816590
vn 1.0000000 0.0000000 0.0000000
vt 0.6265607 0.4062715
v -1.1899860 2.3734310 0.9688644
vn 1.0000000 0.0000000 0.0000000
vt 0.6152812 0.3949920
v -1.1899860 2.3321450 0.8147834
vn 1.0000000 0.0000000 0.0000000
vt 0.6111526 0.3795839
v -1.1899860 2.3734310 0.6607024
vn 1.0000000 0.0000000 0.0000000
vt 0.6152812 0.3641756
v -1.1899860 2.4862261 0.5479071
vn 1.0000000 0.0000000 0.0000000
vt 0.6265607 0.3528963
v -1.3576320 2.3734310 0.6607024
vn -1.0000000 0.0000000 0.0000000
vt 0.6152812 0.3641756
v -1.3576320 2.3321450 0.8147834
vn -1.0000000 0.0000000 0.0000000
vt 0.6111526 0.3795839
v -1.3576320 2.3734310 0.9688644
vn -1.0000000 0.0000000 0.0000000
vt 0.6152812 0.3949920
v -1.3576320 2.4862261 1.0816590
vn -1.0000000 0.0000000 0.0000000
vt 0.6265607 0.4062715
v -1.3576320 2.6403069 1.1229450
vn -1.0000000 0.0000000 0.0000000
vt 0.6419689 0.4104000
v -1.3576320 2.7943881 1.0816590
vn -1.0000000 0.0000000 0.0000000
vt 0.6573771 0.4062715
v -1.3576320 2.9071829 0.9688643
vn -1.0000000 0.0000000 0.0000000
vt 0.6686565 0.3949920
v -1.3576320 2.9484689 0.8147832
vn -1.0000000 0.0000000 0.0000000
vt 0.6727852 0.3795839
v -1.3576320 2.9071829 0.6607022
vn -1.0000000 0.0000000 0.0000000
vt 0.6686565 0.3641756
v -1.3576320 2.7943881 0.5479071
vn -1.0000000 0.0000000 0.0000000
vt 0.6573771 0.3528963
v -1.3576320 2.6403069 0.5066212
vn -1.0000000 0.0000000 0.0000000
vt 0.6419689 0.3487675
v -1.3576320 2.4862261 0.5479071
vn -1.0000000 0.0000000 0.0000000
vt 0.6265607 0.3528963
v -1.1899860 2.3321450 0.8147834
vn 0.0000000 -1.0000000 -0.0000000
vt 0.9720778 0.2060892
v -1.1899860 2.3734310 0.9688644
vn 0.0000000 -0.8660259 0.4999993
vt 0.9720778 0.2220413
v -1.3576320 2.3321450 0.8147834
vn 0.0000000 -1.0000000 -0.0000000
vt 0.9879581 0.2060892
v -1.3576320 2.3734310 0.9688644
vn 0.0000000 -0.8660259 0.4999992
vt 0.9879581 0.2220412
v -1.1899860 2.3734310 0.6607024
vn 0.0000000 -0.8660262 -0.4999986
vt 0.9720778 0.2220413
v -1.3576320 2.3734310 0.6607024
vn 0.0000000 -0.8660262 -0.4999986
vt 0.9879581 0.2220412
v -1.1899860 2.4862261 0.5479071
vn 0.0000000 -0.5000004 -0.8660252
vt 0.9720777 0.2060892
v -1.3576320 2.4862261 0.5479071
vn 0.0000000 -0.5000005 -0.8660251
vt 0.9879581 0.2060892
v -1.1899860 2.6403069 0.5066212
vn 0.0000000 -0.0000000 -1.0000000
vt 0.9720775 0.2220412
v -1.3576320 2.6403069 0.5066212
vn 0.0000000 0.0000000 -1.0000000
vt 0.9879581 0.2220412
v -1.1899860 2.7943881 0.5479071
vn 0.0000000 0.5000001 -0.8660254
vt 0.9720777 0.2060892
v -1.3576320 2.7943881 0.5479071
vn 0.0000000 0.5000001 -0.8660254
vt 0.9879581 0.2060892
v -1.1899860 2.9071829 0.6607022
vn 0.0000000 0.8660253 -0.5000002
vt 0.9720775 0.2220412
v -1.3576320 2.9071829 0.6607022
vn 0.0000000 0.8660253 -0.5000002
vt 0.9879581 0.2220412
v -1.1899860 2.9484689 0.8147832
vn 0.0000000 1.0000000 -0.0000001
vt 0.9720778 0.2060892
v -1.3576320 2.9484689 0.8147832
vn 0.0000000 1.0000000 -0.0000000
vt 0.9879581 0.2060892
v -1.1899860 2.9071829 0.9688643
vn 0.0000000 0.8660253 0.5000002
vt 0.9720779 0.2220413
v -1.3576320 2.9071829 0.9688643
vn 0.0000000 0.8660253 0.5000002
vt 0.9879583 0.2220412
v -1.1899860 2.7943881 1.0816590
vn 0.0000000 0.5000001 0.8660254
vt 0.9720781 0.2060891
v -1.3576320 2.7943881 1.0816590
vn 0.0000000 0.5000001 0.8660254
vt 0.9879584 0.2060892
v -1.1899860 2.6403069 1.1229450
vn 0.0000000 0.0000000 1.0000000
vt 0.9720783 0.1901372
v -1.3576320 2.6403069 1.1229450
vn 0.0000000 -0.0000000 1.0000000
vt 0.9879586 0.1901379
v -1.1899860 2.4862261 1.0816590
vn 0.0000000 -0.4999996 0.8660256
vt 0.9720778 0.2060892
v -1.3576320 2.4862261 1.0816590
vn 0.0000000 -0.4999996 0.8660256
vt 0.9879581 0.2060892
v -1.1899860 2.3321450 0.8147834
vn 0.0000000 -1.0000000 -0.0000000
vt 0.9720778 0.2060892
v -1.1899860 2.3734310 0.9688644
vn 0.0000000 -0.8660259 0.4999993
vt 0.9720778 0.2220413
v -1.3576320 2.3321450 0.8147834
vn 0.0000000 -1.0000000 -0.0000000
vt 0.9879581 0.2060892
v -1.3576320 2.3734310 0.9688644
vn 0.0000000 -0.8660259 0.4999992
vt 0.9879581 0.2220412
v -1.1899860 2.3734310 0.6607024
vn 0.0000000 -0.8660262 -0.4999986
vt 0.9720778 0.2220413
v -1.3576320 2.3734310 0.6607024
vn 0.0000000 -0.8660262 -0.4999986
vt 0.9879581 0.2220412
v -1.1899860 2.4862261 0.5479071
vn 0.0000000 -0.5000004 -0.8660252
vt 0.9720777 0.2060892
v -1.3576320 2.4862261 0.5479071
vn 0.0000000 -0.5000005 -0.8660251
vt 0.9879581 0.2060892
v -1.1899860 2.6403069 0.5066212
vn 0.0000000 -0.0000000 -1.0000000
vt 0.9720775 0.2220412
v -1.3576320 2.6403069 0.5066212
vn 0.0000000 0.0000000 -1.0000000
vt 0.9879581 0.2220412
v -1.1899860 2.7943881 0.5479071
vn 0.0000000 0.5000001 -0.8660254
vt 0.9720777 0.2060892
v -1.3576320 2.7943881 0.5479071
vn 0.0000000 0.5000001 -0.8660254
vt 0.9879581 0.2060892
v -1.1899860 2.9071829 0.6607022
vn 0.0000000 0.8660253 -0.5000002
vt 0.9720775 0.2220412
v -1.3576320 2.9071829 0.6607022
vn 0.0000000 0.8660253 -0.5000002
vt 0.9879581 0.2220412
v -1.1899860 2.9484689 0.8147832
vn 0.0000000 1.0000000 -0.0000001
vt 0.9720778 0.2060892
v -1.3576320 2.9484689 0.8147832
vn 0.0000000 1.0000000 -0.0000000
vt 0.9879581 0.2060892
v -1.1899860 2.9071829 0.9688643
vn 0.0000000 0.8660253 0.5000002
vt 0.9720779 0.2220413
v -1.3576320 2.9071829 0.9688643
vn 0.0000000 0.8660253 0.5000002
vt 0.9879583 0.2220412
v -1.1899860 2.6403069 1.1229450
vn 0.0000000 0.0000000 1.0000000
vt 0.9720783 0.1901372
v -1.3576320 2.6403069 1.1229450
vn 0.0000000 -0.0000000 1.0000000
vt 0.9879586 0.1901379

g group_63362016_105553122434048
f 1/1/1 2/2/2 3/3/3 
f 3/3/3 4/4/4 5/5/5 
f 1/1/1 3/3/3 5/5/5 
f 5/5/5 6/6/6 7/7/7 
f 7/7/7 8/8/8 9/9/9 
f 5/5/5 7/7/7 9/9/9 
f 1/1/1 5/5/5 9/9/9 
f 9/9/9 10/10/10 11/11/11 
f 1/1/1 9/9/9 11/11/11 
f 12/12/12 1/1/1 11/11/11 
f 13/13/13 14/14/14 15/15/15 
f 15/15/15 16/16/16 17/17/17 
f 13/13/13 15/15/15 17/17/17 
f 17/17/17 18/18/18 19/19/19 
f 19/19/19 20/20/20 21/21/21 
f 17/17/17 19/19/19 21/21/21 
f 13/13/13 17/17/17 21/21/21 
f 21/21/21 22/22/22 23/23/23 
f 13/13/13 21/21/21 23/23/23 
f 24/24/24 13/13/13 23/23/23 
f 25/25/25 26/26/26 27/27/27 
f 26/26/26 28/28/28 27/27/27 
f 29/29/29 49/49/49 30/30/30 
f 49/49/49 51/51/51 30/30/30 
f 31/31/31 53/53/53 32/32/32 
f 53/53/53 54/54/54 32/32/32 
f 33/33/33 55/55/55 34/34/34 
f 55/55/55 56/56/56 34/34/34 
f 35/35/35 57/57/57 36/36/36 
f 57/57/57 58/58/58 36/36/36 
f 37/37/37 59/59/59 38/38/38 
f 59/59/59 60/60/60 38/38/38 
f 39/39/39 61/61/61 40/40/40 
f 61/61/61 62/62/62 40/40/40 
f 41/41/41 63/63/63 42/42/42 
f 63/63/63 64/64/64 42/42/42 
f 43/43/43 65/65/65 44/44/44 
f 65/65/65 66/66/66 44/44/44 
f 45/45/45 43/43/43 46/46/46 
f 43/43/43 44/44/44 46/46/46 
f 47/47/47 67/67/67 48/48/48 
f 67/67/67 68/68/68 48/48/48 
f 50/50/50 47/47/47 52/52/52 
f 47/47/47 48/48/48 52/52/52 
