v 1.1123630 1.3387140 0.9224832
vn 0.0000000 -0.7071069 -0.7071066
vt 0.8548815 0.2709281
v 1.4352551 1.3387140 0.9224832
vn 0.0000000 -0.7071070 -0.7071066
vt 0.8548815 0.3032172
v 1.1123630 1.2988650 1.0186870
vn 0.0000000 -1.0000000 -0.0000000
vt 0.8444685 0.2709281
v 1.4352551 1.2988650 1.0186870
vn 0.0000000 -1.0000000 0.0000000
vt 0.8444685 0.3032172
v 1.1123630 1.3387140 1.1148911
vn 0.0000000 -0.7071074 0.7071062
vt 0.8340554 0.2709281
v 1.4352551 1.3387140 1.1148911
vn 0.0000000 -0.7071074 0.7071062
vt 0.8340554 0.3032172
v 1.1123630 1.4349180 1.1547400
vn 0.0000000 -0.0000009 1.0000000
vt 0.8444685 0.2709281
v 1.4352551 1.4349180 1.1547400
vn 0.0000000 -0.0000009 1.0000000
vt 0.8444685 0.3032172
v 1.1123630 1.5311220 1.1148911
vn 0.0000000 0.7071062 0.7071074
vt 0.8340554 0.2709281
v 1.4352551 1.5311220 1.1148911
vn 0.0000000 0.7071062 0.7071074
vt 0.8340554 0.3032172
v 1.1123630 1.5709710 1.0186870
vn 0.0000000 1.0000000 0.0000002
vt 0.8444685 0.2709281
v 1.4352551 1.5709710 1.0186870
vn 0.0000000 1.0000000 0.0000002
vt 0.8444685 0.3032172
v 1.1123630 1.5311220 0.9224832
vn 0.0000000 0.7071065 -0.7071072
vt 0.8548815 0.2709281
v 1.4352551 1.5311220 0.9224832
vn 0.0000000 0.7071064 -0.7071072
vt 0.8548815 0.3032172
v 1.1123630 1.4349180 0.8826343
vn 0.0000000 -0.0000004 -1.0000000
vt 0.8652945 0.2709281
v 1.4352551 1.4349180 0.8826343
vn 0.0000000 -0.0000004 -1.0000000
vt 0.8652945 0.3032172
v 1.4352551 1.4349180 0.8826343
vn 1.0000000 0.0000000 0.0000000
vt 0.8388292 0.3047068
v 1.4352551 1.5311220 0.9224832
vn 1.0000000 0.0000000 0.0000000
vt 0.8484495 0.3086918
v 1.4352551 1.5709710 1.0186870
vn 1.0000000 0.0000000 0.0000000
vt 0.8524343 0.3183121
v 1.4352551 1.5311220 1.1148911
vn 1.0000000 0.0000000 0.0000000
vt 0.8484495 0.3279325
v 1.4352551 1.4349180 1.1547400
vn 1.0000000 0.0000000 0.0000000
vt 0.8388292 0.3319173
v 1.4352551 1.3387140 1.1148911
vn 1.0000000 0.0000000 0.0000000
vt 0.8292087 0.3279325
v 1.4352551 1.2988650 1.0186870
vn 1.0000000 0.0000000 0.0000000
vt 0.8252239 0.3183121
v 1.4352551 1.3387140 0.9224832
vn 1.0000000 0.0000000 0.0000000
vt 0.8292087 0.3086918
v 1.1123630 1.3387140 1.1148911
vn 0.0000000 -0.7071074 0.7071062
vt 0.8340554 0.2709281
v 1.4352551 1.3387140 1.1148911
vn 0.0000000 -0.7071074 0.7071062
vt 0.8340554 0.3032172
v 1.1123630 1.4349180 1.1547400
vn 0.0000000 -0.0000009 1.0000000
vt 0.8444685 0.2709281
v 1.4352551 1.4349180 1.1547400
vn 0.0000000 -0.0000009 1.0000000
vt 0.8444685 0.3032172
v 1.1123630 1.5311220 1.1148911
vn 0.0000000 0.7071062 0.7071074
vt 0.8340554 0.2709281
v 1.4352551 1.5311220 1.1148911
vn 0.0000000 0.7071062 0.7071074
vt 0.8340554 0.3032172
v 1.1123630 1.4349180 0.8826343
vn 0.0000000 -0.0000004 -1.0000000
vt 0.8652945 0.2709281
v 1.4352551 1.4349180 0.8826343
vn 0.0000000 -0.0000004 -1.0000000
vt 0.8652945 0.3032172

g group_63366552_105553124581888
f 1/1/1 2/2/2 3/3/3 
f 3/3/3 2/2/2 4/4/4 
f 3/3/3 4/4/4 5/5/5 
f 5/5/5 4/4/4 6/6/6 
f 25/25/25 26/26/26 7/7/7 
f 7/7/7 26/26/26 8/8/8 
f 27/27/27 28/28/28 9/9/9 
f 9/9/9 28/28/28 10/10/10 
f 29/29/29 30/30/30 11/11/11 
f 11/11/11 30/30/30 12/12/12 
f 11/11/11 12/12/12 13/13/13 
f 13/13/13 12/12/12 14/14/14 
f 13/13/13 14/14/14 15/15/15 
f 15/15/15 14/14/14 16/16/16 
f 31/31/31 32/32/32 1/1/1 
f 1/1/1 32/32/32 2/2/2 
f 17/17/17 18/18/18 19/19/19 
f 19/19/19 20/20/20 21/21/21 
f 21/21/21 22/22/22 23/23/23 
f 19/19/19 21/21/21 23/23/23 
f 17/17/17 19/19/19 23/23/23 
f 24/24/24 17/17/17 23/23/23 
