v -1.1123630 0.8085553 0.1184205
vn 0.0000000 -0.5000002 -0.8660253
vt 0.4156073 0.1601787
v -1.1123630 0.6647856 0.2621902
vn 0.0000000 -0.8660256 -0.4999996
vt 0.3952753 0.1601787
v -1.4352551 0.8085553 0.1184205
vn 0.0000000 -0.5000002 -0.8660253
vt 0.4156073 0.1924679
v -1.4352551 0.6647856 0.2621902
vn 0.0000000 -0.8660256 -0.4999997
vt 0.3952753 0.1924679
v -1.1123630 0.6121624 0.4585834
vn 0.0000000 -1.0000000 0.0000004
vt 0.3749431 0.1601787
v -1.4352551 0.6121624 0.4585834
vn 0.0000000 -1.0000000 0.0000004
vt 0.3749431 0.1924679
v -1.1123630 0.6647858 0.6549765
vn 0.0000000 -0.8660254 0.4999999
vt 0.3952753 0.1601787
v -1.4352551 0.6647858 0.6549765
vn 0.0000000 -0.8660254 0.4999999
vt 0.3952753 0.1924679
v -1.1123630 0.8085554 0.7987463
vn 0.0000000 -0.5000001 0.8660254
vt 0.3749431 0.1601787
v -1.4352551 0.8085554 0.7987463
vn 0.0000000 -0.5000002 0.8660253
vt 0.3749431 0.1924679
v -1.1123630 1.0049490 0.8513697
vn 0.0000000 0.0000006 1.0000000
vt 0.3952753 0.1601787
v -1.4352551 1.0049490 0.8513697
vn 0.0000000 0.0000006 1.0000000
vt 0.3952753 0.1924679
v -1.1123630 1.2013420 0.7987462
vn 0.0000000 0.5000008 0.8660250
vt 0.3749431 0.1601787
v -1.4352551 1.2013420 0.7987462
vn 0.0000000 0.5000008 0.8660250
vt 0.3749431 0.1924679
v -1.1123630 1.3451110 0.6549764
vn 0.0000000 0.8660257 0.4999994
vt 0.3952753 0.1601787
v -1.4352551 1.3451110 0.6549764
vn 0.0000000 0.8660257 0.4999994
vt 0.3952753 0.1924679
v -1.1123630 1.3977350 0.4585832
vn 0.0000000 1.0000000 -0.0000000
vt 0.3749431 0.1601787
v -1.4352551 1.3977350 0.4585832
vn 0.0000000 1.0000000 -0.0000000
vt 0.3749431 0.1924679
v -1.1123630 1.3451110 0.2621900
vn 0.0000000 0.8660254 -0.5000000
vt 0.3952753 0.1601787
v -1.4352551 1.3451110 0.2621900
vn 0.0000000 0.8660254 -0.5000001
vt 0.3952753 0.1924679
v -1.1123630 1.2013420 0.1184204
vn 0.0000000 0.4999997 -0.8660256
vt 0.4156073 0.1601787
v -1.4352551 1.2013420 0.1184204
vn 0.0000000 0.4999996 -0.8660256
vt 0.4156073 0.1924679
v -1.1123630 1.0049480 0.0657970
vn 0.0000000 -0.0000002 -1.0000000
vt 0.4359393 0.1601787
v -1.4352551 1.0049480 0.0657970
vn 0.0000000 -0.0000002 -1.0000000
vt 0.4359393 0.1924679
v -1.1123630 0.8085553 0.1184205
vn 1.0000000 0.0000000 0.0000000
vt 0.3172301 0.2268932
v -1.1123630 1.0049480 0.0657970
vn 1.0000000 0.0000000 0.0000000
vt 0.3135504 0.2406261
v -1.1123630 0.6647856 0.2621902
vn 1.0000000 0.0000000 0.0000000
vt 0.3272834 0.2168399
v -1.1123630 0.6121624 0.4585834
vn 1.0000000 0.0000000 0.0000000
vt 0.3410163 0.2131602
v -1.1123630 0.6647858 0.6549765
vn 1.0000000 0.0000000 0.0000000
vt 0.3547493 0.2168399
v -1.1123630 0.8085554 0.7987463
vn 1.0000000 0.0000000 0.0000000
vt 0.3648026 0.2268932
v -1.1123630 1.0049490 0.8513697
vn 1.0000000 0.0000000 0.0000000
vt 0.3684822 0.2406261
v -1.1123630 1.2013420 0.7987462
vn 1.0000000 0.0000000 0.0000000
vt 0.3648026 0.2543591
v -1.1123630 1.3451110 0.6549764
vn 1.0000000 0.0000000 0.0000000
vt 0.3547493 0.2644123
v -1.1123630 1.3977350 0.4585832
vn 1.0000000 0.0000000 0.0000000
vt 0.3410163 0.2680921
v -1.1123630 1.3451110 0.2621900
vn 1.0000000 0.0000000 0.0000000
vt 0.3272834 0.2644123
v -1.1123630 1.2013420 0.1184204
vn 1.0000000 0.0000000 0.0000000
vt 0.3172301 0.2543591
v -1.4352551 0.6647856 0.2621902
vn -1.0000000 0.0000000 0.0000000
vt 0.2205753 0.0756181
v -1.4352551 0.6121624 0.4585834
vn -1.0000000 0.0000000 0.0000000
vt 0.2153129 0.0952575
v -1.4352551 0.6647858 0.6549765
vn -1.0000000 0.0000000 0.0000000
vt 0.2205753 0.1148968
v -1.4352551 0.8085554 0.7987463
vn -1.0000000 0.0000000 0.0000000
vt 0.2349523 0.1292738
v -1.4352551 1.0049490 0.8513697
vn -1.0000000 0.0000000 0.0000000
vt 0.2545916 0.1345361
v -1.4352551 1.2013420 0.7987462
vn -1.0000000 0.0000000 0.0000000
vt 0.2742309 0.1292738
v -1.4352551 1.3451110 0.6549764
vn -1.0000000 0.0000000 0.0000000
vt 0.2886079 0.1148968
v -1.4352551 1.3977350 0.4585832
vn -1.0000000 0.0000000 0.0000000
vt 0.2938702 0.0952575
v -1.4352551 1.3451110 0.2621900
vn -1.0000000 0.0000000 0.0000000
vt 0.2886079 0.0756181
v -1.4352551 1.2013420 0.1184204
vn -1.0000000 0.0000000 0.0000000
vt 0.2742309 0.0612412
v -1.4352551 1.0049480 0.0657970
vn -1.0000000 0.0000000 0.0000000
vt 0.2545916 0.0559789
v -1.4352551 0.8085553 0.1184205
vn -1.0000000 0.0000000 0.0000000
vt 0.2349523 0.0612412
v -1.1123630 0.6121624 0.4585834
vn 0.0000000 -1.0000000 0.0000004
vt 0.3749431 0.1601787
v -1.4352551 0.6121624 0.4585834
vn 0.0000000 -1.0000000 0.0000004
vt 0.3749431 0.1924679
v -1.1123630 0.6647858 0.6549765
vn 0.0000000 -0.8660254 0.4999999
vt 0.3952753 0.1601787
v -1.4352551 0.6647858 0.6549765
vn 0.0000000 -0.8660254 0.4999999
vt 0.3952753 0.1924679
v -1.1123630 0.8085554 0.7987463
vn 0.0000000 -0.5000001 0.8660254
vt 0.3749431 0.1601787
v -1.4352551 0.8085554 0.7987463
vn 0.0000000 -0.5000002 0.8660253
vt 0.3749431 0.1924679
v -1.1123630 1.0049490 0.8513697
vn 0.0000000 0.0000006 1.0000000
vt 0.3952753 0.1601787
v -1.4352551 1.0049490 0.8513697
vn 0.0000000 0.0000006 1.0000000
vt 0.3952753 0.1924679
v -1.1123630 1.2013420 0.7987462
vn 0.0000000 0.5000008 0.8660250
vt 0.3749431 0.1601787
v -1.4352551 1.2013420 0.7987462
vn 0.0000000 0.5000008 0.8660250
vt 0.3749431 0.1924679
v -1.1123630 1.3451110 0.6549764
vn 0.0000000 0.8660257 0.4999994
vt 0.3952753 0.1601787
v -1.4352551 1.3451110 0.6549764
vn 0.0000000 0.8660257 0.4999994
vt 0.3952753 0.1924679
v -1.1123630 1.3977350 0.4585832
vn 0.0000000 1.0000000 -0.0000000
vt 0.3749431 0.1601787
v -1.4352551 1.3977350 0.4585832
vn 0.0000000 1.0000000 -0.0000000
vt 0.3749431 0.1924679
v -1.1123630 1.0049480 0.0657970
vn 0.0000000 -0.0000002 -1.0000000
vt 0.4359393 0.1601787
v -1.4352551 1.0049480 0.0657970
vn 0.0000000 -0.0000002 -1.0000000
vt 0.4359393 0.1924679

g group_63365712_105553124572928
f 1/1/1 2/2/2 3/3/3 
f 2/2/2 4/4/4 3/3/3 
f 2/2/2 5/5/5 4/4/4 
f 5/5/5 6/6/6 4/4/4 
f 49/49/49 7/7/7 50/50/50 
f 7/7/7 8/8/8 50/50/50 
f 51/51/51 9/9/9 52/52/52 
f 9/9/9 10/10/10 52/52/52 
f 53/53/53 11/11/11 54/54/54 
f 11/11/11 12/12/12 54/54/54 
f 55/55/55 13/13/13 56/56/56 
f 13/13/13 14/14/14 56/56/56 
f 57/57/57 15/15/15 58/58/58 
f 15/15/15 16/16/16 58/58/58 
f 59/59/59 17/17/17 60/60/60 
f 17/17/17 18/18/18 60/60/60 
f 61/61/61 19/19/19 62/62/62 
f 19/19/19 20/20/20 62/62/62 
f 19/19/19 21/21/21 20/20/20 
f 21/21/21 22/22/22 20/20/20 
f 21/21/21 23/23/23 22/22/22 
f 23/23/23 24/24/24 22/22/22 
f 63/63/63 1/1/1 64/64/64 
f 1/1/1 3/3/3 64/64/64 
f 25/25/25 26/26/26 27/27/27 
f 27/27/27 26/26/26 28/28/28 
f 28/28/28 26/26/26 29/29/29 
f 29/29/29 26/26/26 30/30/30 
f 30/30/30 26/26/26 31/31/31 
f 31/31/31 26/26/26 32/32/32 
f 32/32/32 26/26/26 33/33/33 
f 33/33/33 26/26/26 34/34/34 
f 34/34/34 26/26/26 35/35/35 
f 35/35/35 26/26/26 36/36/36 
f 37/37/37 38/38/38 39/39/39 
f 39/39/39 40/40/40 41/41/41 
f 37/37/37 39/39/39 41/41/41 
f 41/41/41 42/42/42 43/43/43 
f 43/43/43 44/44/44 45/45/45 
f 41/41/41 43/43/43 45/45/45 
f 37/37/37 41/41/41 45/45/45 
f 45/45/45 46/46/46 47/47/47 
f 37/37/37 45/45/45 47/47/47 
f 48/48/48 37/37/37 47/47/47 
