v -1.0439270 1.8627890 0.0000001
vn 1.0000000 0.0000000 0.0000000
vt 0.4993184 -3.1307087
v -1.0439270 1.8627890 0.0890678
vn 1.0000000 0.0000000 0.0000000
vt 0.4176376 -3.1306343
v -1.0439270 -1.8627890 -0.0000001
vn 1.0000000 0.0000000 0.0000000
vt 0.4993271 -6.5522251
v -1.0439270 -1.8627890 0.0890677
vn 1.0000000 0.0000000 0.0000000
vt 0.4176299 -6.5521498
v -1.0439270 -2.0687001 0.1318413
vn 1.0000000 0.0000000 0.0000000
vt 0.4176438 5.2187262
v -1.0439270 -2.0990350 0.0427735
vn 1.0000000 0.0000000 0.0000000
vt 0.4993206 5.2186518
v -1.0439270 -1.8627890 0.0890677
vn 1.0000000 0.0000000 0.0000000
vt 0.4176445 5.4481239
v -1.0439270 -1.8627890 -0.0000001
vn 1.0000000 0.0000000 0.0000000
vt 0.4993206 5.4481239
v -1.0439270 -2.8441861 0.4866279
vn 1.0000000 0.0000000 0.0000000
vt 0.4176407 4.4550352
v -1.0439270 -2.8973241 0.4089777
vn 1.0000000 0.0000000 0.0000000
vt 0.4993206 4.4549599
v -1.0439270 -2.9587779 0.6012931
vn 1.0000000 0.0000000 0.0000000
vt 0.4176395 4.2780838
v -1.0439270 -3.0361061 0.5476870
vn 1.0000000 0.0000000 0.0000000
vt 0.4993206 4.2780080
v -1.0439270 -2.9936011 0.7295898
vn 1.0000000 0.0000000 0.0000000
vt 0.4176395 4.1185608
v -1.0439270 -3.0868831 0.7172764
vn 1.0000000 0.0000000 0.0000000
vt 0.4993202 4.1184850
v -1.0439270 -2.9528821 0.8595109
vn 1.0000000 0.0000000 0.0000000
vt 0.4176395 3.9454100
v -1.0439270 -3.0364780 0.9026971
vn 1.0000000 0.0000000 0.0000000
vt 0.4993184 3.9453349
v -1.0439270 -2.8671191 0.9485173
vn 1.0000000 0.0000000 0.0000000
vt 0.4176395 3.7798550
v -1.0439270 -2.9074781 1.0335140
vn 1.0000000 0.0000000 0.0000000
vt 0.4993184 3.7797790
v -1.0439270 2.0743840 0.0536120
vn 1.0000000 0.0000000 0.0000000
vt 0.4993174 -2.9390390
v -1.0439270 2.0330570 0.1325115
vn 1.0000000 0.0000000 0.0000000
vt 0.4176385 -2.9389639
v -1.0439270 2.8396840 0.4717714
vn 1.0000000 0.0000000 0.0000000
vt 0.4993153 -2.1531849
v -1.0439270 2.7930739 0.5476698
vn 1.0000000 0.0000000 0.0000000
vt 0.4176391 -2.1531091
v -1.0439270 2.9796331 0.6111310
vn 1.0000000 0.0000000 0.0000000
vt 0.4993153 -1.9752121
v -1.0439270 2.9053640 0.6602958
vn 1.0000000 0.0000000 0.0000000
vt 0.4176395 -1.9751370
v -1.0439270 3.0362771 0.8139222
vn 1.0000000 0.0000000 0.0000000
vt 0.4993143 -1.7854800
v -1.0439270 2.9472380 0.8161914
vn 1.0000000 0.0000000 0.0000000
vt 0.4176395 -1.7854061
v -1.0439270 2.9877160 1.0066810
vn 1.0000000 0.0000000 0.0000000
vt 0.4993125 -1.6063530
v -1.0439270 2.9077129 0.9675324
vn 1.0000000 0.0000000 0.0000000
vt 0.4176395 -1.6062770
v -1.0439270 2.8333650 1.1596900
vn 1.0000000 0.0000000 0.0000000
vt 0.4993125 -1.4103642
v -1.0439270 2.7939451 1.0798210
vn 1.0000000 0.0000000 0.0000000
vt 0.4176395 -1.4102890
v -1.4981689 1.8627890 0.0000001
vn -1.0000000 0.0000000 0.0000000
vt 0.4993184 -3.1307087
v -1.4981689 -1.8627890 -0.0000001
vn -1.0000000 0.0000000 0.0000000
vt 0.4993271 -6.5522251
v -1.4981689 1.8627890 0.0890678
vn -1.0000000 0.0000000 0.0000000
vt 0.4176376 -3.1306343
v -1.4981689 -1.8627890 0.0890677
vn -1.0000000 0.0000000 0.0000000
vt 0.4176299 -6.5521498
v -1.4981689 -1.8627890 -0.0000001
vn -1.0000000 0.0000000 0.0000000
vt 0.4993206 5.4481239
v -1.4981689 -2.0990350 0.0427735
vn -1.0000000 0.0000000 0.0000000
vt 0.4993206 5.2186518
v -1.4981689 -1.8627890 0.0890677
vn -1.0000000 0.0000000 0.0000000
vt 0.4176445 5.4481239
v -1.4981689 -2.0687001 0.1318413
vn -1.0000000 0.0000000 0.0000000
vt 0.4176438 5.2187262
v -1.4981689 -2.8441861 0.4866279
vn -1.0000000 0.0000000 0.0000000
vt 0.4176407 4.4550352
v -1.4981689 -2.8973241 0.4089777
vn -1.0000000 0.0000000 0.0000000
vt 0.4993206 4.4549599
v -1.4981689 -3.0361061 0.5476870
vn -1.0000000 0.0000000 0.0000000
vt 0.4993206 4.2780080
v -1.4981689 -2.9587779 0.6012931
vn -1.0000000 0.0000000 0.0000000
vt 0.4176395 4.2780838
v -1.4981689 -3.0868831 0.7172764
vn -1.0000000 0.0000000 0.0000000
vt 0.4993202 4.1184850
v -1.4981689 -2.9936011 0.7295898
vn -1.0000000 0.0000000 0.0000000
vt 0.4176395 4.1185608
v -1.4981689 -3.0364780 0.9026971
vn -1.0000000 0.0000000 0.0000000
vt 0.4993184 3.9453349
v -1.4981689 -2.9528821 0.8595109
vn -1.0000000 0.0000000 0.0000000
vt 0.4176395 3.9454100
v -1.4981689 -2.8671191 0.9485173
vn -1.0000000 0.0000000 0.0000000
vt 0.4176395 3.7798550
v -1.4981689 -2.9074781 1.0335140
vn -1.0000000 0.0000000 0.0000000
vt 0.4993184 3.7797790
v -1.4981689 -2.7401171 1.0789840
vn -1.0000000 0.0000000 0.0000000
vt 0.4993184 3.6234989
v -1.4981689 -2.7212839 0.9867969
vn -1.0000000 0.0000000 0.0000000
vt 0.4176395 3.6235740
v -1.4981689 -1.4265389 1.2072960
vn -1.0000000 0.0000000 0.0000000
vt 0.4993174 2.5710101
v -1.4981689 -1.4265389 1.1182280
vn -1.0000000 0.0000000 0.0000000
vt 0.4176391 2.5710850
v -1.4981689 2.6411920 1.1212140
vn -1.0000000 0.0000000 0.0000000
vt 0.4176395 -1.2312179
v -1.4981689 1.4277660 1.1369931
vn -1.0000000 0.0000000 0.0000000
vt 0.4176395 -0.1378138
v -1.4981689 2.6411920 1.2102820
vn -1.0000000 0.0000000 0.0000000
vt 0.4993130 -1.2312920
v -1.4981689 1.4277660 1.2260610
vn -1.0000000 0.0000000 0.0000000
vt 0.4993143 -0.1378890
v -1.4981689 2.0743840 0.0536120
vn -1.0000000 0.0000000 0.0000000
vt 0.4993174 -2.9390390
v -1.4981689 2.0330570 0.1325115
vn -1.0000000 0.0000000 0.0000000
vt 0.4176385 -2.9389639
v -1.4981689 2.7930739 0.5476698
vn -1.0000000 0.0000000 0.0000000
vt 0.4176391 -2.1531091
v -1.4981689 2.8396840 0.4717714
vn -1.0000000 0.0000000 0.0000000
vt 0.4993153 -2.1531849
v -1.4981689 2.9796331 0.6111310
vn -1.0000000 0.0000000 0.0000000
vt 0.4993153 -1.9752121
v -1.4981689 2.9053640 0.6602958
vn -1.0000000 0.0000000 0.0000000
vt 0.4176395 -1.9751370
v -1.4981689 3.0362771 0.8139222
vn -1.0000000 0.0000000 0.0000000
vt 0.4993143 -1.7854800
v -1.4981689 2.9472380 0.8161914
vn -1.0000000 0.0000000 0.0000000
vt 0.4176395 -1.7854061
v -1.4981689 2.9877160 1.0066810
vn -1.0000000 0.0000000 0.0000000
vt 0.4993125 -1.6063530
v -1.4981689 2.9077129 0.9675324
vn -1.0000000 0.0000000 0.0000000
vt 0.4176395 -1.6062770
v -1.4981689 2.7939451 1.0798210
vn -1.0000000 0.0000000 0.0000000
vt 0.4176395 -1.4102890
v -1.4981689 2.8333650 1.1596900
vn -1.0000000 0.0000000 0.0000000
vt 0.4993125 -1.4103642
v -1.0439270 1.8627890 0.0890678
vn 0.0000000 -0.1245845 0.9922090
vt 0.0083129 -3.1305580
v -1.4981689 1.8627890 0.0890678
vn 0.0000000 -0.1245845 0.9922090
vt 0.4176376 -3.1306343
v -1.0439270 -1.8627890 0.0890677
vn 0.0000000 0.1022290 0.9947609
vt 0.0083007 -6.5520749
v -1.4981689 -1.8627890 0.0890677
vn 0.0000000 0.1022290 0.9947609
vt 0.4176299 -6.5521498
v -1.0439270 -1.8627890 -0.0000001
vn 0.0000000 -0.0894380 -0.9959924
vt 0.9086622 -6.5522251
v -1.4981689 -1.8627890 -0.0000001
vn 0.0000000 -0.0894381 -0.9959924
vt 0.4993271 -6.5522251
v -1.0439270 1.8627890 0.0000001
vn 0.0000000 0.1237561 -0.9923127
vt 0.9086428 -3.1307087
v -1.4981689 1.8627890 0.0000001
vn 0.0000000 0.1237561 -0.9923127
vt 0.4993184 -3.1307087
v -1.0439270 -1.8627890 0.0890677
vn 0.0000000 0.1022290 0.9947609
vt 0.0083237 5.4481239
v -1.4981689 -1.8627890 0.0890677
vn 0.0000000 0.1022290 0.9947609
vt 0.4176445 5.4481239
v -1.0439270 -2.0687001 0.1318413
vn 0.0000000 0.3116658 0.9501918
vt 0.0083228 5.2188010
v -1.4981689 -2.0687001 0.1318413
vn 0.0000000 0.3116658 0.9501918
vt 0.4176438 5.2187262
v -1.4981689 -1.8627890 -0.0000001
vn 0.0000000 -0.0894381 -0.9959924
vt 0.4993206 5.4481239
v -1.0439270 -1.8627890 -0.0000001
vn 0.0000000 -0.0894380 -0.9959924
vt 0.9086452 5.4481239
v -1.4981689 -2.0990350 0.0427735
vn 0.0000000 -0.2999167 -0.9539654
vt 0.4993206 5.2186518
v -1.0439270 -2.0990350 0.0427735
vn 0.0000000 -0.2999167 -0.9539654
vt 0.9086452 5.2186518
v -1.0439270 -2.8441861 0.4866279
vn 0.0000000 0.5707310 0.8211371
vt 0.0083153 4.4551101
v -1.4981689 -2.8441861 0.4866279
vn 0.0000000 0.5707310 0.8211371
vt 0.4176407 4.4550352
v -1.4981689 -2.8973241 0.4089777
vn 0.0000000 -0.5709114 -0.8210117
vt 0.4993206 4.4549599
v -1.0439270 -2.8973241 0.4089777
vn 0.0000000 -0.5709114 -0.8210117
vt 0.9086452 4.4549599
v -1.0439270 -2.9587779 0.6012931
vn 0.0000000 0.8652952 0.5012627
vt 0.0083141 4.2781582
v -1.4981689 -2.9587779 0.6012931
vn 0.0000000 0.8652952 0.5012627
vt 0.4176395 4.2780838
v -1.4981689 -3.0361061 0.5476870
vn 0.0000000 -0.8585874 -0.5126672
vt 0.4993206 4.2780080
v -1.0439270 -3.0361061 0.5476870
vn 0.0000000 -0.8585874 -0.5126672
vt 0.9086452 4.2780080
v -1.0439270 -2.9936011 0.7295898
vn 0.0000000 0.9998131 -0.0193374
vt 0.0083146 4.1186352
v -1.4981689 -2.9936011 0.7295898
vn 0.0000000 0.9998131 -0.0193374
vt 0.4176395 4.1185608
v -1.4981689 -3.0868831 0.7172764
vn 0.0000000 -0.9999188 -0.0127431
vt 0.4993202 4.1184850
v -1.0439270 -3.0868831 0.7172764
vn 0.0000000 -0.9999188 -0.0127431
vt 0.9086441 4.1184850
v -1.0439270 -2.9528821 0.8595109
vn 0.0000000 0.8601275 -0.5100791
vt 0.0083141 3.9454851
v -1.4981689 -2.9528821 0.8595109
vn 0.0000000 0.8601275 -0.5100791
vt 0.4176395 3.9454100
v -1.4981689 -3.0364780 0.9026971
vn 0.0000000 -0.8668648 0.4985434
vt 0.4993184 3.9453349
v -1.0439270 -3.0364780 0.9026971
vn 0.0000000 -0.8668647 0.4985434
vt 0.9086425 3.9453349
v -1.0439270 -2.8671191 0.9485173
vn 0.0000000 0.5058135 -0.8626429
vt 0.0083141 3.7799289
v -1.4981689 -2.8671191 0.9485173
vn 0.0000000 0.5058135 -0.8626429
vt 0.4176395 3.7798550
v -1.4981689 -2.9074781 1.0335140
vn 0.0000000 -0.5045317 0.8633932
vt 0.4993184 3.7797790
v -1.0439270 -2.9074781 1.0335140
vn 0.0000000 -0.5045317 0.8633932
vt 0.9086407 3.7797790
v -1.0439270 -2.7212839 0.9867969
vn 0.0000000 0.1779766 -0.9840347
vt 0.0083141 3.6236479
v -1.4981689 -2.7212839 0.9867969
vn 0.0000000 0.1779766 -0.9840347
vt 0.4176395 3.6235740
v -1.4981689 -2.7401171 1.0789840
vn 0.0000000 -0.1803381 0.9836047
vt 0.4993184 3.6234989
v -1.0439270 -2.7401171 1.0789840
vn 0.0000000 -0.1803381 0.9836047
vt 0.9086404 3.6234989
v -1.0439270 -1.4265389 1.1182280
vn 0.0000000 0.0538434 -0.9985494
vt 0.0083141 2.5711601
v -1.4981689 -1.4265389 1.1182280
vn 0.0000000 0.0538434 -0.9985494
vt 0.4176391 2.5710850
v -1.4981689 -1.4265389 1.2072960
vn 0.0000000 -0.0519497 0.9986497
vt 0.4993174 2.5710101
v -1.0439270 -1.4265389 1.2072960
vn 0.0000000 -0.0519497 0.9986497
vt 0.9086386 2.5710101
v -1.0439270 2.6411920 1.2102820
vn 0.0000000 0.1347993 0.9908730
vt 0.9086329 -1.2312920
v -1.4981689 2.6411920 1.2102820
vn 0.0000000 0.1347993 0.9908729
vt 0.4993130 -1.2312920
v -1.0439270 1.4277660 1.2260610
vn 0.0000000 0.0032145 0.9999949
vt 0.9086344 -0.1378890
v -1.4981689 1.4277660 1.2260610
vn 0.0000000 0.0032145 0.9999949
vt 0.4993143 -0.1378890
v -1.0439270 1.4277660 1.1369931
vn 0.0000000 -0.0032145 -0.9999949
vt 0.0083169 -0.1377385
v -1.4981689 1.4277660 1.1369931
vn 0.0000000 -0.0032145 -0.9999949
vt 0.4176395 -0.1378138
v -1.0439270 2.6411920 1.1212140
vn 0.0000000 -0.1383686 -0.9903808
vt 0.0083172 -1.2311420
v -1.4981689 2.6411920 1.1212140
vn 0.0000000 -0.1383686 -0.9903808
vt 0.4176395 -1.2312179
v -1.0439270 2.0743840 0.0536120
vn 0.0000000 0.3654456 -0.9308327
vt 0.9086413 -2.9390390
v -1.4981689 2.0743840 0.0536120
vn 0.0000000 0.3654457 -0.9308327
vt 0.4993174 -2.9390390
v -1.4981689 2.0330570 0.1325115
vn 0.0000000 -0.3661688 0.9305485
vt 0.4176385 -2.9389639
v -1.0439270 2.0330570 0.1325115
vn 0.0000000 -0.3661688 0.9305485
vt 0.0083134 -2.9388881
v -1.0439270 2.8396840 0.4717714
vn 0.0000000 0.5985431 -0.8010907
vt 0.9086376 -2.1531849
v -1.4981689 2.8396840 0.4717714
vn 0.0000000 0.5985431 -0.8010906
vt 0.4993153 -2.1531849
v -1.4981689 2.7930739 0.5476698
vn 0.0000000 -0.5999390 0.8000458
vt 0.4176391 -2.1531091
v -1.0439270 2.7930739 0.5476698
vn 0.0000000 -0.5999390 0.8000458
vt 0.0083156 -2.1530349
v -1.0439270 2.9796331 0.6111310
vn 0.0000000 0.8628353 -0.5054852
vt 0.9086367 -1.9752121
v -1.4981689 2.9796331 0.6111310
vn 0.0000000 0.8628354 -0.5054851
vt 0.4993153 -1.9752121
v -1.4981689 2.9053640 0.6602958
vn 0.0000000 -0.8662458 0.4996182
vt 0.4176395 -1.9751370
v -1.0439270 2.9053640 0.6602958
vn 0.0000000 -0.8662458 0.4996182
vt 0.0083162 -1.9750619
v -1.0439270 3.0362771 0.8139222
vn 0.0000000 0.9999182 -0.0127930
vt 0.9086351 -1.7854800
v -1.4981689 3.0362771 0.8139222
vn 0.0000000 0.9999182 -0.0127930
vt 0.4993143 -1.7854800
v -1.4981689 2.9472380 0.8161914
vn 0.0000000 -0.9999940 0.0034739
vt 0.4176395 -1.7854061
v -1.0439270 2.9472380 0.8161914
vn 0.0000000 -0.9999940 0.0034739
vt 0.0083172 -1.7853301
v -1.0439270 2.9877160 1.0066810
vn 0.0000000 0.8686742 0.4953839
vt 0.9086322 -1.6063530
v -1.4981689 2.9877160 1.0066810
vn 0.0000000 0.8686742 0.4953839
vt 0.4993125 -1.6063530
v -1.4981689 2.9077129 0.9675324
vn 0.0000000 -0.8659734 -0.5000902
vt 0.4176395 -1.6062770
v -1.0439270 2.9077129 0.9675324
vn 0.0000000 -0.8659734 -0.5000902
vt 0.0083172 -1.6062021
v -1.4981689 2.7939451 1.0798210
vn 0.0000000 -0.4983884 -0.8669539
vt 0.4176395 -1.4102890
v -1.0439270 2.7939451 1.0798210
vn 0.0000000 -0.4983884 -0.8669539
vt 0.0083172 -1.4102139
v -1.4981689 2.8333650 1.1596900
vn 0.0000000 0.4962093 0.8682030
vt 0.4993125 -1.4103642
v -1.0439270 2.8333650 1.1596900
vn 0.0000000 0.4962094 0.8682029
vt 0.9086322 -1.4103642
v -1.2981400 1.8627890 0.0890467
vn -0.9564537 -0.0001036 0.2918839
vt 0.9287603 5.4481239
v -1.2981400 -1.8627890 0.0877243
vn -0.9418425 -0.0010950 0.3360531
vt 0.9285352 2.0266080
v -1.2753270 1.8627890 0.1638006
vn -0.9562940 -0.0001153 0.2924069
vt 0.9942936 5.4481239
v -1.2753270 -1.8627890 0.1515336
vn -0.9416307 -0.0011084 0.3366460
vt 0.9940697 2.0266080
v -1.2753270 -2.0615709 0.2011636
vn -0.9537441 0.1252692 0.2732761
vt 0.9940610 1.8349390
v -1.2981400 -2.0881009 0.1337078
vn -0.9533722 0.1258631 0.2742991
vt 0.9285276 1.8349390
v -1.2753270 -2.8081639 0.5434008
vn -0.9473308 0.1351758 0.2903305
vt 0.9940149 1.0490839
v -1.2981400 -2.8500869 0.4887619
vn -0.9469717 0.1357110 0.2912511
vt 0.9284810 1.0490839
v -1.2981400 -2.7240810 0.9895548
vn -0.9493804 0.0310373 -0.3125917
vt 0.9308650 0.1271918
v -1.2981400 -1.4184830 1.1191880
vn -0.9421545 0.0180006 -0.3346952
vt 0.9308650 -0.9662117
v -1.2753270 -2.7075341 0.9219126
vn -0.9491519 0.0311458 -0.3132741
vt 0.9915990 0.1271918
v -1.2753270 -1.4184830 1.0550320
vn -0.9420347 0.0191037 -0.3349711
vt 0.9915990 -0.9662117
v -1.2753270 2.6417980 1.0639811
vn -0.9350675 -0.0037780 -0.3544497
vt 0.9915984 -4.7275991
v -1.2753270 1.4202280 1.0770010
vn -0.9363025 -0.0008078 -0.3511937
vt 0.9915990 -3.6751108
v -1.2981400 2.6417980 1.1241630
vn -0.9351080 -0.0037829 -0.3543426
vt 0.9308646 -4.7275991
v -1.2981400 1.4202280 1.1378080
vn -0.9362764 -0.0008055 -0.3512633
vt 0.9308650 -3.6751108
v -1.2981400 2.0402730 0.1325791
vn -0.9514799 -0.1486844 0.2694051
vt 0.9283316 -6.3227530
v -1.2753270 2.0149910 0.1991963
vn -0.9514015 -0.1487820 0.2696279
vt 0.9938663 -6.3227530
v -1.2981400 2.7935390 0.5483057
vn -0.9500039 -0.1505083 0.2735689
vt 0.9284298 -5.5590611
v -1.2753270 2.7511981 0.6041510
vn -0.9499078 -0.1506259 0.2738377
vt 0.9939628 -5.5590611
v -1.2525140 1.8627890 0.0890467
vn 0.9564537 -0.0001036 0.2918839
vt 0.9287603 5.4481239
v -1.2753270 1.8627890 0.1638006
vn 0.9562940 -0.0001153 0.2924070
vt 0.9942936 5.4481239
v -1.2525140 -1.8627890 0.0877243
vn 0.9418419 -0.0010951 0.3360547
vt 0.9285352 2.0266080
v -1.2753270 -1.8627890 0.1515336
vn 0.9416301 -0.0011085 0.3366476
vt 0.9940697 2.0266080
v -1.2753270 -2.0615709 0.2011636
vn 0.9537437 0.1252698 0.2732773
vt 0.9940610 1.8349390
v -1.2753270 -2.8081639 0.5434008
vn 0.9473303 0.1351765 0.2903319
vt 0.9940149 1.0490839
v -1.2525140 -2.0881009 0.1337078
vn 0.9533718 0.1258636 0.2743003
vt 0.9285276 1.8349390
v -1.2525140 -2.8500869 0.4887619
vn 0.9469712 0.1357116 0.2912524
vt 0.9284810 1.0490839
v -1.2525140 2.0402730 0.1325792
vn 0.9514807 -0.1486833 0.2694025
vt 0.9283316 -6.3227530
v -1.2525140 2.7935390 0.5483057
vn 0.9500039 -0.1505082 0.2735688
vt 0.9284298 -5.5590611
v -1.2753270 2.0149910 0.1991963
vn 0.9514023 -0.1487810 0.2696255
vt 0.9938663 -6.3227530
v -1.2753270 2.7511981 0.6041510
vn 0.9499078 -0.1506260 0.2738377
vt 0.9939628 -5.5590611

g group_7057064_105553118317312
f 1/1/1 2/2/2 3/3/3 
f 3/3/3 2/2/2 4/4/4 
f 5/5/5 6/6/6 7/7/7 
f 7/7/7 6/6/6 8/8/8 
f 5/5/5 9/9/9 6/6/6 
f 6/6/6 9/9/9 10/10/10 
f 11/11/11 12/12/12 9/9/9 
f 9/9/9 12/12/12 10/10/10 
f 13/13/13 14/14/14 11/11/11 
f 11/11/11 14/14/14 12/12/12 
f 15/15/15 16/16/16 13/13/13 
f 13/13/13 16/16/16 14/14/14 
f 15/15/15 17/17/17 16/16/16 
f 16/16/16 17/17/17 18/18/18 
f 1/1/1 19/19/19 2/2/2 
f 2/2/2 19/19/19 20/20/20 
f 21/21/21 22/22/22 19/19/19 
f 19/19/19 22/22/22 20/20/20 
f 21/21/21 23/23/23 22/22/22 
f 22/22/22 23/23/23 24/24/24 
f 23/23/23 25/25/25 24/24/24 
f 24/24/24 25/25/25 26/26/26 
f 25/25/25 27/27/27 26/26/26 
f 26/26/26 27/27/27 28/28/28 
f 27/27/27 29/29/29 28/28/28 
f 28/28/28 29/29/29 30/30/30 
f 31/31/31 32/32/32 33/33/33 
f 33/33/33 32/32/32 34/34/34 
f 35/35/35 36/36/36 37/37/37 
f 37/37/37 36/36/36 38/38/38 
f 38/38/38 36/36/36 39/39/39 
f 39/39/39 36/36/36 40/40/40 
f 40/40/40 41/41/41 39/39/39 
f 39/39/39 41/41/41 42/42/42 
f 41/41/41 43/43/43 42/42/42 
f 42/42/42 43/43/43 44/44/44 
f 43/43/43 45/45/45 44/44/44 
f 44/44/44 45/45/45 46/46/46 
f 46/46/46 45/45/45 47/47/47 
f 47/47/47 45/45/45 48/48/48 
f 48/48/48 49/49/49 47/47/47 
f 47/47/47 49/49/49 50/50/50 
f 49/49/49 51/51/51 50/50/50 
f 50/50/50 51/51/51 52/52/52 
f 53/53/53 54/54/54 55/55/55 
f 55/55/55 54/54/54 56/56/56 
f 31/31/31 33/33/33 57/57/57 
f 57/57/57 33/33/33 58/58/58 
f 58/58/58 59/59/59 57/57/57 
f 57/57/57 59/59/59 60/60/60 
f 60/60/60 59/59/59 61/61/61 
f 61/61/61 59/59/59 62/62/62 
f 61/61/61 62/62/62 63/63/63 
f 63/63/63 62/62/62 64/64/64 
f 63/63/63 64/64/64 65/65/65 
f 65/65/65 64/64/64 66/66/66 
f 67/67/67 68/68/68 66/66/66 
f 66/66/66 68/68/68 65/65/65 
f 67/67/67 53/53/53 68/68/68 
f 68/68/68 53/53/53 55/55/55 
f 56/56/56 54/54/54 51/51/51 
f 51/51/51 54/54/54 52/52/52 
f 69/69/69 70/70/70 71/71/71 
f 71/71/71 70/70/70 72/72/72 
f 73/73/73 74/74/74 75/75/75 
f 75/75/75 74/74/74 76/76/76 
f 77/77/77 78/78/78 79/79/79 
f 79/79/79 78/78/78 80/80/80 
f 81/81/81 82/82/82 83/83/83 
f 83/83/83 82/82/82 84/84/84 
f 79/79/79 80/80/80 85/85/85 
f 85/85/85 80/80/80 86/86/86 
f 87/87/87 83/83/83 88/88/88 
f 88/88/88 83/83/83 84/84/84 
f 85/85/85 86/86/86 89/89/89 
f 89/89/89 86/86/86 90/90/90 
f 87/87/87 88/88/88 91/91/91 
f 91/91/91 88/88/88 92/92/92 
f 89/89/89 90/90/90 93/93/93 
f 93/93/93 90/90/90 94/94/94 
f 91/91/91 92/92/92 95/95/95 
f 95/95/95 92/92/92 96/96/96 
f 93/93/93 94/94/94 97/97/97 
f 97/97/97 94/94/94 98/98/98 
f 95/95/95 96/96/96 99/99/99 
f 99/99/99 96/96/96 100/100/100 
f 97/97/97 98/98/98 101/101/101 
f 101/101/101 98/98/98 102/102/102 
f 99/99/99 100/100/100 103/103/103 
f 103/103/103 100/100/100 104/104/104 
f 101/101/101 102/102/102 105/105/105 
f 105/105/105 102/102/102 106/106/106 
f 103/103/103 104/104/104 107/107/107 
f 107/107/107 104/104/104 108/108/108 
f 105/105/105 106/106/106 109/109/109 
f 109/109/109 106/106/106 110/110/110 
f 107/107/107 108/108/108 111/111/111 
f 111/111/111 108/108/108 112/112/112 
f 113/113/113 114/114/114 115/115/115 
f 115/115/115 114/114/114 116/116/116 
f 117/117/117 118/118/118 119/119/119 
f 119/119/119 118/118/118 120/120/120 
f 75/75/75 76/76/76 121/121/121 
f 121/121/121 76/76/76 122/122/122 
f 70/70/70 69/69/69 123/123/123 
f 123/123/123 69/69/69 124/124/124 
f 125/125/125 121/121/121 126/126/126 
f 126/126/126 121/121/121 122/122/122 
f 123/123/123 124/124/124 127/127/127 
f 127/127/127 124/124/124 128/128/128 
f 125/125/125 126/126/126 129/129/129 
f 129/129/129 126/126/126 130/130/130 
f 127/127/127 128/128/128 131/131/131 
f 131/131/131 128/128/128 132/132/132 
f 129/129/129 130/130/130 133/133/133 
f 133/133/133 130/130/130 134/134/134 
f 131/131/131 132/132/132 135/135/135 
f 135/135/135 132/132/132 136/136/136 
f 133/133/133 134/134/134 137/137/137 
f 137/137/137 134/134/134 138/138/138 
f 135/135/135 136/136/136 139/139/139 
f 139/139/139 136/136/136 140/140/140 
f 139/139/139 140/140/140 141/141/141 
f 141/141/141 140/140/140 142/142/142 
f 138/138/138 143/143/143 137/137/137 
f 137/137/137 143/143/143 144/144/144 
f 144/144/144 143/143/143 113/113/113 
f 113/113/113 143/143/143 114/114/114 
f 141/141/141 142/142/142 120/120/120 
f 120/120/120 142/142/142 119/119/119 
f 115/115/115 116/116/116 112/112/112 
f 112/112/112 116/116/116 111/111/111 
f 109/109/109 110/110/110 117/117/117 
f 117/117/117 110/110/110 118/118/118 
f 145/145/145 146/146/146 147/147/147 
f 147/147/147 146/146/146 148/148/148 
f 149/149/149 150/150/150 151/151/151 
f 151/151/151 150/150/150 152/152/152 
f 153/153/153 154/154/154 155/155/155 
f 155/155/155 154/154/154 156/156/156 
f 157/157/157 158/158/158 159/159/159 
f 159/159/159 158/158/158 160/160/160 
f 161/161/161 162/162/162 163/163/163 
f 163/163/163 162/162/162 164/164/164 
f 160/160/160 158/158/158 154/154/154 
f 154/154/154 158/158/158 156/156/156 
f 165/165/165 166/166/166 167/167/167 
f 167/167/167 166/166/166 168/168/168 
f 169/169/169 170/170/170 171/171/171 
f 171/171/171 170/170/170 172/172/172 
f 173/173/173 174/174/174 175/175/175 
f 175/175/175 174/174/174 176/176/176 
