v 1.0410160 -1.4550850 0.5628220
vn -0.0000007 -0.6293201 0.7771462
vt 0.1993889 0.5167179
v 1.0410160 -1.5525160 0.4127905
vn 0.0000003 -0.9659262 0.2588176
vt 0.1993889 0.4996027
v 1.3494190 -1.4550850 0.5628221
vn -0.0000003 -0.6293210 0.7771454
vt 0.1751479 0.5167179
v 1.3494190 -1.5525160 0.4127904
vn 0.0000004 -0.9659263 0.2588172
vt 0.1751479 0.4996027
v 1.0410160 -1.2880750 0.6269313
vn 0.0000004 -0.0523366 0.9986295
vt 0.1993889 0.4996027
v 1.3494190 -1.2880750 0.6269312
vn -0.0000001 -0.0523354 0.9986296
vt 0.1751479 0.4996026
v 1.0410160 -1.1152790 0.5806307
vn -0.0000000 0.5446380 0.8386713
vt 0.1993889 0.4824875
v 1.3494190 -1.1152790 0.5806307
vn 0.0000003 0.5446371 0.8386719
vt 0.1751479 0.4824875
v 1.0410160 -1.0026979 0.4416059
vn -0.0000006 0.9335798 0.3583696
vt 0.1993889 0.4653723
v 1.3494190 -1.0026979 0.4416059
vn -0.0000001 0.9335795 0.3583704
vt 0.1751479 0.4653723
v 1.0410160 -0.9933355 0.2629592
vn -0.0000010 0.9659261 -0.2588184
vt 0.1993889 0.4824875
v 1.3494190 -0.9933352 0.2629591
vn -0.0000008 0.9659261 -0.2588182
vt 0.1751479 0.4824875
v 1.0410160 -1.0907670 0.1129277
vn -0.0000005 0.6293210 -0.7771454
vt 0.1993889 0.4996027
v 1.3494190 -1.0907670 0.1129276
vn -0.0000008 0.6293207 -0.7771457
vt 0.1751479 0.4996027
v 1.0410160 -1.2577770 0.0488184
vn 0.0000000 0.0523373 -0.9986295
vt 0.1993889 0.5167179
v 1.3494190 -1.2577770 0.0488184
vn -0.0000002 0.0523366 -0.9986295
vt 0.1751479 0.5167179
v 1.0410160 -1.4305730 0.0951188
vn -0.0000001 -0.5446379 -0.8386713
vt 0.1993889 0.4653723
v 1.0410160 -1.2577770 0.0488184
vn 0.0000000 0.0523373 -0.9986295
vt 0.1993889 0.4814693
v 1.3494190 -1.4305730 0.0951187
vn 0.0000003 -0.5446374 -0.8386716
vt 0.1751479 0.4653723
v 1.3494190 -1.2577770 0.0488184
vn -0.0000002 0.0523366 -0.9986295
vt 0.1751479 0.4814693
v 1.0410160 -1.5431540 0.2341437
vn -0.0000001 -0.9335801 -0.3583688
vt 0.1993889 0.4824875
v 1.3494190 -1.5431540 0.2341439
vn -0.0000005 -0.9335805 -0.3583679
vt 0.1751479 0.4824875
v 1.0410160 -1.4550850 0.5628220
vn -1.0000000 -0.0000006 0.0000001
vt 0.2518892 0.4995344
v 1.0410160 -1.2880750 0.6269313
vn -1.0000000 -0.0000007 -0.0000000
vt 0.2391112 0.5088183
v 1.0410160 -1.1152790 0.5806307
vn -1.0000000 -0.0000008 0.0000003
vt 0.2233161 0.5088183
v 1.0410160 -1.5525160 0.4127905
vn -1.0000000 0.0000000 0.0000000
vt 0.2567702 0.4845125
v 1.0410160 -1.5431540 0.2341437
vn -1.0000000 -0.0000007 0.0000002
vt 0.2518893 0.4694907
v 1.0410160 -1.2577770 0.0488184
vn -1.0000000 -0.0000008 0.0000001
vt 0.2233162 0.4602068
v 1.0410160 -1.4305730 0.0951188
vn -1.0000000 -0.0000007 0.0000002
vt 0.2391111 0.4602068
v 1.0410160 -1.0907670 0.1129277
vn -1.0000000 -0.0000005 -0.0000004
vt 0.2105378 0.4694907
v 1.0410160 -0.9933355 0.2629592
vn -1.0000000 -0.0000010 0.0000003
vt 0.2056569 0.4845127
v 1.0410160 -1.0026979 0.4416059
vn -1.0000000 -0.0000003 0.0000007
vt 0.2105379 0.4995344
v 1.3494190 -1.2577770 0.0488184
vn 1.0000000 0.0000007 0.0000000
vt 0.2385864 0.5123335
v 1.3494190 -1.0907670 0.1129276
vn 1.0000000 0.0000006 -0.0000001
vt 0.2515100 0.5217227
v 1.3494190 -1.4305730 0.0951187
vn 1.0000000 0.0000008 -0.0000010
vt 0.2226131 0.5123335
v 1.3494190 -1.5431540 0.2341439
vn 1.0000000 0.0000013 0.0000008
vt 0.2096900 0.5217227
v 1.3494190 -1.5525160 0.4127904
vn 1.0000000 0.0000010 0.0000007
vt 0.2047539 0.5369143
v 1.3494190 -1.4550850 0.5628221
vn 1.0000000 0.0000001 -0.0000002
vt 0.2096900 0.5521054
v 1.3494190 -1.2880750 0.6269312
vn 1.0000000 -0.0000001 -0.0000005
vt 0.2226131 0.5614951
v 1.3494190 -1.1152790 0.5806307
vn 1.0000000 0.0000007 -0.0000002
vt 0.2385864 0.5614951
v 1.3494190 -1.0026979 0.4416059
vn 1.0000000 0.0000011 0.0000001
vt 0.2515100 0.5521054
v 1.3494190 -0.9933352 0.2629591
vn 1.0000000 0.0000005 -0.0000002
vt 0.2564457 0.5369143
v 1.0410160 -1.4550850 0.5628220
vn -0.0000007 -0.6293201 0.7771462
vt 0.1993889 0.5167179
v 1.3494190 -1.4550850 0.5628221
vn -0.0000003 -0.6293210 0.7771454
vt 0.1751479 0.5167179
v 1.0410160 -1.0026979 0.4416059
vn -0.0000006 0.9335798 0.3583696
vt 0.1993889 0.4653723
v 1.3494190 -1.0026979 0.4416059
vn -0.0000001 0.9335795 0.3583704
vt 0.1751479 0.4653723
v 1.0410160 -1.4305730 0.0951188
vn -0.0000001 -0.5446379 -0.8386713
vt 0.1993889 0.4653723
v 1.3494190 -1.4305730 0.0951187
vn 0.0000003 -0.5446374 -0.8386716
vt 0.1751479 0.4653723

g group_62_140627889944048
f 1/1/1 2/2/2 3/3/3 
f 3/3/3 2/2/2 4/4/4 
f 5/5/5 43/43/43 6/6/6 
f 6/6/6 43/43/43 44/44/44 
f 7/7/7 5/5/5 8/8/8 
f 8/8/8 5/5/5 6/6/6 
f 9/9/9 7/7/7 10/10/10 
f 10/10/10 7/7/7 8/8/8 
f 11/11/11 45/45/45 12/12/12 
f 12/12/12 45/45/45 46/46/46 
f 13/13/13 11/11/11 14/14/14 
f 14/14/14 11/11/11 12/12/12 
f 15/15/15 13/13/13 16/16/16 
f 16/16/16 13/13/13 14/14/14 
f 17/17/17 18/18/18 19/19/19 
f 19/19/19 18/18/18 20/20/20 
f 21/21/21 47/47/47 22/22/22 
f 22/22/22 47/47/47 48/48/48 
f 2/2/2 21/21/21 4/4/4 
f 4/4/4 21/21/21 22/22/22 
f 23/23/23 24/24/24 25/25/25 
f 26/26/26 23/23/23 27/27/27 
f 27/27/27 23/23/23 25/25/25 
f 28/28/28 29/29/29 25/25/25 
f 29/29/29 27/27/27 25/25/25 
f 30/30/30 28/28/28 31/31/31 
f 31/31/31 28/28/28 25/25/25 
f 31/31/31 25/25/25 32/32/32 
f 33/33/33 34/34/34 35/35/35 
f 35/35/35 34/34/34 36/36/36 
f 36/36/36 34/34/34 37/37/37 
f 37/37/37 34/34/34 38/38/38 
f 38/38/38 34/34/34 39/39/39 
f 39/39/39 34/34/34 40/40/40 
f 41/41/41 40/40/40 42/42/42 
f 42/42/42 40/40/40 34/34/34 
