v 1.0410150 0.3375293 0.5636688
vn -0.0000011 -0.6293200 0.7771463
vt 0.1993889 0.5167580
v 1.0410150 0.2400976 0.4136375
vn -0.0000002 -0.9659261 0.2588180
vt 0.1993889 0.4996698
v 1.3494170 0.3375287 0.5636690
vn -0.0000008 -0.6293207 0.7771458
vt 0.1751479 0.5167580
v 1.3494170 0.2400978 0.4136374
vn -0.0000002 -0.9659262 0.2588178
vt 0.1751479 0.4996698
v 1.0410140 0.5045391 0.6277782
vn 0.0000003 -0.0523364 0.9986295
vt 0.1993889 0.4996698
v 1.3494170 0.5045394 0.6277781
vn -0.0000004 -0.0523351 0.9986296
vt 0.1751479 0.4996698
v 1.0410140 0.6773353 0.5814775
vn 0.0000001 0.5446380 0.8386713
vt 0.1993889 0.4825816
v 1.3494170 0.6773350 0.5814775
vn 0.0000003 0.5446373 0.8386717
vt 0.1751479 0.4825817
v 1.0410140 0.7899160 0.4424527
vn -0.0000002 0.9335799 0.3583693
vt 0.1993889 0.4654935
v 1.3494170 0.7899161 0.4424527
vn 0.0000001 0.9335797 0.3583698
vt 0.1751479 0.4654935
v 1.0410140 0.7992785 0.2638059
vn -0.0000004 0.9659260 -0.2588186
vt 0.1993889 0.4825816
v 1.3494170 0.7992786 0.2638059
vn -0.0000002 0.9659261 -0.2588183
vt 0.1751479 0.4825816
v 1.0410140 0.7018471 0.1137744
vn -0.0000004 0.6293207 -0.7771457
vt 0.1993889 0.4996698
v 1.3494170 0.7018473 0.1137744
vn -0.0000004 0.6293206 -0.7771458
vt 0.1751479 0.4996698
v 1.0410140 0.5348369 0.0496651
vn 0.0000002 0.0523368 -0.9986295
vt 0.1993889 0.5167580
v 1.3494170 0.5348368 0.0496652
vn -0.0000001 0.0523362 -0.9986295
vt 0.1751479 0.5167580
v 1.0410140 0.3620407 0.0959656
vn -0.0000003 -0.5446382 -0.8386711
vt 0.1993889 0.4654935
v 1.0410140 0.5348369 0.0496651
vn 0.0000002 0.0523368 -0.9986295
vt 0.1993889 0.4815905
v 1.3494170 0.3620409 0.0959655
vn 0.0000002 -0.5446372 -0.8386718
vt 0.1751479 0.4654935
v 1.3494170 0.5348368 0.0496652
vn -0.0000001 0.0523362 -0.9986295
vt 0.1751479 0.4815905
v 1.0410150 0.2494603 0.2349906
vn -0.0000007 -0.9335802 -0.3583685
vt 0.1993889 0.4825816
v 1.3494170 0.2494598 0.2349907
vn -0.0000010 -0.9335806 -0.3583676
vt 0.1751479 0.4825817
v 1.0410140 0.5045391 0.6277782
vn -1.0000000 -0.0000003 -0.0000011
vt 0.2232205 0.5089092
v 1.0410140 0.6773353 0.5814775
vn -1.0000000 -0.0000005 0.0000001
vt 0.2390283 0.5089092
v 1.0410150 0.3375293 0.5636688
vn -1.0000000 -0.0000004 0.0000001
vt 0.2104323 0.4996181
v 1.0410150 0.2400976 0.4136375
vn -1.0000000 -0.0000003 0.0000000
vt 0.2055476 0.4845845
v 1.0410150 0.2494603 0.2349906
vn -1.0000000 -0.0000005 0.0000002
vt 0.2104323 0.4695504
v 1.0410140 0.3620407 0.0959656
vn -1.0000000 -0.0000003 0.0000002
vt 0.2232205 0.4602598
v 1.0410140 0.5348369 0.0496651
vn -1.0000000 -0.0000003 0.0000001
vt 0.2390276 0.4602598
v 1.0410140 0.7018471 0.1137744
vn -1.0000000 -0.0000010 0.0000002
vt 0.2518154 0.4695504
v 1.0410140 0.7992785 0.2638059
vn -1.0000000 -0.0000013 0.0000002
vt 0.2567004 0.4845845
v 1.0410140 0.7899160 0.4424527
vn -1.0000000 -0.0000003 0.0000007
vt 0.2518154 0.4996181
v 1.3494170 0.5348368 0.0496652
vn 1.0000000 0.0000003 0.0000011
vt 0.2366382 0.5623813
v 1.3494170 0.7018473 0.1137744
vn 1.0000000 0.0000002 0.0000001
vt 0.2207389 0.5607105
v 1.3494170 0.3620409 0.0959655
vn 1.0000000 0.0000004 -0.0000003
vt 0.2504821 0.5543885
v 1.3494170 0.2494598 0.2349907
vn 1.0000000 0.0000008 0.0000009
vt 0.2569844 0.5397843
v 1.3494170 0.2400978 0.4136374
vn 1.0000000 0.0000003 0.0000005
vt 0.2536607 0.5241477
v 1.3494170 0.3375287 0.5636690
vn 1.0000000 -0.0000003 -0.0000002
vt 0.2417811 0.5134514
v 1.3494170 0.5045394 0.6277781
vn 1.0000000 -0.0000004 -0.0000004
vt 0.2258822 0.5117800
v 1.3494170 0.6773350 0.5814775
vn 1.0000000 0.0000001 -0.0000002
vt 0.2120382 0.5197729
v 1.3494170 0.7899161 0.4424527
vn 1.0000000 0.0000007 -0.0000002
vt 0.2055356 0.5343778
v 1.3494170 0.7992786 0.2638059
vn 1.0000000 0.0000000 0.0000000
vt 0.2088594 0.5500138
v 1.0410150 0.3375293 0.5636688
vn -0.0000011 -0.6293200 0.7771463
vt 0.1993889 0.5167580
v 1.3494170 0.3375287 0.5636690
vn -0.0000008 -0.6293207 0.7771458
vt 0.1751479 0.5167580
v 1.0410140 0.7899160 0.4424527
vn -0.0000002 0.9335799 0.3583693
vt 0.1993889 0.4654935
v 1.3494170 0.7899161 0.4424527
vn 0.0000001 0.9335797 0.3583698
vt 0.1751479 0.4654935
v 1.0410140 0.3620407 0.0959656
vn -0.0000003 -0.5446382 -0.8386711
vt 0.1993889 0.4654935
v 1.3494170 0.3620409 0.0959655
vn 0.0000002 -0.5446372 -0.8386718
vt 0.1751479 0.4654935

g group_142_140627889799824
f 1/1/1 2/2/2 3/3/3 
f 3/3/3 2/2/2 4/4/4 
f 5/5/5 43/43/43 6/6/6 
f 6/6/6 43/43/43 44/44/44 
f 7/7/7 5/5/5 8/8/8 
f 8/8/8 5/5/5 6/6/6 
f 9/9/9 7/7/7 10/10/10 
f 10/10/10 7/7/7 8/8/8 
f 11/11/11 45/45/45 12/12/12 
f 12/12/12 45/45/45 46/46/46 
f 13/13/13 11/11/11 14/14/14 
f 14/14/14 11/11/11 12/12/12 
f 15/15/15 13/13/13 16/16/16 
f 16/16/16 13/13/13 14/14/14 
f 17/17/17 18/18/18 19/19/19 
f 19/19/19 18/18/18 20/20/20 
f 21/21/21 47/47/47 22/22/22 
f 22/22/22 47/47/47 48/48/48 
f 2/2/2 21/21/21 4/4/4 
f 4/4/4 21/21/21 22/22/22 
f 23/23/23 24/24/24 25/25/25 
f 25/25/25 24/24/24 26/26/26 
f 26/26/26 24/24/24 27/27/27 
f 27/27/27 24/24/24 28/28/28 
f 28/28/28 24/24/24 29/29/29 
f 29/29/29 24/24/24 30/30/30 
f 30/30/30 24/24/24 31/31/31 
f 31/31/31 24/24/24 32/32/32 
f 33/33/33 34/34/34 35/35/35 
f 35/35/35 34/34/34 36/36/36 
f 36/36/36 34/34/34 37/37/37 
f 37/37/37 34/34/34 38/38/38 
f 38/38/38 34/34/34 39/39/39 
f 39/39/39 34/34/34 40/40/40 
f 40/40/40 34/34/34 41/41/41 
f 41/41/41 34/34/34 42/42/42 
