v 1.0410160 -0.5445660 0.5636679
vn -0.0000007 -0.6293201 0.7771462
vt 0.1993889 0.5167580
v 1.0410150 -0.6419978 0.4136365
vn 0.0000003 -0.9659261 0.2588180
vt 0.1993889 0.4996698
v 1.3494180 -0.5445665 0.5636679
vn -0.0000001 -0.6293213 0.7771453
vt 0.1751479 0.5167580
v 1.3494180 -0.6419975 0.4136364
vn 0.0000002 -0.9659261 0.2588180
vt 0.1751479 0.4996698
v 1.0410150 -0.3775563 0.6277772
vn 0.0000001 -0.0523366 0.9986295
vt 0.1993889 0.4996698
v 1.3494180 -0.3775560 0.6277772
vn -0.0000003 -0.0523357 0.9986296
vt 0.1751479 0.4996698
v 1.0410150 -0.2047602 0.5814766
vn -0.0000000 0.5446380 0.8386713
vt 0.1993889 0.4825816
v 1.3494180 -0.2047604 0.5814767
vn 0.0000001 0.5446374 0.8386717
vt 0.1751479 0.4825817
v 1.0410150 -0.0921794 0.4424519
vn -0.0000004 0.9335797 0.3583698
vt 0.1993889 0.4654935
v 1.3494180 -0.0921794 0.4424519
vn 0.0000001 0.9335794 0.3583706
vt 0.1751479 0.4654935
v 1.0410150 -0.0828169 0.2638051
vn -0.0000010 0.9659260 -0.2588185
vt 0.1993889 0.4825816
v 1.3494180 -0.0828166 0.2638051
vn -0.0000007 0.9659261 -0.2588181
vt 0.1751479 0.4825816
v 1.0410150 -0.1802484 0.1137736
vn -0.0000006 0.6293209 -0.7771455
vt 0.1993889 0.4996698
v 1.3494180 -0.1802481 0.1137735
vn -0.0000008 0.6293207 -0.7771457
vt 0.1751479 0.4996698
v 1.0410150 -0.3472584 0.0496643
vn -0.0000001 0.0523372 -0.9986295
vt 0.1993889 0.5167580
v 1.3494180 -0.3472584 0.0496642
vn -0.0000003 0.0523367 -0.9986295
vt 0.1751479 0.5167580
v 1.0410150 -0.5200546 0.0959646
vn -0.0000003 -0.5446379 -0.8386713
vt 0.1993889 0.4654935
v 1.0410150 -0.3472584 0.0496643
vn -0.0000001 0.0523372 -0.9986295
vt 0.1993889 0.4815905
v 1.3494180 -0.5200543 0.0959645
vn 0.0000002 -0.5446373 -0.8386717
vt 0.1751479 0.4654935
v 1.3494180 -0.3472584 0.0496642
vn -0.0000003 0.0523367 -0.9986295
vt 0.1751479 0.4815905
v 1.0410160 -0.6326350 0.2349897
vn -0.0000004 -0.9335802 -0.3583686
vt 0.1993889 0.4825816
v 1.3494180 -0.6326355 0.2349898
vn -0.0000008 -0.9335806 -0.3583676
vt 0.1751479 0.4825817
v 1.0410150 -0.3775563 0.6277772
vn -1.0000000 -0.0000006 -0.0000022
vt 0.2232205 0.5089092
v 1.0410150 -0.2047602 0.5814766
vn -1.0000000 -0.0000009 -0.0000000
vt 0.2390283 0.5089092
v 1.0410160 -0.5445660 0.5636679
vn -1.0000000 -0.0000007 0.0000009
vt 0.2104323 0.4996181
v 1.0410150 -0.6419978 0.4136365
vn -1.0000000 -0.0000002 -0.0000002
vt 0.2055476 0.4845845
v 1.0410160 -0.6326350 0.2349897
vn -1.0000000 -0.0000007 0.0000002
vt 0.2104323 0.4695505
v 1.0410150 -0.5200546 0.0959646
vn -1.0000000 -0.0000006 0.0000004
vt 0.2232205 0.4602598
v 1.0410150 -0.3472584 0.0496643
vn -1.0000000 -0.0000006 0.0000002
vt 0.2390276 0.4602598
v 1.0410150 -0.1802484 0.1137736
vn -1.0000000 -0.0000014 0.0000004
vt 0.2518154 0.4695505
v 1.0410150 -0.0828169 0.2638051
vn -1.0000000 -0.0000009 0.0000004
vt 0.2567004 0.4845845
v 1.0410150 -0.0921794 0.4424519
vn -1.0000000 -0.0000023 -0.0000001
vt 0.2518154 0.4996181
v 1.3494180 -0.3472584 0.0496642
vn 1.0000000 0.0000003 0.0000011
vt 0.2169476 0.5152692
v 1.3494180 -0.1802481 0.1137735
vn 1.0000000 0.0000003 0.0000001
vt 0.2324594 0.5114014
v 1.3494180 -0.5200543 0.0959645
vn 1.0000000 0.0000004 -0.0000011
vt 0.2066721 0.5275150
v 1.3494180 -0.6326355 0.2349898
vn 1.0000000 0.0000010 0.0000007
vt 0.2055571 0.5434624
v 1.3494180 -0.6419975 0.4136364
vn 1.0000000 0.0000008 0.0000008
vt 0.2140283 0.5570192
v 1.3494180 -0.5445665 0.5636679
vn 1.0000000 0.0000000 0.0000000
vt 0.2288498 0.5630073
v 1.3494180 -0.3775560 0.6277772
vn 1.0000000 -0.0000004 -0.0000004
vt 0.2443615 0.5591401
v 1.3494180 -0.2047604 0.5814767
vn 1.0000000 0.0000001 -0.0000002
vt 0.2546369 0.5468943
v 1.3494180 -0.0921794 0.4424519
vn 1.0000000 0.0000007 -0.0000002
vt 0.2557521 0.5309463
v 1.3494180 -0.0828166 0.2638051
vn 1.0000000 0.0000000 0.0000000
vt 0.2472811 0.5173900
v 1.0410160 -0.5445660 0.5636679
vn -0.0000007 -0.6293201 0.7771462
vt 0.1993889 0.5167580
v 1.3494180 -0.5445665 0.5636679
vn -0.0000001 -0.6293213 0.7771453
vt 0.1751479 0.5167580
v 1.0410150 -0.0921794 0.4424519
vn -0.0000004 0.9335797 0.3583698
vt 0.1993889 0.4654935
v 1.3494180 -0.0921794 0.4424519
vn 0.0000001 0.9335794 0.3583706
vt 0.1751479 0.4654935
v 1.0410150 -0.5200546 0.0959646
vn -0.0000003 -0.5446379 -0.8386713
vt 0.1993889 0.4654935
v 1.3494180 -0.5200543 0.0959645
vn 0.0000002 -0.5446373 -0.8386717
vt 0.1751479 0.4654935

g group_61_140627889950080
f 1/1/1 2/2/2 3/3/3 
f 3/3/3 2/2/2 4/4/4 
f 5/5/5 43/43/43 6/6/6 
f 6/6/6 43/43/43 44/44/44 
f 7/7/7 5/5/5 8/8/8 
f 8/8/8 5/5/5 6/6/6 
f 9/9/9 7/7/7 10/10/10 
f 10/10/10 7/7/7 8/8/8 
f 11/11/11 45/45/45 12/12/12 
f 12/12/12 45/45/45 46/46/46 
f 13/13/13 11/11/11 14/14/14 
f 14/14/14 11/11/11 12/12/12 
f 15/15/15 13/13/13 16/16/16 
f 16/16/16 13/13/13 14/14/14 
f 17/17/17 18/18/18 19/19/19 
f 19/19/19 18/18/18 20/20/20 
f 21/21/21 47/47/47 22/22/22 
f 22/22/22 47/47/47 48/48/48 
f 2/2/2 21/21/21 4/4/4 
f 4/4/4 21/21/21 22/22/22 
f 23/23/23 24/24/24 25/25/25 
f 25/25/25 24/24/24 26/26/26 
f 26/26/26 24/24/24 27/27/27 
f 27/27/27 24/24/24 28/28/28 
f 28/28/28 24/24/24 29/29/29 
f 29/29/29 24/24/24 30/30/30 
f 30/30/30 24/24/24 31/31/31 
f 31/31/31 24/24/24 32/32/32 
f 33/33/33 34/34/34 35/35/35 
f 35/35/35 34/34/34 36/36/36 
f 36/36/36 34/34/34 37/37/37 
f 37/37/37 34/34/34 38/38/38 
f 38/38/38 34/34/34 39/39/39 
f 39/39/39 34/34/34 40/40/40 
f 40/40/40 34/34/34 41/41/41 
f 41/41/41 34/34/34 42/42/42 
