v -1.0573150 -0.2165744 1.0137600
vn 0.0000028 -0.6648358 0.7469896
vt 0.2878138 0.5254150
v -1.0573150 -0.0701861 1.0651140
vn 0.0000032 0.0523370 0.9986295
vt 0.2878043 0.5451539
v -1.3540920 -0.2165743 1.0137610
vn 0.0000027 -0.6648353 0.7469900
vt 0.2632059 0.5249648
v -1.0573159 0.0549854 0.7116224
vn -0.0000030 0.6648366 -0.7469888
vt 0.2878748 0.5007806
v -1.0573159 -0.0914029 0.6602678
vn -0.0000038 -0.0523355 -0.9986296
vt 0.2878692 0.5139208
v -1.3540930 0.0549852 0.7116235
vn -0.0000032 0.6648359 -0.7469895
vt 0.2631429 0.5007848
v -1.3540920 -0.2850113 0.8733945
vn -1.0000000 0.0000012 0.0000037
vt 0.2406161 0.4357541
v -1.3540920 -0.2165743 1.0137610
vn -1.0000000 -0.0000023 0.0000039
vt 0.2513682 0.4270445
v -1.3540930 -0.2316211 0.7266439
vn -1.0000000 0.0000007 0.0000023
vt 0.2394081 0.4495390
v -1.3540920 -0.2850113 0.8733945
vn 0.0000001 -0.9986296 0.0523344
vt 0.2632278 0.5058194
v -1.0573150 0.0700321 0.9987391
vn 0.0000030 0.7392751 0.6734036
vt 0.2878503 0.5590849
v -1.3540920 -0.0701865 1.0651150
vn 0.0000040 0.0523346 0.9986296
vt 0.2631508 0.5447384
v -1.0573150 0.0700321 0.9987391
vn 0.0000030 0.7392751 0.6734036
vt 0.2878748 0.5041259
v -1.0573150 0.1234219 0.8519886
vn 0.0000002 0.9986296 -0.0523349
vt 0.2878321 0.5215527
v -1.3540920 0.0700324 0.9987406
vn 0.0000034 0.7392738 0.6734049
vt 0.2631977 0.5041682
v -1.3540930 0.0549852 0.7116235
vn -0.0000032 0.6648359 -0.7469895
vt 0.2631344 0.5397434
v -1.3540920 0.1234219 0.8519897
vn -0.0000004 0.9986296 -0.0523359
vt 0.2631889 0.5211157
v -1.0573159 0.0549854 0.7116224
vn -0.0000030 0.6648366 -0.7469888
vt 0.2877986 0.5396891
v -1.0573159 -0.2316211 0.7266427
vn -0.0000026 -0.7392740 -0.6734048
vt 0.2878057 0.5334345
v -1.3540930 -0.0914029 0.6602690
vn -0.0000038 -0.0523357 -0.9986296
vt 0.2632007 0.5135227
v -1.0573159 -0.2850113 0.8733934
vn 0.0000002 -0.9986297 0.0523342
vt 0.2878765 0.5454793
v -1.3540930 -0.2316211 0.7266439
vn -0.0000025 -0.7392743 -0.6734044
vt 0.2631333 0.5330390
v -1.3540920 -0.0701865 1.0651150
vn -1.0000000 0.0000003 0.0000028
vt 0.2650477 0.4284024
v -1.3540920 0.0700324 0.9987406
vn -1.0000000 0.0000034 0.0000037
vt 0.2738224 0.4389835
v -1.3540920 0.1234219 0.8519897
vn -1.0000000 0.0000010 0.0000029
vt 0.2726145 0.4527683
v -1.3540930 0.0549852 0.7116235
vn -1.0000000 -0.0000031 0.0000066
vt 0.2618622 0.4614784
v -1.3540930 -0.0914029 0.6602690
vn -1.0000000 0.0000007 0.0000023
vt 0.2481827 0.4601206
v -1.0573159 -0.2850113 0.8733934
vn 0.0000002 -0.9986297 0.0523342
vt 0.2878748 0.5057489
v -1.3540920 0.0700324 0.9987406
vn 0.0000034 0.7392738 0.6734049
vt 0.2631343 0.5590984
v -1.3540920 -0.2850113 0.8733945
vn 0.0000001 -0.9986296 0.0523344
vt 0.2631344 0.5454785

g group_70_140627890046608
f 1/1/1 2/2/2 3/3/3 
f 4/4/4 5/5/5 6/6/6 
f 7/7/7 8/8/8 9/9/9 
f 3/3/3 10/10/10 1/1/1 
f 2/2/2 11/11/11 12/12/12 
f 13/13/13 14/14/14 15/15/15 
f 16/16/16 17/17/17 18/18/18 
f 5/5/5 19/19/19 20/20/20 
f 19/19/19 21/21/21 22/22/22 
f 2/2/2 12/12/12 3/3/3 
f 5/5/5 20/20/20 6/6/6 
f 23/23/23 24/24/24 25/25/25 
f 25/25/25 26/26/26 27/27/27 
f 25/25/25 27/27/27 9/9/9 
f 23/23/23 25/25/25 9/9/9 
f 8/8/8 23/23/23 9/9/9 
f 10/10/10 28/28/28 1/1/1 
f 11/11/11 29/29/29 12/12/12 
f 14/14/14 17/17/17 15/15/15 
f 17/17/17 14/14/14 18/18/18 
f 19/19/19 22/22/22 20/20/20 
f 21/21/21 30/30/30 22/22/22 
