v -1.0409940 0.2101126 0.5658619
vn 0.0000023 -0.6293201 0.7771463
vt 0.1992097 0.5167580
v -1.3493960 0.2101122 0.5658627
vn 0.0000021 -0.6293206 0.7771458
vt 0.1751479 0.5167580
v -1.0409940 0.1126810 0.4158306
vn 0.0000007 -0.9659261 0.2588181
vt 0.1992097 0.4994476
v -1.3493969 0.1126812 0.4158311
vn 0.0000007 -0.9659261 0.2588180
vt 0.1751479 0.4994476
v -1.0409940 0.3771226 0.6299713
vn 0.0000016 -0.0523358 0.9986296
vt 0.1992097 0.4994476
v -1.3493960 0.3771228 0.6299717
vn 0.0000020 -0.0523351 0.9986296
vt 0.1751479 0.4994476
v -1.0409940 0.5499187 0.5836704
vn 0.0000018 0.5446387 0.8386708
vt 0.1992097 0.4801298
v -1.3493960 0.5499185 0.5836711
vn 0.0000015 0.5446379 0.8386713
vt 0.1751479 0.4801298
v -1.0409940 0.6624992 0.4446457
vn 0.0000013 0.9335802 0.3583687
vt 0.1992097 0.4654935
v -1.3493960 0.6624994 0.4446462
vn 0.0000011 0.9335801 0.3583689
vt 0.1751479 0.4654935
v -1.0409940 0.6718615 0.2659991
vn 0.0000007 0.9659259 -0.2588187
vt 0.1992097 0.4801298
v -1.3493969 0.6718618 0.2659996
vn 0.0000003 0.9659261 -0.2588181
vt 0.1751479 0.4801298
v -1.0409940 0.5744301 0.1159676
vn -0.0000000 0.6293205 -0.7771459
vt 0.1992097 0.4994476
v -1.3493969 0.5744307 0.1159680
vn -0.0000002 0.6293209 -0.7771456
vt 0.1751479 0.4994476
v -1.0409950 0.4074199 0.0518584
vn -0.0000015 0.0523362 -0.9986295
vt 0.1992097 0.5167580
v -1.3493969 0.4074202 0.0518588
vn -0.0000013 0.0523359 -0.9986295
vt 0.1751479 0.5167580
v -1.0409950 0.2346240 0.0981588
vn -0.0000012 -0.5446384 -0.8386710
vt 0.1992097 0.4654935
v -1.3493969 0.2346241 0.0981593
vn -0.0000017 -0.5446379 -0.8386713
vt 0.1751479 0.4654935
v -1.0409950 0.4074199 0.0518584
vn -0.0000015 0.0523362 -0.9986295
vt 0.1992097 0.4801298
v -1.3493969 0.4074202 0.0518588
vn -0.0000013 0.0523359 -0.9986295
vt 0.1751479 0.4801298
v -1.0409950 0.1220437 0.2371838
vn 0.0000000 -0.9335804 -0.3583681
vt 0.1992097 0.4801298
v -1.3493969 0.1220432 0.2371845
vn 0.0000003 -0.9335806 -0.3583674
vt 0.1751479 0.4801298
v -1.0409940 0.5499187 0.5836704
vn 1.0000000 0.0000009 0.0000007
vt 0.2390283 0.5089092
v -1.0409940 0.3771226 0.6299713
vn 1.0000000 -0.0000009 -0.0000021
vt 0.2232205 0.5089092
v -1.0409940 0.6624992 0.4446457
vn 1.0000000 -0.0000007 -0.0000013
vt 0.2518154 0.4996181
v -1.0409940 0.2101126 0.5658619
vn 1.0000000 -0.0000009 -0.0000014
vt 0.2104323 0.4996181
v -1.0409940 0.1126810 0.4158306
vn 1.0000000 -0.0000008 -0.0000013
vt 0.2055476 0.4845845
v -1.0409950 0.1220437 0.2371838
vn 1.0000000 -0.0000008 -0.0000014
vt 0.2104323 0.4695505
v -1.0409950 0.2346240 0.0981588
vn 1.0000000 -0.0000007 -0.0000016
vt 0.2232205 0.4602598
v -1.0409950 0.4074199 0.0518584
vn 1.0000000 -0.0000006 -0.0000018
vt 0.2390276 0.4602598
v -1.0409940 0.5744301 0.1159676
vn 1.0000000 -0.0000009 -0.0000016
vt 0.2518154 0.4695505
v -1.0409940 0.6718615 0.2659991
vn 1.0000000 -0.0000015 -0.0000014
vt 0.2567004 0.4845845
v -1.3493969 0.5744307 0.1159680
vn -1.0000000 0.0000011 0.0000009
vt 0.2207388 0.5607105
v -1.3493969 0.4074202 0.0518588
vn -1.0000000 0.0000010 0.0000010
vt 0.2366382 0.5623813
v -1.3493969 0.6718618 0.2659996
vn -1.0000000 0.0000007 0.0000017
vt 0.2088594 0.5500138
v -1.3493969 0.2346241 0.0981593
vn -1.0000000 0.0000008 0.0000014
vt 0.2504821 0.5543885
v -1.3493969 0.1220432 0.2371845
vn -1.0000000 0.0000007 0.0000031
vt 0.2569843 0.5397842
v -1.3493969 0.1126812 0.4158311
vn -1.0000000 0.0000003 0.0000028
vt 0.2536607 0.5241477
v -1.3493960 0.2101122 0.5658627
vn -1.0000000 -0.0000003 0.0000011
vt 0.2417811 0.5134514
v -1.3493960 0.3771228 0.6299717
vn -1.0000000 -0.0000003 0.0000007
vt 0.2258822 0.5117800
v -1.3493960 0.5499185 0.5836711
vn -1.0000000 0.0000013 0.0000020
vt 0.2120382 0.5197729
v -1.3493960 0.6624994 0.4446462
vn -1.0000000 0.0000015 0.0000021
vt 0.2055356 0.5343778
v -1.0409940 0.2101126 0.5658619
vn 0.0000023 -0.6293201 0.7771463
vt 0.1992097 0.5167580
v -1.3493960 0.2101122 0.5658627
vn 0.0000021 -0.6293206 0.7771458
vt 0.1751479 0.5167580
v -1.0409940 0.6624992 0.4446457
vn 0.0000013 0.9335802 0.3583687
vt 0.1992097 0.4654935
v -1.3493960 0.6624994 0.4446462
vn 0.0000011 0.9335801 0.3583689
vt 0.1751479 0.4654935
v -1.0409950 0.2346240 0.0981588
vn -0.0000012 -0.5446384 -0.8386710
vt 0.1992097 0.4654935
v -1.3493969 0.2346241 0.0981593
vn -0.0000017 -0.5446379 -0.8386713
vt 0.1751479 0.4654935

g group_69_140627890046352
f 1/1/1 2/2/2 3/3/3 
f 3/3/3 2/2/2 4/4/4 
f 5/5/5 6/6/6 43/43/43 
f 43/43/43 6/6/6 44/44/44 
f 7/7/7 8/8/8 5/5/5 
f 5/5/5 8/8/8 6/6/6 
f 9/9/9 10/10/10 7/7/7 
f 7/7/7 10/10/10 8/8/8 
f 11/11/11 12/12/12 45/45/45 
f 45/45/45 12/12/12 46/46/46 
f 13/13/13 14/14/14 11/11/11 
f 11/11/11 14/14/14 12/12/12 
f 15/15/15 16/16/16 13/13/13 
f 13/13/13 16/16/16 14/14/14 
f 17/17/17 18/18/18 19/19/19 
f 19/19/19 18/18/18 20/20/20 
f 21/21/21 22/22/22 47/47/47 
f 47/47/47 22/22/22 48/48/48 
f 3/3/3 4/4/4 21/21/21 
f 21/21/21 4/4/4 22/22/22 
f 23/23/23 24/24/24 25/25/25 
f 24/24/24 26/26/26 25/25/25 
f 26/26/26 27/27/27 25/25/25 
f 27/27/27 28/28/28 25/25/25 
f 28/28/28 29/29/29 25/25/25 
f 29/29/29 30/30/30 25/25/25 
f 30/30/30 31/31/31 25/25/25 
f 31/31/31 32/32/32 25/25/25 
f 33/33/33 34/34/34 35/35/35 
f 34/34/34 36/36/36 35/35/35 
f 36/36/36 37/37/37 35/35/35 
f 37/37/37 38/38/38 35/35/35 
f 38/38/38 39/39/39 35/35/35 
f 39/39/39 40/40/40 35/35/35 
f 40/40/40 41/41/41 35/35/35 
f 41/41/41 42/42/42 35/35/35 
