v -1.0573150 1.5757000 1.0065250
vn 0.0000028 -0.6648356 0.7469897
vt 0.2878138 0.5254150
v -1.0573150 1.7220891 1.0578800
vn 0.0000032 0.0523368 0.9986295
vt 0.2878043 0.5451539
v -1.3540920 1.5757000 1.0065260
vn 0.0000027 -0.6648352 0.7469901
vt 0.2632059 0.5249648
v -1.0573159 1.8472600 0.7043881
vn -0.0000030 0.6648366 -0.7469888
vt 0.2878748 0.5007806
v -1.0573159 1.7008719 0.6530336
vn -0.0000038 -0.0523355 -0.9986296
vt 0.2878692 0.5139208
v -1.3540930 1.8472600 0.7043892
vn -0.0000032 0.6648359 -0.7469895
vt 0.2631429 0.5007848
v -1.3540920 1.5072629 0.8661602
vn -1.0000000 0.0000012 0.0000037
vt 0.2735954 0.4501852
v -1.3540920 1.5757000 1.0065260
vn -1.0000000 -0.0000023 0.0000039
vt 0.2645191 0.4606296
v -1.3540930 1.5606540 0.7194096
vn -1.0000000 0.0000007 0.0000023
vt 0.2723913 0.4364000
v -1.3540920 1.5072629 0.8661602
vn 0.0000001 -0.9986296 0.0523345
vt 0.2632278 0.5058194
v -1.0573150 1.8623070 0.9915048
vn 0.0000030 0.7392750 0.6734037
vt 0.2878503 0.5590849
v -1.3540920 1.7220880 1.0578810
vn 0.0000040 0.0523345 0.9986296
vt 0.2631508 0.5447384
v -1.0573150 1.8623070 0.9915048
vn 0.0000030 0.7392750 0.6734037
vt 0.2878748 0.5041259
v -1.0573150 1.9156970 0.8447543
vn 0.0000002 0.9986296 -0.0523349
vt 0.2878321 0.5215527
v -1.3540920 1.8623070 0.9915063
vn 0.0000034 0.7392737 0.6734051
vt 0.2631977 0.5041682
v -1.3540930 1.8472600 0.7043892
vn -0.0000032 0.6648359 -0.7469895
vt 0.2631344 0.5397434
v -1.3540920 1.9156970 0.8447554
vn -0.0000004 0.9986296 -0.0523359
vt 0.2631889 0.5211157
v -1.0573159 1.8472600 0.7043881
vn -0.0000030 0.6648366 -0.7469888
vt 0.2877986 0.5396891
v -1.0573159 1.5606540 0.7194085
vn -0.0000026 -0.7392740 -0.6734048
vt 0.2878057 0.5334345
v -1.3540930 1.7008719 0.6530347
vn -0.0000038 -0.0523357 -0.9986296
vt 0.2632007 0.5135227
v -1.0573159 1.5072629 0.8661591
vn 0.0000002 -0.9986297 0.0523343
vt 0.2878765 0.5454793
v -1.3540930 1.5606540 0.7194096
vn -0.0000025 -0.7392743 -0.6734044
vt 0.2631333 0.5330390
v -1.3540920 1.7220880 1.0578810
vn -1.0000000 0.0000003 0.0000028
vt 0.2508117 0.4616677
v -1.3540920 1.8623070 0.9915063
vn -1.0000000 0.0000034 0.0000037
vt 0.2403328 0.4527711
v -1.3540920 1.9156970 0.8447554
vn -1.0000000 0.0000010 0.0000029
vt 0.2391286 0.4389860
v -1.3540930 1.8472600 0.7043892
vn -1.0000000 -0.0000031 0.0000066
vt 0.2482051 0.4285411
v -1.3540930 1.7008719 0.6530347
vn -1.0000000 0.0000007 0.0000023
vt 0.2619126 0.4275028
v -1.0573159 1.5072629 0.8661591
vn 0.0000002 -0.9986297 0.0523343
vt 0.2878748 0.5057489
v -1.3540920 1.8623070 0.9915063
vn 0.0000034 0.7392737 0.6734051
vt 0.2631343 0.5590984
v -1.3540920 1.5072629 0.8661602
vn 0.0000001 -0.9986296 0.0523345
vt 0.2631344 0.5454785

g group_67_140627889322944
f 1/1/1 2/2/2 3/3/3 
f 4/4/4 5/5/5 6/6/6 
f 7/7/7 8/8/8 9/9/9 
f 3/3/3 10/10/10 1/1/1 
f 2/2/2 11/11/11 12/12/12 
f 13/13/13 14/14/14 15/15/15 
f 16/16/16 17/17/17 18/18/18 
f 5/5/5 19/19/19 20/20/20 
f 19/19/19 21/21/21 22/22/22 
f 2/2/2 12/12/12 3/3/3 
f 5/5/5 20/20/20 6/6/6 
f 23/23/23 24/24/24 25/25/25 
f 25/25/25 26/26/26 27/27/27 
f 25/25/25 27/27/27 9/9/9 
f 23/23/23 25/25/25 9/9/9 
f 8/8/8 23/23/23 9/9/9 
f 10/10/10 28/28/28 1/1/1 
f 11/11/11 29/29/29 12/12/12 
f 14/14/14 17/17/17 15/15/15 
f 17/17/17 14/14/14 18/18/18 
f 19/19/19 22/22/22 20/20/20 
f 21/21/21 30/30/30 22/22/22 
