v -1.0409930 1.9165500 0.5636733
vn 0.0000013 -0.6293197 0.7771465
vt 0.1992097 0.5167580
v -1.3493950 1.9165500 0.5636735
vn 0.0000011 -0.6293202 0.7771462
vt 0.1751479 0.5167580
v -1.0409930 1.8191190 0.4136419
vn 0.0000006 -0.9659261 0.2588184
vt 0.1992097 0.4994476
v -1.3493950 1.8191190 0.4136419
vn 0.0000004 -0.9659261 0.2588179
vt 0.1751479 0.4994476
v -1.0409930 2.0835600 0.6277826
vn -0.0000002 -0.0523364 0.9986295
vt 0.1992097 0.4994476
v -1.3493960 2.0835600 0.6277825
vn 0.0000003 -0.0523351 0.9986296
vt 0.1751479 0.4994476
v -1.0409930 2.2563570 0.5814817
vn 0.0000003 0.5446387 0.8386708
vt 0.1992097 0.4801298
v -1.3493960 2.2563560 0.5814819
vn -0.0000000 0.5446379 0.8386713
vt 0.1751479 0.4801298
v -1.0409930 2.3689370 0.4424570
vn 0.0000000 0.9335800 0.3583690
vt 0.1992097 0.4654935
v -1.3493960 2.3689370 0.4424570
vn -0.0000000 0.9335800 0.3583689
vt 0.1751479 0.4654935
v -1.0409930 2.3783000 0.2638103
vn 0.0000000 0.9659258 -0.2588191
vt 0.1992097 0.4801298
v -1.3493960 2.3783000 0.2638103
vn 0.0000000 0.9659258 -0.2588192
vt 0.1751479 0.4801298
v -1.0409930 2.2808681 0.1137787
vn 0.0000000 0.6293206 -0.7771458
vt 0.1992097 0.4994476
v -1.3493960 2.2808681 0.1137787
vn 0.0000000 0.6293207 -0.7771457
vt 0.1751479 0.4994476
v -1.0409930 2.1138580 0.0496694
vn -0.0000000 0.0523367 -0.9986295
vt 0.1992097 0.5167580
v -1.3493960 2.1138580 0.0496694
vn 0.0000000 0.0523367 -0.9986295
vt 0.1751479 0.5167580
v -1.0409930 1.9410620 0.0959699
vn 0.0000003 -0.5446385 -0.8386710
vt 0.1992097 0.4654935
v -1.3493960 1.9410620 0.0959699
vn -0.0000003 -0.5446374 -0.8386716
vt 0.1751479 0.4654935
v -1.0409930 2.1138580 0.0496694
vn -0.0000000 0.0523367 -0.9986295
vt 0.1992097 0.4801298
v -1.3493960 2.1138580 0.0496694
vn 0.0000000 0.0523367 -0.9986295
vt 0.1751479 0.4801298
v -1.0409930 1.8284810 0.2349950
vn 0.0000008 -0.9335804 -0.3583680
vt 0.1992097 0.4801298
v -1.3493960 1.8284810 0.2349952
vn 0.0000010 -0.9335806 -0.3583675
vt 0.1751479 0.4801298
v -1.0409930 2.0835600 0.6277826
vn 1.0000000 0.0000000 0.0000000
vt 0.2232205 0.5089092
v -1.0409930 1.9165500 0.5636733
vn 1.0000000 0.0000000 0.0000000
vt 0.2104323 0.4996181
v -1.0409930 2.2563570 0.5814817
vn 1.0000000 0.0000000 0.0000000
vt 0.2390283 0.5089092
v -1.0409930 1.8191190 0.4136419
vn 1.0000000 0.0000000 0.0000000
vt 0.2055476 0.4845845
v -1.0409930 1.8284810 0.2349950
vn 1.0000000 0.0000000 0.0000000
vt 0.2104323 0.4695504
v -1.0409930 1.9410620 0.0959699
vn 1.0000000 0.0000000 0.0000000
vt 0.2232205 0.4602598
v -1.0409930 2.1138580 0.0496694
vn 1.0000000 0.0000000 0.0000000
vt 0.2390276 0.4602598
v -1.0409930 2.2808681 0.1137787
vn 1.0000000 0.0000000 0.0000000
vt 0.2518154 0.4695504
v -1.0409930 2.3783000 0.2638103
vn 1.0000000 0.0000000 0.0000000
vt 0.2567005 0.4845845
v -1.0409930 2.3689370 0.4424570
vn 1.0000000 0.0000000 0.0000000
vt 0.2518154 0.4996181
v -1.3493960 2.1138580 0.0496694
vn -1.0000000 0.0000002 -0.0000043
vt 0.2386746 0.5122387
v -1.3493960 1.9410620 0.0959699
vn -1.0000000 0.0000002 -0.0000043
vt 0.2226889 0.5122387
v -1.3493960 2.2808681 0.1137787
vn -1.0000000 0.0000002 -0.0000043
vt 0.2516084 0.5216353
v -1.3493960 1.8284810 0.2349952
vn -1.0000000 -0.0000001 0.0000016
vt 0.2097557 0.5216353
v -1.3493950 1.8191190 0.4136419
vn -1.0000000 -0.0000002 0.0000013
vt 0.2048158 0.5368388
v -1.3493950 1.9165500 0.5636735
vn -1.0000000 -0.0000016 -0.0000002
vt 0.2097557 0.5520418
v -1.3493960 2.0835600 0.6277825
vn -1.0000000 -0.0000010 -0.0000004
vt 0.2226889 0.5614387
v -1.3493960 2.2563560 0.5814819
vn -1.0000000 0.0000008 0.0000005
vt 0.2386746 0.5614387
v -1.3493960 2.3689370 0.4424570
vn -1.0000000 -0.0000014 0.0000004
vt 0.2516084 0.5520418
v -1.3493960 2.3783000 0.2638103
vn -1.0000000 0.0000000 0.0000000
vt 0.2565479 0.5368388
v -1.0409930 1.9165500 0.5636733
vn 0.0000013 -0.6293197 0.7771465
vt 0.1992097 0.5167580
v -1.3493950 1.9165500 0.5636735
vn 0.0000011 -0.6293202 0.7771462
vt 0.1751479 0.5167580
v -1.0409930 2.3689370 0.4424570
vn 0.0000000 0.9335800 0.3583690
vt 0.1992097 0.4654935
v -1.3493960 2.3689370 0.4424570
vn -0.0000000 0.9335800 0.3583689
vt 0.1751479 0.4654935
v -1.0409930 1.9410620 0.0959699
vn 0.0000003 -0.5446385 -0.8386710
vt 0.1992097 0.4654935
v -1.3493960 1.9410620 0.0959699
vn -0.0000003 -0.5446374 -0.8386716
vt 0.1751479 0.4654935

g group_66_140627890058432
f 1/1/1 2/2/2 3/3/3 
f 3/3/3 2/2/2 4/4/4 
f 5/5/5 6/6/6 43/43/43 
f 43/43/43 6/6/6 44/44/44 
f 7/7/7 8/8/8 5/5/5 
f 5/5/5 8/8/8 6/6/6 
f 9/9/9 10/10/10 7/7/7 
f 7/7/7 10/10/10 8/8/8 
f 11/11/11 12/12/12 45/45/45 
f 45/45/45 12/12/12 46/46/46 
f 13/13/13 14/14/14 11/11/11 
f 11/11/11 14/14/14 12/12/12 
f 15/15/15 16/16/16 13/13/13 
f 13/13/13 16/16/16 14/14/14 
f 17/17/17 18/18/18 19/19/19 
f 19/19/19 18/18/18 20/20/20 
f 21/21/21 22/22/22 47/47/47 
f 47/47/47 22/22/22 48/48/48 
f 3/3/3 4/4/4 21/21/21 
f 21/21/21 4/4/4 22/22/22 
f 23/23/23 24/24/24 25/25/25 
f 24/24/24 26/26/26 25/25/25 
f 26/26/26 27/27/27 25/25/25 
f 27/27/27 28/28/28 25/25/25 
f 28/28/28 29/29/29 25/25/25 
f 29/29/29 30/30/30 25/25/25 
f 30/30/30 31/31/31 25/25/25 
f 31/31/31 32/32/32 25/25/25 
f 33/33/33 34/34/34 35/35/35 
f 34/34/34 36/36/36 35/35/35 
f 36/36/36 37/37/37 35/35/35 
f 37/37/37 38/38/38 35/35/35 
f 38/38/38 39/39/39 35/35/35 
f 39/39/39 40/40/40 35/35/35 
f 40/40/40 41/41/41 35/35/35 
f 41/41/41 42/42/42 35/35/35 
