v -1.0409930 1.0816480 0.5636729
vn 0.0000010 -0.6293199 0.7771464
vt 0.1992097 0.5167580
v -1.3493960 1.0816480 0.5636730
vn 0.0000006 -0.6293208 0.7771457
vt 0.1751479 0.5167580
v -1.0409930 0.9842163 0.4136415
vn 0.0000001 -0.9659261 0.2588183
vt 0.1992097 0.4994476
v -1.3493960 0.9842166 0.4136415
vn -0.0000000 -0.9659261 0.2588180
vt 0.1751479 0.4994476
v -1.0409930 1.2486579 0.6277822
vn -0.0000002 -0.0523360 0.9986295
vt 0.1992097 0.4994476
v -1.3493960 1.2486579 0.6277822
vn 0.0000003 -0.0523350 0.9986296
vt 0.1751479 0.4994476
v -1.0409930 1.4214540 0.5814815
vn -0.0000002 0.5446387 0.8386708
vt 0.1992097 0.4801298
v -1.3493960 1.4214540 0.5814816
vn -0.0000005 0.5446377 0.8386714
vt 0.1751479 0.4801298
v -1.0409930 1.5340350 0.4424567
vn 0.0000000 0.9335800 0.3583691
vt 0.1992097 0.4654935
v -1.3493960 1.5340350 0.4424567
vn -0.0000003 0.9335798 0.3583696
vt 0.1751479 0.4654935
v -1.0409930 1.5433969 0.2638099
vn 0.0000001 0.9659261 -0.2588179
vt 0.1992097 0.4801298
v -1.3493960 1.5433969 0.2638099
vn 0.0000000 0.9659262 -0.2588178
vt 0.1751479 0.4801298
v -1.0409930 1.4459660 0.1137784
vn 0.0000002 0.6293209 -0.7771456
vt 0.1992097 0.4994476
v -1.3493960 1.4459660 0.1137783
vn 0.0000002 0.6293210 -0.7771455
vt 0.1751479 0.4994476
v -1.0409930 1.2789561 0.0496691
vn -0.0000000 0.0523364 -0.9986295
vt 0.1992097 0.5167580
v -1.3493960 1.2789561 0.0496691
vn 0.0000001 0.0523363 -0.9986295
vt 0.1751479 0.5167580
v -1.0409930 1.1061590 0.0959696
vn 0.0000003 -0.5446382 -0.8386711
vt 0.1992097 0.4654935
v -1.3493960 1.1061600 0.0959695
vn -0.0000001 -0.5446376 -0.8386716
vt 0.1751479 0.4654935
v -1.0409930 1.2789561 0.0496691
vn -0.0000000 0.0523364 -0.9986295
vt 0.1992097 0.4801298
v -1.3493960 1.2789561 0.0496691
vn 0.0000001 0.0523363 -0.9986295
vt 0.1751479 0.4801298
v -1.0409930 0.9935790 0.2349946
vn 0.0000005 -0.9335803 -0.3583684
vt 0.1992097 0.4801298
v -1.3493960 0.9935786 0.2349948
vn 0.0000009 -0.9335807 -0.3583673
vt 0.1751479 0.4801298
v -1.0409930 1.2486579 0.6277822
vn 1.0000000 -0.0000003 -0.0000011
vt 0.2232205 0.5089092
v -1.0409930 1.0816480 0.5636729
vn 1.0000000 -0.0000003 -0.0000011
vt 0.2104323 0.4996181
v -1.0409930 1.4214540 0.5814815
vn 1.0000000 -0.0000003 -0.0000011
vt 0.2390283 0.5089092
v -1.0409930 0.9842163 0.4136415
vn 1.0000000 0.0000001 -0.0000002
vt 0.2055476 0.4845845
v -1.0409930 0.9935790 0.2349946
vn 1.0000000 -0.0000003 -0.0000000
vt 0.2104323 0.4695504
v -1.0409930 1.1061590 0.0959696
vn 1.0000000 -0.0000003 0.0000002
vt 0.2232205 0.4602598
v -1.0409930 1.2789561 0.0496691
vn 1.0000000 -0.0000003 0.0000001
vt 0.2390276 0.4602598
v -1.0409930 1.4459660 0.1137784
vn 1.0000000 -0.0000007 0.0000002
vt 0.2518154 0.4695504
v -1.0409930 1.5433969 0.2638099
vn 1.0000000 -0.0000005 0.0000002
vt 0.2567005 0.4845845
v -1.0409930 1.5340350 0.4424567
vn 1.0000000 -0.0000011 -0.0000001
vt 0.2518154 0.4996181
v -1.3493960 1.2789561 0.0496691
vn -1.0000000 -0.0000003 -0.0000011
vt 0.2050620 0.5383080
v -1.3493960 1.1061600 0.0959695
vn -1.0000000 -0.0000003 -0.0000011
vt 0.2105294 0.5533296
v -1.3493960 1.4459660 0.1137783
vn -1.0000000 -0.0000003 -0.0000011
vt 0.2094682 0.5229403
v -1.3493960 0.9935786 0.2349948
vn -1.0000000 -0.0000004 -0.0000006
vt 0.2237827 0.5622690
v -1.3493960 0.9842166 0.4136415
vn -1.0000000 -0.0000004 -0.0000007
vt 0.2397588 0.5617111
v -1.3493960 1.0816480 0.5636730
vn -1.0000000 -0.0000002 0.0000009
vt 0.2523555 0.5518694
v -1.3493960 1.2486579 0.6277822
vn -1.0000000 -0.0000012 -0.0000002
vt 0.2567623 0.5365022
v -1.3493960 1.4214540 0.5814816
vn -1.0000000 -0.0000001 0.0000002
vt 0.2512949 0.5214806
v -1.3493960 1.5340350 0.4424567
vn -1.0000000 -0.0000007 0.0000002
vt 0.2380410 0.5125407
v -1.3493960 1.5433969 0.2638099
vn -1.0000000 0.0000000 0.0000000
vt 0.2220654 0.5130988
v -1.0409930 1.0816480 0.5636729
vn 0.0000010 -0.6293199 0.7771464
vt 0.1992097 0.5167580
v -1.3493960 1.0816480 0.5636730
vn 0.0000006 -0.6293208 0.7771457
vt 0.1751479 0.5167580
v -1.0409930 1.5340350 0.4424567
vn 0.0000000 0.9335800 0.3583691
vt 0.1992097 0.4654935
v -1.3493960 1.5340350 0.4424567
vn -0.0000003 0.9335798 0.3583696
vt 0.1751479 0.4654935
v -1.0409930 1.1061590 0.0959696
vn 0.0000003 -0.5446382 -0.8386711
vt 0.1992097 0.4654935
v -1.3493960 1.1061600 0.0959695
vn -0.0000001 -0.5446376 -0.8386716
vt 0.1751479 0.4654935

g group_68_140627889323200
f 1/1/1 2/2/2 3/3/3 
f 3/3/3 2/2/2 4/4/4 
f 5/5/5 6/6/6 43/43/43 
f 43/43/43 6/6/6 44/44/44 
f 7/7/7 8/8/8 5/5/5 
f 5/5/5 8/8/8 6/6/6 
f 9/9/9 10/10/10 7/7/7 
f 7/7/7 10/10/10 8/8/8 
f 11/11/11 12/12/12 45/45/45 
f 45/45/45 12/12/12 46/46/46 
f 13/13/13 14/14/14 11/11/11 
f 11/11/11 14/14/14 12/12/12 
f 15/15/15 16/16/16 13/13/13 
f 13/13/13 16/16/16 14/14/14 
f 17/17/17 18/18/18 19/19/19 
f 19/19/19 18/18/18 20/20/20 
f 21/21/21 22/22/22 47/47/47 
f 47/47/47 22/22/22 48/48/48 
f 3/3/3 4/4/4 21/21/21 
f 21/21/21 4/4/4 22/22/22 
f 23/23/23 24/24/24 25/25/25 
f 24/24/24 26/26/26 25/25/25 
f 26/26/26 27/27/27 25/25/25 
f 27/27/27 28/28/28 25/25/25 
f 28/28/28 29/29/29 25/25/25 
f 29/29/29 30/30/30 25/25/25 
f 30/30/30 31/31/31 25/25/25 
f 31/31/31 32/32/32 25/25/25 
f 33/33/33 34/34/34 35/35/35 
f 34/34/34 36/36/36 35/35/35 
f 36/36/36 37/37/37 35/35/35 
f 37/37/37 38/38/38 35/35/35 
f 38/38/38 39/39/39 35/35/35 
f 39/39/39 40/40/40 35/35/35 
f 40/40/40 41/41/41 35/35/35 
f 41/41/41 42/42/42 35/35/35 
