v 1.0573360 -0.2305127 0.7280416
vn -0.0000020 -0.7392771 -0.6734014
vt 0.2878852 0.5102020
v 1.0573350 -0.0915948 0.6622812
vn -0.0000031 -0.0523380 -0.9986295
vt 0.2878146 0.5293308
v 1.3541130 -0.2305129 0.7280410
vn -0.0000019 -0.7392780 -0.6734005
vt 0.2631902 0.5098699
v 1.0573360 0.0683458 0.9976183
vn -0.0000039 0.7392710 0.6734080
vt 0.2878225 0.5254609
v 1.0573360 -0.0705742 1.0633780
vn 0.0000027 0.0523325 0.9986297
vt 0.2878290 0.5415298
v 1.3541120 0.0683482 0.9976176
vn -0.0000023 0.7392707 0.6734084
vt 0.2631677 0.5250805
v 1.3541130 -0.2305129 0.7280410
vn 1.0000000 0.0000018 -0.0000034
vt 0.2424064 0.4335239
v 1.3541120 -0.0915942 0.6622802
vn 1.0000000 -0.0000022 -0.0000071
vt 0.2541608 0.4266462
v 1.3541130 -0.2834079 0.8734323
vn 1.0000000 0.0000006 -0.0000016
vt 0.2388599 0.4467667
v 1.3541130 -0.2834079 0.8734323
vn -0.0000002 -0.9986296 0.0523344
vt 0.2631189 0.4990940
v 1.0573350 0.0534371 0.7131602
vn -0.0000046 0.6648325 -0.7469925
vt 0.2878081 0.5490984
v 1.3541120 -0.0915942 0.6622802
vn -0.0000033 -0.0523375 -0.9986295
vt 0.2631945 0.5289325
v 1.0573360 0.1212418 0.8522273
vn -0.0000061 0.9986295 -0.0523377
vt 0.2878777 0.5609261
v 1.3541130 0.0534382 0.7131592
vn -0.0000061 0.6648319 -0.7469930
vt 0.2631322 0.5487414
v 1.3541120 0.1212440 0.8522263
vn -0.0000078 0.9986293 -0.0523417
vt 0.2632206 0.5059128
v 1.0573360 -0.0705742 1.0633780
vn 0.0000027 0.0523325 0.9986297
vt 0.2878747 0.5025057
v 1.0573370 -0.2156062 1.0124990
vn 0.0000044 -0.6648384 0.7469872
vt 0.2878542 0.5176619
v 1.3541130 -0.0705741 1.0633770
vn 0.0000047 0.0523284 0.9986300
vt 0.2631682 0.5025248
v 1.0573360 -0.2834078 0.8734333
vn 0.0000007 -0.9986297 0.0523332
vt 0.2877822 0.5377051
v 1.3541130 -0.2156056 1.0124980
vn 0.0000034 -0.6648372 0.7469884
vt 0.2631949 0.5172948
v 1.3541130 -0.0705741 1.0633770
vn 0.0000047 0.0523284 0.9986300
vt 0.2631344 0.5415583
v 1.3541130 0.0534382 0.7131592
vn 1.0000000 0.0000002 -0.0000007
vt 0.2673565 0.4300174
v 1.3541120 0.1212440 0.8522263
vn 1.0000000 0.0000011 0.0000029
vt 0.2744154 0.4417694
v 1.3541120 0.0683482 0.9976176
vn 1.0000000 0.0000033 -0.0000010
vt 0.2708690 0.4550122
v 1.3541130 -0.0705741 1.0633770
vn 1.0000000 0.0000042 -0.0000066
vt 0.2591141 0.4618903
v 1.3541130 -0.2156056 1.0124980
vn 1.0000000 -0.0000057 0.0000045
vt 0.2459186 0.4585190
v 1.0573360 -0.2834078 0.8734333
vn 0.0000007 -0.9986297 0.0523332
vt 0.2878748 0.4991011
v 1.3541120 0.1212440 0.8522263
vn -0.0000078 0.9986293 -0.0523417
vt 0.2631343 0.5609242
v 1.0573360 0.1212418 0.8522273
vn -0.0000061 0.9986295 -0.0523377
vt 0.2878746 0.5058487
v 1.3541130 -0.2834079 0.8734323
vn -0.0000002 -0.9986296 0.0523344
vt 0.2631346 0.5377770

g group_143_140627889800080
f 1/1/1 2/2/2 3/3/3 
f 4/4/4 5/5/5 6/6/6 
f 7/7/7 8/8/8 9/9/9 
f 3/3/3 10/10/10 1/1/1 
f 2/2/2 11/11/11 12/12/12 
f 11/11/11 13/13/13 14/14/14 
f 6/6/6 15/15/15 4/4/4 
f 16/16/16 17/17/17 18/18/18 
f 17/17/17 19/19/19 20/20/20 
f 2/2/2 12/12/12 3/3/3 
f 5/5/5 21/21/21 6/6/6 
f 22/22/22 23/23/23 24/24/24 
f 25/25/25 26/26/26 9/9/9 
f 24/24/24 25/25/25 9/9/9 
f 22/22/22 24/24/24 9/9/9 
f 8/8/8 22/22/22 9/9/9 
f 10/10/10 27/27/27 1/1/1 
f 11/11/11 14/14/14 12/12/12 
f 13/13/13 28/28/28 14/14/14 
f 15/15/15 29/29/29 4/4/4 
f 17/17/17 20/20/20 18/18/18 
f 19/19/19 30/30/30 20/20/20 
