v 1.0573360 -1.9453200 0.7295921
vn -0.0000020 -0.7392771 -0.6734014
vt 0.2878852 0.5102020
v 1.0573350 -1.8064030 0.6638317
vn -0.0000031 -0.0523380 -0.9986295
vt 0.2878146 0.5293308
v 1.3541130 -1.9453210 0.7295915
vn -0.0000019 -0.7392780 -0.6734005
vt 0.2631902 0.5098699
v 1.0573360 -1.6464620 0.9991688
vn -0.0000039 0.7392710 0.6734080
vt 0.2878225 0.5254609
v 1.0573360 -1.7853820 1.0649290
vn 0.0000030 0.0523326 0.9986297
vt 0.2878290 0.5415298
v 1.3541120 -1.6464601 0.9991681
vn -0.0000021 0.7392706 0.6734085
vt 0.2631677 0.5250805
v 1.3541130 -1.9453210 0.7295915
vn 1.0000000 0.0000018 -0.0000034
vt 0.2660968 0.4296812
v 1.3541120 -1.8064020 0.6638307
vn 1.0000000 -0.0000022 -0.0000071
vt 0.2739728 0.4407916
v 1.3541130 -1.9982160 0.8749828
vn 1.0000000 0.0000006 -0.0000016
vt 0.2525952 0.4273024
v 1.3541130 -1.9982160 0.8749828
vn -0.0000002 -0.9986296 0.0523343
vt 0.2631189 0.4990940
v 1.0573350 -1.6613710 0.7147107
vn -0.0000046 0.6648325 -0.7469925
vt 0.2878081 0.5490984
v 1.3541120 -1.8064020 0.6638307
vn -0.0000033 -0.0523375 -0.9986295
vt 0.2631945 0.5289325
v 1.0573360 -1.5935659 0.8537778
vn -0.0000061 0.9986295 -0.0523377
vt 0.2878777 0.5609261
v 1.3541130 -1.6613700 0.7147097
vn -0.0000061 0.6648319 -0.7469930
vt 0.2631322 0.5487414
v 1.3541120 -1.5935640 0.8537768
vn -0.0000078 0.9986293 -0.0523417
vt 0.2632206 0.5059128
v 1.0573360 -1.7853820 1.0649290
vn 0.0000030 0.0523326 0.9986297
vt 0.2878747 0.5025057
v 1.0573370 -1.9304140 1.0140500
vn 0.0000046 -0.6648384 0.7469872
vt 0.2878542 0.5176619
v 1.3541130 -1.7853820 1.0649270
vn 0.0000050 0.0523285 0.9986299
vt 0.2631682 0.5025248
v 1.0573360 -1.9982160 0.8749838
vn 0.0000007 -0.9986297 0.0523331
vt 0.2877822 0.5377051
v 1.3541130 -1.9304130 1.0140491
vn 0.0000034 -0.6648369 0.7469885
vt 0.2631949 0.5172948
v 1.3541130 -1.7853820 1.0649270
vn 0.0000050 0.0523285 0.9986299
vt 0.2631344 0.5415583
v 1.3541130 -1.6613700 0.7147097
vn 1.0000000 0.0000002 -0.0000007
vt 0.2717644 0.4542308
v 1.3541120 -1.5935640 0.8537768
vn 1.0000000 0.0000011 0.0000029
vt 0.2606725 0.4622871
v 1.3541120 -1.6464601 0.9991681
vn 1.0000000 0.0000033 -0.0000010
vt 0.2471708 0.4599084
v 1.3541130 -1.7853820 1.0649270
vn 1.0000000 0.0000042 -0.0000066
vt 0.2392945 0.4487977
v 1.3541130 -1.9304130 1.0140491
vn 1.0000000 -0.0000057 0.0000045
vt 0.2415028 0.4353585
v 1.0573360 -1.9982160 0.8749838
vn 0.0000007 -0.9986297 0.0523331
vt 0.2878748 0.4991011
v 1.3541120 -1.5935640 0.8537768
vn -0.0000078 0.9986293 -0.0523417
vt 0.2631343 0.5609242
v 1.0573360 -1.5935659 0.8537778
vn -0.0000061 0.9986295 -0.0523377
vt 0.2878746 0.5058487
v 1.3541130 -1.9982160 0.8749828
vn -0.0000002 -0.9986296 0.0523343
vt 0.2631346 0.5377770

g group_63_140627889971776
f 1/1/1 2/2/2 3/3/3 
f 4/4/4 5/5/5 6/6/6 
f 7/7/7 8/8/8 9/9/9 
f 3/3/3 10/10/10 1/1/1 
f 2/2/2 11/11/11 12/12/12 
f 11/11/11 13/13/13 14/14/14 
f 6/6/6 15/15/15 4/4/4 
f 16/16/16 17/17/17 18/18/18 
f 17/17/17 19/19/19 20/20/20 
f 2/2/2 12/12/12 3/3/3 
f 5/5/5 21/21/21 6/6/6 
f 22/22/22 23/23/23 24/24/24 
f 25/25/25 26/26/26 9/9/9 
f 24/24/24 25/25/25 9/9/9 
f 22/22/22 24/24/24 9/9/9 
f 8/8/8 22/22/22 9/9/9 
f 10/10/10 27/27/27 1/1/1 
f 11/11/11 14/14/14 12/12/12 
f 13/13/13 28/28/28 14/14/14 
f 15/15/15 29/29/29 4/4/4 
f 17/17/17 20/20/20 18/18/18 
f 19/19/19 30/30/30 20/20/20 
