v 1.5124700 3.0518460 0.9786502
vn -0.0000000 -0.4999590 -0.8660491
vt 0.4254646 -3.5958462
v 0.8782810 3.0518460 0.9786502
vn -0.0000001 -0.4999589 -0.8660491
vt 0.0392919 -3.5958462
v 1.5124700 3.1520820 0.8789869
vn -0.0000000 -0.8667167 -0.4988008
vt 0.4254646 -3.7049313
v 0.8782810 3.1520820 0.8789869
vn 0.0000000 -0.8667167 -0.4988007
vt 0.0392919 -3.7049313
v 1.5124700 2.9149110 1.0157490
vn 0.0000000 -0.1347535 -0.9908792
vt 0.4254646 -3.4897327
v 0.8782809 2.9149110 1.0157490
vn -0.0000000 -0.1347534 -0.9908792
vt 0.0392919 -3.4897327
v 1.5124700 3.1881020 0.7414666
vn 0.0000000 -0.9999983 0.0018391
vt 0.4254646 -3.8137102
v 0.8782810 3.1881020 0.7414666
vn 0.0000000 -0.9999983 0.0018391
vt 0.0392919 -3.8137102
v 1.5124700 3.1518409 0.6050765
vn 0.0000000 -0.8654366 0.5010185
vt 0.4254646 -3.9225407
v 0.8782810 3.1518409 0.6050766
vn 0.0000000 -0.8654366 0.5010186
vt 0.0392919 -3.9225407
v 1.5124700 3.0510581 0.5051578
vn 0.0000001 -0.6243854 0.7811165
vt 0.4254646 -4.0261202
v 0.8782809 3.0510581 0.5051578
vn 0.0000001 -0.6243854 0.7811164
vt 0.0392919 -4.0261202
v 1.5124700 2.4706149 0.1350765
vn 0.0000000 -0.4159922 0.9093682
vt 0.4254646 -4.5994830
v 0.8782810 2.4706149 0.1350765
vn 0.0000000 -0.4159923 0.9093682
vt 0.0392919 -4.5994830
v 0.8782810 2.2196770 0.0600651
vn 0.0000000 -0.1444541 0.9895115
vt 0.0392919 7.0909672
v 0.8782810 -2.0785999 0.0624169
vn 0.0000000 0.1960910 0.9805857
vt 0.0392919 3.2111461
v 1.5124700 2.2196770 0.0600651
vn -0.0000000 -0.1444541 0.9895115
vt 0.4254646 7.0918260
v 1.5124700 -2.0785999 0.0624169
vn 0.0000000 0.1960911 0.9805857
vt 0.4254646 3.2111461
v 0.8782810 -2.9286759 0.4160185
vn 0.0000000 0.4733301 0.8808852
vt 0.0392919 2.4038210
v 1.5124700 -2.9286759 0.4160185
vn 0.0000000 0.4733301 0.8808852
vt 0.4254646 2.4038210
v 1.5124700 -3.0391841 0.4903211
vn 0.0000000 0.7484161 0.6632295
vt 0.4254646 2.2925899
v 0.8782810 -3.0391841 0.4903211
vn -0.0000003 0.7484155 0.6632301
vt 0.0392919 2.2925899
v 1.5124700 -3.1245120 0.6577216
vn -0.0000005 0.9797835 0.2000605
vt 0.4254646 2.1272950
v 0.8782810 -3.1245129 0.6577217
vn -0.0000004 0.9797836 0.2000604
vt 0.0392919 2.1272950
v 1.5124700 -3.1110771 0.8533858
vn -0.0000003 0.9179836 -0.3966183
vt 0.4254646 1.9598830
v 0.8782811 -3.1110771 0.8533857
vn 0.0000000 0.9179832 -0.3966192
vt 0.0392919 1.9598830
v 1.5124700 -2.9883659 0.9858750
vn 0.0000000 0.5436857 -0.8392889
vt 0.4254646 1.7960370
v 0.8782810 -2.9883659 0.9858750
vn 0.0000001 0.5436856 -0.8392891
vt 0.0392919 1.7960370
v 1.5124700 -2.8025341 1.0486870
vn 0.0000001 0.1594116 -0.9872122
vt 0.4254646 1.6298820
v 0.8782811 -2.8025341 1.0486870
vn 0.0000002 0.1594114 -0.9872123
vt 0.0392919 1.6298820
v 1.2420599 -1.9547870 0.0622563
vn 0.9312381 0.0001913 0.3644112
vt 0.9967785 3.3126969
v 1.2420599 2.2196779 0.0600651
vn 0.9346321 -0.0001009 0.3556162
vt 0.9967785 7.0919900
v 1.1958100 -1.9409950 0.1804393
vn 0.9313033 0.0001857 0.3642446
vt 0.8737969 3.3248010
v 1.1958100 2.2195749 0.1816881
vn 0.9346985 -0.0001067 0.3554417
vt 0.8737969 7.0882740
v 1.2420599 -2.8025341 1.0486870
vn 0.9320161 -0.0021364 -0.3624106
vt 0.9967785 1.6298820
v 1.1958100 2.9058111 0.8960945
vn 0.9327857 -0.0020771 -0.3604254
vt 0.8737969 -3.4910860
v 1.2420599 2.9149110 1.0157490
vn 0.9327966 -0.0020763 -0.3603974
vt 0.9967785 -3.4897327
v 1.1958100 2.9767740 0.5994013
vn -0.9334351 -0.1972271 0.2996670
vt 0.8737969 -4.0236640
v 1.1498590 3.0510590 0.5051578
vn -0.9321834 -0.1984537 0.3027380
vt 0.9967785 -4.0261202
v 1.1958100 2.4254341 0.2365342
vn -0.9237607 -0.2063683 0.3226119
vt 0.8737969 -4.6024561
v 1.1498590 2.4706149 0.1350766
vn -0.9225238 -0.2074844 0.3254229
vt 0.9967785 -4.5994830
v 1.1958100 2.2195749 0.1816881
vn -0.9354600 -0.0001061 0.3534326
vt 0.8737969 7.0882740
v 1.1498590 2.2196779 0.0600650
vn -0.9353943 -0.0001003 0.3536064
vt 0.9967785 7.0919900
v 1.1958100 -1.9409950 0.1804393
vn -0.9321001 0.0001847 0.3622008
vt 0.8737969 3.3248010
v 1.1498590 -1.9547870 0.0622563
vn -0.9320356 0.0001902 0.3623667
vt 0.9967785 3.3126960
v 1.1498590 -2.8025341 1.0486870
vn -0.9327956 -0.0020763 -0.3604001
vt 0.9967785 1.6298820
v 1.1498590 2.9149110 1.0157490
vn -0.9335674 -0.0021128 -0.3583956
vt 0.9967785 -3.4897327
v 1.1958100 -2.7872310 0.9296668
vn -0.9328060 -0.0020768 -0.3603731
vt 0.8737969 1.6221830
v 1.5131969 -2.8094411 1.1024100
vn 0.0000002 -0.1615991 0.9868565
vt 0.4597299 1.6298820
v 0.8774626 -2.8094411 1.1024100
vn 0.0000001 -0.1615995 0.9868565
vt 0.8438485 1.6298820
v 1.5131969 -3.0183871 1.0308059
vn -0.0000001 -0.5471893 0.8370089
vt 0.4597299 1.7960370
v 0.8774626 -3.0183871 1.0308059
vn -0.0000001 -0.5471892 0.8370090
vt 0.8438485 1.7960370
v 1.5131969 -3.1619799 0.8744718
vn -0.0000001 -0.9188714 0.3945572
vt 0.4597299 1.9598830
v 0.8774626 -3.1619799 0.8744717
vn 0.0000004 -0.9188708 0.3945586
vt 0.8438485 1.9598830
v 1.5131969 -3.1775119 0.6471784
vn 0.0000006 -0.9799293 -0.1993453
vt 0.4597299 2.1272950
v 0.8774626 -3.1775129 0.6471784
vn 0.0000007 -0.9799294 -0.1993451
vt 0.8438485 2.1272950
v 1.5131969 -3.0781381 0.4513578
vn 0.0000004 -0.7488980 -0.6626853
vt 0.4597299 2.2925899
v 0.8774626 -3.0781381 0.4513578
vn 0.0000000 -0.7488972 -0.6626862
vt 0.8438485 2.2925899
v 1.5131969 -2.9532659 0.3674576
vn 0.0000000 -0.4758095 -0.8795484
vt 0.4597299 2.4038210
v 0.8774626 -2.9532659 0.3674576
vn 0.0000000 -0.4758096 -0.8795483
vt 0.8438485 2.4038210
v 1.5131969 -2.0835631 -0.0004123
vn 0.0000000 -0.1987160 -0.9800571
vt 0.4597299 3.2111461
v 0.8774626 -2.0835631 -0.0004123
vn 0.0000000 -0.1987159 -0.9800571
vt 0.8438485 3.2111461
v 1.5131969 2.2250741 -0.0001272
vn 0.0000000 0.1516097 -0.9884405
vt 0.4597300 7.0923309
v 1.5131969 3.0852189 0.4618168
vn 0.0000000 0.6282214 -0.7780346
vt 0.4597299 -4.0261202
v 0.8774626 3.0852189 0.4618168
vn 0.0000002 0.6282208 -0.7780351
vt 0.8438485 -4.0261202
v 1.5131969 3.1992199 0.5770090
vn 0.0000004 0.8672197 -0.4979257
vt 0.4597299 -3.9225407
v 0.8774626 3.1992209 0.5770090
vn 0.0000003 0.8672199 -0.4979253
vt 0.8438485 -3.9225407
v 1.5131969 3.2433579 0.7414666
vn 0.0000003 0.9999982 -0.0019198
vt 0.4597299 -3.8137102
v 0.8774626 3.2433579 0.7414666
vn 0.0000000 0.9999982 -0.0019186
vt 0.8438485 -3.8137102
v 1.5131969 3.1998720 0.9060194
vn 0.0000000 0.8668603 0.4985512
vt 0.4597299 -3.7049313
v 0.8774626 3.1998720 0.9060194
vn 0.0000000 0.8668603 0.4985511
vt 0.8438485 -3.7049313
v 1.5131969 3.0791769 1.0266920
vn 0.0000000 0.5028292 0.8643858
vt 0.4597299 -3.5958462
v 0.8774626 3.0791769 1.0266920
vn 0.0000000 0.5028292 0.8643858
vt 0.8438485 -3.5958462
v 1.5131969 2.9190910 1.0707270
vn 0.0000000 0.1365515 0.9906330
vt 0.4597299 -3.4897327
v 0.8774626 2.9190910 1.0707270
vn 0.0000000 0.1365515 0.9906330
vt 0.8438485 -3.4897327
v 0.8782809 2.9149110 1.0157490
vn -0.9998894 -0.0020837 -0.0147253
vt 0.0400717 -3.4905338
v 0.8774626 2.9190910 1.0707270
vn -0.9998893 -0.0019460 -0.0147527
vt 0.0055680 -3.4905338
v 0.8782810 3.0518460 0.9786502
vn -0.9998906 -0.0074362 -0.0127832
vt 0.0400717 -3.5966649
v 0.8774626 3.0791769 1.0266920
vn -0.9998902 -0.0074240 -0.0128249
vt 0.0055680 -3.5966649
v 0.8774626 3.1998720 0.9060194
vn -0.9998890 -0.0129266 -0.0074180
vt 0.0055680 -3.7057691
v 0.8782810 3.1520820 0.8789869
vn -0.9998893 -0.0128893 -0.0074408
vt 0.0400717 -3.7057691
v 0.8782810 3.1881020 0.7414666
vn -0.9998904 -0.0148087 0.0000331
vt 0.0400717 -3.8145671
v 0.8774626 3.2433579 0.7414666
vn -0.9998900 -0.0148312 0.0000240
vt 0.0055680 -3.8145671
v 0.8782810 3.1518409 0.6050766
vn -0.9998903 -0.0128604 0.0073460
vt 0.0400717 -3.9234171
v 0.8774626 3.1992209 0.5770090
vn -0.9998896 -0.0128738 0.0074224
vt 0.0055680 -3.9234171
v 0.8774626 3.0852189 0.4618168
vn -0.9998894 -0.0092929 0.0116086
vt 0.0055680 -4.0270138
v 0.8782809 3.0510581 0.5051578
vn -0.9998901 -0.0092638 0.0115772
vt 0.0400717 -4.0270138
v 0.8782810 2.4706149 0.1350765
vn -0.9998932 -0.0061864 0.0132419
vt 0.0400717 -4.6004758
v 0.8774626 2.4932480 0.0841020
vn -0.9998924 -0.0061806 0.0133086
vt 0.0058553 -4.6004758
v 0.8782810 2.2196770 0.0600651
vn -0.9999080 -0.0020393 0.0134119
vt 0.0400717 7.0919929
v 0.8774626 2.2250741 -0.0001272
vn -0.9999073 -0.0019202 0.0134821
vt 0.0055680 7.0945778
v 0.8782810 -2.0785999 0.0624169
vn -0.9999138 0.0028514 0.0128237
vt 0.0400717 3.2115021
v 0.8774626 -3.0781381 0.4513578
vn -0.9998893 0.0110601 0.0099566
vt 0.0055680 2.2927880
v 0.8782810 -3.0391841 0.4903211
vn -0.9998891 0.0112684 0.0097375
vt 0.0400717 2.2927880
v 0.8774626 -2.9532659 0.3674576
vn -0.9998875 0.0070850 0.0132273
vt 0.0055680 2.4040380
v 0.8782810 -2.9286759 0.4160185
vn -0.9998869 0.0071403 0.0132349
vt 0.0400717 2.4040380
v 0.8774626 -3.1775129 0.6471784
vn -0.9998854 0.0148405 0.0030099
vt 0.0055680 2.1274650
v 0.8782810 -3.1245129 0.6577217
vn -0.9998855 0.0148268 0.0030328
vt 0.0400717 2.1274650
v 0.8774626 -3.1619799 0.8744717
vn -0.9998897 0.0136624 -0.0058345
vt 0.0055680 1.9600230
v 0.8782811 -3.1110771 0.8533857
vn -0.9998899 0.0136084 -0.0059150
vt 0.0400717 1.9600230
v 0.8774626 -3.0183871 1.0308059
vn -0.9998850 0.0082965 -0.0126950
vt 0.0055680 1.7961490
v 0.8782810 -2.9883659 0.9858750
vn -0.9998856 0.0082156 -0.0127008
vt 0.0400717 1.7961490
v 0.8782811 -2.8025341 1.0486870
vn -0.9998857 0.0024699 -0.0149149
vt 0.0400717 1.6299660
v 0.8774626 -2.8094411 1.1024100
vn -0.9998855 0.0023744 -0.0149470
vt 0.0055680 1.6299660
v 1.5124700 2.9149110 1.0157490
vn 0.9999128 -0.0018506 -0.0130770
vt 0.4254467 -3.4905338
v 1.5124700 3.0518460 0.9786502
vn 0.9999138 -0.0066035 -0.0113516
vt 0.4254467 -3.5966649
v 1.5131969 2.9190910 1.0707270
vn 0.9999127 -0.0017283 -0.0131013
vt 0.4599504 -3.4905338
v 1.5131969 3.0791769 1.0266920
vn 0.9999135 -0.0065925 -0.0113885
vt 0.4599504 -3.5966649
v 1.5131969 3.1998720 0.9060194
vn 0.9999124 -0.0114788 -0.0065872
vt 0.4599504 -3.7057691
v 1.5124700 3.1520820 0.8789869
vn 0.9999127 -0.0114457 -0.0066074
vt 0.4254467 -3.7057691
v 1.5131969 3.2433579 0.7414666
vn 0.9999133 -0.0131702 0.0000213
vt 0.4599504 -3.8145671
v 1.5124700 3.1881020 0.7414666
vn 0.9999136 -0.0131502 0.0000294
vt 0.4254467 -3.8145671
v 1.5124700 3.1518409 0.6050765
vn 0.9999136 -0.0114202 0.0065233
vt 0.4254467 -3.9234171
v 1.5131969 3.1992199 0.5770090
vn 0.9999129 -0.0114320 0.0065912
vt 0.4599504 -3.9234171
v 1.5124700 3.0510581 0.5051578
vn 0.9999133 -0.0082270 0.0102812
vt 0.4254467 -4.0270138
v 1.5131969 3.0852189 0.4618168
vn 0.9999128 -0.0082527 0.0103090
vt 0.4599504 -4.0270138
v 1.5124700 2.4706149 0.1350765
vn 0.9999158 -0.0054936 0.0117589
vt 0.4254467 -4.6004758
v 1.5131969 2.4932480 0.0841020
vn 0.9999151 -0.0054884 0.0118181
vt 0.4599504 -4.6004758
v 1.5131969 2.2250741 -0.0001272
vn 0.9999269 -0.0017052 0.0119721
vt 0.4599504 7.0946960
v 1.5124700 -2.0785999 0.0624169
vn 0.9999319 0.0025321 0.0113874
vt 0.4254467 3.2115021
v 1.5131969 -2.0835631 -0.0004123
vn 0.9999328 0.0021572 0.0113951
vt 0.4599504 3.2115021
v 1.5131969 -3.0781381 0.4513578
vn 0.9999127 0.0098215 0.0088415
vt 0.4599504 2.2927880
v 1.5131969 -2.9532659 0.3674576
vn 0.9999112 0.0062915 0.0117459
vt 0.4599504 2.4040380
v 1.5124700 -3.0391841 0.4903211
vn 0.9999126 0.0100064 0.0086469
vt 0.4254467 2.2927880
v 1.5124700 -2.9286759 0.4160185
vn 0.9999108 0.0063407 0.0117527
vt 0.4254467 2.4040380
v 1.5131969 -3.1775119 0.6471784
vn 0.9999096 0.0131784 0.0026728
vt 0.4599504 2.1274650
v 1.5124700 -3.1245120 0.6577216
vn 0.9999097 0.0131661 0.0026931
vt 0.4254467 2.1274650
v 1.5124700 -3.1110771 0.8533858
vn 0.9999132 0.0120826 -0.0052521
vt 0.4254467 1.9600230
v 1.5131969 -3.1619799 0.8744718
vn 0.9999130 0.0121306 -0.0051805
vt 0.4599504 1.9600230
v 1.5124700 -2.9883659 0.9858750
vn 0.9999098 0.0072956 -0.0112781
vt 0.4254467 1.7961490
v 1.5131969 -3.0183871 1.0308059
vn 0.9999093 0.0073674 -0.0112729
vt 0.4599504 1.7961490
v 1.5131969 -2.8094411 1.1024100
vn 0.9999097 0.0021082 -0.0132722
vt 0.4599504 1.6299660
v 1.5124700 -2.8025341 1.0486870
vn 0.9999099 0.0021930 -0.0132436
vt 0.4254467 1.6299660
v 0.8774626 -2.0835631 -0.0004123
vn -0.9999147 0.0024293 0.0128323
vt 0.0055680 3.2115021
v 0.8774626 2.2250741 -0.0001272
vn 0.0000000 0.1516097 -0.9884405
vt 0.8438485 -4.7996602
v 0.8774626 2.4932480 0.0841020
vn 0.0000000 0.4224372 -0.9063922
vt 0.8438485 -4.5994830
v 1.5131969 2.2250741 -0.0001272
vn 0.0000000 0.1516097 -0.9884405
vt 0.4597299 -4.7996602
v 1.5131969 2.4932480 0.0841020
vn 0.0000000 0.4224372 -0.9063922
vt 0.4597299 -4.5994830
v 1.1958100 -2.8744609 0.5230738
vn 0.9329625 0.1474240 0.3284008
vt 0.8737969 2.3950491
v 1.2420599 -2.9286759 0.4160185
vn 0.9326540 0.1476205 0.3291880
vt 0.9967785 2.4038210
v 1.1958100 -2.1784379 0.2106186
vn 0.9303312 0.1490821 0.3350498
vt 0.8737969 3.0848060
v 1.2420599 -2.2156279 0.0990493
vn 0.9300373 0.1492649 0.3357837
vt 0.9967785 3.0903561
v 1.1498590 -2.2156270 0.0990493
vn -0.9308471 0.1484296 0.3339047
vt 0.9967785 3.0903561
v 1.1498590 -2.9286759 0.4160186
vn -0.9334370 0.1467896 0.3273348
vt 0.9967785 2.4038210
v 1.1958100 -2.1784379 0.2106186
vn -0.9311377 0.1482475 0.3331744
vt 0.8737969 3.0848060
v 1.1958100 -2.8744609 0.5230738
vn -0.9337422 0.1465938 0.3265515
vt 0.8737969 2.3950491
v 0.8782810 2.2196770 0.0600651
vn 0.0000000 -0.1444541 0.9895115
vt 0.0392919 -4.7996602
v 1.5124700 2.2196770 0.0600651
vn -0.0000000 -0.1444541 0.9895115
vt 0.4254646 -4.7996602
v 0.8774626 2.2250741 -0.0001272
vn -0.9999073 -0.0019202 0.0134821
vt 0.0059602 -4.8006878
v 0.8782810 2.2196770 0.0600651
vn -0.9999080 -0.0020393 0.0134119
vt 0.0400717 -4.8006878
v 1.5124700 2.2196770 0.0600651
vn 0.9999275 -0.0018109 0.0119098
vt 0.4254467 -4.8006878
v 1.5131969 2.2250741 -0.0001272
vn 0.9999269 -0.0017052 0.0119721
vt 0.4599504 -4.8006878
v 1.2420599 2.4706149 0.1350765
vn 0.9216285 -0.2086313 0.3272214
vt 0.9967785 -4.5994830
v 1.2420599 3.0510581 0.5051578
vn 0.9313862 -0.1995751 0.3044495
vt 0.9967785 -4.0261202
v 1.1958100 2.4254341 0.2365342
vn 0.9228792 -0.2075109 0.3243969
vt 0.8737969 -4.6024561
v 1.1958100 2.9767740 0.5994013
vn 0.9326521 -0.1983436 0.3013634
vt 0.8737969 -4.0236640
v 1.1958100 -2.7872310 0.9296668
vn 0.9320037 -0.0021373 -0.3624424
vt 0.8737969 1.6221830
v 1.1958100 2.9058111 0.8960945
vn -0.9335791 -0.0021133 -0.3583654
vt 0.8737969 -3.4910860
v 0.8774626 2.2250741 -0.0001272
vn 0.0000000 0.1516097 -0.9884405
vt 0.8438485 7.0921521
v 1.5124700 2.2196770 0.0600651
vn 0.9999275 -0.0018109 0.0119098
vt 0.4254467 7.0928531

g group_96_140627890073744
f 1/1/1 2/2/2 3/3/3 
f 3/3/3 2/2/2 4/4/4 
f 5/5/5 6/6/6 1/1/1 
f 1/1/1 6/6/6 2/2/2 
f 3/3/3 4/4/4 7/7/7 
f 7/7/7 4/4/4 8/8/8 
f 7/7/7 8/8/8 9/9/9 
f 9/9/9 8/8/8 10/10/10 
f 9/9/9 10/10/10 11/11/11 
f 11/11/11 10/10/10 12/12/12 
f 11/11/11 12/12/12 13/13/13 
f 13/13/13 12/12/12 14/14/14 
f 15/15/15 16/16/16 17/17/17 
f 18/18/18 19/19/19 20/20/20 
f 20/20/20 19/19/19 21/21/21 
f 21/21/21 19/19/19 22/22/22 
f 21/21/21 22/22/22 23/23/23 
f 23/23/23 22/22/22 24/24/24 
f 23/23/23 24/24/24 25/25/25 
f 25/25/25 24/24/24 26/26/26 
f 25/25/25 26/26/26 27/27/27 
f 27/27/27 26/26/26 28/28/28 
f 27/27/27 28/28/28 29/29/29 
f 29/29/29 28/28/28 30/30/30 
f 29/29/29 30/30/30 5/5/5 
f 31/31/31 32/32/32 33/33/33 
f 33/33/33 32/32/32 34/34/34 
f 35/35/35 36/36/36 37/37/37 
f 38/38/38 39/39/39 40/40/40 
f 40/40/40 39/39/39 41/41/41 
f 42/42/42 43/43/43 44/44/44 
f 44/44/44 43/43/43 45/45/45 
f 46/46/46 47/47/47 48/48/48 
f 49/49/49 50/50/50 51/51/51 
f 51/51/51 50/50/50 52/52/52 
f 51/51/51 52/52/52 53/53/53 
f 53/53/53 52/52/52 54/54/54 
f 53/53/53 54/54/54 55/55/55 
f 55/55/55 54/54/54 56/56/56 
f 55/55/55 56/56/56 57/57/57 
f 57/57/57 56/56/56 58/58/58 
f 57/57/57 58/58/58 59/59/59 
f 59/59/59 58/58/58 60/60/60 
f 61/61/61 59/59/59 62/62/62 
f 61/61/61 62/62/62 63/63/63 
f 64/64/64 65/65/65 66/66/66 
f 66/66/66 65/65/65 67/67/67 
f 66/66/66 67/67/67 68/68/68 
f 68/68/68 67/67/67 69/69/69 
f 68/68/68 69/69/69 70/70/70 
f 70/70/70 69/69/69 71/71/71 
f 70/70/70 71/71/71 72/72/72 
f 72/72/72 71/71/71 73/73/73 
f 72/72/72 73/73/73 74/74/74 
f 74/74/74 73/73/73 75/75/75 
f 75/75/75 50/50/50 74/74/74 
f 76/76/76 77/77/77 78/78/78 
f 78/78/78 77/77/77 79/79/79 
f 80/80/80 81/81/81 79/79/79 
f 79/79/79 81/81/81 78/78/78 
f 82/82/82 81/81/81 83/83/83 
f 83/83/83 81/81/81 80/80/80 
f 82/82/82 83/83/83 84/84/84 
f 84/84/84 83/83/83 85/85/85 
f 85/85/85 86/86/86 84/84/84 
f 84/84/84 86/86/86 87/87/87 
f 87/87/87 86/86/86 88/88/88 
f 88/88/88 86/86/86 89/89/89 
f 90/90/90 91/91/91 92/92/92 
f 93/93/93 94/94/94 95/95/95 
f 95/95/95 94/94/94 96/96/96 
f 97/97/97 98/98/98 93/93/93 
f 93/93/93 98/98/98 94/94/94 
f 97/97/97 99/99/99 98/98/98 
f 98/98/98 99/99/99 100/100/100 
f 99/99/99 101/101/101 100/100/100 
f 100/100/100 101/101/101 102/102/102 
f 103/103/103 102/102/102 104/104/104 
f 104/104/104 102/102/102 101/101/101 
f 104/104/104 76/76/76 103/103/103 
f 105/105/105 106/106/106 107/107/107 
f 107/107/107 106/106/106 108/108/108 
f 109/109/109 108/108/108 110/110/110 
f 110/110/110 108/108/108 106/106/106 
f 109/109/109 110/110/110 111/111/111 
f 111/111/111 110/110/110 112/112/112 
f 112/112/112 113/113/113 111/111/111 
f 111/111/111 113/113/113 114/114/114 
f 115/115/115 116/116/116 113/113/113 
f 113/113/113 116/116/116 114/114/114 
f 115/115/115 117/117/117 116/116/116 
f 116/116/116 117/117/117 118/118/118 
f 119/119/119 120/120/120 121/121/121 
f 122/122/122 123/123/123 124/124/124 
f 124/124/124 123/123/123 125/125/125 
f 126/126/126 122/122/122 127/127/127 
f 127/127/127 122/122/122 124/124/124 
f 128/128/128 129/129/129 127/127/127 
f 127/127/127 129/129/129 126/126/126 
f 130/130/130 131/131/131 128/128/128 
f 128/128/128 131/131/131 129/129/129 
f 131/131/131 130/130/130 132/132/132 
f 132/132/132 130/130/130 133/133/133 
f 105/105/105 132/132/132 133/133/133 
f 134/134/134 95/95/95 92/92/92 
f 135/135/135 136/136/136 137/137/137 
f 137/137/137 136/136/136 138/138/138 
f 139/139/139 140/140/140 141/141/141 
f 141/141/141 140/140/140 142/142/142 
f 143/143/143 144/144/144 145/145/145 
f 145/145/145 144/144/144 146/146/146 
f 125/125/125 123/123/123 120/120/120 
f 14/14/14 147/147/147 13/13/13 
f 13/13/13 147/147/147 148/148/148 
f 89/89/89 149/149/149 88/88/88 
f 88/88/88 149/149/149 150/150/150 
f 151/151/151 152/152/152 117/117/117 
f 117/117/117 152/152/152 118/118/118 
f 153/153/153 154/154/154 155/155/155 
f 155/155/155 154/154/154 156/156/156 
f 136/136/136 65/65/65 138/138/138 
f 138/138/138 65/65/65 64/64/64 
f 16/16/16 18/18/18 17/17/17 
f 18/18/18 16/16/16 19/19/19 
f 30/30/30 6/6/6 5/5/5 
f 35/35/35 157/157/157 36/36/36 
f 47/47/47 158/158/158 48/48/48 
f 59/59/59 60/60/60 62/62/62 
f 62/62/62 159/159/159 63/63/63 
f 50/50/50 49/49/49 74/74/74 
f 91/91/91 134/134/134 92/92/92 
f 104/104/104 77/77/77 76/76/76 
f 119/119/119 160/160/160 120/120/120 
f 105/105/105 107/107/107 132/132/132 
f 95/95/95 96/96/96 92/92/92 
f 123/123/123 121/121/121 120/120/120 
