v -1.2570361 -1.0089250 0.9956359
vn 0.2003921 -0.9051395 -0.3749206
vt 0.4963260 0.2781040
v -1.2570361 -0.9194372 1.2116790
vn 0.2003929 -0.3749214 0.9051390
vt 0.4963260 0.2982610
v -1.5227331 -1.0351360 1.0589139
vn 0.1108259 -0.9923553 0.0543023
vt 0.5221950 0.2848340
v -1.5227331 -0.9827149 1.1854690
vn 0.1108267 -0.7400990 0.6633031
vt 0.5221950 0.2982610
v -1.2570361 -0.9194372 1.2116790
vn 0.2003929 -0.3749214 0.9051390
vt 0.4963260 0.2915560
v -1.5227331 -0.8561594 1.2378900
vn 0.1108267 0.0543014 0.9923552
vt 0.5221950 0.2848340
v -1.5227331 -0.9827149 1.1854690
vn 0.1108267 -0.7400990 0.6633031
vt 0.5221950 0.2982770
v -1.2570361 -0.7033935 1.1221910
vn 0.2003931 0.9051394 0.3749205
vt 0.4963260 0.2646680
v -1.5227331 -0.7296041 1.1854690
vn 0.1108265 0.6633046 0.7400976
vt 0.5221950 0.2713900
v -1.5227331 -0.6771830 1.0589130
vn 0.1108262 0.9923552 -0.0543019
vt 0.5221950 0.2579470
v -1.2570370 -0.7928817 0.9061477
vn 0.2003922 0.3749207 -0.9051394
vt 0.4963260 0.2445030
v -1.5227331 -0.7296043 0.9323580
vn 0.1108254 0.7400962 -0.6633064
vt 0.5221950 0.2445030
v -1.2570370 -0.7928817 0.9061477
vn 0.2003922 0.3749207 -0.9051394
vt 0.4963260 0.2512090
v -1.5227331 -0.8561594 0.8799374
vn 0.1108264 -0.0543013 -0.9923552
vt 0.5221950 0.2579310
v -1.5227331 -0.7296043 0.9323580
vn 0.1108254 0.7400962 -0.6633064
vt 0.5221950 0.2444870
v -1.5227331 -0.9827151 0.9323580
vn 0.1108269 -0.6633053 -0.7400970
vt 0.5221950 0.2713740
v -1.5227331 -1.0351360 1.0589139
vn -1.0000000 0.0000023 0.0000009
vt 0.4112980 0.2255520
v -1.5227331 -0.9827149 1.1854690
vn -1.0000000 0.0000016 0.0000007
vt 0.4164020 0.2379720
v -1.5227331 -0.9827151 0.9323580
vn -1.0000000 0.0000031 0.0000009
vt 0.4164020 0.2131310
v -1.5227331 -0.8561594 0.8799374
vn -1.0000000 0.0000012 0.0000001
vt 0.4287240 0.2079870
v -1.5227331 -0.7296043 0.9323580
vn -1.0000000 0.0000012 0.0000008
vt 0.4410460 0.2131310
v -1.5227331 -0.6771830 1.0589130
vn -1.0000000 0.0000019 0.0000007
vt 0.4461500 0.2255520
v -1.5227331 -0.7296041 1.1854690
vn -1.0000000 0.0000009 -0.0000009
vt 0.4410460 0.2379720
v -1.5227331 -0.8561594 1.2378900
vn -1.0000000 0.0000009 0.0000023
vt 0.4287240 0.2431170

g group_64546544_140627934873008
f 1/1/1 2/2/2 3/3/3 
f 2/2/2 4/4/4 3/3/3 
f 5/5/5 6/6/6 7/7/7 
f 5/5/5 8/8/8 6/6/6 
f 8/8/8 9/9/9 6/6/6 
f 8/8/8 10/10/10 9/9/9 
f 8/8/8 11/11/11 10/10/10 
f 11/11/11 12/12/12 10/10/10 
f 13/13/13 14/14/14 15/15/15 
f 13/13/13 1/1/1 14/14/14 
f 1/1/1 16/16/16 14/14/14 
f 1/1/1 3/3/3 16/16/16 
f 17/17/17 18/18/18 19/19/19 
f 19/19/19 18/18/18 20/20/20 
f 20/20/20 18/18/18 21/21/21 
f 21/21/21 18/18/18 22/22/22 
f 22/22/22 18/18/18 23/23/23 
f 23/23/23 18/18/18 24/24/24 
