v -1.7150550 -1.9376060 0.0007438
vn 0.0000001 -0.1538548 -0.9880935
vt -0.5689960 2.4535890
v -1.7150550 1.9376060 -0.0007438
vn 0.0000001 0.2536530 -0.9672953
vt -0.5689960 5.5000000
v -1.1021529 -1.9376060 0.0007438
vn 0.0000001 -0.1538548 -0.9880935
vt -0.9922130 2.4535890
v -1.1021529 1.9376060 -0.0007437
vn 0.0000001 0.2536531 -0.9672953
vt -0.9922130 5.5000000
v -1.7150550 -2.9649539 0.5032342
vn 0.0000002 -0.7338803 -0.6792789
vt -0.5689960 1.5060040
v -1.7150550 -2.8289580 0.4078236
vn 0.0000001 -0.5166686 -0.8561855
vt -0.5689960 1.6284600
v -1.1021529 -2.9649539 0.5032345
vn 0.0000000 -0.7338808 -0.6792783
vt -0.9922130 1.5060040
v -1.1021529 -2.8289580 0.4078236
vn 0.0000001 -0.5166687 -0.8561854
vt -0.9922130 1.6284600
v -1.7150550 -3.0455511 0.6393701
vn 0.0000001 -0.9461882 -0.3236171
vt -0.5689960 1.3926140
v -1.1021529 -3.0455511 0.6393703
vn 0.0000000 -0.9461883 -0.3236167
vt -0.9922130 1.3926140
v -1.7150550 -3.0638881 0.7858256
vn 0.0000000 -0.9930865 0.1173849
vt -0.5689960 1.2886680
v -1.1021529 -3.0638881 0.7858256
vn 0.0000000 -0.9930865 0.1173849
vt -0.9922130 1.2886680
v -1.7150550 -3.0054140 0.9412360
vn 0.0000003 -0.8309650 0.5563247
vt -0.5689960 1.1762480
v -1.1021529 -3.0054140 0.9412360
vn 0.0000000 -0.8309646 0.5563254
vt -0.9922130 1.1762480
v -1.7150550 -2.8854330 1.0531790
vn 0.0000001 -0.5221550 0.8528506
vt -0.5689960 1.0680400
v -1.1021529 -2.8854320 1.0531790
vn 0.0000002 -0.5221549 0.8528507
vt -0.9922130 1.0680400
v -1.7150550 -2.7280231 1.1102810
vn -0.0000004 -0.2528773 0.9674984
vt -0.5689960 0.9549130
v -1.1021529 -2.7280231 1.1102810
vn -0.0000002 -0.2528783 0.9674981
vt -0.9922130 0.9549130
v -1.7150550 -1.5992481 1.2962790
vn 0.0000000 -0.0842821 0.9964420
vt -0.5689960 0.0518030
v -1.1021529 -1.5992481 1.2962790
vn -0.0000001 -0.0842821 0.9964420
vt -0.9922130 0.0518030
v -1.1021529 2.3967841 1.3180720
vn 0.0000000 0.1009742 0.9948891
vt -0.9922130 -3.0705581
v -1.7150550 2.3967841 1.3180720
vn -0.0000000 0.1009742 0.9948891
vt -0.5689960 -3.0705581
v -1.7150550 2.5926731 1.2767810
vn -0.0000002 0.4540372 0.8909827
vt -0.5689960 -3.2167158
v -1.1021529 2.5926740 1.2767810
vn -0.0000003 0.4540378 0.8909824
vt -0.9922130 -3.2167158
v -1.7150550 2.7568221 1.1284460
vn -0.0000002 0.8529134 0.5220525
vt -0.5689960 -3.3775530
v -1.1021529 2.7568221 1.1284460
vn -0.0000005 0.8529138 0.5220519
vt -0.9922130 -3.3775530
v -1.7150550 2.8145909 0.9134933
vn 0.0000001 0.9999613 0.0088044
vt -0.5689960 -3.5297141
v -1.1021529 2.8145909 0.9134934
vn -0.0000001 0.9999613 0.0088037
vt -0.9922130 -3.5297141
v -1.7150550 2.7605560 0.6973176
vn 0.0000003 0.8732684 -0.4872396
vt -0.5689960 -3.6786127
v -1.1021529 2.7605560 0.6973177
vn 0.0000003 0.8732683 -0.4872397
vt -0.9922130 -3.6786127
v -1.7150550 2.6121359 0.5451435
vn 0.0000001 0.6921226 -0.7217799
vt -0.5689960 -3.8286271
v -1.1021529 2.6121359 0.5451437
vn 0.0000002 0.6921229 -0.7217797
vt -0.9922130 -3.8286271
v -1.7150550 1.9376060 -0.0007438
vn 0.0000001 0.2536530 -0.9672953
vt -0.5689960 -4.5000000
v -1.7150550 2.1146059 0.0990293
vn 0.0000001 0.5827672 -0.8126392
vt -0.5689960 -4.3623071
v -1.1021529 1.9376060 -0.0007437
vn 0.0000001 0.2536531 -0.9672953
vt -0.9922130 -4.5000000
v -1.1021529 2.1146059 0.0990294
vn 0.0000001 0.5827672 -0.8126392
vt -0.9922130 -4.3623071
v -1.1021529 1.9327540 0.0816591
vn -0.0000000 -0.2710497 0.9625654
vt -0.1280960 5.5000000
v -1.7150550 1.9327540 0.0816590
vn -0.0000001 -0.2710501 0.9625652
vt -0.5165050 5.5000000
v -1.1021529 -1.9246310 0.0833641
vn -0.0000000 0.1501228 0.9886674
vt -0.1280960 2.4535890
v -1.7150550 -1.9246310 0.0833641
vn -0.0000000 0.1501228 0.9886674
vt -0.5165050 2.4535890
v -1.1021529 -2.1527450 0.1541637
vn -0.0000000 0.3729817 0.9278387
vt -0.1280960 2.2482951
v -1.7150550 -2.1527450 0.1541636
vn -0.0000000 0.3729817 0.9278387
vt -0.5165050 2.2482951
v -1.1021529 -2.9028029 0.5561885
vn -0.0000001 0.7502832 0.6611166
vt -0.1280960 1.5060040
v -1.7150550 -2.9028029 0.5561883
vn -0.0000001 0.7502830 0.6611168
vt -0.5165050 1.5060040
v -1.1021529 -2.9633951 0.6636373
vn -0.0000001 0.9499980 0.3122559
vt -0.1280960 1.3926140
v -1.7150550 -2.9633951 0.6636372
vn -0.0000001 0.9499980 0.3122559
vt -0.5165050 1.3926140
v -1.1021529 -2.9775219 0.7791688
vn -0.0000001 0.9928126 -0.1196793
vt -0.1280960 1.2886680
v -1.7150550 -2.9775219 0.7791690
vn 0.0000000 0.9928126 -0.1196797
vt -0.5165050 1.2886680
v -1.1021529 -2.9309189 0.9023797
vn -0.0000000 0.8303981 -0.5571706
vt -0.1280960 1.1762480
v -1.7150550 -2.9309189 0.9023797
vn 0.0000000 0.8303980 -0.5571707
vt -0.5165050 1.1762480
v -1.1021529 -2.8363070 0.9906000
vn 0.0000000 0.5203203 -0.8539712
vt -0.1280960 1.0680400
v -1.7150550 -2.8363070 0.9906000
vn 0.0000001 0.5203201 -0.8539713
vt -0.5165050 1.0680400
v -1.1021529 -2.7091441 1.0361550
vn 0.0000000 0.2470145 -0.9690118
vt -0.1280960 0.9549130
v -1.7150550 -2.7091441 1.0361550
vn 0.0000001 0.2470142 -0.9690119
vt -0.5165050 0.9549130
v -1.1021529 -1.6006120 1.2095890
vn 0.0000000 0.0803399 -0.9967676
vt -0.1280960 0.0518030
v -1.7150550 -1.6006120 1.2095890
vn 0.0000000 0.0803399 -0.9967675
vt -0.5165050 0.0518030
v -1.7150550 2.3852701 1.2321399
vn -0.0000001 -0.0896906 -0.9959697
vt -0.5165050 -3.0705581
v -1.1021529 2.3852701 1.2321399
vn 0.0000000 -0.0896908 -0.9959697
vt -0.1280960 -3.0705581
v -1.1021529 2.5501201 1.2012420
vn -0.0000001 -0.4389213 -0.8985255
vt -0.1280960 -3.2167158
v -1.7150550 2.5501201 1.2012420
vn -0.0000000 -0.4389215 -0.8985254
vt -0.5165050 -3.2167158
v -1.1021529 2.6818709 1.0848660
vn 0.0000002 -0.8502957 -0.5263052
vt -0.1280960 -3.3775530
v -1.7150550 2.6818700 1.0848660
vn 0.0000004 -0.8502961 -0.5263047
vt -0.5165050 -3.3775530
v -1.1021529 2.7278950 0.9127013
vn 0.0000004 -0.9999583 -0.0091349
vt -0.1280960 -3.5297141
v -1.7150550 2.7278950 0.9127012
vn -0.0000001 -0.9999583 -0.0091363
vt -0.5165050 -3.5297141
v -1.1021529 2.6850941 0.7400080
vn -0.0000002 -0.8703735 0.4923922
vt -0.1280960 -3.6786127
v -1.7150550 2.6850941 0.7400080
vn -0.0000005 -0.8703740 0.4923912
vt -0.5165050 -3.6786127
v -1.1021529 2.5557301 0.6109867
vn -0.0000003 -0.6897936 0.7240061
vt -0.1280960 -3.8286271
v -1.7150550 2.5557301 0.6109866
vn -0.0000000 -0.6897932 0.7240065
vt -0.5165050 -3.8286271
v -1.1021529 2.0590589 0.1589945
vn 0.0000000 -0.6002971 0.7997772
vt -0.1280960 -4.3623071
v -1.7150550 2.0590589 0.1589946
vn -0.0000000 -0.6002973 0.7997770
vt -0.5165050 -4.3623071
v -1.7150550 1.9327540 0.0816590
vn -1.0000000 0.0000000 0.0000000
vt -0.5165050 5.5000000
v -1.7150550 1.9376060 -0.0007438
vn -1.0000000 0.0000000 0.0000000
vt -0.5689960 5.5000000
v -1.7150550 -1.9246310 0.0833641
vn -1.0000000 0.0000000 0.0000000
vt -0.5165050 2.4535890
v -1.7150550 -1.9376060 0.0007438
vn -1.0000000 0.0000000 0.0000000
vt -0.5689960 2.4535890
v -1.7150550 -2.1527450 0.1541636
vn -1.0000000 0.0000000 0.0000000
vt -0.5165050 2.2482951
v -1.7150550 -2.1965001 0.0832617
vn -1.0000000 0.0000000 0.0000000
vt -0.5689960 2.2482951
v -1.7150550 -2.9028029 0.5561883
vn -1.0000000 0.0000000 0.0000000
vt -0.5165050 1.5060040
v -1.7150550 -2.9649539 0.5032342
vn -1.0000000 0.0000000 0.0000000
vt -0.5689960 1.5060040
v -1.7150550 -2.9633951 0.6636372
vn -1.0000000 0.0000000 0.0000000
vt -0.5165050 1.3926140
v -1.7150550 -3.0455511 0.6393701
vn -1.0000000 0.0000000 0.0000000
vt -0.5689960 1.3926140
v -1.7150550 -2.9775219 0.7791690
vn -1.0000000 0.0000000 0.0000000
vt -0.5165050 1.2886680
v -1.7150550 -3.0638881 0.7858256
vn -1.0000000 0.0000000 0.0000000
vt -0.5689960 1.2886680
v -1.7150550 -3.0054140 0.9412360
vn -1.0000000 0.0000000 0.0000000
vt -0.5689960 1.1762480
v -1.7150550 -2.9309189 0.9023797
vn -1.0000000 0.0000000 0.0000000
vt -0.5165050 1.1762480
v -1.7150550 -2.8854330 1.0531790
vn -1.0000000 0.0000000 0.0000000
vt -0.5689960 1.0680400
v -1.7150550 -2.8363070 0.9906000
vn -1.0000000 0.0000000 0.0000000
vt -0.5165050 1.0680400
v -1.7150550 -2.7280231 1.1102810
vn -1.0000000 0.0000000 -0.0000000
vt -0.5689960 0.9549130
v -1.7150550 -2.7091441 1.0361550
vn -1.0000000 0.0000000 0.0000000
vt -0.5165050 0.9549130
v -1.7150550 -1.6006120 1.2095890
vn -1.0000000 0.0000001 -0.0000013
vt -0.5165050 0.0518030
v -1.7150550 -1.5992481 1.2962790
vn -1.0000000 0.0000000 -0.0000014
vt -0.5689960 0.0518030
v -1.7150550 2.3852701 1.2321399
vn -1.0000000 0.0000003 -0.0000001
vt -0.5165050 -3.0705581
v -1.7150550 2.3967841 1.3180720
vn -1.0000000 0.0000002 -0.0000002
vt -0.5689960 -3.0705581
v -1.7150550 2.5501201 1.2012420
vn -1.0000000 -0.0000005 -0.0000011
vt -0.5165050 -3.2167158
v -1.7150550 2.5926731 1.2767810
vn -1.0000000 -0.0000006 -0.0000012
vt -0.5689960 -3.2167158
v -1.7150550 2.6818700 1.0848660
vn -1.0000000 -0.0000012 -0.0000007
vt -0.5165050 -3.3775530
v -1.7150550 2.7568221 1.1284460
vn -1.0000000 -0.0000012 -0.0000007
vt -0.5689960 -3.3775530
v -1.7150550 2.8145909 0.9134933
vn -1.0000000 -0.0000014 -0.0000000
vt -0.5689960 -3.5297141
v -1.7150550 2.7278950 0.9127012
vn -1.0000000 -0.0000014 -0.0000000
vt -0.5165050 -3.5297141
v -1.7150550 2.6850941 0.7400080
vn -1.0000000 -0.0000012 0.0000007
vt -0.5165050 -3.6786127
v -1.7150550 2.7605560 0.6973176
vn -1.0000000 -0.0000012 0.0000007
vt -0.5689960 -3.6786127
v -1.7150550 2.6121359 0.5451435
vn -1.0000000 -0.0000009 0.0000010
vt -0.5689960 -3.8286271
v -1.7150550 2.5557301 0.6109866
vn -1.0000000 -0.0000010 0.0000010
vt -0.5165050 -3.8286271
v -1.7150550 2.0590589 0.1589946
vn -1.0000000 -0.0000001 -0.0000000
vt -0.5165050 -4.3623071
v -1.7150550 2.1146059 0.0990293
vn -1.0000000 -0.0000001 -0.0000001
vt -0.5689960 -4.3623071
v -1.7150550 -2.1965001 0.0832617
vn 0.0000001 -0.3814299 -0.9243978
vt -0.5689960 2.2482951
v -1.1021529 -2.1965001 0.0832617
vn 0.0000001 -0.3814299 -0.9243978
vt -0.9922130 2.2482951
v -1.7150550 -2.7916751 0.4735092
vn -0.0000001 0.5240272 0.8517015
vt -0.5165050 1.6284600
v -1.1021529 -2.7916751 0.4735093
vn -0.0000001 0.5240275 0.8517014
vt -0.1280960 1.6284600
v -1.7150550 -2.7916751 0.4735092
vn -1.0000000 0.0000000 0.0000000
vt -0.5165050 1.6284600
v -1.7150550 -2.8289580 0.4078236
vn -1.0000000 0.0000000 0.0000000
vt -0.5689960 1.6284600
v -1.3944110 1.9162390 0.2001784
vn -0.9827750 0.0002592 0.1848058
vt 0.9827850 5.5000000
v -1.4166940 1.9327540 0.0816590
vn -0.9827979 0.0002552 0.1846843
vt 0.8720510 5.5000000
v -1.3944110 -1.9055980 0.2055394
vn -0.9837552 0.0000828 0.1795154
vt 0.9827850 2.3537681
v -1.4166950 -1.9246320 0.0833641
vn -0.9837731 0.0000795 0.1794170
vt 0.8720510 2.3351331
v -1.3944110 -2.0913351 0.2626929
vn -0.9843318 0.0759441 0.1591330
vt 0.9827850 2.1710491
v -1.4166950 -2.1527450 0.1541636
vn -0.9839846 0.0770994 0.1607170
vt 0.8720510 2.1594241
v -1.3944110 -2.7187531 0.5621197
vn -0.9814374 0.0975040 0.1651471
vt 0.9827850 1.5685420
v -1.4166950 -2.7916760 0.4735092
vn -0.9811499 0.1016840 0.1643327
vt 0.8720510 1.5498010
v -1.3944110 -2.8045011 0.6234001
vn -0.9812546 0.1136900 0.1556083
vt 0.9827850 1.4603820
v -1.4166950 -2.9028039 0.5561882
vn -0.9809753 0.1158801 0.1557541
vt 0.8720510 1.4506990
v -1.3944110 -2.6819921 0.9295412
vn -0.9798772 0.0284361 -0.1975653
vt 0.9827850 1.0315980
v -1.4166950 -2.7091451 1.0361550
vn -0.9802049 0.0283713 -0.1959426
vt 0.8720510 1.0382310
v -1.3944110 -1.6025749 1.0849050
vn -0.9841321 0.0150608 -0.1767975
vt 0.9827850 0.0626390
v -1.4166950 -1.6006120 1.2095890
vn -0.9842733 0.0134761 -0.1761376
vt 0.8720510 0.0562740
v -1.3944110 2.3687091 1.1085440
vn -0.9841155 0.0010055 -0.1775264
vt 0.9827850 -3.2828870
v -1.4166940 2.3852689 1.2321399
vn -0.9841101 0.0010047 -0.1775564
vt 0.8720510 -3.2957392
v -1.3944110 2.4746020 0.7056882
vn -0.9843809 -0.1200133 0.1288064
vt 0.9827850 -3.8419809
v -1.4166940 2.5557301 0.6109866
vn -0.9841556 -0.1206930 0.1298887
vt 0.8720510 -3.8472328
v -1.3944110 1.9797471 0.2446153
vn -0.9825155 -0.1254918 0.1375328
vt 0.9827850 -4.4062858
v -1.4166940 2.0590589 0.1589946
vn -0.9822566 -0.1262268 0.1387041
vt 0.8720510 -4.4000959
v -1.1021529 -1.9376060 0.0007438
vn 1.0000000 0.0000000 0.0000000
vt -0.5689960 2.4535890
v -1.1021529 1.9376060 -0.0007437
vn 1.0000000 0.0000000 0.0000000
vt -0.5689960 5.5000000
v -1.1021529 -1.9246310 0.0833641
vn 1.0000000 0.0000000 0.0000000
vt -0.5165050 2.4535890
v -1.1021529 1.9327540 0.0816591
vn 1.0000000 0.0000000 0.0000000
vt -0.5165050 5.5000000
v -1.1021529 -2.1965001 0.0832617
vn 1.0000000 0.0000000 0.0000000
vt -0.5689960 2.2482951
v -1.1021529 -2.1527450 0.1541637
vn 1.0000000 0.0000000 0.0000000
vt -0.5165050 2.2482951
v -1.1021529 -3.0455511 0.6393703
vn 1.0000000 0.0000000 0.0000000
vt -0.5689960 1.3926140
v -1.1021529 -2.9649539 0.5032345
vn 1.0000000 0.0000000 0.0000000
vt -0.5689960 1.5060040
v -1.1021529 -2.9633951 0.6636373
vn 1.0000000 0.0000000 0.0000000
vt -0.5165050 1.3926140
v -1.1021529 -2.9028029 0.5561885
vn 1.0000000 0.0000000 0.0000000
vt -0.5165050 1.5060040
v -1.1021529 -3.0638881 0.7858256
vn 1.0000000 0.0000000 0.0000000
vt -0.5689960 1.2886680
v -1.1021529 -2.9775219 0.7791688
vn 1.0000000 0.0000000 0.0000000
vt -0.5165050 1.2886680
v -1.1021529 -3.0054140 0.9412360
vn 1.0000000 0.0000000 0.0000000
vt -0.5689960 1.1762480
v -1.1021529 -2.9309189 0.9023797
vn 1.0000000 0.0000000 0.0000000
vt -0.5165050 1.1762480
v -1.1021529 -2.8854320 1.0531790
vn 1.0000000 0.0000000 0.0000000
vt -0.5689960 1.0680400
v -1.1021529 -2.8363070 0.9906000
vn 1.0000000 0.0000000 0.0000000
vt -0.5165050 1.0680400
v -1.1021529 2.7568221 1.1284460
vn 1.0000000 0.0000000 0.0000000
vt -0.5689960 -3.3775530
v -1.1021529 2.5926740 1.2767810
vn 1.0000000 0.0000000 0.0000000
vt -0.5689960 -3.2167158
v -1.1021529 2.6818709 1.0848660
vn 1.0000000 0.0000000 0.0000000
vt -0.5165050 -3.3775530
v -1.1021529 2.5501201 1.2012420
vn 1.0000000 0.0000000 0.0000000
vt -0.5165050 -3.2167158
v -1.1021529 2.8145909 0.9134934
vn 1.0000000 0.0000000 0.0000000
vt -0.5689960 -3.5297141
v -1.1021529 2.7278950 0.9127013
vn 1.0000000 0.0000000 0.0000000
vt -0.5165050 -3.5297141
v -1.1021529 2.7605560 0.6973177
vn 1.0000000 0.0000000 0.0000000
vt -0.5689960 -3.6786127
v -1.1021529 2.6850941 0.7400080
vn 1.0000000 0.0000000 0.0000000
vt -0.5165050 -3.6786127
v -1.1021529 2.6121359 0.5451437
vn 1.0000000 0.0000000 0.0000000
vt -0.5689960 -3.8286271
v -1.1021529 2.5557301 0.6109867
vn 1.0000000 0.0000000 0.0000000
vt -0.5165050 -3.8286271
v -1.1021529 2.1146059 0.0990294
vn 1.0000000 0.0000000 0.0000000
vt -0.5689960 -4.3623071
v -1.1021529 2.0590589 0.1589945
vn 1.0000000 0.0000000 0.0000000
vt -0.5165050 -4.3623071
v -1.1021529 -2.8289580 0.4078236
vn 1.0000000 0.0000000 0.0000000
vt -0.5689960 1.6284600
v -1.1021529 -2.7916751 0.4735093
vn 1.0000000 0.0000000 0.0000000
vt -0.5165050 1.6284600
v -1.3721280 -1.9246320 0.0833641
vn 0.9837728 0.0000796 0.1794189
vt 0.8720510 2.3351340
v -1.3721290 1.9327540 0.0816590
vn 0.9827979 0.0002552 0.1846843
vt 0.8720510 5.5000000
v -1.3944110 -1.9055980 0.2055394
vn 0.9837549 0.0000829 0.1795172
vt 0.9827850 2.3537681
v -1.3944110 1.9162390 0.2001784
vn 0.9827750 0.0002592 0.1848058
vt 0.9827850 5.5000000
v -1.3721271 -2.7916760 0.4735092
vn 0.9811497 0.1016856 0.1643328
vt 0.8720510 1.5498010
v -1.3721280 -2.1527460 0.1541637
vn 0.9839844 0.0771000 0.1607182
vt 0.8720510 2.1594231
v -1.3944110 -2.7187531 0.5621197
vn 0.9814373 0.0975052 0.1651474
vt 0.9827850 1.5685420
v -1.3944110 -2.0913351 0.2626929
vn 0.9843316 0.0759446 0.1591342
vt 0.9827850 2.1710491
v -1.3721271 -2.9028029 0.5561882
vn 0.9809750 0.1158829 0.1557536
vt 0.8720510 1.4506990
v -1.3944110 -2.8045011 0.6234001
vn 0.9812545 0.1136926 0.1556077
vt 0.9827850 1.4603820
v -1.3721290 2.0590589 0.1589946
vn 0.9822566 -0.1262269 0.1387040
vt 0.8720510 -4.4000969
v -1.3721290 2.5557301 0.6109866
vn 0.9841554 -0.1206935 0.1298893
vt 0.8720510 -3.8472319
v -1.3944110 1.9797471 0.2446153
vn 0.9825154 -0.1254920 0.1375328
vt 0.9827850 -4.4062858
v -1.3944110 2.4746020 0.7056882
vn 0.9843807 -0.1200139 0.1288071
vt 0.9827850 -3.8419809
v -1.1021529 1.9327540 0.0816591
vn -0.0000000 -0.2710497 0.9625654
vt -0.1280960 -4.5000000
v -1.7150550 1.9327540 0.0816590
vn -0.0000001 -0.2710501 0.9625652
vt -0.5165050 -4.5000000
v -1.7150550 1.9327540 0.0816590
vn -1.0000000 0.0000000 0.0000000
vt -0.5165050 -4.5000000
v -1.7150550 1.9376060 -0.0007438
vn -1.0000000 0.0000000 0.0000000
vt -0.5689960 -4.5000000
v -1.1021529 1.9376060 -0.0007437
vn 1.0000000 0.0000000 0.0000000
vt -0.5689960 -4.5000000
v -1.1021529 1.9327540 0.0816591
vn 1.0000000 0.0000000 0.0000000
vt -0.5165050 -4.5000000

g group_64549904_140627934878192
f 1/1/1 2/2/2 3/3/3 
f 2/2/2 4/4/4 3/3/3 
f 5/5/5 6/6/6 7/7/7 
f 6/6/6 8/8/8 7/7/7 
f 9/9/9 5/5/5 10/10/10 
f 5/5/5 7/7/7 10/10/10 
f 11/11/11 9/9/9 12/12/12 
f 9/9/9 10/10/10 12/12/12 
f 13/13/13 11/11/11 14/14/14 
f 11/11/11 12/12/12 14/14/14 
f 15/15/15 13/13/13 16/16/16 
f 13/13/13 14/14/14 16/16/16 
f 17/17/17 15/15/15 18/18/18 
f 15/15/15 16/16/16 18/18/18 
f 19/19/19 17/17/17 20/20/20 
f 17/17/17 18/18/18 20/20/20 
f 21/21/21 22/22/22 19/19/19 
f 19/19/19 20/20/20 21/21/21 
f 23/23/23 22/22/22 24/24/24 
f 22/22/22 21/21/21 24/24/24 
f 25/25/25 23/23/23 26/26/26 
f 23/23/23 24/24/24 26/26/26 
f 27/27/27 25/25/25 28/28/28 
f 25/25/25 26/26/26 28/28/28 
f 29/29/29 27/27/27 30/30/30 
f 27/27/27 28/28/28 30/30/30 
f 31/31/31 29/29/29 32/32/32 
f 29/29/29 30/30/30 32/32/32 
f 33/33/33 34/34/34 35/35/35 
f 34/34/34 36/36/36 35/35/35 
f 37/37/37 38/38/38 39/39/39 
f 38/38/38 40/40/40 39/39/39 
f 39/39/39 40/40/40 41/41/41 
f 40/40/40 42/42/42 41/41/41 
f 43/43/43 44/44/44 45/45/45 
f 44/44/44 46/46/46 45/45/45 
f 45/45/45 46/46/46 47/47/47 
f 46/46/46 48/48/48 47/47/47 
f 47/47/47 48/48/48 49/49/49 
f 48/48/48 50/50/50 49/49/49 
f 49/49/49 50/50/50 51/51/51 
f 50/50/50 52/52/52 51/51/51 
f 51/51/51 52/52/52 53/53/53 
f 52/52/52 54/54/54 53/53/53 
f 53/53/53 54/54/54 55/55/55 
f 54/54/54 56/56/56 55/55/55 
f 56/56/56 57/57/57 58/58/58 
f 58/58/58 55/55/55 56/56/56 
f 58/58/58 57/57/57 59/59/59 
f 57/57/57 60/60/60 59/59/59 
f 59/59/59 60/60/60 61/61/61 
f 60/60/60 62/62/62 61/61/61 
f 61/61/61 62/62/62 63/63/63 
f 62/62/62 64/64/64 63/63/63 
f 63/63/63 64/64/64 65/65/65 
f 64/64/64 66/66/66 65/65/65 
f 65/65/65 66/66/66 67/67/67 
f 66/66/66 68/68/68 67/67/67 
f 67/67/67 68/68/68 69/69/69 
f 68/68/68 70/70/70 69/69/69 
f 71/71/71 72/72/72 73/73/73 
f 72/72/72 74/74/74 73/73/73 
f 73/73/73 74/74/74 75/75/75 
f 74/74/74 76/76/76 75/75/75 
f 77/77/77 78/78/78 79/79/79 
f 78/78/78 80/80/80 79/79/79 
f 79/79/79 80/80/80 81/81/81 
f 80/80/80 82/82/82 81/81/81 
f 82/82/82 83/83/83 81/81/81 
f 83/83/83 84/84/84 81/81/81 
f 83/83/83 85/85/85 84/84/84 
f 85/85/85 86/86/86 84/84/84 
f 85/85/85 87/87/87 86/86/86 
f 87/87/87 88/88/88 86/86/86 
f 88/88/88 87/87/87 89/89/89 
f 87/87/87 90/90/90 89/89/89 
f 91/91/91 89/89/89 90/90/90 
f 90/90/90 92/92/92 91/91/91 
f 91/91/91 92/92/92 93/93/93 
f 92/92/92 94/94/94 93/93/93 
f 93/93/93 94/94/94 95/95/95 
f 94/94/94 96/96/96 95/95/95 
f 96/96/96 97/97/97 95/95/95 
f 97/97/97 98/98/98 95/95/95 
f 98/98/98 97/97/97 99/99/99 
f 97/97/97 100/100/100 99/99/99 
f 100/100/100 101/101/101 99/99/99 
f 101/101/101 102/102/102 99/99/99 
f 102/102/102 101/101/101 103/103/103 
f 101/101/101 104/104/104 103/103/103 
f 6/6/6 105/105/105 8/8/8 
f 105/105/105 106/106/106 8/8/8 
f 107/107/107 44/44/44 108/108/108 
f 44/44/44 43/43/43 108/108/108 
f 109/109/109 110/110/110 77/77/77 
f 110/110/110 78/78/78 77/77/77 
f 42/42/42 107/107/107 41/41/41 
f 107/107/107 108/108/108 41/41/41 
f 75/75/75 76/76/76 109/109/109 
f 76/76/76 110/110/110 109/109/109 
f 105/105/105 1/1/1 106/106/106 
f 1/1/1 3/3/3 106/106/106 
f 111/111/111 112/112/112 113/113/113 
f 112/112/112 114/114/114 113/113/113 
f 115/115/115 116/116/116 117/117/117 
f 116/116/116 118/118/118 117/117/117 
f 117/117/117 118/118/118 119/119/119 
f 118/118/118 120/120/120 119/119/119 
f 121/121/121 122/122/122 123/123/123 
f 122/122/122 124/124/124 123/123/123 
f 125/125/125 123/123/123 124/124/124 
f 124/124/124 126/126/126 125/125/125 
f 127/127/127 128/128/128 129/129/129 
f 128/128/128 130/130/130 129/129/129 
f 131/131/131 132/132/132 133/133/133 
f 132/132/132 134/134/134 133/133/133 
f 135/135/135 131/131/131 136/136/136 
f 131/131/131 133/133/133 136/136/136 
f 137/137/137 138/138/138 139/139/139 
f 138/138/138 140/140/140 139/139/139 
f 141/141/141 137/137/137 142/142/142 
f 137/137/137 139/139/139 142/142/142 
f 141/141/141 142/142/142 143/143/143 
f 142/142/142 144/144/144 143/143/143 
f 143/143/143 144/144/144 145/145/145 
f 144/144/144 146/146/146 145/145/145 
f 147/147/147 148/148/148 149/149/149 
f 148/148/148 150/150/150 149/149/149 
f 147/147/147 149/149/149 151/151/151 
f 149/149/149 152/152/152 151/151/151 
f 153/153/153 151/151/151 154/154/154 
f 151/151/151 152/152/152 154/154/154 
f 153/153/153 154/154/154 155/155/155 
f 154/154/154 156/156/156 155/155/155 
f 157/157/157 155/155/155 158/158/158 
f 155/155/155 156/156/156 158/158/158 
f 138/138/138 159/159/159 140/140/140 
f 159/159/159 160/160/160 140/140/140 
f 159/159/159 135/135/135 160/160/160 
f 135/135/135 136/136/136 160/160/160 
f 161/161/161 162/162/162 163/163/163 
f 162/162/162 164/164/164 163/163/163 
f 165/165/165 166/166/166 167/167/167 
f 166/166/166 168/168/168 167/167/167 
f 169/169/169 165/165/165 170/170/170 
f 165/165/165 167/167/167 170/170/170 
f 171/171/171 172/172/172 173/173/173 
f 172/172/172 174/174/174 173/173/173 
f 36/36/36 34/34/34 32/32/32 
f 34/34/34 31/31/31 32/32/32 
f 69/69/69 70/70/70 175/175/175 
f 70/70/70 176/176/176 175/175/175 
f 103/103/103 104/104/104 177/177/177 
f 104/104/104 178/178/178 177/177/177 
f 179/179/179 157/157/157 180/180/180 
f 157/157/157 158/158/158 180/180/180 
