v 1.2167610 -2.2863770 0.4050673
vn 0.0000000 -1.0000000 0.0000009
vt 0.1059590 0.7869030
v 1.5897620 -2.2863770 0.4050673
vn 0.0000000 -1.0000000 0.0000010
vt 0.0691550 0.7869030
v 1.2167610 -2.2204521 0.6079654
vn 0.0000000 -0.8090168 0.5877855
vt 0.1059590 0.8081680
v 1.5897620 -2.2204521 0.6079654
vn 0.0000000 -0.8090170 0.5877852
vt 0.0691550 0.8081680
v 1.2167610 -2.0478561 0.7333632
vn 0.0000000 -0.3090169 0.9510565
vt 0.1059590 0.8294360
v 1.5897609 -2.0478561 0.7333632
vn 0.0000000 -0.3090170 0.9510565
vt 0.0691550 0.8294360
v 1.2167610 -1.8345180 0.7333632
vn -0.0000003 0.3090168 0.9510566
vt 0.1059590 0.8081680
v 1.5897620 -1.8345170 0.7333632
vn -0.0000001 0.3090174 0.9510564
vt 0.0691550 0.8081680
v 1.2167610 -1.6619220 0.6079654
vn -0.0000002 0.8090166 0.5877858
vt 0.1059590 0.7869030
v 1.5897609 -1.6619220 0.6079654
vn 0.0000000 0.8090168 0.5877857
vt 0.0691550 0.7869030
v 1.2167610 -1.5959960 0.4050673
vn 0.0000000 1.0000000 -0.0000001
vt 0.1059590 0.7657520
v 1.5897609 -1.5959960 0.4050673
vn -0.0000003 1.0000000 0.0000005
vt 0.0691550 0.7657510
v 1.2167610 -1.6619220 0.2021694
vn -0.0000005 0.8090165 -0.5877860
vt 0.1059590 0.7446330
v 1.5897609 -1.6619220 0.2021694
vn -0.0000006 0.8090166 -0.5877858
vt 0.0691550 0.7446330
v 1.2167610 -1.8345180 0.0767716
vn -0.0000002 0.3090169 -0.9510566
vt 0.1059590 0.7233890
v 1.5897620 -1.8345180 0.0767716
vn 0.0000000 0.3090163 -0.9510568
vt 0.0691550 0.7233890
v 1.2167610 -2.0478561 0.0767716
vn -0.0000004 -0.3090163 -0.9510568
vt 0.1059590 0.7446330
v 1.5897620 -2.0478570 0.0767716
vn -0.0000001 -0.3090172 -0.9510565
vt 0.0691550 0.7446330
v 1.2167610 -2.2204521 0.2021695
vn -0.0000003 -0.8090174 -0.5877848
vt 0.1059590 0.7657520
v 1.5897620 -2.2204521 0.2021695
vn 0.0000000 -0.8090176 -0.5877844
vt 0.0691550 0.7657510
v 1.2167610 -2.2204521 0.2021695
vn -1.0000000 0.0000029 0.0000021
vt 0.2112080 0.7326350
v 1.2167610 -2.2863770 0.4050673
vn -1.0000000 0.0000004 0.0000003
vt 0.1903350 0.7394710
v 1.2167610 -2.0478561 0.0767716
vn -1.0000000 -0.0000001 0.0000004
vt 0.2241090 0.7147370
v 1.2167610 -2.2204521 0.6079654
vn -1.0000000 -0.0000008 -0.0000003
vt 0.1694620 0.7326350
v 1.2167610 -2.0478561 0.7333632
vn -1.0000000 -0.0000001 -0.0000004
vt 0.1565620 0.7147370
v 1.2167610 -1.8345180 0.7333632
vn -1.0000000 -0.0000001 -0.0000002
vt 0.1565620 0.6926150
v 1.2167610 -1.6619220 0.6079654
vn -1.0000000 -0.0000006 -0.0000000
vt 0.1694620 0.6747170
v 1.2167610 -1.5959960 0.4050673
vn -1.0000000 -0.0000005 -0.0000000
vt 0.1903350 0.6678810
v 1.2167610 -1.6619220 0.2021694
vn -1.0000000 -0.0000007 0.0000004
vt 0.2112080 0.6747170
v 1.2167610 -1.8345180 0.0767716
vn -1.0000000 -0.0000011 0.0000015
vt 0.2241090 0.6926150
v 1.5897620 -2.2204521 0.2021695
vn 1.0000000 0.0000000 0.0000000
vt 0.3545780 0.6851370
v 1.5897620 -2.0478570 0.0767716
vn 1.0000000 0.0000000 0.0000000
vt 0.3669520 0.7023040
v 1.5897620 -1.8345180 0.0767716
vn 1.0000000 0.0000005 0.0000001
vt 0.3669520 0.7235230
v 1.5897609 -1.6619220 0.2021694
vn 1.0000000 0.0000018 -0.0000006
vt 0.3545780 0.7406900
v 1.5897609 -1.5959960 0.4050673
vn 1.0000000 0.0000007 0.0000000
vt 0.3345570 0.7472470
v 1.5897609 -1.6619220 0.6079654
vn 1.0000000 0.0000018 0.0000006
vt 0.3145360 0.7406900
v 1.5897620 -1.8345170 0.7333632
vn 1.0000000 0.0000002 0.0000001
vt 0.3021630 0.7235230
v 1.5897609 -2.0478561 0.7333632
vn 1.0000000 -0.0000011 0.0000034
vt 0.3021630 0.7023040
v 1.5897620 -2.2204521 0.6079654
vn 1.0000000 0.0000000 0.0000004
vt 0.3145360 0.6851370
v 1.5897620 -2.2863770 0.4050673
vn 1.0000000 0.0000000 0.0000000
vt 0.3345570 0.6785800
v 1.2167610 -2.0478561 0.7333632
vn 0.0000000 -0.3090169 0.9510565
vt 0.1059590 0.8294360
v 1.5897609 -2.0478561 0.7333632
vn 0.0000000 -0.3090170 0.9510565
vt 0.0691550 0.8294360
v 1.2167610 -1.8345180 0.0767716
vn -0.0000002 0.3090169 -0.9510566
vt 0.1059590 0.7233890
v 1.5897620 -1.8345180 0.0767716
vn 0.0000000 0.3090163 -0.9510568
vt 0.0691550 0.7233890

g group_64606824_140627934892512
f 1/1/1 2/2/2 3/3/3 
f 3/3/3 2/2/2 4/4/4 
f 3/3/3 4/4/4 5/5/5 
f 5/5/5 4/4/4 6/6/6 
f 41/41/41 42/42/42 7/7/7 
f 7/7/7 42/42/42 8/8/8 
f 7/7/7 8/8/8 9/9/9 
f 9/9/9 8/8/8 10/10/10 
f 9/9/9 10/10/10 11/11/11 
f 11/11/11 10/10/10 12/12/12 
f 11/11/11 12/12/12 13/13/13 
f 13/13/13 12/12/12 14/14/14 
f 13/13/13 14/14/14 15/15/15 
f 15/15/15 14/14/14 16/16/16 
f 43/43/43 44/44/44 17/17/17 
f 17/17/17 44/44/44 18/18/18 
f 17/17/17 18/18/18 19/19/19 
f 19/19/19 18/18/18 20/20/20 
f 19/19/19 20/20/20 1/1/1 
f 1/1/1 20/20/20 2/2/2 
f 21/21/21 22/22/22 23/23/23 
f 22/22/22 24/24/24 23/23/23 
f 24/24/24 25/25/25 23/23/23 
f 25/25/25 26/26/26 23/23/23 
f 26/26/26 27/27/27 23/23/23 
f 27/27/27 28/28/28 23/23/23 
f 28/28/28 29/29/29 23/23/23 
f 29/29/29 30/30/30 23/23/23 
f 31/31/31 32/32/32 33/33/33 
f 33/33/33 34/34/34 35/35/35 
f 35/35/35 36/36/36 37/37/37 
f 37/37/37 38/38/38 39/39/39 
f 35/35/35 37/37/37 39/39/39 
f 33/33/33 35/35/35 39/39/39 
f 31/31/31 33/33/33 39/39/39 
f 40/40/40 31/31/31 39/39/39 
