v -1.2167710 -1.5261500 0.4050671
vn 0.0000006 -1.0000000 0.0000009
vt 0.1059590 0.7869030
v -1.2167710 -1.4602250 0.6079650
vn 0.0000003 -0.8090166 0.5877858
vt 0.1059590 0.8081680
v -1.5897720 -1.5261509 0.4050671
vn 0.0000006 -1.0000000 0.0000010
vt 0.0691550 0.7869030
v -1.5897720 -1.4602250 0.6079650
vn 0.0000000 -0.8090164 0.5877861
vt 0.0691550 0.8081680
v -1.2167710 -1.2876290 0.7333628
vn 0.0000000 -0.3090168 0.9510566
vt 0.1059590 0.8294360
v -1.5897709 -1.2876290 0.7333628
vn 0.0000000 -0.3090168 0.9510566
vt 0.0691550 0.8294360
v -1.2167710 -1.0742910 0.7333628
vn 0.0000002 0.3090171 0.9510565
vt 0.1059590 0.8081680
v -1.5897720 -1.0742900 0.7333628
vn 0.0000001 0.3090176 0.9510564
vt 0.0691550 0.8081680
v -1.2167710 -0.9016955 0.6079649
vn 0.0000001 0.8090168 0.5877855
vt 0.1059590 0.7869030
v -1.5897709 -0.9016955 0.6079649
vn 0.0000000 0.8090168 0.5877855
vt 0.0691550 0.7869030
v -1.2167710 -0.8357696 0.4050669
vn 0.0000000 1.0000000 -0.0000002
vt 0.1059590 0.7657520
v -1.5897709 -0.8357696 0.4050669
vn 0.0000003 1.0000000 0.0000002
vt 0.0691550 0.7657510
v -1.2167710 -0.9016955 0.2021691
vn 0.0000004 0.8090165 -0.5877860
vt 0.1059590 0.7446330
v -1.5897709 -0.9016953 0.2021691
vn 0.0000005 0.8090166 -0.5877858
vt 0.0691550 0.7446330
v -1.2167710 -1.0742910 0.0767713
vn 0.0000002 0.3090169 -0.9510565
vt 0.1059590 0.7233890
v -1.5897720 -1.0742910 0.0767713
vn 0.0000000 0.3090164 -0.9510567
vt 0.0691550 0.7233890
v -1.2167710 -1.2876300 0.0767713
vn 0.0000003 -0.3090164 -0.9510568
vt 0.1059590 0.7446330
v -1.5897720 -1.2876300 0.0767713
vn 0.0000001 -0.3090169 -0.9510565
vt 0.0691550 0.7446330
v -1.2167710 -1.4602250 0.2021693
vn 0.0000002 -0.8090174 -0.5877847
vt 0.1059590 0.7657520
v -1.5897720 -1.4602250 0.2021693
vn 0.0000003 -0.8090172 -0.5877849
vt 0.0691550 0.7657510
v -1.2167710 -1.4602250 0.2021693
vn 1.0000000 0.0000029 0.0000021
vt 0.2112080 0.7326350
v -1.2167710 -1.2876300 0.0767713
vn 1.0000000 -0.0000001 0.0000004
vt 0.2241090 0.7147370
v -1.2167710 -1.5261500 0.4050671
vn 1.0000000 0.0000004 0.0000003
vt 0.1903350 0.7394710
v -1.2167710 -1.4602250 0.6079650
vn 1.0000000 -0.0000008 -0.0000003
vt 0.1694620 0.7326350
v -1.2167710 -1.2876290 0.7333628
vn 1.0000000 -0.0000001 -0.0000004
vt 0.1565620 0.7147370
v -1.2167710 -1.0742910 0.7333628
vn 1.0000000 -0.0000001 -0.0000002
vt 0.1565620 0.6926150
v -1.2167710 -0.9016955 0.6079649
vn 1.0000000 -0.0000006 -0.0000000
vt 0.1694620 0.6747170
v -1.2167710 -0.8357696 0.4050669
vn 1.0000000 -0.0000005 -0.0000000
vt 0.1903350 0.6678810
v -1.2167710 -0.9016955 0.2021691
vn 1.0000000 -0.0000007 0.0000004
vt 0.2112080 0.6747170
v -1.2167710 -1.0742910 0.0767713
vn 1.0000000 -0.0000011 0.0000015
vt 0.2241090 0.6926150
v -1.5897720 -1.4602250 0.6079650
vn -1.0000000 0.0000000 0.0000004
vt 0.3145360 0.6851370
v -1.5897709 -1.2876290 0.7333628
vn -1.0000000 -0.0000011 0.0000034
vt 0.3021630 0.7023040
v -1.5897720 -1.0742900 0.7333628
vn -1.0000000 0.0000002 0.0000001
vt 0.3021630 0.7235230
v -1.5897709 -0.9016955 0.6079649
vn -1.0000000 0.0000018 0.0000006
vt 0.3145360 0.7406900
v -1.5897709 -0.8357696 0.4050669
vn -1.0000000 0.0000007 0.0000000
vt 0.3345570 0.7472470
v -1.5897709 -0.9016953 0.2021691
vn -1.0000000 0.0000018 -0.0000006
vt 0.3545780 0.7406900
v -1.5897720 -1.0742910 0.0767713
vn -1.0000000 0.0000005 0.0000001
vt 0.3669520 0.7235230
v -1.5897720 -1.2876300 0.0767713
vn -1.0000000 0.0000000 0.0000000
vt 0.3669520 0.7023040
v -1.5897720 -1.4602250 0.2021693
vn -1.0000000 0.0000000 0.0000000
vt 0.3545780 0.6851370
v -1.5897720 -1.5261509 0.4050671
vn -1.0000000 0.0000000 0.0000000
vt 0.3345570 0.6785800
v -1.2167710 -1.2876290 0.7333628
vn 0.0000000 -0.3090168 0.9510566
vt 0.1059590 0.8294360
v -1.5897709 -1.2876290 0.7333628
vn 0.0000000 -0.3090168 0.9510566
vt 0.0691550 0.8294360
v -1.2167710 -1.0742910 0.0767713
vn 0.0000002 0.3090169 -0.9510565
vt 0.1059590 0.7233890
v -1.5897720 -1.0742910 0.0767713
vn 0.0000000 0.3090164 -0.9510567
vt 0.0691550 0.7233890

g group_64604136_140627934884752
f 1/1/1 2/2/2 3/3/3 
f 2/2/2 4/4/4 3/3/3 
f 2/2/2 5/5/5 4/4/4 
f 5/5/5 6/6/6 4/4/4 
f 41/41/41 7/7/7 42/42/42 
f 7/7/7 8/8/8 42/42/42 
f 7/7/7 9/9/9 8/8/8 
f 9/9/9 10/10/10 8/8/8 
f 9/9/9 11/11/11 10/10/10 
f 11/11/11 12/12/12 10/10/10 
f 11/11/11 13/13/13 12/12/12 
f 13/13/13 14/14/14 12/12/12 
f 13/13/13 15/15/15 14/14/14 
f 15/15/15 16/16/16 14/14/14 
f 43/43/43 17/17/17 44/44/44 
f 17/17/17 18/18/18 44/44/44 
f 17/17/17 19/19/19 18/18/18 
f 19/19/19 20/20/20 18/18/18 
f 19/19/19 1/1/1 20/20/20 
f 1/1/1 3/3/3 20/20/20 
f 21/21/21 22/22/22 23/23/23 
f 23/23/23 22/22/22 24/24/24 
f 24/24/24 22/22/22 25/25/25 
f 25/25/25 22/22/22 26/26/26 
f 26/26/26 22/22/22 27/27/27 
f 27/27/27 22/22/22 28/28/28 
f 28/28/28 22/22/22 29/29/29 
f 29/29/29 22/22/22 30/30/30 
f 31/31/31 32/32/32 33/33/33 
f 33/33/33 34/34/34 35/35/35 
f 31/31/31 33/33/33 35/35/35 
f 35/35/35 36/36/36 37/37/37 
f 31/31/31 35/35/35 37/37/37 
f 37/37/37 38/38/38 39/39/39 
f 31/31/31 37/37/37 39/39/39 
f 40/40/40 31/31/31 39/39/39 
