v 1.2078490 2.0452061 0.8955474
vn 0.0000004 -1.0000000 -0.0000004
vt 0.1392840 0.8496300
v 1.5727471 2.0452061 0.8955474
vn 0.0000007 -1.0000000 0.0000002
vt 0.1392840 0.8859240
v 1.2078490 2.0917890 1.0693991
vn 0.0000006 -0.8660252 0.5000004
vt 0.1215240 0.8496300
v 1.5727471 2.0917890 1.0693991
vn 0.0000004 -0.8660254 0.5000000
vt 0.1215240 0.8859240
v 1.2078490 2.2190571 1.1966661
vn 0.0000002 -0.4999997 0.8660256
vt 0.1037640 0.8496300
v 1.5727471 2.2190571 1.1966661
vn 0.0000000 -0.5000001 0.8660254
vt 0.1037640 0.8859240
v 1.2078490 2.2190571 1.1966661
vn 0.0000002 -0.4999997 0.8660256
vt 0.1570440 0.8496300
v 1.5727471 2.2190571 1.1966661
vn 0.0000000 -0.5000001 0.8660254
vt 0.1570440 0.8859240
v 1.2078490 2.3929081 1.2432501
vn 0.0000000 0.0000000 1.0000000
vt 0.1392840 0.8496300
v 1.5727471 2.3929081 1.2432501
vn -0.0000001 -0.0000001 1.0000000
vt 0.1392840 0.8859240
v 1.2078490 2.5667591 1.1966661
vn -0.0000003 0.4999995 0.8660257
vt 0.1215240 0.8496300
v 1.5727471 2.5667601 1.1966661
vn -0.0000002 0.4999997 0.8660256
vt 0.1215240 0.8859240
v 1.2078490 2.6940269 1.0693991
vn -0.0000002 0.8660253 0.5000002
vt 0.1037640 0.8496300
v 1.5727471 2.6940269 1.0693991
vn 0.0000000 0.8660254 0.5000000
vt 0.1037640 0.8859240
v 1.2078490 2.6940269 1.0693991
vn -0.0000002 0.8660253 0.5000002
vt 0.1570440 0.8496300
v 1.5727471 2.6940269 1.0693991
vn 0.0000000 0.8660254 0.5000000
vt 0.1570440 0.8859240
v 1.2078490 2.7406111 0.8955474
vn 0.0000000 1.0000000 -0.0000001
vt 0.1392840 0.8496300
v 1.5727471 2.7406111 0.8955474
vn 0.0000000 1.0000000 -0.0000001
vt 0.1392840 0.8859240
v 1.2078490 2.6940269 0.7216964
vn 0.0000000 0.8660255 -0.4999998
vt 0.1215240 0.8496300
v 1.5727471 2.6940269 0.7216964
vn 0.0000000 0.8660256 -0.4999996
vt 0.1215240 0.8859240
v 1.2078490 2.5667601 0.5944285
vn 0.0000000 0.5000002 -0.8660253
vt 0.1037640 0.8496300
v 1.5727471 2.5667601 0.5944285
vn 0.0000000 0.5000002 -0.8660253
vt 0.1037640 0.8859240
v 1.2078490 2.5667601 0.5944285
vn 0.0000000 0.5000002 -0.8660253
vt 0.1570440 0.8496300
v 1.5727471 2.5667601 0.5944285
vn 0.0000000 0.5000002 -0.8660253
vt 0.1570440 0.8859240
v 1.2078490 2.3929090 0.5478452
vn 0.0000000 0.0000006 -1.0000000
vt 0.1392840 0.8496300
v 1.5727471 2.3929090 0.5478452
vn 0.0000001 0.0000004 -1.0000000
vt 0.1392840 0.8859240
v 1.2078490 2.2190571 0.5944283
vn 0.0000003 -0.4999996 -0.8660256
vt 0.1215240 0.8496300
v 1.5727471 2.2190580 0.5944283
vn 0.0000002 -0.4999993 -0.8660258
vt 0.1215240 0.8859240
v 1.2078490 2.0917890 0.7216961
vn 0.0000002 -0.8660251 -0.5000005
vt 0.1037640 0.8496300
v 1.5727471 2.0917890 0.7216961
vn 0.0000002 -0.8660253 -0.5000002
vt 0.1037640 0.8859240
v 1.2078490 2.0917890 0.7216961
vn 0.0000002 -0.8660251 -0.5000005
vt 0.1570440 0.8496300
v 1.5727471 2.0917890 0.7216961
vn 0.0000002 -0.8660253 -0.5000002
vt 0.1570440 0.8859240
v 1.2078490 2.0917890 1.0693991
vn -1.0000000 0.0000000 0.0000000
vt 0.1766040 0.6434870
v 1.2078490 2.2190571 1.1966661
vn -1.0000000 0.0000000 0.0000000
vt 0.1909320 0.6579290
v 1.2078490 2.3929081 1.2432501
vn -1.0000000 0.0000000 0.0000000
vt 0.2105050 0.6632160
v 1.2078490 2.5667591 1.1966661
vn -1.0000000 0.0000000 0.0000000
vt 0.2300780 0.6579290
v 1.2078490 2.6940269 1.0693991
vn -1.0000000 0.0000000 0.0000000
vt 0.2444060 0.6434870
v 1.2078490 2.7406111 0.8955474
vn -1.0000000 0.0000000 0.0000000
vt 0.2496510 0.6237570
v 1.2078490 2.6940269 0.7216964
vn -1.0000000 0.0000000 0.0000000
vt 0.2444060 0.6040280
v 1.2078490 2.5667601 0.5944285
vn -1.0000000 0.0000000 0.0000000
vt 0.2300780 0.5895850
v 1.2078490 2.3929090 0.5478452
vn -1.0000000 0.0000000 0.0000000
vt 0.2105050 0.5842980
v 1.2078490 2.2190571 0.5944283
vn -1.0000000 0.0000000 0.0000000
vt 0.1909320 0.5895850
v 1.2078490 2.0917890 0.7216961
vn -1.0000000 0.0000000 0.0000000
vt 0.1766040 0.6040280
v 1.2078490 2.0452061 0.8955474
vn -1.0000000 0.0000000 0.0000000
vt 0.1713590 0.6237570
v 1.5727471 2.6940269 0.7216964
vn 1.0000000 0.0000004 -0.0000007
vt 0.2304900 0.6956740
v 1.5727471 2.7406111 0.8955474
vn 1.0000000 0.0000000 0.0000000
vt 0.2255590 0.7142250
v 1.5727471 2.6940269 1.0693991
vn 1.0000000 0.0000002 0.0000000
vt 0.2304900 0.7327760
v 1.5727471 2.5667601 1.1966661
vn 1.0000000 0.0000000 0.0000000
vt 0.2439630 0.7463560
v 1.5727471 2.3929081 1.2432501
vn 1.0000000 0.0000002 0.0000008
vt 0.2623670 0.7513270
v 1.5727471 2.2190571 1.1966661
vn 1.0000000 -0.0000007 0.0000026
vt 0.2807710 0.7463560
v 1.5727471 2.0917890 1.0693991
vn 1.0000000 0.0000003 0.0000001
vt 0.2942430 0.7327760
v 1.5727471 2.0452061 0.8955474
vn 1.0000000 0.0000026 -0.0000007
vt 0.2991740 0.7142250
v 1.5727471 2.0917890 0.7216961
vn 1.0000000 -0.0000001 -0.0000006
vt 0.2942430 0.6956740
v 1.5727471 2.2190580 0.5944283
vn 1.0000000 0.0000000 0.0000000
vt 0.2807710 0.6820940
v 1.5727471 2.3929090 0.5478452
vn 1.0000000 0.0000005 -0.0000009
vt 0.2623670 0.6771230
v 1.5727471 2.5667601 0.5944285
vn 1.0000000 0.0000038 -0.0000066
vt 0.2439630 0.6820940

g group_64544696_140627934870704
f 1/1/1 2/2/2 3/3/3 
f 3/3/3 2/2/2 4/4/4 
f 3/3/3 4/4/4 5/5/5 
f 5/5/5 4/4/4 6/6/6 
f 7/7/7 8/8/8 9/9/9 
f 9/9/9 8/8/8 10/10/10 
f 9/9/9 10/10/10 11/11/11 
f 11/11/11 10/10/10 12/12/12 
f 11/11/11 12/12/12 13/13/13 
f 13/13/13 12/12/12 14/14/14 
f 15/15/15 16/16/16 17/17/17 
f 17/17/17 16/16/16 18/18/18 
f 17/17/17 18/18/18 19/19/19 
f 19/19/19 18/18/18 20/20/20 
f 19/19/19 20/20/20 21/21/21 
f 21/21/21 20/20/20 22/22/22 
f 23/23/23 24/24/24 25/25/25 
f 25/25/25 24/24/24 26/26/26 
f 25/25/25 26/26/26 27/27/27 
f 27/27/27 26/26/26 28/28/28 
f 27/27/27 28/28/28 29/29/29 
f 29/29/29 28/28/28 30/30/30 
f 31/31/31 32/32/32 1/1/1 
f 1/1/1 32/32/32 2/2/2 
f 33/33/33 34/34/34 35/35/35 
f 35/35/35 36/36/36 37/37/37 
f 37/37/37 38/38/38 39/39/39 
f 35/35/35 37/37/37 39/39/39 
f 39/39/39 40/40/40 41/41/41 
f 41/41/41 42/42/42 43/43/43 
f 39/39/39 41/41/41 43/43/43 
f 35/35/35 39/39/39 43/43/43 
f 33/33/33 35/35/35 43/43/43 
f 44/44/44 33/33/33 43/43/43 
f 45/45/45 46/46/46 47/47/47 
f 47/47/47 48/48/48 49/49/49 
f 49/49/49 50/50/50 51/51/51 
f 47/47/47 49/49/49 51/51/51 
f 51/51/51 52/52/52 53/53/53 
f 53/53/53 54/54/54 55/55/55 
f 51/51/51 53/53/53 55/55/55 
f 47/47/47 51/51/51 55/55/55 
f 45/45/45 47/47/47 55/55/55 
f 56/56/56 45/45/45 55/55/55 
