v 1.2570261 -0.2717543 0.9956358
vn -0.2003920 -0.9051397 -0.3749202
vt 0.4963260 0.2781040
v 1.5227231 -0.2979645 1.0589139
vn -0.1108261 -0.9923552 0.0543026
vt 0.5221950 0.2848340
v 1.2570261 -0.1822659 1.2116790
vn -0.2003931 -0.3749207 0.9051393
vt 0.4963260 0.2982610
v 1.5227231 -0.2455438 1.1854690
vn -0.1108272 -0.7400989 0.6633031
vt 0.5221950 0.2982610
v 1.2570261 -0.1822659 1.2116790
vn -0.2003931 -0.3749207 0.9051393
vt 0.4963260 0.2915560
v 1.5227231 -0.2455438 1.1854690
vn -0.1108272 -0.7400989 0.6633031
vt 0.5221950 0.2982770
v 1.5227231 -0.1189884 1.2378900
vn -0.1108270 0.0543008 0.9923552
vt 0.5221950 0.2848340
v 1.2570261 0.0337777 1.1221910
vn -0.2003926 0.9051397 0.3749200
vt 0.4963260 0.2646680
v 1.5227231 0.0075670 1.1854690
vn -0.1108265 0.6633047 0.7400976
vt 0.5221950 0.2713900
v 1.5227231 0.0599881 1.0589130
vn -0.1108256 0.9923553 -0.0543016
vt 0.5221950 0.2579470
v 1.2570270 -0.0557106 0.9061475
vn -0.2003916 0.3749204 -0.9051397
vt 0.4963260 0.2445030
v 1.5227231 0.0075668 0.9323580
vn -0.1108251 0.7400967 -0.6633059
vt 0.5221950 0.2445030
v 1.2570270 -0.0557106 0.9061475
vn -0.2003916 0.3749204 -0.9051397
vt 0.4963260 0.2512090
v 1.5227231 0.0075668 0.9323580
vn -0.1108251 0.7400967 -0.6633059
vt 0.5221950 0.2444870
v 1.5227231 -0.1189884 0.8799373
vn -0.1108260 -0.0543015 -0.9923553
vt 0.5221950 0.2579310
v 1.5227231 -0.2455440 0.9323580
vn -0.1108267 -0.6633050 -0.7400973
vt 0.5221950 0.2713740
v 1.5227231 -0.2979645 1.0589139
vn 1.0000000 0.0000011 0.0000005
vt 0.4112980 0.2255520
v 1.5227231 -0.2455440 0.9323580
vn 1.0000000 0.0000027 0.0000005
vt 0.4164020 0.2131310
v 1.5227231 -0.2455438 1.1854690
vn 1.0000000 0.0000013 0.0000004
vt 0.4164020 0.2379720
v 1.5227231 -0.1189884 0.8799373
vn 1.0000000 0.0000012 -0.0000003
vt 0.4287240 0.2079870
v 1.5227231 0.0075668 0.9323580
vn 1.0000000 0.0000008 -0.0000001
vt 0.4410460 0.2131310
v 1.5227231 0.0599881 1.0589130
vn 1.0000000 0.0000012 0.0000001
vt 0.4461500 0.2255520
v 1.5227231 0.0075670 1.1854690
vn 1.0000000 0.0000009 -0.0000001
vt 0.4410460 0.2379720
v 1.5227231 -0.1189884 1.2378900
vn 1.0000000 0.0000009 0.0000023
vt 0.4287240 0.2431170

g group_64542008_140627934866112
f 1/1/1 2/2/2 3/3/3 
f 3/3/3 2/2/2 4/4/4 
f 5/5/5 6/6/6 7/7/7 
f 5/5/5 7/7/7 8/8/8 
f 8/8/8 7/7/7 9/9/9 
f 8/8/8 9/9/9 10/10/10 
f 8/8/8 10/10/10 11/11/11 
f 11/11/11 10/10/10 12/12/12 
f 13/13/13 14/14/14 15/15/15 
f 13/13/13 15/15/15 1/1/1 
f 1/1/1 15/15/15 16/16/16 
f 1/1/1 16/16/16 2/2/2 
f 17/17/17 18/18/18 19/19/19 
f 18/18/18 20/20/20 19/19/19 
f 20/20/20 21/21/21 19/19/19 
f 21/21/21 22/22/22 19/19/19 
f 22/22/22 23/23/23 19/19/19 
f 23/23/23 24/24/24 19/19/19 
