v 1.2570270 -1.7512430 0.9956358
vn -0.2003917 -0.9051399 -0.3749199
vt 0.4963260 0.2781040
v 1.5227231 -1.7774529 1.0589139
vn -0.1108257 -0.9923552 0.0543030
vt 0.5221950 0.2848340
v 1.2570261 -1.6617550 1.2116790
vn -0.2003928 -0.3749211 0.9051391
vt 0.4963260 0.2982610
v 1.5227231 -1.7250320 1.1854690
vn -0.1108266 -0.7400995 0.6633026
vt 0.5221950 0.2982610
v 1.2570261 -1.6617550 1.2116790
vn -0.2003928 -0.3749211 0.9051391
vt 0.4963260 0.2915560
v 1.5227231 -1.7250320 1.1854690
vn -0.1108266 -0.7400995 0.6633026
vt 0.5221950 0.2982770
v 1.5227231 -1.5984770 1.2378900
vn -0.1108268 0.0543004 0.9923552
vt 0.5221950 0.2848340
v 1.2570261 -1.4457110 1.1221910
vn -0.2003927 0.9051396 0.3749201
vt 0.4963260 0.2646680
v 1.5227231 -1.4719220 1.1854690
vn -0.1108261 0.6633050 0.7400974
vt 0.5221950 0.2713900
v 1.5227231 -1.4195000 1.0589130
vn -0.1108258 0.9923552 -0.0543024
vt 0.5221950 0.2579470
v 1.2570270 -1.5351990 0.9061475
vn -0.2003918 0.3749202 -0.9051397
vt 0.4963260 0.2445030
v 1.5227231 -1.4719220 0.9323580
vn -0.1108256 0.7400964 -0.6633061
vt 0.5221950 0.2445030
v 1.2570270 -1.5351990 0.9061475
vn -0.2003918 0.3749202 -0.9051397
vt 0.4963260 0.2512090
v 1.5227231 -1.4719220 0.9323580
vn -0.1108256 0.7400964 -0.6633061
vt 0.5221950 0.2444870
v 1.5227231 -1.5984770 0.8799373
vn -0.1108261 -0.0543019 -0.9923553
vt 0.5221950 0.2579310
v 1.5227231 -1.7250330 0.9323581
vn -0.1108265 -0.6633059 -0.7400964
vt 0.5221950 0.2713740
v 1.5227231 -1.7774529 1.0589139
vn 1.0000000 0.0000011 0.0000005
vt 0.4112980 0.2255520
v 1.5227231 -1.7250330 0.9323581
vn 1.0000000 0.0000027 0.0000005
vt 0.4164020 0.2131310
v 1.5227231 -1.7250320 1.1854690
vn 1.0000000 0.0000015 0.0000011
vt 0.4164020 0.2379720
v 1.5227231 -1.5984770 0.8799373
vn 1.0000000 0.0000012 -0.0000003
vt 0.4287240 0.2079870
v 1.5227231 -1.4719220 0.9323580
vn 1.0000000 0.0000011 0.0000002
vt 0.4410460 0.2131310
v 1.5227231 -1.4195000 1.0589130
vn 1.0000000 0.0000018 0.0000006
vt 0.4461500 0.2255520
v 1.5227231 -1.4719220 1.1854690
vn 1.0000000 0.0000014 0.0000007
vt 0.4410460 0.2379720
v 1.5227231 -1.5984770 1.2378900
vn 1.0000000 0.0000014 0.0000057
vt 0.4287240 0.2431170

g group_32879976_140627934864832
f 1/1/1 2/2/2 3/3/3 
f 3/3/3 2/2/2 4/4/4 
f 5/5/5 6/6/6 7/7/7 
f 5/5/5 7/7/7 8/8/8 
f 8/8/8 7/7/7 9/9/9 
f 8/8/8 9/9/9 10/10/10 
f 8/8/8 10/10/10 11/11/11 
f 11/11/11 10/10/10 12/12/12 
f 13/13/13 14/14/14 15/15/15 
f 13/13/13 15/15/15 1/1/1 
f 1/1/1 15/15/15 16/16/16 
f 1/1/1 16/16/16 2/2/2 
f 17/17/17 18/18/18 19/19/19 
f 18/18/18 20/20/20 19/19/19 
f 20/20/20 21/21/21 19/19/19 
f 21/21/21 22/22/22 19/19/19 
f 22/22/22 23/23/23 19/19/19 
f 23/23/23 24/24/24 19/19/19 
