v 0.8970840 -2.2297051 0.8451727
vn 0.0000000 0.8660251 0.5000005
vt 0.9733703 0.9946518
v 0.8970840 -2.3418641 0.9573322
vn 0.0000000 0.4999997 0.8660256
vt 0.9733702 0.9751839
v 1.1143850 -2.2297051 0.8451727
vn 0.0000000 0.8660254 0.5000001
vt 0.9993907 0.9946517
v 1.1143850 -2.3418641 0.9573322
vn 0.0000000 0.5000002 0.8660253
vt 0.9993907 0.9751839
v 0.8970840 -2.1886511 0.6919601
vn 0.0000000 1.0000000 0.0000000
vt 0.9733702 0.9751839
v 0.8970840 -2.2297051 0.8451727
vn 0.0000000 0.8660251 0.5000005
vt 0.9733703 0.9557683
v 1.1143850 -2.1886511 0.6919601
vn 0.0000000 1.0000000 0.0000000
vt 0.9993907 0.9751839
v 1.1143850 -2.2297051 0.8451727
vn 0.0000000 0.8660254 0.5000001
vt 0.9993907 0.9557680
v 0.8970840 -2.2297051 0.5387476
vn 0.0000000 0.8660253 -0.5000001
vt 0.9733702 0.9946517
v 1.1143850 -2.2297051 0.5387476
vn 0.0000000 0.8660249 -0.5000009
vt 0.9993907 0.9946517
v 0.8970840 -2.3418641 0.4265883
vn 0.0000000 0.5000004 -0.8660252
vt 0.9733702 0.9751837
v 0.8970840 -2.2297051 0.5387476
vn 0.0000000 0.8660253 -0.5000001
vt 0.9733701 0.9557682
v 1.1143850 -2.3418641 0.4265883
vn 0.0000000 0.4999996 -0.8660256
vt 0.9993907 0.9751837
v 1.1143850 -2.2297051 0.5387476
vn 0.0000000 0.8660249 -0.5000009
vt 0.9993907 0.9557680
v 0.8970840 -2.4950769 0.3855350
vn 0.0000000 0.0000000 -1.0000000
vt 0.9733702 0.9946516
v 1.1143850 -2.4950769 0.3855350
vn 0.0000000 0.0000000 -1.0000000
vt 0.9993907 0.9946517
v 0.8970840 -2.6482890 0.4265883
vn 0.0000000 -0.4999987 -0.8660262
vt 0.9733702 0.9751837
v 0.8970840 -2.4950769 0.3855350
vn 0.0000000 0.0000000 -1.0000000
vt 0.9733702 0.9557679
v 1.1143850 -2.6482890 0.4265883
vn 0.0000000 -0.4999990 -0.8660260
vt 0.9993907 0.9751837
v 1.1143850 -2.4950769 0.3855350
vn 0.0000000 0.0000000 -1.0000000
vt 0.9993907 0.9557680
v 0.8970840 -2.7604489 0.5387476
vn 0.0000000 -0.8660250 -0.5000008
vt 0.9733704 0.9946519
v 1.1143850 -2.7604489 0.5387476
vn 0.0000000 -0.8660249 -0.5000009
vt 0.9993907 0.9946517
v 0.8970840 -2.8015020 0.6919601
vn 0.0000000 -1.0000000 0.0000000
vt 0.9733702 0.9751837
v 0.8970840 -2.7604489 0.5387476
vn 0.0000000 -0.8660250 -0.5000008
vt 0.9733700 0.9557682
v 1.1143850 -2.8015020 0.6919601
vn 0.0000000 -1.0000000 0.0000000
vt 0.9993907 0.9751837
v 1.1143850 -2.7604489 0.5387476
vn 0.0000000 -0.8660249 -0.5000009
vt 0.9993907 0.9557680
v 0.8970840 -2.7604489 0.8451727
vn 0.0000000 -0.8660251 0.5000005
vt 0.9733706 0.9946518
v 1.1143850 -2.7604489 0.8451727
vn 0.0000000 -0.8660250 0.5000008
vt 0.9993907 0.9946517
v 0.8970840 -2.6482890 0.9573322
vn 0.0000000 -0.4999992 0.8660259
vt 0.9733702 0.9751839
v 0.8970840 -2.7604489 0.8451727
vn 0.0000000 -0.8660251 0.5000005
vt 0.9733704 0.9557678
v 1.1143850 -2.6482890 0.9573322
vn 0.0000000 -0.4999987 0.8660262
vt 0.9993907 0.9751839
v 1.1143850 -2.7604489 0.8451727
vn 0.0000000 -0.8660250 0.5000008
vt 0.9993907 0.9557680
v 0.8970840 -2.4950769 0.9983853
vn 0.0000000 0.0000000 1.0000000
vt 0.9733703 0.9946516
v 1.1143850 -2.4950769 0.9983853
vn 0.0000000 0.0000000 1.0000000
vt 0.9993907 0.9946517
v 0.8970840 -2.4950769 0.9983853
vn 0.0000000 0.0000000 1.0000000
vt 0.9733703 0.9557680
v 1.1143850 -2.4950769 0.9983853
vn 0.0000000 0.0000000 1.0000000
vt 0.9993907 0.9557680
v 0.8970840 -2.7604489 0.8451727
vn -1.0000000 0.0000000 0.0000000
vt 0.7713526 0.9786571
v 0.8970840 -2.6482890 0.9573322
vn -1.0000000 0.0000000 0.0000000
vt 0.7568788 0.9931309
v 0.8970840 -2.8015020 0.6919601
vn -1.0000000 0.0000000 0.0000000
vt 0.7766504 0.9588855
v 0.8970840 -2.4950769 0.9983853
vn -1.0000000 0.0000000 0.0000000
vt 0.7371072 0.9984286
v 0.8970840 -2.3418641 0.9573322
vn -1.0000000 0.0000000 0.0000000
vt 0.7173355 0.9931310
v 0.8970840 -2.2297051 0.8451727
vn -1.0000000 0.0000000 0.0000000
vt 0.7028617 0.9786572
v 0.8970840 -2.1886511 0.6919601
vn -1.0000000 0.0000000 0.0000000
vt 0.6975639 0.9588857
v 0.8970840 -2.2297051 0.5387476
vn -1.0000000 0.0000000 0.0000000
vt 0.7028616 0.9391142
v 0.8970840 -2.3418641 0.4265883
vn -1.0000000 0.0000000 0.0000000
vt 0.7173354 0.9246403
v 0.8970840 -2.4950769 0.3855350
vn -1.0000000 0.0000000 0.0000000
vt 0.7371070 0.9193425
v 0.8970840 -2.6482890 0.4265883
vn -1.0000000 0.0000000 0.0000000
vt 0.7568787 0.9246402
v 0.8970840 -2.7604489 0.5387476
vn -1.0000000 0.0000000 0.0000000
vt 0.7713526 0.9391140
v 1.1143850 -2.3418641 0.9573322
vn 1.0000000 0.0000000 0.0000000
vt 0.4005130 0.8989597
v 1.1143850 -2.4950769 0.9983853
vn 1.0000000 0.0000000 0.0000000
vt 0.4107697 0.9166768
v 1.1143850 -2.2297051 0.8451727
vn 1.0000000 0.0000000 0.0000000
vt 0.4005058 0.8784868
v 1.1143850 -2.6482890 0.9573322
vn 1.0000000 0.0000000 0.0000000
vt 0.4285152 0.9268857
v 1.1143850 -2.7604489 0.8451727
vn 1.0000000 0.0000000 0.0000000
vt 0.4489837 0.9268550
v 1.1143850 -2.8015020 0.6919601
vn 1.0000000 0.0000000 0.0000000
vt 0.4666902 0.9166022
v 1.1143850 -2.7604489 0.5387476
vn 1.0000000 0.0000000 0.0000000
vt 0.4768976 0.8988799
v 1.1143850 -2.6482890 0.4265883
vn 1.0000000 0.0000000 0.0000000
vt 0.4768804 0.8784344
v 1.1143850 -2.4950769 0.3855350
vn 1.0000000 0.0000000 0.0000000
vt 0.4666458 0.8607352
v 1.1143850 -2.3418641 0.4265883
vn 1.0000000 0.0000000 0.0000000
vt 0.4489288 0.8505183
v 1.1143850 -2.2297051 0.5387476
vn 1.0000000 0.0000000 0.0000000
vt 0.4284685 0.8505234
v 1.1143850 -2.1886511 0.6919601
vn 1.0000000 0.0000000 0.0000000
vt 0.4107424 0.8607578

g group_45_140627855266464
f 1/1/1 2/2/2 3/3/3 
f 3/3/3 2/2/2 4/4/4 
f 5/5/5 6/6/6 7/7/7 
f 7/7/7 6/6/6 8/8/8 
f 9/9/9 5/5/5 10/10/10 
f 10/10/10 5/5/5 7/7/7 
f 11/11/11 12/12/12 13/13/13 
f 13/13/13 12/12/12 14/14/14 
f 15/15/15 11/11/11 16/16/16 
f 16/16/16 11/11/11 13/13/13 
f 17/17/17 18/18/18 19/19/19 
f 19/19/19 18/18/18 20/20/20 
f 21/21/21 17/17/17 22/22/22 
f 22/22/22 17/17/17 19/19/19 
f 23/23/23 24/24/24 25/25/25 
f 25/25/25 24/24/24 26/26/26 
f 27/27/27 23/23/23 28/28/28 
f 28/28/28 23/23/23 25/25/25 
f 29/29/29 30/30/30 31/31/31 
f 31/31/31 30/30/30 32/32/32 
f 33/33/33 29/29/29 34/34/34 
f 34/34/34 29/29/29 31/31/31 
f 2/2/2 35/35/35 4/4/4 
f 4/4/4 35/35/35 36/36/36 
f 37/37/37 38/38/38 39/39/39 
f 38/38/38 40/40/40 39/39/39 
f 40/40/40 41/41/41 39/39/39 
f 41/41/41 42/42/42 39/39/39 
f 42/42/42 43/43/43 39/39/39 
f 43/43/43 44/44/44 39/39/39 
f 44/44/44 45/45/45 39/39/39 
f 45/45/45 46/46/46 39/39/39 
f 46/46/46 47/47/47 39/39/39 
f 47/47/47 48/48/48 39/39/39 
f 49/49/49 50/50/50 51/51/51 
f 50/50/50 52/52/52 51/51/51 
f 52/52/52 53/53/53 51/51/51 
f 53/53/53 54/54/54 51/51/51 
f 54/54/54 55/55/55 51/51/51 
f 55/55/55 56/56/56 51/51/51 
f 56/56/56 57/57/57 51/51/51 
f 57/57/57 58/58/58 51/51/51 
f 58/58/58 59/59/59 51/51/51 
f 59/59/59 60/60/60 51/51/51 
