v 0.8849341 0.1081860 0.9335025
vn 0.0000000 1.0000000 0.0000000
vt 0.2764696 0.7664987
v 0.8849342 0.0754131 1.0126230
vn 0.0000000 0.7071075 0.7071061
vt 0.2764750 0.7566575
v 0.9813295 0.1081860 0.9335024
vn 0.0000000 1.0000000 0.0000000
vt 0.2644807 0.7664937
v 0.9813295 0.0754131 1.0126230
vn 0.0000000 0.7071069 0.7071066
vt 0.2644857 0.7566534
v 0.8849342 0.0754133 0.8543817
vn 0.0000000 0.7071068 -0.7071067
vt 0.2764648 0.7763374
v 0.9813295 0.0754133 0.8543819
vn 0.0000000 0.7071072 -0.7071064
vt 0.2644758 0.7763351
v 0.8849342 -0.0037077 0.8216090
vn 0.0000000 0.0000000 -1.0000000
vt 0.2764647 0.7861757
v 0.9813293 -0.0037077 0.8216090
vn 0.0000000 0.0000000 -1.0000000
vt 0.2644756 0.7861760
v 0.8849342 -0.0828281 0.8543817
vn 0.0000000 -0.7071068 -0.7071068
vt 0.2764671 0.7960178
v 0.9813295 -0.0828281 0.8543819
vn 0.0000000 -0.7071066 -0.7071069
vt 0.2644781 0.7960168
v 0.8849341 -0.1156011 0.9335025
vn 0.0000000 -1.0000000 0.0000000
vt 0.2764643 0.8058604
v 0.9813295 -0.1156011 0.9335024
vn 0.0000000 -1.0000000 0.0000000
vt 0.2644752 0.8058561
v 0.8849344 -0.0828281 1.0126230
vn 0.0000000 -0.7071061 0.7071075
vt 0.2764587 0.8157009
v 0.9813293 -0.0828281 1.0126230
vn 0.0000000 -0.7071066 0.7071070
vt 0.2644693 0.8156968
v 0.8849342 -0.0037075 1.0453960
vn 0.0000000 0.0000000 1.0000000
vt 0.2764574 0.8255417
v 0.9813295 -0.0037075 1.0453960
vn 0.0000000 0.0000000 1.0000000
vt 0.2644683 0.8255357
v 0.8849342 0.0754131 1.0126230
vn 0.0000000 0.7071075 0.7071061
vt 0.2764506 0.8353841
v 0.9813295 0.0754131 1.0126230
vn 0.0000000 0.7071069 0.7071066
vt 0.2644616 0.8353741
v 0.9813295 0.0754133 0.8543819
vn 1.0000000 0.0000000 0.0000000
vt 0.2113419 0.8272612
v 0.9813295 0.1081860 0.9335024
vn 1.0000000 0.0000000 0.0000000
vt 0.2152598 0.8367195
v 0.9813293 -0.0037077 0.8216090
vn 1.0000000 0.0000000 0.0000000
vt 0.2018832 0.8233432
v 0.9813295 -0.0828281 0.8543819
vn 1.0000000 0.0000000 0.0000000
vt 0.1924245 0.8272610
v 0.9813295 0.0754131 1.0126230
vn 1.0000000 0.0000000 0.0000000
vt 0.2113421 0.8461783
v 0.9813295 -0.1156011 0.9335024
vn 1.0000000 0.0000000 0.0000000
vt 0.1885068 0.8367198
v 0.9813295 -0.0037075 1.0453960
vn 1.0000000 0.0000000 0.0000000
vt 0.2018832 0.8500965
v 0.9813293 -0.0828281 1.0126230
vn 1.0000000 0.0000000 0.0000000
vt 0.1924244 0.8461783

g group_50_140627855197712
f 1/1/1 2/2/2 3/3/3 
f 3/3/3 2/2/2 4/4/4 
f 5/5/5 1/1/1 6/6/6 
f 6/6/6 1/1/1 3/3/3 
f 7/7/7 5/5/5 8/8/8 
f 8/8/8 5/5/5 6/6/6 
f 9/9/9 7/7/7 10/10/10 
f 10/10/10 7/7/7 8/8/8 
f 11/11/11 9/9/9 12/12/12 
f 12/12/12 9/9/9 10/10/10 
f 13/13/13 11/11/11 14/14/14 
f 14/14/14 11/11/11 12/12/12 
f 15/15/15 13/13/13 16/16/16 
f 16/16/16 13/13/13 14/14/14 
f 17/17/17 15/15/15 18/18/18 
f 18/18/18 15/15/15 16/16/16 
f 19/19/19 20/20/20 21/21/21 
f 21/21/21 20/20/20 22/22/22 
f 20/20/20 23/23/23 22/22/22 
f 22/22/22 23/23/23 24/24/24 
f 23/23/23 25/25/25 24/24/24 
f 24/24/24 25/25/25 26/26/26 
