v -0.8837749 1.5375710 1.0683800
vn 0.0000000 0.4999983 0.8660264
vt 0.9990270 0.9581861
v -0.8837749 1.5981150 1.0078350
vn 0.0000000 0.8660257 0.4999995
vt 0.9990270 0.9683361
v -1.0981750 1.5375710 1.0683800
vn 0.0000000 0.4999996 0.8660257
vt 0.9736115 0.9581861
v -1.0981750 1.5981150 1.0078350
vn 0.0000000 0.8660262 0.4999987
vt 0.9736115 0.9683361
v -0.8837749 1.6202760 0.9251294
vn 0.0000000 1.0000000 0.0000000
vt 0.9990272 0.9784859
v -1.0981750 1.6202760 0.9251294
vn 0.0000000 1.0000000 0.0000000
vt 0.9736115 0.9784861
v -0.8837749 1.5981150 0.8424240
vn 0.0000000 0.8660257 -0.4999995
vt 0.9990272 0.9886360
v -1.0981750 1.5981150 0.8424240
vn 0.0000000 0.8660252 -0.5000004
vt 0.9736115 0.9886360
v -0.8837749 1.5375710 0.7818794
vn 0.0000000 0.5000011 -0.8660249
vt 0.9990272 0.9987860
v -1.0981750 1.5375710 0.7818794
vn 0.0000000 0.4999996 -0.8660256
vt 0.9736115 0.9987860
v -0.8837749 1.5375710 0.7818794
vn 0.0000000 0.5000011 -0.8660249
vt 0.9990272 0.8769867
v -0.8837749 1.4548650 0.7597185
vn 0.0000000 0.0000000 -1.0000000
vt 0.9990272 0.8871366
v -1.0981750 1.5375710 0.7818794
vn 0.0000000 0.4999996 -0.8660256
vt 0.9736115 0.8769866
v -1.0981750 1.4548650 0.7597185
vn 0.0000000 0.0000000 -1.0000000
vt 0.9736115 0.8871366
v -0.8837749 1.3721600 0.7818794
vn 0.0000000 -0.4999997 -0.8660256
vt 0.9990272 0.8972867
v -1.0981750 1.3721600 0.7818794
vn 0.0000000 -0.5000007 -0.8660251
vt 0.9736115 0.8972865
v -0.8837749 1.3116150 0.8424240
vn 0.0000000 -0.8660262 -0.4999986
vt 0.9990272 0.9074364
v -1.0981750 1.3116150 0.8424240
vn 0.0000000 -0.8660253 -0.5000004
vt 0.9736115 0.9074364
v -0.8837749 1.2894540 0.9251294
vn 0.0000000 -1.0000000 0.0000000
vt 0.9990272 0.9175864
v -1.0981750 1.2894540 0.9251294
vn 0.0000000 -1.0000000 0.0000000
vt 0.9736115 0.9175864
v -0.8837749 1.3116150 1.0078350
vn 0.0000000 -0.8660255 0.4999999
vt 0.9990272 0.9277363
v -1.0981750 1.3116150 1.0078350
vn 0.0000000 -0.8660265 0.4999982
vt 0.9736115 0.9277363
v -0.8837749 1.3721600 1.0683800
vn 0.0000000 -0.5000000 0.8660254
vt 0.9990270 0.9378862
v -1.0981750 1.3721600 1.0683800
vn 0.0000000 -0.4999990 0.8660260
vt 0.9736115 0.9378862
v -0.8837749 1.4548650 1.0905401
vn 0.0000000 0.0000000 1.0000000
vt 0.9990272 0.9480361
v -1.0981750 1.4548650 1.0905401
vn 0.0000000 0.0000000 1.0000000
vt 0.9736115 0.9480361
v -1.0981750 1.5375710 0.7818794
vn -1.0000000 0.0000000 0.0000000
vt 0.9421036 0.9622627
v -1.0981750 1.4548650 0.7597185
vn -1.0000000 0.0000000 0.0000000
vt 0.9519076 0.9596357
v -1.0981750 1.5981150 0.8424240
vn -1.0000000 0.0000000 0.0000000
vt 0.9349265 0.9694399
v -1.0981750 1.3721600 0.7818794
vn -1.0000000 0.0000000 0.0000000
vt 0.9617115 0.9622627
v -1.0981750 1.3116150 0.8424240
vn -1.0000000 0.0000000 0.0000000
vt 0.9688887 0.9694399
v -1.0981750 1.2894540 0.9251294
vn -1.0000000 0.0000000 0.0000000
vt 0.9715157 0.9792440
v -1.0981750 1.3116150 1.0078350
vn -1.0000000 0.0000000 0.0000000
vt 0.9688887 0.9890481
v -1.0981750 1.3721600 1.0683800
vn -1.0000000 0.0000000 0.0000000
vt 0.9617115 0.9962252
v -1.0981750 1.4548650 1.0905401
vn -1.0000000 0.0000000 0.0000000
vt 0.9519076 0.9988523
v -1.0981750 1.5375710 1.0683800
vn -1.0000000 0.0000000 0.0000000
vt 0.9421036 0.9962252
v -1.0981750 1.5981150 1.0078350
vn -1.0000000 0.0000000 0.0000000
vt 0.9349265 0.9890481
v -1.0981750 1.6202760 0.9251294
vn -1.0000000 0.0000000 0.0000000
vt 0.9322994 0.9792440

g group_59_140627854983056
f 1/1/1 2/2/2 3/3/3 
f 3/3/3 2/2/2 4/4/4 
f 2/2/2 5/5/5 4/4/4 
f 4/4/4 5/5/5 6/6/6 
f 5/5/5 7/7/7 6/6/6 
f 6/6/6 7/7/7 8/8/8 
f 7/7/7 9/9/9 8/8/8 
f 8/8/8 9/9/9 10/10/10 
f 11/11/11 12/12/12 13/13/13 
f 13/13/13 12/12/12 14/14/14 
f 12/12/12 15/15/15 14/14/14 
f 14/14/14 15/15/15 16/16/16 
f 15/15/15 17/17/17 16/16/16 
f 16/16/16 17/17/17 18/18/18 
f 17/17/17 19/19/19 18/18/18 
f 18/18/18 19/19/19 20/20/20 
f 19/19/19 21/21/21 20/20/20 
f 20/20/20 21/21/21 22/22/22 
f 21/21/21 23/23/23 22/22/22 
f 22/22/22 23/23/23 24/24/24 
f 23/23/23 25/25/25 24/24/24 
f 24/24/24 25/25/25 26/26/26 
f 25/25/25 1/1/1 26/26/26 
f 26/26/26 1/1/1 3/3/3 
f 27/27/27 28/28/28 29/29/29 
f 28/28/28 30/30/30 29/29/29 
f 30/30/30 31/31/31 29/29/29 
f 31/31/31 32/32/32 29/29/29 
f 32/32/32 33/33/33 29/29/29 
f 33/33/33 34/34/34 29/29/29 
f 34/34/34 35/35/35 29/29/29 
f 35/35/35 36/36/36 29/29/29 
f 36/36/36 37/37/37 29/29/29 
f 37/37/37 38/38/38 29/29/29 
