v -0.3495449 0.9774564 2.2688911
vn 0.0000000 0.5203006 0.8539832
vt 0.4766038 0.3051141
v 0.2080839 0.9774564 2.2688789
vn 0.0000000 0.5202986 0.8539844
vt 0.4096918 0.3051129
v -0.3495449 1.0857580 2.2029059
vn 0.0000000 0.6849061 0.7286314
vt 0.4766038 0.2898964
v 0.2080839 1.0857580 2.2028949
vn 0.0000000 0.6849080 0.7286296
vt 0.4096918 0.2898954
v -0.3495449 1.1584660 2.0987430
vn 0.0000000 0.9205715 0.3905741
vt 0.4766038 0.2746535
v 0.2080839 1.1584660 2.0987310
vn 0.0000000 0.9205737 0.3905691
vt 0.4096921 0.2746525
v -0.3495449 1.1836350 1.9722120
vn 0.0000000 0.9993448 -0.0361928
vt 0.4766038 0.2591732
v 0.2080839 1.1836350 1.9722000
vn 0.0000000 0.9993446 -0.0361995
vt 0.4096918 0.2591720
v -0.3495449 1.1491790 1.8423390
vn 0.0000000 0.8942469 -0.4475741
vt 0.4766038 0.2430501
v 0.2080839 1.1491790 1.8423270
vn 0.0000000 0.8942444 -0.4475789
vt 0.4096918 0.2430486
v -0.3495449 1.0663970 1.7379730
vn 0.0000000 0.6116714 -0.7911120
vt 0.4766038 0.2270671
v 0.2080839 1.0663970 1.7379611
vn 0.0000000 0.6116683 -0.7911144
vt 0.4096918 0.2270628
v -0.3495449 0.9444152 1.6840200
vn 0.0000000 0.4045076 -0.9145346
vt 0.4766055 0.2110637
v 0.2080839 0.9444152 1.6840080
vn 0.0000000 0.4045077 -0.9145346
vt 0.4096933 0.2110564
v -0.0759798 2.1043701 1.8433510
vn 0.0000000 0.6881310 -0.7255865
vt 0.1149184 0.9571432
v -0.0850118 2.1674910 1.9032130
vn 0.0000000 0.6881333 -0.7255843
vt 0.1253270 0.9557741
v 0.0904731 2.1043711 1.8433470
vn 0.0000000 0.6881363 -0.7255815
vt 0.1149166 0.9769517
v 0.1021250 2.1674910 1.9032090
vn 0.0000000 0.6881381 -0.7255798
vt 0.1252441 0.9780272
v 0.1021250 2.1674910 1.9032090
vn 0.9815786 0.0000000 -0.1910590
vt 0.1224733 0.9842088
v 0.1021250 1.1639910 1.9032090
vn 0.9815785 0.0000000 -0.1910595
vt 0.0026696 0.9842088
v 0.0904731 2.1043711 1.8433470
vn 0.9815786 0.0000000 -0.1910590
vt 0.1149166 0.9769517
v 0.0904731 1.1478270 1.8433470
vn 0.9815785 0.0000000 -0.1910596
vt 0.0008468 0.9769517
v 0.0904731 1.1478270 1.8433470
vn 0.0000000 0.0000000 -1.0000000
vt 0.0008468 0.9769517
v -0.0759798 1.1478260 1.8433510
vn 0.0000000 0.0000000 -1.0000000
vt 0.0008468 0.9571353
v 0.0904731 2.1043711 1.8433470
vn 0.0000000 0.0000000 -1.0000000
vt 0.1149166 0.9769517
v -0.0759798 2.1043701 1.8433510
vn 0.0000000 0.0000000 -1.0000000
vt 0.1149184 0.9571432
v 0.0725735 2.1551909 2.0242879
vn 0.9714169 0.0026827 0.2373649
vt 0.1210166 0.9991103
v 0.0801723 1.1746910 2.0042710
vn 0.9767376 0.0002312 0.2144382
vt 0.0039252 0.9965129
v 0.1021250 2.1674910 1.9032090
vn 0.9717852 0.0025208 0.2358541
vt 0.1224733 0.9842088
v 0.1021250 1.1639910 1.9032090
vn 0.9772109 0.0000000 0.2122708
vt 0.0026696 0.9842088
v -0.0609798 2.1551900 2.0242920
vn -0.9808042 0.0029622 0.1949727
vt 0.1210205 0.9351043
v -0.0850118 2.1674910 1.9032130
vn -0.9811385 0.0027848 0.1932862
vt 0.1224758 0.9499065
v -0.0679201 1.1746910 2.0042760
vn -0.9855880 0.0002526 0.1691637
vt 0.0039393 0.9376186
v -0.0850118 1.1639910 1.9032130
vn -0.9859988 0.0000000 0.1667523
vt 0.0026789 0.9499065
v 0.0801723 1.1746910 2.0042710
vn 0.0000000 -0.0204102 0.9997917
vt 0.2615395 0.9758871
v 0.0725735 2.1551909 2.0242879
vn 0.0000000 -0.0204105 0.9997917
vt 0.1403528 0.9748487
v -0.0679201 1.1746910 2.0042760
vn 0.0000000 -0.0204103 0.9997917
vt 0.2615592 0.9579077
v -0.0609798 2.1551900 2.0242920
vn 0.0000000 -0.0204106 0.9997917
vt 0.1403940 0.9588196
v -0.0850118 2.1674910 1.9032130
vn -0.9888083 0.0000000 -0.1491916
vt 0.1224758 0.9499065
v -0.0759798 2.1043701 1.8433510
vn -0.9888083 0.0000000 -0.1491916
vt 0.1149184 0.9571432
v -0.0850118 1.1639910 1.9032130
vn -0.9888083 0.0000000 -0.1491916
vt 0.0026789 0.9499065
v -0.0759798 1.1478260 1.8433510
vn -0.9888083 0.0000000 -0.1491916
vt 0.0008468 0.9571353
v -0.0609798 2.1551900 2.0242920
vn 0.0000000 0.9948797 0.1010666
vt 0.1403940 0.9588196
v 0.0725735 2.1551909 2.0242879
vn 0.0000000 0.9948799 0.1010647
vt 0.1403528 0.9748487
v -0.0850118 2.1674910 1.9032130
vn 0.0000000 0.9948798 0.1010651
vt 0.1253270 0.9557741
v 0.1021250 2.1674910 1.9032090
vn 0.0000000 0.9948800 0.1010639
vt 0.1252441 0.9780272
v 0.0643935 1.1683850 2.0291519
vn 0.7295554 0.0112815 -0.6838288
vt 0.7506916 0.2732073
v 0.0064122 1.1729850 2.0051360
vn 0.0000000 0.0115083 -0.9999338
vt 0.7512611 0.2655747
v 0.0489300 3.1362369 2.0451870
vn 0.7063115 0.0113299 -0.7078105
vt 0.9890209 0.2732073
v 0.0068791 3.1362369 2.0277669
vn 0.0000000 0.0115263 -0.9999336
vt 0.9890209 0.2655747
v 0.0068791 3.1362369 2.0277669
vn 0.0000000 0.0115263 -0.9999336
vt 0.9890209 0.3262409
v 0.0064122 1.1729850 2.0051360
vn 0.0000000 0.0115083 -0.9999338
vt 0.7512423 0.3262409
v -0.0351717 3.1362369 2.0451889
vn -0.7062753 0.0116649 -0.7078412
vt 0.9890209 0.3183472
v -0.0515688 1.1683850 2.0291541
vn -0.7296561 0.0116266 -0.6837154
vt 0.7506737 0.3183472
v -0.0525896 3.1362369 2.0872381
vn -0.9999320 0.0116530 -0.0004573
vt 0.9890209 0.3107736
v -0.0755855 1.1577851 2.0871351
vn -0.9942986 0.0114206 0.1060187
vt 0.7492393 0.3107736
v -0.0351717 3.1362369 2.1292889
vn -0.7043911 0.0113664 0.7097210
vt 0.9890209 0.3032209
v -0.0515688 1.1066591 2.1451170
vn -0.5978088 0.0110440 0.8015626
vt 0.7429558 0.3032198
v 0.0068791 3.1362369 2.1467049
vn 0.0000000 0.0110463 0.9999390
vt 0.9890209 0.2956811
v 0.0064122 1.0925590 2.1691310
vn 0.0000000 0.0109726 0.9999398
vt 0.7412172 0.2956767
v 0.0643935 1.1066591 2.1451130
vn 0.5978737 0.0107693 0.8015180
vt 0.7429637 0.2882736
v 0.0489300 3.1362369 2.1292870
vn 0.7044749 0.0110363 0.7096431
vt 0.9890209 0.2882722
v 0.0884100 1.1577851 2.0871310
vn 0.9943343 0.0109569 0.1057321
vt 0.7492531 0.2808018
v 0.0663479 3.1362369 2.0872340
vn 0.9999374 0.0111801 -0.0004580
vt 0.9890209 0.2808018
v 0.0068440 3.1512811 2.0178940
vn 0.0000000 -0.4886149 -0.8724996
vt 0.9907104 0.2655747
v 0.0559243 3.1512811 2.0382230
vn 0.6169761 -0.4885897 -0.6169446
vt 0.9907104 0.2732073
v 0.0068791 3.0274589 2.0872369
vn 0.0001095 -1.0000000 -0.0002060
vt 0.9768050 0.2956811
v 0.0068440 3.1512811 2.0178940
vn 0.0000000 -0.4886149 -0.8724996
vt 0.9907104 0.3262409
v -0.0422359 3.1512811 2.0382249
vn -0.6169521 -0.4888489 -0.6167632
vt 0.9907104 0.3183472
v -0.0625655 3.1512811 2.0873060
vn -0.8721937 -0.4891607 0.0001187
vt 0.9907104 0.3107736
v -0.0422359 3.1512811 2.1363871
vn -0.6166164 -0.4893685 0.6166869
vt 0.9907104 0.3032209
v 0.0068440 3.1512821 2.1567140
vn 0.0000000 -0.4893325 0.8720974
vt 0.9907104 0.2956811
v 0.0559243 3.1512811 2.1363850
vn 0.6166766 -0.4890967 0.6168423
vt 0.9907104 0.2882722
v 0.0762539 3.1512811 2.0873020
vn 0.8724028 -0.4887877 0.0001137
vt 0.9907104 0.2808018
v 0.0068440 3.2339029 2.0178940
vn 0.0000000 0.0000000 -1.0000000
vt 0.9994697 0.2655747
v 0.0559243 3.2339029 2.0382230
vn 0.7070946 0.0000000 -0.7071190
vt 0.9994697 0.2732073
v 0.0068440 3.1512811 2.0178940
vn 0.0000000 0.0000000 -1.0000000
vt 0.9907104 0.2655747
v 0.0559243 3.1512811 2.0382230
vn 0.7070950 0.0000000 -0.7071186
vt 0.9907104 0.2732073
v -0.0422359 3.2339029 2.0382249
vn -0.7071142 0.0000000 -0.7070994
vt 0.9994697 0.3183472
v 0.0068440 3.2339029 2.0178940
vn 0.0000000 0.0000000 -1.0000000
vt 0.9994697 0.3262409
v -0.0422359 3.1512811 2.0382249
vn -0.7071157 0.0000000 -0.7070979
vt 0.9907104 0.3183472
v 0.0068440 3.1512811 2.0178940
vn 0.0000000 0.0000000 -1.0000000
vt 0.9907104 0.3262409
v -0.0625655 3.2339029 2.0873060
vn -1.0000000 0.0000000 0.0000000
vt 0.9994697 0.3107736
v -0.0625655 3.1512811 2.0873060
vn -1.0000000 0.0000000 0.0000000
vt 0.9907104 0.3107736
v -0.0422359 3.2339029 2.1363871
vn -0.7071004 0.0000000 0.7071132
vt 0.9994697 0.3032209
v -0.0422359 3.1512811 2.1363871
vn -0.7071025 0.0000000 0.7071111
vt 0.9907104 0.3032209
v 0.0068440 3.2339029 2.1567140
vn 0.0000000 0.0000000 1.0000000
vt 0.9994697 0.2956811
v 0.0068440 3.1512821 2.1567140
vn 0.0000000 0.0000000 1.0000000
vt 0.9907104 0.2956811
v 0.0559243 3.2339029 2.1363850
vn 0.7071183 0.0000000 0.7070953
vt 0.9994697 0.2882722
v 0.0559243 3.1512811 2.1363850
vn 0.7071233 0.0000000 0.7070903
vt 0.9907104 0.2882722
v 0.0762539 3.2339029 2.0873020
vn 1.0000000 0.0000000 0.0000000
vt 0.9994697 0.2808018
v 0.0762539 3.1512811 2.0873020
vn 1.0000000 0.0000000 0.0000000
vt 0.9907104 0.2808018
v 0.0335833 3.3552120 2.0607440
vn -0.7066094 0.0380820 0.7065783
vt 0.6069068 0.5979759
v 0.0068398 3.3552120 2.0496600
vn 0.0000000 0.0382451 0.9992684
vt 0.6072038 0.5950544
v 0.0070674 2.3673780 2.0874679
vn 0.0003592 0.9999984 0.0017671
vt 0.7099896 0.6058814
v -0.0199223 3.3552120 2.0607440
vn 0.7066395 0.0384205 0.7065299
vt 0.6075010 0.5921313
v -0.0310072 3.3552110 2.0875101
vn 0.9992580 0.0385152 0.0000000
vt 0.6077976 0.5892139
v -0.0199223 3.3552129 2.1142609
vn 0.7064679 0.0384702 -0.7066988
vt 0.6080942 0.5862967
v 0.0068398 3.3552120 2.1253431
vn 0.0000000 0.0383138 -0.9992658
vt 0.6083893 0.5833941
v 0.0068398 3.3552120 2.1253431
vn 0.0000000 0.0383138 -0.9992658
vt 0.6060181 0.6067172
v 0.0335833 3.3552120 2.1142609
vn -0.7064709 0.0381317 -0.7067141
vt 0.6063135 0.6038123
v 0.0446838 3.3552120 2.0875089
vn -0.9992758 0.0380523 0.0000000
vt 0.6066102 0.6008936
v 0.0559243 3.2339029 2.0382230
vn 0.4124208 -0.8120154 -0.4129649
vt 0.9846839 0.2422550
v 0.0068440 3.2339029 2.0178940
vn 0.0398276 -0.8122114 -0.5820021
vt 0.9780983 0.2395273
v 0.0821404 3.2604539 2.0121970
vn 0.4130767 -0.8120158 -0.4123082
vt 0.9876177 0.2393469
v 0.0063530 3.2604539 1.9808080
vn 0.0235591 -0.8127359 -0.5821558
vt 0.9780323 0.2353773
v -0.0422359 3.2339029 2.0382249
vn -0.3792650 -0.8160325 -0.4361755
vt 0.9715129 0.2422555
v -0.0694340 3.2604539 2.0122011
vn -0.3922965 -0.8166931 -0.4232210
vt 0.9684476 0.2393476
v -0.0625655 3.2339029 2.0873060
vn -0.5701554 -0.8205988 -0.0392487
vt 0.9687855 0.2488405
v -0.1008263 3.2604539 2.0879879
vn -0.5702499 -0.8211749 -0.0220672
vt 0.9644774 0.2489321
v -0.0422359 3.2339029 2.1363871
vn -0.4009981 -0.8239055 0.4004751
vt 0.9715129 0.2554262
v -0.0694340 3.2604539 2.1637771
vn -0.4003620 -0.8239061 0.4011098
vt 0.9684476 0.2585171
v 0.0068440 3.2339029 2.1567140
vn 0.0385783 -0.8220462 0.5681126
vt 0.9780983 0.2581535
v 0.0063530 3.2604539 2.1951671
vn 0.0227070 -0.8225455 0.5682459
vt 0.9780323 0.2624871
v 0.0559243 3.2339029 2.1363850
vn 0.4340512 -0.8179782 0.3775067
vt 0.9846839 0.2554257
v 0.0821404 3.2604539 2.1637731
vn 0.4211695 -0.8186315 0.3904597
vt 0.9876177 0.2585168
v 0.0762539 3.2339029 2.0873020
vn 0.5801511 -0.8135165 -0.0401948
vt 0.9874113 0.2488403
v 0.1135325 3.2604539 2.0879841
vn 0.5802622 -0.8141140 -0.0226775
vt 0.9915879 0.2489318
v 0.0815026 3.2903550 2.0131929
vn 0.7089933 0.0385759 -0.7041593
vt 0.7100838 0.3083653
v 0.0821404 3.2604539 2.0121970
vn 0.7060767 0.0386129 -0.7070819
vt 0.7100838 0.3020116
v 0.0063652 3.2903550 1.9820729
vn 0.0000000 0.0422714 -0.9991062
vt 0.7178795 0.3083653
v 0.0063530 3.2604539 1.9808080
vn -0.0001248 0.0422726 -0.9991061
vt 0.7178795 0.3020116
v 0.0063530 3.2604539 1.9808080
vn -0.0001248 0.0422726 -0.9991061
vt 0.6555085 0.3020116
v -0.0694340 3.2604539 2.0122011
vn -0.7061670 0.0391667 -0.7069612
vt 0.6633049 0.3020116
v 0.0063652 3.2903550 1.9820729
vn 0.0000000 0.0422714 -0.9991062
vt 0.6555081 0.3083652
v -0.0687727 3.2903550 2.0131969
vn -0.7088916 0.0391353 -0.7042308
vt 0.6633049 0.3083652
v -0.1008263 3.2604539 2.0879879
vn -0.9995146 0.0311202 -0.0014597
vt 0.6711014 0.3020116
v -0.0998958 3.2903550 2.0883350
vn -0.9995089 0.0310544 0.0041878
vt 0.6711014 0.3083653
v -0.0694340 3.2604539 2.1637771
vn -0.7074158 0.0228061 0.7064296
vt 0.6788978 0.3020116
v -0.0687727 3.2903550 2.1634741
vn -0.7044868 0.0227703 0.7093518
vt 0.6788978 0.3083653
v 0.0063530 3.2604539 2.1951671
vn 0.0000000 0.0191243 0.9998171
vt 0.6866938 0.3020116
v 0.0063652 3.2903550 2.1945951
vn 0.0001223 0.0191226 0.9998171
vt 0.6866938 0.3083653
v 0.0815026 3.2903550 2.1634700
vn 0.7046020 0.0222165 0.7092549
vt 0.6944901 0.3083653
v 0.0821404 3.2604539 2.1637731
vn 0.7073398 0.0222471 0.7065235
vt 0.6944901 0.3020116
v 0.1126261 3.2903550 2.0883310
vn 0.9995336 0.0302515 0.0041800
vt 0.7022870 0.3083653
v 0.1135325 3.2604539 2.0879841
vn 0.9995393 0.0303174 -0.0014673
vt 0.7022870 0.3020116
v 0.0063652 3.2903550 1.9820729
vn 0.0213228 0.5492879 -0.8353611
vt 0.5532632 0.1346512
v 0.0066188 3.3195040 2.0012460
vn 0.0284713 0.5491437 -0.8352429
vt 0.5532017 0.1387323
v 0.0815026 3.2903550 2.0131929
vn 0.5917872 0.5479062 -0.5912586
vt 0.5455549 0.1346511
v 0.0679635 3.3195040 2.0266531
vn 0.5913056 0.5479034 -0.5917429
vt 0.5455549 0.1387323
v -0.0687727 3.2903550 2.0131969
vn -0.5739372 0.5547398 -0.6023785
vt 0.4966916 0.1346511
v -0.0547261 3.3195040 2.0266559
vn -0.5674360 0.5545254 -0.6087019
vt 0.4966916 0.1387323
v 0.0063652 3.2903550 1.9820729
vn 0.0213228 0.5492879 -0.8353611
vt 0.4898216 0.1346512
v 0.0066188 3.3195040 2.0012460
vn 0.0284713 0.5491437 -0.8352429
vt 0.4898252 0.1387323
v -0.0998958 3.2903550 2.0883350
vn -0.8276669 0.5608439 -0.0205320
vt 0.5052983 0.1346512
v -0.0801359 3.3195040 2.0880020
vn -0.8275453 0.5606713 -0.0285772
vt 0.5052983 0.1387323
v -0.0687727 3.2903550 2.1634741
vn -0.5835223 0.5642518 0.5840562
vt 0.5133908 0.1346512
v -0.0547261 3.3195040 2.1493480
vn -0.5839992 0.5642520 0.5835791
vt 0.5133908 0.1387323
v 0.0063652 3.2903550 2.1945951
vn 0.0210476 0.5624188 0.8265846
vt 0.5214267 0.1346512
v 0.0066188 3.3195040 2.1747561
vn 0.0281450 0.5622799 0.8264679
vt 0.5214267 0.1387323
v 0.0815026 3.2903550 2.1634700
vn 0.6013114 0.5569513 0.5729136
vt 0.5294810 0.1346512
v 0.0679635 3.3195040 2.1493440
vn 0.6076261 0.5567399 0.5664196
vt 0.5294810 0.1387323
v 0.1126261 3.2903550 2.0883310
vn 0.8343475 0.5508476 -0.0207665
vt 0.5376067 0.1346512
v 0.0933735 3.3195040 2.0879979
vn 0.8342213 0.5506732 -0.0288763
vt 0.5376067 0.1387323
v 0.0066188 3.3195040 2.0012460
vn 0.0147362 0.2728458 -0.9619449
vt 0.5532017 0.1387323
v 0.0067534 3.3553920 2.0114269
vn 0.0183329 0.2728222 -0.9618898
vt 0.5532140 0.1434221
v 0.0679635 3.3195040 2.0266531
vn 0.6806009 0.2718695 -0.6803452
vt 0.5455549 0.1387323
v 0.0607738 3.3553920 2.0338020
vn 0.6803428 0.2718804 -0.6805989
vt 0.5455549 0.1434221
v -0.0547261 3.3195040 2.0266559
vn -0.6694621 0.2764619 -0.6894848
vt 0.4966916 0.1387323
v -0.0472670 3.3553920 2.0338039
vn -0.6661066 0.2764134 -0.6927465
vt 0.4966916 0.1434221
v 0.0066188 3.3195040 2.0012460
vn 0.0147362 0.2728458 -0.9619449
vt 0.4898252 0.1387323
v 0.0067534 3.3553920 2.0114269
vn 0.0183329 0.2728222 -0.9618898
vt 0.4898786 0.1434221
v -0.0801359 3.3195040 2.0880020
vn -0.9597359 0.2805333 -0.0144280
vt 0.5052983 0.1387323
v -0.0696431 3.3553920 2.0878251
vn -0.9596761 0.2804952 -0.0185562
vt 0.5052983 0.1434220
v -0.0547261 3.3195040 2.1493480
vn -0.6781093 0.2827434 0.6783981
vt 0.5133908 0.1387323
v -0.0472670 3.3553920 2.1418459
vn -0.6783767 0.2827426 0.6781310
vt 0.5133908 0.1434220
v 0.0066188 3.3195040 2.1747561
vn 0.0147361 0.2815907 0.9594215
vt 0.5214267 0.1387323
v 0.0067534 3.3553920 2.1642201
vn 0.0183369 0.2815633 0.9593675
vt 0.5214267 0.1434220
v 0.0679635 3.3195040 2.1493440
vn 0.6891938 0.2779380 0.6691505
vt 0.5294810 0.1387323
v 0.0607738 3.3553920 2.1418419
vn 0.6924595 0.2778921 0.6657897
vt 0.5294810 0.1434220
v 0.0933735 3.3195040 2.0879979
vn 0.9616553 0.2738787 -0.0144757
vt 0.5376067 0.1387323
v 0.0831499 3.3553920 2.0878210
vn 0.9615938 0.2738449 -0.0186112
vt 0.5376067 0.1434220
v 0.0607738 3.3553920 2.0338020
vn -0.0031575 0.9999890 0.0034721
vt 0.7006173 0.1906610
v 0.0067534 3.3553920 2.0114269
vn 0.0000000 0.9999890 0.0046926
vt 0.7070832 0.1879830
v 0.0335833 3.3552120 2.0607440
vn -0.0029698 0.9999889 0.0036621
vt 0.7038717 0.1938858
v 0.0068398 3.3552120 2.0496600
vn 0.0000000 0.9999890 0.0046932
vt 0.7070725 0.1925593
v -0.0472670 3.3553920 2.0338039
vn 0.0031608 0.9999890 0.0034686
vt 0.7135494 0.1906611
v -0.0199223 3.3552120 2.0607440
vn 0.0029461 0.9999890 0.0036685
vt 0.7102765 0.1938858
v -0.0696431 3.3553920 2.0878251
vn 0.0046699 0.9999891 0.0002139
vt 0.7162276 0.1971273
v -0.0310072 3.3552110 2.0875101
vn 0.0046774 0.9999890 0.0004757
vt 0.7116027 0.1970897
v -0.0472670 3.3553920 2.1418459
vn 0.0034179 0.9999893 -0.0031125
vt 0.7135494 0.2035931
v -0.0199223 3.3552129 2.1142609
vn 0.0036105 0.9999892 -0.0029354
vt 0.7102765 0.2002915
v 0.0067534 3.3553920 2.1642201
vn 0.0000000 0.9999894 -0.0046106
vt 0.7070832 0.2062715
v 0.0068398 3.3552120 2.1253431
vn 0.0000000 0.9999894 -0.0046135
vt 0.7070725 0.2016181
v 0.0607738 3.3553920 2.1418419
vn -0.0034296 0.9999893 -0.0031248
vt 0.7006173 0.2035929
v 0.0335833 3.3552120 2.1142609
vn -0.0036220 0.9999892 -0.0029442
vt 0.7038717 0.2002915
v 0.0831499 3.3553920 2.0878210
vn -0.0046659 0.9999891 0.0002127
vt 0.6979387 0.1971269
v 0.0446838 3.3552120 2.0875089
vn -0.0046684 0.9999890 0.0004872
vt 0.7025430 0.1970894
v 0.0068791 3.0274589 2.0872369
vn 0.0001095 -1.0000000 -0.0002060
vt 0.9768050 0.2956811
v 0.0068791 3.0274589 2.0872369
vn 0.0001095 -1.0000000 -0.0002060
vt 0.9768050 0.2956811
v 0.0068791 3.0274589 2.0872369
vn 0.0001095 -1.0000000 -0.0002060
vt 0.9768050 0.2956811
v 0.0068791 3.0274589 2.0872369
vn 0.0001095 -1.0000000 -0.0002060
vt 0.9768050 0.2956811
v 0.0068791 3.0274589 2.0872369
vn 0.0001095 -1.0000000 -0.0002060
vt 0.9768050 0.2956811
v 0.0070674 2.3673780 2.0874679
vn 0.0003592 0.9999984 0.0017671
vt 0.7099896 0.6058814
v 0.0070674 2.3673780 2.0874679
vn 0.0003592 0.9999984 0.0017671
vt 0.7099896 0.6058814
v 0.0070674 2.3673780 2.0874679
vn 0.0003592 0.9999984 0.0017671
vt 0.7099896 0.6058814
v 0.0070674 2.3673780 2.0874679
vn 0.0003592 0.9999984 0.0017671
vt 0.7099896 0.6058814
v 0.0070674 2.3673780 2.0874679
vn 0.0003592 0.9999984 0.0017671
vt 0.7099896 0.6058814

g group_88_140627855012544
f 1/1/1 2/2/2 3/3/3 
f 3/3/3 2/2/2 4/4/4 
f 3/3/3 4/4/4 5/5/5 
f 5/5/5 4/4/4 6/6/6 
f 5/5/5 6/6/6 7/7/7 
f 7/7/7 6/6/6 8/8/8 
f 7/7/7 8/8/8 9/9/9 
f 9/9/9 8/8/8 10/10/10 
f 9/9/9 10/10/10 11/11/11 
f 11/11/11 10/10/10 12/12/12 
f 13/13/13 11/11/11 14/14/14 
f 14/14/14 11/11/11 12/12/12 
f 15/15/15 16/16/16 17/17/17 
f 17/17/17 16/16/16 18/18/18 
f 19/19/19 20/20/20 21/21/21 
f 21/21/21 20/20/20 22/22/22 
f 23/23/23 24/24/24 25/25/25 
f 25/25/25 24/24/24 26/26/26 
f 27/27/27 28/28/28 29/29/29 
f 29/29/29 28/28/28 30/30/30 
f 31/31/31 32/32/32 33/33/33 
f 33/33/33 32/32/32 34/34/34 
f 35/35/35 36/36/36 37/37/37 
f 37/37/37 36/36/36 38/38/38 
f 39/39/39 40/40/40 41/41/41 
f 41/41/41 40/40/40 42/42/42 
f 43/43/43 44/44/44 45/45/45 
f 45/45/45 44/44/44 46/46/46 
f 47/47/47 48/48/48 49/49/49 
f 49/49/49 48/48/48 50/50/50 
f 51/51/51 52/52/52 53/53/53 
f 53/53/53 52/52/52 54/54/54 
f 53/53/53 54/54/54 55/55/55 
f 55/55/55 54/54/54 56/56/56 
f 55/55/55 56/56/56 57/57/57 
f 57/57/57 56/56/56 58/58/58 
f 57/57/57 58/58/58 59/59/59 
f 59/59/59 58/58/58 60/60/60 
f 60/60/60 61/61/61 59/59/59 
f 59/59/59 61/61/61 62/62/62 
f 61/61/61 63/63/63 62/62/62 
f 62/62/62 63/63/63 64/64/64 
f 63/63/63 47/47/47 64/64/64 
f 64/64/64 47/47/47 49/49/49 
f 65/65/65 66/66/66 67/67/67 
f 68/68/68 67/67/67 69/69/69 
f 69/69/69 67/67/67 70/70/70 
f 70/70/70 189/189/189 71/71/71 
f 72/72/72 71/71/71 190/190/190 
f 73/73/73 72/72/72 191/191/191 
f 74/74/74 73/73/73 192/192/192 
f 66/66/66 74/74/74 193/193/193 
f 75/75/75 76/76/76 77/77/77 
f 77/77/77 76/76/76 78/78/78 
f 79/79/79 80/80/80 81/81/81 
f 81/81/81 80/80/80 82/82/82 
f 83/83/83 79/79/79 84/84/84 
f 84/84/84 79/79/79 81/81/81 
f 85/85/85 83/83/83 86/86/86 
f 86/86/86 83/83/83 84/84/84 
f 87/87/87 85/85/85 88/88/88 
f 88/88/88 85/85/85 86/86/86 
f 89/89/89 87/87/87 90/90/90 
f 90/90/90 87/87/87 88/88/88 
f 91/91/91 89/89/89 92/92/92 
f 92/92/92 89/89/89 90/90/90 
f 76/76/76 91/91/91 78/78/78 
f 78/78/78 91/91/91 92/92/92 
f 93/93/93 94/94/94 95/95/95 
f 94/94/94 96/96/96 95/95/95 
f 96/96/96 97/97/97 95/95/95 
f 97/97/97 98/98/98 194/194/194 
f 98/98/98 99/99/99 195/195/195 
f 100/100/100 101/101/101 196/196/196 
f 101/101/101 102/102/102 197/197/197 
f 102/102/102 93/93/93 198/198/198 
f 103/103/103 104/104/104 105/105/105 
f 105/105/105 104/104/104 106/106/106 
f 104/104/104 107/107/107 106/106/106 
f 106/106/106 107/107/107 108/108/108 
f 107/107/107 109/109/109 108/108/108 
f 108/108/108 109/109/109 110/110/110 
f 109/109/109 111/111/111 110/110/110 
f 110/110/110 111/111/111 112/112/112 
f 113/113/113 114/114/114 111/111/111 
f 111/111/111 114/114/114 112/112/112 
f 115/115/115 116/116/116 113/113/113 
f 113/113/113 116/116/116 114/114/114 
f 117/117/117 118/118/118 115/115/115 
f 115/115/115 118/118/118 116/116/116 
f 103/103/103 105/105/105 117/117/117 
f 117/117/117 105/105/105 118/118/118 
f 119/119/119 120/120/120 121/121/121 
f 121/121/121 120/120/120 122/122/122 
f 123/123/123 124/124/124 125/125/125 
f 125/125/125 124/124/124 126/126/126 
f 124/124/124 127/127/127 126/126/126 
f 126/126/126 127/127/127 128/128/128 
f 127/127/127 129/129/129 128/128/128 
f 128/128/128 129/129/129 130/130/130 
f 129/129/129 131/131/131 130/130/130 
f 130/130/130 131/131/131 132/132/132 
f 132/132/132 131/131/131 133/133/133 
f 133/133/133 131/131/131 134/134/134 
f 133/133/133 134/134/134 135/135/135 
f 135/135/135 134/134/134 136/136/136 
f 135/135/135 136/136/136 119/119/119 
f 119/119/119 136/136/136 120/120/120 
f 137/137/137 138/138/138 139/139/139 
f 139/139/139 138/138/138 140/140/140 
f 141/141/141 142/142/142 143/143/143 
f 143/143/143 142/142/142 144/144/144 
f 145/145/145 146/146/146 141/141/141 
f 141/141/141 146/146/146 142/142/142 
f 147/147/147 148/148/148 145/145/145 
f 145/145/145 148/148/148 146/146/146 
f 147/147/147 149/149/149 148/148/148 
f 148/148/148 149/149/149 150/150/150 
f 149/149/149 151/151/151 150/150/150 
f 150/150/150 151/151/151 152/152/152 
f 151/151/151 153/153/153 152/152/152 
f 152/152/152 153/153/153 154/154/154 
f 153/153/153 139/139/139 154/154/154 
f 154/154/154 139/139/139 140/140/140 
f 155/155/155 156/156/156 157/157/157 
f 157/157/157 156/156/156 158/158/158 
f 159/159/159 160/160/160 161/161/161 
f 161/161/161 160/160/160 162/162/162 
f 163/163/163 164/164/164 159/159/159 
f 159/159/159 164/164/164 160/160/160 
f 165/165/165 166/166/166 163/163/163 
f 163/163/163 166/166/166 164/164/164 
f 165/165/165 167/167/167 166/166/166 
f 166/166/166 167/167/167 168/168/168 
f 167/167/167 169/169/169 168/168/168 
f 168/168/168 169/169/169 170/170/170 
f 169/169/169 171/171/171 170/170/170 
f 170/170/170 171/171/171 172/172/172 
f 171/171/171 157/157/157 172/172/172 
f 172/172/172 157/157/157 158/158/158 
f 173/173/173 174/174/174 175/175/175 
f 175/175/175 174/174/174 176/176/176 
f 177/177/177 178/178/178 174/174/174 
f 174/174/174 178/178/178 176/176/176 
f 179/179/179 180/180/180 177/177/177 
f 177/177/177 180/180/180 178/178/178 
f 181/181/181 182/182/182 179/179/179 
f 179/179/179 182/182/182 180/180/180 
f 183/183/183 184/184/184 181/181/181 
f 181/181/181 184/184/184 182/182/182 
f 183/183/183 185/185/185 184/184/184 
f 184/184/184 185/185/185 186/186/186 
f 185/185/185 187/187/187 186/186/186 
f 186/186/186 187/187/187 188/188/188 
f 187/187/187 173/173/173 188/188/188 
f 188/188/188 173/173/173 175/175/175 
