v -1.0929893 2.8517685 0.6752092
vn 0.0000000 1.0000000 -0.0000002
vt 0.9039256 0.3202842
v -1.3621750 2.8517685 0.6752092
vn -0.0000003 1.0000000 0.0000004
vt 0.8761275 0.3202843
v -1.0929894 2.8034265 0.8239911
vn -0.0000005 0.8090172 0.5877849
vt 0.9039257 0.3041285
v -1.3621750 2.8034263 0.8239911
vn -0.0000006 0.8090171 0.5877852
vt 0.8761274 0.3041284
v -1.0929894 2.6768651 0.9159432
vn -0.0000002 0.3090170 0.9510565
vt 0.9039256 0.3202843
v -1.3621750 2.6768651 0.9159432
vn 0.0000000 0.3090175 0.9510564
vt 0.8761274 0.3202843
v -1.0929894 2.6768651 0.9159432
vn -0.0000002 0.3090170 0.9510565
vt 0.9039257 0.3042601
v -1.3621750 2.6768651 0.9159432
vn 0.0000000 0.3090175 0.9510564
vt 0.8761278 0.3042601
v -1.0929893 2.5204260 0.9159432
vn 0.0000000 -0.3090180 0.9510562
vt 0.9039255 0.3204144
v -1.3621750 2.5204260 0.9159432
vn 0.0000000 -0.3090179 0.9510562
vt 0.8761277 0.3204142
v -1.0929893 2.3938651 0.8239911
vn 0.0000000 -0.8090171 0.5877852
vt 0.9039256 0.3365693
v -1.3621750 2.3938651 0.8239911
vn 0.0000000 -0.8090171 0.5877852
vt 0.8761278 0.3365692
v -1.0929893 2.3455226 0.6752092
vn 0.0000000 -1.0000000 0.0000000
vt 0.9039256 0.3202842
v -1.3621750 2.3455226 0.6752092
vn 0.0000000 -1.0000000 0.0000001
vt 0.8761277 0.3202844
v -1.0929893 2.3938651 0.5264272
vn 0.0000000 -0.8090170 -0.5877853
vt 0.9039257 0.3041285
v -1.3621750 2.3938651 0.5264272
vn 0.0000000 -0.8090170 -0.5877853
vt 0.8761274 0.3041284
v -1.0929893 2.5204260 0.4344750
vn 0.0000000 -0.3090179 -0.9510562
vt 0.9039256 0.3202843
v -1.3621750 2.5204260 0.4344750
vn 0.0000000 -0.3090178 -0.9510562
vt 0.8761274 0.3202843
v -1.0929893 2.5204260 0.4344750
vn 0.0000000 -0.3090179 -0.9510562
vt 0.9039256 0.3042600
v -1.3621750 2.5204260 0.4344750
vn 0.0000000 -0.3090178 -0.9510562
vt 0.8761278 0.3042601
v -1.0929894 2.6768651 0.4344750
vn 0.0000000 0.3090173 -0.9510564
vt 0.9039255 0.3204144
v -1.3621750 2.6768651 0.4344750
vn 0.0000000 0.3090173 -0.9510565
vt 0.8761277 0.3204142
v -1.0929893 2.8034265 0.5264274
vn 0.0000000 0.8090175 -0.5877846
vt 0.9039256 0.3365693
v -1.3621750 2.8034265 0.5264274
vn 0.0000000 0.8090175 -0.5877846
vt 0.8761275 0.3365692
v -1.0929893 2.8517685 0.6752092
vn 1.0000000 0.0000000 0.0000004
vt 0.1035721 0.2490246
v -1.0929894 2.8034265 0.8239911
vn 1.0000000 0.0000001 0.0000006
vt 0.0933383 0.2456999
v -1.0929893 2.3455226 0.6752092
vn 1.0000000 0.0000002 -0.0000000
vt 0.1035721 0.2142048
v -1.0929894 2.6768651 0.9159432
vn 1.0000000 0.0000003 0.0000000
vt 0.0870135 0.2369948
v -1.0929893 2.5204260 0.9159432
vn 1.0000000 0.0000007 -0.0000005
vt 0.0870135 0.2262348
v -1.0929893 2.3938651 0.8239911
vn 1.0000000 0.0000000 0.0000000
vt 0.0933383 0.2175298
v -1.3621750 2.8517685 0.6752092
vn -1.0000000 0.0000000 0.0000000
vt 0.6359005 0.1772377
v -1.3621750 2.8034265 0.5264274
vn -1.0000000 0.0000000 0.0000000
vt 0.6303520 0.1601573
v -1.3621750 2.8034263 0.8239911
vn -1.0000000 0.0000000 0.0000000
vt 0.6303520 0.1943164
v -1.0929893 2.8034265 0.5264274
vn 1.0000000 -0.0000001 -0.0000003
vt 0.0934527 0.2456999
v -1.0929894 2.6768651 0.4344750
vn 1.0000000 -0.0000001 -0.0000005
vt 0.0871280 0.2369948
v -1.0929893 2.3938651 0.5264272
vn 1.0000000 0.0000005 0.0000003
vt 0.0934527 0.2175298
v -1.0929893 2.5204260 0.4344750
vn 1.0000000 0.0000008 0.0000010
vt 0.0871280 0.2262349
v -1.3621750 2.6768651 0.4344750
vn -1.0000000 0.0000000 0.0000000
vt 0.6158243 0.1496018
v -1.3621750 2.5204260 0.4344750
vn -1.0000000 0.0000000 0.0000000
vt 0.5978678 0.1496018
v -1.3621750 2.3938651 0.5264272
vn -1.0000000 0.0000000 0.0000000
vt 0.5833402 0.1601573
v -1.3621750 2.3455226 0.6752092
vn -1.0000000 0.0000000 0.0000000
vt 0.5777907 0.1772377
v -1.3621750 2.3938651 0.8239911
vn -1.0000000 0.0000000 0.0000000
vt 0.5833402 0.1943164
v -1.3621750 2.5204260 0.9159432
vn -1.0000000 0.0000000 0.0000000
vt 0.5978678 0.2048715
v -1.3621750 2.6768651 0.9159432
vn -1.0000000 0.0000000 0.0000000
vt 0.6158243 0.2048715
v -1.0929894 2.8034265 0.8239911
vn -0.0000005 0.8090172 0.5877849
vt 0.9039257 0.3041285
v -1.3621750 2.8034263 0.8239911
vn -0.0000006 0.8090171 0.5877852
vt 0.8761274 0.3041284
v -1.0929893 2.3938651 0.8239911
vn 0.0000000 -0.8090171 0.5877852
vt 0.9039256 0.3365693
v -1.3621750 2.3938651 0.8239911
vn 0.0000000 -0.8090171 0.5877852
vt 0.8761278 0.3365692
v -1.0929893 2.3938651 0.5264272
vn 0.0000000 -0.8090170 -0.5877853
vt 0.9039257 0.3041285
v -1.3621750 2.3938651 0.5264272
vn 0.0000000 -0.8090170 -0.5877853
vt 0.8761274 0.3041284
v -1.0929893 2.8034265 0.5264274
vn 0.0000000 0.8090175 -0.5877846
vt 0.9039256 0.3365693
v -1.3621750 2.8034265 0.5264274
vn 0.0000000 0.8090175 -0.5877846
vt 0.8761275 0.3365692
v -1.0929893 2.8517685 0.6752092
vn 1.0000000 0.0000000 0.0000004
vt 0.1035721 0.2490246
v -1.0929893 2.3455226 0.6752092
vn 1.0000000 0.0000002 -0.0000000
vt 0.1035721 0.2142048

g group_144192856_140627890756528
f 1/1/1 2/2/2 3/3/3 
f 3/3/3 2/2/2 4/4/4 
f 45/45/45 46/46/46 5/5/5 
f 5/5/5 46/46/46 6/6/6 
f 7/7/7 8/8/8 9/9/9 
f 9/9/9 8/8/8 10/10/10 
f 9/9/9 10/10/10 11/11/11 
f 11/11/11 10/10/10 12/12/12 
f 47/47/47 48/48/48 13/13/13 
f 13/13/13 48/48/48 14/14/14 
f 13/13/13 14/14/14 15/15/15 
f 15/15/15 14/14/14 16/16/16 
f 49/49/49 50/50/50 17/17/17 
f 17/17/17 50/50/50 18/18/18 
f 19/19/19 20/20/20 21/21/21 
f 21/21/21 20/20/20 22/22/22 
f 21/21/21 22/22/22 23/23/23 
f 23/23/23 22/22/22 24/24/24 
f 51/51/51 52/52/52 1/1/1 
f 1/1/1 52/52/52 2/2/2 
f 25/25/25 26/26/26 27/27/27 
f 26/26/26 28/28/28 27/27/27 
f 28/28/28 29/29/29 27/27/27 
f 29/29/29 30/30/30 27/27/27 
f 31/31/31 32/32/32 33/33/33 
f 53/53/53 54/54/54 34/34/34 
f 34/34/34 54/54/54 35/35/35 
f 54/54/54 36/36/36 35/35/35 
f 36/36/36 37/37/37 35/35/35 
f 32/32/32 38/38/38 39/39/39 
f 39/39/39 40/40/40 41/41/41 
f 41/41/41 42/42/42 43/43/43 
f 43/43/43 44/44/44 33/33/33 
f 41/41/41 43/43/43 33/33/33 
f 39/39/39 41/41/41 33/33/33 
f 32/32/32 39/39/39 33/33/33 
