v 1.1326375 -2.3061438 0.6412387
vn 0.0000000 1.0000000 -0.0000006
vt 0.5522020 0.4908256
v 1.1326370 -2.3475249 0.7956722
vn 0.0000000 0.8660249 0.5000010
vt 0.5330977 0.4908256
v 1.3283207 -2.3061438 0.6412387
vn 0.0000000 1.0000000 -0.0000005
vt 0.5522019 0.4674437
v 1.3283210 -2.3475249 0.7956722
vn 0.0000000 0.8660250 0.5000008
vt 0.5330979 0.4674439
v 1.1326373 -2.4605775 0.9087254
vn 0.0000000 0.5000018 0.8660244
vt 0.5523299 0.4908256
v 1.3283207 -2.4605775 0.9087254
vn 0.0000003 0.5000016 0.8660245
vt 0.5523298 0.4674439
v 1.1326373 -2.4605775 0.9087254
vn 0.0000000 0.5000018 0.8660244
vt 0.5330977 0.4908256
v 1.1326370 -2.6150105 0.9501058
vn -0.0000003 0.0000007 1.0000000
vt 0.5522016 0.4908251
v 1.3283207 -2.4605775 0.9087254
vn 0.0000003 0.5000016 0.8660245
vt 0.5330977 0.4674439
v 1.3283207 -2.6150112 0.9501058
vn 0.0000003 -0.0000013 1.0000000
vt 0.5522017 0.4674439
v 1.1326370 -2.6150105 0.9501058
vn -0.0000003 0.0000007 1.0000000
vt 0.5523299 0.4908256
v 1.1326373 -2.7694438 0.9087255
vn -0.0000003 -0.4999990 0.8660260
vt 0.5330977 0.4908256
v 1.3283207 -2.6150112 0.9501058
vn 0.0000003 -0.0000013 1.0000000
vt 0.5523299 0.4674439
v 1.3283210 -2.7694438 0.9087255
vn 0.0000000 -0.4999996 0.8660256
vt 0.5330979 0.4674439
v 1.1326375 -2.8824975 0.7956723
vn 0.0000000 -0.8660254 0.5000001
vt 0.5521967 0.4908256
v 1.3283210 -2.8824975 0.7956723
vn 0.0000000 -0.8660253 0.5000003
vt 0.5522019 0.4674437
v 1.1326370 -2.9238775 0.6412389
vn 0.0000000 -1.0000000 0.0000007
vt 0.5712963 0.4908253
v 1.3283207 -2.9238775 0.6412389
vn 0.0000000 -1.0000000 0.0000009
vt 0.5712967 0.4674440
v 1.1326373 -2.8824978 0.4868053
vn 0.0000001 -0.8660269 -0.4999975
vt 0.5903862 0.4908256
v 1.3283207 -2.8824978 0.4868053
vn 0.0000011 -0.8660262 -0.4999986
vt 0.5903871 0.4674439
v 1.1326370 -2.7694449 0.3737521
vn 0.0000016 -0.5000008 -0.8660250
vt 0.6095055 0.4908256
v 1.3283207 -2.7694440 0.3737521
vn 0.0000024 -0.4999988 -0.8660261
vt 0.6095064 0.4674440
v 1.1326373 -2.6150115 0.3323716
vn 0.0000001 -0.0000018 -1.0000000
vt 0.6279975 0.4908254
v 1.3283207 -2.6150107 0.3323716
vn 0.0000003 -0.0000003 -1.0000000
vt 0.6280261 0.4674440
v 1.1326373 -2.6150115 0.3323716
vn 0.0000001 -0.0000018 -1.0000000
vt 0.6095053 0.4908256
v 1.1326373 -2.4605775 0.3737519
vn -0.0000003 0.5000013 -0.8660247
vt 0.5904222 0.4908254
v 1.3283207 -2.6150107 0.3323716
vn 0.0000003 -0.0000003 -1.0000000
vt 0.6095061 0.4674440
v 1.3283207 -2.4605775 0.3737519
vn 0.0000001 0.5000014 -0.8660246
vt 0.5904213 0.4674439
v 1.1326370 -2.3475251 0.4868050
vn 0.0000001 0.8660247 -0.5000013
vt 0.5713079 0.4908254
v 1.3283207 -2.3475251 0.4868050
vn 0.0000001 0.8660248 -0.5000011
vt 0.5713077 0.4674440
v 1.1326370 -2.6150105 0.9501058
vn -1.0000000 0.0000000 -0.0000004
vt 0.2181933 0.1404329
v 1.1326373 -2.6150115 0.3323716
vn -1.0000000 0.0000002 0.0000003
vt 0.2609344 0.1404330
v 1.1326373 -2.7694438 0.9087255
vn -1.0000000 -0.0000015 -0.0000004
vt 0.2210564 0.1297475
v 1.1326375 -2.8824975 0.7956723
vn -1.0000000 -0.0000003 0.0000004
vt 0.2288782 0.1219253
v 1.1326370 -2.9238775 0.6412389
vn -1.0000000 0.0000022 0.0000015
vt 0.2395634 0.1190621
v 1.1326373 -2.8824978 0.4868053
vn -1.0000000 -0.0000007 -0.0000011
vt 0.2502489 0.1219252
v 1.1326370 -2.7694449 0.3737521
vn -1.0000000 0.0000029 0.0000050
vt 0.2580712 0.1297475
v 1.3283207 -2.3061438 0.6412387
vn 1.0000000 0.0000029 -0.0000008
vt 0.3730022 0.0344220
v 1.3283210 -2.3475249 0.7956722
vn 1.0000000 -0.0000007 -0.0000004
vt 0.3685907 0.0508847
v 1.3283207 -2.3475251 0.4868050
vn 1.0000000 0.0000000 -0.0000002
vt 0.3685907 0.0179591
v 1.1326373 -2.4605775 0.9087254
vn -1.0000000 0.0000002 -0.0000001
vt 0.2210564 0.1296323
v 1.1326370 -2.3475249 0.7956722
vn -1.0000000 -0.0000003 -0.0000004
vt 0.2288783 0.1218104
v 1.1326375 -2.3061438 0.6412387
vn -1.0000000 0.0000018 -0.0000010
vt 0.2395635 0.1189420
v 1.1326370 -2.3475251 0.4868050
vn -1.0000000 -0.0000028 0.0000033
vt 0.2502490 0.1218104
v 1.1326373 -2.4605775 0.3737519
vn -1.0000000 0.0000008 -0.0000029
vt 0.2580712 0.1296325
v 1.3283207 -2.4605775 0.9087254
vn 1.0000000 0.0000008 0.0000029
vt 0.3565391 0.0629359
v 1.3283207 -2.6150112 0.9501058
vn 1.0000000 0.0000003 -0.0000002
vt 0.3400757 0.0673467
v 1.3283210 -2.7694438 0.9087255
vn 1.0000000 0.0000021 -0.0000021
vt 0.3236127 0.0629359
v 1.3283210 -2.8824975 0.7956723
vn 1.0000000 0.0000010 -0.0000009
vt 0.3115615 0.0508847
v 1.3283207 -2.9238775 0.6412389
vn 1.0000000 -0.0000029 -0.0000008
vt 0.3071504 0.0344220
v 1.3283207 -2.8824978 0.4868053
vn 1.0000000 -0.0000000 -0.0000002
vt 0.3115615 0.0179591
v 1.3283207 -2.7694440 0.3737521
vn 1.0000000 0.0000000 0.0000000
vt 0.3236127 0.0059077
v 1.3283207 -2.6150107 0.3323716
vn 1.0000000 0.0000000 0.0000000
vt 0.3400756 0.0014955
v 1.3283207 -2.4605775 0.3737519
vn 1.0000000 0.0000000 0.0000000
vt 0.3565391 0.0059077
v 1.1326370 -2.3475249 0.7956722
vn 0.0000000 0.8660249 0.5000010
vt 0.5330977 0.4908256
v 1.3283210 -2.3475249 0.7956722
vn 0.0000000 0.8660250 0.5000008
vt 0.5330979 0.4674439
v 1.1326373 -2.7694438 0.9087255
vn -0.0000003 -0.4999990 0.8660260
vt 0.5330977 0.4908256
v 1.3283210 -2.7694438 0.9087255
vn 0.0000000 -0.4999996 0.8660256
vt 0.5330979 0.4674439
v 1.1326370 -2.6150105 0.9501058
vn -1.0000000 0.0000000 -0.0000004
vt 0.2181933 0.1404329
v 1.1326373 -2.6150115 0.3323716
vn -1.0000000 0.0000002 0.0000003
vt 0.2609344 0.1404330

g group_144194368_140627890760896
f 1/1/1 2/2/2 3/3/3 
f 2/2/2 4/4/4 3/3/3 
f 55/55/55 5/5/5 56/56/56 
f 5/5/5 6/6/6 56/56/56 
f 7/7/7 8/8/8 9/9/9 
f 8/8/8 10/10/10 9/9/9 
f 11/11/11 12/12/12 13/13/13 
f 12/12/12 14/14/14 13/13/13 
f 57/57/57 15/15/15 58/58/58 
f 15/15/15 16/16/16 58/58/58 
f 15/15/15 17/17/17 16/16/16 
f 17/17/17 18/18/18 16/16/16 
f 17/17/17 19/19/19 18/18/18 
f 19/19/19 20/20/20 18/18/18 
f 19/19/19 21/21/21 20/20/20 
f 21/21/21 22/22/22 20/20/20 
f 21/21/21 23/23/23 22/22/22 
f 23/23/23 24/24/24 22/22/22 
f 25/25/25 26/26/26 27/27/27 
f 26/26/26 28/28/28 27/27/27 
f 26/26/26 29/29/29 28/28/28 
f 29/29/29 30/30/30 28/28/28 
f 29/29/29 1/1/1 30/30/30 
f 1/1/1 3/3/3 30/30/30 
f 31/31/31 32/32/32 33/33/33 
f 33/33/33 32/32/32 34/34/34 
f 34/34/34 32/32/32 35/35/35 
f 35/35/35 32/32/32 36/36/36 
f 36/36/36 32/32/32 37/37/37 
f 38/38/38 39/39/39 40/40/40 
f 59/59/59 41/41/41 60/60/60 
f 41/41/41 42/42/42 60/60/60 
f 42/42/42 43/43/43 60/60/60 
f 43/43/43 44/44/44 60/60/60 
f 44/44/44 45/45/45 60/60/60 
f 39/39/39 46/46/46 47/47/47 
f 47/47/47 48/48/48 49/49/49 
f 49/49/49 50/50/50 51/51/51 
f 47/47/47 49/49/49 51/51/51 
f 51/51/51 52/52/52 53/53/53 
f 53/53/53 54/54/54 40/40/40 
f 51/51/51 53/53/53 40/40/40 
f 47/47/47 51/51/51 40/40/40 
f 39/39/39 47/47/47 40/40/40 
