v 1.0628630 0.3949510 0.4574553
vn -0.0000002 0.9999949 0.0032228
vt 0.2187904 0.0014756
v 1.0628630 0.3389114 0.6665499
vn 0.0000001 0.8688204 0.4951275
vt 0.1961654 0.0014817
v 1.3928270 0.3949510 0.4574553
vn 0.0000000 0.9999948 0.0032232
vt 0.2188143 0.0387589
v 1.3928270 0.3389114 0.6665499
vn -0.0000001 0.8691025 0.4946320
vt 0.1962412 0.0387762
v 1.0621001 0.1831478 0.8260531
vn -0.0000002 0.5011245 0.8653752
vt 0.1728712 0.0014504
v 1.3920640 0.1831480 0.8260531
vn -0.0000003 0.5016508 0.8650703
vt 0.1729442 0.0387494
v 1.0621001 -0.0300227 0.8811991
vn -0.0000001 -0.0056496 0.9999840
vt 0.1499333 0.0014580
v 1.3920640 -0.0300227 0.8811991
vn 0.0000000 -0.0062395 0.9999806
vt 0.1499154 0.0387341
v 1.0628630 -0.2406662 0.8240264
vn 0.0000000 -0.5011052 0.8653864
vt 0.1271700 0.0014784
v 1.3928270 -0.2406662 0.8240264
vn 0.0000000 -0.5016178 0.8650894
vt 0.1271351 0.0387604
v 1.0628630 -0.3968837 0.6678369
vn 0.0000001 -0.8650499 0.5016859
vt 0.1053612 0.0014544
v 1.3928270 -0.3968836 0.6678369
vn 0.0000002 -0.8650499 0.5016859
vt 0.1053514 0.0387486
v 1.0628630 -0.3968837 0.6678369
vn 0.0000001 -0.8650499 0.5016859
vt 0.1055047 0.0382265
v 1.0628630 -0.4546762 0.4553899
vn 0.0000002 -0.9999940 -0.0034568
vt 0.1272305 0.0382278
v 1.3928270 -0.3968836 0.6678369
vn 0.0000002 -0.8650499 0.5016859
vt 0.1054999 0.0009175
v 1.3928270 -0.4546761 0.4553899
vn 0.0000001 -0.9999940 -0.0034568
vt 0.1272141 0.0009192
v 1.0628630 -0.3956478 0.2441760
vn 0.0000001 -0.8654609 -0.5009765
vt 0.1501534 0.0382303
v 1.3928270 -0.3956478 0.2441760
vn -0.0000000 -0.8654611 -0.5009763
vt 0.1501273 0.0009223
v 1.0628630 -0.2420969 0.0880036
vn -0.0000001 -0.5017090 -0.8650365
vt 0.1730288 0.0382339
v 1.3928270 -0.2420970 0.0880036
vn -0.0000001 -0.5017092 -0.8650364
vt 0.1729991 0.0009261
v 1.0628630 -0.0279042 0.0316460
vn -0.0000000 0.0029208 -0.9999958
vt 0.1961589 0.0382377
v 1.3928270 -0.0279041 0.0316460
vn 0.0000000 0.0029210 -0.9999958
vt 0.1961329 0.0009298
v 1.0628630 0.1806087 0.0878136
vn 0.0000001 0.4968449 -0.8678394
vt 0.2187201 0.0382408
v 1.3928270 0.1806087 0.0878136
vn -0.0000001 0.4968448 -0.8678395
vt 0.2187038 0.0009322
v 1.0628630 0.3391140 0.2436139
vn -0.0000004 0.8654703 -0.5009602
vt 0.2409813 0.0382426
v 1.3928270 0.3391142 0.2436139
vn -0.0000004 0.8654704 -0.5009601
vt 0.2409765 0.0009335
v 1.0628630 0.3391140 0.2436139
vn -0.0000004 0.8654703 -0.5009602
vt 0.2409212 0.0014752
v 1.3928270 0.3391142 0.2436139
vn -0.0000004 0.8654704 -0.5009601
vt 0.2409282 0.0387635
v 1.0628630 0.3949510 0.4574553
vn -1.0000000 0.0000000 0.0000000
vt 0.2494551 0.1536274
v 1.0628630 0.3391140 0.2436139
vn -0.9999999 0.0001702 -0.0004264
vt 0.2655132 0.1452199
v 1.0628630 0.3389114 0.6665499
vn -0.9999903 0.0044134 0.0000021
vt 0.2317126 0.1530068
v 1.0621001 0.1831478 0.8260531
vn -0.9999992 0.0006734 -0.0011296
vt 0.2160934 0.1435021
v 1.0621001 -0.0300227 0.8811991
vn -0.9999949 -0.0020983 -0.0024114
vt 0.2077541 0.1274821
v 1.0628630 -0.2406662 0.8240264
vn -0.9999987 -0.0011424 -0.0011412
vt 0.2084367 0.1095940
v 1.0628630 -0.3968837 0.6678369
vn -1.0000000 0.0000000 0.0000000
vt 0.2180354 0.0942297
v 1.0628630 -0.4546762 0.4553899
vn -1.0000000 0.0000000 0.0000000
vt 0.2339456 0.0856898
v 1.0628630 -0.3956478 0.2441760
vn -1.0000000 0.0000000 0.0000000
vt 0.2519127 0.0865107
v 1.0628630 -0.2420969 0.0880036
vn -1.0000000 0.0000000 0.0000000
vt 0.2672254 0.0959017
v 1.0628630 -0.0279042 0.0316460
vn -1.0000000 0.0000000 0.0000000
vt 0.2756805 0.1119774
v 1.0628630 0.1806087 0.0878136
vn -1.0000000 0.0000000 0.0000000
vt 0.2750390 0.1296770
v 1.3928270 0.3949510 0.4574553
vn 1.0000000 0.0000000 0.0000000
vt 0.1485313 0.0892477
v 1.3928270 0.3389114 0.6665499
vn 0.9999982 -0.0012045 0.0015027
vt 0.1419842 0.1135100
v 1.3928270 0.2931095 0.4572014
vn 1.0000000 0.0000000 0.0000000
vt 0.1386027 0.0895267
v 1.3928270 0.2574033 0.6012161
vn 0.9999989 -0.0000441 0.0015105
vt 0.1346165 0.1075129
v 1.3920640 0.1831480 0.8260531
vn 0.9999802 0.0023255 0.0058563
vt 0.1240070 0.1318846
v 1.3928270 0.1380590 0.7318245
vn 0.9999728 0.0039572 0.0062214
vt 0.1198692 0.1231737
v 1.3920640 -0.0300227 0.8811991
vn 0.9999719 0.0017810 0.0072892
vt 0.0994551 0.1382802
v 1.3928270 -0.0297620 0.7767388
vn 0.9999788 0.0015759 0.0063228
vt 0.0994808 0.1284967
v 1.3928270 -0.2406662 0.8240264
vn 0.9999991 0.0003035 0.0013538
vt 0.0751523 0.1317122
v 1.3928270 -0.1951078 0.7300241
vn 1.0000000 0.0000000 0.0000000
vt 0.0794717 0.1227686
v 1.3928270 -0.3968836 0.6678369
vn 1.0000000 0.0000000 0.0000000
vt 0.0571368 0.1137018
v 1.3928270 -0.3150508 0.6029106
vn 1.0000000 0.0000000 0.0000000
vt 0.0650323 0.1072630
v 1.3928270 -0.4546761 0.4553899
vn 1.0000000 0.0000000 0.0000000
vt 0.0504558 0.0888686
v 1.3928270 -0.3528348 0.4556439
vn 1.0000000 0.0000000 0.0000000
vt 0.0603750 0.0893002
v 1.3928270 -0.3956478 0.2441760
vn 1.0000000 0.0000000 0.0000000
vt 0.0571684 0.0644206
v 1.3928270 -0.3141398 0.3095095
vn 1.0000000 0.0000000 0.0000000
vt 0.0646424 0.0711077
v 1.3928270 -0.2420970 0.0880036
vn 1.0000000 0.0000000 0.0000000
vt 0.0749358 0.0463615
v 1.3928270 -0.1970081 0.1822322
vn 1.0000000 0.0000000 0.0000000
vt 0.0791314 0.0558211
v 1.3928270 -0.0279041 0.0316460
vn 1.0000000 0.0000000 0.0000000
vt 0.0997006 0.0398906
v 1.3928270 -0.0281647 0.1361064
vn 1.0000000 0.0000000 0.0000000
vt 0.0996750 0.0503638
v 1.3928270 0.1806087 0.0878136
vn 1.0000000 0.0000000 0.0000000
vt 0.1237927 0.0463461
v 1.3928270 0.1350507 0.1818161
vn 1.0000000 0.0000000 0.0000000
vt 0.1194714 0.0559357
v 1.3928270 0.3391142 0.2436139
vn 1.0000000 0.0000000 0.0000000
vt 0.1421566 0.0642536
v 1.3928270 0.2572813 0.3085402
vn 1.0000000 0.0000000 0.0000000
vt 0.1342523 0.0713235
v 1.3928270 0.2931095 0.4572014
vn 0.0709662 -0.9974734 -0.0032528
vt 0.0974180 0.3180684
v 1.3928270 0.2574033 0.6012161
vn 0.0886098 -0.8783367 -0.4697586
vt 0.0701307 0.3179181
v 1.0834980 0.2711022 0.4571465
vn 0.1393939 -0.9902366 -0.0009583
vt 0.1017783 0.3638641
v 1.0834980 0.1840526 0.6492801
vn 0.1524816 -0.7143307 -0.6829942
vt 0.0708714 0.3609450
v 1.3928270 0.1380590 0.7318245
vn 0.0968862 -0.5153673 -0.8514750
vt 0.0834795 0.3182384
v 1.3928270 -0.0297620 0.7767388
vn 0.0727810 0.0068517 -0.9973244
vt 0.1071654 0.3182257
v 1.0834980 -0.0297058 0.7541655
vn 0.1492109 0.0038682 -0.9887978
vt 0.1074589 0.3616376
v 1.3928270 -0.1951078 0.7300241
vn 0.0949079 0.5147387 -0.8520778
vt 0.0828411 0.3183865
v 1.0834980 -0.2413151 0.6492955
vn 0.1503834 0.7114961 -0.6864096
vt 0.0717688 0.3630446
v 1.3928270 -0.3150508 0.6029106
vn 0.0891848 0.8725368 -0.4803391
vt 0.0639076 0.3185505
v 1.3928270 -0.3528348 0.4556439
vn 0.0709660 0.9974715 0.0038244
vt 0.0974540 0.3180544
v 1.0834980 -0.3308275 0.4556987
vn 0.1367172 0.9906096 0.0010477
vt 0.0944250 0.3593649
v 1.3928270 -0.3141398 0.3095095
vn 0.0879184 0.8737760 0.4783157
vt 0.0929643 0.3192013
v 1.0834980 -0.2418954 0.2631111
vn 0.1503925 0.7115356 0.6863667
vt 0.0806300 0.3621966
v 1.3928270 -0.1970081 0.1822322
vn 0.0960594 0.5161179 0.8511139
vt 0.0684660 0.3180809
v 1.3928270 -0.0281647 0.1361064
vn 0.0727819 -0.0031742 0.9973429
vt 0.0870137 0.3182237
v 1.0834980 -0.0282208 0.1586797
vn 0.1476274 -0.0027826 0.9890391
vt 0.0876775 0.3616398
v 1.3928270 -0.0281647 0.1361064
vn 0.0727819 -0.0031742 0.9973429
vt 0.0870394 0.3182253
v 1.3928270 0.1350507 0.1818161
vn 0.0944228 -0.5091873 0.8554605
vt 0.1085043 0.3183761
v 1.0834980 -0.0282208 0.1586797
vn 0.1476274 -0.0027826 0.9890391
vt 0.0860052 0.3618265
v 1.0834980 0.1824018 0.2623499
vn 0.1519348 -0.7109421 0.6866419
vt 0.0931233 0.3611276
v 1.3928270 0.2572813 0.3085402
vn 0.0906867 -0.8733537 0.4785700
vt 0.0793793 0.3185685
v 1.3928270 0.2931095 0.4572014
vn 0.0709662 -0.9974734 -0.0032528
vt 0.0665879 0.3180634
v 1.0834980 0.2711022 0.4571465
vn 0.1393939 -0.9902366 -0.0009583
vt 0.0665482 0.3615047
v 1.2936540 0.3251108 0.6554879
vn 1.0000000 0.0000000 0.0000000
vt 0.1413020 0.1128541
v 1.2936540 -0.0299786 0.8635124
vn 1.0000000 -0.0000004 -0.0000005
vt 0.0993968 0.1374040
v 1.2936540 0.3681456 0.3668264
vn 1.0000000 0.0000000 0.0000000
vt 0.1463809 0.0787866
v 1.2936540 0.1485810 0.0900880
vn 1.0000000 0.0000000 0.0000000
vt 0.1204698 0.0461287
v 1.2936540 -0.2046786 0.0892071
vn 1.0000000 -0.0000013 0.0000003
vt 0.0787794 0.0460247
v 1.2936530 -0.4256207 0.3648469
vn 1.0000000 -0.0000024 -0.0000000
vt 0.0527046 0.0785530
v 1.2936540 -0.3478720 0.7094451
vn 1.0000000 0.0000015 -0.0000031
vt 0.0618800 0.1192221
v 1.2891610 0.0589101 0.4564223
vn 0.6527644 0.7541720 0.0715773
vt 0.3298434 0.6859198
v 1.2891610 0.0326321 0.5198634
vn 0.6527666 0.5838916 0.4826658
vt 0.3266985 0.6777675
v 1.3266360 0.0288176 0.4317243
vn 0.7718506 0.5874063 -0.2433113
vt 0.3238847 0.6887957
v 1.3266360 -0.0061107 0.5160487
vn 0.7718525 0.2433112 0.5874039
vt 0.3198488 0.6792387
v 1.2891610 -0.0308088 0.5461416
vn 0.6527691 -0.0715766 0.7541680
vt 0.3170005 0.6734036
v 1.2891610 -0.0308088 0.5461416
vn 0.6527691 -0.0715766 0.7541680
vt 0.3170005 0.6734589
v 1.2891610 -0.0942498 0.5198634
vn 0.6527680 -0.4826661 0.5838898
vt 0.3081873 0.6777653
v 1.3266360 -0.0904351 0.4811204
vn 0.7718519 -0.5874050 0.2433106
vt 0.3103585 0.6832168
v 1.2891610 -0.1205277 0.4564223
vn 0.6527659 -0.7541707 -0.0715775
vt 0.3045714 0.6859333
v 1.2891610 -0.0942497 0.3929813
vn 0.6527681 -0.5838907 -0.4826651
vt 0.3082065 0.6949466
v 1.3266360 -0.0555067 0.3967960
vn 0.7718527 -0.2433102 -0.5874042
vt 0.3142683 0.6926901
v 1.2891610 -0.0308089 0.3667032
vn 0.6527677 0.0715766 -0.7541691
vt 0.3169958 0.6985119
v 1.2891610 -0.0308089 0.3667032
vn 0.6527677 0.0715766 -0.7541691
vt 0.3169958 0.6985668
v 1.2891610 0.0326321 0.3929814
vn 0.6527660 0.4826664 -0.5838918
vt 0.3266985 0.6948831
v 1.3567311 -0.0308087 0.4564223
vn 1.0000000 0.0000002 -0.0000002
vt 0.3170187 0.6859856
v 1.3928270 0.2574033 0.6012161
vn 0.0886098 -0.8783367 -0.4697586
vt 0.0701307 0.3179181
v 1.0834980 0.1840526 0.6492801
vn 0.1524816 -0.7143307 -0.6829942
vt 0.0708714 0.3609450
v 1.3928270 -0.0297620 0.7767388
vn 0.0727810 0.0068517 -0.9973244
vt 0.1071654 0.3182257
v 1.0834980 -0.0297058 0.7541655
vn 0.1492109 0.0038682 -0.9887978
vt 0.1074589 0.3616376
v 1.0834980 -0.2413151 0.6492955
vn 0.1503834 0.7114961 -0.6864096
vt 0.0717688 0.3630446
v 1.3928270 -0.3150508 0.6029106
vn 0.0891848 0.8725368 -0.4803391
vt 0.0639076 0.3185505
v 1.3928270 -0.3528348 0.4556439
vn 0.0709660 0.9974715 0.0038244
vt 0.0974540 0.3180544
v 1.0834980 -0.3308275 0.4556987
vn 0.1367172 0.9906096 0.0010477
vt 0.0944250 0.3593649
v 1.0834980 -0.2418954 0.2631111
vn 0.1503925 0.7115356 0.6863667
vt 0.0806300 0.3621966
v 1.3928270 -0.1970081 0.1822322
vn 0.0960594 0.5161179 0.8511139
vt 0.0684660 0.3180809
v 1.3928270 0.1350507 0.1818161
vn 0.0944228 -0.5091873 0.8554605
vt 0.1085043 0.3183761
v 1.0834980 0.1824018 0.2623499
vn 0.1519348 -0.7109421 0.6866419
vt 0.0931233 0.3611276

g group_177_140627865571984
f 1/1/1 2/2/2 3/3/3 
f 2/2/2 4/4/4 3/3/3 
f 2/2/2 5/5/5 4/4/4 
f 5/5/5 6/6/6 4/4/4 
f 5/5/5 7/7/7 6/6/6 
f 7/7/7 8/8/8 6/6/6 
f 7/7/7 9/9/9 8/8/8 
f 9/9/9 10/10/10 8/8/8 
f 9/9/9 11/11/11 10/10/10 
f 11/11/11 12/12/12 10/10/10 
f 13/13/13 14/14/14 15/15/15 
f 14/14/14 16/16/16 15/15/15 
f 14/14/14 17/17/17 16/16/16 
f 17/17/17 18/18/18 16/16/16 
f 17/17/17 19/19/19 18/18/18 
f 19/19/19 20/20/20 18/18/18 
f 19/19/19 21/21/21 20/20/20 
f 21/21/21 22/22/22 20/20/20 
f 21/21/21 23/23/23 22/22/22 
f 23/23/23 24/24/24 22/22/22 
f 23/23/23 25/25/25 24/24/24 
f 25/25/25 26/26/26 24/24/24 
f 27/27/27 1/1/1 28/28/28 
f 1/1/1 3/3/3 28/28/28 
f 29/29/29 30/30/30 31/31/31 
f 31/31/31 30/30/30 32/32/32 
f 32/32/32 30/30/30 33/33/33 
f 33/33/33 30/30/30 34/34/34 
f 34/34/34 30/30/30 35/35/35 
f 35/35/35 30/30/30 36/36/36 
f 36/36/36 30/30/30 37/37/37 
f 37/37/37 30/30/30 38/38/38 
f 38/38/38 30/30/30 39/39/39 
f 39/39/39 30/30/30 40/40/40 
f 41/41/41 42/42/42 43/43/43 
f 42/42/42 44/44/44 43/43/43 
f 42/42/42 45/45/45 44/44/44 
f 45/45/45 46/46/46 44/44/44 
f 45/45/45 47/47/47 46/46/46 
f 47/47/47 48/48/48 46/46/46 
f 47/47/47 49/49/49 48/48/48 
f 49/49/49 50/50/50 48/48/48 
f 49/49/49 51/51/51 50/50/50 
f 51/51/51 52/52/52 50/50/50 
f 51/51/51 53/53/53 52/52/52 
f 53/53/53 54/54/54 52/52/52 
f 53/53/53 55/55/55 54/54/54 
f 55/55/55 56/56/56 54/54/54 
f 55/55/55 57/57/57 56/56/56 
f 57/57/57 58/58/58 56/56/56 
f 57/57/57 59/59/59 58/58/58 
f 59/59/59 60/60/60 58/58/58 
f 59/59/59 61/61/61 60/60/60 
f 61/61/61 62/62/62 60/60/60 
f 61/61/61 63/63/63 62/62/62 
f 63/63/63 64/64/64 62/62/62 
f 63/63/63 41/41/41 64/64/64 
f 41/41/41 43/43/43 64/64/64 
f 65/65/65 66/66/66 67/67/67 
f 66/66/66 68/68/68 67/67/67 
f 111/111/111 69/69/69 112/112/112 
f 69/69/69 70/70/70 71/71/71 
f 113/113/113 72/72/72 114/114/114 
f 72/72/72 73/73/73 114/114/114 
f 72/72/72 74/74/74 73/73/73 
f 116/116/116 75/75/75 76/76/76 
f 117/117/117 77/77/77 118/118/118 
f 77/77/77 78/78/78 118/118/118 
f 77/77/77 79/79/79 78/78/78 
f 120/120/120 80/80/80 81/81/81 
f 82/82/82 83/83/83 84/84/84 
f 83/83/83 85/85/85 84/84/84 
f 121/121/121 86/86/86 122/122/122 
f 86/86/86 87/87/87 88/88/88 
f 89/89/89 90/90/90 91/91/91 
f 91/91/91 90/90/90 92/92/92 
f 92/92/92 90/90/90 93/93/93 
f 93/93/93 90/90/90 94/94/94 
f 94/94/94 90/90/90 95/95/95 
f 120/120/120 81/81/81 119/119/119 
f 69/69/69 71/71/71 112/112/112 
f 116/116/116 76/76/76 115/115/115 
f 86/86/86 88/88/88 122/122/122 
f 96/96/96 97/97/97 98/98/98 
f 97/97/97 99/99/99 98/98/98 
f 97/97/97 100/100/100 99/99/99 
f 101/101/101 102/102/102 99/99/99 
f 102/102/102 103/103/103 99/99/99 
f 102/102/102 104/104/104 103/103/103 
f 104/104/104 105/105/105 103/103/103 
f 105/105/105 106/106/106 103/103/103 
f 105/105/105 107/107/107 106/106/106 
f 108/108/108 109/109/109 106/106/106 
f 109/109/109 98/98/98 106/106/106 
f 109/109/109 96/96/96 98/98/98 
f 98/98/98 99/99/99 110/110/110 
f 99/99/99 103/103/103 110/110/110 
f 103/103/103 106/106/106 110/110/110 
f 106/106/106 98/98/98 110/110/110 
