v 1.0853050 2.8794310 0.6999608
vn -0.0000000 1.0000000 0.0000006
vt 0.1073407 0.2999814
v 1.0853050 2.8310881 0.8487427
vn 0.0000000 0.8090169 0.5877855
vt 0.1073409 0.2838258
v 1.3544919 2.8794310 0.6999608
vn 0.0000000 1.0000000 0.0000007
vt 0.0795426 0.2999816
v 1.3544919 2.8310881 0.8487427
vn 0.0000000 0.8090169 0.5877855
vt 0.0795426 0.2838257
v 1.0853050 2.7045269 0.9406949
vn 0.0000000 0.3090171 0.9510565
vt 0.1073407 0.2999816
v 1.3544919 2.7045269 0.9406949
vn 0.0000000 0.3090171 0.9510565
vt 0.0795425 0.2999816
v 1.0853050 2.7045269 0.9406949
vn 0.0000000 0.3090171 0.9510565
vt 0.1073409 0.2839574
v 1.0853050 2.5480890 0.9406950
vn 0.0000000 -0.3090168 0.9510566
vt 0.1073406 0.3001117
v 1.3544919 2.7045269 0.9406949
vn 0.0000000 0.3090171 0.9510565
vt 0.0795429 0.2839574
v 1.3544919 2.5480890 0.9406950
vn 0.0000000 -0.3090168 0.9510566
vt 0.0795427 0.3001115
v 1.0853050 2.4215269 0.8487426
vn 0.0000000 -0.8090174 0.5877848
vt 0.1073407 0.3162666
v 1.3544919 2.4215269 0.8487426
vn 0.0000000 -0.8090174 0.5877847
vt 0.0795430 0.3162665
v 1.0853050 2.3731849 0.6999605
vn 0.0000000 -1.0000000 -0.0000002
vt 0.1073407 0.2999814
v 1.3544919 2.3731849 0.6999605
vn 0.0000000 -1.0000000 -0.0000002
vt 0.0795429 0.2999816
v 1.0853050 2.4215269 0.5511786
vn 0.0000000 -0.8090169 -0.5877854
vt 0.1073409 0.2838258
v 1.3544919 2.4215269 0.5511786
vn 0.0000000 -0.8090169 -0.5877854
vt 0.0795426 0.2838257
v 1.0853050 2.5480890 0.4592263
vn 0.0000000 -0.3090163 -0.9510568
vt 0.1073407 0.2999816
v 1.3544919 2.5480890 0.4592263
vn 0.0000000 -0.3090162 -0.9510568
vt 0.0795425 0.2999816
v 1.0853050 2.5480890 0.4592263
vn 0.0000000 -0.3090163 -0.9510568
vt 0.1073407 0.2839574
v 1.0853050 2.7045269 0.4592263
vn 0.0000000 0.3090183 -0.9510561
vt 0.1073406 0.3001117
v 1.3544919 2.5480890 0.4592263
vn 0.0000000 -0.3090162 -0.9510568
vt 0.0795430 0.2839575
v 1.3544919 2.7045269 0.4592263
vn -0.0000001 0.3090182 -0.9510561
vt 0.0795427 0.3001115
v 1.0853050 2.8310890 0.5511789
vn -0.0000001 0.8090181 -0.5877839
vt 0.1073407 0.3162666
v 1.3544919 2.8310890 0.5511788
vn -0.0000002 0.8090179 -0.5877841
vt 0.0795426 0.3162664
v 1.0853050 2.8310890 0.5511789
vn -1.0000000 0.0000000 0.0000000
vt 0.0989829 0.0084842
v 1.0853050 2.7045269 0.4592263
vn -1.0000000 0.0000000 0.0000000
vt 0.0883379 0.0007501
v 1.0853050 2.8794310 0.6999608
vn -1.0000000 0.0000000 0.0000000
vt 0.1030484 0.0210005
v 1.0853050 2.8310881 0.8487427
vn -1.0000000 0.0000000 0.0000000
vt 0.0989829 0.0335149
v 1.0853050 2.7045269 0.9406949
vn -1.0000000 0.0000000 0.0000000
vt 0.0883379 0.0412493
v 1.0853050 2.5480890 0.9406950
vn -1.0000000 0.0000000 0.0000000
vt 0.0751800 0.0412493
v 1.0853050 2.4215269 0.8487426
vn -1.0000000 0.0000000 0.0000000
vt 0.0645350 0.0335149
v 1.0853050 2.3731849 0.6999605
vn -1.0000000 0.0000000 0.0000000
vt 0.0604691 0.0210005
v 1.0853050 2.4215269 0.5511786
vn -1.0000000 0.0000000 0.0000000
vt 0.0645350 0.0084842
v 1.0853050 2.5480890 0.4592263
vn -1.0000000 0.0000000 0.0000000
vt 0.0751800 0.0007501
v 1.2944061 2.8582540 0.6999608
vn 1.0000000 0.0000000 0.0000000
vt 0.6317702 0.1776085
v 1.2944061 2.8139560 0.8362954
vn 1.0000000 0.0000000 0.0000000
vt 0.6270246 0.1922160
v 1.2944061 2.8139560 0.5636263
vn 1.0000000 0.0000000 0.0000000
vt 0.6270246 0.1629999
v 1.2944061 2.6979830 0.4793667
vn 1.0000000 0.0000000 0.0000000
vt 0.6145992 0.1539716
v 1.2944061 2.5546329 0.4793666
vn 1.0000000 0.0000000 0.0000000
vt 0.5992413 0.1539716
v 1.2944061 2.4386590 0.5636261
vn 1.0000000 0.0000000 0.0000000
vt 0.5868157 0.1629996
v 1.2944061 2.3943610 0.6999606
vn 1.0000000 0.0000000 0.0000000
vt 0.5820696 0.1776085
v 1.2944061 2.4386590 0.8362952
vn 1.0000000 0.0000000 0.0000000
vt 0.5868157 0.1922160
v 1.2944061 2.5546319 0.9205545
vn 1.0000000 0.0000000 0.0000000
vt 0.5992413 0.2012434
v 1.2944061 2.6979830 0.9205546
vn 1.0000000 0.0000000 0.0000000
vt 0.6145992 0.2012434
v 1.3544919 2.8794310 0.6999608
vn 1.0000000 0.0000000 0.0000000
vt 0.6359747 0.1776086
v 1.3544919 2.8310881 0.8487427
vn 1.0000000 0.0000000 0.0000000
vt 0.6304263 0.1946873
v 1.3544919 2.8582540 0.6999608
vn 1.0000000 0.0000000 0.0000000
vt 0.6335441 0.1776086
v 1.3544919 2.8139560 0.8362954
vn 1.0000000 0.0000000 0.0000000
vt 0.6284597 0.1932588
v 1.3544919 2.7045269 0.9406949
vn 1.0000000 0.0000000 0.0000000
vt 0.6158985 0.2052424
v 1.3544919 2.6979830 0.9205546
vn 1.0000000 0.0000000 0.0000000
vt 0.6151474 0.2029305
v 1.3544919 2.5480890 0.9406950
vn 1.0000000 0.0000000 0.0000000
vt 0.5979419 0.2052424
v 1.3544919 2.5546319 0.9205545
vn 1.0000000 0.0000000 0.0000000
vt 0.5986932 0.2029305
v 1.3544919 2.4215269 0.8487426
vn 1.0000000 0.0000000 0.0000000
vt 0.5834143 0.1946873
v 1.3544919 2.4386590 0.8362952
vn 1.0000000 0.0000000 0.0000000
vt 0.5853806 0.1932588
v 1.3544919 2.3731849 0.6999605
vn 1.0000000 0.0000000 0.0000000
vt 0.5778649 0.1776086
v 1.3544919 2.3943620 0.6999606
vn 1.0000000 0.0000000 0.0000000
vt 0.5802957 0.1776086
v 1.3544919 2.4215269 0.5511786
vn 1.0000000 0.0000000 0.0000000
vt 0.5834143 0.1605282
v 1.3544919 2.4386590 0.5636261
vn 1.0000000 0.0000000 0.0000000
vt 0.5853806 0.1619569
v 1.3544919 2.5480890 0.4592263
vn 1.0000000 0.0000000 0.0000000
vt 0.5979419 0.1499727
v 1.3544919 2.5546329 0.4793666
vn 1.0000000 0.0000000 0.0000000
vt 0.5986932 0.1522844
v 1.3544919 2.7045269 0.4592263
vn 1.0000000 0.0000000 0.0000000
vt 0.6158985 0.1499727
v 1.3544919 2.6979830 0.4793667
vn 1.0000000 0.0000000 0.0000000
vt 0.6151474 0.1522844
v 1.3544919 2.8310890 0.5511788
vn 1.0000000 0.0000000 0.0000000
vt 0.6304263 0.1605282
v 1.3544919 2.8139560 0.5636263
vn 1.0000000 0.0000000 0.0000000
vt 0.6284597 0.1619572
v 1.3544919 2.8582540 0.6999608
vn 0.0000000 -1.0000000 0.0000001
vt 0.1363322 0.3881992
v 1.3544919 2.8139560 0.8362954
vn 0.0000027 -0.8090155 -0.5877874
vt 0.1234465 0.3881992
v 1.2944061 2.8582540 0.6999608
vn 0.0000005 -1.0000000 -0.0000000
vt 0.1363320 0.3827979
v 1.2944061 2.8139560 0.8362954
vn 0.0000029 -0.8090149 -0.5877882
vt 0.1234465 0.3827979
v 1.3544919 2.6979830 0.9205546
vn 0.0000003 -0.3090159 -0.9510569
vt 0.1105603 0.3881993
v 1.2944061 2.6979830 0.9205546
vn 0.0000000 -0.3090160 -0.9510568
vt 0.1105604 0.3827979
v 1.3544919 2.5546319 0.9205545
vn 0.0000000 0.3090161 -0.9510568
vt 0.1234462 0.3881992
v 1.2944061 2.5546319 0.9205545
vn 0.0000000 0.3090162 -0.9510568
vt 0.1234463 0.3827977
v 1.3544919 2.4386590 0.8362952
vn 0.0000000 0.8090180 -0.5877840
vt 0.1363321 0.3881990
v 1.2944061 2.4386590 0.8362952
vn -0.0000010 0.8090177 -0.5877843
vt 0.1363318 0.3827979
v 1.3544919 2.3943620 0.6999606
vn -0.0000069 1.0000000 0.0000004
vt 0.1234464 0.3881986
v 1.2944061 2.3943610 0.6999606
vn -0.0000069 1.0000000 0.0000004
vt 0.1234464 0.3827974
v 1.3544919 2.4386590 0.5636261
vn -0.0000010 0.8090169 0.5877855
vt 0.1105602 0.3881989
v 1.2944061 2.4386590 0.5636261
vn 0.0000000 0.8090166 0.5877858
vt 0.1105602 0.3827977
v 1.3544919 2.5546329 0.4793666
vn 0.0000000 0.3090167 0.9510566
vt 0.1234463 0.3881989
v 1.2944061 2.5546329 0.4793666
vn 0.0000000 0.3090167 0.9510566
vt 0.1234463 0.3827975
v 1.3544919 2.6979830 0.4793667
vn 0.0000000 -0.3090175 0.9510564
vt 0.1363321 0.3881990
v 1.2944061 2.6979830 0.4793667
vn 0.0000000 -0.3090175 0.9510564
vt 0.1363320 0.3827975
v 1.3544919 2.6979830 0.4793667
vn 0.0000000 -0.3090175 0.9510564
vt 0.1105603 0.3881995
v 1.3544919 2.8139560 0.5636263
vn 0.0000000 -0.8090165 0.5877861
vt 0.1234466 0.3881994
v 1.2944061 2.6979830 0.4793667
vn 0.0000000 -0.3090175 0.9510564
vt 0.1105603 0.3827980
v 1.2944061 2.8139560 0.5636263
vn 0.0000000 -0.8090165 0.5877861
vt 0.1234465 0.3827982
v 0.5846643 2.6328170 0.6842477
vn -0.9997596 0.0083909 -0.0202562
vt 0.8228785 0.4637014
v 1.3428290 2.7122200 0.7858734
vn -0.1665733 0.6939422 0.7004980
vt 0.8157759 0.5795057
v 1.3428290 2.7478070 0.6999607
vn -0.1500476 0.9886677 0.0046858
vt 0.8015705 0.5795065
v 1.3428290 2.6263070 0.8214597
vn -0.1781018 -0.0019046 0.9840103
vt 0.8299788 0.5795057
v 1.3428290 2.5403950 0.7858733
vn -0.1781022 -0.6944550 0.6971455
vt 0.8441813 0.5795059
v 0.5846643 2.6328170 0.6842477
vn -0.9997596 0.0083909 -0.0202562
vt 0.8015620 0.4637216
v 1.3428290 2.5048089 0.6999606
vn -0.1665748 -0.9860179 0.0046321
vt 0.8015705 0.5795071
v 1.3428290 2.5403950 0.7858733
vn -0.1781022 -0.6944550 0.6971455
vt 0.8157759 0.5795060
v 1.3428290 2.5403950 0.6140478
vn -0.1500483 -0.7024052 -0.6957818
vt 0.7873653 0.5795078
v 0.5846643 2.6328170 0.6842477
vn -0.9997596 0.0083909 -0.0202562
vt 0.7731369 0.4637239
v 1.3428290 2.6263080 0.5784616
vn -0.1382066 -0.0019552 -0.9904015
vt 0.7731586 0.5795094
v 0.5846643 2.6328170 0.6842477
vn -0.9997596 0.0083909 -0.0202562
vt 0.7873613 0.4636917
v 1.3428290 2.7122200 0.6140478
vn -0.1382061 0.7017007 -0.6989385
vt 0.7873653 0.5795075
v 1.3428290 2.7478070 0.6999607
vn 1.0000000 0.0000000 0.0000000
vt 0.3769334 0.0551460
v 1.3428290 2.7122200 0.7858734
vn 1.0000000 0.0000000 0.0000000
vt 0.3728486 0.0650083
v 1.3428290 2.7122200 0.6140478
vn 1.0000000 0.0000000 0.0000000
vt 0.3728486 0.0452824
v 1.3428290 2.6263080 0.5784616
vn 1.0000000 0.0000000 0.0000000
vt 0.3629870 0.0411973
v 1.3428290 2.5403950 0.6140478
vn 1.0000000 0.0000000 0.0000000
vt 0.3531252 0.0452824
v 1.3428290 2.5048089 0.6999606
vn 1.0000000 0.0000000 0.0000000
vt 0.3490409 0.0551460
v 1.3428290 2.5403950 0.7858733
vn 1.0000000 0.0000000 0.0000000
vt 0.3531252 0.0650083
v 1.3428290 2.6263070 0.8214597
vn 1.0000000 0.0000000 0.0000000
vt 0.3629870 0.0690931
v 1.3417630 2.7139060 0.6999605
vn 0.7171326 0.6921839 -0.0812544
vt 0.0622978 0.0128816
v 1.3417630 2.6882491 0.7619020
vn 0.7171310 0.4319928 0.5469053
vt 0.0584946 0.0216869
v 1.3695290 2.6881461 0.7255746
vn 0.8057374 0.5471894 0.2266521
vt 0.0569847 0.0158837
v 1.3417630 2.6263080 0.7875592
vn 0.7171357 0.0812531 0.6921809
vt 0.0497027 0.0252768
v 1.3695290 2.6006939 0.7617986
vn 0.8057418 -0.2266502 0.5471836
vt 0.0467277 0.0200884
v 1.3417630 2.5643661 0.7619020
vn 0.7171410 -0.5468982 0.4319852
vt 0.0409500 0.0216275
v 1.3417630 2.5387089 0.6999606
vn 0.7171362 -0.6921804 0.0812532
vt 0.0373176 0.0128715
v 1.3695290 2.5644701 0.6743466
vn 0.8057415 -0.5471843 -0.2266495
vt 0.0424879 0.0098691
v 1.3417630 2.5643661 0.6380191
vn 0.7171376 -0.4319908 -0.5468982
vt 0.0409169 0.0040980
v 1.3417630 2.6263080 0.6123621
vn 0.7171363 -0.0812528 -0.6921803
vt 0.0496672 0.0004092
v 1.3695290 2.6519220 0.6381227
vn 0.8057409 0.2266503 -0.5471849
vt 0.0527088 0.0055771
v 1.3417630 2.6882491 0.6380191
vn 0.7171357 0.5468998 -0.4319920
vt 0.0585271 0.0039414
v 1.3908610 2.6263080 0.6999605
vn 1.0000000 -0.0000009 -0.0000006
vt 0.0497272 0.0128546
v 1.0853050 2.8310881 0.8487427
vn 0.0000000 0.8090169 0.5877855
vt 0.1073409 0.2838258
v 1.3544919 2.8310881 0.8487427
vn 0.0000000 0.8090169 0.5877855
vt 0.0795426 0.2838257
v 1.0853050 2.4215269 0.8487426
vn 0.0000000 -0.8090174 0.5877848
vt 0.1073407 0.3162666
v 1.3544919 2.4215269 0.8487426
vn 0.0000000 -0.8090174 0.5877847
vt 0.0795430 0.3162665
v 1.0853050 2.4215269 0.5511786
vn 0.0000000 -0.8090169 -0.5877854
vt 0.1073409 0.2838258
v 1.3544919 2.4215269 0.5511786
vn 0.0000000 -0.8090169 -0.5877854
vt 0.0795426 0.2838257
v 1.0853050 2.8310890 0.5511789
vn -0.0000001 0.8090181 -0.5877839
vt 0.1073407 0.3162666
v 1.3544919 2.8310890 0.5511788
vn -0.0000002 0.8090179 -0.5877841
vt 0.0795426 0.3162664
v 1.3544919 2.8582540 0.6999608
vn 0.0000000 -1.0000000 0.0000001
vt 0.1363322 0.3881992
v 1.2944061 2.8582540 0.6999608
vn 0.0000005 -1.0000000 -0.0000000
vt 0.1363320 0.3827979
v 1.3544919 2.6979830 0.9205546
vn 0.0000003 -0.3090159 -0.9510569
vt 0.1105603 0.3881993
v 1.2944061 2.6979830 0.9205546
vn 0.0000000 -0.3090160 -0.9510568
vt 0.1105604 0.3827979
v 1.3544919 2.4386590 0.8362952
vn 0.0000000 0.8090180 -0.5877840
vt 0.1363321 0.3881990
v 1.2944061 2.4386590 0.8362952
vn -0.0000010 0.8090177 -0.5877843
vt 0.1363318 0.3827979
v 1.3544919 2.4386590 0.5636261
vn -0.0000010 0.8090169 0.5877855
vt 0.1105602 0.3881989
v 1.2944061 2.4386590 0.5636261
vn 0.0000000 0.8090166 0.5877858
vt 0.1105602 0.3827977
v 1.3428290 2.6263080 0.5784616
vn -0.1382066 -0.0019552 -0.9904015
vt 0.7731586 0.5795094

g group_3_140627888535152
f 1/1/1 2/2/2 3/3/3 
f 2/2/2 4/4/4 3/3/3 
f 121/121/121 5/5/5 122/122/122 
f 5/5/5 6/6/6 122/122/122 
f 7/7/7 8/8/8 9/9/9 
f 8/8/8 10/10/10 9/9/9 
f 8/8/8 11/11/11 10/10/10 
f 11/11/11 12/12/12 10/10/10 
f 123/123/123 13/13/13 124/124/124 
f 13/13/13 14/14/14 124/124/124 
f 13/13/13 15/15/15 14/14/14 
f 15/15/15 16/16/16 14/14/14 
f 125/125/125 17/17/17 126/126/126 
f 17/17/17 18/18/18 126/126/126 
f 19/19/19 20/20/20 21/21/21 
f 20/20/20 22/22/22 21/21/21 
f 20/20/20 23/23/23 22/22/22 
f 23/23/23 24/24/24 22/22/22 
f 127/127/127 1/1/1 128/128/128 
f 1/1/1 3/3/3 128/128/128 
f 25/25/25 26/26/26 27/27/27 
f 27/27/27 26/26/26 28/28/28 
f 28/28/28 26/26/26 29/29/29 
f 29/29/29 26/26/26 30/30/30 
f 30/30/30 26/26/26 31/31/31 
f 31/31/31 26/26/26 32/32/32 
f 32/32/32 26/26/26 33/33/33 
f 33/33/33 26/26/26 34/34/34 
f 35/35/35 36/36/36 37/37/37 
f 37/37/37 36/36/36 38/38/38 
f 38/38/38 36/36/36 39/39/39 
f 39/39/39 36/36/36 40/40/40 
f 40/40/40 36/36/36 41/41/41 
f 41/41/41 36/36/36 42/42/42 
f 42/42/42 36/36/36 43/43/43 
f 43/43/43 36/36/36 44/44/44 
f 45/45/45 46/46/46 47/47/47 
f 46/46/46 48/48/48 47/47/47 
f 46/46/46 49/49/49 48/48/48 
f 49/49/49 50/50/50 48/48/48 
f 49/49/49 51/51/51 50/50/50 
f 51/51/51 52/52/52 50/50/50 
f 51/51/51 53/53/53 52/52/52 
f 53/53/53 54/54/54 52/52/52 
f 53/53/53 55/55/55 54/54/54 
f 55/55/55 56/56/56 54/54/54 
f 55/55/55 57/57/57 56/56/56 
f 57/57/57 58/58/58 56/56/56 
f 57/57/57 59/59/59 58/58/58 
f 59/59/59 60/60/60 58/58/58 
f 59/59/59 61/61/61 60/60/60 
f 61/61/61 62/62/62 60/60/60 
f 61/61/61 63/63/63 62/62/62 
f 63/63/63 64/64/64 62/62/62 
f 63/63/63 45/45/45 64/64/64 
f 45/45/45 47/47/47 64/64/64 
f 65/65/65 66/66/66 67/67/67 
f 66/66/66 68/68/68 67/67/67 
f 66/66/66 69/69/69 68/68/68 
f 69/69/69 70/70/70 68/68/68 
f 131/131/131 71/71/71 132/132/132 
f 71/71/71 72/72/72 132/132/132 
f 71/71/71 73/73/73 72/72/72 
f 73/73/73 74/74/74 72/72/72 
f 133/133/133 75/75/75 134/134/134 
f 75/75/75 76/76/76 134/134/134 
f 75/75/75 77/77/77 76/76/76 
f 77/77/77 78/78/78 76/76/76 
f 135/135/135 79/79/79 136/136/136 
f 79/79/79 80/80/80 136/136/136 
f 79/79/79 81/81/81 80/80/80 
f 81/81/81 82/82/82 80/80/80 
f 83/83/83 84/84/84 85/85/85 
f 84/84/84 86/86/86 85/85/85 
f 84/84/84 129/129/129 86/86/86 
f 129/129/129 130/130/130 86/86/86 
f 87/87/87 88/88/88 89/89/89 
f 87/87/87 90/90/90 88/88/88 
f 87/87/87 91/91/91 90/90/90 
f 92/92/92 93/93/93 94/94/94 
f 92/92/92 95/95/95 93/93/93 
f 96/96/96 97/97/97 95/95/95 
f 98/98/98 99/99/99 137/137/137 
f 87/87/87 89/89/89 99/99/99 
f 100/100/100 101/101/101 102/102/102 
f 102/102/102 101/101/101 103/103/103 
f 103/103/103 101/101/101 104/104/104 
f 104/104/104 101/101/101 105/105/105 
f 105/105/105 101/101/101 106/106/106 
f 106/106/106 101/101/101 107/107/107 
f 108/108/108 109/109/109 110/110/110 
f 109/109/109 111/111/111 110/110/110 
f 111/111/111 112/112/112 110/110/110 
f 111/111/111 113/113/113 112/112/112 
f 113/113/113 114/114/114 112/112/112 
f 114/114/114 115/115/115 112/112/112 
f 114/114/114 116/116/116 115/115/115 
f 116/116/116 117/117/117 115/115/115 
f 117/117/117 118/118/118 115/115/115 
f 117/117/117 119/119/119 118/118/118 
f 119/119/119 108/108/108 118/118/118 
f 108/108/108 110/110/110 118/118/118 
f 110/110/110 112/112/112 120/120/120 
f 112/112/112 115/115/115 120/120/120 
f 115/115/115 118/118/118 120/120/120 
f 118/118/118 110/110/110 120/120/120 
