v -1.0628630 2.3134370 0.4574551
vn 0.0000002 0.9999949 0.0032231
vt 0.2187904 0.0014756
v -1.3928270 2.3134370 0.4574551
vn -0.0000000 0.9999948 0.0032234
vt 0.2188143 0.0387589
v -1.0628630 2.2573979 0.6665497
vn -0.0000001 0.8688204 0.4951275
vt 0.1961654 0.0014817
v -1.3928270 2.2573979 0.6665497
vn 0.0000001 0.8691025 0.4946320
vt 0.1962412 0.0387762
v -1.0621001 2.1016340 0.8260530
vn 0.0000002 0.5011247 0.8653751
vt 0.1728712 0.0014504
v -1.3920640 2.1016340 0.8260530
vn 0.0000003 0.5016510 0.8650702
vt 0.1729442 0.0387494
v -1.0621001 1.8884640 0.8811989
vn 0.0000001 -0.0056493 0.9999841
vt 0.1499333 0.0014580
v -1.3920640 1.8884640 0.8811989
vn 0.0000000 -0.0062392 0.9999806
vt 0.1499154 0.0387341
v -1.0628630 1.6778200 0.8240263
vn 0.0000000 -0.5011050 0.8653865
vt 0.1271700 0.0014784
v -1.3928270 1.6778200 0.8240263
vn 0.0000000 -0.5016176 0.8650895
vt 0.1271351 0.0387604
v -1.0628630 1.5216030 0.6678368
vn 0.0000000 -0.8650498 0.5016862
vt 0.1053612 0.0014544
v -1.3928270 1.5216030 0.6678368
vn -0.0000001 -0.8650498 0.5016860
vt 0.1053514 0.0387486
v -1.0628630 1.5216030 0.6678368
vn 0.0000000 -0.8650498 0.5016862
vt 0.1055047 0.0382265
v -1.3928270 1.5216030 0.6678368
vn -0.0000001 -0.8650498 0.5016860
vt 0.1054999 0.0009175
v -1.0628630 1.4638100 0.4553899
vn -0.0000002 -0.9999940 -0.0034566
vt 0.1272305 0.0382278
v -1.3928270 1.4638100 0.4553899
vn -0.0000002 -0.9999940 -0.0034566
vt 0.1272141 0.0009192
v -1.0628630 1.5228380 0.2441759
vn -0.0000001 -0.8654611 -0.5009762
vt 0.1501534 0.0382303
v -1.3928270 1.5228380 0.2441759
vn 0.0000000 -0.8654612 -0.5009760
vt 0.1501273 0.0009223
v -1.0628630 1.6763890 0.0880035
vn 0.0000000 -0.5017092 -0.8650364
vt 0.1730288 0.0382339
v -1.3928270 1.6763890 0.0880035
vn -0.0000000 -0.5017091 -0.8650364
vt 0.1729991 0.0009261
v -1.0628630 1.8905820 0.0316459
vn 0.0000000 0.0029207 -0.9999958
vt 0.1961589 0.0382377
v -1.3928270 1.8905820 0.0316459
vn -0.0000001 0.0029210 -0.9999958
vt 0.1961329 0.0009298
v -1.0628630 2.0990951 0.0878134
vn -0.0000000 0.4968446 -0.8678396
vt 0.2187201 0.0382408
v -1.3928270 2.0990951 0.0878135
vn 0.0000001 0.4968444 -0.8678396
vt 0.2187038 0.0009322
v -1.0628630 2.2576001 0.2436137
vn 0.0000004 0.8654702 -0.5009604
vt 0.2409813 0.0382426
v -1.3928270 2.2576010 0.2436137
vn 0.0000004 0.8654703 -0.5009602
vt 0.2409765 0.0009335
v -1.0628630 2.2576001 0.2436137
vn 0.0000004 0.8654702 -0.5009604
vt 0.2409212 0.0014752
v -1.3928270 2.2576010 0.2436137
vn 0.0000004 0.8654703 -0.5009602
vt 0.2409282 0.0387635
v -1.0628630 2.3134370 0.4574551
vn 1.0000000 0.0000000 0.0000000
vt 0.2494551 0.1536274
v -1.0628630 2.2573979 0.6665497
vn 0.9999903 0.0044134 0.0000021
vt 0.2317126 0.1530068
v -1.0628630 2.2576001 0.2436137
vn 0.9999999 0.0001702 -0.0004264
vt 0.2655132 0.1452199
v -1.0621001 2.1016340 0.8260530
vn 0.9999992 0.0006734 -0.0011296
vt 0.2160934 0.1435021
v -1.0621001 1.8884640 0.8811989
vn 0.9999949 -0.0020983 -0.0024114
vt 0.2077541 0.1274821
v -1.0628630 1.6778200 0.8240263
vn 0.9999987 -0.0011424 -0.0011412
vt 0.2084367 0.1095940
v -1.0628630 1.5216030 0.6678368
vn 1.0000000 0.0000000 0.0000000
vt 0.2180354 0.0942297
v -1.0628630 1.4638100 0.4553899
vn 1.0000000 0.0000000 0.0000000
vt 0.2339456 0.0856898
v -1.0628630 1.5228380 0.2441759
vn 1.0000000 0.0000000 0.0000000
vt 0.2519127 0.0865107
v -1.0628630 1.6763890 0.0880035
vn 1.0000000 0.0000000 0.0000000
vt 0.2672254 0.0959017
v -1.0628630 1.8905820 0.0316459
vn 1.0000000 0.0000000 0.0000000
vt 0.2756805 0.1119774
v -1.0628630 2.0990951 0.0878134
vn 1.0000000 0.0000000 0.0000000
vt 0.2750390 0.1296770
v -1.3928270 2.3134370 0.4574551
vn -1.0000000 0.0000000 0.0000000
vt 0.1485313 0.0892477
v -1.3928270 2.2115960 0.4572012
vn -1.0000000 0.0000000 0.0000000
vt 0.1386027 0.0895267
v -1.3928270 2.2573979 0.6665497
vn -0.9999982 -0.0012045 0.0015027
vt 0.1419842 0.1135100
v -1.3928270 2.1758890 0.6012159
vn -0.9999989 -0.0000441 0.0015105
vt 0.1346165 0.1075129
v -1.3920640 2.1016340 0.8260530
vn -0.9999802 0.0023255 0.0058563
vt 0.1240070 0.1318846
v -1.3928270 2.0565450 0.7318243
vn -0.9999728 0.0039572 0.0062214
vt 0.1198692 0.1231737
v -1.3920640 1.8884640 0.8811989
vn -0.9999719 0.0017810 0.0072892
vt 0.0994551 0.1382802
v -1.3928270 1.8887240 0.7767386
vn -0.9999788 0.0015759 0.0063228
vt 0.0994808 0.1284967
v -1.3928270 1.6778200 0.8240263
vn -0.9999991 0.0003035 0.0013538
vt 0.0751523 0.1317122
v -1.3928270 1.7233779 0.7300240
vn -1.0000000 0.0000000 0.0000000
vt 0.0794717 0.1227686
v -1.3928270 1.5216030 0.6678368
vn -1.0000000 0.0000000 0.0000000
vt 0.0571368 0.1137018
v -1.3928270 1.6034360 0.6029105
vn -1.0000000 0.0000000 0.0000000
vt 0.0650323 0.1072630
v -1.3928270 1.4638100 0.4553899
vn -1.0000000 0.0000000 0.0000000
vt 0.0504558 0.0888686
v -1.3928270 1.5656511 0.4556438
vn -1.0000000 0.0000000 0.0000000
vt 0.0603750 0.0893002
v -1.3928270 1.5228380 0.2441759
vn -1.0000000 0.0000000 0.0000000
vt 0.0571684 0.0644206
v -1.3928270 1.6043460 0.3095095
vn -1.0000000 0.0000000 0.0000000
vt 0.0646424 0.0711077
v -1.3928270 1.6763890 0.0880035
vn -1.0000000 0.0000000 0.0000000
vt 0.0749358 0.0463615
v -1.3928270 1.7214780 0.1822321
vn -1.0000000 0.0000000 0.0000000
vt 0.0791314 0.0558211
v -1.3928270 1.8905820 0.0316459
vn -1.0000000 0.0000000 0.0000000
vt 0.0997006 0.0398906
v -1.3928270 1.8903210 0.1361062
vn -1.0000000 0.0000000 0.0000000
vt 0.0996750 0.0503638
v -1.3928270 2.0990951 0.0878135
vn -1.0000000 0.0000000 0.0000000
vt 0.1237927 0.0463461
v -1.3928270 2.0535369 0.1818159
vn -1.0000000 0.0000000 0.0000000
vt 0.1194714 0.0559357
v -1.3928270 2.2576010 0.2436137
vn -1.0000000 0.0000000 0.0000000
vt 0.1421566 0.0642536
v -1.3928270 2.1757679 0.3085400
vn -1.0000000 0.0000000 0.0000000
vt 0.1342523 0.0713235
v -1.3928270 2.2115960 0.4572012
vn -0.0709666 -0.9974734 -0.0032531
vt 0.0974180 0.3180684
v -1.0834980 2.1895881 0.4571463
vn -0.1393942 -0.9902365 -0.0009585
vt 0.1017783 0.3638641
v -1.3928270 2.1758890 0.6012159
vn -0.0886099 -0.8783367 -0.4697585
vt 0.0701307 0.3179181
v -1.0834980 2.1025391 0.6492800
vn -0.1524816 -0.7143310 -0.6829939
vt 0.0708714 0.3609450
v -1.3928270 2.0565450 0.7318243
vn -0.0968861 -0.5153676 -0.8514748
vt 0.0834795 0.3182384
v -1.0834980 1.8887800 0.7541654
vn -0.1492109 0.0038679 -0.9887978
vt 0.1074589 0.3616376
v -1.3928270 1.8887240 0.7767386
vn -0.0727810 0.0068515 -0.9973244
vt 0.1071654 0.3182257
v -1.3928270 1.7233779 0.7300240
vn -0.0949079 0.5147388 -0.8520778
vt 0.0828411 0.3183865
v -1.0834980 1.6771710 0.6492954
vn -0.1503834 0.7114959 -0.6864098
vt 0.0717688 0.3630446
v -1.3928270 1.6034360 0.6029105
vn -0.0891846 0.8725368 -0.4803392
vt 0.0639076 0.3185505
v -1.0834980 1.5876590 0.4556986
vn -0.1367169 0.9906096 0.0010474
vt 0.0944250 0.3593649
v -1.3928270 1.5656511 0.4556438
vn -0.0709658 0.9974715 0.0038242
vt 0.0974540 0.3180544
v -1.3928270 1.6043460 0.3095095
vn -0.0879181 0.8737761 0.4783157
vt 0.0929643 0.3192013
v -1.0834980 1.6765910 0.2631110
vn -0.1503922 0.7115356 0.6863667
vt 0.0806300 0.3621966
v -1.3928270 1.7214780 0.1822321
vn -0.0960592 0.5161179 0.8511140
vt 0.0684660 0.3180809
v -1.0834980 1.8902650 0.1586796
vn -0.1476273 -0.0027827 0.9890391
vt 0.0876775 0.3616398
v -1.3928270 1.8903210 0.1361062
vn -0.0727819 -0.0031738 0.9973429
vt 0.0870137 0.3182237
v -1.3928270 1.8903210 0.1361062
vn -0.0727819 -0.0031738 0.9973429
vt 0.0870394 0.3182253
v -1.0834980 1.8902650 0.1586796
vn -0.1476273 -0.0027827 0.9890391
vt 0.0860052 0.3618265
v -1.3928270 2.0535369 0.1818159
vn -0.0944228 -0.5091869 0.8554607
vt 0.1085043 0.3183761
v -1.0834980 2.1008880 0.2623498
vn -0.1519350 -0.7109421 0.6866419
vt 0.0931233 0.3611276
v -1.3928270 2.1757679 0.3085400
vn -0.0906870 -0.8733537 0.4785699
vt 0.0793793 0.3185685
v -1.0834980 2.1895881 0.4571463
vn -0.1393942 -0.9902365 -0.0009585
vt 0.0665482 0.3615047
v -1.3928270 2.2115960 0.4572012
vn -0.0709666 -0.9974734 -0.0032531
vt 0.0665879 0.3180634
v -1.2936540 2.2435970 0.6554877
vn -1.0000000 0.0000000 0.0000000
vt 0.1413020 0.1128541
v -1.2936540 2.2866321 0.3668262
vn -1.0000000 0.0000000 0.0000000
vt 0.1463809 0.0787866
v -1.2936540 1.8885080 0.8635123
vn -1.0000000 -0.0000004 -0.0000005
vt 0.0993968 0.1374040
v -1.2936540 2.0670669 0.0900879
vn -1.0000000 0.0000000 0.0000000
vt 0.1204698 0.0461287
v -1.2936540 1.7138079 0.0892070
vn -1.0000000 -0.0000013 0.0000003
vt 0.0787794 0.0460247
v -1.2936530 1.4928660 0.3648468
vn -1.0000000 -0.0000024 -0.0000000
vt 0.0527046 0.0785530
v -1.2936540 1.5706140 0.7094450
vn -1.0000000 0.0000015 -0.0000031
vt 0.0618800 0.1192221
v -1.2891610 1.9773960 0.4564222
vn -0.6527643 0.7541720 0.0715773
vt 0.3298434 0.6859198
v -1.3266360 1.9473040 0.4317241
vn -0.7718504 0.5874066 -0.2433116
vt 0.3238847 0.6887957
v -1.2891610 1.9511180 0.5198632
vn -0.6527656 0.5838927 0.4826660
vt 0.3266985 0.6777675
v -1.3266360 1.9123760 0.5160486
vn -0.7718524 0.2433122 0.5874038
vt 0.3198488 0.6792387
v -1.2891610 1.8876780 0.5461414
vn -0.6527691 -0.0715766 0.7541680
vt 0.3170005 0.6734036
v -1.2891610 1.8876780 0.5461414
vn -0.6527691 -0.0715766 0.7541680
vt 0.3170005 0.6734589
v -1.2891610 1.8242370 0.5198632
vn -0.6527678 -0.4826664 0.5838899
vt 0.3081873 0.6777653
v -1.3266360 1.8280510 0.4811203
vn -0.7718518 -0.5874051 0.2433108
vt 0.3103585 0.6832168
v -1.2891610 1.7979590 0.4564222
vn -0.6527657 -0.7541709 -0.0715770
vt 0.3045714 0.6859333
v -1.2891610 1.8242370 0.3929812
vn -0.6527678 -0.5838910 -0.4826650
vt 0.3082065 0.6949466
v -1.3266360 1.8629800 0.3967958
vn -0.7718526 -0.2433103 -0.5874043
vt 0.3142683 0.6926901
v -1.2891610 1.8876770 0.3667030
vn -0.6527680 0.0715771 -0.7541689
vt 0.3169958 0.6985119
v -1.2891610 1.8876770 0.3667030
vn -0.6527680 0.0715771 -0.7541689
vt 0.3169958 0.6985668
v -1.2891610 1.9511180 0.3929812
vn -0.6527660 0.4826666 -0.5838916
vt 0.3266985 0.6948831
v -1.3567311 1.8876780 0.4564222
vn -1.0000000 0.0000003 -0.0000004
vt 0.3170187 0.6859856
v -1.3928270 2.1758890 0.6012159
vn -0.0886099 -0.8783367 -0.4697585
vt 0.0701307 0.3179181
v -1.0834980 2.1025391 0.6492800
vn -0.1524816 -0.7143310 -0.6829939
vt 0.0708714 0.3609450
v -1.0834980 1.8887800 0.7541654
vn -0.1492109 0.0038679 -0.9887978
vt 0.1074589 0.3616376
v -1.3928270 1.8887240 0.7767386
vn -0.0727810 0.0068515 -0.9973244
vt 0.1071654 0.3182257
v -1.0834980 1.6771710 0.6492954
vn -0.1503834 0.7114959 -0.6864098
vt 0.0717688 0.3630446
v -1.3928270 1.6034360 0.6029105
vn -0.0891846 0.8725368 -0.4803392
vt 0.0639076 0.3185505
v -1.0834980 1.5876590 0.4556986
vn -0.1367169 0.9906096 0.0010474
vt 0.0944250 0.3593649
v -1.3928270 1.5656511 0.4556438
vn -0.0709658 0.9974715 0.0038242
vt 0.0974540 0.3180544
v -1.0834980 1.6765910 0.2631110
vn -0.1503922 0.7115356 0.6863667
vt 0.0806300 0.3621966
v -1.3928270 1.7214780 0.1822321
vn -0.0960592 0.5161179 0.8511140
vt 0.0684660 0.3180809
v -1.3928270 2.0535369 0.1818159
vn -0.0944228 -0.5091869 0.8554607
vt 0.1085043 0.3183761
v -1.0834980 2.1008880 0.2623498
vn -0.1519350 -0.7109421 0.6866419
vt 0.0931233 0.3611276

g group_7_140627888536272
f 1/1/1 2/2/2 3/3/3 
f 3/3/3 2/2/2 4/4/4 
f 3/3/3 4/4/4 5/5/5 
f 5/5/5 4/4/4 6/6/6 
f 5/5/5 6/6/6 7/7/7 
f 7/7/7 6/6/6 8/8/8 
f 7/7/7 8/8/8 9/9/9 
f 9/9/9 8/8/8 10/10/10 
f 9/9/9 10/10/10 11/11/11 
f 11/11/11 10/10/10 12/12/12 
f 13/13/13 14/14/14 15/15/15 
f 15/15/15 14/14/14 16/16/16 
f 15/15/15 16/16/16 17/17/17 
f 17/17/17 16/16/16 18/18/18 
f 17/17/17 18/18/18 19/19/19 
f 19/19/19 18/18/18 20/20/20 
f 19/19/19 20/20/20 21/21/21 
f 21/21/21 20/20/20 22/22/22 
f 21/21/21 22/22/22 23/23/23 
f 23/23/23 22/22/22 24/24/24 
f 23/23/23 24/24/24 25/25/25 
f 25/25/25 24/24/24 26/26/26 
f 27/27/27 28/28/28 1/1/1 
f 1/1/1 28/28/28 2/2/2 
f 29/29/29 30/30/30 31/31/31 
f 30/30/30 32/32/32 31/31/31 
f 32/32/32 33/33/33 31/31/31 
f 33/33/33 34/34/34 31/31/31 
f 34/34/34 35/35/35 31/31/31 
f 35/35/35 36/36/36 31/31/31 
f 36/36/36 37/37/37 31/31/31 
f 37/37/37 38/38/38 31/31/31 
f 38/38/38 39/39/39 31/31/31 
f 39/39/39 40/40/40 31/31/31 
f 41/41/41 42/42/42 43/43/43 
f 43/43/43 42/42/42 44/44/44 
f 43/43/43 44/44/44 45/45/45 
f 45/45/45 44/44/44 46/46/46 
f 45/45/45 46/46/46 47/47/47 
f 47/47/47 46/46/46 48/48/48 
f 47/47/47 48/48/48 49/49/49 
f 49/49/49 48/48/48 50/50/50 
f 49/49/49 50/50/50 51/51/51 
f 51/51/51 50/50/50 52/52/52 
f 51/51/51 52/52/52 53/53/53 
f 53/53/53 52/52/52 54/54/54 
f 53/53/53 54/54/54 55/55/55 
f 55/55/55 54/54/54 56/56/56 
f 55/55/55 56/56/56 57/57/57 
f 57/57/57 56/56/56 58/58/58 
f 57/57/57 58/58/58 59/59/59 
f 59/59/59 58/58/58 60/60/60 
f 59/59/59 60/60/60 61/61/61 
f 61/61/61 60/60/60 62/62/62 
f 61/61/61 62/62/62 63/63/63 
f 63/63/63 62/62/62 64/64/64 
f 63/63/63 64/64/64 41/41/41 
f 41/41/41 64/64/64 42/42/42 
f 65/65/65 66/66/66 67/67/67 
f 67/67/67 66/66/66 68/68/68 
f 111/111/111 112/112/112 69/69/69 
f 69/69/69 70/70/70 71/71/71 
f 114/114/114 113/113/113 72/72/72 
f 72/72/72 113/113/113 73/73/73 
f 72/72/72 73/73/73 74/74/74 
f 116/116/116 75/75/75 76/76/76 
f 118/118/118 117/117/117 77/77/77 
f 77/77/77 117/117/117 78/78/78 
f 77/77/77 78/78/78 79/79/79 
f 120/120/120 80/80/80 81/81/81 
f 82/82/82 83/83/83 84/84/84 
f 84/84/84 83/83/83 85/85/85 
f 121/121/121 122/122/122 86/86/86 
f 86/86/86 87/87/87 88/88/88 
f 89/89/89 90/90/90 91/91/91 
f 90/90/90 92/92/92 91/91/91 
f 92/92/92 93/93/93 91/91/91 
f 93/93/93 94/94/94 91/91/91 
f 94/94/94 95/95/95 91/91/91 
f 120/120/120 119/119/119 80/80/80 
f 69/69/69 112/112/112 70/70/70 
f 116/116/116 115/115/115 75/75/75 
f 86/86/86 122/122/122 87/87/87 
f 96/96/96 97/97/97 98/98/98 
f 98/98/98 97/97/97 99/99/99 
f 98/98/98 99/99/99 100/100/100 
f 101/101/101 99/99/99 102/102/102 
f 102/102/102 99/99/99 103/103/103 
f 102/102/102 103/103/103 104/104/104 
f 104/104/104 103/103/103 105/105/105 
f 105/105/105 103/103/103 106/106/106 
f 105/105/105 106/106/106 107/107/107 
f 108/108/108 106/106/106 109/109/109 
f 109/109/109 106/106/106 97/97/97 
f 109/109/109 97/97/97 96/96/96 
f 97/97/97 110/110/110 99/99/99 
f 99/99/99 110/110/110 103/103/103 
f 103/103/103 110/110/110 106/106/106 
f 106/106/106 110/110/110 97/97/97 
