v -0.2661760 1.5933570 1.6424280
vn -1.0000000 0.0000000 0.0000000
vt 0.2442473 0.9099035
v -0.2661760 1.5458560 1.6520640
vn -1.0000000 0.0000000 0.0000000
vt 0.2387912 0.9129860
v -0.2661760 1.6103430 1.8836750
vn -1.0000000 0.0000000 0.0000000
vt 0.2559744 0.9388843
v -0.2661760 1.6604180 1.8732150
vn -1.0000000 0.0000000 0.0000000
vt 0.2617119 0.9355979
v -0.2661760 1.6103430 1.8836750
vn -0.0000000 -0.9974235 0.0717381
vt 0.1201117 0.2720998
v -0.2661760 1.5458560 1.6520640
vn -0.0000001 -0.9633555 0.2682280
vt 0.1201118 0.2672274
v 0.3102249 1.5458560 1.6520640
vn -0.0000000 -0.9633554 0.2682281
vt 0.1317925 0.2672274
v 0.3102249 1.6103430 1.8836750
vn 0.0000000 -0.9974235 0.0717382
vt 0.1317925 0.2720998
v 0.3102249 1.6103430 1.8836750
vn 1.0000000 0.0000000 0.0000000
vt 0.2559744 0.9388843
v 0.3102249 1.5458560 1.6520640
vn 1.0000000 0.0000000 0.0000000
vt 0.2387912 0.9129860
v 0.3102249 1.5933570 1.6424290
vn 1.0000000 0.0000000 0.0000000
vt 0.2442473 0.9099035
v 0.3102249 1.6604180 1.8732150
vn 1.0000000 0.0000000 0.0000000
vt 0.2617119 0.9355979
v 0.3102249 1.6604180 1.8732150
vn 0.0000001 0.9856931 -0.1685502
vt 0.4539874 0.3248570
v 0.3102249 1.5933570 1.6424290
vn 0.0000002 0.9602808 -0.2790355
vt 0.4233695 0.3248569
v -0.2661760 1.5933570 1.6424280
vn 0.0000000 0.9602809 -0.2790352
vt 0.4233695 0.2514245
v -0.2661760 1.6604180 1.8732150
vn 0.0000000 0.9856931 -0.1685501
vt 0.4539875 0.2514245
v -0.2661760 1.6163610 2.1646571
vn -1.0000000 0.0000000 0.0000000
vt 0.2679391 0.9731879
v -0.2661760 1.6687860 2.0226769
vn -1.0000000 0.0000000 0.0000000
vt 0.2687123 0.9536388
v -0.2661760 1.5780720 2.1345069
vn -1.0000000 0.0000000 0.0000000
vt 0.2620274 0.9710109
v -0.2661760 1.5059400 2.2573881
vn -1.0000000 0.0000000 0.0000000
vt 0.2580689 0.9890003
v -0.2661760 1.5780720 2.1345069
vn 0.0000000 -0.9918251 -0.1276048
vt 0.1201117 0.2772247
v 0.3102249 1.5780720 2.1345069
vn 0.0000000 -0.9918251 -0.1276048
vt 0.1317926 0.2772248
v 0.3102249 1.5780720 2.1345069
vn 1.0000000 0.0000000 0.0000000
vt 0.2620274 0.9710109
v 0.3102249 1.6687860 2.0226769
vn 1.0000000 0.0000000 0.0000000
vt 0.2687123 0.9536388
v 0.3102249 1.6163610 2.1646571
vn 1.0000000 0.0000000 0.0000000
vt 0.2679391 0.9731879
v 0.3102249 1.5059400 2.2573881
vn 1.0000000 0.0000000 0.0000000
vt 0.2580689 0.9890003
v 0.3102249 1.6687860 2.0226769
vn 0.0000000 0.9889360 0.1483429
vt 0.4730585 0.3248569
v -0.2661760 1.6687860 2.0226769
vn 0.0000000 0.9889360 0.1483429
vt 0.4730588 0.2514245
v 0.3102249 1.6163610 2.1646571
vn 0.0000000 0.8179353 0.5753102
vt 0.4923401 0.3248569
v -0.2661760 1.6163610 2.1646571
vn 0.0000000 0.8179353 0.5753102
vt 0.4923403 0.2514244
v -0.2661760 1.3522960 2.2451220
vn -1.0000000 0.0000000 0.0000000
vt 0.2386910 0.9936323
v -0.2661760 1.3539799 2.2931659
vn -1.0000000 0.0000000 0.0000000
vt 0.2408179 0.9994714
v -0.2661760 1.3522960 2.2451220
vn 0.0000000 -0.4399669 -0.8980141
vt 0.1201118 0.2823198
v -0.2661760 1.5780720 2.1345069
vn 0.0000000 -0.4399669 -0.8980141
vt 0.1201117 0.2772247
v 0.3102249 1.5780720 2.1345069
vn 0.0000000 -0.4399669 -0.8980141
vt 0.1317926 0.2772248
v 0.3102249 1.3522960 2.2451220
vn 0.0000000 -0.4399669 -0.8980141
vt 0.1317925 0.2823198
v 0.3102249 1.3522960 2.2451220
vn 1.0000000 0.0000000 0.0000000
vt 0.2386910 0.9936323
v 0.3102249 1.3539799 2.2931659
vn 1.0000000 0.0000000 0.0000000
vt 0.2408179 0.9994714
v -0.2661760 1.5059400 2.2573881
vn 0.0000000 0.4483222 0.8938720
vt 0.5107104 0.2514245
v 0.3102249 1.5059400 2.2573881
vn 0.0000000 0.4483223 0.8938720
vt 0.5107102 0.3248569
v 0.3102249 1.3539799 2.2931659
vn 0.0000000 0.2291774 0.9733847
vt 0.5305990 0.3248569
v -0.2661760 1.3539799 2.2931659
vn 0.0000000 0.2291774 0.9733847
vt 0.5305992 0.2514247
v 0.3102249 1.5933570 1.6424290
vn 0.0000002 -0.1987909 -0.9800419
vt 0.1256553 0.2900061
v 0.3102249 1.5458560 1.6520640
vn 0.0000002 -0.1987906 -0.9800420
vt 0.1232070 0.2900061
v -0.2661760 1.5458560 1.6520640
vn 0.0000006 -0.1987951 -0.9800411
vt 0.1232070 0.2608877
v -0.2661760 1.5933570 1.6424280
vn 0.0000006 -0.1987953 -0.9800411
vt 0.1256551 0.2608877
v -0.2661760 1.3522960 2.2451220
vn 0.0000000 -0.9993860 0.0350388
vt 0.5367236 0.2514247
v 0.3102249 1.3522960 2.2451220
vn 0.0000000 -0.9993860 0.0350388
vt 0.5367236 0.3248569
v 0.3102249 1.3539799 2.2931659
vn 0.0000000 -0.9993860 0.0350388
vt 0.5305990 0.3248569
v -0.2661760 1.3539799 2.2931659
vn 0.0000000 -0.9993860 0.0350388
vt 0.5305992 0.2514247
v -0.1867773 1.9746580 1.8335500
vn -0.9734148 0.0000000 -0.2290495
vt 0.1382158 0.7625594
v -0.1867773 1.5925910 1.8335500
vn -0.9732724 0.0000000 -0.2296536
vt 0.1382158 0.7160905
v -0.1867773 1.5925910 1.9466230
vn -0.9946607 -0.0005544 0.1031976
vt 0.1519625 0.7160905
v -0.1867773 1.9753860 1.9466310
vn -0.9961865 -0.0000018 0.0872500
vt 0.1519625 0.7626261
v 0.1779346 1.5925910 1.9466230
vn 0.9957713 -0.0004975 0.0918655
vt 0.1519625 0.7160905
v 0.1779346 1.5925910 1.8335490
vn 0.9732723 0.0000000 -0.2296541
vt 0.1382158 0.7160905
v 0.1779346 1.9746580 1.8335490
vn 0.9734146 0.0000000 -0.2290503
vt 0.1382158 0.7625594
v 0.1779346 1.9753860 1.9466310
vn 0.9969892 -0.0000016 0.0775412
vt 0.1519625 0.7625594
v 0.0981204 1.5925910 1.7537349
vn 0.2737612 0.0000000 -0.9617977
vt 0.0990333 0.7160905
v -0.1069632 1.5925910 1.7537349
vn -0.2737611 0.0000000 -0.9617977
vt 0.1239650 0.7160905
v -0.1069632 1.9746580 1.7537349
vn -0.2736443 0.0000000 -0.9618310
vt 0.1239650 0.7625594
v 0.0981204 1.9746580 1.7537349
vn 0.2736448 0.0000000 -0.9618308
vt 0.0990336 0.7625375
v 0.0981204 1.9746580 1.7537349
vn -0.0000007 0.9999874 -0.0050193
vt 0.4420606 0.6149918
v -0.1069632 1.9746580 1.7537349
vn -0.0000000 0.9999875 -0.0050142
vt 0.4173673 0.6149918
v -0.1648169 1.9748369 1.7895160
vn -0.0000006 0.9999978 0.0021217
vt 0.4104020 0.6106836
v 0.1559741 1.9748380 1.7895160
vn -0.0000002 0.9999977 0.0021251
vt 0.4490260 0.6106836
v -0.1346017 1.8872960 2.0887761
vn -0.8858632 0.0000487 0.4639465
vt 0.1704479 0.7519156
v -0.1790011 1.9622580 1.9856800
vn -0.9642219 -0.0000485 0.2650965
vt 0.1570665 0.7610301
v -0.1781253 1.5925910 1.9877160
vn -0.9531283 -0.0005611 0.3025661
vt 0.1570665 0.7160905
v -0.1346017 1.5925879 2.0888360
vn -0.8624819 0.0001470 0.5060880
vt 0.1704505 0.7160887
v 0.0011804 1.7945240 2.1884019
vn 0.0041601 -0.0001749 0.9999914
vt 0.1915151 0.7406372
v 0.0011801 1.5925879 2.1880009
vn 0.0034999 -0.0019859 0.9999919
vt 0.1914957 0.7160883
v 0.0913800 1.5925879 2.1460271
vn 0.6409963 -0.0004930 0.7675438
vt 0.2035898 0.7160683
v 0.0913800 1.8360180 2.1459341
vn 0.7011504 0.0002112 0.7130135
vt 0.2036426 0.7456619
v 0.1710110 1.9621500 1.9858280
vn 0.0000911 0.8988394 0.4382782
vt 0.3257817 0.3416602
v -0.1790011 1.9622580 1.9856800
vn 0.0000059 0.9005467 0.4347594
vt 0.2836389 0.3416813
v -0.1346017 1.8872960 2.0887761
vn -0.0000002 0.7868353 0.6171630
vt 0.2889851 0.3263337
v 0.1318594 1.8872960 2.0887771
vn -0.0000004 0.7860815 0.6181229
vt 0.3210683 0.3263344
v -0.0906960 1.5925879 2.1460259
vn -0.6232562 -0.0004830 0.7820176
vt 0.1792156 0.7160877
v -0.0906960 1.8360180 2.1459341
vn -0.6800134 0.0002160 0.7331997
vt 0.1792094 0.7456810
v 0.1318594 1.5925879 2.0888360
vn 0.8825072 0.0001380 0.4702989
vt 0.2121080 0.7160560
v 0.1318594 1.8872960 2.0887771
vn 0.9049314 0.0000452 0.4255576
vt 0.2121674 0.7518829
v 0.1702243 1.5925910 1.9879000
vn 0.9626131 -0.0005036 0.2708796
vt 0.2252355 0.7160369
v 0.1710110 1.9621500 1.9858280
vn 0.9716147 -0.0000434 0.2365690
vt 0.2255704 0.7609631
v -0.0906960 1.8360180 2.1459341
vn -0.0000004 0.7382003 0.6745816
vt 0.2942717 0.3170883
v 0.0913800 1.8360180 2.1459341
vn 0.0000000 0.7380472 0.6747491
vt 0.3161945 0.3170888
v -0.0906960 1.8360180 2.1459341
vn -0.0000004 0.7382003 0.6745816
vt 0.4193265 0.5622128
v 0.0011804 1.7945240 2.1884019
vn 0.0000000 0.7152669 0.6988513
vt 0.4303887 0.5550642
v 0.0913800 1.8360180 2.1459341
vn 0.0000000 0.7380472 0.6747491
vt 0.4412493 0.5622133
v 0.1710110 1.9621500 1.9858280
vn 0.9716147 -0.0000434 0.2365690
vt 0.1570665 0.7610301
v 0.1702243 1.5925910 1.9879000
vn 0.9626131 -0.0005036 0.2708796
vt 0.1570665 0.7160905
v 0.1779346 1.9753860 1.9466310
vn 0.0000684 0.9887368 0.1496648
vt 0.3266154 0.3466416
v -0.1867773 1.9753860 1.9466310
vn -0.0000004 0.9890082 0.1478603
vt 0.2827033 0.3466416
v -0.1648169 1.9748369 1.7895160
vn -0.7385646 0.0000000 -0.6741827
vt 0.1322342 0.7625594
v -0.1648169 1.5923200 1.7895160
vn -0.7385326 0.0000000 -0.6742178
vt 0.1322342 0.7160905
v 0.1559741 1.5923200 1.7895160
vn 0.7385328 0.0000000 -0.6742176
vt 0.1322340 0.7160905
v 0.1559741 1.9748380 1.7895160
vn 0.7385646 0.0000000 -0.6741827
vt 0.1322342 0.7625594
v 0.1779346 1.9746580 1.8335490
vn -0.0000003 0.9999979 -0.0020878
vt 0.4516702 0.6053818
v -0.1867773 1.9746580 1.8335500
vn -0.0000003 0.9999979 -0.0020890
vt 0.4077581 0.6053818
v -0.1867773 1.9753860 1.9466310
vn -0.0000004 0.9890082 0.1478603
vt 0.4077581 0.5917661
v 0.1779346 1.9753860 1.9466310
vn 0.0000684 0.9887368 0.1496648
vt 0.4516702 0.5917661
v 0.0981204 1.5925910 1.7537349
vn 0.2737612 0.0000000 -0.9617977
vt 0.1239650 0.7160905
v 0.0981204 1.9746580 1.7537349
vn 0.2736448 0.0000000 -0.9618308
vt 0.1239650 0.7625594
v 0.0697153 1.8499269 2.0342970
vn 0.9510364 0.0065858 -0.3090088
vt 0.0601270 0.6963024
v 0.0500934 4.9825792 2.0406721
vn 0.9510363 0.0065858 -0.3090091
vt 0.0598924 0.9959166
v 0.0500934 4.9825792 2.0719390
vn 0.9510363 0.0065858 0.3090091
vt 0.0568716 0.9959166
v 0.0697153 1.8499269 2.0783141
vn 0.9510356 0.0065859 0.3090110
vt 0.0569899 0.6963024
v 0.0438422 1.8499269 2.1139250
vn 0.5877722 0.0065859 0.8089997
vt 0.0538534 0.6963024
v 0.0317154 4.9825792 2.0972340
vn 0.5877759 0.0065858 0.8089970
vt 0.0536728 0.9959166
v 0.0019788 1.8499269 2.1275270
vn 0.0000016 0.0065858 0.9999783
vt 0.0507172 0.6963024
v 0.0019788 4.9825792 2.1068959
vn -0.0000015 0.0065859 0.9999783
vt 0.0507040 0.9959166
v -0.0398846 1.8499269 2.1139250
vn -0.5877737 0.0065859 0.8089986
vt 0.0475811 0.6963024
v -0.0277576 4.9825792 2.0972340
vn -0.5877725 0.0065859 0.8089995
vt 0.0476591 0.9959166
v -0.0657575 1.8499269 2.0783141
vn -0.9510371 0.0065858 0.3090066
vt 0.0444445 0.6963024
v -0.0461359 4.9825792 2.0719390
vn -0.9510354 0.0065858 0.3090120
vt 0.0446008 0.9959166
v -0.0657575 1.8499269 2.0342970
vn -0.9510372 0.0065857 -0.3090062
vt 0.0413075 0.6963024
v -0.0461359 4.9825792 2.0406721
vn -0.9510351 0.0065858 -0.3090128
vt 0.0415431 0.9959166
v -0.0398846 1.8499269 1.9986850
vn -0.5877751 0.0065858 -0.8089976
vt 0.0381695 0.6963024
v -0.0277576 4.9825792 2.0153761
vn -0.5877680 0.0065859 -0.8090028
vt 0.0384862 0.9959166
v 0.0019788 1.8499269 1.9850830
vn 0.0000010 0.0065858 -0.9999783
vt 0.0350302 0.6963024
v 0.0019788 4.9825792 2.0057149
vn -0.0000014 0.0065858 -0.9999783
vt 0.0354306 0.9959166
v 0.0438422 1.8499269 1.9986850
vn 0.5877731 0.0065858 -0.8089991
vt 0.0632650 0.6963024
v 0.0019788 1.8499269 1.9850830
vn 0.0000010 0.0065858 -0.9999783
vt 0.0664043 0.6963024
v 0.0019788 4.9825792 2.0057149
vn -0.0000014 0.0065858 -0.9999783
vt 0.0660049 0.9959166
v 0.0317154 4.9825792 2.0153761
vn 0.5877693 0.0065858 -0.8090018
vt 0.0629493 0.9959166
v 0.0571991 4.9676752 2.0383630
vn 0.9510555 0.0002216 -0.3090200
vt 0.1581241 0.9899968
v 0.0571860 5.0299520 2.0383670
vn 0.9510571 0.0002185 -0.3090151
vt 0.1581241 0.9993105
v 0.0571860 5.0299520 2.0742431
vn 0.9510569 0.0002192 0.3090158
vt 0.1548402 0.9993105
v 0.0571991 4.9676752 2.0742469
vn 0.9510578 0.0002193 0.3090132
vt 0.1548402 0.9899968
v 0.0360989 5.0299520 2.1032670
vn 0.5877813 0.0002173 0.8090199
vt 0.1515563 0.9993105
v 0.0361069 4.9676752 2.1032779
vn 0.5877849 0.0002202 0.8090172
vt 0.1515563 0.9899968
v 0.0019788 5.0299520 2.1143529
vn 0.0000010 0.0002231 1.0000000
vt 0.1482716 0.9993105
v 0.0019788 4.9676752 2.1143670
vn -0.0000033 0.0002205 1.0000000
vt 0.1482716 0.9899968
v -0.0321411 5.0299520 2.1032670
vn -0.5877840 0.0002165 0.8090179
vt 0.1449866 0.9993105
v -0.0321490 4.9676752 2.1032779
vn -0.5877911 0.0002121 0.8090127
vt 0.1449866 0.9899968
v -0.0532284 5.0299520 2.0742431
vn -0.9510565 0.0002150 0.3090171
vt 0.1417016 0.9993105
v -0.0532413 4.9676752 2.0742469
vn -0.9510562 0.0002159 0.3090180
vt 0.1417016 0.9899968
v -0.0532284 5.0299520 2.0383670
vn -0.9510557 0.0002171 -0.3090193
vt 0.1384164 0.9993105
v -0.0532413 4.9676752 2.0383630
vn -0.9510554 0.0002169 -0.3090203
vt 0.1384164 0.9899968
v -0.0321411 5.0299520 2.0093429
vn -0.5877830 0.0002175 -0.8090186
vt 0.1351312 0.9993105
v -0.0321490 4.9676752 2.0093319
vn -0.5877838 0.0002182 -0.8090180
vt 0.1351312 0.9899968
v 0.0019788 5.0299520 1.9982570
vn -0.0000084 0.0002192 -1.0000000
vt 0.1318458 0.9993105
v 0.0019788 4.9676752 1.9982430
vn -0.0000041 0.0002167 -1.0000000
vt 0.1318458 0.9899968
v 0.0019788 4.9676752 1.9982430
vn -0.0000041 0.0002167 -1.0000000
vt 0.1646941 0.9899968
v 0.0019788 5.0299520 1.9982570
vn -0.0000084 0.0002192 -1.0000000
vt 0.1646941 0.9993105
v 0.0360989 5.0299520 2.0093429
vn 0.5877844 0.0002146 -0.8090176
vt 0.1614088 0.9993105
v 0.0361069 4.9676752 2.0093319
vn 0.5877861 0.0002143 -0.8090163
vt 0.1614088 0.9899968
v 0.0019788 5.0299520 1.9982570
vn 0.0000000 1.0000000 0.0000000
vt 0.9149033 0.6424195
v -0.0321411 5.0299520 2.0093429
vn 0.0000000 1.0000000 0.0000000
vt 0.9094036 0.6443370
v 0.0019787 5.0299520 2.0135000
vn 0.0000000 1.0000000 0.0000000
vt 0.9149562 0.6448950
v -0.0277163 5.0299520 2.0258000
vn 0.0000000 1.0000000 0.0000000
vt 0.9101772 0.6469944
v -0.0532284 5.0299520 2.0383670
vn 0.0000000 1.0000000 0.0000000
vt 0.9060784 0.6491227
v -0.0400155 5.0299520 2.0554931
vn 0.0000000 1.0000000 0.0000000
vt 0.9082804 0.6518593
v -0.0532284 5.0299520 2.0742431
vn 0.0000000 1.0000000 0.0000000
vt 0.9061990 0.6549497
v -0.0277165 5.0299520 2.0851860
vn 0.0000000 1.0000000 0.0000000
vt 0.9103797 0.6566394
v -0.0321411 5.0299520 2.1032670
vn 0.0000000 1.0000000 0.0000000
vt 0.9097261 0.6595904
v 0.0019787 5.0299520 2.0974870
vn 0.0000000 1.0000000 0.0000000
vt 0.9152456 0.6585350
v 0.0019788 5.0299520 2.1143529
vn 0.0000000 1.0000000 0.0000000
vt 0.9153025 0.6612747
v 0.0360989 5.0299520 2.1032670
vn 0.0000000 1.0000000 0.0000000
vt 0.9208054 0.6593565
v 0.0316734 5.0299520 2.0851860
vn 0.0000000 1.0000000 0.0000000
vt 0.9200249 0.6564357
v 0.0571860 5.0299520 2.0742431
vn 0.0000000 1.0000000 0.0000000
vt 0.9241297 0.6545711
v 0.0439726 5.0299520 2.0554941
vn 0.0000000 1.0000000 0.0000000
vt 0.9219197 0.6515709
v 0.0571860 5.0299520 2.0383670
vn 0.0000000 1.0000000 0.0000000
vt 0.9240068 0.6487442
v 0.0316739 5.0299520 2.0258000
vn 0.0000000 1.0000000 0.0000000
vt 0.9198211 0.6467908
v 0.0360989 5.0299520 2.0093429
vn 0.0000000 1.0000000 0.0000000
vt 0.9204820 0.6441029
v 0.0019787 4.9099512 2.0554941
vn -0.0000010 1.0000000 -0.0000011
vt 0.9151010 0.6517150
v 0.0019787 5.0299520 2.0974870
vn -0.0000027 0.3303031 -0.9438750
vt 0.9152456 0.6585350
v 0.0316734 5.0299520 2.0851860
vn -0.6674267 0.3303030 -0.6674140
vt 0.9200249 0.6564357
v 0.0439726 5.0299520 2.0554941
vn -0.9438737 0.3303067 -0.0000082
vt 0.9219197 0.6515709
v 0.0019787 5.0299520 2.0135000
vn 0.0000015 0.3303031 0.9438749
vt 0.9149562 0.6448950
v 0.0316739 5.0299520 2.0258000
vn -0.6674278 0.3303069 0.6674111
vt 0.9198211 0.6467908
v -0.0277165 5.0299520 2.0851860
vn 0.6674275 0.3303055 -0.6674120
vt 0.9103797 0.6566394
v -0.0277163 5.0299520 2.0258000
vn 0.6674228 0.3303055 0.6674168
vt 0.9101772 0.6469944
v -0.0400155 5.0299520 2.0554931
vn 0.9438730 0.3303087 0.0000047
vt 0.9082804 0.6518593
v 0.0019788 4.9676752 1.9982430
vn 0.0000000 -1.0000000 0.0000000
vt 0.9149033 0.6424195
v 0.0019787 4.9676752 2.0135140
vn 0.0000000 -1.0000000 0.0000000
vt 0.9149562 0.6448950
v -0.0321490 4.9676752 2.0093319
vn 0.0000000 -1.0000000 0.0000000
vt 0.9094036 0.6443370
v -0.0277163 4.9676752 2.0258150
vn 0.0000000 -1.0000000 0.0000000
vt 0.9101772 0.6469944
v -0.0532413 4.9676752 2.0383630
vn 0.0000000 -1.0000000 0.0000000
vt 0.9060784 0.6491227
v -0.0400155 4.9676752 2.0555069
vn 0.0000000 -1.0000000 0.0000000
vt 0.9082804 0.6518593
v -0.0532413 4.9676752 2.0742469
vn 0.0000000 -1.0000000 0.0000000
vt 0.9061990 0.6549497
v -0.0277165 4.9676752 2.0852001
vn 0.0000000 -1.0000000 0.0000000
vt 0.9103797 0.6566394
v -0.0321490 4.9676752 2.1032779
vn 0.0000000 -1.0000000 0.0000000
vt 0.9097261 0.6595904
v 0.0019787 4.9676752 2.0975010
vn 0.0000000 -1.0000000 0.0000000
vt 0.9152457 0.6585350
v 0.0019788 4.9676752 2.1143670
vn 0.0000000 -1.0000000 0.0000000
vt 0.9153025 0.6612747
v 0.0361069 4.9676752 2.1032779
vn 0.0000000 -1.0000000 0.0000000
vt 0.9208054 0.6593565
v 0.0316734 4.9676752 2.0852001
vn 0.0000000 -1.0000000 0.0000000
vt 0.9200249 0.6564357
v 0.0571991 4.9676752 2.0742469
vn 0.0000000 -1.0000000 0.0000000
vt 0.9241297 0.6545711
v 0.0439726 4.9676752 2.0555069
vn 0.0000000 -1.0000000 0.0000000
vt 0.9219196 0.6515709
v 0.0571991 4.9676752 2.0383630
vn 0.0000000 -1.0000000 0.0000000
vt 0.9240068 0.6487442
v 0.0316739 4.9676752 2.0258141
vn 0.0000000 -1.0000000 0.0000000
vt 0.9198211 0.6467908
v 0.0361069 4.9676752 2.0093319
vn 0.0000000 -1.0000000 0.0000000
vt 0.9204820 0.6441029
v 0.0019787 4.9099512 2.0554941
vn -0.0000010 1.0000000 -0.0000011
vt 0.9151010 0.6517150
v 0.0019787 4.9099512 2.0554941
vn -0.0000010 1.0000000 -0.0000011
vt 0.9151010 0.6517150
v 0.0019787 4.9099512 2.0554941
vn -0.0000010 1.0000000 -0.0000011
vt 0.9151010 0.6517150
v 0.0019787 4.9099512 2.0554941
vn -0.0000010 1.0000000 -0.0000011
vt 0.9151010 0.6517150

g group_117_140627885632688
f 1/1/1 2/2/2 3/3/3 
f 3/3/3 4/4/4 1/1/1 
f 5/5/5 6/6/6 7/7/7 
f 7/7/7 8/8/8 5/5/5 
f 9/9/9 10/10/10 11/11/11 
f 11/11/11 12/12/12 9/9/9 
f 13/13/13 14/14/14 15/15/15 
f 15/15/15 16/16/16 13/13/13 
f 17/17/17 18/18/18 19/19/19 
f 19/19/19 20/20/20 17/17/17 
f 3/3/3 19/19/19 18/18/18 
f 18/18/18 4/4/4 3/3/3 
f 21/21/21 5/5/5 8/8/8 
f 8/8/8 22/22/22 21/21/21 
f 23/23/23 24/24/24 25/25/25 
f 25/25/25 26/26/26 23/23/23 
f 24/24/24 23/23/23 9/9/9 
f 9/9/9 12/12/12 24/24/24 
f 27/27/27 13/13/13 16/16/16 
f 16/16/16 28/28/28 27/27/27 
f 29/29/29 27/27/27 28/28/28 
f 28/28/28 30/30/30 29/29/29 
f 20/20/20 19/19/19 31/31/31 
f 31/31/31 32/32/32 20/20/20 
f 33/33/33 34/34/34 35/35/35 
f 35/35/35 36/36/36 33/33/33 
f 37/37/37 23/23/23 26/26/26 
f 26/26/26 38/38/38 37/37/37 
f 39/39/39 40/40/40 29/29/29 
f 29/29/29 30/30/30 39/39/39 
f 41/41/41 40/40/40 39/39/39 
f 39/39/39 42/42/42 41/41/41 
f 43/43/43 44/44/44 45/45/45 
f 45/45/45 46/46/46 43/43/43 
f 47/47/47 48/48/48 49/49/49 
f 49/49/49 50/50/50 47/47/47 
f 51/51/51 52/52/52 53/53/53 
f 53/53/53 54/54/54 51/51/51 
f 55/55/55 56/56/56 57/57/57 
f 57/57/57 58/58/58 55/55/55 
f 59/59/59 60/60/60 61/61/61 
f 61/61/61 62/62/62 59/59/59 
f 63/63/63 64/64/64 65/65/65 
f 65/65/65 66/66/66 63/63/63 
f 67/67/67 68/68/68 69/69/69 
f 69/69/69 70/70/70 67/67/67 
f 71/71/71 72/72/72 73/73/73 
f 73/73/73 74/74/74 71/71/71 
f 75/75/75 76/76/76 77/77/77 
f 77/77/77 78/78/78 75/75/75 
f 79/79/79 72/72/72 71/71/71 
f 71/71/71 80/80/80 79/79/79 
f 74/74/74 73/73/73 81/81/81 
f 81/81/81 82/82/82 74/74/74 
f 70/70/70 79/79/79 80/80/80 
f 80/80/80 67/67/67 70/70/70 
f 82/82/82 81/81/81 83/83/83 
f 83/83/83 84/84/84 82/82/82 
f 78/78/78 77/77/77 85/85/85 
f 85/85/85 86/86/86 78/78/78 
f 87/87/87 88/88/88 89/89/89 
f 68/68/68 54/54/54 53/53/53 
f 53/53/53 69/69/69 68/68/68 
f 90/90/90 91/91/91 55/55/55 
f 55/55/55 58/58/58 90/90/90 
f 76/76/76 75/75/75 92/92/92 
f 92/92/92 93/93/93 76/76/76 
f 52/52/52 51/51/51 94/94/94 
f 94/94/94 95/95/95 52/52/52 
f 57/57/57 56/56/56 96/96/96 
f 96/96/96 97/97/97 57/57/57 
f 98/98/98 99/99/99 100/100/100 
f 100/100/100 101/101/101 98/98/98 
f 66/66/66 65/65/65 99/99/99 
f 99/99/99 98/98/98 66/66/66 
f 95/95/95 94/94/94 61/61/61 
f 61/61/61 60/60/60 95/95/95 
f 97/97/97 96/96/96 102/102/102 
f 102/102/102 103/103/103 97/97/97 
f 104/104/104 105/105/105 106/106/106 
f 106/106/106 107/107/107 104/104/104 
f 108/108/108 107/107/107 106/106/106 
f 106/106/106 109/109/109 108/108/108 
f 110/110/110 108/108/108 109/109/109 
f 109/109/109 111/111/111 110/110/110 
f 112/112/112 110/110/110 111/111/111 
f 111/111/111 113/113/113 112/112/112 
f 114/114/114 112/112/112 113/113/113 
f 113/113/113 115/115/115 114/114/114 
f 116/116/116 114/114/114 115/115/115 
f 115/115/115 117/117/117 116/116/116 
f 118/118/118 116/116/116 117/117/117 
f 117/117/117 119/119/119 118/118/118 
f 120/120/120 118/118/118 119/119/119 
f 119/119/119 121/121/121 120/120/120 
f 122/122/122 123/123/123 124/124/124 
f 124/124/124 125/125/125 122/122/122 
f 122/122/122 125/125/125 105/105/105 
f 105/105/105 104/104/104 122/122/122 
f 126/126/126 127/127/127 128/128/128 
f 128/128/128 129/129/129 126/126/126 
f 129/129/129 128/128/128 130/130/130 
f 130/130/130 131/131/131 129/129/129 
f 131/131/131 130/130/130 132/132/132 
f 132/132/132 133/133/133 131/131/131 
f 133/133/133 132/132/132 134/134/134 
f 134/134/134 135/135/135 133/133/133 
f 135/135/135 134/134/134 136/136/136 
f 136/136/136 137/137/137 135/135/135 
f 137/137/137 136/136/136 138/138/138 
f 138/138/138 139/139/139 137/137/137 
f 139/139/139 138/138/138 140/140/140 
f 140/140/140 141/141/141 139/139/139 
f 141/141/141 140/140/140 142/142/142 
f 142/142/142 143/143/143 141/141/141 
f 144/144/144 145/145/145 146/146/146 
f 146/146/146 147/147/147 144/144/144 
f 147/147/147 146/146/146 127/127/127 
f 127/127/127 126/126/126 147/147/147 
f 148/148/148 149/149/149 150/150/150 
f 149/149/149 151/151/151 150/150/150 
f 149/149/149 152/152/152 151/151/151 
f 151/151/151 152/152/152 153/153/153 
f 152/152/152 154/154/154 153/153/153 
f 153/153/153 154/154/154 155/155/155 
f 154/154/154 156/156/156 155/155/155 
f 155/155/155 156/156/156 157/157/157 
f 157/157/157 156/156/156 158/158/158 
f 157/157/157 158/158/158 159/159/159 
f 160/160/160 157/157/157 159/159/159 
f 161/161/161 160/160/160 159/159/159 
f 162/162/162 160/160/160 161/161/161 
f 163/163/163 162/162/162 161/161/161 
f 164/164/164 162/162/162 163/163/163 
f 165/165/165 164/164/164 163/163/163 
f 165/165/165 150/150/150 164/164/164 
f 148/148/148 150/150/150 165/165/165 
f 166/166/166 167/167/167 168/168/168 
f 166/166/166 168/168/168 169/169/169 
f 170/170/170 193/193/193 171/171/171 
f 171/171/171 194/194/194 169/169/169 
f 166/166/166 172/172/172 167/167/167 
f 170/170/170 173/173/173 195/195/195 
f 174/174/174 172/172/172 196/196/196 
f 173/173/173 174/174/174 195/195/195 
f 175/175/175 176/176/176 177/177/177 
f 177/177/177 176/176/176 178/178/178 
f 177/177/177 178/178/178 179/179/179 
f 178/178/178 180/180/180 179/179/179 
f 179/179/179 180/180/180 181/181/181 
f 180/180/180 182/182/182 181/181/181 
f 181/181/181 182/182/182 183/183/183 
f 182/182/182 184/184/184 183/183/183 
f 184/184/184 185/185/185 183/183/183 
f 184/184/184 186/186/186 185/185/185 
f 187/187/187 186/186/186 184/184/184 
f 188/188/188 186/186/186 187/187/187 
f 189/189/189 188/188/188 187/187/187 
f 190/190/190 188/188/188 189/189/189 
f 191/191/191 190/190/190 189/189/189 
f 192/192/192 190/190/190 191/191/191 
f 192/192/192 191/191/191 176/176/176 
f 175/175/175 192/192/192 176/176/176 
