v 0.0678333 1.8440270 1.9109660
vn 0.9510255 0.0080196 -0.3090084
vt 0.1570877 0.7789286
v 0.0548468 3.5466721 1.9151850
vn 0.9510266 0.0080195 -0.3090051
vt 0.1569400 0.9863718
v 0.0548465 3.5466721 1.9486560
vn 0.9510250 0.0080196 0.3090099
vt 0.1535937 0.9863718
v 0.0678333 1.8440270 1.9528760
vn 0.9510255 0.0080196 0.3090085
vt 0.1536092 0.7789286
v 0.0351727 3.5466721 1.9757349
vn 0.5877675 0.0080196 0.8089902
vt 0.1500502 0.9863718
v 0.0431989 1.8440270 1.9867820
vn 0.5877654 0.0080196 0.8089917
vt 0.1501318 0.7789286
v 0.0033395 3.5466721 1.9860790
vn -0.0000013 0.0080196 0.9999679
vt 0.1467615 0.9863718
v 0.0033398 1.8440270 1.9997330
vn 0.0000025 0.0080195 0.9999679
vt 0.1466547 0.7789286
v -0.0365195 1.8440270 1.9867820
vn -0.5877649 0.0080195 0.8089921
vt 0.1431772 0.7789286
v -0.0284934 3.5466721 1.9757349
vn -0.5877659 0.0080196 0.8089914
vt 0.1433886 0.9863718
v -0.0611539 1.8440270 1.9528760
vn -0.9510260 0.0080195 0.3090070
vt 0.1396984 0.7789286
v -0.0481674 3.5466721 1.9486560
vn -0.9510267 0.0080196 0.3090048
vt 0.1400007 0.9863718
v -0.0611539 1.8440270 1.9109660
vn -0.9510255 0.0080195 -0.3090084
vt 0.1362178 0.7789286
v -0.0481671 3.5466721 1.9151850
vn -0.9510249 0.0080196 -0.3090103
vt 0.1366135 0.9863718
v -0.0284934 3.5466721 1.8881060
vn -0.5877692 0.0080196 -0.8089889
vt 0.1332273 0.9863718
v -0.0365195 1.8440270 1.8770590
vn -0.5877652 0.0080195 -0.8089918
vt 0.1327346 0.7789286
v 0.0033395 3.5466721 1.8777630
vn -0.0000012 0.0080195 -0.9999679
vt 0.1298424 0.9863718
v 0.0033398 1.8440270 1.8641080
vn 0.0000011 0.0080195 -0.9999679
vt 0.1292480 0.7789286
v 0.0033398 1.8440270 1.8641080
vn 0.0000011 0.0080195 -0.9999679
vt 0.1640523 0.7788424
v 0.0033395 3.5466721 1.8777630
vn -0.0000012 0.0080195 -0.9999679
vt 0.1637111 0.9863718
v 0.0351727 3.5466721 1.8881060
vn 0.5877652 0.0080195 -0.8089918
vt 0.1603262 0.9863718
v 0.0431989 1.8440270 1.8770590
vn 0.5877661 0.0080195 -0.8089912
vt 0.1605680 0.7789412
v 0.0612344 3.5317681 1.9131100
vn 0.9510569 0.0001850 -0.3090158
vt 0.1581240 0.9899968
v 0.0612210 3.6081481 1.9131140
vn 0.9510573 0.0001843 -0.3090144
vt 0.1581240 0.9993105
v 0.0612210 3.6081481 1.9507281
vn 0.9510558 0.0001845 0.3090191
vt 0.1548402 0.9993105
v 0.0612344 3.5317681 1.9507320
vn 0.9510569 0.0001861 0.3090159
vt 0.1548402 0.9899968
v 0.0391122 3.6081481 1.9811580
vn 0.5877855 0.0001866 0.8090168
vt 0.1515563 0.9993105
v 0.0391208 3.5317681 1.9811690
vn 0.5877874 0.0001876 0.8090155
vt 0.1515563 0.9899968
v 0.0033398 3.6081481 1.9927810
vn 0.0000016 0.0001879 1.0000000
vt 0.1482716 0.9993105
v 0.0033395 3.5317681 1.9927950
vn -0.0000037 0.0001860 1.0000000
vt 0.1482716 0.9899968
v -0.0324329 3.6081481 1.9811580
vn -0.5877854 0.0001859 0.8090169
vt 0.1449866 0.9993105
v -0.0324411 3.5317681 1.9811690
vn -0.5877868 0.0001849 0.8090159
vt 0.1449866 0.9899968
v -0.0545416 3.6081481 1.9507281
vn -0.9510561 0.0001847 0.3090182
vt 0.1417015 0.9993105
v -0.0545551 3.5317681 1.9507320
vn -0.9510559 0.0001850 0.3090189
vt 0.1417015 0.9899968
v -0.0545416 3.6081481 1.9131140
vn -0.9510558 0.0001845 -0.3090191
vt 0.1384164 0.9993105
v -0.0545551 3.5317681 1.9131100
vn -0.9510569 0.0001861 -0.3090159
vt 0.1384164 0.9899968
v -0.0324329 3.6081481 1.8826840
vn -0.5877845 0.0001866 -0.8090175
vt 0.1351312 0.9993105
v -0.0324414 3.5317681 1.8826730
vn -0.5877872 0.0001881 -0.8090156
vt 0.1351312 0.9899968
v 0.0033398 3.6081481 1.8710610
vn -0.0000014 0.0001874 -1.0000000
vt 0.1318458 0.9993105
v 0.0033398 3.5317681 1.8710470
vn 0.0000017 0.0001859 -1.0000000
vt 0.1318458 0.9899968
v 0.0033398 3.5317681 1.8710470
vn 0.0000017 0.0001859 -1.0000000
vt 0.1646941 0.9899968
v 0.0033398 3.6081481 1.8710610
vn -0.0000014 0.0001874 -1.0000000
vt 0.1646941 0.9993105
v 0.0391125 3.6081481 1.8826840
vn 0.5877874 0.0001847 -0.8090154
vt 0.1614088 0.9993105
v 0.0391208 3.5317681 1.8826730
vn 0.5877888 0.0001840 -0.8090145
vt 0.1614088 0.9899968
v -0.2233432 1.9592210 1.6612099
vn -1.0000000 0.0000000 0.0000000
vt 0.2561110 0.9059558
v -0.2233432 1.4778490 1.6612099
vn -1.0000000 0.0000000 0.0000000
vt 0.3069026 0.9059558
v -0.2233432 1.4778490 1.8186229
vn -1.0000000 0.0000000 0.0000000
vt 0.3069026 0.9225659
v -0.2233432 1.9592340 1.8186311
vn -1.0000000 0.0000000 0.0000000
vt 0.2561097 0.9225659
v 0.2591397 1.4778490 1.8186229
vn 1.0000000 0.0000000 0.0000000
vt 0.3069228 0.9225659
v 0.2591397 1.4778490 1.6612099
vn 1.0000000 0.0000000 0.0000000
vt 0.3069315 0.9059558
v 0.2591397 1.9592210 1.6612099
vn 1.0000000 0.0000000 0.0000000
vt 0.2561395 0.9059558
v 0.2591397 1.9592340 1.8186311
vn 1.0000000 0.0000000 0.0000000
vt 0.2561301 0.9225657
v 0.2591397 1.4778490 1.6612099
vn 0.0000000 0.0000000 -1.0000000
vt 0.0107289 0.7178776
v -0.2233432 1.4778490 1.6612099
vn 0.0000000 0.0000000 -1.0000000
vt 0.0107289 0.7008040
v -0.2233432 1.9592210 1.6612099
vn 0.0000000 0.0000000 -1.0000000
vt 0.0278020 0.7008040
v 0.2591397 1.9592210 1.6612099
vn 0.0000000 0.0000000 -1.0000000
vt 0.0278020 0.7178776
v 0.2591397 1.9592210 1.6612099
vn 0.0000000 1.0000000 -0.0000825
vt 0.4242273 0.5351282
v -0.2233432 1.9592210 1.6612099
vn 0.0000000 1.0000000 -0.0000825
vt 0.3709548 0.5351238
v -0.2233432 1.9592340 1.8186311
vn 0.0000000 1.0000000 -0.0000825
vt 0.3709533 0.5525054
v 0.2591397 1.9592340 1.8186311
vn 0.0000000 1.0000000 -0.0000825
vt 0.4242262 0.5525099
v -0.1267279 1.8563030 1.9869950
vn -0.8445878 0.0000858 0.5354171
vt 0.2669704 0.9430492
v -0.2233432 1.9592340 1.8186311
vn -0.8673399 -0.0000084 0.4977163
vt 0.2561097 0.9225659
v -0.2233432 1.4778490 1.8186229
vn -0.8674513 0.0001065 0.4975221
vt 0.3069026 0.9225659
v -0.1267276 1.4776680 1.9871140
vn -0.8344815 0.0001613 0.5510360
vt 0.3069220 0.9430604
v 0.0011801 1.8038430 2.0728030
vn 0.0033956 0.0000436 0.9999943
vt 0.2725047 0.9600394
v 0.0011801 1.4776760 2.0724020
vn 0.0030234 -0.0012288 0.9999947
vt 0.3069192 0.9600313
v 0.0845886 1.4776740 2.0438530
vn 0.5647061 -0.0003891 0.8252921
vt 0.3069257 0.9693332
v 0.0845886 1.8215990 2.0437601
vn 0.6082004 0.0002302 0.7937835
vt 0.2706372 0.9693599
v -0.2233432 1.9592340 1.8186311
vn -0.0000001 0.8531863 0.5216064
vt 0.3709533 0.5525054
v -0.1267279 1.8563030 1.9869950
vn -0.0000004 0.8531859 0.5216070
vt 0.3816194 0.5742951
v 0.1325030 1.8563030 1.9869950
vn -0.0000001 0.8531862 0.5216065
vt 0.4102418 0.5742974
v 0.2591397 1.9592340 1.8186311
vn 0.0000000 0.8531864 0.5216061
vt 0.4242262 0.5525099
v -0.0839044 1.4776740 2.0438530
vn -0.5846315 -0.0003974 0.8112989
vt 0.3069207 0.9505610
v -0.0839044 1.8215990 2.0437601
vn -0.6328003 0.0002238 0.7743150
vt 0.2706328 0.9505525
v 0.1325030 1.4776680 1.9871140
vn 0.7820178 0.0001837 0.6232561
vt 0.3069306 0.9771695
v 0.1325030 1.8563030 1.9869950
vn 0.7869134 0.0000986 0.6170634
vt 0.2669793 0.9772003
v 0.2591397 1.4778490 1.8186229
vn 0.7993193 0.0001249 0.6009066
vt 0.3069228 0.9994099
v 0.2591397 1.9592340 1.8186311
vn 0.7991735 -0.0000101 0.6011004
vt 0.2561301 0.9994354
v -0.0839044 1.8215990 2.0437601
vn -0.0000007 0.8531851 0.5216084
vt 0.3863469 0.5816417
v 0.0845886 1.8215990 2.0437601
vn -0.0000004 0.8531857 0.5216073
vt 0.4049509 0.5816432
v 0.0011801 1.8038430 2.0728030
vn -0.0000007 0.8531862 0.5216066
vt 0.3957413 0.5854010
v 0.2970230 1.5448310 1.5963610
vn 1.0000000 0.0000008 -0.0000001
vt 0.2442473 0.9099035
v 0.2970227 1.6012830 1.8352160
vn 1.0000000 0.0000091 0.0000002
vt 0.2617119 0.9355979
v 0.2970230 1.5654340 1.8349050
vn 1.0000000 0.0000078 0.0000004
vt 0.2573789 0.9375372
v 0.2970230 1.5101430 1.6037180
vn 1.0000000 0.0000000 0.0000000
vt 0.2404239 0.9123353
v -0.2461572 1.5101430 1.6037180
vn 0.0000001 -0.9725720 0.2326022
vt 0.1111316 0.2442744
v 0.2970230 1.5101430 1.6037180
vn 0.0000004 -0.9725721 0.2326015
vt 0.1466487 0.2442744
v 0.2970230 1.5654340 1.8349050
vn 0.0000001 -0.9908414 -0.1350307
vt 0.1466487 0.2598173
v -0.2461572 1.5654340 1.8349050
vn 0.0000001 -0.9908414 -0.1350307
vt 0.1111316 0.2598174
v -0.2461572 1.5448310 1.5963610
vn -1.0000000 0.0000000 0.0000000
vt 0.2442473 0.9099035
v -0.2461572 1.5101430 1.6037180
vn -1.0000000 0.0000000 0.0000000
vt 0.2404242 0.9123353
v -0.2461572 1.5654340 1.8349050
vn -1.0000000 0.0000000 0.0000000
vt 0.2573787 0.9375372
v -0.2461572 1.6012830 1.8352160
vn -1.0000000 0.0000000 0.0000000
vt 0.2617119 0.9355979
v 0.2970230 1.5448310 1.5963610
vn -0.0000000 0.9731892 -0.2300059
vt 0.4454245 0.2490878
v -0.2461572 1.5448310 1.5963610
vn -0.0000002 0.9731892 -0.2300062
vt 0.4454246 0.1904963
v -0.2461572 1.6012830 1.8352160
vn -0.0000001 0.9981370 -0.0610130
vt 0.4718992 0.1904963
v 0.2970227 1.6012830 1.8352160
vn -0.0000001 0.9981370 -0.0610133
vt 0.4718992 0.2490878
v 0.2970227 1.5872110 1.9626430
vn 1.0000000 0.0000042 0.0000019
vt 0.2687123 0.9536388
v 0.2970230 1.4104331 2.1148679
vn 1.0000000 0.0000043 0.0000081
vt 0.2547114 0.9865220
v 0.2970227 1.5228280 2.0653031
vn 1.0000000 0.0000043 0.0000030
vt 0.2679391 0.9731879
v 0.2970227 1.4311430 2.1403811
vn 1.0000000 0.0000050 0.0000083
vt 0.2580689 0.9890003
v 0.2970230 1.4104331 2.1148679
vn 0.0000001 -0.6290699 -0.7773488
vt 0.1466487 0.2807418
v -0.2461572 1.4104320 2.1148679
vn 0.0000001 -0.6290697 -0.7773489
vt 0.1111316 0.2807419
v -0.2461572 1.5872110 1.9626430
vn -1.0000000 0.0000000 0.0000000
vt 0.2687123 0.9536388
v -0.2461572 1.4104320 2.1148679
vn -1.0000000 0.0000015 0.0000081
vt 0.2547114 0.9865220
v -0.2461572 1.5228280 2.0653019
vn -1.0000000 0.0000003 0.0000008
vt 0.2679391 0.9731879
v -0.2461569 1.4311430 2.1403811
vn -1.0000000 0.0000023 0.0000078
vt 0.2580689 0.9890003
v -0.2461572 1.5872110 1.9626430
vn -0.0000001 0.9443892 0.3288299
vt 0.4857281 0.1904962
v 0.2970227 1.5872110 1.9626430
vn -0.0000005 0.9443897 0.3288284
vt 0.4857281 0.2490878
v -0.2461572 1.5228280 2.0653019
vn -0.0000002 0.7502215 0.6611866
vt 0.4987994 0.1904963
v 0.2970227 1.5228280 2.0653031
vn -0.0000008 0.7502213 0.6611869
vt 0.4987994 0.2490878
v 0.2970227 1.4311430 2.1403811
vn -0.0000003 0.4427710 0.8966347
vt 0.5115818 0.2490878
v -0.2461569 1.4311430 2.1403811
vn -0.0000000 0.4427724 0.8966340
vt 0.5115818 0.1904963
v 0.2970230 1.2791830 2.1761589
vn 1.0000000 0.0000028 0.0000025
vt 0.2408179 0.9994714
v 0.2970230 1.3063461 2.1465600
vn 1.0000000 0.0000028 0.0000033
vt 0.2426354 0.9946849
v -0.2461569 1.3063450 2.1465600
vn 0.0000003 -0.5328179 -0.8462300
vt 0.1111316 0.2878563
v 0.2970230 1.3063461 2.1465600
vn 0.0000003 -0.5328168 -0.8462306
vt 0.1466487 0.2878563
v -0.2461569 1.3063450 2.1465600
vn -1.0000000 -0.0000004 -0.0000081
vt 0.2426354 0.9946849
v -0.2461572 1.2791830 2.1761589
vn -1.0000000 -0.0000005 -0.0000100
vt 0.2408179 0.9994714
v 0.2970230 1.2791830 2.1761589
vn -0.0000000 0.2291777 0.9733846
vt 0.5284216 0.2490878
v -0.2461572 1.2791830 2.1761589
vn -0.0000001 0.2291774 0.9733847
vt 0.5284214 0.1904962
v 0.2970230 1.5448310 1.5963610
vn 0.0000001 -0.2074862 -0.9782380
vt 0.1118703 0.2753568
v 0.2970230 1.5101430 1.6037180
vn 0.0000001 -0.2074867 -0.9782379
vt 0.1118703 0.2731245
v -0.2461572 1.5101430 1.6037180
vn -0.0000006 -0.2074761 -0.9782401
vt 0.1460636 0.2731245
v -0.2461572 1.5448310 1.5963610
vn -0.0000006 -0.2074756 -0.9782402
vt 0.1460636 0.2753568
v -0.2461572 1.2791830 2.1761589
vn 0.0000005 -0.7367808 -0.6761318
vt 0.5284214 0.1904962
v -0.2461569 1.3063450 2.1465600
vn 0.0000003 -0.5328179 -0.8462300
vt 0.5327548 0.1904963
v 0.2970230 1.3063461 2.1465600
vn 0.0000003 -0.5328168 -0.8462306
vt 0.5327549 0.2490878
v 0.2970230 1.2791830 2.1761589
vn 0.0000003 -0.7367794 -0.6761333
vt 0.5284216 0.2490878
v 0.0033398 3.6081481 1.8710610
vn 0.0000000 1.0000000 0.0000000
vt 0.9152624 0.6424342
v 0.0033398 3.6081481 1.8868850
vn 0.0000000 1.0000000 0.0000000
vt 0.9152278 0.6448861
v 0.0391125 3.6081481 1.8826840
vn 0.0000000 1.0000000 0.0000000
vt 0.9207776 0.6443177
v 0.0351869 3.6081481 1.9000760
vn 0.0000000 1.0000000 0.0000000
vt 0.9201294 0.6470033
v 0.0612210 3.6081481 1.9131140
vn 0.0000000 1.0000000 0.0000000
vt 0.9241329 0.6490835
v 0.0483767 3.6081481 1.9319210
vn 0.0000000 1.0000000 0.0000000
vt 0.9220999 0.6519675
v 0.0612210 3.6081481 1.9507281
vn 0.0000000 1.0000000 0.0000000
vt 0.9240459 0.6549108
v 0.0351863 3.6081481 1.9637650
vn 0.0000000 1.0000000 0.0000000
vt 0.9199830 0.6568703
v 0.0391122 3.6081481 1.9811580
vn 0.0000000 1.0000000 0.0000000
vt 0.9205511 0.6595736
v 0.0033398 3.6081481 1.9769570
vn 0.0000000 1.0000000 0.0000000
vt 0.9150209 0.6588404
v 0.0033398 3.6081481 1.9927810
vn 0.0000000 1.0000000 0.0000000
vt 0.9149830 0.6612922
v -0.0324329 3.6081481 1.9811580
vn 0.0000000 1.0000000 0.0000000
vt 0.9094712 0.6594086
v -0.0285072 3.6081481 1.9637650
vn 0.0000000 1.0000000 0.0000000
vt 0.9101161 0.6567233
v -0.0545416 3.6081481 1.9507281
vn 0.0000000 1.0000000 0.0000000
vt 0.9061130 0.6546432
v -0.0416974 3.6081481 1.9319210
vn 0.0000000 1.0000000 0.0000000
vt 0.9081460 0.6517592
v -0.0545416 3.6081481 1.9131140
vn 0.0000000 1.0000000 0.0000000
vt 0.9062025 0.6488161
v -0.0285070 3.6081481 1.9000760
vn 0.0000000 1.0000000 0.0000000
vt 0.9102648 0.6468564
v -0.0324329 3.6081481 1.8826840
vn 0.0000000 1.0000000 0.0000000
vt 0.9096975 0.6441532
v 0.0033398 3.4881489 1.9319210
vn 0.0000003 1.0000000 0.0000012
vt 0.9151244 0.6518632
v -0.0285072 3.6081481 1.9637650
vn 0.6620247 0.3513760 -0.6620107
vt 0.9101161 0.6567233
v 0.0033398 3.6081481 1.9769570
vn -0.0000026 0.3513735 -0.9362354
vt 0.9150209 0.6588404
v 0.0033398 3.6081481 1.8868850
vn 0.0000029 0.3513719 0.9362360
vt 0.9152278 0.6448861
v -0.0285070 3.6081481 1.9000760
vn 0.6620225 0.3513742 0.6620139
vt 0.9102648 0.6468564
v -0.0416974 3.6081481 1.9319210
vn 0.9362333 0.3513791 0.0000036
vt 0.9081460 0.6517592
v 0.0351863 3.6081481 1.9637650
vn -0.6620244 0.3513734 -0.6620123
vt 0.9199830 0.6568703
v 0.0351869 3.6081481 1.9000760
vn -0.6620259 0.3513763 0.6620094
vt 0.9201294 0.6470033
v 0.0483767 3.6081481 1.9319210
vn -0.9362341 0.3513769 -0.0000082
vt 0.9220999 0.6519675
v 0.0033398 3.5317681 1.8710470
vn 0.0000000 -1.0000000 0.0000000
vt 0.9152624 0.6424342
v 0.0391208 3.5317681 1.8826730
vn 0.0000000 -1.0000000 0.0000000
vt 0.9207776 0.6443177
v 0.0033395 3.5317681 1.8868990
vn 0.0000000 -1.0000000 0.0000000
vt 0.9152278 0.6448861
v 0.0351866 3.5317681 1.9000900
vn 0.0000000 -1.0000000 0.0000000
vt 0.9201295 0.6470033
v 0.0612344 3.5317681 1.9131100
vn 0.0000000 -1.0000000 0.0000000
vt 0.9241329 0.6490835
v 0.0483764 3.5317681 1.9319350
vn 0.0000000 -1.0000000 0.0000000
vt 0.9220998 0.6519675
v 0.0612344 3.5317681 1.9507320
vn 0.0000000 -1.0000000 0.0000000
vt 0.9240459 0.6549108
v 0.0351860 3.5317681 1.9637800
vn 0.0000000 -1.0000000 0.0000000
vt 0.9199831 0.6568703
v 0.0391208 3.5317681 1.9811690
vn 0.0000000 -1.0000000 0.0000000
vt 0.9205511 0.6595736
v 0.0033395 3.5317681 1.9769720
vn 0.0000000 -1.0000000 0.0000000
vt 0.9150209 0.6588404
v 0.0033395 3.5317681 1.9927950
vn 0.0000000 -1.0000000 0.0000000
vt 0.9149830 0.6612922
v -0.0324411 3.5317681 1.9811690
vn 0.0000000 -1.0000000 0.0000000
vt 0.9094712 0.6594086
v -0.0285075 3.5317681 1.9637800
vn 0.0000000 -1.0000000 0.0000000
vt 0.9101160 0.6567233
v -0.0545551 3.5317681 1.9507320
vn 0.0000000 -1.0000000 0.0000000
vt 0.9061130 0.6546432
v -0.0416978 3.5317681 1.9319350
vn 0.0000000 -1.0000000 0.0000000
vt 0.9081460 0.6517592
v -0.0545551 3.5317681 1.9131100
vn 0.0000000 -1.0000000 0.0000000
vt 0.9062025 0.6488161
v -0.0285073 3.5317681 1.9000900
vn 0.0000000 -1.0000000 0.0000000
vt 0.9102649 0.6468564
v -0.0324414 3.5317681 1.8826730
vn 0.0000000 -1.0000000 0.0000000
vt 0.9096975 0.6441532
v 0.0033398 3.4881489 1.9319210
vn 0.0000003 1.0000000 0.0000012
vt 0.9151244 0.6518632
v 0.0033398 3.4881489 1.9319210
vn 0.0000003 1.0000000 0.0000012
vt 0.9151244 0.6518632
v 0.0033398 3.4881489 1.9319210
vn 0.0000003 1.0000000 0.0000012
vt 0.9151244 0.6518632
v 0.0033398 3.4881489 1.9319210
vn 0.0000003 1.0000000 0.0000012
vt 0.9151244 0.6518632

g group_118_140627885632944
f 1/1/1 2/2/2 3/3/3 
f 3/3/3 4/4/4 1/1/1 
f 4/4/4 3/3/3 5/5/5 
f 5/5/5 6/6/6 4/4/4 
f 6/6/6 5/5/5 7/7/7 
f 7/7/7 8/8/8 6/6/6 
f 9/9/9 8/8/8 7/7/7 
f 7/7/7 10/10/10 9/9/9 
f 11/11/11 9/9/9 10/10/10 
f 10/10/10 12/12/12 11/11/11 
f 13/13/13 11/11/11 12/12/12 
f 12/12/12 14/14/14 13/13/13 
f 13/13/13 14/14/14 15/15/15 
f 15/15/15 16/16/16 13/13/13 
f 16/16/16 15/15/15 17/17/17 
f 17/17/17 18/18/18 16/16/16 
f 19/19/19 20/20/20 21/21/21 
f 21/21/21 22/22/22 19/19/19 
f 1/1/1 22/22/22 21/21/21 
f 21/21/21 2/2/2 1/1/1 
f 23/23/23 24/24/24 25/25/25 
f 25/25/25 26/26/26 23/23/23 
f 26/26/26 25/25/25 27/27/27 
f 27/27/27 28/28/28 26/26/26 
f 28/28/28 27/27/27 29/29/29 
f 29/29/29 30/30/30 28/28/28 
f 30/30/30 29/29/29 31/31/31 
f 31/31/31 32/32/32 30/30/30 
f 32/32/32 31/31/31 33/33/33 
f 33/33/33 34/34/34 32/32/32 
f 34/34/34 33/33/33 35/35/35 
f 35/35/35 36/36/36 34/34/34 
f 36/36/36 35/35/35 37/37/37 
f 37/37/37 38/38/38 36/36/36 
f 38/38/38 37/37/37 39/39/39 
f 39/39/39 40/40/40 38/38/38 
f 41/41/41 42/42/42 43/43/43 
f 43/43/43 44/44/44 41/41/41 
f 44/44/44 43/43/43 24/24/24 
f 24/24/24 23/23/23 44/44/44 
f 45/45/45 46/46/46 47/47/47 
f 47/47/47 48/48/48 45/45/45 
f 49/49/49 50/50/50 51/51/51 
f 51/51/51 52/52/52 49/49/49 
f 53/53/53 54/54/54 55/55/55 
f 55/55/55 56/56/56 53/53/53 
f 57/57/57 58/58/58 59/59/59 
f 59/59/59 60/60/60 57/57/57 
f 61/61/61 62/62/62 63/63/63 
f 63/63/63 64/64/64 61/61/61 
f 65/65/65 66/66/66 67/67/67 
f 67/67/67 68/68/68 65/65/65 
f 69/69/69 70/70/70 71/71/71 
f 71/71/71 72/72/72 69/69/69 
f 73/73/73 66/66/66 65/65/65 
f 65/65/65 74/74/74 73/73/73 
f 68/68/68 67/67/67 75/75/75 
f 75/75/75 76/76/76 68/68/68 
f 64/64/64 73/73/73 74/74/74 
f 74/74/74 61/61/61 64/64/64 
f 76/76/76 75/75/75 77/77/77 
f 77/77/77 78/78/78 76/76/76 
f 70/70/70 79/79/79 80/80/80 
f 80/80/80 71/71/71 70/70/70 
f 79/79/79 81/81/81 80/80/80 
f 82/82/82 83/83/83 84/84/84 
f 84/84/84 85/85/85 82/82/82 
f 86/86/86 87/87/87 88/88/88 
f 88/88/88 89/89/89 86/86/86 
f 90/90/90 91/91/91 92/92/92 
f 92/92/92 93/93/93 90/90/90 
f 94/94/94 95/95/95 96/96/96 
f 96/96/96 97/97/97 94/94/94 
f 84/84/84 83/83/83 98/98/98 
f 98/98/98 99/99/99 84/84/84 
f 99/99/99 98/98/98 100/100/100 
f 100/100/100 101/101/101 99/99/99 
f 102/102/102 103/103/103 89/89/89 
f 89/89/89 88/88/88 102/102/102 
f 104/104/104 93/93/93 92/92/92 
f 92/92/92 105/105/105 104/104/104 
f 106/106/106 104/104/104 105/105/105 
f 105/105/105 107/107/107 106/106/106 
f 97/97/97 96/96/96 108/108/108 
f 108/108/108 109/109/109 97/97/97 
f 109/109/109 108/108/108 110/110/110 
f 110/110/110 111/111/111 109/109/109 
f 112/112/112 111/111/111 110/110/110 
f 110/110/110 113/113/113 112/112/112 
f 101/101/101 114/114/114 115/115/115 
f 115/115/115 99/99/99 101/101/101 
f 116/116/116 103/103/103 102/102/102 
f 102/102/102 117/117/117 116/116/116 
f 107/107/107 105/105/105 118/118/118 
f 118/118/118 119/119/119 107/107/107 
f 120/120/120 112/112/112 113/113/113 
f 113/113/113 121/121/121 120/120/120 
f 122/122/122 123/123/123 124/124/124 
f 124/124/124 125/125/125 122/122/122 
f 126/126/126 127/127/127 128/128/128 
f 128/128/128 129/129/129 126/126/126 
f 130/130/130 131/131/131 132/132/132 
f 132/132/132 131/131/131 133/133/133 
f 132/132/132 133/133/133 134/134/134 
f 133/133/133 135/135/135 134/134/134 
f 134/134/134 135/135/135 136/136/136 
f 135/135/135 137/137/137 136/136/136 
f 136/136/136 137/137/137 138/138/138 
f 137/137/137 139/139/139 138/138/138 
f 139/139/139 140/140/140 138/138/138 
f 139/139/139 141/141/141 140/140/140 
f 142/142/142 141/141/141 139/139/139 
f 143/143/143 141/141/141 142/142/142 
f 144/144/144 143/143/143 142/142/142 
f 145/145/145 143/143/143 144/144/144 
f 146/146/146 145/145/145 144/144/144 
f 147/147/147 145/145/145 146/146/146 
f 130/130/130 147/147/147 131/131/131 
f 147/147/147 146/146/146 131/131/131 
f 148/148/148 149/149/149 150/150/150 
f 151/151/151 152/152/152 175/175/175 
f 152/152/152 153/153/153 176/176/176 
f 153/153/153 149/149/149 148/148/148 
f 177/177/177 150/150/150 154/154/154 
f 151/151/151 175/175/175 155/155/155 
f 155/155/155 178/178/178 156/156/156 
f 177/177/177 154/154/154 156/156/156 
f 157/157/157 158/158/158 159/159/159 
f 158/158/158 160/160/160 159/159/159 
f 158/158/158 161/161/161 160/160/160 
f 160/160/160 161/161/161 162/162/162 
f 161/161/161 163/163/163 162/162/162 
f 162/162/162 163/163/163 164/164/164 
f 163/163/163 165/165/165 164/164/164 
f 164/164/164 165/165/165 166/166/166 
f 166/166/166 165/165/165 167/167/167 
f 166/166/166 167/167/167 168/168/168 
f 169/169/169 166/166/166 168/168/168 
f 170/170/170 169/169/169 168/168/168 
f 171/171/171 169/169/169 170/170/170 
f 172/172/172 171/171/171 170/170/170 
f 173/173/173 171/171/171 172/172/172 
f 174/174/174 173/173/173 172/172/172 
f 157/157/157 159/159/159 174/174/174 
f 174/174/174 159/159/159 173/173/173 
