v -1.0728935 -0.2963812 0.9319550
vn 0.0063403 0.7380595 -0.6747058
vt 0.0022490 0.8117070
v -1.3542129 -0.3044475 0.9231052
vn -0.0043253 0.7031471 -0.7110313
vt 0.0293010 0.8106180
v -1.3542129 -0.2624494 1.0081284
vn -0.0058612 0.9999828 -0.0000725
vt 0.0293010 0.8197290
v -1.0728935 -0.2624494 1.0088532
vn 0.0009453 0.9997660 0.0216098
vt 0.0022500 0.8197910
v -1.0728935 -0.3902014 0.8811011
vn 0.0062084 0.0197136 -0.9997864
vt 0.0022500 0.8014420
v -1.3542129 -0.3902014 0.8811011
vn -0.0010192 0.0006934 -0.9999992
vt 0.0293010 0.8014450
v -1.0728935 -0.4759486 0.9223813
vn -0.0008495 -0.7060949 -0.7081168
vt 0.0022500 0.8657180
v -1.3542129 -0.4759486 0.9231052
vn -0.0008671 -0.7066752 -0.7075376
vt 0.0293010 0.8656820
v -1.3542129 -0.3902014 0.8811011
vn -0.0010192 0.0006934 -0.9999992
vt 0.0293010 0.8748670
v -1.0728935 -0.3902014 0.8811011
vn 0.0062084 0.0197136 -0.9997864
vt 0.0022500 0.8748670
v -1.0728935 -0.5179534 1.0088532
vn -0.0009991 -0.9999955 0.0027903
vt 0.0022500 0.8564740
v -1.3542129 -0.5179534 1.0081284
vn 0.0008362 -0.9999935 -0.0035009
vt 0.0293010 0.8565620
v -1.0728935 -0.4759486 1.0941242
vn 0.0004207 -0.7084967 0.7057140
vt 0.0022500 0.8473370
v -1.3542129 -0.4759486 1.0946079
vn 0.0005671 -0.7084245 0.7057864
vt 0.0293010 0.8473200
v -1.0728935 -0.3902013 1.1366060
vn 0.0006810 0.0016129 0.9999985
vt 0.0022500 0.8381320
v -1.3542129 -0.3902013 1.1366060
vn 0.0010278 0.0007004 0.9999992
vt 0.0293010 0.8381440
v -1.3542129 -0.3044475 0.9231052
vn -1.0000000 0.0000000 0.0000000
vt 0.5540040 0.9772490
v -1.3542129 -0.5179534 1.0081284
vn -1.0000000 0.0000000 0.0000000
vt 0.5745340 0.9854240
v -1.3542129 -0.2624494 1.0081284
vn -1.0000000 0.0000000 0.0000000
vt 0.5499680 0.9854240
v -1.3542129 -0.4759486 0.9231052
vn -1.0000000 0.0000000 0.0000000
vt 0.5704950 0.9772490
v -1.3542129 -0.3902014 0.8811011
vn -1.0000000 0.0000000 0.0000000
vt 0.5622530 0.9732100
v -1.3542129 -0.3902013 1.1366060
vn -1.0000000 0.0000000 0.0000000
vt 0.5622520 0.9977790
v -1.3542129 -0.4759486 1.0946079
vn -1.0000000 0.0000000 0.0000000
vt 0.5704950 0.9937400
v -1.3542129 -0.3044475 1.0946079
vn 0.0008894 0.7075208 0.7066919
vt 0.0293010 0.8289690
v -1.0728935 -0.3044475 1.0938773
vn 0.0008641 0.7080914 0.7061203
vt 0.0022500 0.8289140
v -1.3542129 -0.3044475 1.0946079
vn -1.0000000 0.0000000 0.0000000
vt 0.5540040 0.9937400

g group_68_105553122428672
f 1/1/1 2/2/2 3/3/3 
f 3/3/3 4/4/4 1/1/1 
f 5/5/5 6/6/6 2/2/2 
f 2/2/2 1/1/1 5/5/5 
f 7/7/7 8/8/8 9/9/9 
f 9/9/9 10/10/10 7/7/7 
f 11/11/11 12/12/12 8/8/8 
f 8/8/8 7/7/7 11/11/11 
f 13/13/13 14/14/14 12/12/12 
f 12/12/12 11/11/11 13/13/13 
f 15/15/15 16/16/16 14/14/14 
f 14/14/14 13/13/13 15/15/15 
f 17/17/17 18/18/18 19/19/19 
f 20/20/20 18/18/18 21/21/21 
f 22/22/22 18/18/18 23/23/23 
f 4/4/4 3/3/3 24/24/24 
f 24/24/24 25/25/25 4/4/4 
f 19/19/19 18/18/18 26/26/26 
f 25/25/25 24/24/24 16/16/16 
f 16/16/16 15/15/15 25/25/25 
f 26/26/26 18/18/18 22/22/22 
f 21/21/21 18/18/18 17/17/17 
