v 1.0435336 1.8261458 0.0549782
vn -0.9999964 0.0005897 -0.0026437
vt 0.8397959 -0.8318117
v 1.0435336 2.7233887 0.4197097
vn -0.9999964 0.0012791 -0.0023148
vt 0.8372309 0.0740979
v 1.0436749 2.7498045 0.3731880
vn -0.9999965 0.0012834 -0.0023129
vt 0.8072634 0.0800274
v 1.0436749 1.8261458 0.0015749
vn -0.9999964 0.0004586 -0.0026464
vt 0.7934204 -0.8357117
v 1.3835727 1.8261458 0.0549782
vn -0.0000001 -0.1918528 0.9814237
vt 0.4989998 -0.8353126
v 1.3835727 2.7233887 0.4197097
vn 0.0000000 -0.4830714 0.8755811
vt 0.4989997 0.0755323
v 1.0435336 2.7233887 0.4197097
vn -0.0000000 -0.4830714 0.8755811
vt 0.2529647 0.0755323
v 1.0435336 1.8261458 0.0549782
vn -0.0000001 -0.1918530 0.9814237
vt 0.2529648 -0.8353124
v 1.0436749 1.8261458 0.0015749
vn -0.0000003 0.1900916 -0.9817663
vt 0.2471603 -0.8357527
v 1.0436749 2.7498045 0.3731880
vn -0.0000000 0.4830578 -0.8755884
vt 0.2471603 0.0804071
v 1.3834910 2.7498045 0.3731880
vn -0.0000001 0.4830578 -0.8755884
vt 0.0059504 0.0804071
v 1.3834910 1.8261458 0.0015749
vn -0.0000003 0.1900919 -0.9817663
vt 0.0059503 -0.8357525
v 1.3834910 1.8261458 0.0015749
vn 0.9999988 0.0002650 -0.0015171
vt 0.5429029 -0.8324096
v 1.3834910 2.7498045 0.3731880
vn 0.9999989 0.0007327 -0.0013297
vt 0.5454085 0.0791595
v 1.3835727 2.7233887 0.4197097
vn 0.9999989 0.0007294 -0.0013314
vt 0.4986570 0.0751522
v 1.3835727 1.8261458 0.0549782
vn 0.9999988 0.0003425 -0.0015190
vt 0.5122405 -0.8352385
v 1.0435336 -2.7238955 0.3391985
vn -0.9999962 -0.0012904 -0.0024370
vt 0.8397958 -5.1049490
v 1.0435336 -1.8364961 0.0549780
vn -0.9999964 -0.0004619 -0.0026464
vt 0.8327459 -4.2304549
v 1.0436749 -1.8364969 0.0015747
vn -0.9999964 -0.0003772 -0.0026452
vt 0.8008603 -4.2324991
v 1.0436749 -2.7396412 0.2895636
vn -0.9999962 -0.0011960 -0.0024576
vt 0.8007941 -5.1049490
v 1.3835727 -2.7238955 0.3391985
vn -0.0000000 0.4499452 0.8930561
vt 0.4990001 -5.1049490
v 1.3835727 -1.8364961 0.0549779
vn -0.0000001 0.1543608 0.9880145
vt 0.4990000 -4.2304578
v 1.0435336 -1.8364961 0.0549780
vn -0.0000001 0.1543611 0.9880145
vt 0.2529650 -4.2304578
v 1.0435336 -2.7238955 0.3391985
vn 0.0006717 0.4510928 0.8924768
vt 0.2529651 -5.1049490
v 1.0436749 -2.7396412 0.2895636
vn 0.0000001 -0.4469090 -0.8945794
vt 0.2471599 -5.1049490
v 1.0436749 -1.8364969 0.0015747
vn -0.0000000 -0.1537283 -0.9881132
vt 0.2471601 -4.2299600
v 1.3834910 -1.8364961 0.0015746
vn -0.0000000 -0.1537282 -0.9881132
vt 0.0059502 -4.2299609
v 1.3834910 -2.7396412 0.2895637
vn 0.0000001 -0.4469090 -0.8945794
vt 0.0059499 -5.1049490
v 1.3834910 -2.7396412 0.2895637
vn 0.9999988 -0.0006857 -0.0014176
vt 0.5429029 -5.1049490
v 1.3834910 -1.8364961 0.0015746
vn 0.9999988 -0.0002158 -0.0015190
vt 0.5497285 -4.2299910
v 1.3835727 -1.8364961 0.0549779
vn 0.9999988 -0.0002638 -0.0015184
vt 0.5049554 -4.2330189
v 1.3835727 -2.7238955 0.3391985
vn 0.9999988 -0.0007325 -0.0013992
vt 0.5050201 -5.1049490
v 1.2327888 1.9329123 0.0818554
vn 0.9742997 -0.0886412 0.2070822
vt 0.8458303 -0.7165043
v 1.2327888 2.7233880 0.4197102
vn 0.9745651 -0.0880765 0.2060717
vt 0.8435307 0.0741723
v 1.2130971 2.6808338 0.4946529
vn 0.9745476 -0.0881137 0.2061381
vt 0.9112826 0.0646006
v 1.2130971 1.9107397 0.1649774
vn 0.9742790 -0.0886850 0.2071605
vt 0.9052363 -0.7165046
v 1.0435336 -2.8638914 0.4406587
vn -0.9999964 -0.0020098 -0.0017812
vt 0.8397958 -5.2644358
v 1.0436749 -2.9039271 0.4063368
vn -0.9999964 -0.0020137 -0.0017702
vt 0.8007941 -5.2644358
v 1.3835727 -2.8663542 0.4416441
vn 0.0029059 0.7558612 0.6547254
vt 0.4990001 -5.2644358
v 1.0435336 -2.8638914 0.4406587
vn 0.0017412 0.7530552 0.6579551
vt 0.2529651 -5.2644358
v 1.0436749 -2.9039271 0.4063368
vn 0.0000003 -0.7507602 -0.6605749
vt 0.2471599 -5.2644358
v 1.3834910 -2.9039271 0.4063368
vn 0.0000002 -0.7507600 -0.6605751
vt 0.0059499 -5.2644358
v 1.3834910 -2.9039271 0.4063368
vn 0.9999988 -0.0011819 -0.0010442
vt 0.5429029 -5.2644358
v 1.3835727 -2.8663542 0.4416441
vn 0.9999988 -0.0011900 -0.0010266
vt 0.5050201 -5.2644358
v 1.0435336 -2.9447575 0.5909901
vn -0.9999964 -0.0026611 -0.0004316
vt 0.8397958 -5.4198761
v 1.0436749 -2.9957237 0.5783104
vn -0.9999964 -0.0026403 -0.0005048
vt 0.8007941 -5.4198761
v 1.3835727 -2.9447575 0.5909898
vn 0.0018721 0.9844515 0.1756466
vt 0.4990001 -5.4198761
v 1.0435336 -2.9447575 0.5909901
vn -0.0000000 0.9838231 0.1791427
vt 0.2529651 -5.4198761
v 1.0436749 -2.9957237 0.5783104
vn 0.0000001 -0.9836508 -0.1800860
vt 0.2471599 -5.4198761
v 1.3834910 -2.9957237 0.5783105
vn 0.0000001 -0.9836508 -0.1800860
vt 0.0059499 -5.4198761
v 1.3834910 -2.9957237 0.5783105
vn 0.9999988 -0.0015234 -0.0002902
vt 0.5429029 -5.4198761
v 1.3835727 -2.9447575 0.5909898
vn 0.9999988 -0.0015281 -0.0002459
vt 0.5050201 -5.4198761
v 1.0435336 -2.9200792 0.7750384
vn -0.9999962 -0.0025413 0.0009895
vt 0.8397957 -5.5909181
v 1.0436749 -2.9677205 0.7956197
vn -0.9999962 -0.0025267 0.0010125
vt 0.8007941 -5.5909181
v 1.3835727 -2.9200792 0.7750384
vn -0.0000004 0.9287683 -0.3706609
vt 0.4990001 -5.5909181
v 1.0435336 -2.9200792 0.7750384
vn 0.0000281 0.9287510 -0.3707042
vt 0.2529651 -5.5909181
v 1.0436749 -2.9677205 0.7956197
vn -0.0000001 -0.9297372 0.3682235
vt 0.2471599 -5.5909181
v 1.3834910 -2.9677205 0.7956198
vn -0.0000264 -0.9297513 0.3681880
vt 0.0059499 -5.5909181
v 1.3834910 -2.9677205 0.7956198
vn 0.9999988 -0.0014531 0.0005849
vt 0.5429029 -5.5909181
v 1.3835727 -2.9200792 0.7750384
vn 0.9999988 -0.0014558 0.0005713
vt 0.5050201 -5.5909181
v 1.0435336 -2.8027177 0.9372619
vn -0.9999964 -0.0015959 0.0021408
vt 0.8397957 -5.7818770
v 1.0436749 -2.8350015 0.9791697
vn -0.9999964 -0.0016026 0.0021231
vt 0.8007941 -5.7818770
v 1.3835727 -2.8027968 0.9372014
vn -0.0000323 0.6003457 -0.7997406
vt 0.4990001 -5.7818770
v 1.0435336 -2.8027177 0.9372619
vn 0.0000272 0.6001822 -0.7998633
vt 0.2529651 -5.7818770
v 1.0436749 -2.8350015 0.9791697
vn 0.0000302 -0.6043356 0.7967299
vt 0.2471598 -5.7818770
v 1.3834910 -2.8350799 0.9791091
vn -0.0000246 -0.6044837 0.7966175
vt 0.0059499 -5.7818770
v 1.3834910 -2.8350799 0.9791091
vn 0.9999988 -0.0009282 0.0012208
vt 0.5429029 -5.7818770
v 1.3835727 -2.8027968 0.9372014
vn 0.9999988 -0.0009211 0.0012206
vt 0.5050201 -5.7818770
v 1.0435336 -2.6059873 1.0075212
vn -0.9999964 -0.0005242 0.0026196
vt 0.8400247 -5.9657331
v 1.0436749 -2.6178391 1.0592208
vn -0.9999964 -0.0005369 0.0026084
vt 0.8125485 -5.9531288
v 1.3835727 -2.6059873 1.0075212
vn -0.0000296 0.1946544 -0.9808719
vt 0.4990004 -5.9631009
v 1.0435336 -2.6059873 1.0075212
vn -0.0000002 0.1946078 -0.9808812
vt 0.2529655 -5.9631510
v 1.0436749 -2.6178391 1.0592208
vn 0.0000287 -0.1997050 0.9798561
vt 0.2471595 -5.9531279
v 1.3834910 -2.6178391 1.0592198
vn 0.0000014 -0.1997437 0.9798482
vt 0.0059495 -5.9530921
v 1.3834910 -2.6178391 1.0592198
vn 0.9999989 -0.0003039 0.0015048
vt 0.5426806 -5.9553971
v 1.3835727 -2.6059873 1.0075212
vn 0.9999988 -0.0002933 0.0015018
vt 0.4938560 -5.9630990
v 1.2130690 2.5526030 1.1730741
vn -0.9747002 0.0108803 -0.2232513
vt 0.9052289 1.2251550
v 1.2130971 -2.5868969 0.9242507
vn -0.9736609 0.0110202 -0.2277343
vt 0.8984784 6.0111041
v 1.1934046 -2.6059873 1.0075203
vn -0.9736738 0.0110185 -0.2276792
vt 0.8311587 6.0285139
v 1.1934046 2.5551333 1.2590691
vn -0.9747108 0.0108788 -0.2232052
vt 0.8458222 1.2251550
v 1.2327888 2.5551333 1.2590691
vn 0.9745621 0.0108438 -0.2238550
vt 0.8458268 1.2251550
v 1.2327888 -2.6059873 1.0075203
vn 0.9736641 0.0110987 -0.2277171
vt 0.8399118 6.0260029
v 1.2130971 -2.5868969 0.9242507
vn 0.9736730 0.0110962 -0.2276788
vt 0.8897242 6.0134091
v 1.2130690 2.5526030 1.1730741
vn 0.9745723 0.0108409 -0.2238112
vt 0.9052329 1.2251550
v 1.0435336 2.5551333 1.2590700
vn -0.9999964 0.0002706 0.0026396
vt 0.8397959 1.2251550
v 1.0435336 -2.6059873 1.0075212
vn -0.9999964 -0.0005242 0.0026196
vt 0.8332040 6.0260019
v 1.0436749 -2.6178391 1.0592208
vn -0.9999964 -0.0005369 0.0026084
vt 0.7879285 6.0371480
v 1.0436749 2.5567048 1.3124523
vn -0.9999964 0.0002397 0.0026458
vt 0.8007943 1.2251550
v 1.3835727 2.5551333 1.2590700
vn 0.0000008 -0.0951718 -0.9954609
vt 0.4989999 1.2251550
v 1.3835727 -2.6059873 1.0075212
vn -0.0000296 0.1946544 -0.9808719
vt 0.4989997 6.0260530
v 1.0435336 -2.6059873 1.0075212
vn -0.0000002 0.1946078 -0.9808812
vt 0.2529649 6.0260530
v 1.0435336 2.5551333 1.2590700
vn 0.0000003 -0.0951713 -0.9954609
vt 0.2529649 1.2251550
v 1.0436749 2.5567048 1.3124523
vn -0.0000004 0.0981660 0.9951700
vt 0.2471602 1.2251550
v 1.0436749 -2.6178391 1.0592208
vn 0.0000287 -0.1997050 0.9798561
vt 0.2471604 6.0352969
v 1.3834910 -2.6178391 1.0592198
vn 0.0000014 -0.1997437 0.9798482
vt 0.0059504 6.0352969
v 1.3834910 2.5567048 1.3124523
vn -0.0000005 0.0981658 0.9951701
vt 0.0059502 1.2251550
v 1.3834910 2.5567048 1.3124523
vn 0.9999988 0.0001410 0.0015156
vt 0.5429028 1.2251550
v 1.3834910 -2.6178391 1.0592198
vn 0.9999989 -0.0003039 0.0015048
vt 0.5487243 6.0352359
v 1.3835727 -2.6059873 1.0075212
vn 0.9999988 -0.0002933 0.0015018
vt 0.5190346 6.0280008
v 1.3835727 2.5551333 1.2590700
vn 0.9999988 0.0001608 0.0015177
vt 0.5050201 1.2251550
v 1.0435336 2.9039030 0.5491866
vn -0.9999965 0.0020781 -0.0016499
vt 0.8397961 0.2835588
v 1.0436749 2.9430821 0.5128631
vn -0.9999965 0.0020357 -0.0016901
vt 0.8007944 0.2835588
v 1.3835727 2.9039030 0.5491866
vn 0.0000001 -0.7743673 0.6327364
vt 0.4989997 0.2835588
v 1.0435336 2.9039030 0.5491866
vn 0.0000000 -0.7743675 0.6327361
vt 0.2529647 0.2835588
v 1.0436749 2.9430821 0.5128631
vn 0.0000000 0.7756189 -0.6312015
vt 0.2471603 0.2835588
v 1.3834910 2.9430821 0.5128631
vn -0.0000000 0.7756189 -0.6312015
vt 0.0059504 0.2835588
v 1.3834910 2.9430821 0.5128631
vn 0.9999988 0.0011713 -0.0009703
vt 0.5429028 0.2835588
v 1.3835727 2.9039030 0.5491866
vn 0.9999989 0.0011930 -0.0009442
vt 0.5050201 0.2835588
v 1.0435336 3.0070519 0.7791839
vn -0.9999965 0.0026334 -0.0003225
vt 0.8397961 0.5218692
v 1.0436749 3.0602453 0.7743916
vn -0.9999964 0.0026318 -0.0002936
vt 0.8007944 0.5218692
v 1.3835727 3.0070519 0.7791839
vn 0.0000008 -0.9931183 0.1171151
vt 0.4989997 0.5218692
v 1.0435336 3.0070519 0.7791839
vn 0.0000004 -0.9931184 0.1171149
vt 0.2529647 0.5218692
v 1.0436749 3.0602453 0.7743916
vn 0.0000000 0.9934387 -0.1143667
vt 0.2471604 0.5218692
v 1.3834910 3.0602453 0.7743916
vn 0.0000000 0.9934387 -0.1143667
vt 0.0059505 0.5218692
v 1.3834910 3.0602453 0.7743916
vn 0.9999989 0.0015125 -0.0001712
vt 0.5429028 0.5218692
v 1.3835727 3.0070519 0.7791839
vn 0.9999989 0.0015079 -0.0001887
vt 0.5050201 0.5218692
v 1.0435336 2.9589150 1.0338475
vn -0.9999964 0.0023666 0.0012024
vt 0.8397961 0.7653098
v 1.0436749 3.0043750 1.0618780
vn -0.9999965 0.0023253 0.0012617
vt 0.8007944 0.7658877
v 1.3835727 2.9589150 1.0338483
vn 0.0000009 -0.8834476 -0.4685299
vt 0.4989997 0.7652745
v 1.0435336 2.9589150 1.0338475
vn 0.0000014 -0.8834481 -0.4685291
vt 0.2529647 0.7652745
v 1.0436749 3.0043750 1.0618780
vn -0.0000001 0.8824748 0.4703597
vt 0.2471604 0.7658892
v 1.3834910 3.0043750 1.0618780
vn 0.0000000 0.8824748 0.4703595
vt 0.0059505 0.7658892
v 1.3834910 3.0043750 1.0618780
vn 0.9999988 0.0013349 0.0007280
vt 0.5429028 0.7658877
v 1.3835727 2.9589150 1.0338483
vn 0.9999989 0.0013538 0.0006942
vt 0.5050201 0.7653098
v 1.0435336 2.7899723 1.2017672
vn -0.9999964 0.0012726 0.0023212
vt 0.8397961 0.9904246
v 1.0436749 2.8186967 1.2467955
vn -0.9999965 0.0013197 0.0022979
vt 0.8007944 0.9896097
v 1.3835727 2.7899723 1.2017672
vn -0.0000003 -0.4889154 -0.8723313
vt 0.4989997 0.9903889
v 1.0435336 2.7899723 1.2017672
vn -0.0000000 -0.4889155 -0.8723312
vt 0.2529647 0.9903889
v 1.0436749 2.8186967 1.2467955
vn -0.0000003 0.4920540 0.8705647
vt 0.2471604 0.9896102
v 1.3834910 2.8186967 1.2467955
vn -0.0000002 0.4920542 0.8705646
vt 0.0059505 0.9896102
v 1.3834910 2.8186967 1.2467955
vn 0.9999988 0.0007533 0.0013170
vt 0.5429028 0.9896097
v 1.3835727 2.7899723 1.2017672
vn 0.9999988 0.0007279 0.0013377
vt 0.5050201 0.9904246
v 1.2130971 -1.7657974 0.1410075
vn -0.9747876 -0.0000000 0.2231346
vt 0.9052270 -4.1713290
v 1.2130971 1.7718714 0.1410075
vn -0.9747874 0.0000000 0.2231354
vt 0.9052297 -0.8843169
v 1.1934046 1.7718714 0.0549790
vn -0.9747874 0.0000000 0.2231353
vt 0.8458230 -0.8843169
v 1.1934046 -1.7718256 0.0549787
vn -0.9747877 -0.0000000 0.2231345
vt 0.8458201 -4.1713290
v 1.2327888 -1.7718256 0.0549787
vn 0.9747879 0.0000000 0.2231335
vt 0.8458203 -4.1713290
v 1.2327888 1.7718714 0.0549790
vn 0.9747874 -0.0000000 0.2231354
vt 0.8458298 -0.8843167
v 1.2130971 1.7718714 0.1410075
vn 0.9747874 -0.0000000 0.2231353
vt 0.9052358 -0.8843169
v 1.2130971 -1.7657974 0.1410075
vn 0.9747879 0.0000000 0.2231335
vt 0.9052265 -4.1713290
v 1.2130971 1.9107397 0.1649774
vn -0.9743004 -0.0885349 0.2071239
vt 0.9052299 -0.7165046
v 1.2130971 2.6808338 0.4946529
vn -0.9745682 -0.0881913 0.2060073
vt 0.9029501 0.0631727
v 1.1934046 2.7233880 0.4197102
vn -0.9745482 -0.0882170 0.2060909
vt 0.8517032 0.0751724
v 1.1934046 1.9329123 0.0818553
vn -0.9742831 -0.0885569 0.2071957
vt 0.8458232 -0.7165046
v 1.2130971 -2.6820798 0.4121159
vn -0.9723390 0.0725396 0.2220243
vt 0.9052262 -5.1049490
v 1.2130971 -1.9021565 0.1519405
vn -0.9688109 0.0784162 0.2350671
vt 0.9052268 -4.3488822
v 1.1934046 -1.9426829 0.0842986
vn -0.9690359 0.0780521 0.2342594
vt 0.8458200 -4.3488822
v 1.1934046 -2.7238955 0.3391991
vn -0.9725408 0.0721920 0.2212524
vt 0.8458194 -5.1049490
v 1.2327888 -2.7238955 0.3391992
vn 0.9723529 0.0737891 0.2215516
vt 0.8458176 -5.1049490
v 1.2327888 -1.9426829 0.0842986
vn 0.9687228 0.0769730 0.2359050
vt 0.8458198 -4.3488822
v 1.2130971 -1.9021565 0.1519405
vn 0.9690196 0.0767205 0.2347658
vt 0.9052261 -4.3488822
v 1.2130971 -2.6820798 0.4121159
vn 0.9726121 0.0735533 0.2204897
vt 0.9052238 -5.1049490

g group_44_105553120453120
f 1/1/1 2/2/2 3/3/3 
f 3/3/3 4/4/4 1/1/1 
f 5/5/5 6/6/6 7/7/7 
f 7/7/7 8/8/8 5/5/5 
f 9/9/9 10/10/10 11/11/11 
f 11/11/11 12/12/12 9/9/9 
f 13/13/13 14/14/14 15/15/15 
f 15/15/15 16/16/16 13/13/13 
f 17/17/17 18/18/18 19/19/19 
f 19/19/19 20/20/20 17/17/17 
f 21/21/21 22/22/22 23/23/23 
f 23/23/23 24/24/24 21/21/21 
f 25/25/25 26/26/26 27/27/27 
f 27/27/27 28/28/28 25/25/25 
f 29/29/29 30/30/30 31/31/31 
f 31/31/31 32/32/32 29/29/29 
f 33/33/33 34/34/34 35/35/35 
f 35/35/35 36/36/36 33/33/33 
f 37/37/37 17/17/17 20/20/20 
f 20/20/20 38/38/38 37/37/37 
f 39/39/39 21/21/21 24/24/24 
f 24/24/24 40/40/40 39/39/39 
f 41/41/41 25/25/25 28/28/28 
f 28/28/28 42/42/42 41/41/41 
f 43/43/43 29/29/29 32/32/32 
f 32/32/32 44/44/44 43/43/43 
f 45/45/45 37/37/37 38/38/38 
f 38/38/38 46/46/46 45/45/45 
f 47/47/47 39/39/39 40/40/40 
f 40/40/40 48/48/48 47/47/47 
f 49/49/49 41/41/41 42/42/42 
f 42/42/42 50/50/50 49/49/49 
f 51/51/51 43/43/43 44/44/44 
f 44/44/44 52/52/52 51/51/51 
f 53/53/53 45/45/45 46/46/46 
f 46/46/46 54/54/54 53/53/53 
f 55/55/55 47/47/47 48/48/48 
f 48/48/48 56/56/56 55/55/55 
f 57/57/57 49/49/49 50/50/50 
f 50/50/50 58/58/58 57/57/57 
f 59/59/59 51/51/51 52/52/52 
f 52/52/52 60/60/60 59/59/59 
f 61/61/61 53/53/53 54/54/54 
f 54/54/54 62/62/62 61/61/61 
f 63/63/63 55/55/55 56/56/56 
f 56/56/56 64/64/64 63/63/63 
f 65/65/65 57/57/57 58/58/58 
f 58/58/58 66/66/66 65/65/65 
f 67/67/67 59/59/59 60/60/60 
f 60/60/60 68/68/68 67/67/67 
f 69/69/69 61/61/61 62/62/62 
f 62/62/62 70/70/70 69/69/69 
f 71/71/71 63/63/63 64/64/64 
f 64/64/64 72/72/72 71/71/71 
f 73/73/73 65/65/65 66/66/66 
f 66/66/66 74/74/74 73/73/73 
f 75/75/75 67/67/67 68/68/68 
f 68/68/68 76/76/76 75/75/75 
f 77/77/77 78/78/78 79/79/79 
f 79/79/79 80/80/80 77/77/77 
f 81/81/81 82/82/82 83/83/83 
f 83/83/83 84/84/84 81/81/81 
f 85/85/85 86/86/86 87/87/87 
f 87/87/87 88/88/88 85/85/85 
f 89/89/89 90/90/90 91/91/91 
f 91/91/91 92/92/92 89/89/89 
f 93/93/93 94/94/94 95/95/95 
f 95/95/95 96/96/96 93/93/93 
f 97/97/97 98/98/98 99/99/99 
f 99/99/99 100/100/100 97/97/97 
f 2/2/2 101/101/101 102/102/102 
f 102/102/102 3/3/3 2/2/2 
f 6/6/6 103/103/103 104/104/104 
f 104/104/104 7/7/7 6/6/6 
f 10/10/10 105/105/105 106/106/106 
f 106/106/106 11/11/11 10/10/10 
f 14/14/14 107/107/107 108/108/108 
f 108/108/108 15/15/15 14/14/14 
f 101/101/101 109/109/109 110/110/110 
f 110/110/110 102/102/102 101/101/101 
f 103/103/103 111/111/111 112/112/112 
f 112/112/112 104/104/104 103/103/103 
f 105/105/105 113/113/113 114/114/114 
f 114/114/114 106/106/106 105/105/105 
f 107/107/107 115/115/115 116/116/116 
f 116/116/116 108/108/108 107/107/107 
f 109/109/109 117/117/117 118/118/118 
f 118/118/118 110/110/110 109/109/109 
f 111/111/111 119/119/119 120/120/120 
f 120/120/120 112/112/112 111/111/111 
f 113/113/113 121/121/121 122/122/122 
f 122/122/122 114/114/114 113/113/113 
f 115/115/115 123/123/123 124/124/124 
f 124/124/124 116/116/116 115/115/115 
f 117/117/117 125/125/125 126/126/126 
f 126/126/126 118/118/118 117/117/117 
f 119/119/119 127/127/127 128/128/128 
f 128/128/128 120/120/120 119/119/119 
f 121/121/121 129/129/129 130/130/130 
f 130/130/130 122/122/122 121/121/121 
f 123/123/123 131/131/131 132/132/132 
f 132/132/132 124/124/124 123/123/123 
f 125/125/125 85/85/85 88/88/88 
f 88/88/88 126/126/126 125/125/125 
f 127/127/127 89/89/89 92/92/92 
f 92/92/92 128/128/128 127/127/127 
f 129/129/129 93/93/93 96/96/96 
f 96/96/96 130/130/130 129/129/129 
f 131/131/131 97/97/97 100/100/100 
f 100/100/100 132/132/132 131/131/131 
f 133/133/133 134/134/134 135/135/135 
f 135/135/135 136/136/136 133/133/133 
f 137/137/137 138/138/138 139/139/139 
f 139/139/139 140/140/140 137/137/137 
f 18/18/18 1/1/1 4/4/4 
f 4/4/4 19/19/19 18/18/18 
f 22/22/22 5/5/5 8/8/8 
f 8/8/8 23/23/23 22/22/22 
f 26/26/26 9/9/9 12/12/12 
f 12/12/12 27/27/27 26/26/26 
f 30/30/30 13/13/13 16/16/16 
f 16/16/16 31/31/31 30/30/30 
f 141/141/141 142/142/142 143/143/143 
f 143/143/143 144/144/144 141/141/141 
f 145/145/145 146/146/146 147/147/147 
f 147/147/147 148/148/148 145/145/145 
f 149/149/149 150/150/150 151/151/151 
f 151/151/151 152/152/152 149/149/149 
