v 1.0723089 2.2325013 0.7409292
vn 0.0000000 0.7802746 0.6254371
vt 0.7106756 0.4970454
v 1.4024049 2.2325013 0.7409292
vn 0.0000000 0.7802747 0.6254370
vt 0.7106757 0.4591446
v 1.4024049 2.3149488 0.5708117
vn 0.0000000 0.9743703 0.2249502
vt 0.6878234 0.4591446
v 1.0723089 2.0844076 0.8584273
vn 0.0000000 0.4316362 0.9020478
vt 0.7335287 0.4970454
v 1.4024045 2.0844076 0.8584273
vn 0.0000000 0.4316362 0.9020478
vt 0.7335287 0.4591446
v 1.0723089 1.8999989 0.9000338
vn 0.0000000 -0.0024937 0.9999969
vt 0.7563820 0.4970454
v 1.4024049 1.8999989 0.9000338
vn 0.0000000 -0.0024939 0.9999969
vt 0.7563820 0.4591446
v 1.0723091 1.7158003 0.8575081
vn 0.0000000 -0.4361289 0.8998843
vt 0.7792348 0.4970454
v 1.4024049 1.7158003 0.8575081
vn 0.0000000 -0.4361290 0.8998842
vt 0.7792348 0.4591446
v 1.0723091 1.5682943 0.7392732
vn 0.0000000 -0.7833835 0.6215388
vt 0.7563820 0.4970454
v 1.4024049 1.5682943 0.7392732
vn 0.0000000 -0.7833834 0.6215388
vt 0.7563820 0.4591446
v 1.0723090 1.4866961 0.5687467
vn 0.0000000 -0.9754799 0.2200887
vt 0.7792349 0.4970454
v 1.4024049 1.4866961 0.5687467
vn 0.0000000 -0.9754798 0.2200888
vt 0.7792349 0.4591446
v 1.0723090 1.4871678 0.3797036
vn 0.0000000 -0.9743702 -0.2249507
vt 0.7563820 0.4970454
v 1.4024049 1.4871678 0.3797036
vn 0.0000000 -0.9743702 -0.2249507
vt 0.7563822 0.4591446
v 1.0723090 1.5696148 0.2095861
vn 0.0000000 -0.7802753 -0.6254363
vt 0.7335288 0.4970454
v 1.4024049 1.5696148 0.2095861
vn 0.0000001 -0.7802752 -0.6254364
vt 0.7335288 0.4591446
v 1.0723090 1.7177086 0.0920881
vn 0.0000001 -0.4316361 -0.9020478
vt 0.7106757 0.4970454
v 1.4024049 1.7177087 0.0920881
vn 0.0000002 -0.4316359 -0.9020480
vt 0.7106758 0.4591446
v 1.0723091 1.9021170 0.0504815
vn 0.0000000 0.0024933 -0.9999969
vt 0.6878234 0.4970454
v 1.4024049 1.9021170 0.0504815
vn 0.0000000 0.0024931 -0.9999969
vt 0.6878234 0.4591446
v 1.0723089 2.0863156 0.0930071
vn 0.0000000 0.4361284 -0.8998845
vt 0.6649697 0.4970454
v 1.4024049 2.0863156 0.0930071
vn 0.0000000 0.4361283 -0.8998845
vt 0.6649697 0.4591446
v 1.0723089 2.2338221 0.2112422
vn 0.0000000 0.7833840 -0.6215380
vt 0.6420898 0.4971729
v 1.4024049 2.2338221 0.2112422
vn 0.0000000 0.7833841 -0.6215380
vt 0.6421175 0.4591446
v 1.0723091 2.3154197 0.3817688
vn 0.0000000 0.9754797 -0.2200893
vt 0.6649696 0.4970454
v 1.4024049 2.3154197 0.3817688
vn 0.0000000 0.9754798 -0.2200892
vt 0.6649696 0.4591446
v 1.0723091 2.3149488 0.5708117
vn 0.0000000 0.9743702 0.2249503
vt 0.6878234 0.4970454
v 1.0723089 2.2338221 0.2112422
vn -1.0000000 0.0000002 0.0000000
vt 0.3155582 0.3419265
v 1.0723089 2.2325013 0.7409292
vn -1.0000000 0.0000005 0.0000000
vt 0.2891795 0.3479476
v 1.0723091 2.3149488 0.5708117
vn -1.0000000 0.0000029 0.0000000
vt 0.2985937 0.3500963
v 1.0723089 1.8999989 0.9000338
vn -1.0000000 -0.0000008 -0.0000004
vt 0.2774402 0.3332247
v 1.0723089 2.0844076 0.8584273
vn -1.0000000 0.0000000 0.0000000
vt 0.2816299 0.3419266
v 1.0723091 1.5682943 0.7392732
vn -1.0000000 -0.0000000 0.0000004
vt 0.2816299 0.3148678
v 1.0723091 1.7158003 0.8575081
vn -1.0000000 -0.0000006 -0.0000001
vt 0.2774402 0.3235676
v 1.0723090 1.4871678 0.3797036
vn -1.0000000 -0.0000002 -0.0000000
vt 0.2985937 0.3066961
v 1.0723090 1.4866961 0.5687467
vn -1.0000000 0.0000000 0.0000004
vt 0.2891795 0.3088461
v 1.0723090 1.7177086 0.0920881
vn -1.0000000 -0.0000001 -0.0000005
vt 0.3155582 0.3148678
v 1.0723090 1.5696148 0.2095861
vn -1.0000000 -0.0000002 -0.0000001
vt 0.3080083 0.3088461
v 1.0723089 2.0863156 0.0930071
vn -1.0000000 -0.0000018 0.0000023
vt 0.3197479 0.3332247
v 1.0723091 1.9021170 0.0504815
vn -1.0000000 0.0000000 -0.0000016
vt 0.3197479 0.3235676
v 1.4024045 2.0844076 0.8584273
vn 0.9999909 -0.0019059 -0.0038289
vt 0.5178379 0.3605886
v 1.4020289 2.0000849 0.7978491
vn 0.9999912 -0.0011555 -0.0040440
vt 0.5080713 0.3535266
v 1.4020292 2.1703539 0.6911142
vn 0.9999904 -0.0034332 -0.0027242
vt 0.5278032 0.3409316
v 1.3339728 1.9982333 0.4752576
vn 0.8210232 0.5708948 -0.0000015
vt 0.5504960 0.6189047
v 1.3339731 1.9697713 0.5439710
vn 0.8210242 0.4036838 0.4036815
vt 0.5473511 0.6278680
v 1.4015433 1.9010580 0.4752576
vn 1.0000000 0.0000007 -0.0000006
vt 0.5376713 0.6189705
v 1.3339731 1.9010580 0.5724331
vn 0.8210243 0.0000001 0.5708932
vt 0.5376484 0.6315517
v 1.3339731 1.9010580 0.5724331
vn 0.8210243 0.0000001 0.5708932
vt 0.5376484 0.6314968
v 1.3339731 1.8323447 0.5439710
vn 0.8210242 -0.4036827 0.4036826
vt 0.5288591 0.6279315
v 1.3339731 1.8038826 0.4752576
vn 0.8210241 -0.5708935 0.0000000
vt 0.5252236 0.6189182
v 1.3339731 1.8323447 0.4065443
vn 0.8210241 -0.4036818 -0.4036836
vt 0.5288399 0.6107501
v 1.3339728 1.9010580 0.3780822
vn 0.8210235 0.0000014 -0.5708945
vt 0.5376532 0.6064438
v 1.3339728 1.9010580 0.3780822
vn 0.8210235 0.0000014 -0.5708945
vt 0.5376532 0.6063884
v 1.3339728 1.9697713 0.4065442
vn 0.8210233 0.4036836 -0.4036836
vt 0.5473511 0.6107523
v 1.4024049 2.3149488 0.5708117
vn 0.9999916 -0.0039844 -0.0009803
vt 0.5446070 0.3271914
v 1.4020292 2.2375331 0.4760966
vn 0.9999914 -0.0041536 0.0000924
vt 0.5356743 0.3160785
v 1.4024049 2.3154197 0.3817688
vn 0.9999933 -0.0035107 0.0010854
vt 0.5445032 0.3050287
v 1.4020292 2.1714268 0.2607467
vn 0.9999894 -0.0038139 0.0025543
vt 0.5280219 0.2910956
v 1.4024049 2.2338221 0.2112422
vn 0.9999899 -0.0036480 0.0026275
vt 0.5351875 0.2854396
v 1.4020292 1.6317624 0.2594011
vn 0.9999897 0.0033870 0.0030105
vt 0.4651871 0.2909389
v 1.4020292 1.5645832 0.4744188
vn 0.9999914 0.0041400 0.0000103
vt 0.4574069 0.3158897
v 1.4024049 1.4871678 0.3797036
vn 0.9999916 0.0039843 0.0009803
vt 0.4486414 0.3047897
v 1.4020292 2.0016921 0.1531641
vn 0.9999912 -0.0011768 0.0040387
vt 0.5082241 0.2785063
v 1.4024049 2.0863156 0.0930071
vn 0.9999909 -0.0019256 0.0038207
vt 0.5179876 0.2716089
v 1.4020292 2.1703539 0.6911142
vn 0.9637359 -0.2109634 -0.1634244
vt 0.5278032 0.3409316
v 1.4020289 2.0000849 0.7978491
vn 0.9616273 -0.0771263 -0.2632955
vt 0.5080713 0.3535266
v 1.3339731 1.9697713 0.5439710
vn 0.9668737 -0.1812110 -0.1797715
vt 0.5048462 0.3242917
v 1.4020292 2.1714268 0.2607467
vn 0.9637072 -0.2118532 0.1624400
vt 0.5280219 0.2910956
v 1.3339728 1.9982333 0.4752576
vn 0.9652432 -0.2613535 -0.0001694
vt 0.5082822 0.3159812
v 1.3339728 1.9697713 0.4065442
vn 0.9669222 -0.1809819 0.1797418
vt 0.5048806 0.3076876
v 1.4024049 1.4866961 0.5687467
vn 0.9999916 0.0039892 -0.0009604
vt 0.4484339 0.3269515
v 1.4020292 1.8004240 0.7973512
vn 0.9999912 0.0011771 -0.0040390
vt 0.4848242 0.3534687
v 1.4024049 1.8999989 0.9000338
vn 0.9999915 0.0000112 -0.0041167
vt 0.4964230 0.3650137
v 1.4020292 1.6306895 0.6897688
vn 0.9999904 0.0034463 -0.0027079
vt 0.4651510 0.3407753
v 1.4024049 1.7158003 0.8575081
vn 0.9999909 0.0019257 -0.0038209
vt 0.4750368 0.3604819
v 1.4024049 1.5682943 0.7392732
vn 0.9999889 0.0036964 -0.0029327
vt 0.4580309 0.3464077
v 1.4020292 1.6317624 0.2594011
vn 0.9637359 0.2109632 0.1634245
vt 0.4651871 0.2909389
v 1.4020292 1.8020314 0.1526663
vn 0.9616269 0.0771269 0.2632966
vt 0.4850442 0.2784485
v 1.3339731 1.8323447 0.4065443
vn 0.9668735 0.1812131 0.1797706
vt 0.4882065 0.3076461
v 1.4020292 2.0016921 0.1531641
vn 0.9616143 -0.0784217 0.2629603
vt 0.5082241 0.2785063
v 1.4020292 2.2375331 0.4760966
vn 0.9618582 -0.2735475 -0.0007218
vt 0.5356743 0.3160785
v 1.4020292 1.6306895 0.6897688
vn 0.9637073 0.2118527 -0.1624396
vt 0.4651510 0.3407753
v 1.4020292 1.5645832 0.4744188
vn 0.9618584 0.2735470 0.0007217
vt 0.4574069 0.3158897
v 1.3339731 1.8038826 0.4752576
vn 0.9652431 0.2613537 0.0001688
vt 0.4847633 0.3159487
v 1.4020292 1.8020314 0.1526663
vn 0.9999911 0.0012676 0.0040390
vt 0.4850442 0.2784485
v 1.4024049 1.5696148 0.2095861
vn 0.9999896 0.0034541 0.0029665
vt 0.4580623 0.2852473
v 1.4024049 1.9021170 0.0504815
vn 0.9999915 -0.0000103 0.0041162
vt 0.4966715 0.2667736
v 1.3339728 1.9010580 0.3780822
vn 0.9666446 0.0000476 0.2561216
vt 0.4965530 0.3040012
v 1.3339731 1.8323447 0.5439710
vn 0.9669223 0.1809815 -0.1797412
vt 0.4881571 0.3242501
v 1.4020292 1.8004240 0.7973512
vn 0.9616145 0.0784219 -0.2629592
vt 0.4848242 0.3534687
v 1.3339731 1.9010580 0.5724331
vn 0.9666448 -0.0000461 -0.2561208
vt 0.4964924 0.3279486
v 1.4024049 1.7177087 0.0920881
vn 0.9999920 0.0019393 0.0035044
vt 0.4753246 0.2715025
v 1.0723091 2.3154197 0.3817688
vn -1.0000000 0.0000029 0.0000000
vt 0.3080083 0.3479476
v 1.4024049 2.2325013 0.7409292
vn 0.9999889 -0.0036823 -0.0029503
vt 0.5349061 0.3465994
v 1.0723091 1.7158003 0.8575081
vn 0.0000000 -0.4361289 0.8998843
vt 0.7792348 0.4970454
v 1.4024049 1.7158003 0.8575081
vn 0.0000000 -0.4361290 0.8998842
vt 0.7792348 0.4591446
v 1.0723091 1.5682943 0.7392732
vn 0.0000000 -0.7833835 0.6215388
vt 0.7563820 0.4970454
v 1.4024049 1.5682943 0.7392732
vn 0.0000000 -0.7833834 0.6215388
vt 0.7563820 0.4591446
v 1.0723090 1.4866961 0.5687467
vn 0.0000000 -0.9754799 0.2200887
vt 0.7792349 0.4970454
v 1.4024049 1.4866961 0.5687467
vn 0.0000000 -0.9754798 0.2200888
vt 0.7792349 0.4591446
v 1.0723089 2.2338221 0.2112422
vn 0.0000000 0.7833840 -0.6215380
vt 0.6420898 0.4971729
v 1.4024049 2.2338221 0.2112422
vn 0.0000000 0.7833841 -0.6215380
vt 0.6421175 0.4591446

g group_123706984_140627908445264
f 1/1/1 2/2/2 3/3/3 
f 4/4/4 5/5/5 2/2/2 
f 6/6/6 7/7/7 5/5/5 
f 8/8/8 9/9/9 7/7/7 
f 10/10/10 11/11/11 97/97/97 
f 12/12/12 13/13/13 99/99/99 
f 14/14/14 15/15/15 101/101/101 
f 16/16/16 17/17/17 15/15/15 
f 18/18/18 19/19/19 17/17/17 
f 20/20/20 21/21/21 19/19/19 
f 22/22/22 23/23/23 21/21/21 
f 24/24/24 25/25/25 23/23/23 
f 26/26/26 27/27/27 103/103/103 
f 28/28/28 3/3/3 27/27/27 
f 29/29/29 30/30/30 31/31/31 
f 29/29/29 32/32/32 33/33/33 
f 29/29/29 34/34/34 35/35/35 
f 29/29/29 36/36/36 37/37/37 
f 29/29/29 38/38/38 39/39/39 
f 29/29/29 40/40/40 41/41/41 
f 42/42/42 43/43/43 44/44/44 
f 45/45/45 46/46/46 47/47/47 
f 46/46/46 48/48/48 47/47/47 
f 49/49/49 50/50/50 47/47/47 
f 50/50/50 51/51/51 47/47/47 
f 51/51/51 52/52/52 47/47/47 
f 52/52/52 53/53/53 47/47/47 
f 54/54/54 55/55/55 47/47/47 
f 55/55/55 45/45/45 47/47/47 
f 56/56/56 57/57/57 58/58/58 
f 57/57/57 59/59/59 60/60/60 
f 44/44/44 57/57/57 56/56/56 
f 61/61/61 62/62/62 63/63/63 
f 59/59/59 64/64/64 65/65/65 
f 66/66/66 67/67/67 68/68/68 
f 69/69/69 70/70/70 71/71/71 
f 62/62/62 72/72/72 63/63/63 
f 73/73/73 43/43/43 74/74/74 
f 75/75/75 76/76/76 77/77/77 
f 75/75/75 77/77/77 72/72/72 
f 78/78/78 79/79/79 80/80/80 
f 81/81/81 69/69/69 71/71/71 
f 66/66/66 70/70/70 82/82/82 
f 83/83/83 84/84/84 85/85/85 
f 78/78/78 85/85/85 84/84/84 
f 86/86/86 61/61/61 87/87/87 
f 65/65/65 64/64/64 88/88/88 
f 81/81/81 89/89/89 79/79/79 
f 90/90/90 91/91/91 83/83/83 
f 68/68/68 67/67/67 92/92/92 
f 74/74/74 43/43/43 42/42/42 
f 73/73/73 74/74/74 76/76/76 
f 88/88/88 86/86/86 93/93/93 
f 88/88/88 64/64/64 86/86/86 
f 3/3/3 28/28/28 1/1/1 
f 2/2/2 1/1/1 4/4/4 
f 5/5/5 4/4/4 6/6/6 
f 7/7/7 6/6/6 8/8/8 
f 97/97/97 96/96/96 10/10/10 
f 99/99/99 98/98/98 12/12/12 
f 101/101/101 100/100/100 14/14/14 
f 15/15/15 14/14/14 16/16/16 
f 17/17/17 16/16/16 18/18/18 
f 19/19/19 18/18/18 20/20/20 
f 21/21/21 20/20/20 22/22/22 
f 23/23/23 22/22/22 24/24/24 
f 103/103/103 102/102/102 26/26/26 
f 27/27/27 26/26/26 28/28/28 
f 31/31/31 94/94/94 29/29/29 
f 33/33/33 30/30/30 29/29/29 
f 35/35/35 32/32/32 29/29/29 
f 37/37/37 34/34/34 29/29/29 
f 39/39/39 36/36/36 29/29/29 
f 41/41/41 38/38/38 29/29/29 
f 44/44/44 95/95/95 42/42/42 
f 60/60/60 58/58/58 57/57/57 
f 56/56/56 95/95/95 44/44/44 
f 63/63/63 87/87/87 61/61/61 
f 65/65/65 60/60/60 59/59/59 
f 69/69/69 82/82/82 70/70/70 
f 75/75/75 73/73/73 76/76/76 
f 72/72/72 62/62/62 75/75/75 
f 66/66/66 68/68/68 70/70/70 
f 85/85/85 90/90/90 83/83/83 
f 78/78/78 80/80/80 85/85/85 
f 87/87/87 93/93/93 86/86/86 
f 81/81/81 71/71/71 89/89/89 
f 89/89/89 80/80/80 79/79/79 
f 91/91/91 90/90/90 92/92/92 
f 67/67/67 91/91/91 92/92/92 
