v 1.4780480 2.6904366 0.9573396
vn 0.0000020 0.3102866 0.9506431
vt 0.4666082 -4.0212750
v 1.4780480 2.8413606 0.8400597
vn 0.0000017 0.8155925 0.5786268
vt 0.4666082 -4.1833000
v 0.9763076 2.6904385 0.9573400
vn 0.0000009 0.3102906 0.9506418
vt 0.8321445 -4.0212750
v 0.9766463 1.8930644 0.9336407
vn 0.0000003 -0.0187842 0.9998236
vt 0.8323985 -3.2543573
v 1.4777091 1.8930634 0.9336406
vn 0.0000002 -0.0187842 0.9998236
vt 0.4737031 -3.2546368
v 0.9776832 0.0210632 0.9189430
vn 0.0000002 0.0018890 0.9999983
vt 0.8321662 -1.4392800
v 1.4780480 2.7508645 0.4071088
vn 0.0000002 0.6488661 -0.7609026
vt 0.4666082 -4.6248822
v 1.4780480 2.6252475 0.3269201
vn -0.0000001 0.5027915 -0.8644077
vt 0.4666082 -4.7629151
v 0.9763076 2.7508645 0.4071088
vn 0.0000003 0.6488665 -0.7609023
vt 0.8321445 -4.6248822
v 1.4780480 2.8587825 0.5284885
vn -0.0000004 0.8938265 -0.4484129
vt 0.4666082 -4.4755650
v 0.9763076 2.8587825 0.5284885
vn 0.0000000 0.8938270 -0.4484121
vt 0.8321445 -4.4755712
v 1.4780480 2.8919406 0.6894003
vn 0.0000000 0.9981801 0.0603038
vt 0.4666082 -4.3252640
v 0.9763079 2.8919406 0.6894003
vn -0.0000005 0.9981802 0.0603022
vt 0.8321445 -4.3252640
v 0.9763076 2.8413615 0.8400596
vn 0.0000000 0.8155950 0.5786232
vt 0.8321445 -4.1833000
v 0.9763073 2.6252475 0.3269201
vn -0.0000002 0.5027905 -0.8644083
vt 0.8321445 -4.7629151
v 0.9763076 2.0900505 0.0445384
vn -0.0000005 0.3545313 -0.9350442
vt 0.8321445 -5.3390222
v 0.9763073 1.9171014 0.0023386
vn -0.0000001 0.1199828 -0.9927760
vt 0.8321445 6.5000000
v 1.4780480 1.9171025 0.0023386
vn -0.0000002 0.1199829 -0.9927760
vt 0.4666082 6.5000000
v 0.9763070 -1.9174416 -0.0023386
vn 0.0000001 -0.1621707 -0.9867628
vt 0.8321445 2.8402979
v 0.9763073 1.9171014 0.0023386
vn -0.0000001 0.1199828 -0.9927760
vt 0.8321445 -5.5000000
v 1.4780480 1.9171025 0.0023386
vn -0.0000002 0.1199829 -0.9927760
vt 0.4666082 -5.5000000
v 0.9790667 -2.9192374 0.8093833
vn 0.0000001 -0.8728236 0.4880359
vt 0.8321445 1.4528040
v 1.4752890 -2.9192374 0.8093833
vn -0.0000006 -0.8728244 0.4880344
vt 0.4666082 1.4528040
v 0.9790667 -2.7984984 0.9412680
vn -0.0000003 -0.5177237 0.8555479
vt 0.8321445 1.2912990
v 1.4752890 -2.7984984 0.9412680
vn 0.0000000 -0.5177231 0.8555483
vt 0.4666082 1.2912990
v 0.9790667 -2.6213174 0.9881907
vn 0.0000000 -0.0984929 0.9951378
vt 0.8321445 1.1206820
v 1.4752880 -2.6213174 0.9881907
vn 0.0000000 -0.0984930 0.9951378
vt 0.4666082 1.1206820
v 0.9787201 -1.8509376 0.9407267
vn 0.0000000 0.0365687 0.9993312
vt 0.8319339 0.3757960
v 0.9790667 -2.6446035 0.2446054
vn -0.0000001 -0.4446002 -0.8957291
vt 0.8321445 2.1068521
v 1.4752880 -2.6446035 0.2446054
vn -0.0000001 -0.4446006 -0.8957289
vt 0.4666082 2.1068549
v 0.9790667 -2.7976034 0.3480217
vn -0.0000001 -0.6383753 -0.7697253
vt 0.8321445 1.9364920
v 1.4752890 -2.7976034 0.3480217
vn -0.0000001 -0.6383752 -0.7697254
vt 0.4666082 1.9364901
v 0.9790664 -2.9190624 0.4706990
vn -0.0000003 -0.8644770 -0.5026724
vt 0.8321445 1.7779100
v 1.4752880 -2.9190633 0.4706990
vn 0.0000003 -0.8644778 -0.5026710
vt 0.4666082 1.7779100
v 0.9790664 -2.9670465 0.6420977
vn 0.0000007 -0.9999964 0.0027041
vt 0.8321445 1.6144830
v 1.4752880 -2.9670455 0.6420977
vn 0.0000005 -0.9999964 0.0027038
vt 0.4666082 1.6144830
v 0.9592605 2.8073826 0.8191887
vn 0.0000001 -0.8134638 -0.5816156
vt 0.0449433 -4.1833000
v 1.4950950 2.8073826 0.8191887
vn -0.0000013 -0.8134610 -0.5816195
vt 0.4165498 -4.1833062
v 0.9592605 2.6789396 0.9191960
vn -0.0000006 -0.3099701 -0.9507463
vt 0.0449433 -4.0212750
v 1.4947190 1.8916584 0.8945061
vn -0.0000001 0.0197467 -0.9998050
vt 0.4177653 -3.2541351
v 0.9596364 1.8916584 0.8945061
vn 0.0000000 0.0197468 -0.9998050
vt 0.0396306 -3.2546101
v 1.4935679 0.0195872 0.8792719
vn 0.0000001 -0.0016020 -0.9999987
vt 0.4182132 -1.4391899
v 0.9592605 2.6024406 0.3611604
vn 0.0000002 -0.4958030 0.8684351
vt 0.0449433 -4.7629151
v 1.4950950 2.6024406 0.3611604
vn 0.0000004 -0.4958031 0.8684350
vt 0.4165498 -4.7629089
v 0.9592602 2.7220576 0.4351629
vn 0.0000003 -0.6370713 0.7708049
vt 0.0449433 -4.6248870
v 1.4950950 2.7220576 0.4351629
vn 0.0000008 -0.6370699 0.7708061
vt 0.4165498 -4.6248822
v 0.9592605 2.8218565 0.5437098
vn 0.0000014 -0.8896050 0.4567306
vt 0.0449433 -4.4755712
v 1.4950950 2.8218586 0.5437098
vn 0.0000012 -0.8896056 0.4567297
vt 0.4165498 -4.4755712
v 0.9592605 2.8521705 0.6893612
vn 0.0000012 -0.9979845 -0.0634586
vt 0.0449433 -4.3252578
v 1.4950950 2.8521705 0.6893612
vn 0.0000001 -0.9979842 -0.0634625
vt 0.4165498 -4.3252640
v 0.9592605 2.0729506 0.0831491
vn 0.0000004 -0.3519543 0.9360172
vt 0.0449433 -5.3390160
v 0.9592602 1.9099745 0.0439864
vn 0.0000001 -0.1182288 0.9929864
vt 0.0449433 -5.5000000
v 1.4950950 1.9099745 0.0439864
vn 0.0000002 -0.1182287 0.9929864
vt 0.4165498 -5.5000000
v 0.9623223 -2.7731323 0.9088849
vn -0.0000005 0.5029404 -0.8643211
vt 0.0449433 1.2913010
v 1.4920330 -2.7731323 0.9088849
vn 0.0000002 0.5029382 -0.8643224
vt 0.4165498 1.2913020
v 0.9623223 -2.8821385 0.7947199
vn 0.0000003 0.8654069 -0.5010698
vt 0.0449433 1.4528040
v 0.9623223 -2.6153355 0.9484185
vn 0.0000000 0.0912346 -0.9958295
vt 0.0449433 1.1206779
v 1.4920330 -2.6153355 0.9484185
vn -0.0000001 0.0912352 -0.9958294
vt 0.4165498 1.1206820
v 0.9619377 -1.8524835 0.9005190
vn -0.0000000 -0.0370108 -0.9993149
vt 0.0488321 0.3759985
v 0.9623223 -2.7685935 0.3763746
vn 0.0000004 0.6287178 0.7776336
vt 0.0449433 1.9364880
v 1.4920330 -2.7685935 0.3763746
vn -0.0000001 0.6287165 0.7776346
vt 0.4165498 1.9364920
v 0.9623223 -2.6266134 0.2813412
vn -0.0000001 0.4418563 0.8970858
vt 0.0449433 2.1068530
v 0.9623223 -2.8819625 0.4862947
vn 0.0000003 0.8571832 0.5150117
vt 0.0449433 1.7779090
v 1.4920330 -2.8819635 0.4862947
vn 0.0000008 0.8571843 0.5150099
vt 0.4165498 1.7779120
v 0.9623223 -2.9271054 0.6425793
vn 0.0000000 0.9999952 -0.0030917
vt 0.0449433 1.6144840
v 1.4920330 -2.9271054 0.6425793
vn 0.0000000 0.9999952 -0.0030916
vt 0.4165498 1.6144830
v 1.4920330 -2.8821394 0.7947199
vn 0.0000003 0.8654072 -0.5010693
vt 0.4165498 1.4528060
v 1.4780480 2.6904366 0.9573396
vn 0.9193478 0.1205538 0.3745215
vt 0.4666082 -4.0212750
v 1.4950950 2.6789386 0.9191955
vn 0.9194300 0.1242119 0.3731219
vt 0.4165498 -4.0212750
v 1.4780480 2.8413606 0.8400597
vn 0.9187443 0.3235123 0.2263819
vt 0.4666082 -4.1833000
v 0.9763076 2.6904385 0.9573400
vn -0.9193456 0.1205569 0.3745260
vt 0.0067977 -4.0212798
v 0.9763076 2.8413615 0.8400596
vn -0.9187419 0.3235184 0.2263829
vt 0.0067977 -4.1833062
v 0.9592605 2.6789396 0.9191960
vn -0.9194278 0.1242147 0.3731264
vt 0.0449433 -4.0212750
v 1.4777091 1.8930634 0.9336406
vn 0.9168829 -0.0084358 0.3990671
vt 0.4737031 -3.2546368
v 0.9766463 1.8930644 0.9336407
vn -0.9169021 -0.0085166 0.3990215
vt 0.0056348 -3.2540913
v 1.4766721 0.0210628 0.9189429
vn 0.9200106 0.0000678 0.3918935
vt 0.4677773 -1.4393001
v 1.4947190 1.8916584 0.8945061
vn 0.9169993 -0.0081437 0.3988056
vt 0.4177653 -3.2541351
v 0.9596364 1.8916584 0.8945061
vn -0.9169753 -0.0082306 0.3988592
vt 0.0396306 -3.2546101
v 0.9607871 0.0195877 0.8792718
vn -0.9200131 0.0002228 0.3918877
vt 0.0442313 -1.4393060
v 1.4780480 2.7508645 0.4071088
vn 0.9192218 0.2555274 -0.2995613
vt 0.4666082 -4.6248822
v 1.4950950 2.7220576 0.4351629
vn 0.9204782 0.2481174 -0.3019234
vt 0.4165498 -4.6248822
v 1.4780480 2.6252475 0.3269201
vn 0.9228842 0.1921730 -0.3336979
vt 0.4666082 -4.7629151
v 0.9592605 2.6024406 0.3611604
vn -0.9236013 0.1899175 -0.3330046
vt 0.0449433 -4.7629151
v 0.9592602 2.7220576 0.4351629
vn -0.9204752 0.2481231 -0.3019277
vt 0.0449433 -4.6248870
v 0.9763073 2.6252475 0.3269201
vn -0.9228838 0.1921726 -0.3336993
vt 0.0067977 -4.7629089
v 1.4780480 2.8587825 0.5284885
vn 0.9193155 0.3532243 -0.1734693
vt 0.4666082 -4.4755650
v 1.4950950 2.8218586 0.5437098
vn 0.9198991 0.3475055 -0.1817294
vt 0.4165498 -4.4755712
v 0.9763076 2.8587825 0.5284885
vn -0.9193154 0.3532249 -0.1734688
vt 0.0067977 -4.4755592
v 0.9763076 2.7508645 0.4071088
vn -0.9192189 0.2555338 -0.2995649
vt 0.0067977 -4.6248760
v 0.9592605 2.8218565 0.5437098
vn -0.9198993 0.3475044 -0.1817303
vt 0.0449433 -4.4755712
v 1.4780480 2.8919406 0.6894003
vn 0.9189345 0.3938577 0.0208687
vt 0.4666082 -4.3252640
v 1.4950950 2.8521705 0.6893612
vn 0.9192265 0.3926939 0.0285337
vt 0.4165498 -4.3252640
v 0.9763079 2.8919406 0.6894003
vn -0.9189275 0.3938741 0.0208689
vt 0.0067977 -4.3252578
v 0.9592605 2.8521705 0.6893612
vn -0.9192206 0.3927079 0.0285334
vt 0.0449433 -4.3252578
v 0.9763076 2.0900505 0.0445384
vn -0.9270199 0.1338859 -0.3502980
vt 0.0067977 -5.3390160
v 1.4950950 2.6024406 0.3611604
vn 0.9236013 0.1899185 -0.3330038
vt 0.4165498 -4.7629089
v 1.4780480 2.0900517 0.0445384
vn 0.9270221 0.1338832 -0.3502932
vt 0.4666082 -5.3390160
v 0.9763073 1.9171014 0.0023386
vn -0.9270610 0.0456375 -0.3721226
vt 0.0067977 6.5000062
v 0.9763070 -1.9174416 -0.0023386
vn -0.9276196 -0.0622508 -0.3683026
vt 0.0067977 2.8403001
v 0.9592602 1.9099745 0.0439864
vn -0.9271746 0.0428403 -0.3721721
vt 0.0449433 6.5000000
v 1.4780470 -1.9174405 -0.0023386
vn 0.9276234 -0.0622431 -0.3682943
vt 0.4666082 2.8402979
v 1.4780480 1.9171025 0.0023386
vn 0.9270648 0.0456297 -0.3721139
vt 0.4666082 6.5000000
v 1.4950939 -1.9106846 0.0394553
vn 0.9276037 -0.0623803 -0.3683207
vt 0.4165498 2.8403020
v 1.4950950 2.0729516 0.0831491
vn 0.9272062 0.1307778 -0.3509785
vt 0.4165498 -5.3390160
v 1.4780480 1.9171025 0.0023386
vn 0.9270648 0.0456297 -0.3721139
vt 0.4666082 -5.5000000
v 0.9763073 1.9171014 0.0023386
vn -0.9270610 0.0456375 -0.3721226
vt 0.0067977 -5.4999938
v 0.9592605 2.0729506 0.0831491
vn -0.9272039 0.1307806 -0.3509835
vt 0.0449433 -5.3390160
v 1.4752880 -2.6446035 0.2446054
vn 0.9252619 -0.1694410 -0.3393823
vt 0.4666082 2.1068549
v 0.9790667 -2.9192374 0.8093833
vn -0.9205493 -0.3431357 0.1866730
vt 0.0067977 1.4528050
v 0.9790667 -2.7984984 0.9412680
vn -0.9242830 -0.2003802 0.3248825
vt 0.0067977 1.2913030
v 0.9623223 -2.8821385 0.7947199
vn -0.9211852 -0.3340642 0.1995470
vt 0.0449433 1.4528040
v 1.4752890 -2.9192374 0.8093833
vn 0.9205453 -0.3431448 0.1866764
vt 0.4666082 1.4528040
v 1.4920330 -2.8821394 0.7947199
vn 0.9211817 -0.3340718 0.1995503
vt 0.4165498 1.4528060
v 1.4752890 -2.7984984 0.9412680
vn 0.9242811 -0.2003819 0.3248870
vt 0.4666082 1.2912990
v 0.9790667 -2.6213174 0.9881907
vn -0.9223430 -0.0378942 0.3845094
vt 0.0067977 1.1206800
v 0.9623223 -2.7731323 0.9088849
vn -0.9250903 -0.1838485 0.3322767
vt 0.0449433 1.2913010
v 1.4920330 -2.7731323 0.9088849
vn 0.9250884 -0.1838480 0.3322821
vt 0.4165498 1.2913020
v 1.4752880 -2.6213174 0.9881907
vn 0.9223919 -0.0377100 0.3844101
vt 0.4666082 1.1206820
v 0.9623223 -2.6153355 0.9484185
vn -0.9229662 -0.0332772 0.3834397
vt 0.0449433 1.1206779
v 0.9787201 -1.8509376 0.9407267
vn -0.9228909 0.0138088 0.3848139
vt 0.0033352 0.3757968
v 0.9619377 -1.8524835 0.9005190
vn -0.9229188 0.0138242 0.3847464
vt 0.0488321 0.3759985
v 1.4924170 -1.8524835 0.9005190
vn 0.9228873 0.0135555 0.3848315
vt 0.4186610 0.3757554
v 1.4756351 -1.8509376 0.9407267
vn 0.9229171 0.0135266 0.3847611
vt 0.4618515 0.3760368
v 0.9790667 -2.7976034 0.3480217
vn -0.9225677 -0.2454521 -0.2976946
vt 0.0067977 1.9364890
v 0.9623223 -2.7685935 0.3763746
vn -0.9235533 -0.2397596 -0.2992736
vt 0.0449433 1.9364880
v 0.9790667 -2.6446035 0.2446054
vn -0.9252654 -0.1694372 -0.3393744
vt 0.0067977 2.1068561
v 1.4920330 -2.6266134 0.2813412
vn 0.9254532 -0.1692016 -0.3389796
vt 0.4165498 2.1068521
v 1.4920330 -2.7685935 0.3763746
vn 0.9235529 -0.2397587 -0.2992755
vt 0.4165498 1.9364920
v 0.9790664 -2.9190624 0.4706990
vn -0.9219115 -0.3373165 -0.1905173
vt 0.0067977 1.7779100
v 0.9623223 -2.8819625 0.4862947
vn -0.9224483 -0.3277858 -0.2040727
vt 0.0449433 1.7779090
v 1.4752880 -2.9190633 0.4706990
vn 0.9219028 -0.3373356 -0.1905254
vt 0.4666082 1.7779100
v 1.4752890 -2.7976034 0.3480217
vn 0.9225670 -0.2454522 -0.2976970
vt 0.4666082 1.9364901
v 1.4920330 -2.8819635 0.4862947
vn 0.9224404 -0.3278036 -0.2040800
vt 0.4165498 1.7779120
v 0.9790664 -2.9670465 0.6420977
vn -0.9222358 -0.3866276 0.0003062
vt 0.0067977 1.6144850
v 0.9623223 -2.9271054 0.6425793
vn -0.9229626 -0.3848830 0.0022592
vt 0.0449433 1.6144840
v 1.4752880 -2.9670455 0.6420977
vn 0.9222277 -0.3866471 0.0003045
vt 0.4666082 1.6144830
v 1.4920330 -2.9271054 0.6425793
vn 0.9229547 -0.3849020 0.0022575
vt 0.4165498 1.6144830
v 1.4780470 -1.9174405 -0.0023386
vn 0.0000000 -0.1621705 -0.9867628
vt 0.4666082 2.8402979
v 1.4950950 1.9099745 0.0439864
vn 0.0000002 -0.1182287 0.9929864
vt 0.4165498 6.5000062
v 0.9592602 1.9099745 0.0439864
vn 0.0000001 -0.1182288 0.9929864
vt 0.0449433 6.5000000
v 1.4950939 -1.9106846 0.0394553
vn 0.0000000 0.1613957 0.9868898
vt 0.4165498 2.8403020
v 0.9592599 -1.9106846 0.0394553
vn -0.0000000 0.1613957 0.9868898
vt 0.0449433 2.8403039
v 1.4920330 -2.6266134 0.2813412
vn -0.0000002 0.4418559 0.8970860
vt 0.4165498 2.1068521
v 0.9592599 -1.9106846 0.0394553
vn -0.9276031 -0.0623875 -0.3683211
vt 0.0449433 2.8403039
v 1.2187639 2.7220576 0.4351631
vn -0.9977404 -0.0353500 0.0571358
vt 1.0000000 -4.6308250
v 1.2187639 2.6024406 0.3611604
vn -0.9978462 -0.0314605 0.0575602
vt 1.0000000 -4.7702422
v 1.2278490 2.6043515 0.5209810
vn -0.9977923 -0.0338780 0.0571212
vt 0.8670955 -4.6667252
v 1.2278490 2.5299954 0.4786263
vn -0.9978299 -0.0305707 0.0583182
vt 0.8670955 -4.7756381
v 1.2187639 2.0729506 0.0831491
vn -0.9983405 -0.0202674 0.0539034
vt 1.0000000 -5.3394279
v 1.2278490 2.0175536 0.2305726
vn -0.9983398 -0.0196360 0.0541491
vt 0.8670955 -5.3405671
v 1.2187639 1.9099745 0.0439865
vn -0.9983897 -0.0064966 0.0563554
vt 1.0000000 -5.5000000
v 1.2278490 1.8812414 0.2030963
vn -0.9984140 -0.0053197 0.0560466
vt 0.8670955 -5.5000000
v 1.2278490 -1.9087275 0.1986100
vn -0.9983330 0.0103857 0.0567744
vt 0.8670955 2.8404140
v 1.2278490 1.8812414 0.2030963
vn -0.9984140 -0.0053197 0.0560466
vt 0.8670955 6.4663100
v 1.2187639 -1.9106846 0.0394553
vn -0.9983445 0.0085286 0.0568824
vt 1.0000000 2.8465419
v 1.2187639 1.9099745 0.0439865
vn -0.9983897 -0.0064966 0.0563554
vt 1.0000000 6.5000000
v 1.2187639 -2.6266134 0.2813415
vn -0.9982708 0.0190414 0.0556140
vt 1.0000000 2.0956180
v 1.2278490 -2.5362184 0.4140312
vn -0.9982834 0.0190162 0.0553944
vt 0.8670955 2.1168311
v 1.2369339 2.7220576 0.4351631
vn 0.9977403 -0.0353494 0.0571381
vt 1.0000000 -4.6308250
v 1.2278490 2.6043515 0.5209810
vn 0.9977924 -0.0338733 0.0571234
vt 0.8670955 -4.6667252
v 1.2369339 2.6024406 0.3611604
vn 0.9978462 -0.0314589 0.0575603
vt 1.0000000 -4.7702422
v 1.2278490 2.5299954 0.4786263
vn 0.9978300 -0.0305667 0.0583177
vt 0.8670955 -4.7756381
v 1.2278490 2.0175536 0.2305726
vn 0.9983398 -0.0196353 0.0541500
vt 0.8670955 -5.3405671
v 1.2369339 2.0729506 0.0831491
vn 0.9983403 -0.0202682 0.0539055
vt 1.0000000 -5.3394279
v 1.2369339 1.9099745 0.0439865
vn 0.9983897 -0.0064955 0.0563546
vt 1.0000000 -5.5000000
v 1.2278490 1.8812414 0.2030963
vn 0.9984141 -0.0053172 0.0560448
vt 0.8670955 -5.5000000
v 1.2278490 -1.9087275 0.1986100
vn 0.9983331 0.0103861 0.0567735
vt 0.8670955 2.8404140
v 1.2369330 -1.9106846 0.0394553
vn 0.9983445 0.0085289 0.0568816
vt 1.0000000 2.8465419
v 1.2278490 1.8812414 0.2030963
vn 0.9984141 -0.0053172 0.0560448
vt 0.8670955 6.4663100
v 1.2369339 1.9099745 0.0439865
vn 0.9983897 -0.0064955 0.0563546
vt 1.0000000 6.5000000
v 1.2369339 -2.6266134 0.2813412
vn 0.9982709 0.0190422 0.0556111
vt 1.0000000 2.0956180
v 1.2278490 -2.5362184 0.4140312
vn 0.9982836 0.0190170 0.0553911
vt 0.8670955 2.1168311
v 1.2187650 2.5033946 0.9258607
vn -0.9980115 0.0006255 -0.0630283
vt 1.0000000 -3.8671951
v 1.2278490 2.4915066 0.7818964
vn -0.9980184 0.0006308 -0.0629188
vt 0.8670955 -3.8497620
v 1.2187650 0.0127956 0.9011444
vn -0.9981964 -0.0000607 -0.0600325
vt 1.0000000 -1.4400280
v 1.2369339 -2.4778025 0.9448873
vn 0.9983506 -0.0010082 -0.0574039
vt 1.0000000 0.9871393
v 1.2278490 -2.4687223 0.7867337
vn 0.9983450 -0.0010037 -0.0575010
vt 0.8670955 0.9794711
v 1.2369339 0.0127954 0.9011443
vn 0.9981965 -0.0000607 -0.0600318
vt 1.0000000 -1.4400291
v 1.4766721 0.0210628 0.9189429
vn 0.0000002 0.0018890 0.9999982
vt 0.4677773 -1.4393001
v 1.4924170 -1.8524835 0.9005190
vn -0.0000000 -0.0370109 -0.9993149
vt 0.4186610 0.3757554
v 0.9607871 0.0195877 0.8792718
vn 0.0000001 -0.0016020 -0.9999987
vt 0.0442313 -1.4393060
v 1.4935679 0.0195872 0.8792719
vn 0.9200547 0.0002260 0.3917900
vt 0.4182132 -1.4391899
v 0.9776832 0.0210632 0.9189430
vn -0.9200529 0.0000712 0.3917940
vt 0.0044850 -1.4391470
v 1.2278490 0.0113918 0.7500854
vn -0.9981965 -0.0000629 -0.0600302
vt 0.8670955 -1.4351459
v 1.2278490 -2.4687223 0.7867337
vn -0.9983448 -0.0010036 -0.0575032
vt 0.8670955 0.9794711
v 1.2278490 0.0113918 0.7500854
vn 0.9981966 -0.0000629 -0.0600295
vt 0.8670955 -1.4351459
v 1.2278490 2.4915066 0.7818964
vn 0.9980184 0.0006308 -0.0629189
vt 0.8670955 -3.8497620
v 1.4780480 2.0900517 0.0445384
vn -0.0000007 0.3545316 -0.9350441
vt 0.4666082 -5.3390160
v 1.4756351 -1.8509376 0.9407267
vn 0.0000000 0.0365687 0.9993312
vt 0.4618515 0.3760368
v 1.4950950 2.6789386 0.9191955
vn -0.0000018 -0.3099659 -0.9507477
vt 0.4165498 -4.0212750
v 1.4950950 2.0729516 0.0831491
vn 0.0000006 -0.3519544 0.9360172
vt 0.4165498 -5.3390160
v 1.4950950 2.8073826 0.8191887
vn 0.9189858 0.3171584 0.2342555
vt 0.4165498 -4.1833062
v 0.9592605 2.8073826 0.8191887
vn -0.9189839 0.3171634 0.2342561
vt 0.0449433 -4.1833000
v 1.4950950 1.9099745 0.0439864
vn 0.9271753 0.0428320 -0.3721711
vt 0.4165498 6.5000062
v 1.4950950 1.9099745 0.0439864
vn 0.9271753 0.0428320 -0.3721711
vt 0.4165498 -5.5000000
v 0.9592602 1.9099745 0.0439864
vn -0.9271746 0.0428403 -0.3721721
vt 0.0449433 -5.5000000
v 1.4920330 -2.6153355 0.9484185
vn 0.9229134 -0.0330632 0.3835854
vt 0.4165498 1.1206820
v 0.9623223 -2.6266134 0.2813412
vn -0.9254573 -0.1691976 -0.3389706
vt 0.0449433 2.1068530
v 1.2187639 -2.4778025 0.9448873
vn -0.9983504 -0.0010081 -0.0574061
vt 1.0000000 0.9871393
v 1.2369339 2.5033937 0.9258606
vn 0.9980115 0.0006255 -0.0630284
vt 1.0000000 -3.8671980

g group_123565792_140627885894880
f 1/1/1 2/2/2 3/3/3 
f 1/1/1 4/4/4 5/5/5 
f 4/4/4 6/6/6 5/5/5 
f 7/7/7 8/8/8 9/9/9 
f 10/10/10 7/7/7 11/11/11 
f 12/12/12 10/10/10 13/13/13 
f 2/2/2 12/12/12 14/14/14 
f 15/15/15 8/8/8 16/16/16 
f 17/17/17 18/18/18 19/19/19 
f 20/20/20 16/16/16 21/21/21 
f 22/22/22 23/23/23 24/24/24 
f 24/24/24 25/25/25 26/26/26 
f 26/26/26 27/27/27 28/28/28 
f 29/29/29 30/30/30 31/31/31 
f 31/31/31 32/32/32 33/33/33 
f 33/33/33 34/34/34 35/35/35 
f 35/35/35 36/36/36 22/22/22 
f 37/37/37 38/38/38 39/39/39 
f 39/39/39 40/40/40 41/41/41 
f 40/40/40 42/42/42 41/41/41 
f 43/43/43 44/44/44 45/45/45 
f 45/45/45 46/46/46 47/47/47 
f 47/47/47 48/48/48 49/49/49 
f 49/49/49 50/50/50 37/37/37 
f 43/43/43 51/51/51 44/44/44 
f 52/52/52 53/53/53 51/51/51 
f 54/54/54 55/55/55 56/56/56 
f 57/57/57 58/58/58 54/54/54 
f 59/59/59 58/58/58 57/57/57 
f 60/60/60 61/61/61 62/62/62 
f 63/63/63 64/64/64 60/60/60 
f 65/65/65 66/66/66 63/63/63 
f 56/56/56 67/67/67 65/65/65 
f 68/68/68 69/69/69 70/70/70 
f 71/71/71 72/72/72 73/73/73 
f 68/68/68 74/74/74 69/69/69 
f 71/71/71 73/73/73 75/75/75 
f 74/74/74 76/76/76 77/77/77 
f 78/78/78 79/79/79 75/75/75 
f 80/80/80 81/81/81 82/82/82 
f 83/83/83 84/84/84 85/85/85 
f 86/86/86 87/87/87 80/80/80 
f 88/88/88 89/89/89 90/90/90 
f 91/91/91 92/92/92 86/86/86 
f 93/93/93 88/88/88 94/94/94 
f 91/91/91 70/70/70 92/92/92 
f 93/93/93 94/94/94 72/72/72 
f 85/85/85 95/95/95 83/83/83 
f 82/82/82 96/96/96 97/97/97 
f 98/98/98 99/99/99 100/100/100 
f 101/101/101 102/102/102 103/103/103 
f 97/97/97 104/104/104 105/105/105 
f 95/95/95 106/106/106 107/107/107 
f 101/101/101 103/103/103 108/108/108 
f 109/109/109 110/110/110 111/111/111 
f 112/112/112 113/113/113 114/114/114 
f 110/110/110 115/115/115 116/116/116 
f 114/114/114 117/117/117 118/118/118 
f 119/119/119 120/120/120 121/121/121 
f 118/118/118 122/122/122 123/123/123 
f 124/124/124 125/125/125 126/126/126 
f 127/127/127 128/128/128 108/108/108 
f 129/129/129 130/130/130 124/124/124 
f 131/131/131 132/132/132 133/133/133 
f 134/134/134 135/135/135 129/129/129 
f 136/136/136 131/131/131 137/137/137 
f 134/134/134 109/109/109 135/135/135 
f 136/136/136 137/137/137 112/112/112 
f 19/19/19 138/138/138 29/29/29 
f 139/139/139 140/140/140 141/141/141 
f 141/141/141 142/142/142 143/143/143 
f 99/99/99 126/126/126 144/144/144 
f 145/145/145 146/146/146 147/147/147 
f 147/147/147 146/146/146 148/148/148 
f 149/149/149 150/150/150 146/146/146 
f 146/146/146 150/150/150 148/148/148 
f 149/149/149 151/151/151 150/150/150 
f 150/150/150 151/151/151 152/152/152 
f 153/153/153 154/154/154 155/155/155 
f 155/155/155 154/154/154 156/156/156 
f 155/155/155 157/157/157 153/153/153 
f 153/153/153 157/157/157 158/158/158 
f 159/159/159 160/160/160 161/161/161 
f 161/161/161 160/160/160 162/162/162 
f 162/162/162 163/163/163 161/161/161 
f 161/161/161 163/163/163 164/164/164 
f 164/164/164 163/163/163 165/165/165 
f 165/165/165 163/163/163 166/166/166 
f 167/167/167 168/168/168 169/169/169 
f 169/169/169 168/168/168 170/170/170 
f 168/168/168 167/167/167 171/171/171 
f 171/171/171 167/167/167 172/172/172 
f 173/173/173 174/174/174 175/175/175 
f 176/176/176 177/177/177 178/178/178 
f 6/6/6 28/28/28 179/179/179 
f 42/42/42 180/180/180 181/181/181 
f 76/76/76 123/123/123 182/182/182 
f 79/79/79 121/121/121 183/183/183 
f 184/184/184 185/185/185 175/175/175 
f 186/186/186 187/187/187 178/178/178 
f 2/2/2 14/14/14 3/3/3 
f 1/1/1 3/3/3 4/4/4 
f 6/6/6 179/179/179 5/5/5 
f 8/8/8 15/15/15 9/9/9 
f 7/7/7 9/9/9 11/11/11 
f 10/10/10 11/11/11 13/13/13 
f 12/12/12 13/13/13 14/14/14 
f 8/8/8 188/188/188 16/16/16 
f 18/18/18 138/138/138 19/19/19 
f 16/16/16 188/188/188 21/21/21 
f 23/23/23 25/25/25 24/24/24 
f 25/25/25 27/27/27 26/26/26 
f 27/27/27 189/189/189 28/28/28 
f 30/30/30 32/32/32 31/31/31 
f 32/32/32 34/34/34 33/33/33 
f 34/34/34 36/36/36 35/35/35 
f 36/36/36 23/23/23 22/22/22 
f 38/38/38 190/190/190 39/39/39 
f 39/39/39 190/190/190 40/40/40 
f 42/42/42 181/181/181 41/41/41 
f 44/44/44 46/46/46 45/45/45 
f 46/46/46 48/48/48 47/47/47 
f 48/48/48 50/50/50 49/49/49 
f 50/50/50 38/38/38 37/37/37 
f 51/51/51 191/191/191 44/44/44 
f 53/53/53 191/191/191 51/51/51 
f 55/55/55 67/67/67 56/56/56 
f 58/58/58 55/55/55 54/54/54 
f 59/59/59 180/180/180 58/58/58 
f 61/61/61 143/143/143 62/62/62 
f 64/64/64 61/61/61 60/60/60 
f 66/66/66 64/64/64 63/63/63 
f 67/67/67 66/66/66 65/65/65 
f 69/69/69 192/192/192 70/70/70 
f 72/72/72 193/193/193 73/73/73 
f 74/74/74 77/77/77 69/69/69 
f 73/73/73 78/78/78 75/75/75 
f 76/76/76 182/182/182 77/77/77 
f 79/79/79 183/183/183 75/75/75 
f 81/81/81 96/96/96 82/82/82 
f 84/84/84 89/89/89 85/85/85 
f 87/87/87 81/81/81 80/80/80 
f 89/89/89 84/84/84 90/90/90 
f 92/92/92 87/87/87 86/86/86 
f 88/88/88 90/90/90 94/94/94 
f 70/70/70 192/192/192 92/92/92 
f 94/94/94 193/193/193 72/72/72 
f 95/95/95 107/107/107 83/83/83 
f 96/96/96 104/104/104 97/97/97 
f 99/99/99 144/144/144 100/100/100 
f 102/102/102 194/194/194 103/103/103 
f 104/104/104 195/195/195 105/105/105 
f 106/106/106 196/196/196 107/107/107 
f 103/103/103 127/127/127 108/108/108 
f 110/110/110 116/116/116 111/111/111 
f 113/113/113 117/117/117 114/114/114 
f 115/115/115 119/119/119 116/116/116 
f 117/117/117 197/197/197 118/118/118 
f 119/119/119 115/115/115 120/120/120 
f 118/118/118 197/197/197 122/122/122 
f 125/125/125 198/198/198 126/126/126 
f 128/128/128 132/132/132 108/108/108 
f 130/130/130 125/125/125 124/124/124 
f 132/132/132 128/128/128 133/133/133 
f 135/135/135 130/130/130 129/129/129 
f 131/131/131 133/133/133 137/137/137 
f 109/109/109 111/111/111 135/135/135 
f 137/137/137 113/113/113 112/112/112 
f 138/138/138 30/30/30 29/29/29 
f 140/140/140 142/142/142 141/141/141 
f 142/142/142 62/62/62 143/143/143 
f 126/126/126 198/198/198 144/144/144 
f 174/174/174 184/184/184 175/175/175 
f 177/177/177 186/186/186 178/178/178 
f 28/28/28 189/189/189 179/179/179 
f 180/180/180 59/59/59 181/181/181 
f 123/123/123 122/122/122 182/182/182 
f 121/121/121 120/120/120 183/183/183 
f 185/185/185 199/199/199 175/175/175 
f 187/187/187 200/200/200 178/178/178 
