v -1.0723091 2.3149488 0.5708117
vn 0.0000000 0.9743702 0.2249504
vt 0.6878234 0.4970454
v -1.4024049 2.3149488 0.5708117
vn 0.0000000 0.9743702 0.2249503
vt 0.6878234 0.4591446
v -1.0723089 2.2325013 0.7409292
vn 0.0000000 0.7802745 0.6254373
vt 0.7106756 0.4970454
v -1.4024049 2.2325013 0.7409292
vn 0.0000000 0.7802747 0.6254371
vt 0.7106757 0.4591446
v -1.0723089 2.0844076 0.8584273
vn 0.0000000 0.4316361 0.9020478
vt 0.7335287 0.4970454
v -1.4024045 2.0844076 0.8584273
vn 0.0000000 0.4316362 0.9020478
vt 0.7335287 0.4591446
v -1.0723089 1.8999988 0.9000338
vn 0.0000000 -0.0024938 0.9999969
vt 0.7563820 0.4970454
v -1.4024049 1.8999988 0.9000338
vn 0.0000000 -0.0024941 0.9999969
vt 0.7563820 0.4591446
v -1.0723091 1.7158003 0.8575081
vn 0.0000000 -0.4361290 0.8998842
vt 0.7792348 0.4970454
v -1.4024049 1.7158003 0.8575081
vn 0.0000000 -0.4361291 0.8998842
vt 0.7792348 0.4591446
v -1.0723091 1.5682943 0.7392732
vn 0.0000000 -0.7833835 0.6215386
vt 0.7563820 0.4970454
v -1.4024049 1.5682943 0.7392732
vn 0.0000000 -0.7833835 0.6215388
vt 0.7563820 0.4591446
v -1.0723090 1.4866961 0.5687467
vn 0.0000000 -0.9754799 0.2200886
vt 0.7792349 0.4970454
v -1.4024049 1.4866961 0.5687467
vn 0.0000000 -0.9754799 0.2200887
vt 0.7792349 0.4591446
v -1.0723090 1.4871678 0.3797035
vn 0.0000000 -0.9743702 -0.2249508
vt 0.7563820 0.4970454
v -1.4024049 1.4871678 0.3797035
vn 0.0000000 -0.9743701 -0.2249509
vt 0.7563822 0.4591446
v -1.0723090 1.5696149 0.2095860
vn 0.0000000 -0.7802752 -0.6254364
vt 0.7335288 0.4970454
v -1.4024049 1.5696149 0.2095860
vn -0.0000001 -0.7802751 -0.6254365
vt 0.7335288 0.4591446
v -1.0723090 1.7177086 0.0920880
vn -0.0000001 -0.4316360 -0.9020479
vt 0.7106757 0.4970454
v -1.4024049 1.7177087 0.0920880
vn -0.0000002 -0.4316357 -0.9020481
vt 0.7106758 0.4591446
v -1.0723091 1.9021171 0.0504815
vn -0.0000000 0.0024934 -0.9999969
vt 0.6878234 0.4970454
v -1.4024049 1.9021171 0.0504815
vn 0.0000000 0.0024933 -0.9999969
vt 0.6878234 0.4591446
v -1.0723089 2.0863156 0.0930071
vn 0.0000000 0.4361285 -0.8998844
vt 0.6649697 0.4970454
v -1.4024049 2.0863156 0.0930071
vn 0.0000000 0.4361284 -0.8998845
vt 0.6649697 0.4591446
v -1.0723089 2.2338221 0.2112422
vn 0.0000000 0.7833841 -0.6215380
vt 0.6420898 0.4971729
v -1.4024049 2.2338221 0.2112422
vn 0.0000000 0.7833841 -0.6215379
vt 0.6421174 0.4591446
v -1.0723091 2.3154197 0.3817688
vn 0.0000000 0.9754798 -0.2200893
vt 0.6649696 0.4970454
v -1.4024049 2.3154197 0.3817688
vn 0.0000000 0.9754798 -0.2200892
vt 0.6649696 0.4591446
v -1.0723091 2.3154197 0.3817688
vn 1.0000000 0.0000029 0.0000000
vt 0.3080083 0.3479476
v -1.0723091 2.3149488 0.5708117
vn 1.0000000 0.0000029 0.0000000
vt 0.2985937 0.3500963
v -1.0723089 2.2338221 0.2112422
vn 1.0000000 0.0000002 0.0000000
vt 0.3155582 0.3419265
v -1.0723089 2.2325013 0.7409292
vn 1.0000000 0.0000005 0.0000000
vt 0.2891795 0.3479476
v -1.0723089 2.0844076 0.8584273
vn 1.0000000 0.0000000 0.0000000
vt 0.2816299 0.3419266
v -1.0723089 1.8999988 0.9000338
vn 1.0000000 -0.0000008 -0.0000004
vt 0.2774402 0.3332247
v -1.0723091 1.7158003 0.8575081
vn 1.0000000 -0.0000006 -0.0000001
vt 0.2774402 0.3235676
v -1.0723091 1.5682943 0.7392732
vn 1.0000000 -0.0000000 0.0000004
vt 0.2816299 0.3148678
v -1.0723090 1.4866961 0.5687467
vn 1.0000000 0.0000000 0.0000004
vt 0.2891795 0.3088461
v -1.0723090 1.4871678 0.3797035
vn 1.0000000 -0.0000002 -0.0000000
vt 0.2985937 0.3066961
v -1.0723090 1.5696149 0.2095860
vn 1.0000000 -0.0000002 -0.0000001
vt 0.3080083 0.3088461
v -1.0723090 1.7177086 0.0920880
vn 1.0000000 -0.0000001 -0.0000005
vt 0.3155582 0.3148678
v -1.0723091 1.9021171 0.0504815
vn 1.0000000 0.0000000 -0.0000016
vt 0.3197479 0.3235676
v -1.4024049 2.2325013 0.7409292
vn -0.9999889 -0.0036823 -0.0029503
vt 0.5349061 0.3465994
v -1.4020292 2.1703539 0.6911142
vn -0.9999904 -0.0034332 -0.0027242
vt 0.5278032 0.3409316
v -1.4024045 2.0844076 0.8584273
vn -0.9999909 -0.0019059 -0.0038289
vt 0.5178379 0.3605886
v -1.3339728 1.9982333 0.4752576
vn -0.8210232 0.5708948 -0.0000015
vt 0.5504960 0.6189047
v -1.4015433 1.9010580 0.4752576
vn -1.0000000 0.0000007 -0.0000006
vt 0.5376713 0.6189705
v -1.3339731 1.9697713 0.5439710
vn -0.8210242 0.4036838 0.4036815
vt 0.5473511 0.6278680
v -1.3339731 1.9010580 0.5724331
vn -0.8210243 0.0000000 0.5708932
vt 0.5376484 0.6315517
v -1.3339731 1.9010580 0.5724331
vn -0.8210243 0.0000000 0.5708932
vt 0.5376484 0.6314968
v -1.3339731 1.8323447 0.5439710
vn -0.8210242 -0.4036828 0.4036826
vt 0.5288591 0.6279315
v -1.3339731 1.8038826 0.4752576
vn -0.8210242 -0.5708935 -0.0000000
vt 0.5252236 0.6189182
v -1.3339731 1.8323447 0.4065443
vn -0.8210241 -0.4036817 -0.4036837
vt 0.5288399 0.6107501
v -1.3339728 1.9010580 0.3780822
vn -0.8210235 0.0000015 -0.5708945
vt 0.5376532 0.6064438
v -1.3339728 1.9010580 0.3780822
vn -0.8210235 0.0000015 -0.5708945
vt 0.5376532 0.6063884
v -1.3339728 1.9697713 0.4065442
vn -0.8210232 0.4036837 -0.4036835
vt 0.5473511 0.6107523
v -1.4024049 2.3149488 0.5708117
vn -0.9999916 -0.0039844 -0.0009803
vt 0.5446070 0.3271914
v -1.4024049 2.3154197 0.3817688
vn -0.9999933 -0.0035107 0.0010854
vt 0.5445032 0.3050287
v -1.4020292 2.2375331 0.4760967
vn -0.9999914 -0.0041536 0.0000924
vt 0.5356743 0.3160785
v -1.4024049 2.2338221 0.2112422
vn -0.9999899 -0.0036480 0.0026275
vt 0.5351875 0.2854396
v -1.4024049 1.5696149 0.2095860
vn -0.9999896 0.0034541 0.0029665
vt 0.4580623 0.2852473
v -1.4024049 1.4871678 0.3797035
vn -0.9999916 0.0039843 0.0009803
vt 0.4486414 0.3047897
v -1.4020292 1.6317625 0.2594011
vn -0.9999897 0.0033870 0.0030105
vt 0.4651871 0.2909389
v -1.4024049 2.0863156 0.0930071
vn -0.9999909 -0.0019256 0.0038207
vt 0.5179876 0.2716089
v -1.4020292 2.1714268 0.2607467
vn -0.9999894 -0.0038139 0.0025543
vt 0.5280219 0.2910956
v -1.4020292 2.1703539 0.6911142
vn -0.9637359 -0.2109634 -0.1634244
vt 0.5278032 0.3409316
v -1.3339731 1.9697713 0.5439710
vn -0.9668737 -0.1812110 -0.1797715
vt 0.5048462 0.3242917
v -1.4020289 2.0000846 0.7978491
vn -0.9616273 -0.0771263 -0.2632956
vt 0.5080713 0.3535266
v -1.4020292 2.1714268 0.2607467
vn -0.9637071 -0.2118532 0.1624400
vt 0.5280219 0.2910956
v -1.3339728 1.9982333 0.4752576
vn -0.9652432 -0.2613535 -0.0001694
vt 0.5082822 0.3159812
v -1.4020292 2.2375331 0.4760967
vn -0.9618582 -0.2735475 -0.0007218
vt 0.5356743 0.3160785
v -1.4020292 1.5645832 0.4744187
vn -0.9999914 0.0041400 0.0000103
vt 0.4574069 0.3158897
v -1.4024049 1.4866961 0.5687467
vn -0.9999916 0.0039892 -0.0009604
vt 0.4484339 0.3269515
v -1.4020292 1.8004240 0.7973512
vn -0.9999912 0.0011771 -0.0040390
vt 0.4848242 0.3534687
v -1.4024049 1.8999988 0.9000338
vn -0.9999915 0.0000112 -0.0041167
vt 0.4964230 0.3650137
v -1.4020289 2.0000846 0.7978491
vn -0.9999912 -0.0011555 -0.0040440
vt 0.5080713 0.3535266
v -1.4020292 1.6306895 0.6897687
vn -0.9999904 0.0034463 -0.0027079
vt 0.4651510 0.3407753
v -1.4024049 1.7158003 0.8575081
vn -0.9999909 0.0019257 -0.0038209
vt 0.4750368 0.3604819
v -1.4020292 1.6317625 0.2594011
vn -0.9637359 0.2109632 0.1634245
vt 0.4651871 0.2909389
v -1.3339731 1.8323447 0.4065443
vn -0.9668735 0.1812130 0.1797706
vt 0.4882065 0.3076461
v -1.4020292 1.8020314 0.1526663
vn -0.9616269 0.0771269 0.2632966
vt 0.4850442 0.2784485
v -1.4020292 2.0016921 0.1531641
vn -0.9616143 -0.0784217 0.2629603
vt 0.5082241 0.2785063
v -1.3339728 1.9697713 0.4065442
vn -0.9669222 -0.1809819 0.1797418
vt 0.5048806 0.3076876
v -1.3339731 1.8323447 0.5439710
vn -0.9669223 0.1809815 -0.1797412
vt 0.4881571 0.3242501
v -1.3339731 1.8038826 0.4752576
vn -0.9652431 0.2613537 0.0001688
vt 0.4847633 0.3159487
v -1.4020292 1.6306895 0.6897687
vn -0.9637073 0.2118527 -0.1624396
vt 0.4651510 0.3407753
v -1.4024049 1.7177087 0.0920880
vn -0.9999920 0.0019393 0.0035044
vt 0.4753246 0.2715025
v -1.4020292 1.8020314 0.1526663
vn -0.9999911 0.0012676 0.0040390
vt 0.4850442 0.2784485
v -1.4024049 1.9021171 0.0504815
vn -0.9999915 -0.0000103 0.0041162
vt 0.4966715 0.2667736
v -1.4020292 2.0016921 0.1531641
vn -0.9999912 -0.0011768 0.0040387
vt 0.5082241 0.2785063
v -1.3339728 1.9010580 0.3780822
vn -0.9666446 0.0000476 0.2561216
vt 0.4965530 0.3040012
v -1.4020292 1.8004240 0.7973512
vn -0.9616145 0.0784219 -0.2629592
vt 0.4848242 0.3534687
v -1.3339731 1.9010580 0.5724331
vn -0.9666448 -0.0000461 -0.2561208
vt 0.4964924 0.3279486
v -1.0723089 2.0863156 0.0930071
vn 1.0000000 -0.0000018 0.0000023
vt 0.3197479 0.3332247
v -1.4024049 1.5682943 0.7392732
vn -0.9999889 0.0036964 -0.0029327
vt 0.4580309 0.3464077
v -1.4020292 1.5645832 0.4744187
vn -0.9618583 0.2735471 0.0007217
vt 0.4574069 0.3158897
v -1.0723091 1.7158003 0.8575081
vn 0.0000000 -0.4361290 0.8998842
vt 0.7792348 0.4970454
v -1.4024049 1.7158003 0.8575081
vn 0.0000000 -0.4361291 0.8998842
vt 0.7792348 0.4591446
v -1.0723091 1.5682943 0.7392732
vn 0.0000000 -0.7833835 0.6215386
vt 0.7563820 0.4970454
v -1.4024049 1.5682943 0.7392732
vn 0.0000000 -0.7833835 0.6215388
vt 0.7563820 0.4591446
v -1.0723090 1.4866961 0.5687467
vn 0.0000000 -0.9754799 0.2200886
vt 0.7792349 0.4970454
v -1.4024049 1.4866961 0.5687467
vn 0.0000000 -0.9754799 0.2200887
vt 0.7792349 0.4591446
v -1.0723089 2.2338221 0.2112422
vn 0.0000000 0.7833841 -0.6215380
vt 0.6420898 0.4971729
v -1.4024049 2.2338221 0.2112422
vn 0.0000000 0.7833841 -0.6215379
vt 0.6421174 0.4591446

g group_123709168_140627885565040
f 1/1/1 2/2/2 3/3/3 
f 3/3/3 4/4/4 5/5/5 
f 5/5/5 6/6/6 7/7/7 
f 7/7/7 8/8/8 9/9/9 
f 96/96/96 10/10/10 11/11/11 
f 98/98/98 12/12/12 13/13/13 
f 100/100/100 14/14/14 15/15/15 
f 15/15/15 16/16/16 17/17/17 
f 17/17/17 18/18/18 19/19/19 
f 19/19/19 20/20/20 21/21/21 
f 21/21/21 22/22/22 23/23/23 
f 23/23/23 24/24/24 25/25/25 
f 102/102/102 26/26/26 27/27/27 
f 27/27/27 28/28/28 1/1/1 
f 29/29/29 30/30/30 31/31/31 
f 32/32/32 33/33/33 31/31/31 
f 34/34/34 35/35/35 31/31/31 
f 36/36/36 37/37/37 31/31/31 
f 38/38/38 39/39/39 31/31/31 
f 40/40/40 41/41/41 31/31/31 
f 42/42/42 43/43/43 44/44/44 
f 45/45/45 46/46/46 47/47/47 
f 47/47/47 46/46/46 48/48/48 
f 49/49/49 46/46/46 50/50/50 
f 50/50/50 46/46/46 51/51/51 
f 51/51/51 46/46/46 52/52/52 
f 52/52/52 46/46/46 53/53/53 
f 54/54/54 46/46/46 55/55/55 
f 55/55/55 46/46/46 45/45/45 
f 56/56/56 57/57/57 58/58/58 
f 57/57/57 59/59/59 58/58/58 
f 42/42/42 56/56/56 43/43/43 
f 60/60/60 61/61/61 62/62/62 
f 59/59/59 63/63/63 64/64/64 
f 65/65/65 66/66/66 67/67/67 
f 68/68/68 69/69/69 70/70/70 
f 71/71/71 61/61/61 72/72/72 
f 73/73/73 74/74/74 75/75/75 
f 76/76/76 77/77/77 73/73/73 
f 71/71/71 72/72/72 76/76/76 
f 78/78/78 79/79/79 80/80/80 
f 81/81/81 82/82/82 68/68/68 
f 65/65/65 69/69/69 66/66/66 
f 83/83/83 84/84/84 85/85/85 
f 78/78/78 84/84/84 79/79/79 
f 86/86/86 60/60/60 87/87/87 
f 63/63/63 88/88/88 89/89/89 
f 81/81/81 90/90/90 82/82/82 
f 83/83/83 85/85/85 91/91/91 
f 66/66/66 92/92/92 67/67/67 
f 74/74/74 44/44/44 75/75/75 
f 73/73/73 77/77/77 74/74/74 
f 88/88/88 86/86/86 87/87/87 
f 88/88/88 87/87/87 89/89/89 
f 2/2/2 4/4/4 3/3/3 
f 4/4/4 6/6/6 5/5/5 
f 6/6/6 8/8/8 7/7/7 
f 8/8/8 97/97/97 9/9/9 
f 10/10/10 99/99/99 11/11/11 
f 12/12/12 101/101/101 13/13/13 
f 14/14/14 16/16/16 15/15/15 
f 16/16/16 18/18/18 17/17/17 
f 18/18/18 20/20/20 19/19/19 
f 20/20/20 22/22/22 21/21/21 
f 22/22/22 24/24/24 23/23/23 
f 24/24/24 103/103/103 25/25/25 
f 26/26/26 28/28/28 27/27/27 
f 28/28/28 2/2/2 1/1/1 
f 30/30/30 32/32/32 31/31/31 
f 33/33/33 34/34/34 31/31/31 
f 35/35/35 36/36/36 31/31/31 
f 37/37/37 38/38/38 31/31/31 
f 39/39/39 40/40/40 31/31/31 
f 41/41/41 93/93/93 31/31/31 
f 43/43/43 75/75/75 44/44/44 
f 59/59/59 64/64/64 58/58/58 
f 56/56/56 58/58/58 43/43/43 
f 61/61/61 71/71/71 62/62/62 
f 63/63/63 89/89/89 64/64/64 
f 68/68/68 82/82/82 69/69/69 
f 76/76/76 94/94/94 77/77/77 
f 72/72/72 94/94/94 76/76/76 
f 65/65/65 70/70/70 69/69/69 
f 84/84/84 95/95/95 85/85/85 
f 78/78/78 95/95/95 84/84/84 
f 60/60/60 62/62/62 87/87/87 
f 80/80/80 79/79/79 90/90/90 
f 81/81/81 80/80/80 90/90/90 
f 92/92/92 83/83/83 91/91/91 
f 92/92/92 91/91/91 67/67/67 
