v -0.1759283 1.8616111 1.8928928
vn -0.9732723 0.0000000 -0.2296542
vt 0.0049187 0.9074908
v -0.1759283 1.8616111 2.0066781
vn -0.9946608 -0.0005543 0.1031972
vt 0.0049186 0.9212376
v -0.1759283 2.2460847 1.8928928
vn -0.9734147 -0.0000000 -0.2290501
vt 0.0502825 0.9074908
v -0.1759284 2.2468171 2.0066862
vn -0.9961864 -0.0000020 0.0872509
vt 0.0503493 0.9212371
v 0.1910809 1.8616111 1.8928927
vn 0.9732723 0.0000000 -0.2296542
vt 0.0049187 0.9074908
v 0.1910809 2.2460847 1.8928927
vn 0.9734145 0.0000001 -0.2290508
vt 0.0502825 0.9074903
v 0.1910808 1.8616111 2.0066781
vn 0.9957716 -0.0004974 0.0918628
vt 0.0049186 0.9212376
v 0.1910808 2.2468171 2.0066862
vn 0.9969893 -0.0000016 0.0775396
vt 0.0502825 0.9212371
v -0.0956114 2.2460852 1.8125761
vn -0.0000000 0.9999875 -0.0050060
vt 0.3704968 0.7415073
v -0.1538295 2.2462654 1.8485816
vn 0.0000000 0.9999977 0.0021294
vt 0.3664912 0.7479839
v 0.1107639 2.2460852 1.8125758
vn -0.0000000 0.9999875 -0.0050059
vt 0.3704968 0.7185473
v 0.1689821 2.2462654 1.8485816
vn 0.0000000 0.9999977 0.0021294
vt 0.3664912 0.7120708
v -0.1681031 2.2336068 2.0459812
vn -0.9642216 -0.0000484 0.2650976
vt 0.0487528 0.9263424
v -0.1672219 1.8616104 2.0480306
vn -0.9531283 -0.0005611 0.3025661
vt 0.0049187 0.9263419
v -0.1234241 2.1581719 2.1497271
vn -0.8858632 0.0000488 0.4639466
vt 0.0396392 0.9397236
v -0.1234241 1.8616083 2.1497867
vn -0.8624818 0.0001468 0.5060881
vt 0.0049165 0.9397253
v 0.0132132 1.8616083 2.2495768
vn 0.0035007 -0.0019852 0.9999919
vt 0.0049162 0.9607688
v 0.1039812 1.8616083 2.2073383
vn 0.6409963 -0.0004929 0.7675439
vt 0.0048964 0.9728637
v 0.0132133 2.0648165 2.2499802
vn 0.0041584 -0.0001747 0.9999914
vt 0.0283595 0.9607884
v 0.1039813 2.1065712 2.2072446
vn 0.7011504 0.0002112 0.7130135
vt 0.0333845 0.9729167
v -0.1681031 2.2336068 2.0459812
vn 0.0000064 0.9005453 0.4347623
vt 0.3442903 0.7495718
v -0.1234241 2.1581719 2.1497271
vn -0.0000003 0.7868347 0.6171638
vt 0.3300226 0.7446012
v 0.1841139 2.2334981 2.0461304
vn 0.0000910 0.8988407 0.4382756
vt 0.3442708 0.7103871
v 0.1447156 2.1581719 2.1497273
vn -0.0000006 0.7860811 0.6181235
vt 0.3300229 0.7147690
v -0.0792417 1.8616083 2.2073379
vn -0.6232567 -0.0004828 0.7820172
vt 0.0049154 0.9484898
v -0.0792417 2.1065712 2.2072444
vn -0.6800132 0.0002159 0.7331999
vt 0.0334035 0.9484837
v 0.1447156 1.8616083 2.1497869
vn 0.8825071 0.0001379 0.4702991
vt 0.0048839 0.9813817
v 0.1447156 2.1581719 2.1497273
vn 0.9049314 0.0000454 0.4255576
vt 0.0396064 0.9814401
v 0.1833223 1.8616104 2.0482154
vn 0.9626138 -0.0005034 0.2708771
vt 0.0048649 0.9945086
v 0.1841139 2.2334981 2.0461304
vn 0.9716154 -0.0000433 0.2365660
vt 0.0486856 0.9948445
v -0.0792417 2.1065712 2.2072444
vn -0.0000007 0.7382016 0.6745802
vt 0.3214259 0.7396849
v 0.1039813 2.1065712 2.2072446
vn -0.0000009 0.7380497 0.6747464
vt 0.3214261 0.7193014
v 0.0132133 2.0648165 2.2499802
vn -0.0000009 0.7152684 0.6988499
vt 0.3147791 0.7293991
v 0.1833223 1.8616104 2.0482154
vn 0.9626138 -0.0005034 0.2708771
vt 0.0049187 0.9263421
v 0.1841139 2.2334981 2.0461304
vn 0.9716154 -0.0000433 0.2365660
vt 0.0487528 0.9263421
v 0.1910808 2.2468171 2.0066862
vn 0.0000688 0.9887373 0.1496616
vt 0.3489022 0.7096121
v -0.1759284 2.2468171 2.0066862
vn 0.0000006 0.9890083 0.1478600
vt 0.3489021 0.7504421
v -0.1538295 2.2462654 1.8485816
vn -0.7385634 0.0000000 -0.6741841
vt 0.0502825 0.9015080
v -0.1538295 1.8613385 1.8485816
vn -0.7385319 -0.0000000 -0.6742185
vt 0.0049186 0.9015082
v 0.1689821 1.8613385 1.8485816
vn 0.7385325 0.0000000 -0.6742179
vt 0.0049187 0.9015082
v 0.1689821 2.2462654 1.8485816
vn 0.7385637 0.0000001 -0.6741837
vt 0.0502826 0.9015082
v -0.0956114 2.2460852 1.8125761
vn -0.5259923 -0.0000000 -0.8504894
vt 0.0502826 0.8932386
v -0.0956114 1.8616111 1.8125761
vn -0.5259922 -0.0000000 -0.8504894
vt 0.0049186 0.8932386
v 0.1107639 1.8616111 1.8125758
vn 0.5259945 0.0000001 -0.8504880
vt 0.0049186 0.8932386
v 0.1107639 2.2460852 1.8125758
vn 0.5259948 0.0000000 -0.8504878
vt 0.0502825 0.8932386
v -0.0956114 1.8616111 1.8125761
vn -0.0000012 -0.0000000 -1.0000000
vt 0.0049186 0.8932386
v -0.0956114 2.2460852 1.8125761
vn -0.0000012 -0.0000000 -1.0000000
vt 0.0502826 0.8932386
v 0.1107639 1.8616111 1.8125758
vn -0.0000012 -0.0000000 -1.0000000
vt 0.0049183 0.8683069
v 0.1107639 2.2460852 1.8125758
vn -0.0000012 -0.0000000 -1.0000000
vt 0.0502606 0.8683063
v -0.1759283 2.2460847 1.8928928
vn 0.0000003 0.9999979 -0.0020888
vt 0.3615618 0.7504421
v 0.1910809 2.2460847 1.8928927
vn -0.0000000 0.9999979 -0.0020878
vt 0.3615617 0.7096121
v -0.0000001 2.1211810 2.1849754
vn 0.0000002 0.0067922 0.9999769
vt 0.0037374 0.6899520
v 0.0357890 2.1211810 2.1753852
vn 0.4999977 0.0067922 0.8660001
vt 0.0037374 0.6874037
v 0.0000002 5.2294512 2.1638629
vn -0.0000008 0.0067923 0.9999769
vt 0.3891157 0.6899849
v 0.0252329 5.2294512 2.1571012
vn 0.4999932 0.0067921 0.8660027
vt 0.3891157 0.6874204
v 0.0000002 5.2294512 2.1638629
vn 0.0000039 -0.5257260 0.8506540
vt 0.3891157 0.6899849
v 0.0252329 5.2294512 2.1571012
vn 0.4253275 -0.5257345 0.7366816
vt 0.3891157 0.6874204
v 0.0000002 5.2384710 2.1694374
vn 0.0000031 -0.5257261 0.8506539
vt 0.3903547 0.6899849
v 0.0280201 5.2384710 2.1619294
vn 0.4253199 -0.5257335 0.7366868
vt 0.3903547 0.6874204
v 0.0000002 5.2384710 2.1694374
vn -0.0000005 0.0014017 0.9999990
vt 0.3903547 0.6899849
v 0.0280201 5.2384710 2.1619294
vn 0.5000024 0.0014019 0.8660229
vt 0.3903547 0.6874204
v 0.0000002 5.3010869 2.1693497
vn -0.0000004 0.0014017 0.9999990
vt 0.3974292 0.6899849
v 0.0279762 5.3010869 2.1618533
vn 0.5000011 0.0014012 0.8660237
vt 0.3974292 0.6874204
v 0.0000002 5.3010869 2.1693497
vn 0.0000051 0.9999901 -0.0044493
vt 0.2515685 0.6381085
v 0.0279762 5.3010869 2.1618533
vn -0.0022211 0.9999902 -0.0038369
vt 0.2482304 0.6372141
v 0.0000002 5.3010130 2.1526546
vn 0.0000100 0.9999901 -0.0044492
vt 0.2515685 0.6361263
v 0.0196288 5.3010130 2.1473954
vn -0.0022240 0.9999902 -0.0038279
vt 0.2492230 0.6354984
v 0.0000002 5.3010130 2.1526546
vn 0.0000000 0.1232090 -0.9923808
vt 0.4516455 0.8932295
v 0.0196288 5.3010130 2.1473954
vn -0.4961900 0.1232094 -0.8594271
vt 0.4519816 0.8913092
v 0.0000001 4.9848170 2.1133974
vn -0.0000228 1.0000000 -0.0000494
vt 0.4828851 0.8923425
v 0.0619885 2.1211810 2.1491854
vn 0.8660053 0.0067921 0.4999888
vt 0.0037374 0.6848547
v 0.0437046 5.2294512 2.1386299
vn 0.8660028 0.0067921 0.4999931
vt 0.3891157 0.6848570
v 0.0437046 5.2294512 2.1386299
vn 0.7367008 -0.5257046 0.4253313
vt 0.3891157 0.6848570
v 0.0485321 5.2384710 2.1414173
vn 0.7367001 -0.5257024 0.4253351
vt 0.3903547 0.6848570
v 0.0485321 5.2384710 2.1414173
vn 0.8660242 0.0014012 0.5000001
vt 0.3903547 0.6848570
v 0.0484561 5.3010869 2.1413736
vn 0.8660231 0.0014007 0.5000020
vt 0.3974292 0.6848570
v 0.0484561 5.3010869 2.1413736
vn -0.0038340 0.9999903 -0.0022135
vt 0.2458012 0.6347789
v 0.0339980 5.3010130 2.1330261
vn -0.0038340 0.9999902 -0.0022135
vt 0.2475199 0.6337900
v 0.0339980 5.3010130 2.1330261
vn -0.8594269 0.1232092 -0.4961905
vt 0.4523208 0.8893719
v 0.0715781 2.1211810 2.1133974
vn 0.9999769 0.0067922 -0.0000062
vt 0.0037374 0.6823050
v 0.0504656 5.2294512 2.1133974
vn 0.9999769 0.0067922 -0.0000005
vt 0.3891157 0.6823828
v 0.0504656 5.2294512 2.1133974
vn 0.8506691 -0.5257016 -0.0000031
vt 0.3891157 0.6823828
v 0.0560401 5.2384710 2.1133976
vn 0.8506681 -0.5257031 0.0000038
vt 0.3903547 0.6823828
v 0.0560401 5.2384710 2.1133976
vn 0.9999990 0.0014013 0.0000022
vt 0.3903547 0.6823828
v 0.0559523 5.3010869 2.1133974
vn 0.9999990 0.0014028 -0.0000021
vt 0.3974292 0.6823828
v 0.0559523 5.3010869 2.1133974
vn -0.0044271 0.9999902 0.0000000
vt 0.2449150 0.6314709
v 0.0392575 5.3010130 2.1133976
vn -0.0044271 0.9999902 -0.0000000
vt 0.2468984 0.6314707
v 0.0392575 5.3010130 2.1133976
vn -0.9923808 0.1232091 -0.0000016
vt 0.4526615 0.8874251
v 0.0619884 2.1211789 2.0776091
vn 0.8660008 0.0067921 -0.4999966
vt 0.0037359 0.6797550
v 0.0437046 5.2294512 2.0881650
vn 0.8660040 0.0067921 -0.4999909
vt 0.3891157 0.6797500
v 0.0437046 5.2294512 2.0881650
vn 0.7366989 -0.5257092 -0.4253288
vt 0.3891157 0.6797500
v 0.0485321 5.2384710 2.0853775
vn 0.7366939 -0.5257100 -0.4253365
vt 0.3903547 0.6797500
v 0.0485321 5.2384710 2.0853775
vn 0.8660236 0.0014031 -0.5000013
vt 0.3903547 0.6797500
v 0.0484561 5.3010869 2.0854216
vn 0.8660242 0.0014030 -0.5000002
vt 0.3974292 0.6797500
v 0.0484561 5.3010869 2.0854216
vn -0.0038340 0.9999903 0.0022135
vt 0.2458105 0.6281344
v 0.0339980 5.3010130 2.0937688
vn -0.0038340 0.9999902 0.0022135
vt 0.2475254 0.6291054
v 0.0339980 5.3010130 2.0937688
vn -0.8594280 0.1232088 0.4961886
vt 0.4530024 0.8854775
v 0.0357889 2.1211789 2.0514095
vn 0.4999948 0.0067922 -0.8660018
vt 0.0037344 0.6772061
v 0.0252330 5.2294512 2.0696936
vn 0.4999974 0.0067921 -0.8660003
vt 0.3891157 0.6771711
v 0.0252330 5.2294512 2.0696936
vn 0.4253403 -0.5257214 -0.7366835
vt 0.3891157 0.6771711
v 0.0280201 5.2384710 2.0648656
vn 0.4253329 -0.5257167 -0.7366912
vt 0.3903547 0.6771711
v 0.0280201 5.2384710 2.0648656
vn 0.5000002 0.0014032 -0.8660242
vt 0.3903547 0.6771711
v 0.0279762 5.3010869 2.0649416
vn 0.5000027 0.0014019 -0.8660227
vt 0.3974292 0.6771711
v 0.0279762 5.3010869 2.0649416
vn -0.0022136 0.9999903 0.0038340
vt 0.2482452 0.6257056
v 0.0196289 5.3010130 2.0793996
vn -0.0022136 0.9999902 0.0038340
vt 0.2491769 0.6274239
v 0.0196289 5.3010130 2.0793996
vn -0.4961925 0.1232088 0.8594257
vt 0.4533423 0.8835352
v -0.0000003 2.1211789 2.0418193
vn -0.0000003 0.0067922 -0.9999769
vt 0.0037329 0.6746578
v 0.0000002 5.2294512 2.0629318
vn 0.0000006 0.0067923 -0.9999769
vt 0.3891157 0.6746578
v 0.0000002 5.2294512 2.0629318
vn -0.0000083 -0.5256920 -0.8506750
vt 0.3891157 0.6746578
v 0.0000002 5.2384710 2.0573575
vn -0.0000063 -0.5256925 -0.8506747
vt 0.3903547 0.6746578
v 0.0000002 5.2384710 2.0573575
vn 0.0000003 0.0014017 -0.9999990
vt 0.3903547 0.6746578
v 0.0000002 5.3010869 2.0574453
vn 0.0000004 0.0014017 -0.9999990
vt 0.3974292 0.6746578
v 0.0000002 5.3010869 2.0574453
vn 0.0000000 0.9999902 0.0044271
vt 0.2515683 0.6248201
v 0.0000002 5.3010130 2.0741401
vn 0.0000000 0.9999902 0.0044271
vt 0.2515683 0.6268027
v 0.0000002 5.3010130 2.0741401
vn 0.0000000 0.1232088 0.9923808
vt 0.4536797 0.8816078
v -0.0000003 2.1211789 2.0418193
vn -0.0000003 0.0067922 -0.9999769
vt 0.0037374 0.7052367
v -0.0357894 2.1211789 2.0514095
vn -0.4999978 0.0067923 -0.8660001
vt 0.0037374 0.7026889
v 0.0000002 5.2294512 2.0629318
vn 0.0000006 0.0067923 -0.9999769
vt 0.3891157 0.7052367
v -0.0252325 5.2294512 2.0696936
vn -0.4999973 0.0067923 -0.8660004
vt 0.3891157 0.7028080
v 0.0000002 5.2294512 2.0629318
vn -0.0000083 -0.5256920 -0.8506750
vt 0.3891157 0.7052367
v -0.0252325 5.2294512 2.0696936
vn -0.4253328 -0.5257187 -0.7366898
vt 0.3891157 0.7028080
v 0.0000002 5.2384710 2.0573575
vn -0.0000063 -0.5256925 -0.8506747
vt 0.3903547 0.7052367
v -0.0280197 5.2384710 2.0648656
vn -0.4253256 -0.5257230 -0.7366909
vt 0.3903547 0.7028080
v 0.0000002 5.2384710 2.0573575
vn 0.0000003 0.0014017 -0.9999990
vt 0.3903547 0.7052367
v -0.0280197 5.2384710 2.0648656
vn -0.4999999 0.0014022 -0.8660244
vt 0.3903547 0.7028080
v 0.0000002 5.3010869 2.0574453
vn 0.0000004 0.0014017 -0.9999990
vt 0.3974292 0.7052367
v -0.0279758 5.3010869 2.0649416
vn -0.5000004 0.0014024 -0.8660241
vt 0.3974292 0.7028080
v -0.0279758 5.3010869 2.0649416
vn 0.0022136 0.9999903 0.0038340
vt 0.2548890 0.6257148
v -0.0196284 5.3010130 2.0793996
vn 0.0022135 0.9999902 0.0038340
vt 0.2538955 0.6274304
v -0.0196284 5.3010130 2.0793996
vn 0.4961884 0.1232086 0.8594282
vt 0.4533423 0.8835352
v -0.0619888 2.1211789 2.0776093
vn -0.8660027 0.0067924 -0.4999931
vt 0.0037374 0.7001415
v -0.0437042 5.2294512 2.0881650
vn -0.8660031 0.0067923 -0.4999925
vt 0.3891157 0.7002277
v -0.0437042 5.2294512 2.0881650
vn -0.7366965 -0.5257115 -0.4253302
vt 0.3891157 0.7002277
v -0.0485318 5.2384710 2.0853775
vn -0.7366934 -0.5257097 -0.4253376
vt 0.3903547 0.7002277
v -0.0485318 5.2384710 2.0853775
vn -0.8660240 0.0014024 -0.5000004
vt 0.3903547 0.7002277
v -0.0484557 5.3010869 2.0854213
vn -0.8660235 0.0014019 -0.5000014
vt 0.3974292 0.7002277
v -0.0484557 5.3010869 2.0854213
vn 0.0038340 0.9999903 0.0022136
vt 0.2573173 0.6281500
v -0.0339976 5.3010130 2.0937686
vn 0.0038340 0.9999902 0.0022136
vt 0.2556009 0.6290979
v -0.0339976 5.3010130 2.0937686
vn 0.8594259 0.1232088 0.4961922
vt 0.4530024 0.8854775
v -0.0715785 2.1211810 2.1133974
vn -0.9999769 0.0067924 -0.0000033
vt 0.0037374 0.6975944
v -0.0504653 5.2294512 2.1133974
vn -0.9999770 0.0067924 -0.0000019
vt 0.3891157 0.6975932
v -0.0504653 5.2294512 2.1133974
vn -0.8506707 -0.5256990 -0.0000025
vt 0.3891157 0.6975932
v -0.0560397 5.2384710 2.1133976
vn -0.8506716 -0.5256975 0.0000043
vt 0.3903547 0.6975932
v -0.0560397 5.2384710 2.1133976
vn -0.9999990 0.0014028 0.0000024
vt 0.3903547 0.6975932
v -0.0559519 5.3010869 2.1133974
vn -0.9999990 0.0014021 -0.0000004
vt 0.3974292 0.6975932
v -0.0559519 5.3010869 2.1133974
vn 0.0044271 0.9999902 -0.0000000
vt 0.2582032 0.6314733
v -0.0392571 5.3010130 2.1133974
vn 0.0044271 0.9999902 -0.0000000
vt 0.2562208 0.6314707
v -0.0392571 5.3010130 2.1133974
vn 0.9923808 0.1232086 0.0000001
vt 0.4526615 0.8874251
v -0.0619887 2.1211810 2.1491854
vn -0.8660040 0.0067923 0.4999909
vt 0.0037374 0.6950473
v -0.0437042 5.2294512 2.1386299
vn -0.8660023 0.0067923 0.4999940
vt 0.3891157 0.6951149
v -0.0437042 5.2294512 2.1386299
vn -0.7366980 -0.5257035 0.4253373
vt 0.3891157 0.6951149
v -0.0485318 5.2384710 2.1414173
vn -0.7366957 -0.5257065 0.4253376
vt 0.3903547 0.6951149
v -0.0485318 5.2384710 2.1414173
vn -0.8660248 0.0014026 0.4999992
vt 0.3903547 0.6951149
v -0.0484557 5.3010869 2.1413734
vn -0.8660249 0.0014024 0.4999989
vt 0.3974292 0.6951149
v -0.0484557 5.3010869 2.1413734
vn 0.0038340 0.9999903 -0.0022135
vt 0.2573085 0.6347942
v -0.0339976 5.3010130 2.1330261
vn 0.0038340 0.9999902 -0.0022135
vt 0.2555949 0.6338007
v -0.0339976 5.3010130 2.1330261
vn 0.8594281 0.1232089 -0.4961883
vt 0.4523208 0.8893719
v -0.0357892 2.1211810 2.1753852
vn -0.4999968 0.0067922 0.8660006
vt 0.0037374 0.6924998
v -0.0252326 5.2294512 2.1571012
vn -0.4999931 0.0067922 0.8660028
vt 0.3891157 0.6925499
v -0.0252326 5.2294512 2.1571012
vn -0.4253361 -0.5257335 0.7366773
vt 0.3891157 0.6925499
v -0.0280198 5.2384710 2.1619294
vn -0.4253258 -0.5257338 0.7366831
vt 0.3903547 0.6925499
v -0.0280198 5.2384710 2.1619294
vn -0.5000020 0.0014024 0.8660231
vt 0.3903547 0.6925499
v -0.0279758 5.3010869 2.1618533
vn -0.5000025 0.0014021 0.8660228
vt 0.3974292 0.6925499
v -0.0279758 5.3010869 2.1618533
vn 0.0022136 0.9999903 -0.0038340
vt 0.2548742 0.6372229
v -0.0196285 5.3010130 2.1473954
vn 0.0022186 0.9999902 -0.0038385
vt 0.2538852 0.6355046
v -0.0196285 5.3010130 2.1473954
vn 0.4961904 0.1232093 -0.8594269
vt 0.4519816 0.8913092
v 0.3678490 1.9883169 1.9970660
vn 1.0000000 0.0000007 0.0000001
vt 0.4271934 0.5563685
v 0.3678491 1.8966035 1.7676115
vn 1.0000000 0.0000002 0.0000003
vt 0.4457546 0.5364427
v 0.3678491 1.9315096 1.7603191
vn 1.0000000 0.0000001 0.0000004
vt 0.4424720 0.5343136
v 0.3678491 1.8966035 1.7676115
vn 0.0000001 -0.6313484 -0.7754993
vt 0.1011834 0.7121162
v -0.4339212 1.6491715 2.3366435
vn -0.0000001 -0.7805884 0.6250454
vt 0.1297887 0.7364596
v -0.4339212 1.8966030 1.7676116
vn 0.0000002 -0.6313477 -0.7754999
vt 0.1011833 0.7364596
v -0.4339212 1.8966030 1.7676116
vn -1.0000000 0.0000028 0.0000012
vt 0.4457543 0.5364427
v -0.4339212 1.6491715 2.3366435
vn -1.0000000 0.0000005 0.0000003
vt 0.4453331 0.6102995
v -0.4339211 1.9315096 1.7603192
vn -1.0000000 0.0000017 0.0000007
vt 0.4424696 0.5342847
v -0.4339211 1.9315096 1.7603192
vn -0.0000000 0.9723985 -0.2333265
vt 0.4310129 0.7902130
v -0.4339211 1.9883169 1.9970660
vn -0.0000000 0.9980833 -0.0618850
vt 0.4310129 0.8148662
v 0.3678491 1.9315096 1.7603191
vn -0.0000000 0.9723985 -0.2333265
vt 0.3738909 0.7902132
v 0.3678490 1.9883169 1.9970660
vn -0.0000003 0.9980832 -0.0618866
vt 0.3738909 0.8148661
v -0.4339211 1.9741566 2.1233680
vn -0.0000003 0.9429827 0.3328418
vt 0.4310129 0.8277441
v 0.3678490 1.9741571 2.1233680
vn -0.0000006 0.9429833 0.3328401
vt 0.3738909 0.8277439
v -0.4339211 1.9093679 2.2251217
vn -0.0000005 0.7533833 0.6575817
vt 0.4310129 0.8399155
v 0.3678490 1.9093683 2.2251220
vn -0.0000006 0.7533835 0.6575814
vt 0.3738909 0.8399153
v -0.4339211 1.8153485 2.3047273
vn -0.0000005 0.4315052 0.9021105
vt 0.4310129 0.8518185
v 0.3678490 1.8153490 2.3047276
vn -0.0000003 0.4315048 0.9021106
vt 0.3738909 0.8518186
v -0.4339212 1.6491715 2.3366435
vn -0.0000001 -0.7805884 0.6250454
vt 0.4310127 0.8674993
v 0.3678491 1.6491715 2.3366435
vn 0.0000000 -0.7805891 0.6250446
vt 0.3738909 0.8674995
v 0.3678491 1.8966035 1.7676115
vn 0.0000001 -0.6313484 -0.7754993
vt 0.0832274 0.7637889
v -0.4339212 1.8966030 1.7676116
vn 0.0000002 -0.6313477 -0.7754999
vt 0.0832274 0.7304538
v 0.3678491 1.9315096 1.7603191
vn -0.0000000 -0.2044991 -0.9788668
vt 0.0853063 0.7637885
v -0.4339211 1.9315096 1.7603192
vn -0.0000001 -0.2044965 -0.9788673
vt 0.0853061 0.7304536
v 0.3678490 1.8153490 2.3047276
vn 1.0000000 0.0000005 0.0000002
vt 0.4305986 0.6014491
v 0.3678491 1.6491715 2.3366435
vn 1.0000000 0.0000006 0.0000003
vt 0.4447586 0.6099312
v 0.3678490 1.9093683 2.2251220
vn 1.0000000 0.0000002 0.0000002
vt 0.4227735 0.5877904
v 0.3678490 1.9741571 2.1233680
vn 1.0000000 0.0000004 0.0000002
vt 0.4213342 0.5717934
v 0.3678491 1.6491715 2.3366435
vn 0.0000000 -0.7805891 0.6250446
vt 0.1297887 0.7121148
v -0.4339211 1.8153485 2.3047273
vn -1.0000000 0.0000007 0.0000008
vt 0.4305060 0.6013820
v -0.4339211 1.9093679 2.2251217
vn -1.0000000 0.0000005 0.0000004
vt 0.4226867 0.5878286
v -0.4339211 1.9741566 2.1233680
vn -1.0000000 0.0000003 0.0000001
vt 0.4213140 0.5717642
v -0.4339211 1.9883169 1.9970660
vn -1.0000000 0.0000002 -0.0000000
vt 0.4273205 0.5562894
v 0.0000002 5.3010130 2.1526546
vn 0.0000000 0.1232090 -0.9923808
vt 0.4516455 0.8932295
v 0.0000001 4.9848170 2.1133974
vn -0.0000228 1.0000000 -0.0000494
vt 0.4828851 0.8923425
v 0.0000001 4.9848170 2.1133974
vn -0.0000228 1.0000000 -0.0000494
vt 0.4828851 0.8923425
v 0.0000001 4.9848170 2.1133974
vn -0.0000228 1.0000000 -0.0000494
vt 0.4828851 0.8923425
v 0.0000001 4.9848170 2.1133974
vn -0.0000228 1.0000000 -0.0000494
vt 0.4828851 0.8923425
v 0.0000002 5.3010130 2.0741401
vn 0.0000000 0.1232088 0.9923808
vt 0.4536797 0.8816078

g group_123708160_140627885832816
f 1/1/1 2/2/2 3/3/3 
f 3/3/3 2/2/2 4/4/4 
f 5/5/5 6/6/6 7/7/7 
f 7/7/7 6/6/6 8/8/8 
f 9/9/9 10/10/10 11/11/11 
f 11/11/11 10/10/10 12/12/12 
f 13/13/13 14/14/14 15/15/15 
f 15/15/15 14/14/14 16/16/16 
f 17/17/17 18/18/18 19/19/19 
f 19/19/19 18/18/18 20/20/20 
f 21/21/21 22/22/22 23/23/23 
f 23/23/23 22/22/22 24/24/24 
f 17/17/17 19/19/19 25/25/25 
f 25/25/25 19/19/19 26/26/26 
f 18/18/18 27/27/27 20/20/20 
f 20/20/20 27/27/27 28/28/28 
f 25/25/25 26/26/26 16/16/16 
f 16/16/16 26/26/26 15/15/15 
f 27/27/27 29/29/29 28/28/28 
f 28/28/28 29/29/29 30/30/30 
f 22/22/22 31/31/31 24/24/24 
f 24/24/24 31/31/31 32/32/32 
f 31/31/31 33/33/33 32/32/32 
f 4/4/4 2/2/2 13/13/13 
f 13/13/13 2/2/2 14/14/14 
f 34/34/34 7/7/7 35/35/35 
f 35/35/35 7/7/7 8/8/8 
f 23/23/23 36/36/36 21/21/21 
f 21/21/21 36/36/36 37/37/37 
f 3/3/3 38/38/38 1/1/1 
f 1/1/1 38/38/38 39/39/39 
f 5/5/5 40/40/40 6/6/6 
f 6/6/6 40/40/40 41/41/41 
f 38/38/38 42/42/42 39/39/39 
f 39/39/39 42/42/42 43/43/43 
f 40/40/40 44/44/44 41/41/41 
f 41/41/41 44/44/44 45/45/45 
f 46/46/46 47/47/47 48/48/48 
f 48/48/48 47/47/47 49/49/49 
f 37/37/37 36/36/36 50/50/50 
f 36/36/36 51/51/51 50/50/50 
f 50/50/50 51/51/51 10/10/10 
f 10/10/10 51/51/51 12/12/12 
f 52/52/52 53/53/53 54/54/54 
f 54/54/54 53/53/53 55/55/55 
f 56/56/56 57/57/57 58/58/58 
f 58/58/58 57/57/57 59/59/59 
f 60/60/60 61/61/61 62/62/62 
f 62/62/62 61/61/61 63/63/63 
f 64/64/64 65/65/65 66/66/66 
f 66/66/66 65/65/65 67/67/67 
f 68/68/68 69/69/69 70/70/70 
f 53/53/53 71/71/71 55/55/55 
f 55/55/55 71/71/71 72/72/72 
f 57/57/57 73/73/73 59/59/59 
f 59/59/59 73/73/73 74/74/74 
f 61/61/61 75/75/75 63/63/63 
f 63/63/63 75/75/75 76/76/76 
f 65/65/65 77/77/77 67/67/67 
f 67/67/67 77/77/77 78/78/78 
f 69/69/69 79/79/79 70/70/70 
f 71/71/71 80/80/80 72/72/72 
f 72/72/72 80/80/80 81/81/81 
f 73/73/73 82/82/82 74/74/74 
f 74/74/74 82/82/82 83/83/83 
f 75/75/75 84/84/84 76/76/76 
f 76/76/76 84/84/84 85/85/85 
f 77/77/77 86/86/86 78/78/78 
f 78/78/78 86/86/86 87/87/87 
f 79/79/79 88/88/88 70/70/70 
f 80/80/80 89/89/89 81/81/81 
f 81/81/81 89/89/89 90/90/90 
f 82/82/82 91/91/91 83/83/83 
f 83/83/83 91/91/91 92/92/92 
f 84/84/84 93/93/93 85/85/85 
f 85/85/85 93/93/93 94/94/94 
f 86/86/86 95/95/95 87/87/87 
f 87/87/87 95/95/95 96/96/96 
f 88/88/88 97/97/97 70/70/70 
f 89/89/89 98/98/98 90/90/90 
f 90/90/90 98/98/98 99/99/99 
f 91/91/91 100/100/100 92/92/92 
f 92/92/92 100/100/100 101/101/101 
f 93/93/93 102/102/102 94/94/94 
f 94/94/94 102/102/102 103/103/103 
f 95/95/95 104/104/104 96/96/96 
f 96/96/96 104/104/104 105/105/105 
f 97/97/97 106/106/106 202/202/202 
f 98/98/98 107/107/107 99/99/99 
f 99/99/99 107/107/107 108/108/108 
f 100/100/100 109/109/109 101/101/101 
f 101/101/101 109/109/109 110/110/110 
f 102/102/102 111/111/111 103/103/103 
f 103/103/103 111/111/111 112/112/112 
f 104/104/104 113/113/113 105/105/105 
f 105/105/105 113/113/113 114/114/114 
f 106/106/106 115/115/115 203/203/203 
f 116/116/116 117/117/117 118/118/118 
f 118/118/118 117/117/117 119/119/119 
f 120/120/120 121/121/121 122/122/122 
f 122/122/122 121/121/121 123/123/123 
f 124/124/124 125/125/125 126/126/126 
f 126/126/126 125/125/125 127/127/127 
f 113/113/113 128/128/128 114/114/114 
f 114/114/114 128/128/128 129/129/129 
f 206/206/206 130/130/130 204/204/204 
f 117/117/117 131/131/131 119/119/119 
f 119/119/119 131/131/131 132/132/132 
f 121/121/121 133/133/133 123/123/123 
f 123/123/123 133/133/133 134/134/134 
f 125/125/125 135/135/135 127/127/127 
f 127/127/127 135/135/135 136/136/136 
f 128/128/128 137/137/137 129/129/129 
f 129/129/129 137/137/137 138/138/138 
f 130/130/130 139/139/139 204/204/204 
f 131/131/131 140/140/140 132/132/132 
f 132/132/132 140/140/140 141/141/141 
f 133/133/133 142/142/142 134/134/134 
f 134/134/134 142/142/142 143/143/143 
f 135/135/135 144/144/144 136/136/136 
f 136/136/136 144/144/144 145/145/145 
f 137/137/137 146/146/146 138/138/138 
f 138/138/138 146/146/146 147/147/147 
f 139/139/139 148/148/148 70/70/70 
f 140/140/140 149/149/149 141/141/141 
f 141/141/141 149/149/149 150/150/150 
f 142/142/142 151/151/151 143/143/143 
f 143/143/143 151/151/151 152/152/152 
f 144/144/144 153/153/153 145/145/145 
f 145/145/145 153/153/153 154/154/154 
f 146/146/146 155/155/155 147/147/147 
f 147/147/147 155/155/155 156/156/156 
f 148/148/148 157/157/157 202/202/202 
f 149/149/149 158/158/158 150/150/150 
f 150/150/150 158/158/158 159/159/159 
f 151/151/151 160/160/160 152/152/152 
f 152/152/152 160/160/160 161/161/161 
f 153/153/153 162/162/162 154/154/154 
f 154/154/154 162/162/162 163/163/163 
f 155/155/155 164/164/164 156/156/156 
f 156/156/156 164/164/164 165/165/165 
f 157/157/157 166/166/166 203/203/203 
f 158/158/158 52/52/52 159/159/159 
f 159/159/159 52/52/52 54/54/54 
f 160/160/160 56/56/56 161/161/161 
f 161/161/161 56/56/56 58/58/58 
f 162/162/162 60/60/60 163/163/163 
f 163/163/163 60/60/60 62/62/62 
f 164/164/164 64/64/64 165/165/165 
f 165/165/165 64/64/64 66/66/66 
f 166/166/166 201/201/201 205/205/205 
f 167/167/167 168/168/168 169/169/169 
f 170/170/170 171/171/171 172/172/172 
f 173/173/173 174/174/174 175/175/175 
f 176/176/176 177/177/177 178/178/178 
f 178/178/178 177/177/177 179/179/179 
f 177/177/177 180/180/180 179/179/179 
f 179/179/179 180/180/180 181/181/181 
f 180/180/180 182/182/182 181/181/181 
f 181/181/181 182/182/182 183/183/183 
f 182/182/182 184/184/184 183/183/183 
f 183/183/183 184/184/184 185/185/185 
f 184/184/184 186/186/186 185/185/185 
f 185/185/185 186/186/186 187/187/187 
f 188/188/188 189/189/189 190/190/190 
f 190/190/190 189/189/189 191/191/191 
f 192/192/192 193/193/193 168/168/168 
f 194/194/194 192/192/192 168/168/168 
f 195/195/195 194/194/194 168/168/168 
f 167/167/167 195/195/195 168/168/168 
f 170/170/170 196/196/196 171/171/171 
f 174/174/174 197/197/197 198/198/198 
f 174/174/174 198/198/198 199/199/199 
f 174/174/174 199/199/199 200/200/200 
f 174/174/174 200/200/200 175/175/175 
