v 1.1303980 -2.0751970 0.7353125
vn 0.0000000 -0.8650112 -0.5017526
vt 0.9467700 0.7662833
v 1.3623090 -2.0751970 0.7353125
vn 0.0000000 -0.8650111 -0.5017528
vt 0.9735689 0.7662843
v 1.3623090 -2.1012981 0.8319495
vn 0.0000000 -0.9999980 -0.0020033
vt 0.9735689 0.7547087
v 1.1303980 -2.1012981 0.8319495
vn 0.0000000 -0.9999980 -0.0020033
vt 0.9467700 0.7547077
v 1.3623090 -2.0755849 0.9286875
vn 0.0000000 -0.8670295 0.4982567
vt 0.9735689 0.7431446
v 1.1303980 -2.0755849 0.9286875
vn 0.0000006 -0.8670303 0.4982554
vt 0.9467700 0.7431415
v 1.1303980 -2.0755849 0.9286875
vn 0.0000006 -0.8670303 0.4982554
vt 0.9467700 0.8820495
v 1.3623090 -2.0755849 0.9286875
vn 0.0000000 -0.8670295 0.4982567
vt 0.9735689 0.8820505
v 1.3623090 -2.0049491 0.9996094
vn 0.0000005 -0.5017400 0.8650185
vt 0.9735689 0.8704770
v 1.1303980 -2.0049500 0.9996094
vn 0.0000008 -0.5017414 0.8650177
vt 0.9467700 0.8704770
v 1.3623090 -1.9083140 1.0257100
vn 0.0000002 -0.0020078 0.9999980
vt 0.9735667 0.8589066
v 1.1303980 -1.9083140 1.0257100
vn 0.0000004 -0.0020082 0.9999980
vt 0.9467690 0.8589087
v 1.3623090 -1.8115740 0.9999974
vn 0.0000016 0.4982428 0.8670376
vt 0.9735689 0.8473290
v 1.1303980 -1.8115730 0.9999974
vn 0.0000012 0.4982446 0.8670365
vt 0.9467700 0.8473300
v 1.3623090 -1.7406510 0.9293635
vn 0.0000017 0.8650106 0.5017536
vt 0.9735667 0.8357555
v 1.1303980 -1.7406510 0.9293635
vn 0.0000005 0.8650121 0.5017511
vt 0.9467700 0.8357533
v 1.3623090 -1.7145489 0.8327275
vn 0.0000004 0.9999980 0.0020031
vt 0.9735689 0.8241726
v 1.1303980 -1.7145489 0.8327275
vn 0.0000000 0.9999980 0.0020022
vt 0.9467700 0.8241726
v 1.3623090 -1.7402630 0.7359905
vn 0.0000000 0.8670269 -0.4982614
vt 0.9735699 0.8125939
v 1.1303980 -1.7402630 0.7359905
vn 0.0000010 0.8670281 -0.4982594
vt 0.9467700 0.8125939
v 1.3623090 -1.8109010 0.6650664
vn -0.0000009 0.5017403 -0.8650184
vt 0.9735689 0.8010121
v 1.1303980 -1.8108990 0.6650675
vn 0.0000010 0.5017466 -0.8650147
vt 0.9467700 0.8010100
v 1.3623090 -1.9075320 0.6389665
vn -0.0000009 0.0020178 -0.9999980
vt 0.9735689 0.7894365
v 1.1303980 -1.9075320 0.6389665
vn 0.0000000 0.0020198 -0.9999980
vt 0.9467700 0.7894354
v 1.3623090 -2.0042720 0.6646774
vn 0.0000000 -0.4982325 -0.8670435
vt 0.9735689 0.7778558
v 1.1303980 -2.0042720 0.6646774
vn 0.0000000 -0.4982326 -0.8670434
vt 0.9467700 0.7778568
v 1.3623090 -1.8115740 0.9999974
vn 1.0000000 0.0000000 0.0000000
vt 0.6874936 0.9989004
v 1.3623090 -1.9083140 1.0257100
vn 1.0000000 0.0000000 0.0000000
vt 0.7008992 0.9957058
v 1.3623090 -2.0049491 0.9996094
vn 1.0000000 -0.0000005 0.0000001
vt 0.7109113 0.9862300
v 1.3623090 -2.0755849 0.9286875
vn 1.0000000 -0.0000023 0.0000006
vt 0.7148455 0.9730265
v 1.3623090 -2.1012981 0.8319495
vn 1.0000000 -0.0000014 -0.0000000
vt 0.7116457 0.9596217
v 1.3623090 -2.0751970 0.7353125
vn 1.0000000 -0.0000023 -0.0000006
vt 0.7021804 0.9496128
v 1.3623090 -2.0042720 0.6646774
vn 1.0000000 -0.0000005 -0.0000001
vt 0.6889705 0.9456756
v 1.3623090 -1.9075320 0.6389665
vn 1.0000000 0.0000000 0.0000000
vt 0.6755670 0.9488744
v 1.3623090 -1.8109010 0.6650664
vn 1.0000000 0.0000000 0.0000000
vt 0.6655580 0.9583459
v 1.3623090 -1.7402630 0.7359905
vn 1.0000000 0.0000000 0.0000000
vt 0.6616248 0.9715503
v 1.3623090 -1.7145489 0.8327275
vn 1.0000000 0.0000000 0.0000000
vt 0.6648205 0.9849592
v 1.3623090 -1.7406510 0.9293635
vn 1.0000000 0.0000000 0.0000000
vt 0.6742930 0.9949683

g group_93_140627851001808
f 1/1/1 2/2/2 3/3/3 
f 3/3/3 4/4/4 1/1/1 
f 4/4/4 3/3/3 5/5/5 
f 5/5/5 6/6/6 4/4/4 
f 7/7/7 8/8/8 9/9/9 
f 9/9/9 10/10/10 7/7/7 
f 10/10/10 9/9/9 11/11/11 
f 11/11/11 12/12/12 10/10/10 
f 12/12/12 11/11/11 13/13/13 
f 13/13/13 14/14/14 12/12/12 
f 14/14/14 13/13/13 15/15/15 
f 15/15/15 16/16/16 14/14/14 
f 16/16/16 15/15/15 17/17/17 
f 17/17/17 18/18/18 16/16/16 
f 18/18/18 17/17/17 19/19/19 
f 19/19/19 20/20/20 18/18/18 
f 20/20/20 19/19/19 21/21/21 
f 21/21/21 22/22/22 20/20/20 
f 22/22/22 21/21/21 23/23/23 
f 23/23/23 24/24/24 22/22/22 
f 24/24/24 23/23/23 25/25/25 
f 25/25/25 26/26/26 24/24/24 
f 26/26/26 25/25/25 2/2/2 
f 2/2/2 1/1/1 26/26/26 
f 27/27/27 28/28/28 29/29/29 
f 29/29/29 30/30/30 31/31/31 
f 31/31/31 32/32/32 33/33/33 
f 29/29/29 31/31/31 33/33/33 
f 33/33/33 34/34/34 35/35/35 
f 35/35/35 36/36/36 37/37/37 
f 33/33/33 35/35/35 37/37/37 
f 29/29/29 33/33/33 37/37/37 
f 27/27/27 29/29/29 37/37/37 
f 27/27/27 37/37/37 38/38/38 
