v -1.5717940 3.3080490 0.0000004
vn -1.0000000 -0.0000001 0.0000000
vt 0.4629609 3.7958980
v -1.5717930 -3.0634389 0.0042239
vn -1.0000000 -0.0000000 0.0000000
vt 0.4629609 0.1707752
v -1.5717930 -3.0382521 0.0536439
vn -1.0000000 -0.0000001 0.0000000
vt 0.4237203 0.1707752
v -1.5717940 3.3080490 0.0550846
vn -1.0000000 -0.0000001 0.0000000
vt 0.4237203 3.7958980
v -1.5717930 -3.2855430 0.1847827
vn -1.0000000 0.0000000 0.0000000
vt 0.4237201 -0.0015606
v -1.5717930 -3.3277831 0.1511678
vn -1.0000000 0.0000000 0.0000000
vt 0.4629610 -0.0015606
v -1.5717930 -3.3830709 0.4683895
vn -1.0000000 0.0000000 0.0000000
vt 0.4629616 -0.1685953
v -1.5717930 -3.3309889 0.4473754
vn -1.0000000 0.0000000 0.0000000
vt 0.4237204 -0.1685953
v -1.5717930 -3.2498310 0.8487357
vn -1.0000000 0.0000000 0.0000000
vt 0.4629636 -0.3830879
v -1.5717930 -3.2040570 0.8161976
vn -1.0000000 0.0000000 0.0000000
vt 0.4237205 -0.3830879
v -1.5717930 -3.1037259 0.9952526
vn -1.0000000 0.0000000 0.0000000
vt 0.4629630 -0.4722567
v -1.5717930 -3.0756409 0.9466149
vn -1.0000000 0.0000000 0.0000000
vt 0.4237211 -0.4722567
v -1.5717930 -2.8966811 1.0647900
vn -1.0000000 -0.0000001 -0.0000000
vt 0.4629631 -0.5715477
v -1.5717930 -2.8901370 1.0099289
vn -1.0000000 -0.0000001 -0.0000000
vt 0.4237202 -0.5715477
v -1.5717930 -1.8927360 1.0676230
vn -1.0000000 -0.0000003 -0.0000021
vt 0.4629615 -1.1291151
v -1.5717930 -1.8927360 1.0125860
vn -1.0000000 -0.0000003 -0.0000022
vt 0.4237213 -1.1291151
v -1.5717940 2.3410130 0.5767167
vn -0.0000001 0.9790051 0.2038360
vt 0.4629606 -3.9292979
v -1.6037600 2.0055110 0.6776702
vn 0.0000000 0.2881410 0.9575880
vt 0.4629609 -3.7432270
v -0.9626732 2.0055110 0.6776702
vn -0.0000002 0.2881406 0.9575881
vt 0.8437500 -3.7432270
v -0.9307072 2.3410130 0.5767169
vn -0.0000000 0.9966827 0.0813858
vt 0.8437500 -3.9292979
v -1.5717930 -3.1037259 0.9952526
vn 0.0000000 -0.5272948 0.8496825
vt 0.4629630 -0.4722567
v -0.9307069 -3.1037259 0.9952526
vn 0.0000000 -0.5272948 0.8496825
vt 0.8439505 -0.4722567
v -0.9307069 -2.8966811 1.0647900
vn 0.0000000 -0.1626949 0.9866765
vt 0.8439142 -0.5715477
v -1.5717930 -2.8966811 1.0647900
vn 0.0000000 -0.1626948 0.9866765
vt 0.4629631 -0.5715477
v -1.5717930 -3.2498310 0.8487357
vn 0.0000000 -0.8470044 0.5315859
vt 0.4629636 -0.3830879
v -0.9307069 -3.2498310 0.8487357
vn 0.0000000 -0.8470044 0.5315859
vt 0.8440818 -0.3830879
v -1.5717930 -3.3830709 0.4683895
vn 0.0000000 -0.9966236 0.0821066
vt 0.4629616 -0.1685953
v -0.9307069 -3.3830709 0.4683895
vn 0.0000000 -0.9966236 0.0821066
vt 0.8435400 -0.1685953
v -1.5717930 -3.3277831 0.1511678
vn 0.0000000 -0.8150375 -0.5794082
vt 0.4629610 -0.0015606
v -0.9307069 -3.3277831 0.1511678
vn 0.0000000 -0.8150375 -0.5794082
vt 0.8437304 -0.0015606
v -1.5717930 -3.0634389 0.0042239
vn 0.0000000 -0.2512823 -0.9679139
vt 0.4629609 0.1707752
v -0.9307069 -3.0634389 0.0042239
vn 0.0000000 -0.2512822 -0.9679139
vt 0.8437500 0.1707752
v -1.5717940 3.3080490 0.0000004
vn 0.0000000 0.7068719 -0.7073416
vt 0.4629609 3.7958980
v -0.9307075 3.3080490 0.0000004
vn 0.0000000 0.7068723 -0.7073411
vt 0.8437500 3.7958980
v -0.9307075 3.3080490 0.0000004
vn 1.0000000 0.0000001 -0.0000000
vt 0.0111052 3.7958980
v -0.9307075 3.3080490 0.0550846
vn 1.0000000 0.0000001 0.0000000
vt 0.0433116 3.7958980
v -0.9307069 -3.0382521 0.0536439
vn 1.0000000 0.0000001 -0.0000000
vt 0.0433116 0.1707752
v -0.9307069 -3.0634389 0.0042239
vn 1.0000000 0.0000000 -0.0000000
vt 0.0111052 0.1707752
v -0.9307069 -3.2855430 0.1847827
vn 1.0000000 0.0000000 0.0000000
vt 0.0433115 -0.0015606
v -0.9307069 -3.3277831 0.1511678
vn 1.0000000 0.0000000 0.0000000
vt 0.0111052 -0.0015606
v -0.9307069 -3.3830709 0.4683895
vn 1.0000000 0.0000000 0.0000000
vt 0.0111052 -0.1685953
v -0.9307069 -3.3309889 0.4473754
vn 1.0000000 0.0000000 0.0000000
vt 0.0433116 -0.1685953
v -0.9307069 -3.2498310 0.8487357
vn 1.0000000 0.0000000 0.0000000
vt 0.0111052 -0.3830879
v -0.9307069 -3.2040570 0.8161976
vn 1.0000000 0.0000000 0.0000000
vt 0.0433115 -0.3830879
v -0.9307069 -3.0756409 0.9466149
vn 1.0000000 0.0000000 0.0000000
vt 0.0433115 -0.4722567
v -0.9307069 -3.1037259 0.9952526
vn 1.0000000 0.0000000 0.0000000
vt 0.0111053 -0.4722567
v -1.5717930 -1.8927360 1.0125860
vn -0.0000001 -0.1289189 -0.9916552
vt 0.4237213 -1.1291151
v -0.9307070 -1.8927360 1.0125860
vn 0.0000000 -0.1289190 -0.9916552
vt 0.0433117 -1.1291151
v -0.9307069 -2.8901370 1.0099289
vn 0.0000000 0.1650286 -0.9862888
vt 0.0433114 -0.5715477
v -1.5717930 -2.8901370 1.0099289
vn 0.0000000 0.1650286 -0.9862888
vt 0.4237202 -0.5715477
v -1.5717940 3.3080490 0.0550846
vn 0.0000000 -0.0002270 1.0000000
vt 0.4237203 3.7958980
v -1.5717930 -3.0382521 0.0536439
vn 0.0000000 0.2412790 0.9704558
vt 0.4237203 0.1707752
v -0.9307069 -3.0382521 0.0536439
vn 0.0000000 0.2412790 0.9704558
vt 0.0433116 0.1707752
v -0.9307075 3.3080490 0.0550846
vn 0.0000000 -0.0002270 1.0000000
vt 0.0433116 3.7958980
v -0.9307069 -3.0756409 0.9466149
vn 0.0000000 0.5320489 -0.8467137
vt 0.0433115 -0.4722567
v -1.5717930 -3.0756409 0.9466149
vn 0.0000000 0.5320489 -0.8467136
vt 0.4237211 -0.4722567
v -0.9307069 -3.2040570 0.8161976
vn 0.0000000 0.8501304 -0.5265723
vt 0.0433115 -0.3830879
v -1.5717930 -3.2040570 0.8161976
vn 0.0000000 0.8501304 -0.5265723
vt 0.4237205 -0.3830879
v -0.9307069 -3.3309889 0.4473754
vn 0.0000000 0.9967982 -0.0799585
vt 0.0433116 -0.1685953
v -1.5717930 -3.3309889 0.4473754
vn 0.0000000 0.9967982 -0.0799585
vt 0.4237204 -0.1685953
v -0.9307069 -3.2855430 0.1847827
vn 0.0000000 0.9853522 0.1705320
vt 0.0433115 -0.0015606
v -1.5717930 -3.2855430 0.1847827
vn 0.0000000 0.9853522 0.1705320
vt 0.4237201 -0.0015606
v -1.5717930 -3.2855430 0.1847827
vn 0.0000000 0.4685018 0.8834625
vt 0.4237201 -0.0015606
v -0.9307069 -3.2855430 0.1847827
vn 0.0000000 0.4685018 0.8834625
vt 0.0433115 -0.0015606
v -1.2132930 -3.3309889 0.4473754
vn 0.9018590 0.4192819 0.1041783
vt 0.9921708 -0.1676126
v -1.2132930 -3.2855430 0.1847827
vn 0.9416143 0.2708908 0.1999519
vt 0.9921705 0.0057157
v -1.2552650 -3.1936359 0.2579239
vn 0.9396316 0.2762299 0.2019640
vt 0.8835430 0.0028346
v -1.2552650 -3.2393680 0.4104175
vn 0.8784034 0.4577779 0.1372844
vt 0.8835427 -0.1679976
v -1.2132930 -3.0382521 0.0536439
vn 0.9408695 0.0841608 0.3281488
vt 0.9921704 0.1418464
v -1.2552650 -2.9827640 0.1625195
vn 0.9411152 0.0578567 0.3330988
vt 0.8835428 0.1685304
v -1.2132940 3.2330420 0.0550846
vn 0.9447692 -0.0007148 0.3277357
vt 0.9921704 3.7539220
v -1.2552660 3.2330420 0.1762390
vn 0.9449041 -0.0007224 0.3273463
vt 0.8835428 3.7532251
v -1.2552660 3.2330420 0.1762390
vn -0.9447690 -0.0000838 0.3277370
vt 0.8835428 3.7532251
v -1.2972380 3.2330420 0.0550846
vn -0.9449041 -0.0000753 0.3273472
vt 0.9899555 3.7539020
v -1.2972370 -3.0382521 0.0536439
vn -0.9409331 0.0838681 0.3280412
vt 0.9899555 0.1418500
v -1.2552650 -2.9827640 0.1625195
vn -0.9410051 0.0574562 0.3334792
vt 0.8835428 0.1685304
v -1.2552650 -3.1936359 0.2579239
vn -0.9396313 0.2762307 0.2019646
vt 0.8835430 0.0028346
v -1.2972370 -3.2855430 0.1847827
vn -0.9416140 0.2708915 0.1999524
vt 0.9899557 0.0058084
v -1.2972370 -3.3309889 0.4473754
vn -0.9018584 0.4192829 0.1041786
vt 0.9899558 -0.1666880
v -1.2552650 -3.2393680 0.4104175
vn -0.8784028 0.4577789 0.1372848
vt 0.8835427 -0.1679976
v -1.5717940 1.6082720 1.0460060
vn -0.0000000 -0.1768925 0.9842302
vt 0.4629605 -3.4527693
v -1.5717930 0.5696075 0.8593304
vn 0.0000000 0.0335706 0.9994364
vt 0.4629633 -2.7510779
v -0.9307070 0.5696074 0.8593304
vn 0.0000000 0.0335706 0.9994364
vt 0.8472258 -2.7510779
v -0.9307071 1.6082720 1.0460060
vn 0.0000000 -0.1768925 0.9842302
vt 0.8437859 -3.4527693
v -1.5717930 0.5747237 0.8104724
vn -1.0000000 -0.0000002 -0.0000025
vt 0.4237203 -2.7510779
v -1.5717930 0.5696075 0.8593304
vn -1.0000000 -0.0000003 -0.0000025
vt 0.4629633 -2.7510779
v -1.5717940 1.6082720 1.0460060
vn -0.9994448 -0.0316874 0.0102970
vt 0.4629605 -3.4527693
v -1.5717930 1.5928640 0.9987376
vn -0.9994907 -0.0303424 0.0098854
vt 0.4237201 -3.4527693
v -0.9307071 1.5928640 0.9987376
vn -0.0000001 0.1818285 -0.9833302
vt 0.0433120 -3.4527693
v -0.9307070 0.5747237 0.8104722
vn -0.0000002 -0.0282815 -0.9996000
vt 0.0433119 -2.7510779
v -1.5717930 0.5747237 0.8104724
vn -0.0000002 -0.0282815 -0.9996000
vt 0.4237203 -2.7510779
v -1.5717930 1.5928640 0.9987376
vn 0.0000000 0.1818285 -0.9833302
vt 0.4237201 -3.4527693
v -1.2743160 0.5732100 0.8127187
vn -0.8649783 -0.0096975 -0.5017156
vt 0.9899952 -2.7487330
v -1.2146900 0.5614941 0.7164873
vn -0.8510349 -0.0218020 -0.5246565
vt 0.8835330 -2.7463980
v -1.2276469 -0.2893641 0.9004679
vn -0.9959730 -0.0123644 -0.0887971
vt 0.8835453 -2.2109170
v -1.2368230 -0.2842622 1.0265310
vn -0.9964976 -0.0092025 -0.0831139
vt 0.9899762 -2.2079351
v -1.2463770 -1.1751291 0.7062061
vn -0.9567468 0.0135202 -0.2906075
vt 0.8835407 -1.6024289
v -1.2817661 -1.1485510 0.8193060
vn -0.9498051 0.0416913 -0.3100518
vt 0.9899719 -1.6166129
v -1.5717930 -1.1334960 0.8636504
vn -1.0000000 0.0000000 -0.0000023
vt 0.4629636 -1.5912189
v -1.5717930 -1.1411570 0.8116665
vn -1.0000000 -0.0000001 -0.0000023
vt 0.4237205 -1.5912189
v -1.5717930 -1.1411570 0.8116665
vn -0.0000004 -0.0164129 -0.9998654
vt 0.4237205 -1.5912189
v -0.9307070 -1.1411570 0.8116663
vn -0.0000003 -0.0164129 -0.9998653
vt 0.0433118 -1.5912189
v -1.5717930 -1.8927360 1.0676230
vn 0.0000000 0.1294533 0.9915856
vt 0.4629615 -1.1291151
v -0.9307070 -1.8927360 1.0676230
vn 0.0000000 0.1294533 0.9915856
vt 0.8435822 -1.1291151
v -1.2972370 -1.8927360 1.0125860
vn -0.9442869 -0.0029494 -0.3291104
vt 0.9899576 -1.1243391
v -1.2552650 -1.8927360 0.8911347
vn -0.9451467 -0.0032673 -0.3266300
vt 0.8835450 -1.1255112
v -1.2552650 -2.8770399 0.9009801
vn -0.9341460 0.0006329 -0.3568906
vt 0.8835420 -0.5766692
v -1.2972370 -2.8901370 1.0099289
vn -0.9331864 0.0009574 -0.3593915
vt 0.9899543 -0.5722108
v -1.5717940 2.3410130 0.5767167
vn -0.9922796 0.0760467 -0.0979695
vt 0.4629606 -3.9292979
v -1.5717940 2.2942729 0.5459193
vn -0.9909475 0.0738649 -0.1121027
vt 0.4237204 -3.9292979
v -1.6037600 1.9898670 0.6279127
vn -0.9996696 0.0231271 -0.0112263
vt 0.4237203 -3.7432270
v -1.6037600 2.0055110 0.6776702
vn -0.9999938 0.0033655 -0.0010605
vt 0.4629609 -3.7432270
v -1.6037600 1.9898670 0.6279127
vn -0.0000000 -0.2600855 -0.9655856
vt 0.4237203 -3.7432270
v -1.5717940 2.2942729 0.5459193
vn 0.0000000 -0.2600855 -0.9655856
vt 0.4237204 -3.9292979
v -0.9307072 2.2942729 0.5459193
vn -0.0000001 -0.2600855 -0.9655856
vt 0.0433117 -3.9292979
v -0.9626732 1.9898670 0.6279126
vn -0.0000001 -0.2600853 -0.9655856
vt 0.0433116 -3.7432270
v -1.5717940 1.6082720 1.0460060
vn 0.0000000 0.6799263 0.7332805
vt 0.4629605 -3.4527693
v -0.9307071 1.6082720 1.0460060
vn 0.0000000 0.6799263 0.7332805
vt 0.8437859 -3.4527693
v -0.9626732 2.0055110 0.6776702
vn 0.0000000 0.6799263 0.7332805
vt 0.8437500 -3.7432270
v -1.6037600 2.0055110 0.6776702
vn 0.0000000 0.6799263 0.7332805
vt 0.4629609 -3.7432270
v -1.2552650 1.5902240 0.8905998
vn -0.9294392 -0.2658169 -0.2558990
vt 0.8747959 -3.4866877
v -1.2972370 1.6569279 0.9751302
vn -0.9305333 -0.2643258 -0.2534556
vt 0.9866993 -3.4833298
v -1.2972370 1.9898670 0.6279126
vn -0.9232422 -0.2740034 -0.2693437
vt 0.9866992 -3.7567244
v -1.2552650 1.9558740 0.5197960
vn -0.9222364 -0.2752928 -0.2714660
vt 0.8747961 -3.7842541
v -0.9307071 1.5928640 0.9987376
vn -0.0000000 -0.6826023 -0.7307901
vt 0.0433120 -3.4527693
v -1.5717930 1.5928640 0.9987376
vn 0.0000000 -0.6826023 -0.7307901
vt 0.4237201 -3.4527693
v -1.6037600 1.9898670 0.6279127
vn -0.0000000 -0.6826023 -0.7307901
vt 0.4237203 -3.7432270
v -0.9626732 1.9898670 0.6279126
vn -0.0000001 -0.6826024 -0.7307900
vt 0.0433116 -3.7432270
v -1.2554400 -1.9003140 0.8993692
vn -0.9381675 -0.0689828 -0.3392391
vt 0.8835239 -1.1448560
v -1.2974120 -1.8665090 1.0062060
vn -0.9357920 -0.0695790 -0.3456186
vt 0.9899541 -1.1347930
v -1.5717930 -0.2494291 1.0640930
vn 0.0000000 0.0110119 0.9999394
vt 0.4629630 -2.2116699
v -1.5717930 -1.1334960 0.8636504
vn 0.0000000 0.0197482 0.9998050
vt 0.4629636 -1.5912189
v -0.9307070 -1.1334960 0.8636504
vn 0.0000000 0.0197482 0.9998050
vt 0.8474229 -1.5912189
v -0.9307070 -0.2494291 1.0640930
vn 0.0000000 0.0110119 0.9999394
vt 0.8512161 -2.2116699
v -1.2972370 1.4333520 1.0141500
vn -0.9452707 0.0503073 -0.3223857
vt 0.9899554 -3.3822980
v -1.2552650 1.4547770 0.8944268
vn -0.9393344 0.0517264 -0.3390803
vt 0.8835236 -3.3509817
v -0.9307075 3.3080490 0.0550846
vn 0.0000000 1.0000000 0.0000000
vt 0.4503733 3.4799719
v -0.9307075 3.3080490 0.0000004
vn 0.0000000 0.7068723 -0.7073411
vt 0.4503736 3.5155060
v -1.5717940 3.3080490 0.0000004
vn 0.0000000 0.7068719 -0.7073416
vt 0.0087196 3.5155060
v -1.5717940 3.3080490 0.0550846
vn 0.0000000 1.0000000 0.0000000
vt 0.0087196 3.4799719
v -1.5717940 2.3410130 0.5767167
vn -0.0000001 0.9790051 0.2038360
vt 0.4503733 3.5064631
v -0.9307072 2.3410130 0.5767169
vn -0.0000000 0.9966827 0.0813858
vt 0.0087196 3.5064631
v -0.9307072 2.2942729 0.5459193
vn 0.0000003 0.5502073 -0.8350281
vt 0.0087196 3.4703550
v -1.5717940 2.2942729 0.5459193
vn 0.0000000 0.5502046 -0.8350300
vt 0.4503733 3.4703550
v -0.9307070 -0.2647520 1.0153871
vn -0.0000003 -0.0055111 -0.9999848
vt 0.0433121 -2.2116699
v -1.5717930 -0.2647520 1.0153871
vn -0.0000004 -0.0055111 -0.9999848
vt 0.4237204 -2.2116699
v -1.5717930 -0.2494291 1.0640930
vn -1.0000000 -0.0000002 -0.0000024
vt 0.4629630 -2.2116699
v -1.5717930 -0.2647520 1.0153871
vn -1.0000000 0.0000001 -0.0000025
vt 0.4237204 -2.2116699

g group_149_140627851007552
f 1/1/1 2/2/2 3/3/3 
f 3/3/3 4/4/4 1/1/1 
f 5/5/5 3/3/3 2/2/2 
f 2/2/2 6/6/6 5/5/5 
f 5/5/5 6/6/6 7/7/7 
f 7/7/7 8/8/8 5/5/5 
f 8/8/8 7/7/7 9/9/9 
f 9/9/9 10/10/10 8/8/8 
f 9/9/9 11/11/11 12/12/12 
f 12/12/12 10/10/10 9/9/9 
f 12/12/12 11/11/11 13/13/13 
f 13/13/13 14/14/14 12/12/12 
f 15/15/15 16/16/16 14/14/14 
f 14/14/14 13/13/13 15/15/15 
f 17/17/17 18/18/18 19/19/19 
f 19/19/19 20/20/20 17/17/17 
f 21/21/21 22/22/22 23/23/23 
f 23/23/23 24/24/24 21/21/21 
f 25/25/25 26/26/26 22/22/22 
f 22/22/22 21/21/21 25/25/25 
f 27/27/27 28/28/28 26/26/26 
f 26/26/26 25/25/25 27/27/27 
f 29/29/29 30/30/30 28/28/28 
f 28/28/28 27/27/27 29/29/29 
f 31/31/31 32/32/32 30/30/30 
f 30/30/30 29/29/29 31/31/31 
f 33/33/33 34/34/34 32/32/32 
f 32/32/32 31/31/31 33/33/33 
f 35/35/35 36/36/36 37/37/37 
f 37/37/37 38/38/38 35/35/35 
f 38/38/38 37/37/37 39/39/39 
f 39/39/39 40/40/40 38/38/38 
f 41/41/41 40/40/40 39/39/39 
f 39/39/39 42/42/42 41/41/41 
f 43/43/43 41/41/41 42/42/42 
f 42/42/42 44/44/44 43/43/43 
f 45/45/45 46/46/46 43/43/43 
f 43/43/43 44/44/44 45/45/45 
f 47/47/47 48/48/48 49/49/49 
f 49/49/49 50/50/50 47/47/47 
f 51/51/51 52/52/52 53/53/53 
f 53/53/53 54/54/54 51/51/51 
f 50/50/50 49/49/49 55/55/55 
f 55/55/55 56/56/56 50/50/50 
f 56/56/56 55/55/55 57/57/57 
f 57/57/57 58/58/58 56/56/56 
f 58/58/58 57/57/57 59/59/59 
f 59/59/59 60/60/60 58/58/58 
f 60/60/60 59/59/59 61/61/61 
f 61/61/61 62/62/62 60/60/60 
f 63/63/63 64/64/64 53/53/53 
f 53/53/53 52/52/52 63/63/63 
f 65/65/65 66/66/66 67/67/67 
f 67/67/67 68/68/68 65/65/65 
f 69/69/69 70/70/70 67/67/67 
f 67/67/67 66/66/66 69/69/69 
f 70/70/70 69/69/69 71/71/71 
f 71/71/71 72/72/72 70/70/70 
f 73/73/73 74/74/74 75/75/75 
f 75/75/75 76/76/76 73/73/73 
f 77/77/77 76/76/76 75/75/75 
f 75/75/75 78/78/78 77/77/77 
f 79/79/79 80/80/80 77/77/77 
f 77/77/77 78/78/78 79/79/79 
f 81/81/81 82/82/82 83/83/83 
f 83/83/83 84/84/84 81/81/81 
f 85/85/85 86/86/86 87/87/87 
f 87/87/87 88/88/88 85/85/85 
f 89/89/89 90/90/90 91/91/91 
f 91/91/91 92/92/92 89/89/89 
f 93/93/93 94/94/94 95/95/95 
f 95/95/95 96/96/96 93/93/93 
f 97/97/97 98/98/98 96/96/96 
f 96/96/96 95/95/95 97/97/97 
f 15/15/15 99/99/99 100/100/100 
f 100/100/100 16/16/16 15/15/15 
f 47/47/47 101/101/101 102/102/102 
f 102/102/102 48/48/48 47/47/47 
f 103/103/103 24/24/24 23/23/23 
f 23/23/23 104/104/104 103/103/103 
f 105/105/105 106/106/106 107/107/107 
f 107/107/107 108/108/108 105/105/105 
f 109/109/109 110/110/110 111/111/111 
f 111/111/111 112/112/112 109/109/109 
f 113/113/113 114/114/114 115/115/115 
f 115/115/115 116/116/116 113/113/113 
f 117/117/117 118/118/118 119/119/119 
f 119/119/119 120/120/120 117/117/117 
f 121/121/121 122/122/122 123/123/123 
f 123/123/123 124/124/124 121/121/121 
f 87/87/87 112/112/112 111/111/111 
f 111/111/111 88/88/88 87/87/87 
f 125/125/125 126/126/126 127/127/127 
f 127/127/127 128/128/128 125/125/125 
f 129/129/129 130/130/130 98/98/98 
f 98/98/98 97/97/97 129/129/129 
f 131/131/131 132/132/132 133/133/133 
f 133/133/133 134/134/134 131/131/131 
f 93/93/93 135/135/135 136/136/136 
f 136/136/136 94/94/94 93/93/93 
f 137/137/137 138/138/138 139/139/139 
f 139/139/139 140/140/140 137/137/137 
f 141/141/141 142/142/142 143/143/143 
f 143/143/143 144/144/144 141/141/141 
f 145/145/145 146/146/146 91/91/91 
f 91/91/91 90/90/90 145/145/145 
f 131/131/131 134/134/134 83/83/83 
f 83/83/83 82/82/82 131/131/131 
f 99/99/99 147/147/147 148/148/148 
f 148/148/148 100/100/100 99/99/99 
f 146/146/146 145/145/145 102/102/102 
f 102/102/102 101/101/101 146/146/146 
f 85/85/85 148/148/148 147/147/147 
f 147/147/147 86/86/86 85/85/85 
f 103/103/103 104/104/104 133/133/133 
f 133/133/133 132/132/132 103/103/103 
