v 1.5674020 2.9973960 0.9493843
vn 1.0000000 0.0000000 0.0000000
vt 0.4323598 4.9184790
v 1.5674020 3.0259049 0.9987721
vn 1.0000000 0.0000000 0.0000000
vt 0.4702881 4.9148698
v 1.5674020 2.8700659 1.0417110
vn 1.0000000 -0.0000000 0.0000000
vt 0.4750108 5.0256581
v 1.5674020 2.8654170 0.9859298
vn 1.0000000 -0.0000000 0.0000000
vt 0.4349577 5.0275259
v 1.5674020 3.1536570 0.8669573
vn 1.0000000 0.0000000 0.0000000
vt 0.4641453 4.7999759
v 1.5674020 3.1042719 0.8384412
vn 1.0000000 0.0000000 0.0000000
vt 0.4249591 4.8040142
v 1.5674020 3.1950610 0.7124392
vn 1.0000000 0.0000000 0.0000000
vt 0.4583792 4.6922331
v 1.5674020 3.1380351 0.7124392
vn 1.0000000 0.0000000 0.0000000
vt 0.4192288 4.6972399
v 1.5674020 3.1536610 0.5579246
vn 1.0000000 0.0000000 0.0000000
vt 0.4540843 4.5910668
v 1.5674020 3.1042719 0.5864372
vn 1.0000000 0.0000000 0.0000000
vt 0.4140083 4.5961852
v 1.5674020 3.0448899 0.4367428
vn 1.0000000 0.0000000 0.0000000
vt 0.4562182 4.4550562
v 1.5674020 3.0120330 0.4817855
vn 1.0000000 0.0000000 0.0000000
vt 0.4143382 4.4561868
v 1.5674020 2.1394720 -0.0006250
vn 1.0000000 -0.0000000 -0.0000000
vt 0.4638672 3.7958980
v 1.5674020 2.1322210 0.0632622
vn 1.0000000 -0.0000000 -0.0000000
vt 0.4218750 3.7958980
v 1.5674020 -2.2735760 0.0632625
vn 1.0000000 -0.0000000 0.0000000
vt 0.4218750 0.7285156
v 1.5674020 -2.2808270 -0.0006247
vn 1.0000000 -0.0000000 0.0000000
vt 0.4638672 0.7285156
v 1.5674020 -3.0947690 0.3089412
vn 1.0000000 0.0000000 0.0000000
vt 0.4682810 0.1686366
v 1.5674020 -3.0623190 0.3535071
vn 1.0000000 0.0000000 0.0000000
vt 0.4289494 0.1704473
v 1.5674020 -3.1953721 0.4950543
vn 1.0000000 0.0000000 0.0000000
vt 0.4256186 -0.0118392
v 1.5674020 -3.2472589 0.4735622
vn 1.0000000 0.0000000 0.0000000
vt 0.4650702 -0.0135499
v 1.5674020 -3.2387750 0.6582763
vn 1.0000000 0.0000000 0.0000000
vt 0.4269231 -0.1315209
v 1.5674020 -3.2949369 0.6582812
vn 1.0000000 0.0000000 0.0000000
vt 0.4701021 -0.1283454
v 1.5674020 -3.2030411 0.8226873
vn 1.0000000 0.0000000 0.0000000
vt 0.4310674 -0.2462317
v 1.5674020 -3.2549300 0.8441806
vn 1.0000000 0.0000000 0.0000000
vt 0.4786087 -0.2365386
v 1.5674020 -3.0864780 0.9362932
vn 1.0000000 0.0000000 0.0000000
vt 0.4341871 -0.3693550
v 1.5674020 -3.1170809 0.9820939
vn 1.0000000 0.0000000 0.0000000
vt 0.4784778 -0.3634918
v 1.5674020 -2.9086609 1.0075721
vn 1.0000000 -0.0000000 -0.0000000
vt 0.4378525 -0.5000235
v 1.5674020 -2.9152050 1.0624340
vn 1.0000000 -0.0000000 -0.0000000
vt 0.4800678 -0.4967190
v 1.5674020 2.8700659 1.0417110
vn -0.0000000 0.1358009 0.9907362
vt 0.4750108 5.0256581
v 1.5674020 3.0259049 0.9987721
vn 0.0000000 0.5098033 0.8602910
vt 0.4702881 4.9148698
v 0.9263155 3.0259049 0.9987721
vn -0.0000000 0.5098031 0.8602911
vt 0.8437665 4.9135771
v 0.9263155 2.8700659 1.0417110
vn -0.0000001 0.1358006 0.9907362
vt 0.8437479 5.0257401
v 1.5674020 3.1536570 0.8669573
vn 0.0000000 0.8699108 0.4932090
vt 0.4641453 4.7999759
v 0.9263155 3.1536570 0.8669573
vn 0.0000000 0.8699108 0.4932091
vt 0.8437500 4.7995262
v 1.5674020 3.1950610 0.7124392
vn 0.0000000 1.0000000 0.0000094
vt 0.4583792 4.6922331
v 0.9263155 3.1950610 0.7124392
vn 0.0000000 1.0000000 0.0000094
vt 0.8437500 4.6923752
v 1.5674020 3.1536610 0.5579246
vn 0.0000000 0.8791925 -0.4764668
vt 0.4540843 4.5910668
v 0.9263155 3.1536610 0.5579246
vn 0.0000000 0.8791925 -0.4764668
vt 0.8437500 4.5917921
v 1.5674020 3.0448899 0.4367428
vn 0.0000000 0.6009265 -0.7993043
vt 0.4562182 4.4550562
v 0.9263155 3.0448899 0.4367428
vn 0.0000000 0.6009266 -0.7993042
vt 0.8437585 4.4557071
v 1.5674020 2.1394720 -0.0006250
vn 0.0000000 0.2231068 -0.9747940
vt 0.4638672 3.7958980
v 0.9263154 2.1394720 -0.0006250
vn 0.0000000 0.2231069 -0.9747940
vt 0.8437500 3.7958980
v 1.5674020 -3.0947690 0.3089412
vn 0.0000000 -0.5592943 -0.8289692
vt 0.4682810 0.1686366
v 0.9263152 -3.0947690 0.3089412
vn 0.0000000 -0.5592943 -0.8289692
vt 0.8437526 0.1679811
v 0.9263152 -2.2808270 -0.0006248
vn 0.0000002 -0.1807190 -0.9835348
vt 0.8437500 0.7285156
v 1.5674020 -2.2808270 -0.0006247
vn 0.0000002 -0.1807190 -0.9835348
vt 0.4638672 0.7285156
v 1.5674020 -3.1170809 0.9820939
vn 0.0000000 -0.5498554 0.8352599
vt 0.4784778 -0.3634918
v 1.5674020 -2.9152050 1.0624340
vn -0.0000000 -0.1864865 0.9824575
vt 0.4800678 -0.4967190
v 0.9263152 -2.9152050 1.0624340
vn 0.0000000 -0.1864865 0.9824575
vt 0.8437500 -0.4985242
v 0.9263152 -3.1170809 0.9820939
vn 0.0000000 -0.5498555 0.8352599
vt 0.8437500 -0.3648803
v 1.5674020 -3.2549300 0.8441806
vn 0.0000000 -0.8782673 0.4781699
vt 0.4786087 -0.2365386
v 0.9263152 -3.2549300 0.8441806
vn 0.0000000 -0.8782674 0.4781699
vt 0.8437350 -0.2375501
v 1.5674020 -3.2949369 0.6582812
vn 0.0000000 -0.9997938 -0.0203098
vt 0.4701021 -0.1283454
v 0.9263152 -3.2949369 0.6582812
vn 0.0000000 -0.9997938 -0.0203098
vt 0.8437501 -0.1290255
v 1.5674020 -3.2472589 0.4735622
vn 0.0000000 -0.8776403 -0.4793199
vt 0.4650702 -0.0135499
v 0.9263152 -3.2472589 0.4735622
vn 0.0000000 -0.8776402 -0.4793199
vt 0.8437513 -0.0144312
v 0.9263155 2.9973960 0.9493843
vn -1.0000000 0.0000000 0.0000000
vt 0.0372945 4.9204960
v 0.9263155 2.8654170 0.9859298
vn -1.0000000 0.0000000 0.0000000
vt 0.0333231 5.0301638
v 0.9263155 2.8700659 1.0417110
vn -1.0000000 0.0000000 0.0000000
vt -0.0158010 5.0200882
v 0.9263155 3.0259049 0.9987721
vn -1.0000000 0.0000000 0.0000000
vt -0.0096780 4.9121332
v 0.9263155 3.1536570 0.8669573
vn -1.0000000 0.0000000 0.0000000
vt 0.0037103 4.7998099
v 0.9263155 3.1042719 0.8384412
vn -1.0000000 0.0000000 0.0000000
vt 0.0427424 4.8043661
v 0.9263155 3.1380351 0.7124392
vn -1.0000000 0.0000000 0.0000000
vt 0.0474358 4.6961770
v 0.9263155 3.1950610 0.7124392
vn -1.0000000 0.0000000 0.0000000
vt 0.0130968 4.6938248
v 0.9263155 3.1042719 0.5864372
vn -1.0000000 0.0000000 0.0000000
vt 0.0509316 4.5934982
v 0.9263155 3.1536610 0.5579246
vn -1.0000000 0.0000000 0.0000000
vt 0.0215952 4.5948410
v 0.9263155 3.0448899 0.4367428
vn -1.0000000 0.0000000 0.0000000
vt 0.0220491 4.4566379
v 0.9263155 3.0120330 0.4817855
vn -1.0000000 0.0000000 0.0000000
vt 0.0497901 4.4552722
v 0.9263154 2.1394720 -0.0006250
vn -1.0000000 0.0000001 0.0000000
vt 0.0087891 3.7958980
v 0.9263154 2.1322210 0.0632622
vn -1.0000000 0.0000001 0.0000000
vt 0.0429688 3.7958980
v 0.9263152 -2.2735760 0.0632624
vn -1.0000000 0.0000000 -0.0000000
vt 0.0429688 0.7285156
v 0.9263152 -2.2808270 -0.0006248
vn -1.0000000 0.0000000 -0.0000000
vt 0.0087891 0.7285156
v 0.9263152 -3.0947690 0.3089412
vn -1.0000000 0.0000000 0.0000000
vt -0.0032395 0.1673205
v 0.9263152 -3.0623190 0.3535071
vn -1.0000000 0.0000000 0.0000000
vt 0.0391015 0.1714818
v 0.9263152 -3.1953721 0.4950543
vn -1.0000000 0.0000000 0.0000000
vt 0.0420580 -0.0109537
v 0.9263152 -3.2472589 0.4735622
vn -1.0000000 0.0000000 0.0000000
vt 0.0021121 -0.0146947
v 0.9263152 -3.2387750 0.6582763
vn -1.0000000 0.0000000 0.0000000
vt 0.0378932 -0.1307170
v 0.9263152 -3.2949369 0.6582812
vn -1.0000000 0.0000000 0.0000000
vt 0.0009294 -0.1297114
v 0.9263152 -3.2030411 0.8226873
vn -1.0000000 0.0000000 0.0000000
vt 0.0312946 -0.2429945
v 0.9263152 -3.2549300 0.8441806
vn -1.0000000 0.0000000 0.0000000
vt -0.0049650 -0.2423525
v 0.9263152 -3.0864780 0.9362932
vn -1.0000000 0.0000000 0.0000000
vt 0.0310861 -0.3661045
v 0.9263152 -3.1170809 0.9820939
vn -1.0000000 0.0000000 0.0000000
vt -0.0112796 -0.3677282
v 0.9263152 -2.9152050 1.0624340
vn -1.0000000 0.0000000 0.0000000
vt -0.0172250 -0.5000212
v 0.9263152 -2.9086609 1.0075721
vn -1.0000000 0.0000000 0.0000000
vt 0.0296610 -0.4972194
v 1.5674020 2.9973960 0.9493843
vn 0.0000000 -0.5116463 -0.8591962
vt 0.4323598 4.9184790
v 1.5674020 2.8654170 0.9859298
vn 0.0000000 -0.1365142 -0.9906381
vt 0.4349577 5.0275259
v 0.9263155 2.8654170 0.9859298
vn 0.0000000 -0.1365142 -0.9906381
vt 0.0333231 5.0301638
v 0.9263155 2.9973960 0.9493843
vn 0.0000000 -0.5116463 -0.8591962
vt 0.0372945 4.9204960
v 1.5674020 3.1042719 0.8384412
vn 0.0000000 -0.8706540 -0.4918960
vt 0.4249591 4.8040142
v 0.9263155 3.1042719 0.8384412
vn 0.0000000 -0.8706540 -0.4918960
vt 0.0427424 4.8043661
v 1.5674020 3.1380351 0.7124392
vn 0.0000000 -1.0000000 0.0000000
vt 0.4192288 4.6972399
v 0.9263155 3.1380351 0.7124392
vn 0.0000000 -1.0000000 0.0000001
vt 0.0474358 4.6961770
v 1.5674020 3.1042719 0.5864372
vn 0.0000000 -0.8813326 0.4724964
vt 0.4140083 4.5961852
v 0.9263155 3.1042719 0.5864372
vn 0.0000000 -0.8813326 0.4724965
vt 0.0509316 4.5934982
v 1.5674020 3.0120330 0.4817855
vn 0.0000000 -0.6021451 0.7983867
vt 0.4143382 4.4561868
v 0.9263155 3.0120330 0.4817855
vn 0.0000000 -0.6021451 0.7983867
vt 0.0497901 4.4552722
v 1.5674020 2.1322210 0.0632622
vn -0.0000000 -0.2201890 0.9754573
vt 0.4218750 3.7958980
v 0.9263154 2.1322210 0.0632622
vn 0.0000000 -0.2201890 0.9754573
vt 0.0429688 3.7958980
v 0.9263152 -2.2735760 0.0632624
vn -0.0000002 0.1753909 0.9844989
vt 0.0429688 0.7285156
v 1.5674020 -2.2735760 0.0632625
vn -0.0000002 0.1753908 0.9844989
vt 0.4218750 0.7285156
v 0.9263152 -3.0623190 0.3535071
vn 0.0000000 0.5517510 0.8340089
vt 0.0391015 0.1714818
v 1.5674020 -3.0623190 0.3535071
vn -0.0000000 0.5517510 0.8340089
vt 0.4289494 0.1704473
v 1.5674020 -2.9086609 1.0075721
vn 0.0000000 0.1876285 -0.9822401
vt 0.4378525 -0.5000235
v 1.5674020 -3.0864780 0.9362932
vn 0.0000000 0.5454260 -0.8381590
vt 0.4341871 -0.3693550
v 0.9263152 -3.0864780 0.9362932
vn 0.0000000 0.5454260 -0.8381590
vt 0.0310861 -0.3661045
v 0.9263152 -2.9086609 1.0075721
vn 0.0000000 0.1876285 -0.9822401
vt 0.0296610 -0.4972194
v 1.5674020 -3.2030411 0.8226873
vn 0.0000000 0.8746270 -0.4847965
vt 0.4310674 -0.2462317
v 0.9263152 -3.2030411 0.8226873
vn 0.0000000 0.8746270 -0.4847965
vt 0.0312946 -0.2429945
v 1.5674020 -3.2387750 0.6582763
vn 0.0000000 0.9997369 0.0229384
vt 0.4269231 -0.1315209
v 0.9263152 -3.2387750 0.6582763
vn 0.0000000 0.9997369 0.0229384
vt 0.0378932 -0.1307170
v 1.5674020 -3.1953721 0.4950543
vn 0.0000000 0.8741141 0.4857206
vt 0.4256186 -0.0118392
v 0.9263152 -3.1953721 0.4950543
vn 0.0000000 0.8741142 0.4857205
vt 0.0420580 -0.0109537
v 1.2089020 -2.2735760 0.0632624
vn -0.9467756 0.0561840 0.3169533
vt 0.9885225 0.7285156
v 1.2089020 -3.0126030 0.3188136
vn -0.9601792 0.0913050 0.2640443
vt 1.0078940 0.2106591
v 1.2508730 -2.9992170 0.4668130
vn -0.9583362 0.0944816 0.2695645
vt 0.8836759 0.1627246
v 1.2508730 -2.2576261 0.1844169
vn -0.9456027 0.0609750 0.3195586
vt 0.8766279 0.7356560
v 1.2508730 2.1162710 0.1844166
vn -0.9451742 -0.0775119 0.3172343
vt 0.8766274 3.7958980
v 1.2089020 2.1322210 0.0632622
vn -0.9455832 -0.0689311 0.3179953
vt 0.9885287 3.7958980
v 1.2508740 2.9400151 0.5805086
vn -0.9437417 -0.1421466 0.2985733
vt 0.8606102 4.4546852
v 1.2089020 3.0120330 0.4817855
vn -0.9440020 -0.1417318 0.2979467
vt 0.9726481 4.4554009
v 1.2928460 2.1322210 0.0632622
vn 0.9455824 -0.0689319 0.3179975
vt 0.9885287 3.7958980
v 1.2928460 3.0120330 0.4817855
vn 0.9440021 -0.1417321 0.2979465
vt 0.9724503 4.4541440
v 1.2508740 2.9400151 0.5805086
vn 0.9437416 -0.1421470 0.2985732
vt 0.8606102 4.4546852
v 1.2508730 2.1162710 0.1844166
vn 0.9451733 -0.0775130 0.3172367
vt 0.8766274 3.7958980
v 1.2508730 -2.2576261 0.1844169
vn 0.9459841 0.0588375 0.3188297
vt 0.8766279 0.7356560
v 1.2928450 -2.2735760 0.0632625
vn 0.9456823 0.0556881 0.3202872
vt 0.9885225 0.7285156
v 1.2508730 -2.9992170 0.4668130
vn 0.9504663 0.1106142 0.2904797
vt 0.8836759 0.1627246
v 1.2928450 -3.0623190 0.3535071
vn 0.9497076 0.1110585 0.2927825
vt 0.9980644 0.1721616
v 1.5674020 2.8654170 0.9859298
vn 1.0000000 -0.0000000 0.0000000
vt 0.4356249 -3.9826422
v 1.5674020 2.8700659 1.0417110
vn 1.0000000 -0.0000000 0.0000000
vt 0.4768561 -3.9821110
v 0.9263155 2.8700659 1.0417110
vn -0.0000001 0.1358006 0.9907362
vt 0.8437613 -3.9827013
v 1.5674020 2.8700659 1.0417110
vn -0.0000000 0.1358009 0.9907362
vt 0.4768561 -3.9821110
v 0.9263155 2.8654170 0.9859298
vn 0.0000000 -0.1365142 -0.9906381
vt 0.0316630 -3.9821568
v 1.5674020 2.8654170 0.9859298
vn 0.0000000 -0.1365142 -0.9906381
vt 0.4356249 -3.9826422
v 1.2928460 2.8654170 0.9859298
vn 0.9453107 -0.0019442 -0.3261655
vt 0.9854820 -3.9816661
v 1.2928450 -2.9086609 1.0075721
vn 0.9330931 -0.0013480 -0.3596324
vt 0.9960137 -0.4956752
v 1.2508730 -2.8955641 0.8986231
vn 0.9332651 -0.0013560 -0.3591858
vt 0.8827859 -0.5021945
v 1.2508740 2.8552639 0.8641526
vn 0.9454701 -0.0019523 -0.3257033
vt 0.8748626 -3.9824352

g group_129_140627821679024
f 1/1/1 2/2/2 3/3/3 
f 3/3/3 4/4/4 1/1/1 
f 5/5/5 2/2/2 1/1/1 
f 1/1/1 6/6/6 5/5/5 
f 7/7/7 5/5/5 6/6/6 
f 6/6/6 8/8/8 7/7/7 
f 9/9/9 7/7/7 8/8/8 
f 8/8/8 10/10/10 9/9/9 
f 11/11/11 9/9/9 10/10/10 
f 10/10/10 12/12/12 11/11/11 
f 13/13/13 11/11/11 12/12/12 
f 12/12/12 14/14/14 13/13/13 
f 13/13/13 14/14/14 15/15/15 
f 15/15/15 16/16/16 13/13/13 
f 17/17/17 16/16/16 15/15/15 
f 15/15/15 18/18/18 17/17/17 
f 18/18/18 19/19/19 20/20/20 
f 20/20/20 17/17/17 18/18/18 
f 20/20/20 19/19/19 21/21/21 
f 21/21/21 22/22/22 20/20/20 
f 21/21/21 23/23/23 24/24/24 
f 24/24/24 22/22/22 21/21/21 
f 24/24/24 23/23/23 25/25/25 
f 25/25/25 26/26/26 24/24/24 
f 25/25/25 27/27/27 28/28/28 
f 28/28/28 26/26/26 25/25/25 
f 29/29/29 30/30/30 31/31/31 
f 31/31/31 32/32/32 29/29/29 
f 30/30/30 33/33/33 34/34/34 
f 34/34/34 31/31/31 30/30/30 
f 33/33/33 35/35/35 36/36/36 
f 36/36/36 34/34/34 33/33/33 
f 35/35/35 37/37/37 38/38/38 
f 38/38/38 36/36/36 35/35/35 
f 37/37/37 39/39/39 40/40/40 
f 40/40/40 38/38/38 37/37/37 
f 40/40/40 39/39/39 41/41/41 
f 41/41/41 42/42/42 40/40/40 
f 43/43/43 44/44/44 45/45/45 
f 45/45/45 46/46/46 43/43/43 
f 47/47/47 48/48/48 49/49/49 
f 49/49/49 50/50/50 47/47/47 
f 51/51/51 47/47/47 50/50/50 
f 50/50/50 52/52/52 51/51/51 
f 53/53/53 51/51/51 52/52/52 
f 52/52/52 54/54/54 53/53/53 
f 55/55/55 53/53/53 54/54/54 
f 54/54/54 56/56/56 55/55/55 
f 43/43/43 55/55/55 56/56/56 
f 56/56/56 44/44/44 43/43/43 
f 57/57/57 58/58/58 59/59/59 
f 59/59/59 60/60/60 57/57/57 
f 61/61/61 62/62/62 57/57/57 
f 57/57/57 60/60/60 61/61/61 
f 63/63/63 62/62/62 61/61/61 
f 61/61/61 64/64/64 63/63/63 
f 65/65/65 63/63/63 64/64/64 
f 64/64/64 66/66/66 65/65/65 
f 65/65/65 66/66/66 67/67/67 
f 67/67/67 68/68/68 65/65/65 
f 68/68/68 67/67/67 69/69/69 
f 69/69/69 70/70/70 68/68/68 
f 71/71/71 70/70/70 69/69/69 
f 69/69/69 72/72/72 71/71/71 
f 73/73/73 74/74/74 71/71/71 
f 71/71/71 72/72/72 73/73/73 
f 75/75/75 74/74/74 73/73/73 
f 73/73/73 76/76/76 75/75/75 
f 77/77/77 75/75/75 76/76/76 
f 76/76/76 78/78/78 77/77/77 
f 79/79/79 77/77/77 78/78/78 
f 78/78/78 80/80/80 79/79/79 
f 81/81/81 79/79/79 80/80/80 
f 80/80/80 82/82/82 81/81/81 
f 83/83/83 84/84/84 81/81/81 
f 81/81/81 82/82/82 83/83/83 
f 85/85/85 86/86/86 87/87/87 
f 87/87/87 88/88/88 85/85/85 
f 89/89/89 85/85/85 88/88/88 
f 88/88/88 90/90/90 89/89/89 
f 91/91/91 89/89/89 90/90/90 
f 90/90/90 92/92/92 91/91/91 
f 93/93/93 91/91/91 92/92/92 
f 92/92/92 94/94/94 93/93/93 
f 95/95/95 93/93/93 94/94/94 
f 94/94/94 96/96/96 95/95/95 
f 97/97/97 95/95/95 96/96/96 
f 96/96/96 98/98/98 97/97/97 
f 97/97/97 98/98/98 99/99/99 
f 99/99/99 100/100/100 97/97/97 
f 99/99/99 101/101/101 102/102/102 
f 102/102/102 100/100/100 99/99/99 
f 103/103/103 104/104/104 105/105/105 
f 105/105/105 106/106/106 103/103/103 
f 104/104/104 107/107/107 108/108/108 
f 108/108/108 105/105/105 104/104/104 
f 107/107/107 109/109/109 110/110/110 
f 110/110/110 108/108/108 107/107/107 
f 109/109/109 111/111/111 112/112/112 
f 112/112/112 110/110/110 109/109/109 
f 111/111/111 102/102/102 101/101/101 
f 101/101/101 112/112/112 111/111/111 
f 113/113/113 114/114/114 115/115/115 
f 115/115/115 116/116/116 113/113/113 
f 116/116/116 117/117/117 118/118/118 
f 118/118/118 113/113/113 116/116/116 
f 119/119/119 120/120/120 118/118/118 
f 118/118/118 117/117/117 119/119/119 
f 121/121/121 122/122/122 123/123/123 
f 123/123/123 124/124/124 121/121/121 
f 121/121/121 124/124/124 125/125/125 
f 125/125/125 126/126/126 121/121/121 
f 125/125/125 127/127/127 128/128/128 
f 128/128/128 126/126/126 125/125/125 
f 129/129/129 130/130/130 28/28/28 
f 28/28/28 27/27/27 129/129/129 
f 131/131/131 49/49/49 48/48/48 
f 48/48/48 132/132/132 131/131/131 
f 103/103/103 106/106/106 133/133/133 
f 133/133/133 134/134/134 103/103/103 
f 135/135/135 136/136/136 137/137/137 
f 137/137/137 138/138/138 135/135/135 
f 46/46/46 45/45/45 42/42/42 
f 42/42/42 41/41/41 46/46/46 
