v -1.5717940 2.9973960 0.9493846
vn -1.0000000 0.0000000 0.0000000
vt 0.4323598 4.9184790
v -1.5717940 2.8654170 0.9859301
vn -1.0000000 -0.0000000 0.0000000
vt 0.4349577 5.0275259
v -1.5717940 2.8700659 1.0417110
vn -1.0000000 -0.0000000 0.0000000
vt 0.4750108 5.0256581
v -1.5717940 3.0259049 0.9987724
vn -1.0000000 0.0000000 0.0000000
vt 0.4702881 4.9148698
v -1.5717940 3.1536570 0.8669576
vn -1.0000000 0.0000000 0.0000000
vt 0.4641453 4.7999759
v -1.5717940 3.1042719 0.8384415
vn -1.0000000 0.0000000 0.0000000
vt 0.4249591 4.8040142
v -1.5717940 3.1950610 0.7124395
vn -1.0000000 0.0000000 0.0000000
vt 0.4583792 4.6922331
v -1.5717940 3.1380351 0.7124395
vn -1.0000000 0.0000000 0.0000000
vt 0.4192288 4.6972399
v -1.5717940 3.1536610 0.5579249
vn -1.0000000 0.0000000 0.0000000
vt 0.4540843 4.5910668
v -1.5717940 3.1042719 0.5864375
vn -1.0000000 0.0000000 0.0000000
vt 0.4140083 4.5961852
v -1.5717940 3.0448899 0.4367431
vn -1.0000000 0.0000000 0.0000000
vt 0.4562182 4.4550562
v -1.5717940 3.0120330 0.4817858
vn -1.0000000 0.0000000 0.0000000
vt 0.4143382 4.4561868
v -1.5717940 2.1394720 -0.0006248
vn -1.0000000 -0.0000000 -0.0000000
vt 0.4638672 3.7958980
v -1.5717940 2.1322210 0.0632624
vn -1.0000000 -0.0000000 -0.0000000
vt 0.4218750 3.7958980
v -1.5717930 -2.2808270 -0.0006249
vn -1.0000000 -0.0000000 0.0000000
vt 0.4638672 0.7285156
v -1.5717930 -2.2735760 0.0632623
vn -1.0000000 -0.0000000 0.0000000
vt 0.4218750 0.7285156
v -1.5717930 -3.0947690 0.3089409
vn -1.0000000 0.0000000 0.0000000
vt 0.4682810 0.1686366
v -1.5717930 -3.0623190 0.3535068
vn -1.0000000 0.0000000 0.0000000
vt 0.4289494 0.1704473
v -1.5717930 -3.2472589 0.4735619
vn -1.0000000 0.0000000 0.0000000
vt 0.4650702 -0.0135499
v -1.5717930 -3.1953721 0.4950540
vn -1.0000000 0.0000000 0.0000000
vt 0.4256186 -0.0118392
v -1.5717930 -3.2949369 0.6582809
vn -1.0000000 0.0000000 0.0000000
vt 0.4701021 -0.1283454
v -1.5717930 -3.2387750 0.6582760
vn -1.0000000 0.0000000 0.0000000
vt 0.4269231 -0.1315209
v -1.5717930 -3.2549300 0.8441803
vn -1.0000000 0.0000000 0.0000000
vt 0.4786087 -0.2365386
v -1.5717930 -3.2030411 0.8226870
vn -1.0000000 0.0000000 0.0000000
vt 0.4310674 -0.2462317
v -1.5717930 -3.1170809 0.9820937
vn -1.0000000 0.0000000 0.0000000
vt 0.4784778 -0.3634918
v -1.5717930 -3.0864780 0.9362929
vn -1.0000000 0.0000000 0.0000000
vt 0.4341871 -0.3693550
v -1.5717930 -2.9152050 1.0624330
vn -1.0000000 -0.0000000 -0.0000000
vt 0.4800678 -0.4967190
v -1.5717930 -2.9086609 1.0075721
vn -1.0000000 -0.0000000 -0.0000000
vt 0.4378525 -0.5000235
v -1.5717940 2.8700659 1.0417110
vn 0.0000000 0.1358006 0.9907362
vt 0.4750108 5.0256581
v -0.9307071 2.8700659 1.0417110
vn 0.0000001 0.1358004 0.9907362
vt 0.8437479 5.0257401
v -0.9307071 3.0259049 0.9987724
vn 0.0000000 0.5098029 0.8602912
vt 0.8437665 4.9135771
v -1.5717940 3.0259049 0.9987724
vn 0.0000000 0.5098031 0.8602911
vt 0.4702881 4.9148698
v -0.9307071 3.1536570 0.8669576
vn 0.0000000 0.8699108 0.4932091
vt 0.8437500 4.7995262
v -1.5717940 3.1536570 0.8669576
vn 0.0000000 0.8699108 0.4932091
vt 0.4641453 4.7999759
v -0.9307071 3.1950610 0.7124395
vn 0.0000000 1.0000000 0.0000094
vt 0.8437500 4.6923752
v -1.5717940 3.1950610 0.7124395
vn 0.0000000 1.0000000 0.0000094
vt 0.4583792 4.6922331
v -0.9307071 3.1536610 0.5579249
vn 0.0000000 0.8791925 -0.4764667
vt 0.8437500 4.5917921
v -1.5717940 3.1536610 0.5579249
vn 0.0000000 0.8791925 -0.4764667
vt 0.4540843 4.5910668
v -0.9307071 3.0448899 0.4367431
vn 0.0000000 0.6009266 -0.7993042
vt 0.8437585 4.4557071
v -1.5717940 3.0448899 0.4367431
vn 0.0000000 0.6009266 -0.7993042
vt 0.4562182 4.4550562
v -0.9307071 2.1394720 -0.0006248
vn -0.0000000 0.2231069 -0.9747940
vt 0.8437500 3.7958980
v -1.5717940 2.1394720 -0.0006248
vn 0.0000000 0.2231069 -0.9747940
vt 0.4638672 3.7958980
v -1.5717930 -3.0947690 0.3089409
vn -0.0000000 -0.5592943 -0.8289692
vt 0.4682810 0.1686366
v -1.5717930 -2.2808270 -0.0006249
vn -0.0000002 -0.1807189 -0.9835348
vt 0.4638672 0.7285156
v -0.9307069 -2.2808270 -0.0006250
vn -0.0000002 -0.1807189 -0.9835348
vt 0.8437500 0.7285156
v -0.9307069 -3.0947690 0.3089409
vn 0.0000000 -0.5592943 -0.8289692
vt 0.8437526 0.1679811
v -1.5717930 -3.1170809 0.9820937
vn 0.0000000 -0.5498555 0.8352598
vt 0.4784778 -0.3634918
v -0.9307069 -3.1170809 0.9820937
vn 0.0000000 -0.5498555 0.8352598
vt 0.8437500 -0.3648803
v -0.9307069 -2.9152050 1.0624330
vn 0.0000000 -0.1864866 0.9824575
vt 0.8437500 -0.4985242
v -1.5717930 -2.9152050 1.0624330
vn 0.0000000 -0.1864866 0.9824575
vt 0.4800678 -0.4967190
v -1.5717930 -3.2549300 0.8441803
vn 0.0000000 -0.8782674 0.4781698
vt 0.4786087 -0.2365386
v -0.9307069 -3.2549300 0.8441803
vn 0.0000000 -0.8782675 0.4781697
vt 0.8437350 -0.2375501
v -1.5717930 -3.2949369 0.6582809
vn 0.0000000 -0.9997938 -0.0203098
vt 0.4701021 -0.1283454
v -0.9307069 -3.2949369 0.6582809
vn 0.0000000 -0.9997938 -0.0203098
vt 0.8437501 -0.1290255
v -1.5717930 -3.2472589 0.4735619
vn 0.0000000 -0.8776403 -0.4793199
vt 0.4650702 -0.0135499
v -0.9307069 -3.2472589 0.4735619
vn 0.0000000 -0.8776402 -0.4793199
vt 0.8437513 -0.0144312
v -0.9307071 2.9973960 0.9493846
vn 1.0000000 0.0000000 0.0000000
vt 0.0372945 4.9204960
v -0.9307071 3.0259049 0.9987724
vn 1.0000000 0.0000000 0.0000000
vt -0.0096780 4.9121332
v -0.9307071 2.8700659 1.0417110
vn 1.0000000 0.0000000 0.0000000
vt -0.0158010 5.0200882
v -0.9307071 2.8654170 0.9859301
vn 1.0000000 0.0000000 0.0000000
vt 0.0333231 5.0301638
v -0.9307071 3.1536570 0.8669576
vn 1.0000000 0.0000000 0.0000000
vt 0.0037103 4.7998099
v -0.9307071 3.1042719 0.8384415
vn 1.0000000 0.0000000 0.0000000
vt 0.0427424 4.8043661
v -0.9307071 3.1380351 0.7124395
vn 1.0000000 0.0000000 0.0000000
vt 0.0474358 4.6961770
v -0.9307071 3.1950610 0.7124395
vn 1.0000000 0.0000000 0.0000000
vt 0.0130968 4.6938248
v -0.9307071 3.1042719 0.5864375
vn 1.0000000 0.0000000 0.0000000
vt 0.0509316 4.5934982
v -0.9307071 3.1536610 0.5579249
vn 1.0000000 0.0000000 0.0000000
vt 0.0215952 4.5948410
v -0.9307071 3.0120330 0.4817858
vn 1.0000000 0.0000000 0.0000000
vt 0.0497901 4.4552722
v -0.9307071 3.0448899 0.4367431
vn 1.0000000 0.0000000 0.0000000
vt 0.0220491 4.4566379
v -0.9307071 2.1322210 0.0632624
vn 1.0000000 0.0000000 0.0000000
vt 0.0429688 3.7958980
v -0.9307071 2.1394720 -0.0006248
vn 1.0000000 0.0000000 0.0000000
vt 0.0087891 3.7958980
v -0.9307069 -2.2735760 0.0632622
vn 1.0000000 0.0000000 -0.0000000
vt 0.0429688 0.7285156
v -0.9307069 -2.2808270 -0.0006250
vn 1.0000000 0.0000000 -0.0000000
vt 0.0087891 0.7285156
v -0.9307069 -3.0947690 0.3089409
vn 1.0000000 0.0000000 0.0000000
vt -0.0032395 0.1673205
v -0.9307069 -3.0623190 0.3535068
vn 1.0000000 0.0000000 0.0000000
vt 0.0391015 0.1714818
v -0.9307069 -3.1953721 0.4950540
vn 1.0000000 0.0000000 0.0000000
vt 0.0420580 -0.0109537
v -0.9307069 -3.2472589 0.4735619
vn 1.0000000 0.0000000 0.0000000
vt 0.0021121 -0.0146947
v -0.9307069 -3.2387750 0.6582760
vn 1.0000000 0.0000000 0.0000000
vt 0.0378932 -0.1307170
v -0.9307069 -3.2949369 0.6582809
vn 1.0000000 0.0000000 0.0000000
vt 0.0009294 -0.1297114
v -0.9307069 -3.2030411 0.8226870
vn 1.0000000 0.0000000 0.0000000
vt 0.0312946 -0.2429945
v -0.9307069 -3.2549300 0.8441803
vn 1.0000000 0.0000000 0.0000000
vt -0.0049650 -0.2423525
v -0.9307069 -3.0864780 0.9362929
vn 1.0000000 0.0000000 0.0000000
vt 0.0310861 -0.3661045
v -0.9307069 -3.1170809 0.9820937
vn 1.0000000 0.0000000 0.0000000
vt -0.0112796 -0.3677282
v -0.9307069 -2.9152050 1.0624330
vn 1.0000000 0.0000000 0.0000000
vt -0.0172250 -0.5000212
v -0.9307069 -2.9086609 1.0075721
vn 1.0000000 0.0000000 0.0000000
vt 0.0296610 -0.4972194
v -1.5717940 2.9973960 0.9493846
vn 0.0000000 -0.5116462 -0.8591963
vt 0.4323598 4.9184790
v -0.9307071 2.9973960 0.9493846
vn 0.0000000 -0.5116462 -0.8591963
vt 0.0372945 4.9204960
v -0.9307071 2.8654170 0.9859301
vn 0.0000000 -0.1365140 -0.9906382
vt 0.0333231 5.0301638
v -1.5717940 2.8654170 0.9859301
vn 0.0000000 -0.1365139 -0.9906382
vt 0.4349577 5.0275259
v -1.5717940 3.1042719 0.8384415
vn 0.0000000 -0.8706540 -0.4918960
vt 0.4249591 4.8040142
v -0.9307071 3.1042719 0.8384415
vn 0.0000000 -0.8706540 -0.4918960
vt 0.0427424 4.8043661
v -1.5717940 3.1380351 0.7124395
vn 0.0000000 -1.0000000 0.0000001
vt 0.4192288 4.6972399
v -0.9307071 3.1380351 0.7124395
vn 0.0000000 -1.0000000 0.0000001
vt 0.0474358 4.6961770
v -1.5717940 3.1042719 0.5864375
vn 0.0000000 -0.8813326 0.4724964
vt 0.4140083 4.5961852
v -0.9307071 3.1042719 0.5864375
vn 0.0000000 -0.8813326 0.4724964
vt 0.0509316 4.5934982
v -1.5717940 3.0120330 0.4817858
vn 0.0000000 -0.6021453 0.7983866
vt 0.4143382 4.4561868
v -0.9307071 3.0120330 0.4817858
vn 0.0000000 -0.6021452 0.7983866
vt 0.0497901 4.4552722
v -1.5717940 2.1322210 0.0632624
vn 0.0000000 -0.2201891 0.9754572
vt 0.4218750 3.7958980
v -0.9307071 2.1322210 0.0632624
vn 0.0000000 -0.2201891 0.9754572
vt 0.0429688 3.7958980
v -1.5717930 -2.2735760 0.0632623
vn 0.0000002 0.1753907 0.9844989
vt 0.4218750 0.7285156
v -0.9307069 -2.2735760 0.0632622
vn 0.0000002 0.1753908 0.9844989
vt 0.0429688 0.7285156
v -1.5717930 -3.0623190 0.3535068
vn 0.0000000 0.5517510 0.8340089
vt 0.4289494 0.1704473
v -0.9307069 -3.0623190 0.3535068
vn 0.0000000 0.5517510 0.8340089
vt 0.0391015 0.1714818
v -1.5717930 -2.9086609 1.0075721
vn 0.0000000 0.1876286 -0.9822401
vt 0.4378525 -0.5000235
v -0.9307069 -2.9086609 1.0075721
vn 0.0000000 0.1876285 -0.9822401
vt 0.0296610 -0.4972194
v -0.9307069 -3.0864780 0.9362929
vn 0.0000000 0.5454261 -0.8381589
vt 0.0310861 -0.3661045
v -1.5717930 -3.0864780 0.9362929
vn 0.0000000 0.5454261 -0.8381589
vt 0.4341871 -0.3693550
v -0.9307069 -3.2030411 0.8226870
vn 0.0000000 0.8746270 -0.4847965
vt 0.0312946 -0.2429945
v -1.5717930 -3.2030411 0.8226870
vn 0.0000000 0.8746271 -0.4847964
vt 0.4310674 -0.2462317
v -0.9307069 -3.2387750 0.6582760
vn 0.0000000 0.9997369 0.0229384
vt 0.0378932 -0.1307170
v -1.5717930 -3.2387750 0.6582760
vn 0.0000000 0.9997369 0.0229384
vt 0.4269231 -0.1315209
v -0.9307069 -3.1953721 0.4950540
vn 0.0000000 0.8741141 0.4857206
vt 0.0420580 -0.0109537
v -1.5717930 -3.1953721 0.4950540
vn 0.0000000 0.8741141 0.4857207
vt 0.4256186 -0.0118392
v -1.2132930 -2.2735760 0.0632622
vn 0.9467756 0.0561840 0.3169533
vt 0.9885225 0.7285156
v -1.2552650 -2.2576261 0.1844167
vn 0.9456027 0.0609750 0.3195585
vt 0.8766279 0.7356560
v -1.2552650 -2.9992170 0.4668127
vn 0.9583362 0.0944816 0.2695645
vt 0.8836759 0.1627246
v -1.2132930 -3.0126030 0.3188134
vn 0.9601792 0.0913050 0.2640443
vt 1.0078940 0.2106591
v -1.2132930 2.1322210 0.0632624
vn 0.9455832 -0.0689311 0.3179953
vt 0.9885287 3.7958980
v -1.2552650 2.1162710 0.1844168
vn 0.9451742 -0.0775120 0.3172343
vt 0.8766274 3.7958980
v -1.2552650 2.9400151 0.5805089
vn 0.9437417 -0.1421466 0.2985733
vt 0.8606102 4.4546852
v -1.2132940 3.0120330 0.4817858
vn 0.9440020 -0.1417319 0.2979468
vt 0.9726481 4.4554009
v -1.2972370 2.1322210 0.0632624
vn -0.9455823 -0.0689319 0.3179976
vt 0.9885287 3.7958980
v -1.2552650 2.1162710 0.1844168
vn -0.9451733 -0.0775130 0.3172367
vt 0.8766274 3.7958980
v -1.2552650 2.9400151 0.5805089
vn -0.9437416 -0.1421470 0.2985733
vt 0.8606102 4.4546852
v -1.2972370 3.0120330 0.4817858
vn -0.9440020 -0.1417322 0.2979465
vt 0.9724503 4.4541440
v -1.2972370 -2.2735760 0.0632623
vn -0.9456823 0.0556880 0.3202872
vt 0.9885225 0.7285156
v -1.2552650 -2.2576261 0.1844167
vn -0.9459841 0.0588374 0.3188297
vt 0.8766279 0.7356560
v -1.2972370 -3.0623190 0.3535068
vn -0.9497076 0.1110585 0.2927825
vt 0.9980644 0.1721616
v -1.2552650 -2.9992170 0.4668127
vn -0.9504662 0.1106142 0.2904797
vt 0.8836759 0.1627246
v -1.5717940 2.8654170 0.9859301
vn -1.0000000 -0.0000000 0.0000000
vt 0.4356249 -3.9826422
v -1.5717940 2.8700659 1.0417110
vn -1.0000000 -0.0000000 0.0000000
vt 0.4768561 -3.9821110
v -0.9307071 2.8700659 1.0417110
vn 0.0000001 0.1358004 0.9907362
vt 0.8437613 -3.9827013
v -1.5717940 2.8700659 1.0417110
vn 0.0000000 0.1358006 0.9907362
vt 0.4768561 -3.9821110
v -1.5717940 2.8654170 0.9859301
vn 0.0000000 -0.1365139 -0.9906382
vt 0.4356249 -3.9826422
v -0.9307071 2.8654170 0.9859301
vn 0.0000000 -0.1365140 -0.9906382
vt 0.0316630 -3.9821568
v -1.2972370 2.8654170 0.9859301
vn -0.9453107 -0.0019441 -0.3261656
vt 0.9854820 -3.9816661
v -1.2552650 2.8552639 0.8641528
vn -0.9454700 -0.0019523 -0.3257033
vt 0.8748626 -3.9824352
v -1.2552650 -2.8955641 0.8986229
vn -0.9332651 -0.0013560 -0.3591858
vt 0.8827859 -0.5021945
v -1.2972370 -2.9086609 1.0075721
vn -0.9330931 -0.0013479 -0.3596323
vt 0.9960137 -0.4956752

g group_53_140627850934128
f 1/1/1 2/2/2 3/3/3 
f 3/3/3 4/4/4 1/1/1 
f 5/5/5 6/6/6 1/1/1 
f 1/1/1 4/4/4 5/5/5 
f 7/7/7 8/8/8 6/6/6 
f 6/6/6 5/5/5 7/7/7 
f 9/9/9 10/10/10 8/8/8 
f 8/8/8 7/7/7 9/9/9 
f 11/11/11 12/12/12 10/10/10 
f 10/10/10 9/9/9 11/11/11 
f 13/13/13 14/14/14 12/12/12 
f 12/12/12 11/11/11 13/13/13 
f 13/13/13 15/15/15 16/16/16 
f 16/16/16 14/14/14 13/13/13 
f 17/17/17 18/18/18 16/16/16 
f 16/16/16 15/15/15 17/17/17 
f 18/18/18 17/17/17 19/19/19 
f 19/19/19 20/20/20 18/18/18 
f 19/19/19 21/21/21 22/22/22 
f 22/22/22 20/20/20 19/19/19 
f 22/22/22 21/21/21 23/23/23 
f 23/23/23 24/24/24 22/22/22 
f 23/23/23 25/25/25 26/26/26 
f 26/26/26 24/24/24 23/23/23 
f 26/26/26 25/25/25 27/27/27 
f 27/27/27 28/28/28 26/26/26 
f 29/29/29 30/30/30 31/31/31 
f 31/31/31 32/32/32 29/29/29 
f 32/32/32 31/31/31 33/33/33 
f 33/33/33 34/34/34 32/32/32 
f 34/34/34 33/33/33 35/35/35 
f 35/35/35 36/36/36 34/34/34 
f 36/36/36 35/35/35 37/37/37 
f 37/37/37 38/38/38 36/36/36 
f 38/38/38 37/37/37 39/39/39 
f 39/39/39 40/40/40 38/38/38 
f 39/39/39 41/41/41 42/42/42 
f 42/42/42 40/40/40 39/39/39 
f 43/43/43 44/44/44 45/45/45 
f 45/45/45 46/46/46 43/43/43 
f 47/47/47 48/48/48 49/49/49 
f 49/49/49 50/50/50 47/47/47 
f 51/51/51 52/52/52 48/48/48 
f 48/48/48 47/47/47 51/51/51 
f 53/53/53 54/54/54 52/52/52 
f 52/52/52 51/51/51 53/53/53 
f 55/55/55 56/56/56 54/54/54 
f 54/54/54 53/53/53 55/55/55 
f 43/43/43 46/46/46 56/56/56 
f 56/56/56 55/55/55 43/43/43 
f 57/57/57 58/58/58 59/59/59 
f 59/59/59 60/60/60 57/57/57 
f 61/61/61 58/58/58 57/57/57 
f 57/57/57 62/62/62 61/61/61 
f 63/63/63 64/64/64 61/61/61 
f 61/61/61 62/62/62 63/63/63 
f 65/65/65 66/66/66 64/64/64 
f 64/64/64 63/63/63 65/65/65 
f 65/65/65 67/67/67 68/68/68 
f 68/68/68 66/66/66 65/65/65 
f 67/67/67 69/69/69 70/70/70 
f 70/70/70 68/68/68 67/67/67 
f 71/71/71 72/72/72 70/70/70 
f 70/70/70 69/69/69 71/71/71 
f 73/73/73 72/72/72 71/71/71 
f 71/71/71 74/74/74 73/73/73 
f 75/75/75 76/76/76 73/73/73 
f 73/73/73 74/74/74 75/75/75 
f 77/77/77 78/78/78 76/76/76 
f 76/76/76 75/75/75 77/77/77 
f 79/79/79 80/80/80 78/78/78 
f 78/78/78 77/77/77 79/79/79 
f 81/81/81 82/82/82 80/80/80 
f 80/80/80 79/79/79 81/81/81 
f 83/83/83 82/82/82 81/81/81 
f 81/81/81 84/84/84 83/83/83 
f 85/85/85 86/86/86 87/87/87 
f 87/87/87 88/88/88 85/85/85 
f 89/89/89 90/90/90 86/86/86 
f 86/86/86 85/85/85 89/89/89 
f 91/91/91 92/92/92 90/90/90 
f 90/90/90 89/89/89 91/91/91 
f 93/93/93 94/94/94 92/92/92 
f 92/92/92 91/91/91 93/93/93 
f 95/95/95 96/96/96 94/94/94 
f 94/94/94 93/93/93 95/95/95 
f 97/97/97 98/98/98 96/96/96 
f 96/96/96 95/95/95 97/97/97 
f 97/97/97 99/99/99 100/100/100 
f 100/100/100 98/98/98 97/97/97 
f 100/100/100 99/99/99 101/101/101 
f 101/101/101 102/102/102 100/100/100 
f 103/103/103 104/104/104 105/105/105 
f 105/105/105 106/106/106 103/103/103 
f 106/106/106 105/105/105 107/107/107 
f 107/107/107 108/108/108 106/106/106 
f 108/108/108 107/107/107 109/109/109 
f 109/109/109 110/110/110 108/108/108 
f 110/110/110 109/109/109 111/111/111 
f 111/111/111 112/112/112 110/110/110 
f 112/112/112 111/111/111 102/102/102 
f 102/102/102 101/101/101 112/112/112 
f 113/113/113 114/114/114 115/115/115 
f 115/115/115 116/116/116 113/113/113 
f 114/114/114 113/113/113 117/117/117 
f 117/117/117 118/118/118 114/114/114 
f 119/119/119 118/118/118 117/117/117 
f 117/117/117 120/120/120 119/119/119 
f 121/121/121 122/122/122 123/123/123 
f 123/123/123 124/124/124 121/121/121 
f 121/121/121 125/125/125 126/126/126 
f 126/126/126 122/122/122 121/121/121 
f 126/126/126 125/125/125 127/127/127 
f 127/127/127 128/128/128 126/126/126 
f 129/129/129 28/28/28 27/27/27 
f 27/27/27 130/130/130 129/129/129 
f 131/131/131 132/132/132 50/50/50 
f 50/50/50 49/49/49 131/131/131 
f 103/103/103 133/133/133 134/134/134 
f 134/134/134 104/104/104 103/103/103 
f 135/135/135 136/136/136 137/137/137 
f 137/137/137 138/138/138 135/135/135 
f 44/44/44 42/42/42 41/41/41 
f 41/41/41 45/45/45 44/44/44 
