v -1.1212090 2.2051439 0.5799416
vn 1.0000000 0.0000000 0.0000000
vt 0.4945227 0.9320358
v -1.1212090 2.0681331 0.6163605
vn 1.0000000 0.0000000 0.0000000
vt 0.5095628 0.9385493
v -1.1212090 1.9312650 0.5793896
vn 1.0000000 0.0000000 0.0000000
vt 0.5193280 0.9517100
v -1.1212090 1.8312130 0.4789406
vn 1.0000000 0.0000000 0.0000000
vt 0.5212049 0.9679917
v -1.1212090 1.7948040 0.3419266
vn 1.0000000 0.0000000 0.0000000
vt 0.5146906 0.9830307
v -1.1212090 1.8317651 0.2050576
vn 1.0000000 0.0000000 0.0000000
vt 0.5015256 0.9927939
v -1.1212090 1.9322140 0.1050155
vn 1.0000000 0.0000000 0.0000000
vt 0.4852450 0.9946727
v -1.1212090 2.0692339 0.0685936
vn 1.0000000 0.0000000 0.0000000
vt 0.4702091 0.9881566
v -1.1212090 2.2061040 0.1055646
vn 1.0000000 0.0000000 0.0000000
vt 0.4604418 0.9749935
v -1.1212090 2.3061430 0.2060136
vn 1.0000000 0.0000000 0.0000000
vt 0.4585659 0.9587129
v -1.1212090 2.3425641 0.3430305
vn 1.0000000 0.0000000 0.0000000
vt 0.4650791 0.9436750
v -1.1212090 2.3055930 0.4798965
vn 1.0000000 0.0000000 0.0000000
vt 0.4782400 0.9339097
v -1.1212090 1.8317651 0.2050576
vn 0.0000000 -0.8650274 -0.5017247
vt 0.9689519 0.1218534
v -1.1212090 1.7948040 0.3419266
vn 0.0000000 -0.9999980 -0.0020101
vt 0.9689531 0.1054665
v -1.3722301 1.7948040 0.3419266
vn 0.0000000 -0.9999980 -0.0020101
vt 0.9979674 0.1054665
v -1.3722301 1.8317651 0.2050576
vn 0.0000000 -0.8650274 -0.5017247
vt 0.9979686 0.1218534
v -1.1212090 1.8312130 0.4789406
vn 0.0000000 -0.8670357 0.4982461
vt 0.9689531 0.0890766
v -1.3722301 1.8312130 0.4789406
vn 0.0000000 -0.8670357 0.4982461
vt 0.9979686 0.0890766
v -1.1212090 1.8312130 0.4789406
vn 0.0000000 -0.8670357 0.4982461
vt 0.9689531 0.2857603
v -1.1212090 1.9312650 0.5793896
vn 0.0000000 -0.5017352 0.8650213
vt 0.9689531 0.2693735
v -1.3722301 1.9312650 0.5793896
vn 0.0000000 -0.5017352 0.8650213
vt 0.9979686 0.2693735
v -1.3722301 1.8312130 0.4789406
vn 0.0000000 -0.8670357 0.4982461
vt 0.9979686 0.2857603
v -1.1212090 2.0681331 0.6163605
vn 0.0000000 -0.0020112 0.9999980
vt 0.9689531 0.2529857
v -1.3722301 2.0681331 0.6163605
vn 0.0000000 -0.0020112 0.9999980
vt 0.9979686 0.2529867
v -1.1212090 2.2051439 0.5799416
vn 0.0000000 0.4982623 0.8670263
vt 0.9689531 0.2365935
v -1.3722301 2.2051439 0.5799416
vn 0.0000000 0.4982624 0.8670263
vt 0.9979686 0.2365926
v -1.1212090 2.3055930 0.4798965
vn 0.0000000 0.8650127 0.5017501
vt 0.9689531 0.2202015
v -1.3722301 2.3055930 0.4798965
vn 0.0000000 0.8650127 0.5017500
vt 0.9979686 0.2202015
v -1.1212090 2.3425641 0.3430305
vn 0.0000000 0.9999980 0.0020116
vt 0.9689531 0.2038137
v -1.3722301 2.3425641 0.3430305
vn 0.0000000 0.9999980 0.0020116
vt 0.9979674 0.2038137
v -1.1212090 2.3061430 0.2060136
vn 0.0000000 0.8670331 -0.4982506
vt 0.9689531 0.1874205
v -1.3722301 2.3061430 0.2060136
vn 0.0000000 0.8670331 -0.4982506
vt 0.9979686 0.1874205
v -1.1212090 2.2061040 0.1055646
vn 0.0000000 0.5017601 -0.8650068
vt 0.9689531 0.1710285
v -1.3722301 2.2061040 0.1055646
vn 0.0000000 0.5017602 -0.8650068
vt 0.9979686 0.1710264
v -1.1212090 2.0692339 0.0685936
vn 0.0000000 0.0020076 -0.9999980
vt 0.9689531 0.1546364
v -1.3722301 2.0692339 0.0685936
vn 0.0000000 0.0020076 -0.9999980
vt 0.9979686 0.1546386
v -1.1212090 1.9322140 0.1050155
vn 0.0000000 -0.4982576 -0.8670290
vt 0.9689540 0.1382434
v -1.3722301 1.9322140 0.1050155
vn 0.0000000 -0.4982576 -0.8670290
vt 0.9979686 0.1382434
v -1.3722301 2.2051439 0.5799416
vn -1.0000000 0.0000000 0.0000000
vt 0.6729760 0.9418108
v -1.3722301 2.3055930 0.4798965
vn -1.0000000 0.0000000 0.0000000
vt 0.6542726 0.9362403
v -1.3722301 2.3425641 0.3430305
vn -1.0000000 0.0000000 0.0000000
vt 0.6408544 0.9220648
v -1.3722301 2.3061430 0.2060136
vn -1.0000000 0.0000000 0.0000000
vt 0.6363285 0.9030771
v -1.3722301 2.2061040 0.1055646
vn -1.0000000 0.0000000 0.0000000
vt 0.6419012 0.8843686
v -1.3722301 2.0692339 0.0685936
vn -1.0000000 0.0000000 0.0000000
vt 0.6560788 0.8709598
v -1.3722301 1.9322140 0.1050155
vn -1.0000000 0.0000000 0.0000000
vt 0.6750645 0.8664277
v -1.3722301 1.8317651 0.2050576
vn -1.0000000 0.0000000 0.0000000
vt 0.6937709 0.8720024
v -1.3722301 1.7948040 0.3419266
vn -1.0000000 0.0000000 0.0000000
vt 0.7071819 0.8861778
v -1.3722301 1.8312130 0.4789406
vn -1.0000000 0.0000000 0.0000000
vt 0.7117119 0.9051646
v -1.3722301 1.9312650 0.5793896
vn -1.0000000 0.0000000 0.0000000
vt 0.7061414 0.9238690
v -1.3722301 2.0681331 0.6163605
vn -1.0000000 0.0000000 0.0000000
vt 0.6919618 0.9372852

g group_128_140627821678016
f 1/1/1 2/2/2 3/3/3 
f 3/3/3 4/4/4 5/5/5 
f 5/5/5 6/6/6 7/7/7 
f 3/3/3 5/5/5 7/7/7 
f 7/7/7 8/8/8 9/9/9 
f 9/9/9 10/10/10 11/11/11 
f 7/7/7 9/9/9 11/11/11 
f 3/3/3 7/7/7 11/11/11 
f 1/1/1 3/3/3 11/11/11 
f 1/1/1 11/11/11 12/12/12 
f 13/13/13 14/14/14 15/15/15 
f 15/15/15 16/16/16 13/13/13 
f 14/14/14 17/17/17 18/18/18 
f 18/18/18 15/15/15 14/14/14 
f 19/19/19 20/20/20 21/21/21 
f 21/21/21 22/22/22 19/19/19 
f 20/20/20 23/23/23 24/24/24 
f 24/24/24 21/21/21 20/20/20 
f 23/23/23 25/25/25 26/26/26 
f 26/26/26 24/24/24 23/23/23 
f 25/25/25 27/27/27 28/28/28 
f 28/28/28 26/26/26 25/25/25 
f 27/27/27 29/29/29 30/30/30 
f 30/30/30 28/28/28 27/27/27 
f 29/29/29 31/31/31 32/32/32 
f 32/32/32 30/30/30 29/29/29 
f 31/31/31 33/33/33 34/34/34 
f 34/34/34 32/32/32 31/31/31 
f 33/33/33 35/35/35 36/36/36 
f 36/36/36 34/34/34 33/33/33 
f 35/35/35 37/37/37 38/38/38 
f 38/38/38 36/36/36 35/35/35 
f 37/37/37 13/13/13 16/16/16 
f 16/16/16 38/38/38 37/37/37 
f 39/39/39 40/40/40 41/41/41 
f 41/41/41 42/42/42 43/43/43 
f 43/43/43 44/44/44 45/45/45 
f 41/41/41 43/43/43 45/45/45 
f 45/45/45 46/46/46 47/47/47 
f 47/47/47 48/48/48 49/49/49 
f 45/45/45 47/47/47 49/49/49 
f 41/41/41 45/45/45 49/49/49 
f 39/39/39 41/41/41 49/49/49 
f 39/39/39 49/49/49 50/50/50 
