v 1.5674020 3.0478320 0.9045978
vn 1.0000000 0.0000000 0.0000000
vt 0.4218750 3.9517100
v 1.5674020 3.1289320 0.7431068
vn 1.0000000 0.0000000 0.0000000
vt 0.4218750 3.8169899
v 1.5674020 3.1859579 0.7431068
vn 1.0000000 0.0000000 0.0000000
vt 0.4638672 3.8150160
v 1.5674020 3.0773380 0.9502012
vn 1.0000000 0.0000000 0.0000000
vt 0.4638672 3.9527969
v 1.5674020 3.0888569 0.5427492
vn 1.0000000 0.0000000 0.0000000
vt 0.4218750 3.6851730
v 1.5674020 3.1382451 0.5142365
vn 1.0000000 0.0000000 0.0000000
vt 0.4638672 3.6851730
v 1.5674020 2.8167601 0.1763497
vn 1.0000000 0.0000000 0.0000000
vt 0.4218750 3.3783040
v 1.5674020 2.8463919 0.1296474
vn 1.0000000 0.0000000 0.0000000
vt 0.4638672 3.3783040
v 1.5674020 2.2064259 0.0550845
vn 1.0000000 0.0000000 0.0000000
vt 0.4218750 3.0161040
v 1.5674020 2.2136769 0.0000003
vn 1.0000000 0.0000000 0.0000000
vt 0.4638672 3.0161040
v 1.5674020 -2.2810791 0.0550845
vn 1.0000000 0.0000000 0.0000000
vt 0.4218750 0.1364470
v 1.5674020 -2.2790439 0.0000003
vn 1.0000000 0.0000000 0.0000000
vt 0.4638672 0.1364470
v 1.5674020 -3.2133269 0.9028606
vn 1.0000000 0.0000000 0.0000000
vt 0.4638672 -1.1422009
v 1.5674020 -3.2964900 0.6141954
vn 1.0000000 0.0000000 0.0000000
vt 0.4638672 -0.9393504
v 1.5674020 -3.2401710 0.6141954
vn 1.0000000 0.0000000 0.0000000
vt 0.4218750 -0.9393504
v 1.5674020 -3.1705639 0.8702281
vn 1.0000000 0.0000000 0.0000000
vt 0.4218750 -1.1418519
v 1.5674020 -2.9500461 1.0032361
vn 1.0000000 0.0000000 0.0000000
vt 0.4218750 -1.2727818
v 1.5674020 -2.9615741 1.0571060
vn 1.0000000 -0.0000000 -0.0000000
vt 0.4638672 -1.2734308
v 0.9263154 2.8467491 1.0350250
vn 0.0000002 0.1017520 0.9948098
vt 0.8437500 4.0834570
v 1.5674020 2.8467481 1.0350250
vn 0.0577875 -0.0690860 0.9959356
vt 0.4638672 4.0834570
v 1.5674020 3.0773380 0.9502012
vn 0.0000002 0.6594732 0.7517281
vt 0.4638672 3.9527969
v 0.9263155 3.0773380 0.9502012
vn 0.0000000 0.6594735 0.7517278
vt 0.8437500 3.9568861
v 0.9263155 3.1859579 0.7431068
vn 0.0000000 0.9903879 0.1383178
vt 0.8437500 3.8125479
v 1.5674020 3.1859579 0.7431068
vn 0.0000000 0.9903879 0.1383178
vt 0.4638672 3.8150160
v 0.9263155 3.1382451 0.5142365
vn 0.0000000 0.9100708 -0.4144528
vt 0.8437500 3.6851730
v 1.5674020 3.1382451 0.5142365
vn 0.0000000 0.9100708 -0.4144528
vt 0.4638672 3.6851730
v 0.9263155 2.8463919 0.1296474
vn 0.0000000 0.5327740 -0.8462576
vt 0.8437500 3.3783040
v 1.5674020 2.8463919 0.1296474
vn 0.0000000 0.5327740 -0.8462576
vt 0.4638672 3.3783040
v 0.9263154 2.2136769 0.0000003
vn 0.0000000 0.1008824 -0.9948984
vt 0.8437500 3.0161040
v 1.5674020 2.2136769 0.0000003
vn 0.0000000 0.1008824 -0.9948984
vt 0.4638672 3.0161040
v 0.9263152 -3.2133269 0.9028606
vn 0.0000000 -0.7955984 0.6058244
vt 0.8437500 -1.1420321
v 1.5674020 -3.2133269 0.9028606
vn 0.0000000 -0.7955984 0.6058244
vt 0.4638672 -1.1422009
v 1.5674020 -2.9615741 1.0571060
vn 0.0000000 -0.2833251 0.9590240
vt 0.4638672 -1.2734308
v 0.9263152 -2.9615741 1.0571060
vn 0.0000000 -0.2833252 0.9590239
vt 0.8437500 -1.2786179
v 0.9263152 -3.2964900 0.6141954
vn 0.0000000 -0.9609169 0.2768370
vt 0.8437500 -0.9393504
v 1.5674020 -3.2964900 0.6141954
vn 0.0000000 -0.9609169 0.2768370
vt 0.4638672 -0.9393504
v 0.9263155 3.0773380 0.9502012
vn -1.0000000 0.0000000 0.0000000
vt 0.0087891 3.9477730
v 0.9263155 3.1859579 0.7431068
vn -1.0000000 0.0000000 0.0000000
vt 0.0087891 3.8168719
v 0.9263155 3.1289320 0.7431068
vn -1.0000000 0.0000000 0.0000000
vt 0.0429688 3.8188100
v 0.9263155 3.0478320 0.9045978
vn -1.0000000 0.0000000 0.0000000
vt 0.0429688 3.9472179
v 0.9263155 3.1382451 0.5142365
vn -1.0000000 0.0000000 0.0000000
vt 0.0087891 3.6851730
v 0.9263155 3.0888569 0.5427492
vn -1.0000000 0.0000000 0.0000000
vt 0.0429688 3.6851730
v 0.9263155 2.8167601 0.1763497
vn -1.0000000 0.0000000 0.0000000
vt 0.0429688 3.3783040
v 0.9263155 2.8463919 0.1296474
vn -1.0000000 0.0000000 0.0000000
vt 0.0087891 3.3783040
v 0.9263154 2.2136769 0.0000003
vn -1.0000000 0.0000000 0.0000000
vt 0.0087891 3.0161040
v 0.9263154 2.2064259 0.0550845
vn -1.0000000 0.0000000 0.0000000
vt 0.0429688 3.0161040
v 0.9263154 -2.2790439 0.0000001
vn -1.0000000 0.0000000 0.0000000
vt 0.0087891 0.1364470
v 0.9263154 -2.2810791 0.0550844
vn -1.0000000 0.0000000 0.0000000
vt 0.0429688 0.1364470
v 0.9263152 -3.2964900 0.6141954
vn -1.0000000 0.0000000 0.0000000
vt 0.0087891 -0.9393504
v 0.9263152 -3.2133269 0.9028606
vn -1.0000000 0.0000000 0.0000000
vt 0.0087891 -1.1424952
v 0.9263152 -3.1705639 0.8702281
vn -1.0000000 0.0000000 0.0000000
vt 0.0429688 -1.1416459
v 0.9263152 -3.2401710 0.6141954
vn -1.0000000 0.0000000 0.0000000
vt 0.0429688 -0.9393504
v 0.9263155 3.0478320 0.9045978
vn 0.0000000 -0.6703565 -0.7420392
vt 0.0429688 3.9472179
v 0.9263155 3.1289320 0.7431068
vn 0.0000000 -0.9910362 -0.1335936
vt 0.0429688 3.8188100
v 1.5674020 3.1289320 0.7431068
vn 0.0000000 -0.9910362 -0.1335935
vt 0.4218750 3.8169899
v 1.5674020 3.0478320 0.9045978
vn -0.0000001 -0.6703564 -0.7420394
vt 0.4218750 3.9517100
v 0.9263155 3.0888569 0.5427492
vn 0.0000000 -0.9138664 0.4060151
vt 0.0429688 3.6851730
v 1.5674020 3.0888569 0.5427492
vn 0.0000000 -0.9138664 0.4060151
vt 0.4218750 3.6851730
v 0.9263155 2.8167601 0.1763497
vn 0.0000000 -0.5346407 0.8450795
vt 0.0429688 3.3783040
v 1.5674020 2.8167601 0.1763497
vn 0.0000000 -0.5346407 0.8450795
vt 0.4218750 3.3783040
v 0.9263154 2.2064259 0.0550845
vn -0.0000000 -0.0979090 0.9951954
vt 0.0429688 3.0161040
v 1.5674020 2.2064259 0.0550845
vn 0.0000000 -0.0979091 0.9951954
vt 0.4218750 3.0161040
v 0.9263154 -2.2810791 0.0550844
vn -0.0000002 -0.0000000 1.0000000
vt 0.0429688 0.1364470
v 1.5674020 -2.2810791 0.0550845
vn -0.0000002 -0.0000000 1.0000000
vt 0.4218750 0.1364470
v 0.9263152 -3.1705639 0.8702281
vn 0.0000000 0.7980434 -0.6026000
vt 0.0429688 -1.1416459
v 0.9263152 -2.9500461 1.0032361
vn 0.0000000 0.2795867 -0.9601204
vt 0.0429688 -1.2678819
v 1.5674020 -2.9500461 1.0032361
vn 0.0000000 0.2795867 -0.9601204
vt 0.4218750 -1.2727818
v 1.5674020 -3.1705639 0.8702281
vn 0.0000000 0.7980434 -0.6026000
vt 0.4218750 -1.1418519
v 0.9263152 -3.2401710 0.6141954
vn 0.0000000 0.9649736 -0.2623470
vt 0.0429688 -0.9393504
v 1.5674020 -3.2401710 0.6141954
vn 0.0000000 0.9649736 -0.2623470
vt 0.4218750 -0.9393504
v 1.2508740 2.7517431 0.2788917
vn -0.9461736 -0.1731495 0.2734499
vt 0.8766270 3.3659739
v 1.2089020 2.8167601 0.1763497
vn -0.9451234 -0.1747193 0.2760705
vt 0.9885269 3.3675399
v 1.2089020 2.2064259 0.0550845
vn -0.9451680 -0.0305246 0.3251551
vt 0.9885287 3.0131950
v 1.2508730 2.1904759 0.1762390
vn -0.9456767 -0.0285908 0.3238489
vt 0.8766274 3.0145380
v 1.2508740 2.9830279 0.6038494
vn -0.9453164 -0.2657225 0.1891256
vt 0.8766279 3.6860790
v 1.2089020 3.0888569 0.5427492
vn -0.9438848 -0.2682845 0.1926266
vt 0.9885278 3.6876450
v 1.2928460 3.0888569 0.5427492
vn 0.9438846 -0.2682854 0.1926261
vt 0.9885278 3.6860790
v 1.2508740 2.9830279 0.6038494
vn 0.9453164 -0.2657231 0.1891246
vt 0.8766279 3.6860790
v 1.2508740 2.7517431 0.2788917
vn 0.9461728 -0.1731510 0.2734517
vt 0.8766270 3.3659739
v 1.2928460 2.8167601 0.1763497
vn 0.9451226 -0.1747209 0.2760724
vt 0.9885269 3.3659739
v 1.2508730 2.1904759 0.1762390
vn 0.9456758 -0.0285912 0.3238514
vt 0.8766274 3.0145380
v 1.2928460 2.2064259 0.0550845
vn 0.9451671 -0.0305249 0.3251576
vt 0.9885287 3.0145380
v 1.2508730 -2.1741450 0.1762389
vn 0.9449039 -0.0000000 0.3273481
vt 0.8766267 0.1701963
v 1.2928460 -2.2483909 0.0550845
vn 0.9449038 -0.0000000 0.3273481
vt 0.9885237 0.1374175
v 1.2470400 2.6192889 0.6285040
vn 0.8075606 0.1282896 -0.5756629
vt 0.8766211 5.1917448
v 1.3097130 2.5499840 0.7010769
vn 0.8079244 0.1283567 -0.5751371
vt 0.9885229 5.1917448
v 1.3152140 2.2119470 0.6333623
vn 0.8069075 0.1281690 -0.5766048
vt 0.9884797 5.3774381
v 1.2322810 2.2495351 0.5257479
vn 0.8066882 0.1281286 -0.5769205
vt 0.8750875 5.3774381
v 1.5983300 0.8236834 0.5494736
vn 0.9849426 -0.0925940 -0.1459950
vt 0.4638672 -3.9227481
v 1.5674020 -0.2824024 1.0959830
vn 0.9999119 -0.0132615 -0.0005965
vt 0.4638672 -3.0116568
v 1.5674020 -0.2799458 1.0407720
vn 0.9998768 -0.0155500 -0.0021536
vt 0.4218750 -3.0136080
v 1.5903651 0.8267795 0.4948341
vn 0.9844048 -0.0938302 -0.1488058
vt 0.4218750 -3.9227481
v 1.5674020 -0.2799458 1.0407720
vn -0.0283807 -0.0098494 -0.9995487
vt 0.4218750 -3.0136080
v 0.9263154 -0.2799458 1.0407720
vn 0.0000000 0.0091618 -0.9999580
vt 0.0429688 -3.0145669
v 0.9569079 0.8267795 0.6132864
vn -0.1163804 -0.4130803 -0.9032277
vt 0.0429688 -3.9227481
v 1.5903651 0.8267795 0.4948341
vn -0.1656372 -0.4335168 -0.8857920
vt 0.4218750 -3.9227481
v 0.9263154 -0.8670406 0.8611380
vn 0.0000000 -0.0847797 0.9963998
vt 0.8437500 -2.5310421
v 1.5674020 -0.8670405 0.8611380
vn 0.0000000 -0.0847798 0.9963998
vt 0.4638672 -2.5311551
v 1.5674020 -0.2824024 1.0959830
vn 0.0284107 0.0100515 0.9995458
vt 0.4638672 -3.0116568
v 0.9263154 -0.2824025 1.0959830
vn 0.0000000 -0.0104784 0.9999451
vt 0.8437500 -3.0098200
v 1.2928460 -0.8670405 0.8059886
vn 0.9446987 0.0350976 -0.3260562
vt 0.9867006 -1.5849581
v 1.2508740 -0.8670405 0.6844928
vn 0.9449046 0.0245164 -0.3264266
vt 0.8747948 -1.5847280
v 1.2508740 -0.2745431 0.9193502
vn 0.9389582 0.1276399 -0.3194771
vt 0.8747951 -2.1454351
v 1.2928460 -0.2799458 1.0407720
vn 0.9391460 0.1275541 -0.3189589
vt 0.9867002 -2.1440799
v 1.5674020 -0.8670405 0.8611380
vn 1.0000000 0.0000006 -0.0000065
vt 0.4638672 -2.5311551
v 1.5674020 -0.8670405 0.8059886
vn 1.0000000 0.0000004 -0.0000064
vt 0.4218750 -2.5311320
v 0.9263154 -0.8670405 0.8059886
vn 0.0000000 0.0839619 -0.9964690
vt 0.0429688 -2.5311780
v 1.5674020 -0.8670405 0.8059886
vn 0.0000000 0.0839619 -0.9964690
vt 0.4218750 -2.5311320
v 0.9263154 -1.8990880 1.0834870
vn -0.0000000 0.0935512 0.9956145
vt 0.8437500 -1.8557091
v 1.5674020 -1.8990880 1.0834870
vn 0.0000000 0.0935512 0.9956145
vt 0.4638672 -1.8561568
v 1.2508740 -1.8990880 0.8974595
vn 0.9443383 -0.0290236 -0.3276933
vt 0.8747945 -0.9877833
v 1.2928450 -1.8990880 1.0189101
vn 0.9448618 -0.0247671 -0.3265316
vt 0.9867010 -0.9944279
v 1.5674020 -1.8990880 1.0834870
vn 1.0000000 -0.0000003 -0.0000022
vt 0.4638672 -1.8561568
v 1.5674020 -1.8990880 1.0284500
vn 1.0000000 -0.0000003 -0.0000021
vt 0.4218750 -1.8536980
v 0.9263154 -1.8990880 1.0284500
vn 0.0000000 -0.0940199 -0.9955704
vt 0.0429688 -1.8540549
v 1.5674020 -1.8990880 1.0284500
vn 0.0000000 -0.0940199 -0.9955704
vt 0.4218750 -1.8536980
v 1.2928450 -2.7558579 0.9835123
vn 0.9354047 0.0103261 -0.3534283
vt 0.9873674 -0.5872328
v 1.2508730 -2.7731130 0.8728265
vn 0.9344655 0.0100306 -0.3559126
vt 0.8752459 -0.5947372
v 1.5740980 2.5502281 0.6220048
vn 0.9789999 0.1345424 -0.1531588
vt 0.4218750 4.3177552
v 1.5841711 2.5188439 0.6603227
vn 0.9807176 0.1320751 -0.1440459
vt 0.4638672 4.3177552
v 1.5885080 2.1950400 0.5708489
vn 0.9646261 0.0755137 -0.2525752
vt 0.4638672 4.5034480
v 1.5682811 2.2332780 0.5066987
vn 0.9630726 0.0762630 -0.2582153
vt 0.4218750 4.5034480
v 1.5740980 2.5502281 0.6220048
vn -0.2775975 0.5580226 -0.7820169
vt 0.4218750 4.3177552
v 1.5682811 2.2332780 0.5066987
vn -0.4220693 0.3167650 -0.8494219
vt 0.4218750 4.5034480
v 0.9775417 2.1939559 0.7855671
vn -0.3270108 0.1170472 -0.9377441
vt 0.0429688 4.5034480
v 0.9567621 2.5865791 0.8025354
vn -0.1901539 0.5913149 -0.7837017
vt 0.0429688 4.3177552
v 0.9648724 0.8236831 0.6679258
vn 0.1164509 0.4129973 0.9032566
vt 0.8437500 -3.9227481
v 1.5983300 0.8236834 0.5494736
vn 0.1656717 0.4331231 0.8859782
vt 0.4638672 -3.9227481
v 1.2508740 0.7588394 0.4338170
vn 0.9307233 -0.1637931 -0.3269954
vt 0.8811164 -3.0090923
v 1.2928460 0.7520412 0.5552166
vn 0.9290715 -0.1660958 -0.3305123
vt 0.9869734 -3.0177212
v 1.2928450 -0.1457711 1.0064030
vn 0.9425659 -0.1463240 -0.3002646
vt 0.9867001 -2.1958261
v 1.2508740 -0.1848892 0.8924468
vn 0.9435765 -0.1447460 -0.2978456
vt 0.8747953 -2.2142539
v 0.9465753 2.6408191 1.0006350
vn 0.0552105 -0.5708745 0.8191789
vt 0.8437500 4.2234268
v 1.5757860 2.6476769 0.9088141
vn 0.1070469 -0.7442461 0.6592714
vt 0.4638672 4.2184019
v 1.5674020 2.8508289 0.9796480
vn 0.9997544 0.0219624 -0.0029899
vt 0.4218750 4.0834570
v 1.5674020 2.8467481 1.0350250
vn 0.9998084 0.0195185 0.0014382
vt 0.4638672 4.0834570
v 0.9263154 2.8508289 0.9796481
vn -0.0000001 -0.1347297 -0.9908824
vt 0.0429688 4.0834560
v 1.5674020 2.8508289 0.9796480
vn -0.0593575 0.0636901 -0.9962029
vt 0.4218750 4.0834570
v 0.9977693 2.1944721 0.8368113
vn 0.3194669 -0.0630971 0.9454944
vt 0.8437500 4.5034480
v 1.5885080 2.1950400 0.5708489
vn 0.3987971 -0.2392774 0.8852724
vt 0.4638672 4.5034480
v 1.5841711 2.5188439 0.6603227
vn 0.2741161 -0.5218191 0.8078151
vt 0.4638672 4.3177552
v 0.9668351 2.5551951 0.8408532
vn 0.1918913 -0.5827183 0.7896943
vt 0.8437500 4.3177552
v 1.5707500 2.6773930 0.8684899
vn 0.9932089 0.1031589 -0.0537993
vt 0.4218750 4.2182822
v 1.5757860 2.6476769 0.9088141
vn 0.9947344 0.0897330 -0.0495126
vt 0.4638672 4.2184019
v 0.9415388 2.6705360 0.9603113
vn -0.0541488 0.5522081 -0.8319460
vt 0.0429688 4.2132511
v 1.5707500 2.6773930 0.8684899
vn -0.1065208 0.7458825 -0.6575049
vt 0.4218750 4.2182822
v 1.2089020 -2.2483909 0.0550844
vn -0.9449054 -0.0000000 0.3273436
vt 0.9874048 0.1373627
v 1.2508730 -2.1741450 0.1762389
vn -0.9449054 -0.0000000 0.3273436
vt 0.8766267 0.1701963
v 0.9263154 -2.2790439 0.0000001
vn 0.0000002 0.0000000 -1.0000000
vt 0.8437500 0.1364470
v 1.5674020 -2.2790439 0.0000003
vn 0.0000002 0.0000000 -1.0000000
vt 0.4638672 0.1364470
v 0.9775417 2.1939559 0.7855671
vn -0.0073955 -0.9996323 -0.0260893
vt 0.0087196 2.6058061
v 1.5682811 2.2332780 0.5066987
vn -0.1625407 -0.8692510 -0.4668867
vt 0.4503733 2.6058061
v 1.5885080 2.1950400 0.5708489
vn -0.1551077 -0.8815923 -0.4457988
vt 0.4503733 2.6416810
v 0.9977693 2.1944721 0.8368113
vn 0.0046664 -0.9999553 0.0082304
vt 0.0087196 2.6416800
v 0.9569079 0.8267795 0.6132864
vn 0.0102989 0.9984289 0.0550782
vt 0.4503733 2.6058800
v 0.9648724 0.8236831 0.6679258
vn 0.0102989 0.9984289 0.0550785
vt 0.4503736 2.6416070
v 1.5983300 0.8236834 0.5494736
vn 0.0102985 0.9984292 0.0550743
vt 0.0087196 2.6416049
v 1.5903651 0.8267795 0.4948341
vn 0.0102985 0.9984292 0.0550740
vt 0.0087196 2.6058781
v 1.5674020 -2.9676750 0.1586096
vn 1.0000000 -0.0000010 -0.0000017
vt 0.4218750 -0.4448705
v 1.5674020 -3.0005119 0.1090980
vn 1.0000000 -0.0000010 -0.0000015
vt 0.4638672 -0.4448705
v 0.9263154 -2.2810791 0.0550844
vn -0.0000003 0.1490948 0.9888229
vt 0.0429688 0.1364470
v 0.9263154 -2.9676750 0.1586094
vn -0.0000005 0.4356028 0.9001390
vt 0.0429688 -0.4448705
v 1.5674020 -2.9676750 0.1586096
vn -0.0000004 0.4356026 0.9001392
vt 0.4218750 -0.4448705
v 1.5674020 -2.2810791 0.0550845
vn -0.0000002 0.1490949 0.9888229
vt 0.4218750 0.1364470
v 0.9263154 -3.0005119 0.1090979
vn -1.0000000 0.0000000 -0.0000000
vt 0.0087891 -0.4448705
v 0.9263154 -2.9676750 0.1586094
vn -1.0000000 0.0000000 -0.0000000
vt 0.0429688 -0.4448705
v 1.5674020 -2.2790439 0.0000003
vn 0.0000002 -0.1495165 -0.9887593
vt 0.4638672 0.1364470
v 1.5674020 -3.0005119 0.1090980
vn 0.0000002 -0.4399693 -0.8980128
vt 0.4638672 -0.4448705
v 0.9263154 -3.0005119 0.1090979
vn 0.0000002 -0.4399693 -0.8980128
vt 0.8437500 -0.4448705
v 0.9263154 -2.2790439 0.0000001
vn 0.0000002 -0.1495165 -0.9887592
vt 0.8437500 0.1364470
v 1.5674020 -3.2244959 0.3224315
vn 1.0000000 -0.0000001 0.0000005
vt 0.4638672 -0.7219192
v 1.5674020 -3.1653321 0.3433982
vn 1.0000000 -0.0000002 0.0000003
vt 0.4218750 -0.7219192
v 0.9263152 -3.2401710 0.6141954
vn -0.0000003 0.9638684 0.2663789
vt 0.0429688 -0.9393504
v 1.5674020 -3.2401710 0.6141954
vn 0.0000000 0.9638683 0.2663795
vt 0.4218750 -0.9393504
v 1.5674020 -3.1653321 0.3433982
vn -0.0000002 0.8554721 0.5178488
vt 0.4218750 -0.7219192
v 0.9263154 -3.1653330 0.3433982
vn -0.0000005 0.8554725 0.5178482
vt 0.0429688 -0.7219192
v 0.9263154 -3.2244959 0.3224314
vn -1.0000000 0.0000001 -0.0000003
vt 0.0087891 -0.7219192
v 0.9263154 -3.1653330 0.3433982
vn -1.0000000 0.0000001 -0.0000003
vt 0.0429688 -0.7219192
v 1.5674020 -3.2964900 0.6141954
vn 0.0000000 -0.9708788 -0.2395711
vt 0.4638672 -0.9393504
v 0.9263152 -3.2964900 0.6141954
vn 0.0000000 -0.9708788 -0.2395710
vt 0.8437500 -0.9393504
v 0.9263154 -3.2244959 0.3224314
vn 0.0000000 -0.8649051 -0.5019356
vt 0.8437500 -0.7219192
v 1.5674020 -3.2244959 0.3224315
vn 0.0000001 -0.8649049 -0.5019358
vt 0.4638672 -0.7219192
v 1.2508730 -2.1741450 0.1762389
vn -0.9514480 0.0397871 0.3052275
vt 0.8766267 0.1701963
v 1.2089020 -2.2483909 0.0550844
vn -0.9514480 0.0397871 0.3052275
vt 0.9874048 0.1373627
v 1.2089020 -2.9801600 0.1504719
vn -0.9514480 0.0397871 0.3052275
vt 0.9874048 -0.3335019
v 1.2508730 -2.9059131 0.2716264
vn -0.9514480 0.0397871 0.3052275
vt 0.8766267 -0.3141627
v 1.2928460 -2.2483909 0.0550845
vn 0.9514466 0.0397876 0.3052317
vt 0.9885237 0.1374175
v 1.2508730 -2.1741450 0.1762389
vn 0.9514466 0.0397876 0.3052317
vt 0.8766267 0.1701963
v 1.2508730 -2.9059131 0.2716264
vn 0.9514466 0.0397876 0.3052317
vt 0.8766267 -0.3141627
v 1.2928460 -2.9801600 0.1504721
vn 0.9514466 0.0397876 0.3052317
vt 0.9885237 -0.3368036
v 1.2508730 -2.9059131 0.2716264
vn -0.9568075 0.2057905 0.2053526
vt 0.8766267 -0.3141627
v 1.2089020 -2.9801600 0.1504719
vn -0.9568075 0.2057905 0.2053526
vt 0.9874048 -0.3335019
v 1.2089020 -3.1669791 0.3376894
vn -0.9568075 0.2057905 0.2053526
vt 0.9885237 -0.5394591
v 1.2508730 -3.0927320 0.4588439
vn -0.9568075 0.2057905 0.2053526
vt 0.8766267 -0.5408187
v 1.2928460 -2.9801600 0.1504721
vn 0.9568063 0.2057934 0.2053554
vt 0.9885237 -0.3368036
v 1.2508730 -2.9059131 0.2716264
vn 0.9568063 0.2057934 0.2053554
vt 0.8766267 -0.3141627
v 1.2508730 -3.0927320 0.4588439
vn 0.9568063 0.2057934 0.2053554
vt 0.8766267 -0.5408187
v 1.2928460 -3.1669791 0.3376896
vn 0.9568063 0.2057934 0.2053554
vt 0.9885237 -0.5416420

g group_147_140627851007872
f 1/1/1 2/2/2 3/3/3 
f 3/3/3 4/4/4 1/1/1 
f 5/5/5 6/6/6 3/3/3 
f 3/3/3 2/2/2 5/5/5 
f 7/7/7 8/8/8 6/6/6 
f 6/6/6 5/5/5 7/7/7 
f 7/7/7 9/9/9 10/10/10 
f 10/10/10 8/8/8 7/7/7 
f 9/9/9 11/11/11 12/12/12 
f 12/12/12 10/10/10 9/9/9 
f 13/13/13 14/14/14 15/15/15 
f 15/15/15 16/16/16 13/13/13 
f 13/13/13 16/16/16 17/17/17 
f 17/17/17 18/18/18 13/13/13 
f 19/19/19 20/20/20 21/21/21 
f 21/21/21 22/22/22 19/19/19 
f 23/23/23 22/22/22 21/21/21 
f 21/21/21 24/24/24 23/23/23 
f 25/25/25 23/23/23 24/24/24 
f 24/24/24 26/26/26 25/25/25 
f 27/27/27 25/25/25 26/26/26 
f 26/26/26 28/28/28 27/27/27 
f 29/29/29 27/27/27 28/28/28 
f 28/28/28 30/30/30 29/29/29 
f 31/31/31 32/32/32 33/33/33 
f 33/33/33 34/34/34 31/31/31 
f 32/32/32 31/31/31 35/35/35 
f 35/35/35 36/36/36 32/32/32 
f 37/37/37 38/38/38 39/39/39 
f 39/39/39 40/40/40 37/37/37 
f 38/38/38 41/41/41 42/42/42 
f 42/42/42 39/39/39 38/38/38 
f 43/43/43 42/42/42 41/41/41 
f 41/41/41 44/44/44 43/43/43 
f 43/43/43 44/44/44 45/45/45 
f 45/45/45 46/46/46 43/43/43 
f 45/45/45 47/47/47 48/48/48 
f 48/48/48 46/46/46 45/45/45 
f 49/49/49 50/50/50 51/51/51 
f 51/51/51 52/52/52 49/49/49 
f 53/53/53 54/54/54 55/55/55 
f 55/55/55 56/56/56 53/53/53 
f 54/54/54 57/57/57 58/58/58 
f 58/58/58 55/55/55 54/54/54 
f 57/57/57 59/59/59 60/60/60 
f 60/60/60 58/58/58 57/57/57 
f 60/60/60 59/59/59 61/61/61 
f 61/61/61 62/62/62 60/60/60 
f 61/61/61 63/63/63 64/64/64 
f 64/64/64 62/62/62 61/61/61 
f 65/65/65 66/66/66 67/67/67 
f 67/67/67 68/68/68 65/65/65 
f 69/69/69 65/65/65 68/68/68 
f 68/68/68 70/70/70 69/69/69 
f 71/71/71 72/72/72 73/73/73 
f 73/73/73 74/74/74 71/71/71 
f 71/71/71 75/75/75 76/76/76 
f 76/76/76 72/72/72 71/71/71 
f 77/77/77 78/78/78 79/79/79 
f 79/79/79 80/80/80 77/77/77 
f 79/79/79 81/81/81 82/82/82 
f 82/82/82 80/80/80 79/79/79 
f 81/81/81 83/83/83 84/84/84 
f 84/84/84 82/82/82 81/81/81 
f 85/85/85 86/86/86 87/87/87 
f 87/87/87 88/88/88 85/85/85 
f 89/89/89 90/90/90 91/91/91 
f 91/91/91 92/92/92 89/89/89 
f 93/93/93 94/94/94 95/95/95 
f 95/95/95 96/96/96 93/93/93 
f 97/97/97 98/98/98 99/99/99 
f 99/99/99 100/100/100 97/97/97 
f 101/101/101 102/102/102 103/103/103 
f 103/103/103 104/104/104 101/101/101 
f 105/105/105 106/106/106 91/91/91 
f 91/91/91 90/90/90 105/105/105 
f 107/107/107 94/94/94 93/93/93 
f 93/93/93 108/108/108 107/107/107 
f 109/109/109 110/110/110 98/98/98 
f 98/98/98 97/97/97 109/109/109 
f 111/111/111 102/102/102 101/101/101 
f 101/101/101 112/112/112 111/111/111 
f 106/106/106 105/105/105 113/113/113 
f 113/113/113 114/114/114 106/106/106 
f 115/115/115 107/107/107 108/108/108 
f 108/108/108 116/116/116 115/115/115 
f 34/34/34 33/33/33 110/110/110 
f 110/110/110 109/109/109 34/34/34 
f 117/117/117 118/118/118 111/111/111 
f 111/111/111 112/112/112 117/117/117 
f 119/119/119 120/120/120 121/121/121 
f 121/121/121 122/122/122 119/119/119 
f 123/123/123 124/124/124 125/125/125 
f 125/125/125 126/126/126 123/123/123 
f 114/114/114 113/113/113 18/18/18 
f 18/18/18 17/17/17 114/114/114 
f 115/115/115 116/116/116 67/67/67 
f 67/67/67 66/66/66 115/115/115 
f 127/127/127 100/100/100 99/99/99 
f 99/99/99 128/128/128 127/127/127 
f 129/129/129 130/130/130 131/131/131 
f 131/131/131 132/132/132 129/129/129 
f 133/133/133 134/134/134 20/20/20 
f 20/20/20 19/19/19 133/133/133 
f 135/135/135 1/1/1 4/4/4 
f 4/4/4 136/136/136 135/135/135 
f 137/137/137 53/53/53 56/56/56 
f 56/56/56 138/138/138 137/137/137 
f 139/139/139 140/140/140 141/141/141 
f 141/141/141 142/142/142 139/139/139 
f 143/143/143 144/144/144 120/120/120 
f 120/120/120 119/119/119 143/143/143 
f 126/126/126 145/145/145 146/146/146 
f 146/146/146 123/123/123 126/126/126 
f 74/74/74 73/73/73 147/147/147 
f 147/147/147 148/148/148 74/74/74 
f 149/149/149 29/29/29 30/30/30 
f 30/30/30 150/150/150 149/149/149 
f 151/151/151 152/152/152 153/153/153 
f 153/153/153 154/154/154 151/151/151 
f 155/155/155 156/156/156 157/157/157 
f 157/157/157 158/158/158 155/155/155 
f 11/11/11 159/159/159 160/160/160 
f 160/160/160 12/12/12 11/11/11 
f 161/161/161 162/162/162 163/163/163 
f 163/163/163 164/164/164 161/161/161 
f 48/48/48 47/47/47 165/165/165 
f 165/165/165 166/166/166 48/48/48 
f 167/167/167 168/168/168 169/169/169 
f 169/169/169 170/170/170 167/167/167 
f 15/15/15 14/14/14 171/171/171 
f 171/171/171 172/172/172 15/15/15 
f 173/173/173 174/174/174 175/175/175 
f 175/175/175 176/176/176 173/173/173 
f 177/177/177 49/49/49 52/52/52 
f 52/52/52 178/178/178 177/177/177 
f 179/179/179 180/180/180 181/181/181 
f 181/181/181 182/182/182 179/179/179 
f 172/172/172 171/171/171 160/160/160 
f 160/160/160 159/159/159 172/172/172 
f 176/176/176 175/175/175 163/163/163 
f 163/163/163 162/162/162 176/176/176 
f 165/165/165 177/177/177 178/178/178 
f 178/178/178 166/166/166 165/165/165 
f 182/182/182 181/181/181 169/169/169 
f 169/169/169 168/168/168 182/182/182 
f 142/142/142 141/141/141 134/134/134 
f 134/134/134 133/133/133 142/142/142 
f 135/135/135 136/136/136 144/144/144 
f 144/144/144 143/143/143 135/135/135 
f 145/145/145 137/137/137 138/138/138 
f 138/138/138 146/146/146 145/145/145 
f 183/183/183 184/184/184 185/185/185 
f 185/185/185 186/186/186 183/183/183 
f 187/187/187 188/188/188 189/189/189 
f 189/189/189 190/190/190 187/187/187 
f 191/191/191 192/192/192 193/193/193 
f 193/193/193 194/194/194 191/191/191 
f 195/195/195 196/196/196 197/197/197 
f 197/197/197 198/198/198 195/195/195 
