v -1.1212090 -0.4144269 0.5799420
vn 1.0000000 0.0000002 -0.0000004
vt 0.4945227 0.9320358
v -1.1212090 -0.5514380 0.6163609
vn 1.0000000 0.0000000 0.0000000
vt 0.5095628 0.9385493
v -1.1212090 -0.6883060 0.5793899
vn 1.0000000 0.0000001 -0.0000001
vt 0.5193280 0.9517100
v -1.1212090 -0.7883571 0.4789409
vn 1.0000000 0.0000000 0.0000000
vt 0.5212049 0.9679917
v -1.1212090 -0.8247670 0.3419269
vn 1.0000000 0.0000000 0.0000000
vt 0.5146906 0.9830307
v -1.1212090 -0.7878060 0.2050580
vn 1.0000000 0.0000000 0.0000000
vt 0.5015256 0.9927939
v -1.1212090 -0.6873572 0.1050159
vn 1.0000000 0.0000001 0.0000001
vt 0.4852450 0.9946727
v -1.1212090 -0.5503371 0.0685939
vn 1.0000000 0.0000000 0.0000000
vt 0.4702091 0.9881566
v -1.1212090 -0.4134672 0.1055650
vn 1.0000000 0.0000002 0.0000004
vt 0.4604418 0.9749935
v -1.1212090 -0.3134281 0.2060139
vn 1.0000000 0.0000016 -0.0000004
vt 0.4585659 0.9587129
v -1.1212090 -0.2770070 0.3430309
vn 1.0000000 0.0000004 0.0000000
vt 0.4650791 0.9436750
v -1.1212090 -0.3139781 0.4798969
vn 1.0000000 0.0000016 0.0000004
vt 0.4782400 0.9339097
v -1.1212090 -0.7878060 0.2050580
vn 0.0000008 -0.8650275 -0.5017245
vt 0.9689519 0.1218534
v -1.1212090 -0.8247670 0.3419269
vn 0.0000009 -0.9999980 -0.0020098
vt 0.9689531 0.1054665
v -1.3722301 -0.8247672 0.3419269
vn 0.0000009 -0.9999980 -0.0020098
vt 0.9979674 0.1054665
v -1.3722301 -0.7878063 0.2050580
vn 0.0000008 -0.8650276 -0.5017242
vt 0.9979686 0.1218534
v -1.1212090 -0.7883571 0.4789409
vn 0.0000008 -0.8670357 0.4982461
vt 0.9689531 0.0890766
v -1.3722301 -0.7883574 0.4789409
vn 0.0000008 -0.8670357 0.4982459
vt 0.9979686 0.0890766
v -1.1212090 -0.7883571 0.4789409
vn 0.0000008 -0.8670357 0.4982461
vt 0.9689531 0.2857603
v -1.1212090 -0.6883060 0.5793899
vn 0.0000004 -0.5017352 0.8650213
vt 0.9689531 0.2693735
v -1.3722301 -0.6883062 0.5793899
vn 0.0000005 -0.5017354 0.8650212
vt 0.9979686 0.2693735
v -1.3722301 -0.7883574 0.4789409
vn 0.0000008 -0.8670357 0.4982459
vt 0.9979686 0.2857603
v -1.1212090 -0.5514380 0.6163609
vn 0.0000000 -0.0020112 0.9999980
vt 0.9689531 0.2529857
v -1.3722301 -0.5514381 0.6163609
vn 0.0000000 -0.0020112 0.9999980
vt 0.9979686 0.2529867
v -1.1212090 -0.4144269 0.5799420
vn -0.0000002 0.4982625 0.8670263
vt 0.9689531 0.2365935
v -1.3722301 -0.4144270 0.5799420
vn -0.0000002 0.4982625 0.8670263
vt 0.9979686 0.2365926
v -1.1212090 -0.3139781 0.4798969
vn -0.0000004 0.8650128 0.5017499
vt 0.9689531 0.2202015
v -1.3722301 -0.3139783 0.4798969
vn -0.0000004 0.8650128 0.5017499
vt 0.9979686 0.2202015
v -1.1212090 -0.2770070 0.3430309
vn -0.0000005 0.9999980 0.0020116
vt 0.9689531 0.2038137
v -1.3722301 -0.2770072 0.3430309
vn -0.0000005 0.9999980 0.0020116
vt 0.9979674 0.2038137
v -1.1212090 -0.3134281 0.2060139
vn -0.0000004 0.8670330 -0.4982508
vt 0.9689531 0.1874205
v -1.3722301 -0.3134282 0.2060139
vn -0.0000004 0.8670330 -0.4982507
vt 0.9979686 0.1874205
v -1.1212090 -0.4134672 0.1055650
vn -0.0000002 0.5017601 -0.8650069
vt 0.9689531 0.1710285
v -1.3722301 -0.4134673 0.1055650
vn -0.0000002 0.5017601 -0.8650068
vt 0.9979686 0.1710264
v -1.1212090 -0.5503371 0.0685939
vn 0.0000000 0.0020077 -0.9999980
vt 0.9689531 0.1546364
v -1.3722301 -0.5503372 0.0685939
vn -0.0000000 0.0020077 -0.9999980
vt 0.9979686 0.1546386
v -1.1212090 -0.6873572 0.1050159
vn 0.0000005 -0.4982576 -0.8670290
vt 0.9689540 0.1382434
v -1.3722301 -0.6873574 0.1050159
vn 0.0000004 -0.4982578 -0.8670290
vt 0.9979686 0.1382434
v -1.3722301 -0.4144270 0.5799420
vn -1.0000000 -0.0000002 0.0000004
vt 0.6729760 0.9418108
v -1.3722301 -0.3139783 0.4798969
vn -1.0000000 -0.0000016 -0.0000004
vt 0.6542726 0.9362403
v -1.3722301 -0.2770072 0.3430309
vn -1.0000000 -0.0000004 -0.0000000
vt 0.6408544 0.9220648
v -1.3722301 -0.3134282 0.2060139
vn -1.0000000 -0.0000016 0.0000004
vt 0.6363285 0.9030771
v -1.3722301 -0.4134673 0.1055650
vn -1.0000000 -0.0000002 -0.0000004
vt 0.6419012 0.8843686
v -1.3722301 -0.5503372 0.0685939
vn -1.0000000 0.0000000 0.0000000
vt 0.6560788 0.8709598
v -1.3722301 -0.6873574 0.1050159
vn -1.0000000 -0.0000001 -0.0000001
vt 0.6750645 0.8664277
v -1.3722301 -0.7878063 0.2050580
vn -1.0000000 0.0000000 0.0000000
vt 0.6937709 0.8720024
v -1.3722301 -0.8247672 0.3419269
vn -1.0000000 0.0000000 0.0000000
vt 0.7071819 0.8861778
v -1.3722301 -0.7883574 0.4789409
vn -1.0000000 0.0000000 0.0000000
vt 0.7117119 0.9051646
v -1.3722301 -0.6883062 0.5793899
vn -1.0000000 -0.0000001 0.0000001
vt 0.7061414 0.9238690
v -1.3722301 -0.5514381 0.6163609
vn -1.0000000 0.0000000 0.0000000
vt 0.6919618 0.9372852

g group_106_140627799646192
f 1/1/1 2/2/2 3/3/3 
f 3/3/3 4/4/4 5/5/5 
f 5/5/5 6/6/6 7/7/7 
f 3/3/3 5/5/5 7/7/7 
f 7/7/7 8/8/8 9/9/9 
f 9/9/9 10/10/10 11/11/11 
f 7/7/7 9/9/9 11/11/11 
f 3/3/3 7/7/7 11/11/11 
f 1/1/1 3/3/3 11/11/11 
f 1/1/1 11/11/11 12/12/12 
f 13/13/13 14/14/14 15/15/15 
f 15/15/15 16/16/16 13/13/13 
f 14/14/14 17/17/17 18/18/18 
f 18/18/18 15/15/15 14/14/14 
f 19/19/19 20/20/20 21/21/21 
f 21/21/21 22/22/22 19/19/19 
f 20/20/20 23/23/23 24/24/24 
f 24/24/24 21/21/21 20/20/20 
f 23/23/23 25/25/25 26/26/26 
f 26/26/26 24/24/24 23/23/23 
f 25/25/25 27/27/27 28/28/28 
f 28/28/28 26/26/26 25/25/25 
f 27/27/27 29/29/29 30/30/30 
f 30/30/30 28/28/28 27/27/27 
f 29/29/29 31/31/31 32/32/32 
f 32/32/32 30/30/30 29/29/29 
f 31/31/31 33/33/33 34/34/34 
f 34/34/34 32/32/32 31/31/31 
f 33/33/33 35/35/35 36/36/36 
f 36/36/36 34/34/34 33/33/33 
f 35/35/35 37/37/37 38/38/38 
f 38/38/38 36/36/36 35/35/35 
f 37/37/37 13/13/13 16/16/16 
f 16/16/16 38/38/38 37/37/37 
f 39/39/39 40/40/40 41/41/41 
f 41/41/41 42/42/42 43/43/43 
f 43/43/43 44/44/44 45/45/45 
f 41/41/41 43/43/43 45/45/45 
f 45/45/45 46/46/46 47/47/47 
f 47/47/47 48/48/48 49/49/49 
f 45/45/45 47/47/47 49/49/49 
f 41/41/41 45/45/45 49/49/49 
f 39/39/39 41/41/41 49/49/49 
f 39/39/39 49/49/49 50/50/50 
