v -1.0195320 -1.3726389 0.6737852
vn -0.9286619 0.2627218 0.2618479
vt 0.1364850 0.0669739
v -1.1169610 -1.5444829 0.5006643
vn -1.0000000 0.0000000 0.0000000
vt 0.1597478 0.0434849
v -1.0195320 -1.5444829 0.7454941
vn -0.9291335 0.0000000 0.3697445
vt 0.1597478 0.0767191
v -1.0195320 -1.7163280 0.6737852
vn -0.9286618 -0.2627223 0.2618476
vt 0.1830426 0.0669739
v -1.0195320 -1.3014250 0.5006645
vn -0.9282062 0.3720662 0.0000000
vt 0.1268296 0.0434849
v -1.0195320 -1.3726400 0.3275438
vn -0.9286616 0.2627221 -0.2618485
vt 0.1364851 0.0199203
v -1.0195320 -1.5444840 0.2558348
vn -0.9291332 0.0000000 -0.3697452
vt 0.1597478 0.0101753
v -1.0195320 -1.7163270 0.3275438
vn -0.9286618 -0.2627225 -0.2618474
vt 0.1830426 0.0199203
v -1.0195320 -1.7875420 0.5006647
vn -0.9282058 -0.3720672 0.0000000
vt 0.1926979 0.0434849
v -0.9135480 -1.7724870 0.6332783
vn 0.0000000 -0.8675161 0.4974091
vt 0.1480779 0.1110652
v -1.0740550 -1.7724870 0.6332783
vn 0.0000000 -0.8675155 0.4974102
vt 0.1480779 0.0884989
v -0.9135479 -1.8077730 0.5006772
vn 0.0000000 -1.0000000 0.0000000
vt 0.1287403 0.1110652
v -1.0740550 -1.8077730 0.5006772
vn 0.0000000 -1.0000000 0.0000000
vt 0.1287403 0.0884989
v -0.9135480 -1.6760850 0.7303487
vn 0.0000000 -0.5025938 0.8645227
vt 0.1674156 0.1110652
v -1.0740550 -1.6760850 0.7303487
vn 0.0000000 -0.5025938 0.8645227
vt 0.1674156 0.0884989
v -0.9135480 -1.5443980 0.7658789
vn 0.0000000 0.0000000 1.0000000
vt 0.1480779 0.1110652
v -1.0740550 -1.5443980 0.7658789
vn 0.0000000 0.0000000 1.0000000
vt 0.1480779 0.0884989
v -0.9135480 -1.4127110 0.7303487
vn 0.0000000 0.5025945 0.8645223
vt 0.1287403 0.1110652
v -1.0740550 -1.4127110 0.7303487
vn 0.0000000 0.5025937 0.8645228
vt 0.1287403 0.0884989
v -0.9135480 -1.3163090 0.6332784
vn 0.0000000 0.8675165 0.4974084
vt 0.1094024 0.1110652
v -1.0740550 -1.3163090 0.6332784
vn 0.0000000 0.8675158 0.4974096
vt 0.1094024 0.0884989
v -0.9135480 -1.2810230 0.5006773
vn 0.0000000 1.0000000 0.0000000
vt 0.1480779 0.1110652
v -1.0740550 -1.2810230 0.5006773
vn 0.0000000 1.0000000 0.0000000
vt 0.1480779 0.0884989
v -0.9135480 -1.3163090 0.6332784
vn 0.0000000 0.8675165 0.4974084
vt 0.1674156 0.1110652
v -1.0740550 -1.3163090 0.6332784
vn 0.0000000 0.8675158 0.4974096
vt 0.1674156 0.0884989
v -0.9135480 -1.3163090 0.3680764
vn 0.0000000 0.8675157 -0.4974098
vt 0.1287403 0.1110652
v -1.0740550 -1.3163090 0.3680764
vn 0.0000000 0.8675156 -0.4974100
vt 0.1287403 0.0884989
v -0.9135480 -1.4127110 0.2710057
vn 0.0000000 0.5025955 -0.8645217
vt 0.1094024 0.1110652
v -1.0740550 -1.4127110 0.2710057
vn 0.0000000 0.5025950 -0.8645220
vt 0.1094024 0.0884989
v -0.9135480 -1.5443980 0.2354755
vn 0.0000000 0.0000000 -1.0000000
vt 0.1287403 0.1110652
v -1.0740550 -1.5443980 0.2354755
vn 0.0000000 0.0000000 -1.0000000
vt 0.1287403 0.0884989
v -0.9135480 -1.6760850 0.2710057
vn 0.0000000 -0.5025942 -0.8645225
vt 0.1480779 0.1110652
v -1.0740550 -1.6760850 0.2710057
vn 0.0000000 -0.5025940 -0.8645226
vt 0.1480779 0.0884989
v -0.9135479 -1.7724870 0.3680762
vn 0.0000000 -0.8675159 -0.4974095
vt 0.1674156 0.1110652
v -1.0740550 -1.7724870 0.3680762
vn 0.0000000 -0.8675156 -0.4974101
vt 0.1674156 0.0884989
v -0.9135479 -1.7724870 0.3680762
vn 0.0000000 -0.8675159 -0.4974095
vt 0.1094024 0.1110652
v -1.0740550 -1.7724870 0.3680762
vn 0.0000000 -0.8675156 -0.4974101
vt 0.1094024 0.0884989
v -0.9135480 -1.4127110 0.7303487
vn 1.0000000 0.0000000 0.0000000
vt 0.1971961 0.0185911
v -0.9135480 -1.5443980 0.7658789
vn 1.0000000 0.0000000 0.0000000
vt 0.1925771 0.0014718
v -0.9135480 -1.5443980 0.2354755
vn 1.0000000 0.0000000 0.0000000
vt 0.2615295 0.0014718
v -0.9135480 -1.6760850 0.7303487
vn 1.0000000 0.0000000 0.0000000
vt 0.1971961 0.0185911
v -0.9135480 -1.3163090 0.6332784
vn 1.0000000 0.0000000 0.0000000
vt 0.2098151 0.0311233
v -0.9135480 -1.2810230 0.5006773
vn 1.0000000 0.0000000 0.0000000
vt 0.2270532 0.0357105
v -0.9135480 -1.3163090 0.3680764
vn 1.0000000 0.0000000 0.0000000
vt 0.2442914 0.0311233
v -0.9135480 -1.4127110 0.2710057
vn 1.0000000 0.0000000 0.0000000
vt 0.2569106 0.0185911
v -0.9135480 -1.7724870 0.6332783
vn 1.0000000 0.0000000 0.0000000
vt 0.2098151 0.0311233
v -0.9135479 -1.8077730 0.5006772
vn 1.0000000 0.0000000 0.0000000
vt 0.2270532 0.0357105
v -0.9135480 -1.6760850 0.2710057
vn 1.0000000 0.0000000 0.0000000
vt 0.2569106 0.0185911
v -0.9135479 -1.7724870 0.3680762
vn 1.0000000 0.0000000 0.0000000
vt 0.2442914 0.0311233
v -1.0681480 -1.7491781 0.4988660
vn -0.9949424 0.1004024 0.0030237
vt 0.1597478 0.0112050
v -1.0740550 -1.8077730 0.5006772
vn -0.9949504 0.1003568 0.0014838
vt 0.1597272 0.0012068
v -1.0681480 -1.7216040 0.6024895
vn -0.9950895 0.0872555 -0.0467262
vt 0.1759045 0.0155272
v -1.0740550 -1.7724870 0.6332783
vn -0.9950952 0.0866036 -0.0478057
vt 0.1808787 0.0065788
v -1.0681480 -1.6462690 0.6783472
vn -0.9951788 0.0493672 -0.0847479
vt 0.1877133 0.0273361
v -1.0740550 -1.6760850 0.7303487
vn -0.9951789 0.0491964 -0.0848454
vt 0.1963796 0.0217441
v -1.0740550 -1.5443980 0.7658789
vn -0.9951461 -0.0017205 -0.0983937
vt 0.2020306 0.0434675
v -1.0681480 -1.5433590 0.7061128
vn -0.9951419 -0.0027897 -0.0984121
vt 0.1920356 0.0434849
v -1.0740550 -1.4127110 0.7303487
vn -0.9950016 -0.0513721 -0.0856321
vt 0.1963796 0.0647503
v -1.0681480 -1.4404500 0.6783472
vn -0.9949914 -0.0529049 -0.0848129
vt 0.1877133 0.0595982
v -1.0740550 -1.3163090 0.6332784
vn -0.9947853 -0.0891190 -0.0495989
vt 0.1808787 0.0801705
v -1.0681480 -1.3651150 0.6024895
vn -0.9947726 -0.0901618 -0.0479424
vt 0.1759045 0.0714071
v -1.0740550 -1.2810230 0.5006773
vn -0.9945753 -0.1040078 0.0015464
vt 0.1597272 0.0858137
v -1.0681480 -1.3375400 0.4988660
vn -0.9945661 -0.1040592 0.0031764
vt 0.1597478 0.0757294
v -1.0740550 -1.3163090 0.3680764
vn -0.9944485 -0.0902837 0.0540475
vt 0.1385597 0.0801626
v -1.0681480 -1.3651150 0.3952427
vn -0.9944449 -0.0898159 0.0548859
vt 0.1436424 0.0714071
v -1.0740550 -1.4127110 0.2710057
vn -0.9944360 -0.0528394 0.0911319
vt 0.1230748 0.0647355
v -1.0681480 -1.4404500 0.3193850
vn -0.9944359 -0.0530183 0.0910293
vt 0.1318336 0.0595982
v -1.0681480 -1.5433590 0.2916192
vn -0.9944995 -0.0030338 0.1046974
vt 0.1275111 0.0434849
v -1.0740550 -1.5443980 0.2354755
vn -0.9945046 -0.0018649 0.1046764
vt 0.1174016 0.0434675
v -1.0681480 -1.6462690 0.3193849
vn -0.9946241 0.0493451 0.0910396
vt 0.1318336 0.0273361
v -1.0740550 -1.6760850 0.2710057
vn -0.9946311 0.0505611 0.0902916
vt 0.1230748 0.0218400
v -1.0681480 -1.7216040 0.3952425
vn -0.9947775 0.0869684 0.0534251
vt 0.1436424 0.0155272
v -1.0740550 -1.7724870 0.3680762
vn -0.9947858 0.0877034 0.0520524
vt 0.1385802 0.0066415
v -1.0681480 -1.7491781 0.4988660
vn 0.0000000 1.0000000 0.0000000
vt 0.1279290 0.1140428
v -1.0681480 -1.7216040 0.6024895
vn -0.0709879 0.8741421 -0.4804542
vt 0.1461658 0.1140428
v -0.9495882 -1.7491781 0.4988660
vn -0.1036288 0.9946161 0.0000000
vt 0.1279290 0.1316603
v -0.9495882 -1.6839360 0.6404184
vn -0.1294596 0.7035531 -0.6987512
vt 0.1552736 0.1316603
v -1.0681480 -1.6462690 0.6783472
vn -0.0710714 0.4854713 -0.8713590
vt 0.1643815 0.1140428
v -1.0681480 -1.5433590 0.7061128
vn 0.0000000 0.0000000 -1.0000000
vt 0.1461658 0.1140428
v -0.9495882 -1.5433590 0.7061128
vn -0.1046508 0.0000000 -0.9945090
vt 0.1461658 0.1316603
v -0.9495882 -1.6839360 0.6404184
vn -0.1294596 0.7035531 -0.6987512
vt 0.1643815 0.1316603
v -1.0681480 -1.4404500 0.6783472
vn -0.0710716 -0.4854722 -0.8713585
vt 0.1279290 0.1140428
v -0.9495882 -1.4027820 0.6404184
vn -0.1294593 -0.7035546 -0.6987499
vt 0.1186799 0.1316603
v -1.0681480 -1.3651150 0.6024895
vn -0.0709866 -0.8741431 -0.4804526
vt 0.1094308 0.1140428
v -1.0681480 -1.3375400 0.4988660
vn 0.0000000 -1.0000000 0.0000000
vt 0.1461658 0.1140428
v -0.9495882 -1.3375400 0.4988660
vn -0.1036267 -0.9946163 0.0000000
vt 0.1461658 0.1316603
v -1.0681480 -1.3651150 0.6024895
vn -0.0709866 -0.8741431 -0.4804526
vt 0.1643815 0.1140428
v -0.9495882 -1.4027820 0.6404184
vn -0.1294593 -0.7035546 -0.6987499
vt 0.1643815 0.1316603
v -1.0681480 -1.3651150 0.3952427
vn -0.0709864 -0.8741432 0.4804525
vt 0.1279291 0.1140428
v -0.9495882 -1.4027820 0.3573138
vn -0.1294592 -0.7035550 0.6987494
vt 0.1186799 0.1316603
v -1.0681480 -1.4404500 0.3193850
vn -0.0710717 -0.4854732 0.8713579
vt 0.1094308 0.1140428
v -1.0681480 -1.5433590 0.2916192
vn 0.0000000 0.0000000 1.0000000
vt 0.1279291 0.1140428
v -0.9495882 -1.5433590 0.2916192
vn -0.1046511 0.0000000 0.9945090
vt 0.1279291 0.1316603
v -0.9495882 -1.4027820 0.3573138
vn -0.1294592 -0.7035550 0.6987494
vt 0.1094308 0.1316603
v -1.0681480 -1.6462690 0.3193849
vn -0.0710719 0.4854723 0.8713585
vt 0.1461658 0.1140428
v -0.9495882 -1.6839360 0.3573137
vn -0.1294604 0.7035538 0.6987504
vt 0.1552736 0.1316603
v -1.0681480 -1.7216040 0.3952425
vn -0.0709887 0.8741421 0.4804543
vt 0.1643815 0.1140428
v -1.0681480 -1.7216040 0.3952425
vn -0.0709887 0.8741421 0.4804543
vt 0.1094308 0.1140428
v -0.9495882 -1.6839360 0.3573137
vn -0.1294604 0.7035538 0.6987504
vt 0.1094308 0.1316603
v -0.9135480 -1.6760850 0.7303487
vn 0.0000000 -0.5025938 0.8645227
vt 0.1674156 0.1110652
v -1.0740550 -1.6760850 0.7303487
vn 0.0000000 -0.5025938 0.8645227
vt 0.1674156 0.0884989
v -0.9135480 -1.4127110 0.2710057
vn 0.0000000 0.5025955 -0.8645217
vt 0.1094024 0.1110652
v -1.0740550 -1.4127110 0.2710057
vn 0.0000000 0.5025950 -0.8645220
vt 0.1094024 0.0884989
v -0.9135480 -1.5443980 0.7658789
vn 1.0000000 0.0000000 0.0000000
vt 0.1925771 0.0014718
v -0.9135480 -1.5443980 0.2354755
vn 1.0000000 0.0000000 0.0000000
vt 0.2615295 0.0014718
v -1.0681480 -1.6462690 0.6783472
vn -0.0710714 0.4854713 -0.8713590
vt 0.1643815 0.1140428
v -1.0681480 -1.4404500 0.3193850
vn -0.0710717 -0.4854732 0.8713579
vt 0.1094308 0.1140428

g group_7_140627863933440
f 1/1/1 2/2/2 3/3/3 
f 2/2/2 4/4/4 3/3/3 
f 1/1/1 5/5/5 2/2/2 
f 5/5/5 6/6/6 2/2/2 
f 6/6/6 7/7/7 2/2/2 
f 7/7/7 8/8/8 2/2/2 
f 8/8/8 9/9/9 2/2/2 
f 9/9/9 4/4/4 2/2/2 
f 10/10/10 11/11/11 12/12/12 
f 11/11/11 13/13/13 12/12/12 
f 14/14/14 15/15/15 10/10/10 
f 15/15/15 11/11/11 10/10/10 
f 16/16/16 17/17/17 100/100/100 
f 17/17/17 101/101/101 100/100/100 
f 18/18/18 19/19/19 16/16/16 
f 19/19/19 17/17/17 16/16/16 
f 20/20/20 21/21/21 18/18/18 
f 21/21/21 19/19/19 18/18/18 
f 22/22/22 23/23/23 24/24/24 
f 23/23/23 25/25/25 24/24/24 
f 26/26/26 27/27/27 22/22/22 
f 27/27/27 23/23/23 22/22/22 
f 28/28/28 29/29/29 26/26/26 
f 29/29/29 27/27/27 26/26/26 
f 30/30/30 31/31/31 102/102/102 
f 31/31/31 103/103/103 102/102/102 
f 32/32/32 33/33/33 30/30/30 
f 33/33/33 31/31/31 30/30/30 
f 34/34/34 35/35/35 32/32/32 
f 35/35/35 33/33/33 32/32/32 
f 12/12/12 13/13/13 36/36/36 
f 13/13/13 37/37/37 36/36/36 
f 38/38/38 39/39/39 40/40/40 
f 104/104/104 41/41/41 105/105/105 
f 38/38/38 40/40/40 42/42/42 
f 40/40/40 43/43/43 42/42/42 
f 43/43/43 40/40/40 44/44/44 
f 40/40/40 45/45/45 44/44/44 
f 41/41/41 46/46/46 105/105/105 
f 46/46/46 47/47/47 105/105/105 
f 47/47/47 48/48/48 105/105/105 
f 48/48/48 47/47/47 49/49/49 
f 50/50/50 51/51/51 52/52/52 
f 51/51/51 53/53/53 52/52/52 
f 52/52/52 53/53/53 54/54/54 
f 53/53/53 55/55/55 54/54/54 
f 55/55/55 56/56/56 54/54/54 
f 56/56/56 57/57/57 54/54/54 
f 56/56/56 58/58/58 57/57/57 
f 58/58/58 59/59/59 57/57/57 
f 58/58/58 60/60/60 59/59/59 
f 60/60/60 61/61/61 59/59/59 
f 60/60/60 62/62/62 61/61/61 
f 62/62/62 63/63/63 61/61/61 
f 62/62/62 64/64/64 63/63/63 
f 64/64/64 65/65/65 63/63/63 
f 64/64/64 66/66/66 65/65/65 
f 66/66/66 67/67/67 65/65/65 
f 67/67/67 66/66/66 68/68/68 
f 66/66/66 69/69/69 68/68/68 
f 68/68/68 69/69/69 70/70/70 
f 69/69/69 71/71/71 70/70/70 
f 70/70/70 71/71/71 72/72/72 
f 71/71/71 73/73/73 72/72/72 
f 72/72/72 73/73/73 50/50/50 
f 73/73/73 51/51/51 50/50/50 
f 74/74/74 75/75/75 76/76/76 
f 75/75/75 77/77/77 76/76/76 
f 78/78/78 77/77/77 75/75/75 
f 79/79/79 80/80/80 106/106/106 
f 80/80/80 81/81/81 106/106/106 
f 79/79/79 82/82/82 80/80/80 
f 82/82/82 83/83/83 80/80/80 
f 84/84/84 83/83/83 82/82/82 
f 85/85/85 86/86/86 87/87/87 
f 86/86/86 88/88/88 87/87/87 
f 85/85/85 89/89/89 86/86/86 
f 89/89/89 90/90/90 86/86/86 
f 91/91/91 90/90/90 89/89/89 
f 92/92/92 93/93/93 107/107/107 
f 93/93/93 94/94/94 107/107/107 
f 92/92/92 95/95/95 93/93/93 
f 95/95/95 96/96/96 93/93/93 
f 97/97/97 96/96/96 95/95/95 
f 74/74/74 76/76/76 98/98/98 
f 76/76/76 99/99/99 98/98/98 
