v -1.0735140 0.5312630 0.6884149
vn 0.0000000 0.2617125 0.9651459
vt 0.2065722 0.1349181
v -1.1447051 0.5312630 0.6884149
vn 0.0000000 0.2617127 0.9651458
vt 0.2065722 0.1454185
v -1.0735140 0.3624940 0.6887071
vn 0.0000000 -0.2588183 0.9659261
vt 0.1872341 0.1349181
v -1.1447051 0.3624940 0.6887077
vn 0.0000000 -0.2588173 0.9659263
vt 0.1872341 0.1454185
v -1.0735140 0.6775676 0.6032705
vn 0.0000000 0.7092162 0.7049910
vt 0.2259672 0.1349181
v -1.1447051 0.6775676 0.6032705
vn 0.0000000 0.7092160 0.7049913
vt 0.2259672 0.1454185
v -1.0735140 0.7622054 0.4560884
vn 0.0000000 0.9659260 0.2588185
vt 0.1872148 0.1349076
v -1.1447051 0.7622054 0.4560884
vn 0.0000000 0.9659260 0.2588186
vt 0.1872148 0.1454289
v -1.0735140 0.6775676 0.6032705
vn 0.0000000 0.7092162 0.7049910
vt 0.1678380 0.1349076
v -1.1447051 0.6775676 0.6032705
vn 0.0000000 0.7092160 0.7049913
vt 0.1678380 0.1454289
v -1.0735140 0.7624978 0.2863059
vn 0.0000000 0.9666950 -0.2559313
vt 0.2065915 0.1349076
v -1.1447051 0.7624978 0.2863059
vn 0.0000000 0.9666950 -0.2559315
vt 0.2065915 0.1454289
v -1.0735140 0.6783670 0.1394165
vn 0.0000000 0.7092240 -0.7049832
vt 0.2260252 0.1349076
v -1.1447051 0.6783668 0.1394161
vn 0.0000000 0.7092226 -0.7049847
vt 0.2260252 0.1454289
v -1.0735140 0.5323547 0.0547785
vn 0.0000000 0.2588194 -0.9659258
vt 0.1872341 0.1349181
v -1.1447051 0.5323547 0.0547785
vn 0.0000000 0.2588191 -0.9659258
vt 0.1872341 0.1454185
v -1.0735140 0.6783670 0.1394165
vn 0.0000000 0.7092240 -0.7049832
vt 0.1678960 0.1349181
v -1.1447051 0.6783668 0.1394161
vn 0.0000000 0.7092226 -0.7049847
vt 0.1678960 0.1454185
v -1.0735140 0.3635857 0.0550709
vn 0.0000000 -0.2617144 -0.9651454
vt 0.2065722 0.1349181
v -1.1447051 0.3635860 0.0550710
vn 0.0000000 -0.2617137 -0.9651456
vt 0.2065722 0.1454185
v -1.0735140 0.2172812 0.1402153
vn 0.0000000 -0.7092161 -0.7049912
vt 0.2259673 0.1349181
v -1.1447051 0.2172816 0.1402155
vn 0.0000000 -0.7092152 -0.7049921
vt 0.2259673 0.1454185
v -1.0735140 0.1326434 0.2873978
vn 0.0000000 -0.9659264 -0.2588169
vt 0.1872148 0.1349076
v -1.1447051 0.1326434 0.2873975
vn 0.0000000 -0.9659260 -0.2588184
vt 0.1872148 0.1454289
v -1.0735140 0.2172812 0.1402153
vn 0.0000000 -0.7092161 -0.7049912
vt 0.1678380 0.1349076
v -1.1447051 0.2172816 0.1402155
vn 0.0000000 -0.7092152 -0.7049921
vt 0.1678380 0.1454289
v -1.0735140 0.1323508 0.4571800
vn 0.0000000 -0.9666957 0.2559288
vt 0.2065915 0.1349076
v -1.1447051 0.1323511 0.4571802
vn 0.0000000 -0.9666953 0.2559301
vt 0.2065915 0.1454289
v -1.0735140 0.2164818 0.6040696
vn 0.0000000 -0.7092230 0.7049842
vt 0.2260252 0.1349076
v -1.1447051 0.2164815 0.6040697
vn 0.0000000 -0.7092243 0.7049830
vt 0.2260252 0.1454289
v -1.0735140 0.2164818 0.6040696
vn 0.0000000 -0.7092230 0.7049842
vt 0.1678960 0.1349181
v -1.1447051 0.2164815 0.6040697
vn 0.0000000 -0.7092243 0.7049830
vt 0.1678960 0.1454185
v -1.0735140 0.3624940 0.6887071
vn 1.0000000 0.0000000 0.0000000
vt 0.2735216 0.0386016
v -1.0735140 0.2164818 0.6040696
vn 1.0000000 0.0000000 0.0000000
vt 0.2784147 0.0203403
v -1.0735140 0.5312630 0.6884149
vn 1.0000000 0.0000000 0.0000000
vt 0.2784147 0.0568631
v -1.0735140 0.1323508 0.4571800
vn 1.0000000 0.0000000 0.0000000
vt 0.2917829 0.0069721
v -1.0735140 0.2172812 0.1402153
vn 1.0000000 0.0000000 0.0000000
vt 0.3283057 0.0069721
v -1.0735140 0.1326434 0.2873978
vn 1.0000000 0.0000000 0.0000000
vt 0.3100443 0.0020791
v -1.0735140 0.5323547 0.0547785
vn 1.0000000 0.0000000 0.0000000
vt 0.3465669 0.0386016
v -1.0735140 0.3635857 0.0550709
vn 1.0000000 0.0000000 0.0000000
vt 0.3416738 0.0203404
v -1.0735140 0.6783670 0.1394165
vn 1.0000000 0.0000000 0.0000000
vt 0.3416738 0.0568631
v -1.0735140 0.7624978 0.2863059
vn 1.0000000 0.0000000 0.0000000
vt 0.3283057 0.0702312
v -1.0735140 0.7622054 0.4560884
vn 1.0000000 0.0000000 0.0000000
vt 0.3100443 0.0751243
v -1.0735140 0.6775676 0.6032705
vn 1.0000000 0.0000000 0.0000000
vt 0.2917829 0.0702312
v -1.1447051 0.2164815 0.6040697
vn -1.0000000 0.0000000 0.0000000
vt 0.2783221 0.0649316
v -1.1447051 0.3624940 0.6887077
vn -1.0000000 0.0000000 0.0000000
vt 0.2842153 0.0869251
v -1.1447051 0.1323511 0.4571802
vn -1.0000000 0.0000000 0.0000000
vt 0.2622217 0.0488311
v -1.1447051 0.1326434 0.2873975
vn -1.0000000 0.0000000 0.0000000
vt 0.2402282 0.0429379
v -1.1447051 0.5312630 0.6884149
vn -1.0000000 0.0000000 0.0000000
vt 0.2783221 0.1089187
v -1.1447051 0.2172816 0.1402155
vn -1.0000000 0.0000000 0.0000000
vt 0.2182345 0.0488310
v -1.1447051 0.6775676 0.6032705
vn -1.0000000 0.0000000 0.0000000
vt 0.2622218 0.1250191
v -1.1447051 0.3635860 0.0550710
vn -1.0000000 0.0000000 0.0000000
vt 0.2021341 0.0649316
v -1.1447051 0.7622054 0.4560884
vn -1.0000000 0.0000000 0.0000000
vt 0.2402282 0.1309123
v -1.1447051 0.5323547 0.0547785
vn -1.0000000 0.0000000 0.0000000
vt 0.1962410 0.0869251
v -1.1447051 0.6783668 0.1394161
vn -1.0000000 0.0000000 0.0000000
vt 0.2021341 0.1089187
v -1.1447051 0.7624978 0.2863059
vn -1.0000000 0.0000000 0.0000000
vt 0.2182345 0.1250191
v -0.8497858 0.3624940 0.6887074
vn -0.4332078 -0.3560396 0.8279896
vt 0.1868951 0.1512894
v -0.8497858 0.5312627 0.6884149
vn -0.4323506 0.3582044 0.8275038
vt 0.2052933 0.1512894
v -0.9194189 0.4468784 0.6885609
vn -0.3463409 0.0014038 0.9381077
vt 0.1961258 0.1626456
v -0.8497858 0.6775673 0.6032704
vn -0.4666840 0.5003271 0.7293003
vt 0.2249668 0.1512894
v -0.9194189 0.7198864 0.5296793
vn -0.3895150 0.7983345 0.4592822
vt 0.2343386 0.1626456
v -0.8497858 0.6775673 0.6032704
vn -0.4666840 0.5003271 0.7293003
vt 0.1868951 0.1512847
v -0.8497858 0.7622051 0.4560883
vn -0.4657337 0.8824043 0.0667443
vt 0.2052933 0.1512847
v -0.9194189 0.7198864 0.5296793
vn -0.3895150 0.7983345 0.4592822
vt 0.1961258 0.1626503
v -0.9194189 0.7204321 0.2128609
vn -0.3700956 0.7796137 -0.5052046
vt 0.2343386 0.1626503
v -0.8497858 0.7624977 0.2863059
vn -0.4314466 0.8961019 -0.1041891
vt 0.2249668 0.1512847
v -0.8497858 0.7624977 0.2863059
vn -0.4314466 0.8961019 -0.1041891
vt 0.1486025 0.1512894
v -0.8497858 0.6783665 0.1394164
vn -0.4676791 0.4992864 -0.7293760
vt 0.1674860 0.1512894
v -0.9194189 0.7204321 0.2128609
vn -0.3700956 0.7796137 -0.5052046
vt 0.1581403 0.1626456
v -0.9194183 0.4479706 0.0549248
vn -0.3463390 -0.0014016 -0.9381084
vt 0.1961258 0.1626456
v -0.8497858 0.5323546 0.0547785
vn -0.4332061 0.3560406 -0.8279901
vt 0.1868951 0.1512894
v -0.8497858 0.3635857 0.0550709
vn -0.4323578 -0.3582043 -0.8275001
vt 0.2052933 0.1512894
v -0.8497858 0.2172815 0.1402153
vn -0.4666875 -0.5003254 -0.7292992
vt 0.2249668 0.1512894
v -0.9194183 0.1749624 0.2138065
vn -0.3895161 -0.7983339 -0.4592823
vt 0.2343386 0.1626456
v -0.8497858 0.2172815 0.1402153
vn -0.4666875 -0.5003254 -0.7292992
vt 0.1868951 0.1512847
v -0.8497858 0.1326436 0.2873976
vn -0.4657367 -0.8824028 -0.0667441
vt 0.2052933 0.1512847
v -0.9194183 0.1749624 0.2138065
vn -0.3895161 -0.7983339 -0.4592823
vt 0.1961258 0.1626503
v -0.9194183 0.1744166 0.5306247
vn -0.3701014 -0.7796118 0.5052033
vt 0.2343386 0.1626503
v -0.8497858 0.1323510 0.4571798
vn -0.4314504 -0.8961002 0.1041877
vt 0.2249668 0.1512847
v -0.8497858 0.1323510 0.4571798
vn -0.4314504 -0.8961002 0.1041877
vt 0.1486024 0.1512894
v -0.8497858 0.2164815 0.6040693
vn -0.4676853 -0.4992855 0.7293727
vt 0.1674860 0.1512894
v -0.9194183 0.1744166 0.5306247
vn -0.3701014 -0.7796118 0.5052033
vt 0.1581403 0.1626456
v -0.8497858 0.3624940 0.6887074
vn 1.0000000 0.0000000 0.0000000
vt 0.2735279 0.0385833
v -0.8497858 0.2164815 0.6040693
vn 1.0000000 0.0000000 0.0000000
vt 0.2784210 0.0203220
v -0.8497858 0.5312627 0.6884149
vn 1.0000000 0.0000000 0.0000000
vt 0.2784210 0.0568447
v -0.8497858 0.1323510 0.4571798
vn 1.0000000 0.0000000 0.0000000
vt 0.2917894 0.0069538
v -0.8497858 0.2172815 0.1402153
vn 1.0000000 0.0000000 0.0000000
vt 0.3283119 0.0069538
v -0.8497858 0.1326436 0.2873976
vn 1.0000000 0.0000000 0.0000000
vt 0.3100506 0.0020607
v -0.8497858 0.5323546 0.0547785
vn 1.0000000 0.0000000 0.0000000
vt 0.3465733 0.0385833
v -0.8497858 0.3635857 0.0550709
vn 1.0000000 0.0000000 0.0000000
vt 0.3416801 0.0203221
v -0.8497858 0.6783665 0.1394164
vn 1.0000000 0.0000000 0.0000000
vt 0.3416801 0.0568447
v -0.8497858 0.7624977 0.2863059
vn 1.0000000 0.0000000 0.0000000
vt 0.3283119 0.0702130
v -0.8497858 0.7622051 0.4560883
vn 1.0000000 0.0000000 0.0000000
vt 0.3100505 0.0751060
v -0.8497858 0.6775673 0.6032704
vn 1.0000000 0.0000000 0.0000000
vt 0.2917893 0.0702128
v -0.9194189 0.4468784 0.6885609
vn -1.0000000 0.0000000 0.0000000
vt 0.3195319 0.0031312
v -0.9194189 0.7198864 0.5296793
vn -1.0000000 0.0000000 0.0000000
vt 0.3454814 0.0290807
v -0.9194183 0.1744166 0.5306247
vn -1.0000000 0.0000000 0.0000000
vt 0.2840841 0.0126294
v -0.9194183 0.1749624 0.2138065
vn -1.0000000 0.0000000 0.0000000
vt 0.2745859 0.0480771
v -0.9194189 0.7204321 0.2128609
vn -1.0000000 0.0000000 0.0000000
vt 0.3359832 0.0645286
v -0.9194183 0.4479706 0.0549248
vn -1.0000000 0.0000000 0.0000000
vt 0.3005355 0.0740266

g group_14_140627856623184
f 1/1/1 2/2/2 3/3/3 
f 2/2/2 4/4/4 3/3/3 
f 5/5/5 6/6/6 1/1/1 
f 6/6/6 2/2/2 1/1/1 
f 7/7/7 8/8/8 9/9/9 
f 8/8/8 10/10/10 9/9/9 
f 11/11/11 12/12/12 7/7/7 
f 12/12/12 8/8/8 7/7/7 
f 13/13/13 14/14/14 11/11/11 
f 14/14/14 12/12/12 11/11/11 
f 15/15/15 16/16/16 17/17/17 
f 16/16/16 18/18/18 17/17/17 
f 19/19/19 20/20/20 15/15/15 
f 20/20/20 16/16/16 15/15/15 
f 21/21/21 22/22/22 19/19/19 
f 22/22/22 20/20/20 19/19/19 
f 23/23/23 24/24/24 25/25/25 
f 24/24/24 26/26/26 25/25/25 
f 27/27/27 28/28/28 23/23/23 
f 28/28/28 24/24/24 23/23/23 
f 29/29/29 30/30/30 27/27/27 
f 30/30/30 28/28/28 27/27/27 
f 3/3/3 4/4/4 31/31/31 
f 4/4/4 32/32/32 31/31/31 
f 33/33/33 34/34/34 35/35/35 
f 34/34/34 36/36/36 35/35/35 
f 37/37/37 35/35/35 38/38/38 
f 38/38/38 35/35/35 36/36/36 
f 39/39/39 35/35/35 40/40/40 
f 40/40/40 35/35/35 37/37/37 
f 39/39/39 41/41/41 35/35/35 
f 41/41/41 42/42/42 35/35/35 
f 42/42/42 43/43/43 35/35/35 
f 43/43/43 44/44/44 35/35/35 
f 45/45/45 46/46/46 47/47/47 
f 47/47/47 46/46/46 48/48/48 
f 46/46/46 49/49/49 48/48/48 
f 48/48/48 49/49/49 50/50/50 
f 49/49/49 51/51/51 50/50/50 
f 50/50/50 51/51/51 52/52/52 
f 51/51/51 53/53/53 52/52/52 
f 52/52/52 53/53/53 54/54/54 
f 54/54/54 53/53/53 55/55/55 
f 55/55/55 53/53/53 56/56/56 
f 57/57/57 58/58/58 59/59/59 
f 58/58/58 60/60/60 59/59/59 
f 60/60/60 61/61/61 59/59/59 
f 62/62/62 63/63/63 64/64/64 
f 64/64/64 63/63/63 65/65/65 
f 63/63/63 66/66/66 65/65/65 
f 67/67/67 68/68/68 69/69/69 
f 69/69/69 68/68/68 70/70/70 
f 68/68/68 71/71/71 70/70/70 
f 71/71/71 72/72/72 70/70/70 
f 72/72/72 73/73/73 70/70/70 
f 73/73/73 74/74/74 70/70/70 
f 75/75/75 76/76/76 77/77/77 
f 77/77/77 76/76/76 78/78/78 
f 76/76/76 79/79/79 78/78/78 
f 80/80/80 81/81/81 82/82/82 
f 82/82/82 81/81/81 59/59/59 
f 81/81/81 57/57/57 59/59/59 
f 83/83/83 84/84/84 85/85/85 
f 84/84/84 86/86/86 85/85/85 
f 87/87/87 85/85/85 88/88/88 
f 88/88/88 85/85/85 86/86/86 
f 89/89/89 85/85/85 90/90/90 
f 90/90/90 85/85/85 87/87/87 
f 89/89/89 91/91/91 85/85/85 
f 91/91/91 92/92/92 85/85/85 
f 92/92/92 93/93/93 85/85/85 
f 93/93/93 94/94/94 85/85/85 
f 95/95/95 96/96/96 97/97/97 
f 97/97/97 96/96/96 98/98/98 
f 96/96/96 99/99/99 98/98/98 
f 98/98/98 99/99/99 100/100/100 
