v 1.0735140 -0.3374612 0.6884149
vn 0.0000000 0.2617125 0.9651459
vt 0.2065722 0.1349181
v 1.0735140 -0.5062302 0.6887071
vn 0.0000000 -0.2588183 0.9659261
vt 0.1872341 0.1349181
v 1.1447051 -0.3374612 0.6884149
vn 0.0000000 0.2617127 0.9651458
vt 0.2065722 0.1454185
v 1.1447051 -0.5062302 0.6887077
vn 0.0000000 -0.2588173 0.9659263
vt 0.1872341 0.1454185
v 1.0735140 -0.1911567 0.6032705
vn 0.0000000 0.7092161 0.7049912
vt 0.2259672 0.1349181
v 1.1447051 -0.1911567 0.6032705
vn 0.0000000 0.7092159 0.7049914
vt 0.2259672 0.1454185
v 1.0735140 -0.1065188 0.4560884
vn 0.0000000 0.9659260 0.2588184
vt 0.1872148 0.1349076
v 1.0735140 -0.1911567 0.6032705
vn 0.0000000 0.7092161 0.7049912
vt 0.1678380 0.1349076
v 1.1447051 -0.1065188 0.4560884
vn 0.0000000 0.9659260 0.2588186
vt 0.1872148 0.1454289
v 1.1447051 -0.1911567 0.6032705
vn 0.0000000 0.7092159 0.7049914
vt 0.1678380 0.1454289
v 1.0735140 -0.1062264 0.2863059
vn 0.0000000 0.9666950 -0.2559312
vt 0.2065915 0.1349076
v 1.1447051 -0.1062264 0.2863059
vn 0.0000000 0.9666950 -0.2559313
vt 0.2065915 0.1454289
v 1.0735140 -0.1903572 0.1394165
vn 0.0000000 0.7092240 -0.7049832
vt 0.2260252 0.1349076
v 1.1447051 -0.1903574 0.1394161
vn 0.0000000 0.7092225 -0.7049847
vt 0.2260252 0.1454289
v 1.0735140 -0.3363696 0.0547785
vn 0.0000000 0.2588195 -0.9659258
vt 0.1872341 0.1349181
v 1.0735140 -0.1903572 0.1394165
vn 0.0000000 0.7092240 -0.7049832
vt 0.1678960 0.1349181
v 1.1447051 -0.3363696 0.0547785
vn 0.0000000 0.2588192 -0.9659258
vt 0.1872341 0.1454185
v 1.1447051 -0.1903574 0.1394161
vn 0.0000000 0.7092225 -0.7049847
vt 0.1678960 0.1454185
v 1.0735140 -0.5051385 0.0550709
vn 0.0000000 -0.2617144 -0.9651454
vt 0.2065722 0.1349181
v 1.1447051 -0.5051382 0.0550710
vn 0.0000000 -0.2617137 -0.9651456
vt 0.2065722 0.1454185
v 1.0735140 -0.6514430 0.1402153
vn 0.0000000 -0.7092162 -0.7049910
vt 0.2259673 0.1349181
v 1.1447051 -0.6514426 0.1402155
vn 0.0000000 -0.7092153 -0.7049920
vt 0.2259673 0.1454185
v 1.0735140 -0.7360808 0.2873978
vn 0.0000000 -0.9659263 -0.2588170
vt 0.1872148 0.1349076
v 1.0735140 -0.6514430 0.1402153
vn 0.0000000 -0.7092162 -0.7049910
vt 0.1678380 0.1349076
v 1.1447051 -0.7360808 0.2873975
vn 0.0000000 -0.9659261 -0.2588183
vt 0.1872148 0.1454289
v 1.1447051 -0.6514426 0.1402155
vn 0.0000000 -0.7092153 -0.7049920
vt 0.1678380 0.1454289
v 1.0735140 -0.7363734 0.4571800
vn 0.0000000 -0.9666957 0.2559288
vt 0.2065915 0.1349076
v 1.1447051 -0.7363731 0.4571802
vn 0.0000000 -0.9666953 0.2559301
vt 0.2065915 0.1454289
v 1.0735140 -0.6522424 0.6040696
vn 0.0000000 -0.7092230 0.7049842
vt 0.2260252 0.1349076
v 1.1447051 -0.6522427 0.6040697
vn 0.0000000 -0.7092243 0.7049829
vt 0.2260252 0.1454289
v 1.0735140 -0.6522424 0.6040696
vn 0.0000000 -0.7092230 0.7049842
vt 0.1678960 0.1349181
v 1.1447051 -0.6522427 0.6040697
vn 0.0000000 -0.7092243 0.7049829
vt 0.1678960 0.1454185
v 1.0735140 -0.5062302 0.6887071
vn -1.0000000 0.0000000 0.0000000
vt 0.2735216 0.0386016
v 1.0735140 -0.3374612 0.6884149
vn -1.0000000 0.0000000 0.0000000
vt 0.2784147 0.0568631
v 1.0735140 -0.6522424 0.6040696
vn -1.0000000 0.0000000 0.0000000
vt 0.2784147 0.0203403
v 1.0735140 -0.7363734 0.4571800
vn -1.0000000 0.0000000 0.0000000
vt 0.2917829 0.0069721
v 1.0735140 -0.6514430 0.1402153
vn -1.0000000 0.0000000 0.0000000
vt 0.3283057 0.0069721
v 1.0735140 -0.7360808 0.2873978
vn -1.0000000 0.0000000 0.0000000
vt 0.3100443 0.0020791
v 1.0735140 -0.3363696 0.0547785
vn -1.0000000 0.0000000 0.0000000
vt 0.3465669 0.0386016
v 1.0735140 -0.5051385 0.0550709
vn -1.0000000 0.0000000 0.0000000
vt 0.3416738 0.0203404
v 1.0735140 -0.1903572 0.1394165
vn -1.0000000 0.0000000 0.0000000
vt 0.3416738 0.0568631
v 1.0735140 -0.1062264 0.2863059
vn -1.0000000 0.0000000 0.0000000
vt 0.3283057 0.0702312
v 1.0735140 -0.1065188 0.4560884
vn -1.0000000 0.0000000 0.0000000
vt 0.3100443 0.0751243
v 1.0735140 -0.1911567 0.6032705
vn -1.0000000 0.0000000 0.0000000
vt 0.2917829 0.0702312
v 1.1447051 -0.6522427 0.6040697
vn 1.0000000 0.0000000 0.0000000
vt 0.2783221 0.0649316
v 1.1447051 -0.7363731 0.4571802
vn 1.0000000 0.0000000 0.0000000
vt 0.2622217 0.0488311
v 1.1447051 -0.5062302 0.6887077
vn 1.0000000 0.0000000 0.0000000
vt 0.2842153 0.0869251
v 1.1447051 -0.7360808 0.2873975
vn 1.0000000 0.0000000 0.0000000
vt 0.2402282 0.0429379
v 1.1447051 -0.3374612 0.6884149
vn 1.0000000 0.0000000 0.0000000
vt 0.2783221 0.1089187
v 1.1447051 -0.6514426 0.1402155
vn 1.0000000 0.0000000 0.0000000
vt 0.2182345 0.0488310
v 1.1447051 -0.1911567 0.6032705
vn 1.0000000 0.0000000 0.0000000
vt 0.2622218 0.1250191
v 1.1447051 -0.5051382 0.0550710
vn 1.0000000 0.0000000 0.0000000
vt 0.2021341 0.0649316
v 1.1447051 -0.1065188 0.4560884
vn 1.0000000 0.0000000 0.0000000
vt 0.2402282 0.1309123
v 1.1447051 -0.3363696 0.0547785
vn 1.0000000 0.0000000 0.0000000
vt 0.1962410 0.0869251
v 1.1447051 -0.1903574 0.1394161
vn 1.0000000 0.0000000 0.0000000
vt 0.2021341 0.1089187
v 1.1447051 -0.1062264 0.2863059
vn 1.0000000 0.0000000 0.0000000
vt 0.2182345 0.1250191
v 0.8497858 -0.5062301 0.6887074
vn 0.4332082 -0.3560395 0.8279895
vt 0.1868951 0.1512894
v 0.9194189 -0.4218458 0.6885609
vn 0.3463407 0.0014039 0.9381078
vt 0.1961258 0.1626456
v 0.8497858 -0.3374615 0.6884149
vn 0.4323504 0.3582044 0.8275040
vt 0.2052933 0.1512894
v 0.8497858 -0.1911568 0.6032705
vn 0.4666845 0.5003266 0.7293003
vt 0.2249668 0.1512894
v 0.9194189 -0.1488377 0.5296793
vn 0.3895152 0.7983343 0.4592823
vt 0.2343386 0.1626456
v 0.8497858 -0.1911568 0.6032705
vn 0.4666845 0.5003266 0.7293003
vt 0.1868951 0.1512847
v 0.9194189 -0.1488377 0.5296793
vn 0.3895152 0.7983343 0.4592823
vt 0.1961258 0.1626503
v 0.8497858 -0.1065190 0.4560883
vn 0.4657333 0.8824045 0.0667444
vt 0.2052933 0.1512847
v 0.9194189 -0.1482921 0.2128609
vn 0.3700956 0.7796139 -0.5052044
vt 0.2343386 0.1626503
v 0.8497858 -0.1062264 0.2863059
vn 0.4314452 0.8961025 -0.1041890
vt 0.2249668 0.1512847
v 0.8497858 -0.1062264 0.2863059
vn 0.4314452 0.8961025 -0.1041890
vt 0.1486025 0.1512894
v 0.9194189 -0.1482921 0.2128609
vn 0.3700956 0.7796139 -0.5052044
vt 0.1581403 0.1626456
v 0.8497858 -0.1903576 0.1394164
vn 0.4676793 0.4992858 -0.7293763
vt 0.1674860 0.1512894
v 0.9194183 -0.4207535 0.0549248
vn 0.3463390 -0.0014018 -0.9381084
vt 0.1961258 0.1626456
v 0.8497858 -0.3363696 0.0547785
vn 0.4332064 0.3560404 -0.8279900
vt 0.1868951 0.1512894
v 0.8497858 -0.5051385 0.0550709
vn 0.4323578 -0.3582041 -0.8275002
vt 0.2052933 0.1512894
v 0.8497858 -0.6514426 0.1402153
vn 0.4666875 -0.5003254 -0.7292992
vt 0.2249668 0.1512894
v 0.9194183 -0.6937617 0.2138065
vn 0.3895162 -0.7983339 -0.4592822
vt 0.2343386 0.1626456
v 0.8497858 -0.6514426 0.1402153
vn 0.4666875 -0.5003254 -0.7292992
vt 0.1868951 0.1512847
v 0.9194183 -0.6937617 0.2138065
vn 0.3895162 -0.7983339 -0.4592822
vt 0.1961258 0.1626503
v 0.8497858 -0.7360806 0.2873976
vn 0.4657370 -0.8824026 -0.0667444
vt 0.2052933 0.1512847
v 0.9194183 -0.6943076 0.5306247
vn 0.3701007 -0.7796121 0.5052034
vt 0.2343386 0.1626503
v 0.8497858 -0.7363731 0.4571798
vn 0.4314494 -0.8961006 0.1041883
vt 0.2249668 0.1512847
v 0.8497858 -0.7363731 0.4571798
vn 0.4314494 -0.8961006 0.1041883
vt 0.1486024 0.1512894
v 0.9194183 -0.6943076 0.5306247
vn 0.3701007 -0.7796121 0.5052034
vt 0.1581403 0.1626456
v 0.8497858 -0.6522426 0.6040693
vn 0.4676848 -0.4992855 0.7293730
vt 0.1674860 0.1512894
v 0.8497858 -0.5062301 0.6887074
vn -1.0000000 0.0000000 0.0000000
vt 0.2735279 0.0385833
v 0.8497858 -0.3374615 0.6884149
vn -1.0000000 0.0000000 0.0000000
vt 0.2784210 0.0568447
v 0.8497858 -0.6522426 0.6040693
vn -1.0000000 0.0000000 0.0000000
vt 0.2784210 0.0203220
v 0.8497858 -0.7363731 0.4571798
vn -1.0000000 0.0000000 0.0000000
vt 0.2917894 0.0069538
v 0.8497858 -0.6514426 0.1402153
vn -1.0000000 0.0000000 0.0000000
vt 0.3283119 0.0069538
v 0.8497858 -0.7360806 0.2873976
vn -1.0000000 0.0000000 0.0000000
vt 0.3100506 0.0020607
v 0.8497858 -0.3363696 0.0547785
vn -1.0000000 0.0000000 0.0000000
vt 0.3465733 0.0385833
v 0.8497858 -0.5051385 0.0550709
vn -1.0000000 0.0000000 0.0000000
vt 0.3416801 0.0203221
v 0.8497858 -0.1903576 0.1394164
vn -1.0000000 0.0000000 0.0000000
vt 0.3416801 0.0568447
v 0.8497858 -0.1062264 0.2863059
vn -1.0000000 0.0000000 0.0000000
vt 0.3283119 0.0702130
v 0.8497858 -0.1065190 0.4560883
vn -1.0000000 0.0000000 0.0000000
vt 0.3100505 0.0751060
v 0.8497858 -0.1911568 0.6032705
vn -1.0000000 0.0000000 0.0000000
vt 0.2917893 0.0702128
v 0.9194189 -0.4218458 0.6885609
vn 1.0000000 0.0000000 0.0000000
vt 0.3195319 0.0031312
v 0.9194183 -0.6943076 0.5306247
vn 1.0000000 0.0000000 0.0000000
vt 0.2840841 0.0126294
v 0.9194189 -0.1488377 0.5296793
vn 1.0000000 0.0000000 0.0000000
vt 0.3454814 0.0290807
v 0.9194183 -0.6937617 0.2138065
vn 1.0000000 0.0000000 0.0000000
vt 0.2745859 0.0480771
v 0.9194189 -0.1482921 0.2128609
vn 1.0000000 0.0000000 0.0000000
vt 0.3359832 0.0645286
v 0.9194183 -0.4207535 0.0549248
vn 1.0000000 0.0000000 0.0000000
vt 0.3005355 0.0740266

g group_3_140627857608160
f 1/1/1 2/2/2 3/3/3 
f 3/3/3 2/2/2 4/4/4 
f 5/5/5 1/1/1 6/6/6 
f 6/6/6 1/1/1 3/3/3 
f 7/7/7 8/8/8 9/9/9 
f 9/9/9 8/8/8 10/10/10 
f 11/11/11 7/7/7 12/12/12 
f 12/12/12 7/7/7 9/9/9 
f 13/13/13 11/11/11 14/14/14 
f 14/14/14 11/11/11 12/12/12 
f 15/15/15 16/16/16 17/17/17 
f 17/17/17 16/16/16 18/18/18 
f 19/19/19 15/15/15 20/20/20 
f 20/20/20 15/15/15 17/17/17 
f 21/21/21 19/19/19 22/22/22 
f 22/22/22 19/19/19 20/20/20 
f 23/23/23 24/24/24 25/25/25 
f 25/25/25 24/24/24 26/26/26 
f 27/27/27 23/23/23 28/28/28 
f 28/28/28 23/23/23 25/25/25 
f 29/29/29 27/27/27 30/30/30 
f 30/30/30 27/27/27 28/28/28 
f 2/2/2 31/31/31 4/4/4 
f 4/4/4 31/31/31 32/32/32 
f 33/33/33 34/34/34 35/35/35 
f 35/35/35 34/34/34 36/36/36 
f 37/37/37 38/38/38 34/34/34 
f 38/38/38 36/36/36 34/34/34 
f 39/39/39 40/40/40 34/34/34 
f 40/40/40 37/37/37 34/34/34 
f 39/39/39 34/34/34 41/41/41 
f 41/41/41 34/34/34 42/42/42 
f 42/42/42 34/34/34 43/43/43 
f 43/43/43 34/34/34 44/44/44 
f 45/45/45 46/46/46 47/47/47 
f 46/46/46 48/48/48 47/47/47 
f 47/47/47 48/48/48 49/49/49 
f 48/48/48 50/50/50 49/49/49 
f 49/49/49 50/50/50 51/51/51 
f 50/50/50 52/52/52 51/51/51 
f 51/51/51 52/52/52 53/53/53 
f 52/52/52 54/54/54 53/53/53 
f 54/54/54 55/55/55 53/53/53 
f 55/55/55 56/56/56 53/53/53 
f 57/57/57 58/58/58 59/59/59 
f 59/59/59 58/58/58 60/60/60 
f 60/60/60 58/58/58 61/61/61 
f 62/62/62 63/63/63 64/64/64 
f 63/63/63 65/65/65 64/64/64 
f 64/64/64 65/65/65 66/66/66 
f 67/67/67 68/68/68 69/69/69 
f 68/68/68 70/70/70 69/69/69 
f 69/69/69 70/70/70 71/71/71 
f 71/71/71 70/70/70 72/72/72 
f 72/72/72 70/70/70 73/73/73 
f 73/73/73 70/70/70 74/74/74 
f 75/75/75 76/76/76 77/77/77 
f 76/76/76 78/78/78 77/77/77 
f 77/77/77 78/78/78 79/79/79 
f 80/80/80 81/81/81 82/82/82 
f 81/81/81 58/58/58 82/82/82 
f 82/82/82 58/58/58 57/57/57 
f 83/83/83 84/84/84 85/85/85 
f 85/85/85 84/84/84 86/86/86 
f 87/87/87 88/88/88 84/84/84 
f 88/88/88 86/86/86 84/84/84 
f 89/89/89 90/90/90 84/84/84 
f 90/90/90 87/87/87 84/84/84 
f 89/89/89 84/84/84 91/91/91 
f 91/91/91 84/84/84 92/92/92 
f 92/92/92 84/84/84 93/93/93 
f 93/93/93 84/84/84 94/94/94 
f 95/95/95 96/96/96 97/97/97 
f 96/96/96 98/98/98 97/97/97 
f 97/97/97 98/98/98 99/99/99 
f 98/98/98 100/100/100 99/99/99 
