v 0.9250052 -1.1713960 0.2875211
vn -0.0007118 -0.9659314 -0.2587973
vt 0.4118287 0.1412092
v 0.9250052 -1.0868810 0.1405535
vn -0.0007135 -0.7092336 -0.7049732
vt 0.4362281 0.1412092
v 1.0674599 -1.1714931 0.2874946
vn -0.0007119 -0.9659313 -0.2587976
vt 0.4118287 0.1607672
v 1.0674599 -1.0869530 0.1404815
vn -0.0007132 -0.7092324 -0.7049744
vt 0.4362281 0.1607672
v 0.9250052 -1.1716880 0.4570557
vn -0.0007120 -0.9666890 0.2559530
vt 0.3874222 0.1412092
v 1.0674599 -1.1717860 0.4570821
vn -0.0007122 -0.9666887 0.2559541
vt 0.3874222 0.1607672
v 0.9250052 -1.0876790 0.6037310
vn -0.0007140 -0.7092078 0.7049991
vt 0.4118288 0.1412092
v 1.0674599 -1.0877510 0.6038031
vn -0.0007136 -0.7092069 0.7050000
vt 0.4118288 0.1607672
v 0.9250052 -0.9418805 0.6882452
vn -0.0007162 -0.2587964 0.9659317
vt 0.4362281 0.1412092
v 1.0674599 -0.9419071 0.6883437
vn -0.0007165 -0.2587966 0.9659316
vt 0.4362281 0.1607672
v 0.9250052 -0.7733578 0.6879533
vn -0.0007126 0.2617365 0.9651391
vt 0.4606214 0.1412092
v 1.0674599 -0.7733319 0.6880515
vn -0.0007126 0.2617347 0.9651396
vt 0.4606214 0.1607672
v 0.9250053 -0.6272668 0.6029329
vn -0.0007136 0.7092338 0.7049730
vt 0.4118288 0.1412092
v 0.9250052 -0.7733578 0.6879533
vn -0.0007126 0.2617365 0.9651391
vt 0.3874223 0.1412092
v 1.0674599 -0.6271951 0.6030048
vn -0.0007122 0.7092323 0.7049745
vt 0.4118288 0.1607672
v 1.0674599 -0.7733319 0.6880515
vn -0.0007126 0.2617347 0.9651396
vt 0.3874223 0.1607672
v 0.9250053 -0.5427527 0.4559653
vn -0.0007140 0.9659315 0.2587967
vt 0.4362281 0.1412092
v 1.0674599 -0.5426545 0.4559916
vn -0.0007135 0.9659316 0.2587966
vt 0.4362281 0.1607672
v 0.9250052 -0.6264685 0.1397555
vn -0.0007152 0.7092088 -0.7049981
vt 0.4362281 0.1412092
v 0.9250052 -0.5424604 0.2864308
vn -0.0007147 0.9666891 -0.2559527
vt 0.4606214 0.1412092
v 1.0674599 -0.6263968 0.1396831
vn -0.0007159 0.7092072 -0.7049997
vt 0.4362281 0.1607672
v 1.0674599 -0.5423620 0.2864042
vn -0.0007152 0.9666886 -0.2559543
vt 0.4606214 0.1607672
v 0.9250053 -0.7722672 0.0552411
vn -0.0007163 0.2587975 -0.9659314
vt 0.4118288 0.1412092
v 1.0674599 -0.7722409 0.0551424
vn -0.0007167 0.2587969 -0.9659315
vt 0.4118288 0.1607672
v 0.9250053 -0.9407901 0.0555330
vn -0.0007148 -0.2617370 -0.9651390
vt 0.3874223 0.1412092
v 1.0674599 -0.9408160 0.0554346
vn -0.0007147 -0.2617354 -0.9651394
vt 0.3874223 0.1607672
v 0.9250053 -0.9407901 0.0555330
vn -0.0007148 -0.2617370 -0.9651390
vt 0.4606214 0.1412092
v 1.0674599 -0.9408160 0.0554346
vn -0.0007147 -0.2617354 -0.9651394
vt 0.4606214 0.1607672
v 0.9250053 -0.9407901 0.0555330
vn -1.0000000 0.0000000 0.0000000
vt 0.0231491 0.2396630
v 0.9250052 -1.0868810 0.1405535
vn -1.0000000 0.0000000 0.0000000
vt 0.0425023 0.2448487
v 0.9250053 -0.7722672 0.0552411
vn -1.0000000 0.0000000 0.0000000
vt 0.0089817 0.2254956
v 0.9250052 -1.1713960 0.2875211
vn -1.0000000 0.0000000 0.0000000
vt 0.0618553 0.2396630
v 0.9250052 -0.6264685 0.1397555
vn -1.0000000 0.0000000 0.0000000
vt 0.0037960 0.2061426
v 0.9250052 -1.1716880 0.4570557
vn -1.0000000 0.0000000 0.0000000
vt 0.0760226 0.2254956
v 0.9250052 -0.5424604 0.2864308
vn -1.0000000 0.0000000 0.0000000
vt 0.0089817 0.1867895
v 0.9250052 -1.0876790 0.6037310
vn -1.0000000 0.0000000 0.0000000
vt 0.0812081 0.2061426
v 0.9250053 -0.5427527 0.4559653
vn -1.0000000 0.0000000 0.0000000
vt 0.0231491 0.1726222
v 0.9250052 -0.9418805 0.6882452
vn -1.0000000 0.0000000 0.0000000
vt 0.0760226 0.1867895
v 0.9250052 -0.7733578 0.6879533
vn -1.0000000 0.0000000 0.0000000
vt 0.0618553 0.1726222
v 0.9250053 -0.6272668 0.6029329
vn -1.0000000 0.0000000 0.0000000
vt 0.0425023 0.1674365
v 1.0674599 -0.9408160 0.0554346
vn 1.0000000 0.0000000 0.0000000
vt 0.0232495 0.1725624
v 1.0674599 -0.7722409 0.0551424
vn 1.0000000 0.0000000 0.0000000
vt 0.0090891 0.1867227
v 1.0674599 -1.0869530 0.1404815
vn 1.0000000 0.0000000 0.0000000
vt 0.0425928 0.1673792
v 1.0674599 -0.6263968 0.1396831
vn 1.0000000 0.0000000 0.0000000
vt 0.0039060 0.2060662
v 1.0674599 -0.5423620 0.2864042
vn 1.0000000 0.0000000 0.0000000
vt 0.0090891 0.2254094
v 1.0674599 -0.5426545 0.4559916
vn 1.0000000 0.0000000 0.0000000
vt 0.0232495 0.2395699
v 1.0674599 -1.1714931 0.2874946
vn 1.0000000 0.0000000 0.0000000
vt 0.0619362 0.1725622
v 1.0674599 -0.6271951 0.6030048
vn 1.0000000 0.0000000 0.0000000
vt 0.0425928 0.2447529
v 1.0674599 -1.1717860 0.4570821
vn 1.0000000 0.0000000 0.0000000
vt 0.0760966 0.1867227
v 1.0674599 -0.7733319 0.6880515
vn 1.0000000 0.0000000 0.0000000
vt 0.0619362 0.2395699
v 1.0674599 -0.9419071 0.6883437
vn 1.0000000 0.0000000 0.0000000
vt 0.0760966 0.2254094
v 1.0674599 -1.0877510 0.6038031
vn 1.0000000 0.0000000 0.0000000
vt 0.0812798 0.2060659
v 0.9250052 -1.1716880 0.4570557
vn -0.0007120 -0.9666890 0.2559530
vt 0.3874222 0.1412092
v 1.0674599 -1.1717860 0.4570821
vn -0.0007122 -0.9666887 0.2559541
vt 0.3874222 0.1607672
v 0.9250052 -0.5424604 0.2864308
vn -0.0007147 0.9666891 -0.2559527
vt 0.4606214 0.1412092
v 1.0674599 -0.5423620 0.2864042
vn -0.0007152 0.9666886 -0.2559543
vt 0.4606214 0.1607672

g group_2_140627857608432
f 1/1/1 2/2/2 3/3/3 
f 3/3/3 2/2/2 4/4/4 
f 5/5/5 1/1/1 6/6/6 
f 6/6/6 1/1/1 3/3/3 
f 7/7/7 53/53/53 8/8/8 
f 8/8/8 53/53/53 54/54/54 
f 9/9/9 7/7/7 10/10/10 
f 10/10/10 7/7/7 8/8/8 
f 11/11/11 9/9/9 12/12/12 
f 12/12/12 9/9/9 10/10/10 
f 13/13/13 14/14/14 15/15/15 
f 15/15/15 14/14/14 16/16/16 
f 17/17/17 13/13/13 18/18/18 
f 18/18/18 13/13/13 15/15/15 
f 19/19/19 20/20/20 21/21/21 
f 21/21/21 20/20/20 22/22/22 
f 23/23/23 19/19/19 24/24/24 
f 24/24/24 19/19/19 21/21/21 
f 25/25/25 23/23/23 26/26/26 
f 26/26/26 23/23/23 24/24/24 
f 2/2/2 27/27/27 4/4/4 
f 4/4/4 27/27/27 28/28/28 
f 55/55/55 17/17/17 56/56/56 
f 56/56/56 17/17/17 18/18/18 
f 29/29/29 30/30/30 31/31/31 
f 30/30/30 32/32/32 31/31/31 
f 31/31/31 32/32/32 33/33/33 
f 32/32/32 34/34/34 33/33/33 
f 33/33/33 34/34/34 35/35/35 
f 34/34/34 36/36/36 35/35/35 
f 35/35/35 36/36/36 37/37/37 
f 36/36/36 38/38/38 37/37/37 
f 38/38/38 39/39/39 37/37/37 
f 39/39/39 40/40/40 37/37/37 
f 41/41/41 42/42/42 43/43/43 
f 42/42/42 44/44/44 43/43/43 
f 44/44/44 45/45/45 43/43/43 
f 45/45/45 46/46/46 43/43/43 
f 43/43/43 46/46/46 47/47/47 
f 46/46/46 48/48/48 47/47/47 
f 47/47/47 48/48/48 49/49/49 
f 48/48/48 50/50/50 49/49/49 
f 50/50/50 51/51/51 49/49/49 
f 51/51/51 52/52/52 49/49/49 
