v 1.1488360 0.9414357 0.7159122
vn 0.0000000 0.1375583 -0.9904937
vt 0.3816970 2.2878940
v 0.8488357 0.9414357 0.7159122
vn 0.0000000 0.2607791 -0.9653985
vt 0.1211104 2.2878940
v 1.1488360 1.4220480 0.9121843
vn 0.0000000 0.3395225 -0.9405980
vt 0.3817568 1.6337640
v 0.8488357 1.4220480 0.9121843
vn 0.0000000 0.3003304 -0.9538353
vt 0.1211104 1.6337640
v 1.1488360 1.5823630 0.9554739
vn 0.0000000 0.0897809 -0.9959616
vt 0.3817727 1.4343350
v 0.8488357 1.5823630 0.9554739
vn 0.0000000 -0.0893676 -0.9959987
vt 0.1211104 1.4343350
v 1.1488360 1.7429420 0.9121843
vn 0.0000000 -0.4229220 -0.9061661
vt 0.3817889 1.2231660
v 0.8488356 1.7429420 0.9121843
vn 0.0000000 -0.5773773 -0.8164775
vt 0.1211104 1.2231660
v 1.1488360 1.8603970 0.7939142
vn 0.0000000 -0.8190357 -0.5737426
vt 0.3814669 1.0238150
v 0.8488356 1.8603970 0.7939145
vn 0.0000000 -0.9068981 -0.4213502
vt 0.1211104 1.0237240
v 1.1488360 1.9040010 0.6326411
vn 0.0000000 -0.9959375 -0.0900478
vt 0.3814821 0.7978049
v 0.8488356 1.9040010 0.6326411
vn 0.0000000 -0.9960174 0.0891590
vt 0.1211104 0.7978049
v 1.1488360 1.8603970 0.4707948
vn 0.0000000 -0.9071524 0.4208022
vt 0.3814964 0.5745144
v 0.8488357 1.8603970 0.4707948
vn 0.0000000 -0.8192010 0.5735066
vt 0.1211104 0.5745144
v 1.1488360 1.7429420 0.3525247
vn 0.0000000 -0.5999721 0.8000210
vt 0.3811777 0.3601695
v 0.8488357 1.7429420 0.3525249
vn 0.0000000 -0.4749299 0.8800236
vt 0.1211104 0.3601695
v 0.8488356 0.9282719 0.0556128
vn 0.0000000 -0.1157063 0.9932835
vt 0.1211104 -0.6132240
v 1.1488360 0.9282719 0.0556128
vn 0.0000000 -0.2314126 0.9728557
vt 0.3812550 -0.6132240
v 1.1488360 -0.9270744 0.0556128
vn 0.0000000 0.1395502 0.9902150
vt 0.3814698 -2.8453960
v 0.8488356 -0.9270744 0.0556128
vn 0.0000000 0.1395502 0.9902150
vt 0.1211104 -2.8453960
v 0.8488357 -1.6760850 0.2710057
vn 0.0000000 0.5093540 0.8605571
vt 0.1211104 -3.7930307
v 1.1488360 -1.6760850 0.2710057
vn 0.0000000 0.5093542 0.8605570
vt 0.3815230 -3.7930307
v 1.1488349 -1.7724870 0.3680762
vn 0.0000000 0.8197724 0.5726894
vt 0.3815404 -3.9705687
v 0.8488356 -1.7724870 0.3680762
vn 0.0000000 0.9080312 0.4189026
vt 0.1211104 -3.9705687
v 1.1488360 -1.8077730 0.5006773
vn 0.0000000 1.0000000 0.0000000
vt 0.3815577 -4.1499648
v 0.8488356 -1.8077730 0.5006773
vn 0.0000000 1.0000000 0.0000000
vt 0.1211104 -4.1499639
v 0.8488356 -1.8077730 0.5006773
vn 0.0000000 1.0000000 0.0000000
vt 0.1211104 5.8499122
v 0.8488356 -1.7724870 0.6332783
vn 0.0000000 0.8673174 -0.4977554
vt 0.1211104 5.6750131
v 1.1488360 -1.8077730 0.5006773
vn 0.0000000 1.0000000 0.0000000
vt 0.3813759 5.8499122
v 1.1488360 -1.7724870 0.6332783
vn 0.0000000 0.8673173 -0.4977556
vt 0.3813912 5.6750131
v 1.1488360 -1.6760850 0.7303487
vn 0.0000000 0.5777113 -0.8162413
vt 0.3814075 5.5013099
v 0.8488356 -1.6760850 0.7303487
vn 0.0000000 0.4237038 -0.9058009
vt 0.1211104 5.5013099
v 1.1488360 -1.5449550 0.7658790
vn 0.0000000 0.1262511 -0.9919983
vt 0.3814235 5.3161631
v 0.8488356 -1.5449550 0.7658790
vn 0.0000000 -0.0141416 -0.9999000
vt 0.1211104 5.3161631
v 1.1488360 -1.0369500 0.6879825
vn 0.0000000 -0.0966357 -0.9953198
vt 0.3814567 4.7114582
v 0.8488357 -1.0369500 0.6879825
vn 0.0000000 -0.0412382 -0.9991494
vt 0.1211104 4.7114582
v 1.1488360 -0.9411218 -0.0003857
vn 1.0000000 0.0000000 0.0000000
vt 0.4693041 -2.8453960
v 1.1488360 0.9411217 -0.0003858
vn 1.0000000 0.0000000 0.0000000
vt 0.4693041 -0.6132240
v 1.1488360 -0.9270744 0.0556128
vn 1.0000000 0.0000000 0.0000000
vt 0.3814698 -2.8453960
v 1.1488360 0.9282719 0.0556128
vn 1.0000000 0.0000000 0.0000000
vt 0.3812550 -0.6132240
v 1.1488360 1.7730750 0.3043092
vn 1.0000000 0.0000000 0.0000000
vt 0.4693041 0.3601695
v 1.1488360 1.7429420 0.3525247
vn 1.0000000 0.0000000 0.0000000
vt 0.3811777 0.3601695
v 1.1488360 1.8603970 0.4707948
vn 1.0000000 0.0000000 0.0000000
vt 0.3814964 0.5745144
v 1.1488360 1.9091460 0.4416045
vn 1.0000000 0.0000000 0.0000000
vt 0.4693041 0.5745144
v 1.1488360 1.9040010 0.6326411
vn 1.0000000 0.0000000 0.0000000
vt 0.3814821 0.7978049
v 1.1488360 1.9601960 0.6326445
vn 1.0000000 0.0000000 0.0000000
vt 0.4693041 0.7978049
v 1.1488360 1.8603970 0.7939142
vn 1.0000000 0.0000000 0.0000000
vt 0.3814669 1.0238150
v 1.1488360 1.9100130 0.8207759
vn 1.0000000 0.0000000 0.0000000
vt 0.4693041 1.0225919
v 1.1488360 1.7735070 0.9600348
vn 1.0000000 0.0000000 0.0000000
vt 0.4693041 1.2231660
v 1.1488360 1.7429420 0.9121843
vn 1.0000000 0.0000000 0.0000000
vt 0.3817889 1.2231660
v 1.1488360 1.5823630 0.9554739
vn 1.0000000 0.0000000 0.0000000
vt 0.3817727 1.4343350
v 1.1488360 1.5827940 1.0121180
vn 1.0000000 0.0000000 0.0000000
vt 0.4693041 1.4343350
v 1.1488360 1.4047750 0.9661148
vn 1.0000000 0.0000000 0.0000000
vt 0.4693041 1.6337640
v 1.1488360 1.4220480 0.9121843
vn 1.0000000 0.0000000 0.0000000
vt 0.3817568 1.6337640
v 1.1488360 0.9300391 0.7712552
vn 1.0000000 0.0000000 0.0000000
vt 0.4693041 2.2878940
v 1.1488360 0.9414357 0.7159122
vn 1.0000000 0.0000000 0.0000000
vt 0.3816970 2.2878940
v 1.1488360 -1.0294760 0.7445127
vn 1.0000000 0.0000000 0.0000000
vt 0.4693041 4.7114582
v 1.1488360 -1.0369500 0.6879825
vn 1.0000000 0.0000000 0.0000000
vt 0.3814567 4.7114582
v 1.1488360 -1.5449550 0.7658790
vn 1.0000000 0.0000000 0.0000000
vt 0.3814235 5.3161631
v 1.1488360 -1.5449550 0.8219100
vn 1.0000000 0.0000000 0.0000000
vt 0.4693041 5.3161631
v 1.1488360 -1.7017970 0.7804709
vn 1.0000000 0.0000000 0.0000000
vt 0.4693041 5.5013099
v 1.1488360 -1.6760850 0.7303487
vn 1.0000000 0.0000000 0.0000000
vt 0.3814075 5.5013099
v 1.1488360 -1.8197910 0.6639914
vn 1.0000000 0.0000000 0.0000000
vt 0.4693041 5.6750131
v 1.1488360 -1.7724870 0.6332783
vn 1.0000000 0.0000000 0.0000000
vt 0.3813912 5.6750131
v 1.1488360 -1.8642091 0.5006732
vn 1.0000000 0.0000000 0.0000000
vt 0.4693041 5.8499260
v 1.1488360 -1.8077730 0.5006773
vn 1.0000000 0.0000000 0.0000000
vt 0.3813759 5.8499122
v 1.1488360 -1.8077730 0.5006773
vn 1.0000000 0.0000000 0.0000000
vt 0.3815577 -4.1499648
v 1.1488360 -1.8642091 0.5006732
vn 1.0000000 0.0000000 0.0000000
vt 0.4693041 -4.1499510
v 1.1488349 -1.7724870 0.3680762
vn 1.0000000 0.0000000 0.0000000
vt 0.3815404 -3.9705687
v 1.1488349 -1.8208120 0.3388420
vn 1.0000000 0.0000000 0.0000000
vt 0.4693041 -3.9705687
v 1.1488360 -1.6760850 0.2710057
vn 1.0000000 0.0000000 0.0000000
vt 0.3815230 -3.7930307
v 1.1488360 -1.7040290 0.2217488
vn 1.0000000 0.0000000 0.0000000
vt 0.4693041 -3.7930307
v 1.1488360 0.9300391 0.7712552
vn 0.0000000 -0.2002062 0.9797538
vt 0.4693041 2.2878940
v 1.1488360 1.4047750 0.9661148
vn 0.0000000 -0.3372421 0.9414180
vt 0.4693041 1.6337640
v 0.8488357 0.9300391 0.7712552
vn 0.0000000 -0.2002062 0.9797538
vt 0.8098013 2.2878940
v 0.8488357 1.4047750 0.9661148
vn 0.0000000 -0.2939788 0.9558120
vt 0.8098015 1.6337640
v 1.1488360 1.5827940 1.0121180
vn 0.0000000 -0.0814037 0.9966813
vt 0.4693041 1.4343350
v 0.8488357 1.5827940 1.0121180
vn 0.0000000 0.0950625 0.9954713
vt 0.8098015 1.4343350
v 1.1488360 1.7735070 0.9600348
vn 0.0000000 0.4268337 0.9043302
vt 0.4693041 1.2231660
v 0.8488356 1.7735070 0.9600348
vn 0.0000000 0.5818389 0.8133041
vt 0.8098015 1.2231660
v 1.1488360 1.9100130 0.8207759
vn 0.0000000 0.8221853 0.5692200
vt 0.4693041 1.0225919
v 0.8488356 1.9100130 0.8207759
vn 0.0000000 0.9087429 0.4173564
vt 0.8098013 1.0228360
v 1.1488360 1.9601960 0.6326445
vn 0.0000000 0.9960831 0.0884225
vt 0.4693041 0.7978049
v 0.8488356 1.9601960 0.6326448
vn 0.0000000 0.9960437 -0.0888650
vt 0.8098015 0.7978049
v 1.1488360 1.9091460 0.4416045
vn 0.0000000 0.9078736 -0.4192439
vt 0.4693041 0.5745144
v 0.8488356 1.9091460 0.4416046
vn 0.0000000 0.8199772 -0.5723963
vt 0.8098015 0.5745144
v 1.1488360 1.7730750 0.3043092
vn 0.0000000 0.6009338 -0.7992988
vt 0.4693041 0.3601695
v 0.8488357 1.7730750 0.3043092
vn 0.0000000 0.4761568 -0.8793604
vt 0.8098015 0.3601695
v 1.1488360 0.9411217 -0.0003858
vn 0.0000000 0.2324401 -0.9726107
vt 0.4693041 -0.6132240
v 0.8488356 0.9411217 -0.0003858
vn 0.0000000 0.1162200 -0.9932235
vt 0.8098013 -0.6132240
v 1.1488360 -0.9411218 -0.0003857
vn 0.0000000 -0.1411941 -0.9899819
vt 0.4693041 -2.8453960
v 0.8488357 -0.9411218 -0.0003857
vn 0.0000000 -0.1411941 -0.9899819
vt 0.8098015 -2.8453960
v 1.1488360 -1.7040290 0.2217488
vn 0.0000000 -0.5098655 -0.8602541
vt 0.4693041 -3.7930307
v 0.8488357 -1.7040290 0.2217488
vn 0.0000000 -0.5098655 -0.8602541
vt 0.8098015 -3.7930307
v 1.1488349 -1.8208120 0.3388420
vn 0.0000000 -0.8185890 -0.5743797
vt 0.4693041 -3.9705687
v 0.8488356 -1.8208120 0.3388420
vn 0.0000000 -0.9071963 -0.4207076
vt 0.8098015 -3.9705687
v 1.1488360 -1.8642091 0.5006732
vn 0.0000000 -0.9999985 0.0017760
vt 0.4693041 -4.1499510
v 0.8488356 -1.8642091 0.5006732
vn 0.0000000 -0.9999985 0.0017751
vt 0.8098015 -4.1498551
v 1.1488360 -1.8197910 0.6639914
vn 0.0000000 -0.8634611 0.5044156
vt 0.4693041 5.6750131
v 0.8488356 -1.8197910 0.6639914
vn 0.0000000 -0.8634613 0.5044152
vt 0.8098015 5.6750131
v 1.1488360 -1.8642091 0.5006732
vn 0.0000000 -0.9999985 0.0017760
vt 0.4693041 5.8499260
v 0.8488356 -1.8642091 0.5006732
vn 0.0000000 -0.9999985 0.0017751
vt 0.8098015 5.8500209
v 1.1488360 -1.7017970 0.7804709
vn 0.0000000 -0.5705500 0.8212629
vt 0.4693041 5.5013099
v 0.8488356 -1.7017970 0.7804709
vn 0.0000000 -0.4169319 0.9089378
vt 0.8098015 5.5013099
v 1.1488360 -1.5449550 0.8219100
vn 0.0000000 -0.1230600 0.9923993
vt 0.4693041 5.3161631
v 0.8488356 -1.5449550 0.8219100
vn 0.0000000 0.0140988 0.9999006
vt 0.8098015 5.3161631
v 1.1488360 -1.0294760 0.7445127
vn 0.0000000 0.0676417 0.9977097
vt 0.4693041 4.7114582
v 0.8488357 -1.0294760 0.7445127
vn 0.0000000 0.0676417 0.9977097
vt 0.8098015 4.7114582
v 0.8488357 1.5823630 0.9554739
vn -1.0000000 0.0000000 0.0000000
vt 0.1211104 1.4343350
v 0.8488357 1.5827940 1.0121180
vn -1.0000000 0.0000000 0.0000000
vt 0.0275672 1.4343350
v 0.8488356 1.7429420 0.9121843
vn -1.0000000 0.0000000 0.0000000
vt 0.1211104 1.2231660
v 0.8488356 1.7735070 0.9600348
vn -1.0000000 0.0000000 0.0000000
vt 0.0275672 1.2231660
v 0.8488357 1.4047750 0.9661148
vn -1.0000000 0.0000000 0.0000000
vt 0.0275672 1.6337640
v 0.8488357 1.4220480 0.9121843
vn -1.0000000 0.0000000 0.0000000
vt 0.1211104 1.6337640
v 0.8488357 0.9300391 0.7712552
vn -1.0000000 0.0000000 0.0000000
vt 0.0275672 2.2878940
v 0.8488357 0.9414357 0.7159122
vn -1.0000000 0.0000000 0.0000000
vt 0.1211104 2.2878940
v 0.8488356 1.9100130 0.8207759
vn -1.0000000 0.0000000 0.0000000
vt 0.0275672 1.0223800
v 0.8488356 1.8603970 0.7939145
vn -1.0000000 0.0000000 0.0000000
vt 0.1211104 1.0237240
v 0.8488356 1.9040010 0.6326411
vn -1.0000000 0.0000000 0.0000000
vt 0.1211104 0.7978049
v 0.8488356 1.9601960 0.6326448
vn -1.0000000 0.0000000 0.0000000
vt 0.0275672 0.7978049
v 0.8488357 1.8603970 0.4707948
vn -1.0000000 0.0000000 0.0000000
vt 0.1211104 0.5745144
v 0.8488356 1.9091460 0.4416046
vn -1.0000000 0.0000000 0.0000000
vt 0.0275672 0.5745144
v 0.8488357 1.7730750 0.3043092
vn -1.0000000 0.0000000 0.0000000
vt 0.0275672 0.3601695
v 0.8488357 1.7429420 0.3525249
vn -1.0000000 0.0000000 0.0000000
vt 0.1211104 0.3601695
v 0.8488356 0.9411217 -0.0003858
vn -1.0000000 0.0000000 0.0000000
vt 0.0275672 -0.6132240
v 0.8488356 0.9282719 0.0556128
vn -1.0000000 0.0000000 0.0000000
vt 0.1211104 -0.6132240
v 0.8488356 -0.9270744 0.0556128
vn -1.0000000 0.0000000 0.0000000
vt 0.1211104 -2.8453960
v 0.8488357 -0.9411218 -0.0003857
vn -1.0000000 0.0000000 0.0000000
vt 0.0275672 -2.8453960
v 0.8488357 -1.7040290 0.2217488
vn -1.0000000 0.0000000 0.0000000
vt 0.0275672 -3.7930307
v 0.8488357 -1.6760850 0.2710057
vn -1.0000000 0.0000000 0.0000000
vt 0.1211104 -3.7930307
v 0.8488356 -1.7724870 0.3680762
vn -1.0000000 0.0000000 0.0000000
vt 0.1211104 -3.9705687
v 0.8488356 -1.8208120 0.3388420
vn -1.0000000 0.0000000 0.0000000
vt 0.0275672 -3.9705687
v 0.8488356 -1.8077730 0.5006773
vn -1.0000000 0.0000000 0.0000000
vt 0.1211104 -4.1499639
v 0.8488356 -1.8642091 0.5006732
vn -1.0000000 0.0000000 0.0000000
vt 0.0275672 -4.1499758
v 0.8488356 -1.8197910 0.6639914
vn -1.0000000 0.0000000 0.0000000
vt 0.0275672 5.6750131
v 0.8488356 -1.7724870 0.6332783
vn -1.0000000 0.0000000 0.0000000
vt 0.1211104 5.6750131
v 0.8488356 -1.8642091 0.5006732
vn -1.0000000 0.0000000 0.0000000
vt 0.0275672 5.8498969
v 0.8488356 -1.8077730 0.5006773
vn -1.0000000 0.0000000 0.0000000
vt 0.1211104 5.8499122
v 0.8488356 -1.6760850 0.7303487
vn -1.0000000 0.0000000 0.0000000
vt 0.1211104 5.5013099
v 0.8488356 -1.7017970 0.7804709
vn -1.0000000 0.0000000 0.0000000
vt 0.0275672 5.5013099
v 0.8488356 -1.5449550 0.7658790
vn -1.0000000 0.0000000 0.0000000
vt 0.1211104 5.3161631
v 0.8488356 -1.5449550 0.8219100
vn -1.0000000 0.0000000 0.0000000
vt 0.0275672 5.3161631
v 0.8488357 -1.0294760 0.7445127
vn -1.0000000 0.0000000 0.0000000
vt 0.0275672 4.7114582
v 0.8488357 -1.0369500 0.6879825
vn -1.0000000 0.0000000 0.0000000
vt 0.1211104 4.7114582
v 1.0010020 0.9559500 0.6285109
vn 0.9747096 0.0301803 -0.2214279
vt 0.9930431 2.2878940
v 1.0010020 1.4529890 0.8282724
vn 0.9751519 0.0762659 -0.2079961
vt 0.9930431 1.6337640
v 1.0210960 0.9414357 0.7159120
vn 0.9755380 0.0568621 -0.2123498
vt 0.8955604 2.2878940
v 1.0210960 1.4220480 0.9121843
vn 0.9751476 0.0678263 -0.2109190
vt 0.8955604 1.6328450
v 1.0010020 1.5823630 0.8659787
vn 0.9765037 0.0001393 -0.2155008
vt 0.9930431 1.4343350
v 1.0210960 1.5823630 0.9554741
vn 0.9757076 0.0000000 -0.2190769
vt 0.8955594 1.4255220
v 1.0010020 1.6980180 0.8327032
vn 0.9764249 -0.1258883 -0.1753471
vt 0.9930431 1.2231660
v 1.0210960 1.7429420 0.9121841
vn 0.9761504 -0.0928475 -0.1962392
vt 0.8955604 1.2316329
v 1.0010020 1.7811990 0.7485551
vn 0.9766082 -0.1858682 -0.1081182
vt 0.9930431 1.0228360
v 1.0210960 1.8603970 0.7939145
vn 0.9764296 -0.1868315 -0.1080706
vt 0.8955604 1.0218320
v 1.0010020 1.8136890 0.6326411
vn 0.9762178 -0.2167915 -0.0005467
vt 0.9930421 0.7978049
v 1.0210960 1.9040010 0.6326411
vn 0.9761296 -0.2171890 -0.0001036
vt 0.8955604 0.8009154
v 1.0010020 1.7827060 0.5153003
vn 0.9757285 -0.1897042 0.1093907
vt 0.9930438 0.5745144
v 1.0210960 1.8603970 0.4707948
vn 0.9759007 -0.1890625 0.1089644
vt 0.8955621 0.5724764
v 1.0010020 1.6982520 0.4312196
vn 0.9751296 -0.1193604 0.1867495
vt 0.9930404 0.3601695
v 1.0210960 1.7429420 0.3525249
vn 0.9761544 -0.1174470 0.1825613
vt 0.8955576 0.3601695
v 1.0010020 0.9065897 0.1359749
vn 0.9714842 -0.0274700 0.2355078
vt 0.9930317 -0.6132240
v 1.0210960 0.9282719 0.0556127
vn 0.9733004 -0.0525638 0.2234355
vt 0.8955490 -0.6132240
v 1.0010020 -0.9066228 0.1359749
vn 0.9715487 0.0330667 0.2345204
vt 0.9930084 -2.8453960
v 1.0210960 -0.9270743 0.0556128
vn 0.9720463 0.0322418 0.2325653
vt 0.8955247 -2.8453960
v 1.0210960 -1.6760850 0.2710056
vn 0.9752399 0.1128390 0.1901960
vt 0.8955190 -3.7907529
v 1.0010020 -1.6321729 0.3479889
vn 0.9744729 0.1138225 0.1935122
vt 0.9930018 -3.7930307
v 1.0210960 -1.7724870 0.3680760
vn 0.9743428 0.1839999 0.1296157
vt 0.8955168 -3.9697580
v 1.0010020 -1.6974570 0.4118298
vn 0.9737050 0.2060652 0.0971375
vt 0.9930004 -3.9705687
v 1.0210960 -1.8077730 0.5006772
vn 0.9734236 0.2290090 0.0011721
vt 0.8955159 -4.1499791
v 1.0010020 -1.7223740 0.5006773
vn 0.9734105 0.2290455 0.0031713
vt 0.9929976 -4.1499791
v 1.0210960 -1.7724870 0.6332782
vn 0.9734302 0.1872240 -0.1318361
vt 0.8955594 5.6715450
v 1.0210960 -1.8077730 0.5006772
vn 0.9734236 0.2290090 0.0011721
vt 0.8955604 5.8500209
v 1.0010020 -1.7001300 0.5887183
vn 0.9731613 0.2088095 -0.0967254
vt 0.9930431 5.6750131
v 1.0010020 -1.7223740 0.5006773
vn 0.9734105 0.2290455 0.0031713
vt 0.9930421 5.8500209
v 1.0010020 -1.6327140 0.6540498
vn 0.9738715 0.1359008 -0.1819485
vt 0.9930431 5.5013099
v 1.0210960 -1.6760850 0.7303487
vn 0.9729299 0.1030182 -0.2068688
vt 0.8955594 5.4974160
v 1.0010020 -1.5449539 0.6864170
vn 0.9726061 0.0173041 -0.2318144
vt 0.9930431 5.3161631
v 1.0210960 -1.5449550 0.7658788
vn 0.9693811 0.0143767 -0.2451400
vt 0.8955604 5.3233819
v 1.0010020 -1.0502830 0.6028915
vn 0.9736903 -0.0174490 -0.2272063
vt 0.9930431 4.7114582
v 1.0210960 -1.0369500 0.6879825
vn 0.9728526 -0.0173294 -0.2307759
vt 0.8955604 4.7114582

g group_31_140627858535936
f 1/1/1 2/2/2 3/3/3 
f 3/3/3 2/2/2 4/4/4 
f 3/3/3 4/4/4 5/5/5 
f 5/5/5 4/4/4 6/6/6 
f 5/5/5 6/6/6 7/7/7 
f 7/7/7 6/6/6 8/8/8 
f 7/7/7 8/8/8 9/9/9 
f 9/9/9 8/8/8 10/10/10 
f 9/9/9 10/10/10 11/11/11 
f 11/11/11 10/10/10 12/12/12 
f 11/11/11 12/12/12 13/13/13 
f 13/13/13 12/12/12 14/14/14 
f 13/13/13 14/14/14 15/15/15 
f 15/15/15 14/14/14 16/16/16 
f 17/17/17 18/18/18 16/16/16 
f 16/16/16 18/18/18 15/15/15 
f 18/18/18 17/17/17 19/19/19 
f 19/19/19 17/17/17 20/20/20 
f 20/20/20 21/21/21 19/19/19 
f 19/19/19 21/21/21 22/22/22 
f 22/22/22 21/21/21 23/23/23 
f 23/23/23 21/21/21 24/24/24 
f 23/23/23 24/24/24 25/25/25 
f 25/25/25 24/24/24 26/26/26 
f 27/27/27 28/28/28 29/29/29 
f 29/29/29 28/28/28 30/30/30 
f 30/30/30 28/28/28 31/31/31 
f 31/31/31 28/28/28 32/32/32 
f 31/31/31 32/32/32 33/33/33 
f 33/33/33 32/32/32 34/34/34 
f 33/33/33 34/34/34 35/35/35 
f 35/35/35 34/34/34 36/36/36 
f 35/35/35 36/36/36 1/1/1 
f 1/1/1 36/36/36 2/2/2 
f 37/37/37 38/38/38 39/39/39 
f 39/39/39 38/38/38 40/40/40 
f 41/41/41 42/42/42 38/38/38 
f 38/38/38 42/42/42 40/40/40 
f 42/42/42 41/41/41 43/43/43 
f 43/43/43 41/41/41 44/44/44 
f 45/45/45 43/43/43 46/46/46 
f 46/46/46 43/43/43 44/44/44 
f 47/47/47 45/45/45 48/48/48 
f 48/48/48 45/45/45 46/46/46 
f 48/48/48 49/49/49 47/47/47 
f 47/47/47 49/49/49 50/50/50 
f 51/51/51 50/50/50 52/52/52 
f 52/52/52 50/50/50 49/49/49 
f 52/52/52 53/53/53 51/51/51 
f 51/51/51 53/53/53 54/54/54 
f 53/53/53 55/55/55 54/54/54 
f 54/54/54 55/55/55 56/56/56 
f 57/57/57 58/58/58 55/55/55 
f 55/55/55 58/58/58 56/56/56 
f 58/58/58 57/57/57 59/59/59 
f 59/59/59 57/57/57 60/60/60 
f 60/60/60 61/61/61 59/59/59 
f 59/59/59 61/61/61 62/62/62 
f 61/61/61 63/63/63 62/62/62 
f 62/62/62 63/63/63 64/64/64 
f 63/63/63 65/65/65 64/64/64 
f 64/64/64 65/65/65 66/66/66 
f 67/67/67 68/68/68 69/69/69 
f 69/69/69 68/68/68 70/70/70 
f 69/69/69 70/70/70 71/71/71 
f 71/71/71 70/70/70 72/72/72 
f 72/72/72 37/37/37 71/71/71 
f 71/71/71 37/37/37 39/39/39 
f 73/73/73 74/74/74 75/75/75 
f 75/75/75 74/74/74 76/76/76 
f 74/74/74 77/77/77 76/76/76 
f 76/76/76 77/77/77 78/78/78 
f 77/77/77 79/79/79 78/78/78 
f 78/78/78 79/79/79 80/80/80 
f 79/79/79 81/81/81 80/80/80 
f 80/80/80 81/81/81 82/82/82 
f 81/81/81 83/83/83 82/82/82 
f 82/82/82 83/83/83 84/84/84 
f 83/83/83 85/85/85 84/84/84 
f 84/84/84 85/85/85 86/86/86 
f 85/85/85 87/87/87 86/86/86 
f 86/86/86 87/87/87 88/88/88 
f 87/87/87 89/89/89 88/88/88 
f 88/88/88 89/89/89 90/90/90 
f 89/89/89 91/91/91 90/90/90 
f 90/90/90 91/91/91 92/92/92 
f 93/93/93 94/94/94 91/91/91 
f 91/91/91 94/94/94 92/92/92 
f 93/93/93 95/95/95 94/94/94 
f 94/94/94 95/95/95 96/96/96 
f 95/95/95 97/97/97 96/96/96 
f 96/96/96 97/97/97 98/98/98 
f 99/99/99 100/100/100 101/101/101 
f 101/101/101 100/100/100 102/102/102 
f 99/99/99 103/103/103 100/100/100 
f 100/100/100 103/103/103 104/104/104 
f 103/103/103 105/105/105 104/104/104 
f 104/104/104 105/105/105 106/106/106 
f 105/105/105 107/107/107 106/106/106 
f 106/106/106 107/107/107 108/108/108 
f 108/108/108 107/107/107 75/75/75 
f 75/75/75 107/107/107 73/73/73 
f 109/109/109 110/110/110 111/111/111 
f 111/111/111 110/110/110 112/112/112 
f 110/110/110 109/109/109 113/113/113 
f 113/113/113 109/109/109 114/114/114 
f 113/113/113 114/114/114 115/115/115 
f 115/115/115 114/114/114 116/116/116 
f 117/117/117 118/118/118 112/112/112 
f 112/112/112 118/118/118 111/111/111 
f 118/118/118 117/117/117 119/119/119 
f 119/119/119 117/117/117 120/120/120 
f 119/119/119 120/120/120 121/121/121 
f 121/121/121 120/120/120 122/122/122 
f 122/122/122 123/123/123 121/121/121 
f 121/121/121 123/123/123 124/124/124 
f 123/123/123 125/125/125 124/124/124 
f 124/124/124 125/125/125 126/126/126 
f 126/126/126 125/125/125 127/127/127 
f 127/127/127 125/125/125 128/128/128 
f 129/129/129 130/130/130 128/128/128 
f 128/128/128 130/130/130 127/127/127 
f 131/131/131 130/130/130 132/132/132 
f 132/132/132 130/130/130 129/129/129 
f 133/133/133 131/131/131 134/134/134 
f 134/134/134 131/131/131 132/132/132 
f 135/135/135 136/136/136 137/137/137 
f 137/137/137 136/136/136 138/138/138 
f 136/136/136 135/135/135 139/139/139 
f 139/139/139 135/135/135 140/140/140 
f 139/139/139 140/140/140 141/141/141 
f 141/141/141 140/140/140 142/142/142 
f 142/142/142 143/143/143 141/141/141 
f 141/141/141 143/143/143 144/144/144 
f 143/143/143 115/115/115 144/144/144 
f 144/144/144 115/115/115 116/116/116 
f 145/145/145 146/146/146 147/147/147 
f 147/147/147 146/146/146 148/148/148 
f 146/146/146 149/149/149 148/148/148 
f 148/148/148 149/149/149 150/150/150 
f 151/151/151 152/152/152 149/149/149 
f 149/149/149 152/152/152 150/150/150 
f 153/153/153 154/154/154 151/151/151 
f 151/151/151 154/154/154 152/152/152 
f 153/153/153 155/155/155 154/154/154 
f 154/154/154 155/155/155 156/156/156 
f 157/157/157 158/158/158 155/155/155 
f 155/155/155 158/158/158 156/156/156 
f 157/157/157 159/159/159 158/158/158 
f 158/158/158 159/159/159 160/160/160 
f 161/161/161 162/162/162 159/159/159 
f 159/159/159 162/162/162 160/160/160 
f 163/163/163 164/164/164 161/161/161 
f 161/161/161 164/164/164 162/162/162 
f 165/165/165 164/164/164 166/166/166 
f 166/166/166 164/164/164 163/163/163 
f 165/165/165 166/166/166 167/167/167 
f 167/167/167 166/166/166 168/168/168 
f 167/167/167 168/168/168 169/169/169 
f 169/169/169 168/168/168 170/170/170 
f 171/171/171 172/172/172 173/173/173 
f 173/173/173 172/172/172 174/174/174 
f 173/173/173 175/175/175 171/171/171 
f 171/171/171 175/175/175 176/176/176 
f 175/175/175 177/177/177 176/176/176 
f 176/176/176 177/177/177 178/178/178 
f 179/179/179 180/180/180 177/177/177 
f 177/177/177 180/180/180 178/178/178 
f 147/147/147 180/180/180 145/145/145 
f 145/145/145 180/180/180 179/179/179 
