v -1.3131826 -1.3477118 0.9706771
vn 0.0000000 0.9236590 0.3832155
vt 0.7880121 0.7564797
v -1.1047673 -1.3477118 0.9706771
vn 0.0000000 0.9236590 0.3832155
vt 0.7880120 0.7748872
v -1.3131826 -1.3476315 0.8661876
vn 0.0000000 0.9240991 -0.3821528
vt 0.7982604 0.7564798
v -1.1047673 -1.3476315 0.8661876
vn -0.0000002 0.9240993 -0.3821525
vt 0.7982603 0.7748873
v -1.3131826 -1.4216534 1.0445620
vn 0.0000000 0.3825076 0.9239524
vt 0.7778026 0.7564797
v -1.1047673 -1.4216534 1.0445620
vn 0.0000000 0.3825065 0.9239528
vt 0.7778025 0.7748872
v -1.3131816 -1.5261421 1.0445620
vn 0.0000000 -0.3828586 0.9238070
vt 0.7880121 0.7564797
v -1.1047673 -1.5261421 1.0445620
vn 0.0000000 -0.3828598 0.9238065
vt 0.7880120 0.7748872
v -1.3131826 -1.4216534 1.0445620
vn 0.0000000 0.3825076 0.9239524
vt 0.7982604 0.7564798
v -1.1047673 -1.4216534 1.0445620
vn 0.0000000 0.3825065 0.9239528
vt 0.7982603 0.7748873
v -1.3131816 -1.5999707 0.9706771
vn 0.0000000 -0.9240991 0.3821529
vt 0.7778026 0.7564797
v -1.1047673 -1.5999707 0.9706771
vn 0.0000000 -0.9240991 0.3821529
vt 0.7778025 0.7748872
v -1.3131816 -1.5998906 0.8661876
vn 0.0000000 -0.9236598 -0.3832136
vt 0.7880121 0.7564797
v -1.1047673 -1.5998906 0.8661876
vn 0.0000000 -0.9236598 -0.3832136
vt 0.7880120 0.7748872
v -1.3131816 -1.5999707 0.9706771
vn 0.0000000 -0.9240991 0.3821529
vt 0.7982604 0.7564798
v -1.1047673 -1.5999707 0.9706771
vn 0.0000000 -0.9240991 0.3821529
vt 0.7982603 0.7748873
v -1.3131816 -1.5259494 0.7923027
vn 0.0000000 -0.3825063 -0.9239529
vt 0.7778026 0.7564797
v -1.1047673 -1.5259494 0.7923027
vn 0.0000000 -0.3825074 -0.9239525
vt 0.7778025 0.7748872
v -1.3131826 -1.4214603 0.7923027
vn -0.0000001 0.3828599 -0.9238064
vt 0.7880121 0.7564797
v -1.1047673 -1.4214602 0.7923027
vn -0.0000002 0.3828593 -0.9238067
vt 0.7880120 0.7748872
v -1.3131816 -1.5259494 0.7923027
vn 0.0000000 -0.3825063 -0.9239529
vt 0.7982604 0.7564798
v -1.1047673 -1.5259494 0.7923027
vn 0.0000000 -0.3825074 -0.9239525
vt 0.7982603 0.7748873
v -1.3131826 -1.3476315 0.8661876
vn 0.0000000 0.9240991 -0.3821528
vt 0.7778026 0.7564797
v -1.1047673 -1.3476315 0.8661876
vn -0.0000002 0.9240993 -0.3821525
vt 0.7778025 0.7748872
v -1.3131826 -1.3477118 0.9706771
vn -1.0000000 0.0000000 0.0000000
vt 0.8552750 0.8271634
v -1.3131826 -1.3476315 0.8661876
vn -1.0000000 -0.0000047 0.0000007
vt 0.8552750 0.8363922
v -1.3131826 -1.4216534 1.0445620
vn -1.0000000 -0.0000076 -0.0000032
vt 0.8618005 0.8206331
v -1.3131816 -1.5261421 1.0445620
vn -1.0000000 -0.0000048 0.0000005
vt 0.8710287 0.8206258
v -1.3131816 -1.5999707 0.9706771
vn -1.0000000 -0.0000032 0.0000013
vt 0.8775545 0.8271461
v -1.3131816 -1.5998906 0.8661876
vn -1.0000000 -0.0000038 -0.0000013
vt 0.8775545 0.8363751
v -1.3131816 -1.5259494 0.7923027
vn -1.0000000 -0.0000047 -0.0000016
vt 0.8710290 0.8429053
v -1.3131826 -1.4214603 0.7923027
vn -1.0000000 -0.0000091 0.0000091
vt 0.8618005 0.8429124

g group_66217960_105553122444032
f 1/1/1 2/2/2 3/3/3 
f 2/2/2 4/4/4 3/3/3 
f 5/5/5 6/6/6 1/1/1 
f 6/6/6 2/2/2 1/1/1 
f 7/7/7 8/8/8 9/9/9 
f 8/8/8 10/10/10 9/9/9 
f 11/11/11 12/12/12 7/7/7 
f 12/12/12 8/8/8 7/7/7 
f 13/13/13 14/14/14 15/15/15 
f 14/14/14 16/16/16 15/15/15 
f 17/17/17 18/18/18 13/13/13 
f 18/18/18 14/14/14 13/13/13 
f 19/19/19 20/20/20 21/21/21 
f 20/20/20 22/22/22 21/21/21 
f 23/23/23 24/24/24 19/19/19 
f 24/24/24 20/20/20 19/19/19 
f 25/25/25 26/26/26 27/27/27 
f 27/27/27 26/26/26 28/28/28 
f 28/28/28 26/26/26 29/29/29 
f 29/29/29 26/26/26 30/30/30 
f 30/30/30 26/26/26 31/31/31 
f 31/31/31 26/26/26 32/32/32 
