v 1.3131826 1.5741663 1.0290027
vn 0.0000000 0.9236591 0.3832151
vt 0.7880121 0.7564797
v 1.3131826 1.5742466 0.9245132
vn 0.0000000 0.9240991 -0.3821528
vt 0.7982604 0.7564798
v 1.1047673 1.5741663 1.0290027
vn 0.0000000 0.9236591 0.3832152
vt 0.7880120 0.7748872
v 1.1047673 1.5742466 0.9245132
vn 0.0000003 0.9240994 -0.3821522
vt 0.7982603 0.7748873
v 1.3131826 1.5002247 1.1028877
vn 0.0000000 0.3825080 0.9239522
vt 0.7778026 0.7564797
v 1.1047673 1.5002247 1.1028877
vn 0.0000000 0.3825069 0.9239527
vt 0.7778025 0.7748872
v 1.3131816 1.3957360 1.1028877
vn 0.0000000 -0.3828598 0.9238065
vt 0.7880121 0.7564797
v 1.3131826 1.5002247 1.1028877
vn 0.0000000 0.3825080 0.9239522
vt 0.7982604 0.7564798
v 1.1047673 1.3957360 1.1028877
vn 0.0000000 -0.3828609 0.9238060
vt 0.7880120 0.7748872
v 1.1047673 1.5002247 1.1028877
vn 0.0000000 0.3825069 0.9239527
vt 0.7982603 0.7748873
v 1.3131816 1.3219075 1.0290025
vn 0.0000000 -0.9240996 0.3821518
vt 0.7778026 0.7564797
v 1.1047673 1.3219075 1.0290025
vn 0.0000000 -0.9240996 0.3821518
vt 0.7778025 0.7748872
v 1.3131816 1.3219876 0.9245132
vn 0.0000000 -0.9236598 -0.3832136
vt 0.7880121 0.7564797
v 1.3131816 1.3219075 1.0290025
vn 0.0000000 -0.9240996 0.3821518
vt 0.7982604 0.7564798
v 1.1047673 1.3219876 0.9245132
vn 0.0000000 -0.9236598 -0.3832136
vt 0.7880120 0.7748872
v 1.1047673 1.3219075 1.0290025
vn 0.0000000 -0.9240996 0.3821518
vt 0.7982603 0.7748873
v 1.3131816 1.3959289 0.8506283
vn 0.0000000 -0.3825063 -0.9239529
vt 0.7778026 0.7564797
v 1.1047673 1.3959289 0.8506283
vn 0.0000000 -0.3825074 -0.9239525
vt 0.7778025 0.7748872
v 1.3131826 1.5004178 0.8506283
vn 0.0000001 0.3828599 -0.9238064
vt 0.7880121 0.7564797
v 1.3131816 1.3959289 0.8506283
vn 0.0000000 -0.3825063 -0.9239529
vt 0.7982604 0.7564798
v 1.1047673 1.5004181 0.8506283
vn 0.0000004 0.3828598 -0.9238065
vt 0.7880120 0.7748872
v 1.1047673 1.3959289 0.8506283
vn 0.0000000 -0.3825074 -0.9239525
vt 0.7982603 0.7748873
v 1.3131826 1.5742466 0.9245132
vn 0.0000000 0.9240991 -0.3821528
vt 0.7778026 0.7564797
v 1.1047673 1.5742466 0.9245132
vn 0.0000003 0.9240994 -0.3821522
vt 0.7778025 0.7748872
v 1.3131826 1.5741663 1.0290027
vn 1.0000000 0.0000000 0.0000000
vt 0.8552750 0.8271634
v 1.3131826 1.5002247 1.1028877
vn 1.0000000 -0.0000076 -0.0000032
vt 0.8618005 0.8206331
v 1.3131826 1.5742466 0.9245132
vn 1.0000000 -0.0000047 0.0000007
vt 0.8552750 0.8363922
v 1.3131816 1.3957360 1.1028877
vn 1.0000000 -0.0000048 0.0000005
vt 0.8710287 0.8206258
v 1.3131816 1.3219075 1.0290025
vn 1.0000000 -0.0000032 0.0000013
vt 0.8775545 0.8271461
v 1.3131816 1.3219876 0.9245132
vn 1.0000000 -0.0000038 -0.0000013
vt 0.8775545 0.8363751
v 1.3131816 1.3959289 0.8506283
vn 1.0000000 -0.0000047 -0.0000016
vt 0.8710290 0.8429053
v 1.3131826 1.5004178 0.8506283
vn 1.0000000 -0.0000091 0.0000091
vt 0.8618005 0.8429124

g group_66217288_105553122443008
f 1/1/1 2/2/2 3/3/3 
f 3/3/3 2/2/2 4/4/4 
f 5/5/5 1/1/1 6/6/6 
f 6/6/6 1/1/1 3/3/3 
f 7/7/7 8/8/8 9/9/9 
f 9/9/9 8/8/8 10/10/10 
f 11/11/11 7/7/7 12/12/12 
f 12/12/12 7/7/7 9/9/9 
f 13/13/13 14/14/14 15/15/15 
f 15/15/15 14/14/14 16/16/16 
f 17/17/17 13/13/13 18/18/18 
f 18/18/18 13/13/13 15/15/15 
f 19/19/19 20/20/20 21/21/21 
f 21/21/21 20/20/20 22/22/22 
f 23/23/23 19/19/19 24/24/24 
f 24/24/24 19/19/19 21/21/21 
f 25/25/25 26/26/26 27/27/27 
f 26/26/26 28/28/28 27/27/27 
f 28/28/28 29/29/29 27/27/27 
f 29/29/29 30/30/30 27/27/27 
f 30/30/30 31/31/31 27/27/27 
f 31/31/31 32/32/32 27/27/27 
