v 0.8378446 2.8327870 0.6636544
vn 0.0000000 1.0000000 0.0000001
vt 0.6005731 0.7584810
v 1.1050540 2.7986231 0.7911544
vn 0.0000000 0.8660252 0.5000004
vt 0.5643320 0.7763860
v 1.1050540 2.8327870 0.6636544
vn 0.0000000 1.0000000 0.0000002
vt 0.5643320 0.7584810
v 0.8378446 2.7986231 0.7911544
vn 0.0000001 0.8660253 0.5000002
vt 0.6005731 0.7763860
v 1.1050540 2.7052870 0.8844909
vn 0.0000001 0.5000004 0.8660253
vt 0.5643300 0.7942900
v 0.8378446 2.7052870 0.8844910
vn 0.0000001 0.5000004 0.8660252
vt 0.6005731 0.7942930
v 1.1050540 2.5777860 0.9186544
vn 0.0000001 -0.0000002 1.0000000
vt 0.5643320 0.8121950
v 0.8378446 2.5777860 0.9186544
vn 0.0000000 -0.0000002 1.0000000
vt 0.6005750 0.8121950
v 1.1050540 2.4502859 0.8844909
vn 0.0000000 -0.5000001 0.8660254
vt 0.5643320 0.8301010
v 0.8378446 2.4502859 0.8844909
vn 0.0000000 -0.5000000 0.8660254
vt 0.6005750 0.8300990
v 1.1050540 2.3569500 0.7911546
vn 0.0000000 -0.8660254 0.4999999
vt 0.5643320 0.8480040
v 0.8378446 2.3569500 0.7911546
vn 0.0000000 -0.8660254 0.4999999
vt 0.6005731 0.8480040
v 1.1050540 2.3227870 0.6636546
vn -0.0000000 -1.0000000 0.0000000
vt 0.5643320 0.8659080
v 0.8378446 2.3227870 0.6636546
vn 0.0000000 -1.0000000 0.0000001
vt 0.6005750 0.8659080
v 1.1050540 2.3569500 0.5361546
vn -0.0000000 -0.8660258 -0.4999993
vt 0.5643300 0.8838130
v 0.8378446 2.3569500 0.5361546
vn -0.0000000 -0.8660258 -0.4999994
vt 0.6005731 0.8838100
v 1.1050540 2.4502859 0.4428180
vn -0.0000001 -0.5000008 -0.8660250
vt 0.5643300 0.9017170
v 0.8378446 2.4502859 0.4428181
vn -0.0000001 -0.5000008 -0.8660250
vt 0.6005750 0.9017190
v 1.1050540 2.5777860 0.4086545
vn -0.0000000 -0.0000004 -1.0000000
vt 0.5643300 0.9196230
v 0.8378446 2.5777860 0.4086545
vn -0.0000000 -0.0000005 -1.0000000
vt 0.6005731 0.9196200
v 1.1050540 2.7052860 0.4428179
vn -0.0000001 0.4999994 -0.8660257
vt 0.5643320 0.9375240
v 0.8378446 2.7052860 0.4428179
vn -0.0000001 0.4999994 -0.8660257
vt 0.6005750 0.9375270
v 1.1050540 2.7986231 0.5361543
vn -0.0000000 0.8660250 -0.5000009
vt 0.5643320 0.9554290
v 0.8378446 2.7986231 0.5361543
vn 0.0000000 0.8660249 -0.5000011
vt 0.6005750 0.9554290
v 1.1050540 2.8327870 0.6636544
vn 0.0000000 1.0000000 0.0000002
vt 0.5643320 0.9733350
v 0.8378446 2.7986231 0.5361543
vn -1.0000000 0.0000000 0.0000000
vt 0.4934580 0.8286200
v 0.8378446 2.7052860 0.4428179
vn -1.0000000 0.0000000 0.0000000
vt 0.5064061 0.8156740
v 0.8378446 2.8327870 0.6636544
vn -1.0000000 0.0000000 0.0000000
vt 0.4887180 0.8463100
v 1.1050540 2.8327870 0.6636544
vn 1.0000000 0.0000000 0.0000000
vt 0.4146080 0.9381740
v 1.1050540 2.7986231 0.7911544
vn 1.0000000 0.0000000 0.0000000
vt 0.4098680 0.9558600
v 1.1050540 2.7986231 0.5361543
vn 1.0000000 0.0000000 0.0000000
vt 0.4098680 0.9204850
v 0.8378446 2.8327870 0.6636544
vn 0.0000000 1.0000000 0.0000001
vt 0.6005731 0.9733350
v 0.8378446 2.5777860 0.4086545
vn -1.0000000 0.0000000 0.0000000
vt 0.5240920 0.8109350
v 0.8378446 2.4502859 0.4428181
vn -1.0000000 0.0000000 0.0000000
vt 0.5417820 0.8156740
v 0.8378446 2.3569500 0.5361546
vn -1.0000000 0.0000000 0.0000000
vt 0.5547310 0.8286200
v 0.8378446 2.3227870 0.6636546
vn -1.0000000 0.0000000 0.0000000
vt 0.5594671 0.8463100
v 0.8378446 2.3569500 0.7911546
vn -1.0000000 0.0000000 0.0000000
vt 0.5547310 0.8639990
v 0.8378446 2.4502859 0.8844909
vn -1.0000000 0.0000000 0.0000000
vt 0.5417820 0.8769450
v 0.8378446 2.5777860 0.9186544
vn -1.0000000 0.0000000 0.0000000
vt 0.5240920 0.8816850
v 0.8378446 2.7052870 0.8844910
vn -1.0000000 0.0000000 0.0000000
vt 0.5064061 0.8769450
v 0.8378446 2.7986231 0.7911544
vn -1.0000000 0.0000000 0.0000000
vt 0.4934580 0.8639990
v 1.1050540 2.7052870 0.8844909
vn 1.0000000 0.0000000 0.0000000
vt 0.3969190 0.9688100
v 1.1050540 2.5777860 0.9186544
vn 1.0000000 0.0000003 -0.0000002
vt 0.3792310 0.9735500
v 1.1050540 2.4502859 0.8844909
vn 1.0000000 0.0000013 -0.0000013
vt 0.3615440 0.9688100
v 1.1050540 2.3569500 0.7911546
vn 1.0000000 0.0000006 -0.0000005
vt 0.3485940 0.9558600
v 1.1050540 2.3227870 0.6636546
vn 1.0000000 -0.0000017 -0.0000005
vt 0.3438560 0.9381740
v 1.1050540 2.3569500 0.5361546
vn 1.0000000 -0.0000000 -0.0000001
vt 0.3485940 0.9204850
v 1.1050540 2.4502859 0.4428180
vn 1.0000000 0.0000000 0.0000000
vt 0.3615440 0.9075350
v 1.1050540 2.5777860 0.4086545
vn 1.0000000 0.0000000 0.0000000
vt 0.3792310 0.9027950
v 1.1050540 2.7052860 0.4428179
vn 1.0000000 0.0000000 0.0000000
vt 0.3969190 0.9075350

g group_9_140627936629776
f 1/1/1 2/2/2 3/3/3 
f 4/4/4 5/5/5 2/2/2 
f 6/6/6 7/7/7 5/5/5 
f 8/8/8 9/9/9 7/7/7 
f 10/10/10 11/11/11 9/9/9 
f 12/12/12 13/13/13 11/11/11 
f 14/14/14 15/15/15 13/13/13 
f 16/16/16 17/17/17 15/15/15 
f 18/18/18 19/19/19 17/17/17 
f 20/20/20 21/21/21 19/19/19 
f 22/22/22 23/23/23 21/21/21 
f 24/24/24 25/25/25 23/23/23 
f 26/26/26 27/27/27 28/28/28 
f 29/29/29 30/30/30 31/31/31 
f 1/1/1 4/4/4 2/2/2 
f 4/4/4 6/6/6 5/5/5 
f 6/6/6 8/8/8 7/7/7 
f 8/8/8 10/10/10 9/9/9 
f 10/10/10 12/12/12 11/11/11 
f 12/12/12 14/14/14 13/13/13 
f 14/14/14 16/16/16 15/15/15 
f 16/16/16 18/18/18 17/17/17 
f 18/18/18 20/20/20 19/19/19 
f 20/20/20 22/22/22 21/21/21 
f 22/22/22 24/24/24 23/23/23 
f 24/24/24 32/32/32 25/25/25 
f 27/27/27 33/33/33 34/34/34 
f 34/34/34 35/35/35 36/36/36 
f 36/36/36 37/37/37 38/38/38 
f 34/34/34 36/36/36 38/38/38 
f 38/38/38 39/39/39 40/40/40 
f 40/40/40 41/41/41 28/28/28 
f 38/38/38 40/40/40 28/28/28 
f 34/34/34 38/38/38 28/28/28 
f 27/27/27 34/34/34 28/28/28 
f 30/30/30 42/42/42 43/43/43 
f 43/43/43 44/44/44 45/45/45 
f 45/45/45 46/46/46 47/47/47 
f 43/43/43 45/45/45 47/47/47 
f 47/47/47 48/48/48 49/49/49 
f 49/49/49 50/50/50 31/31/31 
f 47/47/47 49/49/49 31/31/31 
f 43/43/43 47/47/47 31/31/31 
f 30/30/30 43/43/43 31/31/31 
