v -0.8378446 -2.0162151 0.6360558
vn -0.0000000 1.0000000 0.0000001
vt 0.6005660 0.7874490
v -1.0978460 -2.0590870 0.7960558
vn -0.0000001 0.8660251 0.5000007
vt 0.5641180 0.8106880
v -0.8378446 -2.0590870 0.7960559
vn -0.0000001 0.8660251 0.5000007
vt 0.6005740 0.8106840
v -1.0978460 -2.1762149 0.9131839
vn -0.0000002 0.4999996 0.8660256
vt 0.5641250 0.8339300
v -0.8378446 -2.1762149 0.9131840
vn -0.0000001 0.4999996 0.8660256
vt 0.6005790 0.8339210
v -1.0978460 -2.3362150 0.9560558
vn -0.0000001 0.0000005 1.0000000
vt 0.5641300 0.8571680
v -0.8378446 -2.3362150 0.9560558
vn -0.0000001 0.0000005 1.0000000
vt 0.6005830 0.8571590
v -1.0978460 -2.4962151 0.9131841
vn -0.0000001 -0.4999991 0.8660260
vt 0.5641360 0.8804060
v -0.8378446 -2.4962151 0.9131842
vn -0.0000001 -0.4999990 0.8660260
vt 0.6005920 0.8803960
v -1.0978460 -2.6133430 0.7960560
vn -0.0000001 -0.8660250 0.5000008
vt 0.5641450 0.9036440
v -0.8378446 -2.6133430 0.7960560
vn 0.0000000 -0.8660250 0.5000008
vt 0.6006000 0.9036300
v -1.0978460 -2.6562150 0.6360561
vn 0.0000000 -1.0000000 0.0000000
vt 0.5641540 0.9268770
v -0.8378446 -2.6562150 0.6360561
vn 0.0000000 -1.0000000 0.0000000
vt 0.6006090 0.9268670
v -1.0978460 -2.6133430 0.4760560
vn 0.0000000 -0.8660251 -0.5000005
vt 0.5641630 0.9501100
v -0.8378446 -2.6133430 0.4760561
vn 0.0000000 -0.8660251 -0.5000005
vt 0.6006150 0.9500970
v -1.0978460 -2.4962151 0.3589278
vn 0.0000000 -0.4999999 -0.8660254
vt 0.5641670 0.9733390
v -0.8378446 -2.4962151 0.3589278
vn 0.0000000 -0.4999999 -0.8660254
vt 0.6006230 0.9733260
v -1.0978460 -2.3362150 0.3160559
vn 0.0000000 -0.0000006 -1.0000000
vt 0.5641760 0.9965630
v -0.8378446 -2.3362150 0.3160559
vn 0.0000000 -0.0000007 -1.0000000
vt 0.6006280 0.9965500
v -0.8378446 -2.3362150 0.3160559
vn 0.0000000 -0.0000007 -1.0000000
vt 0.6005600 0.7177600
v -1.0978460 -2.1762149 0.3589276
vn 0.0000000 0.4999990 -0.8660260
vt 0.5641090 0.7409890
v -0.8378446 -2.1762149 0.3589276
vn 0.0000000 0.4999990 -0.8660260
vt 0.6005640 0.7409870
v -1.0978460 -2.0590870 0.4760556
vn 0.0000000 0.8660250 -0.5000008
vt 0.5641090 0.7642170
v -0.8378446 -2.0590870 0.4760556
vn 0.0000000 0.8660250 -0.5000008
vt 0.6005650 0.7642160
v -1.0978460 -2.0162151 0.6360558
vn 0.0000000 1.0000000 0.0000001
vt 0.5641130 0.7874550
v -0.8378446 -2.0590870 0.4760556
vn 1.0000000 0.0000000 0.0000000
vt 0.0087820 0.9172270
v -0.8378446 -2.0162151 0.6360558
vn 1.0000000 -0.0000000 0.0000001
vt 0.0028310 0.9394260
v -0.8378446 -2.1762149 0.3589276
vn 1.0000000 -0.0000002 0.0000002
vt 0.0250330 0.9009780
v -1.0978460 -2.0162151 0.6360558
vn -1.0000000 0.0000014 0.0000004
vt 0.1902740 0.9525480
v -1.0978460 -2.0590870 0.4760556
vn -1.0000000 0.0000000 0.0000001
vt 0.1843290 0.9303510
v -1.0978460 -2.0590870 0.7960558
vn -1.0000000 0.0000008 0.0000004
vt 0.1843290 0.9747440
v -1.0978460 -2.3362150 0.3160559
vn 0.0000000 -0.0000006 -1.0000000
vt 0.5641070 0.7177640
v -0.8378446 -2.0590870 0.7960559
vn 1.0000000 0.0000005 0.0000005
vt 0.0087820 0.9616240
v -0.8378446 -2.1762149 0.9131840
vn 1.0000000 0.0000001 0.0000002
vt 0.0250330 0.9778720
v -0.8378446 -2.3362150 0.9560558
vn 1.0000000 0.0000000 0.0000000
vt 0.0472300 0.9838200
v -0.8378446 -2.4962151 0.9131842
vn 1.0000000 -0.0000000 0.0000000
vt 0.0694260 0.9778720
v -0.8378446 -2.6133430 0.7960560
vn 1.0000000 0.0000000 0.0000000
vt 0.0856750 0.9616240
v -0.8378446 -2.6562150 0.6360561
vn 1.0000000 0.0000000 0.0000000
vt 0.0916230 0.9394260
v -0.8378446 -2.6133430 0.4760561
vn 1.0000000 0.0000000 0.0000000
vt 0.0856750 0.9172270
v -0.8378446 -2.4962151 0.3589278
vn 1.0000000 -0.0000001 0.0000001
vt 0.0694260 0.9009780
v -0.8378446 -2.3362150 0.3160559
vn 1.0000000 -0.0000002 0.0000007
vt 0.0472300 0.8950330
v -1.0978460 -2.1762149 0.3589276
vn -1.0000000 -0.0000010 0.0000010
vt 0.1680800 0.9141020
v -1.0978460 -2.3362150 0.3160559
vn -1.0000000 -0.0000003 -0.0000002
vt 0.1458790 0.9081500
v -1.0978460 -2.4962151 0.3589278
vn -1.0000000 0.0000000 0.0000000
vt 0.1236860 0.9141010
v -1.0978460 -2.6133430 0.4760560
vn -1.0000000 0.0000001 -0.0000001
vt 0.1074360 0.9303470
v -1.0978460 -2.6562150 0.6360561
vn -1.0000000 0.0000028 0.0000000
vt 0.1014890 0.9525470
v -1.0978460 -2.6133430 0.7960560
vn -1.0000000 -0.0000002 0.0000001
vt 0.1074360 0.9747440
v -1.0978460 -2.4962151 0.9131841
vn -1.0000000 -0.0000010 0.0000010
vt 0.1236860 0.9909930
v -1.0978460 -2.3362150 0.9560558
vn -1.0000000 -0.0000000 0.0000002
vt 0.1458790 0.9969400
v -1.0978460 -2.1762149 0.9131839
vn -1.0000000 0.0000010 0.0000010
vt 0.1680800 0.9909930

g group_47_140627936642304
f 1/1/1 2/2/2 3/3/3 
f 3/3/3 4/4/4 5/5/5 
f 5/5/5 6/6/6 7/7/7 
f 7/7/7 8/8/8 9/9/9 
f 9/9/9 10/10/10 11/11/11 
f 11/11/11 12/12/12 13/13/13 
f 13/13/13 14/14/14 15/15/15 
f 15/15/15 16/16/16 17/17/17 
f 17/17/17 18/18/18 19/19/19 
f 20/20/20 21/21/21 22/22/22 
f 22/22/22 23/23/23 24/24/24 
f 24/24/24 25/25/25 1/1/1 
f 26/26/26 27/27/27 28/28/28 
f 29/29/29 30/30/30 31/31/31 
f 1/1/1 25/25/25 2/2/2 
f 3/3/3 2/2/2 4/4/4 
f 5/5/5 4/4/4 6/6/6 
f 7/7/7 6/6/6 8/8/8 
f 9/9/9 8/8/8 10/10/10 
f 11/11/11 10/10/10 12/12/12 
f 13/13/13 12/12/12 14/14/14 
f 15/15/15 14/14/14 16/16/16 
f 17/17/17 16/16/16 18/18/18 
f 20/20/20 32/32/32 21/21/21 
f 22/22/22 21/21/21 23/23/23 
f 24/24/24 23/23/23 25/25/25 
f 27/27/27 33/33/33 34/34/34 
f 34/34/34 35/35/35 36/36/36 
f 27/27/27 34/34/34 36/36/36 
f 36/36/36 37/37/37 38/38/38 
f 38/38/38 39/39/39 40/40/40 
f 36/36/36 38/38/38 40/40/40 
f 27/27/27 36/36/36 40/40/40 
f 40/40/40 41/41/41 28/28/28 
f 27/27/27 40/40/40 28/28/28 
f 30/30/30 42/42/42 43/43/43 
f 43/43/43 44/44/44 45/45/45 
f 30/30/30 43/43/43 45/45/45 
f 45/45/45 46/46/46 47/47/47 
f 47/47/47 48/48/48 49/49/49 
f 45/45/45 47/47/47 49/49/49 
f 30/30/30 45/45/45 49/49/49 
f 49/49/49 50/50/50 31/31/31 
f 30/30/30 49/49/49 31/31/31 
