v 0.8378468 0.5991735 0.0306622
vn -0.0000004 0.2573627 -0.9663149
vt 0.6619210 0.8457990
v 0.8378468 0.7880847 0.1391545
vn -0.0000004 0.7049108 -0.7092960
vt 0.6619210 0.8155760
v 1.0978360 0.5991739 0.0306622
vn -0.0000002 0.2573633 -0.9663147
vt 0.6979899 0.8457990
v 0.8378468 0.5991735 0.0306622
vn -1.0000000 0.0000000 0.0000000
vt 0.4714770 0.9893590
v 0.8378468 0.1916523 0.1400167
vn -1.0000000 0.0000000 0.0000000
vt 0.4422270 0.9386550
v 0.8378468 0.7880847 0.1391545
vn -1.0000000 0.0000000 0.0000000
vt 0.5006530 0.9972460
v 0.8378468 0.3834003 0.8449356
vn 0.0000000 -0.2573635 0.9663147
vt 0.6619201 0.6641790
v 0.8378468 0.1944894 0.7364432
vn -0.0000002 -0.7049106 0.7092962
vt 0.6619210 0.6339570
v 1.0978360 0.3834003 0.8449356
vn 0.0000000 -0.2573634 0.9663147
vt 0.6979910 0.6641790
v 1.0978360 0.5991739 0.0306622
vn 1.0000000 0.0000000 0.0000000
vt 0.4084570 0.9889960
v 1.0978360 0.7880849 0.1391546
vn 1.0000000 0.0000000 0.0000000
vt 0.3792601 0.9967790
v 1.0978360 0.5757037 0.1192315
vn 1.0000000 0.0000000 0.0000000
vt 0.4021140 0.9779800
v 1.0978360 0.3834003 0.8449356
vn 1.0000000 0.0000000 0.0000000
vt 0.3500570 0.8878160
v 1.0978360 0.1944891 0.7364430
vn 1.0000000 0.0000000 0.0000000
vt 0.3792560 0.8800340
v 1.0978360 0.4068701 0.7563663
vn 1.0000000 0.0000000 0.0000000
vt 0.3563970 0.8988320
v 1.0978360 0.5757037 0.1192315
vn 0.1765799 -0.2554389 0.9505633
vt 0.6472239 0.7409750
v 0.8527879 0.6974379 0.2303655
vn 0.2247934 -0.6868690 0.6911432
vt 0.6815971 0.7186675
v 0.8527912 0.4904329 0.1550669
vn 0.2385174 0.0009501 0.9711378
vt 0.6815965 0.7531036
v 1.0978360 0.4068701 0.7563663
vn 0.1765772 0.2554394 -0.9505637
vt 0.6472211 0.8807790
v 0.8527878 0.2851356 0.6452328
vn 0.2247910 0.6868702 -0.6911429
vt 0.6815971 0.8579957
v 0.8527912 0.4921410 0.7205316
vn 0.2385152 -0.0009511 -0.9711384
vt 0.6816001 0.8929067
v 1.0978360 0.3810666 0.0308206
vn 0.0000003 -0.2588590 -0.9659151
vt 0.6979910 0.8760610
v 1.0978360 0.1916522 0.1400167
vn -0.0000000 -0.7092963 -0.7049106
vt 0.6979910 0.9063910
v 0.8378468 0.3810663 0.0308206
vn 0.0000001 -0.2588595 -0.9659150
vt 0.6619210 0.8760610
v 0.8378468 0.0836328 0.3301044
vn 0.0000005 -0.9675019 -0.2528639
vt 0.6619210 0.9367210
v 0.8378468 0.1916523 0.1400167
vn 0.0000001 -0.7092960 -0.7049108
vt 0.6619210 0.9063910
v 1.0978360 0.0836330 0.3301045
vn 0.0000003 -0.9675019 -0.2528636
vt 0.6979899 0.9367210
v 0.8378468 0.0848274 0.5482087
vn -0.0000002 -0.9646999 0.2633518
vt 0.6619210 0.9669820
v 1.0978360 0.0848274 0.5482087
vn 0.0000001 -0.9647000 0.2633515
vt 0.6979921 0.9669790
v 0.8378468 0.1944894 0.7364432
vn -0.0000002 -0.7049106 0.7092962
vt 0.6619210 0.9972040
v 1.0978360 0.1944891 0.7364430
vn -0.0000001 -0.7049111 0.7092957
vt 0.6979910 0.9972040
v 1.0978360 0.6015075 0.8447772
vn -0.0000000 0.2588596 0.9659150
vt 0.6979910 0.6944370
v 1.0978360 0.7909217 0.7355810
vn -0.0000003 0.7092960 0.7049109
vt 0.6979921 0.7247670
v 0.8378468 0.6015075 0.8447772
vn -0.0000001 0.2588598 0.9659150
vt 0.6619210 0.6944370
v 0.8378468 0.8989410 0.5454936
vn -0.0000003 0.9675017 0.2528646
vt 0.6619210 0.7551000
v 0.8378468 0.7909216 0.7355809
vn -0.0000004 0.7092960 0.7049109
vt 0.6619210 0.7247670
v 1.0978360 0.8989412 0.5454935
vn -0.0000004 0.9675018 0.2528644
vt 0.6979899 0.7551010
v 0.8378468 0.8977467 0.3273894
vn -0.0000005 0.9647001 -0.2633510
vt 0.6619210 0.7853540
v 1.0978360 0.8977468 0.3273893
vn -0.0000006 0.9647000 -0.2633512
vt 0.6979910 0.7853540
v 1.0978360 0.7880849 0.1391546
vn -0.0000003 0.7049109 -0.7092959
vt 0.6979921 0.8155800
v 1.0978360 0.4050440 0.1193556
vn 1.0000000 0.0000000 0.0000000
vt 0.4189169 0.9613010
v 1.0978360 0.2568354 0.2047970
vn 1.0000000 0.0000000 0.0000000
vt 0.4251500 0.9384080
v 1.0978360 0.3810666 0.0308206
vn 1.0000000 0.0000000 0.0000000
vt 0.4299300 0.9676740
v 1.0978360 0.0836330 0.3301045
vn 1.0000000 0.0000000 0.0000000
vt 0.4299240 0.9091380
v 1.0978360 0.1723149 0.3535327
vn 1.0000000 0.0000000 0.0000000
vt 0.4189110 0.9155150
v 1.0978360 0.0848274 0.5482087
vn 1.0000000 0.0000000 0.0000000
vt 0.4084550 0.8878170
v 1.0978360 0.1732494 0.5241899
vn 1.0000000 0.0000000 0.0000000
vt 0.4021120 0.8988320
v 1.0978360 0.2590553 0.6714755
vn 1.0000000 0.0000000 0.0000000
vt 0.3792540 0.8927410
v 1.0978360 0.5775298 0.7562422
vn 1.0000000 0.0000000 0.0000000
vt 0.3395960 0.9155120
v 1.0978360 0.7257385 0.6708008
vn 1.0000000 0.0000000 0.0000000
vt 0.3333620 0.9384070
v 1.0978360 0.6015075 0.8447772
vn 1.0000000 0.0000000 0.0000000
vt 0.3285830 0.9091370
v 1.0978360 0.8989412 0.5454935
vn 1.0000000 0.0000000 0.0000000
vt 0.3285900 0.9676740
v 1.0978360 0.8102592 0.5220652
vn 1.0000000 0.0000000 0.0000000
vt 0.3396029 0.9612990
v 1.0978360 0.8977468 0.3273893
vn 1.0000000 0.0000000 0.0000000
vt 0.3500590 0.9889960
v 1.0978360 0.8093247 0.3514078
vn 1.0000000 0.0000000 0.0000000
vt 0.3564041 0.9779800
v 1.0978360 0.7235188 0.2041222
vn 1.0000000 0.0000000 0.0000000
vt 0.3792601 0.9840710
v 1.0978360 0.4050440 0.1193556
vn 0.1768003 0.2569981 0.9501019
vt 0.6472239 0.7642660
v 0.8528008 0.2831643 0.2309630
vn 0.2253035 0.6910589 0.6867867
vt 0.6815926 0.7881022
v 1.0978360 0.1723149 0.3535327
vn 0.1767995 0.9516777 0.2511006
vt 0.6472239 0.8109620
v 0.8527912 0.2085548 0.4386985
vn 0.2385161 0.9711253 -0.0050722
vt 0.6815968 0.8230847
v 1.0978360 0.1732494 0.5241899
vn 0.1765779 0.9489611 -0.2613297
vt 0.6472239 0.8342540
v 1.0978360 0.2590553 0.6714755
vn 0.1492915 0.6970108 -0.7013474
vt 0.6472239 0.8575170
v 1.0978360 0.5775298 0.7562422
vn 0.1767986 -0.2569988 -0.9501020
vt 0.6472239 0.9040700
v 0.8528008 0.6994096 0.6446348
vn 0.2253032 -0.6910595 -0.6867862
vt 0.6815987 0.9279004
v 1.0978360 0.8102592 0.5220652
vn 0.1768003 -0.9516775 -0.2511008
vt 0.6472239 0.9507660
v 0.8527912 0.7740191 0.4368992
vn 0.2385174 -0.9711250 0.0050734
vt 0.6815968 0.9628881
v 1.0978360 0.8093247 0.3514078
vn 0.1765796 -0.9489605 0.2613304
vt 0.6472239 0.9740570
v 1.0978360 0.7235188 0.2041222
vn 0.1492944 -0.6970103 0.7013472
vt 0.6472211 0.9973220
v 0.8527879 0.6974379 0.2303655
vn 0.2247934 -0.6868690 0.6911432
vt 0.6816041 0.9973220
v 1.0571980 0.2204934 0.7085958
vn 1.0000000 0.0000000 0.0000000
vt 0.2428890 0.8766810
v 1.0571980 0.1083249 0.4377971
vn 1.0000000 -0.0000004 0.0000001
vt 0.2804561 0.8922430
v 1.0571980 0.4912922 0.8207643
vn 1.0000000 -0.0000001 0.0000004
vt 0.2053200 0.8922430
v 1.1152580 0.6008719 0.4376993
vn -0.0310321 0.9995035 -0.0054610
vt 0.3151690 0.9099550
v 0.8534734 0.5671005 0.3615146
vn -0.1371178 0.6985184 -0.7023324
vt 0.2818018 0.9238567
v 0.8534734 0.5678122 0.5139846
vn -0.1379285 0.7021295 0.6985627
vt 0.2816591 0.9008929
v 1.1152580 0.3817120 0.4378943
vn -0.0310324 -0.9995035 0.0054609
vt 0.3151710 0.9565500
v 0.8534734 0.4154835 0.5140791
vn -0.1371179 -0.6985182 0.7023326
vt 0.2853283 0.9616577
v 0.8534734 0.4147719 0.3616090
vn -0.1379292 -0.7021291 -0.6985630
vt 0.2825327 0.9467741
v 1.1152580 0.3817120 0.4378943
vn 1.0000000 0.0000000 0.0000000
vt 0.3034040 0.9715020
v 1.1152580 0.4132821 0.3597869
vn 1.0000000 0.0000000 0.0000000
vt 0.3079690 0.9822620
v 1.1152580 0.4139672 0.5151216
vn 1.0000000 0.0000000 0.0000000
vt 0.2926650 0.9670900
v 1.1152580 0.4139672 0.5151216
vn -0.0069118 -0.7073076 0.7068720
vt 0.3151710 0.8749660
v 1.1152580 0.4911946 0.5473767
vn -0.0308403 -0.0049235 0.9995122
vt 0.3151710 0.8865780
v 0.8534734 0.4154835 0.5140791
vn -0.1371179 -0.6985182 0.7023326
vt 0.2790836 0.8772352
v 1.1152580 0.5693019 0.5158066
vn -0.0089451 0.7069215 0.7072355
vt 0.3151730 0.8982660
v 1.1152580 0.5686167 0.3604719
vn -0.0069121 0.7073078 -0.7068719
vt 0.3151710 0.9215630
v 1.1152580 0.4913895 0.3282169
vn -0.0308408 0.0049238 -0.9995122
vt 0.3151710 0.9331700
v 1.1152580 0.4132821 0.3597869
vn -0.0089456 -0.7069208 -0.7072362
vt 0.3151710 0.9448630
v 1.1152580 0.4913895 0.3282169
vn 1.0000000 0.0000000 0.0000000
vt 0.3034040 0.9930210
v 1.1152580 0.5686167 0.3604719
vn 1.0000000 0.0000000 0.0000000
vt 0.2926650 0.9974300
v 1.1152580 0.6008719 0.4376993
vn 1.0000000 0.0000000 0.0000000
vt 0.2819240 0.9930210
v 1.1152580 0.5693019 0.5158066
vn 1.0000000 0.0000000 0.0000000
vt 0.2773590 0.9822620
v 1.1152580 0.4911946 0.5473767
vn 1.0000000 0.0000000 0.0000000
vt 0.2819240 0.9715020
v 1.1152580 0.4139672 0.5151216
vn -0.0069118 -0.7073076 0.7068720
vt 0.3151710 0.9681590
v 0.8378468 0.3810663 0.0308206
vn -1.0000000 0.0000000 0.0000000
vt 0.4500980 0.9679480
v 0.8378468 0.0836328 0.3301044
vn -1.0000000 0.0000000 0.0000000
vt 0.4502780 0.9094110
v 0.8378468 0.0848274 0.5482087
vn -1.0000000 0.0000000 0.0000000
vt 0.4717890 0.8881310
v 0.8378468 0.1944894 0.7364432
vn -1.0000000 0.0000000 0.0000000
vt 0.5010121 0.8804240
v 0.8378468 0.3834003 0.8449356
vn -1.0000000 0.0000000 0.0000000
vt 0.5301870 0.8883140
v 0.8378468 0.6015075 0.8447772
vn -1.0000000 0.0000000 0.0000000
vt 0.5515671 0.9097210
v 0.8378468 0.7909216 0.7355809
vn -1.0000000 0.0000000 0.0000000
vt 0.5594361 0.9390140
v 0.8378468 0.8989410 0.5454936
vn -1.0000000 0.0000000 0.0000000
vt 0.5513880 0.9682580
v 0.8378468 0.8977467 0.3273894
vn -1.0000000 0.0000000 0.0000000
vt 0.5298741 0.9895390
v 1.0978360 0.1944891 0.7364430
vn -0.0000001 -0.7049111 0.7092957
vt 0.6979910 0.6339570
v 1.0978360 0.7235188 0.2041222
vn 0.1492944 -0.6970103 0.7013472
vt 0.6472239 0.7177100
v 1.0978360 0.1916522 0.1400167
vn 1.0000000 0.0000000 0.0000000
vt 0.4379001 0.9384070
v 1.0978360 0.7909217 0.7355810
vn 1.0000000 0.0000000 0.0000000
vt 0.3206140 0.9384080
v 1.0978360 0.2568354 0.2047970
vn 0.1497786 0.7012952 0.6969587
vt 0.6472250 0.7876160
v 1.0978360 0.7257385 0.6708008
vn 0.1497786 -0.7012946 -0.6969593
vt 0.6472211 0.9274190
v 1.0571980 0.2204931 0.1669981
vn 1.0000000 -0.0000011 -0.0000004
vt 0.2960180 0.9298110
v 1.0571980 0.4912921 0.0548295
vn 1.0000000 -0.0000004 0.0000001
vt 0.2804580 0.9673780
v 1.0571980 0.7620909 0.1669980
vn 1.0000000 0.0000000 0.0000000
vt 0.2428890 0.9829400
v 1.0571980 0.8742595 0.4377967
vn 1.0000000 -0.0000001 0.0000004
vt 0.2053200 0.9673780
v 1.0571980 0.7620909 0.7085956
vn 1.0000000 0.0000004 0.0000011
vt 0.1897590 0.9298110

g group_39_140627936641072
f 1/1/1 2/2/2 3/3/3 
f 4/4/4 5/5/5 6/6/6 
f 7/7/7 8/8/8 9/9/9 
f 10/10/10 11/11/11 12/12/12 
f 13/13/13 14/14/14 15/15/15 
f 16/16/16 17/17/17 18/18/18 
f 19/19/19 20/20/20 21/21/21 
f 3/3/3 22/22/22 1/1/1 
f 22/22/22 23/23/23 24/24/24 
f 25/25/25 26/26/26 27/27/27 
f 28/28/28 25/25/25 29/29/29 
f 30/30/30 28/28/28 31/31/31 
f 9/9/9 32/32/32 7/7/7 
f 32/32/32 33/33/33 34/34/34 
f 35/35/35 36/36/36 37/37/37 
f 38/38/38 35/35/35 39/39/39 
f 2/2/2 38/38/38 40/40/40 
f 12/12/12 41/41/41 10/10/10 
f 41/41/41 42/42/42 43/43/43 
f 44/44/44 42/42/42 45/45/45 
f 46/46/46 45/45/45 47/47/47 
f 14/14/14 47/47/47 48/48/48 
f 15/15/15 49/49/49 13/13/13 
f 49/49/49 50/50/50 51/51/51 
f 52/52/52 50/50/50 53/53/53 
f 54/54/54 53/53/53 55/55/55 
f 11/11/11 55/55/55 56/56/56 
f 18/18/18 57/57/57 16/16/16 
f 18/18/18 58/58/58 57/57/57 
f 59/59/59 58/58/58 60/60/60 
f 61/61/61 59/59/59 60/60/60 
f 62/62/62 61/61/61 20/20/20 
f 21/21/21 63/63/63 19/19/19 
f 21/21/21 64/64/64 63/63/63 
f 65/65/65 64/64/64 66/66/66 
f 67/67/67 65/65/65 66/66/66 
f 68/68/68 67/67/67 69/69/69 
f 70/70/70 71/71/71 72/72/72 
f 73/73/73 74/74/74 75/75/75 
f 76/76/76 77/77/77 78/78/78 
f 79/79/79 80/80/80 81/81/81 
f 82/82/82 83/83/83 84/84/84 
f 83/83/83 75/75/75 84/84/84 
f 75/75/75 85/85/85 73/73/73 
f 86/86/86 87/87/87 74/74/74 
f 87/87/87 78/78/78 74/74/74 
f 78/78/78 88/88/88 76/76/76 
f 80/80/80 89/89/89 90/90/90 
f 91/91/91 92/92/92 93/93/93 
f 91/91/91 93/93/93 81/81/81 
f 90/90/90 91/91/91 81/81/81 
f 80/80/80 90/90/90 81/81/81 
f 73/73/73 86/86/86 74/74/74 
f 76/76/76 94/94/94 77/77/77 
f 83/83/83 85/85/85 75/75/75 
f 87/87/87 88/88/88 78/78/78 
f 2/2/2 40/40/40 3/3/3 
f 4/4/4 95/95/95 5/5/5 
f 5/5/5 96/96/96 97/97/97 
f 5/5/5 97/97/97 98/98/98 
f 98/98/98 99/99/99 100/100/100 
f 100/100/100 101/101/101 102/102/102 
f 98/98/98 100/100/100 102/102/102 
f 102/102/102 103/103/103 6/6/6 
f 98/98/98 102/102/102 6/6/6 
f 5/5/5 98/98/98 6/6/6 
f 8/8/8 104/104/104 9/9/9 
f 11/11/11 56/56/56 12/12/12 
f 14/14/14 48/48/48 15/15/15 
f 16/16/16 105/105/105 17/17/17 
f 19/19/19 62/62/62 20/20/20 
f 22/22/22 24/24/24 1/1/1 
f 23/23/23 26/26/26 24/24/24 
f 26/26/26 23/23/23 27/27/27 
f 25/25/25 27/27/27 29/29/29 
f 28/28/28 29/29/29 31/31/31 
f 32/32/32 34/34/34 7/7/7 
f 33/33/33 36/36/36 34/34/34 
f 36/36/36 33/33/33 37/37/37 
f 35/35/35 37/37/37 39/39/39 
f 38/38/38 39/39/39 40/40/40 
f 41/41/41 43/43/43 10/10/10 
f 42/42/42 106/106/106 43/43/43 
f 44/44/44 106/106/106 42/42/42 
f 46/46/46 44/44/44 45/45/45 
f 14/14/14 46/46/46 47/47/47 
f 49/49/49 51/51/51 13/13/13 
f 50/50/50 107/107/107 51/51/51 
f 52/52/52 107/107/107 50/50/50 
f 54/54/54 52/52/52 53/53/53 
f 11/11/11 54/54/54 55/55/55 
f 58/58/58 108/108/108 57/57/57 
f 59/59/59 108/108/108 58/58/58 
f 61/61/61 60/60/60 20/20/20 
f 64/64/64 109/109/109 63/63/63 
f 65/65/65 109/109/109 64/64/64 
f 67/67/67 66/66/66 69/69/69 
f 71/71/71 110/110/110 111/111/111 
f 111/111/111 112/112/112 113/113/113 
f 113/113/113 114/114/114 72/72/72 
f 111/111/111 113/113/113 72/72/72 
f 71/71/71 111/111/111 72/72/72 
