v -1.0978360 0.5991738 0.0306621
vn 0.0000005 0.2573632 -0.9663147
vt 0.6979899 0.8457990
v -1.0978360 0.7880847 0.1391546
vn 0.0000003 0.7049109 -0.7092960
vt 0.6979921 0.8155800
v -0.8378468 0.7880846 0.1391545
vn 0.0000004 0.7049106 -0.7092962
vt 0.6619210 0.8155760
v -0.8378468 0.5991735 0.0306622
vn 1.0000000 0.0000000 0.0000000
vt 0.4714770 0.9893590
v -0.8378468 0.1916521 0.1400167
vn 1.0000000 0.0000000 0.0000000
vt 0.4422270 0.9386550
v -0.8378468 0.3810662 0.0308206
vn 1.0000000 0.0000000 0.0000000
vt 0.4500980 0.9679480
v -1.0978360 0.3834003 0.8449356
vn -0.0000002 -0.2573633 0.9663147
vt 0.6979910 0.6641790
v -1.0978360 0.1944891 0.7364430
vn 0.0000001 -0.7049109 0.7092960
vt 0.6979910 0.6339570
v -0.8378468 0.1944893 0.7364432
vn 0.0000002 -0.7049105 0.7092963
vt 0.6619210 0.6339570
v -1.0978360 0.5757036 0.1192315
vn -1.0000000 0.0000000 0.0000000
vt 0.4021140 0.9779800
v -1.0978360 0.7235187 0.2041222
vn -1.0000000 0.0000000 0.0000000
vt 0.3792601 0.9840710
v -1.0978360 0.7880847 0.1391546
vn -1.0000000 0.0000000 0.0000000
vt 0.3792601 0.9967790
v -1.0978360 0.4068701 0.7563663
vn -1.0000000 0.0000000 0.0000000
vt 0.3563970 0.8988320
v -1.0978360 0.2590552 0.6714756
vn -1.0000000 0.0000000 0.0000000
vt 0.3792540 0.8927410
v -1.0978360 0.1944891 0.7364430
vn -1.0000000 0.0000000 0.0000000
vt 0.3792560 0.8800340
v -1.0978360 0.5757036 0.1192315
vn -0.1765798 -0.2554390 0.9505633
vt 0.6472239 0.7409750
v -0.8527879 0.6974379 0.2303654
vn -0.2247931 -0.6868691 0.6911432
vt 0.6815971 0.7186675
v -1.0978360 0.7235187 0.2041222
vn -0.1492939 -0.6970102 0.7013474
vt 0.6472239 0.7177100
v -1.0978360 0.4068701 0.7563663
vn -0.1765774 0.2554392 -0.9505637
vt 0.6472211 0.8807790
v -0.8527878 0.2851356 0.6452328
vn -0.2247911 0.6868700 -0.6911430
vt 0.6815971 0.8579957
v -1.0978360 0.2590552 0.6714756
vn -0.1492917 0.6970106 -0.7013475
vt 0.6472239 0.8575170
v -0.8378468 0.5991735 0.0306622
vn 0.0000006 0.2573627 -0.9663149
vt 0.6619210 0.8457990
v -0.8378468 0.3810662 0.0308206
vn -0.0000002 -0.2588596 -0.9659150
vt 0.6619210 0.8760610
v -1.0978360 0.3810666 0.0308206
vn -0.0000002 -0.2588592 -0.9659151
vt 0.6979910 0.8760610
v -0.8378468 0.1916521 0.1400167
vn -0.0000004 -0.7092963 -0.7049105
vt 0.6619210 0.9063910
v -1.0978360 0.1916521 0.1400169
vn -0.0000003 -0.7092965 -0.7049103
vt 0.6979910 0.9063910
v -1.0978360 0.0836330 0.3301046
vn -0.0000004 -0.9675019 -0.2528636
vt 0.6979899 0.9367210
v -1.0978360 0.0848273 0.5482087
vn -0.0000001 -0.9647000 0.2633514
vt 0.6979921 0.9669790
v -0.8378468 0.0836328 0.3301044
vn -0.0000005 -0.9675019 -0.2528639
vt 0.6619210 0.9367210
v -1.0978360 0.1944891 0.7364430
vn 0.0000001 -0.7049109 0.7092960
vt 0.6979910 0.9972040
v -0.8378468 0.0848273 0.5482087
vn 0.0000002 -0.9646999 0.2633518
vt 0.6619210 0.9669820
v -0.8378468 0.3834003 0.8449357
vn -0.0000002 -0.2573633 0.9663148
vt 0.6619201 0.6641790
v -0.8378468 0.6015075 0.8447772
vn 0.0000002 0.2588599 0.9659149
vt 0.6619210 0.6944370
v -1.0978360 0.6015075 0.8447772
vn -0.0000001 0.2588597 0.9659150
vt 0.6979910 0.6944370
v -0.8378468 0.7909216 0.7355809
vn 0.0000005 0.7092960 0.7049108
vt 0.6619210 0.7247670
v -1.0978360 0.7909217 0.7355810
vn 0.0000005 0.7092960 0.7049108
vt 0.6979921 0.7247670
v -1.0978360 0.8989411 0.5454934
vn 0.0000003 0.9675017 0.2528645
vt 0.6979899 0.7551010
v -1.0978360 0.8977468 0.3273892
vn 0.0000005 0.9647000 -0.2633515
vt 0.6979910 0.7853540
v -0.8378468 0.8989410 0.5454935
vn 0.0000002 0.9675017 0.2528647
vt 0.6619210 0.7551000
v -0.8378468 0.8977467 0.3273894
vn 0.0000005 0.9647000 -0.2633513
vt 0.6619210 0.7853540
v -1.0978360 0.5991738 0.0306621
vn -1.0000000 0.0000000 0.0000000
vt 0.4084570 0.9889960
v -1.0978360 0.3810666 0.0308206
vn -1.0000000 0.0000000 0.0000000
vt 0.4299300 0.9676740
v -1.0978360 0.4050439 0.1193556
vn -1.0000000 0.0000000 0.0000000
vt 0.4189169 0.9613010
v -1.0978360 0.1916521 0.1400169
vn -1.0000000 0.0000000 0.0000000
vt 0.4379001 0.9384070
v -1.0978360 0.2568353 0.2047970
vn -1.0000000 0.0000000 0.0000000
vt 0.4251500 0.9384080
v -1.0978360 0.0836330 0.3301046
vn -1.0000000 0.0000000 0.0000000
vt 0.4299240 0.9091380
v -1.0978360 0.0848273 0.5482087
vn -1.0000000 0.0000000 0.0000000
vt 0.4084550 0.8878170
v -1.0978360 0.1723149 0.3535327
vn -1.0000000 0.0000000 0.0000000
vt 0.4189110 0.9155150
v -1.0978360 0.1732493 0.5241900
vn -1.0000000 0.0000000 0.0000000
vt 0.4021120 0.8988320
v -1.0978360 0.3834003 0.8449356
vn -1.0000000 0.0000000 0.0000000
vt 0.3500570 0.8878160
v -1.0978360 0.6015075 0.8447772
vn -1.0000000 0.0000000 0.0000000
vt 0.3285830 0.9091370
v -1.0978360 0.5775298 0.7562422
vn -1.0000000 0.0000000 0.0000000
vt 0.3395960 0.9155120
v -1.0978360 0.7909217 0.7355810
vn -1.0000000 0.0000000 0.0000000
vt 0.3206140 0.9384080
v -1.0978360 0.7257385 0.6708008
vn -1.0000000 0.0000000 0.0000000
vt 0.3333620 0.9384070
v -1.0978360 0.8989411 0.5454934
vn -1.0000000 0.0000000 0.0000000
vt 0.3285900 0.9676740
v -1.0978360 0.8977468 0.3273892
vn -1.0000000 0.0000000 0.0000000
vt 0.3500590 0.9889960
v -1.0978360 0.8102591 0.5220651
vn -1.0000000 0.0000000 0.0000000
vt 0.3396029 0.9612990
v -1.0978360 0.8093246 0.3514078
vn -1.0000000 0.0000000 0.0000000
vt 0.3564041 0.9779800
v -0.8527912 0.4904328 0.1550669
vn -0.2385175 0.0009501 0.9711378
vt 0.6815965 0.7531036
v -1.0978360 0.4050439 0.1193556
vn -0.1768004 0.2569981 0.9501019
vt 0.6472239 0.7642660
v -1.0978360 0.2568353 0.2047970
vn -0.1497788 0.7012954 0.6969585
vt 0.6472250 0.7876160
v -0.8528008 0.2831643 0.2309630
vn -0.2253037 0.6910589 0.6867865
vt 0.6815926 0.7881022
v -1.0978360 0.1723149 0.3535327
vn -0.1767995 0.9516777 0.2511005
vt 0.6472239 0.8109620
v -1.0978360 0.1732493 0.5241900
vn -0.1765779 0.9489610 -0.2613299
vt 0.6472239 0.8342540
v -0.8527912 0.2085547 0.4386985
vn -0.2385160 0.9711253 -0.0050723
vt 0.6815968 0.8230847
v -0.8527912 0.4921410 0.7205315
vn -0.2385153 -0.0009512 -0.9711383
vt 0.6816001 0.8929067
v -1.0978360 0.5775298 0.7562422
vn -0.1767989 -0.2569988 -0.9501020
vt 0.6472239 0.9040700
v -1.0978360 0.7257385 0.6708008
vn -0.1497789 -0.7012948 -0.6969591
vt 0.6472211 0.9274190
v -0.8528008 0.6994095 0.6446347
vn -0.2253034 -0.6910595 -0.6867862
vt 0.6815987 0.9279004
v -1.0978360 0.8102591 0.5220651
vn -0.1768003 -0.9516776 -0.2511006
vt 0.6472239 0.9507660
v -1.0978360 0.8093246 0.3514078
vn -0.1765793 -0.9489606 0.2613304
vt 0.6472239 0.9740570
v -0.8527912 0.7740190 0.4368992
vn -0.2385172 -0.9711251 0.0050732
vt 0.6815968 0.9628881
v -0.8527879 0.6974379 0.2303654
vn -0.2247931 -0.6868691 0.6911432
vt 0.6816041 0.9973220
v -1.0571980 0.2204933 0.7085959
vn -1.0000000 0.0000000 0.0000000
vt 0.2428890 0.8766810
v -1.0571980 0.4912922 0.8207643
vn -1.0000000 -0.0000001 0.0000004
vt 0.2053200 0.8922430
v -1.0571980 0.1083248 0.4377972
vn -1.0000000 -0.0000004 0.0000001
vt 0.2804561 0.8922430
v -1.1152190 0.6008718 0.4376993
vn 0.0310323 0.9995035 -0.0054608
vt 0.3151690 0.9099550
v -0.8534343 0.5678121 0.5139846
vn 0.1379286 0.7021295 0.6985627
vt 0.2816591 0.9008929
v -0.8534343 0.5671004 0.3615145
vn 0.1371178 0.6985182 -0.7023326
vt 0.2818018 0.9238567
v -1.1152190 0.3817119 0.4378943
vn 0.0310325 -0.9995035 0.0054612
vt 0.3151710 0.9565500
v -0.8534343 0.4147718 0.3616090
vn 0.1379292 -0.7021295 -0.6985627
vt 0.2825327 0.9467741
v -0.8534343 0.4154835 0.5140791
vn 0.1371179 -0.6985180 0.7023327
vt 0.2853283 0.9616577
v -1.1152190 0.3817119 0.4378943
vn -1.0000000 0.0000000 0.0000000
vt 0.3034040 0.9715020
v -1.1152190 0.4139672 0.5151216
vn -1.0000000 0.0000000 0.0000000
vt 0.2926650 0.9670900
v -1.1152190 0.4132820 0.3597868
vn -1.0000000 0.0000000 0.0000000
vt 0.3079690 0.9822620
v -1.1152190 0.4139672 0.5151216
vn 0.0069117 -0.7073074 0.7068724
vt 0.3151710 0.8749660
v -0.8534343 0.4154835 0.5140791
vn 0.1371179 -0.6985180 0.7023327
vt 0.2790836 0.8772352
v -1.1152190 0.4911945 0.5473767
vn 0.0308403 -0.0049234 0.9995122
vt 0.3151710 0.8865780
v -1.1152190 0.5693018 0.5158066
vn 0.0089452 0.7069218 0.7072352
vt 0.3151730 0.8982660
v -1.1152190 0.5686167 0.3604720
vn 0.0069121 0.7073084 -0.7068713
vt 0.3151710 0.9215630
v -1.1152190 0.4913894 0.3282169
vn 0.0308408 0.0049240 -0.9995122
vt 0.3151710 0.9331700
v -1.1152190 0.4132820 0.3597868
vn 0.0089459 -0.7069206 -0.7072364
vt 0.3151710 0.9448630
v -1.1152190 0.5686167 0.3604720
vn -1.0000000 0.0000000 0.0000000
vt 0.2926650 0.9974300
v -1.1152190 0.4913894 0.3282169
vn -1.0000000 0.0000000 0.0000000
vt 0.3034040 0.9930210
v -1.1152190 0.6008718 0.4376993
vn -1.0000000 0.0000000 0.0000000
vt 0.2819240 0.9930210
v -1.1152190 0.4911945 0.5473767
vn -1.0000000 0.0000000 0.0000000
vt 0.2819240 0.9715020
v -1.1152190 0.5693018 0.5158066
vn -1.0000000 0.0000000 0.0000000
vt 0.2773590 0.9822620
v -1.1152190 0.4139672 0.5151216
vn 0.0069117 -0.7073074 0.7068724
vt 0.3151710 0.9681590
v -0.8378468 0.7880846 0.1391545
vn 1.0000000 0.0000000 0.0000000
vt 0.5006530 0.9972460
v -0.8378468 0.8977467 0.3273894
vn 1.0000000 0.0000000 0.0000000
vt 0.5298741 0.9895390
v -0.8378468 0.8989410 0.5454935
vn 1.0000000 0.0000000 0.0000000
vt 0.5513880 0.9682580
v -0.8378468 0.7909216 0.7355809
vn 1.0000000 0.0000000 0.0000000
vt 0.5594361 0.9390140
v -0.8378468 0.6015075 0.8447772
vn 1.0000000 0.0000000 0.0000000
vt 0.5515671 0.9097210
v -0.8378468 0.3834003 0.8449357
vn 1.0000000 0.0000000 0.0000000
vt 0.5301870 0.8883140
v -0.8378468 0.1944893 0.7364432
vn 1.0000000 0.0000000 0.0000000
vt 0.5010121 0.8804240
v -0.8378468 0.0848273 0.5482087
vn 1.0000000 0.0000000 0.0000000
vt 0.4717890 0.8881310
v -0.8378468 0.0836328 0.3301044
vn 1.0000000 0.0000000 0.0000000
vt 0.4502780 0.9094110
v -0.8378468 0.1944893 0.7364432
vn 0.0000002 -0.7049105 0.7092963
vt 0.6619210 0.9972040
v -1.0978360 0.7235187 0.2041222
vn -0.1492939 -0.6970102 0.7013474
vt 0.6472211 0.9973220
v -1.0571980 0.7620909 0.7085955
vn -1.0000000 0.0000004 0.0000011
vt 0.1897590 0.9298110
v -1.0571980 0.8742595 0.4377967
vn -1.0000000 -0.0000001 0.0000004
vt 0.2053200 0.9673780
v -1.0571980 0.7620908 0.1669980
vn -1.0000000 0.0000000 0.0000000
vt 0.2428890 0.9829400
v -1.0571980 0.4912920 0.0548297
vn -1.0000000 -0.0000004 0.0000001
vt 0.2804580 0.9673780
v -1.0571980 0.2204930 0.1669982
vn -1.0000000 -0.0000011 -0.0000004
vt 0.2960180 0.9298110

g group_44_140627936642848
f 1/1/1 2/2/2 3/3/3 
f 4/4/4 5/5/5 6/6/6 
f 7/7/7 8/8/8 9/9/9 
f 10/10/10 11/11/11 12/12/12 
f 13/13/13 14/14/14 15/15/15 
f 16/16/16 17/17/17 18/18/18 
f 19/19/19 20/20/20 21/21/21 
f 22/22/22 23/23/23 24/24/24 
f 23/23/23 25/25/25 26/26/26 
f 27/27/27 26/26/26 25/25/25 
f 28/28/28 27/27/27 29/29/29 
f 30/30/30 28/28/28 31/31/31 
f 32/32/32 33/33/33 34/34/34 
f 33/33/33 35/35/35 36/36/36 
f 37/37/37 36/36/36 35/35/35 
f 38/38/38 37/37/37 39/39/39 
f 2/2/2 38/38/38 40/40/40 
f 41/41/41 42/42/42 43/43/43 
f 42/42/42 44/44/44 45/45/45 
f 46/46/46 45/45/45 44/44/44 
f 47/47/47 48/48/48 46/46/46 
f 15/15/15 49/49/49 47/47/47 
f 50/50/50 51/51/51 52/52/52 
f 51/51/51 53/53/53 54/54/54 
f 55/55/55 54/54/54 53/53/53 
f 56/56/56 57/57/57 55/55/55 
f 12/12/12 58/58/58 56/56/56 
f 59/59/59 16/16/16 60/60/60 
f 60/60/60 61/61/61 62/62/62 
f 63/63/63 62/62/62 61/61/61 
f 64/64/64 65/65/65 63/63/63 
f 20/20/20 65/65/65 64/64/64 
f 66/66/66 19/19/19 67/67/67 
f 67/67/67 68/68/68 69/69/69 
f 70/70/70 69/69/69 68/68/68 
f 71/71/71 72/72/72 70/70/70 
f 73/73/73 72/72/72 71/71/71 
f 74/74/74 75/75/75 76/76/76 
f 77/77/77 78/78/78 79/79/79 
f 80/80/80 81/81/81 82/82/82 
f 83/83/83 84/84/84 85/85/85 
f 86/86/86 87/87/87 88/88/88 
f 88/88/88 87/87/87 78/78/78 
f 78/78/78 77/77/77 89/89/89 
f 90/90/90 79/79/79 91/91/91 
f 91/91/91 79/79/79 81/81/81 
f 81/81/81 80/80/80 92/92/92 
f 85/85/85 93/93/93 94/94/94 
f 95/95/95 96/96/96 97/97/97 
f 95/95/95 84/84/84 96/96/96 
f 93/93/93 84/84/84 95/95/95 
f 85/85/85 84/84/84 93/93/93 
f 77/77/77 79/79/79 90/90/90 
f 80/80/80 82/82/82 98/98/98 
f 88/88/88 78/78/78 89/89/89 
f 91/91/91 81/81/81 92/92/92 
f 3/3/3 22/22/22 1/1/1 
f 99/99/99 100/100/100 101/101/101 
f 101/101/101 102/102/102 103/103/103 
f 103/103/103 104/104/104 105/105/105 
f 101/101/101 103/103/103 105/105/105 
f 99/99/99 101/101/101 105/105/105 
f 106/106/106 107/107/107 5/5/5 
f 105/105/105 106/106/106 5/5/5 
f 99/99/99 105/105/105 5/5/5 
f 4/4/4 99/99/99 5/5/5 
f 9/9/9 32/32/32 7/7/7 
f 12/12/12 41/41/41 10/10/10 
f 15/15/15 50/50/50 13/13/13 
f 16/16/16 59/59/59 17/17/17 
f 19/19/19 66/66/66 20/20/20 
f 24/24/24 1/1/1 22/22/22 
f 26/26/26 24/24/24 23/23/23 
f 25/25/25 29/29/29 27/27/27 
f 29/29/29 31/31/31 28/28/28 
f 31/31/31 108/108/108 30/30/30 
f 34/34/34 7/7/7 32/32/32 
f 36/36/36 34/34/34 33/33/33 
f 35/35/35 39/39/39 37/37/37 
f 39/39/39 40/40/40 38/38/38 
f 40/40/40 3/3/3 2/2/2 
f 43/43/43 10/10/10 41/41/41 
f 45/45/45 43/43/43 42/42/42 
f 46/46/46 48/48/48 45/45/45 
f 47/47/47 49/49/49 48/48/48 
f 15/15/15 14/14/14 49/49/49 
f 52/52/52 13/13/13 50/50/50 
f 54/54/54 52/52/52 51/51/51 
f 55/55/55 57/57/57 54/54/54 
f 56/56/56 58/58/58 57/57/57 
f 12/12/12 11/11/11 58/58/58 
f 62/62/62 59/59/59 60/60/60 
f 63/63/63 65/65/65 62/62/62 
f 64/64/64 21/21/21 20/20/20 
f 69/69/69 66/66/66 67/67/67 
f 70/70/70 72/72/72 69/69/69 
f 71/71/71 109/109/109 73/73/73 
f 75/75/75 110/110/110 111/111/111 
f 111/111/111 112/112/112 113/113/113 
f 75/75/75 111/111/111 113/113/113 
f 113/113/113 114/114/114 76/76/76 
f 75/75/75 113/113/113 76/76/76 
