v 0.8378468 -0.5325441 0.8025828
vn -0.0000003 0.5013047 0.8652709
vt 0.6619210 0.8458020
v 0.8378468 -0.7428402 0.8594475
vn -0.0000002 0.0031007 0.9999952
vt 0.6619210 0.8155800
v 1.0978360 -0.5325444 0.8025830
vn -0.0000001 0.5013041 0.8652712
vt 0.6979910 0.8457990
v 0.8378468 -0.5325441 0.8025828
vn -1.0000000 0.0000000 0.0000000
vt 0.4714770 0.9893580
v 0.8378468 -0.3217084 0.4370965
vn -1.0000000 0.0000000 0.0000000
vt 0.4422270 0.9386510
v 0.8378468 -0.7428402 0.8594475
vn -1.0000000 0.0000000 0.0000000
vt 0.5006521 0.9972460
v 0.8378468 -0.9557475 0.0742298
vn 0.0000001 -0.5013041 -0.8652713
vt 0.6619201 0.6641780
v 0.8378468 -0.7454516 0.0173653
vn -0.0000002 -0.0031010 -0.9999952
vt 0.6619210 0.6339570
v 1.0978360 -0.9557475 0.0742298
vn 0.0000001 -0.5013041 -0.8652713
vt 0.6979910 0.6641790
v 1.0978360 -0.5325444 0.8025830
vn 1.0000000 0.0000000 0.0000000
vt 0.4084190 0.9890630
v 1.0978360 -0.7428403 0.8594475
vn 1.0000000 0.0000000 0.0000000
vt 0.3792220 0.9968640
v 1.0978360 -0.5785764 0.7233592
vn 1.0000000 0.0000000 0.0000000
vt 0.4020669 0.9780520
v 1.0978360 -0.9557475 0.0742298
vn 1.0000000 0.0000000 0.0000000
vt 0.3500150 0.8878350
v 1.0978360 -0.7454512 0.0173653
vn 1.0000000 0.0000000 0.0000000
vt 0.3792150 0.8800340
v 1.0978360 -0.9097152 0.1534535
vn 1.0000000 0.0000000 0.0000000
vt 0.3563681 0.8988450
v 1.0978360 -0.5785764 0.7233592
vn 0.1765796 -0.4915268 -0.8527725
vt 0.6472239 0.7409750
v 0.8527879 -0.7432390 0.7308547
vn 0.2247930 -0.0030218 -0.9744019
vt 0.6815971 0.7186675
v 0.8527912 -0.5436202 0.6377242
vn 0.2385173 -0.6873700 -0.6860263
vt 0.6815965 0.7531036
v 1.0978360 -0.9097152 0.1534535
vn 0.1765772 0.4915268 0.8527731
vt 0.6472211 0.8807790
v 0.8527878 -0.7450526 0.1459574
vn 0.2247909 0.0030211 0.9744024
vt 0.6815971 0.8579957
v 0.8527912 -0.9446719 0.2390880
vn 0.2385152 0.6873708 0.6860262
vt 0.6816001 0.8929067
v 1.0978360 -0.3784312 0.6482460
vn 0.0000003 0.8660461 0.4999642
vt 0.6979910 0.8760610
v 1.0978360 -0.3217084 0.4370964
vn 0.0000001 0.9999952 -0.0031010
vt 0.6979910 0.9063910
v 0.8378468 -0.3784310 0.6482458
vn 0.0000002 0.8660464 0.4999637
vt 0.6619210 0.8760600
v 0.8378468 -0.3797392 0.2263029
vn 0.0000006 0.8629291 -0.5053250
vt 0.6619210 0.9367210
v 0.8378468 -0.3217084 0.4370965
vn 0.0000003 0.9999952 -0.0031006
vt 0.6619210 0.9063910
v 1.0978360 -0.3797395 0.2263029
vn 0.0000004 0.8629290 -0.5053253
vt 0.6979899 0.9367210
v 0.8378468 -0.5348070 0.0729245
vn -0.0000001 0.4959280 -0.8683637
vt 0.6619210 0.9669790
v 1.0978360 -0.5348070 0.0729245
vn 0.0000002 0.4959283 -0.8683635
vt 0.6979899 0.9669790
v 0.8378468 -0.7454516 0.0173653
vn -0.0000002 -0.0031010 -0.9999952
vt 0.6619210 0.9972010
v 1.0978360 -0.7454512 0.0173653
vn 0.0000000 -0.0031003 -0.9999952
vt 0.6979921 0.9972010
v 1.0978360 -1.1098610 0.2285669
vn 0.0000000 -0.8660463 -0.4999638
vt 0.6979910 0.6944370
v 1.0978360 -1.1665829 0.4397162
vn -0.0000003 -0.9999952 0.0031003
vt 0.6979921 0.7247670
v 0.8378468 -1.1098610 0.2285669
vn -0.0000001 -0.8660463 -0.4999638
vt 0.6619210 0.6944370
v 0.8378468 -1.1085531 0.6505096
vn -0.0000002 -0.8629293 0.5053247
vt 0.6619210 0.7550960
v 0.8378468 -1.1665829 0.4397162
vn -0.0000004 -0.9999952 0.0031003
vt 0.6619210 0.7247670
v 1.0978360 -1.1085531 0.6505097
vn -0.0000003 -0.8629292 0.5053249
vt 0.6979899 0.7551000
v 0.8378468 -0.9534850 0.8038880
vn -0.0000003 -0.4959286 0.8683633
vt 0.6619210 0.7853540
v 1.0978360 -0.9534850 0.8038881
vn -0.0000004 -0.4959285 0.8683634
vt 0.6979910 0.7853540
v 1.0978360 -0.7428403 0.8594475
vn -0.0000001 0.0031004 0.9999952
vt 0.6979910 0.8155760
v 1.0978360 -0.4579895 0.6025968
vn 1.0000000 0.0000000 0.0000000
vt 0.4188480 0.9613530
v 1.0978360 -0.4136063 0.4373813
vn 1.0000000 0.0000000 0.0000000
vt 0.4250740 0.9384490
v 1.0978360 -0.3784312 0.6482460
vn 1.0000000 0.0000000 0.0000000
vt 0.4298650 0.9677190
v 1.0978360 -0.3797395 0.2263029
vn 1.0000000 0.0000000 0.0000000
vt 0.4298611 0.9091780
v 1.0978360 -0.4590133 0.2724443
vn 1.0000000 0.0000000 0.0000000
vt 0.4188440 0.9155470
v 1.0978360 -0.5348070 0.0729245
vn 1.0000000 0.0000000 0.0000000
vt 0.4084160 0.8878340
v 1.0978360 -0.5803469 0.1524321
vn 1.0000000 0.0000000 0.0000000
vt 0.4020630 0.8988450
v 1.0978360 -0.7451675 0.1089594
vn 1.0000000 0.0000000 0.0000000
vt 0.3792150 0.8927410
v 1.0978360 -1.0303020 0.2742158
vn 1.0000000 0.0000000 0.0000000
vt 0.3395901 0.9155480
v 1.0978360 -1.0746850 0.4394313
vn 1.0000000 0.0000000 0.0000000
vt 0.3333620 0.9384490
v 1.0978360 -1.1098610 0.2285669
vn 1.0000000 0.0000000 0.0000000
vt 0.3285720 0.9091830
v 1.0978360 -1.1085531 0.6505097
vn 1.0000000 0.0000000 0.0000000
vt 0.3285739 0.9677190
v 1.0978360 -1.0292790 0.6043684
vn 1.0000000 0.0000000 0.0000000
vt 0.3395920 0.9613530
v 1.0978360 -0.9534850 0.8038881
vn 1.0000000 0.0000000 0.0000000
vt 0.3500210 0.9890630
v 1.0978360 -0.9079448 0.7243806
vn 1.0000000 0.0000000 0.0000000
vt 0.3563750 0.9780550
v 1.0978360 -0.7431242 0.7678533
vn 1.0000000 0.0000000 0.0000000
vt 0.3792220 0.9841570
v 1.0978360 -0.4579895 0.6025968
vn 0.1768003 -0.8535486 -0.4900984
vt 0.6472239 0.7642660
v 0.8528008 -0.4507259 0.4374965
vn 0.2253037 -0.9742839 0.0030209
vt 0.6815926 0.7881022
v 1.0978360 -0.4590133 0.2724443
vn 0.1767996 -0.8504929 0.4953825
vt 0.6472239 0.8109620
v 0.8527912 -0.5448601 0.2378484
vn 0.2385160 -0.6831028 0.6902758
vt 0.6815968 0.8230847
v 1.0978360 -0.5803469 0.1524321
vn 0.1765777 -0.4862289 0.8558047
vt 0.6472239 0.8342540
v 1.0978360 -0.7451675 0.1089594
vn 0.1492915 0.0030663 0.9887885
vt 0.6472239 0.8575170
v 1.0978360 -1.0303020 0.2742158
vn 0.1767988 0.8535489 0.4900984
vt 0.6472239 0.9040700
v 0.8528008 -1.0375659 0.4393162
vn 0.2253035 0.9742840 -0.0030215
vt 0.6815987 0.9279003
v 1.0978360 -1.0292790 0.6043684
vn 0.1768005 0.8504926 -0.4953827
vt 0.6472239 0.9507660
v 0.8527912 -0.9434315 0.6389642
vn 0.2385173 0.6831017 -0.6902765
vt 0.6815968 0.9628881
v 1.0978360 -0.9079448 0.7243806
vn 0.1765794 0.4862280 -0.8558049
vt 0.6472239 0.9740570
v 1.0978360 -0.7431242 0.7678533
vn 0.1492939 -0.0030662 -0.9887881
vt 0.6472211 0.9973220
v 0.8527879 -0.7432390 0.7308547
vn 0.2247930 -0.0030218 -0.9744019
vt 0.6816041 0.9973220
v 1.0571980 -0.7441481 0.0554440
vn 1.0000000 0.0000000 0.0000000
vt 0.2428890 0.8766810
v 1.0571980 -0.4733494 0.1676125
vn 1.0000000 0.0000002 -0.0000004
vt 0.2804580 0.8922430
v 1.0571980 -1.0149471 0.1676126
vn 1.0000000 -0.0000002 -0.0000004
vt 0.2053200 0.8922430
v 1.1152580 -0.8215528 0.5159650
vn -0.0310320 -0.7028948 0.7106166
vt 0.3151670 0.9099540
v 0.8534734 -0.7438022 0.5459558
vn -0.1371178 0.0026959 0.9905511
vt 0.2818025 0.9238601
v 0.8534734 -0.8521178 0.4386464
vn -0.1379285 -0.9904390 0.0025217
vt 0.2816606 0.9008942
v 1.1152580 -0.6667212 0.3608577
vn -0.0310322 0.7028943 -0.7106171
vt 0.3151710 0.9565500
v 0.8534734 -0.7444720 0.3308670
vn -0.1371179 -0.0026972 -0.9905511
vt 0.2853281 0.9616587
v 0.8534734 -0.6361561 0.4381764
vn -0.1379290 0.9904389 -0.0025213
vt 0.2825325 0.9467787
v 1.1152580 -0.6667212 0.3608577
vn 1.0000000 0.0000000 0.0000000
vt 0.3034040 0.9714990
v 1.1152580 -0.6338144 0.4384114
vn 1.0000000 0.0000000 0.0000000
vt 0.3079690 0.9822580
v 1.1152580 -0.7441371 0.3290576
vn 1.0000000 0.0000000 0.0000000
vt 0.2926650 0.9670900
v 1.1152580 -0.7441371 0.3290576
vn -0.0069120 0.0003078 -0.9999761
vt 0.3151710 0.8749660
v 1.1152580 -0.8215528 0.3608578
vn -0.0308404 -0.7032807 -0.7102430
vt 0.3151710 0.8865780
v 0.8534734 -0.7444720 0.3308670
vn -0.1371179 -0.0026972 -0.9905511
vt 0.2790836 0.8772352
v 1.1152580 -0.8544595 0.4384114
vn -0.0089450 -0.9999600 -0.0002222
vt 0.3151730 0.8982660
v 1.1152580 -0.7441370 0.5477652
vn -0.0069121 -0.0003088 0.9999761
vt 0.3151710 0.9215630
v 1.1152580 -0.6667213 0.5159650
vn -0.0308406 0.7032799 0.7102438
vt 0.3151710 0.9331700
v 1.1152580 -0.6338144 0.4384114
vn -0.0089452 0.9999600 0.0002232
vt 0.3151710 0.9448630
v 1.1152580 -0.6667213 0.5159650
vn 1.0000000 0.0000000 0.0000000
vt 0.3034040 0.9930170
v 1.1152580 -0.7441370 0.5477652
vn 1.0000000 0.0000000 0.0000000
vt 0.2926650 0.9974300
v 1.1152580 -0.8215528 0.5159650
vn 1.0000000 0.0000000 0.0000000
vt 0.2819240 0.9930170
v 1.1152580 -0.8544595 0.4384114
vn 1.0000000 0.0000000 0.0000000
vt 0.2773590 0.9822580
v 1.1152580 -0.8215528 0.3608578
vn 1.0000000 0.0000000 0.0000000
vt 0.2819240 0.9714990
v 1.1152580 -0.7441371 0.3290576
vn -0.0069120 0.0003078 -0.9999761
vt 0.3151710 0.9681590
v 0.8378468 -0.3784310 0.6482458
vn -1.0000000 0.0000000 0.0000000
vt 0.4500980 0.9679470
v 0.8378468 -0.3797392 0.2263029
vn -1.0000000 0.0000000 0.0000000
vt 0.4502780 0.9094110
v 0.8378468 -0.5348070 0.0729245
vn -1.0000000 0.0000000 0.0000000
vt 0.4717920 0.8881310
v 0.8378468 -0.7454516 0.0173653
vn -1.0000000 0.0000000 0.0000000
vt 0.5010149 0.8804240
v 0.8378468 -0.9557475 0.0742298
vn -1.0000000 0.0000000 0.0000000
vt 0.5301881 0.8883140
v 0.8378468 -1.1098610 0.2285669
vn -1.0000000 0.0000000 0.0000000
vt 0.5515671 0.9097250
v 0.8378468 -1.1665829 0.4397162
vn -1.0000000 0.0000000 0.0000000
vt 0.5594361 0.9390140
v 0.8378468 -1.1085531 0.6505096
vn -1.0000000 0.0000000 0.0000000
vt 0.5513830 0.9682610
v 0.8378468 -0.9534850 0.8038880
vn -1.0000000 0.0000000 0.0000000
vt 0.5298741 0.9895390
v 1.0978360 -0.7454512 0.0173653
vn 0.0000000 -0.0031003 -0.9999952
vt 0.6979910 0.6339570
v 1.0978360 -0.7431242 0.7678533
vn 0.1492939 -0.0030662 -0.9887881
vt 0.6472239 0.7177100
v 1.0978360 -0.3217084 0.4370964
vn 1.0000000 0.0000000 0.0000000
vt 0.4378220 0.9384490
v 1.0978360 -1.1665829 0.4397162
vn 1.0000000 0.0000000 0.0000000
vt 0.3206140 0.9384520
v 1.0978360 -0.4136063 0.4373813
vn 0.1497789 -0.9887148 0.0030662
vt 0.6472250 0.7876160
v 1.0978360 -1.0746850 0.4394313
vn 0.1497790 0.9887148 -0.0030652
vt 0.6472211 0.9274190
v 1.0571980 -0.3611807 0.4384113
vn 1.0000000 0.0000011 -0.0000004
vt 0.2960180 0.9298110
v 1.0571980 -0.4733493 0.7092102
vn 1.0000000 0.0000002 -0.0000004
vt 0.2804580 0.9673780
v 1.0571980 -0.7441480 0.8213788
vn 1.0000000 0.0000000 0.0000000
vt 0.2428890 0.9829400
v 1.0571980 -1.0149471 0.7092102
vn 1.0000000 -0.0000002 -0.0000004
vt 0.2053200 0.9673780
v 1.0571980 -1.1271150 0.4384114
vn 1.0000000 -0.0000011 -0.0000004
vt 0.1897590 0.9298110

g group_40_140627936641328
f 1/1/1 2/2/2 3/3/3 
f 4/4/4 5/5/5 6/6/6 
f 7/7/7 8/8/8 9/9/9 
f 10/10/10 11/11/11 12/12/12 
f 13/13/13 14/14/14 15/15/15 
f 16/16/16 17/17/17 18/18/18 
f 19/19/19 20/20/20 21/21/21 
f 3/3/3 22/22/22 1/1/1 
f 22/22/22 23/23/23 24/24/24 
f 25/25/25 26/26/26 27/27/27 
f 28/28/28 25/25/25 29/29/29 
f 30/30/30 28/28/28 31/31/31 
f 9/9/9 32/32/32 7/7/7 
f 32/32/32 33/33/33 34/34/34 
f 35/35/35 36/36/36 37/37/37 
f 38/38/38 35/35/35 39/39/39 
f 2/2/2 38/38/38 40/40/40 
f 12/12/12 41/41/41 10/10/10 
f 41/41/41 42/42/42 43/43/43 
f 44/44/44 42/42/42 45/45/45 
f 46/46/46 45/45/45 47/47/47 
f 14/14/14 47/47/47 48/48/48 
f 15/15/15 49/49/49 13/13/13 
f 49/49/49 50/50/50 51/51/51 
f 52/52/52 50/50/50 53/53/53 
f 54/54/54 53/53/53 55/55/55 
f 11/11/11 55/55/55 56/56/56 
f 18/18/18 57/57/57 16/16/16 
f 18/18/18 58/58/58 57/57/57 
f 59/59/59 58/58/58 60/60/60 
f 61/61/61 59/59/59 60/60/60 
f 62/62/62 61/61/61 20/20/20 
f 21/21/21 63/63/63 19/19/19 
f 21/21/21 64/64/64 63/63/63 
f 65/65/65 64/64/64 66/66/66 
f 67/67/67 65/65/65 66/66/66 
f 68/68/68 67/67/67 69/69/69 
f 70/70/70 71/71/71 72/72/72 
f 73/73/73 74/74/74 75/75/75 
f 76/76/76 77/77/77 78/78/78 
f 79/79/79 80/80/80 81/81/81 
f 82/82/82 83/83/83 84/84/84 
f 83/83/83 75/75/75 84/84/84 
f 75/75/75 85/85/85 73/73/73 
f 86/86/86 87/87/87 74/74/74 
f 87/87/87 78/78/78 74/74/74 
f 78/78/78 88/88/88 76/76/76 
f 80/80/80 89/89/89 90/90/90 
f 91/91/91 92/92/92 93/93/93 
f 91/91/91 93/93/93 81/81/81 
f 90/90/90 91/91/91 81/81/81 
f 80/80/80 90/90/90 81/81/81 
f 73/73/73 86/86/86 74/74/74 
f 76/76/76 94/94/94 77/77/77 
f 83/83/83 85/85/85 75/75/75 
f 87/87/87 88/88/88 78/78/78 
f 2/2/2 40/40/40 3/3/3 
f 4/4/4 95/95/95 5/5/5 
f 5/5/5 96/96/96 97/97/97 
f 5/5/5 97/97/97 98/98/98 
f 98/98/98 99/99/99 100/100/100 
f 100/100/100 101/101/101 102/102/102 
f 98/98/98 100/100/100 102/102/102 
f 102/102/102 103/103/103 6/6/6 
f 98/98/98 102/102/102 6/6/6 
f 5/5/5 98/98/98 6/6/6 
f 8/8/8 104/104/104 9/9/9 
f 11/11/11 56/56/56 12/12/12 
f 14/14/14 48/48/48 15/15/15 
f 16/16/16 105/105/105 17/17/17 
f 19/19/19 62/62/62 20/20/20 
f 22/22/22 24/24/24 1/1/1 
f 23/23/23 26/26/26 24/24/24 
f 26/26/26 23/23/23 27/27/27 
f 25/25/25 27/27/27 29/29/29 
f 28/28/28 29/29/29 31/31/31 
f 32/32/32 34/34/34 7/7/7 
f 33/33/33 36/36/36 34/34/34 
f 36/36/36 33/33/33 37/37/37 
f 35/35/35 37/37/37 39/39/39 
f 38/38/38 39/39/39 40/40/40 
f 41/41/41 43/43/43 10/10/10 
f 42/42/42 106/106/106 43/43/43 
f 44/44/44 106/106/106 42/42/42 
f 46/46/46 44/44/44 45/45/45 
f 14/14/14 46/46/46 47/47/47 
f 49/49/49 51/51/51 13/13/13 
f 50/50/50 107/107/107 51/51/51 
f 52/52/52 107/107/107 50/50/50 
f 54/54/54 52/52/52 53/53/53 
f 11/11/11 54/54/54 55/55/55 
f 58/58/58 108/108/108 57/57/57 
f 59/59/59 108/108/108 58/58/58 
f 61/61/61 60/60/60 20/20/20 
f 64/64/64 109/109/109 63/63/63 
f 65/65/65 109/109/109 64/64/64 
f 67/67/67 66/66/66 69/69/69 
f 71/71/71 110/110/110 111/111/111 
f 111/111/111 112/112/112 113/113/113 
f 113/113/113 114/114/114 72/72/72 
f 111/111/111 113/113/113 72/72/72 
f 71/71/71 111/111/111 72/72/72 
