v 1.1066689 -2.4095430 0.9278877
vn 1.0000000 -0.0000004 -0.0000000
vt 0.5527140 6.3268862
v 1.1066689 -2.2731471 0.9628021
vn 1.0000000 -0.0000008 -0.0000000
vt 0.6098807 6.1273360
v 1.1066689 -2.4159920 0.9573544
vn 1.0000000 -0.0000004 -0.0000001
vt 0.6098821 6.3269958
v 1.1066689 -2.2731471 0.9628021
vn 0.0001009 0.0435736 0.9990503
vt 0.6098807 6.1273360
v 0.8306071 -2.4159920 0.9573544
vn 0.0000000 -0.2273844 0.9738051
vt 0.9939524 6.3269801
v 1.1066689 -2.4159920 0.9573544
vn 0.0000000 -0.2273843 0.9738051
vt 0.6098821 6.3269958
v 0.8306073 -2.2731471 0.9628021
vn -1.0000000 0.0000009 -0.0000018
vt 0.6098317 6.1273522
v 0.8306071 -2.4095430 0.9278877
vn -1.0000000 0.0000007 -0.0000000
vt 0.5526855 6.3268862
v 0.8306071 -2.4159920 0.9573544
vn -1.0000000 0.0000006 0.0000001
vt 0.6098318 6.3270121
v 1.1066680 2.5597880 0.9211861
vn 1.0000000 0.0000004 -0.0000000
vt 0.5526658 -0.5762079
v 1.1066680 1.6273760 0.8854777
vn 1.0000000 0.0000001 0.0000000
vt 0.6098318 0.6013793
v 1.1066680 1.6274461 0.8554803
vn 1.0000000 0.0000001 0.0000000
vt 0.5526854 0.6013478
v 1.1066680 2.5614359 0.9513335
vn 0.0000000 0.0935811 0.9956117
vt 0.6098253 -0.5762551
v 0.8306066 1.6273760 0.8854777
vn -0.0000050 -0.0361512 0.9993464
vt 0.9939466 0.6013478
v 1.1066680 1.6273760 0.8854777
vn 0.0000000 -0.0361508 0.9993464
vt 0.6098318 0.6013793
v 0.8306066 1.6273760 0.8854777
vn -1.0000000 -0.0000002 0.0000001
vt 0.6098318 0.6013793
v 0.8306063 2.5597880 0.9211861
vn -1.0000000 0.0000006 0.0000058
vt 0.5526853 -0.5762079
v 0.8306066 1.6274461 0.8554803
vn -1.0000000 -0.0000002 -0.0000000
vt 0.5526854 0.6013478
v 1.1066680 2.6947730 0.8847695
vn 1.0000000 0.0000004 -0.0000002
vt 0.5526643 -0.7903190
v 1.1066680 2.5614359 0.9513335
vn 1.0000000 0.0000004 -0.0000000
vt 0.6098253 -0.5762551
v 1.1066680 2.7097430 0.9122258
vn 0.0000000 0.4760275 0.8794304
vt 0.6098235 -0.7903818
v 0.8306065 2.5614359 0.9513335
vn 0.0000000 0.0935812 0.9956117
vt 0.9939271 -0.5762708
v 0.8306065 2.5614359 0.9513335
vn -1.0000000 0.0000004 0.0000056
vt 0.6098318 -0.5762393
v 0.8306063 2.6947730 0.8847695
vn -1.0000000 0.0000005 0.0000017
vt 0.5526853 -0.7903031
v 1.1066680 2.8187931 0.8137604
vn 1.0000000 0.0000000 0.0000000
vt 0.6098217 -1.0059729
v 1.1066680 2.7097430 0.9122258
vn 1.0000000 0.0000004 -0.0000002
vt 0.6098235 -0.7903818
v 1.1066680 2.8187931 0.8137604
vn 0.0000000 0.8507025 0.5256475
vt 0.6098217 -1.0059729
v 0.8306064 2.7097430 0.9122258
vn 0.0000000 0.4760276 0.8794304
vt 0.9939264 -0.7903818
v 0.8306064 2.8187931 0.8137604
vn -1.0000000 -0.0000026 -0.0000022
vt 0.6098318 -1.0059729
v 0.8306064 2.7097430 0.9122258
vn -1.0000000 0.0000006 0.0000019
vt 0.6098317 -0.7903504
v 1.1066680 2.7930779 0.7970490
vn 1.0000000 0.0000000 0.0000000
vt 0.5526551 -1.0058939
v 1.1066680 2.8597901 0.6659696
vn 1.0000000 0.0000000 0.0000000
vt 0.6098198 -1.2200840
v 1.1066680 2.8597901 0.6659696
vn 0.0000000 0.9999957 0.0029338
vt 0.6098198 -1.2200840
v 0.8306064 2.8187931 0.8137604
vn 0.0000000 0.8507025 0.5256476
vt 0.9939104 -1.0060039
v 0.8306064 2.8597901 0.6659696
vn -1.0000000 -0.0000003 0.0000003
vt 0.6098317 -1.2200680
v 0.8306065 2.7930779 0.7970490
vn -1.0000000 -0.0000027 -0.0000025
vt 0.5526854 -1.0059099
v 1.1066680 2.8288209 0.6629163
vn 1.0000000 0.0000000 0.0000000
vt 0.5526575 -1.2199888
v 1.1066680 2.8190010 0.5155071
vn 1.0000000 0.0000000 0.0000000
vt 0.6098179 -1.4398150
v 1.1066680 2.8190010 0.5155071
vn 0.0000000 0.8648028 -0.5021117
vt 0.6098179 -1.4398150
v 0.8306064 2.8597901 0.6659696
vn 0.0000000 0.9999957 0.0029338
vt 0.9939096 -1.2200990
v 0.8306064 2.8190010 0.5155071
vn -1.0000000 -0.0000002 -0.0000003
vt 0.6098318 -1.4397669
v 0.8306064 2.8288209 0.6629163
vn -1.0000000 -0.0000000 0.0000004
vt 0.5526855 -1.2199888
v 1.1066680 2.7911270 0.5304061
vn 1.0000000 0.0000000 0.0000000
vt 0.5526522 -1.4396892
v 1.1066680 2.7098720 0.4068038
vn 1.0000000 0.0000001 0.0000000
vt 0.6098160 -1.6544452
v 1.1066680 2.7098720 0.4068038
vn 0.0000000 0.5529509 -0.8332139
vt 0.6098160 -1.6544452
v 0.8306064 2.8190010 0.5155071
vn 0.0000000 0.8648029 -0.5021116
vt 0.9939089 -1.4397988
v 0.8306065 2.7098720 0.4068038
vn -1.0000000 -0.0000004 -0.0000003
vt 0.6098317 -1.6544609
v 0.8306064 2.7911270 0.5304061
vn -1.0000000 -0.0000002 -0.0000004
vt 0.5526853 -1.4396570
v 1.1066680 2.6927230 0.4318911
vn 1.0000000 0.0000001 0.0000000
vt 0.5526583 -1.6543190
v 1.1066680 1.7948000 0.0324150
vn 1.0000000 0.0000001 0.0000000
vt 0.6098050 -2.9188671
v 1.1066680 1.7948000 0.0324150
vn 0.0000000 0.2861626 -0.9581811
vt 0.6098050 -2.9188671
v 0.8306065 2.7098720 0.4068038
vn 0.0000000 0.5529510 -0.8332139
vt 0.9939157 -1.6544919
v 0.8306066 1.7948000 0.0324150
vn -1.0000000 -0.0000000 -0.0000000
vt 0.6098318 -2.9188509
v 0.8306065 2.6927230 0.4318911
vn -1.0000000 -0.0000004 -0.0000003
vt 0.5526855 -1.6543350
v 1.1066680 1.6273350 0.0302995
vn 1.0000000 0.0000001 0.0000000
vt 0.5526289 -3.1532860
v 1.1066680 1.7859230 0.0613921
vn 1.0000000 0.0000001 0.0000000
vt 0.5526382 -2.9185989
v 1.1066680 1.6296639 0.0002996
vn 0.0000000 0.0959598 -0.9953852
vt 0.6098030 -3.1535692
v 0.8306066 1.7948000 0.0324150
vn 0.0000000 0.2861626 -0.9581811
vt 0.9939113 -2.9188831
v 0.8306066 1.6273350 0.0302995
vn -1.0000000 -0.0000001 -0.0000000
vt 0.5526854 -3.1532860
v 0.8306066 1.7859230 0.0613921
vn -1.0000000 -0.0000000 -0.0000000
vt 0.5526855 -2.9185841
v 1.1066689 -1.6555049 0.0302429
vn 1.0000000 0.0000001 -0.0000000
vt 0.5525478 -7.7035608
v 1.1066680 1.6296639 0.0002996
vn 1.0000000 0.0000001 0.0000000
vt 0.6098030 -3.1535692
v 1.1066689 -1.6596010 -0.0001392
vn 0.0000000 -0.1889219 -0.9819921
vt 0.6097559 -7.7043896
v 0.8306066 1.6296639 0.0002996
vn 0.0000000 0.0959598 -0.9953852
vt 0.9938952 -3.1535850
v 0.8306066 1.6296639 0.0002996
vn -1.0000000 -0.0000001 -0.0000000
vt 0.6098318 -3.1535530
v 0.8306071 -1.6555049 0.0302429
vn -1.0000000 -0.0000001 0.0000000
vt 0.5526854 -7.7035656
v 1.1066689 -1.6555049 0.0302429
vn 1.0000000 0.0000001 -0.0000000
vt 0.5526963 8.8018436
v 1.1066689 -2.4197481 0.3037039
vn 1.0000000 0.0000001 -0.0000000
vt 0.6098939 7.5836720
v 1.1066689 -1.6596010 -0.0001392
vn 1.0000000 0.0000001 -0.0000000
vt 0.6099045 8.8025980
v 1.1066689 -1.6596010 -0.0001392
vn 0.0000000 -0.1889219 -0.9819921
vt 0.6099045 8.8025980
v 0.8306071 -2.4197481 0.3037039
vn 0.0000000 -0.4013827 -0.9159104
vt 0.9939077 7.5836558
v 0.8306071 -1.6596010 -0.0001392
vn 0.0000000 -0.1889219 -0.9819921
vt 0.9938810 8.8017483
v 0.8306071 -1.6596010 -0.0001392
vn -1.0000000 -0.0000001 0.0000000
vt 0.6098317 8.8017797
v 0.8306071 -2.4100580 0.3321900
vn -1.0000000 -0.0000002 0.0000001
vt 0.5526855 7.5835781
v 0.8306071 -1.6555049 0.0302429
vn -1.0000000 -0.0000001 0.0000000
vt 0.5526855 8.8018436
v 1.1066689 -2.5334520 0.3916745
vn 1.0000000 0.0000000 0.0000000
vt 0.5527321 7.3774171
v 1.1066689 -2.4100580 0.3321900
vn 1.0000000 0.0000001 -0.0000000
vt 0.5527188 7.5835781
v 1.1066689 -2.5536430 0.3676887
vn 0.0000000 -0.6259965 -0.7798259
vt 0.6098918 7.3775272
v 1.1066689 -2.4197481 0.3037039
vn 0.0000000 -0.4013827 -0.9159104
vt 0.6098939 7.5836720
v 0.8306071 -2.4197481 0.3037039
vn -1.0000000 -0.0000003 -0.0000000
vt 0.6098318 7.5836878
v 0.8306071 -2.5334520 0.3916745
vn -1.0000000 -0.0000014 -0.0000011
vt 0.5526854 7.3774171
v 1.1066689 -2.6185739 0.4984433
vn 1.0000000 -0.0000070 -0.0000024
vt 0.5527350 7.1675410
v 1.1066689 -2.5536430 0.3676887
vn 1.0000000 -0.0000005 -0.0000003
vt 0.6098918 7.3775272
v 1.1066689 -2.6466830 0.4866414
vn 0.0000000 -0.9031327 -0.4293616
vt 0.6098896 7.1676502
v 0.8306072 -2.5536430 0.3676887
vn 0.0000000 -0.6259966 -0.7798258
vt 0.9939222 7.3775110
v 0.8306072 -2.5536430 0.3676887
vn -1.0000000 -0.0000012 -0.0000011
vt 0.6098318 7.3775430
v 0.8306071 -2.6185739 0.4984433
vn -1.0000000 0.0000015 0.0000007
vt 0.5526855 7.1675410
v 1.1066689 -2.6489990 0.6318718
vn 1.0000000 -0.0000004 -0.0000008
vt 0.5527297 6.9599619
v 1.1066689 -2.6466830 0.4866414
vn 1.0000000 -0.0000068 -0.0000026
vt 0.6098896 7.1676502
v 1.1066689 -2.6793799 0.6302924
vn 0.0000000 -0.9999892 -0.0046472
vt 0.6098884 6.9600878
v 0.8306071 -2.6466830 0.4866414
vn 0.0000000 -0.9031327 -0.4293616
vt 0.9939296 7.1676350
v 0.8306072 -2.6793799 0.6302924
vn -1.0000000 0.0000001 0.0000003
vt 0.6098318 6.9601040
v 0.8306071 -2.6466830 0.4866414
vn -1.0000000 0.0000018 0.0000009
vt 0.6098317 7.1676822
v 1.1066689 -2.6473000 0.7775406
vn 1.0000000 0.0000000 0.0000000
vt 0.6098863 6.7497239
v 1.1066689 -2.6793799 0.6302924
vn 1.0000000 0.0000000 -0.0000008
vt 0.6098884 6.9600878
v 1.1066689 -2.6473000 0.7775406
vn 0.0000000 -0.9025235 0.4306406
vt 0.6098863 6.7497239
v 0.8306072 -2.6793799 0.6302924
vn 0.0000000 -0.9999892 -0.0046474
vt 0.9939387 6.9600730
v 0.8306072 -2.6473000 0.7775406
vn -1.0000000 -0.0000001 -0.0000002
vt 0.6098318 6.7497401
v 0.8306072 -2.6489990 0.6318718
vn -1.0000000 -0.0000000 0.0000002
vt 0.5526854 6.9599781
v 1.1066689 -2.6185150 0.7652818
vn 1.0000000 0.0000000 0.0000000
vt 0.5527244 6.7495980
v 1.1066689 -2.5518439 0.8965784
vn 1.0000000 0.0000004 0.0000002
vt 0.6098841 6.5374861
v 1.1066689 -2.5518439 0.8965784
vn 0.0000000 -0.6113628 0.7913505
vt 0.6098841 6.5374861
v 0.8306072 -2.6473000 0.7775406
vn 0.0000000 -0.9025235 0.4306407
vt 0.9939508 6.7496920
v 0.8306071 -2.5518439 0.8965784
vn -1.0000000 -0.0000003 -0.0000003
vt 0.6098318 6.5375018
v 0.8306072 -2.6185150 0.7652818
vn -1.0000000 -0.0000001 -0.0000002
vt 0.5526855 6.7496138
v 1.1066689 -2.5331740 0.8720745
vn 1.0000000 0.0000004 0.0000003
vt 0.5527202 6.5373759
v 0.8306071 -2.5518439 0.8965784
vn 0.0000000 -0.6113627 0.7913506
vt 0.9939528 6.5374699
v 0.8306071 -2.5331740 0.8720745
vn -1.0000000 -0.0000004 -0.0000003
vt 0.5526854 6.5373921
v 0.8306074 -2.2731290 0.9332577
vn -0.0001015 -0.0431110 -0.9990703
vt 0.1838802 6.1272421
v 1.1066689 -2.4095430 0.9278877
vn -0.0000003 0.2296330 -0.9732773
vt 0.5527140 6.3268862
v 0.8306071 -2.4095430 0.9278877
vn 0.0000000 0.2296338 -0.9732771
vt 0.1838824 6.3268862
v 0.8306063 2.5597880 0.9211861
vn 0.0000000 -0.0964262 -0.9953402
vt 0.1838382 -0.5762079
v 1.1066680 1.6274461 0.8554803
vn 0.0000050 0.0360842 -0.9993488
vt 0.5526854 0.6013478
v 0.8306066 1.6274461 0.8554803
vn 0.0000000 0.0360847 -0.9993488
vt 0.1838539 0.6013478
v 0.8306063 2.6947730 0.8847695
vn 0.0000000 -0.4759433 -0.8794760
vt 0.1838452 -0.7903031
v 1.1066680 2.5597880 0.9211861
vn 0.0000000 -0.0964261 -0.9953402
vt 0.5526658 -0.5762079
v 0.8306065 2.7930779 0.7970490
vn 0.0000000 -0.8518293 -0.5238194
vt 0.1838405 -1.0059099
v 1.1066680 2.6947730 0.8847695
vn 0.0000000 -0.4759433 -0.8794760
vt 0.5526643 -0.7903190
v 0.8306064 2.8288209 0.6629163
vn 0.0000000 -0.9999651 0.0083586
vt 0.1838435 -1.2199888
v 1.1066680 2.7930779 0.7970490
vn 0.0000000 -0.8518293 -0.5238194
vt 0.5526551 -1.0058939
v 0.8306064 2.7911270 0.5304061
vn 0.0000000 -0.8623076 0.5063848
vt 0.1838428 -1.4396570
v 1.1066680 2.8288209 0.6629163
vn 0.0000000 -0.9999651 0.0083585
vt 0.5526575 -1.2199888
v 0.8306065 2.6927230 0.4318911
vn 0.0000000 -0.5538000 0.8326497
vt 0.1838306 -1.6543350
v 1.1066680 2.7911270 0.5304061
vn 0.0000000 -0.8623075 0.5063850
vt 0.5526522 -1.4396892
v 0.8306066 1.7859230 0.0613921
vn 0.0000000 -0.2866623 0.9580317
vt 0.1838185 -2.9185841
v 1.1066680 2.6927230 0.4318911
vn 0.0000000 -0.5538000 0.8326497
vt 0.5526583 -1.6543190
v 0.8306066 1.6273350 0.0302995
vn 0.0000000 -0.0966587 0.9953176
vt 0.1838176 -3.1532860
v 1.1066680 1.7859230 0.0613921
vn 0.0000000 -0.2866623 0.9580317
vt 0.5526382 -2.9185989
v 0.8306071 -1.6555049 0.0302429
vn 0.0000000 0.1891696 0.9819444
vt 0.1837595 -7.7035656
v 1.1066680 1.6273350 0.0302995
vn 0.0000000 -0.0966587 0.9953176
vt 0.5526289 -3.1532860
v 0.8306071 -2.4100580 0.3321900
vn 0.0000000 0.4031214 0.9151465
vt 0.1838490 7.5835781
v 1.1066689 -1.6555049 0.0302429
vn 0.0000000 0.1891696 0.9819444
vt 0.5526963 8.8018436
v 0.8306071 -1.6555049 0.0302429
vn 0.0000000 0.1891696 0.9819444
vt 0.1838392 8.8018436
v 0.8306071 -2.5334520 0.3916745
vn 0.0000000 0.6236996 0.7816641
vt 0.1838567 7.3774171
v 1.1066689 -2.4100580 0.3321900
vn 0.0000000 0.4031214 0.9151465
vt 0.5527188 7.5835781
v 0.8306071 -2.6185739 0.4984433
vn 0.0000000 0.9010432 0.4337294
vt 0.1838657 7.1675410
v 1.1066689 -2.5334520 0.3916745
vn 0.0000000 0.6236997 0.7816641
vt 0.5527321 7.3774171
v 0.8306072 -2.6489990 0.6318718
vn 0.0000000 1.0000000 -0.0002222
vt 0.1838734 6.9599781
v 1.1066689 -2.6185739 0.4984433
vn 0.0000000 0.9010432 0.4337294
vt 0.5527350 7.1675410
v 0.8306072 -2.6185150 0.7652818
vn 0.0000000 0.9006976 -0.4344467
vt 0.1838800 6.7496138
v 1.1066689 -2.6489990 0.6318718
vn 0.0000000 1.0000000 -0.0002222
vt 0.5527297 6.9599619
v 0.8306071 -2.5331740 0.8720745
vn 0.0000000 0.6133706 -0.7897952
vt 0.1838820 6.5373921
v 1.1066689 -2.6185150 0.7652818
vn 0.0000000 0.9006976 -0.4344467
vt 0.5527244 6.7495980
v 1.1066689 -2.5331740 0.8720745
vn 0.0000000 0.6133708 -0.7897952
vt 0.5527202 6.5373759
v 0.9892825 -1.6555049 0.0302428
vn 0.9748225 0.0380618 0.2197098
vt 0.1199789 8.8025980
v 0.9656072 -2.3823161 0.4268673
vn 0.9721157 0.0871397 0.2177104
vt 0.0039935 7.5825229
v 0.9892826 -2.4100580 0.3321900
vn 0.9721496 0.0870710 0.2175865
vt 0.1199789 7.5829172
v 0.9892825 -1.6555049 0.0302428
vn 0.9748225 0.0380618 0.2197098
vt 0.1199789 -7.7043953
v 0.9656064 1.6233180 0.1353219
vn 0.9755188 -0.0000037 0.2199163
vt 0.0039935 -3.1529551
v 0.9656072 -1.6555229 0.1352565
vn 0.9743585 0.0486530 0.2196780
vt 0.0039935 -7.7000179
v 0.9892821 1.7859230 0.0613922
vn 0.9755360 -0.0827248 0.2036817
vt 0.1199789 -2.9173241
v 0.9656063 2.6419101 0.5224447
vn 0.9746724 -0.0845556 0.2070365
vt 0.0039935 -1.6540990
v 0.9656065 1.7488160 0.1598843
vn 0.9756058 -0.0825752 0.2034075
vt 0.0039935 -2.9185050
v 0.9892821 2.5597880 0.9211864
vn 0.9784427 0.0145969 -0.2060017
vt 0.1199789 -0.5755782
v 0.9656065 1.6431940 0.7437865
vn 0.9784538 0.0079155 -0.2063142
vt 0.0039935 0.6024025
v 0.9656064 2.5716000 0.8096007
vn 0.9784318 0.0146071 -0.2060529
vt 0.0039935 -0.5751846
v 0.9419311 2.5597880 0.9211864
vn -0.9784436 0.0145965 -0.2059979
vt 0.1199789 -0.5748224
v 0.9656065 1.6431940 0.7437865
vn -0.9784542 0.0079153 -0.2063121
vt 0.0039935 0.6024025
v 0.9419311 1.6274461 0.8554804
vn -0.9784337 0.0070029 -0.2064423
vt 0.1199789 0.6028118
v 0.9419311 1.7859230 0.0613922
vn -0.9755366 -0.0827240 0.2036791
vt 0.1199789 -2.9200320
v 0.9656063 2.6419101 0.5224447
vn -0.9746734 -0.0845541 0.2070325
vt 0.0039935 -1.6540990
v 0.9419311 2.6927230 0.4318911
vn -0.9746072 -0.0846931 0.2072872
vt 0.1199789 -1.6554210
v 0.9419316 -1.6555049 0.0302428
vn -0.9748094 0.0379985 0.2197791
vt 0.1199789 -7.6956158
v 0.9656064 1.6233180 0.1353219
vn -0.9755196 -0.0000040 0.2199128
vt 0.0039935 -3.1529551
v 0.9419311 1.6273350 0.0302995
vn -0.9755197 -0.0000040 0.2199124
vt 0.1199789 -3.1539307
v 0.9419315 -2.4100580 0.3321900
vn -0.9721141 0.0873092 0.2176493
vt 0.1199789 7.5821142
v 0.9656072 -1.6555229 0.1352565
vn -0.9743781 0.0485103 0.2196226
vt 0.0039935 8.8022213
v 0.9419316 -1.6555049 0.0302428
vn -0.9748094 0.0379985 0.2197791
vt 0.1199789 8.8017797
v 1.1066689 -2.2731290 0.9332575
vn 1.0000000 -0.0000008 -0.0000000
vt 0.5527112 6.1272421
v 1.1066689 -1.6110810 0.8496127
vn 1.0000000 0.0000002 -0.0000000
vt 0.5527068 5.1893268
v 1.1066689 -1.6109730 0.8792312
vn 1.0000000 0.0000002 -0.0000000
vt 0.6098725 5.1892209
v 1.1066689 -1.6109730 0.8792312
vn 0.0003200 0.0620757 0.9980714
vt 0.6098725 5.1892209
v 0.8306072 -1.6088210 0.8791844
vn 0.0002093 0.0614031 0.9981130
vt 0.9939499 5.1861391
v 0.8306072 -1.6089290 0.8495658
vn -1.0000000 -0.0000003 -0.0000020
vt 0.5526853 5.1862779
v 0.8306072 -1.6088210 0.8791844
vn -1.0000000 -0.0000003 -0.0000020
vt 0.6098317 5.1861839
v 0.8306072 -1.6089290 0.8495658
vn -0.0003145 -0.0614115 -0.9981125
vt 0.1838757 5.1862779
v 1.1066689 -1.6110810 0.8496127
vn -0.0002136 -0.0620826 -0.9980710
vt 0.5527068 5.1893268
v 0.9656073 -2.3939700 0.8178054
vn 0.9768404 -0.0214973 -0.2128864
vt 0.0039935 6.3260670
v 0.9656072 -1.6103910 0.7372319
vn 0.9775975 -0.0101998 -0.2102359
vt 0.0039935 5.2151508
v 0.9892825 -1.6101750 0.8472927
vn 0.9775563 -0.0108507 -0.2103946
vt 0.1199789 5.2161632
v 0.9656072 -1.6103910 0.7372319
vn -0.9776006 -0.0102211 -0.2102202
vt 0.0039935 5.2151508
v 0.9419315 -1.6098059 0.8472849
vn -0.9775599 -0.0108253 -0.2103797
vt 0.1199789 5.2154002
v 0.8306074 -2.2731290 0.9332577
vn -1.0000000 0.0000009 -0.0000020
vt 0.5526853 6.1272421
v 0.9892821 1.6274461 0.8554804
vn 0.9784334 0.0070032 -0.2064440
vt 0.1199789 0.6019775
v 0.9656073 -2.3939700 0.8178054
vn -0.9768410 -0.0214901 -0.2128847
vt 0.0039935 6.3260670
v 0.9419316 -2.4095430 0.9278878
vn -0.9767901 -0.0214797 -0.2131190
vt 0.1199789 6.3257990
v 0.8306073 -2.2731471 0.9628021
vn 0.0000000 0.0435320 0.9990520
vt 0.9939507 6.1273050
v 1.1066689 -1.6596010 -0.0001392
vn 1.0000000 0.0000001 -0.0000000
vt 0.6097559 -7.7043896
v 0.8306071 -1.6596010 -0.0001392
vn 0.0000000 -0.1889219 -0.9819921
vt 0.9939021 -7.7043953
v 0.8306071 -1.6596010 -0.0001392
vn -1.0000000 -0.0000001 0.0000000
vt 0.6098318 -7.7043686
v 1.1066689 -2.2731290 0.9332575
vn -0.0000009 -0.0431533 -0.9990684
vt 0.5527112 6.1272421
v 1.1066689 -1.6555049 0.0302429
vn 0.0000000 0.1891696 0.9819444
vt 0.5525478 -7.7035608
v 0.9656072 -1.6555229 0.1352565
vn 0.9743585 0.0486530 0.2196780
vt 0.0039935 8.8022213
v 0.9892821 1.6273350 0.0302995
vn 0.9755188 -0.0000037 0.2199160
vt 0.1199789 -3.1519470
v 0.9892821 2.6927230 0.4318911
vn 0.9746062 -0.0846946 0.2072912
vt 0.1199789 -1.6534848
v 0.9656064 2.5716000 0.8096007
vn -0.9784327 0.0146067 -0.2060490
vt 0.0039935 -0.5751846
v 0.9656065 1.7488160 0.1598843
vn -0.9756064 -0.0825744 0.2034050
vt 0.0039935 -2.9185050
v 0.9656072 -1.6555229 0.1352565
vn -0.9743781 0.0485103 0.2196226
vt 0.0039935 -7.7000179
v 0.9656072 -2.3823161 0.4268673
vn -0.9721442 0.0872783 0.2175274
vt 0.0039935 7.5825229
v 0.9892825 -2.4095430 0.9278878
vn 0.9767905 -0.0214871 -0.2131165
vt 0.1199789 6.3263030

g group_11_140627936630224
f 1/1/1 2/2/2 3/3/3 
f 4/4/4 5/5/5 6/6/6 
f 7/7/7 8/8/8 9/9/9 
f 10/10/10 11/11/11 12/12/12 
f 13/13/13 14/14/14 15/15/15 
f 16/16/16 17/17/17 18/18/18 
f 19/19/19 20/20/20 10/10/10 
f 21/21/21 22/22/22 13/13/13 
f 23/23/23 24/24/24 17/17/17 
f 19/19/19 25/25/25 26/26/26 
f 27/27/27 28/28/28 21/21/21 
f 29/29/29 24/24/24 30/30/30 
f 31/31/31 32/32/32 25/25/25 
f 33/33/33 34/34/34 27/27/27 
f 35/35/35 36/36/36 29/29/29 
f 37/37/37 38/38/38 32/32/32 
f 39/39/39 40/40/40 33/33/33 
f 41/41/41 42/42/42 35/35/35 
f 43/43/43 44/44/44 38/38/38 
f 45/45/45 46/46/46 39/39/39 
f 47/47/47 48/48/48 41/41/41 
f 49/49/49 50/50/50 44/44/44 
f 51/51/51 52/52/52 45/45/45 
f 53/53/53 54/54/54 47/47/47 
f 55/55/55 50/50/50 56/56/56 
f 57/57/57 58/58/58 51/51/51 
f 53/53/53 59/59/59 60/60/60 
f 61/61/61 62/62/62 55/55/55 
f 63/63/63 64/64/64 57/57/57 
f 65/65/65 66/66/66 59/59/59 
f 67/67/67 68/68/68 69/69/69 
f 70/70/70 71/71/71 72/72/72 
f 73/73/73 74/74/74 75/75/75 
f 76/76/76 68/68/68 77/77/77 
f 78/78/78 71/71/71 79/79/79 
f 80/80/80 81/81/81 74/74/74 
f 82/82/82 83/83/83 76/76/76 
f 84/84/84 85/85/85 78/78/78 
f 86/86/86 87/87/87 81/81/81 
f 88/88/88 89/89/89 82/82/82 
f 90/90/90 91/91/91 84/84/84 
f 92/92/92 87/87/87 93/93/93 
f 88/88/88 94/94/94 95/95/95 
f 96/96/96 97/97/97 90/90/90 
f 98/98/98 99/99/99 92/92/92 
f 100/100/100 101/101/101 94/94/94 
f 102/102/102 103/103/103 96/96/96 
f 104/104/104 105/105/105 98/98/98 
f 1/1/1 101/101/101 106/106/106 
f 6/6/6 107/107/107 102/102/102 
f 104/104/104 8/8/8 108/108/108 
f 109/109/109 110/110/110 111/111/111 
f 112/112/112 113/113/113 114/114/114 
f 115/115/115 116/116/116 112/112/112 
f 117/117/117 118/118/118 115/115/115 
f 119/119/119 120/120/120 117/117/117 
f 121/121/121 122/122/122 119/119/119 
f 123/123/123 124/124/124 121/121/121 
f 125/125/125 126/126/126 123/123/123 
f 127/127/127 128/128/128 125/125/125 
f 129/129/129 130/130/130 127/127/127 
f 131/131/131 132/132/132 133/133/133 
f 134/134/134 135/135/135 131/131/131 
f 136/136/136 137/137/137 134/134/134 
f 138/138/138 139/139/139 136/136/136 
f 140/140/140 141/141/141 138/138/138 
f 142/142/142 143/143/143 140/140/140 
f 111/111/111 144/144/144 142/142/142 
f 145/145/145 146/146/146 147/147/147 
f 148/148/148 149/149/149 150/150/150 
f 151/151/151 152/152/152 153/153/153 
f 154/154/154 155/155/155 156/156/156 
f 157/157/157 158/158/158 159/159/159 
f 160/160/160 161/161/161 162/162/162 
f 163/163/163 164/164/164 165/165/165 
f 166/166/166 167/167/167 168/168/168 
f 169/169/169 170/170/170 171/171/171 
f 4/4/4 172/172/172 173/173/173 
f 174/174/174 175/175/175 16/16/16 
f 109/109/109 176/176/176 177/177/177 
f 178/178/178 179/179/179 180/180/180 
f 159/159/159 181/181/181 182/182/182 
f 170/170/170 12/12/12 11/11/11 
f 172/172/172 15/15/15 14/14/14 
f 174/174/174 183/183/183 7/7/7 
f 176/176/176 114/114/114 113/113/113 
f 179/179/179 155/155/155 184/184/184 
f 182/182/182 185/185/185 186/186/186 
f 1/1/1 169/169/169 2/2/2 
f 4/4/4 187/187/187 5/5/5 
f 7/7/7 183/183/183 8/8/8 
f 10/10/10 20/20/20 11/11/11 
f 13/13/13 22/22/22 14/14/14 
f 16/16/16 23/23/23 17/17/17 
f 19/19/19 26/26/26 20/20/20 
f 21/21/21 28/28/28 22/22/22 
f 23/23/23 30/30/30 24/24/24 
f 19/19/19 31/31/31 25/25/25 
f 27/27/27 34/34/34 28/28/28 
f 29/29/29 36/36/36 24/24/24 
f 31/31/31 37/37/37 32/32/32 
f 33/33/33 40/40/40 34/34/34 
f 35/35/35 42/42/42 36/36/36 
f 37/37/37 43/43/43 38/38/38 
f 39/39/39 46/46/46 40/40/40 
f 41/41/41 48/48/48 42/42/42 
f 43/43/43 49/49/49 44/44/44 
f 45/45/45 52/52/52 46/46/46 
f 47/47/47 54/54/54 48/48/48 
f 49/49/49 56/56/56 50/50/50 
f 51/51/51 58/58/58 52/52/52 
f 53/53/53 60/60/60 54/54/54 
f 55/55/55 62/62/62 50/50/50 
f 57/57/57 64/64/64 58/58/58 
f 53/53/53 65/65/65 59/59/59 
f 61/61/61 188/188/188 62/62/62 
f 63/63/63 189/189/189 64/64/64 
f 65/65/65 190/190/190 66/66/66 
f 67/67/67 77/77/77 68/68/68 
f 70/70/70 79/79/79 71/71/71 
f 73/73/73 80/80/80 74/74/74 
f 76/76/76 83/83/83 68/68/68 
f 78/78/78 85/85/85 71/71/71 
f 80/80/80 86/86/86 81/81/81 
f 82/82/82 89/89/89 83/83/83 
f 84/84/84 91/91/91 85/85/85 
f 86/86/86 93/93/93 87/87/87 
f 88/88/88 95/95/95 89/89/89 
f 90/90/90 97/97/97 91/91/91 
f 92/92/92 99/99/99 87/87/87 
f 88/88/88 100/100/100 94/94/94 
f 96/96/96 103/103/103 97/97/97 
f 98/98/98 105/105/105 99/99/99 
f 100/100/100 106/106/106 101/101/101 
f 102/102/102 107/107/107 103/103/103 
f 104/104/104 108/108/108 105/105/105 
f 1/1/1 3/3/3 101/101/101 
f 6/6/6 5/5/5 107/107/107 
f 104/104/104 9/9/9 8/8/8 
f 109/109/109 191/191/191 110/110/110 
f 112/112/112 116/116/116 113/113/113 
f 115/115/115 118/118/118 116/116/116 
f 117/117/117 120/120/120 118/118/118 
f 119/119/119 122/122/122 120/120/120 
f 121/121/121 124/124/124 122/122/122 
f 123/123/123 126/126/126 124/124/124 
f 125/125/125 128/128/128 126/126/126 
f 127/127/127 130/130/130 128/128/128 
f 129/129/129 192/192/192 130/130/130 
f 131/131/131 135/135/135 132/132/132 
f 134/134/134 137/137/137 135/135/135 
f 136/136/136 139/139/139 137/137/137 
f 138/138/138 141/141/141 139/139/139 
f 140/140/140 143/143/143 141/141/141 
f 142/142/142 144/144/144 143/143/143 
f 111/111/111 110/110/110 144/144/144 
f 145/145/145 193/193/193 146/146/146 
f 148/148/148 194/194/194 149/149/149 
f 151/151/151 195/195/195 152/152/152 
f 154/154/154 184/184/184 155/155/155 
f 157/157/157 196/196/196 158/158/158 
f 160/160/160 197/197/197 161/161/161 
f 163/163/163 198/198/198 164/164/164 
f 166/166/166 199/199/199 167/167/167 
f 171/171/171 2/2/2 169/169/169 
f 173/173/173 187/187/187 4/4/4 
f 16/16/16 18/18/18 174/174/174 
f 177/177/177 191/191/191 109/109/109 
f 180/180/180 200/200/200 178/178/178 
f 159/159/159 158/158/158 181/181/181 
f 11/11/11 171/171/171 170/170/170 
f 14/14/14 173/173/173 172/172/172 
f 7/7/7 175/175/175 174/174/174 
f 113/113/113 177/177/177 176/176/176 
f 184/184/184 180/180/180 179/179/179 
f 182/182/182 181/181/181 185/185/185 
