v 0.8378695 1.8309770 0.8118226
vn -0.0000003 0.5013053 0.8652705
vt 0.6619210 0.8458030
v 0.8378695 1.6206810 0.8686874
vn -0.0000002 0.0031011 0.9999952
vt 0.6619210 0.8155760
v 1.0978580 1.8309770 0.8118228
vn -0.0000001 0.5013046 0.8652709
vt 0.6979910 0.8458020
v 0.8378695 1.8309770 0.8118226
vn -1.0000000 0.0000000 0.0000000
vt 0.4714770 0.9893590
v 0.8378695 2.0418119 0.4463364
vn -1.0000000 0.0000000 0.0000000
vt 0.4422270 0.9386550
v 0.8378695 1.6206810 0.8686874
vn -1.0000000 0.0000000 0.0000000
vt 0.5006521 0.9972460
v 0.8378695 1.4077730 0.0834696
vn 0.0000001 -0.5013041 -0.8652713
vt 0.6619201 0.6641790
v 0.8378695 1.6180691 0.0266052
vn -0.0000002 -0.0031009 -0.9999952
vt 0.6619210 0.6339570
v 1.0978580 1.4077730 0.0834697
vn 0.0000001 -0.5013041 -0.8652713
vt 0.6979910 0.6641790
v 1.0978580 1.8309770 0.8118228
vn 1.0000000 0.0000000 0.0000000
vt 0.4083931 0.9890099
v 1.0978580 1.6206810 0.8686874
vn 1.0000000 0.0000000 0.0000000
vt 0.3792160 0.9968875
v 1.0978580 1.7849450 0.7325990
vn 1.0000000 0.0000000 0.0000000
vt 0.4020132 0.9780149
v 1.0978580 1.4077730 0.0834697
vn 1.0000000 0.0000000 0.0000000
vt 0.3498663 0.8878911
v 1.0978580 1.6180700 0.0266052
vn 1.0000000 0.0000000 0.0000000
vt 0.3790467 0.8800151
v 1.0978580 1.4538060 0.1626934
vn 1.0000000 0.0000000 0.0000000
vt 0.3562459 0.8988852
v 1.0978580 1.7849450 0.7325990
vn 0.1765789 -0.4915278 -0.8527721
vt 0.6472239 0.7409750
v 0.8528106 1.6202821 0.7400950
vn 0.2247920 -0.0030224 -0.9744021
vt 0.6815971 0.7186675
v 0.8528140 1.8199010 0.6469640
vn 0.2385170 -0.6873708 -0.6860256
vt 0.6815965 0.7531036
v 1.0978580 1.4538060 0.1626934
vn 0.1765772 0.4915268 0.8527731
vt 0.6472211 0.8807790
v 0.8528106 1.6184680 0.1551973
vn 0.2247910 0.0030210 0.9744023
vt 0.6815971 0.8579957
v 0.8528140 1.4188490 0.2483279
vn 0.2385151 0.6873709 0.6860261
vt 0.6816001 0.8929067
v 1.0978580 1.9850900 0.6574858
vn 0.0000003 0.8660463 0.4999638
vt 0.6979921 0.8760570
v 1.0978580 2.0418119 0.4463362
vn 0.0000001 0.9999952 -0.0031008
vt 0.6979910 0.9063910
v 0.8378695 1.9850900 0.6574855
vn 0.0000002 0.8660466 0.4999633
vt 0.6619240 0.8760570
v 0.8378695 1.9837821 0.2355428
vn 0.0000006 0.8629293 -0.5053247
vt 0.6619210 0.9367240
v 0.8378695 2.0418119 0.4463364
vn 0.0000003 0.9999952 -0.0031004
vt 0.6619210 0.9063910
v 1.0978580 1.9837810 0.2355428
vn 0.0000004 0.8629292 -0.5053250
vt 0.6979910 0.9367240
v 0.8378695 1.8287140 0.0821644
vn -0.0000001 0.4959281 -0.8683636
vt 0.6619210 0.9669820
v 1.0978580 1.8287140 0.0821644
vn 0.0000002 0.4959283 -0.8683635
vt 0.6979921 0.9669790
v 0.8378695 1.6180691 0.0266052
vn -0.0000002 -0.0031009 -0.9999952
vt 0.6619210 0.9972040
v 1.0978580 1.6180700 0.0266052
vn 0.0000000 -0.0031003 -0.9999952
vt 0.6979910 0.9972040
v 1.0978580 1.2536600 0.2378068
vn 0.0000000 -0.8660463 -0.4999638
vt 0.6979910 0.6944370
v 1.0978580 1.1969380 0.4489561
vn -0.0000003 -0.9999952 0.0031003
vt 0.6979910 0.7247700
v 0.8378695 1.2536600 0.2378068
vn -0.0000001 -0.8660463 -0.4999638
vt 0.6619210 0.6944370
v 0.8378695 1.2549680 0.6597494
vn -0.0000003 -0.8629293 0.5053247
vt 0.6619210 0.7551000
v 0.8378695 1.1969380 0.4489561
vn -0.0000004 -0.9999952 0.0031003
vt 0.6619210 0.7247700
v 1.0978580 1.2549680 0.6597496
vn -0.0000005 -0.8629290 0.5053252
vt 0.6979899 0.7551010
v 0.8378695 1.4100360 0.8131280
vn -0.0000000 -0.4959285 0.8683634
vt 0.6619210 0.7853590
v 1.0978580 1.4100360 0.8131280
vn -0.0000002 -0.4959284 0.8683634
vt 0.6979899 0.7853590
v 1.0978580 1.6206810 0.8686874
vn 0.0000000 0.0031007 0.9999952
vt 0.6979921 0.8155800
v 1.0978580 1.9055310 0.6118366
vn 1.0000000 0.0000000 0.0000000
vt 0.4187596 0.9612719
v 1.0978580 1.9499151 0.4466212
vn 1.0000000 0.0000000 0.0000000
vt 0.4249632 0.9383571
v 1.0978580 1.9850900 0.6574858
vn 1.0000000 0.0000000 0.0000000
vt 0.4297875 0.9676182
v 1.0978580 1.9837810 0.2355428
vn 1.0000000 0.0000000 0.0000000
vt 0.4297377 0.9090822
v 1.0978580 1.9045080 0.2816842
vn 1.0000000 0.0000000 0.0000000
vt 0.4187255 0.9154584
v 1.0978580 1.8287140 0.0821644
vn 1.0000000 0.0000000 0.0000000
vt 0.4082646 0.8877568
v 1.0978580 1.7831740 0.1616721
vn 1.0000000 0.0000000 0.0000000
vt 0.4019296 0.8987784
v 1.0978580 1.6183530 0.1181993
vn 1.0000000 0.0000000 0.0000000
vt 0.3790753 0.8927233
v 1.0978580 1.3332191 0.2834557
vn 1.0000000 0.0000000 0.0000000
vt 0.3394978 0.9156292
v 1.0978580 1.2888360 0.4486712
vn 1.0000000 0.0000000 0.0000000
vt 0.3332978 0.9385466
v 1.0978580 1.2536600 0.2378068
vn 1.0000000 0.0000000 0.0000000
vt 0.3284698 0.9092829
v 1.0978580 1.2549680 0.6597496
vn 1.0000000 0.0000000 0.0000000
vt 0.3285198 0.9678234
v 1.0978580 1.3342420 0.6136082
vn 1.0000000 0.0000000 0.0000000
vt 0.3395309 0.9614491
v 1.0978580 1.4100360 0.8131280
vn 1.0000000 0.0000000 0.0000000
vt 0.3499980 0.9891471
v 1.0978580 1.4555759 0.7336204
vn 1.0000000 0.0000000 0.0000000
vt 0.3563298 0.9781262
v 1.0978580 1.6203970 0.7770932
vn 1.0000000 0.0000000 0.0000000
vt 0.3791857 0.9841803
v 1.0978580 1.9055310 0.6118366
vn 0.1768003 -0.8535488 -0.4900981
vt 0.6472239 0.7642660
v 0.8528236 1.9127949 0.4467363
vn 0.2253037 -0.9742839 0.0030208
vt 0.6815926 0.7881022
v 1.0978580 1.9045080 0.2816842
vn 0.1767997 -0.8504929 0.4953824
vt 0.6472239 0.8109620
v 0.8528140 1.8186610 0.2470883
vn 0.2385161 -0.6831028 0.6902758
vt 0.6815968 0.8230847
v 1.0978580 1.7831740 0.1616721
vn 0.1765779 -0.4862289 0.8558047
vt 0.6472239 0.8342540
v 1.0978580 1.6183530 0.1181993
vn 0.1492917 0.0030662 0.9887885
vt 0.6472239 0.8575170
v 1.0978580 1.3332191 0.2834557
vn 0.1767987 0.8535491 0.4900983
vt 0.6472239 0.9040700
v 0.8528236 1.3259550 0.4485561
vn 0.2253033 0.9742840 -0.0030214
vt 0.6815987 0.9279003
v 1.0978580 1.3342420 0.6136082
vn 0.1768001 0.8504927 -0.4953827
vt 0.6472239 0.9507660
v 0.8528140 1.4200890 0.6482041
vn 0.2385167 0.6831023 -0.6902761
vt 0.6815968 0.9628881
v 1.0978580 1.4555759 0.7336204
vn 0.1765784 0.4862282 -0.8558050
vt 0.6472239 0.9740570
v 1.0978580 1.6203970 0.7770932
vn 0.1492923 -0.0030664 -0.9887884
vt 0.6472211 0.9973220
v 0.8528106 1.6202821 0.7400950
vn 0.2247920 -0.0030224 -0.9744021
vt 0.6816041 0.9973220
v 1.0572211 1.6193730 0.0646839
vn 1.0000000 0.0000000 0.0000000
vt 0.3045263 0.4939483
v 1.0572211 1.8901720 0.1768524
vn 1.0000000 0.0000002 -0.0000004
vt 0.3420944 0.5095102
v 1.0572211 1.3485740 0.1768525
vn 1.0000000 -0.0000002 -0.0000004
vt 0.2669583 0.5095102
v 0.8378695 1.9850900 0.6574855
vn -1.0000000 0.0000000 0.0000000
vt 0.4500960 0.9679480
v 0.8378695 1.9837821 0.2355428
vn -1.0000000 0.0000000 0.0000000
vt 0.4502749 0.9094110
v 0.8378695 1.8287140 0.0821644
vn -1.0000000 0.0000000 0.0000000
vt 0.4717890 0.8881310
v 0.8378695 1.6180691 0.0266052
vn -1.0000000 0.0000000 0.0000000
vt 0.5010121 0.8804240
v 0.8378695 1.4077730 0.0834696
vn -1.0000000 0.0000000 0.0000000
vt 0.5301870 0.8883110
v 0.8378695 1.2536600 0.2378068
vn -1.0000000 0.0000000 0.0000000
vt 0.5515671 0.9097210
v 0.8378695 1.1969380 0.4489561
vn -1.0000000 0.0000000 0.0000000
vt 0.5594361 0.9390140
v 0.8378695 1.2549680 0.6597494
vn -1.0000000 0.0000000 0.0000000
vt 0.5513830 0.9682580
v 0.8378695 1.4100360 0.8131280
vn -1.0000000 0.0000000 0.0000000
vt 0.5298741 0.9895390
v 1.0978580 1.6180700 0.0266052
vn 0.0000000 -0.0031003 -0.9999952
vt 0.6979921 0.6339570
v 1.0978580 1.6203970 0.7770932
vn 0.1492923 -0.0030664 -0.9887884
vt 0.6472239 0.7177100
v 1.0978580 2.0418119 0.4463362
vn 1.0000000 0.0000000 0.0000000
vt 0.4377112 0.9383472
v 1.0978580 1.1969380 0.4489561
vn 1.0000000 0.0000000 0.0000000
vt 0.3205483 0.9385574
v 1.0978580 1.9499151 0.4466212
vn 0.1497790 -0.9887148 0.0030660
vt 0.6472250 0.7876160
v 1.0978580 1.2888360 0.4486712
vn 0.1497790 0.9887148 -0.0030652
vt 0.6472211 0.9274190
v 1.0572211 2.0023401 0.4476512
vn 1.0000000 0.0000011 -0.0000004
vt 0.3576543 0.5470782
v 1.0572211 1.8901720 0.7184500
vn 1.0000000 0.0000002 -0.0000004
vt 0.3420944 0.5846452
v 1.0572211 1.6193730 0.8306186
vn 1.0000000 0.0000000 0.0000000
vt 0.3045253 0.6002071
v 1.0572211 1.3485740 0.7184502
vn 1.0000000 -0.0000002 -0.0000004
vt 0.2669573 0.5846452
v 1.0572211 1.2364060 0.4476513
vn 1.0000000 -0.0000011 -0.0000004
vt 0.2513973 0.5470752

g group_38_140627936639776
f 1/1/1 2/2/2 3/3/3 
f 4/4/4 5/5/5 6/6/6 
f 7/7/7 8/8/8 9/9/9 
f 10/10/10 11/11/11 12/12/12 
f 13/13/13 14/14/14 15/15/15 
f 16/16/16 17/17/17 18/18/18 
f 19/19/19 20/20/20 21/21/21 
f 3/3/3 22/22/22 1/1/1 
f 22/22/22 23/23/23 24/24/24 
f 25/25/25 26/26/26 27/27/27 
f 28/28/28 25/25/25 29/29/29 
f 30/30/30 28/28/28 31/31/31 
f 9/9/9 32/32/32 7/7/7 
f 32/32/32 33/33/33 34/34/34 
f 35/35/35 36/36/36 37/37/37 
f 38/38/38 35/35/35 39/39/39 
f 2/2/2 38/38/38 40/40/40 
f 12/12/12 41/41/41 10/10/10 
f 41/41/41 42/42/42 43/43/43 
f 44/44/44 42/42/42 45/45/45 
f 46/46/46 45/45/45 47/47/47 
f 14/14/14 47/47/47 48/48/48 
f 15/15/15 49/49/49 13/13/13 
f 49/49/49 50/50/50 51/51/51 
f 52/52/52 50/50/50 53/53/53 
f 54/54/54 53/53/53 55/55/55 
f 11/11/11 55/55/55 56/56/56 
f 18/18/18 57/57/57 16/16/16 
f 18/18/18 58/58/58 57/57/57 
f 59/59/59 58/58/58 60/60/60 
f 61/61/61 59/59/59 60/60/60 
f 62/62/62 61/61/61 20/20/20 
f 21/21/21 63/63/63 19/19/19 
f 21/21/21 64/64/64 63/63/63 
f 65/65/65 64/64/64 66/66/66 
f 67/67/67 65/65/65 66/66/66 
f 68/68/68 67/67/67 69/69/69 
f 70/70/70 71/71/71 72/72/72 
f 2/2/2 40/40/40 3/3/3 
f 4/4/4 73/73/73 5/5/5 
f 5/5/5 74/74/74 75/75/75 
f 5/5/5 75/75/75 76/76/76 
f 76/76/76 77/77/77 78/78/78 
f 78/78/78 79/79/79 80/80/80 
f 76/76/76 78/78/78 80/80/80 
f 80/80/80 81/81/81 6/6/6 
f 76/76/76 80/80/80 6/6/6 
f 5/5/5 76/76/76 6/6/6 
f 8/8/8 82/82/82 9/9/9 
f 11/11/11 56/56/56 12/12/12 
f 14/14/14 48/48/48 15/15/15 
f 16/16/16 83/83/83 17/17/17 
f 19/19/19 62/62/62 20/20/20 
f 22/22/22 24/24/24 1/1/1 
f 23/23/23 26/26/26 24/24/24 
f 26/26/26 23/23/23 27/27/27 
f 25/25/25 27/27/27 29/29/29 
f 28/28/28 29/29/29 31/31/31 
f 32/32/32 34/34/34 7/7/7 
f 33/33/33 36/36/36 34/34/34 
f 36/36/36 33/33/33 37/37/37 
f 35/35/35 37/37/37 39/39/39 
f 38/38/38 39/39/39 40/40/40 
f 41/41/41 43/43/43 10/10/10 
f 42/42/42 84/84/84 43/43/43 
f 44/44/44 84/84/84 42/42/42 
f 46/46/46 44/44/44 45/45/45 
f 14/14/14 46/46/46 47/47/47 
f 49/49/49 51/51/51 13/13/13 
f 50/50/50 85/85/85 51/51/51 
f 52/52/52 85/85/85 50/50/50 
f 54/54/54 52/52/52 53/53/53 
f 11/11/11 54/54/54 55/55/55 
f 58/58/58 86/86/86 57/57/57 
f 59/59/59 86/86/86 58/58/58 
f 61/61/61 60/60/60 20/20/20 
f 64/64/64 87/87/87 63/63/63 
f 65/65/65 87/87/87 64/64/64 
f 67/67/67 66/66/66 69/69/69 
f 71/71/71 88/88/88 89/89/89 
f 89/89/89 90/90/90 91/91/91 
f 91/91/91 92/92/92 72/72/72 
f 89/89/89 91/91/91 72/72/72 
f 71/71/71 89/89/89 72/72/72 
