v 1.5634840 3.1371009 0.7063614
vn 0.0000000 0.9358588 0.3523754
vt 0.4292771 1.1954390
v 0.9770238 3.1371000 0.7063611
vn -0.0003848 0.9360261 0.3519306
vt 0.0016860 1.1954390
v 1.5635010 3.0831530 0.9898563
vn 0.0000000 0.9133394 0.4071991
vt 0.4292771 1.3841970
v 0.9770404 3.0831530 0.9898560
vn 0.0000000 0.9133398 0.4071983
vt 0.0016885 1.3841970
v 0.9770403 2.9641931 1.1461040
vn 0.0000000 0.6228495 0.7823417
vt 0.0016835 1.5093070
v 1.5635010 2.9641931 1.1461051
vn 0.0000000 0.3964085 0.9180743
vt 0.4292771 1.5093070
v 0.9770871 2.6378889 1.1987340
vn 0.0000000 0.0344315 0.9994071
vt 0.0016835 1.7178650
v 1.5635480 2.6378889 1.1987340
vn 0.0000000 -0.0929322 0.9956725
vt 0.4292771 1.7178650
v 1.5635010 -3.8026581 0.0770923
vn 0.0000000 -0.0018976 0.9999983
vt 0.4899746 -4.2486529
v 1.5704910 2.9100800 0.0898303
vn -0.0005255 -0.1001447 0.9949728
vt 0.4899753 0.5142411
v 0.9770403 -3.8026581 0.0770926
vn -0.0002463 -0.0018758 0.9999982
vt 0.9154777 -4.2486529
v 0.9840300 2.9102020 0.0895413
vn -0.0005111 -0.0998609 0.9950013
vt 0.9154793 0.5142411
v 0.9770238 3.0454581 0.6977353
vn 0.0005073 -0.9134207 -0.4070165
vt 0.9154782 1.1968610
v 1.5634840 3.0454581 0.6977353
vn 0.0000000 -0.9593093 -0.2823574
vt 0.4899750 1.1954390
v 0.9770404 3.0053029 0.9547391
vn 0.0000000 -0.9512004 -0.3085738
vt 0.9154807 1.3841970
v 1.5635010 3.0053029 0.9547391
vn 0.0000000 -0.8885708 -0.4587394
vt 0.4899774 1.3841970
v 0.9770403 2.9161611 1.0756540
vn 0.0000000 -0.6297784 -0.7767749
vt 0.9154757 1.5093070
v 1.5635010 2.9161620 1.0756540
vn 0.0000000 -0.3971451 -0.9177559
vt 0.4899726 1.5093070
v 0.9770871 2.6584210 1.1157020
vn 0.0000000 -0.0299846 -0.9995504
vt 0.9154806 1.7154239
v 1.5635480 2.6584210 1.1157020
vn 0.0000000 0.0959902 -0.9953823
vt 0.4899774 1.7154239
v 1.5704910 2.9268770 -0.0014938
vn 0.9999870 -0.0047171 -0.0019282
vt 0.4292771 0.5142411
v 1.5704910 2.9100800 0.0898303
vn 0.9999949 -0.0031436 -0.0005166
vt 0.4899753 0.5142411
v 1.5635010 -3.8026581 -0.0021371
vn 0.9999995 -0.0010400 0.0000000
vt 0.4292771 -4.2486529
v 1.5635010 -3.8026581 0.0770923
vn 0.9999995 -0.0010413 0.0000000
vt 0.4899746 -4.2486529
v 1.5634840 3.0454581 0.6977353
vn 0.9999669 0.0007638 -0.0081094
vt 0.4899750 1.1954390
v 1.5634840 3.1371009 0.7063614
vn 0.9999647 0.0000000 -0.0084017
vt 0.4292771 1.1954390
v 1.5635010 3.0053029 0.9547391
vn 1.0000000 0.0000000 0.0000000
vt 0.4899774 1.3841970
v 1.5635010 3.0831530 0.9898563
vn 1.0000000 0.0000000 0.0000000
vt 0.4292771 1.3841970
v 0.9770238 3.0454581 0.6977353
vn -0.9999673 -0.0007583 0.0080584
vt 0.4899712 1.1954390
v 0.9770404 3.0053029 0.9547391
vn -1.0000000 0.0000000 0.0000000
vt 0.4899688 1.3841970
v 0.9770238 3.1371000 0.7063611
vn -0.9999652 0.0000000 0.0083477
vt 0.4292535 1.1954390
v 0.9770404 3.0831530 0.9898560
vn -1.0000000 0.0000000 0.0000000
vt 0.4292511 1.3841970
v 1.5635010 2.9161620 1.0756540
vn 1.0000000 0.0000000 0.0000000
vt 0.4899726 1.5093070
v 1.5635010 2.9641931 1.1461051
vn 1.0000000 0.0000000 0.0000000
vt 0.4292771 1.5093070
v 0.9770403 2.9641931 1.1461040
vn -1.0000000 0.0000000 0.0000000
vt 0.4292560 1.5093070
v 0.9770403 2.9161611 1.0756540
vn -1.0000000 0.0000000 0.0000000
vt 0.4899735 1.5093070
v 1.5635480 2.6584210 1.1157020
vn 1.0000000 0.0000000 0.0000000
vt 0.4899774 1.7154239
v 1.5635480 2.6378889 1.1987340
vn 1.0000000 0.0000000 0.0000000
vt 0.4292771 1.7178650
v 0.9770871 2.6584210 1.1157020
vn -1.0000000 -0.0001880 0.0000000
vt 0.4899679 1.7154239
v 0.9770871 2.6378889 1.1987340
vn -1.0000000 -0.0001588 0.0000000
vt 0.4292559 1.7178650
v 1.2539380 2.9091101 0.0881317
vn -0.9846864 -0.0170626 0.1734981
vt 0.9258300 0.5211681
v 1.2492580 -3.7396059 0.0724863
vn -0.9861352 0.0003983 0.1659435
vt 0.9258300 -4.2017779
v 1.2688700 2.8977039 0.1731033
vn -0.9858785 -0.0076063 0.1672897
vt 0.9918575 0.5057190
v 1.2619030 -3.7343979 0.1511032
vn -0.9873159 0.0005105 0.1587677
vt 0.9905320 -4.2078600
v 1.2618639 2.9824150 0.6822388
vn 0.9756401 -0.1995831 -0.0910667
vt 1.0012389 1.1968100
v 1.2770810 3.0492139 0.6988742
vn 0.9788094 -0.1868289 -0.0838284
vt 0.9258300 1.1918080
v 1.2618800 2.9251051 0.9120981
vn 0.9815349 -0.1872607 -0.0390221
vt 0.9918400 1.3841970
v 1.2770979 3.0099070 0.9515036
vn 0.9859628 -0.1649704 -0.0257323
vt 0.9258300 1.3841970
v 1.2619030 -3.7343979 0.1511032
vn 0.9868544 -0.0015728 0.1616046
vt 0.9905320 -4.2078600
v 1.2747689 -3.7396049 0.0724866
vn 0.9856410 -0.0016836 0.1688462
vt 0.9258300 -4.2017779
v 1.2688700 2.8977039 0.1731033
vn 0.9854131 -0.0148214 0.1695331
vt 0.9918575 0.5057190
v 1.2840869 2.9091041 0.0881467
vn 0.9845271 -0.0281922 0.1729500
vt 0.9258300 0.5214608
v 0.9840300 2.9269879 -0.0017657
vn 0.0004812 0.1066926 -0.9942920
vt 0.0016870 0.5142411
v 1.5704910 2.9268770 -0.0014938
vn 0.0004970 0.1069302 -0.9942665
vt 0.4292771 0.5142411
v 0.9770403 -3.8026581 -0.0021375
vn 0.0002321 0.0000000 -1.0000000
vt 0.0016835 -4.2486529
v 1.5635010 -3.8026581 -0.0021371
vn 0.0000000 0.0000000 -1.0000000
vt 0.4292771 -4.2486529
v 0.9770403 -3.8026581 0.0770926
vn -0.9999995 0.0010413 0.0000000
vt 0.4899716 -4.2486529
v 0.9840300 2.9102020 0.0895413
vn -0.9999950 0.0031419 0.0005138
vt 0.4899701 0.5142411
v 0.9770403 -3.8026581 -0.0021375
vn -0.9999995 0.0010400 0.0000000
vt 0.4292540 -4.2486529
v 0.9840300 2.9269879 -0.0017657
vn -0.9999871 0.0047145 0.0019246
vt 0.4292533 0.5142411
v 1.2561290 3.1981881 0.1456747
vn -0.9852435 -0.1365165 0.1032399
vt 0.9258300 0.7514351
v 1.2710600 3.1469650 0.2204352
vn -0.9900453 -0.1181064 0.0765583
vt 0.9918667 0.7584477
v 1.2404720 3.2800710 0.3178250
vn -0.9684431 -0.2331815 -0.0880022
vt 0.9258300 0.8888123
v 1.2554600 3.1893871 0.3319138
vn -0.9815271 -0.1744398 -0.0785827
vt 0.9918616 0.8966532
v 1.2862780 3.1981630 0.1457028
vn 0.9857363 -0.0687673 0.1536066
vt 0.9258300 0.7505316
v 1.2706200 3.2800519 0.3179428
vn 0.9881327 -0.1388386 0.0657091
vt 0.9258300 0.8873619
v 1.2710600 3.1469650 0.2204352
vn 0.9829522 -0.0781841 0.1664099
vt 0.9918667 0.7584477
v 1.2554600 3.1893871 0.3319138
vn 0.9850607 -0.1705931 -0.0235247
vt 0.9918616 0.8966532
v 1.5570230 3.2778380 0.3196506
vn -0.0005385 -0.9984797 -0.0551174
vt 0.4899747 0.8925093
v 0.9705652 3.2782149 0.3173563
vn -0.0004312 -0.9985519 -0.0537948
vt 0.9154779 0.8925093
v 1.5570230 3.2778380 0.3196506
vn 0.9998441 0.0041098 0.0171728
vt 0.4899747 0.8925093
v 1.5569570 3.3725700 0.3064691
vn 0.9991285 0.0215442 0.0357499
vt 0.4292770 0.8925093
v 1.5635010 -0.4323439 0.2717514
vn 1.0000000 0.0000000 0.0000000
vt 0.4899755 4.3794370
v 1.5635010 -0.4018727 0.6270461
vn 1.0000000 0.0000000 0.0000000
vt 0.4899757 4.0967021
v 1.5635010 -0.5196796 0.2839861
vn 1.0000000 0.0000000 0.0000000
vt 0.4292770 4.3794370
v 1.5635010 -0.4625020 0.6911476
vn 1.0000000 0.0000000 0.0000000
vt 0.4292771 4.0967021
v 0.9770403 -0.4625018 0.6911476
vn -1.0000000 0.0000000 0.0000000
vt 0.4292548 4.0967021
v 0.9770404 -0.4018727 0.6270460
vn -1.0000000 0.0000000 0.0000000
vt 0.4899701 4.0967021
v 0.9770403 -0.5196796 0.2839861
vn -1.0000000 0.0000000 0.0000000
vt 0.4292547 4.3794370
v 0.9770403 -0.4334987 0.2717512
vn -1.0000000 0.0000000 0.0000000
vt 0.4899703 4.3794370
v 1.5635010 -0.4625020 0.6911476
vn 0.0000000 -0.8669603 0.4983772
vt 0.4292771 4.0967021
v 0.9770403 -0.4625018 0.6911476
vn 0.0000000 -0.9469778 0.3212991
vt 0.0016835 4.0967021
v 1.5635010 -0.5196796 0.2839861
vn 0.0000000 -0.9902832 0.1390655
vt 0.4292770 4.3794370
v 0.9770403 -0.5196796 0.2839861
vn 0.0000000 -0.9902832 0.1390657
vt 0.0016835 4.3794370
v 0.9770403 -0.4334987 0.2717512
vn -0.0019614 0.9960598 -0.0886627
vt 0.9154786 4.3794370
v 0.9770404 -0.4018727 0.6270460
vn -0.0006797 0.9607593 -0.2773827
vt 0.9154788 4.0939960
v 1.5635010 -0.4323439 0.2717514
vn -0.0009807 0.9962029 -0.0870563
vt 0.4899755 4.3794370
v 1.5635010 -0.4018727 0.6270461
vn 0.0000000 0.8859450 -0.4637903
vt 0.4899757 4.0967021
v 1.5635010 -0.1917294 0.8886801
vn 1.0000000 0.0000000 0.0000000
vt 0.4899759 3.8380170
v 1.5635010 -0.2216772 0.9717218
vn 1.0000000 0.0000000 0.0000000
vt 0.4292771 3.8380170
v 1.5635010 -0.2216772 0.9717218
vn 0.0000000 -0.4207315 0.9071852
vt 0.4292771 3.8380170
v 0.9770403 -0.2216770 0.9717217
vn 0.0000000 -0.4207316 0.9071852
vt 0.0016835 3.8380170
v 0.9770404 -0.1917294 0.8886801
vn 0.0000000 0.5707009 -0.8211581
vt 0.9154790 3.8380170
v 1.5635010 -0.1917294 0.8886801
vn 0.0000000 0.2886904 -0.9574225
vt 0.4899759 3.8380170
v 1.2770979 0.0997991 0.9217436
vn 0.9848405 -0.0014469 -0.1734564
vt 0.9258300 3.6090119
v 1.2618800 0.0917508 0.8354079
vn 0.9847444 -0.0013858 -0.1740015
vt 0.9918055 3.6090119
v 1.2770979 0.8321145 0.9156355
vn 0.9845122 -0.0077160 -0.1751461
vt 0.9258300 3.0734711
v 1.2618800 0.8396051 0.8297322
vn 0.9845273 -0.0075528 -0.1750681
vt 0.9918147 3.0749631
v 1.2770979 1.1510500 0.8898470
vn 0.9846749 -0.0346819 -0.1709170
vt 0.9258300 2.8183680
v 1.2618800 1.1260290 0.8072523
vn 0.9841995 -0.0345481 -0.1736600
vt 0.9918191 2.8195989
v 1.2770979 1.4058620 0.8047343
vn 0.9850961 -0.0005043 -0.1720041
vt 0.9258300 2.6177471
v 1.2618800 1.4077710 0.7197263
vn 0.9843500 -0.0004222 -0.1762239
vt 0.9918227 2.6187730
v 0.9770404 1.7483290 1.0011740
vn 0.0000000 -0.2623734 0.9649664
vt 0.0016835 2.3813789
v 1.5635010 1.7483290 1.0011750
vn 0.0000000 -0.2623736 0.9649664
vt 0.4292771 2.3813789
v 1.5635010 1.7632630 0.9152475
vn 0.0000000 0.2598562 -0.9656473
vt 0.4899769 2.3813789
v 0.9770404 1.7632630 0.9152475
vn 0.0000000 0.2598563 -0.9656473
vt 0.9154802 2.3813789
v 1.2770979 1.7628580 0.9176572
vn 0.9840723 0.0462852 -0.1716376
vt 0.9258300 2.3751631
v 1.2618800 1.7773610 0.8343178
vn 0.9837951 0.0464979 -0.1731621
vt 0.9918269 2.3759389
v 1.2771440 2.6505239 1.1165330
vn 0.9840133 0.0389651 -0.1737802
vt 0.9258300 1.7137470
v 1.2619270 2.6834011 1.0381640
vn 0.9838602 0.0392283 -0.1745860
vt 0.9918386 1.7131650
v 0.9704999 3.3728819 0.3041806
vn -0.9991126 -0.0216699 -0.0361179
vt 0.4292543 0.8925093
v 0.9705652 3.2782149 0.3173563
vn -0.9998381 -0.0041469 -0.0175126
vt 0.4899715 0.8925093
v 1.5569570 3.3725700 0.3064691
vn 0.0005087 0.9994338 0.0336426
vt 0.4292770 0.8925093
v 0.9704999 3.3728819 0.3041806
vn 0.0004035 0.9994699 0.0325532
vt 0.0016857 0.8925093
v 1.5726810 3.2545750 0.0699503
vn 0.9995557 0.0240178 0.0176514
vt 0.4292770 0.7444201
v 1.5726810 3.1973240 0.1478500
vn 0.9994690 0.0133030 0.0297459
vt 0.4899756 0.7444201
v 0.9862207 3.1978049 0.1473041
vn -0.0013963 -0.6169437 0.7870061
vt 0.9154788 0.7461392
v 1.5726810 3.1973240 0.1478500
vn -0.0012387 -0.6178182 0.7863200
vt 0.4899756 0.7444201
v 0.9862207 3.1978049 0.1473041
vn -0.9994603 -0.0133972 -0.0299953
vt 0.4899706 0.7444201
v 0.9862207 3.2550271 0.0694370
vn -0.9995509 -0.0241469 -0.0177454
vt 0.4292535 0.7444201
v 1.5726810 3.2545750 0.0699503
vn 0.0011637 0.6142047 -0.7891459
vt 0.4292770 0.7444201
v 0.9862207 3.2550271 0.0694370
vn 0.0013351 0.6135371 -0.7896648
vt 0.0016866 0.7444201
v 1.2008940 3.0450881 0.8407782
vn -0.9161845 -0.3350467 -0.2198858
vt 0.9258186 1.2798750
v 1.2618639 2.9824150 0.6822388
vn -0.9541706 -0.2567677 -0.1537169
vt 1.0012389 1.1968100
v 1.5635010 1.7632630 0.9152475
vn 1.0000000 0.0000000 0.0000000
vt 0.4899769 2.3813789
v 1.5635010 1.7483290 1.0011750
vn 1.0000000 0.0000000 0.0000000
vt 0.4292771 2.3813789
v 1.5635010 1.4046310 0.8021646
vn 1.0000000 0.0000000 0.0000000
vt 0.4899767 2.6245320
v 1.5635010 1.4026620 0.8895236
vn 1.0000000 0.0000000 0.0000000
vt 0.4292771 2.6245320
v 1.5635010 1.1504170 0.8968777
vn 1.0000000 0.0000000 0.0000000
vt 0.4899766 2.8238120
v 1.5635010 1.1760610 0.9815287
vn 1.0000000 0.0000000 0.0000000
vt 0.4292771 2.8238120
v 1.5635010 1.4026620 0.8895236
vn 0.0000000 -0.0839978 0.9964660
vt 0.4292771 2.6245320
v 0.9770404 1.4026610 0.8895236
vn 0.0000000 0.1567136 0.9876441
vt 0.0016835 2.6245320
v 1.5635010 1.1760610 0.9815287
vn 0.0000000 0.1882068 0.9821295
vt 0.4292771 2.8238120
v 0.9770403 1.1760610 0.9815287
vn 0.0000000 0.1882069 0.9821294
vt 0.0016835 2.8238120
v 0.9770404 1.4046310 0.8021646
vn 0.0000000 -0.0255933 -0.9996725
vt 0.9154800 2.6245320
v 1.5635010 1.4046310 0.8021646
vn 0.0000000 -0.0255933 -0.9996725
vt 0.4899767 2.6245320
v 0.9770404 1.1504170 0.8968777
vn 0.0000000 -0.1743708 -0.9846801
vt 0.9154799 2.8238120
v 1.5635010 1.1504170 0.8968777
vn 0.0000000 -0.1743709 -0.9846801
vt 0.4899766 2.8238120
v 1.2770979 -0.4031654 0.6284129
vn 0.9740534 0.2254664 -0.0196199
vt 0.9258300 4.0894141
v 1.2770979 -0.4341794 0.2720085
vn 0.9799836 0.1987746 -0.0109947
vt 0.9258300 4.3767610
v 1.2618800 -0.3429612 0.5647614
vn 0.9799836 0.1987746 -0.0109947
vt 0.9917963 4.1237340
v 1.2618800 -0.3471482 0.2598164
vn 0.9851082 0.1719194 -0.0023605
vt 0.9917917 4.3796158
v 1.5635010 -0.5196796 0.2839861
vn 0.0000000 -0.1387341 -0.9903297
vt 0.4289933 0.4091050
v 0.9770403 -0.5196796 0.2839861
vn 0.0001385 -0.1396465 -0.9902015
vt 0.0009564 0.4091050
v 1.5635010 -0.4323439 0.2717514
vn 0.0001385 -0.1396465 -0.9902015
vt 0.4289933 0.3446320
v 0.9770403 -0.4334987 0.2717512
vn 0.0002770 -0.1405587 -0.9900723
vt 0.0009564 0.3446320
v 0.9770403 -3.8026581 0.0770926
vn 0.0000000 -1.0000000 0.0000000
vt 0.0009562 0.4091050
v 0.9770403 -3.8026581 -0.0021375
vn 0.0000000 -1.0000000 0.0000000
vt 0.0009562 0.3446319
v 1.5635010 -3.8026581 0.0770923
vn 0.0000000 -1.0000000 0.0000000
vt 0.4289932 0.4091050
v 1.5635010 -3.8026581 -0.0021371
vn 0.0000000 -1.0000000 0.0000000
vt 0.4289932 0.3446319

g group_82599736_106652632010240
f 1/1/1 2/2/2 3/3/3 
f 3/3/3 2/2/2 4/4/4 
f 4/4/4 5/5/5 3/3/3 
f 3/3/3 5/5/5 6/6/6 
f 5/5/5 7/7/7 6/6/6 
f 6/6/6 7/7/7 8/8/8 
f 9/9/9 10/10/10 11/11/11 
f 11/11/11 10/10/10 12/12/12 
f 13/13/13 14/14/14 15/15/15 
f 15/15/15 14/14/14 16/16/16 
f 15/15/15 16/16/16 17/17/17 
f 17/17/17 16/16/16 18/18/18 
f 17/17/17 18/18/18 19/19/19 
f 19/19/19 18/18/18 20/20/20 
f 21/21/21 22/22/22 23/23/23 
f 23/23/23 22/22/22 24/24/24 
f 25/25/25 26/26/26 27/27/27 
f 27/27/27 26/26/26 28/28/28 
f 29/29/29 30/30/30 31/31/31 
f 31/31/31 30/30/30 32/32/32 
f 27/27/27 28/28/28 33/33/33 
f 33/33/33 28/28/28 34/34/34 
f 35/35/35 32/32/32 36/36/36 
f 36/36/36 32/32/32 30/30/30 
f 37/37/37 33/33/33 38/38/38 
f 38/38/38 33/33/33 34/34/34 
f 39/39/39 40/40/40 36/36/36 
f 36/36/36 40/40/40 35/35/35 
f 41/41/41 42/42/42 43/43/43 
f 43/43/43 42/42/42 44/44/44 
f 45/45/45 46/46/46 47/47/47 
f 47/47/47 46/46/46 48/48/48 
f 49/49/49 50/50/50 51/51/51 
f 51/51/51 50/50/50 52/52/52 
f 53/53/53 54/54/54 55/55/55 
f 55/55/55 54/54/54 56/56/56 
f 57/57/57 58/58/58 59/59/59 
f 59/59/59 58/58/58 60/60/60 
f 61/61/61 62/62/62 63/63/63 
f 63/63/63 62/62/62 64/64/64 
f 65/65/65 66/66/66 67/67/67 
f 67/67/67 66/66/66 68/68/68 
f 14/14/14 13/13/13 69/69/69 
f 69/69/69 13/13/13 70/70/70 
f 25/25/25 71/71/71 26/26/26 
f 26/26/26 71/71/71 72/72/72 
f 73/73/73 74/74/74 75/75/75 
f 75/75/75 74/74/74 76/76/76 
f 77/77/77 78/78/78 79/79/79 
f 79/79/79 78/78/78 80/80/80 
f 81/81/81 82/82/82 83/83/83 
f 83/83/83 82/82/82 84/84/84 
f 85/85/85 86/86/86 87/87/87 
f 87/87/87 86/86/86 88/88/88 
f 74/74/74 89/89/89 76/76/76 
f 76/76/76 89/89/89 90/90/90 
f 91/91/91 92/92/92 81/81/81 
f 81/81/81 92/92/92 82/82/82 
f 86/86/86 93/93/93 88/88/88 
f 88/88/88 93/93/93 94/94/94 
f 95/95/95 96/96/96 97/97/97 
f 97/97/97 96/96/96 98/98/98 
f 99/99/99 100/100/100 101/101/101 
f 101/101/101 100/100/100 102/102/102 
f 7/7/7 103/103/103 8/8/8 
f 8/8/8 103/103/103 104/104/104 
f 105/105/105 106/106/106 20/20/20 
f 20/20/20 106/106/106 19/19/19 
f 107/107/107 108/108/108 109/109/109 
f 109/109/109 108/108/108 110/110/110 
f 111/111/111 112/112/112 31/31/31 
f 31/31/31 112/112/112 29/29/29 
f 1/1/1 113/113/113 2/2/2 
f 2/2/2 113/113/113 114/114/114 
f 115/115/115 116/116/116 21/21/21 
f 21/21/21 116/116/116 22/22/22 
f 12/12/12 10/10/10 117/117/117 
f 117/117/117 10/10/10 118/118/118 
f 58/58/58 119/119/119 60/60/60 
f 60/60/60 119/119/119 120/120/120 
f 121/121/121 54/54/54 122/122/122 
f 122/122/122 54/54/54 53/53/53 
f 120/120/120 119/119/119 111/111/111 
f 111/111/111 119/119/119 112/112/112 
f 118/118/118 69/69/69 117/117/117 
f 117/117/117 69/69/69 70/70/70 
f 71/71/71 116/116/116 72/72/72 
f 72/72/72 116/116/116 115/115/115 
f 114/114/114 113/113/113 122/122/122 
f 122/122/122 113/113/113 121/121/121 
f 43/43/43 62/62/62 41/41/41 
f 41/41/41 62/62/62 61/61/61 
f 51/51/51 52/52/52 67/67/67 
f 67/67/67 52/52/52 65/65/65 
f 45/45/45 68/68/68 46/46/46 
f 46/46/46 68/68/68 66/66/66 
f 123/123/123 63/63/63 124/124/124 
f 124/124/124 63/63/63 64/64/64 
f 125/125/125 37/37/37 126/126/126 
f 126/126/126 37/37/37 38/38/38 
f 127/127/127 128/128/128 129/129/129 
f 129/129/129 128/128/128 130/130/130 
f 131/131/131 132/132/132 133/133/133 
f 133/133/133 132/132/132 134/134/134 
f 135/135/135 136/136/136 137/137/137 
f 137/137/137 136/136/136 138/138/138 
f 99/99/99 97/97/97 100/100/100 
f 100/100/100 97/97/97 98/98/98 
f 104/104/104 103/103/103 131/131/131 
f 131/131/131 103/103/103 132/132/132 
f 135/135/135 106/106/106 136/136/136 
f 136/136/136 106/106/106 105/105/105 
f 127/127/127 125/125/125 128/128/128 
f 128/128/128 125/125/125 126/126/126 
f 107/107/107 101/101/101 108/108/108 
f 108/108/108 101/101/101 102/102/102 
f 90/90/90 89/89/89 130/130/130 
f 130/130/130 89/89/89 129/129/129 
f 134/134/134 92/92/92 133/133/133 
f 133/133/133 92/92/92 91/91/91 
f 138/138/138 94/94/94 137/137/137 
f 137/137/137 94/94/94 93/93/93 
f 139/139/139 140/140/140 141/141/141 
f 141/141/141 140/140/140 142/142/142 
f 143/143/143 144/144/144 145/145/145 
f 145/145/145 144/144/144 146/146/146 
f 147/147/147 148/148/148 149/149/149 
f 149/149/149 148/148/148 150/150/150 
