v -1.4813250 -2.1079590 0.1490428
vn 0.0000000 -0.4206974 -0.9072011
vt 0.3008100 0.4682412
v -1.0451050 -2.1079590 0.1490428
vn 0.0000000 -0.5748112 -0.8182861
vt 0.3485441 0.4682412
v -1.4813250 -2.2659199 0.3069070
vn 0.0000000 -0.8179348 -0.5753109
vt 0.3008100 0.4438037
v -1.0451050 -2.2659199 0.3069070
vn 0.0000000 -0.9069441 -0.4212510
vt 0.3485441 0.4438037
v -1.4813250 -2.3237860 0.5226019
vn 0.0000000 -0.9960078 -0.0892661
vt 0.3008100 0.4193664
v -1.0451050 -2.3237860 0.5226019
vn 0.0000000 -0.9960621 0.0886583
vt 0.3485441 0.4193664
v -1.4813250 -2.2660511 0.7383321
vn 0.0000000 -0.9072014 0.4206967
vt 0.3008100 0.3949289
v -1.0451050 -2.2660511 0.7383321
vn 0.0000000 -0.8182859 0.5748115
vt 0.3485441 0.3949289
v -1.4813250 -2.1081870 0.8962927
vn 0.0000000 -0.5753108 0.8179349
vt 0.3008100 0.3704916
v -1.0451050 -2.1081870 0.8962927
vn 0.0000000 -0.4212505 0.9069443
vt 0.3485437 0.3704917
v -1.4813250 -1.8924921 0.9541586
vn 0.0000000 -0.0892664 0.9960078
vt 0.3008104 0.3460541
v -1.0451050 -1.8924921 0.9541586
vn 0.0000000 0.0886582 0.9960621
vt 0.3485441 0.3460546
v -1.4813250 -1.8924921 0.9541586
vn 0.0000000 -0.0892664 0.9960078
vt 0.3008116 0.4926783
v -1.0451050 -1.8924921 0.9541586
vn 0.0000000 0.0886582 0.9960621
vt 0.3485454 0.4926780
v -1.4813250 -1.6767620 0.8964243
vn 0.0000000 0.4206972 0.9072012
vt 0.3008112 0.4682411
v -1.0451050 -1.6767620 0.8964243
vn 0.0000000 0.5748118 0.8182857
vt 0.3485451 0.4682406
v -1.4813250 -1.5188020 0.7385601
vn 0.0000000 0.8179350 0.5753106
vt 0.3008112 0.4438036
v -1.0451050 -1.5188020 0.7385601
vn 0.0000000 0.9069443 0.4212507
vt 0.3485451 0.4438034
v -1.4813250 -1.4609360 0.5228652
vn 0.0000000 0.9960078 0.0892662
vt 0.3008110 0.4193663
v -1.0451050 -1.4609360 0.5228652
vn 0.0000000 0.9960621 -0.0886586
vt 0.3485451 0.4193660
v -1.4813250 -1.5186700 0.3071351
vn 0.0000000 0.9072010 -0.4206975
vt 0.3008110 0.3949287
v -1.0451050 -1.5186700 0.3071351
vn 0.0000000 0.8182859 -0.5748115
vt 0.3485451 0.3949286
v -1.4813250 -1.6765341 0.1491745
vn 0.0000000 0.5753108 -0.8179349
vt 0.3008110 0.3704916
v -1.0451050 -1.6765341 0.1491745
vn 0.0000000 0.4212511 -0.9069441
vt 0.3485451 0.3704911
v -1.4813250 -1.8922290 0.0913086
vn 0.0000000 0.0892664 -0.9960078
vt 0.3008106 0.3460541
v -1.0451050 -1.8922290 0.0913086
vn 0.0000000 -0.0886584 -0.9960621
vt 0.3485447 0.3460537
v -1.4813250 -1.8922290 0.0913086
vn 0.0000000 0.0892664 -0.9960078
vt 0.3008100 0.4926786
v -1.0451050 -1.8922290 0.0913086
vn 0.0000000 -0.0886584 -0.9960621
vt 0.3485441 0.4926786
v -1.0451050 -2.2659199 0.3069070
vn 1.0000000 0.0000000 0.0000000
vt 0.2821795 0.3369137
v -1.0451050 -2.1079590 0.1490428
vn 1.0000000 0.0000000 0.0000000
vt 0.2954893 0.3236039
v -1.0451050 -2.3237860 0.5226019
vn 1.0000000 0.0000000 0.0000000
vt 0.2639977 0.3417856
v -1.0451050 -1.8923610 0.5227336
vn 1.0000000 0.0000000 0.0000000
vt 0.2639977 0.3054223
v -1.0451050 -2.2660511 0.7383321
vn 1.0000000 0.0000000 0.0000000
vt 0.2458161 0.3369137
v -1.0451050 -2.1081870 0.8962927
vn 1.0000000 0.0000000 0.0000000
vt 0.2325062 0.3236039
v -1.0451050 -1.8924921 0.9541586
vn 1.0000000 0.0000000 0.0000000
vt 0.2276342 0.3054223
v -1.0451050 -1.6767620 0.8964243
vn 1.0000000 0.0000000 0.0000000
vt 0.2325062 0.2872405
v -1.0451050 -1.5188020 0.7385601
vn 1.0000000 0.0000000 0.0000000
vt 0.2458161 0.2739306
v -1.0451050 -1.4609360 0.5228652
vn 1.0000000 0.0000000 0.0000000
vt 0.2639977 0.2690590
v -1.0451050 -1.5186700 0.3071351
vn 1.0000000 0.0000000 0.0000000
vt 0.2821795 0.2739306
v -1.0451050 -1.6765341 0.1491745
vn 1.0000000 0.0000000 0.0000000
vt 0.2954893 0.2872405
v -1.0451050 -1.8922290 0.0913086
vn 1.0000000 0.0000000 0.0000000
vt 0.3003609 0.3054223
v -1.4813250 -1.6765341 0.1491745
vn -1.0000000 0.0000000 0.0000000
vt 0.2897732 0.4214742
v -1.4813250 -1.8922290 0.0913086
vn -1.0000000 0.0000000 0.0000000
vt 0.2955701 0.3998396
v -1.4813250 -2.2659199 0.3069070
vn -1.0000000 0.0000000 0.0000000
vt 0.2739357 0.3623675
v -1.4813250 -2.1079590 0.1490428
vn -1.0000000 0.0000000 0.0000000
vt 0.2897732 0.3782051
v -1.4813250 -2.2660511 0.7383321
vn -1.0000000 0.0000000 0.0000000
vt 0.2306667 0.3623675
v -1.4813250 -2.3237860 0.5226019
vn -1.0000000 0.0000000 0.0000000
vt 0.2523011 0.3565706
v -1.4813250 -2.1081870 0.8962927
vn -1.0000000 0.0000000 0.0000000
vt 0.2148291 0.3782051
v -1.4813250 -1.8924921 0.9541586
vn -1.0000000 0.0000000 0.0000000
vt 0.2090322 0.3998396
v -1.4813250 -1.6767620 0.8964243
vn -1.0000000 0.0000000 0.0000000
vt 0.2148291 0.4214742
v -1.4813250 -1.5188020 0.7385601
vn -1.0000000 0.0000000 0.0000000
vt 0.2306667 0.4373116
v -1.4813250 -1.5186700 0.3071351
vn -1.0000000 0.0000000 0.0000000
vt 0.2739357 0.4373116
v -1.4813250 -1.4609360 0.5228652
vn -1.0000000 0.0000000 0.0000000
vt 0.2523011 0.4431087

g group_148694808_106652632078592
f 1/1/1 2/2/2 3/3/3 
f 3/3/3 2/2/2 4/4/4 
f 3/3/3 4/4/4 5/5/5 
f 5/5/5 4/4/4 6/6/6 
f 5/5/5 6/6/6 7/7/7 
f 7/7/7 6/6/6 8/8/8 
f 7/7/7 8/8/8 9/9/9 
f 9/9/9 8/8/8 10/10/10 
f 9/9/9 10/10/10 11/11/11 
f 11/11/11 10/10/10 12/12/12 
f 13/13/13 14/14/14 15/15/15 
f 15/15/15 14/14/14 16/16/16 
f 15/15/15 16/16/16 17/17/17 
f 17/17/17 16/16/16 18/18/18 
f 17/17/17 18/18/18 19/19/19 
f 19/19/19 18/18/18 20/20/20 
f 19/19/19 20/20/20 21/21/21 
f 21/21/21 20/20/20 22/22/22 
f 21/21/21 22/22/22 23/23/23 
f 23/23/23 22/22/22 24/24/24 
f 23/23/23 24/24/24 25/25/25 
f 25/25/25 24/24/24 26/26/26 
f 27/27/27 28/28/28 1/1/1 
f 1/1/1 28/28/28 2/2/2 
f 29/29/29 30/30/30 31/31/31 
f 31/31/31 30/30/30 32/32/32 
f 33/33/33 31/31/31 34/34/34 
f 34/34/34 31/31/31 32/32/32 
f 35/35/35 34/34/34 36/36/36 
f 36/36/36 34/34/34 32/32/32 
f 37/37/37 36/36/36 32/32/32 
f 38/38/38 37/37/37 39/39/39 
f 39/39/39 37/37/37 32/32/32 
f 40/40/40 39/39/39 41/41/41 
f 41/41/41 39/39/39 32/32/32 
f 30/30/30 41/41/41 32/32/32 
f 42/42/42 43/43/43 44/44/44 
f 44/44/44 43/43/43 45/45/45 
f 46/46/46 42/42/42 47/47/47 
f 42/42/42 44/44/44 47/47/47 
f 46/46/46 48/48/48 42/42/42 
f 42/42/42 48/48/48 49/49/49 
f 49/49/49 50/50/50 42/42/42 
f 42/42/42 50/50/50 51/51/51 
f 42/42/42 51/51/51 52/52/52 
f 52/52/52 51/51/51 53/53/53 
