v -0.9770404 3.3907530 -0.0015302
vn 0.0000000 0.1542808 -0.9880270
vt 0.0016839 3.9930630
v -0.9770403 -2.2263811 -0.0000948
vn 0.0000000 -0.0435652 -0.9990506
vt 0.0016865 0.1239386
v -1.5635010 3.3907530 -0.0015302
vn 0.0000000 0.1542806 -0.9880271
vt 0.4292762 3.9930630
v -1.5635010 -2.2263811 -0.0000946
vn 0.0000000 -0.0435651 -0.9990506
vt 0.4292775 0.1239386
v -1.5634680 3.5859261 0.0610007
vn 0.0000000 0.8915449 -0.4529322
vt 0.4292762 4.1216621
v -0.9770074 3.5859261 0.0610007
vn 0.0000000 0.6236598 -0.7816959
vt 0.0016826 4.1216621
v -1.5635010 3.6121471 0.3058432
vn 0.0000000 0.7904488 0.6125281
vt 0.4292760 4.2802219
v -0.9770404 3.6121471 0.3058429
vn 0.0000000 0.9695857 0.2447520
vt 0.0016874 4.2802219
v -0.9810245 3.3939321 0.4419214
vn 0.0000000 0.2608783 0.9653717
vt 0.0016823 4.4654388
v -1.5674850 3.3939321 0.4419217
vn 0.0000000 -0.0597679 0.9982123
vt 0.4292759 4.4654388
v -1.0136490 2.8982120 0.2590225
vn 0.0000000 -0.2265651 0.9739960
vt 0.0016819 4.8752580
v -1.6001101 2.8982120 0.2590225
vn 0.0000000 -0.1014590 0.9948397
vt 0.4292755 4.8752580
v -1.5635010 -3.1260140 0.8658061
vn 0.0000000 -0.9657175 0.2595954
vt 0.4292771 -0.8795776
v -0.9770404 -3.1260140 0.8658060
vn 0.0000000 -0.9657174 0.2595956
vt 0.0016835 -0.8795776
v -1.5635010 -2.9384351 1.0760610
vn 0.0000000 -0.4632112 0.8862480
vt 0.4292771 -1.0447040
v -0.9770403 -2.9384351 1.0760610
vn 0.0000000 -0.4632116 0.8862478
vt 0.0016835 -1.0447040
v -0.9770403 -3.0033960 0.2708624
vn 0.0000000 -0.8787164 -0.4773442
vt 0.0016835 -0.4479127
v -1.5635010 -3.0033960 0.2708627
vn 0.0000000 -0.8787163 -0.4773444
vt 0.4292771 -0.4479127
v -1.5635010 -2.7774870 0.0479187
vn 0.0000000 -0.3081746 -0.9513298
vt 0.4292771 -0.2676425
v -0.9770403 -2.7774870 0.0479187
vn 0.0000000 -0.5247489 -0.8512571
vt 0.0016835 -0.2676425
v -1.5635010 3.3490641 0.0826309
vn 0.0000000 -0.1596416 0.9871750
vt 0.4899730 3.9742949
v -1.5635010 -2.2010789 0.0882768
vn 0.0000000 0.0372988 0.9993042
vt 0.4899769 0.1432045
v -0.9770404 3.3490641 0.0826309
vn 0.0000000 -0.0793089 0.9968501
vt 0.9154761 3.9742949
v -0.9770403 -2.2010789 0.0882767
vn 0.0000000 0.0372989 0.9993042
vt 0.9154801 0.1432045
v -1.5635010 3.5300529 0.2780603
vn 0.0000000 -0.7506077 -0.6607482
vt 0.4899764 4.2937140
v -1.5634680 3.5123670 0.1227213
vn 0.0000000 -0.8806314 0.4738021
vt 0.4899717 4.1088281
v -0.9770404 3.5300529 0.2780603
vn 0.0000000 -0.9647239 -0.2632639
vt 0.9154797 4.2937140
v -0.9770074 3.5123661 0.1227213
vn 0.0000000 -0.5818243 0.8133145
vt 0.9154748 4.1088281
v -0.9810245 3.3651569 0.3616568
vn 0.0000000 -0.1888174 -0.9820122
vt 0.9154745 4.5004258
v -1.5674850 3.3651581 0.3616574
vn 0.0000000 0.1144246 -0.9934319
vt 0.4899714 4.5004258
v -1.0136490 2.9109740 0.1728754
vn 0.0000000 0.2547792 -0.9669993
vt 0.9154789 4.8752580
v -1.6001101 2.9109740 0.1728754
vn 0.0000000 0.1184165 -0.9929640
vt 0.4899757 4.8752580
v -1.5635010 -3.0375841 0.8494940
vn 0.0000000 0.9654061 -0.2607511
vt 0.4899746 -0.8795776
v -1.5635010 -2.9085550 0.9986674
vn 0.0000000 0.5770672 -0.8166967
vt 0.4899746 -1.0447040
v -0.9770404 -3.0375841 0.8494940
vn 0.0000000 0.9654059 -0.2607515
vt 0.9154777 -0.8795776
v -0.9770403 -2.9085550 0.9986674
vn 0.0000000 0.3491109 -0.9370815
vt 0.9154777 -1.0447040
v -1.5635010 -2.9398639 0.3287985
vn 0.0000000 0.8767855 0.4808817
vt 0.4899746 -0.4566956
v -0.9770403 -2.9398639 0.3287982
vn 0.0000000 0.8767858 0.4808812
vt 0.9154777 -0.4566956
v -0.9770403 -2.7243950 0.1268613
vn 0.0000000 0.4016279 0.9158030
vt 0.9154777 -0.2621603
v -1.5635010 -2.7243950 0.1268613
vn 0.0000000 0.4016276 0.9158031
vt 0.4899746 -0.2621603
v -1.5635010 3.3907530 -0.0015302
vn -1.0000000 0.0001005 0.0000000
vt 0.4292762 3.9930630
v -1.5635010 -2.2263811 -0.0000946
vn -1.0000000 0.0000000 0.0000000
vt 0.4292775 0.1239386
v -1.5635010 3.3490641 0.0826309
vn -1.0000000 0.0000000 0.0000000
vt 0.4899730 3.9742949
v -1.5635010 -2.2010789 0.0882768
vn -1.0000000 0.0000000 0.0000000
vt 0.4899769 0.1432045
v -0.9770403 -2.2010789 0.0882767
vn 1.0000000 0.0000000 0.0000000
vt 0.4899682 0.1432045
v -0.9770403 -2.2263811 -0.0000948
vn 1.0000000 0.0000000 0.0000000
vt 0.4292516 0.1239386
v -0.9770404 3.3490641 0.0826309
vn 1.0000000 0.0000000 0.0000000
vt 0.4898608 3.9742949
v -0.9770404 3.3907530 -0.0015302
vn 1.0000000 -0.0001007 0.0000000
vt 0.4291435 3.9930630
v -0.9770074 3.5123661 0.1227213
vn 1.0000000 0.0000000 0.0000000
vt 0.4898578 4.1088281
v -0.9770074 3.5859261 0.0610007
vn 1.0000000 0.0000000 0.0000000
vt 0.4291402 4.1216621
v -1.5634680 3.5859261 0.0610007
vn -1.0000000 0.0000000 0.0000000
vt 0.4292762 4.1216621
v -1.5634680 3.5123670 0.1227213
vn -1.0000000 0.0000000 0.0000000
vt 0.4899717 4.1088281
v -1.5635010 3.6121471 0.3058432
vn -0.9999770 0.0021308 -0.0064397
vt 0.4292760 4.2802219
v -1.5635010 3.5300529 0.2780603
vn -0.9999206 0.0089798 -0.0088418
vt 0.4899764 4.2937140
v -0.9770404 3.5300529 0.2780603
vn 0.9999206 -0.0089798 0.0088418
vt 0.4898477 4.2937140
v -0.9770404 3.6121471 0.3058429
vn 0.9999770 -0.0021311 0.0064401
vt 0.4291300 4.2802219
v -1.5674850 3.3651581 0.3616574
vn -0.9984785 0.0545382 -0.0081466
vt 0.4899714 4.5004258
v -1.5674850 3.3939321 0.4419217
vn -0.9992573 0.0341703 -0.0178106
vt 0.4292759 4.4654388
v -0.9810245 3.3651569 0.3616568
vn 0.9984785 -0.0545377 0.0081463
vt 0.4898468 4.5004258
v -0.9810245 3.3939321 0.4419214
vn 0.9992573 -0.0341701 0.0178100
vt 0.4291292 4.4654388
v -1.6001101 2.8982120 0.2590225
vn -0.9986603 0.0516517 -0.0031159
vt 0.4292755 4.8752580
v -1.6001101 2.9109740 0.1728754
vn -0.9987510 0.0494255 0.0073224
vt 0.4899757 4.8752580
v -1.0136490 2.8982120 0.2590225
vn 0.9986603 -0.0516522 0.0031158
vt 0.4291155 4.8752580
v -1.0136490 2.9109740 0.1728754
vn 0.9987509 -0.0494262 -0.0073224
vt 0.4898283 4.8752580
v -1.5635010 -2.6218269 1.1145250
vn -1.0000000 0.0000000 0.0000000
vt 0.4292770 -1.2341170
v -1.5635010 -2.6428809 1.0291060
vn -1.0000000 0.0000000 0.0000000
vt 0.4899746 -1.2341170
v -1.5635010 -2.9384351 1.0760610
vn -1.0000000 0.0000000 0.0000000
vt 0.4292771 -1.0447040
v -1.5635010 -2.9085550 0.9986674
vn -1.0000000 0.0000000 0.0000000
vt 0.4899746 -1.0447040
v -0.9770403 -2.9085550 0.9986674
vn 1.0000000 0.0000000 0.0000000
vt 0.4899716 -1.0447040
v -0.9770403 -2.6428809 1.0291060
vn 1.0000000 0.0000000 0.0000000
vt 0.4899715 -1.2341170
v -0.9770403 -2.9384351 1.0760610
vn 1.0000000 0.0000000 0.0000000
vt 0.4292540 -1.0447040
v -0.9770403 -2.6218269 1.1145250
vn 1.0000000 0.0000000 0.0000000
vt 0.4292541 -1.2341170
v -1.5635010 -3.0375841 0.8494940
vn -1.0000000 0.0000000 0.0000000
vt 0.4899746 -0.8795776
v -1.5635010 -3.1260140 0.8658061
vn -1.0000000 0.0000000 0.0000000
vt 0.4292771 -0.8795776
v -0.9770404 -3.1260140 0.8658060
vn 1.0000000 0.0000000 0.0000000
vt 0.4292540 -0.8795776
v -0.9770404 -3.0375841 0.8494940
vn 1.0000000 0.0000000 0.0000000
vt 0.4899716 -0.8795776
v -1.5635010 -2.9398639 0.3287985
vn -1.0000000 0.0000000 0.0000000
vt 0.4899746 -0.4566956
v -1.5635010 -3.0033960 0.2708627
vn -1.0000000 0.0000000 0.0000000
vt 0.4292771 -0.4479127
v -0.9770403 -2.9398639 0.3287982
vn 1.0000000 0.0000000 0.0000000
vt 0.4899716 -0.4566956
v -0.9770403 -3.0033960 0.2708624
vn 1.0000000 0.0000000 0.0000000
vt 0.4292540 -0.4479127
v -0.9770403 -2.7243950 0.1268613
vn 1.0000000 0.0000000 0.0000000
vt 0.4899711 -0.2621603
v -0.9770403 -2.7774870 0.0479187
vn 1.0000000 0.0000000 0.0000000
vt 0.4292540 -0.2676425
v -1.5635010 -2.7243950 0.1268613
vn -1.0000000 0.0000000 0.0000000
vt 0.4899746 -0.2621603
v -1.5635010 -2.7774870 0.0479187
vn -1.0000000 0.0000000 0.0000000
vt 0.4292771 -0.2676425
v -1.2469490 3.3490641 0.0826309
vn 0.9837217 -0.0223073 0.1783087
vt 0.9242696 3.9872079
v -1.2618800 3.3083560 0.1648132
vn 0.9843812 -0.0072846 0.1758994
vt 0.9902966 3.9575181
v -1.2469490 -2.1986480 0.0864664
vn 0.9833480 0.0052626 0.1816565
vt 0.9255434 0.1432045
v -1.2618800 -2.1819429 0.1677206
vn 0.9836929 0.0047253 0.1797944
vt 0.9905127 0.1432045
v -1.2618470 3.4372470 0.1815405
vn 0.9893116 -0.1057127 0.1004359
vt 0.9902754 4.1191750
v -1.2469161 3.5136261 0.1218411
vn 0.9882441 -0.1110983 0.1050281
vt 0.9242534 4.1099920
v -1.2618800 3.4467211 0.2578275
vn 0.9870010 -0.1193342 -0.1076495
vt 0.9902430 4.3200769
v -1.2469490 3.5321560 0.2786816
vn 0.9858811 -0.1593935 -0.0513042
vt 0.9242330 4.2995911
v -1.2658640 3.3260250 0.2774292
vn 0.9861977 -0.0185817 -0.1645265
vt 0.9902213 4.5357618
v -1.2509331 3.3653359 0.3625815
vn 0.9832281 -0.0595006 -0.1724013
vt 0.9242113 4.5015359
v -1.2835571 2.9105310 0.1758707
vn 0.9845534 -0.0184756 -0.1741070
vt 0.9241614 4.8752580
v -1.2984880 2.9230869 0.0911124
vn 0.9842131 -0.0180810 -0.1760615
vt 0.9901661 4.8752580
v -1.2492580 -2.9444089 0.3266263
vn 0.9879393 0.1289576 0.0857085
vt 0.9258300 -0.4566956
v -1.2619030 -2.8821709 0.3883226
vn 0.9890378 0.1393537 0.0488354
vt 0.9905320 -0.4625521
v -1.2469490 -3.0399449 0.8503876
vn 0.9870706 0.1587338 0.0222552
vt 0.9258300 -0.8795776
v -1.2618800 -2.9350820 0.8290956
vn 0.9893703 0.1443876 0.0172818
vt 0.9914870 -0.8795776
v -1.2618910 -2.6847670 0.1940804
vn 0.9870333 0.0586347 0.1494234
vt 0.9903815 -0.2621603
v -1.2481030 -2.7265110 0.1246786
vn 0.9854270 0.0624168 0.1582334
vt 0.9258300 -0.2621603
v -1.2618800 -2.1819429 0.1677206
vn -0.9830793 0.0048348 0.1831167
vt 0.9905127 0.1432045
v -1.2618800 3.3083560 0.1648132
vn -0.9837793 -0.0072603 0.1792364
vt 0.9902966 3.9575181
v -1.2770970 -2.1986470 0.0864662
vn -0.9827284 0.0053737 0.1849758
vt 0.9255434 0.1432045
v -1.2770979 3.3490641 0.0826309
vn -0.9830764 -0.0224581 0.1818145
vt 0.9242696 3.9871759
v -1.2770650 3.5136261 0.1218411
vn -0.9877969 -0.1131797 0.1069938
vt 0.9242534 4.1099610
v -1.2618470 3.4372470 0.1815405
vn -0.9889399 -0.1075260 0.1021568
vt 0.9902754 4.1191750
v -1.2618800 3.4467211 0.2578275
vn -0.9855438 -0.0957759 -0.1397515
vt 0.9902430 4.3200769
v -1.2770979 3.5321569 0.2786816
vn -0.9848475 -0.1573736 -0.0728626
vt 0.9242330 4.2999339
v -1.2658640 3.3260250 0.2774292
vn -0.9749852 0.1084741 -0.1940031
vt 0.9902213 4.5357618
v -1.2810820 3.3653359 0.3625815
vn -0.9728321 0.0224038 -0.2304251
vt 0.9242113 4.5031052
v -1.3137060 2.9105310 0.1758707
vn -0.9774967 0.0960534 -0.1878139
vt 0.9241614 4.8752580
v -1.2984880 2.9230869 0.0911124
vn -0.9824596 0.0906396 -0.1629652
vt 0.9901661 4.8752580
v -1.2747689 -2.9444079 0.3266263
vn -0.9875132 0.1312062 0.0871930
vt 0.9258300 -0.4566956
v -1.2770979 -3.0399449 0.8503876
vn -0.9866039 0.1615450 0.0227161
vt 0.9258300 -0.8795776
v -1.2619030 -2.8821709 0.3883226
vn -0.9886430 0.1418252 0.0497069
vt 0.9905320 -0.4625521
v -1.2618800 -2.9350820 0.8290956
vn -0.9889613 0.1471118 0.0177105
vt 0.9914870 -0.8795776
v -1.2618910 -2.6847670 0.1940804
vn -0.9865632 0.0597059 0.1520797
vt 0.9903815 -0.2621603
v -1.2759330 -2.7265100 0.1246786
vn -0.9848994 0.0635603 0.1610381
vt 0.9258300 -0.2621603
v -1.2770970 -2.6424670 1.0307870
vn -0.9844665 -0.0877775 -0.1520553
vt 0.9258300 -1.2341170
v -1.2770970 -2.2918520 0.8283890
vn -0.9857631 -0.0208650 -0.1668407
vt 0.9258300 -1.5202980
v -1.2618800 -2.6637261 0.9445377
vn -0.9828259 -0.0904556 -0.1608450
vt 0.9917693 -1.2341170
v -1.2618800 -2.2948270 0.7420042
vn -0.9847253 -0.0221186 -0.1727047
vt 0.9917744 -1.5202980
v -1.5635010 -2.2919090 0.8266888
vn -1.0000000 0.0000000 0.0000000
vt 0.4899749 -1.5203738
v -1.5635010 -2.2889700 0.9123738
vn -1.0000000 0.0000000 0.0000000
vt 0.4292771 -1.5203738
v -1.5635010 -1.8894250 0.9423809
vn -1.0000000 0.0000000 0.0000000
vt 0.4899750 -1.8215799
v -1.5635010 -1.8894250 1.0304550
vn -1.0000000 0.0000000 0.0000000
vt 0.4292771 -1.8215799
v -0.9770403 -2.6218269 1.1145250
vn 0.0000000 0.2108507 0.9775183
vt 0.0016835 -1.2341170
v -1.5635010 -2.6218269 1.1145250
vn 0.0000000 0.2108511 0.9775182
vt 0.4292770 -1.2341170
v -1.5635010 -2.6428809 1.0291060
vn 0.0000000 -0.2031074 -0.9791565
vt 0.4899746 -1.2341170
v -0.9770403 -2.6428809 1.0291060
vn 0.0000000 -0.2031076 -0.9791564
vt 0.9154778 -1.2341170
v -0.9770403 -2.2889700 0.9123738
vn 0.0000000 0.1288543 0.9916636
vt 0.0016835 -1.5203738
v -0.9770403 -1.8894250 1.0304550
vn 0.0000000 -0.1022543 0.9947583
vt 0.0016835 -1.8215799
v -1.5635010 -2.2889700 0.9123738
vn 0.0000000 0.1288544 0.9916635
vt 0.4292771 -1.5203738
v -1.5635010 -1.8894250 1.0304550
vn 0.0000000 0.0891072 0.9960220
vt 0.4292771 -1.8215799
v -1.5635010 -1.8894250 0.9423809
vn 0.0000000 0.0078412 -0.9999693
vt 0.4899750 -1.8215799
v -0.9770403 -1.8894250 0.9423808
vn 0.0000000 0.0078413 -0.9999693
vt 0.9154782 -1.8215799
v -1.5635010 -2.2919090 0.8266888
vn 0.0000000 0.0189752 -0.9998200
vt 0.4899749 -1.5203738
v -0.9770403 -2.2919090 0.8266887
vn 0.0000000 -0.2592169 -0.9658191
vt 0.9154780 -1.5202980
v -1.2770979 -1.8894250 0.9441475
vn -0.9855590 0.0014328 -0.1693261
vt 0.9258300 -1.8215799
v -1.2618800 -1.8894250 0.8555748
vn -0.9848124 0.0012616 -0.1736170
vt 0.9917796 -1.8215799
v -1.5635010 -0.9540278 1.0331290
vn 0.0000000 -0.1599539 0.9871245
vt 0.4292770 -2.5159850
v -0.9770403 -0.9540275 1.0331290
vn 0.0000000 -0.1599538 0.9871245
vt 0.0016835 -2.5159850
v -1.5635010 -0.0056412 1.0323780
vn 0.0000000 0.1862132 0.9825094
vt 0.4292771 -3.2062292
v -0.9770403 -0.0056410 1.0323780
vn 0.0000000 0.1862132 0.9825094
vt 0.0016835 -3.2062292
v -0.9770404 -0.0056412 0.9440722
vn 0.0000000 -0.2551936 -0.9668900
vt 0.9154791 -3.2062292
v -0.9770403 -0.9540277 0.9449408
vn 0.0000000 0.1050428 -0.9944677
vt 0.9154786 -2.5159850
v -1.5635010 -0.0056412 0.9440722
vn 0.0000000 -0.1280624 -0.9917662
vt 0.4899760 -3.2062292
v -1.5635010 -0.9540278 0.9449409
vn 0.0000000 0.2110119 -0.9774835
vt 0.4899755 -2.5159850
v -1.2618800 -0.0056412 0.8588564
vn -0.9851020 0.0000000 -0.1719715
vt 0.9918040 -3.2062292
v -1.2618800 -0.9540277 0.8589131
vn -0.9847837 0.0281692 -0.1714863
vt 0.9917917 -2.5159850
v -1.2770979 -0.0056412 0.9460284
vn -0.9852194 0.0000000 -0.1712974
vt 0.9258300 -3.2062292
v -1.2770979 -0.9540277 0.9467944
vn -0.9849482 0.0280679 -0.1705561
vt 0.9258300 -2.5159850
v -1.5635010 -0.0056412 1.0323780
vn -1.0000000 0.0000000 0.0000000
vt 0.4292771 -3.2062292
v -1.5635010 0.2828751 0.9192032
vn -1.0000000 0.0000000 0.0000000
vt 0.4292771 -3.4080782
v -1.5635010 -0.0056412 0.9440722
vn -1.0000000 0.0000000 0.0000000
vt 0.4899760 -3.2062292
v -1.5635010 0.2401019 0.8443352
vn -1.0000000 0.0000000 0.0000000
vt 0.4899761 -3.4080782
v -0.9770403 0.2828750 0.9192032
vn 0.0000000 0.5173681 0.8557630
vt 0.0016835 -3.4080782
v -1.5635010 0.2828751 0.9192032
vn 0.0000000 0.6585557 0.7525319
vt 0.4292771 -3.4080782
v -1.5635010 0.2401019 0.8443352
vn 0.0000000 -0.5313687 -0.8471407
vt 0.4899761 -3.4080782
v -0.9770404 0.2401019 0.8443352
vn 0.0000000 -0.6746702 -0.7381193
vt 0.9154793 -3.4080782
v -1.6149350 2.4367471 0.2697664
vn -0.9994843 0.0321109 0.0000000
vt 0.4292753 5.2437768
v -1.6149350 2.4367471 0.1812279
vn -0.9994941 0.0317201 0.0023207
vt 0.4899752 5.2437768
v -1.0284750 2.4367471 0.2697665
vn 0.9994843 -0.0321108 0.0000000
vt 0.4291061 5.2437758
v -1.0284750 2.4367471 0.1812279
vn 0.9994941 -0.0317202 -0.0023208
vt 0.4898190 5.2437782
v -1.0284750 2.4367471 0.2697665
vn 0.0000000 0.0232760 0.9997291
vt 0.0016817 5.2437758
v -1.6149350 2.4367471 0.2697664
vn 0.0000000 0.0232758 0.9997291
vt 0.4292753 5.2437768
v -1.0284750 2.4367471 0.1812279
vn 0.0000000 -0.0176102 -0.9998450
vt 0.9154785 5.2437768
v -1.6149350 2.4367471 0.1812279
vn 0.0000000 -0.0176102 -0.9998450
vt 0.4899752 5.2437768
v -1.3133140 2.4911900 0.0980217
vn 0.9838587 -0.0373262 -0.1750111
vt 0.9901231 5.1855750
v -1.2983830 2.4911900 0.1837889
vn 0.9844692 -0.0380428 -0.1713858
vt 0.9241247 5.1848869
v -1.3133140 2.4911900 0.0980217
vn -0.9843560 0.0312698 -0.1733944
vt 0.9901231 5.1855750
v -1.3285320 2.4911900 0.1837889
vn -0.9841331 0.0314969 -0.1746139
vt 0.9241247 5.1848869
v -1.5635010 0.4135562 0.6188046
vn 0.0000000 -0.7926760 -0.6096432
vt 0.4899762 -3.6221457
v -0.9770404 0.4135562 0.6188046
vn 0.0000000 -0.7926760 -0.6096432
vt 0.9154794 -3.6221457
v -0.9770403 0.2828750 0.9192032
vn 1.0000000 0.0000000 0.0000000
vt 0.4292551 -3.4080782
v -0.9770404 0.2401019 0.8443352
vn 1.0000000 0.0000000 0.0000000
vt 0.4899695 -3.4080782
v -0.9770403 0.4875459 0.6671102
vn 1.0000000 0.0000000 0.0000000
vt 0.4292551 -3.6221457
v -0.9770404 0.4135562 0.6188046
vn 1.0000000 0.0000000 0.0000000
vt 0.4899694 -3.6221457
v -0.9770403 0.4875459 0.6671102
vn 0.0000000 0.7763471 0.6303056
vt 0.0016835 -3.6221457
v -1.5635010 0.4875460 0.6671102
vn 0.0000000 0.7763470 0.6303058
vt 0.4292771 -3.6221457
v -1.5635010 0.4875460 0.6671102
vn -1.0000000 0.0000000 0.0000000
vt 0.4292771 -3.6221457
v -1.5635010 0.4135562 0.6188046
vn -1.0000000 0.0000000 0.0000000
vt 0.4899762 -3.6221457
v -1.5635010 -0.9540278 1.0331290
vn -1.0000000 0.0000000 0.0000000
vt 0.4292770 -2.5159850
v -1.5635010 -0.9540278 0.9449409
vn -1.0000000 0.0000000 0.0000000
vt 0.4899755 -2.5159850
v -0.9770403 -1.3796710 0.8044711
vn 0.0000000 0.1266129 -0.9919522
vt 0.9154784 -2.2000470
v -1.5635010 -1.3796710 0.8044713
vn 0.0000000 -0.0723442 -0.9973798
vt 0.4899753 -2.2000470
v -1.5635010 -1.3861710 0.8889235
vn 0.0000000 -0.1256992 0.9920684
vt 0.4292770 -2.2009039
v -0.9770403 -1.3861700 0.8889235
vn 0.0000000 0.0780244 0.9969515
vt 0.0016835 -2.1984241
v -1.5635010 -1.3796710 0.8044713
vn -1.0000000 0.0000000 0.0000000
vt 0.4899753 -2.2000470
v -1.5635010 -1.3861710 0.8889235
vn -1.0000000 0.0000000 0.0000000
vt 0.4292770 -2.2009039
v -1.2618800 -1.3733300 0.7216838
vn -0.9842273 0.0048593 -0.1768419
vt 0.9917861 -2.1989701
v -1.2770979 -1.3798070 0.8062000
vn -0.9848371 0.0050494 -0.1734081
vt 0.9258300 -2.1989789
v -1.5635010 0.4875460 0.6671102
vn 0.0000000 0.5466759 -0.8373443
vt 0.4289813 0.5019908
v -0.9770403 0.4875459 0.6671102
vn 0.0000000 0.5466762 -0.8373441
vt 0.0010626 0.5019908
v -1.5635010 0.4135562 0.6188046
vn 0.0000000 0.5466762 -0.8373441
vt 0.4289813 0.4367796
v -0.9770404 0.4135562 0.6188046
vn 0.0000000 0.5466766 -0.8373439
vt 0.0010626 0.4367796
v -1.0284750 2.4367471 0.1812279
vn 0.0000000 -1.0000000 0.0000000
vt 0.0010625 0.5019907
v -1.0284750 2.4367471 0.2697665
vn 0.0000000 -1.0000000 0.0000000
vt 0.0010625 0.4367795
v -1.6149350 2.4367471 0.1812279
vn 0.0000000 -1.0000000 0.0000000
vt 0.4289813 0.5019908
v -1.6149350 2.4367471 0.2697664
vn 0.0000000 -1.0000000 0.0000000
vt 0.4289814 0.4367796

g group_148690776_106652632072448
f 1/1/1 2/2/2 3/3/3 
f 3/3/3 2/2/2 4/4/4 
f 5/5/5 6/6/6 3/3/3 
f 3/3/3 6/6/6 1/1/1 
f 7/7/7 8/8/8 5/5/5 
f 5/5/5 8/8/8 6/6/6 
f 8/8/8 7/7/7 9/9/9 
f 9/9/9 7/7/7 10/10/10 
f 9/9/9 10/10/10 11/11/11 
f 11/11/11 10/10/10 12/12/12 
f 13/13/13 14/14/14 15/15/15 
f 15/15/15 14/14/14 16/16/16 
f 17/17/17 14/14/14 18/18/18 
f 18/18/18 14/14/14 13/13/13 
f 4/4/4 2/2/2 19/19/19 
f 19/19/19 2/2/2 20/20/20 
f 21/21/21 22/22/22 23/23/23 
f 23/23/23 22/22/22 24/24/24 
f 25/25/25 26/26/26 27/27/27 
f 27/27/27 26/26/26 28/28/28 
f 27/27/27 29/29/29 25/25/25 
f 25/25/25 29/29/29 30/30/30 
f 29/29/29 31/31/31 30/30/30 
f 30/30/30 31/31/31 32/32/32 
f 33/33/33 34/34/34 35/35/35 
f 35/35/35 34/34/34 36/36/36 
f 33/33/33 35/35/35 37/37/37 
f 37/37/37 35/35/35 38/38/38 
f 24/24/24 22/22/22 39/39/39 
f 39/39/39 22/22/22 40/40/40 
f 41/41/41 42/42/42 43/43/43 
f 43/43/43 42/42/42 44/44/44 
f 45/45/45 46/46/46 47/47/47 
f 47/47/47 46/46/46 48/48/48 
f 47/47/47 48/48/48 49/49/49 
f 49/49/49 48/48/48 50/50/50 
f 51/51/51 52/52/52 53/53/53 
f 53/53/53 52/52/52 54/54/54 
f 55/55/55 49/49/49 56/56/56 
f 56/56/56 49/49/49 50/50/50 
f 57/57/57 58/58/58 54/54/54 
f 54/54/54 58/58/58 53/53/53 
f 59/59/59 55/55/55 60/60/60 
f 60/60/60 55/55/55 56/56/56 
f 58/58/58 57/57/57 61/61/61 
f 61/61/61 57/57/57 62/62/62 
f 60/60/60 63/63/63 59/59/59 
f 59/59/59 63/63/63 64/64/64 
f 65/65/65 66/66/66 67/67/67 
f 67/67/67 66/66/66 68/68/68 
f 69/69/69 70/70/70 71/71/71 
f 71/71/71 70/70/70 72/72/72 
f 68/68/68 73/73/73 67/67/67 
f 67/67/67 73/73/73 74/74/74 
f 75/75/75 76/76/76 71/71/71 
f 71/71/71 76/76/76 69/69/69 
f 73/73/73 77/77/77 74/74/74 
f 74/74/74 77/77/77 78/78/78 
f 76/76/76 75/75/75 79/79/79 
f 79/79/79 75/75/75 80/80/80 
f 45/45/45 81/81/81 46/46/46 
f 46/46/46 81/81/81 82/82/82 
f 44/44/44 42/42/42 83/83/83 
f 83/83/83 42/42/42 84/84/84 
f 85/85/85 86/86/86 87/87/87 
f 87/87/87 86/86/86 88/88/88 
f 86/86/86 85/85/85 89/89/89 
f 89/89/89 85/85/85 90/90/90 
f 91/91/91 89/89/89 92/92/92 
f 92/92/92 89/89/89 90/90/90 
f 93/93/93 91/91/91 94/94/94 
f 94/94/94 91/91/91 92/92/92 
f 94/94/94 95/95/95 93/93/93 
f 93/93/93 95/95/95 96/96/96 
f 97/97/97 98/98/98 99/99/99 
f 99/99/99 98/98/98 100/100/100 
f 88/88/88 101/101/101 87/87/87 
f 87/87/87 101/101/101 102/102/102 
f 103/103/103 104/104/104 105/105/105 
f 105/105/105 104/104/104 106/106/106 
f 107/107/107 106/106/106 108/108/108 
f 108/108/108 106/106/106 104/104/104 
f 109/109/109 110/110/110 108/108/108 
f 108/108/108 110/110/110 107/107/107 
f 111/111/111 112/112/112 109/109/109 
f 109/109/109 112/112/112 110/110/110 
f 112/112/112 111/111/111 113/113/113 
f 113/113/113 111/111/111 114/114/114 
f 115/115/115 116/116/116 117/117/117 
f 117/117/117 116/116/116 118/118/118 
f 103/103/103 105/105/105 119/119/119 
f 119/119/119 105/105/105 120/120/120 
f 26/26/26 21/21/21 28/28/28 
f 28/28/28 21/21/21 23/23/23 
f 43/43/43 52/52/52 41/41/41 
f 41/41/41 52/52/52 51/51/51 
f 121/121/121 122/122/122 123/123/123 
f 123/123/123 122/122/122 124/124/124 
f 125/125/125 126/126/126 127/127/127 
f 127/127/127 126/126/126 128/128/128 
f 16/16/16 129/129/129 15/15/15 
f 15/15/15 129/129/129 130/130/130 
f 34/34/34 131/131/131 36/36/36 
f 36/36/36 131/131/131 132/132/132 
f 133/133/133 134/134/134 135/135/135 
f 135/135/135 134/134/134 136/136/136 
f 137/137/137 138/138/138 139/139/139 
f 139/139/139 138/138/138 140/140/140 
f 141/141/141 142/142/142 122/122/122 
f 122/122/122 142/142/142 124/124/124 
f 143/143/143 144/144/144 145/145/145 
f 145/145/145 144/144/144 146/146/146 
f 147/147/147 148/148/148 149/149/149 
f 149/149/149 148/148/148 150/150/150 
f 151/151/151 152/152/152 153/153/153 
f 153/153/153 152/152/152 154/154/154 
f 155/155/155 156/156/156 157/157/157 
f 157/157/157 156/156/156 158/158/158 
f 146/146/146 159/159/159 145/145/145 
f 145/145/145 159/159/159 160/160/160 
f 149/149/149 161/161/161 147/147/147 
f 147/147/147 161/161/161 162/162/162 
f 163/163/163 61/61/61 164/164/164 
f 164/164/164 61/61/61 62/62/62 
f 165/165/165 166/166/166 63/63/63 
f 63/63/63 166/166/166 64/64/64 
f 11/11/11 12/12/12 167/167/167 
f 167/167/167 12/12/12 168/168/168 
f 31/31/31 169/169/169 32/32/32 
f 32/32/32 169/169/169 170/170/170 
f 96/96/96 95/95/95 171/171/171 
f 171/171/171 95/95/95 172/172/172 
f 114/114/114 173/173/173 113/113/113 
f 113/113/113 173/173/173 174/174/174 
f 161/161/161 175/175/175 162/162/162 
f 162/162/162 175/175/175 176/176/176 
f 177/177/177 178/178/178 179/179/179 
f 179/179/179 178/178/178 180/180/180 
f 159/159/159 181/181/181 160/160/160 
f 160/160/160 181/181/181 182/182/182 
f 156/156/156 183/183/183 158/158/158 
f 158/158/158 183/183/183 184/184/184 
f 185/185/185 155/155/155 186/186/186 
f 186/186/186 155/155/155 157/157/157 
f 148/148/148 187/187/187 150/150/150 
f 150/150/150 187/187/187 188/188/188 
f 143/143/143 189/189/189 144/144/144 
f 144/144/144 189/189/189 190/190/190 
f 191/191/191 192/192/192 186/186/186 
f 186/186/186 192/192/192 185/185/185 
f 193/193/193 194/194/194 152/152/152 
f 152/152/152 194/194/194 154/154/154 
f 187/187/187 138/138/138 188/188/188 
f 188/188/188 138/138/138 137/137/137 
f 189/189/189 136/136/136 190/190/190 
f 190/190/190 136/136/136 134/134/134 
f 191/191/191 127/127/127 192/192/192 
f 192/192/192 127/127/127 128/128/128 
f 193/193/193 142/142/142 194/194/194 
f 194/194/194 142/142/142 141/141/141 
f 132/132/132 131/131/131 140/140/140 
f 140/140/140 131/131/131 139/139/139 
f 125/125/125 66/66/66 126/126/126 
f 126/126/126 66/66/66 65/65/65 
f 130/130/130 129/129/129 135/135/135 
f 135/135/135 129/129/129 133/133/133 
f 19/19/19 20/20/20 18/18/18 
f 18/18/18 20/20/20 17/17/17 
f 77/77/77 83/83/83 78/78/78 
f 78/78/78 83/83/83 84/84/84 
f 38/38/38 39/39/39 37/37/37 
f 37/37/37 39/39/39 40/40/40 
f 82/82/82 81/81/81 80/80/80 
f 80/80/80 81/81/81 79/79/79 
f 120/120/120 115/115/115 119/119/119 
f 119/119/119 115/115/115 117/117/117 
f 102/102/102 101/101/101 97/97/97 
f 97/97/97 101/101/101 98/98/98 
f 195/195/195 196/196/196 197/197/197 
f 197/197/197 196/196/196 198/198/198 
f 199/199/199 200/200/200 201/201/201 
f 201/201/201 200/200/200 202/202/202 
