v -1.5635010 2.0624540 0.0004300
vn 0.0000000 0.2674993 -0.9635581
vt 0.4292771 -1.3512280
v -0.9770404 2.0624540 0.0004300
vn -0.0002976 0.2673399 -0.9636023
vt 0.0016835 -1.3512280
v -1.5635010 -2.0615480 0.0004300
vn 0.0000000 -0.1598476 -0.9871417
vt 0.4292771 -4.3093629
v -0.9770403 -2.0615480 0.0004300
vn 0.0000000 -0.3196952 -0.9475204
vt 0.0016885 -4.3093629
v -1.5635010 3.0940890 0.7548038
vn 0.0000000 0.9608167 -0.2771846
vt 0.4292771 -0.3599378
v -0.9770403 3.0940890 0.7548038
vn -0.0002986 0.9609802 -0.2766171
vt 0.0016835 -0.3599378
v -1.5634850 2.9338441 0.5246567
vn -0.0005825 0.6834742 -0.7299744
vt 0.4292770 -0.5781300
v -0.9770239 2.9342959 0.5241434
vn -0.0011653 0.6837854 -0.7296823
vt 0.0016835 -0.5779209
v -0.9770404 3.0831530 0.9898560
vn 0.0000000 0.9398491 0.3415899
vt 0.0016835 -0.2056019
v -1.5635010 3.0831530 0.9898563
vn 0.0000000 0.9398488 0.3415908
vt 0.4292771 -0.2056019
v -1.5635010 2.9641931 1.1461051
vn 0.0000000 0.4740758 0.8804841
vt 0.4292560 -0.0717421
v -0.9770403 2.9641931 1.1461040
vn 0.0000000 0.6532601 0.7571337
vt 0.0016835 -0.0717421
v -1.5635010 2.7310600 1.2145910
vn 0.0000000 -0.0068939 0.9999763
vt 0.4292560 0.0625371
v -0.9770404 2.7310600 1.2145910
vn 0.0000000 0.1405238 0.9900773
vt 0.0016835 0.0625371
v -0.9770404 1.3927931 1.0101010
vn 0.0000000 -0.0636051 0.9979752
vt 0.0016835 1.0967890
v -1.5635010 1.3927931 1.0101010
vn 0.0000000 -0.0636050 0.9979752
vt 0.4292560 1.0967890
v -1.5635010 -3.0378489 1.0316761
vn 0.0000000 -0.7612180 0.6484962
vt 0.4292771 4.4147992
v -0.9770403 -3.0378489 1.0316761
vn 0.0000000 -0.5947605 0.8039030
vt 0.0016835 4.4147992
v -1.5635010 -2.8390210 1.1204470
vn 0.0000000 -0.1652471 0.9862522
vt 0.4292540 4.2712722
v -0.9770403 -2.8390210 1.1204460
vn 0.0000000 -0.1652470 0.9862522
vt 0.0016835 4.2712722
v -1.5635010 -3.1260140 0.8658061
vn 0.0000000 -0.9833020 0.1819813
vt 0.4292771 4.5262799
v -0.9770404 -3.1260140 0.8658060
vn 0.0000000 -0.9435622 0.3311955
vt 0.0016835 4.5262799
v -1.5635010 -3.1320069 0.6787041
vn 0.0000000 -0.9109847 -0.4124402
vt 0.4292771 4.6498361
v -0.9770403 -3.1320069 0.6787039
vn 0.0000000 -0.9819078 -0.1893597
vt 0.0016835 4.6498361
v -1.5635010 -2.9897931 0.4907196
vn 0.0000000 -0.5896512 -0.8076581
vt 0.4292771 4.8600488
v -0.9770403 -2.9897940 0.4907193
vn 0.0000000 -0.7021804 -0.7119991
vt 0.0016835 4.8600488
v -1.5635010 -2.0615480 0.0004300
vn 0.0000000 -0.1598476 -0.9871417
vt 0.4292771 5.6305609
v -0.9770403 -2.0615480 0.0004300
vn 0.0000000 -0.3196952 -0.9475204
vt 0.0016835 5.6305609
v -1.5635010 -2.0362470 0.0917584
vn 0.0460632 0.3180446 0.9469561
vt 0.4899763 -4.3093629
v -0.9770403 -2.0362470 0.0496135
vn 0.0461801 0.1613138 0.9858221
vt 0.9154797 -4.3093629
v -1.5635010 2.0364859 0.0917583
vn 0.0189096 -0.2701349 0.9626368
vt 0.4899721 -1.3512280
v -0.9770404 2.0364859 0.0917583
vn 0.0000000 -0.2723200 0.9622068
vt 0.9154782 -1.3512280
v -1.5634850 2.8657479 0.5910980
vn 0.0008252 -0.7168735 0.6972029
vt 0.4899678 -0.5760877
v -0.9770239 2.8662291 0.5905518
vn 0.0008255 -0.6208578 0.7839228
vt 0.9154763 -0.5758587
v -1.5635010 3.0057580 0.7770285
vn 0.0000000 -0.9780393 0.2084204
vt 0.4899678 -0.3599378
v -0.9770403 3.0057571 0.7770282
vn 0.0004238 -0.9081838 0.4185716
vt 0.9154807 -0.3599378
v -1.5635010 3.0053029 0.9547391
vn 0.0000000 -0.9099621 -0.4146914
vt 0.4899678 -0.2056019
v -0.9770404 3.0053029 0.9547391
vn 0.0000000 -0.9779831 -0.2086844
vt 0.9154807 -0.2056019
v -1.5635010 2.9161620 1.0756540
vn 0.0000000 -0.4660567 -0.8847548
vt 0.4899678 -0.0717421
v -0.9770403 2.9161611 1.0756540
vn 0.0000000 -0.6563469 -0.7544593
vt 0.9154757 -0.0717421
v -1.5635010 2.7310600 1.1259410
vn 0.0000000 -0.0568570 -0.9983823
vt 0.4899678 0.0625371
v -0.9770404 2.7310600 1.1259410
vn 0.0000000 -0.0568576 -0.9983823
vt 0.9154807 0.0625371
v -1.5635010 1.3927931 0.9216351
vn 0.0000000 0.0634914 -0.9979824
vt 0.4915502 1.0967890
v -0.9770404 1.3927931 0.9216351
vn 0.0000000 0.0634913 -0.9979824
vt 0.9148902 1.0968339
v -1.5635010 -2.9780879 0.9648427
vn 0.0000000 0.7732982 -0.6340426
vt 0.4899746 4.4147992
v -1.5635010 -2.8390210 1.0324930
vn 0.0000000 0.2710502 -0.9625652
vt 0.4899716 4.2712722
v -0.9770403 -2.9780869 0.9648425
vn 0.0000000 0.6157363 -0.7879523
vt 0.9154777 4.4147992
v -0.9770403 -2.8390210 1.0324920
vn 0.0000000 0.0900868 -0.9959339
vt 0.9154777 4.2712722
v -1.5635010 -3.0375841 0.8494940
vn 0.0000000 0.9813544 -0.1922070
vt 0.4899746 4.5262799
v -0.9770404 -3.0375841 0.8494940
vn 0.0000000 0.9440057 -0.3299291
vt 0.9154777 4.5262799
v -1.5635010 -3.0454719 0.7020177
vn 0.0000000 0.9223431 0.3863719
vt 0.4899746 4.6498361
v -0.9770403 -3.0454719 0.7020175
vn 0.0000000 0.9862767 0.1651005
vt 0.9154777 4.6498361
v -1.5635010 -2.9316781 0.5412630
vn 0.0000000 0.6518542 0.7583443
vt 0.4899746 4.8600488
v -0.9770403 -2.9316781 0.5412628
vn 0.0161707 0.6588295 0.7521185
vt 0.9154777 4.8600488
v -0.9770403 -2.0362470 0.0496135
vn 0.0461801 0.1613138 0.9858221
vt 0.9154807 5.6305609
v -1.5635010 -2.0362470 0.0917584
vn 0.0460632 0.3180446 0.9469561
vt 0.4899774 5.6305609
v -1.5635010 -2.0615480 0.0004300
vn -1.0000000 0.0000000 0.0000000
vt 0.4292771 -4.3093629
v -1.5635010 -2.0362470 0.0917584
vn -1.0000000 0.0000000 0.0000000
vt 0.4899763 -4.3093629
v -1.5635010 2.0624540 0.0004300
vn -1.0000000 0.0000000 0.0000000
vt 0.4292771 -1.3512280
v -1.5635010 2.0364859 0.0917583
vn -1.0000000 0.0000000 0.0000000
vt 0.4899721 -1.3512280
v -0.9770404 2.0624540 0.0004300
vn 1.0000000 0.0000000 0.0000000
vt 0.4292545 -1.3512280
v -0.9770404 2.0364859 0.0917583
vn 1.0000000 0.0000000 0.0000000
vt 0.4899712 -1.3512280
v -0.9770403 -2.0615480 0.0004300
vn 1.0000000 0.0000000 0.0000000
vt 0.4292531 -4.3093629
v -0.9770403 -2.0362470 0.0496135
vn 1.0000000 0.0000000 0.0000000
vt 0.4899697 -4.3093629
v -1.5634850 2.8657479 0.5910980
vn -1.0000000 0.0000000 0.0000000
vt 0.4899678 -0.5760877
v -1.5634850 2.9338441 0.5246567
vn -1.0000000 0.0000000 0.0000000
vt 0.4292770 -0.5781300
v -1.5635010 3.0057580 0.7770285
vn -1.0000000 0.0000000 0.0000000
vt 0.4899678 -0.3599378
v -1.5635010 3.0940890 0.7548038
vn -1.0000000 0.0000000 0.0000000
vt 0.4292771 -0.3599378
v -0.9770403 3.0940890 0.7548038
vn 1.0000000 0.0000000 0.0000000
vt 0.4292511 -0.3599378
v -0.9770403 3.0057571 0.7770282
vn 1.0000000 0.0000000 0.0000000
vt 0.4899678 -0.3599378
v -0.9770239 2.9342959 0.5241434
vn 1.0000000 0.0000000 0.0000000
vt 0.4292555 -0.5779209
v -0.9770239 2.8662291 0.5905518
vn 1.0000000 0.0000000 0.0000000
vt 0.4899678 -0.5758587
v -1.5635010 3.0053029 0.9547391
vn -1.0000000 0.0000000 0.0000000
vt 0.4899678 -0.2056019
v -1.5635010 3.0831530 0.9898563
vn -1.0000000 0.0000000 0.0000000
vt 0.4292771 -0.2056019
v -0.9770404 3.0831530 0.9898560
vn 1.0000000 0.0000000 0.0000000
vt 0.4292511 -0.2056019
v -0.9770404 3.0053029 0.9547391
vn 1.0000000 0.0000000 0.0000000
vt 0.4899678 -0.2056019
v -1.5635010 2.9161620 1.0756540
vn -1.0000000 0.0000000 0.0000000
vt 0.4899678 -0.0717421
v -1.5635010 2.9641931 1.1461051
vn -1.0000000 0.0000000 0.0000000
vt 0.4292560 -0.0717421
v -0.9770403 2.9161611 1.0756540
vn 1.0000000 0.0000000 0.0000000
vt 0.4899678 -0.0717421
v -0.9770403 2.9641931 1.1461040
vn 1.0000000 0.0000000 0.0000000
vt 0.4292560 -0.0717421
v -1.5635010 2.7310600 1.2145910
vn -1.0000000 0.0000000 0.0000000
vt 0.4292560 0.0625371
v -1.5635010 2.7310600 1.1259410
vn -1.0000000 0.0000000 0.0000000
vt 0.4899678 0.0625371
v -0.9770404 2.7310600 1.1259410
vn 1.0000000 0.0000000 0.0000000
vt 0.4899678 0.0625371
v -0.9770404 2.7310600 1.2145910
vn 1.0000000 0.0000000 0.0000000
vt 0.4292560 0.0625371
v -1.5635010 -2.8390210 1.1204470
vn -1.0000000 0.0000000 0.0000000
vt 0.4292540 4.2712722
v -1.5635010 -1.3403929 0.9883833
vn -1.0000000 0.0000000 0.0000000
vt 0.4292540 3.1441650
v -1.5635010 -2.8390210 1.0324930
vn -1.0000000 0.0000000 0.0000000
vt 0.4899716 4.2712722
v -1.5635010 -1.3403929 0.9001791
vn -1.0000000 0.0000000 0.0000000
vt 0.4899716 3.1439819
v -0.9770403 -2.8390210 1.1204460
vn 1.0000000 0.0000000 0.0000000
vt 0.4292540 4.2712722
v -0.9770403 -2.8390210 1.0324920
vn 1.0000000 0.0000000 0.0000000
vt 0.4899716 4.2712722
v -0.9770403 -1.3403929 0.9883832
vn 1.0000000 0.0000000 0.0000000
vt 0.4292540 3.4637890
v -0.9770403 -1.3403929 0.9001791
vn 1.0000000 0.0000000 0.0000000
vt 0.4899716 3.4637890
v -1.5635010 -2.9780879 0.9648427
vn -1.0000000 0.0000000 0.0000000
vt 0.4899746 4.4147992
v -1.5635010 -3.0378489 1.0316761
vn -1.0000000 0.0000000 0.0000000
vt 0.4292771 4.4147992
v -0.9770403 -2.9780869 0.9648425
vn 1.0000000 0.0000000 0.0000000
vt 0.4899716 4.4147992
v -0.9770403 -3.0378489 1.0316761
vn 1.0000000 0.0000000 0.0000000
vt 0.4292540 4.4147992
v -1.5635010 -3.0375841 0.8494940
vn -1.0000000 0.0000000 0.0000000
vt 0.4899746 4.5262799
v -1.5635010 -3.1260140 0.8658061
vn -1.0000000 0.0000000 0.0000000
vt 0.4292771 4.5262799
v -0.9770404 -3.0375841 0.8494940
vn 1.0000000 0.0000000 0.0000000
vt 0.4899716 4.5262799
v -0.9770404 -3.1260140 0.8658060
vn 1.0000000 0.0000000 0.0000000
vt 0.4292540 4.5262799
v -1.5635010 -3.0454719 0.7020177
vn -1.0000000 0.0000000 0.0000000
vt 0.4899746 4.6498361
v -1.5635010 -3.1320069 0.6787041
vn -1.0000000 0.0000000 0.0000000
vt 0.4292771 4.6498361
v -0.9770403 -3.0454719 0.7020175
vn 1.0000000 0.0000000 0.0000000
vt 0.4899716 4.6498361
v -0.9770403 -3.1320069 0.6787039
vn 1.0000000 0.0000000 0.0000000
vt 0.4292540 4.6498361
v -1.5635010 -2.9316781 0.5412630
vn -1.0000000 0.0000000 0.0000000
vt 0.4899746 4.8600488
v -1.5635010 -2.9897931 0.4907196
vn -1.0000000 0.0000000 0.0000000
vt 0.4292771 4.8600488
v -0.9770403 -2.9316781 0.5412628
vn 1.0000000 0.0000000 0.0000000
vt 0.4899716 4.8600488
v -0.9770403 -2.9897940 0.4907193
vn 1.0000000 0.0000000 0.0000000
vt 0.4292540 4.8600488
v -0.9770403 -2.0362470 0.0496135
vn 1.0000000 0.0000000 0.0000000
vt 0.4899683 5.6305609
v -0.9770403 -2.0615480 0.0004300
vn 1.0000000 0.0000000 0.0000000
vt 0.4292516 5.6305609
v -1.5635010 -2.0362470 0.0917584
vn -1.0000000 0.0000000 0.0000000
vt 0.4899774 5.6305609
v -1.5635010 -2.0615480 0.0004300
vn -1.0000000 0.0000000 0.0000000
vt 0.4292771 5.6305609
v -1.2469490 2.7404311 1.1275930
vn 0.9855642 0.0331419 -0.1660270
vt 0.9258300 0.0625371
v -1.2469490 1.8724520 0.9543292
vn 0.9694291 0.0404341 -0.2420171
vt 0.9258300 0.7278166
v -1.2618800 2.7581160 1.0424880
vn 0.9694291 0.0404341 -0.2420171
vt 0.9918400 0.0625371
v -1.2618800 1.3927931 0.8376910
vn 0.9473923 0.0474802 -0.3165338
vt 0.9905779 1.0984420
v -1.2469490 -2.0338161 0.0707904
vn 0.9842855 0.0259470 0.1746676
vt 0.9258300 5.6305609
v -1.2618800 -2.0171111 0.1520447
vn 0.9852269 0.0499962 0.1637936
vt 0.9902260 5.6282630
v -1.2492580 -2.8786240 0.4897780
vn 0.9850317 0.0752307 0.1550902
vt 0.9258300 4.9234729
v -1.2619030 -2.8291881 0.5511278
vn 0.9867359 0.0715759 0.1457025
vt 0.9905320 4.9295540
v -1.2469490 2.0340159 0.0825662
vn 0.9848798 -0.0472848 0.1666614
vt 0.9258300 -1.3512280
v -1.2618800 2.0132179 0.1649017
vn 0.9856712 -0.0449716 0.1625730
vt 0.9918170 -1.3644381
v -1.2469490 -2.0338161 0.0707904
vn 0.9842855 0.0259470 0.1746676
vt 0.9258300 -4.3093629
v -1.2618800 -2.0171111 0.1520447
vn 0.9852269 0.0499962 0.1637936
vt 0.9925140 -4.3093629
v -1.2770979 2.7404311 1.1275930
vn -0.9849748 0.0258100 -0.1707586
vt 0.9258300 0.0625371
v -1.2618800 2.7581160 1.0424880
vn -0.9847087 0.0259380 -0.1722674
vt 0.9918400 0.0625371
v -1.2770979 1.3927931 0.9238995
vn -0.9849213 0.0104632 -0.1726865
vt 0.9260424 1.0952790
v -1.2618800 1.3927931 0.8376910
vn -0.9847202 0.0105405 -0.1738252
vt 0.9905779 1.0984420
v -1.2619030 -2.8291881 0.5511278
vn -0.9862803 0.0728317 0.1481446
vt 0.9905320 4.9295540
v -1.2618800 -2.0171111 0.1520447
vn -0.9846852 0.0509086 0.1667431
vt 0.9902260 5.6282630
v -1.2747680 -2.8786240 0.4897781
vn -0.9844906 0.0766016 0.1578306
vt 0.9258300 4.9234729
v -1.2770970 -2.0338161 0.0707904
vn -0.9836925 0.0264365 0.1779053
vt 0.9258300 5.6305609
v -1.2618800 -2.0171111 0.1520447
vn -0.9846852 0.0509086 0.1667431
vt 0.9925140 -4.3093629
v -1.2618800 2.0132179 0.1649017
vn -0.9851257 -0.0458046 0.1656182
vt 0.9918170 -1.3644381
v -1.2770970 -2.0338161 0.0707904
vn -0.9836925 0.0264365 0.1779053
vt 0.9258300 -4.3093629
v -1.2770979 2.0340159 0.0825664
vn -0.9843083 -0.0481495 0.1697610
vt 0.9258300 -1.3512280
v -1.2469320 2.8678060 0.5890390
vn 0.9853649 -0.0892972 0.1451964
vt 0.9258300 -0.5718522
v -1.2618639 2.7984080 0.6543436
vn 0.9871208 -0.0846409 0.1357516
vt 0.9918532 -0.6250560
v -1.2770810 2.8677821 0.5890671
vn -0.9848059 -0.0909475 0.1479389
vt 0.9258300 -0.5718639
v -1.2618639 2.7984080 0.6543436
vn -0.9866206 -0.0862272 0.1383645
vt 0.9918532 -0.6250560
v -0.9770403 -1.3403929 0.9883832
vn 0.0000000 0.0445751 0.9990060
vt 0.0016835 3.1440110
v -1.5635010 -1.3403929 0.9883833
vn 0.0000000 0.0012025 0.9999993
vt 0.4292540 3.1441650
v -1.5635010 -1.3403929 0.9001791
vn 0.0000000 -0.0447179 -0.9989997
vt 0.4899716 3.1439819
v -0.9770403 -1.3403929 0.9001791
vn 0.0000000 -0.0013228 -0.9999992
vt 0.9167862 3.1439559
v -1.2618800 -1.3403929 0.8142518
vn 0.9706743 -0.0240191 -0.2391958
vt 0.9931672 3.1471591
v -1.2469490 -1.3985950 0.8806889
vn 0.9790082 -0.0222270 -0.2026054
vt 0.9258384 3.1838429
v -1.2618800 -2.6427760 0.9450325
vn 0.9790082 -0.0222270 -0.2026054
vt 0.9917693 4.1422181
v -1.2469490 -2.6427760 1.0338629
vn 0.9859602 -0.0204034 -0.1657292
vt 0.9258300 4.1383162
v -1.2770970 -2.6427760 1.0338629
vn -0.9854984 -0.0170880 -0.1688222
vt 0.9258300 4.1383162
v -1.2770979 -1.3403929 0.9020379
vn -0.9853156 -0.0044648 -0.1706849
vt 0.9278326 3.1445060
v -1.2618800 -2.6427760 0.9450325
vn -0.9853301 -0.0171183 -0.1697989
vt 0.9917693 4.1422181
v -1.2618800 -1.3403929 0.8142518
vn -0.9852958 -0.0044724 -0.1707988
vt 0.9931672 3.1471591
v -1.5635010 -0.0128356 0.9559769
vn -1.0000000 0.0000000 0.0000000
vt 0.4915502 2.1461160
v -1.5635010 -0.0128356 1.0443110
vn -1.0000000 0.0000000 0.0000000
vt 0.4292540 2.1461160
v -0.9770403 -0.0128356 1.0443110
vn 0.0000000 -0.0199601 0.9998008
vt 0.0016835 2.1461160
v -1.5635010 -0.0128356 1.0443110
vn 0.0000000 0.0021914 0.9999976
vt 0.4292540 2.1461160
v -1.5635010 -0.0128356 0.9559769
vn 0.0000000 0.0198639 -0.9998027
vt 0.4915502 2.1461160
v -0.9770404 -0.0128356 0.9559769
vn 0.0000000 -0.0022862 -0.9999974
vt 0.9167862 2.1466060
v -1.2770979 -0.0128356 0.9650221
vn -0.9850437 0.0015669 -0.1722976
vt 0.9246754 2.1252320
v -1.2618800 -0.0128356 0.8780206
vn -0.9850420 0.0015877 -0.1723077
vt 0.9898111 2.1269510
v -1.5635010 1.3927931 0.9216351
vn -1.0000000 0.0000000 0.0000000
vt 0.4915502 1.0967890
v -1.5635010 1.3927931 1.0101010
vn -1.0000000 0.0000000 0.0000000
vt 0.4292560 1.0967890
v -0.9770404 1.3927931 1.0101010
vn 1.0000000 0.0000000 0.0000000
vt 0.4292560 0.6830245
v -0.9770404 1.3927931 0.9216351
vn 1.0000000 0.0000000 0.0000000
vt 0.4899678 0.6830246

g group_82599232_106652632015104
f 1/1/1 2/2/2 3/3/3 
f 3/3/3 2/2/2 4/4/4 
f 5/5/5 6/6/6 7/7/7 
f 7/7/7 6/6/6 8/8/8 
f 9/9/9 6/6/6 10/10/10 
f 10/10/10 6/6/6 5/5/5 
f 11/11/11 12/12/12 10/10/10 
f 10/10/10 12/12/12 9/9/9 
f 13/13/13 14/14/14 11/11/11 
f 11/11/11 14/14/14 12/12/12 
f 14/14/14 13/13/13 15/15/15 
f 15/15/15 13/13/13 16/16/16 
f 17/17/17 18/18/18 19/19/19 
f 19/19/19 18/18/18 20/20/20 
f 21/21/21 22/22/22 17/17/17 
f 17/17/17 22/22/22 18/18/18 
f 23/23/23 24/24/24 21/21/21 
f 21/21/21 24/24/24 22/22/22 
f 25/25/25 26/26/26 23/23/23 
f 23/23/23 26/26/26 24/24/24 
f 27/27/27 28/28/28 25/25/25 
f 25/25/25 28/28/28 26/26/26 
f 29/29/29 30/30/30 31/31/31 
f 31/31/31 30/30/30 32/32/32 
f 33/33/33 31/31/31 34/34/34 
f 34/34/34 31/31/31 32/32/32 
f 35/35/35 33/33/33 36/36/36 
f 36/36/36 33/33/33 34/34/34 
f 37/37/37 35/35/35 38/38/38 
f 38/38/38 35/35/35 36/36/36 
f 39/39/39 37/37/37 40/40/40 
f 40/40/40 37/37/37 38/38/38 
f 41/41/41 39/39/39 42/42/42 
f 42/42/42 39/39/39 40/40/40 
f 41/41/41 42/42/42 43/43/43 
f 43/43/43 42/42/42 44/44/44 
f 45/45/45 46/46/46 47/47/47 
f 47/47/47 46/46/46 48/48/48 
f 49/49/49 45/45/45 50/50/50 
f 50/50/50 45/45/45 47/47/47 
f 51/51/51 49/49/49 52/52/52 
f 52/52/52 49/49/49 50/50/50 
f 53/53/53 51/51/51 54/54/54 
f 54/54/54 51/51/51 52/52/52 
f 55/55/55 56/56/56 54/54/54 
f 54/54/54 56/56/56 53/53/53 
f 57/57/57 58/58/58 59/59/59 
f 59/59/59 58/58/58 60/60/60 
f 61/61/61 62/62/62 63/63/63 
f 63/63/63 62/62/62 64/64/64 
f 65/65/65 66/66/66 60/60/60 
f 60/60/60 66/66/66 59/59/59 
f 65/65/65 67/67/67 66/66/66 
f 66/66/66 67/67/67 68/68/68 
f 69/69/69 70/70/70 71/71/71 
f 71/71/71 70/70/70 72/72/72 
f 67/67/67 73/73/73 68/68/68 
f 68/68/68 73/73/73 74/74/74 
f 75/75/75 76/76/76 69/69/69 
f 69/69/69 76/76/76 70/70/70 
f 73/73/73 77/77/77 74/74/74 
f 74/74/74 77/77/77 78/78/78 
f 76/76/76 75/75/75 79/79/79 
f 79/79/79 75/75/75 80/80/80 
f 78/78/78 77/77/77 81/81/81 
f 81/81/81 77/77/77 82/82/82 
f 83/83/83 79/79/79 84/84/84 
f 84/84/84 79/79/79 80/80/80 
f 85/85/85 86/86/86 87/87/87 
f 87/87/87 86/86/86 88/88/88 
f 89/89/89 90/90/90 91/91/91 
f 91/91/91 90/90/90 92/92/92 
f 93/93/93 94/94/94 87/87/87 
f 87/87/87 94/94/94 85/85/85 
f 95/95/95 90/90/90 96/96/96 
f 96/96/96 90/90/90 89/89/89 
f 97/97/97 98/98/98 93/93/93 
f 93/93/93 98/98/98 94/94/94 
f 99/99/99 95/95/95 100/100/100 
f 100/100/100 95/95/95 96/96/96 
f 97/97/97 101/101/101 98/98/98 
f 98/98/98 101/101/101 102/102/102 
f 99/99/99 100/100/100 103/103/103 
f 103/103/103 100/100/100 104/104/104 
f 105/105/105 106/106/106 101/101/101 
f 101/101/101 106/106/106 102/102/102 
f 107/107/107 103/103/103 108/108/108 
f 108/108/108 103/103/103 104/104/104 
f 109/109/109 107/107/107 110/110/110 
f 110/110/110 107/107/107 108/108/108 
f 111/111/111 112/112/112 105/105/105 
f 105/105/105 112/112/112 106/106/106 
f 113/113/113 114/114/114 115/115/115 
f 115/115/115 114/114/114 116/116/116 
f 117/117/117 118/118/118 119/119/119 
f 119/119/119 118/118/118 120/120/120 
f 121/121/121 122/122/122 123/123/123 
f 123/123/123 122/122/122 124/124/124 
f 125/125/125 126/126/126 127/127/127 
f 127/127/127 126/126/126 128/128/128 
f 129/129/129 130/130/130 131/131/131 
f 131/131/131 130/130/130 132/132/132 
f 133/133/133 134/134/134 135/135/135 
f 135/135/135 134/134/134 136/136/136 
f 1/1/1 7/7/7 2/2/2 
f 2/2/2 7/7/7 8/8/8 
f 61/61/61 71/71/71 62/62/62 
f 62/62/62 71/71/71 72/72/72 
f 121/121/121 137/137/137 122/122/122 
f 122/122/122 137/137/137 138/138/138 
f 136/136/136 134/134/134 139/139/139 
f 139/139/139 134/134/134 140/140/140 
f 20/20/20 141/141/141 19/19/19 
f 19/19/19 141/141/141 142/142/142 
f 46/46/46 143/143/143 48/48/48 
f 48/48/48 143/143/143 144/144/144 
f 145/145/145 146/146/146 147/147/147 
f 147/147/147 146/146/146 148/148/148 
f 149/149/149 150/150/150 151/151/151 
f 151/151/151 150/150/150 152/152/152 
f 88/88/88 86/86/86 153/153/153 
f 153/153/153 86/86/86 154/154/154 
f 141/141/141 155/155/155 142/142/142 
f 142/142/142 155/155/155 156/156/156 
f 143/143/143 157/157/157 144/144/144 
f 144/144/144 157/157/157 158/158/158 
f 159/159/159 160/160/160 150/150/150 
f 150/150/150 160/160/160 152/152/152 
f 161/161/161 153/153/153 162/162/162 
f 162/162/162 153/153/153 154/154/154 
f 155/155/155 15/15/15 156/156/156 
f 156/156/156 15/15/15 16/16/16 
f 157/157/157 43/43/43 158/158/158 
f 158/158/158 43/43/43 44/44/44 
f 159/159/159 127/127/127 160/160/160 
f 160/160/160 127/127/127 128/128/128 
f 161/161/161 162/162/162 82/82/82 
f 82/82/82 162/162/162 81/81/81 
f 84/84/84 163/163/163 83/83/83 
f 83/83/83 163/163/163 164/164/164 
