v -1.0369767 -0.0254471 0.9878840
vn 0.0000000 -0.7071069 0.7071066
vt 0.1379024 0.1383632
v -1.0369767 -0.0624240 0.8986136
vn 0.0000000 -1.0000000 -0.0000003
vt 0.1379024 0.1275676
v -0.8553071 -0.0254471 0.9878840
vn 0.0000000 -0.7071069 0.7071066
vt 0.1601458 0.1383632
v -0.8553071 -0.0624240 0.8986136
vn 0.0000000 -1.0000000 -0.0000003
vt 0.1601458 0.1275677
v -1.0369767 -0.0254471 0.8093433
vn 0.0000000 -0.7071069 -0.7071066
vt 0.1379024 0.1167724
v -0.8553071 -0.0254471 0.8093433
vn 0.0000000 -0.7071069 -0.7071066
vt 0.1601458 0.1167724
v -1.0369767 0.0638233 0.7723663
vn 0.0000000 0.0000000 -1.0000000
vt 0.1379024 0.1059768
v -0.8553071 0.0638233 0.7723663
vn 0.0000000 0.0000000 -1.0000000
vt 0.1601458 0.1059768
v -1.0369767 0.1530937 0.8093433
vn 0.0000000 0.7071071 -0.7071065
vt 0.1379024 0.0951815
v -0.8553071 0.1530937 0.8093433
vn 0.0000000 0.7071071 -0.7071065
vt 0.1601458 0.0951780
v -1.0369767 0.1530937 0.8093433
vn 0.0000000 0.7071071 -0.7071065
vt 0.1379024 0.1383632
v -1.0369767 0.1900706 0.8986136
vn 0.0000000 1.0000000 -0.0000002
vt 0.1379024 0.1275676
v -0.8553071 0.1530937 0.8093433
vn 0.0000000 0.7071071 -0.7071065
vt 0.1601458 0.1383632
v -0.8553071 0.1900706 0.8986136
vn 0.0000000 1.0000000 -0.0000002
vt 0.1601458 0.1275677
v -1.0369767 0.1530937 0.9878840
vn 0.0000000 0.7071069 0.7071066
vt 0.1379024 0.1167724
v -0.8553071 0.1530937 0.9878840
vn 0.0000000 0.7071071 0.7071065
vt 0.1601458 0.1167724
v -1.0369767 0.0638233 1.0248609
vn 0.0000000 -0.0000000 1.0000000
vt 0.1379024 0.1059770
v -0.8553071 0.0638233 1.0248609
vn 0.0000000 0.0000000 1.0000000
vt 0.1601458 0.1059769
v -1.0369767 -0.0254471 0.9878840
vn 0.0000000 -0.7071069 0.7071066
vt 0.1379024 0.0951725
v -0.8553071 -0.0254471 0.9878840
vn 0.0000000 -0.7071069 0.7071066
vt 0.1601458 0.0951688
v -1.0369767 -0.0254471 0.9878840
vn -1.0000000 0.0000000 0.0000000
vt 0.0784385 0.1448622
v -1.0369767 0.0638233 1.0248609
vn -1.0000000 0.0000000 0.0000000
vt 0.0883756 0.1406582
v -1.0369767 -0.0624240 0.8986136
vn -1.0000000 0.0000000 0.0000000
vt 0.0743846 0.1548613
v -1.0369767 0.1530937 0.9878840
vn -1.0000000 0.0000000 0.0000000
vt 0.0983748 0.1447122
v -1.0369767 0.1900706 0.8986136
vn -1.0000000 0.0000000 0.0000000
vt 0.1025788 0.1546493
v -1.0369767 0.1530937 0.8093433
vn -1.0000000 0.0000000 0.0000000
vt 0.0985249 0.1646485
v -1.0369767 0.0638233 0.7723663
vn -1.0000000 0.0000000 0.0000000
vt 0.0885877 0.1688524
v -1.0369767 -0.0254471 0.8093433
vn -1.0000000 0.0000000 0.0000000
vt 0.0785884 0.1647985

g group_64245344_140627935106400
f 1/1/1 2/2/2 3/3/3 
f 3/3/3 2/2/2 4/4/4 
f 2/2/2 5/5/5 4/4/4 
f 4/4/4 5/5/5 6/6/6 
f 5/5/5 7/7/7 6/6/6 
f 6/6/6 7/7/7 8/8/8 
f 7/7/7 9/9/9 8/8/8 
f 8/8/8 9/9/9 10/10/10 
f 11/11/11 12/12/12 13/13/13 
f 13/13/13 12/12/12 14/14/14 
f 12/12/12 15/15/15 14/14/14 
f 14/14/14 15/15/15 16/16/16 
f 15/15/15 17/17/17 16/16/16 
f 16/16/16 17/17/17 18/18/18 
f 17/17/17 19/19/19 18/18/18 
f 18/18/18 19/19/19 20/20/20 
f 21/21/21 22/22/22 23/23/23 
f 22/22/22 24/24/24 23/23/23 
f 24/24/24 25/25/25 23/23/23 
f 25/25/25 26/26/26 23/23/23 
f 26/26/26 27/27/27 23/23/23 
f 27/27/27 28/28/28 23/23/23 
