v 1.1672759 -1.1318017 0.1316426
vn 0.0000000 -0.7071068 -0.7071068
vt 0.1027784 0.9505044
v 1.3487208 -1.1318017 0.1316426
vn 0.0000000 -0.7071068 -0.7071068
vt 0.0821013 0.9505044
v 1.1672759 -1.2109900 0.3228195
vn 0.0000000 -1.0000000 0.0000003
vt 0.1027786 0.9741330
v 1.3487208 -1.2109900 0.3228195
vn 0.0000000 -1.0000000 0.0000003
vt 0.0821012 0.9741329
v 1.1672759 -1.1318016 0.5139964
vn 0.0000000 -0.7071066 0.7071070
vt 0.1027786 0.9977388
v 1.3487208 -1.1318016 0.5139964
vn 0.0000000 -0.7071066 0.7071070
vt 0.0821012 0.9977390
v 1.1672759 -1.1318016 0.5139964
vn 0.0000000 -0.7071066 0.7071070
vt 0.1027786 0.9033813
v 1.3487208 -1.1318016 0.5139964
vn 0.0000000 -0.7071066 0.7071070
vt 0.0821012 0.9033814
v 1.1672759 -0.9406251 0.5931845
vn 0.0000000 -0.0000001 1.0000000
vt 0.1027786 0.9269316
v 1.3487208 -0.9406251 0.5931845
vn 0.0000000 -0.0000001 1.0000000
vt 0.0821012 0.9269316
v 1.1672759 -0.7494482 0.5139963
vn 0.0000000 0.7071068 0.7071068
vt 0.1027787 0.9505045
v 1.3487208 -0.7494482 0.5139963
vn 0.0000000 0.7071068 0.7071068
vt 0.0821012 0.9505045
v 1.1672759 -0.6702601 0.3228194
vn 0.0000000 1.0000000 -0.0000001
vt 0.1027786 0.9741330
v 1.3487208 -0.6702601 0.3228194
vn 0.0000000 1.0000000 -0.0000001
vt 0.0821012 0.9741329
v 1.1672759 -0.7494483 0.1316426
vn 0.0000000 0.7071065 -0.7071071
vt 0.1027786 0.9977389
v 1.3487208 -0.7494483 0.1316426
vn 0.0000000 0.7071065 -0.7071071
vt 0.0821013 0.9977389
v 1.1672759 -0.7494483 0.1316426
vn 0.0000000 0.7071065 -0.7071071
vt 0.1027786 0.9033813
v 1.3487208 -0.7494483 0.1316426
vn 0.0000000 0.7071065 -0.7071071
vt 0.0821013 0.9033813
v 1.1672759 -0.9406252 0.0524545
vn 0.0000000 -0.0000005 -1.0000000
vt 0.1027786 0.9269316
v 1.3487208 -0.9406252 0.0524545
vn 0.0000000 -0.0000005 -1.0000000
vt 0.0821013 0.9269316
v 1.1672759 -1.1318017 0.1316426
vn -1.0000000 0.0000000 0.0000000
vt 0.1137296 0.9489474
v 1.1672759 -1.2109900 0.3228195
vn -1.0000000 0.0000000 0.0000000
vt 0.1339721 0.9405626
v 1.1672759 -0.9406252 0.0524545
vn -1.0000000 0.0000000 0.0000000
vt 0.1053449 0.9691896
v 1.1672759 -0.7494483 0.1316426
vn -1.0000000 0.0000000 0.0000000
vt 0.1137296 0.9894321
v 1.1672759 -0.6702601 0.3228194
vn -1.0000000 0.0000000 0.0000000
vt 0.1339721 0.9978168
v 1.1672759 -0.7494482 0.5139963
vn -1.0000000 0.0000000 0.0000000
vt 0.1542143 0.9894321
v 1.1672759 -0.9406251 0.5931845
vn -1.0000000 0.0000000 0.0000000
vt 0.1625996 0.9691896
v 1.1672759 -1.1318016 0.5139964
vn -1.0000000 0.0000000 0.0000000
vt 0.1542143 0.9489474
v 1.3487208 -1.1318017 0.1316426
vn 1.0000000 0.0000000 0.0000000
vt 0.0088505 0.7517737
v 1.3487208 -0.9406252 0.0524545
vn 1.0000000 0.0000000 0.0000000
vt 0.0004248 0.7721155
v 1.3487208 -0.7494483 0.1316426
vn 1.0000000 0.0000000 0.0000000
vt 0.0088505 0.7924573
v 1.3487208 -0.6702601 0.3228194
vn 1.0000000 0.0000000 0.0000000
vt 0.0291922 0.8008833
v 1.3487208 -0.7494482 0.5139963
vn 1.0000000 0.0000000 0.0000000
vt 0.0495341 0.7924573
v 1.3487208 -0.9406251 0.5931845
vn 1.0000000 0.0000000 0.0000000
vt 0.0579600 0.7721155
v 1.3487208 -1.1318016 0.5139964
vn 1.0000000 0.0000000 0.0000000
vt 0.0495341 0.7517737
v 1.3487208 -1.2109900 0.3228195
vn 1.0000000 0.0000000 0.0000000
vt 0.0291922 0.7433480
v 0.8547375 -1.1318017 0.1316426
vn 0.0000000 -0.7071068 -0.7071068
vt 0.1027785 0.9269316
v 1.0361824 -1.1318017 0.1316426
vn 0.0000000 -0.7071068 -0.7071068
vt 0.0821012 0.9269316
v 0.8547375 -1.2109900 0.3228195
vn 0.0000000 -1.0000000 0.0000003
vt 0.1027785 0.9505044
v 1.0361824 -1.2109900 0.3228195
vn 0.0000000 -1.0000000 0.0000003
vt 0.0821012 0.9505044
v 0.8547375 -1.1318016 0.5139964
vn 0.0000000 -0.7071066 0.7071070
vt 0.1027785 0.9741329
v 1.0361824 -1.1318016 0.5139964
vn 0.0000000 -0.7071066 0.7071070
vt 0.0821012 0.9741329
v 0.8547375 -0.9406251 0.5931845
vn 0.0000000 -0.0000001 1.0000000
vt 0.1027785 0.9977388
v 1.0361824 -0.9406251 0.5931845
vn 0.0000000 -0.0000001 1.0000000
vt 0.0821012 0.9977388
v 0.8547375 -0.9406251 0.5931845
vn 0.0000000 -0.0000001 1.0000000
vt 0.1027785 0.9033813
v 1.0361824 -0.9406251 0.5931845
vn 0.0000000 -0.0000001 1.0000000
vt 0.0821012 0.9033814
v 0.8547375 -0.7494482 0.5139963
vn 0.0000000 0.7071068 0.7071068
vt 0.1027785 0.9269316
v 1.0361824 -0.7494482 0.5139963
vn 0.0000000 0.7071068 0.7071068
vt 0.0821012 0.9269316
v 0.8547375 -0.6702601 0.3228194
vn 0.0000000 1.0000000 -0.0000001
vt 0.1027785 0.9505045
v 1.0361824 -0.6702601 0.3228194
vn 0.0000000 1.0000000 -0.0000001
vt 0.0821012 0.9505045
v 0.8547375 -0.7494483 0.1316426
vn 0.0000000 0.7071065 -0.7071071
vt 0.1027785 0.9741329
v 1.0361824 -0.7494483 0.1316426
vn 0.0000000 0.7071065 -0.7071071
vt 0.0821012 0.9741329
v 0.8547375 -0.9406252 0.0524545
vn 0.0000000 -0.0000005 -1.0000000
vt 0.1027785 0.9977388
v 1.0361824 -0.9406252 0.0524545
vn 0.0000000 -0.0000005 -1.0000000
vt 0.0821012 0.9977388
v 0.8547375 -0.9406252 0.0524545
vn 0.0000000 -0.0000005 -1.0000000
vt 0.1027785 0.9033813
v 1.0361824 -0.9406252 0.0524545
vn 0.0000000 -0.0000005 -1.0000000
vt 0.0821012 0.9033814
v 0.8547375 -1.1318017 0.1316426
vn -1.0000000 0.0000000 0.0000000
vt 0.1541678 0.9490455
v 0.8547375 -1.2109900 0.3228195
vn -1.0000000 0.0000000 0.0000000
vt 0.1339647 0.9406771
v 0.8547375 -0.9406252 0.0524545
vn -1.0000000 0.0000000 0.0000000
vt 0.1625361 0.9692485
v 0.8547375 -0.7494483 0.1316426
vn -1.0000000 0.0000000 0.0000000
vt 0.1541678 0.9894518
v 0.8547375 -0.6702601 0.3228194
vn -1.0000000 0.0000000 0.0000000
vt 0.1339647 0.9978201
v 0.8547375 -0.7494482 0.5139963
vn -1.0000000 0.0000000 0.0000000
vt 0.1137616 0.9894518
v 0.8547375 -0.9406251 0.5931845
vn -1.0000000 0.0000000 0.0000000
vt 0.1053933 0.9692485
v 0.8547375 -1.1318016 0.5139964
vn -1.0000000 0.0000000 0.0000000
vt 0.1137616 0.9490455
v 1.0361824 -1.2109900 0.3228195
vn 1.0000000 0.0000000 0.0000000
vt 0.1339721 0.9405626
v 1.0361824 -1.1318017 0.1316426
vn 1.0000000 0.0000000 0.0000000
vt 0.1137296 0.9489474
v 1.0361824 -1.1318016 0.5139964
vn 1.0000000 0.0000000 0.0000000
vt 0.1542143 0.9489474
v 1.0361824 -0.9406251 0.5931845
vn 1.0000000 0.0000000 0.0000000
vt 0.1625996 0.9691896
v 1.0361824 -0.7494482 0.5139963
vn 1.0000000 0.0000000 0.0000000
vt 0.1542143 0.9894321
v 1.0361824 -0.6702601 0.3228194
vn 1.0000000 0.0000000 0.0000000
vt 0.1339721 0.9978168
v 1.0361824 -0.7494483 0.1316426
vn 1.0000000 0.0000000 0.0000000
vt 0.1137296 0.9894321
v 1.0361824 -0.9406252 0.0524545
vn 1.0000000 0.0000000 0.0000000
vt 0.1053449 0.9691896
v 1.0254625 -1.0269909 0.3010544
vn 0.0000000 -0.9624532 -0.2714475
vt 0.0801757 0.9852339
v 1.1691062 -1.0269909 0.3010544
vn 0.0000000 -0.9624532 -0.2714476
vt 0.0657586 0.9852339
v 1.0254625 -0.9684083 0.4115495
vn 0.0000000 -0.2926936 0.9562063
vt 0.0801756 0.9977860
v 1.1691062 -0.9684083 0.4115495
vn 0.0000000 -0.2926936 0.9562063
vt 0.0657586 0.9977860
v 1.0254625 -0.9684083 0.4115495
vn 0.0000000 -0.2926936 0.9562063
vt 0.0801757 0.9461926
v 1.1691062 -0.9684083 0.4115495
vn 0.0000000 -0.2926936 0.9562063
vt 0.0657586 0.9461925
v 1.0254625 -0.8536335 0.3504464
vn 0.0000000 0.9583674 0.2855381
vt 0.0801756 0.9592429
v 1.1691062 -0.8536335 0.3504464
vn 0.0000000 0.9583674 0.2855380
vt 0.0657586 0.9592429
v 1.0254625 -0.9166005 0.2358545
vn 0.0000000 0.2642460 -0.9644553
vt 0.0801757 0.9723661
v 1.1691062 -0.9166005 0.2358545
vn 0.0000000 0.2642460 -0.9644553
vt 0.0657586 0.9723661
v 1.0254625 -0.8536335 0.3504464
vn 0.0000000 0.9583674 0.2855381
vt 0.0801756 0.9592429
v 1.1691062 -0.8536335 0.3504464
vn 0.0000000 0.9583674 0.2855380
vt 0.0657586 0.9592429
v 1.0254625 -0.9166005 0.2358545
vn 0.0000000 0.2642460 -0.9644553
vt 0.0801757 0.9723661
v 1.1691062 -0.9166005 0.2358545
vn 0.0000000 0.2642460 -0.9644553
vt 0.0657586 0.9723661

g group_64216504_140627915211152
f 1/1/1 2/2/2 3/3/3 
f 2/2/2 4/4/4 3/3/3 
f 3/3/3 4/4/4 5/5/5 
f 4/4/4 6/6/6 5/5/5 
f 7/7/7 8/8/8 9/9/9 
f 8/8/8 10/10/10 9/9/9 
f 9/9/9 10/10/10 11/11/11 
f 10/10/10 12/12/12 11/11/11 
f 11/11/11 12/12/12 13/13/13 
f 12/12/12 14/14/14 13/13/13 
f 13/13/13 14/14/14 15/15/15 
f 14/14/14 16/16/16 15/15/15 
f 17/17/17 18/18/18 19/19/19 
f 18/18/18 20/20/20 19/19/19 
f 19/19/19 20/20/20 1/1/1 
f 20/20/20 2/2/2 1/1/1 
f 21/21/21 22/22/22 23/23/23 
f 23/23/23 22/22/22 24/24/24 
f 24/24/24 22/22/22 25/25/25 
f 25/25/25 22/22/22 26/26/26 
f 26/26/26 22/22/22 27/27/27 
f 27/27/27 22/22/22 28/28/28 
f 29/29/29 30/30/30 31/31/31 
f 29/29/29 31/31/31 32/32/32 
f 29/29/29 32/32/32 33/33/33 
f 29/29/29 33/33/33 34/34/34 
f 29/29/29 34/34/34 35/35/35 
f 29/29/29 35/35/35 36/36/36 
f 37/37/37 38/38/38 39/39/39 
f 38/38/38 40/40/40 39/39/39 
f 39/39/39 40/40/40 41/41/41 
f 40/40/40 42/42/42 41/41/41 
f 41/41/41 42/42/42 43/43/43 
f 42/42/42 44/44/44 43/43/43 
f 45/45/45 46/46/46 47/47/47 
f 46/46/46 48/48/48 47/47/47 
f 47/47/47 48/48/48 49/49/49 
f 48/48/48 50/50/50 49/49/49 
f 49/49/49 50/50/50 51/51/51 
f 50/50/50 52/52/52 51/51/51 
f 51/51/51 52/52/52 53/53/53 
f 52/52/52 54/54/54 53/53/53 
f 55/55/55 56/56/56 37/37/37 
f 56/56/56 38/38/38 37/37/37 
f 57/57/57 58/58/58 59/59/59 
f 59/59/59 58/58/58 60/60/60 
f 60/60/60 58/58/58 61/61/61 
f 61/61/61 58/58/58 62/62/62 
f 62/62/62 58/58/58 63/63/63 
f 63/63/63 58/58/58 64/64/64 
f 65/65/65 66/66/66 67/67/67 
f 67/67/67 66/66/66 68/68/68 
f 68/68/68 66/66/66 69/69/69 
f 69/69/69 66/66/66 70/70/70 
f 70/70/70 66/66/66 71/71/71 
f 71/71/71 66/66/66 72/72/72 
f 73/73/73 74/74/74 75/75/75 
f 74/74/74 76/76/76 75/75/75 
f 77/77/77 78/78/78 79/79/79 
f 78/78/78 80/80/80 79/79/79 
f 83/83/83 84/84/84 81/81/81 
f 84/84/84 82/82/82 81/81/81 
f 85/85/85 86/86/86 73/73/73 
f 86/86/86 74/74/74 73/73/73 
