v -1.4095930 1.9377570 0.0724764
vn 0.0000000 -0.1114504 0.9937700
vt -0.5676785 -0.1713514
v -1.4095930 -1.8776650 0.0724763
vn 0.0000000 0.2640866 0.9644990
vt -0.5676785 -2.7312579
v -0.8048192 -1.8776650 0.0724763
vn 0.0000000 0.2640866 0.9644990
vt -0.9299073 -2.7328110
v -0.8048192 1.9377570 0.0724764
vn 0.0000000 -0.1114504 0.9937700
vt -0.9299073 -0.1702266
v -1.4096169 -1.9031090 -0.0000001
vn 0.0000001 -0.2619372 -0.9650849
vt -0.5072063 -2.7433970
v -1.4096169 1.9377570 0.0000001
vn 0.0000000 0.0961863 -0.9953634
vt -0.5072063 -0.1729603
v -0.8047692 1.9377570 0.0000001
vn 0.0000000 0.0961863 -0.9953634
vt -0.1406462 -0.1761956
v -0.8047692 -1.9031090 -0.0000001
vn 0.0000000 -0.2619372 -0.9650850
vt -0.1406462 -2.7407880
v -0.8047692 1.9377570 0.0000001
vn 0.9999998 -0.0000629 0.0006900
vt -0.9892777 -0.1707659
v -0.8048192 1.9377570 0.0724764
vn 0.9999998 -0.0000735 0.0006835
vt -0.9299073 -0.1702266
v -0.8048192 -1.8776650 0.0724763
vn 0.9999998 0.0001626 0.0006329
vt -0.9299073 -2.7328110
v -0.8047692 -1.9031090 -0.0000001
vn 0.9999998 0.0001778 0.0006264
vt -0.9892777 -2.7448349
v -0.8047692 -2.6271620 0.4242908
vn 0.0000002 -0.6039146 -0.7970491
vt -0.1406462 -3.2641110
v -1.4096169 -2.6271620 0.4242908
vn 0.0000000 -0.6039140 -0.7970495
vt -0.5072063 -3.2684779
v -0.8048192 -2.5792890 0.4878352
vn 0.9999999 0.0003605 0.0005165
vt -0.9299073 -3.2728653
v -0.8047692 -2.6271620 0.4242908
vn 0.9999998 0.0003758 0.0005220
vt -0.9892777 -3.2754593
v -1.4095930 -2.5792890 0.4878352
vn 0.0000000 0.5756086 0.8177254
vt -0.5676785 -3.2678337
v -0.8048192 -2.5792890 0.4878352
vn -0.0000001 0.5756089 0.8177251
vt -0.9299073 -3.2728653
v -1.4095930 -2.5792890 0.4878352
vn -0.9999999 0.0001770 0.0002536
vt -0.5676785 -3.2678337
v -1.4095930 -1.8776650 0.0724763
vn -1.0000000 0.0000799 0.0003108
vt -0.5676785 -2.7312579
v -1.4096169 -1.9031090 -0.0000001
vn -1.0000000 0.0000873 0.0003076
vt -0.5072063 -2.7433970
v -1.4096169 -2.6271620 0.4242908
vn -0.9999999 0.0001845 0.0002563
vt -0.5072063 -3.2684779
v -1.4096169 2.4709289 1.0987070
vn 0.0000001 0.2194705 0.9756192
vt -0.5072063 0.9157438
v -1.4096169 -2.5083971 1.0543801
vn 0.0000001 -0.2431959 0.9699772
vt -0.5072063 4.2358170
v -0.8047693 -2.5083971 1.0543801
vn -0.0000001 -0.2431953 0.9699774
vt -0.1406462 4.2227211
v -0.8047693 2.4709289 1.0987070
vn -0.0000001 0.2194710 0.9756191
vt -0.1406462 0.9198513
v -1.4095930 2.4548631 1.0261030
vn 0.0000001 -0.2231862 -0.9747759
vt -0.5676785 0.9249911
v -0.8048193 2.4548631 1.0261030
vn 0.0000000 -0.2231860 -0.9747759
vt -0.9299073 0.9222298
v -0.8048193 -2.4909520 0.9840572
vn 0.0000000 0.2445414 -0.9696389
vt -0.9299073 4.2469101
v -1.4095930 -2.4909520 0.9840572
vn 0.0000000 0.2445415 -0.9696388
vt -0.5676785 4.2361178
v -0.8048193 -2.6533480 0.8983541
vn 0.0000001 0.7108981 -0.7032951
vt -0.9299073 4.3762321
v -1.4095930 -2.6533480 0.8983540
vn 0.0000000 0.7108983 -0.7032949
vt -0.5676785 4.3699679
v -1.4095930 -2.6533480 0.8983540
vn -0.9999999 0.0002261 -0.0002309
vt -0.5676785 4.3699679
v -1.4096169 -2.7100270 0.9487892
vn -0.9999999 0.0002338 -0.0002265
vt -0.5072063 4.3702159
v -1.4096169 -2.5083971 1.0543801
vn -0.9999999 0.0000821 -0.0003267
vt -0.5072063 4.2358170
v -1.4095930 -2.4909520 0.9840572
vn -0.9999999 0.0000827 -0.0003270
vt -0.5676785 4.2361178
v -1.4096169 -2.7100270 0.9487892
vn 0.0000000 -0.7197891 0.6941928
vt -0.5072063 4.3702159
v -0.8047693 -2.7100270 0.9487894
vn -0.0000002 -0.7197888 0.6941931
vt -0.1406462 4.3628430
v -1.4095930 -2.7011311 0.5888441
vn -1.0000000 0.0002791 0.0001731
vt -0.5676785 -3.3840289
v -1.4096169 -2.7710619 0.5629214
vn -0.9999999 0.0002942 0.0001549
vt -0.5072063 -3.3899689
v -1.4096169 -2.7710619 0.5629214
vn 0.0000005 -0.8748128 -0.4844611
vt -0.5072063 -3.3899689
v -0.8047692 -2.7710619 0.5629215
vn 0.0000004 -0.8748126 -0.4844615
vt -0.1406462 -3.3868332
v -0.8048192 -2.7011311 0.5888442
vn 0.9999998 0.0005680 0.0003536
vt -0.9299073 -3.3861051
v -0.8047692 -2.7710619 0.5629215
vn 0.9999998 0.0005993 0.0003166
vt -0.9892777 -3.3935318
v -1.4095930 -2.7011311 0.5888441
vn -0.0000000 0.8547031 0.5191172
vt -0.5676785 -3.3840289
v -0.8048192 -2.7011311 0.5888442
vn -0.0000002 0.8547031 0.5191172
vt -0.9299073 -3.3861051
v -1.4096169 -2.8088150 0.7422913
vn -1.0000000 0.0003266 -0.0000337
vt -0.5072063 -3.5000000
v -1.4095930 -2.7341011 0.7412681
vn -0.9999999 0.0003234 -0.0000497
vt -0.5676785 -3.5000000
v -0.8047693 -2.8088150 0.7422913
vn -0.0000001 -0.9928823 0.1191001
vt -0.1406462 -3.5000000
v -1.4096169 -2.8088150 0.7422913
vn 0.0000003 -0.9928821 0.1191014
vt -0.5072063 -3.5000000
v -0.8048193 -2.7341011 0.7412682
vn 0.9999998 0.0006620 -0.0001014
vt -0.9299073 -3.5000000
v -0.8047693 -2.8088150 0.7422913
vn 0.9999998 0.0006692 -0.0000686
vt -0.9892777 -3.5000000
v -1.4095930 -2.7341011 0.7412681
vn 0.0000000 0.9914437 -0.1305353
vt -0.5676785 -3.5000000
v -0.8048193 -2.7341011 0.7412682
vn -0.0000000 0.9914437 -0.1305350
vt -0.9299073 -3.5000000
v -1.4095930 -2.7341011 0.7412681
vn -0.9999999 0.0003234 -0.0000497
vt -0.5676785 4.5000000
v -1.4096169 -2.8088150 0.7422913
vn -1.0000000 0.0003266 -0.0000337
vt -0.5072063 4.5000000
v -0.8047693 -2.8088150 0.7422913
vn -0.0000001 -0.9928823 0.1191001
vt -0.1406462 4.5000000
v -1.4096169 -2.8088150 0.7422913
vn 0.0000003 -0.9928821 0.1191014
vt -0.5072063 4.5000000
v -0.8048193 -2.7341011 0.7412682
vn 0.9999998 0.0006620 -0.0001014
vt -0.9299073 4.5000000
v -0.8048193 -2.6533480 0.8983541
vn 0.9999998 0.0006061 -0.0003116
vt -0.9299073 4.3762321
v -0.8047693 -2.7100270 0.9487894
vn 0.9999998 0.0006214 -0.0003134
vt -0.9892778 4.3804469
v -0.8047693 -2.8088150 0.7422913
vn 0.9999998 0.0006692 -0.0000686
vt -0.9892778 4.5000000
v -1.4095930 -2.7341011 0.7412681
vn 0.0000000 0.9914437 -0.1305353
vt -0.5676785 4.5000000
v -0.8048193 -2.7341011 0.7412682
vn -0.0000000 0.9914437 -0.1305350
vt -0.9299073 4.5000000
v -1.4096169 2.0961311 0.0308973
vn 0.0000002 0.4197674 -0.9076317
vt -0.5072063 -0.0763636
v -0.8047692 2.0961311 0.0308973
vn 0.0000001 0.4197673 -0.9076318
vt -0.1406462 -0.0747304
v -0.8048192 2.0724320 0.1030685
vn -0.0000000 -0.4368052 0.8995562
vt -0.9299073 -0.0717013
v -1.4095930 2.0724320 0.1030685
vn 0.0000000 -0.4368052 0.8995562
vt -0.5676785 -0.0654845
v -1.4095930 1.9377570 0.0724764
vn -1.0000000 -0.0000361 0.0003357
vt -0.5676785 -0.1713514
v -1.4095930 2.0724320 0.1030685
vn -0.9999999 -0.0001486 0.0002908
vt -0.5676785 -0.0654845
v -1.4096169 2.0961311 0.0308973
vn -1.0000000 -0.0001363 0.0002989
vt -0.5072063 -0.0763636
v -1.4096169 1.9377570 0.0000001
vn -0.9999999 -0.0000309 0.0003388
vt -0.5072063 -0.1729603
v -0.8047692 2.0961311 0.0308973
vn 0.9999998 -0.0002777 0.0006087
vt -0.9892777 -0.0874085
v -0.8048192 2.0724320 0.1030685
vn 0.9999998 -0.0003025 0.0005922
vt -0.9299073 -0.0717013
v -0.8048192 2.6736929 0.5900052
vn -0.0000001 -0.8738292 0.4862329
vt -0.9299073 0.4663470
v -1.4095930 2.6736929 0.5900050
vn -0.0000001 -0.8738292 0.4862331
vt -0.5676785 0.4539454
v -0.8047692 2.7391689 0.5442389
vn 0.9999998 -0.0005427 0.0003194
vt -0.9892777 0.4766619
v -0.8048192 2.6736929 0.5900052
vn 0.9999998 -0.0005575 0.0002904
vt -0.9299073 0.4663470
v -1.4096169 2.6697400 1.0023160
vn -0.9999999 -0.0002208 -0.0002373
vt -0.5072063 0.7485089
v -1.4095930 2.6218240 0.9436592
vn -0.9999999 -0.0002282 -0.0002294
vt -0.5676785 0.7427940
v -1.4095930 2.4548631 1.0261030
vn -1.0000000 -0.0000724 -0.0003199
vt -0.5676785 0.9249911
v -1.4096169 2.4709289 1.0987070
vn -0.9999999 -0.0000720 -0.0003207
vt -0.5072063 0.9157438
v -1.4095930 2.6218240 0.9436592
vn 0.0000002 -0.6935006 -0.7204561
vt -0.5676785 0.7427940
v -0.8048193 2.6218240 0.9436594
vn 0.0000001 -0.6935004 -0.7204563
vt -0.9299073 0.7485876
v -0.8048193 2.4548631 1.0261030
vn 0.9999998 -0.0003016 -0.0006200
vt -0.9299073 0.9222298
v -0.8048193 2.6218240 0.9436594
vn 0.9999998 -0.0004673 -0.0004693
vt -0.9299073 0.7485876
v -0.8047693 2.6697400 1.0023160
vn 0.9999998 -0.0004525 -0.0004861
vt -0.9892777 0.7553568
v -0.8047693 2.4709289 1.0987070
vn 0.9999998 -0.0003019 -0.0006228
vt -0.9892778 0.9118028
v -0.8047693 2.6697400 1.0023160
vn 0.0000000 0.6874669 0.7262157
vt -0.1406462 0.7474365
v -1.4096169 2.6697400 1.0023160
vn 0.0000004 0.6874660 0.7262166
vt -0.5072063 0.7485089
v -1.4096169 2.7391689 0.5442389
vn -0.9999999 -0.0002665 0.0001569
vt -0.5072063 0.4586885
v -1.4095930 2.6736929 0.5900050
vn -0.9999999 -0.0002738 0.0001426
vt -0.5676785 0.4539454
v -1.4096169 2.7391689 0.5442389
vn 0.0000001 0.8684587 -0.4957614
vt -0.5072063 0.4586885
v -0.8047692 2.7391689 0.5442389
vn 0.0000003 0.8684590 -0.4957609
vt -0.1406462 0.4451363
v -1.4096169 2.7766421 0.8095091
vn -1.0000000 -0.0003157 -0.0000567
vt -0.5072063 0.5978565
v -1.4095930 2.7000921 0.7992903
vn -1.0000000 -0.0003123 -0.0000638
vt -0.5676785 0.5932865
v -1.4095930 2.7000921 0.7992903
vn 0.0000001 -0.9828153 -0.1845920
vt -0.5676785 0.5932865
v -0.8048192 2.7000921 0.7992905
vn 0.0000000 -0.9828152 -0.1845922
vt -0.9299073 0.6020908
v -0.8047692 2.7766409 0.8095090
vn 0.9999998 -0.0006436 -0.0001148
vt -0.9892777 0.6077280
v -0.8048192 2.7000921 0.7992905
vn 0.9999998 -0.0006361 -0.0001285
vt -0.9299073 0.6020908
v -1.4096169 2.7766421 0.8095091
vn 0.0000005 0.9833094 0.1819412
vt -0.5072063 0.5978565
v -0.8047692 2.7766409 0.8095090
vn 0.0000005 0.9833094 0.1819410
vt -0.1406462 0.5934196
v -1.1615820 -1.8776650 0.0724763
vn -0.9014668 0.1113819 0.4182722
vt 0.9882768 -2.7769721
v -1.1120729 -1.8560590 0.1734259
vn -0.9012327 0.1190215 0.4166697
vt 0.8910121 -2.7679911
v -1.1120729 1.9132659 0.1734267
vn -0.8978372 -0.0000000 0.4403276
vt 0.8910121 0.0472257
v -1.1615820 1.9377570 0.0724764
vn -0.8978372 -0.0000000 0.4403275
vt 0.9882768 0.0641757
v -1.1615820 -2.5792890 0.4878352
vn -0.8909463 0.2309637 0.3909865
vt 0.9882768 -3.3231320
v -1.1120729 -2.5208211 0.5660262
vn -0.8908013 0.2310701 0.3912541
vt 0.8910121 -3.3192968
v -1.1120729 -2.4608321 0.8796731
vn -0.9040701 0.0036251 -0.4273688
vt 0.8910531 4.3001919
v -1.1615820 -2.4909520 0.9840572
vn -0.9039230 0.0036358 -0.4276797
vt 0.9883187 4.3096819
v -1.1615820 2.4548631 1.0261030
vn -0.9202537 -0.0899841 -0.3808360
vt 0.9882768 0.9372490
v -1.1120729 2.4225271 0.9140388
vn -0.9174763 -0.0809351 -0.3894700
vt 0.8910121 0.9589102
v -1.1615820 2.6736929 0.5900050
vn -0.9169025 -0.2541696 0.3077134
vt 0.9882768 0.6413246
v -1.1615820 2.0724320 0.1030685
vn -0.9069691 -0.2650831 0.3273195
vt 0.9882768 0.1368845
v -1.1120729 2.0328791 0.2082208
vn -0.9080125 -0.2639717 0.3253188
vt 0.8910121 0.1551148
v -1.1120729 2.5708399 0.6539055
vn -0.9182774 -0.2525971 0.3048956
vt 0.8910121 0.6235946
v -1.1615820 2.6218240 0.9436592
vn -0.9116351 -0.1709151 -0.3737774
vt 0.9882768 0.8100100
v -1.1120729 2.5321550 0.8681631
vn -0.9033242 -0.1655910 -0.3957083
vt 0.8910121 0.8161420
v -1.1120729 1.9132659 0.1734267
vn 0.8978376 -0.0000000 0.4403267
vt 0.8910121 0.0472257
v -1.1120729 -1.8560590 0.1734259
vn 0.9012964 0.1187313 0.4166147
vt 0.8910121 -2.7679911
v -1.0625640 -1.8776650 0.0724763
vn 0.9014000 0.1112533 0.4184505
vt 0.9882768 -2.7770181
v -1.0625640 1.9377570 0.0724764
vn 0.8978376 -0.0000000 0.4403267
vt 0.9882768 0.0641692
v -1.1120729 -2.5208211 0.5660262
vn 0.8909509 0.2312958 0.3907799
vt 0.8910121 -3.3192968
v -1.0625640 -2.5792890 0.4878352
vn 0.8908225 0.2314569 0.3909769
vt 0.9882768 -3.3231068
v -1.1120729 2.0328791 0.2082208
vn 0.9080129 -0.2639710 0.3253181
vt 0.8910121 0.1551148
v -1.0625640 2.0724320 0.1030685
vn 0.9069695 -0.2650824 0.3273189
vt 0.9882768 0.1369443
v -1.0625640 2.6736929 0.5900050
vn 0.9169032 -0.2541687 0.3077123
vt 0.9882768 0.6413324
v -1.1120729 2.5708399 0.6539055
vn 0.9182781 -0.2525961 0.3048944
vt 0.8910121 0.6235946

g group_16962328_140627915199920
f 1/1/1 2/2/2 3/3/3 
f 3/3/3 4/4/4 1/1/1 
f 5/5/5 6/6/6 7/7/7 
f 7/7/7 8/8/8 5/5/5 
f 9/9/9 10/10/10 11/11/11 
f 11/11/11 12/12/12 9/9/9 
f 8/8/8 13/13/13 14/14/14 
f 14/14/14 5/5/5 8/8/8 
f 15/15/15 16/16/16 12/12/12 
f 12/12/12 11/11/11 15/15/15 
f 17/17/17 18/18/18 3/3/3 
f 3/3/3 2/2/2 17/17/17 
f 19/19/19 20/20/20 21/21/21 
f 21/21/21 22/22/22 19/19/19 
f 23/23/23 24/24/24 25/25/25 
f 25/25/25 26/26/26 23/23/23 
f 27/27/27 28/28/28 29/29/29 
f 29/29/29 30/30/30 27/27/27 
f 29/29/29 31/31/31 32/32/32 
f 32/32/32 30/30/30 29/29/29 
f 33/33/33 34/34/34 35/35/35 
f 35/35/35 36/36/36 33/33/33 
f 37/37/37 38/38/38 25/25/25 
f 25/25/25 24/24/24 37/37/37 
f 39/39/39 19/19/19 22/22/22 
f 22/22/22 40/40/40 39/39/39 
f 41/41/41 14/14/14 13/13/13 
f 13/13/13 42/42/42 41/41/41 
f 16/16/16 15/15/15 43/43/43 
f 43/43/43 44/44/44 16/16/16 
f 45/45/45 46/46/46 18/18/18 
f 18/18/18 17/17/17 45/45/45 
f 40/40/40 47/47/47 48/48/48 
f 48/48/48 39/39/39 40/40/40 
f 42/42/42 49/49/49 50/50/50 
f 50/50/50 41/41/41 42/42/42 
f 44/44/44 43/43/43 51/51/51 
f 51/51/51 52/52/52 44/44/44 
f 45/45/45 53/53/53 54/54/54 
f 54/54/54 46/46/46 45/45/45 
f 55/55/55 56/56/56 34/34/34 
f 34/34/34 33/33/33 55/55/55 
f 57/57/57 38/38/38 37/37/37 
f 37/37/37 58/58/58 57/57/57 
f 59/59/59 60/60/60 61/61/61 
f 61/61/61 62/62/62 59/59/59 
f 63/63/63 32/32/32 31/31/31 
f 31/31/31 64/64/64 63/63/63 
f 6/6/6 65/65/65 66/66/66 
f 66/66/66 7/7/7 6/6/6 
f 4/4/4 67/67/67 68/68/68 
f 68/68/68 1/1/1 4/4/4 
f 69/69/69 70/70/70 71/71/71 
f 71/71/71 72/72/72 69/69/69 
f 10/10/10 9/9/9 73/73/73 
f 73/73/73 74/74/74 10/10/10 
f 67/67/67 75/75/75 76/76/76 
f 76/76/76 68/68/68 67/67/67 
f 77/77/77 78/78/78 74/74/74 
f 74/74/74 73/73/73 77/77/77 
f 79/79/79 80/80/80 81/81/81 
f 81/81/81 82/82/82 79/79/79 
f 27/27/27 83/83/83 84/84/84 
f 84/84/84 28/28/28 27/27/27 
f 85/85/85 86/86/86 87/87/87 
f 87/87/87 88/88/88 85/85/85 
f 23/23/23 26/26/26 89/89/89 
f 89/89/89 90/90/90 23/23/23 
f 91/91/91 71/71/71 70/70/70 
f 70/70/70 92/92/92 91/91/91 
f 93/93/93 94/94/94 66/66/66 
f 66/66/66 65/65/65 93/93/93 
f 95/95/95 91/91/91 92/92/92 
f 92/92/92 96/96/96 95/95/95 
f 97/97/97 76/76/76 75/75/75 
f 75/75/75 98/98/98 97/97/97 
f 78/78/78 77/77/77 99/99/99 
f 99/99/99 100/100/100 78/78/78 
f 101/101/101 102/102/102 94/94/94 
f 94/94/94 93/93/93 101/101/101 
f 95/95/95 96/96/96 80/80/80 
f 80/80/80 79/79/79 95/95/95 
f 83/83/83 97/97/97 98/98/98 
f 98/98/98 84/84/84 83/83/83 
f 86/86/86 100/100/100 99/99/99 
f 99/99/99 87/87/87 86/86/86 
f 90/90/90 89/89/89 102/102/102 
f 102/102/102 101/101/101 90/90/90 
f 103/103/103 104/104/104 105/105/105 
f 105/105/105 106/106/106 103/103/103 
f 107/107/107 108/108/108 104/104/104 
f 104/104/104 103/103/103 107/107/107 
f 109/109/109 110/110/110 111/111/111 
f 111/111/111 112/112/112 109/109/109 
f 113/113/113 114/114/114 115/115/115 
f 115/115/115 116/116/116 113/113/113 
f 117/117/117 118/118/118 112/112/112 
f 112/112/112 111/111/111 117/117/117 
f 119/119/119 120/120/120 121/121/121 
f 121/121/121 122/122/122 119/119/119 
f 121/121/121 120/120/120 123/123/123 
f 123/123/123 124/124/124 121/121/121 
f 125/125/125 126/126/126 127/127/127 
f 127/127/127 128/128/128 125/125/125 
f 35/35/35 82/82/82 81/81/81 
f 81/81/81 36/36/36 35/35/35 
f 20/20/20 69/69/69 72/72/72 
f 72/72/72 21/21/21 20/20/20 
