v 1.0369767 -1.4734674 0.9785910
vn 0.0000000 -0.7071071 0.7071065
vt 0.1379024 0.1383632
v 0.8553071 -1.4734674 0.9785910
vn 0.0000000 -0.7071071 0.7071065
vt 0.1601458 0.1383632
v 1.0369767 -1.5104442 0.8893206
vn 0.0000000 -1.0000000 -0.0000002
vt 0.1379024 0.1275676
v 0.8553071 -1.5104442 0.8893206
vn 0.0000000 -1.0000000 -0.0000002
vt 0.1601458 0.1275677
v 1.0369767 -1.4734674 0.8000503
vn 0.0000000 -0.7071072 -0.7071065
vt 0.1379024 0.1167724
v 0.8553071 -1.4734674 0.8000503
vn 0.0000000 -0.7071072 -0.7071065
vt 0.1601458 0.1167724
v 1.0369767 -1.3841969 0.7630734
vn 0.0000000 0.0000003 -1.0000000
vt 0.1379024 0.1059768
v 0.8553071 -1.3841969 0.7630734
vn 0.0000000 0.0000002 -1.0000000
vt 0.1601458 0.1059768
v 1.0369767 -1.2949265 0.8000503
vn 0.0000000 0.7071068 -0.7071068
vt 0.1379024 0.0951815
v 0.8553071 -1.2949265 0.8000503
vn 0.0000000 0.7071068 -0.7071068
vt 0.1601458 0.0951780
v 1.0369767 -1.2949265 0.8000503
vn 0.0000000 0.7071068 -0.7071068
vt 0.1379024 0.1383632
v 0.8553071 -1.2949265 0.8000503
vn 0.0000000 0.7071068 -0.7071068
vt 0.1601458 0.1383632
v 1.0369767 -1.2579496 0.8893206
vn 0.0000000 1.0000000 -0.0000005
vt 0.1379024 0.1275676
v 0.8553071 -1.2579496 0.8893206
vn 0.0000000 1.0000000 -0.0000005
vt 0.1601458 0.1275677
v 1.0369767 -1.2949265 0.9785910
vn 0.0000000 0.7071069 0.7071066
vt 0.1379024 0.1167724
v 0.8553071 -1.2949265 0.9785910
vn 0.0000000 0.7071070 0.7071066
vt 0.1601458 0.1167724
v 1.0369767 -1.3841969 1.0155680
vn 0.0000000 0.0000002 1.0000000
vt 0.1379024 0.1059770
v 0.8553071 -1.3841969 1.0155680
vn 0.0000000 0.0000002 1.0000000
vt 0.1601458 0.1059769
v 1.0369767 -1.4734674 0.9785910
vn 0.0000000 -0.7071071 0.7071065
vt 0.1379024 0.0951725
v 0.8553071 -1.4734674 0.9785910
vn 0.0000000 -0.7071071 0.7071065
vt 0.1601458 0.0951688
v 1.0369767 -1.4734674 0.9785910
vn 1.0000000 0.0000000 0.0000000
vt 0.0784385 0.1448622
v 1.0369767 -1.5104442 0.8893206
vn 1.0000000 0.0000000 0.0000000
vt 0.0743846 0.1548613
v 1.0369767 -1.3841969 1.0155680
vn 1.0000000 0.0000000 0.0000000
vt 0.0883756 0.1406582
v 1.0369767 -1.2949265 0.9785910
vn 1.0000000 0.0000000 0.0000000
vt 0.0983748 0.1447122
v 1.0369767 -1.2579496 0.8893206
vn 1.0000000 0.0000000 0.0000000
vt 0.1025788 0.1546493
v 1.0369767 -1.2949265 0.8000503
vn 1.0000000 0.0000000 0.0000000
vt 0.0985249 0.1646485
v 1.0369767 -1.3841969 0.7630734
vn 1.0000000 0.0000000 0.0000000
vt 0.0885877 0.1688524
v 1.0369767 -1.4734674 0.8000503
vn 1.0000000 0.0000000 0.0000000
vt 0.0785884 0.1647985

g group_64244000_140627909916656
f 1/1/1 2/2/2 3/3/3 
f 2/2/2 4/4/4 3/3/3 
f 3/3/3 4/4/4 5/5/5 
f 4/4/4 6/6/6 5/5/5 
f 5/5/5 6/6/6 7/7/7 
f 6/6/6 8/8/8 7/7/7 
f 7/7/7 8/8/8 9/9/9 
f 8/8/8 10/10/10 9/9/9 
f 11/11/11 12/12/12 13/13/13 
f 12/12/12 14/14/14 13/13/13 
f 13/13/13 14/14/14 15/15/15 
f 14/14/14 16/16/16 15/15/15 
f 15/15/15 16/16/16 17/17/17 
f 16/16/16 18/18/18 17/17/17 
f 17/17/17 18/18/18 19/19/19 
f 18/18/18 20/20/20 19/19/19 
f 21/21/21 22/22/22 23/23/23 
f 23/23/23 22/22/22 24/24/24 
f 24/24/24 22/22/22 25/25/25 
f 25/25/25 22/22/22 26/26/26 
f 26/26/26 22/22/22 27/27/27 
f 27/27/27 22/22/22 28/28/28 
