v 1.4138604 2.2696002 0.9390264
vn 0.0000000 0.0119793 0.9999282
vt 0.9181337 0.0085893
v 1.3775506 2.2696002 0.9390264
vn 0.0000000 0.0119793 0.9999282
vt 0.9181337 0.0049605
v 1.4138604 2.1613824 0.9403228
vn 0.0000000 0.0119793 0.9999283
vt 0.9078039 0.0085893
v 1.4138604 2.1613824 0.9403228
vn 1.0000000 0.0000000 0.0000000
vt 0.1825382 0.6050074
v 1.4138604 2.2000737 0.8429831
vn 1.0000000 0.0000000 0.0000000
vt 0.1875042 0.6152205
v 1.4138604 2.2696002 0.9390264
vn 1.0000000 0.0000000 0.0000000
vt 0.1942489 0.6042769
v 1.4138604 2.2000737 0.8429831
vn 0.0000015 -0.4540298 0.8909866
vt 0.9181337 0.0085893
v 1.3775506 2.2000735 0.8429830
vn 0.0000015 -0.4540298 0.8909866
vt 0.9181337 0.0049605
v 1.4138604 2.1036520 0.7938484
vn 0.0000015 -0.4540298 0.8909865
vt 0.9078039 0.0085893
v 1.4138604 2.1036520 0.7938484
vn 1.0000000 0.0000000 0.0000000
vt 0.1774745 0.6213086
v 1.4138604 2.1831467 0.7256384
vn 1.0000000 0.0000000 0.0000000
vt 0.1866181 0.6280440
v 1.4138604 2.1831467 0.7256384
vn -0.0000028 -0.8160822 0.5779359
vt 0.9181335 0.0085894
v 1.3775506 2.1831467 0.7256382
vn -0.0000028 -0.8160822 0.5779359
vt 0.9181335 0.0049605
v 1.4138604 2.1206031 0.6373228
vn -0.0000028 -0.8160822 0.5779359
vt 0.9078039 0.0085893
v 1.4138604 2.1206031 0.6373228
vn 1.0000000 0.0000000 0.0000000
vt 0.1805666 0.6380959
v 1.4138604 2.2226911 0.6138684
vn 1.0000000 0.0000000 0.0000000
vt 0.1917927 0.6398106
v 1.4138604 2.2226911 0.6138684
vn 0.0000007 -0.9911845 0.1324888
vt 0.9181335 0.0085894
v 1.3775506 2.2226911 0.6138684
vn 0.0000007 -0.9911845 0.1324888
vt 0.9181337 0.0049605
v 1.4138604 2.2083533 0.5066034
vn 0.0000007 -0.9911845 0.1324888
vt 0.9078039 0.0085893
v 1.4138604 2.2083533 0.5066034
vn 1.0000000 0.0000000 0.0000000
vt 0.1911055 0.6515235
v 1.4138604 2.3096473 0.5332778
vn 1.0000000 0.0000000 0.0000000
vt 0.2018429 0.6478246
v 1.4138604 2.3096473 0.5332778
vn 0.0000000 -0.9392225 -0.3433091
vt 0.9181337 0.0085893
v 1.3775506 2.3096473 0.5332778
vn 0.0000000 -0.9392225 -0.3433091
vt 0.9181337 0.0049605
v 1.4138604 2.3467999 0.4316361
vn 0.0000000 -0.9392225 -0.3433092
vt 0.9078039 0.0085893
v 1.4138604 2.3467999 0.4316361
vn 1.0000000 0.0000000 0.0000000
vt 0.2066775 0.6585152
v 1.4138604 2.4240959 0.5023283
vn 1.0000000 0.0000000 0.0000000
vt 0.2144661 0.6502502
v 1.4138604 2.4240959 0.5023283
vn -0.0000068 -0.6721011 -0.7404594
vt 0.9181335 0.0085894
v 1.3775506 2.4240961 0.5023284
vn -0.0000068 -0.6721011 -0.7404594
vt 0.9181335 0.0049605
v 1.4138604 2.5042276 0.4295942
vn -0.0000068 -0.6721011 -0.7404594
vt 0.9078039 0.0085893
v 1.4138604 2.5042276 0.4295942
vn 1.0000000 0.0000000 0.0000000
vt 0.2237150 0.6574697
v 1.4138604 2.5398178 0.5281100
vn 1.0000000 0.0000000 0.0000000
vt 0.2267706 0.6465318
v 1.4138604 2.5398178 0.5281100
vn 0.0000032 -0.2510112 -0.9679842
vt 0.9181337 0.0085893
v 1.3775506 2.5398178 0.5281099
vn 0.0000032 -0.2510112 -0.9679842
vt 0.9181335 0.0049605
v 1.4138604 2.6445720 0.5009458
vn 0.0000032 -0.2510112 -0.9679842
vt 0.9078039 0.0085893
v 1.4138604 2.6445720 0.5009458
vn 1.0000000 0.0000000 0.0000000
vt 0.2383154 0.6486262
v 1.4138604 2.6303036 0.6047169
vn 1.0000000 0.0000000 0.0000000
vt 0.2359380 0.6375211
v 1.4138604 2.6303036 0.6047169
vn 0.0000000 0.2275785 -0.9737598
vt 0.9181335 0.0085894
v 1.3775506 2.6303036 0.6047169
vn 0.0000000 0.2275786 -0.9737597
vt 0.9181337 0.0049605
v 1.4138604 2.7356825 0.6293451
vn 0.0000000 0.2275785 -0.9737598
vt 0.9078040 0.0085893
v 1.4138604 2.7356825 0.6293451
vn 1.0000000 0.0000000 0.0000000
vt 0.2471334 0.6340107
v 1.4138604 2.6748242 0.7145994
vn 1.0000000 0.0000000 0.0000000
vt 0.2398677 0.6252823
v 1.4138604 2.6748242 0.7145994
vn -0.0000012 0.6540347 -0.7564645
vt 0.9181335 0.0085894
v 1.3775506 2.6748242 0.7145994
vn -0.0000012 0.6540347 -0.7564645
vt 0.9181337 0.0049605
v 1.4138604 2.7566881 0.7853784
vn -0.0000012 0.6540347 -0.7564645
vt 0.9078039 0.0085893
v 1.4138604 2.7566881 0.7853784
vn 1.0000000 0.0000000 0.0000000
vt 0.2481494 0.6169711
v 1.4138604 2.6631815 0.8325858
vn 1.0000000 0.0000000 0.0000000
vt 0.2376597 0.6126192
v 1.4138604 2.6631815 0.8325858
vn 0.0000000 0.9306633 -0.3658767
vt 0.9181335 0.0085894
v 1.3775506 2.6631815 0.8325858
vn 0.0000000 0.9306633 -0.3658767
vt 0.9181335 0.0049605
v 1.4138604 2.7027762 0.9333009
vn 0.0000000 0.9306633 -0.3658767
vt 0.9078039 0.0085893
v 1.4138604 2.7027762 0.9333009
vn 1.0000000 0.0000000 0.0000000
vt 0.2411305 0.6014113
v 1.4138604 2.5980413 0.9316463
vn 1.0000000 0.0000000 0.0000000
vt 0.2298195 0.6024328
v 1.4138604 2.5980413 0.9316463
vn 0.0000000 0.9940934 0.1085277
vt 0.9181337 0.0085893
v 1.3775506 2.5980413 0.9316463
vn 0.0000000 0.9940934 0.1085277
vt 0.9181337 0.0049605
v 1.4138604 2.5862966 1.0392259
vn 0.0000000 0.9940935 0.1085277
vt 0.9078039 0.0085893
v 1.3775506 2.5980413 0.9316463
vn -0.9866339 0.1114522 0.1188780
vt 0.2298195 0.6024328
v 1.3775506 2.4943273 0.9890891
vn -0.9866338 0.0434420 0.1570556
vt 0.2181439 0.5970563
v 1.4138604 2.5862966 1.0392259
vn -0.9250383 0.1840517 0.3323087
vt 0.2276843 0.5908961
v 1.4138604 2.5862966 1.0392259
vn 1.0000000 0.0000000 0.0000000
vt 0.2276843 0.5908957
v 1.4138604 2.4943273 0.9890891
vn 1.0000000 0.0000000 0.0000000
vt 0.2181439 0.5970563
v 1.4138604 2.4943273 0.9890891
vn 0.0000000 0.8297936 0.5580705
vt 0.9181337 0.0085893
v 1.3775506 2.4943273 0.9890891
vn 0.0000000 0.8297936 0.5580705
vt 0.9181337 0.0049605
v 1.4138604 2.4339335 1.0788885
vn 0.0000000 0.8297936 0.5580705
vt 0.9078039 0.0085893
v 1.4138604 2.4339335 1.0788885
vn 1.0000000 0.0000000 0.0000000
vt 0.2108917 0.5878332
v 1.4138604 2.3757980 0.9917543
vn 1.0000000 0.0000000 0.0000000
vt 0.2053070 0.5977217
v 1.4138604 2.3757980 0.9917543
vn 0.0000000 0.4754036 0.8797678
vt 0.9181337 0.0085893
v 1.3775506 2.3757980 0.9917543
vn 0.0000000 0.4754036 0.8797679
vt 0.9181337 0.0049605
v 1.4138604 2.2805905 1.0432019
vn 0.0000000 0.4754036 0.8797678
vt 0.9078039 0.0085893
v 1.4138604 2.2805905 1.0432019
vn 1.0000000 0.0000000 0.0000000
vt 0.1945992 0.5929250
v 0.7903376 2.2604730 0.6519480
vn 0.0000000 -0.8660259 -0.4999992
vt 0.8735073 0.8317134
v 1.3781620 2.2604730 0.6519480
vn 0.0000000 -0.8660259 -0.4999992
vt 0.8193834 0.8317134
v 0.7903376 2.2604733 0.8468239
vn 0.0000000 -0.8660251 0.5000005
vt 0.8735084 0.8532233
v 1.3781620 2.2604733 0.8468239
vn 0.0000000 -0.8660251 0.5000006
vt 0.8193823 0.8532233
v 0.7903376 2.2604733 0.8468239
vn 0.0000000 -0.8660251 0.5000005
vt 0.8735084 0.7887118
v 1.3781620 2.2604733 0.8468239
vn 0.0000000 -0.8660251 0.5000006
vt 0.8193823 0.7887118
v 0.7903376 2.4292405 0.9442616
vn 0.0000000 -0.0000006 1.0000000
vt 0.8735101 0.8102227
v 1.3781620 2.4292405 0.9442616
vn 0.0000000 -0.0000006 1.0000000
vt 0.8193806 0.8102227
v 0.7903376 2.5980082 0.8468239
vn 0.0000000 0.8660254 0.5000000
vt 0.8735110 0.8317369
v 1.3781620 2.5980082 0.8468239
vn 0.0000000 0.8660254 0.5000000
vt 0.8193796 0.8317371
v 0.7903376 2.5980079 0.6519480
vn 0.0000000 0.8660250 -0.5000008
vt 0.8735102 0.8532537
v 1.3781620 2.5980079 0.6519480
vn 0.0000000 0.8660250 -0.5000008
vt 0.8193806 0.8532539
v 0.7903376 2.5980079 0.6519480
vn 0.0000000 0.8660250 -0.5000008
vt 0.8735045 0.7886903
v 1.3781620 2.5980079 0.6519480
vn 0.0000000 0.8660250 -0.5000008
vt 0.8193861 0.7886903
v 0.7903376 2.4292402 0.5545101
vn 0.0000000 -0.0000007 -1.0000000
vt 0.8735066 0.8102028
v 1.3781620 2.4292402 0.5545101
vn 0.0000000 -0.0000006 -1.0000000
vt 0.8193842 0.8102028
v 1.4138604 2.5862966 1.0392259
vn 0.0000000 -0.4786443 0.8780089
vt 0.9282390 0.0085893
v 1.3775506 2.4943273 0.9890891
vn 0.0000000 -0.4786443 0.8780089
vt 0.9181337 0.0049605
v 1.4138604 2.4943273 0.9890891
vn 0.0000000 -0.4786443 0.8780090
vt 0.9181337 0.0085893
v 1.4138604 2.1613824 0.9403228
vn 0.0000067 -0.9292798 -0.3693766
vt 0.9282387 0.0085894
v 1.3775506 2.2000735 0.8429830
vn 0.0000067 -0.9292798 -0.3693766
vt 0.9181337 0.0049605
v 1.4138604 2.2000737 0.8429831
vn 0.0000067 -0.9292798 -0.3693766
vt 0.9181337 0.0085893
v 1.4138604 2.1613824 0.9403228
vn -0.9250399 -0.3077061 0.2227513
vt 0.1825381 0.6050073
v 1.3775506 2.2696002 0.9390264
vn -0.9866351 -0.1045744 0.1249617
vt 0.1942489 0.6042769
v 1.3775506 2.2000735 0.8429830
vn -0.9866338 -0.1506771 0.0620497
vt 0.1875042 0.6152205
v 1.4138604 2.1036520 0.7938484
vn 0.0000037 -0.6511859 -0.7589183
vt 0.9282387 0.0085894
v 1.3775506 2.1831467 0.7256382
vn 0.0000037 -0.6511859 -0.7589183
vt 0.9181335 0.0049605
v 1.4138604 2.1831467 0.7256384
vn 0.0000037 -0.6511859 -0.7589183
vt 0.9181335 0.0085894
v 1.4138604 2.1036520 0.7938484
vn -0.9250383 -0.3759825 0.0542348
vt 0.1774750 0.6213088
v 1.3775506 2.1831467 0.7256382
vn -0.9866338 -0.1622537 -0.0150816
vt 0.1866181 0.6280440
v 1.4138604 2.1206031 0.6373228
vn -0.0000048 -0.2239143 -0.9746088
vt 0.9282387 0.0085894
v 1.3775506 2.2226911 0.6138684
vn -0.0000048 -0.2239142 -0.9746089
vt 0.9181337 0.0049605
v 1.4138604 2.2226911 0.6138684
vn -0.0000048 -0.2239142 -0.9746089
vt 0.9181335 0.0085894
v 1.4138604 2.1206031 0.6373228
vn -0.9250386 -0.3581200 -0.1267035
vt 0.1805665 0.6380960
v 1.3775506 2.2226911 0.6138684
vn -0.9866339 -0.1366601 -0.0887561
vt 0.1917927 0.6398106
v 1.4138604 2.2083533 0.5066034
vn 0.0000000 0.2546530 -0.9670325
vt 0.9282390 0.0085893
v 1.3775506 2.3096473 0.5332778
vn 0.0000000 0.2546530 -0.9670325
vt 0.9181337 0.0049605
v 1.4138604 2.3096473 0.5332778
vn 0.0000000 0.2546530 -0.9670325
vt 0.9181337 0.0085893
v 1.4138604 2.2083533 0.5066034
vn -0.9250383 -0.2582199 -0.2786155
vt 0.1911055 0.6515236
v 1.3775506 2.3096473 0.5332778
vn -0.9866338 -0.0797603 -0.1420987
vt 0.2018429 0.6478246
v 1.4138604 2.3467999 0.4316361
vn 0.0000020 0.6748815 -0.7379261
vt 0.9282390 0.0085893
v 1.3775506 2.4240961 0.5023284
vn 0.0000020 0.6748815 -0.7379262
vt 0.9181335 0.0049605
v 1.4138604 2.4240959 0.5023283
vn 0.0000020 0.6748815 -0.7379262
vt 0.9181335 0.0085894
v 1.4138604 2.3467999 0.4316361
vn -0.9250386 -0.0991635 -0.3667019
vt 0.2066775 0.6585153
v 1.3775506 2.4240961 0.5023284
vn -0.9866339 -0.0045884 -0.1628881
vt 0.2144662 0.6502502
v 1.4138604 2.5042276 0.4295942
vn 0.0000011 0.9405081 -0.3397713
vt 0.9282387 0.0085894
v 1.3775506 2.5398178 0.5281099
vn 0.0000011 0.9405081 -0.3397713
vt 0.9181335 0.0049605
v 1.4138604 2.5398178 0.5281100
vn 0.0000011 0.9405081 -0.3397713
vt 0.9181337 0.0085893
v 1.4138604 2.5042276 0.4295942
vn -0.9250384 0.0826062 -0.3707832
vt 0.2237150 0.6574695
v 1.3775506 2.5398178 0.5281099
vn -0.9866338 0.0716342 -0.1463636
vt 0.2267706 0.6465318
v 1.4138604 2.6445720 0.5009458
vn 0.0000000 0.9906790 0.1362172
vt 0.9288205 0.0085894
v 1.3775506 2.6303036 0.6047169
vn 0.0000000 0.9906790 0.1362172
vt 0.9181337 0.0049605
v 1.4138604 2.6303036 0.6047169
vn 0.0000000 0.9906790 0.1362172
vt 0.9181335 0.0085894
v 1.4138604 2.6445720 0.5009458
vn -0.9250383 0.2454553 -0.2899242
vt 0.2383153 0.6486262
v 1.3775506 2.6303036 0.6047169
vn -0.9866338 0.1314473 -0.0963089
vt 0.2359380 0.6375211
v 1.4138604 2.7356825 0.6293451
vn 0.0000010 0.8139035 0.5810002
vt 0.9288205 0.0085894
v 1.3775506 2.6748242 0.7145994
vn 0.0000010 0.8139035 0.5810002
vt 0.9181337 0.0049605
v 1.4138604 2.6748242 0.7145994
vn 0.0000010 0.8139035 0.5810001
vt 0.9181335 0.0085894
v 1.4138604 2.7356825 0.6293451
vn -0.9250380 0.3520740 -0.1426482
vt 0.2471331 0.6340106
v 1.3775506 2.6748242 0.7145994
vn -0.9866339 0.1611472 -0.0241920
vt 0.2398677 0.6252823
v 1.4138604 2.7566881 0.7853784
vn 0.0000000 0.4506786 0.8926863
vt 0.9282390 0.0085893
v 1.3775506 2.6631815 0.8325858
vn 0.0000000 0.4506786 0.8926863
vt 0.9181335 0.0049605
v 1.4138604 2.6631815 0.8325858
vn 0.0000000 0.4506785 0.8926863
vt 0.9181335 0.0085894
v 1.4138604 2.7566881 0.7853784
vn -0.9250383 0.3780379 0.0373041
vt 0.2481494 0.6169712
v 1.3775506 2.6631815 0.8325858
vn -0.9866338 0.1539319 0.0534676
vt 0.2376597 0.6126192
v 1.4138604 2.7027762 0.9333009
vn 0.0000000 -0.0157951 0.9998752
vt 0.9282390 0.0085893
v 1.3775506 2.5980413 0.9316463
vn 0.0000000 -0.0157951 0.9998752
vt 0.9181337 0.0049605
v 1.4138604 2.5980413 0.9316463
vn 0.0000000 -0.0157951 0.9998752
vt 0.9181337 0.0085893
v 1.4138604 2.7027762 0.9333009
vn -0.9250386 0.3173983 0.2087149
vt 0.2411305 0.6014112
v 1.4138604 2.4339335 1.0788885
vn 0.0000000 -0.8318475 0.5550044
vt 0.9282387 0.0085894
v 1.3775506 2.3757980 0.9917543
vn 0.0000000 -0.8318475 0.5550042
vt 0.9181337 0.0049605
v 1.4138604 2.3757980 0.9917543
vn 0.0000000 -0.8318475 0.5550043
vt 0.9181337 0.0085893
v 1.4138604 2.4339335 1.0788885
vn -0.9250388 0.0085394 0.3797768
vt 0.2108916 0.5878327
v 1.3775506 2.3757980 0.9917543
vn -0.9866339 -0.0345220 0.1592542
vt 0.2053070 0.5977217
v 1.4138604 2.2805905 1.0432019
vn 0.0000000 -0.9944811 0.1049164
vt 0.9282387 0.0085894
v 1.3775506 2.2696002 0.9390264
vn 0.0000000 -0.9944811 0.1049164
vt 0.9181337 0.0049605
v 1.4138604 2.2696002 0.9390264
vn 0.0000000 -0.9944811 0.1049164
vt 0.9181337 0.0085893
v 1.4138604 2.2805905 1.0432019
vn -0.9250401 -0.1689313 0.3402398
vt 0.1945992 0.5929250
v 0.8568341 2.1948705 0.4968855
vn -1.0000000 0.0000000 0.0000000
vt 0.2861990 0.5850124
v 0.8568341 2.0912151 0.6828679
vn -1.0000000 0.0000000 0.0000000
vt 0.3088763 0.5923806
v 0.8568341 2.3880472 0.4073497
vn -1.0000000 0.0000000 0.0000000
vt 0.2635218 0.5923806
v 0.8568341 2.5969582 0.4484602
vn -1.0000000 0.0000000 0.0000000
vt 0.2495065 0.6116713
v 0.8568341 2.7418070 0.6045138
vn -1.0000000 0.0000000 0.0000000
vt 0.2495064 0.6355155
v 0.8568341 2.7672653 0.8159039
vn -1.0000000 0.0000000 0.0000000
vt 0.2635218 0.6548061
v 0.8568341 2.6636100 1.0018862
vn -1.0000000 0.0000000 0.0000000
vt 0.2861990 0.6621742
v 0.8568341 2.4704337 1.0914221
vn -1.0000000 0.0000000 0.0000000
vt 0.3088763 0.6548061
v 0.8568341 2.2615225 1.0503118
vn -1.0000000 0.0000000 0.0000000
vt 0.3228918 0.6355155
v 0.8568341 2.1166744 0.8942579
vn -1.0000000 0.0000000 0.0000000
vt 0.3228917 0.6116713
v 0.8577665 2.3880472 0.4073497
vn 1.0000000 0.0000000 0.0000000
vt 0.2635218 0.5923806
v 0.8577665 2.5969582 0.4484602
vn 1.0000000 0.0000000 0.0000000
vt 0.2495065 0.6116713
v 0.8577665 2.7418070 0.6045138
vn 1.0000000 0.0000000 0.0000000
vt 0.2495064 0.6355155
v 0.8577665 2.7672653 0.8159039
vn 1.0000000 0.0000000 0.0000000
vt 0.2635218 0.6548061
v 0.8577665 2.6636100 1.0018862
vn 1.0000000 0.0000000 0.0000000
vt 0.2861990 0.6621742
v 0.8577665 2.4704337 1.0914221
vn 1.0000000 0.0000000 0.0000000
vt 0.3088763 0.6548061
v 0.8577665 2.2615225 1.0503118
vn 1.0000000 0.0000000 0.0000000
vt 0.3228918 0.6355155
v 0.8577665 2.1166744 0.8942579
vn 1.0000000 0.0000000 0.0000000
vt 0.3228917 0.6116713
v 0.8577665 2.0912151 0.6828679
vn 1.0000000 0.0000000 0.0000000
vt 0.3088763 0.5923806
v 0.8577665 2.1948705 0.4968855
vn 1.0000000 0.0000000 0.0000000
vt 0.2861990 0.5850124

g group_64242320_140627935083024
f 1/1/1 2/2/2 3/3/3 
f 4/4/4 5/5/5 6/6/6 
f 7/7/7 8/8/8 9/9/9 
f 10/10/10 11/11/11 5/5/5 
f 12/12/12 13/13/13 14/14/14 
f 15/15/15 16/16/16 11/11/11 
f 17/17/17 18/18/18 19/19/19 
f 20/20/20 21/21/21 16/16/16 
f 22/22/22 23/23/23 24/24/24 
f 25/25/25 26/26/26 21/21/21 
f 27/27/27 28/28/28 29/29/29 
f 30/30/30 31/31/31 26/26/26 
f 32/32/32 33/33/33 34/34/34 
f 35/35/35 36/36/36 31/31/31 
f 37/37/37 38/38/38 39/39/39 
f 40/40/40 41/41/41 36/36/36 
f 42/42/42 43/43/43 44/44/44 
f 45/45/45 46/46/46 41/41/41 
f 47/47/47 48/48/48 49/49/49 
f 50/50/50 51/51/51 46/46/46 
f 52/52/52 53/53/53 54/54/54 
f 55/55/55 56/56/56 57/57/57 
f 58/58/58 59/59/59 51/51/51 
f 46/46/46 5/5/5 26/26/26 
f 60/60/60 61/61/61 62/62/62 
f 63/63/63 64/64/64 59/59/59 
f 65/65/65 66/66/66 67/67/67 
f 68/68/68 6/6/6 64/64/64 
f 69/69/69 70/70/70 71/71/71 
f 70/70/70 72/72/72 71/71/71 
f 73/73/73 74/74/74 75/75/75 
f 74/74/74 76/76/76 75/75/75 
f 75/75/75 76/76/76 77/77/77 
f 76/76/76 78/78/78 77/77/77 
f 77/77/77 78/78/78 79/79/79 
f 78/78/78 80/80/80 79/79/79 
f 81/81/81 82/82/82 83/83/83 
f 82/82/82 84/84/84 83/83/83 
f 83/83/83 84/84/84 69/69/69 
f 84/84/84 70/70/70 69/69/69 
f 85/85/85 86/86/86 87/87/87 
f 64/64/64 51/51/51 59/59/59 
f 46/46/46 36/36/36 41/41/41 
f 36/36/36 26/26/26 31/31/31 
f 26/26/26 16/16/16 21/21/21 
f 16/16/16 5/5/5 11/11/11 
f 46/46/46 26/26/26 36/36/36 
f 26/26/26 5/5/5 16/16/16 
f 5/5/5 46/46/46 51/51/51 
f 5/5/5 64/64/64 6/6/6 
f 5/5/5 51/51/51 64/64/64 
f 88/88/88 89/89/89 90/90/90 
f 91/91/91 92/92/92 93/93/93 
f 94/94/94 95/95/95 96/96/96 
f 97/97/97 93/93/93 98/98/98 
f 99/99/99 100/100/100 101/101/101 
f 102/102/102 98/98/98 103/103/103 
f 104/104/104 105/105/105 106/106/106 
f 107/107/107 103/103/103 108/108/108 
f 109/109/109 110/110/110 111/111/111 
f 112/112/112 108/108/108 113/113/113 
f 114/114/114 115/115/115 116/116/116 
f 117/117/117 113/113/113 118/118/118 
f 119/119/119 120/120/120 121/121/121 
f 122/122/122 118/118/118 123/123/123 
f 124/124/124 125/125/125 126/126/126 
f 127/127/127 123/123/123 128/128/128 
f 129/129/129 130/130/130 131/131/131 
f 132/132/132 128/128/128 133/133/133 
f 134/134/134 135/135/135 136/136/136 
f 137/137/137 133/133/133 55/55/55 
f 138/138/138 139/139/139 140/140/140 
f 141/141/141 56/56/56 142/142/142 
f 143/143/143 144/144/144 145/145/145 
f 146/146/146 142/142/142 92/92/92 
f 142/142/142 93/93/93 92/92/92 
f 142/142/142 98/98/98 93/93/93 
f 142/142/142 103/103/103 98/98/98 
f 142/142/142 108/108/108 103/103/103 
f 142/142/142 113/113/113 108/108/108 
f 142/142/142 118/118/118 113/113/113 
f 142/142/142 123/123/123 118/118/118 
f 142/142/142 128/128/128 123/123/123 
f 142/142/142 133/133/133 128/128/128 
f 142/142/142 55/55/55 133/133/133 
f 142/142/142 56/56/56 55/55/55 
f 147/147/147 148/148/148 149/149/149 
f 149/149/149 148/148/148 150/150/150 
f 150/150/150 148/148/148 151/151/151 
f 151/151/151 148/148/148 152/152/152 
f 152/152/152 148/148/148 153/153/153 
f 153/153/153 148/148/148 154/154/154 
f 154/154/154 148/148/148 155/155/155 
f 155/155/155 148/148/148 156/156/156 
f 157/157/157 158/158/158 159/159/159 
f 157/157/157 159/159/159 160/160/160 
f 157/157/157 160/160/160 161/161/161 
f 157/157/157 161/161/161 162/162/162 
f 157/157/157 162/162/162 163/163/163 
f 157/157/157 163/163/163 164/164/164 
f 157/157/157 164/164/164 165/165/165 
f 166/166/166 157/157/157 165/165/165 
