v 1.4095930 1.9377570 0.0724761
vn 0.0000000 -0.1114502 0.9937701
vt -0.5676785 -0.1713514
v 0.8048192 1.9377570 0.0724761
vn 0.0000000 -0.1114502 0.9937701
vt -0.9299073 -0.1702266
v 0.8048192 -1.8776650 0.0724767
vn 0.0000000 0.2640868 0.9644989
vt -0.9299073 -2.7328110
v 1.4095930 -1.8776650 0.0724767
vn 0.0000000 0.2640868 0.9644989
vt -0.5676785 -2.7312579
v 0.8047692 1.9377570 -0.0000003
vn -0.0000000 0.0961861 -0.9953634
vt -0.1406462 -0.1761956
v 1.4096169 1.9377570 -0.0000003
vn -0.0000000 0.0961861 -0.9953634
vt -0.5072063 -0.1729603
v 1.4096169 -1.9031090 0.0000003
vn -0.0000001 -0.2619374 -0.9650849
vt -0.5072063 -2.7433970
v 0.8047692 -1.9031090 0.0000003
vn -0.0000000 -0.2619373 -0.9650849
vt -0.1406462 -2.7407880
v 0.8047692 1.9377570 -0.0000003
vn -0.9999998 -0.0000629 0.0006900
vt -0.9892777 -0.1707659
v 0.8047692 -1.9031090 0.0000003
vn -0.9999998 0.0001778 0.0006264
vt -0.9892777 -2.7448349
v 0.8048192 -1.8776650 0.0724767
vn -0.9999998 0.0001626 0.0006329
vt -0.9299073 -2.7328110
v 0.8048192 1.9377570 0.0724761
vn -0.9999998 -0.0000735 0.0006835
vt -0.9299073 -0.1702266
v 1.4096169 -2.6271620 0.4242913
vn -0.0000000 -0.6039141 -0.7970494
vt -0.5072063 -3.2684779
v 0.8047692 -2.6271620 0.4242913
vn -0.0000002 -0.6039147 -0.7970490
vt -0.1406462 -3.2641110
v 0.8048192 -2.5792890 0.4878358
vn -0.9999998 0.0003605 0.0005165
vt -0.9299073 -3.2728653
v 0.8047692 -2.6271620 0.4242913
vn -0.9999998 0.0003758 0.0005220
vt -0.9892777 -3.2754593
v 1.4095930 -2.5792890 0.4878358
vn 0.0000000 0.5756086 0.8177254
vt -0.5676785 -3.2678337
v 0.8048192 -2.5792890 0.4878358
vn 0.0000001 0.5756089 0.8177251
vt -0.9299073 -3.2728653
v 1.4095930 -2.5792890 0.4878358
vn 0.9999999 0.0001770 0.0002536
vt -0.5676785 -3.2678337
v 1.4096169 -2.6271620 0.4242913
vn 0.9999999 0.0001845 0.0002563
vt -0.5072063 -3.2684779
v 1.4096169 -1.9031090 0.0000003
vn 1.0000000 0.0000873 0.0003076
vt -0.5072063 -2.7433970
v 1.4095930 -1.8776650 0.0724767
vn 1.0000000 0.0000799 0.0003108
vt -0.5676785 -2.7312579
v 1.4096169 2.4709289 1.0987070
vn -0.0000001 0.2194708 0.9756191
vt -0.5072063 0.9157438
v 0.8047693 2.4709301 1.0987070
vn 0.0000001 0.2194713 0.9756190
vt -0.1406462 0.9198513
v 0.8047693 -2.5083971 1.0543801
vn 0.0000001 -0.2431951 0.9699774
vt -0.1406462 4.2227211
v 1.4096169 -2.5083971 1.0543801
vn -0.0000001 -0.2431956 0.9699773
vt -0.5072063 4.2358170
v 1.4095930 2.4548631 1.0261019
vn -0.0000001 -0.2231865 -0.9747758
vt -0.5676785 0.9249911
v 1.4095930 -2.4909511 0.9840578
vn 0.0000000 0.2445414 -0.9696389
vt -0.5676785 4.2361178
v 0.8048193 -2.4909511 0.9840578
vn -0.0000000 0.2445412 -0.9696389
vt -0.9299073 4.2469101
v 0.8048193 2.4548631 1.0261019
vn 0.0000000 -0.2231863 -0.9747759
vt -0.9299073 0.9222298
v 1.4095930 -2.6533480 0.8983545
vn -0.0000000 0.7108983 -0.7032949
vt -0.5676785 4.3699679
v 0.8048193 -2.6533480 0.8983546
vn -0.0000001 0.7108982 -0.7032950
vt -0.9299073 4.3762321
v 1.4095930 -2.6533480 0.8983545
vn 0.9999999 0.0002261 -0.0002309
vt -0.5676785 4.3699679
v 1.4095930 -2.4909511 0.9840578
vn 0.9999999 0.0000827 -0.0003270
vt -0.5676785 4.2361178
v 1.4096169 -2.5083971 1.0543801
vn 0.9999999 0.0000821 -0.0003267
vt -0.5072063 4.2358170
v 1.4096169 -2.7100270 0.9487897
vn 0.9999999 0.0002338 -0.0002265
vt -0.5072063 4.3702159
v 1.4096169 -2.7100270 0.9487897
vn -0.0000000 -0.7197890 0.6941929
vt -0.5072063 4.3702159
v 0.8047693 -2.7100270 0.9487899
vn 0.0000002 -0.7197887 0.6941932
vt -0.1406462 4.3628430
v 1.4095930 -2.7011311 0.5888446
vn 1.0000000 0.0002791 0.0001731
vt -0.5676785 -3.3840289
v 1.4096169 -2.7710619 0.5629220
vn 1.0000000 0.0002942 0.0001549
vt -0.5072063 -3.3899689
v 1.4096169 -2.7710619 0.5629220
vn -0.0000005 -0.8748131 -0.4844605
vt -0.5072063 -3.3899689
v 0.8047692 -2.7710619 0.5629221
vn -0.0000004 -0.8748129 -0.4844609
vt -0.1406462 -3.3868332
v 0.8047692 -2.7710619 0.5629221
vn -0.9999998 0.0005993 0.0003166
vt -0.9892777 -3.3935318
v 0.8048192 -2.7011311 0.5888448
vn -0.9999998 0.0005680 0.0003536
vt -0.9299073 -3.3861051
v 1.4095930 -2.7011311 0.5888446
vn 0.0000000 0.8547034 0.5191166
vt -0.5676785 -3.3840289
v 0.8048192 -2.7011311 0.5888448
vn 0.0000002 0.8547035 0.5191165
vt -0.9299073 -3.3861051
v 1.4095930 -2.7341011 0.7412686
vn 0.9999999 0.0003234 -0.0000497
vt -0.5676785 -3.5000000
v 1.4096169 -2.8088150 0.7422919
vn 1.0000000 0.0003266 -0.0000337
vt -0.5072063 -3.5000000
v 1.4096169 -2.8088150 0.7422919
vn -0.0000003 -0.9928820 0.1191021
vt -0.5072063 -3.5000000
v 0.8047693 -2.8088150 0.7422919
vn 0.0000001 -0.9928822 0.1191008
vt -0.1406462 -3.5000000
v 0.8047693 -2.8088150 0.7422919
vn -0.9999998 0.0006692 -0.0000686
vt -0.9892777 -3.5000000
v 0.8048193 -2.7341011 0.7412687
vn -0.9999998 0.0006620 -0.0001014
vt -0.9299073 -3.5000000
v 0.8048193 -2.7341011 0.7412687
vn 0.0000000 0.9914436 -0.1305357
vt -0.9299073 -3.5000000
v 1.4095930 -2.7341011 0.7412686
vn -0.0000000 0.9914436 -0.1305360
vt -0.5676785 -3.5000000
v 1.4095930 -2.7341011 0.7412686
vn 0.9999999 0.0003234 -0.0000497
vt -0.5676785 4.5000000
v 1.4096169 -2.8088150 0.7422919
vn 1.0000000 0.0003266 -0.0000337
vt -0.5072063 4.5000000
v 0.8047693 -2.8088150 0.7422919
vn 0.0000001 -0.9928822 0.1191008
vt -0.1406462 4.5000000
v 1.4096169 -2.8088150 0.7422919
vn -0.0000003 -0.9928820 0.1191021
vt -0.5072063 4.5000000
v 0.8048193 -2.7341011 0.7412687
vn -0.9999998 0.0006620 -0.0001014
vt -0.9299073 4.5000000
v 0.8047693 -2.8088150 0.7422919
vn -0.9999998 0.0006692 -0.0000686
vt -0.9892778 4.5000000
v 0.8047693 -2.7100270 0.9487899
vn -0.9999998 0.0006214 -0.0003134
vt -0.9892778 4.3804469
v 0.8048193 -2.6533480 0.8983546
vn -0.9999998 0.0006061 -0.0003116
vt -0.9299073 4.3762321
v 1.4095930 -2.7341011 0.7412686
vn -0.0000000 0.9914436 -0.1305360
vt -0.5676785 4.5000000
v 0.8048193 -2.7341011 0.7412687
vn 0.0000000 0.9914436 -0.1305357
vt -0.9299073 4.5000000
v 0.8047692 2.0961311 0.0308968
vn -0.0000001 0.4197672 -0.9076318
vt -0.1406462 -0.0747304
v 1.4096169 2.0961311 0.0308968
vn -0.0000002 0.4197673 -0.9076318
vt -0.5072063 -0.0763636
v 1.4095930 2.0724320 0.1030680
vn 0.0000000 -0.4368051 0.8995562
vt -0.5676785 -0.0654845
v 0.8048192 2.0724320 0.1030680
vn 0.0000000 -0.4368051 0.8995562
vt -0.9299073 -0.0717013
v 1.4095930 1.9377570 0.0724761
vn 0.9999999 -0.0000361 0.0003357
vt -0.5676785 -0.1713514
v 1.4096169 1.9377570 -0.0000003
vn 0.9999999 -0.0000309 0.0003388
vt -0.5072063 -0.1729603
v 1.4096169 2.0961311 0.0308968
vn 1.0000000 -0.0001363 0.0002989
vt -0.5072063 -0.0763636
v 1.4095930 2.0724320 0.1030680
vn 0.9999999 -0.0001486 0.0002908
vt -0.5676785 -0.0654845
v 0.8048192 2.0724320 0.1030680
vn -0.9999998 -0.0003025 0.0005922
vt -0.9299073 -0.0717013
v 0.8047692 2.0961311 0.0308968
vn -0.9999998 -0.0002777 0.0006087
vt -0.9892777 -0.0874085
v 1.4095930 2.6736929 0.5900045
vn 0.0000001 -0.8738289 0.4862336
vt -0.5676785 0.4539454
v 0.8048192 2.6736929 0.5900047
vn 0.0000001 -0.8738289 0.4862334
vt -0.9299073 0.4663470
v 0.8047692 2.7391689 0.5442384
vn -0.9999998 -0.0005427 0.0003194
vt -0.9892777 0.4766619
v 0.8048192 2.6736929 0.5900047
vn -0.9999998 -0.0005575 0.0002904
vt -0.9299073 0.4663470
v 1.4096169 2.6697400 1.0023150
vn 0.9999999 -0.0002208 -0.0002373
vt -0.5072063 0.7485089
v 1.4096169 2.4709289 1.0987070
vn 0.9999999 -0.0000720 -0.0003207
vt -0.5072063 0.9157438
v 1.4095930 2.4548631 1.0261019
vn 0.9999999 -0.0000724 -0.0003199
vt -0.5676785 0.9249911
v 1.4095930 2.6218240 0.9436587
vn 0.9999999 -0.0002282 -0.0002294
vt -0.5676785 0.7427940
v 0.8048193 2.6218240 0.9436588
vn -0.0000001 -0.6935005 -0.7204561
vt -0.9299073 0.7485876
v 1.4095930 2.6218240 0.9436587
vn -0.0000002 -0.6935008 -0.7204559
vt -0.5676785 0.7427940
v 0.8048193 2.4548631 1.0261019
vn -0.9999998 -0.0003016 -0.0006200
vt -0.9299073 0.9222298
v 0.8047693 2.4709301 1.0987070
vn -0.9999998 -0.0003019 -0.0006228
vt -0.9892778 0.9118028
v 0.8047693 2.6697400 1.0023150
vn -0.9999998 -0.0004525 -0.0004861
vt -0.9892777 0.7553568
v 0.8048193 2.6218240 0.9436588
vn -0.9999998 -0.0004673 -0.0004693
vt -0.9299073 0.7485876
v 1.4096169 2.6697400 1.0023150
vn -0.0000004 0.6874663 0.7262164
vt -0.5072063 0.7485089
v 0.8047693 2.6697400 1.0023150
vn -0.0000000 0.6874672 0.7262155
vt -0.1406462 0.7474365
v 1.4096169 2.7391689 0.5442384
vn 0.9999999 -0.0002665 0.0001569
vt -0.5072063 0.4586885
v 1.4095930 2.6736929 0.5900045
vn 0.9999999 -0.0002738 0.0001426
vt -0.5676785 0.4539454
v 1.4096169 2.7391689 0.5442384
vn -0.0000001 0.8684586 -0.4957618
vt -0.5072063 0.4586885
v 0.8047692 2.7391689 0.5442384
vn -0.0000003 0.8684588 -0.4957613
vt -0.1406462 0.4451363
v 1.4096169 2.7766421 0.8095085
vn 1.0000000 -0.0003157 -0.0000567
vt -0.5072063 0.5978565
v 1.4095930 2.7000921 0.7992898
vn 0.9999999 -0.0003123 -0.0000638
vt -0.5676785 0.5932865
v 1.4095930 2.7000921 0.7992898
vn -0.0000001 -0.9828154 -0.1845915
vt -0.5676785 0.5932865
v 0.8048192 2.7000921 0.7992900
vn -0.0000000 -0.9828153 -0.1845916
vt -0.9299073 0.6020908
v 0.8048192 2.7000921 0.7992900
vn -0.9999998 -0.0006361 -0.0001285
vt -0.9299073 0.6020908
v 0.8047692 2.7766421 0.8095084
vn -0.9999998 -0.0006436 -0.0001148
vt -0.9892777 0.6077280
v 1.4096169 2.7766421 0.8095085
vn -0.0000005 0.9833095 0.1819408
vt -0.5072063 0.5978565
v 0.8047692 2.7766421 0.8095084
vn -0.0000005 0.9833096 0.1819406
vt -0.1406462 0.5934196
v 1.1615820 -1.8776650 0.0724767
vn 0.9014668 0.1113820 0.4182723
vt 0.9882768 -2.7769721
v 1.1615820 1.9377570 0.0724761
vn 0.8978372 0.0000001 0.4403276
vt 0.9882768 0.0641757
v 1.1120729 1.9132659 0.1734263
vn 0.8978372 0.0000001 0.4403276
vt 0.8910121 0.0472257
v 1.1120729 -1.8560590 0.1734263
vn 0.9012326 0.1190216 0.4166697
vt 0.8910121 -2.7679911
v 1.1615820 -2.5792890 0.4878358
vn 0.8909463 0.2309638 0.3909865
vt 0.9882768 -3.3231320
v 1.1120729 -2.5208211 0.5660267
vn 0.8908013 0.2310702 0.3912540
vt 0.8910121 -3.3192968
v 1.1120729 -2.4608321 0.8796737
vn 0.9040701 0.0036250 -0.4273688
vt 0.8910531 4.3001919
v 1.1120729 2.4225271 0.9140383
vn 0.9174764 -0.0809352 -0.3894697
vt 0.8910121 0.9589102
v 1.1615820 2.4548631 1.0261019
vn 0.9202538 -0.0899841 -0.3808358
vt 0.9882768 0.9372490
v 1.1615820 -2.4909511 0.9840578
vn 0.9039230 0.0036357 -0.4276797
vt 0.9883187 4.3096819
v 1.1615820 2.6736929 0.5900045
vn 0.9169025 -0.2541696 0.3077135
vt 0.9882768 0.6413246
v 1.1120729 2.5708399 0.6539050
vn 0.9182774 -0.2525971 0.3048957
vt 0.8910121 0.6235946
v 1.1120729 2.0328791 0.2082204
vn 0.9080124 -0.2639717 0.3253188
vt 0.8910121 0.1551148
v 1.1615820 2.0724320 0.1030680
vn 0.9069691 -0.2650830 0.3273195
vt 0.9882768 0.1368845
v 1.1615820 2.6218240 0.9436587
vn 0.9116351 -0.1709151 -0.3737773
vt 0.9882768 0.8100100
v 1.1120729 2.5321550 0.8681626
vn 0.9033242 -0.1655910 -0.3957083
vt 0.8910121 0.8161420
v 1.1120729 1.9132659 0.1734263
vn -0.8978376 0.0000001 0.4403267
vt 0.8910121 0.0472257
v 1.0625640 1.9377570 0.0724761
vn -0.8978376 0.0000001 0.4403267
vt 0.9882768 0.0641692
v 1.0625640 -1.8776650 0.0724767
vn -0.9014000 0.1112534 0.4184505
vt 0.9882768 -2.7770181
v 1.1120729 -1.8560590 0.1734263
vn -0.9012963 0.1187314 0.4166147
vt 0.8910121 -2.7679911
v 1.0625640 -2.5792890 0.4878358
vn -0.8908225 0.2314569 0.3909769
vt 0.9882768 -3.3231068
v 1.1120729 -2.5208211 0.5660267
vn -0.8909509 0.2312958 0.3907798
vt 0.8910121 -3.3192968
v 1.1120729 2.0328791 0.2082204
vn -0.9080129 -0.2639710 0.3253182
vt 0.8910121 0.1551148
v 1.1120729 2.5708399 0.6539050
vn -0.9182781 -0.2525961 0.3048944
vt 0.8910121 0.6235946
v 1.0625640 2.6736929 0.5900045
vn -0.9169032 -0.2541687 0.3077123
vt 0.9882768 0.6413324
v 1.0625640 2.0724320 0.1030680
vn -0.9069695 -0.2650824 0.3273189
vt 0.9882768 0.1369443

g group_64240472_140627934323360
f 1/1/1 2/2/2 3/3/3 
f 3/3/3 4/4/4 1/1/1 
f 5/5/5 6/6/6 7/7/7 
f 7/7/7 8/8/8 5/5/5 
f 9/9/9 10/10/10 11/11/11 
f 11/11/11 12/12/12 9/9/9 
f 8/8/8 7/7/7 13/13/13 
f 13/13/13 14/14/14 8/8/8 
f 15/15/15 11/11/11 10/10/10 
f 10/10/10 16/16/16 15/15/15 
f 17/17/17 4/4/4 3/3/3 
f 3/3/3 18/18/18 17/17/17 
f 19/19/19 20/20/20 21/21/21 
f 21/21/21 22/22/22 19/19/19 
f 23/23/23 24/24/24 25/25/25 
f 25/25/25 26/26/26 23/23/23 
f 27/27/27 28/28/28 29/29/29 
f 29/29/29 30/30/30 27/27/27 
f 29/29/29 28/28/28 31/31/31 
f 31/31/31 32/32/32 29/29/29 
f 33/33/33 34/34/34 35/35/35 
f 35/35/35 36/36/36 33/33/33 
f 37/37/37 26/26/26 25/25/25 
f 25/25/25 38/38/38 37/37/37 
f 39/39/39 40/40/40 20/20/20 
f 20/20/20 19/19/19 39/39/39 
f 41/41/41 42/42/42 14/14/14 
f 14/14/14 13/13/13 41/41/41 
f 16/16/16 43/43/43 44/44/44 
f 44/44/44 15/15/15 16/16/16 
f 45/45/45 17/17/17 18/18/18 
f 18/18/18 46/46/46 45/45/45 
f 40/40/40 39/39/39 47/47/47 
f 47/47/47 48/48/48 40/40/40 
f 42/42/42 41/41/41 49/49/49 
f 49/49/49 50/50/50 42/42/42 
f 43/43/43 51/51/51 52/52/52 
f 52/52/52 44/44/44 43/43/43 
f 45/45/45 46/46/46 53/53/53 
f 53/53/53 54/54/54 45/45/45 
f 55/55/55 33/33/33 36/36/36 
f 36/36/36 56/56/56 55/55/55 
f 57/57/57 58/58/58 37/37/37 
f 37/37/37 38/38/38 57/57/57 
f 59/59/59 60/60/60 61/61/61 
f 61/61/61 62/62/62 59/59/59 
f 63/63/63 64/64/64 32/32/32 
f 32/32/32 31/31/31 63/63/63 
f 6/6/6 5/5/5 65/65/65 
f 65/65/65 66/66/66 6/6/6 
f 2/2/2 1/1/1 67/67/67 
f 67/67/67 68/68/68 2/2/2 
f 69/69/69 70/70/70 71/71/71 
f 71/71/71 72/72/72 69/69/69 
f 12/12/12 73/73/73 74/74/74 
f 74/74/74 9/9/9 12/12/12 
f 68/68/68 67/67/67 75/75/75 
f 75/75/75 76/76/76 68/68/68 
f 77/77/77 74/74/74 73/73/73 
f 73/73/73 78/78/78 77/77/77 
f 79/79/79 80/80/80 81/81/81 
f 81/81/81 82/82/82 79/79/79 
f 27/27/27 30/30/30 83/83/83 
f 83/83/83 84/84/84 27/27/27 
f 85/85/85 86/86/86 87/87/87 
f 87/87/87 88/88/88 85/85/85 
f 23/23/23 89/89/89 90/90/90 
f 90/90/90 24/24/24 23/23/23 
f 91/91/91 92/92/92 72/72/72 
f 72/72/72 71/71/71 91/91/91 
f 93/93/93 66/66/66 65/65/65 
f 65/65/65 94/94/94 93/93/93 
f 95/95/95 96/96/96 92/92/92 
f 92/92/92 91/91/91 95/95/95 
f 97/97/97 98/98/98 76/76/76 
f 76/76/76 75/75/75 97/97/97 
f 78/78/78 99/99/99 100/100/100 
f 100/100/100 77/77/77 78/78/78 
f 101/101/101 93/93/93 94/94/94 
f 94/94/94 102/102/102 101/101/101 
f 95/95/95 79/79/79 82/82/82 
f 82/82/82 96/96/96 95/95/95 
f 84/84/84 83/83/83 98/98/98 
f 98/98/98 97/97/97 84/84/84 
f 88/88/88 87/87/87 100/100/100 
f 100/100/100 99/99/99 88/88/88 
f 89/89/89 101/101/101 102/102/102 
f 102/102/102 90/90/90 89/89/89 
f 103/103/103 104/104/104 105/105/105 
f 105/105/105 106/106/106 103/103/103 
f 107/107/107 103/103/103 106/106/106 
f 106/106/106 108/108/108 107/107/107 
f 109/109/109 110/110/110 111/111/111 
f 111/111/111 112/112/112 109/109/109 
f 113/113/113 114/114/114 115/115/115 
f 115/115/115 116/116/116 113/113/113 
f 117/117/117 111/111/111 110/110/110 
f 110/110/110 118/118/118 117/117/117 
f 119/119/119 120/120/120 121/121/121 
f 121/121/121 122/122/122 119/119/119 
f 121/121/121 123/123/123 124/124/124 
f 124/124/124 122/122/122 121/121/121 
f 125/125/125 126/126/126 127/127/127 
f 127/127/127 128/128/128 125/125/125 
f 35/35/35 34/34/34 81/81/81 
f 81/81/81 80/80/80 35/35/35 
f 70/70/70 69/69/69 22/22/22 
f 22/22/22 21/21/21 70/70/70 
