v -0.8567206 -2.6504164 0.5142407
vn 0.0000000 -0.7071062 -0.7071074
vt 0.2173730 0.5034734
v -0.8567206 -2.7352936 0.7191515
vn 0.0000000 -1.0000000 -0.0000000
vt 0.2476141 0.5034734
v -1.0468485 -2.6504164 0.5142407
vn 0.0000000 -0.7071062 -0.7071075
vt 0.2173730 0.4775348
v -1.0468485 -2.7352936 0.7191515
vn 0.0000000 -1.0000000 0.0000000
vt 0.2476141 0.4775348
v -0.8567206 -2.6504164 0.9240623
vn 0.0000000 -0.7071062 0.7071075
vt 0.2778617 0.5034734
v -1.0468485 -2.6504164 0.9240623
vn 0.0000000 -0.7071061 0.7071075
vt 0.2778617 0.4775348
v -0.8567206 -2.4455054 1.0089393
vn 0.0000000 0.0000002 1.0000000
vt 0.3081098 0.5034734
v -1.0468485 -2.4455054 1.0089393
vn 0.0000000 0.0000002 1.0000000
vt 0.3081098 0.4775348
v -0.8567206 -2.4455054 1.0089393
vn 0.0000000 0.0000002 1.0000000
vt 0.3081098 0.5034734
v -0.8567206 -2.2405946 0.9240623
vn 0.0000000 0.7071073 0.7071063
vt 0.2778617 0.5034734
v -1.0468485 -2.4455054 1.0089393
vn 0.0000000 0.0000002 1.0000000
vt 0.3081098 0.4775348
v -1.0468485 -2.2405946 0.9240623
vn 0.0000000 0.7071074 0.7071062
vt 0.2778617 0.4775348
v -0.8567206 -2.1557181 0.7191515
vn 0.0000000 1.0000000 -0.0000000
vt 0.2476141 0.5034734
v -1.0468485 -2.1557181 0.7191515
vn 0.0000000 1.0000000 0.0000000
vt 0.2476141 0.4775348
v -0.8567206 -2.2405946 0.5142407
vn 0.0000000 0.7071074 -0.7071062
vt 0.2173730 0.5034734
v -1.0468485 -2.2405946 0.5142407
vn 0.0000000 0.7071074 -0.7071062
vt 0.2173730 0.4775348
v -0.8567206 -2.4455054 0.4293638
vn 0.0000000 0.0000002 -1.0000000
vt 0.1871198 0.5034734
v -1.0468485 -2.4455054 0.4293638
vn 0.0000000 0.0000002 -1.0000000
vt 0.1871198 0.4775348
v -0.8567206 -2.4455054 0.4293638
vn 0.0000000 0.0000002 -1.0000000
vt 0.1871198 0.5034734
v -1.0468485 -2.4455054 0.4293638
vn 0.0000000 0.0000002 -1.0000000
vt 0.1871198 0.4775348
v -1.0468485 -2.7352936 0.7191515
vn -1.0000000 0.0000000 0.0000000
vt 0.3257825 0.5455065
v -1.0468485 -2.6504164 0.9240623
vn -1.0000000 0.0000000 0.0000000
vt 0.3147998 0.5720212
v -1.0468485 -2.6504164 0.5142407
vn -1.0000000 0.0000000 0.0000000
vt 0.3147998 0.5189917
v -1.0468485 -2.4455054 1.0089393
vn -1.0000000 0.0000000 0.0000000
vt 0.2882848 0.5830039
v -1.0468485 -2.2405946 0.9240623
vn -1.0000000 0.0000000 0.0000000
vt 0.2617702 0.5720212
v -1.0468485 -2.1557181 0.7191515
vn -1.0000000 0.0000000 0.0000000
vt 0.2507874 0.5455065
v -1.0468485 -2.2405946 0.5142407
vn -1.0000000 0.0000000 0.0000000
vt 0.2617702 0.5189917
v -1.0468485 -2.4455054 0.4293638
vn -1.0000000 0.0000000 0.0000000
vt 0.2882848 0.5080091
v -0.8567206 -2.7352936 0.7191515
vn 1.0000000 0.0000000 0.0000000
vt 0.2107660 0.5073848
v -0.8567206 -2.6504164 0.5142407
vn 1.0000000 0.0000000 0.0000000
vt 0.1839501 0.5184920
v -0.8567206 -2.6504164 0.9240623
vn 1.0000000 0.0000000 0.0000000
vt 0.2375818 0.5184920
v -0.8567206 -2.4455054 0.4293638
vn 1.0000000 0.0000000 0.0000000
vt 0.1728426 0.5453081
v -0.8567206 -2.2405946 0.5142407
vn 1.0000000 0.0000000 0.0000000
vt 0.1839501 0.5721240
v -0.8567206 -2.1557181 0.7191515
vn 1.0000000 0.0000000 0.0000000
vt 0.2107660 0.5832313
v -0.8567206 -2.2405946 0.9240623
vn 1.0000000 0.0000000 0.0000000
vt 0.2375818 0.5721240
v -0.8567206 -2.4455054 1.0089393
vn 1.0000000 0.0000000 0.0000000
vt 0.2486894 0.5453081
v -1.1669217 -2.6504164 0.5142407
vn 0.0000000 -0.7071062 -0.7071075
vt 0.2476141 0.5034734
v -1.1669217 -2.7352936 0.7191515
vn 0.0000000 -1.0000000 -0.0000000
vt 0.2778617 0.5034734
v -1.3570496 -2.6504164 0.5142407
vn 0.0000000 -0.7071062 -0.7071074
vt 0.2476141 0.4775348
v -1.3570496 -2.7352936 0.7191515
vn 0.0000000 -1.0000000 0.0000000
vt 0.2778617 0.4775348
v -1.1669217 -2.6504164 0.9240623
vn 0.0000000 -0.7071061 0.7071075
vt 0.3081098 0.5034734
v -1.3570496 -2.6504164 0.9240623
vn 0.0000000 -0.7071062 0.7071075
vt 0.3081098 0.4775348
v -1.1669217 -2.6504164 0.9240623
vn 0.0000000 -0.7071061 0.7071075
vt 0.3081098 0.5034734
v -1.1669217 -2.4455054 1.0089393
vn 0.0000000 0.0000002 1.0000000
vt 0.2778617 0.5034734
v -1.3570496 -2.6504164 0.9240623
vn 0.0000000 -0.7071062 0.7071075
vt 0.3081098 0.4775348
v -1.3570496 -2.4455054 1.0089393
vn 0.0000000 0.0000002 1.0000000
vt 0.2778617 0.4775348
v -1.1669217 -2.2405946 0.9240623
vn 0.0000000 0.7071074 0.7071062
vt 0.2476141 0.5034734
v -1.3570496 -2.2405946 0.9240623
vn 0.0000000 0.7071073 0.7071063
vt 0.2476141 0.4775348
v -1.1669217 -2.1557181 0.7191515
vn 0.0000000 1.0000000 0.0000000
vt 0.2173730 0.5034734
v -1.3570496 -2.1557181 0.7191515
vn 0.0000000 1.0000000 -0.0000000
vt 0.2173730 0.4775348
v -1.1669217 -2.2405946 0.5142407
vn 0.0000000 0.7071074 -0.7071062
vt 0.1871198 0.5034734
v -1.3570496 -2.2405946 0.5142407
vn 0.0000000 0.7071074 -0.7071062
vt 0.1871198 0.4775348
v -1.1669217 -2.2405946 0.5142407
vn 0.0000000 0.7071074 -0.7071062
vt 0.1871198 0.5034734
v -1.1669217 -2.4455054 0.4293638
vn 0.0000000 0.0000002 -1.0000000
vt 0.2173730 0.5034734
v -1.3570496 -2.2405946 0.5142407
vn 0.0000000 0.7071074 -0.7071062
vt 0.1871198 0.4775348
v -1.3570496 -2.4455054 0.4293638
vn 0.0000000 0.0000002 -1.0000000
vt 0.2173730 0.4775348
v -1.1669217 -2.6504164 0.5142407
vn 1.0000000 0.0000000 0.0000000
vt 0.3147998 0.5189917
v -1.1669217 -2.4455054 0.4293638
vn 1.0000000 0.0000000 0.0000000
vt 0.2882848 0.5080091
v -1.1669217 -2.7352936 0.7191515
vn 1.0000000 0.0000000 0.0000000
vt 0.3257825 0.5455065
v -1.1669217 -2.2405946 0.5142407
vn 1.0000000 0.0000000 0.0000000
vt 0.2617702 0.5189917
v -1.1669217 -2.1557181 0.7191515
vn 1.0000000 0.0000000 0.0000000
vt 0.2507874 0.5455065
v -1.1669217 -2.2405946 0.9240623
vn 1.0000000 0.0000000 0.0000000
vt 0.2617702 0.5720212
v -1.1669217 -2.4455054 1.0089393
vn 1.0000000 0.0000000 0.0000000
vt 0.2882848 0.5830039
v -1.1669217 -2.6504164 0.9240623
vn 1.0000000 0.0000000 0.0000000
vt 0.3147998 0.5720212
v -1.3570496 -2.6504164 0.5142407
vn -1.0000000 0.0000000 0.0000000
vt 0.1839501 0.5184920
v -1.3570496 -2.7352936 0.7191515
vn -1.0000000 0.0000000 0.0000000
vt 0.2107660 0.5073848
v -1.3570496 -2.6504164 0.9240623
vn -1.0000000 0.0000000 0.0000000
vt 0.2375818 0.5184920
v -1.3570496 -2.4455054 1.0089393
vn -1.0000000 0.0000000 0.0000000
vt 0.2486894 0.5453081
v -1.3570496 -2.2405946 0.9240623
vn -1.0000000 0.0000000 0.0000000
vt 0.2375818 0.5721240
v -1.3570496 -2.1557181 0.7191515
vn -1.0000000 0.0000000 0.0000000
vt 0.2107660 0.5832313
v -1.3570496 -2.2405946 0.5142407
vn -1.0000000 0.0000000 0.0000000
vt 0.1839501 0.5721240
v -1.3570496 -2.4455054 0.4293638
vn -1.0000000 0.0000000 0.0000000
vt 0.1728426 0.5453081
v -1.0260655 -2.5378113 0.6394571
vn 0.0000000 -0.7071069 -0.7071068
vt 0.9280166 0.8010513
v -1.0260655 -2.5378113 0.8092983
vn 0.0000000 -0.7071069 0.7071066
vt 0.9422581 0.8010509
v -1.1689039 -2.5378113 0.6394571
vn 0.0000000 -0.7071069 -0.7071068
vt 0.9280171 0.8130187
v -1.1689039 -2.5378113 0.8092983
vn 0.0000000 -0.7071069 0.7071066
vt 0.9422562 0.8130223
v -1.1689039 -2.3525224 0.8092984
vn 0.0000000 0.7071066 0.7071069
vt 0.9577904 0.8130239
v -1.0260655 -2.3525224 0.8092984
vn 0.0000000 0.7071067 0.7071069
vt 0.9577901 0.8010526
v -1.0260655 -2.3525224 0.6394571
vn 0.0000000 0.7071068 -0.7071068
vt 0.9720216 0.8010516
v -1.1689039 -2.3525224 0.6394571
vn 0.0000000 0.7071069 -0.7071068
vt 0.9720234 0.8130203
v -1.1689039 -2.3525224 0.6394571
vn 0.0000000 0.7071069 -0.7071068
vt 0.9124918 0.8130196
v -1.0260655 -2.3525224 0.6394571
vn 0.0000000 0.7071068 -0.7071068
vt 0.9124901 0.8010550
v -1.0260655 -2.5378113 0.6394571
vn 0.0000000 -0.7071069 -0.7071068
vt 0.9280166 0.8010513
v -1.1689039 -2.5378113 0.6394571
vn 0.0000000 -0.7071069 -0.7071068
vt 0.9280171 0.8130187
v -1.1689039 -2.3525224 0.8092984
vn 0.0000000 0.7071066 0.7071069
vt 0.9577904 0.8130239
v -1.0260655 -2.3525224 0.8092984
vn 0.0000000 0.7071067 0.7071069
vt 0.9577901 0.8010526

g group_64241312_140627935149712
f 1/1/1 2/2/2 3/3/3 
f 3/3/3 2/2/2 4/4/4 
f 2/2/2 5/5/5 4/4/4 
f 4/4/4 5/5/5 6/6/6 
f 5/5/5 7/7/7 6/6/6 
f 6/6/6 7/7/7 8/8/8 
f 9/9/9 10/10/10 11/11/11 
f 11/11/11 10/10/10 12/12/12 
f 10/10/10 13/13/13 12/12/12 
f 12/12/12 13/13/13 14/14/14 
f 13/13/13 15/15/15 14/14/14 
f 14/14/14 15/15/15 16/16/16 
f 15/15/15 17/17/17 16/16/16 
f 16/16/16 17/17/17 18/18/18 
f 19/19/19 1/1/1 20/20/20 
f 20/20/20 1/1/1 3/3/3 
f 21/21/21 22/22/22 23/23/23 
f 22/22/22 24/24/24 23/23/23 
f 24/24/24 25/25/25 23/23/23 
f 25/25/25 26/26/26 23/23/23 
f 26/26/26 27/27/27 23/23/23 
f 27/27/27 28/28/28 23/23/23 
f 29/29/29 30/30/30 31/31/31 
f 30/30/30 32/32/32 31/31/31 
f 32/32/32 33/33/33 31/31/31 
f 33/33/33 34/34/34 31/31/31 
f 34/34/34 35/35/35 31/31/31 
f 35/35/35 36/36/36 31/31/31 
f 37/37/37 38/38/38 39/39/39 
f 39/39/39 38/38/38 40/40/40 
f 38/38/38 41/41/41 40/40/40 
f 40/40/40 41/41/41 42/42/42 
f 43/43/43 44/44/44 45/45/45 
f 45/45/45 44/44/44 46/46/46 
f 44/44/44 47/47/47 46/46/46 
f 46/46/46 47/47/47 48/48/48 
f 47/47/47 49/49/49 48/48/48 
f 48/48/48 49/49/49 50/50/50 
f 49/49/49 51/51/51 50/50/50 
f 50/50/50 51/51/51 52/52/52 
f 53/53/53 54/54/54 55/55/55 
f 55/55/55 54/54/54 56/56/56 
f 54/54/54 37/37/37 56/56/56 
f 56/56/56 37/37/37 39/39/39 
f 57/57/57 58/58/58 59/59/59 
f 58/58/58 60/60/60 59/59/59 
f 60/60/60 61/61/61 59/59/59 
f 61/61/61 62/62/62 59/59/59 
f 62/62/62 63/63/63 59/59/59 
f 63/63/63 64/64/64 59/59/59 
f 65/65/65 66/66/66 67/67/67 
f 65/65/65 67/67/67 68/68/68 
f 65/65/65 68/68/68 69/69/69 
f 65/65/65 69/69/69 70/70/70 
f 65/65/65 70/70/70 71/71/71 
f 65/65/65 71/71/71 72/72/72 
f 73/73/73 74/74/74 75/75/75 
f 75/75/75 74/74/74 76/76/76 
f 77/77/77 76/76/76 78/78/78 
f 78/78/78 76/76/76 74/74/74 
f 86/86/86 79/79/79 85/85/85 
f 85/85/85 79/79/79 80/80/80 
f 84/84/84 81/81/81 83/83/83 
f 83/83/83 81/81/81 82/82/82 
