v 0.8567206 -2.6504164 0.5142413
vn 0.0000000 -0.7071062 -0.7071074
vt 0.2173730 0.5034734
v 1.0468485 -2.6504164 0.5142413
vn 0.0000000 -0.7071062 -0.7071074
vt 0.2173730 0.4775348
v 0.8567206 -2.7352936 0.7191520
vn 0.0000000 -1.0000000 0.0000005
vt 0.2476141 0.5034734
v 1.0468485 -2.7352936 0.7191520
vn 0.0000000 -1.0000000 0.0000005
vt 0.2476141 0.4775348
v 0.8567206 -2.6504161 0.9240628
vn 0.0000000 -0.7071058 0.7071078
vt 0.2778617 0.5034734
v 1.0468485 -2.6504161 0.9240628
vn 0.0000000 -0.7071057 0.7071079
vt 0.2778617 0.4775348
v 0.8567206 -2.4455051 1.0089396
vn 0.0000000 0.0000003 1.0000000
vt 0.3081098 0.5034734
v 1.0468485 -2.4455051 1.0089396
vn 0.0000000 0.0000003 1.0000000
vt 0.3081098 0.4775348
v 0.8567206 -2.4455051 1.0089396
vn 0.0000000 0.0000003 1.0000000
vt 0.3081098 0.5034734
v 1.0468485 -2.4455051 1.0089396
vn 0.0000000 0.0000003 1.0000000
vt 0.3081098 0.4775348
v 0.8567206 -2.2405944 0.9240627
vn 0.0000000 0.7071078 0.7071059
vt 0.2778617 0.5034734
v 1.0468485 -2.2405944 0.9240627
vn 0.0000000 0.7071077 0.7071059
vt 0.2778617 0.4775348
v 0.8567206 -2.1557181 0.7191520
vn 0.0000000 1.0000000 -0.0000005
vt 0.2476141 0.5034734
v 1.0468485 -2.1557181 0.7191520
vn 0.0000000 1.0000000 -0.0000005
vt 0.2476141 0.4775348
v 0.8567206 -2.2405946 0.5142412
vn 0.0000000 0.7071074 -0.7071062
vt 0.2173730 0.5034734
v 1.0468485 -2.2405946 0.5142412
vn 0.0000000 0.7071073 -0.7071063
vt 0.2173730 0.4775348
v 0.8567206 -2.4455054 0.4293643
vn 0.0000000 0.0000001 -1.0000000
vt 0.1871198 0.5034734
v 1.0468485 -2.4455054 0.4293643
vn 0.0000000 0.0000001 -1.0000000
vt 0.1871198 0.4775348
v 0.8567206 -2.4455054 0.4293643
vn 0.0000000 0.0000001 -1.0000000
vt 0.1871198 0.5034734
v 1.0468485 -2.4455054 0.4293643
vn 0.0000000 0.0000001 -1.0000000
vt 0.1871198 0.4775348
v 1.0468485 -2.7352936 0.7191520
vn 1.0000000 0.0000000 0.0000000
vt 0.3257825 0.5455065
v 1.0468485 -2.6504164 0.5142413
vn 1.0000000 0.0000000 0.0000000
vt 0.3147998 0.5189917
v 1.0468485 -2.6504161 0.9240628
vn 1.0000000 0.0000000 0.0000000
vt 0.3147998 0.5720212
v 1.0468485 -2.4455051 1.0089396
vn 1.0000000 0.0000000 0.0000000
vt 0.2882848 0.5830039
v 1.0468485 -2.2405944 0.9240627
vn 1.0000000 0.0000000 0.0000000
vt 0.2617702 0.5720212
v 1.0468485 -2.1557181 0.7191520
vn 1.0000000 0.0000000 0.0000000
vt 0.2507874 0.5455065
v 1.0468485 -2.2405946 0.5142412
vn 1.0000000 0.0000000 0.0000000
vt 0.2617702 0.5189917
v 1.0468485 -2.4455054 0.4293643
vn 1.0000000 0.0000000 0.0000000
vt 0.2882848 0.5080091
v 0.8567206 -2.7352936 0.7191520
vn -1.0000000 0.0000000 0.0000000
vt 0.2107660 0.5073848
v 0.8567206 -2.6504161 0.9240628
vn -1.0000000 0.0000000 0.0000000
vt 0.2375818 0.5184920
v 0.8567206 -2.6504164 0.5142413
vn -1.0000000 0.0000000 0.0000000
vt 0.1839501 0.5184920
v 0.8567206 -2.4455054 0.4293643
vn -1.0000000 0.0000000 0.0000000
vt 0.1728426 0.5453081
v 0.8567206 -2.2405946 0.5142412
vn -1.0000000 0.0000000 0.0000000
vt 0.1839501 0.5721240
v 0.8567206 -2.1557181 0.7191520
vn -1.0000000 0.0000000 0.0000000
vt 0.2107660 0.5832313
v 0.8567206 -2.2405944 0.9240627
vn -1.0000000 0.0000000 0.0000000
vt 0.2375818 0.5721240
v 0.8567206 -2.4455051 1.0089396
vn -1.0000000 0.0000000 0.0000000
vt 0.2486894 0.5453081
v 1.1669217 -2.6504164 0.5142413
vn 0.0000000 -0.7071062 -0.7071074
vt 0.2476141 0.5034734
v 1.3570496 -2.6504164 0.5142413
vn 0.0000000 -0.7071062 -0.7071074
vt 0.2476141 0.4775348
v 1.1669217 -2.7352936 0.7191520
vn 0.0000000 -1.0000000 0.0000005
vt 0.2778617 0.5034734
v 1.3570496 -2.7352936 0.7191520
vn 0.0000000 -1.0000000 0.0000005
vt 0.2778617 0.4775348
v 1.1669217 -2.6504161 0.9240628
vn 0.0000000 -0.7071057 0.7071079
vt 0.3081098 0.5034734
v 1.3570496 -2.6504161 0.9240628
vn 0.0000000 -0.7071057 0.7071079
vt 0.3081098 0.4775348
v 1.1669217 -2.6504161 0.9240628
vn 0.0000000 -0.7071057 0.7071079
vt 0.3081098 0.5034734
v 1.3570496 -2.6504161 0.9240628
vn 0.0000000 -0.7071057 0.7071079
vt 0.3081098 0.4775348
v 1.1669217 -2.4455051 1.0089396
vn 0.0000000 0.0000003 1.0000000
vt 0.2778617 0.5034734
v 1.3570496 -2.4455051 1.0089396
vn 0.0000000 0.0000003 1.0000000
vt 0.2778617 0.4775348
v 1.1669217 -2.2405944 0.9240627
vn 0.0000000 0.7071077 0.7071059
vt 0.2476141 0.5034734
v 1.3570496 -2.2405944 0.9240627
vn 0.0000000 0.7071077 0.7071059
vt 0.2476141 0.4775348
v 1.1669217 -2.1557181 0.7191520
vn 0.0000000 1.0000000 -0.0000004
vt 0.2173730 0.5034734
v 1.3570496 -2.1557181 0.7191520
vn 0.0000000 1.0000000 -0.0000005
vt 0.2173730 0.4775348
v 1.1669217 -2.2405946 0.5142412
vn 0.0000000 0.7071073 -0.7071063
vt 0.1871198 0.5034734
v 1.3570496 -2.2405946 0.5142412
vn 0.0000000 0.7071073 -0.7071063
vt 0.1871198 0.4775348
v 1.1669217 -2.2405946 0.5142412
vn 0.0000000 0.7071073 -0.7071063
vt 0.1871198 0.5034734
v 1.3570496 -2.2405946 0.5142412
vn 0.0000000 0.7071073 -0.7071063
vt 0.1871198 0.4775348
v 1.1669217 -2.4455054 0.4293643
vn 0.0000000 0.0000001 -1.0000000
vt 0.2173730 0.5034734
v 1.3570496 -2.4455054 0.4293643
vn 0.0000000 0.0000001 -1.0000000
vt 0.2173730 0.4775348
v 1.1669217 -2.6504164 0.5142413
vn -1.0000000 0.0000000 0.0000000
vt 0.3147998 0.5189917
v 1.1669217 -2.7352936 0.7191520
vn -1.0000000 0.0000000 0.0000000
vt 0.3257825 0.5455065
v 1.1669217 -2.4455054 0.4293643
vn -1.0000000 0.0000000 0.0000000
vt 0.2882848 0.5080091
v 1.1669217 -2.2405946 0.5142412
vn -1.0000000 0.0000000 0.0000000
vt 0.2617702 0.5189917
v 1.1669217 -2.1557181 0.7191520
vn -1.0000000 0.0000000 0.0000000
vt 0.2507874 0.5455065
v 1.1669217 -2.2405944 0.9240627
vn -1.0000000 0.0000000 0.0000000
vt 0.2617702 0.5720212
v 1.1669217 -2.4455051 1.0089396
vn -1.0000000 0.0000000 0.0000000
vt 0.2882848 0.5830039
v 1.1669217 -2.6504161 0.9240628
vn -1.0000000 0.0000000 0.0000000
vt 0.3147998 0.5720212
v 1.3570496 -2.6504164 0.5142413
vn 1.0000000 0.0000000 0.0000000
vt 0.1839501 0.5184920
v 1.3570496 -2.4455054 0.4293643
vn 1.0000000 0.0000000 0.0000000
vt 0.1728426 0.5453081
v 1.3570496 -2.2405946 0.5142412
vn 1.0000000 0.0000000 0.0000000
vt 0.1839501 0.5721240
v 1.3570496 -2.1557181 0.7191520
vn 1.0000000 0.0000000 0.0000000
vt 0.2107660 0.5832313
v 1.3570496 -2.2405944 0.9240627
vn 1.0000000 0.0000000 0.0000000
vt 0.2375818 0.5721240
v 1.3570496 -2.4455051 1.0089396
vn 1.0000000 0.0000000 0.0000000
vt 0.2486894 0.5453081
v 1.3570496 -2.6504161 0.9240628
vn 1.0000000 0.0000000 0.0000000
vt 0.2375818 0.5184920
v 1.3570496 -2.7352936 0.7191520
vn 1.0000000 0.0000000 0.0000000
vt 0.2107660 0.5073848
v 1.0260655 -2.5378113 0.6394576
vn 0.0000000 -0.7071074 -0.7071062
vt 0.9280166 0.8010513
v 1.1689039 -2.5378113 0.6394576
vn 0.0000000 -0.7071075 -0.7071062
vt 0.9280171 0.8130187
v 1.0260655 -2.5378110 0.8092989
vn 0.0000000 -0.7071064 0.7071072
vt 0.9422581 0.8010509
v 1.1689039 -2.5378110 0.8092989
vn 0.0000000 -0.7071064 0.7071072
vt 0.9422562 0.8130223
v 1.1689039 -2.3525221 0.8092989
vn 0.0000000 0.7071072 0.7071064
vt 0.9577904 0.8130239
v 1.0260655 -2.3525221 0.8092989
vn 0.0000000 0.7071073 0.7071063
vt 0.9577901 0.8010526
v 1.0260655 -2.3525224 0.6394576
vn 0.0000000 0.7071062 -0.7071074
vt 0.9720216 0.8010516
v 1.1689039 -2.3525224 0.6394576
vn 0.0000000 0.7071062 -0.7071074
vt 0.9720234 0.8130203
v 1.1689039 -2.3525224 0.6394576
vn 0.0000000 0.7071062 -0.7071074
vt 0.9124918 0.8130196
v 1.0260655 -2.3525224 0.6394576
vn 0.0000000 0.7071062 -0.7071074
vt 0.9124901 0.8010550
v 1.0260655 -2.5378113 0.6394576
vn 0.0000000 -0.7071074 -0.7071062
vt 0.9280166 0.8010513
v 1.1689039 -2.5378113 0.6394576
vn 0.0000000 -0.7071075 -0.7071062
vt 0.9280171 0.8130187
v 1.1689039 -2.3525221 0.8092989
vn 0.0000000 0.7071072 0.7071064
vt 0.9577904 0.8130239
v 1.0260655 -2.3525221 0.8092989
vn 0.0000000 0.7071073 0.7071063
vt 0.9577901 0.8010526

g group_64245680_140627933583744
f 1/1/1 2/2/2 3/3/3 
f 2/2/2 4/4/4 3/3/3 
f 3/3/3 4/4/4 5/5/5 
f 4/4/4 6/6/6 5/5/5 
f 5/5/5 6/6/6 7/7/7 
f 6/6/6 8/8/8 7/7/7 
f 9/9/9 10/10/10 11/11/11 
f 10/10/10 12/12/12 11/11/11 
f 11/11/11 12/12/12 13/13/13 
f 12/12/12 14/14/14 13/13/13 
f 13/13/13 14/14/14 15/15/15 
f 14/14/14 16/16/16 15/15/15 
f 15/15/15 16/16/16 17/17/17 
f 16/16/16 18/18/18 17/17/17 
f 19/19/19 20/20/20 1/1/1 
f 20/20/20 2/2/2 1/1/1 
f 21/21/21 22/22/22 23/23/23 
f 23/23/23 22/22/22 24/24/24 
f 24/24/24 22/22/22 25/25/25 
f 25/25/25 22/22/22 26/26/26 
f 26/26/26 22/22/22 27/27/27 
f 27/27/27 22/22/22 28/28/28 
f 29/29/29 30/30/30 31/31/31 
f 31/31/31 30/30/30 32/32/32 
f 32/32/32 30/30/30 33/33/33 
f 33/33/33 30/30/30 34/34/34 
f 34/34/34 30/30/30 35/35/35 
f 35/35/35 30/30/30 36/36/36 
f 37/37/37 38/38/38 39/39/39 
f 38/38/38 40/40/40 39/39/39 
f 39/39/39 40/40/40 41/41/41 
f 40/40/40 42/42/42 41/41/41 
f 43/43/43 44/44/44 45/45/45 
f 44/44/44 46/46/46 45/45/45 
f 45/45/45 46/46/46 47/47/47 
f 46/46/46 48/48/48 47/47/47 
f 47/47/47 48/48/48 49/49/49 
f 48/48/48 50/50/50 49/49/49 
f 49/49/49 50/50/50 51/51/51 
f 50/50/50 52/52/52 51/51/51 
f 53/53/53 54/54/54 55/55/55 
f 54/54/54 56/56/56 55/55/55 
f 55/55/55 56/56/56 37/37/37 
f 56/56/56 38/38/38 37/37/37 
f 57/57/57 58/58/58 59/59/59 
f 59/59/59 58/58/58 60/60/60 
f 60/60/60 58/58/58 61/61/61 
f 61/61/61 58/58/58 62/62/62 
f 62/62/62 58/58/58 63/63/63 
f 63/63/63 58/58/58 64/64/64 
f 65/65/65 66/66/66 67/67/67 
f 65/65/65 67/67/67 68/68/68 
f 65/65/65 68/68/68 69/69/69 
f 65/65/65 69/69/69 70/70/70 
f 65/65/65 70/70/70 71/71/71 
f 65/65/65 71/71/71 72/72/72 
f 73/73/73 74/74/74 75/75/75 
f 74/74/74 76/76/76 75/75/75 
f 77/77/77 78/78/78 76/76/76 
f 78/78/78 75/75/75 76/76/76 
f 86/86/86 85/85/85 79/79/79 
f 85/85/85 80/80/80 79/79/79 
f 84/84/84 83/83/83 81/81/81 
f 83/83/83 82/82/82 81/81/81 
