v -0.0776775 0.9712483 2.3346460
vn -0.3554339 0.5358648 0.7658432
vt 0.4334866 0.3134269
v 0.0012701 0.9740756 2.3469431
vn 0.0021071 0.5864161 0.8100072
vt 0.4403304 0.3144158
v -0.0331734 0.9970133 2.3274252
vn -0.2010320 0.3504145 0.9147655
vt 0.4366947 0.3173565
v 0.0357136 0.9970133 2.3274252
vn 0.2084070 0.3434949 0.9157389
vt 0.4440109 0.3173411
v 0.1118914 0.9659353 2.3114111
vn 0.6751171 0.4799253 0.5602577
vt 0.4508449 0.3126988
v 0.0914444 1.0281098 2.2869339
vn 0.7655934 0.2361951 0.5983967
vt 0.4516387 0.3199745
v 0.0732864 0.9713298 2.3349819
vn 0.3278320 0.5212117 0.7879496
vt 0.4466710 0.3135804
v 0.1651767 0.9501639 2.2354090
vn 0.8235129 0.5672067 -0.0101512
vt 0.4578976 0.3091808
v 0.1127317 1.0370402 2.2214215
vn 0.9759165 0.2155331 -0.0336527
vt 0.4587504 0.3208880
v 0.1505774 0.9351432 2.1611135
vn 0.6776907 0.5481946 -0.4901205
vt 0.4651743 0.3079013
v 0.0914444 1.0035865 2.1559033
vn 0.7069958 0.2563318 -0.6591290
vt 0.4655262 0.3170739
v 0.0664072 0.9226794 2.0977073
vn 0.2456011 0.4486625 -0.8592916
vt 0.4751054 0.3110799
v 0.0357136 0.9631579 2.1154172
vn 0.1597098 0.2879620 -0.9442302
vt 0.4742870 0.3163630
v 0.0664072 0.9226794 2.0977073
vn 0.2456011 0.4486625 -0.8592916
vt 0.3951082 0.3135022
v -0.0638671 0.9226794 2.0977073
vn -0.2456011 0.4486625 -0.8592916
vt 0.4072821 0.3082648
v 0.0357136 0.9631579 2.1154172
vn 0.1597098 0.2879620 -0.9442302
vt 0.3999705 0.3162519
v -0.0331734 0.9631579 2.1154172
vn -0.1597098 0.2879620 -0.9442302
vt 0.4066985 0.3135464
v -0.1480372 0.9351432 2.1611135
vn -0.6776912 0.5481951 -0.4901191
vt 0.4167358 0.3075163
v -0.0889042 1.0035865 2.1559033
vn -0.7069961 0.2563316 -0.6591287
vt 0.4147233 0.3170121
v -0.1626362 0.9501639 2.2354090
vn -0.8235163 0.5672008 -0.0102074
vt 0.4232816 0.3093991
v -0.1101915 1.0370402 2.2214215
vn -0.9759147 0.2155401 -0.0336614
vt 0.4212250 0.3209497
v -0.1093513 0.9659510 2.3114059
vn -0.6994231 0.4764987 0.5326878
vt 0.4297263 0.3130627
v -0.0889042 1.0281098 2.2869339
vn -0.7667283 0.2413197 0.5948887
vt 0.4288808 0.3200366
v -0.0889042 1.0496064 2.2869339
vn 0.0000000 1.0000000 0.0000000
vt 0.5095660 0.2732227
v -0.0331734 1.0496064 2.3274252
vn 0.0000000 1.0000000 0.0000000
vt 0.5095660 0.2808669
v -0.1101915 1.0496064 2.2214215
vn 0.0000000 1.0000000 0.0000000
vt 0.5050730 0.2670387
v 0.0357136 1.0496064 2.3274252
vn 0.0000000 1.0000000 0.0000000
vt 0.5050730 0.2870513
v 0.0914444 1.0496064 2.2869339
vn 0.0000000 1.0000000 0.0000000
vt 0.4978029 0.2894133
v -0.0889042 1.0496064 2.1559033
vn 0.0000000 1.0000000 0.0000000
vt 0.4978029 0.2646766
v 0.1127317 1.0496064 2.2214215
vn 0.0000000 1.0000000 0.0000000
vt 0.4905329 0.2870513
v 0.0914444 1.0496064 2.1559033
vn 0.0000000 1.0000000 0.0000000
vt 0.4860400 0.2808669
v 0.0357136 1.0496064 2.1154172
vn 0.0000000 1.0000000 0.0000000
vt 0.4860400 0.2732227
v -0.0331734 1.0496064 2.1154172
vn 0.0000000 1.0000000 0.0000000
vt 0.4905329 0.2670387
v -0.0331734 1.0496064 2.3274252
vn -0.3090201 0.0000000 0.9510556
vt 0.4365835 0.3224066
v -0.0889042 1.0496064 2.2869339
vn -0.8090149 0.0000000 0.5877882
vt 0.4289373 0.3224066
v -0.1101915 1.0496064 2.2214215
vn -1.0000000 0.0000000 0.0000128
vt 0.4216643 0.3224066
v -0.0889042 1.0496064 2.1559033
vn -0.8090043 0.0000000 -0.5878027
vt 0.4156430 0.3224066
v -0.0331734 1.0496064 2.1154172
vn -0.3089908 0.0000000 -0.9510651
vt 0.4103020 0.3224066
v 0.0357136 1.0496064 2.1154172
vn 0.3089908 0.0000000 -0.9510651
vt 0.4052606 0.3224066
v 0.0357136 1.0496064 2.1154172
vn 0.3089908 0.0000000 -0.9510651
vt 0.4687229 0.3224066
v 0.0914444 1.0496064 2.1559033
vn 0.8090043 0.0000000 -0.5878028
vt 0.4641607 0.3224066
v 0.1127317 1.0496064 2.2214215
vn 1.0000000 0.0000000 0.0000128
vt 0.4588256 0.3224066
v 0.0914444 1.0496064 2.2869339
vn 0.8090149 0.0000000 0.5877883
vt 0.4518811 0.3224066
v 0.0357136 1.0496064 2.3274252
vn 0.3090201 0.0000000 0.9510556
vt 0.4443123 0.3224066
v -0.5962397 0.8828914 2.0189326
vn -0.8675784 0.2574288 -0.4254859
vt 0.9836875 0.1616829
v -0.5999385 0.8237434 2.0214267
vn -0.8777958 0.0347459 -0.4777732
vt 0.9850253 0.1679142
v -0.6159487 0.8076044 2.1211684
vn -0.9878938 0.0720628 -0.1373786
vt 0.9744690 0.1721068
v -0.6177941 0.8494008 2.1587121
vn -0.9591033 0.2705946 -0.0830631
vt 0.9694735 0.1685192
v -0.5739149 0.8266861 2.0026312
vn -0.3391783 -0.0446197 -0.9396634
vt 0.9944769 0.1574983
v -0.5715025 0.9010909 1.9967719
vn -0.3676969 0.4048755 -0.8371827
vt 0.9863285 0.1572911
v 0.5353911 0.9010909 1.9967719
vn 0.3677059 0.4048804 -0.8371763
vt 0.9860451 0.0342929
v 0.5378022 0.8266861 2.0026312
vn 0.3391736 -0.0446275 -0.9396647
vt 0.9941757 0.0340265
v -0.6379677 0.7781670 2.4194386
vn -0.8655186 0.4985488 0.0482345
vt 0.9421452 0.1810568
v -0.6247256 0.8172594 2.2856865
vn -0.8721877 0.4859907 0.0556921
vt 0.9561362 0.1745698
v -0.6740886 0.7269310 2.3008592
vn -0.8632423 0.5027131 0.0457418
vt 0.9558660 0.1859993
v -0.6821528 0.7112173 2.3461418
vn -0.8496500 0.5264139 0.0313608
vt 0.9512488 0.1885948
v -0.5715025 0.9010909 1.9967719
vn -0.3676969 0.4048755 -0.8371827
vt 0.9860972 0.1584007
v -0.5715025 0.9140666 2.0145593
vn -0.4057319 0.8414202 -0.3569227
vt 0.9839222 0.1572993
v -0.5739149 0.8266861 2.0026312
vn -0.3391783 -0.0446197 -0.9396634
vt 0.9883122 0.1665496
v -0.6247256 0.8172594 2.2856865
vn -0.0590155 -0.3861102 -0.9205629
vt 0.8946081 0.1624665
v -0.5989437 0.8151594 2.2849357
vn -0.0611565 -0.4285355 -0.9014529
vt 0.8957607 0.1596990
v -0.6568171 0.7242928 2.3002555
vn -0.1107621 -0.5430369 -0.8323718
vt 0.9006308 0.1707737
v -0.6740886 0.7269310 2.3008592
vn -0.1165474 -0.7088764 -0.6956372
vt 0.8998784 0.1726086
v -0.5989437 0.8151594 2.2849357
vn 0.8252473 -0.5630811 -0.0436655
vt 0.8957607 0.1596990
v -0.6132082 0.7781670 2.4194753
vn 0.8162661 -0.5732862 -0.0710833
vt 0.9112993 0.1611937
v -0.6669130 0.7108052 2.3460419
vn 0.8290012 -0.5583628 -0.0314323
vt 0.9052589 0.1719309
v -0.6568171 0.7242928 2.3002555
vn 0.8453204 -0.5334584 0.0292500
vt 0.9006308 0.1707737
v -0.6210387 0.8571526 2.2495971
vn -0.0758071 -0.6650761 -0.7429180
vt 0.8895313 0.1619634
v -0.6379677 0.7781670 2.4194386
vn -0.0015896 -0.8112098 0.5847531
vt 0.9126157 0.1635062
v -0.6821528 0.7112173 2.3461418
vn -0.0257479 -0.9884180 0.1495561
vt 0.9056371 0.1735265
v -0.6669130 0.7108052 2.3460419
vn -0.0376243 -0.9687967 0.2449844
vt 0.9052589 0.1719309
v -0.6132082 0.7781670 2.4194753
vn -0.0006591 -0.8958023 0.4444522
vt 0.9112993 0.1611937
v -0.6210387 0.8571526 2.2495971
vn -0.9816983 0.1826049 -0.0540740
vt 0.9594804 0.1696195
v -0.6144485 0.9387685 2.3934715
vn -0.8533059 0.4811234 0.2009711
vt 0.9427892 0.1634917
v -0.5660883 0.9859277 2.4030898
vn -0.3820468 0.8919322 0.2418621
vt 0.9405343 0.1564011
v 0.5299756 0.9859277 2.4030898
vn 0.3820454 0.8919331 0.2418607
vt 0.9405634 0.0354981
v 0.5353897 0.9140666 2.0145593
vn 0.4057169 0.8414301 -0.3569162
vt 0.9836382 0.0343007
v -0.6210387 0.8571526 2.2495971
vn 0.0000000 -0.9469779 -0.3212989
vt 0.8895313 0.1619634
v 0.5849273 0.8571526 2.2495971
vn 0.0000000 -0.9469785 -0.3212970
vt 0.8896000 0.0295748
v 0.5628308 0.8151594 2.2849357
vn 0.0000000 -0.6438792 -0.7651272
vt 0.8958304 0.0318472
v -0.5989437 0.8151594 2.2849357
vn 0.0000000 -0.6438793 -0.7651271
vt 0.8957607 0.1596990
v -0.6132082 0.7781670 2.4194753
vn 0.0000000 -0.9998107 -0.0194566
vt 0.9112993 0.1611937
v 0.5770954 0.7781670 2.4194753
vn 0.0000000 -0.9998108 -0.0194535
vt 0.9113732 0.0303713
v 0.5543191 0.7922847 2.4631827
vn 0.0000000 -0.9515909 0.3073677
vt 0.9163312 0.0329674
v -0.5904305 0.7922847 2.4631827
vn 0.0000000 -0.9515908 0.3073677
vt 0.9162582 0.1586079
v -0.6056217 0.8963632 2.4376199
vn -0.6790171 0.2690125 0.6830579
vt 0.9284085 0.1608942
v -0.5904305 0.7922847 2.4631827
vn -0.4588469 0.0263890 0.8881234
vt 0.9162582 0.1586079
v -0.5086939 0.8783264 2.4840889
vn -0.1220375 0.1415002 0.9823872
vt 0.9257141 0.1496836
v -0.5511898 0.9629112 2.4379768
vn -0.2739665 0.6063716 0.7464957
vt 0.9359965 0.1546795
v -0.5904305 0.7922847 2.4631827
vn -0.0004561 -0.9515212 0.3075829
vt 0.9162582 0.1586079
v -0.6056217 0.8963632 2.4376199
vn -0.6790171 0.2690125 0.6830579
vt 0.9379040 0.1680255
v -0.5511898 0.9629112 2.4379768
vn -0.2739665 0.6063716 0.7464957
vt 0.9361752 0.1586138
v -0.5904305 0.7922847 2.4631827
vn -0.4588469 0.0263890 0.8881234
vt 0.9350933 0.1795814
v -0.6379677 0.7781670 2.4194386
vn -0.9255392 0.1285655 0.3561576
vt 0.9421452 0.1810568
v -0.6247256 0.8172594 2.2856865
vn -0.9936524 0.1089372 -0.0280645
vt 0.9561362 0.1745698
v -0.5989437 0.8151594 2.2849357
vn 0.0000000 -0.9642164 -0.2651164
vt 0.8957607 0.1596990
v 0.5628308 0.8151594 2.2849357
vn 0.0000000 -0.9642164 -0.2651164
vt 0.8958304 0.0318472
v 0.5601284 0.8828914 2.0189326
vn 0.8675779 0.2574303 -0.4254860
vt 0.9835455 0.0298929
v 0.5816814 0.8494008 2.1587121
vn 0.9591167 0.2705459 -0.0830675
vt 0.9689494 0.0232311
v 0.5798360 0.8076044 2.1211684
vn 0.9878953 0.0720531 -0.1373733
vt 0.9738880 0.0195755
v 0.5638257 0.8237434 2.0214267
vn 0.8777937 0.0347252 -0.4777787
vt 0.9844550 0.0234804
v 0.6379773 0.7269310 2.3008592
vn 0.8632448 0.5027075 0.0457550
vt 0.9557187 0.0057719
v 0.5886142 0.8172594 2.2856865
vn 0.8721864 0.4859921 0.0557012
vt 0.9557003 0.0172040
v 0.6018551 0.7781670 2.4194386
vn 0.8655202 0.4985450 0.0482467
vt 0.9419311 0.0104420
v 0.6460402 0.7112173 2.3461418
vn 0.8496586 0.5263988 0.0313797
vt 0.9511558 0.0030827
v 0.5353911 0.9010909 1.9967719
vn 0.3677059 0.4048804 -0.8371763
vt 0.9858229 0.0333213
v 0.5601284 0.8828914 2.0189326
vn 0.8675779 0.2574303 -0.4254860
vt 0.9881874 0.0307660
v 0.5638257 0.8237434 2.0214267
vn 0.8777937 0.0347252 -0.4777787
vt 0.9946380 0.0305451
v 0.6207043 0.7242928 2.3002555
vn 0.1107531 -0.5430382 -0.8323721
vt 0.9007170 0.0207857
v 0.5628308 0.8151594 2.2849357
vn 0.0611532 -0.4285345 -0.9014536
vt 0.8958304 0.0318472
v 0.5886142 0.8172594 2.2856865
vn 0.0590124 -0.3861106 -0.9205630
vt 0.8946799 0.0290790
v 0.6379773 0.7269310 2.3008592
vn 0.1165380 -0.7088780 -0.6956371
vt 0.8999661 0.0189499
v 0.5628308 0.8151594 2.2849357
vn -0.8252473 -0.5630811 -0.0436655
vt 0.8958304 0.0318472
v 0.6207043 0.7242928 2.3002555
vn -0.8453204 -0.5334584 0.0292500
vt 0.9007170 0.0207857
v 0.6308002 0.7108052 2.3460419
vn -0.8290012 -0.5583628 -0.0314323
vt 0.9053448 0.0196266
v 0.5770954 0.7781670 2.4194753
vn -0.8162661 -0.5732862 -0.0710833
vt 0.9113732 0.0303713
v 0.5849273 0.8571526 2.2495971
vn 0.0758031 -0.6650765 -0.7429180
vt 0.8896000 0.0295748
v 0.6308002 0.7108052 2.3460419
vn 0.0376240 -0.9687966 0.2449851
vt 0.9053448 0.0196266
v 0.6460402 0.7112173 2.3461418
vn 0.0257478 -0.9884188 0.1495507
vt 0.9057232 0.0180309
v 0.6018551 0.7781670 2.4194386
vn 0.0015896 -0.8112108 0.5847518
vt 0.9126885 0.0280581
v 0.5770954 0.7781670 2.4194753
vn 0.0006591 -0.8958018 0.4444532
vt 0.9113732 0.0303713
v 0.5783358 0.9387685 2.3934715
vn 0.8533050 0.4811268 0.2009664
vt 0.9417549 0.0283323
v 0.5849273 0.8571526 2.2495971
vn 0.9816973 0.1826108 -0.0540713
vt 0.9588858 0.0222152
v 0.4725812 0.8783264 2.4840889
vn 0.1220354 0.1415002 0.9823875
vt 0.9257659 0.0419169
v 0.5543191 0.7922847 2.4631827
vn 0.4588521 0.0263887 0.8881207
vt 0.9163312 0.0329674
v 0.5695104 0.8963632 2.4376199
vn 0.6790252 0.2690145 0.6830491
vt 0.9283545 0.0307300
v 0.5150770 0.9629112 2.4379768
vn 0.2739624 0.6063734 0.7464958
vt 0.9360390 0.0369377
v 0.5543191 0.7922847 2.4631827
vn 0.0004561 -0.9515212 0.3075829
vt 0.9163312 0.0329674
v 0.5695104 0.8963632 2.4376199
vn 0.6790252 0.2690145 0.6830491
vt 0.9349934 0.0270361
v 0.5695104 0.8963632 2.4376199
vn 0.6790252 0.2690145 0.6830491
vt 0.9374397 0.0231277
v 0.6018551 0.7781670 2.4194386
vn 0.9255409 0.1285636 0.3561536
vt 0.9419311 0.0104420
v 0.5886142 0.8172594 2.2856865
vn 0.9936522 0.1089409 -0.0280567
vt 0.9557003 0.0172040
v 0.6018551 0.7781670 2.4194386
vn 0.9255409 0.1285636 0.3561536
vt 0.9155161 0.0258665
v 0.5816814 0.8494008 2.1587121
vn 0.0000000 -0.8989609 0.4380288
vt 0.8789977 0.0299653
v -0.6177941 0.8494008 2.1587121
vn 0.0000000 -0.8989602 0.4380303
vt 0.8789281 0.1615599
v -0.6159487 0.8076044 2.1211684
vn -0.0005320 -0.9872597 -0.1591164
vt 0.8728050 0.1613578
v -0.5999385 0.8237434 2.0214267
vn -0.0042265 -0.9870447 -0.1603898
vt 0.8617877 0.1596614
v -0.5739149 0.8266861 2.0026312
vn -0.0010149 -0.9872327 -0.1592812
vt 0.8597285 0.1568171
v 0.5378022 0.8266861 2.0026312
vn 0.0003757 -0.9878571 -0.1553652
vt 0.8597745 0.0347056
v 0.5638257 0.8237434 2.0214267
vn 0.0001190 -0.9873818 -0.1583578
vt 0.8618498 0.0318627
v 0.5798360 0.8076044 2.1211684
vn 0.0000000 -0.9871607 -0.1597302
vt 0.8728746 0.0301613
v 0.5798360 0.8076044 2.1211684
vn 0.0000000 -0.6682473 0.7439393
vt 0.8728746 0.0301613
v -0.6159487 0.8076044 2.1211684
vn 0.0000000 -0.6682473 0.7439392
vt 0.8728050 0.1613578
v -0.0736046 2.2565556 2.2197387
vn -0.9998575 0.0168815 0.0000059
vt 0.4709294 0.8536112
v -0.0942442 1.0341084 2.2197387
vn -0.9998575 0.0168817 0.0000013
vt 0.4708689 0.7312151
v -0.0600252 2.2568364 2.2615399
vn -0.8077834 0.0172446 0.5892271
vt 0.4759555 0.8536105
v -0.0762855 1.0344809 2.2750225
vn -0.8103472 0.0172399 0.5856964
vt 0.4759291 0.7312151
v -0.0292684 1.0354559 2.3091898
vn -0.3126950 0.0181788 0.9496796
vt 0.4809363 0.7312151
v -0.0244745 2.2575734 2.2873743
vn -0.3059831 0.0181916 0.9518632
vt 0.4809816 0.8536097
v 0.0288477 1.0366613 2.3091898
vn 0.3053109 0.0193426 0.9520563
vt 0.4859435 0.7312151
v 0.0194682 2.2584856 2.2873743
vn 0.3120283 0.0193553 0.9498757
vt 0.4860078 0.8536094
v 0.0758649 1.0376363 2.2750225
vn 0.8074830 0.0202862 0.5895420
vt 0.4909958 0.7312151
v 0.0550187 2.2592244 2.2615397
vn 0.8100470 0.0202912 0.5860137
vt 0.4910343 0.8536092
v 0.0685982 2.2595065 2.2197382
vn 0.9997868 0.0206471 0.0000000
vt 0.4960611 0.8536015
v 0.0938237 1.0380087 2.2197387
vn 0.9997869 0.0206470 -0.0000013
vt 0.4960614 0.7312151
v 0.0550188 2.2592244 2.1779373
vn 0.8100445 0.0202906 -0.5860173
vt 0.5010863 0.8535936
v 0.0758648 1.0376363 2.1644549
vn 0.8074822 0.0202860 -0.5895430
vt 0.5010751 0.7312151
v 0.0194679 2.2584875 2.1521025
vn 0.3120293 0.0193547 -0.9498753
vt 0.5053648 0.8535936
v 0.0288476 1.0366613 2.1302876
vn 0.3053107 0.0193420 -0.9520563
vt 0.5053649 0.7312151
v 0.0194679 2.2584875 2.1521025
vn 0.3120293 0.0193547 -0.9498753
vt 0.4565985 0.8536133
v 0.0288476 1.0366613 2.1302876
vn 0.3053107 0.0193420 -0.9520563
vt 0.4565754 0.7312151
v -0.0244750 2.2575746 2.1521022
vn -0.3059835 0.0181908 -0.9518631
vt 0.4608779 0.8536125
v -0.0292682 1.0354559 2.1302876
vn -0.3126938 0.0181782 -0.9496800
vt 0.4608417 0.7312151
v -0.0600256 2.2568364 2.1779373
vn -0.8077896 0.0172441 -0.5892187
vt 0.4659037 0.8536119
v -0.0762857 1.0344809 2.1644549
vn -0.8103471 0.0172395 -0.5856965
vt 0.4658550 0.7312151
v -0.0562961 2.2569144 2.2197385
vn -0.0207279 0.9997852 -0.0000027
vt 0.5016533 0.8689861
v -0.0736046 2.2565556 2.2197387
vn -0.0207282 0.9997852 -0.0000013
vt 0.5039675 0.8689864
v -0.0460226 2.2571275 2.2513642
vn -0.0207376 0.9997849 0.0000162
vt 0.5002799 0.8732135
v -0.0600252 2.2568364 2.2615399
vn -0.0207380 0.9997849 0.0000142
vt 0.5021519 0.8745738
v -0.0191261 2.2576845 2.2709095
vn -0.0207432 0.9997848 -0.0000039
vt 0.4966838 0.8758262
v -0.0244745 2.2575734 2.2873743
vn -0.0207426 0.9997849 -0.0000057
vt 0.4973989 0.8780272
v 0.0141197 2.2583745 2.2709095
vn -0.0207715 0.9997843 0.0000008
vt 0.4922390 0.8758262
v 0.0194682 2.2584856 2.2873743
vn -0.0207673 0.9997844 0.0000035
vt 0.4915240 0.8780272
v 0.0410159 2.2589345 2.2513640
vn -0.0207614 0.9997845 0.0000092
vt 0.4886431 0.8732135
v 0.0550187 2.2592244 2.2615397
vn -0.0207572 0.9997846 0.0000107
vt 0.4867710 0.8745738
v 0.0512897 2.2591474 2.2197382
vn -0.0207411 0.9997849 -0.0000018
vt 0.4872695 0.8689861
v 0.0685982 2.2595065 2.2197382
vn -0.0207413 0.9997849 -0.0000009
vt 0.4849554 0.8689861
v 0.0410160 2.2589345 2.1881127
vn -0.0207449 0.9997848 0.0000064
vt 0.4886431 0.8647588
v 0.0550188 2.2592244 2.1779373
vn -0.0207456 0.9997848 0.0000069
vt 0.4867710 0.8633988
v 0.0141194 2.2583766 2.1685672
vn -0.0207648 0.9997844 0.0000012
vt 0.4922390 0.8621463
v 0.0194679 2.2584875 2.1521025
vn -0.0207632 0.9997844 0.0000048
vt 0.4915240 0.8599457
v -0.0191263 2.2576854 2.1685669
vn -0.0207601 0.9997845 0.0000093
vt 0.4966839 0.8621463
v -0.0244750 2.2575746 2.1521022
vn -0.0207605 0.9997845 0.0000108
vt 0.4973989 0.8599457
v -0.0460226 2.2571275 2.1881130
vn -0.0207448 0.9997848 -0.0000061
vt 0.5002799 0.8647588
v -0.0600256 2.2568364 2.1779373
vn -0.0207435 0.9997848 -0.0000068
vt 0.5021521 0.8633989
v 0.0051698 1.8226724 2.2197382
vn -0.0176689 0.9998439 -0.0000011
vt 0.4568998 0.8803566
v -0.0562961 2.2569144 2.2197385
vn 0.9901302 0.1401503 0.0000010
vt 0.4568998 0.8571822
v -0.0460226 2.2571275 2.2513642
vn 0.8002887 0.1367968 -0.5838019
vt 0.4586549 0.8572488
v -0.0191261 2.2576845 2.2709095
vn 0.3035983 0.1280196 -0.9441605
vt 0.4603997 0.8574481
v 0.0141197 2.2583745 2.2709095
vn -0.3096831 0.1171818 -0.9435915
vt 0.4621246 0.8577788
v 0.0410159 2.2589345 2.2513640
vn -0.8052878 0.1084224 -0.5828860
vt 0.4638196 0.8582393
v 0.0512897 2.2591474 2.2197382
vn -0.9944639 0.1050795 -0.0000011
vt 0.4654747 0.8588269
v 0.0410160 2.2589345 2.1881127
vn -0.8052815 0.1084225 0.5828947
vt 0.4670806 0.8595382
v 0.0141194 2.2583766 2.1685672
vn -0.3096806 0.1171807 0.9435924
vt 0.4686281 0.8603689
v -0.0191263 2.2576854 2.1685669
vn 0.3035965 0.1280195 0.9441611
vt 0.4701080 0.8613147
v -0.0460226 2.2571275 2.1881130
vn 0.8002928 0.1367959 0.5837966
vt 0.4715123 0.8623697
v -0.0562961 2.2569144 2.2197385
vn 0.9901302 0.1401503 0.0000010
vt 0.4728325 0.8635279
v 0.0051698 1.8226724 2.2197382
vn -0.0176689 0.9998439 -0.0000011
vt 0.4568998 0.8803566
v 0.0051698 1.8226724 2.2197382
vn -0.0176689 0.9998439 -0.0000011
vt 0.4568998 0.8803566
v 0.0051698 1.8226724 2.2197382
vn -0.0176689 0.9998439 -0.0000011
vt 0.4568998 0.8803566
v 0.0051698 1.8226724 2.2197382
vn -0.0176689 0.9998439 -0.0000011
vt 0.4568998 0.8803566
v 0.0051698 1.8226724 2.2197382
vn -0.0176689 0.9998439 -0.0000011
vt 0.4568998 0.8803566

g group_64213648_140627915202240
f 1/1/1 2/2/2 3/3/3 
f 2/2/2 4/4/4 3/3/3 
f 5/5/5 6/6/6 7/7/7 
f 7/7/7 6/6/6 4/4/4 
f 8/8/8 9/9/9 5/5/5 
f 5/5/5 9/9/9 6/6/6 
f 10/10/10 11/11/11 8/8/8 
f 8/8/8 11/11/11 9/9/9 
f 10/10/10 12/12/12 11/11/11 
f 11/11/11 12/12/12 13/13/13 
f 14/14/14 15/15/15 16/16/16 
f 16/16/16 15/15/15 17/17/17 
f 18/18/18 19/19/19 15/15/15 
f 15/15/15 19/19/19 17/17/17 
f 18/18/18 20/20/20 19/19/19 
f 19/19/19 20/20/20 21/21/21 
f 20/20/20 22/22/22 21/21/21 
f 21/21/21 22/22/22 23/23/23 
f 24/24/24 25/25/25 26/26/26 
f 25/25/25 27/27/27 26/26/26 
f 27/27/27 28/28/28 26/26/26 
f 26/26/26 28/28/28 29/29/29 
f 28/28/28 30/30/30 29/29/29 
f 30/30/30 31/31/31 29/29/29 
f 31/31/31 32/32/32 29/29/29 
f 32/32/32 33/33/33 29/29/29 
f 3/3/3 34/34/34 23/23/23 
f 23/23/23 34/34/34 35/35/35 
f 23/23/23 35/35/35 21/21/21 
f 21/21/21 35/35/35 36/36/36 
f 19/19/19 21/21/21 37/37/37 
f 37/37/37 21/21/21 36/36/36 
f 17/17/17 19/19/19 38/38/38 
f 38/38/38 19/19/19 37/37/37 
f 16/16/16 17/17/17 39/39/39 
f 39/39/39 17/17/17 38/38/38 
f 13/13/13 40/40/40 11/11/11 
f 11/11/11 40/40/40 41/41/41 
f 11/11/11 41/41/41 9/9/9 
f 9/9/9 41/41/41 42/42/42 
f 6/6/6 9/9/9 43/43/43 
f 43/43/43 9/9/9 42/42/42 
f 4/4/4 6/6/6 44/44/44 
f 44/44/44 6/6/6 43/43/43 
f 3/3/3 4/4/4 34/34/34 
f 34/34/34 4/4/4 44/44/44 
f 2/2/2 7/7/7 4/4/4 
f 22/22/22 1/1/1 23/23/23 
f 23/23/23 1/1/1 3/3/3 
f 45/45/45 46/46/46 47/47/47 
f 47/47/47 48/48/48 45/45/45 
f 49/49/49 50/50/50 51/51/51 
f 51/51/51 52/52/52 49/49/49 
f 53/53/53 54/54/54 55/55/55 
f 55/55/55 56/56/56 53/53/53 
f 57/57/57 45/45/45 58/58/58 
f 59/59/59 46/46/46 45/45/45 
f 45/45/45 57/57/57 59/59/59 
f 60/60/60 61/61/61 62/62/62 
f 62/62/62 63/63/63 60/60/60 
f 64/64/64 65/65/65 66/66/66 
f 66/66/66 67/67/67 64/64/64 
f 61/61/61 60/60/60 68/68/68 
f 69/69/69 70/70/70 71/71/71 
f 71/71/71 72/72/72 69/69/69 
f 63/63/63 62/62/62 71/71/71 
f 71/71/71 70/70/70 63/63/63 
f 73/73/73 74/74/74 45/45/45 
f 45/45/45 48/48/48 73/73/73 
f 75/75/75 76/76/76 77/77/77 
f 77/77/77 58/58/58 75/75/75 
f 78/78/78 79/79/79 80/80/80 
f 80/80/80 81/81/81 78/78/78 
f 82/82/82 83/83/83 84/84/84 
f 84/84/84 85/85/85 82/82/82 
f 86/86/86 87/87/87 88/88/88 
f 88/88/88 89/89/89 86/86/86 
f 58/58/58 77/77/77 51/51/51 
f 51/51/51 50/50/50 58/58/58 
f 69/69/69 72/72/72 90/90/90 
f 75/75/75 74/74/74 91/91/91 
f 91/91/91 92/92/92 75/75/75 
f 93/93/93 91/91/91 94/94/94 
f 74/74/74 75/75/75 58/58/58 
f 58/58/58 45/45/45 74/74/74 
f 94/94/94 91/91/91 74/74/74 
f 95/95/95 94/94/94 74/74/74 
f 73/73/73 95/95/95 74/74/74 
f 96/96/96 97/97/97 83/83/83 
f 83/83/83 82/82/82 96/96/96 
f 98/98/98 99/99/99 100/100/100 
f 100/100/100 101/101/101 98/98/98 
f 102/102/102 103/103/103 104/104/104 
f 104/104/104 105/105/105 102/102/102 
f 106/106/106 77/77/77 98/98/98 
f 107/107/107 108/108/108 52/52/52 
f 52/52/52 51/51/51 107/107/107 
f 109/109/109 110/110/110 111/111/111 
f 111/111/111 112/112/112 109/109/109 
f 113/113/113 114/114/114 115/115/115 
f 115/115/115 116/116/116 113/113/113 
f 110/110/110 117/117/117 111/111/111 
f 118/118/118 119/119/119 120/120/120 
f 120/120/120 121/121/121 118/118/118 
f 112/112/112 119/119/119 118/118/118 
f 118/118/118 109/109/109 112/112/112 
f 98/98/98 122/122/122 123/123/123 
f 123/123/123 99/99/99 98/98/98 
f 124/124/124 125/125/125 126/126/126 
f 126/126/126 127/127/127 124/124/124 
f 120/120/120 128/128/128 121/121/121 
f 129/129/129 122/122/122 76/76/76 
f 76/76/76 127/127/127 129/129/129 
f 122/122/122 130/130/130 131/131/131 
f 122/122/122 131/131/131 132/132/132 
f 122/122/122 132/132/132 123/123/123 
f 125/125/125 133/133/133 126/126/126 
f 122/122/122 98/98/98 77/77/77 
f 77/77/77 76/76/76 122/122/122 
f 127/127/127 76/76/76 75/75/75 
f 75/75/75 89/89/89 127/127/127 
f 125/125/125 124/124/124 88/88/88 
f 88/88/88 87/87/87 125/125/125 
f 134/134/134 79/79/79 78/78/78 
f 78/78/78 135/135/135 134/134/134 
f 136/136/136 137/137/137 138/138/138 
f 136/136/136 138/138/138 139/139/139 
f 136/136/136 139/139/139 140/140/140 
f 141/141/141 136/136/136 140/140/140 
f 142/142/142 134/134/134 135/135/135 
f 135/135/135 143/143/143 142/142/142 
f 124/124/124 127/127/127 89/89/89 
f 89/89/89 88/88/88 124/124/124 
f 144/144/144 145/145/145 146/146/146 
f 146/146/146 145/145/145 147/147/147 
f 147/147/147 148/148/148 146/146/146 
f 146/146/146 148/148/148 149/149/149 
f 148/148/148 150/150/150 149/149/149 
f 149/149/149 150/150/150 151/151/151 
f 150/150/150 152/152/152 151/151/151 
f 151/151/151 152/152/152 153/153/153 
f 153/153/153 152/152/152 154/154/154 
f 154/154/154 152/152/152 155/155/155 
f 154/154/154 155/155/155 156/156/156 
f 156/156/156 155/155/155 157/157/157 
f 156/156/156 157/157/157 158/158/158 
f 158/158/158 157/157/157 159/159/159 
f 160/160/160 161/161/161 162/162/162 
f 162/162/162 161/161/161 163/163/163 
f 162/162/162 163/163/163 164/164/164 
f 164/164/164 163/163/163 165/165/165 
f 164/164/164 165/165/165 144/144/144 
f 144/144/144 165/165/165 145/145/145 
f 166/166/166 167/167/167 168/168/168 
f 168/168/168 167/167/167 169/169/169 
f 168/168/168 169/169/169 170/170/170 
f 170/170/170 169/169/169 171/171/171 
f 170/170/170 171/171/171 172/172/172 
f 172/172/172 171/171/171 173/173/173 
f 172/172/172 173/173/173 174/174/174 
f 174/174/174 173/173/173 175/175/175 
f 174/174/174 175/175/175 176/176/176 
f 176/176/176 175/175/175 177/177/177 
f 176/176/176 177/177/177 178/178/178 
f 178/178/178 177/177/177 179/179/179 
f 178/178/178 179/179/179 180/180/180 
f 180/180/180 179/179/179 181/181/181 
f 180/180/180 181/181/181 182/182/182 
f 182/182/182 181/181/181 183/183/183 
f 182/182/182 183/183/183 184/184/184 
f 184/184/184 183/183/183 185/185/185 
f 184/184/184 185/185/185 166/166/166 
f 166/166/166 185/185/185 167/167/167 
f 186/186/186 187/187/187 188/188/188 
f 186/186/186 189/189/189 190/190/190 
f 198/198/198 191/191/191 192/192/192 
f 199/199/199 193/193/193 194/194/194 
f 200/200/200 195/195/195 196/196/196 
f 201/201/201 194/194/194 195/195/195 
f 200/200/200 196/196/196 197/197/197 
f 186/186/186 188/188/188 189/189/189 
f 198/198/198 190/190/190 191/191/191 
f 202/202/202 192/192/192 193/193/193 
