v -0.9991707 -1.0806360 0.5178998
vn -1.0000000 0.0000000 0.0000000
vt 0.9105918 0.9636724
v -0.9991707 -1.0913140 0.5418371
vn -1.0000000 0.0000000 0.0000000
vt 0.9118318 0.9664520
v -0.9991707 -1.0411860 0.5428772
vn -1.0000000 0.0000000 0.0000000
vt 0.9060108 0.9665729
v -0.9991707 -1.0463721 0.5545045
vn -1.0000000 0.0000000 0.0000000
vt 0.9066130 0.9679230
v -0.9991707 -1.1137860 0.5800465
vn -1.0000000 0.0000000 0.0000000
vt 0.9144412 0.9708890
v -0.9991707 -1.1292070 0.6012405
vn -1.0000000 0.0000000 0.0000000
vt 0.9162319 0.9733500
v -0.9991707 -1.0803900 0.6126802
vn -1.0000000 0.0000000 0.0000000
vt 0.9105633 0.9746784
v -0.9991707 -1.0878810 0.6229753
vn -1.0000000 0.0000000 0.0000000
vt 0.9114332 0.9758739
v -0.9991707 -1.0611320 0.4502191
vn -1.0000000 0.0000000 0.0000000
vt 0.9083269 0.9558132
v -0.9991707 -1.0665990 0.4758531
vn -1.0000000 0.0000000 0.0000000
vt 0.9089619 0.9587899
v -0.9991707 -1.0173500 0.4664484
vn -1.0000000 0.0000000 0.0000000
vt 0.9032429 0.9576978
v -0.9991707 -1.0200059 0.4789000
vn -1.0000000 0.0000000 0.0000000
vt 0.9035514 0.9591438
v -0.9991707 -1.0561330 0.3797249
vn -1.0000000 0.0000000 0.0000000
vt 0.9077464 0.9476274
v -0.9991707 -1.0561330 0.4059357
vn -1.0000000 0.0000000 0.0000000
vt 0.9077464 0.9506710
v -0.9991707 -1.0099289 0.3864644
vn -1.0000000 0.0000000 0.0000000
vt 0.9023813 0.9484100
v -0.9991707 -1.0099289 0.3991963
vn -1.0000000 0.0000000 0.0000000
vt 0.9023813 0.9498885
v -0.9991707 -1.1591320 0.6339429
vn -1.0000000 0.0000000 0.0000000
vt 0.9197069 0.9771475
v -0.9991707 -1.1786230 0.6514675
vn -1.0000000 0.0000000 0.0000000
vt 0.9219702 0.9791825
v -0.9991707 -1.1332520 0.6728067
vn -1.0000000 0.0000000 0.0000000
vt 0.9167017 0.9816605
v -0.9991707 -1.1427190 0.6813193
vn -1.0000000 0.0000000 0.0000000
vt 0.9178010 0.9826488
v -0.9991707 -1.2146930 0.6772333
vn -1.0000000 0.0000000 0.0000000
vt 0.9261587 0.9821745
v -0.9991707 -1.2374020 0.6903227
vn -1.0000000 0.0000000 0.0000000
vt 0.9287956 0.9836943
v -0.9991707 -1.1974590 0.7206289
vn -1.0000000 0.0000000 0.0000000
vt 0.9241574 0.9872135
v -0.9991707 -1.2084889 0.7269870
vn -1.0000000 0.0000000 0.0000000
vt 0.9254383 0.9879519
v -0.9991707 -1.2780410 0.7080261
vn -1.0000000 0.0000000 0.0000000
vt 0.9335148 0.9857502
v -0.9991707 -1.3029751 0.7161081
vn -1.0000000 0.0000000 0.0000000
vt 0.9364101 0.9866887
v -0.9991707 -1.2702050 0.7540565
vn -1.0000000 0.0000000 0.0000000
vt 0.9326049 0.9910951
v -0.9991707 -1.2823170 0.7579823
vn -1.0000000 0.0000000 0.0000000
vt 0.9340114 0.9915509
v -0.9991707 -1.3464071 0.7249751
vn -1.0000000 0.0000000 0.0000000
vt 0.9414534 0.9877182
v -0.9991707 -1.3724760 0.7276967
vn -1.0000000 0.0000000 0.0000000
vt 0.9444807 0.9880342
v -0.9991707 -1.3483120 0.7716290
vn -1.0000000 0.0000000 0.0000000
vt 0.9416748 0.9931356
v -0.9991707 -1.3609750 0.7729509
vn -1.0000000 0.0000000 0.0000000
vt 0.9431453 0.9932891
v -0.9991707 -1.4168020 0.7273399
vn -1.0000000 0.0000000 0.0000000
vt 0.9496280 0.9879929
v -0.9991707 -1.4428670 0.7245818
vn -1.0000000 0.0000000 0.0000000
vt 0.9526547 0.9876726
v -0.9991707 -1.4283659 0.7725780
vn -1.0000000 0.0000000 0.0000000
vt 0.9509708 0.9932458
v -0.9991707 -1.4410270 0.7712383
vn -1.0000000 0.0000000 0.0000000
vt 0.9524409 0.9930903
v -0.9991707 -1.4861510 0.7150169
vn -1.0000000 0.0000000 0.0000000
vt 0.9576808 0.9865619
v -0.9991707 -1.5110730 0.7068999
vn -1.0000000 0.0000000 0.0000000
vt 0.9605748 0.9856194
v -0.9991707 -1.5068671 0.7568620
vn -1.0000000 0.0000000 0.0000000
vt 0.9600865 0.9914209
v -0.9991707 -1.5189730 0.7529192
vn -1.0000000 0.0000000 0.0000000
vt 0.9614921 0.9909630
v -0.9991707 -1.5514220 0.6885449
vn -1.0000000 0.0000000 0.0000000
vt 0.9652601 0.9834880
v -0.9991707 -1.5741121 0.6754234
vn -1.0000000 0.0000000 0.0000000
vt 0.9678948 0.9819642
v -0.9991707 -1.5803860 0.7251683
vn -1.0000000 0.0000000 0.0000000
vt 0.9686234 0.9877406
v -0.9991707 -1.5914080 0.7187947
vn -1.0000000 0.0000000 0.0000000
vt 0.9699033 0.9870006
v -0.9991707 -1.6097630 0.6490805
vn -1.0000000 0.0000000 0.0000000
vt 0.9720348 0.9789053
v -0.9991707 -1.6292289 0.6315285
vn -1.0000000 0.0000000 0.0000000
vt 0.9742951 0.9768671
v -0.9991707 -1.6457090 0.6788817
vn -1.0000000 0.0000000 0.0000000
vt 0.9762087 0.9823658
v -0.9991707 -1.6551640 0.6703558
vn -1.0000000 0.0000000 0.0000000
vt 0.9773068 0.9813758
v -0.9991707 -1.6586241 0.5983488
vn -1.0000000 0.0000000 0.0000000
vt 0.9777086 0.9730142
v -0.9991707 -1.6740160 0.5771330
vn -1.0000000 0.0000000 0.0000000
vt 0.9794958 0.9705507
v -0.9991707 -1.6999800 0.6200253
vn -1.0000000 0.0000000 0.0000000
vt 0.9825109 0.9755313
v -0.9991707 -1.7074569 0.6097197
vn -1.0000000 0.0000000 0.0000000
vt 0.9833791 0.9743347
v -0.9991707 -1.6958700 0.5385669
vn -1.0000000 0.0000000 0.0000000
vt 0.9820335 0.9660723
v -0.9991707 -1.7065140 0.5146147
vn -1.0000000 0.0000000 0.0000000
vt 0.9832696 0.9632909
v -0.9991707 -1.7408290 0.5511713
vn -1.0000000 0.0000000 0.0000000
vt 0.9872543 0.9675360
v -0.9991707 -1.7459990 0.5395364
vn -1.0000000 0.0000000 0.0000000
vt 0.9878548 0.9661849
v -0.9991707 -1.7198720 0.4723476
vn -1.0000000 0.0000000 0.0000000
vt 0.9848207 0.9583828
v -0.9991707 -1.7253040 0.4467058
vn -1.0000000 0.0000000 0.0000000
vt 0.9854515 0.9554052
v -0.9991707 -1.7664700 0.4753290
vn -1.0000000 0.0000000 0.0000000
vt 0.9902318 0.9587290
v -0.9991707 -1.7691081 0.4628734
vn -1.0000000 0.0000000 0.0000000
vt 0.9905381 0.9572827
v -0.9991707 -1.7295820 0.4025850
vn -1.0000000 0.0000000 0.0000000
vt 0.9859483 0.9502819
v -0.9991707 -1.7295640 0.3763742
vn -1.0000000 0.0000000 0.0000000
vt 0.9859462 0.9472383
v -0.9991707 -1.7757820 0.3958130
vn -1.0000000 0.0000000 0.0000000
vt 0.9913131 0.9494956
v -0.9991707 -1.7757720 0.3830811
vn -1.0000000 0.0000000 0.0000000
vt 0.9913120 0.9480171
v -0.9991707 -1.7245760 0.3323279
vn -1.0000000 0.0000000 0.0000000
vt 0.9853669 0.9421235
v -0.9991707 -1.7191091 0.3066939
vn -1.0000000 0.0000000 0.0000000
vt 0.9847321 0.9391468
v -0.9991707 -1.7683570 0.3160986
vn -1.0000000 0.0000000 0.0000000
vt 0.9904509 0.9402390
v -0.9991707 -1.7657020 0.3036469
vn -1.0000000 0.0000000 0.0000000
vt 0.9901425 0.9387930
v -0.9991707 -1.7050710 0.2646471
vn -1.0000000 0.0000000 0.0000000
vt 0.9831021 0.9342643
v -0.9991707 -1.6943940 0.2407100
vn -1.0000000 0.0000000 0.0000000
vt 0.9818622 0.9314847
v -0.9991707 -1.7445220 0.2396698
vn -1.0000000 0.0000000 0.0000000
vt 0.9876832 0.9313639
v -0.9991707 -1.7393349 0.2280423
vn -1.0000000 0.0000000 0.0000000
vt 0.9870808 0.9300138
v -0.9991707 -1.6719220 0.2025005
vn -1.0000000 0.0000000 0.0000000
vt 0.9792526 0.9270477
v -0.9991707 -1.6565011 0.1813065
vn -1.0000000 0.0000000 0.0000000
vt 0.9774619 0.9245867
v -0.9991707 -1.7053170 0.1698668
vn -1.0000000 0.0000000 0.0000000
vt 0.9831305 0.9232583
v -0.9991707 -1.6978260 0.1595718
vn -1.0000000 0.0000000 0.0000000
vt 0.9822606 0.9220628
v -0.9991707 -1.6265750 0.1486041
vn -1.0000000 0.0000000 0.0000000
vt 0.9739869 0.9207892
v -0.9991707 -1.6070850 0.1310794
vn -1.0000000 0.0000000 0.0000000
vt 0.9717239 0.9187543
v -0.9991707 -1.6524560 0.1097403
vn -1.0000000 0.0000000 0.0000000
vt 0.9769922 0.9162763
v -0.9991707 -1.6429880 0.1012277
vn -1.0000000 0.0000000 0.0000000
vt 0.9758928 0.9152879
v -0.9991707 -1.5710140 0.1053136
vn -1.0000000 0.0000000 0.0000000
vt 0.9675351 0.9157623
v -0.9991707 -1.5483060 0.0922243
vn -1.0000000 0.0000000 0.0000000
vt 0.9648982 0.9142423
v -0.9991707 -1.5882490 0.0619182
vn -1.0000000 0.0000000 0.0000000
vt 0.9695364 0.9107231
v -0.9991707 -1.5772181 0.0555600
vn -1.0000000 0.0000000 0.0000000
vt 0.9682555 0.9099848
v -0.9991707 -1.5076660 0.0745209
vn -1.0000000 0.0000000 0.0000000
vt 0.9601792 0.9121866
v -0.9991707 -1.4827330 0.0664389
vn -1.0000000 0.0000000 0.0000000
vt 0.9572838 0.9112481
v -0.9991707 -1.5155020 0.0284905
vn -1.0000000 0.0000000 0.0000000
vt 0.9610891 0.9068415
v -0.9991707 -1.5033910 0.0245645
vn -1.0000000 0.0000000 0.0000000
vt 0.9596828 0.9063855
v -0.9991707 -1.4393010 0.0575717
vn -1.0000000 0.0000000 0.0000000
vt 0.9522405 0.9102185
v -0.9991707 -1.4132320 0.0548503
vn -1.0000000 0.0000000 0.0000000
vt 0.9492134 0.9099025
v -0.9991707 -1.4373950 0.0109181
vn -1.0000000 0.0000000 0.0000000
vt 0.9520192 0.9048010
v -0.9991707 -1.4247320 0.0095961
vn -1.0000000 0.0000000 0.0000000
vt 0.9505489 0.9046475
v -0.9991707 -1.3689060 0.0552071
vn -1.0000000 0.0000000 0.0000000
vt 0.9440661 0.9099438
v -0.9991707 -1.3428400 0.0579651
vn -1.0000000 0.0000000 0.0000000
vt 0.9410394 0.9102641
v -0.9991707 -1.3573420 0.0099690
vn -1.0000000 0.0000000 0.0000000
vt 0.9427232 0.9046907
v -0.9991707 -1.3446800 0.0113088
vn -1.0000000 0.0000000 0.0000000
vt 0.9412529 0.9048463
v -0.9991707 -1.2995570 0.0675301
vn -1.0000000 0.0000000 0.0000000
vt 0.9360132 0.9113748
v -0.9991707 -1.2746350 0.0756471
vn -1.0000000 0.0000000 0.0000000
vt 0.9331192 0.9123174
v -0.9991707 -1.2788399 0.0256848
vn -1.0000000 0.0000000 0.0000000
vt 0.9336076 0.9065157
v -0.9991707 -1.2667340 0.0296277
vn -1.0000000 0.0000000 0.0000000
vt 0.9322017 0.9069735
v -0.9991707 -1.2342850 0.0940021
vn -1.0000000 0.0000000 0.0000000
vt 0.9284338 0.9144488
v -0.9991707 -1.2115951 0.1071234
vn -1.0000000 0.0000000 0.0000000
vt 0.9257991 0.9159725
v -0.9991707 -1.2053210 0.0573787
vn -1.0000000 0.0000000 0.0000000
vt 0.9250705 0.9101961
v -0.9991707 -1.1943001 0.0637524
vn -1.0000000 0.0000000 0.0000000
vt 0.9237906 0.9109361
v -0.9991707 -1.1759440 0.1334665
vn -1.0000000 0.0000000 0.0000000
vt 0.9216592 0.9190314
v -0.9991707 -1.1564780 0.1510185
vn -1.0000000 0.0000000 0.0000000
vt 0.9193988 0.9210696
v -0.9991707 -1.1399990 0.1036652
vn -1.0000000 0.0000000 0.0000000
vt 0.9174851 0.9155709
v -0.9991707 -1.1305430 0.1121912
vn -1.0000000 0.0000000 0.0000000
vt 0.9163871 0.9165609
v -0.9991707 -1.1270829 0.1841982
vn -1.0000000 0.0000000 0.0000000
vt 0.9159854 0.9249225
v -0.9991707 -1.1116920 0.2054140
vn -1.0000000 0.0000000 0.0000000
vt 0.9141981 0.9273861
v -0.9991707 -1.0857270 0.1625217
vn -1.0000000 0.0000000 0.0000000
vt 0.9111830 0.9224054
v -0.9991707 -1.0782510 0.1728272
vn -1.0000000 0.0000000 0.0000000
vt 0.9103147 0.9236021
v -0.9991707 -1.0898380 0.2439800
vn -1.0000000 0.0000000 0.0000000
vt 0.9116604 0.9318644
v -0.9991707 -1.0791939 0.2679323
vn -1.0000000 0.0000000 0.0000000
vt 0.9104244 0.9346458
v -0.9991707 -1.0448780 0.2313757
vn -1.0000000 0.0000000 0.0000000
vt 0.9064395 0.9304008
v -0.9991707 -1.0397080 0.2430105
vn -1.0000000 0.0000000 0.0000000
vt 0.9058392 0.9317518
v -0.9991707 -1.0658350 0.3101994
vn -0.9999978 0.0004361 0.0020623
vt 0.9088731 0.9395539
v -0.9991296 -1.0604039 0.3358411
vn -0.9999978 0.0004361 0.0020623
vt 0.9082423 0.9425315
v -0.9991707 -1.0192380 0.3072180
vn -0.9999978 0.0004361 0.0020623
vt 0.9034621 0.9392077
v -0.9991296 -1.0166000 0.3196735
vn -0.9999978 0.0004361 0.0020623
vt 0.9031557 0.9406541
v -0.9431046 -1.5698470 0.0847118
vn 0.0000000 -0.5000000 -0.8660254
vt 0.8154939 0.9548665
v -0.9431046 -1.6994150 0.2142799
vn 0.0000000 -0.8660255 -0.4999999
vt 0.8154939 0.9756640
v -1.0552371 -1.5698470 0.0847118
vn 0.0000000 -0.5000000 -0.8660254
vt 0.8027669 0.9548666
v -1.0552371 -1.6994150 0.2142799
vn 0.0000000 -0.8660255 -0.4999999
vt 0.8027669 0.9756640
v -0.9431046 -1.7468410 0.3912735
vn 0.0000000 -1.0000000 0.0000000
vt 0.8154938 0.9964614
v -1.0552371 -1.7468410 0.3912735
vn 0.0000000 -1.0000000 0.0000000
vt 0.8027669 0.9964614
v -0.9431046 -1.7468410 0.3912735
vn 0.0000000 -1.0000000 0.0000000
vt 0.8154939 0.9340692
v -0.9431046 -1.6994150 0.5682669
vn 0.0000000 -0.8660254 0.5000001
vt 0.8154938 0.9548665
v -1.0552371 -1.7468410 0.3912735
vn 0.0000000 -1.0000000 0.0000000
vt 0.8027670 0.9340692
v -1.0552371 -1.6994150 0.5682669
vn 0.0000000 -0.8660254 0.5000001
vt 0.8027670 0.9548665
v -0.9431046 -1.5698470 0.6978352
vn 0.0000000 -0.5000000 0.8660254
vt 0.8154939 0.9756640
v -1.0552371 -1.5698470 0.6978352
vn 0.0000000 -0.5000000 0.8660254
vt 0.8027669 0.9756640
v -0.9431046 -1.3928540 0.7452605
vn 0.0000000 0.0000000 1.0000000
vt 0.8154939 0.9964613
v -1.0552371 -1.3928540 0.7452605
vn 0.0000000 0.0000000 1.0000000
vt 0.8027669 0.9964613
v -0.9431046 -1.3928540 0.7452605
vn 0.0000000 0.0000000 1.0000000
vt 0.8154939 0.9340690
v -0.9431046 -1.2158600 0.6978352
vn 0.0000000 0.5000001 0.8660253
vt 0.8154939 0.9548665
v -1.0552371 -1.3928540 0.7452605
vn 0.0000000 0.0000000 1.0000000
vt 0.8027670 0.9340690
v -1.0552371 -1.2158600 0.6978352
vn 0.0000000 0.5000001 0.8660253
vt 0.8027670 0.9548665
v -0.9431046 -1.0862920 0.5682671
vn 0.0000000 0.8660255 0.4999999
vt 0.8154939 0.9756639
v -1.0552371 -1.0862920 0.5682671
vn 0.0000000 0.8660255 0.4999999
vt 0.8027669 0.9756639
v -0.9431046 -1.0388670 0.3912736
vn 0.0000000 1.0000000 0.0000000
vt 0.8154939 0.9964614
v -1.0552371 -1.0388670 0.3912736
vn 0.0000000 1.0000000 0.0000000
vt 0.8027669 0.9964614
v -0.9431046 -1.0388670 0.3912736
vn 0.0000000 1.0000000 0.0000000
vt 0.8154939 0.9340690
v -0.9431046 -1.0862920 0.2142799
vn 0.0000000 0.8660256 -0.4999996
vt 0.8154939 0.9548664
v -1.0552371 -1.0388670 0.3912736
vn 0.0000000 1.0000000 0.0000000
vt 0.8027670 0.9340690
v -1.0552371 -1.0862920 0.2142799
vn 0.0000000 0.8660256 -0.4999996
vt 0.8027670 0.9548664
v -0.9431046 -1.2158600 0.0847118
vn 0.0000000 0.5000001 -0.8660254
vt 0.8154939 0.9756638
v -1.0552371 -1.2158600 0.0847118
vn 0.0000000 0.5000001 -0.8660254
vt 0.8027669 0.9756639
v -0.9431046 -1.3928540 0.0372865
vn 0.0000000 0.0000000 -1.0000000
vt 0.8154939 0.9964613
v -1.0552371 -1.3928540 0.0372865
vn 0.0000000 0.0000000 -1.0000000
vt 0.8027669 0.9964614
v -0.9431046 -1.3928540 0.0372865
vn 0.0000000 0.0000000 -1.0000000
vt 0.8154939 0.9340690
v -1.0552371 -1.3928540 0.0372865
vn 0.0000000 0.0000000 -1.0000000
vt 0.8027669 0.9340692
v -0.9431046 -1.5698470 0.0847118
vn 1.0000000 0.0000000 0.0000000
vt 0.9693587 0.8264220
v -0.9431046 -1.3928540 0.0372865
vn 1.0000000 0.0000000 0.0000000
vt 0.9489077 0.8209422
v -0.9431046 -1.6994150 0.2142799
vn 1.0000000 0.0000000 0.0000000
vt 0.9843301 0.8413934
v -0.9431046 -1.2158600 0.0847118
vn 1.0000000 0.0000000 0.0000000
vt 0.9284564 0.8264220
v -0.9431046 -1.0862920 0.2142799
vn 1.0000000 0.0000000 0.0000000
vt 0.9134852 0.8413934
v -0.9431046 -1.0388670 0.3912736
vn 1.0000000 0.0000000 0.0000000
vt 0.9080053 0.8618445
v -0.9431046 -1.0862920 0.5682671
vn 1.0000000 0.0000000 0.0000000
vt 0.9134852 0.8822956
v -0.9431046 -1.2158600 0.6978352
vn 1.0000000 0.0000000 0.0000000
vt 0.9284564 0.8972669
v -0.9431046 -1.3928540 0.7452605
vn 1.0000000 0.0000000 0.0000000
vt 0.9489077 0.9027468
v -0.9431046 -1.5698470 0.6978352
vn 1.0000000 0.0000000 0.0000000
vt 0.9693587 0.8972669
v -0.9431046 -1.6994150 0.5682669
vn 1.0000000 0.0000000 0.0000000
vt 0.9843301 0.8822956
v -0.9431046 -1.7468410 0.3912735
vn 1.0000000 0.0000000 0.0000000
vt 0.9898099 0.8618445
v -1.0552371 -1.3928540 0.0372865
vn -1.0000000 0.0000000 0.0000000
vt 0.9468470 0.9078629
v -1.0552371 -1.5698470 0.0847118
vn -1.0000000 0.0000000 0.0000000
vt 0.9673996 0.9133700
v -1.0552371 -1.2158600 0.0847118
vn -1.0000000 0.0000000 0.0000000
vt 0.9262943 0.9133700
v -1.0552371 -1.6994150 0.2142799
vn -1.0000000 0.0000000 0.0000000
vt 0.9824452 0.9284156
v -1.0552371 -1.7468410 0.3912735
vn -1.0000000 0.0000000 0.0000000
vt 0.9879525 0.9489684
v -1.0552371 -1.6994150 0.5682669
vn -1.0000000 0.0000000 0.0000000
vt 0.9824452 0.9695211
v -1.0552371 -1.5698470 0.6978352
vn -1.0000000 0.0000000 0.0000000
vt 0.9673996 0.9845667
v -1.0552371 -1.3928540 0.7452605
vn -1.0000000 0.0000000 0.0000000
vt 0.9468470 0.9900737
v -1.0552371 -1.2158600 0.6978352
vn -1.0000000 0.0000000 0.0000000
vt 0.9262943 0.9845667
v -1.0552371 -1.0862920 0.5682671
vn -1.0000000 0.0000000 0.0000000
vt 0.9112486 0.9695211
v -1.0552371 -1.0388670 0.3912736
vn -1.0000000 0.0000000 0.0000000
vt 0.9057415 0.9489684
v -1.0552371 -1.0862920 0.2142799
vn -1.0000000 0.0000000 0.0000000
vt 0.9112486 0.9284156

g group_69_106102880350464
f 1/1/1 2/2/2 3/3/3 
f 3/3/3 2/2/2 4/4/4 
f 5/5/5 6/6/6 7/7/7 
f 7/7/7 6/6/6 8/8/8 
f 9/9/9 10/10/10 11/11/11 
f 11/11/11 10/10/10 12/12/12 
f 13/13/13 14/14/14 15/15/15 
f 15/15/15 14/14/14 16/16/16 
f 17/17/17 18/18/18 19/19/19 
f 19/19/19 18/18/18 20/20/20 
f 21/21/21 22/22/22 23/23/23 
f 23/23/23 22/22/22 24/24/24 
f 25/25/25 26/26/26 27/27/27 
f 27/27/27 26/26/26 28/28/28 
f 29/29/29 30/30/30 31/31/31 
f 31/31/31 30/30/30 32/32/32 
f 33/33/33 34/34/34 35/35/35 
f 35/35/35 34/34/34 36/36/36 
f 37/37/37 38/38/38 39/39/39 
f 39/39/39 38/38/38 40/40/40 
f 41/41/41 42/42/42 43/43/43 
f 43/43/43 42/42/42 44/44/44 
f 45/45/45 46/46/46 47/47/47 
f 47/47/47 46/46/46 48/48/48 
f 49/49/49 50/50/50 51/51/51 
f 51/51/51 50/50/50 52/52/52 
f 53/53/53 54/54/54 55/55/55 
f 55/55/55 54/54/54 56/56/56 
f 57/57/57 58/58/58 59/59/59 
f 59/59/59 58/58/58 60/60/60 
f 61/61/61 62/62/62 63/63/63 
f 63/63/63 62/62/62 64/64/64 
f 65/65/65 66/66/66 67/67/67 
f 67/67/67 66/66/66 68/68/68 
f 69/69/69 70/70/70 71/71/71 
f 71/71/71 70/70/70 72/72/72 
f 73/73/73 74/74/74 75/75/75 
f 75/75/75 74/74/74 76/76/76 
f 77/77/77 78/78/78 79/79/79 
f 79/79/79 78/78/78 80/80/80 
f 81/81/81 82/82/82 83/83/83 
f 83/83/83 82/82/82 84/84/84 
f 85/85/85 86/86/86 87/87/87 
f 87/87/87 86/86/86 88/88/88 
f 89/89/89 90/90/90 91/91/91 
f 91/91/91 90/90/90 92/92/92 
f 93/93/93 94/94/94 95/95/95 
f 95/95/95 94/94/94 96/96/96 
f 97/97/97 98/98/98 99/99/99 
f 99/99/99 98/98/98 100/100/100 
f 101/101/101 102/102/102 103/103/103 
f 103/103/103 102/102/102 104/104/104 
f 105/105/105 106/106/106 107/107/107 
f 107/107/107 106/106/106 108/108/108 
f 109/109/109 110/110/110 111/111/111 
f 111/111/111 110/110/110 112/112/112 
f 113/113/113 114/114/114 115/115/115 
f 115/115/115 114/114/114 116/116/116 
f 117/117/117 118/118/118 119/119/119 
f 119/119/119 118/118/118 120/120/120 
f 121/121/121 122/122/122 123/123/123 
f 123/123/123 122/122/122 124/124/124 
f 122/122/122 125/125/125 124/124/124 
f 124/124/124 125/125/125 126/126/126 
f 127/127/127 128/128/128 129/129/129 
f 129/129/129 128/128/128 130/130/130 
f 128/128/128 131/131/131 130/130/130 
f 130/130/130 131/131/131 132/132/132 
f 131/131/131 133/133/133 132/132/132 
f 132/132/132 133/133/133 134/134/134 
f 135/135/135 136/136/136 137/137/137 
f 137/137/137 136/136/136 138/138/138 
f 136/136/136 139/139/139 138/138/138 
f 138/138/138 139/139/139 140/140/140 
f 139/139/139 141/141/141 140/140/140 
f 140/140/140 141/141/141 142/142/142 
f 143/143/143 144/144/144 145/145/145 
f 145/145/145 144/144/144 146/146/146 
f 144/144/144 147/147/147 146/146/146 
f 146/146/146 147/147/147 148/148/148 
f 147/147/147 149/149/149 148/148/148 
f 148/148/148 149/149/149 150/150/150 
f 151/151/151 121/121/121 152/152/152 
f 152/152/152 121/121/121 123/123/123 
f 153/153/153 154/154/154 155/155/155 
f 154/154/154 156/156/156 155/155/155 
f 156/156/156 157/157/157 155/155/155 
f 157/157/157 158/158/158 155/155/155 
f 158/158/158 159/159/159 155/155/155 
f 159/159/159 160/160/160 155/155/155 
f 160/160/160 161/161/161 155/155/155 
f 161/161/161 162/162/162 155/155/155 
f 162/162/162 163/163/163 155/155/155 
f 163/163/163 164/164/164 155/155/155 
f 165/165/165 166/166/166 167/167/167 
f 166/166/166 168/168/168 167/167/167 
f 168/168/168 169/169/169 167/167/167 
f 169/169/169 170/170/170 167/167/167 
f 170/170/170 171/171/171 167/167/167 
f 171/171/171 172/172/172 167/167/167 
f 172/172/172 173/173/173 167/167/167 
f 173/173/173 174/174/174 167/167/167 
f 174/174/174 175/175/175 167/167/167 
f 175/175/175 176/176/176 167/167/167 
