v 0.9421110 -0.6635235 0.0791812
vn 0.0000000 -0.5000001 -0.8660254
vt 0.7864565 0.9758515
v 1.0562660 -0.6635235 0.0791812
vn 0.0000000 -0.5000001 -0.8660254
vt 0.7994130 0.9758515
v 0.9421110 -0.7954292 0.2110869
vn 0.0000000 -0.8660254 -0.4999999
vt 0.7864565 0.9546789
v 1.0562660 -0.7954292 0.2110869
vn 0.0000000 -0.8660254 -0.4999999
vt 0.7994131 0.9546789
v 0.9421110 -0.8437099 0.3912734
vn 0.0000000 -1.0000000 0.0000000
vt 0.7864565 0.9335064
v 1.0562660 -0.8437099 0.3912734
vn 0.0000000 -1.0000000 0.0000000
vt 0.7994131 0.9335064
v 0.9421110 -0.8437099 0.3912734
vn 0.0000000 -1.0000000 0.0000000
vt 0.7864564 0.9970241
v 1.0562660 -0.8437099 0.3912734
vn 0.0000000 -1.0000000 0.0000000
vt 0.7994130 0.9970241
v 0.9421110 -0.7954292 0.5714600
vn 0.0000000 -0.8660254 0.4999999
vt 0.7864565 0.9758515
v 1.0562660 -0.7954292 0.5714600
vn 0.0000000 -0.8660254 0.4999999
vt 0.7994130 0.9758515
v 0.9421110 -0.6635235 0.7033657
vn 0.0000000 -0.5000001 0.8660254
vt 0.7864565 0.9546790
v 1.0562660 -0.6635235 0.7033657
vn 0.0000000 -0.5000001 0.8660254
vt 0.7994131 0.9546790
v 0.9421110 -0.4833369 0.7516466
vn 0.0000000 0.0000000 1.0000000
vt 0.7864565 0.9335064
v 1.0562660 -0.4833369 0.7516466
vn 0.0000000 0.0000000 1.0000000
vt 0.7994131 0.9335064
v 0.9421110 -0.4833369 0.7516466
vn 0.0000000 0.0000000 1.0000000
vt 0.7864564 0.9970241
v 1.0562660 -0.4833369 0.7516466
vn 0.0000000 0.0000000 1.0000000
vt 0.7994130 0.9970241
v 0.9421110 -0.3031503 0.7033657
vn 0.0000000 0.5000001 0.8660254
vt 0.7864565 0.9758514
v 1.0562660 -0.3031503 0.7033657
vn 0.0000000 0.5000001 0.8660254
vt 0.7994130 0.9758514
v 0.9421110 -0.1712446 0.5714600
vn 0.0000000 0.8660254 0.4999999
vt 0.7864565 0.9546789
v 1.0562660 -0.1712446 0.5714600
vn 0.0000000 0.8660254 0.4999999
vt 0.7994131 0.9546789
v 0.9421110 -0.1229638 0.3912735
vn 0.0000000 1.0000000 0.0000000
vt 0.7864565 0.9335064
v 1.0562660 -0.1229638 0.3912735
vn 0.0000000 1.0000000 0.0000000
vt 0.7994131 0.9335064
v 0.9421110 -0.1229638 0.3912735
vn 0.0000000 1.0000000 0.0000000
vt 0.7864564 0.9970241
v 1.0562660 -0.1229638 0.3912735
vn 0.0000000 1.0000000 0.0000000
vt 0.7994130 0.9970241
v 0.9421110 -0.1712446 0.2110869
vn 0.0000000 0.8660254 -0.4999999
vt 0.7864565 0.9758515
v 1.0562660 -0.1712446 0.2110869
vn 0.0000000 0.8660254 -0.4999999
vt 0.7994130 0.9758515
v 0.9421110 -0.3031503 0.0791812
vn 0.0000000 0.5000001 -0.8660254
vt 0.7864565 0.9546790
v 1.0562660 -0.3031503 0.0791812
vn 0.0000000 0.5000001 -0.8660254
vt 0.7994131 0.9546790
v 0.9421110 -0.4833369 0.0309003
vn 0.0000000 0.0000000 -1.0000000
vt 0.7864565 0.9335064
v 1.0562660 -0.4833369 0.0309003
vn 0.0000000 0.0000000 -1.0000000
vt 0.7994131 0.9335064
v 0.9421110 -0.4833369 0.0309003
vn 0.0000000 0.0000000 -1.0000000
vt 0.7864564 0.9970241
v 1.0562660 -0.4833369 0.0309003
vn 0.0000000 0.0000000 -1.0000000
vt 0.7994130 0.9970241
v 0.9421110 -0.6635235 0.0791812
vn -1.0000000 0.0000000 0.0000000
vt 0.9693587 0.8264220
v 0.9421110 -0.7954292 0.2110869
vn -1.0000000 0.0000000 0.0000000
vt 0.9843301 0.8413934
v 0.9421110 -0.4833369 0.0309003
vn -1.0000000 0.0000000 0.0000000
vt 0.9489077 0.8209422
v 0.9421110 -0.8437099 0.3912734
vn -1.0000000 0.0000000 0.0000000
vt 0.9898099 0.8618445
v 0.9421110 -0.7954292 0.5714600
vn -1.0000000 0.0000000 0.0000000
vt 0.9843301 0.8822957
v 0.9421110 -0.6635235 0.7033657
vn -1.0000000 0.0000000 0.0000000
vt 0.9693587 0.8972669
v 0.9421110 -0.4833369 0.7516466
vn -1.0000000 0.0000000 0.0000000
vt 0.9489077 0.9027468
v 0.9421110 -0.3031503 0.7033657
vn -1.0000000 0.0000000 0.0000000
vt 0.9284564 0.8972669
v 0.9421110 -0.1712446 0.5714600
vn -1.0000000 0.0000000 0.0000000
vt 0.9134852 0.8822957
v 0.9421110 -0.1229638 0.3912735
vn -1.0000000 0.0000000 0.0000000
vt 0.9080053 0.8618445
v 0.9421110 -0.1712446 0.2110869
vn -1.0000000 0.0000000 0.0000000
vt 0.9134852 0.8413934
v 0.9421110 -0.3031503 0.0791812
vn -1.0000000 0.0000000 0.0000000
vt 0.9284564 0.8264220
v 1.0562660 -0.4833369 0.0309003
vn 1.0000000 0.0000000 0.0000000
vt 0.8617210 0.9133990
v 1.0562660 -0.3031503 0.0791812
vn 1.0000000 0.0000000 0.0000000
vt 0.8412698 0.9188789
v 1.0562660 -0.6635235 0.0791812
vn 1.0000000 0.0000000 0.0000000
vt 0.8821723 0.9188789
v 1.0562660 -0.1712446 0.2110869
vn 1.0000000 0.0000000 0.0000000
vt 0.8262986 0.9338502
v 1.0562660 -0.1229638 0.3912735
vn 1.0000000 0.0000000 0.0000000
vt 0.8208187 0.9543014
v 1.0562660 -0.1712446 0.5714600
vn 1.0000000 0.0000000 0.0000000
vt 0.8262986 0.9747525
v 1.0562660 -0.3031503 0.7033657
vn 1.0000000 0.0000000 0.0000000
vt 0.8412698 0.9897238
v 1.0562660 -0.4833369 0.7516466
vn 1.0000000 0.0000000 0.0000000
vt 0.8617210 0.9952037
v 1.0562660 -0.6635235 0.7033657
vn 1.0000000 0.0000000 0.0000000
vt 0.8821723 0.9897238
v 1.0562660 -0.7954292 0.5714600
vn 1.0000000 0.0000000 0.0000000
vt 0.8971435 0.9747525
v 1.0562660 -0.8437099 0.3912734
vn 1.0000000 0.0000000 0.0000000
vt 0.9026234 0.9543014
v 1.0562660 -0.7954292 0.2110869
vn 1.0000000 0.0000000 0.0000000
vt 0.8971435 0.9338502

g group_115_106102880358912
f 1/1/1 2/2/2 3/3/3 
f 3/3/3 2/2/2 4/4/4 
f 3/3/3 4/4/4 5/5/5 
f 5/5/5 4/4/4 6/6/6 
f 7/7/7 8/8/8 9/9/9 
f 9/9/9 8/8/8 10/10/10 
f 9/9/9 10/10/10 11/11/11 
f 11/11/11 10/10/10 12/12/12 
f 11/11/11 12/12/12 13/13/13 
f 13/13/13 12/12/12 14/14/14 
f 15/15/15 16/16/16 17/17/17 
f 17/17/17 16/16/16 18/18/18 
f 17/17/17 18/18/18 19/19/19 
f 19/19/19 18/18/18 20/20/20 
f 19/19/19 20/20/20 21/21/21 
f 21/21/21 20/20/20 22/22/22 
f 23/23/23 24/24/24 25/25/25 
f 25/25/25 24/24/24 26/26/26 
f 25/25/25 26/26/26 27/27/27 
f 27/27/27 26/26/26 28/28/28 
f 27/27/27 28/28/28 29/29/29 
f 29/29/29 28/28/28 30/30/30 
f 31/31/31 32/32/32 1/1/1 
f 1/1/1 32/32/32 2/2/2 
f 33/33/33 34/34/34 35/35/35 
f 34/34/34 36/36/36 35/35/35 
f 36/36/36 37/37/37 35/35/35 
f 37/37/37 38/38/38 35/35/35 
f 38/38/38 39/39/39 35/35/35 
f 39/39/39 40/40/40 35/35/35 
f 40/40/40 41/41/41 35/35/35 
f 41/41/41 42/42/42 35/35/35 
f 42/42/42 43/43/43 35/35/35 
f 43/43/43 44/44/44 35/35/35 
f 45/45/45 46/46/46 47/47/47 
f 46/46/46 48/48/48 47/47/47 
f 48/48/48 49/49/49 47/47/47 
f 49/49/49 50/50/50 47/47/47 
f 50/50/50 51/51/51 47/47/47 
f 51/51/51 52/52/52 47/47/47 
f 52/52/52 53/53/53 47/47/47 
f 53/53/53 54/54/54 47/47/47 
f 54/54/54 55/55/55 47/47/47 
f 55/55/55 56/56/56 47/47/47 
