v 0.9273285 1.3446850 0.1054845
vn 0.9793425 0.0000000 0.2022084
vt 0.9946041 1.9599900
v 0.9273285 -2.4621911 0.1054845
vn 0.9793425 0.0000000 0.2022084
vt 0.9946040 -4.0031290
v 0.9423619 -2.4620590 0.0326741
vn 0.9793425 0.0000000 0.2022084
vt 0.8697886 -4.0030131
v 0.9423619 1.3446850 0.0326741
vn 0.9793425 0.0000000 0.2022084
vt 0.8697885 1.9599900
v 0.9273285 1.3446850 0.1054845
vn -0.9809425 -0.0012615 0.1942943
vt 0.9946041 1.9599900
v 0.9129108 1.3446850 0.0326741
vn -0.9809447 -0.0010205 0.1942848
vt 0.8697885 1.9599900
v 0.9129109 -2.4621911 0.0326741
vn -0.9809532 0.0000000 0.1942443
vt 0.8697886 -4.0030890
v 0.9273285 -2.4621911 0.1054845
vn -0.9809532 0.0000000 0.1942443
vt 0.9946040 -4.0031290
v 0.9273285 1.4611191 0.1255281
vn -0.9810476 -0.0964594 0.1680510
vt 0.9946041 2.1872370
v 0.9129108 1.4907370 0.0590138
vn -0.9811062 -0.0934189 0.1694217
vt 0.8697885 2.1872370
v 0.9273285 1.5817940 0.2398149
vn -0.9801866 -0.1672135 0.1061791
vt 0.9946041 2.5258350
v 0.9129108 1.6411200 0.1997179
vn -0.9801883 -0.1664239 0.1073968
vt 0.8697885 2.5258350
v 0.9273285 1.6358041 0.3995338
vn -0.9810085 -0.1939543 -0.0020011
vt 0.9946041 2.8699050
v 0.9129108 1.7086090 0.3986215
vn -0.9810120 -0.1939469 0.0003349
vt 0.8697885 2.8699050
v 0.9273285 1.5806119 0.5478822
vn -0.9799428 -0.1635356 -0.1138781
vt 0.9946041 3.2034271
v 0.9129108 1.6386030 0.5890265
vn -0.9799452 -0.1630609 -0.1145366
vt 0.8697885 3.2034271
v 0.9273285 1.4538120 0.6581677
vn -0.9809045 -0.0916425 -0.1715462
vt 0.9946041 3.5436201
v 0.9129108 1.4814860 0.7255141
vn -0.9809695 -0.0886182 -0.1727589
vt 0.8697885 3.5436201
v 0.9273285 1.3347710 0.6764606
vn -0.9802243 -0.0309786 -0.1954500
vt 0.9946041 3.7734711
v 0.9129108 1.3352370 0.7492696
vn -0.9802243 -0.0309786 -0.1954500
vt 0.8697885 3.7734711
v 1.1221060 -2.4923041 0.0000000
vn 0.0000000 0.0000000 -1.0000000
vt 0.4788924 -4.0495529
v 0.8782824 -2.4923041 0.0000000
vn 0.0000000 0.0000000 -1.0000000
vt 0.8568902 -4.0495491
v 0.8782824 1.3446850 0.0000000
vn 0.0000000 0.0072978 -0.9999734
vt 0.8568903 1.9599900
v 1.1221060 1.3446850 0.0000000
vn 0.0000000 0.0072978 -0.9999734
vt 0.4788926 1.9599900
v 0.8782824 1.3446850 0.0347719
vn -1.0000000 0.0000000 0.0000000
vt 0.0514683 1.9599900
v 0.8782824 1.3446850 0.0000000
vn -1.0000000 0.0000000 0.0000000
vt -0.0003819 1.9599900
v 0.8782824 -2.4923041 0.0000000
vn -1.0000000 0.0000000 0.0000000
vt -0.0003816 -4.0496430
v 0.8782824 -2.4921730 0.0347719
vn -1.0000000 0.0000000 0.0000000
vt 0.0514682 -4.0494838
v 1.0751480 1.3446850 0.1054845
vn -0.9793425 0.0000000 0.2022084
vt 0.9946041 1.9599900
v 1.0601150 1.3446850 0.0326741
vn -0.9793425 0.0000000 0.2022084
vt 0.8697885 1.9599900
v 1.0601150 -2.4620590 0.0326741
vn -0.9793425 0.0000000 0.2022084
vt 0.8697886 -4.0030131
v 1.0751480 -2.4621911 0.1054845
vn -0.9793425 0.0000000 0.2022084
vt 0.9946040 -4.0031290
v 1.1221060 -2.4923041 0.0347719
vn 1.0000000 0.0000000 0.0000000
vt 0.4263234 -4.0495958
v 1.1221060 -2.4923041 0.0000000
vn 1.0000000 0.0000000 0.0000000
vt 0.4788924 -4.0495529
v 1.1221060 1.3446850 0.0000000
vn 1.0000000 0.0000000 0.0000000
vt 0.4788926 1.9599900
v 1.1221060 1.3446850 0.0347719
vn 1.0000000 0.0000000 0.0000000
vt 0.4263233 1.9599900
v 0.8782824 1.3446850 0.0347719
vn 0.0000000 -0.0065688 0.9999784
vt 0.0514683 1.9599900
v 0.8782824 -2.4921730 0.0347719
vn 0.0000000 0.0000000 1.0000000
vt 0.0514682 -4.0494838
v 1.1221060 -2.4923041 0.0347719
vn 0.0000000 0.0000000 1.0000000
vt 0.4263234 -4.0495958
v 1.1221060 1.3446850 0.0347719
vn 0.0000000 -0.0065688 0.9999784
vt 0.4263233 1.9599900
v 1.0751480 1.3446850 0.1054845
vn 0.9809425 -0.0012616 0.1942943
vt 0.9946041 1.9599900
v 1.0751480 -2.4621911 0.1054845
vn 0.9809532 0.0000000 0.1942443
vt 0.9946040 -4.0031290
v 1.0895660 -2.4621911 0.0326741
vn 0.9809532 0.0000000 0.1942443
vt 0.8697886 -4.0030890
v 1.0895660 1.3446850 0.0326741
vn 0.9809447 -0.0010205 0.1942848
vt 0.8697885 1.9599900
v 0.8782824 1.5040280 0.0291653
vn 0.0000000 0.4902710 -0.8715701
vt 0.8568903 2.1910579
v 1.1221060 1.5040280 0.0291653
vn 0.0000000 0.4902710 -0.8715701
vt 0.4788926 2.1930830
v 0.8782824 1.4898840 0.0609303
vn -1.0000000 0.0000000 0.0000000
vt 0.0514683 2.1946490
v 0.8782824 1.5040280 0.0291653
vn -1.0000000 0.0000000 0.0000000
vt -0.0003819 2.1959529
v 1.1221060 1.5040280 0.0291653
vn 1.0000000 0.0000000 0.0000000
vt 0.4788926 2.1930830
v 1.1221060 1.4898840 0.0609303
vn 1.0000000 0.0000000 0.0000000
vt 0.4263233 2.1924620
v 1.1221060 1.4898840 0.0609303
vn 0.0000000 -0.4909764 0.8711729
vt 0.4263233 2.1924620
v 0.8782824 1.4898840 0.0609303
vn 0.0000000 -0.4909764 0.8711729
vt 0.0514683 2.1946490
v 1.0895660 1.4907370 0.0590138
vn 0.9811061 -0.0934191 0.1694217
vt 0.8697885 2.1872370
v 1.0751480 1.4611191 0.1255281
vn 0.9810476 -0.0964596 0.1680510
vt 0.9946041 2.1872370
v 0.8782824 1.6677420 0.1817242
vn 0.0000000 0.8411710 -0.5407694
vt 0.8568903 2.5255210
v 1.1221060 1.6677420 0.1817242
vn 0.0000000 0.8411710 -0.5407694
vt 0.4788926 2.5259731
v 0.8782824 1.6394100 0.2008733
vn -1.0000000 0.0000000 0.0000000
vt 0.0514683 2.5278921
v 0.8782824 1.6677420 0.1817242
vn -1.0000000 0.0000000 0.0000000
vt -0.0003819 2.5265369
v 1.1221060 1.6677420 0.1817242
vn 1.0000000 0.0000000 0.0000000
vt 0.4788926 2.5259731
v 1.1221060 1.6394100 0.2008733
vn 1.0000000 0.0000000 0.0000000
vt 0.4263233 2.5273161
v 1.1221060 1.6394100 0.2008733
vn 0.0000000 -0.8417191 0.5399158
vt 0.4263233 2.5273161
v 0.8782824 1.6394100 0.2008733
vn 0.0000000 -0.8417191 0.5399158
vt 0.0514683 2.5278921
v 1.0895660 1.6411200 0.1997179
vn 0.9801884 -0.1664232 0.1073968
vt 0.8697885 2.5258350
v 1.0751480 1.5817940 0.2398149
vn 0.9801867 -0.1672128 0.1061791
vt 0.9946041 2.5258350
v 0.8782824 1.7412800 0.3982121
vn 0.0000000 0.9999732 0.0073181
vt 0.8568903 2.8653891
v 1.1221060 1.7412800 0.3982121
vn 0.0000000 0.9999732 0.0073181
vt 0.4788926 2.8657060
v 0.8782824 1.7065110 0.3986479
vn -1.0000000 0.0000000 0.0000000
vt 0.0514683 2.8667779
v 0.8782824 1.7412800 0.3982121
vn -1.0000000 0.0000000 0.0000000
vt -0.0003819 2.8662741
v 1.1221060 1.7412800 0.3982121
vn 1.0000000 0.0000000 0.0000000
vt 0.4788926 2.8657060
v 1.1221060 1.7065110 0.3986479
vn 1.0000000 0.0000000 0.0000000
vt 0.4263233 2.8664911
v 1.1221060 1.7065110 0.3986479
vn 0.0000000 -0.9999795 -0.0064046
vt 0.4263233 2.8664911
v 0.8782824 1.7065110 0.3986479
vn 0.0000000 -0.9999795 -0.0064046
vt 0.0514683 2.8667779
v 1.0895660 1.7086090 0.3986215
vn 0.9810122 -0.1939458 0.0003349
vt 0.8697885 2.8699050
v 1.0751480 1.6358041 0.3995338
vn 0.9810088 -0.1939532 -0.0020010
vt 0.9946041 2.8699050
v 0.8782824 1.6646260 0.6074902
vn 0.0000000 0.8223441 0.5689906
vt 0.8568903 3.1973979
v 1.1221060 1.6646260 0.6074902
vn 0.0000000 0.8223441 0.5689906
vt 0.4788926 3.1967919
v 0.8782824 1.6369320 0.5878410
vn -1.0000000 0.0000000 0.0000000
vt 0.0514683 3.1951079
v 0.8782824 1.6646260 0.6074902
vn -1.0000000 0.0000000 0.0000000
vt -0.0003819 3.1958840
v 1.1221060 1.6646260 0.6074902
vn 1.0000000 0.0000000 0.0000000
vt 0.4788926 3.1967919
v 1.1221060 1.6369320 0.5878410
vn 1.0000000 0.0000000 0.0000000
vt 0.4263233 3.1958749
v 1.1221060 1.6369320 0.5878410
vn 0.0000000 -0.8211575 -0.5707018
vt 0.4263233 3.1958749
v 0.8782824 1.6369320 0.5878410
vn 0.0000000 -0.8211575 -0.5707018
vt 0.0514683 3.1951079
v 1.0895660 1.6386030 0.5890265
vn 0.9799452 -0.1630603 -0.1145366
vt 0.8697885 3.2034271
v 1.0751480 1.5806119 0.5478822
vn 0.9799429 -0.1635351 -0.1138781
vt 0.9946041 3.2034271
v 0.8782824 1.4939049 0.7557361
vn 0.0000000 0.4682665 0.8835873
vt 0.8568903 3.5355401
v 1.1221060 1.4939049 0.7557361
vn 0.0000000 0.4682665 0.8835873
vt 0.4788926 3.5334561
v 0.8782824 1.4806890 0.7235736
vn -1.0000000 0.0000000 0.0000000
vt 0.0514683 3.5319541
v 0.8782824 1.4939049 0.7557361
vn -1.0000000 0.0000000 0.0000000
vt -0.0003819 3.5307310
v 1.1221060 1.4939049 0.7557361
vn 1.0000000 0.0000000 0.0000000
vt 0.4788926 3.5334561
v 1.1221060 1.4806890 0.7235736
vn 1.0000000 0.0000000 0.0000000
vt 0.4263233 3.5343499
v 1.1221060 1.4806890 0.7235736
vn 0.0000000 -0.4669778 -0.8842691
vt 0.4263233 3.5343499
v 0.8782824 1.4806890 0.7235736
vn 0.0000000 -0.4669778 -0.8842691
vt 0.0514683 3.5319541
v 1.0895660 1.4814860 0.7255141
vn 0.9809695 -0.0886180 -0.1727588
vt 0.8697885 3.5436201
v 1.0751480 1.4538120 0.6581677
vn 0.9809045 -0.0916423 -0.1715462
vt 0.9946041 3.5436201
v 0.8782824 1.3354460 0.7819429
vn 0.0000000 -0.0721037 0.9973971
vt 0.8568903 3.7734711
v 1.1221060 1.3354460 0.7819429
vn 0.0000000 -0.0721037 0.9973971
vt 0.4788926 3.7734711
v 0.8782824 1.3352240 0.7471716
vn -1.0000000 0.0000000 0.0000000
vt 0.0514683 3.7734711
v 0.8782824 1.3354460 0.7819429
vn -1.0000000 0.0000000 0.0000000
vt -0.0003819 3.7734711
v 1.1221060 1.3354460 0.7819429
vn 1.0000000 0.0000000 0.0000000
vt 0.4788926 3.7734711
v 1.1221060 1.3352240 0.7471716
vn 1.0000000 0.0000000 0.0000000
vt 0.4263233 3.7734711
v 1.1221060 1.3352240 0.7471716
vn 0.0000000 0.0766321 -0.9970595
vt 0.4263233 3.7734711
v 0.8782824 1.3352240 0.7471716
vn 0.0000000 0.0766321 -0.9970595
vt 0.0514683 3.7734711
v 1.0895660 1.3352370 0.7492696
vn 0.9806144 0.0159853 -0.1952946
vt 0.8697885 3.7734711
v 1.0751480 1.3347710 0.6764606
vn 0.9806154 0.0159097 -0.1952953
vt 0.9946041 3.7734711
v 0.8782825 0.7759837 0.7038362
vn 0.0000000 -0.0046272 0.9999893
vt 0.8568903 4.6466541
v 1.1221060 0.7759837 0.7038362
vn 0.0000000 -0.0046272 0.9999893
vt 0.4788926 4.6466541
v 0.8782825 0.7759837 0.7038362
vn -1.0000000 0.0000000 0.0000000
vt -0.0003819 4.6466541
v 0.8782823 0.7759836 0.6694113
vn -1.0000000 0.0000000 0.0000000
vt 0.0514683 4.6466541
v 1.1221060 0.7759837 0.7038362
vn 1.0000000 0.0000000 0.0000000
vt 0.4788926 4.6466541
v 1.1221060 0.7759836 0.6694113
vn 1.0000000 0.0000000 0.0000000
vt 0.4263233 4.6466541
v 0.8782823 0.7759836 0.6694113
vn 0.0000000 0.0040096 -0.9999920
vt 0.0514683 4.6466541
v 1.1221060 0.7759836 0.6694113
vn 0.0000000 0.0040096 -0.9999920
vt 0.4263233 4.6466541
v 1.0751480 0.7759836 0.5994043
vn 0.9806407 0.0014749 -0.1958102
vt 0.9946041 4.6466541
v 1.0895660 0.7759836 0.6714883
vn 0.9806356 0.0000000 -0.1958411
vt 0.8697885 4.6466541
v 0.8782824 0.4240200 0.7777255
vn 0.0000000 0.0532833 0.9985794
vt 0.8568903 5.1994081
v 0.8782824 0.2385679 0.7325123
vn 0.0000000 -0.5000837 0.8659771
vt 0.8568903 5.4828410
v 1.1221060 0.2385679 0.7325123
vn 0.0000000 -0.5000837 0.8659771
vt 0.4788926 5.4828410
v 1.1221060 0.4240200 0.7777255
vn 0.0000000 0.0532833 0.9985794
vt 0.4788926 5.1994081
v 0.8782824 0.4240200 0.7435181
vn -1.0000000 0.0000000 0.0000000
vt 0.0514683 5.1994081
v 0.8782824 0.2544289 0.7022042
vn -1.0000000 0.0000000 0.0000000
vt 0.0514682 5.4828410
v 0.8782824 0.2385679 0.7325123
vn -1.0000000 0.0000000 0.0000000
vt -0.0003819 5.4828410
v 0.8782824 0.4240200 0.7777255
vn -1.0000000 0.0000000 0.0000000
vt -0.0003819 5.1994081
v 1.1221060 0.4240200 0.7777255
vn 1.0000000 0.0000000 0.0000000
vt 0.4788926 5.1994081
v 1.1221060 0.2385679 0.7325123
vn 1.0000000 0.0000000 0.0000000
vt 0.4788926 5.4828410
v 1.1221060 0.2544289 0.7022042
vn 1.0000000 0.0000000 0.0000000
vt 0.4263233 5.4828410
v 1.1221060 0.4240200 0.7435181
vn 1.0000000 0.0000000 0.0000000
vt 0.4263233 5.1994081
v 1.1221060 0.4240200 0.7435181
vn 0.0000000 -0.0627514 -0.9980292
vt 0.4263233 5.1994081
v 1.1221060 0.2544289 0.7022042
vn 0.0000000 0.4965448 -0.8680111
vt 0.4263233 5.4828410
v 0.8782824 0.2544289 0.7022042
vn 0.0000000 0.4965448 -0.8680111
vt 0.0514682 5.4828410
v 0.8782824 0.4240200 0.7435181
vn 0.0000000 -0.0627514 -0.9980292
vt 0.0514683 5.1994081
v 1.0895660 0.4240200 0.7455820
vn 0.9803092 -0.0147756 -0.1969151
vt 0.8697885 5.1994081
v 1.0895660 0.2534719 0.7040329
vn 0.9801747 0.0965250 -0.1730330
vt 0.8697885 5.4828410
v 1.0751480 0.2866841 0.6405695
vn 0.9801575 0.0981852 -0.1721945
vt 0.9946041 5.4828410
v 1.0751480 0.4240200 0.6739534
vn 0.9803185 -0.0140368 -0.1969231
vt 0.9946041 5.1994081
v 0.8782824 0.0907764 0.5852842
vn 0.0000000 -0.8620685 0.5067918
vt 0.8568903 5.7852879
v 1.1221060 0.0907764 0.5852842
vn 0.0000000 -0.8620685 0.5067918
vt 0.4788926 5.7842832
v 0.8782824 0.1216456 0.5705451
vn -1.0000000 0.0000000 0.0000000
vt 0.0514682 5.7787871
v 0.8782824 0.0907764 0.5852842
vn -1.0000000 0.0000000 0.0000000
vt -0.0003819 5.7838531
v 1.1221060 0.0907764 0.5852842
vn 1.0000000 0.0000000 0.0000000
vt 0.4788926 5.7842832
v 1.1221060 0.1216456 0.5705451
vn 1.0000000 0.0000000 0.0000000
vt 0.4263232 5.7788582
v 1.1221060 0.1216456 0.5705451
vn 0.0000000 0.8625960 -0.5058935
vt 0.4263232 5.7788582
v 0.8782824 0.1216456 0.5705451
vn 0.0000000 0.8625960 -0.5058935
vt 0.0514682 5.7787871
v 1.0895660 0.1197831 0.5714344
vn 0.9801379 0.1728309 -0.0972587
vt 0.8697885 5.7643280
v 1.0751480 0.1844216 0.5405714
vn 0.9800887 0.1700604 -0.1024969
vt 0.9946039 5.7531209
v 0.8782824 0.0375764 0.3906196
vn 0.0000000 -0.9900783 0.1405169
vt 0.8568903 6.0800929
v 1.1221050 0.0375764 0.3906196
vn 0.0000000 -0.9900783 0.1405168
vt 0.4788926 6.0792370
v 0.8782824 0.0717835 0.3907765
vn -1.0000000 0.0000000 0.0000000
vt 0.0514684 6.0710840
v 0.8782824 0.0375764 0.3906196
vn -1.0000000 0.0000000 0.0000000
vt -0.0003819 6.0785022
v 1.1221050 0.0375764 0.3906196
vn 1.0000000 0.0000000 0.0000000
vt 0.4788926 6.0792370
v 1.1221050 0.0717835 0.3907765
vn 1.0000000 0.0000000 0.0000000
vt 0.4263233 6.0714788
v 1.1221050 0.0717835 0.3907765
vn 0.0000000 0.9906656 -0.1363146
vt 0.4263233 6.0714788
v 0.8782824 0.0717835 0.3907765
vn 0.0000000 0.9906656 -0.1363146
vt 0.0514684 6.0710840
v 1.0895660 0.0697197 0.3907670
vn 0.9803189 0.1959815 -0.0237953
vt 0.8697885 6.0618219
v 1.0751480 0.1413475 0.3910952
vn 0.9802381 0.1958523 -0.0278425
vt 0.9946039 6.0441432
v 0.8782824 0.0485131 0.2874979
vn 0.0000000 -0.9944232 -0.1054638
vt 0.8568903 6.2323208
v 1.1221060 0.0485131 0.2874979
vn 0.0000000 -0.9944232 -0.1054638
vt 0.4788926 6.2323208
v 0.8782824 0.0827202 0.2876546
vn -1.0000000 0.0000000 0.0000000
vt 0.0514683 6.2323208
v 0.8782824 0.0485131 0.2874979
vn -1.0000000 0.0000000 0.0000000
vt -0.0003819 6.2323208
v 1.1221060 0.0485131 0.2874979
vn 1.0000000 0.0000000 0.0000000
vt 0.4788926 6.2323208
v 1.1221060 0.0827202 0.2876546
vn 1.0000000 0.0000000 0.0000000
vt 0.4263233 6.2323208
v 1.1221060 0.0827202 0.2876546
vn 0.0000000 0.9944231 0.1054641
vt 0.4263233 6.2323208
v 0.8782824 0.0827202 0.2876546
vn 0.0000000 0.9944231 0.1054641
vt 0.0514683 6.2323208
v 1.0895660 0.0806563 0.2876451
vn 0.9801416 0.1971932 0.0209136
vt 0.8697885 6.2323208
v 1.0751480 0.1522841 0.2879734
vn 0.9801416 0.1971931 0.0209136
vt 0.9946041 6.2323208
v 0.8782824 0.0485131 0.2874979
vn 0.0000000 0.0045811 -0.9999895
vt 0.4240058 1.0913790
v 0.8782824 0.0827202 0.2876546
vn 0.0000000 0.0045811 -0.9999895
vt 0.4240059 1.0603610
v 1.1221060 0.0827202 0.2876546
vn 0.0000000 0.0045811 -0.9999895
vt 0.0491046 1.0603610
v 1.1221060 0.0485131 0.2874979
vn 0.0000000 0.0045811 -0.9999895
vt 0.0491048 1.0913790
v 0.8782824 -2.4921730 0.0347719
vn -0.0002685 -0.9999982 0.0018833
vt 0.0514686 -4.0495458
v 0.8782824 -2.4923041 0.0000000
vn -0.0002685 -0.9999982 0.0018833
vt 0.0514686 -4.1021142
v 1.1221060 -2.4923041 0.0000000
vn -0.0002685 -0.9999982 0.0018833
vt 0.4263233 -4.1021152
v 1.1221060 -2.4923041 0.0347719
vn -0.0002685 -0.9999982 0.0018833
vt 0.4263232 -4.0495448

g group_71_106102880346112
f 1/1/1 2/2/2 3/3/3 
f 1/1/1 3/3/3 4/4/4 
f 5/5/5 6/6/6 7/7/7 
f 5/5/5 7/7/7 8/8/8 
f 6/6/6 5/5/5 9/9/9 
f 6/6/6 9/9/9 10/10/10 
f 10/10/10 9/9/9 11/11/11 
f 10/10/10 11/11/11 12/12/12 
f 12/12/12 11/11/11 13/13/13 
f 12/12/12 13/13/13 14/14/14 
f 14/14/14 13/13/13 15/15/15 
f 14/14/14 15/15/15 16/16/16 
f 16/16/16 15/15/15 17/17/17 
f 16/16/16 17/17/17 18/18/18 
f 18/18/18 17/17/17 19/19/19 
f 18/18/18 19/19/19 20/20/20 
f 21/21/21 22/22/22 23/23/23 
f 21/21/21 23/23/23 24/24/24 
f 25/25/25 26/26/26 27/27/27 
f 25/25/25 27/27/27 28/28/28 
f 29/29/29 30/30/30 31/31/31 
f 29/29/29 31/31/31 32/32/32 
f 33/33/33 34/34/34 35/35/35 
f 33/33/33 35/35/35 36/36/36 
f 37/37/37 38/38/38 39/39/39 
f 37/37/37 39/39/39 40/40/40 
f 41/41/41 42/42/42 43/43/43 
f 41/41/41 43/43/43 44/44/44 
f 23/23/23 45/45/45 46/46/46 
f 23/23/23 46/46/46 24/24/24 
f 25/25/25 47/47/47 48/48/48 
f 25/25/25 48/48/48 26/26/26 
f 35/35/35 49/49/49 50/50/50 
f 35/35/35 50/50/50 36/36/36 
f 40/40/40 51/51/51 52/52/52 
f 40/40/40 52/52/52 37/37/37 
f 44/44/44 53/53/53 54/54/54 
f 44/44/44 54/54/54 41/41/41 
f 45/45/45 55/55/55 56/56/56 
f 45/45/45 56/56/56 46/46/46 
f 47/47/47 57/57/57 58/58/58 
f 47/47/47 58/58/58 48/48/48 
f 49/49/49 59/59/59 60/60/60 
f 49/49/49 60/60/60 50/50/50 
f 51/51/51 61/61/61 62/62/62 
f 51/51/51 62/62/62 52/52/52 
f 53/53/53 63/63/63 64/64/64 
f 53/53/53 64/64/64 54/54/54 
f 55/55/55 65/65/65 66/66/66 
f 55/55/55 66/66/66 56/56/56 
f 57/57/57 67/67/67 68/68/68 
f 57/57/57 68/68/68 58/58/58 
f 59/59/59 69/69/69 70/70/70 
f 59/59/59 70/70/70 60/60/60 
f 61/61/61 71/71/71 72/72/72 
f 61/61/61 72/72/72 62/62/62 
f 63/63/63 73/73/73 74/74/74 
f 63/63/63 74/74/74 64/64/64 
f 65/65/65 75/75/75 76/76/76 
f 65/65/65 76/76/76 66/66/66 
f 67/67/67 77/77/77 78/78/78 
f 67/67/67 78/78/78 68/68/68 
f 69/69/69 79/79/79 80/80/80 
f 69/69/69 80/80/80 70/70/70 
f 71/71/71 81/81/81 82/82/82 
f 71/71/71 82/82/82 72/72/72 
f 73/73/73 83/83/83 84/84/84 
f 73/73/73 84/84/84 74/74/74 
f 75/75/75 85/85/85 86/86/86 
f 75/75/75 86/86/86 76/76/76 
f 77/77/77 87/87/87 88/88/88 
f 77/77/77 88/88/88 78/78/78 
f 79/79/79 89/89/89 90/90/90 
f 79/79/79 90/90/90 80/80/80 
f 81/81/81 91/91/91 92/92/92 
f 81/81/81 92/92/92 82/82/82 
f 83/83/83 93/93/93 94/94/94 
f 83/83/83 94/94/94 84/84/84 
f 85/85/85 95/95/95 96/96/96 
f 85/85/85 96/96/96 86/86/86 
f 87/87/87 97/97/97 98/98/98 
f 87/87/87 98/98/98 88/88/88 
f 89/89/89 99/99/99 100/100/100 
f 89/89/89 100/100/100 90/90/90 
f 91/91/91 101/101/101 102/102/102 
f 91/91/91 102/102/102 92/92/92 
f 93/93/93 103/103/103 104/104/104 
f 93/93/93 104/104/104 94/94/94 
f 96/96/96 95/95/95 105/105/105 
f 96/96/96 105/105/105 106/106/106 
f 107/107/107 98/98/98 97/97/97 
f 107/107/107 97/97/97 108/108/108 
f 100/100/100 99/99/99 109/109/109 
f 100/100/100 109/109/109 110/110/110 
f 111/111/111 102/102/102 101/101/101 
f 111/111/111 101/101/101 112/112/112 
f 113/113/113 104/104/104 103/103/103 
f 113/113/113 103/103/103 114/114/114 
f 115/115/115 116/116/116 117/117/117 
f 115/115/115 117/117/117 118/118/118 
f 119/119/119 120/120/120 121/121/121 
f 119/119/119 121/121/121 122/122/122 
f 123/123/123 124/124/124 125/125/125 
f 123/123/123 125/125/125 126/126/126 
f 127/127/127 128/128/128 129/129/129 
f 127/127/127 129/129/129 130/130/130 
f 131/131/131 132/132/132 133/133/133 
f 131/131/131 133/133/133 134/134/134 
f 117/117/117 116/116/116 135/135/135 
f 117/117/117 135/135/135 136/136/136 
f 121/121/121 120/120/120 137/137/137 
f 121/121/121 137/137/137 138/138/138 
f 125/125/125 124/124/124 139/139/139 
f 125/125/125 139/139/139 140/140/140 
f 129/129/129 128/128/128 141/141/141 
f 129/129/129 141/141/141 142/142/142 
f 133/133/133 132/132/132 143/143/143 
f 133/133/133 143/143/143 144/144/144 
f 136/136/136 135/135/135 145/145/145 
f 136/136/136 145/145/145 146/146/146 
f 138/138/138 137/137/137 147/147/147 
f 138/138/138 147/147/147 148/148/148 
f 140/140/140 139/139/139 149/149/149 
f 140/140/140 149/149/149 150/150/150 
f 142/142/142 141/141/141 151/151/151 
f 142/142/142 151/151/151 152/152/152 
f 144/144/144 143/143/143 153/153/153 
f 144/144/144 153/153/153 154/154/154 
f 146/146/146 145/145/145 155/155/155 
f 146/146/146 155/155/155 156/156/156 
f 148/148/148 147/147/147 157/157/157 
f 148/148/148 157/157/157 158/158/158 
f 150/150/150 149/149/149 159/159/159 
f 150/150/150 159/159/159 160/160/160 
f 152/152/152 151/151/151 161/161/161 
f 152/152/152 161/161/161 162/162/162 
f 154/154/154 153/153/153 163/163/163 
f 154/154/154 163/163/163 164/164/164 
f 106/106/106 105/105/105 115/115/115 
f 106/106/106 115/115/115 118/118/118 
f 107/107/107 108/108/108 119/119/119 
f 107/107/107 119/119/119 122/122/122 
f 110/110/110 109/109/109 123/123/123 
f 110/110/110 123/123/123 126/126/126 
f 111/111/111 112/112/112 127/127/127 
f 111/111/111 127/127/127 130/130/130 
f 113/113/113 114/114/114 131/131/131 
f 113/113/113 131/131/131 134/134/134 
f 165/165/165 166/166/166 167/167/167 
f 165/165/165 167/167/167 168/168/168 
f 169/169/169 170/170/170 171/171/171 
f 169/169/169 171/171/171 172/172/172 
