v 1.9971370 1.4757552 0.0817752
vn 0.9946582 -0.0701035 0.0757666
vt 0.4679034 -4.2640481
v 2.0028861 1.4697332 0.0015928
vn 0.9946161 -0.0698422 0.0765569
vt 0.4269837 -4.2640481
v 2.0653911 2.1364253 -0.0016987
vn 0.9932987 -0.0941484 0.0670355
vt 0.4269837 -4.6969962
v 2.0600550 2.1367762 0.0789705
vn 0.9933492 -0.0942707 0.0661092
vt 0.4679034 -4.6969962
v 1.6750060 3.9290712 0.0619557
vn 0.7620215 0.0003461 -0.6475517
vt 0.4269837 3.5704341
v 1.6750070 -2.8885648 0.0619742
vn 0.7720556 -0.1119941 -0.6256098
vt 0.4269837 -0.5901659
v 1.6213670 -2.8885648 -0.0048088
vn 0.7759848 -0.0959461 -0.6234115
vt 0.4679034 -0.5901659
v 1.6213670 3.9291353 -0.0011369
vn 0.7618771 0.0003489 -0.6477215
vt 0.4679034 3.5704341
v 1.6750070 -3.0580287 0.1157635
vn 0.7522678 -0.3449691 -0.5613285
vt 0.4269837 -0.7041118
v 1.6213670 -3.0915487 0.0645686
vn 0.7549440 -0.3482592 -0.5556754
vt 0.4679034 -0.7041118
v 1.6750070 -3.1774178 0.2397799
vn 0.7549535 -0.5531110 -0.3522973
vt 0.4269837 -0.8101845
v 1.6213670 -3.2294407 0.2068863
vn 0.7534575 -0.5542904 -0.3536439
vt 0.4679034 -0.8101845
v 1.6750070 -3.2395308 0.4044153
vn 0.7502984 -0.6523976 -0.1069101
vt 0.4269837 -0.9259605
v 1.6213670 -3.2973328 0.3823653
vn 0.7497178 -0.6490505 -0.1290608
vt 0.4679034 -0.9259605
v 1.6750070 -3.2359197 0.7877383
vn 0.7423309 -0.6425153 0.1900501
vt 0.4269837 -1.1509130
v 1.6213670 -3.2978897 0.7877446
vn 0.7431852 -0.6517311 0.1514013
vt 0.4679034 -1.1509130
v 1.6750070 -3.0867589 1.0635400
vn 0.7431253 -0.4106716 0.5283121
vt 0.4269837 -1.3759410
v 1.6213670 -3.1104758 1.1200089
vn 0.7475048 -0.3559932 0.5608079
vt 0.4679034 -1.3759410
v 1.6750070 -2.6562557 1.1238090
vn 0.7383858 0.1042837 0.6662667
vt 0.4269837 -1.5928431
v 1.6213670 -2.6562557 1.1832660
vn 0.7400907 0.0804573 0.6676769
vt 0.4679034 -1.5928431
v 1.9971370 1.4757552 0.0817752
vn 0.6369495 -0.0040498 0.7708949
vt 0.4679034 -4.2640481
v 2.0600550 2.1367762 0.0789705
vn 0.6359752 -0.0572695 0.7695816
vt 0.4679034 -4.6969962
v 1.6281331 2.1358821 0.4358407
vn 0.6359750 -0.0572697 0.7695817
vt 0.8446057 -4.6969962
v 1.5652140 1.4748613 0.4386455
vn 0.6394507 0.0057101 0.7688110
vt 0.8446057 -4.2640481
v 1.6213670 -3.1104758 1.1200089
vn -0.0000007 -0.5628275 0.8265744
vt 0.4679034 -1.3759410
v 1.6213670 -2.6562557 1.1832660
vn -0.0000011 0.1339390 0.9909896
vt 0.4679034 -1.5928431
v 1.0610870 -2.6562557 1.1832650
vn -0.0000010 0.1339390 0.9909896
vt 0.8447493 -1.5928431
v 1.0610870 -3.1104758 1.1200089
vn 0.0000000 -0.5628273 0.8265746
vt 0.8446060 -1.3759410
v 1.0610870 -3.2978897 0.7877438
vn -0.0000001 -0.9673862 0.2533059
vt 0.8445064 -1.1509130
v 1.6213670 -3.2978897 0.7877446
vn -0.0000004 -0.9673861 0.2533066
vt 0.4679034 -1.1509130
v 1.6213670 -3.2973328 0.3823653
vn 0.0000001 -0.9828873 -0.1842083
vt 0.4679034 -0.9259605
v 1.0610870 -3.2973328 0.3823649
vn 0.0000001 -0.9828872 -0.1842085
vt 0.8446797 -0.9259605
v 1.6213670 -3.2294407 0.2068863
vn 0.0000002 -0.8422343 -0.5391117
vt 0.4679034 -0.8101845
v 1.0610870 -3.2294407 0.2068860
vn 0.0000003 -0.8422339 -0.5391123
vt 0.8448876 -0.8101845
v 1.0610870 -3.0915487 0.0645686
vn 0.0000001 -0.5356400 -0.8444464
vt 0.8448231 -0.7041118
v 1.6213670 -3.0915487 0.0645686
vn 0.0000002 -0.5356399 -0.8444465
vt 0.4679034 -0.7041118
v 1.0610870 -2.8885648 -0.0048092
vn 0.0000004 -0.1636613 -0.9865166
vt 0.8445362 -0.5901659
v 1.6213670 -2.8885648 -0.0048088
vn 0.0000006 -0.1636606 -0.9865167
vt 0.4679034 -0.5901659
v 1.0610870 3.9291353 -0.0011369
vn 0.0000000 0.0005386 -0.9999999
vt 0.8442349 3.5704341
v 1.6213670 3.9291353 -0.0011369
vn 0.0000000 0.0005386 -0.9999999
vt 0.4679034 3.5704341
v 1.6750070 -2.6562557 1.1238090
vn 0.0000003 -0.1330067 -0.9911152
vt 0.4269837 -1.5928431
v 1.6750070 -3.0867589 1.0635400
vn 0.0000000 0.5704544 -0.8213294
vt 0.4269837 -1.3759410
v 1.0074470 -3.0867589 1.0635400
vn -0.0000000 0.5704545 -0.8213293
vt 0.0513518 -1.3759410
v 1.0074470 -2.6562557 1.1238090
vn 0.0000000 -0.1330070 -0.9911152
vt 0.0513518 -1.5928431
v 1.6750070 -3.2359197 0.7877383
vn 0.0000000 0.9682668 -0.2499188
vt 0.4269837 -1.1509130
v 1.0074470 -3.2359197 0.7877383
vn 0.0000012 0.9682673 -0.2499168
vt 0.0513518 -1.1509130
v 1.6750070 -3.2395308 0.4044153
vn 0.0000022 0.9846090 0.1747717
vt 0.4269837 -0.9259605
v 1.0074470 -3.2395287 0.4044150
vn 0.0000020 0.9846095 0.1747688
vt 0.0513518 -0.9259605
v 1.6750070 -3.1774178 0.2397799
vn 0.0000012 0.8453500 0.5342128
vt 0.4269837 -0.8101845
v 1.0074470 -3.1774178 0.2397797
vn -0.0000002 0.8453528 0.5342085
vt 0.0513518 -0.8101845
v 1.6750070 -3.0580287 0.1157635
vn 0.0000006 0.5276895 0.8494374
vt 0.4269837 -0.7041118
v 1.0074470 -3.0580287 0.1157632
vn -0.0000004 0.5276862 0.8494394
vt 0.0513518 -0.7041118
v 1.0074470 3.9290712 0.0619554
vn -0.0000004 0.0000027 1.0000000
vt 0.0513518 3.5704341
v 1.0074470 -2.8885617 0.0619746
vn 0.0000003 0.1530682 0.9882156
vt 0.0513518 -0.5901659
v 1.6750070 -2.8885648 0.0619742
vn 0.0000013 0.1530727 0.9882150
vt 0.4269837 -0.5901659
v 1.6750060 3.9290712 0.0619557
vn -0.0000005 0.0000027 1.0000000
vt 0.4269837 3.5704341
v 1.5652140 1.4748613 0.4386455
vn -0.1208655 0.0709336 0.9901313
vt 0.0113794 -4.2640481
v 1.6281331 2.1358821 0.4358407
vn -0.1210061 0.0157295 0.9925272
vt 0.0113794 -4.6969962
v 1.5507669 2.1353593 0.4264167
vn -0.1207001 0.0157369 0.9925643
vt 0.0513518 -4.6969962
v 1.4882621 1.4686673 0.4297085
vn -0.1205861 0.0821757 0.9892958
vt 0.0513518 -4.2640481
v 1.0074470 3.9290712 0.0619554
vn -0.7620159 0.0003461 -0.6475583
vt 0.0513518 3.5704341
v 1.0610870 3.9291353 -0.0011369
vn -0.7618714 0.0003489 -0.6477283
vt 0.0113794 3.5704341
v 1.0610870 -2.8885648 -0.0048092
vn -0.7759861 -0.0959482 -0.6234096
vt 0.0113794 -0.5901659
v 1.0074470 -2.8885617 0.0619746
vn -0.7720565 -0.1119912 -0.6256092
vt 0.0513518 -0.5901659
v 1.0610870 -3.0915487 0.0645686
vn -0.7549397 -0.3482602 -0.5556806
vt 0.0113794 -0.7041118
v 1.0074470 -3.0580287 0.1157632
vn -0.7522622 -0.3449691 -0.5613360
vt 0.0513518 -0.7041118
v 1.0610870 -3.2294407 0.2068860
vn -0.7534531 -0.5542946 -0.3536468
vt 0.0113794 -0.8101845
v 1.0074470 -3.1774178 0.2397797
vn -0.7549508 -0.5531143 -0.3522981
vt 0.0513518 -0.8101845
v 1.0610870 -3.2973328 0.3823649
vn -0.7497240 -0.6490443 -0.1290561
vt 0.0113794 -0.9259605
v 1.0074470 -3.2395287 0.4044150
vn -0.7503057 -0.6523899 -0.1069056
vt 0.0513518 -0.9259605
v 1.0610870 -3.2978897 0.7877438
vn -0.7431812 -0.6517360 0.1513999
vt 0.0113794 -1.1509130
v 1.0074470 -3.2359197 0.7877383
vn -0.7423254 -0.6425213 0.1900508
vt 0.0513518 -1.1509130
v 1.0610870 -3.1104758 1.1200089
vn -0.7476446 -0.3557569 0.5607714
vt 0.0113794 -1.3759410
v 1.0074470 -3.0867589 1.0635400
vn -0.7430629 -0.4105179 0.5285193
vt 0.0513518 -1.3759410
v 1.0610870 -2.6562557 1.1832650
vn -0.7402108 0.0802474 0.6675690
vt 0.0113794 -1.5928431
v 1.0074470 -2.6562557 1.1238090
vn -0.7383010 0.1040657 0.6663948
vt 0.0513518 -1.5928431
v 1.9626160 0.8491358 0.1561915
vn 0.9978692 -0.0233179 0.0609376
vt 0.4679034 -3.9221110
v 1.9671160 0.8377500 0.0794452
vn 0.9977299 -0.0248479 0.0625908
vt 0.4269837 -3.9221110
v 1.5365289 0.9312505 0.5106210
vn 0.6492939 0.1588969 0.7437535
vt 0.8467221 -3.9221110
v 1.9626160 0.8491358 0.1561915
vn 0.6557866 0.1438521 0.7411144
vt 0.4679034 -3.9221110
v 2.0028861 1.4697332 0.0015928
vn -0.6395350 0.0025294 -0.7687578
vt 0.4269837 -4.2640481
v 1.4882621 1.4686673 0.4297085
vn -0.6416515 -0.0074609 -0.7669601
vt 0.0513518 -4.2640481
v 1.5507669 2.1353593 0.4264167
vn -0.6385959 0.0560818 -0.7674960
vt 0.0513518 -4.6969962
v 2.0653911 2.1364253 -0.0016987
vn -0.6385958 0.0560820 -0.7674962
vt 0.4269837 -4.6969962
v 1.4594440 0.9355873 0.5017399
vn -0.0992551 0.2221027 0.9699582
vt 0.0513518 -3.9221110
v 1.5365289 0.9312505 0.5106210
vn -0.0981179 0.2290449 0.9684582
vt 0.0113794 -3.9221110
v 1.9671160 0.8377500 0.0794452
vn -0.6572904 -0.1434301 -0.7398629
vt 0.4269837 -3.9221110
v 1.4594440 0.9355873 0.5017399
vn -0.6493219 -0.1625300 -0.7429435
vt 0.0513518 -3.9221110
v 1.9530760 0.0565974 0.3091238
vn 0.9978955 -0.0535911 0.0365049
vt 0.4269837 -3.4789982
v 1.9513650 0.0746161 0.3847024
vn 0.9971712 -0.0583350 0.0474004
vt 0.4679034 -3.4789982
v 1.5509180 0.2628274 0.7284067
vn 0.6263911 0.1950673 0.7547073
vt 0.8446057 -3.4789982
v 1.9513650 0.0746161 0.3847024
vn 0.6902655 0.1974706 0.6960884
vt 0.4679034 -3.4789982
v 1.4759530 0.2808464 0.7186386
vn -0.0708405 0.2716584 0.9597830
vt 0.0513518 -3.4789982
v 1.5509180 0.2628274 0.7284067
vn -0.0622801 0.2628447 0.9628260
vt 0.0113794 -3.4789982
v 1.8118401 -0.7401625 0.7567391
vn 0.8906973 -0.0215115 0.4540876
vt 0.4679034 -2.9182661
v 1.8460500 -0.7508433 0.6877804
vn 0.8998550 -0.0102061 0.4360697
vt 0.4269837 -2.9182661
v 1.2858850 -0.6285957 0.9143429
vn -0.4605769 0.1985676 0.8651242
vt 0.0113794 -2.9182661
v 1.2193890 -0.6179144 0.8755607
vn -0.4759925 0.1973585 0.8570186
vt 0.0513518 -2.9182661
v 1.6750070 -1.6656687 0.8731655
vn 0.7280368 0.0281184 0.6849611
vt 0.4269837 -2.2644410
v 1.6213670 -1.6656687 0.9294029
vn 0.7229733 0.0424413 0.6895711
vt 0.4679034 -2.2644410
v 1.0610870 -1.6656687 0.9294024
vn -0.7142522 0.1171859 0.6900082
vt 0.0113794 -2.2644410
v 1.0074470 -1.6656687 0.8731655
vn -0.7184541 0.1169692 0.6856691
vt 0.0513518 -2.2644410
v 1.0074470 -1.6656687 0.8731655
vn -0.0524954 -0.1164838 -0.9918043
vt 0.0513518 -2.2644410
v 1.8460500 -0.7508433 0.6877804
vn -0.3331610 -0.0898788 -0.9385763
vt 0.4269837 -2.9182661
v 1.6750070 -1.6656687 0.8731655
vn 0.0000003 -0.1675591 -0.9858621
vt 0.4269837 -2.2644410
v 1.4759530 0.2808464 0.7186386
vn -0.6167508 -0.1985333 -0.7617106
vt 0.0513518 -3.4789982
v 1.9530760 0.0565974 0.3091238
vn -0.6918744 -0.2112283 -0.6904292
vt 0.4269837 -3.4789982
v 1.6213670 -2.2460399 1.0064040
vn 0.7166573 0.1885256 0.6714615
vt 0.4679034 -1.9203680
v 1.6750070 -2.2574387 0.9524128
vn 0.7164717 0.1833958 0.6730782
vt 0.4269837 -1.9203680
v 1.6213670 -2.2460399 1.0064040
vn -0.0000003 0.2662344 0.9639084
vt 0.4679034 -1.9203680
v 1.6213670 -1.6656687 0.9294029
vn -0.0000011 0.1590646 0.9872681
vt 0.4679034 -2.2644410
v 1.0610870 -1.6656687 0.9294024
vn 0.0459025 0.1191409 0.9918157
vt 0.8446060 -2.2644410
v 1.0610870 -2.2460399 1.0064040
vn -0.0000004 0.2662342 0.9639084
vt 0.8446060 -1.9203680
v 1.0610870 -2.2460399 1.0064040
vn -0.7166563 0.1885260 0.6714624
vt 0.0113794 -1.9203680
v 1.0074470 -2.2574387 0.9524121
vn -0.7164716 0.1833957 0.6730784
vt 0.0513518 -1.9203680
v 1.0074470 -2.2574387 0.9524121
vn 0.0000005 -0.2662599 -0.9639013
vt 0.0513518 -1.9203680
v 1.6750070 -2.2574387 0.9524128
vn 0.0000010 -0.2662599 -0.9639013
vt 0.4269837 -1.9203680
v 1.7201570 1.4691483 0.2381078
vn -0.9288647 0.0890043 0.3595672
vt 0.9953439 -4.2640481
v 1.7826620 2.1358392 0.2348165
vn -0.9135885 0.0876131 0.3970895
vt 0.9953439 -4.6969962
v 1.7341900 2.1334653 0.1238194
vn -0.9153100 0.0869879 0.3932439
vt 0.8989881 -4.6805348
v 1.6805320 1.4579962 0.1377968
vn -0.9310881 0.0883033 0.3539455
vt 0.8989881 -4.2484250
v 1.3082560 -3.0867589 1.0635400
vn -0.9702933 0.1287320 -0.2048387
vt 0.9565737 -1.3964529
v 1.3082560 -2.6562557 1.1238090
vn -0.9719740 0.0325941 -0.2328177
vt 0.9953439 -1.5928431
v 1.3415850 -2.6562557 0.9846671
vn -0.9712642 0.0319845 -0.2358449
vt 0.8989881 -1.6049318
v 1.3415850 -3.0350418 0.9402434
vn -0.9674325 0.1642243 -0.1926259
vt 0.8698211 -1.4270749
v 1.3415850 -3.1148868 0.7877383
vn -0.9603334 0.2656454 -0.0848071
vt 0.8989881 -1.1652999
v 1.3082560 -3.2359197 0.7877383
vn -0.9616470 0.2670542 -0.0625870
vt 0.9953439 -1.1509130
v 1.3082560 -3.0867589 1.0635400
vn -0.9702933 0.1287320 -0.2048387
vt 0.9343620 -1.3929360
v 1.3415850 -3.0350418 0.9402434
vn -0.9674325 0.1642243 -0.1926259
vt 0.8678764 -1.3063190
v 1.3415850 -3.1258848 0.4434006
vn -0.9627956 0.2677287 0.0366897
vt 0.8989881 -0.9430988
v 1.3082560 -3.2395308 0.4044153
vn -0.9621583 0.2679526 0.0495254
vt 0.9953439 -0.9259605
v 1.3415850 -3.1148868 0.7877383
vn -0.9603334 0.2656454 -0.0848071
vt 0.8989881 -1.1503711
v 1.3415850 -3.0830047 0.3173231
vn -0.9645723 0.2279958 0.1327334
vt 0.8989881 -0.8273702
v 1.3082560 -3.1774178 0.2397797
vn -0.9639146 0.2238088 0.1441466
vt 0.9953439 -0.8101845
v 1.3415850 -3.1258848 0.4434006
vn -0.9627956 0.2677287 0.0366897
vt 0.8989881 -0.9242648
v 1.3415850 -2.9987698 0.2262412
vn -0.9667875 0.1253967 0.2227056
vt 0.8989881 -0.7162374
v 1.3082560 -3.0580287 0.1157632
vn -0.9679993 0.1267673 0.2165811
vt 0.9953439 -0.7041118
v 1.3415850 -3.0830047 0.3173231
vn -0.9645723 0.2279958 0.1327334
vt 0.8989881 -0.8013785
v 1.3415850 -2.8885648 0.2032026
vn -0.9710599 0.0347771 0.2362906
vt 0.8989881 -0.6064702
v 1.3082560 -2.8885648 0.0619739
vn -0.9727498 0.0325544 0.2295607
vt 0.9953439 -0.5901659
v 1.3415850 -2.9987698 0.2262412
vn -0.9667875 0.1253967 0.2227056
vt 0.8989881 -0.6844883
v 1.3415850 -2.8885648 0.2032026
vn -0.9710599 0.0347771 0.2362906
vt 0.8989881 -0.5901659
v 1.3415850 3.8624022 0.2031843
vn -0.9732658 0.0000006 0.2296817
vt 0.8989881 3.5186429
v 1.3082560 3.8625202 0.0619557
vn -0.9732658 0.0000006 0.2296817
vt 0.9953439 3.5186429
v 1.3415850 -2.8885648 0.2032026
vn 0.9710602 0.0347768 0.2362896
vt 0.8989881 -0.5901659
v 1.3749130 -2.8885617 0.0619746
vn 0.9727499 0.0325531 0.2295602
vt 0.9953439 -0.5901659
v 1.3749130 3.8625202 0.0619557
vn 0.9732660 0.0000007 0.2296809
vt 0.9953439 3.5186429
v 1.3415850 3.8624022 0.2031843
vn 0.9732660 0.0000007 0.2296809
vt 0.8989881 3.5186429
v 1.3749130 -3.1774178 0.2397797
vn 0.9639153 0.2238065 0.1441451
vt 0.9953439 -0.8101845
v 1.3749130 -3.0580287 0.1157632
vn 0.9679999 0.1267658 0.2165797
vt 0.9953439 -0.7041118
v 1.3415850 -2.9987698 0.2262412
vn 0.9667882 0.1253954 0.2227033
vt 0.8989881 -0.7162374
v 1.3415850 -3.0830047 0.3173231
vn 0.9645731 0.2279935 0.1327320
vt 0.8989881 -0.8013785
v 1.3749130 -3.2395308 0.4044153
vn 0.9621591 0.2679500 0.0495249
vt 0.9953439 -0.9259605
v 1.3415850 -3.0830047 0.3173231
vn 0.9645731 0.2279935 0.1327320
vt 0.8989881 -0.8273702
v 1.3415850 -3.1258848 0.4434006
vn 0.9627963 0.2677260 0.0366894
vt 0.8989881 -0.9242648
v 1.3749130 -3.2359197 0.7877383
vn 0.9616478 0.2670515 -0.0625864
vt 0.9953439 -1.1509130
v 1.3415850 -3.1258848 0.4434006
vn 0.9627963 0.2677260 0.0366894
vt 0.8989881 -0.9430988
v 1.3415850 -3.1148868 0.7877383
vn 0.9603342 0.2656428 -0.0848063
vt 0.8989881 -1.1503711
v 1.3415850 -3.1148868 0.7877383
vn 0.9603342 0.2656428 -0.0848063
vt 0.8989881 -1.1652999
v 1.3415850 -3.0350418 0.9402434
vn 0.9674332 0.1642224 -0.1926241
vt 0.8678763 -1.3063190
v 1.3749130 -3.0867589 1.0635400
vn 0.9702941 0.1287304 -0.2048365
vt 0.9343620 -1.3929360
v 1.3415850 -2.6562557 0.9846671
vn 0.9713027 -0.0388707 -0.2346490
vt 0.8989881 -1.6049318
v 1.3749130 -2.6562557 1.1238090
vn 0.9721367 -0.0270164 -0.2328525
vt 0.9953439 -1.5928431
v 1.3749130 -3.0867589 1.0635400
vn 0.9702941 0.1287304 -0.2048365
vt 0.9565737 -1.3964529
v 1.3415850 -3.0350418 0.9402434
vn 0.9674332 0.1642224 -0.1926241
vt 0.8698211 -1.4270749
v 1.6882060 0.8915007 0.3114494
vn -0.9461321 0.0897211 0.3111016
vt 0.9953439 -3.9221110
v 1.6805320 1.4579962 0.1377968
vn -0.9310881 0.0883033 0.3539455
vt 0.8989881 -4.2640481
v 1.6477129 0.8802221 0.1900490
vn -0.9473696 0.0879582 0.3078218
vt 0.8989881 -3.9221110
v 1.7715430 1.4692552 0.1956505
vn 0.5437735 -0.0940797 -0.8339422
vt 0.9953439 -4.2640481
v 1.6805320 1.4579962 0.1377968
vn 0.5501750 -0.0985343 -0.8292156
vt 0.8989881 -4.2484250
v 1.7341900 2.1334653 0.1238194
vn 0.5635027 -0.0574345 -0.8241153
vt 0.8989881 -4.6805348
v 1.8340480 2.1359463 0.1923593
vn 0.5659363 -0.0571195 -0.8224679
vt 0.9953439 -4.6969962
v 1.7388980 0.8817315 0.2692825
vn 0.6412538 -0.1733975 -0.7474803
vt 0.9953439 -3.9221110
v 1.6477129 0.8802221 0.1900490
vn 0.6486056 -0.1636663 -0.7433197
vt 0.8989881 -3.9221110
v 1.6805320 1.4579962 0.1377968
vn 0.5501750 -0.0985343 -0.8292156
vt 0.8989881 -4.2640481
v 1.6490800 0.1686016 0.4144776
vn -0.9426928 0.0965423 0.3193898
vt 0.8989881 -3.4990072
v 1.6909500 0.1797975 0.5341073
vn -0.9422228 0.0967070 0.3207242
vt 0.9953439 -3.4789982
v 1.6477129 0.8802221 0.1900490
vn -0.9473696 0.0879582 0.3078218
vt 0.8989881 -3.9362411
v 1.7385910 0.1574055 0.4932164
vn 0.6257805 -0.2804512 -0.7278365
vt 0.9953439 -3.4789982
v 1.6490800 0.1686016 0.4144776
vn 0.6180586 -0.2674149 -0.7392516
vt 0.8989881 -3.4990072
v 1.6477129 0.8802221 0.1900490
vn 0.6486056 -0.1636663 -0.7433197
vt 0.8989881 -3.9362411
v 1.5643430 -0.6910869 0.7721950
vn 0.8484234 -0.2484675 -0.4673774
vt 0.9953439 -2.9182661
v 1.5041029 -0.6844501 0.6622993
vn 0.8333383 -0.2597758 -0.4879179
vt 0.8989881 -2.9344001
v 1.6490800 0.1686016 0.4144776
vn 0.6180586 -0.2674149 -0.7392516
vt 0.8989881 -3.4876919
v 1.3749130 -1.6656687 0.8731655
vn 0.9608671 -0.1218891 -0.2487520
vt 0.9953439 -2.2644410
v 1.3415850 -1.6763188 0.7496446
vn 0.9584467 -0.1211289 -0.2582785
vt 0.8989881 -2.2644410
v 1.5041029 -0.6844501 0.6622993
vn 0.8333383 -0.2597758 -0.4879179
vt 0.8989881 -2.9182661
v 1.3749130 -2.2574387 0.9524128
vn 0.9677159 -0.0679455 -0.2427126
vt 0.9953439 -1.9203680
v 1.3749130 -2.6562557 1.1238090
vn 0.9721367 -0.0270164 -0.2328525
vt 0.9779817 -1.6004090
v 1.3415850 -2.6562557 0.9846671
vn 0.9713027 -0.0388707 -0.2346490
vt 0.8815933 -1.6175451
v 1.3415850 -2.2778857 0.8252262
vn 0.9678487 -0.0632577 -0.2434491
vt 0.8989881 -1.9278841
v 1.3415850 -2.8885648 0.2032026
vn 0.9710602 0.0347768 0.2362896
vt 0.8989881 -0.6064702
v 1.3415850 -2.9987698 0.2262412
vn 0.9667882 0.1253954 0.2227033
vt 0.8989881 -0.6844883
v 1.3415850 -1.6763188 0.7496446
vn 0.9584467 -0.1211289 -0.2582785
vt 0.8989881 -2.2666631
v 1.3415850 -2.2778857 0.8252262
vn 0.9678487 -0.0632577 -0.2434491
vt 0.8989881 -1.9181461
v 1.0074470 3.9290712 0.0619554
vn -0.0000000 0.9999995 0.0010165
vt 0.0513517 0.0359547
v 1.6750060 3.9290712 0.0619557
vn -0.0000000 0.9999995 0.0010165
vt 0.4269837 0.0359547
v 1.6213670 3.9291353 -0.0011369
vn -0.0000000 0.9999995 0.0010165
vt 0.3890097 0.0668852
v 1.0610870 3.9291353 -0.0011369
vn 0.0000000 0.9999995 0.0010165
vt 0.0808535 0.0668852
v 2.0600550 2.1367762 0.0789705
vn -0.0060269 0.9999706 -0.0047549
vt 0.3890097 0.0668852
v 2.0653911 2.1364253 -0.0016987
vn -0.0060269 0.9999706 -0.0047549
vt 0.4269837 0.0359547
v 1.5507669 2.1353593 0.4264167
vn -0.0060269 0.9999706 -0.0047549
vt 0.0513517 0.0359547
v 1.5507669 2.1353593 0.4264167
vn -0.0061557 0.9999689 -0.0049438
vt 0.0513517 0.0359547
v 1.6281331 2.1358821 0.4358407
vn -0.0061557 0.9999689 -0.0049438
vt 0.0808535 0.0668852
v 2.0600550 2.1367762 0.0789705
vn -0.0061557 0.9999689 -0.0049438
vt 0.3890097 0.0668852
v 1.8118401 -0.7401625 0.7567391
vn 0.3293124 0.0858493 0.9403102
vt 0.4679034 -2.9182661
v 1.2193890 -0.6179144 0.8755607
vn -0.2887126 -0.0086394 -0.9573768
vt 0.0513518 -2.9182661
v 1.2858850 -0.6285957 0.9143429
vn 0.2921161 0.0266069 0.9560127
vt 0.8446057 -2.9182661

g group_35_140627820991424
f 1/1/1 2/2/2 3/3/3 
f 3/3/3 4/4/4 1/1/1 
f 5/5/5 6/6/6 7/7/7 
f 7/7/7 8/8/8 5/5/5 
f 6/6/6 9/9/9 10/10/10 
f 10/10/10 7/7/7 6/6/6 
f 9/9/9 11/11/11 12/12/12 
f 12/12/12 10/10/10 9/9/9 
f 11/11/11 13/13/13 14/14/14 
f 14/14/14 12/12/12 11/11/11 
f 13/13/13 15/15/15 16/16/16 
f 16/16/16 14/14/14 13/13/13 
f 16/16/16 15/15/15 17/17/17 
f 17/17/17 18/18/18 16/16/16 
f 18/18/18 17/17/17 19/19/19 
f 19/19/19 20/20/20 18/18/18 
f 21/21/21 22/22/22 23/23/23 
f 23/23/23 24/24/24 21/21/21 
f 25/25/25 26/26/26 27/27/27 
f 27/27/27 28/28/28 25/25/25 
f 29/29/29 30/30/30 25/25/25 
f 25/25/25 28/28/28 29/29/29 
f 31/31/31 30/30/30 29/29/29 
f 29/29/29 32/32/32 31/31/31 
f 33/33/33 31/31/31 32/32/32 
f 32/32/32 34/34/34 33/33/33 
f 35/35/35 36/36/36 33/33/33 
f 33/33/33 34/34/34 35/35/35 
f 37/37/37 38/38/38 36/36/36 
f 36/36/36 35/35/35 37/37/37 
f 38/38/38 37/37/37 39/39/39 
f 39/39/39 40/40/40 38/38/38 
f 41/41/41 42/42/42 43/43/43 
f 43/43/43 44/44/44 41/41/41 
f 42/42/42 45/45/45 46/46/46 
f 46/46/46 43/43/43 42/42/42 
f 46/46/46 45/45/45 47/47/47 
f 47/47/47 48/48/48 46/46/46 
f 48/48/48 47/47/47 49/49/49 
f 49/49/49 50/50/50 48/48/48 
f 49/49/49 51/51/51 52/52/52 
f 52/52/52 50/50/50 49/49/49 
f 53/53/53 54/54/54 55/55/55 
f 55/55/55 56/56/56 53/53/53 
f 57/57/57 58/58/58 59/59/59 
f 59/59/59 60/60/60 57/57/57 
f 61/61/61 62/62/62 63/63/63 
f 63/63/63 64/64/64 61/61/61 
f 65/65/65 66/66/66 64/64/64 
f 64/64/64 63/63/63 65/65/65 
f 67/67/67 68/68/68 66/66/66 
f 66/66/66 65/65/65 67/67/67 
f 69/69/69 70/70/70 68/68/68 
f 68/68/68 67/67/67 69/69/69 
f 71/71/71 72/72/72 70/70/70 
f 70/70/70 69/69/69 71/71/71 
f 71/71/71 73/73/73 74/74/74 
f 74/74/74 72/72/72 71/71/71 
f 75/75/75 76/76/76 74/74/74 
f 74/74/74 73/73/73 75/75/75 
f 1/1/1 77/77/77 78/78/78 
f 78/78/78 2/2/2 1/1/1 
f 24/24/24 79/79/79 80/80/80 
f 80/80/80 21/21/21 24/24/24 
f 81/81/81 82/82/82 83/83/83 
f 83/83/83 84/84/84 81/81/81 
f 60/60/60 85/85/85 86/86/86 
f 86/86/86 57/57/57 60/60/60 
f 87/87/87 88/88/88 82/82/82 
f 82/82/82 81/81/81 87/87/87 
f 89/89/89 78/78/78 77/77/77 
f 77/77/77 90/90/90 89/89/89 
f 80/80/80 79/79/79 91/91/91 
f 91/91/91 92/92/92 80/80/80 
f 86/86/86 85/85/85 93/93/93 
f 93/93/93 94/94/94 86/86/86 
f 90/90/90 95/95/95 96/96/96 
f 96/96/96 89/89/89 90/90/90 
f 97/97/97 94/94/94 93/93/93 
f 93/93/93 98/98/98 97/97/97 
f 99/99/99 96/96/96 95/95/95 
f 95/95/95 100/100/100 99/99/99 
f 101/101/101 97/97/97 98/98/98 
f 98/98/98 102/102/102 101/101/101 
f 103/103/103 104/104/104 105/105/105 
f 106/106/106 88/88/88 87/87/87 
f 87/87/87 107/107/107 106/106/106 
f 108/108/108 109/109/109 99/99/99 
f 99/99/99 100/100/100 108/108/108 
f 110/110/110 111/111/111 112/112/112 
f 112/112/112 113/113/113 110/110/110 
f 114/114/114 101/101/101 102/102/102 
f 102/102/102 115/115/115 114/114/114 
f 41/41/41 44/44/44 116/116/116 
f 116/116/116 117/117/117 41/41/41 
f 51/51/51 55/55/55 54/54/54 
f 54/54/54 52/52/52 51/51/51 
f 19/19/19 109/109/109 108/108/108 
f 108/108/108 20/20/20 19/19/19 
f 26/26/26 110/110/110 113/113/113 
f 113/113/113 27/27/27 26/26/26 
f 114/114/114 115/115/115 76/76/76 
f 76/76/76 75/75/75 114/114/114 
f 105/105/105 117/117/117 116/116/116 
f 116/116/116 103/103/103 105/105/105 
f 118/118/118 119/119/119 120/120/120 
f 120/120/120 121/121/121 118/118/118 
f 122/122/122 123/123/123 124/124/124 
f 124/124/124 125/125/125 122/122/122 
f 126/126/126 127/127/127 128/128/128 
f 128/128/128 129/129/129 126/126/126 
f 130/130/130 131/131/131 127/127/127 
f 127/127/127 132/132/132 130/130/130 
f 133/133/133 134/134/134 131/131/131 
f 131/131/131 135/135/135 133/133/133 
f 136/136/136 137/137/137 134/134/134 
f 134/134/134 138/138/138 136/136/136 
f 139/139/139 140/140/140 137/137/137 
f 137/137/137 141/141/141 139/139/139 
f 140/140/140 142/142/142 143/143/143 
f 143/143/143 144/144/144 140/140/140 
f 145/145/145 146/146/146 147/147/147 
f 147/147/147 148/148/148 145/145/145 
f 149/149/149 150/150/150 151/151/151 
f 151/151/151 152/152/152 149/149/149 
f 153/153/153 149/149/149 154/154/154 
f 154/154/154 155/155/155 153/153/153 
f 156/156/156 153/153/153 157/157/157 
f 157/157/157 158/158/158 156/156/156 
f 159/159/159 160/160/160 161/161/161 
f 161/161/161 156/156/156 159/159/159 
f 162/162/162 163/163/163 164/164/164 
f 164/164/164 165/165/165 162/162/162 
f 166/166/166 118/118/118 167/167/167 
f 167/167/167 168/168/168 166/166/166 
f 169/169/169 170/170/170 171/171/171 
f 171/171/171 172/172/172 169/169/169 
f 173/173/173 174/174/174 175/175/175 
f 175/175/175 169/169/169 173/173/173 
f 176/176/176 177/177/177 166/166/166 
f 166/166/166 178/178/178 176/176/176 
f 173/173/173 179/179/179 180/180/180 
f 180/180/180 181/181/181 173/173/173 
f 179/179/179 182/182/182 183/183/183 
f 183/183/183 184/184/184 179/179/179 
f 182/182/182 185/185/185 186/186/186 
f 186/186/186 187/187/187 182/182/182 
f 188/188/188 189/189/189 190/190/190 
f 190/190/190 191/191/191 188/188/188 
f 150/150/150 146/146/146 192/192/192 
f 192/192/192 193/193/193 150/150/150 
f 194/194/194 185/185/185 188/188/188 
f 188/188/188 195/195/195 194/194/194 
f 196/196/196 197/197/197 198/198/198 
f 198/198/198 199/199/199 196/196/196 
f 200/200/200 201/201/201 202/202/202 
f 203/203/203 204/204/204 205/205/205 
f 92/92/92 91/91/91 206/206/206 
f 206/206/206 112/112/112 111/111/111 
f 106/106/106 107/107/107 104/104/104 
f 104/104/104 207/207/207 106/106/106 
f 91/91/91 208/208/208 206/206/206 
f 103/103/103 207/207/207 104/104/104 
f 206/206/206 208/208/208 112/112/112 
