v 1.5619290 -2.8222530 0.9585509
vn 0.1323046 0.0035381 0.9912028
vt 0.4898135 0.9968730
v 1.5619290 -2.6408911 0.8826689
vn 0.1323027 0.7033871 0.6983857
vt 0.5092173 0.9968729
v 1.1738250 -2.8220689 1.0103540
vn 0.1323041 0.0035371 0.9912029
vt 0.4885551 0.9564309
v 1.1738250 -2.6041319 0.9191685
vn 0.1323015 0.7033854 0.6983876
vt 0.5091234 0.9564309
v 1.5619290 -2.5663049 0.7007695
vn 0.1323035 0.9912030 -0.0035334
vt 0.5300834 0.9968728
v 1.1738250 -2.5145030 0.7005847
vn 0.1323022 0.9912032 -0.0035314
vt 0.5297738 0.9564309
v 1.5619290 -2.6421859 0.5194066
vn 0.1323041 0.6983869 -0.7033856
vt 0.5503023 0.9968729
v 1.1738250 -2.6056869 0.4826453
vn 0.1323047 0.6983861 -0.7033864
vt 0.5502798 0.9564312
v 1.5619290 -2.8240860 0.4448202
vn 0.1323043 -0.0035361 -0.9912029
vt 0.5668291 0.9968729
v 1.1738250 -2.8242731 0.3930173
vn 0.1323051 -0.0035395 -0.9912028
vt 0.5701980 0.9564312
v 1.5619290 -3.0054491 0.5207025
vn 0.1323049 -0.7033879 -0.6983845
vt 0.5092173 0.9968729
v 1.1738250 -3.0422111 0.4842028
vn 0.1323063 -0.7033896 -0.6983825
vt 0.5091234 0.9564309
v 1.5619290 -2.8240860 0.4448202
vn 0.1323043 -0.0035361 -0.9912029
vt 0.4898136 0.9968730
v 1.1738250 -2.8242731 0.3930173
vn 0.1323051 -0.0035395 -0.9912028
vt 0.4885551 0.9564309
v 1.5619290 -3.0800350 0.7026022
vn 0.1323025 -0.9912031 0.0035329
vt 0.5300835 0.9968728
v 1.1738250 -3.1318369 0.7027869
vn 0.1323037 -0.9912030 0.0035354
vt 0.5297738 0.9564309
v 1.5619290 -3.0041540 0.8839647
vn 0.1323042 -0.6983881 0.7033845
vt 0.5503023 0.9968729
v 1.1738250 -3.0406530 0.9207259
vn 0.1323039 -0.6983876 0.7033851
vt 0.5502798 0.9564312
v 1.5619290 -2.8222530 0.9585509
vn 0.1323046 0.0035381 0.9912028
vt 0.5668291 0.9968729
v 1.1738250 -2.8220689 1.0103540
vn 0.1323041 0.0035371 0.9912029
vt 0.5701980 0.9564312
v 1.5619290 -2.6421859 0.5194066
vn 1.0000000 0.0000000 0.0000000
vt 0.2087961 0.4405905
v 1.5619290 -2.5663049 0.7007695
vn 1.0000000 0.0000000 0.0000000
vt 0.2088879 0.4574220
v 1.5619290 -2.8240860 0.4448202
vn 1.0000000 0.0000000 0.0000000
vt 0.2206328 0.4286239
v 1.5619290 -3.0054491 0.5207025
vn 1.0000000 0.0000000 0.0000000
vt 0.2374641 0.4285322
v 1.5619290 -3.0800350 0.7026022
vn 1.0000000 0.0000000 0.0000000
vt 0.2494306 0.4403689
v 1.5619290 -3.0041540 0.8839647
vn 1.0000000 0.0000000 0.0000000
vt 0.2495224 0.4572003
v 1.5619290 -2.8222530 0.9585509
vn 1.0000000 0.0000000 0.0000000
vt 0.2376856 0.4691670
v 1.5619290 -2.6408911 0.8826689
vn 1.0000000 0.0000000 0.0000000
vt 0.2208543 0.4692587
v 1.1803290 -3.2141271 0.4759672
vn -0.9940958 -0.0939692 -0.0542527
vt 0.4905006 0.7832994
v 1.1310540 -2.8231709 0.7016858
vn -1.0000000 -0.0000003 -0.0000001
vt 0.4678519 0.8225277
v 1.1803290 -3.0488911 0.3107294
vn -0.9940958 -0.0542531 -0.0939687
vt 0.5070808 0.7998791
v 1.1803290 -3.2746069 0.7016858
vn -0.9940957 -0.1085063 -0.0000000
vt 0.4678520 0.7772304
v 1.1803290 -3.0488911 1.0926430
vn -0.9940958 -0.0542530 0.0939686
vt 0.5071911 0.7998791
v 1.1803290 -2.8231709 1.1531240
vn -0.9940958 0.0000000 0.1085058
vt 0.5132596 0.8225279
v 1.1310540 -2.8231709 0.7016858
vn -1.0000000 -0.0000003 -0.0000001
vt 0.4679625 0.8225277
v 1.1803290 -2.5974519 1.0926430
vn -0.9940959 0.0542526 0.0939689
vt 0.5071909 0.8451763
v 1.1803290 -2.4322131 0.9274049
vn -0.9940959 0.0939685 0.0542527
vt 0.4906111 0.8617564
v 1.1803290 -2.3717320 0.7016857
vn -0.9940959 0.1085056 -0.0000000
vt 0.4679624 0.8678251
v 1.1803290 -2.5974519 0.3107294
vn -0.9940958 0.0542528 -0.0939690
vt 0.5070807 0.8451763
v 1.1803290 -2.4322131 0.4759672
vn -0.9940959 0.0939685 -0.0542528
vt 0.4905005 0.8617564
v 1.1803290 -2.8231709 0.2502481
vn -0.9940958 0.0000000 -0.1085059
vt 0.5131495 0.8225279
v 1.1803290 -3.0488911 0.3107294
vn 0.9940959 -0.0542530 -0.0939685
vt 0.5070808 0.7998791
v 1.2296031 -2.8231709 0.7016858
vn 1.0000000 -0.0000003 -0.0000000
vt 0.4678519 0.8225277
v 1.1803290 -3.2141271 0.4759672
vn 0.9940958 -0.0939690 -0.0542526
vt 0.4905006 0.7832994
v 1.1803290 -3.2746069 0.7016858
vn 0.9940958 -0.1085061 -0.0000000
vt 0.4678520 0.7772304
v 1.2296031 -2.8231709 0.7016858
vn 1.0000000 -0.0000003 -0.0000000
vt 0.4679625 0.8225277
v 1.1803290 -3.0488911 1.0926430
vn 0.9940959 -0.0542528 0.0939684
vt 0.5071911 0.7998791
v 1.1803290 -3.2141271 0.9274050
vn 0.9940958 -0.0939689 0.0542525
vt 0.4906112 0.7832994
v 1.1803290 -2.5974519 1.0926430
vn 0.9940959 0.0542525 0.0939687
vt 0.5071909 0.8451763
v 1.1803290 -2.8231709 1.1531240
vn 0.9940959 0.0000000 0.1085056
vt 0.5132596 0.8225279
v 1.1803290 -2.3717320 0.7016857
vn 0.9940959 0.1085054 -0.0000000
vt 0.4679624 0.8678251
v 1.1803290 -2.4322131 0.9274049
vn 0.9940959 0.0939682 0.0542526
vt 0.4906111 0.8617564
v 1.1803290 -2.5974519 0.3107294
vn 0.9940959 0.0542526 -0.0939687
vt 0.5070807 0.8451763
v 1.1803290 -2.4322131 0.4759672
vn 0.9940959 0.0939682 -0.0542526
vt 0.4905005 0.8617564
v 1.5108640 -2.8215320 1.0081060
vn 0.9992656 0.0002787 0.0383168
vt 0.2288599 0.4779970
v 1.5060320 -2.7400570 1.1201710
vn 0.9991956 0.0081339 0.0392698
vt 0.2198321 0.4897223
v 1.5060320 -2.9066629 1.1207540
vn 0.9992042 -0.0078703 0.0391023
vt 0.2382781 0.4897417
v 1.5108640 -2.6482019 0.9605199
vn 0.9991605 0.0221217 0.0344824
vt 0.2114071 0.4737699
v 1.5060320 -2.5863559 1.0558640
vn 0.9990973 0.0236636 0.0352794
vt 0.2048382 0.4838016
v 1.5060320 -2.4689720 0.9376303
vn 0.9990891 0.0355434 0.0236158
vt 0.1933804 0.4721245
v 1.5108640 -2.5624781 0.8738624
vn 0.9991542 0.0349238 0.0217063
vt 0.2032165 0.4657035
v 1.5060320 -2.4057591 0.7834784
vn 0.9991788 0.0397284 0.0079673
vt 0.1878552 0.4575944
v 1.5108640 -2.5167630 0.7000472
vn 0.9992449 0.0388544 -0.0002088
vt 0.1991648 0.4488838
v 1.5060320 -2.4063599 0.6168691
vn 0.9991791 0.0396590 -0.0082730
vt 0.1878080 0.4401867
v 1.5108640 -2.5643370 0.5267274
vn 0.9991531 0.0346936 -0.0221224
vt 0.2035334 0.4319544
v 1.5060320 -2.4706621 0.4631763
vn 0.9990912 0.0353381 -0.0238332
vt 0.1937833 0.4255089
v 1.5108640 -2.6509981 0.4409853
vn 0.9991610 0.0217598 -0.0346954
vt 0.2117160 0.4238894
v 1.5060320 -2.5888910 0.3457828
vn 0.9990979 0.0234399 -0.0354130
vt 0.2051097 0.4138602
v 1.5060320 -2.7430451 0.2825789
vn 0.9991960 0.0078288 -0.0393208
vt 0.2199008 0.4079941
v 1.5108640 -2.8248179 0.3952767
vn 0.9992663 -0.0001373 -0.0382992
vt 0.2291110 0.4197865
v 1.5060320 -2.9096429 0.2831819
vn 0.9992051 -0.0081661 -0.0390184
vt 0.2386809 0.4080084
v 1.5108640 -2.9981451 0.4428611
vn 0.9991867 -0.0216456 -0.0340218
vt 0.2468134 0.4239374
v 1.5060320 -3.0633450 0.3474879
vn 0.9991275 -0.0233659 -0.0346164
vt 0.2538995 0.4138430
v 1.5108640 -3.0838690 0.5295208
vn 0.9991941 -0.0340330 -0.0212853
vt 0.2549327 0.4320201
v 1.5060320 -3.1807289 0.4657048
vn 0.9991336 -0.0346929 -0.0229878
vt 0.2650650 0.4256022
v 1.5060320 -3.2439401 0.6198655
vn 0.9992208 -0.0387026 -0.0077361
vt 0.2708749 0.4401260
v 1.5108640 -3.1295891 0.7033458
vn 0.9992863 -0.0377737 0.0002054
vt 0.2590222 0.4488345
v 1.5060320 -3.2433479 0.7864665
vn 0.9992208 -0.0386427 0.0080306
vt 0.2706743 0.4575569
v 1.5108640 -3.0820160 0.8766544
vn 0.9991935 -0.0338224 0.0216420
vt 0.2547521 0.4657566
v 1.5060320 -3.1790431 0.9401578
vn 0.9991331 -0.0345649 0.0232056
vt 0.2647940 0.4722340
v 1.5060320 -3.0608070 1.0575520
vn 0.9991251 -0.0231599 0.0348244
vt 0.2535709 0.4838508
v 1.5108640 -2.9953539 0.9623979
vn 0.9991874 -0.0212383 0.0342580
vt 0.2465764 0.4738535
v 1.4631550 -2.6482019 0.9605199
vn 0.0000000 -0.5049971 -0.8631211
vt 0.4362067 0.2735562
v 1.5108640 -2.6482019 0.9605199
vn -0.0000012 -0.5049967 -0.8631213
vt 0.4308550 0.2735562
v 1.4631550 -2.8215289 1.0081060
vn -0.0000121 -0.2647481 -0.9643177
vt 0.4362067 0.2623414
v 1.5108640 -2.8215320 1.0081060
vn -0.0000146 -0.2647475 -0.9643178
vt 0.4308550 0.2623414
v 1.4631550 -2.5624781 0.8738624
vn 0.0000000 -0.8685215 -0.4956516
vt 0.4362067 0.2847709
v 1.5108640 -2.5624781 0.8738624
vn -0.0000007 -0.8685216 -0.4956515
vt 0.4308550 0.2847709
v 1.4631550 -2.5167630 0.7000487
vn -0.0000069 -0.9671104 -0.2543571
vt 0.4362067 0.2959856
v 1.5108640 -2.5167630 0.7000472
vn -0.0000083 -0.9671105 -0.2543567
vt 0.4308550 0.2959856
v 1.4631550 -2.5167630 0.7000487
vn 0.0000087 -0.9643335 0.2646903
vt 0.4308517 0.2960062
v 1.4631550 -2.5643370 0.5267280
vn 0.0000074 -0.8631585 0.5049331
vt 0.4308517 0.2847778
v 1.5108640 -2.5167630 0.7000472
vn 0.0000079 -0.9643334 0.2646905
vt 0.4362098 0.2960062
v 1.5108640 -2.5643370 0.5267274
vn 0.0000057 -0.8631563 0.5049370
vt 0.4362098 0.2847778
v 1.4631550 -2.6509981 0.4409853
vn 0.0000012 -0.4956686 0.8685117
vt 0.4308517 0.2735492
v 1.5108640 -2.6509981 0.4409853
vn 0.0000000 -0.4956682 0.8685120
vt 0.4362098 0.2735492
v 1.4631550 -2.8248179 0.3952767
vn 0.0000000 -0.2543199 0.9671202
vt 0.4308517 0.2623207
v 1.5108640 -2.8248179 0.3952767
vn 0.0000000 -0.2543199 0.9671202
vt 0.4362098 0.2623207
v 1.4631550 -2.8248179 0.3952767
vn 0.0000000 0.2647403 0.9643198
vt 0.4308503 0.2960155
v 1.4631550 -2.9981451 0.4428611
vn 0.0000000 0.5050004 0.8631192
vt 0.4308503 0.2847808
v 1.5108640 -2.8248179 0.3952767
vn 0.0000000 0.2647404 0.9643197
vt 0.4362112 0.2960155
v 1.5108640 -2.9981451 0.4428611
vn 0.0000012 0.5049999 0.8631194
vt 0.4362112 0.2847808
v 1.4631550 -3.0838690 0.5295214
vn 0.0000056 0.8685228 0.4956492
vt 0.4308503 0.2735460
v 1.5108640 -3.0838690 0.5295208
vn 0.0000065 0.8685207 0.4956529
vt 0.4362112 0.2735460
v 1.4631550 -3.1295891 0.7033458
vn 0.0000006 0.9671065 0.2543721
vt 0.4308503 0.2623113
v 1.5108640 -3.1295891 0.7033458
vn 0.0000000 0.9671065 0.2543719
vt 0.4362112 0.2623113
v 1.4631550 -3.0820110 0.8766544
vn 0.0000893 0.8631448 -0.5049567
vt 0.4362081 0.2735528
v 1.5108640 -3.0820160 0.8766544
vn 0.0000897 0.8631537 -0.5049413
vt 0.4308535 0.2735528
v 1.4631550 -3.1295891 0.7033458
vn 0.0000183 0.9643281 -0.2647098
vt 0.4362081 0.2623316
v 1.5108640 -3.1295891 0.7033458
vn 0.0000000 0.9643294 -0.2647051
vt 0.4308535 0.2623316
v 1.4631550 -2.9953539 0.9623979
vn 0.0000000 0.4956821 -0.8685040
vt 0.4362081 0.2847741
v 1.5108640 -2.9953539 0.9623979
vn 0.0000111 0.4956791 -0.8685058
vt 0.4308535 0.2847741
v 1.4631550 -2.8215289 1.0081060
vn 0.0000117 0.2543151 -0.9671215
vt 0.4362081 0.2959954
v 1.5108640 -2.8215320 1.0081060
vn 0.0000140 0.2543157 -0.9671213
vt 0.4308535 0.2959954
v 1.4631550 -2.8215289 1.0081060
vn -0.9470204 0.0023279 0.3211652
vt 0.2752424 0.5548536
v 1.5060320 -2.9066629 1.1207540
vn -0.9424022 -0.0658210 0.3279415
vt 0.2667715 0.5663913
v 1.5060320 -2.7400570 1.1201710
vn -0.9418306 0.0679912 0.3291389
vt 0.2832993 0.5663723
v 1.4631550 -2.6482019 0.9605199
vn -0.9399464 0.1838379 0.2875840
vt 0.2920744 0.5505227
v 1.5060320 -2.5863559 1.0558640
vn -0.9356103 0.1966849 0.2931696
vt 0.2983168 0.5600843
v 1.4631550 -2.5624781 0.8738624
vn -0.9395425 0.2910760 0.1803737
vt 0.3001163 0.5422277
v 1.5060320 -2.4689720 0.9376303
vn -0.9350765 0.2952348 0.1961339
vt 0.3096142 0.5485745
v 1.4631550 -2.5167630 0.7000487
vn -0.9456587 0.3251560 -0.0017529
vt 0.3045132 0.5251154
v 1.5060320 -2.4057591 0.7834784
vn -0.9407088 0.3326300 0.0665158
vt 0.3157380 0.5334042
v 1.5060320 -2.4063599 0.6168691
vn -0.9407309 0.3320474 -0.0690642
vt 0.3157846 0.5168483
v 1.4631550 -2.5643370 0.5267280
vn -0.9394659 0.2891689 -0.1838077
vt 0.3002355 0.5078575
v 1.5060320 -2.4706621 0.4631763
vn -0.9352185 0.2935554 -0.1979691
vt 0.3097704 0.5016989
v 1.4631550 -2.6509981 0.4409853
vn -0.9399826 0.1808375 -0.2893625
vt 0.2923240 0.4996495
v 1.5060320 -2.5888910 0.3457828
vn -0.9356458 0.1948165 -0.2943019
vt 0.2985864 0.4901652
v 1.4631550 -2.8248179 0.3952767
vn -0.9470668 -0.0011724 -0.3210347
vt 0.2751475 0.4957152
v 1.5060320 -2.7430451 0.2825789
vn -0.9418561 0.0654477 -0.3295811
vt 0.2834027 0.4838241
v 1.5060320 -2.9096429 0.2831819
vn -0.9424658 -0.0682941 -0.3272523
vt 0.2664128 0.4838503
v 1.4631550 -2.9981451 0.4428611
vn -0.9416485 -0.1803024 -0.2842342
vt 0.2578199 0.4997650
v 1.5060320 -3.0633450 0.3474879
vn -0.9375719 -0.1945642 -0.2882774
vt 0.2512752 0.4902343
v 1.4631550 -3.0838690 0.5295214
vn -0.9421335 -0.2844915 -0.1773386
vt 0.2499696 0.5080336
v 1.5060320 -3.1807289 0.4657048
vn -0.9379683 -0.2890268 -0.1915179
vt 0.2401547 0.5018084
v 1.4631550 -3.1295891 0.7033458
vn -0.9483865 -0.3171121 0.0017328
vt 0.2458349 0.5252244
v 1.5060320 -3.2439401 0.6198655
vn -0.9435140 -0.3249377 -0.0647828
vt 0.2341926 0.5169538
v 1.5060320 -3.2433479 0.7864665
vn -0.9435187 -0.3244233 0.0672467
vt 0.2342838 0.5335450
v 1.4631550 -3.0820110 0.8766544
vn -0.9421035 -0.2827241 0.1803000
vt 0.2503028 0.5423777
v 1.5060320 -3.1790431 0.9401578
vn -0.9379334 -0.2879290 0.1933337
vt 0.2404438 0.5486658
v 1.4631550 -2.9953539 0.9623979
vn -0.9416976 -0.1769302 0.2861841
vt 0.2583870 0.5506253
v 1.5060320 -3.0608070 1.0575520
vn -0.9374102 -0.1928145 0.2899735
vt 0.2517576 0.5601425
v 1.1803290 -3.2746069 0.7016858
vn 0.9940958 -0.1085061 -0.0000000
vt 0.4679625 0.7772304
v 1.1803290 -2.3717320 0.7016857
vn 0.9940959 0.1085054 -0.0000000
vt 0.4678519 0.8678251
v 1.1803290 -2.8231709 0.2502481
vn 0.9940959 0.0000000 -0.1085056
vt 0.5131495 0.8225279
v 1.1803290 -2.3717320 0.7016857
vn -0.9940959 0.1085056 -0.0000000
vt 0.4678519 0.8678251
v 1.1803290 -3.2141271 0.9274050
vn -0.9940958 -0.0939692 0.0542526
vt 0.4906112 0.7832994
v 1.1803290 -3.2746069 0.7016858
vn -0.9940957 -0.1085063 -0.0000000
vt 0.4679625 0.7772304
v 1.4870090 -2.4222641 0.7791939
vn 0.9810812 0.1935938 -0.0010558
vt 0.1906038 0.4567773
v 1.5213010 -2.5961151 0.7659652
vn 0.9810811 0.1935945 -0.0010550
vt 0.2076746 0.4556659
v 1.4870090 -2.4231329 0.6198926
vn 0.9810811 0.1935943 -0.0010552
vt 0.1906824 0.4406252
v 1.5213010 -2.5968339 0.6339366
vn 0.9810810 0.1935950 -0.0010544
vt 0.2076746 0.4421042
v 1.4870090 -2.4231329 0.6198926
vn -0.9579657 0.1129288 -0.2637214
vt 0.4329950 0.2878146
v 1.5213010 -2.5968339 0.6339366
vn -0.6404442 -0.1866656 -0.7449747
vt 0.4374841 0.3030931
v 1.4444979 -2.5967889 0.6999511
vn -0.9953821 -0.0959884 -0.0007573
vt 0.4296678 0.3030931
v 1.4870090 -2.4222641 0.7791939
vn -0.9580844 0.1140421 0.2628093
vt 0.3132950 0.5318812
v 1.4870090 -2.4231329 0.6198926
vn -0.9579657 0.1129288 -0.2637214
vt 0.3133165 0.5145448
v 1.4444979 -2.5967889 0.6999511
vn -0.9953821 -0.0959884 -0.0007573
vt 0.2948048 0.5250354
v 1.4870090 -2.4222641 0.7791939
vn -0.9580844 0.1140421 0.2628093
vt 0.4339634 0.2877684
v 1.4444979 -2.5967889 0.6999511
vn -0.9953821 -0.0959884 -0.0007573
vt 0.4374794 0.3030638
v 1.5213010 -2.5961151 0.7659652
vn -0.6399036 -0.1830090 0.7463452
vt 0.4296726 0.3030638
v 1.4870090 -2.7456579 0.3007884
vn 0.9806195 -0.0010384 -0.1959192
vt 0.2174676 0.4109838
v 1.5213680 -2.7589431 0.4728339
vn 0.9806207 -0.0010457 -0.1959132
vt 0.2218825 0.4284924
v 1.4870090 -2.9049850 0.3016329
vn 0.9806204 -0.0010441 -0.1959145
vt 0.2345676 0.4110042
v 1.5213701 -2.8910420 0.4735534
vn 0.9806218 -0.0010521 -0.1959079
vt 0.2363445 0.4285098
v 1.4870090 -2.9049850 0.3016329
vn -0.9571283 -0.2665802 -0.1133155
vt 0.4329816 0.2876397
v 1.5213701 -2.8910420 0.4735534
vn -0.6395642 -0.7453256 0.1882751
vt 0.4374863 0.3031065
v 1.4443790 -2.8249850 0.4735131
vn -0.9954395 -0.0008887 0.0953915
vt 0.4296657 0.3031065
v 1.4870090 -2.7456579 0.3007884
vn -0.9572546 0.2657406 -0.1142167
vt 0.2855378 0.4864184
v 1.4870090 -2.9049850 0.3016329
vn -0.9571283 -0.2665802 -0.1133155
vt 0.2660839 0.4864152
v 1.4443790 -2.8249850 0.4735131
vn -0.9954395 -0.0008887 0.0953915
vt 0.2751468 0.5057791
v 1.4870090 -2.7456579 0.3007884
vn -0.9572546 0.2657406 -0.1142167
vt 0.4330148 0.2705930
v 1.4443790 -2.8249850 0.4735131
vn -0.9954395 -0.0008887 0.0953915
vt 0.4296374 0.2553539
v 1.5213680 -2.7589431 0.4728339
vn -0.6388674 0.7466810 0.1852457
vt 0.4374534 0.2553539
v 1.4870090 -3.2240880 0.6241893
vn 0.9818563 -0.1896235 0.0010329
vt 0.2677035 0.4412907
v 1.5208240 -3.0489280 0.6370662
vn 0.9818556 -0.1896274 0.0010281
vt 0.2506462 0.4420453
v 1.4870090 -3.2232201 0.7835177
vn 0.9818558 -0.1896265 0.0010293
vt 0.2676058 0.4574042
v 1.5208240 -3.0482171 0.7686356
vn 0.9818550 -0.1896307 0.0010240
vt 0.2506462 0.4554507
v 1.4870090 -3.2232201 0.7835177
vn -0.9598722 -0.1095101 0.2581722
vt 0.4339775 0.2702785
v 1.5208240 -3.0482171 0.7686356
vn -0.6454335 0.1876760 0.7404007
vt 0.4296399 0.2553693
v 1.4453490 -3.0482421 0.7028475
vn -0.9952460 0.0973909 -0.0006733
vt 0.4374510 0.2553693
v 1.4453490 -3.0482421 0.7028475
vn -0.9952460 0.0973909 -0.0006733
vt 0.2555547 0.5250359
v 1.4870090 -3.2240880 0.6241893
vn -0.9598622 -0.1124763 -0.2569312
vt 0.2368504 0.5196313
v 1.4870090 -3.2232201 0.7835177
vn -0.9598722 -0.1095101 0.2581722
vt 0.2369244 0.5368742
v 1.4870090 -3.2240880 0.6241893
vn -0.9598622 -0.1124763 -0.2569312
vt 0.4330503 0.2702637
v 1.4453490 -3.0482421 0.7028475
vn -0.9952460 0.0973909 -0.0006733
vt 0.4296352 0.2553406
v 1.5208240 -3.0489280 0.6370662
vn -0.6454746 0.1791917 -0.7424642
vt 0.4374555 0.2553406
v 1.4870090 -2.7413640 1.1017489
vn 0.9788796 0.0010862 0.2044346
vt 0.2190785 0.4865014
v 1.4870090 -2.9006870 1.1025950
vn 0.9788802 0.0010831 0.2044320
vt 0.2363826 0.4865017
v 1.5223640 -2.7556360 0.9325405
vn 0.9788803 0.0010823 0.2044314
vt 0.2215397 0.4696935
v 1.5223640 -2.8887100 0.9332427
vn 0.9788809 0.0010788 0.2044286
vt 0.2362605 0.4696935
v 1.5223640 -2.7556360 0.9325405
vn -0.6285383 0.7529796 -0.1948367
vt 0.4296422 0.2553832
v 1.4426150 -2.8221731 0.9326634
vn -0.9957586 -0.0010920 -0.0919978
vt 0.4374486 0.2553832
v 1.4870090 -2.7413640 1.1017489
vn -0.9531499 0.2789889 0.1169210
vt 0.4340549 0.2708662
v 1.4870090 -2.7413640 1.1017489
vn -0.9531499 0.2789889 0.1169210
vt 0.2847391 0.5628415
v 1.4426150 -2.8221731 0.9326634
vn -0.9957586 -0.0010920 -0.0919978
vt 0.2751898 0.5462283
v 1.4870090 -2.9006870 1.1025950
vn -0.9530889 -0.2775636 0.1207483
vt 0.2673943 0.5628421
v 1.4870090 -2.9006870 1.1025950
vn -0.9530889 -0.2775636 0.1207483
vt 0.4340166 0.2873384
v 1.4426150 -2.8221731 0.9326634
vn -0.9957586 -0.0010920 -0.0919978
vt 0.4374815 0.3030777
v 1.5223640 -2.8887100 0.9332427
vn -0.6288260 -0.7552925 -0.1846923
vt 0.4296703 0.3030777

g group_3_140627763890272
f 1/1/1 2/2/2 3/3/3 
f 2/2/2 4/4/4 3/3/3 
f 5/5/5 6/6/6 2/2/2 
f 6/6/6 4/4/4 2/2/2 
f 7/7/7 8/8/8 5/5/5 
f 8/8/8 6/6/6 5/5/5 
f 9/9/9 10/10/10 7/7/7 
f 10/10/10 8/8/8 7/7/7 
f 11/11/11 12/12/12 13/13/13 
f 12/12/12 14/14/14 13/13/13 
f 15/15/15 16/16/16 11/11/11 
f 16/16/16 12/12/12 11/11/11 
f 17/17/17 18/18/18 15/15/15 
f 18/18/18 16/16/16 15/15/15 
f 19/19/19 20/20/20 17/17/17 
f 20/20/20 18/18/18 17/17/17 
f 21/21/21 22/22/22 23/23/23 
f 23/23/23 22/22/22 24/24/24 
f 24/24/24 22/22/22 25/25/25 
f 25/25/25 22/22/22 26/26/26 
f 26/26/26 22/22/22 27/27/27 
f 27/27/27 22/22/22 28/28/28 
f 29/29/29 30/30/30 31/31/31 
f 32/32/32 30/30/30 29/29/29 
f 33/33/33 34/34/34 35/35/35 
f 36/36/36 37/37/37 35/35/35 
f 38/38/38 35/35/35 37/37/37 
f 39/39/39 30/30/30 40/40/40 
f 41/41/41 31/31/31 30/30/30 
f 42/42/42 43/43/43 44/44/44 
f 43/43/43 45/45/45 44/44/44 
f 46/46/46 47/47/47 48/48/48 
f 46/46/46 49/49/49 50/50/50 
f 46/46/46 51/51/51 52/52/52 
f 43/43/43 53/53/53 54/54/54 
f 55/55/55 56/56/56 57/57/57 
f 55/55/55 58/58/58 56/56/56 
f 58/58/58 59/59/59 56/56/56 
f 59/59/59 58/58/58 60/60/60 
f 58/58/58 61/61/61 60/60/60 
f 60/60/60 61/61/61 62/62/62 
f 61/61/61 63/63/63 62/62/62 
f 63/63/63 64/64/64 62/62/62 
f 63/63/63 65/65/65 64/64/64 
f 65/65/65 66/66/66 64/64/64 
f 65/65/65 67/67/67 66/66/66 
f 67/67/67 68/68/68 66/66/66 
f 68/68/68 67/67/67 69/69/69 
f 67/67/67 70/70/70 69/69/69 
f 70/70/70 71/71/71 69/69/69 
f 70/70/70 72/72/72 71/71/71 
f 72/72/72 73/73/73 71/71/71 
f 72/72/72 74/74/74 73/73/73 
f 74/74/74 75/75/75 73/73/73 
f 75/75/75 74/74/74 76/76/76 
f 74/74/74 77/77/77 76/76/76 
f 77/77/77 78/78/78 76/76/76 
f 77/77/77 79/79/79 78/78/78 
f 79/79/79 80/80/80 78/78/78 
f 80/80/80 79/79/79 81/81/81 
f 79/79/79 82/82/82 81/81/81 
f 81/81/81 82/82/82 57/57/57 
f 82/82/82 55/55/55 57/57/57 
f 83/83/83 84/84/84 85/85/85 
f 84/84/84 86/86/86 85/85/85 
f 83/83/83 87/87/87 84/84/84 
f 87/87/87 88/88/88 84/84/84 
f 87/87/87 89/89/89 88/88/88 
f 89/89/89 90/90/90 88/88/88 
f 91/91/91 92/92/92 93/93/93 
f 92/92/92 94/94/94 93/93/93 
f 92/92/92 95/95/95 94/94/94 
f 95/95/95 96/96/96 94/94/94 
f 95/95/95 97/97/97 96/96/96 
f 97/97/97 98/98/98 96/96/96 
f 99/99/99 100/100/100 101/101/101 
f 100/100/100 102/102/102 101/101/101 
f 100/100/100 103/103/103 102/102/102 
f 103/103/103 104/104/104 102/102/102 
f 103/103/103 105/105/105 104/104/104 
f 105/105/105 106/106/106 104/104/104 
f 107/107/107 108/108/108 109/109/109 
f 108/108/108 110/110/110 109/109/109 
f 111/111/111 112/112/112 107/107/107 
f 112/112/112 108/108/108 107/107/107 
f 111/111/111 113/113/113 112/112/112 
f 113/113/113 114/114/114 112/112/112 
f 115/115/115 116/116/116 117/117/117 
f 115/115/115 117/117/117 118/118/118 
f 117/117/117 119/119/119 118/118/118 
f 120/120/120 118/118/118 121/121/121 
f 118/118/118 119/119/119 121/121/121 
f 122/122/122 120/120/120 123/123/123 
f 120/120/120 121/121/121 123/123/123 
f 122/122/122 123/123/123 124/124/124 
f 122/122/122 124/124/124 125/125/125 
f 124/124/124 126/126/126 125/125/125 
f 125/125/125 126/126/126 127/127/127 
f 126/126/126 128/128/128 127/127/127 
f 129/129/129 127/127/127 130/130/130 
f 127/127/127 128/128/128 130/130/130 
f 129/129/129 130/130/130 131/131/131 
f 129/129/129 131/131/131 132/132/132 
f 131/131/131 133/133/133 132/132/132 
f 132/132/132 133/133/133 134/134/134 
f 133/133/133 135/135/135 134/134/134 
f 136/136/136 134/134/134 137/137/137 
f 134/134/134 135/135/135 137/137/137 
f 136/136/136 137/137/137 138/138/138 
f 136/136/136 138/138/138 139/139/139 
f 138/138/138 140/140/140 139/139/139 
f 141/141/141 139/139/139 142/142/142 
f 139/139/139 140/140/140 142/142/142 
f 115/115/115 141/141/141 116/116/116 
f 141/141/141 142/142/142 116/116/116 
f 46/46/46 48/48/48 143/143/143 
f 46/46/46 50/50/50 47/47/47 
f 46/46/46 52/52/52 49/49/49 
f 43/43/43 54/54/54 144/144/144 
f 43/43/43 145/145/145 53/53/53 
f 42/42/42 145/145/145 43/43/43 
f 36/36/36 35/35/35 34/34/34 
f 146/146/146 40/40/40 30/30/30 
f 33/33/33 35/35/35 147/147/147 
f 148/148/148 147/147/147 35/35/35 
f 41/41/41 30/30/30 39/39/39 
f 149/149/149 150/150/150 151/151/151 
f 150/150/150 152/152/152 151/151/151 
f 153/153/153 154/154/154 155/155/155 
f 156/156/156 157/157/157 158/158/158 
f 159/159/159 160/160/160 161/161/161 
f 162/162/162 163/163/163 164/164/164 
f 163/163/163 165/165/165 164/164/164 
f 166/166/166 167/167/167 168/168/168 
f 169/169/169 170/170/170 171/171/171 
f 172/172/172 173/173/173 174/174/174 
f 175/175/175 176/176/176 177/177/177 
f 176/176/176 178/178/178 177/177/177 
f 179/179/179 180/180/180 181/181/181 
f 182/182/182 183/183/183 184/184/184 
f 185/185/185 186/186/186 187/187/187 
f 188/188/188 189/189/189 190/190/190 
f 189/189/189 191/191/191 190/190/190 
f 192/192/192 193/193/193 194/194/194 
f 195/195/195 196/196/196 197/197/197 
f 198/198/198 199/199/199 200/200/200 
