v 1.2247360 -1.0012970 0.1198604
vn -1.0000000 0.0000000 0.0000000
vt 0.2013326 0.9356387
v 1.2247360 -1.2179060 0.0494801
vn -1.0000000 0.0000000 0.0000000
vt 0.2217170 0.9290153
v 1.2247360 -0.8674242 0.3041185
vn -1.0000000 0.0000000 0.0000000
vt 0.1887346 0.9529784
v 1.2247360 -0.8674241 0.5318738
vn -1.0000000 0.0000000 0.0000000
vt 0.1887346 0.9744119
v 1.2247360 -1.0012970 0.7161321
vn -1.0000000 0.0000000 0.0000000
vt 0.2013326 0.9917518
v 1.2247360 -1.2179060 0.7865121
vn -1.0000000 0.0000000 0.0000000
vt 0.2217170 0.9983752
v 1.2247360 -1.4345130 0.7161322
vn -1.0000000 0.0000000 0.0000000
vt 0.2421014 0.9917518
v 1.2247360 -1.5683850 0.5318739
vn -1.0000000 0.0000000 0.0000000
vt 0.2546996 0.9744119
v 1.2247360 -1.5683850 0.3041185
vn -1.0000000 0.0000000 0.0000000
vt 0.2546996 0.9529784
v 1.2247360 -1.4345130 0.1198604
vn -1.0000000 0.0000000 0.0000000
vt 0.2421014 0.9356387
v 1.4411430 -1.2179060 0.0494801
vn 1.0000000 0.0000000 0.0000000
vt 0.2129069 0.5635935
v 1.4411430 -1.0012970 0.1198604
vn 1.0000000 0.0000000 0.0000000
vt 0.2349753 0.5707641
v 1.4411430 -1.4345130 0.1198604
vn 1.0000000 0.0000000 0.0000000
vt 0.1908386 0.5707641
v 1.4411430 -1.5683850 0.3041185
vn 1.0000000 0.0000000 0.0000000
vt 0.1771995 0.5895367
v 1.4411430 -1.5683850 0.5318739
vn 1.0000000 0.0000000 0.0000000
vt 0.1771995 0.6127408
v 1.4411430 -1.4345130 0.7161322
vn 1.0000000 0.0000000 0.0000000
vt 0.1908386 0.6315131
v 1.4411430 -1.2179060 0.7865121
vn 1.0000000 0.0000000 0.0000000
vt 0.2129069 0.6386837
v 1.4411430 -1.0012970 0.7161321
vn 1.0000000 0.0000000 0.0000000
vt 0.2349753 0.6315131
v 1.4411430 -0.8674241 0.5318738
vn 1.0000000 0.0000000 0.0000000
vt 0.2486145 0.6127408
v 1.4411430 -0.8674242 0.3041185
vn 1.0000000 0.0000000 0.0000000
vt 0.2486145 0.5895367
v 1.2247360 -1.4345130 0.1198604
vn 0.0000000 -0.5877855 -0.8090169
vt 0.0628416 0.6600850
v 1.4411430 -1.4345130 0.1198604
vn 0.0000000 -0.5877855 -0.8090169
vt 0.0628416 0.6860151
v 1.2247360 -1.5683850 0.3041185
vn 0.0000000 -0.9510564 -0.3090175
vt 0.0400429 0.6600850
v 1.4411430 -1.5683850 0.3041185
vn 0.0000000 -0.9510564 -0.3090175
vt 0.0400429 0.6860151
v 1.2247360 -1.5683850 0.3041185
vn 0.0000000 -0.9510564 -0.3090175
vt 0.0856400 0.6600850
v 1.4411430 -1.5683850 0.3041185
vn 0.0000000 -0.9510564 -0.3090175
vt 0.0856400 0.6860151
v 1.2247360 -1.5683850 0.5318739
vn 0.0000000 -0.9510564 0.3090175
vt 0.0628416 0.6600850
v 1.4411430 -1.5683850 0.5318739
vn 0.0000000 -0.9510564 0.3090176
vt 0.0628416 0.6860151
v 1.2247360 -1.4345130 0.7161322
vn 0.0000000 -0.5877848 0.8090173
vt 0.0400429 0.6600850
v 1.4411430 -1.4345130 0.7161322
vn 0.0000000 -0.5877848 0.8090173
vt 0.0400429 0.6860149
v 1.2247360 -1.4345130 0.7161322
vn 0.0000000 -0.5877848 0.8090173
vt 0.0856400 0.6600850
v 1.4411430 -1.4345130 0.7161322
vn 0.0000000 -0.5877848 0.8090173
vt 0.0856400 0.6860151
v 1.2247360 -1.2179060 0.7865121
vn 0.0000000 -0.0000011 1.0000000
vt 0.0628416 0.6600850
v 1.4411430 -1.2179060 0.7865121
vn 0.0000000 -0.0000012 1.0000000
vt 0.0628416 0.6860151
v 1.2247360 -1.0012970 0.7161321
vn 0.0000000 0.5877825 0.8090190
vt 0.0400429 0.6600850
v 1.4411430 -1.0012970 0.7161321
vn 0.0000000 0.5877825 0.8090190
vt 0.0400429 0.6860151
v 1.2247360 -1.0012970 0.7161321
vn 0.0000000 0.5877825 0.8090190
vt 0.0856400 0.6600850
v 1.4411430 -1.0012970 0.7161321
vn 0.0000000 0.5877825 0.8090190
vt 0.0856400 0.6860151
v 1.2247360 -0.8674241 0.5318738
vn 0.0000000 0.9510559 0.3090190
vt 0.0628416 0.6600850
v 1.4411430 -0.8674241 0.5318738
vn 0.0000000 0.9510559 0.3090190
vt 0.0628416 0.6860151
v 1.2247360 -0.8674242 0.3041185
vn 0.0000000 0.9510557 -0.3090196
vt 0.0400429 0.6600850
v 1.4411430 -0.8674242 0.3041185
vn 0.0000000 0.9510557 -0.3090196
vt 0.0400429 0.6860149
v 1.2247360 -0.8674242 0.3041185
vn 0.0000000 0.9510557 -0.3090196
vt 0.0856400 0.6600850
v 1.4411430 -0.8674242 0.3041185
vn 0.0000000 0.9510557 -0.3090196
vt 0.0856400 0.6860154
v 1.2247360 -1.0012970 0.1198604
vn 0.0000000 0.5877827 -0.8090189
vt 0.0628416 0.6600850
v 1.4411430 -1.0012970 0.1198604
vn 0.0000000 0.5877828 -0.8090189
vt 0.0628416 0.6860154
v 1.2247360 -1.2179060 0.0494801
vn 0.0000000 -0.0000013 -1.0000000
vt 0.0400429 0.6600850
v 1.4411430 -1.2179060 0.0494801
vn 0.0000000 -0.0000013 -1.0000000
vt 0.0400429 0.6860154
v 1.2247360 -1.2179060 0.0494801
vn 0.0000000 -0.0000013 -1.0000000
vt 0.0856400 0.6600850
v 1.4411430 -1.2179060 0.0494801
vn 0.0000000 -0.0000013 -1.0000000
vt 0.0856400 0.6860151

g group_51_140627821362416
f 1/1/1 2/2/2 3/3/3 
f 3/3/3 2/2/2 4/4/4 
f 4/4/4 2/2/2 5/5/5 
f 5/5/5 2/2/2 6/6/6 
f 6/6/6 2/2/2 7/7/7 
f 7/7/7 2/2/2 8/8/8 
f 8/8/8 2/2/2 9/9/9 
f 9/9/9 2/2/2 10/10/10 
f 11/11/11 12/12/12 13/13/13 
f 13/13/13 12/12/12 14/14/14 
f 14/14/14 12/12/12 15/15/15 
f 15/15/15 12/12/12 16/16/16 
f 16/16/16 12/12/12 17/17/17 
f 17/17/17 12/12/12 18/18/18 
f 18/18/18 12/12/12 19/19/19 
f 19/19/19 12/12/12 20/20/20 
f 21/21/21 22/22/22 23/23/23 
f 22/22/22 24/24/24 23/23/23 
f 25/25/25 26/26/26 27/27/27 
f 26/26/26 28/28/28 27/27/27 
f 27/27/27 28/28/28 29/29/29 
f 28/28/28 30/30/30 29/29/29 
f 31/31/31 32/32/32 33/33/33 
f 32/32/32 34/34/34 33/33/33 
f 33/33/33 34/34/34 35/35/35 
f 34/34/34 36/36/36 35/35/35 
f 37/37/37 38/38/38 39/39/39 
f 38/38/38 40/40/40 39/39/39 
f 39/39/39 40/40/40 41/41/41 
f 40/40/40 42/42/42 41/41/41 
f 43/43/43 44/44/44 45/45/45 
f 44/44/44 46/46/46 45/45/45 
f 45/45/45 46/46/46 47/47/47 
f 46/46/46 48/48/48 47/47/47 
f 49/49/49 50/50/50 21/21/21 
f 50/50/50 22/22/22 21/21/21 
