v 1.2289129 2.1771619 0.1197549
vn -1.0000000 0.0000000 0.0000000
vt 0.2013326 0.9356387
v 1.2289129 1.9605540 0.0493747
vn -1.0000000 0.0000000 0.0000000
vt 0.2217170 0.9290153
v 1.2289129 2.3110330 0.3040129
vn -1.0000000 0.0000000 0.0000000
vt 0.1887346 0.9529784
v 1.2289129 2.3110330 0.5317685
vn -1.0000000 0.0000000 0.0000000
vt 0.1887346 0.9744119
v 1.2289129 2.1771619 0.7160265
vn -1.0000000 0.0000000 0.0000000
vt 0.2013326 0.9917518
v 1.2289129 1.9605540 0.7864069
vn -1.0000000 0.0000000 0.0000000
vt 0.2217170 0.9983751
v 1.2289129 1.7439450 0.7160264
vn -1.0000000 0.0000000 0.0000000
vt 0.2421014 0.9917518
v 1.2289129 1.6100740 0.5317685
vn -1.0000000 0.0000000 0.0000000
vt 0.2546996 0.9744119
v 1.2289129 1.6100740 0.3040131
vn -1.0000000 0.0000000 0.0000000
vt 0.2546996 0.9529784
v 1.2289129 1.7439450 0.1197549
vn -1.0000000 0.0000000 0.0000000
vt 0.2421014 0.9356387
v 1.4453220 1.7439450 0.1197549
vn 1.0000000 0.0000000 0.0000000
vt 0.1908386 0.5707641
v 1.4453220 1.9605531 0.4178908
vn 1.0000000 0.0000000 0.0000000
vt 0.2129069 0.6011386
v 1.4453220 1.6100740 0.3040131
vn 1.0000000 0.0000000 0.0000000
vt 0.1771995 0.5895367
v 1.4453220 1.6100740 0.5317685
vn 1.0000000 0.0000000 0.0000000
vt 0.1771995 0.6127408
v 1.4453220 1.7439450 0.7160264
vn 1.0000000 0.0000000 0.0000000
vt 0.1908386 0.6315131
v 1.4453220 1.9605540 0.7864069
vn 1.0000000 0.0000000 0.0000000
vt 0.2129069 0.6386837
v 1.4453220 2.1771619 0.7160265
vn 1.0000000 0.0000000 0.0000000
vt 0.2349753 0.6315131
v 1.4453220 2.3110330 0.5317685
vn 1.0000000 0.0000000 0.0000000
vt 0.2486145 0.6127408
v 1.4453220 2.3110330 0.3040129
vn 1.0000000 0.0000000 0.0000000
vt 0.2486145 0.5895367
v 1.4453220 2.1771619 0.1197549
vn 1.0000000 0.0000000 0.0000000
vt 0.2349753 0.5707641
v 1.4453220 1.9605540 0.0493747
vn 1.0000000 0.0000000 0.0000000
vt 0.2129069 0.5635935
v 1.2289129 1.7439450 0.1197549
vn 0.0000000 -0.5877856 -0.8090168
vt 0.0628416 0.6600850
v 1.4453220 1.7439450 0.1197549
vn 0.0000000 -0.5877856 -0.8090167
vt 0.0628416 0.6860151
v 1.2289129 1.6100740 0.3040131
vn 0.0000000 -0.9510568 -0.3090163
vt 0.0400429 0.6600850
v 1.4453220 1.6100740 0.3040131
vn 0.0000000 -0.9510568 -0.3090163
vt 0.0400429 0.6860151
v 1.2289129 1.6100740 0.3040131
vn 0.0000000 -0.9510568 -0.3090163
vt 0.0856400 0.6600850
v 1.4453220 1.6100740 0.3040131
vn 0.0000000 -0.9510568 -0.3090163
vt 0.0856400 0.6860151
v 1.2289129 1.6100740 0.5317685
vn 0.0000000 -0.9510566 0.3090168
vt 0.0628416 0.6600850
v 1.4453220 1.6100740 0.5317685
vn 0.0000000 -0.9510566 0.3090168
vt 0.0628416 0.6860151
v 1.2289129 1.7439450 0.7160264
vn 0.0000000 -0.5877855 0.8090168
vt 0.0400429 0.6600850
v 1.4453220 1.7439450 0.7160264
vn 0.0000000 -0.5877856 0.8090167
vt 0.0400429 0.6860149
v 1.2289129 1.7439450 0.7160264
vn 0.0000000 -0.5877855 0.8090168
vt 0.0856400 0.6600850
v 1.4453220 1.7439450 0.7160264
vn 0.0000000 -0.5877856 0.8090167
vt 0.0856400 0.6860151
v 1.2289129 1.9605540 0.7864069
vn 0.0000000 -0.0000001 1.0000000
vt 0.0628416 0.6600850
v 1.4453220 1.9605540 0.7864069
vn 0.0000000 -0.0000001 1.0000000
vt 0.0628416 0.6860151
v 1.2289129 2.1771619 0.7160265
vn 0.0000000 0.5877866 0.8090160
vt 0.0400429 0.6600850
v 1.4453220 2.1771619 0.7160265
vn 0.0000000 0.5877866 0.8090160
vt 0.0400429 0.6860151
v 1.2289129 2.1771619 0.7160265
vn 0.0000000 0.5877866 0.8090160
vt 0.0856400 0.6600850
v 1.4453220 2.1771619 0.7160265
vn 0.0000000 0.5877866 0.8090160
vt 0.0856400 0.6860151
v 1.2289129 2.3110330 0.5317685
vn 0.0000000 0.9510570 0.3090155
vt 0.0628416 0.6600850
v 1.4453220 2.3110330 0.5317685
vn 0.0000000 0.9510570 0.3090155
vt 0.0628416 0.6860151
v 1.2289129 2.3110330 0.3040129
vn 0.0000000 0.9510570 -0.3090155
vt 0.0400429 0.6600850
v 1.4453220 2.3110330 0.3040129
vn 0.0000000 0.9510570 -0.3090155
vt 0.0400429 0.6860149
v 1.2289129 2.3110330 0.3040129
vn 0.0000000 0.9510570 -0.3090155
vt 0.0856400 0.6600850
v 1.4453220 2.3110330 0.3040129
vn 0.0000000 0.9510570 -0.3090155
vt 0.0856400 0.6860154
v 1.2289129 2.1771619 0.1197549
vn 0.0000000 0.5877863 -0.8090163
vt 0.0628416 0.6600850
v 1.4453220 2.1771619 0.1197549
vn 0.0000000 0.5877863 -0.8090163
vt 0.0628416 0.6860154
v 1.2289129 1.9605540 0.0493747
vn 0.0000000 -0.0000001 -1.0000000
vt 0.0400429 0.6600850
v 1.4453220 1.9605540 0.0493747
vn 0.0000000 -0.0000001 -1.0000000
vt 0.0400429 0.6860154
v 1.2289129 1.9605540 0.0493747
vn 0.0000000 -0.0000001 -1.0000000
vt 0.0856400 0.6600850
v 1.4453220 1.9605540 0.0493747
vn 0.0000000 -0.0000001 -1.0000000
vt 0.0856400 0.6860151

g group_60_140627853594144
f 1/1/1 2/2/2 3/3/3 
f 3/3/3 2/2/2 4/4/4 
f 4/4/4 2/2/2 5/5/5 
f 5/5/5 2/2/2 6/6/6 
f 6/6/6 2/2/2 7/7/7 
f 7/7/7 2/2/2 8/8/8 
f 8/8/8 2/2/2 9/9/9 
f 9/9/9 2/2/2 10/10/10 
f 11/11/11 12/12/12 13/13/13 
f 13/13/13 12/12/12 14/14/14 
f 14/14/14 12/12/12 15/15/15 
f 15/15/15 12/12/12 16/16/16 
f 16/16/16 12/12/12 17/17/17 
f 17/17/17 12/12/12 18/18/18 
f 18/18/18 12/12/12 19/19/19 
f 19/19/19 12/12/12 20/20/20 
f 20/20/20 12/12/12 21/21/21 
f 21/21/21 12/12/12 11/11/11 
f 22/22/22 23/23/23 24/24/24 
f 23/23/23 25/25/25 24/24/24 
f 26/26/26 27/27/27 28/28/28 
f 27/27/27 29/29/29 28/28/28 
f 28/28/28 29/29/29 30/30/30 
f 29/29/29 31/31/31 30/30/30 
f 32/32/32 33/33/33 34/34/34 
f 33/33/33 35/35/35 34/34/34 
f 34/34/34 35/35/35 36/36/36 
f 35/35/35 37/37/37 36/36/36 
f 38/38/38 39/39/39 40/40/40 
f 39/39/39 41/41/41 40/40/40 
f 40/40/40 41/41/41 42/42/42 
f 41/41/41 43/43/43 42/42/42 
f 44/44/44 45/45/45 46/46/46 
f 45/45/45 47/47/47 46/46/46 
f 46/46/46 47/47/47 48/48/48 
f 47/47/47 49/49/49 48/48/48 
f 50/50/50 51/51/51 22/22/22 
f 51/51/51 23/23/23 22/22/22 
