v -1.6901000 3.3231621 0.9796041
vn 0.0000000 -0.5021898 -0.8647574
vt 0.3881735 -2.7250690
v -1.0064360 3.4308391 0.8719263
vn 0.0000000 -0.8658441 -0.5003139
vt 0.0028997 -2.8479190
v -1.0064360 3.3231621 0.9796042
vn 0.0000000 -0.5021899 -0.8647575
vt 0.0028997 -2.7250690
v -1.6901000 3.1029310 1.0398110
vn 0.0000000 -0.1325440 -0.9911771
vt 0.3881735 -2.5489340
v -1.0064360 3.1029310 1.0398110
vn 0.0000000 -0.1325440 -0.9911771
vt 0.0028997 -2.5489340
v -1.6901000 3.4308391 0.8719263
vn 0.0000000 -0.8658440 -0.5003142
vt 0.3881735 -2.8479190
v -1.0064360 3.4705200 0.7242649
vn 0.0000000 -0.9999996 0.0009755
vt 0.0028997 -2.9737129
v -1.6901000 3.4705200 0.7242649
vn 0.0000000 -0.9999995 0.0009752
vt 0.3881735 -2.9737129
v -1.0064360 3.4308400 0.5777451
vn 0.0000000 -0.8635085 0.5043344
vt 0.0028997 -3.0965199
v -1.6901000 3.4308400 0.5777451
vn 0.0000000 -0.8635085 0.5043344
vt 0.3881735 -3.0965199
v -1.0064360 3.2937889 0.4426944
vn 0.0000000 -0.5373325 0.8433706
vt 0.0028997 -3.2465754
v -1.6901000 3.2937889 0.4426944
vn 0.0000000 -0.5373359 0.8433684
vt 0.3881735 -3.2465754
v -1.0063730 2.3110700 0.0767180
vn 0.0000000 -0.1773049 0.9841560
vt 0.0028997 -3.9137001
v -1.0063730 2.3110700 0.0767180
vn 0.0000000 -0.1773049 0.9841560
vt 0.0028997 6.1952238
v -1.6901000 2.3110700 0.0767180
vn 0.0000000 -0.1773075 0.9841555
vt 0.3881735 6.1952238
v -1.0064360 -2.4209771 0.0767179
vn 0.0000000 0.1440607 0.9895689
vt 0.0028997 3.1986380
v -1.6901000 -3.4399710 0.3798319
vn 0.0000000 0.5128617 0.8584712
vt 0.3881735 2.4332919
v -1.0064360 -3.4399710 0.3798319
vn 0.0000000 0.5128617 0.8584712
vt 0.0028997 2.4332919
v -1.6901000 -2.4209771 0.0767179
vn 0.0000000 0.1440613 0.9895688
vt 0.3881735 3.1986380
v -1.0064360 -3.5683720 0.5088774
vn 0.0000000 0.8665956 0.4990112
vt 0.0028997 2.2853830
v -1.6901000 -3.5683720 0.5088774
vn 0.0000003 0.8665960 0.4990104
vt 0.3881735 2.2853830
v -1.0064360 -3.6151240 0.6832061
vn 0.0000004 1.0000000 0.0001085
vt 0.0028997 2.1411130
v -1.6901000 -3.6151240 0.6832060
vn 0.0000004 1.0000000 0.0001086
vt 0.3881735 2.1411130
v -1.0064360 -3.5681920 0.8583591
vn 0.0000003 0.8660250 -0.5000008
vt 0.0028997 2.0037010
v -1.6901000 -3.5681920 0.8583592
vn -0.0000000 0.8660255 -0.4999999
vt 0.3881735 2.0037010
v -1.0064360 -3.4399710 0.9865801
vn -0.0000000 0.5000015 -0.8660245
vt 0.0028997 1.8528410
v -1.6901000 -3.4399710 0.9865801
vn 0.0000000 0.5000014 -0.8660246
vt 0.3881735 1.8528410
v -1.0064360 -3.2648189 1.0335120
vn 0.0000000 0.1310178 -0.9913800
vt 0.0028997 1.7146749
v -1.6901000 -3.2648189 1.0335120
vn 0.0000000 0.1310178 -0.9913800
vt 0.3881735 1.7146749
v -1.0636539 3.4983749 0.9109508
vn 0.9493729 0.2720087 0.1571697
vt 0.3941890 -2.8479190
v -1.0636539 3.3621621 1.0471539
vn 0.9460371 0.2291413 0.2291467
vt 0.3941890 -2.7250690
v -1.0378450 3.4308391 0.8719263
vn 0.9493786 0.2719885 0.1571709
vt 0.4184173 -2.8479190
v -1.0378450 3.4705200 0.7242649
vn 0.9493859 0.3141122 -0.0003388
vt 0.4184173 -2.9737129
v -1.0378450 3.4308400 0.5777451
vn 0.9493815 0.2712448 -0.1584331
vt 0.4184173 -3.0965199
v -1.0636539 3.5485201 0.7241888
vn 0.9493776 0.3141370 -0.0003392
vt 0.3941890 -2.9737129
v -1.0636539 3.4981930 0.5384070
vn 0.9495180 0.2709776 -0.1580717
vt 0.3941890 -3.0965199
v -1.0378450 3.2937889 0.4426944
vn 0.9492564 0.1695355 -0.2648963
vt 0.4184173 -3.2465754
v -1.0636539 3.3357019 0.3769116
vn 0.9493623 0.1693271 -0.2646499
vt 0.3941890 -3.2465754
v -1.0378450 2.3111629 0.0767182
vn 0.9481168 0.0562447 -0.3129076
vt 0.4184173 -3.9137001
v -1.0636539 -2.4322140 0.0010000
vn 0.9475826 -0.0460980 -0.3161682
vt 0.3941890 3.1986380
v -1.0636539 2.3248999 0.0010000
vn 0.9481026 0.0563488 -0.3129318
vt 0.3941890 6.1952238
v -1.0378450 -2.4209771 0.0767178
vn 0.9475886 -0.0459395 -0.3161731
vt 0.4184173 3.1986380
v -1.0378450 -3.4399710 0.3798319
vn 0.9493840 -0.1611262 -0.2696448
vt 0.4184173 2.4332919
v -1.0636539 -3.4799740 0.3128711
vn 0.9493478 -0.1612123 -0.2697209
vt 0.3941890 2.4332919
v -1.0636539 -3.6359661 0.4699546
vn 0.9493749 -0.2723073 -0.1566400
vt 0.3941890 2.2853830
v -1.0378450 -3.5683720 0.5088775
vn 0.9494072 -0.2722286 -0.1565810
vt 0.4184173 2.2853830
v -1.0378450 -3.6151240 0.6832060
vn 0.9493830 -0.3141208 -0.0000134
vt 0.4184173 2.1411130
v -1.0378450 -3.5681920 0.8583592
vn 0.9493788 -0.2720485 0.1570654
vt 0.4184173 2.0037010
v -1.0636539 -3.6931241 0.6831976
vn 0.9493795 -0.3141315 -0.0000162
vt 0.3941890 2.1411130
v -1.0378450 -3.4399710 0.9865803
vn 0.9460336 -0.2291513 0.2291510
vt 0.4184173 1.8528410
v -1.0636539 -3.6357410 0.8973591
vn 0.9493791 -0.2720478 0.1570653
vt 0.3941890 2.0037010
v -1.6327920 3.1136839 1.1170660
vn -0.9323919 0.0483495 0.3582007
vt 0.4184173 -2.5489340
v -1.6629519 3.3231621 0.9796042
vn -0.9329767 0.1820682 0.3104928
vt 0.3941890 -2.7250690
v -1.6629519 3.1029310 1.0398110
vn -0.9326999 0.0476335 0.3574940
vt 0.3941890 -2.5489340
v -1.6327920 3.4983749 0.9109508
vn -0.9326927 0.3122889 0.1804439
vt 0.4184173 -2.8479190
v -1.6629519 3.4308391 0.8719263
vn -0.9327000 0.3122661 0.1804456
vt 0.3941890 -2.8479190
v -1.6327920 3.3621621 1.0471539
vn -0.9327011 0.1820284 0.3113430
vt 0.4184173 -2.7250690
v -1.6629519 3.4705200 0.7242649
vn -0.9327096 0.3606280 -0.0003887
vt 0.3941890 -2.9737129
v -1.6327920 3.5485201 0.7241888
vn -0.9326988 0.3606561 -0.0003896
vt 0.4184173 -2.9737129
v -1.6629519 3.4308400 0.5777451
vn -0.9327040 0.3114124 -0.1818947
vt 0.3941890 -3.0965199
v -1.6629519 3.2937889 0.4426944
vn -0.9325389 0.1946326 -0.3041207
vt 0.3941890 -3.2465754
v -1.6327920 3.4981930 0.5384070
vn -0.9328832 0.3111157 -0.1814826
vt 0.4184173 -3.0965199
v -1.6327920 3.3357019 0.3769116
vn -0.9326786 0.1944025 -0.3038394
vt 0.4184173 -3.2465754
v -1.6629519 2.3111629 0.0767182
vn -0.9310647 0.0645486 -0.3590987
vt 0.3941890 -3.9137001
v -1.6327920 -2.4322140 0.0010000
vn -0.9303769 -0.0528913 -0.3627691
vt 0.4184173 3.1986380
v -1.6629519 -2.4209771 0.0767178
vn -0.9303848 -0.0527128 -0.3627746
vt 0.3941890 3.1986380
v -1.6327920 2.3248999 0.0010000
vn -0.9310460 0.0646658 -0.3591263
vt 0.4184173 6.1952238
v -1.6629519 -3.4399710 0.3798319
vn -0.9327079 -0.1849858 -0.3095743
vt 0.3941890 2.4332919
v -1.6327920 -3.4799740 0.3128711
vn -0.9326603 -0.1850842 -0.3096590
vt 0.4184173 2.4332919
v -1.6327920 -3.6359661 0.4699546
vn -0.9326959 -0.3126307 -0.1798348
vt 0.4184173 2.2853830
v -1.6629519 -3.5683720 0.5088775
vn -0.9327385 -0.3125410 -0.1797697
vt 0.3941890 2.2853830
v -1.6629519 -3.6151240 0.6832060
vn -0.9327065 -0.3606363 -0.0000156
vt 0.3941890 2.1411130
v -1.6327920 -3.6931241 0.6831976
vn -0.9327019 -0.3606483 -0.0000186
vt 0.4184173 2.1411130
v -1.6629519 -3.5681920 0.8583592
vn -0.9327010 -0.3123336 0.1803238
vt 0.3941890 2.0037010
v -1.6327920 -3.6357410 0.8973591
vn -0.9327013 -0.3123327 0.1803236
vt 0.4184173 2.0037010
v -1.6629519 -3.4399710 0.9865803
vn -0.9327011 -0.1803256 0.3123323
vt 0.3941890 1.8528410
v -1.6327920 -3.4789710 1.0541300
vn -0.9330968 -0.1802238 0.3112071
vt 0.4184173 1.8528410
v -1.6629519 -3.2648189 1.0335120
vn -0.9323376 -0.0488190 0.3582782
vt 0.3941890 1.7146749
v -1.6327920 -3.2750440 1.1108390
vn -0.9326996 -0.0488190 0.3573348
vt 0.4184173 1.7146749
v -1.6901000 3.4308391 0.8719263
vn -0.6217458 0.6781772 0.3918009
vt 0.8677844 -2.8479190
v -1.6901000 3.3231621 0.9796041
vn -0.6217877 0.3935024 0.6771528
vt 0.8677844 -2.7250690
v -1.5918519 3.4983749 0.9109508
vn -0.6217769 0.6781594 0.3917823
vt 0.8168154 -2.8479190
v -1.6901000 3.1029310 1.0398110
vn -0.6204500 0.1059337 0.7770584
vt 0.8677844 -2.5489340
v -1.5918519 3.3621621 1.0471539
vn -0.6231819 0.3933901 0.6759353
vt 0.8168154 -2.7250690
v -1.6901000 3.4705200 0.7242649
vn -0.6219313 0.7830717 -0.0005169
vt 0.8677844 -2.9737129
v -1.5918519 3.5485201 0.7241888
vn -0.6218207 0.7831595 -0.0004997
vt 0.8168154 -2.9737129
v -1.6901000 3.4308400 0.5777451
vn -0.6231136 0.6758820 -0.3935899
vt 0.8677844 -3.0965199
v -1.5918519 3.4984040 0.5385150
vn -0.6222628 0.6768330 -0.3933015
vt 0.8168154 -3.0965199
v -1.6901000 3.2937889 0.4426944
vn -0.6216999 0.4207173 -0.6606710
vt 0.8677844 -3.2465754
v -1.5918519 3.3357019 0.3769116
vn -0.6210722 0.4214762 -0.6607777
vt 0.8168154 -3.2465754
v -1.5918519 2.3248999 0.0010000
vn -0.6168064 0.1396653 -0.7746247
vt 0.8168154 -3.9137001
v -1.6901000 2.3110700 0.0767180
vn -0.6167105 0.1394299 -0.7747435
vt 0.8677844 -3.9137001
v -1.6901000 -2.4209771 0.0767179
vn -0.6145675 -0.1135801 -0.7806448
vt 0.8677844 3.1986380
v -1.6901000 2.3110700 0.0767180
vn -0.6167105 0.1394299 -0.7747435
vt 0.8677844 6.1952238
v -1.5918519 -2.4322140 0.0010000
vn -0.6146011 -0.1138182 -0.7805837
vt 0.8168154 3.1986380
v -1.6901000 -3.4399710 0.3798319
vn -0.6216087 -0.4019982 -0.6723096
vt 0.8677844 2.4332919
v -1.5918519 -3.4799740 0.3128711
vn -0.6218215 -0.4019587 -0.6721363
vt 0.8168154 2.4332919
v -1.6901000 -3.5683720 0.5088774
vn -0.6217605 -0.6787453 -0.3907923
vt 0.8677844 2.2853830
v -1.5918519 -3.6359670 0.4699546
vn -0.6219608 -0.6786833 -0.3905814
vt 0.8168154 2.2853830
v -1.6901000 -3.6151240 0.6832060
vn -0.6217855 -0.7831876 -0.0000882
vt 0.8677844 2.1411130
v -1.5918519 -3.6931241 0.6831976
vn -0.6218080 -0.7831698 -0.0000685
vt 0.8168154 2.1411130
v -1.6901000 -3.5681920 0.8583592
vn -0.6217831 -0.6782620 0.3915947
vt 0.8677844 2.0037010
v -1.5918519 -3.6357410 0.8973591
vn -0.6217816 -0.6782638 0.3915942
vt 0.8168154 2.0037010
v -1.6901000 -3.4399710 0.9865801
vn -0.6234487 -0.3934109 0.6756772
vt 0.8677844 1.8528410
v -1.5918519 -3.4789710 1.0541300
vn -0.6217794 -0.3945116 0.6765730
vt 0.8168154 1.8528410
v -1.6901000 -3.2648189 1.0335120
vn -0.6217834 -0.1026085 0.7764386
vt 0.8677844 1.7146749
v -1.5918519 -3.2750440 1.1108390
vn -0.6201395 -0.1041847 0.7775427
vt 0.8168154 1.7146749
v -1.1007860 3.4983749 0.9109508
vn 0.6371602 0.6673678 0.3855478
vt 0.8168154 -2.8479190
v -1.0064360 3.3231621 0.9796042
vn 0.6240141 0.5525288 0.5525562
vt 0.8677844 -2.7250690
v -1.0064360 3.4308391 0.8719263
vn 0.6371295 0.6673868 0.3855658
vt 0.8677844 -2.8479190
v -1.1007860 3.5485201 0.7241888
vn 0.6372011 0.7706975 -0.0004901
vt 0.8168154 -2.9737129
v -1.0064360 3.4705200 0.7242649
vn 0.6373081 0.7706089 -0.0005032
vt 0.8677844 -2.9737129
v -1.1007850 3.4984040 0.5385150
vn 0.6376441 0.6660446 -0.3870332
vt 0.8168154 -3.0965199
v -1.0064360 3.4308400 0.5777451
vn 0.6384705 0.6650977 -0.3872989
vt 0.8677844 -3.0965199
v -1.1007850 3.3357019 0.3769116
vn 0.6364734 0.4147703 -0.6502824
vt 0.8168154 -3.2465754
v -1.0064360 3.2937889 0.4426944
vn 0.6370773 0.4140242 -0.6501666
vt 0.8677844 -3.2465754
v -1.1007850 2.3248999 0.0010000
vn 0.6319816 0.1375313 -0.7626824
vt 0.8168154 -3.9137001
v -1.1007850 -2.4322140 0.0010000
vn 0.6300328 -0.1120544 -0.7684417
vt 0.8168154 3.1986380
v -1.0063730 2.3110700 0.0767180
vn 0.6318805 0.1372958 -0.7628085
vt 0.8677844 6.1952238
v -1.0064360 -2.4209771 0.0767179
vn 0.6300024 -0.1118138 -0.7685016
vt 0.8677844 3.1986380
v -1.1007850 -3.4799740 0.3128711
vn 0.6372034 -0.3955612 -0.6614403
vt 0.8168154 2.4332919
v -1.1007850 -3.6359670 0.4699546
vn 0.6373394 -0.6678782 -0.3843660
vt 0.8168154 2.2853830
v -1.0064360 -3.4399710 0.3798319
vn 0.6369970 -0.3956064 -0.6616120
vt 0.8677844 2.4332919
v -1.0064360 -3.5683720 0.5088774
vn 0.6371439 -0.6679452 -0.3845737
vt 0.8677844 2.2853830
v -1.1007850 -3.6931241 0.6831976
vn 0.6371885 -0.7707080 -0.0000683
vt 0.8168154 2.1411130
v -1.0064360 -3.6151240 0.6832061
vn 0.6371666 -0.7707261 -0.0000875
vt 0.8677844 2.1411130
v -1.1007850 -3.6357410 0.8973591
vn 0.6371642 -0.6674705 0.3853634
vt 0.8168154 2.0037010
v -1.0064360 -3.5681920 0.8583591
vn 0.6371663 -0.6674681 0.3853641
vt 0.8677844 2.0037010
v -1.1007850 -3.4789710 1.0541300
vn 0.6239988 -0.5525517 0.5525507
vt 0.8168154 1.8528410
v -1.0064360 -3.4399710 0.9865801
vn 0.6239986 -0.5525517 0.5525507
vt 0.8677844 1.8528410
v -1.6327920 -3.2750440 1.1108390
vn 0.0000000 -0.1356844 0.9907521
vt 0.4543382 1.7146749
v -1.0636539 -3.2750440 1.1108390
vn 0.0000000 -0.1356844 0.9907521
vt 0.7779956 1.7146749
v -1.6327920 3.1136839 1.1170660
vn 0.0000000 0.1362229 0.9906783
vt 0.4543382 -2.5489340
v -1.0636539 -3.4789710 1.0541300
vn 0.0000000 -0.5040798 0.8636571
vt 0.7779956 1.8528410
v -1.6327920 -3.4789710 1.0541300
vn 0.0000000 -0.5040798 0.8636571
vt 0.4543382 1.8528410
v -1.0636539 -3.6357410 0.8973591
vn 0.0000000 -0.8660278 0.4999959
vt 0.7779956 2.0037010
v -1.6327920 -3.6357410 0.8973591
vn 0.0000000 -0.8660278 0.4999959
vt 0.4543382 2.0037010
v -1.0636539 -3.6931241 0.6831976
vn 0.0000000 -1.0000000 -0.0000466
vt 0.7779956 2.1411130
v -1.6327920 -3.6931241 0.6831976
vn 0.0000000 -1.0000000 -0.0000466
vt 0.4543382 2.1411130
v -1.0636539 -3.6359661 0.4699546
vn 0.0000000 -0.8668745 -0.4985265
vt 0.7779956 2.2853830
v -1.6327920 -3.6359661 0.4699546
vn 0.0000000 -0.8668745 -0.4985265
vt 0.4543382 2.2853830
v -1.0636539 -3.4799740 0.3128711
vn 0.0000000 -0.5133585 -0.8581743
vt 0.7779956 2.4332919
v -1.6327920 -3.4799740 0.3128711
vn -0.0000000 -0.5133585 -0.8581743
vt 0.4543382 2.4332919
v -1.0636539 -2.4322140 0.0010000
vn -0.0000000 -0.1441481 -0.9895561
vt 0.7779956 3.1986380
v -1.6327920 -2.4322140 0.0010000
vn -0.0000000 -0.1441481 -0.9895562
vt 0.4543382 3.1986380
v -1.0636539 2.3248999 0.0010000
vn -0.0000000 0.1770838 -0.9841958
vt 0.7779956 6.1952238
v -1.6327920 2.3248999 0.0010000
vn 0.0000000 0.1770839 -0.9841958
vt 0.4543382 -3.9137001
v -1.0636539 3.3357019 0.3769116
vn 0.0000000 0.5389453 -0.8423408
vt 0.7779956 -3.2465754
v -1.0636539 2.3248999 0.0010000
vn -0.0000000 0.1770838 -0.9841958
vt 0.7779956 -3.9137001
v -1.6327920 3.3357019 0.3769116
vn 0.0000000 0.5389452 -0.8423408
vt 0.4543382 -3.2465754
v -1.0636539 3.4981930 0.5384070
vn 0.0000000 0.8645672 -0.5025173
vt 0.7779956 -3.0965199
v -1.6327920 3.4981930 0.5384070
vn 0.0000000 0.8645672 -0.5025173
vt 0.4543382 -3.0965199
v -1.0636539 3.5485201 0.7241888
vn 0.0000000 0.9999994 -0.0011167
vt 0.7779956 -2.9737129
v -1.6327920 3.5485201 0.7241888
vn 0.0000000 0.9999994 -0.0011167
vt 0.4543382 -2.9737129
v -1.0636539 3.4983749 0.9109508
vn 0.0000000 0.8658884 0.5002374
vt 0.7779956 -2.8479190
v -1.6327920 3.4983749 0.9109508
vn 0.0000000 0.8658884 0.5002374
vt 0.4543382 -2.8479190
v -1.0636539 3.3621621 1.0471539
vn 0.0000000 0.5053740 0.8629004
vt 0.7779956 -2.7250690
v -1.6327920 3.3621621 1.0471539
vn 0.0000000 0.5053740 0.8629004
vt 0.4543382 -2.7250690
v -1.0636539 3.1136839 1.1170660
vn 0.0000000 0.1362229 0.9906783
vt 0.7779956 -2.5489340
v -1.3489530 3.2303841 0.5422118
vn -0.9216240 -0.1926300 0.3369018
vt 0.8893602 -3.2465754
v -1.3985850 3.4304180 0.5775291
vn -0.9186053 -0.2775793 0.2812724
vt 0.9955055 -3.0965199
v -1.3985850 3.2937901 0.4426944
vn -0.9218212 -0.2082934 0.3268939
vt 0.9955055 -3.2465754
v -1.3985850 2.3110709 0.0767180
vn -0.9217629 -0.0687285 0.3816143
vt 0.9955055 -3.9137001
v -1.3489430 2.2901480 0.1928484
vn -0.9217241 -0.0687287 0.3817081
vt 0.8893602 -3.9137001
v -1.3489430 -2.4039769 0.1934871
vn -0.9217498 0.0553650 0.3838125
vt 0.8893602 3.1986380
v -1.3985850 2.3110709 0.0767180
vn -0.9217629 -0.0687285 0.3816143
vt 0.9955055 6.1952238
v -1.3985850 -2.4209771 0.0767178
vn -0.9216339 0.0555204 0.3840684
vt 0.9955055 3.1986380
v -1.3985850 -3.4399700 0.3798319
vn -0.9216535 0.1988205 0.3332047
vt 0.9955055 2.4332919
v -1.3489430 -3.3794529 0.4811315
vn -0.9218577 0.1981934 0.3330132
vt 0.8893602 2.4332919
v -1.3489430 -3.4661131 0.5677606
vn -0.9170709 0.2823587 0.2815218
vt 0.8893602 2.2853830
v -1.3985850 -3.4399700 0.9865801
vn -0.9365438 0.1820612 -0.2995655
vt 0.9955055 1.8528410
v -1.3489430 -3.2493520 0.9165304
vn -0.9257125 0.0549998 -0.3742077
vt 0.8893602 1.7146749
v -1.3557791 -3.3809669 0.8843909
vn -0.9400517 0.1735673 -0.2935597
vt 0.8893602 1.8528410
v -1.3985850 3.1029320 1.0398110
vn -0.9204242 0.0003867 -0.3909209
vt 0.9955055 -2.5489340
v -1.3489530 3.0866640 0.9229374
vn -0.9204259 0.0003867 -0.3909169
vt 0.8893602 -2.5489340
v -1.3985850 -3.2648189 1.0335120
vn -0.9217547 0.0508100 -0.3844302
vt 0.9955055 1.7146749
v -1.3489530 3.2303841 0.5422118
vn 0.9212717 -0.1930285 0.3376364
vt 0.8893602 -3.2465754
v -1.3489430 2.2901480 0.1928484
vn 0.9214004 -0.0688611 0.3824650
vt 0.8893602 -3.9137001
v -1.2991960 3.2937901 0.4426944
vn 0.9214714 -0.2087331 0.3275990
vt 0.9955055 -3.2465754
v -1.3489430 -2.4039769 0.1934871
vn 0.9214528 0.0554647 0.3845106
vt 0.8893602 3.1986380
v -1.2991869 2.3110709 0.0767180
vn 0.9214408 -0.0688602 0.3823678
vt 0.9955055 6.1952238
v -1.3489430 2.2901480 0.1928484
vn 0.9214004 -0.0688611 0.3824650
vt 0.8893602 6.1952238
v -1.3489430 -3.3794529 0.4811315
vn 0.9171907 0.1135439 0.3819281
vt 0.8893602 2.4332919
v -1.2991960 -2.4209771 0.0767179
vn 0.9213367 0.0556204 0.3847664
vt 0.9955055 3.1986380
v -1.6327920 2.3248999 0.0010000
vn 0.0000000 0.1770839 -0.9841958
vt 0.4543382 6.1952238
v -1.6629519 2.3111629 0.0767182
vn -0.9310647 0.0645486 -0.3590987
vt 0.3941890 6.1952238
v -1.6327920 2.3248999 0.0010000
vn -0.9310460 0.0646658 -0.3591263
vt 0.4184173 -3.9137001
v -1.0378450 3.3231621 0.9796042
vn 0.9460341 0.2291501 0.2291497
vt 0.4184173 -2.7250690
v -1.0636539 -3.4789710 1.0541300
vn 0.9460335 -0.2291513 0.2291512
vt 0.3941890 1.8528410
v -1.0378450 2.3111629 0.0767182
vn 0.9481168 0.0562447 -0.3129076
vt 0.4184173 6.1952238
v -1.0636539 2.3248999 0.0010000
vn 0.9481026 0.0563488 -0.3129318
vt 0.3941890 -3.9137001
v -1.6901000 2.3110700 0.0767180
vn 0.0000000 -0.1773075 0.9841555
vt 0.3881735 -3.9137001
v -1.1007850 2.3248999 0.0010000
vn 0.6319816 0.1375313 -0.7626824
vt 0.8168154 6.1952238
v -1.0063730 2.3110700 0.0767180
vn 0.6318805 0.1372958 -0.7628085
vt 0.8677844 -3.9137001
v -1.1007860 3.3621621 1.0471539
vn 0.6240019 0.5525280 0.5525708
vt 0.8168154 -2.7250690
v -1.5918519 2.3248999 0.0010000
vn -0.6168064 0.1396653 -0.7746247
vt 0.8168154 6.1952238
v -1.5918519 3.1136839 1.1170660
vn -0.6217831 0.1067527 0.7758799
vt 0.8168154 -2.5489340
v -1.2991869 2.3110709 0.0767180
vn 0.9214408 -0.0688602 0.3823678
vt 0.9955055 -3.9137001
v -1.2991960 3.4304180 0.5775291
vn 0.9182415 -0.2781725 0.2818734
vt 0.9955055 -3.0965199
v -1.3985850 -3.5681911 0.8583592
vn -0.9361584 0.2486038 -0.2486034
vt 0.9955055 2.0037010
v -1.3985850 -3.5683720 0.5088774
vn -0.9168735 0.2829669 0.2815543
vt 0.9955055 2.2853830
v -1.2991960 -3.4399700 0.3798319
vn 0.9169817 0.1137416 0.3823709
vt 0.9955055 2.4332919
v -1.3489430 2.2901480 0.1928484
vn -0.9217241 -0.0687287 0.3817081
vt 0.8893602 6.1952238

g group_142_106102876219648
f 1/1/1 2/2/2 3/3/3 
f 4/4/4 3/3/3 5/5/5 
f 6/6/6 7/7/7 2/2/2 
f 8/8/8 9/9/9 7/7/7 
f 10/10/10 11/11/11 9/9/9 
f 12/12/12 13/13/13 11/11/11 
f 14/14/14 15/15/15 16/16/16 
f 17/17/17 18/18/18 19/19/19 
f 17/17/17 20/20/20 18/18/18 
f 21/21/21 22/22/22 20/20/20 
f 23/23/23 24/24/24 22/22/22 
f 25/25/25 26/26/26 24/24/24 
f 27/27/27 28/28/28 26/26/26 
f 29/29/29 4/4/4 5/5/5 
f 30/30/30 31/31/31 32/32/32 
f 33/33/33 30/30/30 32/32/32 
f 33/33/33 34/34/34 35/35/35 
f 36/36/36 37/37/37 38/38/38 
f 37/37/37 39/39/39 38/38/38 
f 40/40/40 41/41/41 42/42/42 
f 40/40/40 43/43/43 44/44/44 
f 45/45/45 44/44/44 46/46/46 
f 46/46/46 47/47/47 45/45/45 
f 47/47/47 48/48/48 49/49/49 
f 48/48/48 50/50/50 51/51/51 
f 52/52/52 53/53/53 54/54/54 
f 55/55/55 56/56/56 57/57/57 
f 55/55/55 58/58/58 56/56/56 
f 58/58/58 59/59/59 60/60/60 
f 61/61/61 62/62/62 63/63/63 
f 61/61/61 63/63/63 64/64/64 
f 65/65/65 66/66/66 67/67/67 
f 68/68/68 65/65/65 69/69/69 
f 70/70/70 71/71/71 69/69/69 
f 71/71/71 70/70/70 72/72/72 
f 72/72/72 73/73/73 74/74/74 
f 74/74/74 75/75/75 76/76/76 
f 76/76/76 77/77/77 78/78/78 
f 52/52/52 54/54/54 79/79/79 
f 80/80/80 81/81/81 82/82/82 
f 81/81/81 83/83/83 84/84/84 
f 85/85/85 80/80/80 86/86/86 
f 87/87/87 85/85/85 88/88/88 
f 89/89/89 87/87/87 90/90/90 
f 89/89/89 91/91/91 92/92/92 
f 93/93/93 94/94/94 95/95/95 
f 96/96/96 93/93/93 97/97/97 
f 98/98/98 96/96/96 99/99/99 
f 100/100/100 98/98/98 101/101/101 
f 102/102/102 100/100/100 103/103/103 
f 104/104/104 102/102/102 105/105/105 
f 106/106/106 104/104/104 107/107/107 
f 106/106/106 107/107/107 83/83/83 
f 108/108/108 109/109/109 110/110/110 
f 111/111/111 110/110/110 112/112/112 
f 113/113/113 112/112/112 114/114/114 
f 115/115/115 114/114/114 116/116/116 
f 115/115/115 116/116/116 117/117/117 
f 118/118/118 119/119/119 120/120/120 
f 118/118/118 120/120/120 121/121/121 
f 122/122/122 123/123/123 124/124/124 
f 125/125/125 124/124/124 126/126/126 
f 127/127/127 126/126/126 128/128/128 
f 129/129/129 128/128/128 130/130/130 
f 131/131/131 132/132/132 133/133/133 
f 131/131/131 134/134/134 132/132/132 
f 135/135/135 136/136/136 134/134/134 
f 137/137/137 138/138/138 136/136/136 
f 139/139/139 140/140/140 138/138/138 
f 141/141/141 142/142/142 140/140/140 
f 143/143/143 144/144/144 142/142/142 
f 145/145/145 146/146/146 144/144/144 
f 147/147/147 148/148/148 149/149/149 
f 150/150/150 151/151/151 148/148/148 
f 152/152/152 153/153/153 151/151/151 
f 154/154/154 155/155/155 153/153/153 
f 156/156/156 157/157/157 155/155/155 
f 158/158/158 159/159/159 157/157/157 
f 160/160/160 161/161/161 162/162/162 
f 163/163/163 164/164/164 162/162/162 
f 165/165/165 166/166/166 167/167/167 
f 168/168/168 169/169/169 167/167/167 
f 168/168/168 170/170/170 169/169/169 
f 171/171/171 172/172/172 173/173/173 
f 174/174/174 175/175/175 176/176/176 
f 177/177/177 178/178/178 179/179/179 
f 180/180/180 181/181/181 182/182/182 
f 183/183/183 184/184/184 180/180/180 
f 158/158/158 133/133/133 159/159/159 
f 131/131/131 135/135/135 134/134/134 
f 135/135/135 137/137/137 136/136/136 
f 137/137/137 139/139/139 138/138/138 
f 139/139/139 141/141/141 140/140/140 
f 141/141/141 143/143/143 142/142/142 
f 143/143/143 145/145/145 144/144/144 
f 145/145/145 185/185/185 146/146/146 
f 147/147/147 150/150/150 148/148/148 
f 150/150/150 152/152/152 151/151/151 
f 152/152/152 154/154/154 153/153/153 
f 154/154/154 156/156/156 155/155/155 
f 156/156/156 158/158/158 157/157/157 
f 56/56/56 53/53/53 57/57/57 
f 52/52/52 57/57/57 53/53/53 
f 77/77/77 79/79/79 78/78/78 
f 75/75/75 77/77/77 76/76/76 
f 73/73/73 75/75/75 74/74/74 
f 70/70/70 73/73/73 72/72/72 
f 71/71/71 68/68/68 69/69/69 
f 68/68/68 66/66/66 65/65/65 
f 66/66/66 186/186/186 67/67/67 
f 63/63/63 187/187/187 64/64/64 
f 61/61/61 60/60/60 62/62/62 
f 59/59/59 62/62/62 60/60/60 
f 55/55/55 59/59/59 58/58/58 
f 34/34/34 36/36/36 35/35/35 
f 33/33/33 35/35/35 30/30/30 
f 31/31/31 188/188/188 32/32/32 
f 50/50/50 189/189/189 51/51/51 
f 48/48/48 51/51/51 49/49/49 
f 47/47/47 49/49/49 45/45/45 
f 44/44/44 43/43/43 46/46/46 
f 40/40/40 42/42/42 43/43/43 
f 41/41/41 190/190/190 42/42/42 
f 39/39/39 191/191/191 38/38/38 
f 36/36/36 34/34/34 37/37/37 
f 15/15/15 19/19/19 16/16/16 
f 12/12/12 192/192/192 13/13/13 
f 10/10/10 12/12/12 11/11/11 
f 8/8/8 10/10/10 9/9/9 
f 6/6/6 8/8/8 7/7/7 
f 1/1/1 6/6/6 2/2/2 
f 4/4/4 1/1/1 3/3/3 
f 27/27/27 29/29/29 28/28/28 
f 25/25/25 27/27/27 26/26/26 
f 23/23/23 25/25/25 24/24/24 
f 21/21/21 23/23/23 22/22/22 
f 17/17/17 21/21/21 20/20/20 
f 18/18/18 16/16/16 19/19/19 
f 104/104/104 105/105/105 107/107/107 
f 129/129/129 127/127/127 128/128/128 
f 127/127/127 125/125/125 126/126/126 
f 125/125/125 122/122/122 124/124/124 
f 122/122/122 121/121/121 123/123/123 
f 120/120/120 123/123/123 121/121/121 
f 118/118/118 193/193/193 119/119/119 
f 116/116/116 194/194/194 117/117/117 
f 115/115/115 113/113/113 114/114/114 
f 113/113/113 111/111/111 112/112/112 
f 111/111/111 108/108/108 110/110/110 
f 108/108/108 195/195/195 109/109/109 
f 102/102/102 103/103/103 105/105/105 
f 100/100/100 101/101/101 103/103/103 
f 98/98/98 99/99/99 101/101/101 
f 96/96/96 97/97/97 99/99/99 
f 93/93/93 95/95/95 97/97/97 
f 94/94/94 196/196/196 95/95/95 
f 89/89/89 90/90/90 91/91/91 
f 87/87/87 88/88/88 90/90/90 
f 85/85/85 86/86/86 88/88/88 
f 80/80/80 82/82/82 86/86/86 
f 81/81/81 84/84/84 82/82/82 
f 83/83/83 197/197/197 84/84/84 
f 164/164/164 160/160/160 162/162/162 
f 178/178/178 198/198/198 179/179/179 
f 177/177/177 179/179/179 199/199/199 
f 171/171/171 176/176/176 172/172/172 
f 200/200/200 171/171/171 173/173/173 
f 168/168/168 201/201/201 170/170/170 
f 169/169/169 165/165/165 167/167/167 
f 183/183/183 202/202/202 184/184/184 
f 165/165/165 203/203/203 166/166/166 
f 180/180/180 184/184/184 181/181/181 
f 176/176/176 175/175/175 172/172/172 
f 133/133/133 132/132/132 159/159/159 
f 79/79/79 54/54/54 78/78/78 
f 29/29/29 5/5/5 28/28/28 
f 83/83/83 107/107/107 197/197/197 
