v 1.4919550 1.9830739 0.9388280
vn 0.0000000 0.8660252 -0.5000005
vt 0.8222536 0.7319766
v 1.4919550 1.9215860 0.9033280
vn 0.0000000 -0.0000008 -1.0000000
vt 0.8222745 0.7244623
v 1.2221980 1.9830739 0.9388280
vn 0.0000000 0.8660252 -0.5000004
vt 0.7918713 0.7321970
v 1.2221980 1.9215860 0.9033280
vn 0.0000000 -0.0000008 -1.0000000
vt 0.7918813 0.7244623
v 1.4919550 1.9215860 0.9033280
vn 0.0000000 -0.0000008 -1.0000000
vt 0.8222745 0.7472781
v 1.4919550 1.8600990 0.9388280
vn 0.0000000 -0.8660256 -0.4999997
vt 0.8222881 0.7396350
v 1.2221980 1.9215860 0.9033280
vn 0.0000000 -0.0000008 -1.0000000
vt 0.7918813 0.7472781
v 1.2221980 1.8600990 0.9388280
vn 0.0000000 -0.8660256 -0.4999997
vt 0.7919042 0.7396549
v 1.4919550 1.8600990 1.0098280
vn 0.0000000 -0.8657010 0.5005614
vt 0.8222852 0.7320906
v 1.2221980 1.8600990 1.0098280
vn 0.0000000 -0.8657011 0.5005613
vt 0.7918816 0.7323636
v 1.4919550 1.9215860 1.0452220
vn 0.0000000 -0.0000009 1.0000000
vt 0.8222745 0.7244623
v 1.2221980 1.9215860 1.0452220
vn 0.0000000 -0.0000009 1.0000000
vt 0.7918813 0.7244623
v 1.4919550 1.9215860 1.0452220
vn 0.0000000 -0.0000009 1.0000000
vt 0.8222745 0.7472781
v 1.4919550 1.9830739 1.0098280
vn 0.0000000 0.8657007 0.5005620
vt 0.8222731 0.7394339
v 1.2221980 1.9215860 1.0452220
vn 0.0000000 -0.0000009 1.0000000
vt 0.7918813 0.7472781
v 1.2221980 1.9830739 1.0098280
vn 0.0000000 0.8657007 0.5005620
vt 0.7918722 0.7396001
v 1.4919550 1.9830739 0.9388280
vn 1.0000000 0.0000000 0.0000000
vt 0.3902609 0.1661632
v 1.4919550 1.9830739 1.0098280
vn 1.0000000 0.0000000 0.0000000
vt 0.3977158 0.1661632
v 1.4919550 1.9215860 0.9033280
vn 1.0000000 0.0000000 0.0000000
vt 0.3865333 0.1597070
v 1.4919550 1.8600990 0.9388280
vn 1.0000000 0.0000000 0.0000000
vt 0.3902609 0.1532508
v 1.4919550 1.8600990 1.0098280
vn 1.0000000 0.0000000 0.0000000
vt 0.3977159 0.1532508
v 1.4919550 1.9215860 1.0452220
vn 1.0000000 0.0000000 0.0000000
vt 0.4014322 0.1597070

g group_119_106102876211712
f 1/1/1 2/2/2 3/3/3 
f 2/2/2 4/4/4 3/3/3 
f 5/5/5 6/6/6 7/7/7 
f 6/6/6 8/8/8 7/7/7 
f 6/6/6 9/9/9 8/8/8 
f 9/9/9 10/10/10 8/8/8 
f 9/9/9 11/11/11 10/10/10 
f 11/11/11 12/12/12 10/10/10 
f 13/13/13 14/14/14 15/15/15 
f 14/14/14 16/16/16 15/15/15 
f 14/14/14 1/1/1 16/16/16 
f 1/1/1 3/3/3 16/16/16 
f 17/17/17 18/18/18 19/19/19 
f 19/19/19 18/18/18 20/20/20 
f 20/20/20 18/18/18 21/21/21 
f 21/21/21 18/18/18 22/22/22 
