v 1.6901000 3.3231621 0.9796041
vn -0.0000000 -0.5021898 -0.8647574
vt 0.3875450 -2.7250690
v 1.0064360 3.3231621 0.9796042
vn -0.0000000 -0.5021899 -0.8647575
vt 0.0024012 -2.7250690
v 1.0064360 3.4308391 0.8719263
vn -0.0000000 -0.8658441 -0.5003139
vt 0.0024012 -2.8479190
v 1.6901000 3.1029310 1.0398110
vn -0.0000000 -0.1325440 -0.9911771
vt 0.3875450 -2.5489340
v 1.0064360 3.1029310 1.0398110
vn 0.0000000 -0.1325440 -0.9911771
vt 0.0024012 -2.5489340
v 1.6901000 3.4308391 0.8719263
vn 0.0000000 -0.8658440 -0.5003142
vt 0.3875450 -2.8479190
v 1.0064360 3.4705200 0.7242649
vn 0.0000000 -0.9999996 0.0009755
vt 0.0024012 -2.9737141
v 1.6901000 3.4705200 0.7242649
vn 0.0000000 -0.9999995 0.0009752
vt 0.3875450 -2.9737141
v 1.0064360 3.4308400 0.5777451
vn 0.0000000 -0.8635085 0.5043344
vt 0.0024012 -3.0965190
v 1.6901000 3.4308400 0.5777451
vn 0.0000000 -0.8635085 0.5043344
vt 0.3875450 -3.0965190
v 1.0064360 3.2937889 0.4426944
vn 0.0000000 -0.5560675 0.8311371
vt 0.0024012 -3.2465763
v 1.6901000 3.2937889 0.4426944
vn 0.0000000 -0.5560710 0.8311349
vt 0.3875450 -3.2465763
v 1.0063730 2.4311860 0.0767180
vn 0.0000000 -0.1992793 0.9799427
vt 0.0024012 -3.8415413
v 1.0063730 2.4311860 0.0767180
vn 0.0000000 -0.1992793 0.9799427
vt 0.0024012 6.2713451
v 1.0064360 -2.3008609 0.0767179
vn 0.0000000 0.1296687 0.9915574
vt 0.0024012 3.2792830
v 1.6901000 2.4311860 0.0767180
vn 0.0000000 -0.1992828 0.9799421
vt 0.3875450 6.2713451
v 1.6901000 -3.4399710 0.3798319
vn 0.0000000 0.5003355 0.8658316
vt 0.3875450 2.4332910
v 1.6901000 -2.3008609 0.0767179
vn 0.0000000 0.1296692 0.9915573
vt 0.3875450 3.2792830
v 1.0064360 -3.4399710 0.3798319
vn 0.0000000 0.5003355 0.8658316
vt 0.0024012 2.4332910
v 1.0064360 -3.5683720 0.5088774
vn 0.0000000 0.8665956 0.4990112
vt 0.0024012 2.2853830
v 1.6901000 -3.5683720 0.5088774
vn -0.0000003 0.8665960 0.4990103
vt 0.3875450 2.2853830
v 1.0064360 -3.6151240 0.6832061
vn -0.0000004 1.0000000 0.0001085
vt 0.0024012 2.1411130
v 1.6901000 -3.6151240 0.6832060
vn -0.0000004 1.0000000 0.0001086
vt 0.3875450 2.1411130
v 1.0064360 -3.5681920 0.8583591
vn -0.0000003 0.8660250 -0.5000008
vt 0.0024012 2.0037010
v 1.6901000 -3.5681920 0.8583592
vn 0.0000000 0.8660254 -0.4999999
vt 0.3875450 2.0037010
v 1.0064360 -3.4399710 0.9865801
vn 0.0000000 0.5000015 -0.8660245
vt 0.0024012 1.8528399
v 1.6901000 -3.4399710 0.9865801
vn 0.0000000 0.5000014 -0.8660246
vt 0.3875450 1.8528399
v 1.0064360 -3.2648189 1.0335120
vn 0.0000000 0.1310178 -0.9913800
vt 0.0024012 1.7146749
v 1.6901000 -3.2648189 1.0335120
vn 0.0000000 0.1310178 -0.9913800
vt 0.3875450 1.7146749
v 1.0636539 3.4983749 0.9109508
vn -0.9493729 0.2720087 0.1571697
vt 0.3949649 -2.8479190
v 1.0378450 3.4308391 0.8719263
vn -0.9493786 0.2719886 0.1571709
vt 0.4190599 -2.8479190
v 1.0636539 3.3621621 1.0471539
vn -0.9460371 0.2291413 0.2291467
vt 0.3949649 -2.7250690
v 1.0378450 3.4705200 0.7242649
vn -0.9493859 0.3141122 -0.0003388
vt 0.4190599 -2.9737141
v 1.0636539 3.5485201 0.7241888
vn -0.9493776 0.3141370 -0.0003392
vt 0.3949649 -2.9737141
v 1.0378450 3.4308400 0.5777451
vn -0.9493815 0.2712448 -0.1584331
vt 0.4190599 -3.0965190
v 1.0636539 3.4981930 0.5384070
vn -0.9495180 0.2709776 -0.1580717
vt 0.3949649 -3.0965190
v 1.0636539 3.3357019 0.3769116
vn -0.9492895 0.1747500 -0.2613655
vt 0.3949649 -3.2465763
v 1.0378450 3.2937889 0.4426944
vn -0.9492198 0.1762741 -0.2605942
vt 0.4190599 -3.2465763
v 1.0378450 2.4312780 0.0767182
vn -0.9481330 0.0639833 -0.3113679
vt 0.4190599 -3.8415413
v 1.0636539 -2.3120980 0.0010000
vn -0.9475457 -0.0418361 -0.3168705
vt 0.3949649 3.2792830
v 1.0378450 -2.3008609 0.0767178
vn -0.9475719 -0.0409504 -0.3169079
vt 0.4190599 3.2792830
v 1.0636539 2.4450159 0.0010000
vn -0.9480869 0.0624388 -0.3118216
vt 0.3949649 6.2713451
v 1.0636539 -3.4799740 0.3128711
vn -0.9493405 -0.1578773 -0.2717119
vt 0.3949649 2.4332910
v 1.0378450 -3.4399710 0.3798319
vn -0.9493900 -0.1564837 -0.2723445
vt 0.4190599 2.4332910
v 1.0636539 -3.6359661 0.4699546
vn -0.9493749 -0.2723073 -0.1566400
vt 0.3949649 2.2853830
v 1.0378450 -3.5683720 0.5088775
vn -0.9494072 -0.2722286 -0.1565810
vt 0.4190599 2.2853830
v 1.0378450 -3.6151240 0.6832060
vn -0.9493830 -0.3141208 -0.0000134
vt 0.4190599 2.1411130
v 1.0636539 -3.6931241 0.6831976
vn -0.9493795 -0.3141315 -0.0000162
vt 0.3949649 2.1411130
v 1.0378450 -3.5681920 0.8583592
vn -0.9493788 -0.2720485 0.1570654
vt 0.4190599 2.0037010
v 1.0636539 -3.6357410 0.8973591
vn -0.9493791 -0.2720478 0.1570653
vt 0.3949649 2.0037010
v 1.0378450 -3.4399710 0.9865803
vn -0.9460336 -0.2291512 0.2291510
vt 0.4190599 1.8528399
v 1.6327920 3.1136839 1.1170660
vn 0.9323919 0.0483495 0.3582006
vt 0.4190599 -2.5489340
v 1.6629519 3.1029310 1.0398110
vn 0.9326999 0.0476335 0.3574940
vt 0.3949649 -2.5489340
v 1.6629519 3.3231621 0.9796042
vn 0.9329766 0.1820682 0.3104928
vt 0.3949649 -2.7250690
v 1.6327920 3.4983749 0.9109508
vn 0.9326927 0.3122889 0.1804439
vt 0.4190599 -2.8479190
v 1.6327920 3.3621621 1.0471539
vn 0.9327011 0.1820284 0.3113430
vt 0.4190599 -2.7250690
v 1.6629519 3.4308391 0.8719263
vn 0.9327000 0.3122661 0.1804456
vt 0.3949649 -2.8479190
v 1.6629519 3.4705200 0.7242649
vn 0.9327096 0.3606280 -0.0003887
vt 0.3949649 -2.9737141
v 1.6629519 3.4308400 0.5777451
vn 0.9327040 0.3114123 -0.1818947
vt 0.3949649 -3.0965190
v 1.6327920 3.5485201 0.7241888
vn 0.9326988 0.3606561 -0.0003896
vt 0.4190599 -2.9737141
v 1.6629519 3.2937889 0.4426944
vn 0.9324917 0.2023470 -0.2991905
vt 0.3949649 -3.2465763
v 1.6327920 3.3357019 0.3769116
vn 0.9325832 0.2006347 -0.3000572
vt 0.4190599 -3.2465763
v 1.6327920 3.4981930 0.5384070
vn 0.9328832 0.3111157 -0.1814826
vt 0.4190599 -3.0965190
v 1.6629519 2.4312780 0.0767182
vn 0.9310871 0.0734052 -0.3573353
vt 0.3949649 -3.8415413
v 1.6327920 -2.3120980 0.0010000
vn 0.9303287 -0.0479949 -0.3635726
vt 0.4190599 3.2792830
v 1.6327920 2.4450159 0.0010000
vn 0.9310256 0.0716665 -0.3578481
vt 0.4190599 6.2713451
v 1.6629519 -2.3008609 0.0767178
vn 0.9303634 -0.0469973 -0.3636143
vt 0.3949649 3.2792830
v 1.6629519 -3.4399710 0.3798319
vn 0.9327163 -0.1796761 -0.3126610
vt 0.3949649 2.4332910
v 1.6327920 -3.4799740 0.3128711
vn 0.9326509 -0.1812468 -0.3119488
vt 0.4190599 2.4332910
v 1.6327920 -3.6359661 0.4699546
vn 0.9326959 -0.3126307 -0.1798348
vt 0.4190599 2.2853830
v 1.6629519 -3.5683720 0.5088775
vn 0.9327385 -0.3125410 -0.1797697
vt 0.3949649 2.2853830
v 1.6629519 -3.6151240 0.6832060
vn 0.9327065 -0.3606363 -0.0000156
vt 0.3949649 2.1411130
v 1.6629519 -3.5681920 0.8583592
vn 0.9327010 -0.3123336 0.1803238
vt 0.3949649 2.0037010
v 1.6327920 -3.6931241 0.6831976
vn 0.9327019 -0.3606483 -0.0000186
vt 0.4190599 2.1411130
v 1.6629519 -3.4399710 0.9865803
vn 0.9327011 -0.1803256 0.3123322
vt 0.3949649 1.8528399
v 1.6327920 -3.6357410 0.8973591
vn 0.9327013 -0.3123327 0.1803236
vt 0.4190599 2.0037010
v 1.6629519 -3.2648189 1.0335120
vn 0.9323376 -0.0488190 0.3582782
vt 0.3949649 1.7146749
v 1.6327920 -3.4789710 1.0541300
vn 0.9330968 -0.1802238 0.3112071
vt 0.4190599 1.8528399
v 1.6327920 -3.2750440 1.1108390
vn 0.9326996 -0.0488190 0.3573348
vt 0.4190599 1.7146749
v 1.6901000 3.4308391 0.8719263
vn 0.6217458 0.6781772 0.3918009
vt 0.8678392 -2.8479190
v 1.5918519 3.4983749 0.9109508
vn 0.6217769 0.6781594 0.3917823
vt 0.8159592 -2.8479190
v 1.6901000 3.3231621 0.9796041
vn 0.6217877 0.3935024 0.6771528
vt 0.8678392 -2.7250690
v 1.5918519 3.3621621 1.0471539
vn 0.6231819 0.3933901 0.6759353
vt 0.8159592 -2.7250690
v 1.6901000 3.1029310 1.0398110
vn 0.6204500 0.1059337 0.7770584
vt 0.8678392 -2.5489340
v 1.6901000 3.4705200 0.7242649
vn 0.6219313 0.7830717 -0.0005169
vt 0.8678392 -2.9737141
v 1.5918519 3.5485201 0.7241888
vn 0.6218207 0.7831595 -0.0004997
vt 0.8159592 -2.9737141
v 1.6901000 3.4308400 0.5777451
vn 0.6231137 0.6758819 -0.3935899
vt 0.8678392 -3.0965190
v 1.5918519 3.4984040 0.5385150
vn 0.6222628 0.6768330 -0.3933015
vt 0.8159592 -3.0965190
v 1.6901000 3.2937889 0.4426944
vn 0.6213311 0.4363100 -0.6508313
vt 0.8678392 -3.2465763
v 1.5918519 3.3357019 0.3769116
vn 0.6209988 0.4347694 -0.6521780
vt 0.8159592 -3.2465763
v 1.6901000 2.4311860 0.0767180
vn 0.6166217 0.1582491 -0.7711906
vt 0.8678392 -3.8415413
v 1.5918519 2.4450159 0.0010000
vn 0.6170455 0.1556754 -0.7713754
vt 0.8159592 -3.8415413
v 1.6901000 -2.3008609 0.0767179
vn 0.6143740 -0.1019087 -0.7824061
vt 0.8678392 3.2792830
v 1.5918519 -2.3120980 0.0010000
vn 0.6145530 -0.1032619 -0.7820880
vt 0.8159592 3.2792830
v 1.6901000 2.4311860 0.0767180
vn 0.6166217 0.1582491 -0.7711906
vt 0.8678392 6.2713451
v 1.6901000 -3.4399710 0.3798319
vn 0.6215609 -0.3910069 -0.6788046
vt 0.8678392 2.4332910
v 1.5918519 -3.4799740 0.3128711
vn 0.6219447 -0.3930024 -0.6772990
vt 0.8159592 2.4332910
v 1.6901000 -3.5683720 0.5088774
vn 0.6217605 -0.6787453 -0.3907923
vt 0.8678392 2.2853830
v 1.5918519 -3.6359670 0.4699546
vn 0.6219608 -0.6786833 -0.3905814
vt 0.8159592 2.2853830
v 1.6901000 -3.6151240 0.6832060
vn 0.6217855 -0.7831876 -0.0000883
vt 0.8678392 2.1411130
v 1.5918519 -3.6931241 0.6831976
vn 0.6218081 -0.7831697 -0.0000685
vt 0.8159592 2.1411130
v 1.6901000 -3.5681920 0.8583592
vn 0.6217831 -0.6782620 0.3915947
vt 0.8678392 2.0037010
v 1.5918519 -3.6357410 0.8973591
vn 0.6217816 -0.6782638 0.3915942
vt 0.8159592 2.0037010
v 1.6901000 -3.4399710 0.9865801
vn 0.6234487 -0.3934109 0.6756772
vt 0.8678392 1.8528399
v 1.5918519 -3.4789710 1.0541300
vn 0.6217794 -0.3945116 0.6765730
vt 0.8159592 1.8528399
v 1.6901000 -3.2648189 1.0335120
vn 0.6217834 -0.1026086 0.7764386
vt 0.8678392 1.7146749
v 1.5918519 -3.2750440 1.1108390
vn 0.6201395 -0.1041847 0.7775427
vt 0.8159592 1.7146749
v 1.1007860 3.4983749 0.9109508
vn -0.6371602 0.6673679 0.3855478
vt 0.8159592 -2.8479190
v 1.0064360 3.4308391 0.8719263
vn -0.6371295 0.6673868 0.3855658
vt 0.8678392 -2.8479190
v 1.0064360 3.3231621 0.9796042
vn -0.6240141 0.5525288 0.5525562
vt 0.8678392 -2.7250690
v 1.1007860 3.5485201 0.7241888
vn -0.6372011 0.7706975 -0.0004901
vt 0.8159592 -2.9737141
v 1.0064360 3.4705200 0.7242649
vn -0.6373081 0.7706089 -0.0005032
vt 0.8678392 -2.9737141
v 1.1007850 3.4984040 0.5385150
vn -0.6376442 0.6660445 -0.3870332
vt 0.8159592 -3.0965190
v 1.0064360 3.4308400 0.5777451
vn -0.6384706 0.6650976 -0.3872990
vt 0.8678392 -3.0965190
v 1.1007850 3.3357019 0.3769116
vn -0.6364009 0.4278329 -0.6418356
vt 0.8159592 -3.2465763
v 1.0064360 3.2937889 0.4426944
vn -0.6367164 0.4294063 -0.6404705
vt 0.8678392 -3.2465763
v 1.1007850 2.4450159 0.0010000
vn -0.6322135 0.1532699 -0.7594830
vt 0.8159592 -3.8415413
v 1.1007850 -2.3120980 0.0010000
vn -0.6299852 -0.1016743 -0.7699227
vt 0.8159592 3.2792830
v 1.0064360 -2.3008609 0.0767179
vn -0.6298134 -0.1003091 -0.7702423
vt 0.8678392 3.2792830
v 1.0063730 2.4311860 0.0767180
vn -0.6317915 0.1558693 -0.7593052
vt 0.8678392 6.2713451
v 1.1007850 -3.4799740 0.3128711
vn -0.6373225 -0.3867646 -0.6665082
vt 0.8159592 2.4332910
v 1.1007850 -3.6359670 0.4699546
vn -0.6373394 -0.6678781 -0.3843661
vt 0.8159592 2.2853830
v 1.0064360 -3.5683720 0.5088774
vn -0.6371439 -0.6679452 -0.3845737
vt 0.8678392 2.2853830
v 1.0064360 -3.4399710 0.3798319
vn -0.6369492 -0.3847563 -0.6680256
vt 0.8678392 2.4332910
v 1.1007850 -3.6931241 0.6831976
vn -0.6371886 -0.7707080 -0.0000683
vt 0.8159592 2.1411130
v 1.0064360 -3.6151240 0.6832061
vn -0.6371666 -0.7707261 -0.0000875
vt 0.8678392 2.1411130
v 1.1007850 -3.6357410 0.8973591
vn -0.6371643 -0.6674705 0.3853634
vt 0.8159592 2.0037010
v 1.0064360 -3.5681920 0.8583591
vn -0.6371663 -0.6674681 0.3853641
vt 0.8678392 2.0037010
v 1.1007850 -3.4789710 1.0541300
vn -0.6239987 -0.5525516 0.5525508
vt 0.8159592 1.8528399
v 1.0064360 -3.4399710 0.9865801
vn -0.6239985 -0.5525518 0.5525508
vt 0.8678392 1.8528399
v 1.6327920 -3.2750440 1.1108390
vn 0.0000000 -0.1356844 0.9907521
vt 0.4541086 1.7146749
v 1.6327920 3.1136839 1.1170660
vn 0.0000000 0.1362229 0.9906783
vt 0.4541086 -2.5489340
v 1.0636539 -3.2750440 1.1108390
vn 0.0000000 -0.1356844 0.9907521
vt 0.7776470 1.7146749
v 1.0636539 -3.4789710 1.0541300
vn 0.0000000 -0.5040798 0.8636571
vt 0.7776470 1.8528399
v 1.6327920 -3.4789710 1.0541300
vn 0.0000000 -0.5040798 0.8636571
vt 0.4541086 1.8528399
v 1.0636539 -3.6357410 0.8973591
vn 0.0000000 -0.8660278 0.4999959
vt 0.7776470 2.0037010
v 1.6327920 -3.6357410 0.8973591
vn 0.0000000 -0.8660278 0.4999959
vt 0.4541086 2.0037010
v 1.0636539 -3.6931241 0.6831976
vn 0.0000000 -1.0000000 -0.0000466
vt 0.7776470 2.1411130
v 1.6327920 -3.6931241 0.6831976
vn 0.0000000 -1.0000000 -0.0000466
vt 0.4541086 2.1411130
v 1.0636539 -3.6359661 0.4699546
vn 0.0000000 -0.8668745 -0.4985265
vt 0.7776470 2.2853830
v 1.6327920 -3.6359661 0.4699546
vn 0.0000000 -0.8668745 -0.4985265
vt 0.4541086 2.2853830
v 1.0636539 -3.4799740 0.3128711
vn 0.0000000 -0.5011420 -0.8653651
vt 0.7776470 2.4332910
v 1.6327920 -3.4799740 0.3128711
vn 0.0000000 -0.5011420 -0.8653651
vt 0.4541086 2.4332910
v 1.0636539 -2.3120980 0.0010000
vn 0.0000000 -0.1301062 -0.9915001
vt 0.7776470 3.2792830
v 1.6327920 -2.3120980 0.0010000
vn 0.0000000 -0.1301062 -0.9915001
vt 0.4541086 3.2792830
v 1.0636539 2.4450159 0.0010000
vn 0.0000000 0.1983592 -0.9801294
vt 0.7776470 6.2713451
v 1.6327920 2.4450159 0.0010000
vn 0.0000000 0.1983592 -0.9801294
vt 0.4541086 -3.8415413
v 1.0636539 2.4450159 0.0010000
vn 0.0000000 0.1983592 -0.9801294
vt 0.7776470 -3.8415413
v 1.0636539 3.3357019 0.3769116
vn 0.0000000 0.5570632 -0.8304701
vt 0.7776470 -3.2465763
v 1.6327920 3.3357019 0.3769116
vn 0.0000000 0.5570632 -0.8304701
vt 0.4541086 -3.2465763
v 1.0636539 3.4981930 0.5384070
vn 0.0000000 0.8645672 -0.5025173
vt 0.7776470 -3.0965190
v 1.6327920 3.4981930 0.5384070
vn 0.0000000 0.8645672 -0.5025173
vt 0.4541086 -3.0965190
v 1.0636539 3.5485201 0.7241888
vn 0.0000000 0.9999994 -0.0011167
vt 0.7776470 -2.9737141
v 1.6327920 3.5485201 0.7241888
vn 0.0000000 0.9999994 -0.0011167
vt 0.4541086 -2.9737141
v 1.0636539 3.4983749 0.9109508
vn 0.0000000 0.8658884 0.5002374
vt 0.7776470 -2.8479190
v 1.6327920 3.4983749 0.9109508
vn 0.0000000 0.8658884 0.5002374
vt 0.4541086 -2.8479190
v 1.0636539 3.3621621 1.0471539
vn 0.0000000 0.5053740 0.8629004
vt 0.7776470 -2.7250690
v 1.6327920 3.3621621 1.0471539
vn 0.0000000 0.5053740 0.8629004
vt 0.4541086 -2.7250690
v 1.0636539 3.1136839 1.1170660
vn 0.0000000 0.1362229 0.9906783
vt 0.7776470 -2.5489340
v 1.3489530 3.2303841 0.5422118
vn 0.9217653 -0.2030834 0.3303120
vt 0.8893794 -3.2465763
v 1.3985850 3.2937901 0.4426944
vn 0.9216741 -0.2153550 0.3227061
vt 0.9890758 -3.2465763
v 1.3985850 3.4304180 0.5775291
vn 0.9186053 -0.2775793 0.2812724
vt 0.9890758 -3.0965190
v 1.3985850 2.4311860 0.0767180
vn 0.9217350 -0.0764131 0.3802178
vt 0.9890758 -3.8415413
v 1.3489430 2.4102640 0.1928484
vn 0.9217756 -0.0784607 0.3797021
vt 0.8893794 -3.8415413
v 1.3489430 -2.2838621 0.1934871
vn 0.9217285 0.0491266 0.3847118
vt 0.8893794 3.2792830
v 1.3985850 -2.3008609 0.0767178
vn 0.9215708 0.0501705 0.3849547
vt 0.9890758 3.2792830
v 1.3985850 2.4311860 0.0767180
vn 0.9217350 -0.0764131 0.3802178
vt 0.9890758 6.2713451
v 1.3985850 -3.4399700 0.3798319
vn 0.9216403 0.1945861 0.3357314
vt 0.9890758 2.4332910
v 1.3489430 -3.3794529 0.4811315
vn 0.9218721 0.1923441 0.3363860
vt 0.8893794 2.4332910
v 1.3489430 -3.4661131 0.5677606
vn 0.9170709 0.2823587 0.2815218
vt 0.8893794 2.2853830
v 1.3985850 -3.4399700 0.9865801
vn 0.9365438 0.1820612 -0.2995655
vt 0.9890758 1.8528399
v 1.3557791 -3.3809669 0.8843909
vn 0.9400517 0.1735673 -0.2935597
vt 0.8893794 1.8528399
v 1.3489430 -3.2493520 0.9165304
vn 0.9257125 0.0549998 -0.3742076
vt 0.8893794 1.7146749
v 1.3985850 3.1029320 1.0398110
vn 0.9204243 0.0003867 -0.3909208
vt 0.9890758 -2.5489340
v 1.3985850 -3.2648189 1.0335120
vn 0.9217547 0.0508100 -0.3844302
vt 0.9890758 1.7146749
v 1.3489530 3.0866640 0.9229374
vn 0.9204259 0.0003867 -0.3909169
vt 0.8893794 -2.5489340
v 1.3489530 3.2303841 0.5422118
vn -0.9214137 -0.2035038 0.3310332
vt 0.8893794 -3.2465763
v 1.2991960 3.2937901 0.4426944
vn -0.9213238 -0.2158089 0.3234023
vt 0.9890758 -3.2465763
v 1.3489430 2.4102640 0.1928484
vn -0.9214521 -0.0786114 0.3804553
vt 0.8893794 -3.8415413
v 1.3489430 -2.2838621 0.1934871
vn -0.9214314 0.0492152 0.3854116
vt 0.8893794 3.2792830
v 1.3489430 2.4102640 0.1928484
vn -0.9214521 -0.0786114 0.3804553
vt 0.8893794 6.2713451
v 1.2991869 2.4311860 0.0767180
vn -0.9214129 -0.0765597 0.3809684
vt 0.9890758 6.2713451
v 1.3489430 -3.3794529 0.4811315
vn -0.9161200 0.1030164 0.3874428
vt 0.8893794 2.4332910
v 1.2991960 -2.3008609 0.0767179
vn -0.9212734 0.0502607 0.3856543
vt 0.9890758 3.2792830
v 1.6327920 2.4450159 0.0010000
vn 0.0000000 0.1983592 -0.9801294
vt 0.4541086 6.2713451
v 1.6629519 2.4312780 0.0767182
vn 0.9310871 0.0734052 -0.3573353
vt 0.3949649 6.2713451
v 1.6327920 2.4450159 0.0010000
vn 0.9310256 0.0716665 -0.3578481
vt 0.4190599 -3.8415413
v 1.0378450 3.3231621 0.9796042
vn -0.9460341 0.2291501 0.2291497
vt 0.4190599 -2.7250690
v 1.0636539 -3.4789710 1.0541300
vn -0.9460335 -0.2291513 0.2291511
vt 0.3949649 1.8528399
v 1.0378450 2.4312780 0.0767182
vn -0.9481330 0.0639833 -0.3113679
vt 0.4190599 6.2713451
v 1.0636539 2.4450159 0.0010000
vn -0.9480869 0.0624388 -0.3118216
vt 0.3949649 -3.8415413
v 1.6901000 2.4311860 0.0767180
vn 0.0000000 -0.1992828 0.9799421
vt 0.3875450 -3.8415413
v 1.1007850 2.4450159 0.0010000
vn -0.6322135 0.1532699 -0.7594830
vt 0.8159592 6.2713451
v 1.0063730 2.4311860 0.0767180
vn -0.6317915 0.1558693 -0.7593052
vt 0.8678392 -3.8415413
v 1.1007860 3.3621621 1.0471539
vn -0.6240019 0.5525280 0.5525707
vt 0.8159592 -2.7250690
v 1.5918519 2.4450159 0.0010000
vn 0.6170455 0.1556754 -0.7713754
vt 0.8159592 6.2713451
v 1.5918519 3.1136839 1.1170660
vn 0.6217831 0.1067527 0.7758800
vt 0.8159592 -2.5489340
v 1.2991869 2.4311860 0.0767180
vn -0.9214129 -0.0765597 0.3809684
vt 0.9890758 -3.8415413
v 1.2991960 3.4304180 0.5775291
vn -0.9182415 -0.2781725 0.2818734
vt 0.9890758 -3.0965190
v 1.3985850 -3.5681911 0.8583592
vn 0.9361584 0.2486038 -0.2486034
vt 0.9890758 2.0037010
v 1.3985850 -3.5683720 0.5088774
vn 0.9168735 0.2829669 0.2815543
vt 0.9890758 2.2853830
v 1.2991960 -3.4399700 0.3798319
vn -0.9158289 0.1032630 0.3880647
vt 0.9890758 2.4332910
v 1.3489430 2.4102640 0.1928484
vn 0.9217756 -0.0784607 0.3797021
vt 0.8893794 6.2713451

g group_143_106102876223232
f 1/1/1 2/2/2 3/3/3 
f 4/4/4 5/5/5 2/2/2 
f 6/6/6 3/3/3 7/7/7 
f 8/8/8 7/7/7 9/9/9 
f 10/10/10 9/9/9 11/11/11 
f 12/12/12 11/11/11 13/13/13 
f 14/14/14 15/15/15 16/16/16 
f 17/17/17 18/18/18 19/19/19 
f 17/17/17 19/19/19 20/20/20 
f 21/21/21 20/20/20 22/22/22 
f 23/23/23 22/22/22 24/24/24 
f 25/25/25 24/24/24 26/26/26 
f 27/27/27 26/26/26 28/28/28 
f 29/29/29 5/5/5 4/4/4 
f 30/30/30 31/31/31 32/32/32 
f 33/33/33 31/31/31 30/30/30 
f 33/33/33 34/34/34 35/35/35 
f 36/36/36 37/37/37 38/38/38 
f 38/38/38 37/37/37 39/39/39 
f 40/40/40 41/41/41 42/42/42 
f 40/40/40 43/43/43 44/44/44 
f 45/45/45 46/46/46 43/43/43 
f 46/46/46 45/45/45 47/47/47 
f 47/47/47 48/48/48 49/49/49 
f 49/49/49 50/50/50 51/51/51 
f 52/52/52 53/53/53 54/54/54 
f 55/55/55 56/56/56 57/57/57 
f 55/55/55 57/57/57 58/58/58 
f 58/58/58 59/59/59 60/60/60 
f 61/61/61 62/62/62 63/63/63 
f 61/61/61 64/64/64 62/62/62 
f 65/65/65 66/66/66 67/67/67 
f 68/68/68 69/69/69 65/65/65 
f 70/70/70 69/69/69 71/71/71 
f 71/71/71 72/72/72 70/70/70 
f 72/72/72 73/73/73 74/74/74 
f 73/73/73 75/75/75 76/76/76 
f 75/75/75 77/77/77 78/78/78 
f 52/52/52 79/79/79 53/53/53 
f 80/80/80 81/81/81 82/82/82 
f 82/82/82 83/83/83 84/84/84 
f 85/85/85 86/86/86 80/80/80 
f 87/87/87 88/88/88 85/85/85 
f 89/89/89 90/90/90 87/87/87 
f 89/89/89 91/91/91 92/92/92 
f 93/93/93 94/94/94 95/95/95 
f 96/96/96 97/97/97 93/93/93 
f 98/98/98 99/99/99 96/96/96 
f 100/100/100 101/101/101 98/98/98 
f 102/102/102 103/103/103 100/100/100 
f 104/104/104 105/105/105 102/102/102 
f 106/106/106 107/107/107 104/104/104 
f 106/106/106 84/84/84 107/107/107 
f 108/108/108 109/109/109 110/110/110 
f 111/111/111 112/112/112 109/109/109 
f 113/113/113 114/114/114 112/112/112 
f 115/115/115 116/116/116 114/114/114 
f 115/115/115 117/117/117 116/116/116 
f 118/118/118 119/119/119 120/120/120 
f 118/118/118 121/121/121 119/119/119 
f 122/122/122 123/123/123 124/124/124 
f 125/125/125 126/126/126 123/123/123 
f 127/127/127 128/128/128 126/126/126 
f 129/129/129 130/130/130 128/128/128 
f 131/131/131 132/132/132 133/133/133 
f 131/131/131 133/133/133 134/134/134 
f 135/135/135 134/134/134 136/136/136 
f 137/137/137 136/136/136 138/138/138 
f 139/139/139 138/138/138 140/140/140 
f 141/141/141 140/140/140 142/142/142 
f 143/143/143 142/142/142 144/144/144 
f 145/145/145 144/144/144 146/146/146 
f 147/147/147 148/148/148 149/149/149 
f 150/150/150 149/149/149 151/151/151 
f 152/152/152 151/151/151 153/153/153 
f 154/154/154 153/153/153 155/155/155 
f 156/156/156 155/155/155 157/157/157 
f 158/158/158 157/157/157 159/159/159 
f 160/160/160 161/161/161 162/162/162 
f 163/163/163 161/161/161 164/164/164 
f 165/165/165 166/166/166 167/167/167 
f 168/168/168 166/166/166 169/169/169 
f 168/168/168 169/169/169 170/170/170 
f 171/171/171 172/172/172 173/173/173 
f 174/174/174 175/175/175 176/176/176 
f 177/177/177 178/178/178 179/179/179 
f 180/180/180 181/181/181 182/182/182 
f 183/183/183 180/180/180 184/184/184 
f 158/158/158 159/159/159 132/132/132 
f 131/131/131 134/134/134 135/135/135 
f 135/135/135 136/136/136 137/137/137 
f 137/137/137 138/138/138 139/139/139 
f 139/139/139 140/140/140 141/141/141 
f 141/141/141 142/142/142 143/143/143 
f 143/143/143 144/144/144 145/145/145 
f 145/145/145 146/146/146 185/185/185 
f 147/147/147 149/149/149 150/150/150 
f 150/150/150 151/151/151 152/152/152 
f 152/152/152 153/153/153 154/154/154 
f 154/154/154 155/155/155 156/156/156 
f 156/156/156 157/157/157 158/158/158 
f 57/57/57 56/56/56 54/54/54 
f 52/52/52 54/54/54 56/56/56 
f 78/78/78 77/77/77 79/79/79 
f 76/76/76 75/75/75 78/78/78 
f 74/74/74 73/73/73 76/76/76 
f 70/70/70 72/72/72 74/74/74 
f 71/71/71 69/69/69 68/68/68 
f 68/68/68 65/65/65 67/67/67 
f 67/67/67 66/66/66 186/186/186 
f 62/62/62 64/64/64 187/187/187 
f 61/61/61 63/63/63 59/59/59 
f 60/60/60 59/59/59 63/63/63 
f 55/55/55 58/58/58 60/60/60 
f 35/35/35 34/34/34 36/36/36 
f 33/33/33 30/30/30 34/34/34 
f 32/32/32 31/31/31 188/188/188 
f 51/51/51 50/50/50 189/189/189 
f 49/49/49 48/48/48 50/50/50 
f 47/47/47 45/45/45 48/48/48 
f 43/43/43 46/46/46 44/44/44 
f 40/40/40 44/44/44 41/41/41 
f 42/42/42 41/41/41 190/190/190 
f 39/39/39 37/37/37 191/191/191 
f 36/36/36 38/38/38 35/35/35 
f 16/16/16 15/15/15 18/18/18 
f 12/12/12 13/13/13 192/192/192 
f 10/10/10 11/11/11 12/12/12 
f 8/8/8 9/9/9 10/10/10 
f 6/6/6 7/7/7 8/8/8 
f 1/1/1 3/3/3 6/6/6 
f 4/4/4 2/2/2 1/1/1 
f 27/27/27 28/28/28 29/29/29 
f 25/25/25 26/26/26 27/27/27 
f 23/23/23 24/24/24 25/25/25 
f 21/21/21 22/22/22 23/23/23 
f 17/17/17 20/20/20 21/21/21 
f 19/19/19 18/18/18 15/15/15 
f 104/104/104 107/107/107 105/105/105 
f 129/129/129 128/128/128 127/127/127 
f 127/127/127 126/126/126 125/125/125 
f 125/125/125 123/123/123 122/122/122 
f 122/122/122 124/124/124 121/121/121 
f 119/119/119 121/121/121 124/124/124 
f 118/118/118 120/120/120 193/193/193 
f 116/116/116 117/117/117 194/194/194 
f 115/115/115 114/114/114 113/113/113 
f 113/113/113 112/112/112 111/111/111 
f 111/111/111 109/109/109 108/108/108 
f 108/108/108 110/110/110 195/195/195 
f 102/102/102 105/105/105 103/103/103 
f 100/100/100 103/103/103 101/101/101 
f 98/98/98 101/101/101 99/99/99 
f 96/96/96 99/99/99 97/97/97 
f 93/93/93 97/97/97 94/94/94 
f 95/95/95 94/94/94 196/196/196 
f 89/89/89 92/92/92 90/90/90 
f 87/87/87 90/90/90 88/88/88 
f 85/85/85 88/88/88 86/86/86 
f 80/80/80 86/86/86 81/81/81 
f 82/82/82 81/81/81 83/83/83 
f 84/84/84 83/83/83 197/197/197 
f 164/164/164 161/161/161 160/160/160 
f 179/179/179 178/178/178 198/198/198 
f 177/177/177 199/199/199 178/178/178 
f 171/171/171 173/173/173 175/175/175 
f 200/200/200 172/172/172 171/171/171 
f 168/168/168 170/170/170 201/201/201 
f 169/169/169 166/166/166 165/165/165 
f 183/183/183 184/184/184 202/202/202 
f 165/165/165 167/167/167 203/203/203 
f 180/180/180 182/182/182 184/184/184 
f 175/175/175 173/173/173 176/176/176 
f 132/132/132 159/159/159 133/133/133 
f 79/79/79 77/77/77 53/53/53 
f 29/29/29 28/28/28 5/5/5 
f 84/84/84 197/197/197 107/107/107 
