v -1.4931999 2.0413630 0.2166736
vn 0.0000000 -0.8660252 -0.5000005
vt 0.9489860 0.7233605
v -1.4931999 2.1511199 0.1069164
vn 0.0000000 -0.4999994 -0.8660257
vt 0.9489860 0.7070622
v -1.2068570 2.0413630 0.2166736
vn 0.0000000 -0.8660251 -0.5000005
vt 0.9189200 0.7233603
v -1.2068570 2.1511199 0.1069164
vn 0.0000000 -0.4999994 -0.8660257
vt 0.9189200 0.7070622
v -1.4931999 2.0011890 0.3666049
vn 0.0000000 -1.0000000 -0.0000001
vt 0.9489860 0.7396584
v -1.2068570 2.0011890 0.3666049
vn 0.0000000 -1.0000000 -0.0000000
vt 0.9189200 0.7396584
v -1.4931999 2.0413630 0.5165362
vn 0.0000000 -0.8660252 0.5000005
vt 0.9489859 0.7559564
v -1.2068570 2.0413630 0.5165362
vn 0.0000000 -0.8660251 0.5000005
vt 0.9189199 0.7559566
v -1.4931999 2.1511199 0.6262934
vn 0.0000000 -0.4999996 0.8660256
vt 0.9489859 0.7722547
v -1.2068570 2.1511199 0.6262934
vn 0.0000000 -0.4999997 0.8660256
vt 0.9189199 0.7722547
v -1.4931999 2.3010509 0.6664674
vn 0.0000000 0.0000000 1.0000000
vt 0.9489859 0.7876682
v -1.2068570 2.3010509 0.6664674
vn 0.0000000 0.0000000 1.0000000
vt 0.9189199 0.7876682
v -1.4931999 2.4509830 0.6262935
vn 0.0000000 0.5000002 0.8660253
vt 0.9489859 0.7070622
v -1.4931999 2.3010509 0.6664674
vn 0.0000000 0.0000000 1.0000000
vt 0.9489859 0.6912062
v -1.2068570 2.4509830 0.6262935
vn 0.0000000 0.5000001 0.8660253
vt 0.9189199 0.7070622
v -1.2068570 2.3010509 0.6664674
vn 0.0000000 0.0000000 1.0000000
vt 0.9189199 0.6912062
v -1.4931999 2.5607400 0.5165362
vn 0.0000000 0.8660250 0.5000008
vt 0.9489859 0.7233603
v -1.2068570 2.5607400 0.5165362
vn 0.0000000 0.8660250 0.5000008
vt 0.9189199 0.7233603
v -1.4931999 2.6009140 0.3666050
vn 0.0000000 1.0000000 0.0000000
vt 0.9489859 0.7396584
v -1.2068570 2.6009140 0.3666050
vn 0.0000000 1.0000000 -0.0000000
vt 0.9189199 0.7396584
v -1.4931999 2.5607400 0.2166737
vn 0.0000000 0.8660251 -0.5000005
vt 0.9489859 0.7559566
v -1.2068570 2.5607400 0.2166737
vn 0.0000000 0.8660251 -0.5000005
vt 0.9189199 0.7559566
v -1.4931999 2.4509830 0.1069164
vn 0.0000000 0.5000004 -0.8660252
vt 0.9489859 0.7722547
v -1.2068570 2.4509830 0.1069164
vn 0.0000000 0.5000004 -0.8660252
vt 0.9189199 0.7722547
v -1.4931999 2.3010509 0.0667424
vn 0.0000000 0.0000004 -1.0000000
vt 0.9489859 0.7876682
v -1.2068570 2.3010509 0.0667424
vn 0.0000000 0.0000004 -1.0000000
vt 0.9189199 0.7876682
v -1.4931999 2.3010509 0.0667424
vn 0.0000000 0.0000004 -1.0000000
vt 0.9489860 0.6912062
v -1.2068570 2.3010509 0.0667424
vn 0.0000000 0.0000004 -1.0000000
vt 0.9189200 0.6912062
v -1.4931999 2.1511199 0.1069164
vn -1.0000000 0.0000000 0.0000000
vt 0.8500524 0.8733845
v -1.4931999 2.0413630 0.2166736
vn -1.0000000 0.0000000 0.0000000
vt 0.8615770 0.8849092
v -1.4931999 2.3010509 0.0667424
vn -1.0000000 0.0000000 0.0000000
vt 0.8458342 0.8576418
v -1.4931999 2.0011890 0.3666049
vn -1.0000000 0.0000000 0.0000000
vt 0.8773198 0.8891271
v -1.4931999 2.0413630 0.5165362
vn -1.0000000 0.0000000 0.0000000
vt 0.8930625 0.8849092
v -1.4931999 2.1511199 0.6262934
vn -1.0000000 0.0000000 0.0000000
vt 0.9045870 0.8733845
v -1.4931999 2.3010509 0.6664674
vn -1.0000000 0.0000000 0.0000000
vt 0.9088053 0.8576418
v -1.4931999 2.4509830 0.6262935
vn -1.0000000 0.0000000 0.0000000
vt 0.9045870 0.8418990
v -1.4931999 2.5607400 0.5165362
vn -1.0000000 0.0000000 0.0000000
vt 0.8930625 0.8303743
v -1.4931999 2.6009140 0.3666050
vn -1.0000000 0.0000000 0.0000000
vt 0.8773198 0.8261562
v -1.4931999 2.5607400 0.2166737
vn -1.0000000 0.0000000 0.0000000
vt 0.8615770 0.8303743
v -1.4931999 2.4509830 0.1069164
vn -1.0000000 0.0000000 0.0000000
vt 0.8500524 0.8418990
v -1.2068570 2.1511199 0.1069164
vn 1.0000000 0.0000000 0.0000000
vt 0.8580793 0.7788514
v -1.2068570 2.3010509 0.0667424
vn 1.0000000 0.0000000 0.0000000
vt 0.8538611 0.7945942
v -1.2068570 2.0413630 0.2166736
vn 1.0000000 0.0000000 0.0000000
vt 0.8696038 0.7673267
v -1.2068570 2.4509830 0.1069164
vn 1.0000000 0.0000000 0.0000000
vt 0.8580793 0.8103369
v -1.2068570 2.5607400 0.2166737
vn 1.0000000 0.0000000 0.0000000
vt 0.8696038 0.8218616
v -1.2068570 2.6009140 0.3666050
vn 1.0000000 0.0000000 0.0000000
vt 0.8853467 0.8260795
v -1.2068570 2.5607400 0.5165362
vn 1.0000000 0.0000000 0.0000000
vt 0.9010894 0.8218616
v -1.2068570 2.4509830 0.6262935
vn 1.0000000 0.0000000 0.0000000
vt 0.9126139 0.8103369
v -1.2068570 2.3010509 0.6664674
vn 1.0000000 0.0000000 0.0000000
vt 0.9168322 0.7945942
v -1.2068570 2.1511199 0.6262934
vn 1.0000000 0.0000000 0.0000000
vt 0.9126139 0.7788514
v -1.2068570 2.0413630 0.5165362
vn 1.0000000 0.0000000 0.0000000
vt 0.9010894 0.7673267
v -1.2068570 2.0011890 0.3666049
vn 1.0000000 0.0000000 0.0000000
vt 0.8853467 0.7631086

g group_93_106102876203264
f 1/1/1 2/2/2 3/3/3 
f 3/3/3 2/2/2 4/4/4 
f 5/5/5 1/1/1 6/6/6 
f 6/6/6 1/1/1 3/3/3 
f 7/7/7 5/5/5 8/8/8 
f 8/8/8 5/5/5 6/6/6 
f 9/9/9 7/7/7 10/10/10 
f 10/10/10 7/7/7 8/8/8 
f 11/11/11 9/9/9 12/12/12 
f 12/12/12 9/9/9 10/10/10 
f 13/13/13 14/14/14 15/15/15 
f 15/15/15 14/14/14 16/16/16 
f 17/17/17 13/13/13 18/18/18 
f 18/18/18 13/13/13 15/15/15 
f 19/19/19 17/17/17 20/20/20 
f 20/20/20 17/17/17 18/18/18 
f 21/21/21 19/19/19 22/22/22 
f 22/22/22 19/19/19 20/20/20 
f 23/23/23 21/21/21 24/24/24 
f 24/24/24 21/21/21 22/22/22 
f 25/25/25 23/23/23 26/26/26 
f 26/26/26 23/23/23 24/24/24 
f 2/2/2 27/27/27 4/4/4 
f 4/4/4 27/27/27 28/28/28 
f 29/29/29 30/30/30 31/31/31 
f 30/30/30 32/32/32 31/31/31 
f 32/32/32 33/33/33 31/31/31 
f 33/33/33 34/34/34 31/31/31 
f 34/34/34 35/35/35 31/31/31 
f 35/35/35 36/36/36 31/31/31 
f 36/36/36 37/37/37 31/31/31 
f 37/37/37 38/38/38 31/31/31 
f 38/38/38 39/39/39 31/31/31 
f 39/39/39 40/40/40 31/31/31 
f 41/41/41 42/42/42 43/43/43 
f 42/42/42 44/44/44 43/43/43 
f 44/44/44 45/45/45 43/43/43 
f 45/45/45 46/46/46 43/43/43 
f 46/46/46 47/47/47 43/43/43 
f 47/47/47 48/48/48 43/43/43 
f 48/48/48 49/49/49 43/43/43 
f 49/49/49 50/50/50 43/43/43 
f 50/50/50 51/51/51 43/43/43 
f 51/51/51 52/52/52 43/43/43 
