v -1.4897690 -0.4892254 0.9388277
vn 0.0000000 0.8660252 -0.5000004
vt 0.8228998 0.7319735
v -1.2209880 -0.4892254 0.9388277
vn 0.0000000 0.8660252 -0.5000004
vt 0.7918713 0.7321970
v -1.4897690 -0.5507134 0.9033277
vn 0.0000000 -0.0000006 -1.0000000
vt 0.8229207 0.7244637
v -1.2209880 -0.5507134 0.9033277
vn 0.0000000 -0.0000006 -1.0000000
vt 0.7918813 0.7244623
v -1.4897690 -0.5507134 0.9033277
vn 0.0000000 -0.0000006 -1.0000000
vt 0.8229230 0.7472781
v -1.2209880 -0.5507134 0.9033277
vn 0.0000000 -0.0000006 -1.0000000
vt 0.7918813 0.7472781
v -1.4897690 -0.6122011 0.9388277
vn 0.0000000 -0.8660255 -0.4999999
vt 0.8229348 0.7396355
v -1.2209880 -0.6122011 0.9388277
vn 0.0000000 -0.8660254 -0.4999999
vt 0.7919042 0.7396549
v -1.4897690 -0.6122011 1.0098280
vn 0.0000000 -0.8657010 0.5005614
vt 0.8229311 0.7320873
v -1.2209880 -0.6122011 1.0098280
vn 0.0000000 -0.8657010 0.5005615
vt 0.7918816 0.7323636
v -1.4897690 -0.5507134 1.0452210
vn 0.0000000 -0.0000006 1.0000000
vt 0.8229217 0.7244622
v -1.2209880 -0.5507134 1.0452210
vn 0.0000000 -0.0000006 1.0000000
vt 0.7918813 0.7244623
v -1.4897690 -0.5507134 1.0452210
vn 0.0000000 -0.0000006 1.0000000
vt 0.8229230 0.7472781
v -1.2209880 -0.5507134 1.0452210
vn 0.0000000 -0.0000006 1.0000000
vt 0.7918813 0.7472781
v -1.4897690 -0.4892254 1.0098280
vn 0.0000000 0.8657007 0.5005621
vt 0.8229203 0.7394318
v -1.2209880 -0.4892254 1.0098280
vn 0.0000000 0.8657007 0.5005620
vt 0.7918722 0.7396001
v -1.4897690 -0.4892254 0.9388277
vn -1.0000000 0.0000000 0.0000000
vt 0.3902609 0.1661632
v -1.4897690 -0.5507134 0.9033277
vn -1.0000000 0.0000000 0.0000000
vt 0.3865333 0.1597070
v -1.4897690 -0.4892254 1.0098280
vn -1.0000000 0.0000000 0.0000000
vt 0.3977158 0.1661632
v -1.4897690 -0.6122011 0.9388277
vn -1.0000000 0.0000000 0.0000000
vt 0.3902609 0.1532508
v -1.4897690 -0.6122011 1.0098280
vn -1.0000000 0.0000000 0.0000000
vt 0.3977159 0.1532508
v -1.4897690 -0.5507134 1.0452210
vn -1.0000000 0.0000000 0.0000000
vt 0.4014322 0.1597070

g group_96_106102876215040
f 1/1/1 2/2/2 3/3/3 
f 3/3/3 2/2/2 4/4/4 
f 5/5/5 6/6/6 7/7/7 
f 7/7/7 6/6/6 8/8/8 
f 7/7/7 8/8/8 9/9/9 
f 9/9/9 8/8/8 10/10/10 
f 9/9/9 10/10/10 11/11/11 
f 11/11/11 10/10/10 12/12/12 
f 13/13/13 14/14/14 15/15/15 
f 15/15/15 14/14/14 16/16/16 
f 15/15/15 16/16/16 1/1/1 
f 1/1/1 16/16/16 2/2/2 
f 17/17/17 18/18/18 19/19/19 
f 18/18/18 20/20/20 19/19/19 
f 20/20/20 21/21/21 19/19/19 
f 21/21/21 22/22/22 19/19/19 
