v -1.6058800 2.7435379 1.0000570
vn 0.1083820 0.0583546 0.9923952
vt 0.6244172 0.9664850
v -1.2614720 2.6607130 0.9673133
vn 0.1977226 -0.3718931 0.9069737
vt 0.5838574 0.9663696
v -1.6058800 2.9078450 0.9313107
vn 0.1083844 0.6657506 0.7382608
vt 0.6245055 0.9462153
v -1.2614720 2.9426730 0.8493404
vn 0.1977232 0.9069726 0.3718953
vt 0.5838574 0.9362992
v -1.6058800 2.9754181 0.7665163
vn 0.1083858 0.9923948 -0.0583532
vt 0.6245055 0.9259927
v -1.6058800 2.9066720 0.6022081
vn 0.1083832 0.7382624 -0.6657491
vt 0.6245055 0.9059722
v -1.2614720 2.8247020 0.5673791
vn 0.1977222 0.3718975 -0.9069720
vt 0.5838574 0.8967879
v -1.6058800 2.7418771 0.5346353
vn 0.1083831 -0.0583544 -0.9923950
vt 0.6244171 0.8901584
v -1.6058800 2.7418771 0.5346353
vn 0.1083831 -0.0583544 -0.9923950
vt 0.6244171 0.9667273
v -1.2614720 2.8247020 0.5673791
vn 0.1977222 0.3718975 -0.9069720
vt 0.5838574 0.9663696
v -1.2614720 2.5427401 0.6853520
vn 0.1977222 -0.9069734 -0.3718942
vt 0.5838574 0.9362992
v -1.6058800 2.5775690 0.6033820
vn 0.1083833 -0.6657522 -0.7382595
vt 0.6245055 0.9462153
v -1.6058800 2.5099969 0.7681767
vn 0.1083818 -0.9923951 0.0583558
vt 0.6245055 0.9259927
v -1.6058800 2.5787430 0.9324847
vn 0.1083827 -0.7382604 0.6657513
vt 0.6245055 0.9059723
v -1.2614720 2.6607130 0.9673133
vn 0.1977226 -0.3718931 0.9069737
vt 0.5838574 0.8967879
v -1.6058800 2.7435379 1.0000570
vn 0.1083820 0.0583546 0.9923952
vt 0.6244171 0.8886878
v -1.2614720 2.9426730 0.8493404
vn -0.5608737 0.7660058 0.3140953
vt 0.5838574 0.9362992
v -1.2614720 2.6607130 0.9673133
vn -0.5608755 -0.3140903 0.7660065
vt 0.5838574 0.9663696
v -1.0077929 2.9748490 0.9978389
vn -0.4620161 0.5910715 0.6611925
vt 0.5588059 0.9463077
v -1.0077929 2.7438729 1.0944800
vn -0.4620178 0.0558977 0.8851074
vt 0.5588059 0.9663696
v -1.0077929 3.0698409 0.7661801
vn -0.4620200 0.8851066 -0.0558909
vt 0.5588059 0.9262907
v -1.2614720 2.8247020 0.5673791
vn -0.5608757 0.3140949 -0.7660046
vt 0.5838574 0.8967879
v -1.0077929 2.9732010 0.5352023
vn -0.4620184 0.6611900 -0.5910726
vt 0.5588059 0.9064324
v -1.0077929 2.7415390 0.4402124
vn -0.4620188 -0.0558988 -0.8851067
vt 0.5588059 0.8871434
v -1.2614720 2.5427401 0.6853520
vn -0.5608765 -0.7660052 -0.3140919
vt 0.5838574 0.9362992
v -1.2614720 2.8247020 0.5673791
vn -0.5608757 0.3140949 -0.7660046
vt 0.5838574 0.9663696
v -1.0077929 2.5105629 0.5368533
vn -0.4620191 -0.5910724 -0.6611897
vt 0.5588059 0.9463077
v -1.0077929 2.7415390 0.4402124
vn -0.4620188 -0.0558988 -0.8851067
vt 0.5588059 0.9663696
v -1.0077929 2.4155729 0.7685122
vn -0.4620191 -0.8851068 0.0558958
vt 0.5588059 0.9262907
v -1.2614720 2.6607130 0.9673133
vn -0.5608755 -0.3140903 0.7660065
vt 0.5838574 0.8967879
v -1.0077929 2.5122149 0.9994904
vn -0.4620183 -0.6611889 0.5910739
vt 0.5588059 0.9064324
v -1.0077929 2.7438729 1.0944800
vn -0.4620178 0.0558977 0.8851074
vt 0.5588059 0.8871434
v -1.6058800 2.9066720 0.6022081
vn -1.0000000 0.0000000 0.0000000
vt 0.9307368 0.9192994
v -1.6058800 2.7418771 0.5346353
vn -1.0000000 0.0000000 0.0000000
vt 0.9439464 0.9059447
v -1.6058800 2.5775690 0.6033820
vn -1.0000000 0.0000000 0.0000000
vt 0.9627301 0.9058423
v -1.6058800 2.5099969 0.7681767
vn -1.0000000 0.0000000 0.0000000
vt 0.9760845 0.9190521
v -1.6058800 2.5787430 0.9324847
vn -1.0000000 0.0000000 0.0000000
vt 0.9761869 0.9378358
v -1.6058800 2.7435379 1.0000570
vn -1.0000000 0.0000000 0.0000000
vt 0.9629772 0.9511904
v -1.6058800 2.9078450 0.9313107
vn -1.0000000 0.0000000 0.0000000
vt 0.9441937 0.9512928
v -1.6058800 2.9754181 0.7665163
vn -1.0000000 0.0000000 0.0000000
vt 0.9308392 0.9380831
v -1.1862150 2.3970549 0.5677840
vn 0.9915369 -0.1124323 -0.0649129
vt 0.9904269 0.9074253
v -1.1862150 2.5431449 0.4216940
vn 0.9915369 -0.0649128 -0.1124322
vt 0.9749495 0.8919479
v -1.1339560 2.7427070 0.7673465
vn 1.0000000 -0.0000001 0.0000000
vt 0.9538071 0.9285677
v -1.1862150 2.3435819 0.7673465
vn 0.9915369 -0.1298256 -0.0000000
vt 0.9960920 0.9285677
v -1.1862150 2.3970549 0.9669093
vn 0.9915369 -0.1124322 0.0649130
vt 0.9904269 0.9497102
v -1.1862150 2.5431449 1.1129990
vn 0.9915369 -0.0649128 0.1124323
vt 0.9749495 0.9651874
v -1.1862150 2.7427070 1.1664710
vn 0.9915369 -0.0000002 0.1298254
vt 0.9538071 0.9708524
v -1.1862150 2.9422710 1.1129990
vn 0.9915369 0.0649128 0.1124319
vt 0.9326648 0.9651874
v -1.1862150 3.0883591 0.9669093
vn 0.9915369 0.1124322 0.0649124
vt 0.9171875 0.9497102
v -1.1862150 3.1418309 0.7673465
vn 0.9915369 0.1298256 -0.0000000
vt 0.9115223 0.9285677
v -1.1862150 3.0883591 0.5677840
vn 0.9915369 0.1124323 -0.0649123
vt 0.9171875 0.9074253
v -1.1862150 2.9422710 0.4216940
vn 0.9915369 0.0649128 -0.1124318
vt 0.9326648 0.8919479
v -1.1862150 2.7427070 0.3682215
vn 0.9915369 -0.0000002 -0.1298254
vt 0.9538071 0.8862827
v -1.1862150 2.7427070 0.3682215
vn -1.0000000 0.0000000 0.0000000
vt 0.9538071 0.8862827
v -1.1862150 2.5431449 0.4216940
vn -1.0000000 0.0000000 0.0000000
vt 0.9749495 0.8919479
v -1.1862150 2.3970549 0.5677840
vn -1.0000000 0.0000000 0.0000000
vt 0.9904269 0.9074253
v -1.1862150 2.3435819 0.7673465
vn -1.0000000 0.0000000 0.0000000
vt 0.9960920 0.9285677
v -1.1862150 2.3970549 0.9669093
vn -1.0000000 0.0000000 0.0000000
vt 0.9904269 0.9497102
v -1.1862150 2.5431449 1.1129990
vn -1.0000000 0.0000000 0.0000000
vt 0.9749495 0.9651874
v -1.1862150 2.7427070 1.1664710
vn -1.0000000 0.0000000 0.0000000
vt 0.9538071 0.9708524
v -1.1862150 2.9422710 1.1129990
vn -1.0000000 0.0000000 0.0000000
vt 0.9326648 0.9651874
v -1.1862150 3.0883591 0.9669093
vn -1.0000000 0.0000000 0.0000000
vt 0.9171875 0.9497102
v -1.1862150 3.1418309 0.7673465
vn -1.0000000 0.0000000 0.0000000
vt 0.9115223 0.9285677
v -1.1862150 3.0883591 0.5677840
vn -1.0000000 0.0000000 0.0000000
vt 0.9171875 0.9074253
v -1.1862150 2.9422710 0.4216940
vn -1.0000000 0.0000000 0.0000000
vt 0.9326648 0.8919479
v -1.5412810 2.6703770 1.1378720
vn -0.9947158 -0.0253904 0.0994775
vt 0.9454527 0.8830466
v -1.5412810 2.8176761 1.1373460
vn -0.9947052 0.0260342 0.0994173
vt 0.9289871 0.8830347
v -1.5517220 2.6902759 1.0385441
vn -0.9947020 -0.0274449 0.0990697
vt 0.9433177 0.8712208
v -1.5517220 2.7980490 1.0379640
vn -0.9049310 0.4164037 0.0877941
vt 0.9310546 0.8712208
v -1.5412810 3.0054550 1.0282270
vn -0.9945230 0.0741890 0.0736205
vt 0.9088095 0.8714906
v -1.5517220 2.9352970 0.9578776
vn -0.9945228 0.0744104 0.0733994
vt 0.9167776 0.8633968
v -1.5517220 3.0139041 0.8197769
vn -0.9049534 0.0922299 0.4153952
vt 0.9089972 0.8494094
v -1.5412810 3.1132319 0.8396752
vn -0.9947158 0.0994780 0.0253913
vt 0.8974565 0.8515511
v -1.5412810 3.1127069 0.6923765
vn -0.9947053 0.0994165 -0.0260336
vt 0.8975425 0.8356581
v -1.5517220 3.0133250 0.7120035
vn -0.9946966 0.0988079 -0.0285617
vt 0.9091203 0.8378840
v -1.5412810 3.0035870 0.5045972
vn -0.9945230 0.0736202 -0.0741890
vt 0.9090229 0.8157309
v -1.5517220 2.9332390 0.5747559
vn -0.9945228 0.0733995 -0.0744104
vt 0.9170719 0.8237941
v -1.5517220 2.7951369 0.4961493
vn -0.9049556 0.4153906 -0.0922286
vt 0.9313738 0.8160797
v -1.5412810 2.8150339 0.3968211
vn -0.9947158 0.0253903 -0.0994776
vt 0.9292428 0.8041869
v -1.5412810 2.6677361 0.3973466
vn -0.9947053 -0.0260342 -0.0994162
vt 0.9458327 0.8041908
v -1.5517220 2.6873651 0.4967285
vn -0.9946966 -0.0285615 -0.0988078
vt 0.9434744 0.8160949
v -1.5412810 2.4799571 0.5064657
vn -0.9945232 -0.0741882 -0.0736196
vt 0.9660122 0.8157532
v -1.5517220 2.5501170 0.5768154
vn -0.9945229 -0.0744091 -0.0733989
vt 0.9580374 0.8238466
v -1.5517220 2.4715090 0.7149161
vn -0.9947020 -0.0990688 -0.0274449
vt 0.9658306 0.8378122
v -1.5412810 2.3721809 0.6950178
vn -0.9947158 -0.0994774 -0.0253908
vt 0.9773943 0.8357283
v -1.5412810 2.3727059 0.8423174
vn -0.9947055 -0.0994146 0.0260340
vt 0.9772676 0.8516256
v -1.5517220 2.4720900 0.8226895
vn -0.9049310 -0.0877894 0.4164048
vt 0.9656771 0.8493878
v -1.5412810 2.4818251 1.0300961
vn -0.9945232 -0.0736197 0.0741880
vt 0.9656503 0.8715516
v -1.5517220 2.5521760 0.9599370
vn -0.9945229 -0.0733993 0.0744094
vt 0.9578378 0.8634619
v -1.5011230 2.7980490 1.0379640
vn 0.0000027 -0.5039925 -0.8637080
vt 0.9921460 0.8357626
v -1.5517220 2.7980490 1.0379640
vn 0.0000000 -0.5039932 -0.8637076
vt 0.9852951 0.8357626
v -1.5517220 2.9352970 0.9578776
vn 0.0000140 -0.7108973 -0.7032959
vt 0.9852951 0.8572980
v -1.5011230 2.9352980 0.9578778
vn 0.0000184 -0.7109010 -0.7032921
vt 0.9921460 0.8572980
v -1.5011230 3.0139029 0.8197769
vn -0.0000023 -0.8690768 -0.4946772
vt 0.9921460 0.8788334
v -1.5517220 3.0139041 0.8197769
vn -0.7071121 -0.6145248 -0.3497882
vt 0.9852951 0.8788334
v -1.5011230 3.0133240 0.7120035
vn -0.0000087 -0.8637108 0.5039878
vt 0.9852951 0.8788334
v -1.5517220 3.0133250 0.7120035
vn -0.7071086 -0.6107340 0.3563727
vt 0.9921460 0.8788334
v -1.5011230 2.9332390 0.5747559
vn -0.0000009 -0.7032971 0.7108961
vt 0.9852951 0.8572980
v -1.5517220 2.9332390 0.5747559
vn 0.0000017 -0.7032965 0.7108967
vt 0.9921460 0.8572980
v -1.5011230 2.7951391 0.4961494
vn 0.0000137 -0.4946748 0.8690782
vt 0.9852951 0.8357626
v -1.5517220 2.7951369 0.4961493
vn 0.0000170 -0.4946738 0.8690788
vt 0.9921460 0.8357626
v -1.5011230 2.6873651 0.4967286
vn -0.0000008 0.5039916 0.8637086
vt 0.9852951 0.8788334
v -1.5517220 2.6873651 0.4967285
vn -0.0000010 0.5039917 0.8637085
vt 0.9921460 0.8788334
v -1.5517220 2.5501170 0.5768154
vn -0.0000001 0.7108958 0.7032974
vt 0.9921460 0.8572980
v -1.5011230 2.5501170 0.5768154
vn 0.0000000 0.7108959 0.7032973
vt 0.9852951 0.8572980
v -1.5517220 2.4715090 0.7149161
vn -0.7071035 0.6145314 0.3497942
vt 0.9921460 0.8357626
v -1.5011230 2.4715090 0.7149161
vn 0.0000000 0.8690745 0.4946812
vt 0.9852951 0.8357626
v -1.5011230 2.4720900 0.8226901
vn 0.0000030 0.8637121 -0.5039856
vt 0.9921460 0.8357626
v -1.5517220 2.4720900 0.8226895
vn -0.7071105 0.6107339 -0.3563692
vt 0.9852951 0.8357626
v -1.5517220 2.5521760 0.9599370
vn -0.0000042 0.7032992 -0.7108940
vt 0.9852951 0.8572980
v -1.5011230 2.5521760 0.9599373
vn -0.0000047 0.7032956 -0.7108976
vt 0.9921460 0.8572980
v -1.5517220 2.6902759 1.0385441
vn 0.0000062 0.4946803 -0.8690751
vt 0.9852951 0.8788334
v -1.5011230 2.6902759 1.0385441
vn 0.0000082 0.4946808 -0.8690748
vt 0.9921460 0.8788334
v -1.5011230 2.7980490 1.0379640
vn 0.9652347 0.0722656 0.2511965
vt 0.7280092 0.9584320
v -1.5412810 2.8176761 1.1373460
vn 0.9293128 0.0937252 0.3572022
vt 0.7298978 0.9691861
v -1.5011230 2.6902759 1.0385441
vn 0.9652628 -0.0694665 0.2518771
vt 0.7160998 0.9584671
v -1.5412810 2.6703770 1.1378720
vn 0.9294440 -0.0914007 0.3574631
vt 0.7141398 0.9692041
v -1.5011230 2.9352980 0.9578778
vn 0.9271254 0.2667628 0.2632037
vt 0.7415177 0.9505538
v -1.5412810 3.0054550 1.0282270
vn 0.9271284 0.2660052 0.2639588
vt 0.7489657 0.9579463
v -1.5412810 3.1132319 0.8396752
vn 0.9294461 0.3574574 0.0914010
vt 0.7599283 0.9385915
v -1.5011230 3.0139029 0.8197769
vn 0.9652635 0.2518740 0.0694680
vt 0.7493568 0.9367402
v -1.5011230 3.0133240 0.7120035
vn 0.9652352 0.2511954 -0.0722633
vt 0.7493660 0.9246817
v -1.5412810 3.1127069 0.6923765
vn 0.9293147 0.3571977 -0.0937234
vt 0.7599595 0.9228552
v -1.5011230 2.9332390 0.5747559
vn 0.9271265 0.2632036 -0.2667592
vt 0.7416894 0.9107728
v -1.5412810 3.0035870 0.5045972
vn 0.9271291 0.2639565 -0.2660050
vt 0.7491728 0.9035199
v -1.5412810 2.8150339 0.3968211
vn 0.9294451 0.0913986 -0.3574605
vt 0.7302033 0.8922070
v -1.5011230 2.7951391 0.4961494
vn 0.9652632 0.0694677 -0.2518755
vt 0.7284349 0.9032335
v -1.5011230 2.6873651 0.4967286
vn 0.9652357 -0.0722630 -0.2511936
vt 0.7154971 0.9032704
v -1.5412810 2.6677361 0.3973466
vn 0.9293154 -0.0937242 -0.3571956
vt 0.7136304 0.8922313
v -1.5011230 2.5501170 0.5768154
vn 0.9271281 -0.2667547 -0.2632024
vt 0.7021301 0.9109092
v -1.5412810 2.4799571 0.5064657
vn 0.9271305 -0.2660017 -0.2639549
vt 0.6946925 0.9036114
v -1.5412810 2.3721809 0.6950178
vn 0.9294446 -0.3574613 -0.0914015
vt 0.6839727 0.9229806
v -1.5011230 2.4715090 0.7149161
vn 0.9652632 -0.2518755 -0.0694665
vt 0.6945555 0.9248832
v -1.5011230 2.4720900 0.8226901
vn 0.9652366 -0.2511891 0.0722658
vt 0.6946372 0.9367421
v -1.5412810 2.3727059 0.8423174
vn 0.9293160 -0.3571939 0.0937241
vt 0.6840505 0.9386809
v -1.5011230 2.5521760 0.9599373
vn 0.9271280 -0.2632014 0.2667561
vt 0.7025499 0.9506719
v -1.5412810 2.4818251 1.0300961
vn 0.9271304 -0.2639553 0.2660016
vt 0.6950547 0.9580092
v -1.5517220 3.0133250 0.7120035
vn -0.7071086 -0.6107340 0.3563727
vt 0.9091203 0.8378840
v -1.5517220 2.4715090 0.7149161
vn -0.7071035 0.6145314 0.3497942
vt 0.9658306 0.8378122
v -1.5517220 3.0139041 0.8197769
vn -0.7071121 -0.6145248 -0.3497882
vt 0.9089972 0.8494094
v -1.5517220 2.4720900 0.8226895
vn -0.7071105 0.6107339 -0.3563692
vt 0.9656771 0.8493878
v -1.5517220 3.0139041 0.8197769
vn -0.9049534 0.0922299 0.4153952
vt 0.9852951 0.8788334
v -1.5517220 2.4720900 0.8226895
vn -0.9049310 -0.0877894 0.4164048
vt 0.9852951 0.8357626
v -1.5011230 3.0139029 0.8197769
vn -0.0000007 0.0053756 0.9999856
vt 0.9921460 0.8788334
v -1.5011230 2.4720900 0.8226901
vn -0.0000118 0.0053766 0.9999856
vt 0.9921460 0.8357626
v -1.5011230 3.0133240 0.7120035
vn 0.0000000 -0.0053755 -0.9999856
vt 0.9852951 0.8788334
v -1.5011230 2.4715090 0.7149161
vn 0.0000000 -0.0053755 -0.9999856
vt 0.9852951 0.8357626
v -1.5517220 2.4715090 0.7149161
vn 0.0000000 -0.0053755 -0.9999856
vt 0.9921460 0.8357626
v -1.5517220 3.0133250 0.7120035
vn 0.0000011 -0.0053756 -0.9999856
vt 0.9921460 0.8788334
v -1.5517220 2.6873651 0.4967285
vn -1.0000000 0.0000000 0.0000000
vt 0.9434744 0.8160949
v -1.5517220 2.6902759 1.0385441
vn -1.0000000 0.0000000 0.0000000
vt 0.9433177 0.8712208
v -1.5517220 2.7980490 1.0379640
vn -1.0000000 0.0000000 0.0000000
vt 0.9310546 0.8712208
v -1.5517220 2.7980490 1.0379640
vn -1.0000000 0.0000000 0.0000000
vt 0.9310546 0.8712208
v -1.5517220 2.7951369 0.4961493
vn -1.0000000 0.0000000 0.0000000
vt 0.9313738 0.8160797
v -1.5517220 2.6873651 0.4967285
vn -1.0000000 0.0000000 0.0000000
vt 0.9434744 0.8160949
v -1.5517220 2.7951369 0.4961493
vn -0.9049556 0.4153906 -0.0922286
vt 0.9921460 0.8357626
v -1.5517220 2.7980490 1.0379640
vn -0.9049310 0.4164037 0.0877941
vt 0.9852951 0.8357626
v -1.5011230 2.7951391 0.4961494
vn -0.0000355 0.9999856 -0.0053756
vt 0.9852951 0.8357626
v -1.5011230 2.7980490 1.0379640
vn 0.0000000 0.9999856 -0.0053723
vt 0.9921460 0.8357626
v -1.5011230 2.6873651 0.4967286
vn -0.0000001 -0.9999856 0.0053736
vt 0.9852951 0.8788334
v -1.5011230 2.6902759 1.0385441
vn -0.0000001 -0.9999856 0.0053736
vt 0.9921460 0.8788334
v -1.5517220 2.6902759 1.0385441
vn -0.0000001 -0.9999856 0.0053736
vt 0.9852951 0.8788334
v -1.5517220 2.6873651 0.4967285
vn -0.0000000 -0.9999856 0.0053737
vt 0.9921460 0.8788334
v -1.5517220 2.7980490 1.0379640
vn -0.9049310 0.4164037 0.0877941
vt 0.9852951 0.8357626
v -1.5011230 2.7951391 0.4961494
vn -0.0000355 0.9999856 -0.0053756
vt 0.9852951 0.8357626
v -1.5011230 2.6873651 0.4967286
vn -0.0000001 -0.9999856 0.0053736
vt 0.9852951 0.8788334
v -1.5517220 2.6902759 1.0385441
vn -0.0000001 -0.9999856 0.0053736
vt 0.9852951 0.8788334

g group_31752936_140627860534768
f 1/1/1 2/2/2 3/3/3 
f 3/3/3 2/2/2 4/4/4 
f 3/3/3 4/4/4 5/5/5 
f 5/5/5 4/4/4 6/6/6 
f 6/6/6 4/4/4 7/7/7 
f 6/6/6 7/7/7 8/8/8 
f 9/9/9 10/10/10 11/11/11 
f 11/11/11 12/12/12 9/9/9 
f 12/12/12 11/11/11 13/13/13 
f 13/13/13 11/11/11 14/14/14 
f 14/14/14 11/11/11 15/15/15 
f 14/14/14 15/15/15 16/16/16 
f 17/17/17 18/18/18 19/19/19 
f 19/19/19 18/18/18 20/20/20 
f 17/17/17 19/19/19 21/21/21 
f 22/22/22 17/17/17 23/23/23 
f 23/23/23 17/17/17 21/21/21 
f 22/22/22 23/23/23 24/24/24 
f 25/25/25 26/26/26 27/27/27 
f 27/27/27 26/26/26 28/28/28 
f 25/25/25 27/27/27 29/29/29 
f 30/30/30 25/25/25 29/29/29 
f 29/29/29 31/31/31 30/30/30 
f 30/30/30 31/31/31 32/32/32 
f 33/33/33 34/34/34 35/35/35 
f 33/33/33 35/35/35 36/36/36 
f 33/33/33 36/36/36 37/37/37 
f 33/33/33 37/37/37 38/38/38 
f 33/33/33 38/38/38 39/39/39 
f 33/33/33 39/39/39 40/40/40 
f 41/41/41 42/42/42 43/43/43 
f 44/44/44 41/41/41 43/43/43 
f 45/45/45 44/44/44 43/43/43 
f 46/46/46 45/45/45 43/43/43 
f 47/47/47 46/46/46 43/43/43 
f 48/48/48 47/47/47 43/43/43 
f 49/49/49 48/48/48 43/43/43 
f 50/50/50 49/49/49 43/43/43 
f 51/51/51 50/50/50 43/43/43 
f 52/52/52 51/51/51 43/43/43 
f 53/53/53 52/52/52 43/43/43 
f 42/42/42 53/53/53 43/43/43 
f 54/54/54 55/55/55 56/56/56 
f 54/54/54 56/56/56 57/57/57 
f 54/54/54 57/57/57 58/58/58 
f 54/54/54 58/58/58 59/59/59 
f 54/54/54 59/59/59 60/60/60 
f 54/54/54 60/60/60 61/61/61 
f 54/54/54 61/61/61 62/62/62 
f 54/54/54 62/62/62 63/63/63 
f 54/54/54 63/63/63 64/64/64 
f 54/54/54 64/64/64 65/65/65 
f 66/66/66 67/67/67 68/68/68 
f 68/68/68 67/67/67 69/69/69 
f 67/67/67 70/70/70 69/69/69 
f 69/69/69 70/70/70 71/71/71 
f 71/71/71 70/70/70 72/72/72 
f 72/72/72 70/70/70 73/73/73 
f 73/73/73 74/74/74 72/72/72 
f 72/72/72 74/74/74 75/75/75 
f 74/74/74 76/76/76 75/75/75 
f 75/75/75 76/76/76 77/77/77 
f 77/77/77 76/76/76 78/78/78 
f 78/78/78 76/76/76 79/79/79 
f 79/79/79 80/80/80 78/78/78 
f 78/78/78 80/80/80 81/81/81 
f 80/80/80 82/82/82 81/81/81 
f 81/81/81 82/82/82 83/83/83 
f 83/83/83 82/82/82 84/84/84 
f 84/84/84 82/82/82 85/85/85 
f 85/85/85 86/86/86 84/84/84 
f 84/84/84 86/86/86 87/87/87 
f 86/86/86 88/88/88 87/87/87 
f 87/87/87 88/88/88 89/89/89 
f 89/89/89 88/88/88 68/68/68 
f 68/68/68 88/88/88 66/66/66 
f 90/90/90 91/91/91 92/92/92 
f 92/92/92 93/93/93 90/90/90 
f 93/93/93 92/92/92 94/94/94 
f 94/94/94 92/92/92 95/95/95 
f 96/96/96 97/97/97 98/98/98 
f 98/98/98 97/97/97 99/99/99 
f 98/98/98 99/99/99 100/100/100 
f 100/100/100 99/99/99 101/101/101 
f 102/102/102 103/103/103 104/104/104 
f 104/104/104 105/105/105 102/102/102 
f 105/105/105 104/104/104 106/106/106 
f 106/106/106 107/107/107 105/105/105 
f 108/108/108 109/109/109 110/110/110 
f 110/110/110 111/111/111 108/108/108 
f 111/111/111 110/110/110 112/112/112 
f 112/112/112 113/113/113 111/111/111 
f 114/114/114 115/115/115 116/116/116 
f 116/116/116 115/115/115 117/117/117 
f 118/118/118 119/119/119 114/114/114 
f 114/114/114 119/119/119 115/115/115 
f 120/120/120 119/119/119 121/121/121 
f 121/121/121 119/119/119 118/118/118 
f 122/122/122 123/123/123 121/121/121 
f 121/121/121 123/123/123 120/120/120 
f 124/124/124 125/125/125 122/122/122 
f 122/122/122 125/125/125 123/123/123 
f 126/126/126 125/125/125 127/127/127 
f 127/127/127 125/125/125 124/124/124 
f 128/128/128 129/129/129 127/127/127 
f 127/127/127 129/129/129 126/126/126 
f 130/130/130 131/131/131 128/128/128 
f 128/128/128 131/131/131 129/129/129 
f 132/132/132 131/131/131 133/133/133 
f 133/133/133 131/131/131 130/130/130 
f 134/134/134 135/135/135 133/133/133 
f 133/133/133 135/135/135 132/132/132 
f 136/136/136 137/137/137 134/134/134 
f 134/134/134 137/137/137 135/135/135 
f 117/117/117 137/137/137 116/116/116 
f 116/116/116 137/137/137 136/136/136 
f 138/138/138 139/139/139 140/140/140 
f 140/140/140 139/139/139 141/141/141 
f 142/142/142 143/143/143 144/144/144 
f 144/144/144 143/143/143 145/145/145 
f 121/121/121 134/134/134 122/122/122 
f 122/122/122 134/134/134 133/133/133 
f 146/146/146 147/147/147 148/148/148 
f 148/148/148 149/149/149 146/146/146 
f 150/150/150 151/151/151 152/152/152 
f 153/153/153 154/154/154 155/155/155 
f 156/156/156 157/157/157 158/158/158 
f 165/165/165 164/164/164 159/159/159 
f 127/127/127 114/114/114 116/116/116 
f 116/116/116 128/128/128 127/127/127 
f 160/160/160 161/161/161 162/162/162 
f 167/167/167 163/163/163 166/166/166 
