v 1.2441210 -1.0296010 0.0977363
vn -1.0000000 0.0000000 0.0000000
vt 0.7760502 0.9046894
v 1.2441210 -1.2349761 0.0310062
vn -1.0000000 0.0000000 0.0000000
vt 0.7977094 0.8976517
v 1.2441210 -1.4403501 0.0977363
vn -1.0000000 0.0000000 0.0000000
vt 0.8193688 0.9046894
v 1.2441210 -1.5672780 0.2724383
vn -1.0000000 0.0000000 0.0000000
vt 0.8327550 0.9231138
v 1.2441210 -1.5672780 0.4883816
vn -1.0000000 0.0000000 0.0000000
vt 0.8327550 0.9458879
v 1.2441210 -1.4403501 0.6630837
vn -1.0000000 0.0000000 0.0000000
vt 0.8193688 0.9643124
v 1.2441210 -1.2349761 0.7298135
vn -1.0000000 0.0000000 0.0000000
vt 0.7977094 0.9713499
v 1.2441210 -1.0296010 0.6630837
vn -1.0000000 0.0000000 0.0000000
vt 0.7760502 0.9643124
v 1.2441210 -0.9026722 0.4883817
vn -1.0000000 0.0000000 0.0000000
vt 0.7626640 0.9458879
v 1.2441210 -0.9026722 0.2724383
vn -1.0000000 0.0000000 0.0000000
vt 0.7626640 0.9231138
v 1.4902580 -1.2349761 0.0310062
vn 1.0000000 0.0000000 0.0000000
vt 0.8724321 0.8969437
v 1.4902580 -1.0296010 0.0977363
vn 1.0000000 0.0000000 0.0000000
vt 0.8945005 0.9041143
v 1.4902580 -0.9026722 0.2724383
vn 1.0000000 0.0000000 0.0000000
vt 0.9081396 0.9228869
v 1.4902580 -0.9026722 0.4883817
vn 1.0000000 0.0000000 0.0000000
vt 0.9081396 0.9460910
v 1.4902580 -1.0296010 0.6630837
vn 1.0000000 0.0000000 0.0000000
vt 0.8945005 0.9648634
v 1.4902580 -1.2349761 0.7298135
vn 1.0000000 0.0000000 0.0000000
vt 0.8724321 0.9720339
v 1.4902580 -1.4403501 0.6630837
vn 1.0000000 0.0000000 0.0000000
vt 0.8503638 0.9648634
v 1.4902580 -1.5672780 0.4883816
vn 1.0000000 0.0000000 0.0000000
vt 0.8367246 0.9460910
v 1.4902580 -1.5672780 0.2724383
vn 1.0000000 0.0000000 0.0000000
vt 0.8367246 0.9228869
v 1.4902580 -1.4403501 0.0977363
vn 1.0000000 0.0000000 0.0000000
vt 0.8503638 0.9041143
v 1.2441210 -1.4403501 0.0977363
vn 0.0000000 -0.5877864 -0.8090162
vt 0.5011131 0.8683617
v 1.4902580 -1.4403501 0.0977363
vn 0.0000000 -0.5877864 -0.8090162
vt 0.5011131 0.8942919
v 1.4902580 -1.5672780 0.2724383
vn 0.0000000 -0.9510571 -0.3090153
vt 0.4783144 0.8942919
v 1.2441210 -1.5672780 0.2724383
vn 0.0000000 -0.9510571 -0.3090153
vt 0.4783144 0.8683617
v 1.2441210 -1.5672780 0.2724383
vn 0.0000000 -0.9510571 -0.3090153
vt 0.5239115 0.8683617
v 1.4902580 -1.5672780 0.2724383
vn 0.0000000 -0.9510571 -0.3090153
vt 0.5239115 0.8942919
v 1.4902580 -1.5672780 0.4883816
vn 0.0000000 -0.9510571 0.3090152
vt 0.5011131 0.8942919
v 1.2441210 -1.5672780 0.4883816
vn 0.0000000 -0.9510571 0.3090152
vt 0.5011131 0.8683617
v 1.4902580 -1.4403501 0.6630837
vn 0.0000000 -0.5877858 0.8090166
vt 0.4783144 0.8942918
v 1.2441210 -1.4403501 0.6630837
vn 0.0000000 -0.5877858 0.8090166
vt 0.4783144 0.8683617
v 1.2441210 -1.4403501 0.6630837
vn 0.0000000 -0.5877858 0.8090166
vt 0.5239115 0.8683618
v 1.4902580 -1.4403501 0.6630837
vn 0.0000000 -0.5877858 0.8090166
vt 0.5239115 0.8942919
v 1.4902580 -1.2349761 0.7298135
vn 0.0000000 0.0000001 1.0000000
vt 0.5011131 0.8942919
v 1.2441210 -1.2349761 0.7298135
vn 0.0000000 0.0000001 1.0000000
vt 0.5011131 0.8683617
v 1.4902580 -1.0296010 0.6630837
vn 0.0000000 0.5877839 0.8090180
vt 0.4783144 0.8942919
v 1.2441210 -1.0296010 0.6630837
vn 0.0000000 0.5877839 0.8090180
vt 0.4783144 0.8683617
v 1.2441210 -1.0296010 0.6630837
vn 0.0000000 0.5877839 0.8090180
vt 0.5239115 0.8683617
v 1.4902580 -1.0296010 0.6630837
vn 0.0000000 0.5877839 0.8090180
vt 0.5239115 0.8942918
v 1.4902580 -0.9026722 0.4883817
vn 0.0000000 0.9510564 0.3090174
vt 0.5011131 0.8942919
v 1.2441210 -0.9026722 0.4883817
vn 0.0000000 0.9510564 0.3090175
vt 0.5011131 0.8683617
v 1.4902580 -0.9026722 0.2724383
vn 0.0000000 0.9510564 -0.3090175
vt 0.4783144 0.8942918
v 1.2441210 -0.9026722 0.2724383
vn 0.0000000 0.9510564 -0.3090175
vt 0.4783144 0.8683617
v 1.2441210 -0.9026722 0.2724383
vn 0.0000000 0.9510564 -0.3090175
vt 0.5239115 0.8683618
v 1.4902580 -0.9026722 0.2724383
vn 0.0000000 0.9510564 -0.3090175
vt 0.5239115 0.8942921
v 1.4902580 -1.0296010 0.0977363
vn 0.0000000 0.5877846 -0.8090175
vt 0.5011131 0.8942921
v 1.2441210 -1.0296010 0.0977363
vn 0.0000000 0.5877846 -0.8090175
vt 0.5011131 0.8683618
v 1.4902580 -1.2349761 0.0310062
vn 0.0000000 0.0000001 -1.0000000
vt 0.4783144 0.8942921
v 1.2441210 -1.2349761 0.0310062
vn 0.0000000 0.0000001 -1.0000000
vt 0.4783144 0.8683618
v 1.2441210 -1.2349761 0.0310062
vn 0.0000000 0.0000001 -1.0000000
vt 0.5239115 0.8683617
v 1.4902580 -1.2349761 0.0310062
vn 0.0000000 0.0000001 -1.0000000
vt 0.5239115 0.8942919

g group_31761296_140627883354800
f 1/1/1 2/2/2 3/3/3 
f 1/1/1 3/3/3 4/4/4 
f 1/1/1 4/4/4 5/5/5 
f 1/1/1 5/5/5 6/6/6 
f 1/1/1 6/6/6 7/7/7 
f 1/1/1 7/7/7 8/8/8 
f 1/1/1 8/8/8 9/9/9 
f 1/1/1 9/9/9 10/10/10 
f 11/11/11 12/12/12 13/13/13 
f 11/11/11 13/13/13 14/14/14 
f 11/11/11 14/14/14 15/15/15 
f 11/11/11 15/15/15 16/16/16 
f 11/11/11 16/16/16 17/17/17 
f 11/11/11 17/17/17 18/18/18 
f 11/11/11 18/18/18 19/19/19 
f 20/20/20 11/11/11 19/19/19 
f 21/21/21 22/22/22 23/23/23 
f 23/23/23 24/24/24 21/21/21 
f 25/25/25 26/26/26 27/27/27 
f 27/27/27 28/28/28 25/25/25 
f 28/28/28 27/27/27 29/29/29 
f 29/29/29 30/30/30 28/28/28 
f 31/31/31 32/32/32 33/33/33 
f 33/33/33 34/34/34 31/31/31 
f 34/34/34 33/33/33 35/35/35 
f 35/35/35 36/36/36 34/34/34 
f 37/37/37 38/38/38 39/39/39 
f 39/39/39 40/40/40 37/37/37 
f 40/40/40 39/39/39 41/41/41 
f 41/41/41 42/42/42 40/40/40 
f 43/43/43 44/44/44 45/45/45 
f 45/45/45 46/46/46 43/43/43 
f 46/46/46 45/45/45 47/47/47 
f 47/47/47 48/48/48 46/46/46 
f 49/49/49 50/50/50 22/22/22 
f 22/22/22 21/21/21 49/49/49 
