v -1.2489120 0.5505341 0.1025883
vn 1.0000000 0.0000000 0.0000000
vt 0.7760502 0.9046894
v -1.2489120 0.6774626 0.2772899
vn 1.0000000 0.0000000 0.0000000
vt 0.7626640 0.9231138
v -1.2489120 0.6774626 0.4932332
vn 1.0000000 0.0000000 0.0000000
vt 0.7626640 0.9458879
v -1.2489120 0.5505341 0.6679348
vn 1.0000000 0.0000000 0.0000000
vt 0.7760502 0.9643124
v -1.2489120 0.3451594 0.7346652
vn 1.0000000 0.0000000 0.0000000
vt 0.7977094 0.9713499
v -1.2489120 0.1397861 0.6679348
vn 1.0000000 0.0000000 0.0000000
vt 0.8193688 0.9643124
v -1.2489120 0.0128575 0.4932332
vn 1.0000000 0.0000000 0.0000000
vt 0.8327550 0.9458879
v -1.2489120 0.0128575 0.2772900
vn 1.0000000 0.0000000 0.0000000
vt 0.8327550 0.9231138
v -1.2489120 0.1397861 0.1025882
vn 1.0000000 0.0000000 0.0000000
vt 0.8193688 0.9046894
v -1.2489120 0.3451595 0.0358582
vn 1.0000000 0.0000000 0.0000000
vt 0.7977094 0.8976517
v -1.4950500 0.6774626 0.2772899
vn -1.0000000 0.0000000 0.0000000
vt 0.9081396 0.9228869
v -1.4950500 0.5505341 0.1025883
vn -1.0000000 0.0000000 0.0000000
vt 0.8945005 0.9041143
v -1.4950500 0.3451595 0.0358582
vn -1.0000000 0.0000000 0.0000000
vt 0.8724321 0.8969437
v -1.4950500 0.6774626 0.4932332
vn -1.0000000 0.0000000 0.0000000
vt 0.9081396 0.9460910
v -1.4950500 0.5505341 0.6679348
vn -1.0000000 0.0000000 0.0000000
vt 0.8945005 0.9648634
v -1.4950500 0.3451594 0.7346652
vn -1.0000000 0.0000000 0.0000000
vt 0.8724321 0.9720339
v -1.4950500 0.1397861 0.6679348
vn -1.0000000 0.0000000 0.0000000
vt 0.8503638 0.9648634
v -1.4950500 0.0128575 0.4932332
vn -1.0000000 0.0000000 0.0000000
vt 0.8367246 0.9460910
v -1.4950500 0.0128575 0.2772900
vn -1.0000000 0.0000000 0.0000000
vt 0.8367246 0.9228869
v -1.4950500 0.1397861 0.1025882
vn -1.0000000 0.0000000 0.0000000
vt 0.8503638 0.9041143
v -1.2489120 0.1397861 0.1025882
vn 0.0000000 -0.5877852 -0.8090170
vt 0.5011131 0.8683617
v -1.2489120 0.0128575 0.2772900
vn 0.0000000 -0.9510564 -0.3090175
vt 0.4783144 0.8683617
v -1.4950500 0.0128575 0.2772900
vn 0.0000000 -0.9510564 -0.3090175
vt 0.4783144 0.8942919
v -1.4950500 0.1397861 0.1025882
vn 0.0000000 -0.5877852 -0.8090170
vt 0.5011131 0.8942919
v -1.2489120 0.0128575 0.2772900
vn 0.0000000 -0.9510564 -0.3090175
vt 0.5239115 0.8683617
v -1.2489120 0.0128575 0.4932332
vn 0.0000000 -0.9510563 0.3090177
vt 0.5011131 0.8683617
v -1.4950500 0.0128575 0.4932332
vn 0.0000000 -0.9510563 0.3090177
vt 0.5011131 0.8942919
v -1.4950500 0.0128575 0.2772900
vn 0.0000000 -0.9510564 -0.3090175
vt 0.5239115 0.8942919
v -1.2489120 0.1397861 0.6679348
vn 0.0000000 -0.5877855 0.8090169
vt 0.4783144 0.8683617
v -1.4950500 0.1397861 0.6679348
vn 0.0000000 -0.5877855 0.8090168
vt 0.4783144 0.8942918
v -1.2489120 0.1397861 0.6679348
vn 0.0000000 -0.5877855 0.8090169
vt 0.5239115 0.8683618
v -1.2489120 0.3451594 0.7346652
vn 0.0000000 -0.0000010 1.0000000
vt 0.5011131 0.8683617
v -1.4950500 0.3451594 0.7346652
vn 0.0000000 -0.0000010 1.0000000
vt 0.5011131 0.8942919
v -1.4950500 0.1397861 0.6679348
vn 0.0000000 -0.5877855 0.8090168
vt 0.5239115 0.8942919
v -1.2489120 0.5505341 0.6679348
vn 0.0000000 0.5877849 0.8090172
vt 0.4783144 0.8683617
v -1.4950500 0.5505341 0.6679348
vn 0.0000000 0.5877849 0.8090172
vt 0.4783144 0.8942919
v -1.2489120 0.5505341 0.6679348
vn 0.0000000 0.5877849 0.8090172
vt 0.5239115 0.8683617
v -1.2489120 0.6774626 0.4932332
vn 0.0000000 0.9510564 0.3090175
vt 0.5011131 0.8683617
v -1.4950500 0.6774626 0.4932332
vn 0.0000000 0.9510564 0.3090175
vt 0.5011131 0.8942919
v -1.4950500 0.5505341 0.6679348
vn 0.0000000 0.5877849 0.8090172
vt 0.5239115 0.8942918
v -1.2489120 0.6774626 0.2772899
vn 0.0000000 0.9510564 -0.3090174
vt 0.4783144 0.8683617
v -1.4950500 0.6774626 0.2772899
vn 0.0000000 0.9510564 -0.3090174
vt 0.4783144 0.8942918
v -1.2489120 0.6774626 0.2772899
vn 0.0000000 0.9510564 -0.3090174
vt 0.5239115 0.8683618
v -1.2489120 0.5505341 0.1025883
vn 0.0000000 0.5877846 -0.8090175
vt 0.5011131 0.8683618
v -1.4950500 0.5505341 0.1025883
vn 0.0000000 0.5877846 -0.8090175
vt 0.5011131 0.8942921
v -1.4950500 0.6774626 0.2772899
vn 0.0000000 0.9510564 -0.3090174
vt 0.5239115 0.8942921
v -1.2489120 0.3451595 0.0358582
vn 0.0000000 -0.0000009 -1.0000000
vt 0.4783144 0.8683618
v -1.4950500 0.3451595 0.0358582
vn 0.0000000 -0.0000009 -1.0000000
vt 0.4783144 0.8942921
v -1.2489120 0.3451595 0.0358582
vn 0.0000000 -0.0000009 -1.0000000
vt 0.5239115 0.8683617
v -1.4950500 0.3451595 0.0358582
vn 0.0000000 -0.0000009 -1.0000000
vt 0.5239115 0.8942919

g group_31753440_140627883136368
f 1/1/1 2/2/2 3/3/3 
f 1/1/1 3/3/3 4/4/4 
f 1/1/1 4/4/4 5/5/5 
f 1/1/1 5/5/5 6/6/6 
f 1/1/1 6/6/6 7/7/7 
f 1/1/1 7/7/7 8/8/8 
f 1/1/1 8/8/8 9/9/9 
f 1/1/1 9/9/9 10/10/10 
f 11/11/11 12/12/12 13/13/13 
f 14/14/14 11/11/11 13/13/13 
f 15/15/15 14/14/14 13/13/13 
f 16/16/16 15/15/15 13/13/13 
f 17/17/17 16/16/16 13/13/13 
f 18/18/18 17/17/17 13/13/13 
f 19/19/19 18/18/18 13/13/13 
f 20/20/20 19/19/19 13/13/13 
f 21/21/21 22/22/22 23/23/23 
f 23/23/23 24/24/24 21/21/21 
f 25/25/25 26/26/26 27/27/27 
f 27/27/27 28/28/28 25/25/25 
f 26/26/26 29/29/29 30/30/30 
f 30/30/30 27/27/27 26/26/26 
f 31/31/31 32/32/32 33/33/33 
f 33/33/33 34/34/34 31/31/31 
f 32/32/32 35/35/35 36/36/36 
f 36/36/36 33/33/33 32/32/32 
f 37/37/37 38/38/38 39/39/39 
f 39/39/39 40/40/40 37/37/37 
f 38/38/38 41/41/41 42/42/42 
f 42/42/42 39/39/39 38/38/38 
f 43/43/43 44/44/44 45/45/45 
f 45/45/45 46/46/46 43/43/43 
f 44/44/44 47/47/47 48/48/48 
f 48/48/48 45/45/45 44/44/44 
f 49/49/49 21/21/21 24/24/24 
f 24/24/24 50/50/50 49/49/49 
