v 1.7335269 1.5918660 0.1325432
vn 0.0000000 -0.7971748 -0.6037487
vt 0.6871552 0.7826705
v 1.3843220 1.5918660 0.1325432
vn 0.0000000 -0.7071061 -0.7071075
vt 0.7152871 0.7826705
v 1.3843220 1.7616709 0.0622075
vn 0.0000000 0.0000000 -1.0000000
vt 0.7152872 0.7963501
v 1.7335269 1.7616709 0.0622075
vn 0.0000000 0.0000000 -1.0000000
vt 0.6871552 0.7963501
v 1.3843220 1.9314770 0.1325433
vn 0.0000000 0.7071066 -0.7071069
vt 0.7152871 0.8100297
v 1.7335269 1.9314770 0.1325432
vn 0.0000000 0.7071066 -0.7071069
vt 0.6871552 0.8100297
v 1.7335269 1.9314770 0.1325432
vn 0.0000000 0.7071066 -0.7071069
vt 0.6871554 0.7005926
v 1.3843220 1.9314770 0.1325433
vn 0.0000000 0.7071066 -0.7071069
vt 0.7152875 0.7005930
v 1.3843220 2.0018120 0.3023486
vn 0.0000000 0.9906024 0.1367736
vt 0.7152874 0.7142726
v 1.7335269 2.0018120 0.3023486
vn 0.0000000 1.0000000 0.0000000
vt 0.6871554 0.7142723
v 1.7335269 1.9314770 0.4721544
vn 0.0000000 0.7971752 0.6037481
vt 0.6871552 0.7279519
v 1.3843220 1.9314770 0.4721541
vn 0.0000000 0.7071066 0.7071069
vt 0.7152874 0.7279522
v 1.3843220 1.7616709 0.5424899
vn 0.0000000 0.0000000 1.0000000
vt 0.7152874 0.7416316
v 1.7335269 1.7616709 0.5424899
vn 0.0000000 0.0000000 1.0000000
vt 0.6871552 0.7416316
v 1.3843220 1.5918660 0.4721542
vn 0.0000000 -0.7071065 0.7071071
vt 0.7152874 0.7553112
v 1.7335269 1.5918660 0.4721544
vn 0.0000000 -0.7071065 0.7071071
vt 0.6871552 0.7553112
v 1.3843220 1.5215300 0.3023488
vn 0.0000000 -0.9906022 -0.1367745
vt 0.7152873 0.7689909
v 1.7335269 1.5215300 0.3023486
vn 0.0000000 -1.0000000 0.0000000
vt 0.6871552 0.7689909
v 1.3843220 1.7616709 0.0622075
vn -1.0000000 0.0000000 0.0000000
vt 0.5104027 0.8016121
v 1.3843220 1.5918660 0.1325432
vn -1.0000000 0.0000000 0.0000000
vt 0.5160690 0.7879329
v 1.3843220 1.9314770 0.1325433
vn -1.0000000 0.0000000 0.0000000
vt 0.5160693 0.8152916
v 1.3843220 1.7616709 0.5424899
vn -1.0000000 0.0000000 0.0000000
vt 0.5490946 0.8016121
v 1.3843220 2.0018120 0.3023486
vn -1.0000000 0.0000000 0.0000000
vt 0.5297486 0.8209581
v 1.3843220 1.9314770 0.4721541
vn -1.0000000 0.0000000 0.0000000
vt 0.5434282 0.8152919
v 1.3843220 1.5215300 0.3023488
vn -1.0000000 0.0000000 0.0000000
vt 0.5297486 0.7822661
v 1.3843220 1.5918660 0.4721542
vn -1.0000000 0.0000000 0.0000000
vt 0.5434282 0.7879325
v 1.7335269 1.7616709 0.5424899
vn 1.0000000 0.0000000 0.0000000
vt 0.5103838 0.8016675
v 1.7335269 1.5918660 0.1325432
vn 1.0000000 0.0000000 0.0000000
vt 0.5434094 0.7879878
v 1.7335269 1.7616709 0.0622075
vn 1.0000000 0.0000000 0.0000000
vt 0.5490757 0.8016675
v 1.7335269 1.9314770 0.1325432
vn 1.0000000 0.0000000 0.0000000
vt 0.5434094 0.8153470
v 1.7335269 2.0018120 0.3023486
vn 1.0000000 0.0000000 0.0000000
vt 0.5297298 0.8210133
v 1.7335269 1.9314770 0.4721544
vn 1.0000000 0.0000000 0.0000000
vt 0.5160502 0.8153470
v 1.7335269 1.5918660 0.4721544
vn 1.0000000 0.0000000 0.0000000
vt 0.5160502 0.7879878
v 1.7335269 1.5215300 0.3023486
vn 1.0000000 0.0000000 0.0000000
vt 0.5297298 0.7823215

g group_62987472_2329982608448
f 1/1/1 2/2/2 3/3/3 
f 1/1/1 3/3/3 4/4/4 
f 4/4/4 3/3/3 5/5/5 
f 4/4/4 5/5/5 6/6/6 
f 7/7/7 8/8/8 9/9/9 
f 7/7/7 9/9/9 10/10/10 
f 10/10/10 9/9/9 11/11/11 
f 11/11/11 9/9/9 12/12/12 
f 11/11/11 12/12/12 13/13/13 
f 11/11/11 13/13/13 14/14/14 
f 14/14/14 13/13/13 15/15/15 
f 14/14/14 15/15/15 16/16/16 
f 16/16/16 15/15/15 17/17/17 
f 16/16/16 17/17/17 18/18/18 
f 18/18/18 17/17/17 1/1/1 
f 1/1/1 17/17/17 2/2/2 
f 19/19/19 20/20/20 21/21/21 
f 21/21/21 20/20/20 22/22/22 
f 23/23/23 21/21/21 24/24/24 
f 24/24/24 21/21/21 22/22/22 
f 25/25/25 26/26/26 22/22/22 
f 25/25/25 22/22/22 20/20/20 
f 27/27/27 28/28/28 29/29/29 
f 27/27/27 29/29/29 30/30/30 
f 27/27/27 30/30/30 31/31/31 
f 27/27/27 31/31/31 32/32/32 
f 27/27/27 33/33/33 34/34/34 
f 27/27/27 34/34/34 28/28/28 
