v -1.3142250 0.4446380 1.0653020
vn -1.0000000 0.0000000 0.0000000
vt 0.2431545 0.3780228
v -1.3142250 0.1622654 0.9483395
vn -1.0000000 0.0000000 0.0000000
vt 0.2725977 0.3658164
v -1.3142250 0.3276756 1.1137500
vn -1.0000000 0.0000000 0.0000000
vt 0.2553502 0.3830789
v -1.3142250 0.2107128 1.0653020
vn -1.0000000 0.0000000 0.0000000
vt 0.2675461 0.3780228
v -1.0910780 0.4930853 0.9483395
vn 0.0000000 1.0000000 0.0000000
vt 0.2644411 0.4207434
v -1.3142250 0.4930853 0.9483395
vn 0.0000000 1.0000000 0.0000000
vt 0.2398162 0.4207437
v -1.0910780 0.4446380 1.0653020
vn 0.0000000 0.7071078 0.7071058
vt 0.2644411 0.4072850
v -1.3142250 0.4446380 1.0653020
vn 0.0000000 0.7071074 0.7071062
vt 0.2398162 0.4072854
v -1.0910780 0.4446381 0.8313769
vn 0.0000000 0.7071077 -0.7071059
vt 0.2644411 0.4072850
v -1.3142250 0.4446380 0.8313768
vn 0.0000000 0.7071078 -0.7071058
vt 0.2398162 0.4072854
v -1.0910780 0.4930853 0.9483395
vn 0.0000000 1.0000000 0.0000000
vt 0.2644411 0.3938268
v -1.3142250 0.4930853 0.9483395
vn 0.0000000 1.0000000 0.0000000
vt 0.2398162 0.3938270
v -1.0910780 0.3276756 0.7829295
vn 0.0000000 0.0000000 -1.0000000
vt 0.2644411 0.4207434
v -1.3142250 0.3276757 0.7829294
vn 0.0000000 0.0000000 -1.0000000
vt 0.2398162 0.4207437
v -1.0910780 0.2107130 0.8313770
vn 0.0000000 -0.7071069 -0.7071066
vt 0.2644411 0.4072851
v -1.3142250 0.2107130 0.8313769
vn 0.0000000 -0.7071066 -0.7071070
vt 0.2398162 0.4072852
v -1.0910780 0.3276756 0.7829295
vn 0.0000000 0.0000000 -1.0000000
vt 0.2644411 0.3938270
v -1.3142250 0.3276757 0.7829294
vn 0.0000000 0.0000000 -1.0000000
vt 0.2398162 0.3938270
v -1.0910780 0.1622654 0.9483396
vn 0.0000000 -1.0000000 0.0000000
vt 0.2644411 0.4207435
v -1.3142250 0.1622654 0.9483395
vn 0.0000000 -1.0000000 0.0000000
vt 0.2398162 0.4207437
v -1.0910780 0.2107130 1.0653020
vn 0.0000000 -0.7071064 0.7071072
vt 0.2644411 0.4072852
v -1.3142250 0.2107128 1.0653020
vn 0.0000000 -0.7071067 0.7071068
vt 0.2398162 0.4072852
v -1.0910780 0.1622654 0.9483396
vn 0.0000000 -1.0000000 0.0000000
vt 0.2644411 0.3938271
v -1.3142250 0.1622654 0.9483395
vn 0.0000000 -1.0000000 0.0000000
vt 0.2398162 0.3938270
v -1.0910780 0.3276756 1.1137500
vn 0.0000000 0.0000000 1.0000000
vt 0.2644411 0.4207436
v -1.3142250 0.3276756 1.1137500
vn 0.0000000 0.0000000 1.0000000
vt 0.2398162 0.4207437
v -1.0910780 0.3276756 1.1137500
vn 0.0000000 0.0000000 1.0000000
vt 0.2644411 0.3938267
v -1.3142250 0.3276756 1.1137500
vn 0.0000000 0.0000000 1.0000000
vt 0.2398162 0.3938270
v -1.3142250 0.4446380 0.8313768
vn -1.0000000 0.0000000 0.0000000
vt 0.2431545 0.3536099
v -1.3142250 0.3276757 0.7829294
vn -1.0000000 0.0000000 0.0000000
vt 0.2553502 0.3485540
v -1.3142250 0.4930853 0.9483395
vn -1.0000000 0.0000000 0.0000000
vt 0.2381029 0.3658164
v -1.3142250 0.2107130 0.8313769
vn -1.0000000 0.0000000 0.0000000
vt 0.2675461 0.3536099

g group_125_140627913522688
f 1/1/1 2/2/2 3/3/3 
f 3/3/3 2/2/2 4/4/4 
f 5/5/5 6/6/6 7/7/7 
f 7/7/7 6/6/6 8/8/8 
f 9/9/9 10/10/10 11/11/11 
f 11/11/11 10/10/10 12/12/12 
f 13/13/13 14/14/14 9/9/9 
f 9/9/9 14/14/14 10/10/10 
f 15/15/15 16/16/16 17/17/17 
f 17/17/17 16/16/16 18/18/18 
f 19/19/19 20/20/20 15/15/15 
f 15/15/15 20/20/20 16/16/16 
f 21/21/21 22/22/22 23/23/23 
f 23/23/23 22/22/22 24/24/24 
f 25/25/25 26/26/26 21/21/21 
f 21/21/21 26/26/26 22/22/22 
f 7/7/7 8/8/8 27/27/27 
f 27/27/27 8/8/8 28/28/28 
f 29/29/29 30/30/30 31/31/31 
f 31/31/31 30/30/30 32/32/32 
f 2/2/2 1/1/1 32/32/32 
f 32/32/32 1/1/1 31/31/31 
