v 1.0705130 -2.3634090 0.5524146
vn 0.0000000 -0.8660267 -0.4999978
vt 0.9779427 0.0607359
v 1.0705130 -2.2501149 0.4391196
vn 0.0000000 -0.5000001 -0.8660254
vt 0.9779426 0.0733178
v 1.3463891 -2.3634090 0.5524146
vn 0.0000000 -0.8660266 -0.4999980
vt 0.9995874 0.0607359
v 1.3463891 -2.2501149 0.4391196
vn 0.0000000 -0.5000000 -0.8660254
vt 0.9995874 0.0733178
v 1.0705130 -2.4048779 0.7071783
vn 0.0000000 -1.0000000 0.0000000
vt 0.9779430 0.0481541
v 1.3463891 -2.4048779 0.7071783
vn 0.0000000 -1.0000000 0.0000000
vt 0.9995875 0.0481542
v 1.0705130 -2.3634090 0.8619421
vn 0.0000000 -0.8660269 0.4999975
vt 0.9779429 0.0733179
v 1.0705130 -2.4048779 0.7071783
vn 0.0000000 -1.0000000 0.0000000
vt 0.9779431 0.0850902
v 1.3463891 -2.3634090 0.8619421
vn 0.0000000 -0.8660266 0.4999979
vt 0.9995876 0.0733179
v 1.3463891 -2.4048779 0.7071783
vn 0.0000000 -1.0000000 0.0000000
vt 0.9995876 0.0850903
v 1.0705130 -2.2501149 0.9752372
vn 0.0000000 -0.5000008 0.8660250
vt 0.9779428 0.0607362
v 1.3463891 -2.2501149 0.9752372
vn 0.0000000 -0.5000005 0.8660251
vt 0.9995877 0.0607362
v 1.0705130 -2.0953500 1.0167060
vn 0.0000000 0.0000000 1.0000000
vt 0.9779425 0.0481541
v 1.3463891 -2.0953500 1.0167060
vn 0.0000000 0.0000000 1.0000000
vt 0.9995877 0.0481542
v 1.0705130 -1.9405870 0.9752372
vn 0.0000000 0.5000011 0.8660248
vt 0.9779426 0.0733178
v 1.0705130 -2.0953500 1.0167060
vn 0.0000000 0.0000000 1.0000000
vt 0.9779427 0.0850902
v 1.3463891 -1.9405870 0.9752372
vn 0.0000000 0.5000005 0.8660251
vt 0.9995876 0.0733179
v 1.3463891 -2.0953500 1.0167060
vn 0.0000000 0.0000000 1.0000000
vt 0.9995876 0.0850903
v 1.0705130 -1.8272920 0.8619421
vn 0.0000000 0.8660257 0.4999996
vt 0.9779426 0.0607360
v 1.3463891 -1.8272920 0.8619421
vn 0.0000000 0.8660251 0.5000005
vt 0.9995877 0.0607362
v 1.0705130 -1.7858230 0.7071783
vn 0.0000000 1.0000000 0.0000000
vt 0.9779426 0.0481541
v 1.3463891 -1.7858230 0.7071783
vn 0.0000000 1.0000000 0.0000000
vt 0.9995877 0.0481542
v 1.0705130 -1.8272920 0.5524146
vn 0.0000000 0.8660252 -0.5000004
vt 0.9779428 0.0733177
v 1.0705130 -1.7858230 0.7071783
vn 0.0000000 1.0000000 0.0000000
vt 0.9779427 0.0850902
v 1.3463891 -1.8272920 0.5524146
vn 0.0000000 0.8660254 -0.5000001
vt 0.9995872 0.0733179
v 1.3463891 -1.7858230 0.7071783
vn 0.0000000 1.0000000 0.0000000
vt 0.9995872 0.0850905
v 1.0705130 -1.9405870 0.4391196
vn 0.0000000 0.5000006 -0.8660251
vt 0.9779429 0.0607359
v 1.3463891 -1.9405870 0.4391196
vn 0.0000000 0.5000007 -0.8660251
vt 0.9995877 0.0607362
v 1.0705130 -2.0953500 0.3976508
vn 0.0000000 0.0000000 -1.0000000
vt 0.9779429 0.0481541
v 1.3463891 -2.0953500 0.3976508
vn 0.0000000 0.0000000 -1.0000000
vt 0.9995877 0.0481542
v 1.0705130 -2.0953500 0.3976508
vn 0.0000000 0.0000000 -1.0000000
vt 0.9779428 0.0850902
v 1.3463891 -2.0953500 0.3976508
vn 0.0000000 0.0000000 -1.0000000
vt 0.9995876 0.0850903
v 1.0705130 -2.2501149 0.9752372
vn -1.0000000 0.0000000 0.0000000
vt 0.8299857 0.1545031
v 1.0705130 -2.0953500 1.0167060
vn -1.0000000 0.0000000 0.0000000
vt 0.8466160 0.1589642
v 1.0705130 -1.8272920 0.8619421
vn -1.0000000 0.0000000 0.0000000
vt 0.8754003 0.1423337
v 1.0705130 -1.9405870 0.9752372
vn -1.0000000 0.0000000 0.0000000
vt 0.8632379 0.1545100
v 1.3463891 -2.2501149 0.4391196
vn 1.0000000 0.0000000 0.0000000
vt 0.8027034 0.8717341
v 1.3463891 -2.0953500 0.3976508
vn 1.0000000 0.0000000 0.0000000
vt 0.7860788 0.8672645
v 1.3463891 -2.3634090 0.5524146
vn 1.0000000 0.0000000 0.0000000
vt 0.8148555 0.8839266
v 1.3463891 -1.9405870 0.4391196
vn 1.0000000 0.0000000 0.0000000
vt 0.7694477 0.8717341
v 1.3463891 -1.8272920 0.5524146
vn 1.0000000 0.0000000 0.0000000
vt 0.7572688 0.8839075
v 1.3463891 -1.7858230 0.7071783
vn 1.0000000 0.0000000 0.0000000
vt 0.7528074 0.9005404
v 1.3463891 -1.8272920 0.8619421
vn 1.0000000 0.0000000 0.0000000
vt 0.7572566 0.9171768
v 1.3463891 -1.9405870 0.9752372
vn 1.0000000 0.0000000 0.0000000
vt 0.7694210 0.9293568
v 1.3463891 -2.0953500 1.0167060
vn 1.0000000 0.0000000 0.0000000
vt 0.7860788 0.9338177
v 1.3463891 -2.2501149 0.9752372
vn 1.0000000 0.0000000 0.0000000
vt 0.8026626 0.9293690
v 1.3463891 -2.3634090 0.8619421
vn 1.0000000 0.0000000 0.0000000
vt 0.8148353 0.9171968
v 1.3463891 -2.4048779 0.7071783
vn 1.0000000 0.0000000 0.0000000
vt 0.8192964 0.9005404
v 1.0705130 -2.3634090 0.8619421
vn -1.0000000 0.0000000 0.0000000
vt 0.8178113 0.1423223
v 1.0705130 -1.7858230 0.7071783
vn -1.0000000 0.0000000 0.0000000
vt 0.8798530 0.1256977
v 1.0705130 -2.3634090 0.5524146
vn -1.0000000 0.0000000 0.0000000
vt 0.8178217 0.1090477
v 1.0705130 -2.4048779 0.7071783
vn -1.0000000 0.0000000 0.0000000
vt 0.8133595 0.1256851
v 1.0705130 -1.8272920 0.5524146
vn -1.0000000 0.0000000 0.0000000
vt 0.8754056 0.1090590
v 1.0705130 -1.9405870 0.4391196
vn -1.0000000 0.0000000 0.0000000
vt 0.8632457 0.0968739
v 1.0705130 -2.2501149 0.4391196
vn -1.0000000 0.0000000 0.0000000
vt 0.8299991 0.0968676
v 1.0705130 -2.0953500 0.3976508
vn -1.0000000 0.0000000 0.0000000
vt 0.8466257 0.0924092

g group_113_140627938714720
f 1/1/1 2/2/2 3/3/3 
f 3/3/3 2/2/2 4/4/4 
f 5/5/5 1/1/1 6/6/6 
f 6/6/6 1/1/1 3/3/3 
f 7/7/7 8/8/8 9/9/9 
f 9/9/9 8/8/8 10/10/10 
f 11/11/11 7/7/7 12/12/12 
f 12/12/12 7/7/7 9/9/9 
f 13/13/13 11/11/11 14/14/14 
f 14/14/14 11/11/11 12/12/12 
f 15/15/15 16/16/16 17/17/17 
f 17/17/17 16/16/16 18/18/18 
f 19/19/19 15/15/15 20/20/20 
f 20/20/20 15/15/15 17/17/17 
f 21/21/21 19/19/19 22/22/22 
f 22/22/22 19/19/19 20/20/20 
f 23/23/23 24/24/24 25/25/25 
f 25/25/25 24/24/24 26/26/26 
f 27/27/27 23/23/23 28/28/28 
f 28/28/28 23/23/23 25/25/25 
f 29/29/29 27/27/27 30/30/30 
f 30/30/30 27/27/27 28/28/28 
f 2/2/2 31/31/31 4/4/4 
f 4/4/4 31/31/31 32/32/32 
f 33/33/33 34/34/34 35/35/35 
f 35/35/35 34/34/34 36/36/36 
f 37/37/37 38/38/38 39/39/39 
f 38/38/38 40/40/40 39/39/39 
f 40/40/40 41/41/41 39/39/39 
f 41/41/41 42/42/42 39/39/39 
f 42/42/42 43/43/43 39/39/39 
f 43/43/43 44/44/44 39/39/39 
f 44/44/44 45/45/45 39/39/39 
f 45/45/45 46/46/46 39/39/39 
f 46/46/46 47/47/47 39/39/39 
f 47/47/47 48/48/48 39/39/39 
f 49/49/49 33/33/33 50/50/50 
f 50/50/50 33/33/33 35/35/35 
f 51/51/51 52/52/52 53/53/53 
f 50/50/50 53/53/53 49/49/49 
f 49/49/49 53/53/53 52/52/52 
f 53/53/53 54/54/54 51/51/51 
f 51/51/51 54/54/54 55/55/55 
f 54/54/54 56/56/56 55/55/55 
