v 1.3142250 1.2096530 1.0653020
vn 1.0000000 0.0000000 0.0000000
vt 0.2431545 0.3780228
v 1.3142250 1.0926900 1.1137490
vn 1.0000000 0.0000000 0.0000000
vt 0.2553502 0.3830789
v 1.3142250 0.9272802 0.9483395
vn 1.0000000 0.0000000 0.0000000
vt 0.2725977 0.3658164
v 1.3142250 0.9757276 1.0653020
vn 1.0000000 0.0000000 0.0000000
vt 0.2675461 0.3780228
v 1.0910780 1.2581000 0.9483395
vn 0.0000000 1.0000000 0.0000000
vt 0.2645798 0.4206659
v 1.0910780 1.2096530 1.0653020
vn 0.0000000 0.7071079 0.7071057
vt 0.2645798 0.4072075
v 1.3142250 1.2581000 0.9483395
vn 0.0000000 1.0000000 0.0000000
vt 0.2399550 0.4206662
v 1.3142250 1.2096530 1.0653020
vn 0.0000000 0.7071071 0.7071065
vt 0.2399550 0.4072079
v 1.0910780 1.2096530 0.8313767
vn 0.0000000 0.7071080 -0.7071056
vt 0.2645798 0.4072075
v 1.0910780 1.2581000 0.9483395
vn 0.0000000 1.0000000 0.0000000
vt 0.2645798 0.3937493
v 1.3142250 1.2096530 0.8313767
vn 0.0000000 0.7071077 -0.7071059
vt 0.2399550 0.4072079
v 1.3142250 1.2581000 0.9483395
vn 0.0000000 1.0000000 0.0000000
vt 0.2399550 0.3937496
v 1.0910780 1.0926909 0.7829293
vn 0.0000000 0.0000000 -1.0000000
vt 0.2645798 0.4206659
v 1.3142250 1.0926909 0.7829293
vn 0.0000000 0.0000000 -1.0000000
vt 0.2399550 0.4206662
v 1.0910780 0.9757278 0.8313769
vn 0.0000000 -0.7071069 -0.7071066
vt 0.2645798 0.4072076
v 1.0910780 1.0926909 0.7829293
vn 0.0000000 0.0000000 -1.0000000
vt 0.2645798 0.3937495
v 1.3142250 0.9757278 0.8313767
vn 0.0000000 -0.7071066 -0.7071069
vt 0.2399550 0.4072078
v 1.3142250 1.0926909 0.7829293
vn 0.0000000 0.0000000 -1.0000000
vt 0.2399550 0.3937496
v 1.0910780 0.9272802 0.9483396
vn 0.0000000 -1.0000000 0.0000000
vt 0.2645798 0.4206661
v 1.3142250 0.9272802 0.9483395
vn 0.0000000 -1.0000000 0.0000000
vt 0.2399550 0.4206662
v 1.0910780 0.9757278 1.0653020
vn 0.0000000 -0.7071058 0.7071078
vt 0.2645798 0.4072077
v 1.0910780 0.9272802 0.9483396
vn 0.0000000 -1.0000000 0.0000000
vt 0.2645798 0.3937496
v 1.3142250 0.9757276 1.0653020
vn 0.0000000 -0.7071063 0.7071073
vt 0.2399550 0.4072077
v 1.3142250 0.9272802 0.9483395
vn 0.0000000 -1.0000000 0.0000000
vt 0.2399550 0.3937496
v 1.0910780 1.0926909 1.1137490
vn 0.0000000 0.0000000 1.0000000
vt 0.2645798 0.4206661
v 1.3142250 1.0926900 1.1137490
vn 0.0000000 0.0000000 1.0000000
vt 0.2399550 0.4206662
v 1.0910780 1.0926909 1.1137490
vn 0.0000000 0.0000000 1.0000000
vt 0.2645798 0.3937492
v 1.3142250 1.0926900 1.1137490
vn 0.0000000 0.0000000 1.0000000
vt 0.2399550 0.3937496
v 1.3142250 1.2581000 0.9483395
vn 1.0000000 0.0000000 0.0000000
vt 0.2381029 0.3658164
v 1.3142250 0.9757278 0.8313767
vn 1.0000000 0.0000000 0.0000000
vt 0.2675461 0.3536099
v 1.3142250 1.0926909 0.7829293
vn 1.0000000 0.0000000 0.0000000
vt 0.2553502 0.3485540
v 1.3142250 1.2096530 0.8313767
vn 1.0000000 0.0000000 0.0000000
vt 0.2431545 0.3536099

g group_114_140627938714976
f 1/1/1 2/2/2 3/3/3 
f 3/3/3 2/2/2 4/4/4 
f 5/5/5 6/6/6 7/7/7 
f 7/7/7 6/6/6 8/8/8 
f 9/9/9 10/10/10 11/11/11 
f 11/11/11 10/10/10 12/12/12 
f 13/13/13 9/9/9 14/14/14 
f 14/14/14 9/9/9 11/11/11 
f 15/15/15 16/16/16 17/17/17 
f 17/17/17 16/16/16 18/18/18 
f 19/19/19 15/15/15 20/20/20 
f 20/20/20 15/15/15 17/17/17 
f 21/21/21 22/22/22 23/23/23 
f 23/23/23 22/22/22 24/24/24 
f 25/25/25 21/21/21 26/26/26 
f 26/26/26 21/21/21 23/23/23 
f 6/6/6 27/27/27 8/8/8 
f 8/8/8 27/27/27 28/28/28 
f 29/29/29 1/1/1 30/30/30 
f 30/30/30 1/1/1 3/3/3 
f 30/30/30 31/31/31 29/29/29 
f 29/29/29 31/31/31 32/32/32 
