v 1.1475470 2.4983311 0.9956028
vn 1.0000000 0.0000000 0.0000000
vt 0.1635855 0.5810571
v 1.1475470 2.3932731 0.8905448
vn 1.0000000 0.0000000 0.0000000
vt 0.1745638 0.5700788
v 1.1475470 2.6418431 1.0340570
vn 1.0000000 0.0000000 0.0000000
vt 0.1485887 0.5850755
v 1.1475470 2.7853551 0.9956029
vn 1.0000000 0.0000000 0.0000000
vt 0.1335919 0.5810571
v 1.1475470 2.8904130 0.8905449
vn 1.0000000 0.0000000 0.0000000
vt 0.1226134 0.5700787
v 1.1475470 2.9288671 0.7470330
vn 1.0000000 0.0000000 0.0000000
vt 0.1185950 0.5550820
v 1.1475470 2.8904130 0.6035210
vn 1.0000000 0.0000000 0.0000000
vt 0.1226133 0.5400851
v 1.1475470 2.7853551 0.4984631
vn 1.0000000 0.0000000 0.0000000
vt 0.1335919 0.5291067
v 1.1475470 2.6418431 0.4600092
vn 1.0000000 0.0000000 0.0000000
vt 0.1485886 0.5250883
v 1.1475470 2.4983311 0.4984631
vn 1.0000000 0.0000000 0.0000000
vt 0.1635854 0.5291069
v 1.1475470 2.3932731 0.6035210
vn 1.0000000 0.0000000 0.0000000
vt 0.1745639 0.5400851
v 1.1475470 2.3548191 0.7470330
vn 1.0000000 0.0000000 0.0000000
vt 0.1785823 0.5550820
v 0.9152831 2.4983311 0.9956028
vn 0.0000000 -0.5750614 0.8181103
vt 0.1029969 0.5690432
v 1.1475470 2.4983311 0.9956028
vn 0.0000000 -0.4209743 0.9070725
vt 0.1029969 0.5940918
v 0.9152831 2.6418431 1.0340570
vn 0.0000000 -0.0889617 0.9960351
vt 0.0883230 0.5690432
v 1.1475470 2.6418431 1.0340570
vn 0.0000000 0.0889622 0.9960350
vt 0.0883231 0.5940918
v 0.9152830 2.3932731 0.8905449
vn 0.0000000 -0.9070724 0.4209748
vt 0.1176712 0.5690432
v 1.1475470 2.3932731 0.8905449
vn 0.0000000 -0.8181110 0.5750604
vt 0.1176713 0.5940918
v 0.9152829 2.3548191 0.7470330
vn 0.0000000 -0.9960350 -0.0889622
vt 0.0883231 0.5690432
v 1.1475470 2.3548191 0.7470330
vn 0.0000000 -0.9960350 0.0889621
vt 0.0883230 0.5940918
v 0.9152830 2.3932731 0.8905449
vn 0.0000000 -0.9070724 0.4209748
vt 0.0736496 0.5690432
v 1.1475470 2.3932731 0.8905449
vn 0.0000000 -0.8181110 0.5750604
vt 0.0736497 0.5940918
v 0.9152830 2.3932731 0.6035210
vn 0.0000000 -0.8181113 -0.5750600
vt 0.1029969 0.5690432
v 1.1475470 2.3932731 0.6035210
vn 0.0000000 -0.9070727 -0.4209740
vt 0.1029969 0.5940918
v 0.9152829 2.4983311 0.4984630
vn 0.0000000 -0.4209734 -0.9070730
vt 0.1176712 0.5690432
v 1.1475470 2.4983311 0.4984630
vn 0.0000000 -0.5750614 -0.8181103
vt 0.1176712 0.5940918
v 0.9152831 2.6418431 0.4600092
vn 0.0000000 0.0889626 -0.9960350
vt 0.0883230 0.5690432
v 1.1475470 2.6418431 0.4600092
vn 0.0000000 -0.0889609 -0.9960352
vt 0.0883230 0.5940918
v 0.9152829 2.4983311 0.4984630
vn 0.0000000 -0.4209734 -0.9070730
vt 0.0736496 0.5690432
v 1.1475470 2.4983311 0.4984630
vn 0.0000000 -0.5750614 -0.8181103
vt 0.0736497 0.5940918
v 0.9152830 2.7853551 0.4984631
vn 0.0000000 0.5750616 -0.8181101
vt 0.1029970 0.5690432
v 1.1475470 2.7853551 0.4984631
vn 0.0000000 0.4209750 -0.9070722
vt 0.1029970 0.5940918
v 0.9152830 2.8904130 0.6035210
vn 0.0000000 0.9070728 -0.4209739
vt 0.1176712 0.5690432
v 1.1475470 2.8904130 0.6035210
vn 0.0000000 0.8181110 -0.5750604
vt 0.1176711 0.5940918
v 0.9152831 2.9288671 0.7470330
vn 0.0000000 0.9960349 0.0889638
vt 0.0883230 0.5690432
v 1.1475470 2.9288671 0.7470330
vn 0.0000000 0.9960351 -0.0889618
vt 0.0883231 0.5940918
v 0.9152830 2.8904130 0.6035210
vn 0.0000000 0.9070728 -0.4209739
vt 0.0736496 0.5690432
v 1.1475470 2.8904130 0.6035210
vn 0.0000000 0.8181110 -0.5750604
vt 0.0736498 0.5940918
v 0.9152829 2.8904130 0.8905447
vn 0.0000000 0.8181112 0.5750601
vt 0.1029969 0.5690432
v 1.1475470 2.8904130 0.8905448
vn 0.0000000 0.9070724 0.4209746
vt 0.1029969 0.5940918
v 0.9152830 2.7853551 0.9956028
vn 0.0000000 0.4209753 0.9070721
vt 0.1176712 0.5690432
v 1.1475470 2.7853551 0.9956028
vn 0.0000000 0.5750629 0.8181092
vt 0.1176712 0.5940918
v 0.9152830 2.7853551 0.9956028
vn 0.0000000 0.4209753 0.9070721
vt 0.0736496 0.5690432
v 1.1475470 2.7853551 0.9956028
vn 0.0000000 0.5750629 0.8181092
vt 0.0736497 0.5940918
v 0.9152830 2.7853551 0.9956028
vn -1.0000000 0.0000000 0.0000000
vt 0.1635855 0.5810571
v 0.9152829 2.8904130 0.8905447
vn -1.0000000 0.0000000 0.0000000
vt 0.1745638 0.5700788
v 0.9152831 2.6418431 1.0340570
vn -1.0000000 0.0000000 0.0000000
vt 0.1485887 0.5850755
v 0.9152831 2.4983311 0.9956028
vn -1.0000000 0.0000000 0.0000000
vt 0.1335919 0.5810571
v 0.9152830 2.3932731 0.8905449
vn -1.0000000 0.0000000 0.0000000
vt 0.1226134 0.5700787
v 0.9152829 2.3548191 0.7470330
vn -1.0000000 0.0000000 0.0000000
vt 0.1185950 0.5550820
v 0.9152830 2.3932731 0.6035210
vn -1.0000000 0.0000000 0.0000000
vt 0.1226133 0.5400851
v 0.9152829 2.4983311 0.4984630
vn -1.0000000 0.0000000 0.0000000
vt 0.1335919 0.5291067
v 0.9152831 2.6418431 0.4600092
vn -1.0000000 0.0000000 0.0000000
vt 0.1485886 0.5250883
v 0.9152830 2.7853551 0.4984631
vn -1.0000000 0.0000000 0.0000000
vt 0.1635854 0.5291069
v 0.9152830 2.8904130 0.6035210
vn -1.0000000 0.0000000 0.0000000
vt 0.1745639 0.5400851
v 0.9152831 2.9288671 0.7470330
vn -1.0000000 0.0000000 0.0000000
vt 0.1785823 0.5550820

g group_15903568_140627909662192
f 1/1/1 2/2/2 3/3/3 
f 3/3/3 2/2/2 4/4/4 
f 4/4/4 2/2/2 5/5/5 
f 5/5/5 2/2/2 6/6/6 
f 6/6/6 2/2/2 7/7/7 
f 7/7/7 2/2/2 8/8/8 
f 8/8/8 2/2/2 9/9/9 
f 9/9/9 2/2/2 10/10/10 
f 10/10/10 2/2/2 11/11/11 
f 11/11/11 2/2/2 12/12/12 
f 13/13/13 14/14/14 15/15/15 
f 14/14/14 16/16/16 15/15/15 
f 17/17/17 18/18/18 13/13/13 
f 18/18/18 14/14/14 13/13/13 
f 19/19/19 20/20/20 21/21/21 
f 20/20/20 22/22/22 21/21/21 
f 23/23/23 24/24/24 19/19/19 
f 24/24/24 20/20/20 19/19/19 
f 25/25/25 26/26/26 23/23/23 
f 26/26/26 24/24/24 23/23/23 
f 27/27/27 28/28/28 29/29/29 
f 28/28/28 30/30/30 29/29/29 
f 31/31/31 32/32/32 27/27/27 
f 32/32/32 28/28/28 27/27/27 
f 33/33/33 34/34/34 31/31/31 
f 34/34/34 32/32/32 31/31/31 
f 35/35/35 36/36/36 37/37/37 
f 36/36/36 38/38/38 37/37/37 
f 39/39/39 40/40/40 35/35/35 
f 40/40/40 36/36/36 35/35/35 
f 41/41/41 42/42/42 39/39/39 
f 42/42/42 40/40/40 39/39/39 
f 15/15/15 16/16/16 43/43/43 
f 16/16/16 44/44/44 43/43/43 
f 45/45/45 46/46/46 47/47/47 
f 47/47/47 46/46/46 48/48/48 
f 48/48/48 46/46/46 49/49/49 
f 49/49/49 46/46/46 50/50/50 
f 50/50/50 46/46/46 51/51/51 
f 51/51/51 46/46/46 52/52/52 
f 52/52/52 46/46/46 53/53/53 
f 53/53/53 46/46/46 54/54/54 
f 54/54/54 46/46/46 55/55/55 
f 55/55/55 46/46/46 56/56/56 
