v -1.1475470 2.4983311 0.9956028
vn -1.0000000 0.0000000 0.0000000
vt 0.1635855 0.5810571
v -1.1475470 2.6418431 1.0340570
vn -1.0000000 0.0000000 0.0000000
vt 0.1485887 0.5850755
v -1.1475470 2.3932731 0.8905448
vn -1.0000000 0.0000000 0.0000000
vt 0.1745638 0.5700788
v -1.1475470 2.7853551 0.9956029
vn -1.0000000 0.0000000 0.0000000
vt 0.1335919 0.5810571
v -1.1475470 2.8904130 0.8905449
vn -1.0000000 0.0000000 0.0000000
vt 0.1226134 0.5700787
v -1.1475470 2.9288671 0.7470330
vn -1.0000000 0.0000000 0.0000000
vt 0.1185950 0.5550820
v -1.1475470 2.8904130 0.6035210
vn -1.0000000 0.0000000 0.0000000
vt 0.1226133 0.5400851
v -1.1475470 2.7853551 0.4984631
vn -1.0000000 0.0000000 0.0000000
vt 0.1335919 0.5291067
v -1.1475470 2.6418431 0.4600092
vn -1.0000000 0.0000000 0.0000000
vt 0.1485886 0.5250883
v -1.1475470 2.4983311 0.4984631
vn -1.0000000 0.0000000 0.0000000
vt 0.1635854 0.5291069
v -1.1475470 2.3932731 0.6035210
vn -1.0000000 0.0000000 0.0000000
vt 0.1745639 0.5400851
v -1.1475470 2.3548191 0.7470330
vn -1.0000000 0.0000000 0.0000000
vt 0.1785823 0.5550820
v -0.9152831 2.4983311 0.9956028
vn 0.0000000 -0.5750612 0.8181104
vt 0.1029969 0.5690432
v -0.9152831 2.6418431 1.0340570
vn 0.0000000 -0.0889617 0.9960351
vt 0.0883230 0.5690432
v -1.1475470 2.4983311 0.9956028
vn 0.0000000 -0.4209743 0.9070725
vt 0.1029969 0.5940918
v -1.1475470 2.6418431 1.0340570
vn 0.0000000 0.0889621 0.9960350
vt 0.0883231 0.5940918
v -0.9152830 2.3932731 0.8905449
vn 0.0000000 -0.9070722 0.4209751
vt 0.1176712 0.5690432
v -1.1475470 2.3932731 0.8905449
vn 0.0000000 -0.8181109 0.5750605
vt 0.1176713 0.5940918
v -0.9152829 2.3548191 0.7470330
vn 0.0000000 -0.9960350 -0.0889622
vt 0.0883231 0.5690432
v -0.9152830 2.3932731 0.8905449
vn 0.0000000 -0.9070722 0.4209751
vt 0.0736496 0.5690432
v -1.1475470 2.3548191 0.7470330
vn 0.0000000 -0.9960350 0.0889623
vt 0.0883230 0.5940918
v -1.1475470 2.3932731 0.8905449
vn 0.0000000 -0.8181109 0.5750605
vt 0.0736497 0.5940918
v -0.9152830 2.3932731 0.6035210
vn 0.0000000 -0.8181112 -0.5750601
vt 0.1029969 0.5690432
v -1.1475470 2.3932731 0.6035210
vn 0.0000000 -0.9070727 -0.4209742
vt 0.1029969 0.5940918
v -0.9152829 2.4983311 0.4984630
vn 0.0000000 -0.4209735 -0.9070730
vt 0.1176712 0.5690432
v -1.1475470 2.4983311 0.4984630
vn 0.0000000 -0.5750614 -0.8181103
vt 0.1176712 0.5940918
v -0.9152831 2.6418431 0.4600092
vn 0.0000000 0.0889626 -0.9960350
vt 0.0883230 0.5690432
v -0.9152829 2.4983311 0.4984630
vn 0.0000000 -0.4209735 -0.9070730
vt 0.0736496 0.5690432
v -1.1475470 2.6418431 0.4600092
vn 0.0000000 -0.0889609 -0.9960352
vt 0.0883230 0.5940918
v -1.1475470 2.4983311 0.4984630
vn 0.0000000 -0.5750614 -0.8181103
vt 0.0736497 0.5940918
v -0.9152830 2.7853551 0.4984631
vn 0.0000000 0.5750616 -0.8181102
vt 0.1029970 0.5690432
v -1.1475470 2.7853551 0.4984631
vn 0.0000000 0.4209750 -0.9070722
vt 0.1029970 0.5940918
v -0.9152830 2.8904130 0.6035210
vn 0.0000000 0.9070726 -0.4209743
vt 0.1176712 0.5690432
v -1.1475470 2.8904130 0.6035210
vn 0.0000000 0.8181109 -0.5750605
vt 0.1176711 0.5940918
v -0.9152831 2.9288671 0.7470330
vn 0.0000000 0.9960349 0.0889634
vt 0.0883230 0.5690432
v -0.9152830 2.8904130 0.6035210
vn 0.0000000 0.9070726 -0.4209743
vt 0.0736496 0.5690432
v -1.1475470 2.9288671 0.7470330
vn 0.0000000 0.9960350 -0.0889622
vt 0.0883231 0.5940918
v -1.1475470 2.8904130 0.6035210
vn 0.0000000 0.8181109 -0.5750605
vt 0.0736498 0.5940918
v -0.9152829 2.8904130 0.8905447
vn 0.0000000 0.8181111 0.5750603
vt 0.1029969 0.5690432
v -1.1475470 2.8904130 0.8905448
vn 0.0000000 0.9070724 0.4209746
vt 0.1029969 0.5940918
v -0.9152830 2.7853551 0.9956028
vn 0.0000000 0.4209750 0.9070722
vt 0.1176712 0.5690432
v -1.1475470 2.7853551 0.9956028
vn 0.0000000 0.5750626 0.8181095
vt 0.1176712 0.5940918
v -0.9152830 2.7853551 0.9956028
vn 0.0000000 0.4209750 0.9070722
vt 0.0736496 0.5690432
v -1.1475470 2.7853551 0.9956028
vn 0.0000000 0.5750626 0.8181095
vt 0.0736497 0.5940918
v -0.9152830 2.7853551 0.9956028
vn 1.0000000 0.0000000 0.0000000
vt 0.1635855 0.5810571
v -0.9152831 2.6418431 1.0340570
vn 1.0000000 0.0000000 0.0000000
vt 0.1485887 0.5850755
v -0.9152829 2.8904130 0.8905447
vn 1.0000000 0.0000000 0.0000000
vt 0.1745638 0.5700788
v -0.9152831 2.4983311 0.9956028
vn 1.0000000 0.0000000 0.0000000
vt 0.1335919 0.5810571
v -0.9152830 2.3932731 0.8905449
vn 1.0000000 0.0000000 0.0000000
vt 0.1226134 0.5700787
v -0.9152829 2.3548191 0.7470330
vn 1.0000000 0.0000000 0.0000000
vt 0.1185950 0.5550820
v -0.9152830 2.3932731 0.6035210
vn 1.0000000 0.0000000 0.0000000
vt 0.1226133 0.5400851
v -0.9152829 2.4983311 0.4984630
vn 1.0000000 0.0000000 0.0000000
vt 0.1335919 0.5291067
v -0.9152831 2.6418431 0.4600092
vn 1.0000000 0.0000000 0.0000000
vt 0.1485886 0.5250883
v -0.9152830 2.7853551 0.4984631
vn 1.0000000 0.0000000 0.0000000
vt 0.1635854 0.5291069
v -0.9152830 2.8904130 0.6035210
vn 1.0000000 0.0000000 0.0000000
vt 0.1745639 0.5400851
v -0.9152831 2.9288671 0.7470330
vn 1.0000000 0.0000000 0.0000000
vt 0.1785823 0.5550820

g group_64892368_140627890917552
f 1/1/1 2/2/2 3/3/3 
f 2/2/2 4/4/4 3/3/3 
f 4/4/4 5/5/5 3/3/3 
f 5/5/5 6/6/6 3/3/3 
f 6/6/6 7/7/7 3/3/3 
f 7/7/7 8/8/8 3/3/3 
f 8/8/8 9/9/9 3/3/3 
f 9/9/9 10/10/10 3/3/3 
f 10/10/10 11/11/11 3/3/3 
f 11/11/11 12/12/12 3/3/3 
f 13/13/13 14/14/14 15/15/15 
f 15/15/15 14/14/14 16/16/16 
f 17/17/17 13/13/13 18/18/18 
f 18/18/18 13/13/13 15/15/15 
f 19/19/19 20/20/20 21/21/21 
f 21/21/21 20/20/20 22/22/22 
f 23/23/23 19/19/19 24/24/24 
f 24/24/24 19/19/19 21/21/21 
f 25/25/25 23/23/23 26/26/26 
f 26/26/26 23/23/23 24/24/24 
f 27/27/27 28/28/28 29/29/29 
f 29/29/29 28/28/28 30/30/30 
f 31/31/31 27/27/27 32/32/32 
f 32/32/32 27/27/27 29/29/29 
f 33/33/33 31/31/31 34/34/34 
f 34/34/34 31/31/31 32/32/32 
f 35/35/35 36/36/36 37/37/37 
f 37/37/37 36/36/36 38/38/38 
f 39/39/39 35/35/35 40/40/40 
f 40/40/40 35/35/35 37/37/37 
f 41/41/41 39/39/39 42/42/42 
f 42/42/42 39/39/39 40/40/40 
f 14/14/14 43/43/43 16/16/16 
f 16/16/16 43/43/43 44/44/44 
f 45/45/45 46/46/46 47/47/47 
f 46/46/46 48/48/48 47/47/47 
f 48/48/48 49/49/49 47/47/47 
f 49/49/49 50/50/50 47/47/47 
f 50/50/50 51/51/51 47/47/47 
f 51/51/51 52/52/52 47/47/47 
f 52/52/52 53/53/53 47/47/47 
f 53/53/53 54/54/54 47/47/47 
f 54/54/54 55/55/55 47/47/47 
f 55/55/55 56/56/56 47/47/47 
