v 1.1338110 -2.0223160 0.9635968
vn 0.0000000 0.4999996 0.8660256
vt 0.0847234 0.5690432
v 0.9020319 -2.0223160 0.9635968
vn 0.0000000 0.4999997 0.8660256
vt 0.0847234 0.5940918
v 1.1338110 -2.1940579 1.0096149
vn 0.0000000 0.0000000 1.0000000
vt 0.1017073 0.5690432
v 0.9020318 -2.1940579 1.0096149
vn 0.0000000 0.0000000 1.0000000
vt 0.1017074 0.5940918
v 0.9020319 -1.8965909 0.8378725
vn 0.0000000 0.9070726 0.4209742
vt 0.0678668 0.5940918
v 1.1338110 -1.8965909 0.8378725
vn 0.0000000 0.8181100 0.5750618
vt 0.0678668 0.5690432
v 0.9020318 -1.8505729 0.6661301
vn 0.0000000 0.9960350 -0.0889626
vt 0.1017074 0.5940918
v 0.9020319 -1.8965909 0.8378725
vn 0.0000000 0.9070726 0.4209742
vt 0.1185934 0.5940918
v 1.1338110 -1.8505729 0.6661301
vn 0.0000000 0.9960350 0.0889628
vt 0.1017073 0.5690432
v 1.1338110 -1.8965909 0.8378725
vn 0.0000000 0.8181100 0.5750618
vt 0.1185934 0.5690432
v 0.9020318 -1.8965909 0.4943874
vn 0.0000000 0.8181099 -0.5750620
vt 0.0847234 0.5940918
v 1.1338110 -1.8965909 0.4943874
vn 0.0000000 0.9070728 -0.4209740
vt 0.0847234 0.5690432
v 0.9020318 -2.0223160 0.3686631
vn 0.0000000 0.4209735 -0.9070730
vt 0.0678668 0.5940918
v 1.1338110 -2.0223160 0.3686631
vn 0.0000000 0.5750604 -0.8181110
vt 0.0678668 0.5690432
v 0.9020318 -2.1940579 0.3226449
vn 0.0000000 -0.0889622 -0.9960350
vt 0.1017075 0.5940918
v 0.9020318 -2.0223160 0.3686631
vn 0.0000000 0.4209735 -0.9070730
vt 0.1185935 0.5940918
v 1.1338110 -2.1940579 0.3226449
vn 0.0000000 0.0889623 -0.9960350
vt 0.1017075 0.5690432
v 1.1338110 -2.0223160 0.3686631
vn 0.0000000 0.5750604 -0.8181110
vt 0.1185935 0.5690432
v 0.9020318 -2.3658011 0.3686633
vn 0.0000000 -0.5750612 -0.8181104
vt 0.0847234 0.5940918
v 1.1338110 -2.3658011 0.3686633
vn 0.0000000 -0.4209740 -0.9070728
vt 0.0847234 0.5690432
v 0.9020318 -2.4915249 0.4943874
vn 0.0000000 -0.9070728 -0.4209737
vt 0.0678670 0.5940918
v 1.1338110 -2.4915249 0.4943874
vn 0.0000000 -0.8181103 -0.5750614
vt 0.0678668 0.5690432
v 1.1338110 -2.3658011 0.3686633
vn 1.0000000 0.0000000 0.0000000
vt 0.1353669 0.5227032
v 1.1338110 -2.1940579 0.3226449
vn 1.0000000 0.0000000 0.0000000
vt 0.1399906 0.5054464
v 1.1338110 -2.4915249 0.4943874
vn 1.0000000 0.0000000 0.0000000
vt 0.1227342 0.5353358
v 1.1338110 -2.5375431 0.6661300
vn 1.0000000 0.0000000 0.0000000
vt 0.1054775 0.5399596
v 1.1338110 -2.4915249 0.8378725
vn 1.0000000 0.0000000 0.0000000
vt 0.0882210 0.5353358
v 1.1338110 -2.3658011 0.9635966
vn 1.0000000 0.0000000 0.0000000
vt 0.0755883 0.5227032
v 1.1338110 -2.1940579 1.0096149
vn 1.0000000 0.0000000 0.0000000
vt 0.0709644 0.5054465
v 1.1338110 -2.0223160 0.9635968
vn 1.0000000 0.0000000 0.0000000
vt 0.0755883 0.4881899
v 1.1338110 -1.8965909 0.8378725
vn 1.0000000 0.0000000 0.0000000
vt 0.0882211 0.4755574
v 1.1338110 -1.8505729 0.6661301
vn 1.0000000 0.0000000 0.0000000
vt 0.1054774 0.4709334
v 1.1338110 -1.8965909 0.4943874
vn 1.0000000 0.0000000 0.0000000
vt 0.1227341 0.4755572
v 1.1338110 -2.0223160 0.3686631
vn 1.0000000 0.0000000 0.0000000
vt 0.1353667 0.4881899
v 0.9020318 -2.5375431 0.6661300
vn 0.0000000 -0.9960350 0.0889620
vt 0.1017075 0.5940918
v 0.9020318 -2.4915249 0.4943874
vn 0.0000000 -0.9070728 -0.4209737
vt 0.1185935 0.5940918
v 1.1338110 -2.5375431 0.6661300
vn 0.0000000 -0.9960350 -0.0889626
vt 0.1017075 0.5690432
v 1.1338110 -2.4915249 0.4943874
vn 0.0000000 -0.8181103 -0.5750614
vt 0.1185935 0.5690432
v 0.9020318 -2.4915249 0.8378725
vn 0.0000000 -0.8181105 0.5750611
vt 0.0847234 0.5940918
v 1.1338110 -2.4915249 0.8378725
vn 0.0000000 -0.9070730 0.4209735
vt 0.0847234 0.5690432
v 0.9020318 -2.3658011 0.9635966
vn 0.0000000 -0.4209736 0.9070729
vt 0.0678670 0.5940918
v 1.1338110 -2.3658011 0.9635966
vn 0.0000000 -0.5750607 0.8181108
vt 0.0678668 0.5690432
v 0.9020318 -2.3658011 0.9635966
vn 0.0000000 -0.4209736 0.9070729
vt 0.1185934 0.5940918
v 1.1338110 -2.3658011 0.9635966
vn 0.0000000 -0.5750607 0.8181108
vt 0.1185934 0.5690432
v 0.9020318 -2.0223160 0.3686631
vn -1.0000000 0.0000000 0.0000000
vt 0.0069633 0.5611236
v 0.9020318 -2.1940579 0.3226449
vn -1.0000000 0.0000000 0.0000000
vt 0.0023392 0.5438671
v 0.9020318 -1.8965909 0.4943874
vn -1.0000000 0.0000000 0.0000000
vt 0.0195959 0.5737562
v 0.9020318 -1.8505729 0.6661301
vn -1.0000000 0.0000000 0.0000000
vt 0.0368524 0.5783800
v 0.9020319 -1.8965909 0.8378725
vn -1.0000000 0.0000000 0.0000000
vt 0.0541090 0.5737562
v 0.9020319 -2.0223160 0.9635968
vn -1.0000000 0.0000000 0.0000000
vt 0.0667417 0.5611236
v 0.9020318 -2.1940579 1.0096149
vn -1.0000000 0.0000000 0.0000000
vt 0.0713655 0.5438669
v 0.9020318 -2.3658011 0.9635966
vn -1.0000000 0.0000000 0.0000000
vt 0.0667417 0.5266104
v 0.9020318 -2.4915249 0.8378725
vn -1.0000000 0.0000000 0.0000000
vt 0.0541090 0.5139778
v 0.9020318 -2.5375431 0.6661300
vn -1.0000000 0.0000000 0.0000000
vt 0.0368524 0.5093539
v 0.9020318 -2.4915249 0.4943874
vn -1.0000000 0.0000000 0.0000000
vt 0.0195959 0.5139776
v 0.9020318 -2.3658011 0.3686633
vn -1.0000000 0.0000000 0.0000000
vt 0.0069633 0.5266104

g group_64891360_140627889363424
f 1/1/1 2/2/2 3/3/3 
f 2/2/2 4/4/4 3/3/3 
f 5/5/5 2/2/2 6/6/6 
f 2/2/2 1/1/1 6/6/6 
f 7/7/7 8/8/8 9/9/9 
f 8/8/8 10/10/10 9/9/9 
f 11/11/11 7/7/7 12/12/12 
f 7/7/7 9/9/9 12/12/12 
f 13/13/13 11/11/11 14/14/14 
f 11/11/11 12/12/12 14/14/14 
f 15/15/15 16/16/16 17/17/17 
f 16/16/16 18/18/18 17/17/17 
f 19/19/19 15/15/15 20/20/20 
f 15/15/15 17/17/17 20/20/20 
f 21/21/21 19/19/19 22/22/22 
f 19/19/19 20/20/20 22/22/22 
f 23/23/23 24/24/24 25/25/25 
f 25/25/25 24/24/24 26/26/26 
f 26/26/26 24/24/24 27/27/27 
f 27/27/27 24/24/24 28/28/28 
f 28/28/28 24/24/24 29/29/29 
f 29/29/29 24/24/24 30/30/30 
f 30/30/30 24/24/24 31/31/31 
f 31/31/31 24/24/24 32/32/32 
f 32/32/32 24/24/24 33/33/33 
f 33/33/33 24/24/24 34/34/34 
f 35/35/35 36/36/36 37/37/37 
f 36/36/36 38/38/38 37/37/37 
f 39/39/39 35/35/35 40/40/40 
f 35/35/35 37/37/37 40/40/40 
f 41/41/41 39/39/39 42/42/42 
f 39/39/39 40/40/40 42/42/42 
f 4/4/4 43/43/43 3/3/3 
f 43/43/43 44/44/44 3/3/3 
f 45/45/45 46/46/46 47/47/47 
f 47/47/47 46/46/46 48/48/48 
f 48/48/48 46/46/46 49/49/49 
f 49/49/49 46/46/46 50/50/50 
f 50/50/50 46/46/46 51/51/51 
f 51/51/51 46/46/46 52/52/52 
f 52/52/52 46/46/46 53/53/53 
f 53/53/53 46/46/46 54/54/54 
f 54/54/54 46/46/46 55/55/55 
f 55/55/55 46/46/46 56/56/56 
