v 0.9254495 1.8465550 0.1647621
vn -1.0000000 0.0000000 0.0000000
vt 0.0320118 0.4602339
v 0.9254496 1.7395940 0.1030080
vn -1.0000000 0.0000000 0.0000000
vt 0.0420077 0.4544628
v 0.9254495 1.8465550 0.2882706
vn -1.0000000 0.0000000 0.0000000
vt 0.0320117 0.4717763
v 0.9254496 1.6326330 0.1647623
vn -1.0000000 0.0000000 0.0000000
vt 0.0520037 0.4602340
v 0.9254495 1.6326330 0.2882707
vn -1.0000000 0.0000000 0.0000000
vt 0.0520037 0.4717764
v 0.9254494 1.7395940 0.3500397
vn -1.0000000 0.0000000 0.0000000
vt 0.0420077 0.4775489
v 0.9254495 1.8465550 0.2882706
vn 0.0000000 0.7559776 0.6545975
vt 0.0415471 0.3004198
v 1.1344410 1.8465550 0.2882706
vn 0.0000000 0.9449208 0.3272989
vt 0.0599500 0.3004198
v 0.9254495 1.8465550 0.1647621
vn 0.0000000 0.9449112 -0.3273269
vt 0.0415471 0.2901790
v 1.1344410 1.8465550 0.1647621
vn 0.0000000 0.7559289 -0.6546538
vt 0.0599500 0.2901790
v 0.9254494 1.7395940 0.3500397
vn 0.0000000 -0.1890261 0.9819721
vt 0.0415471 0.2902137
v 1.1344410 1.7395940 0.3500397
vn 0.0000000 0.1890261 0.9819721
vt 0.0599500 0.2902137
v 0.9254495 1.6326330 0.2882707
vn 0.0000000 -0.9449210 0.3272985
vt 0.0415471 0.2799678
v 1.1344410 1.6326330 0.2882707
vn 0.0000000 -0.7559778 0.6545973
vt 0.0599500 0.2799678
v 0.9254496 1.6326330 0.1647623
vn 0.0000000 -0.7559292 -0.6546534
vt 0.0415471 0.2696971
v 1.1344410 1.6326330 0.1647623
vn 0.0000000 -0.9449112 -0.3273267
vt 0.0599500 0.2696971
v 0.9254496 1.7395940 0.1030080
vn 0.0000000 0.1889819 -0.9819806
vt 0.0415471 0.2799380
v 1.1344410 1.7395940 0.1030080
vn 0.0000000 -0.1889829 -0.9819804
vt 0.0599500 0.2799380
v 1.1344410 1.6326330 0.1647623
vn 1.0000000 0.0000000 0.0000000
vt 0.0319592 0.4601948
v 1.1344410 1.7395940 0.1030080
vn 1.0000000 0.0000000 0.0000000
vt 0.0419920 0.4544023
v 1.1344410 1.6326330 0.2882707
vn 1.0000000 0.0000000 0.0000000
vt 0.0319592 0.4717797
v 1.1344410 1.8465550 0.1647621
vn 1.0000000 0.0000000 0.0000000
vt 0.0520249 0.4601947
v 1.1344410 1.8465550 0.2882706
vn 1.0000000 0.0000000 0.0000000
vt 0.0520249 0.4717796
v 1.1344410 1.7395940 0.3500397
vn 1.0000000 0.0000000 0.0000000
vt 0.0419921 0.4775735
v 0.9254495 1.8465550 0.2882706
vn 0.0000000 0.7559776 0.6545975
vt 0.0415471 0.3004198
v 1.1344410 1.8465550 0.2882706
vn 0.0000000 0.9449208 0.3272989
vt 0.0599500 0.3004198
v 0.9254496 1.6326330 0.1647623
vn 0.0000000 -0.7559292 -0.6546534
vt 0.0415471 0.2696971
v 1.1344410 1.6326330 0.1647623
vn 0.0000000 -0.9449112 -0.3273267
vt 0.0599500 0.2696971

g group_15903128_140627909661936
f 1/1/1 2/2/2 3/3/3 
f 2/2/2 4/4/4 3/3/3 
f 4/4/4 5/5/5 3/3/3 
f 5/5/5 6/6/6 3/3/3 
f 7/7/7 8/8/8 9/9/9 
f 9/9/9 8/8/8 10/10/10 
f 11/11/11 12/12/12 25/25/25 
f 25/25/25 12/12/12 26/26/26 
f 13/13/13 14/14/14 11/11/11 
f 11/11/11 14/14/14 12/12/12 
f 15/15/15 16/16/16 13/13/13 
f 13/13/13 16/16/16 14/14/14 
f 17/17/17 18/18/18 27/27/27 
f 27/27/27 18/18/18 28/28/28 
f 9/9/9 10/10/10 17/17/17 
f 17/17/17 10/10/10 18/18/18 
f 19/19/19 20/20/20 21/21/21 
f 20/20/20 22/22/22 21/21/21 
f 22/22/22 23/23/23 21/21/21 
f 21/21/21 23/23/23 24/24/24 
