v -1.0104690 -2.8487539 0.5237748
vn 0.0000004 -0.9808196 -0.1949179
vt 0.4719810 5.0122271
v -1.0104700 -2.8328581 0.7613809
vn 0.0000004 -0.9237087 0.3830957
vt 0.4719810 4.8243108
v -1.4148560 -2.8328581 0.7613810
vn 0.0000003 -0.9237087 0.3830957
vt 0.8094175 4.8248100
v -1.4148560 -2.8487539 0.5237748
vn 0.0000007 -0.9808197 -0.1949173
vt 0.8094175 5.0127258
v -1.0104690 -2.6761611 0.9402244
vn 0.0000005 -0.5592787 0.8289797
vt 0.4719810 4.6367030
v -1.4148560 -2.6761611 0.9402244
vn 0.0000004 -0.5592794 0.8289793
vt 0.8094175 4.6372008
v -1.0104690 -2.4590831 1.0159709
vn 0.0000001 -0.2108716 0.9775138
vt 0.4719810 4.4488320
v -1.4148560 -2.4590831 1.0159709
vn 0.0000001 -0.2108714 0.9775138
vt 0.8094175 4.4493299
v -1.0104700 -1.4755340 1.1039420
vn 0.0000005 -0.0601455 0.9981896
vt 0.4719810 3.5583999
v -1.4148560 -1.4755330 1.1039420
vn 0.0000005 -0.0601455 0.9981896
vt 0.8094175 3.5588989
v -1.0104690 0.4578991 1.1642050
vn 0.0000000 -0.0153927 0.9998816
vt 0.4719810 1.8009130
v -1.4148560 0.4578981 1.1642050
vn 0.0000001 -0.0153928 0.9998816
vt 0.8094175 1.8014120
v -1.4148560 2.4186671 1.1634750
vn 0.0000002 0.1641340 0.9864381
vt 0.8094175 0.0182899
v -1.0104700 2.4186671 1.1634750
vn 0.0000001 0.1641337 0.9864381
vt 0.4719810 0.0177911
v -1.0104700 2.6507640 1.0841351
vn 0.0000001 0.5574012 0.8302433
vt 0.4719810 -0.1758389
v -1.4148560 2.6507640 1.0841351
vn 0.0000001 0.5574010 0.8302435
vt 0.8094175 -0.1753401
v -1.0104700 2.8128920 0.8984150
vn 0.0000000 0.9237198 0.3830690
vt 0.4719810 -0.3732840
v -1.4148560 2.8128920 0.8984153
vn 0.0000001 0.9237197 0.3830691
vt 0.8094175 -0.3727853
v -1.0104700 2.8297150 0.6533988
vn -0.0000003 0.9808261 -0.1948850
vt 0.4719810 -0.5681733
v -1.4148560 2.8297150 0.6533989
vn -0.0000005 0.9808262 -0.1948846
vt 0.8094175 -0.5676746
v -1.0104700 2.7200520 0.4325224
vn 0.0000004 0.7103132 -0.7038858
vt 0.4719810 -0.7633635
v -1.4148560 2.7200520 0.4325221
vn 0.0000002 0.7103134 -0.7038856
vt 0.8094175 -0.7628648
v -1.0104700 1.8684970 0.0000417
vn -0.0000004 0.2328630 -0.9725096
vt 0.4719810 -1.5732541
v -1.4148560 1.8684970 0.0000418
vn -0.0000002 0.2328629 -0.9725096
vt 0.8094175 -1.5727549
v -1.0104690 -1.8039830 -0.0003841
vn -0.0000000 -0.1338660 -0.9909995
vt 0.4719810 -4.9266710
v -1.4148560 -1.8039830 -0.0003841
vn -0.0000000 -0.1338659 -0.9909995
vt 0.8094175 -4.9261732
v -1.0104690 -1.8039830 -0.0003841
vn -0.0000000 -0.1338660 -0.9909995
vt 0.4719810 6.0727420
v -1.0104690 -2.6111121 0.2218260
vn 0.0000003 -0.4161067 -0.9093158
vt 0.4719810 5.3270531
v -1.4148560 -2.6111121 0.2218261
vn -0.0000001 -0.4161059 -0.9093162
vt 0.8094175 5.3275518
v -1.4148560 -1.8039830 -0.0003841
vn -0.0000000 -0.1338659 -0.9909995
vt 0.8094175 6.0732412
v -1.0104690 -2.7431500 0.3101693
vn 0.0000008 -0.7517146 -0.6594886
vt 0.4719810 5.2002220
v -1.4148560 -2.7431500 0.3101690
vn 0.0000005 -0.7517142 -0.6594891
vt 0.8094175 5.2007208
v -1.4148560 -2.8328581 0.7613810
vn -1.0000000 0.0000002 0.0000005
vt 0.0321694 4.8243108
v -1.4148560 -2.7765019 0.7380373
vn -1.0000000 0.0000002 0.0000005
vt 0.0921550 4.8243108
v -1.4148560 -2.7900751 0.5354465
vn -1.0000000 0.0000000 0.0000000
vt 0.0921550 5.0122271
v -1.4148560 -2.8487539 0.5237748
vn -1.0000000 0.0000000 0.0000000
vt 0.0321694 5.0122271
v -1.0104690 -2.7900751 0.5354465
vn 1.0000000 -0.0000004 0.0000005
vt 0.4110730 5.0122271
v -1.0104690 -2.7765019 0.7380373
vn 1.0000000 -0.0000036 0.0000015
vt 0.4110730 4.8243108
v -1.0104700 -2.8328581 0.7613809
vn 1.0000000 -0.0000030 0.0000012
vt 0.4719810 4.8243108
v -1.0104690 -2.8487539 0.5237748
vn 1.0000000 -0.0000001 0.0000005
vt 0.4719810 5.0122271
v -1.4148560 -2.6761611 0.9402244
vn -1.0000000 0.0000009 0.0000007
vt 0.0321694 4.6367030
v -1.4148560 -2.6429219 0.8904793
vn -1.0000000 0.0000010 0.0000006
vt 0.0921550 4.6367030
v -1.0104690 -2.6429219 0.8904794
vn 1.0000000 -0.0000006 -0.0000001
vt 0.4110730 4.6367030
v -1.0104690 -2.6761611 0.9402244
vn 1.0000000 -0.0000004 -0.0000003
vt 0.4719810 4.6367030
v -1.4148560 -2.4590831 1.0159709
vn -1.0000000 0.0000002 0.0000001
vt 0.0321694 4.4488320
v -1.4148560 -2.4506700 0.9555540
vn -1.0000000 0.0000003 0.0000000
vt 0.0921550 4.4488320
v -1.0104690 -2.4506691 0.9555540
vn 1.0000000 0.0000001 0.0000000
vt 0.4110730 4.4488320
v -1.0104690 -2.4590831 1.0159709
vn 1.0000000 0.0000001 0.0000000
vt 0.4719810 4.4488320
v -1.4148560 -1.4755330 1.0429490
vn -1.0000000 -0.0000003 -0.0000000
vt 0.0921550 3.5583999
v -1.4148560 -1.4755330 1.1039420
vn -1.0000000 -0.0000003 -0.0000000
vt 0.0321694 3.5583999
v -1.0104700 -1.4755340 1.0429490
vn 1.0000000 0.0000001 0.0000000
vt 0.4110730 3.5583999
v -1.0104700 -1.4755340 1.1039420
vn 1.0000000 0.0000001 0.0000000
vt 0.4719810 3.5583999
v -1.4148560 0.4578698 1.1032050
vn -1.0000000 0.0000000 0.0000000
vt 0.0921550 1.8009130
v -1.4148560 0.4578981 1.1642050
vn -1.0000000 -0.0000000 0.0000000
vt 0.0321694 1.8009130
v -1.0104690 0.4578705 1.1032050
vn 1.0000000 0.0000001 -0.0000000
vt 0.4110730 1.8009130
v -1.0104690 0.4578991 1.1642050
vn 1.0000000 0.0000001 -0.0000000
vt 0.4719810 1.8009130
v -1.4148560 2.4186671 1.1634750
vn -1.0000000 0.0000002 -0.0000000
vt 0.0321694 0.0177911
v -1.4148560 2.4178231 1.1025450
vn -1.0000000 0.0000003 -0.0000000
vt 0.0921550 0.0177911
v -1.0104700 2.4178231 1.1025450
vn 1.0000000 -0.0000011 0.0000000
vt 0.4110730 0.0177911
v -1.0104700 2.4186671 1.1634750
vn 1.0000000 -0.0000008 0.0000001
vt 0.4719810 0.0177911
v -1.4148560 2.6175261 1.0343900
vn -1.0000000 0.0000002 -0.0000001
vt 0.0921550 -0.1758389
v -1.4148560 2.6507640 1.0841351
vn -1.0000000 0.0000002 -0.0000001
vt 0.0321694 -0.1758389
v -1.0104700 2.6175261 1.0343900
vn 1.0000000 -0.0000009 0.0000005
vt 0.4110730 -0.1758389
v -1.0104700 2.6507640 1.0841351
vn 1.0000000 -0.0000008 0.0000006
vt 0.4719810 -0.1758389
v -1.4148560 2.8128920 0.8984153
vn -1.0000000 0.0000000 0.0000000
vt 0.0321694 -0.3732840
v -1.4148560 2.7565351 0.8750715
vn -1.0000000 0.0000000 0.0000000
vt 0.0921550 -0.3732840
v -1.0104700 2.7565351 0.8750714
vn 1.0000000 -0.0000001 0.0000003
vt 0.4110730 -0.3732840
v -1.0104700 2.8128920 0.8984150
vn 1.0000000 0.0000001 0.0000002
vt 0.4719810 -0.3732840
v -1.4148560 2.7710390 0.6650760
vn -1.0000000 0.0000000 0.0000000
vt 0.0921550 -0.5681733
v -1.4148560 2.8297150 0.6533989
vn -1.0000000 0.0000000 0.0000000
vt 0.0321694 -0.5681733
v -1.0104700 2.7710390 0.6650758
vn 1.0000000 0.0000016 -0.0000003
vt 0.4110730 -0.5681733
v -1.0104700 2.8297150 0.6533988
vn 1.0000000 0.0000020 -0.0000004
vt 0.4719810 -0.5681733
v -1.4148560 2.7200520 0.4325221
vn -1.0000000 0.0000000 0.0000000
vt 0.0321694 -0.7633635
v -1.4148560 2.6767850 0.4755208
vn -1.0000000 0.0000000 0.0000001
vt 0.0921550 -0.7633635
v -1.0104700 2.6767850 0.4755210
vn 1.0000000 -0.0000002 -0.0000002
vt 0.4110730 -0.7633635
v -1.0104700 2.7200520 0.4325224
vn 1.0000000 0.0000000 -0.0000003
vt 0.4719810 -0.7633635
v -1.4148560 1.8684970 0.0000418
vn -1.0000000 -0.0000004 0.0000018
vt 0.0321694 -1.5732541
v -1.4148560 1.8516500 0.0601577
vn -1.0000000 -0.0000004 0.0000018
vt 0.0921550 -1.5732541
v -1.0104700 1.8516500 0.0601574
vn 1.0000000 0.0000000 0.0000000
vt 0.4110730 -1.5732541
v -1.0104700 1.8684970 0.0000417
vn 1.0000000 0.0000000 0.0000000
vt 0.4719810 -1.5732541
v -1.4148560 -1.8039830 -0.0003841
vn -1.0000000 -0.0000003 0.0000000
vt 0.0321694 -4.9266710
v -1.4148560 -1.7998600 0.0608333
vn -1.0000000 -0.0000003 0.0000000
vt 0.0921550 -4.9266710
v -1.0104690 -1.8039830 -0.0003841
vn 1.0000000 0.0000002 -0.0000000
vt 0.4719810 -4.9266710
v -1.0104690 -1.7998600 0.0608328
vn 1.0000000 0.0000002 -0.0000000
vt 0.4110730 -4.9266710
v -1.4148560 -2.6111121 0.2218261
vn -1.0000000 0.0000012 -0.0000007
vt 0.0321694 5.3270531
v -1.4148560 -2.5856941 0.2772784
vn -1.0000000 0.0000013 -0.0000006
vt 0.0921550 5.3270531
v -1.4148560 -1.7998600 0.0608333
vn -1.0000000 -0.0000003 0.0000000
vt 0.0921550 6.0727420
v -1.4148560 -1.8039830 -0.0003841
vn -1.0000000 -0.0000003 0.0000000
vt 0.0321694 6.0727420
v -1.0104690 -1.7998600 0.0608328
vn 1.0000000 0.0000002 -0.0000000
vt 0.4110730 6.0727420
v -1.0104690 -2.5856941 0.2772781
vn 1.0000000 -0.0000007 0.0000003
vt 0.4110730 5.3270531
v -1.0104690 -2.6111121 0.2218260
vn 1.0000000 -0.0000006 0.0000004
vt 0.4719810 5.3270531
v -1.0104690 -1.8039830 -0.0003841
vn 1.0000000 0.0000002 -0.0000000
vt 0.4719810 6.0727420
v -1.4148560 -2.7000170 0.3533026
vn -1.0000000 0.0000012 -0.0000010
vt 0.0921550 5.2002220
v -1.4148560 -2.7431500 0.3101690
vn -1.0000000 0.0000011 -0.0000011
vt 0.0321694 5.2002220
v -1.0104690 -2.7000160 0.3533029
vn 1.0000000 -0.0000006 0.0000005
vt 0.4110730 5.2002220
v -1.0104690 -2.7431500 0.3101693
vn 1.0000000 -0.0000006 0.0000006
vt 0.4719810 5.2002220
v -1.0104690 -2.7900751 0.5354465
vn -0.0000000 0.9808252 0.1948893
vt 0.4110730 5.0122271
v -1.4148560 -2.7900751 0.5354465
vn -0.0000009 0.9808256 0.1948877
vt 0.0921550 5.0122271
v -1.4148560 -2.7765019 0.7380373
vn -0.0000000 0.9236791 -0.3831670
vt 0.0921550 4.8243108
v -1.0104690 -2.7765019 0.7380373
vn 0.0000001 0.9236792 -0.3831668
vt 0.4110730 4.8243108
v -1.4148560 -2.6429219 0.8904793
vn 0.0000001 0.5553769 -0.8315988
vt 0.0921550 4.6367030
v -1.0104690 -2.6429219 0.8904794
vn 0.0000000 0.5553765 -0.8315990
vt 0.4110730 4.6367030
v -1.4148560 -2.4506700 0.9555540
vn -0.0000000 0.2063884 -0.9784701
vt 0.0921550 4.4488320
v -1.0104690 -2.4506691 0.9555540
vn -0.0000003 0.2063878 -0.9784703
vt 0.4110730 4.4488320
v -1.4148560 -1.4755330 1.0429490
vn -0.0000005 0.0602337 -0.9981843
vt 0.0921550 3.5583999
v -1.0104700 -1.4755340 1.0429490
vn -0.0000005 0.0602338 -0.9981843
vt 0.4110730 3.5583999
v -1.4148560 0.4578698 1.1032050
vn -0.0000003 0.0154088 -0.9998813
vt 0.0921550 1.8009130
v -1.0104690 0.4578705 1.1032050
vn -0.0000003 0.0154088 -0.9998813
vt 0.4110730 1.8009130
v -1.4148560 2.4178231 1.1025450
vn 0.0000001 -0.1638692 -0.9864821
vt 0.0921550 0.0177911
v -1.0104700 2.4178231 1.1025450
vn -0.0000001 -0.1638694 -0.9864821
vt 0.4110730 0.0177911
v -1.4148560 2.6175261 1.0343900
vn -0.0000003 -0.5572985 -0.8303123
vt 0.0921550 -0.1758389
v -1.0104700 2.6175261 1.0343900
vn -0.0000005 -0.5572991 -0.8303118
vt 0.4110730 -0.1758389
v -1.4148560 2.7565351 0.8750715
vn -0.0000005 -0.9236909 -0.3831386
vt 0.0921550 -0.3732840
v -1.0104700 2.7565351 0.8750714
vn -0.0000004 -0.9236908 -0.3831389
vt 0.4110730 -0.3732840
v -1.4148560 2.7710390 0.6650760
vn -0.0000001 -0.9808068 0.1949821
vt 0.0921550 -0.5681733
v -1.0104700 2.7710390 0.6650758
vn 0.0000001 -0.9808068 0.1949819
vt 0.4110730 -0.5681733
v -1.4148560 2.6767850 0.4755208
vn 0.0000000 -0.7088430 0.7053663
vt 0.0921550 -0.7633635
v -1.0104700 2.6767850 0.4755210
vn 0.0000002 -0.7088434 0.7053660
vt 0.4110730 -0.7633635
v -1.4148560 1.8516500 0.0601577
vn 0.0000007 -0.2309800 0.9729585
vt 0.0921550 -1.5732541
v -1.0104700 1.8516500 0.0601574
vn 0.0000009 -0.2309804 0.9729584
vt 0.4110730 -1.5732541
v -1.4148560 -1.7998600 0.0608333
vn 0.0000012 0.1340721 0.9909716
vt 0.0921550 -4.9266710
v -1.0104690 -1.7998600 0.0608328
vn 0.0000011 0.1340721 0.9909716
vt 0.4110730 -4.9266710
v -1.0104690 -1.7998600 0.0608328
vn 0.0000011 0.1340721 0.9909716
vt 0.4110730 6.0727420
v -1.4148560 -1.7998600 0.0608333
vn 0.0000012 0.1340721 0.9909716
vt 0.0921550 6.0727420
v -1.4148560 -2.5856941 0.2772784
vn 0.0000007 0.4148765 0.9098778
vt 0.0921550 5.3270531
v -1.0104690 -2.5856941 0.2772781
vn -0.0000004 0.4148791 0.9098766
vt 0.4110730 5.3270531
v -1.4148560 -2.7000170 0.3533026
vn -0.0000013 0.7507716 0.6605619
vt 0.0921550 5.2002220
v -1.0104690 -2.7000160 0.3533029
vn -0.0000015 0.7507721 0.6605614
vt 0.4110730 5.2002220
v -1.2316800 -1.4755340 1.0429490
vn -0.9631979 0.0161802 -0.2683060
vt 0.9121820 3.5583999
v -1.2090141 -1.4706390 0.9618732
vn -0.9632001 0.0161784 -0.2682982
vt 0.9962778 3.5583999
v -1.2090141 -2.4391241 0.8751549
vn -0.9631048 0.0240227 -0.2680527
vt 0.9962743 4.4470840
v -1.2316800 -2.4506691 0.9555540
vn -0.9631010 0.0240251 -0.2680657
vt 0.9121785 4.4488320
v -1.2316800 0.4578703 1.1032050
vn -0.9631935 0.0041665 -0.2687769
vt 0.9121891 1.8009130
v -1.2090141 0.4591193 1.0219910
vn -0.9631984 0.0041676 -0.2687591
vt 0.9962847 1.8003891
v -1.2090141 2.4096949 1.0217290
vn -0.9627595 -0.0459234 -0.2664305
vt 0.9962916 0.0239294
v -1.2316800 2.4178231 1.1025450
vn -0.9630802 -0.0426205 -0.2658195
vt 0.9121961 0.0177911
v -1.2316800 2.6175261 1.0343900
vn -0.9621204 -0.1510709 -0.2269403
vt 0.9121968 -0.1758389
v -1.2090141 2.5732319 0.9681817
vn -0.9618297 -0.1508671 -0.2283043
vt 0.9962925 -0.1758389
v -1.2316800 2.7565360 0.8750715
vn -0.9631883 -0.2483357 -0.1029457
vt 0.9121975 -0.3732840
v -1.2090141 2.6814909 0.8439969
vn -0.9631792 -0.2483443 -0.1030091
vt 0.9962932 -0.3732840
v -1.2316800 2.7710390 0.6650760
vn -0.9618136 -0.2684706 0.0532754
vt 0.9121982 -0.5681733
v -1.2090141 2.6929309 0.6805532
vn -0.9618059 -0.2684974 0.0532783
vt 0.9962938 -0.5681733
v -1.2316800 2.6767850 0.4755208
vn -0.9631822 -0.1904029 0.1898074
vt 0.9121989 -0.7633635
v -1.2090141 2.6194811 0.5330844
vn -0.9632903 -0.1904389 0.1892219
vt 0.9962948 -0.7633635
v -1.2316790 1.8516500 0.0601576
vn -0.9650637 -0.0599503 0.2550648
vt 0.9122021 -1.5732541
v -1.2090141 1.8325610 0.1415779
vn -0.9651783 -0.0598450 0.2546555
vt 0.9962977 -1.5731490
v -1.2316790 -1.7998600 0.0608333
vn -0.9631075 0.0349447 0.2668387
vt 0.9122153 -4.9266710
v -1.2090141 -1.7936040 0.1418160
vn -0.9630730 0.0375136 0.2666143
vt 0.9963110 -4.9191899
v -1.2316800 -2.5856941 0.2772785
vn -0.9621169 0.0724797 0.2628265
vt 0.9121755 5.3270531
v -1.2090141 -2.5509150 0.3506798
vn -0.9621345 0.0724697 0.2627650
vt 0.9962711 5.3328080
v -1.2090141 -1.7936040 0.1418160
vn -0.9630730 0.0375136 0.2666143
vt 0.9962683 6.0727429
v -1.2316790 -1.7998600 0.0608333
vn -0.9631075 0.0349447 0.2668387
vt 0.9121723 6.0727420
v -1.2090141 -2.4391241 0.8751549
vn 0.9631051 0.0240226 -0.2680514
vt 0.9962743 4.4470840
v -1.2090141 -1.4706390 0.9618732
vn 0.9632004 0.0161782 -0.2682969
vt 0.9962778 3.5583999
v -1.1863480 -1.4755340 1.0429490
vn 0.9631982 0.0161801 -0.2683046
vt 0.9121820 3.5583999
v -1.1863480 -2.4506691 0.9555540
vn 0.9631014 0.0240250 -0.2680644
vt 0.9121785 4.4488320
v -1.2090141 0.4591193 1.0219910
vn 0.9631984 0.0041676 -0.2687591
vt 0.9962847 1.8003891
v -1.1863470 0.4578703 1.1032050
vn 0.9631935 0.0041665 -0.2687768
vt 0.9121891 1.8009130
v -1.2090141 2.4096949 1.0217290
vn 0.9628603 -0.0000892 -0.2700000
vt 0.9962916 0.0239294
v -1.1863480 2.4178231 1.1025450
vn 0.9628515 -0.0000906 -0.2700313
vt 0.9121961 0.0177911
v -1.2090141 1.8325610 0.1415779
vn 0.9650865 -0.0605983 0.2548255
vt 0.9962977 -1.5731490
v -1.1863490 1.8516510 0.0601576
vn 0.9651805 -0.0603383 0.2545310
vt 0.9122021 -1.5732541
v -1.1863470 2.6767850 0.4755208
vn 0.9596568 -0.1253279 0.2516981
vt 0.9121989 -0.7633635
v -1.2090141 2.6194811 0.5330844
vn 0.9593624 -0.1256914 0.2526371
vt 0.9962948 -0.7633635
v -1.2090141 -1.7936040 0.1418160
vn 0.9630650 0.0375654 0.2666360
vt 0.9963110 -4.9191899
v -1.1863490 -1.7998600 0.0608333
vn 0.9631152 0.0349779 0.2668067
vt 0.9122153 -4.9266710
v -1.1863490 -1.7998600 0.0608333
vn 0.9631152 0.0349779 0.2668067
vt 0.9121723 6.0727420
v -1.2090141 -1.7936040 0.1418160
vn 0.9630650 0.0375654 0.2666360
vt 0.9962683 6.0727429
v -1.2090141 -2.5509150 0.3506798
vn 0.9621165 0.0724041 0.2628490
vt 0.9962711 5.3328080
v -1.1863480 -2.5856941 0.2772785
vn 0.9621307 0.0723855 0.2628021
vt 0.9121755 5.3270531

g group_32741648_105553122430208
f 1/1/1 2/2/2 3/3/3 
f 3/3/3 4/4/4 1/1/1 
f 2/2/2 5/5/5 6/6/6 
f 6/6/6 3/3/3 2/2/2 
f 5/5/5 7/7/7 8/8/8 
f 8/8/8 6/6/6 5/5/5 
f 7/7/7 9/9/9 10/10/10 
f 10/10/10 8/8/8 7/7/7 
f 9/9/9 11/11/11 12/12/12 
f 12/12/12 10/10/10 9/9/9 
f 13/13/13 12/12/12 11/11/11 
f 11/11/11 14/14/14 13/13/13 
f 14/14/14 15/15/15 16/16/16 
f 16/16/16 13/13/13 14/14/14 
f 15/15/15 17/17/17 18/18/18 
f 18/18/18 16/16/16 15/15/15 
f 17/17/17 19/19/19 20/20/20 
f 20/20/20 18/18/18 17/17/17 
f 19/19/19 21/21/21 22/22/22 
f 22/22/22 20/20/20 19/19/19 
f 21/21/21 23/23/23 24/24/24 
f 24/24/24 22/22/22 21/21/21 
f 23/23/23 25/25/25 26/26/26 
f 26/26/26 24/24/24 23/23/23 
f 27/27/27 28/28/28 29/29/29 
f 29/29/29 30/30/30 27/27/27 
f 28/28/28 31/31/31 32/32/32 
f 32/32/32 29/29/29 28/28/28 
f 31/31/31 1/1/1 4/4/4 
f 4/4/4 32/32/32 31/31/31 
f 33/33/33 34/34/34 35/35/35 
f 35/35/35 36/36/36 33/33/33 
f 37/37/37 38/38/38 39/39/39 
f 39/39/39 40/40/40 37/37/37 
f 41/41/41 42/42/42 34/34/34 
f 34/34/34 33/33/33 41/41/41 
f 39/39/39 38/38/38 43/43/43 
f 43/43/43 44/44/44 39/39/39 
f 45/45/45 46/46/46 42/42/42 
f 42/42/42 41/41/41 45/45/45 
f 43/43/43 47/47/47 48/48/48 
f 48/48/48 44/44/44 43/43/43 
f 49/49/49 46/46/46 45/45/45 
f 45/45/45 50/50/50 49/49/49 
f 48/48/48 47/47/47 51/51/51 
f 51/51/51 52/52/52 48/48/48 
f 53/53/53 49/49/49 50/50/50 
f 50/50/50 54/54/54 53/53/53 
f 55/55/55 56/56/56 52/52/52 
f 52/52/52 51/51/51 55/55/55 
f 53/53/53 54/54/54 57/57/57 
f 57/57/57 58/58/58 53/53/53 
f 56/56/56 55/55/55 59/59/59 
f 59/59/59 60/60/60 56/56/56 
f 61/61/61 58/58/58 57/57/57 
f 57/57/57 62/62/62 61/61/61 
f 60/60/60 59/59/59 63/63/63 
f 63/63/63 64/64/64 60/60/60 
f 65/65/65 66/66/66 61/61/61 
f 61/61/61 62/62/62 65/65/65 
f 63/63/63 67/67/67 68/68/68 
f 68/68/68 64/64/64 63/63/63 
f 69/69/69 66/66/66 65/65/65 
f 65/65/65 70/70/70 69/69/69 
f 68/68/68 67/67/67 71/71/71 
f 71/71/71 72/72/72 68/68/68 
f 73/73/73 74/74/74 69/69/69 
f 69/69/69 70/70/70 73/73/73 
f 71/71/71 75/75/75 76/76/76 
f 76/76/76 72/72/72 71/71/71 
f 77/77/77 78/78/78 74/74/74 
f 74/74/74 73/73/73 77/77/77 
f 75/75/75 79/79/79 80/80/80 
f 80/80/80 76/76/76 75/75/75 
f 81/81/81 82/82/82 78/78/78 
f 78/78/78 77/77/77 81/81/81 
f 80/80/80 79/79/79 83/83/83 
f 83/83/83 79/79/79 84/84/84 
f 85/85/85 86/86/86 87/87/87 
f 87/87/87 88/88/88 85/85/85 
f 89/89/89 90/90/90 91/91/91 
f 91/91/91 92/92/92 89/89/89 
f 93/93/93 86/86/86 85/85/85 
f 85/85/85 94/94/94 93/93/93 
f 91/91/91 90/90/90 95/95/95 
f 95/95/95 96/96/96 91/91/91 
f 36/36/36 35/35/35 93/93/93 
f 93/93/93 94/94/94 36/36/36 
f 96/96/96 95/95/95 37/37/37 
f 37/37/37 40/40/40 96/96/96 
f 97/97/97 98/98/98 99/99/99 
f 99/99/99 100/100/100 97/97/97 
f 100/100/100 99/99/99 101/101/101 
f 101/101/101 102/102/102 100/100/100 
f 102/102/102 101/101/101 103/103/103 
f 103/103/103 104/104/104 102/102/102 
f 104/104/104 103/103/103 105/105/105 
f 105/105/105 106/106/106 104/104/104 
f 107/107/107 108/108/108 106/106/106 
f 106/106/106 105/105/105 107/107/107 
f 108/108/108 107/107/107 109/109/109 
f 109/109/109 110/110/110 108/108/108 
f 110/110/110 109/109/109 111/111/111 
f 111/111/111 112/112/112 110/110/110 
f 112/112/112 111/111/111 113/113/113 
f 113/113/113 114/114/114 112/112/112 
f 114/114/114 113/113/113 115/115/115 
f 115/115/115 116/116/116 114/114/114 
f 116/116/116 115/115/115 117/117/117 
f 117/117/117 118/118/118 116/116/116 
f 118/118/118 117/117/117 119/119/119 
f 119/119/119 120/120/120 118/118/118 
f 120/120/120 119/119/119 121/121/121 
f 121/121/121 122/122/122 120/120/120 
f 123/123/123 124/124/124 125/125/125 
f 125/125/125 126/126/126 123/123/123 
f 126/126/126 125/125/125 127/127/127 
f 127/127/127 128/128/128 126/126/126 
f 128/128/128 127/127/127 98/98/98 
f 98/98/98 97/97/97 128/128/128 
f 129/129/129 130/130/130 131/131/131 
f 131/131/131 132/132/132 129/129/129 
f 130/130/130 129/129/129 133/133/133 
f 133/133/133 134/134/134 130/130/130 
f 135/135/135 134/134/134 133/133/133 
f 133/133/133 136/136/136 135/135/135 
f 137/137/137 138/138/138 135/135/135 
f 135/135/135 136/136/136 137/137/137 
f 139/139/139 140/140/140 138/138/138 
f 138/138/138 137/137/137 139/139/139 
f 141/141/141 142/142/142 140/140/140 
f 140/140/140 139/139/139 141/141/141 
f 143/143/143 144/144/144 142/142/142 
f 142/142/142 141/141/141 143/143/143 
f 145/145/145 146/146/146 144/144/144 
f 144/144/144 143/143/143 145/145/145 
f 147/147/147 148/148/148 146/146/146 
f 146/146/146 145/145/145 147/147/147 
f 149/149/149 150/150/150 151/151/151 
f 151/151/151 152/152/152 149/149/149 
f 153/153/153 154/154/154 155/155/155 
f 155/155/155 156/156/156 153/153/153 
f 154/154/154 157/157/157 158/158/158 
f 158/158/158 155/155/155 154/154/154 
f 159/159/159 160/160/160 158/158/158 
f 158/158/158 157/157/157 159/159/159 
f 161/161/161 162/162/162 163/163/163 
f 163/163/163 164/164/164 161/161/161 
f 161/161/161 165/165/165 166/166/166 
f 166/166/166 162/162/162 161/161/161 
f 167/167/167 168/168/168 169/169/169 
f 169/169/169 170/170/170 167/167/167 
