v 1.1052513 0.5343268 0.3563562
vn -0.0114377 -0.9682912 0.2495622
vt 0.7882698 0.7749310
v 1.3130329 0.5343268 0.3563562
vn -0.0124163 -0.9686162 0.2482508
vt 0.7882699 0.7565802
v 1.3130329 0.5968780 0.4646980
vn 0.0032886 -0.7126863 0.7014752
vt 0.7993192 0.7565803
v 1.1052511 0.6156450 0.4807744
vn -0.0350172 -0.6274534 0.7778664
vt 0.8012329 0.7749311
v 1.1052511 0.5425411 0.2079479
vn -0.0256607 -0.9357772 -0.3516570
vt 0.7771413 0.7749310
v 1.3130329 0.5343267 0.2312538
vn -0.0114541 -0.9707007 -0.2400185
vt 0.7790552 0.7565802
v 1.3130329 0.5343268 0.3563562
vn -0.0124163 -0.9686162 0.2482508
vt 0.7901042 0.7565802
v 1.1052513 0.5343268 0.3563562
vn -0.0114377 -0.9682912 0.2495622
vt 0.7901040 0.7749310
v 1.3130329 0.5968779 0.1229121
vn 0.0038961 -0.7080386 -0.7061630
vt 0.7882699 0.7565802
v 1.3130329 0.5343267 0.2312538
vn -0.0114541 -0.9707007 -0.2400185
vt 0.7993192 0.7565803
v 1.1052511 0.5425411 0.2079479
vn -0.0256607 -0.9357772 -0.3516570
vt 0.7971092 0.7749311
v 1.3130330 0.8303225 0.0603608
vn 0.0038963 0.2600982 -0.9655743
vt 0.7882699 0.7565802
v 1.3130330 0.7052197 0.0603609
vn 0.0013097 -0.2588191 -0.9659249
vt 0.7993192 0.7565803
v 1.1052514 0.7805246 0.0558218
vn -0.0525312 0.0471942 -0.9975035
vt 0.7926895 0.7749311
v 1.1052514 0.9930015 0.3796620
vn -0.0256607 0.9357778 0.3516554
vt 0.7771413 0.7749310
v 1.3130330 1.0012159 0.3563561
vn -0.0114540 0.9707011 0.2400173
vt 0.7790552 0.7565802
v 1.3130330 1.0012156 0.2312539
vn -0.0124162 0.9686159 -0.2482518
vt 0.7901042 0.7565802
v 1.1052514 1.0012156 0.2312539
vn -0.0114377 0.9682910 -0.2495632
vt 0.7901040 0.7749310
v 1.3130330 0.9386648 0.4646980
vn 0.0038962 0.7080390 0.7061626
vt 0.7882699 0.7565802
v 1.3130330 1.0012159 0.3563561
vn -0.0114540 0.9707011 0.2400173
vt 0.7993192 0.7565803
v 1.1052514 0.9930015 0.3796620
vn -0.0256607 0.9357778 0.3516554
vt 0.7971092 0.7749311
v 1.3130330 0.7052203 0.5272492
vn 0.0038965 -0.2600971 0.9655746
vt 0.7882699 0.7565802
v 1.3130330 0.8303230 0.5272492
vn 0.0013098 0.2588192 0.9659249
vt 0.7993192 0.7565803
v 1.1052514 0.7550183 0.5317882
vn -0.0525311 -0.0471934 0.9975035
vt 0.7926895 0.7749311
v 1.1052514 1.0012156 0.2312539
vn -1.0000000 0.0000006 -0.0000000
vt 0.7410291 0.7524831
v 1.1052514 0.9198973 0.1068357
vn -1.0000000 0.0000000 0.0000000
vt 0.7539922 0.7513782
v 1.1052514 0.7805246 0.0558218
vn -1.0000000 0.0000016 -0.0000021
vt 0.7638570 0.7431307
v 1.1052511 0.6377346 0.0940823
vn -1.0000000 0.0000010 -0.0000001
vt 0.7671718 0.7307599
v 1.1052511 0.5425411 0.2079479
vn -1.0000000 0.0000007 0.0000013
vt 0.7627521 0.7186855
v 1.1052513 0.5343268 0.3563562
vn -1.0000000 0.0000002 -0.0000001
vt 0.7520784 0.7112468
v 1.1052511 0.6156450 0.4807744
vn -1.0000000 0.0000006 -0.0000005
vt 0.7391154 0.7123518
v 1.1052514 0.7550183 0.5317882
vn -1.0000000 0.0000015 0.0000012
vt 0.7292506 0.7205992
v 1.1052514 0.8978084 0.4935276
vn -1.0000000 0.0000000 0.0000000
vt 0.7259357 0.7329698
v 1.1052514 0.9930015 0.3796620
vn -1.0000000 0.0000000 0.0000000
vt 0.7303555 0.7450444
v 1.3130329 0.5343267 0.2312538
vn 1.0000000 -0.0000008 -0.0000001
vt 0.8080541 0.7168279
v 1.3130329 0.5968779 0.1229121
vn 1.0000000 -0.0000017 -0.0000010
vt 0.8135788 0.7263961
v 1.3130330 0.7052197 0.0603609
vn 1.0000000 -0.0000004 -0.0000001
vt 0.8135788 0.7374452
v 1.3130329 0.5343268 0.3563562
vn 1.0000000 -0.0000004 0.0000002
vt 0.7984855 0.7113027
v 1.3130329 0.5968780 0.4646980
vn 1.0000000 -0.0000009 0.0000001
vt 0.7874368 0.7113027
v 1.3130330 0.7052203 0.5272492
vn 1.0000000 -0.0000004 0.0000000
vt 0.7778676 0.7168279
v 1.3130330 0.8303230 0.5272492
vn 1.0000000 0.0000000 0.0000000
vt 0.7723433 0.7263961
v 1.3130330 0.9386648 0.4646980
vn 1.0000000 0.0000000 0.0000000
vt 0.7723433 0.7374454
v 1.3130330 1.0012159 0.3563561
vn 1.0000000 0.0000000 0.0000000
vt 0.7778676 0.7470140
v 1.3130330 1.0012156 0.2312539
vn 1.0000000 0.0000000 0.0000000
vt 0.7874368 0.7525394
v 1.3130330 0.9386643 0.1229120
vn 1.0000000 0.0000000 0.0000000
vt 0.7984855 0.7525394
v 1.3130330 0.8303225 0.0603608
vn 1.0000000 0.0000000 0.0000000
vt 0.8080541 0.7470140
v 1.3130330 0.8303230 0.5272492
vn 0.0013098 0.2588192 0.9659249
vt 0.7945501 0.7565803
v 1.1052514 0.8978084 0.4935276
vn -0.0525313 0.5396242 0.8402656
vt 0.8002914 0.7749311
v 1.1052514 0.7550183 0.5317882
vn -0.0525311 -0.0471934 0.9975035
vt 0.7879204 0.7749311
v 1.1052511 0.6156450 0.4807744
vn -0.0350172 -0.6274534 0.7778664
vt 0.7794306 0.7749310
v 1.1052514 0.8978084 0.4935276
vn -0.0525313 0.5396242 0.8402656
vt 0.7838501 0.7749310
v 1.3130330 0.8303230 0.5272492
vn 0.0013098 0.2588192 0.9659249
vt 0.7772209 0.7565802
v 1.3130330 0.7052197 0.0603609
vn 0.0013097 -0.2588191 -0.9659249
vt 0.7944618 0.7565803
v 1.1052511 0.6377346 0.0940823
vn -0.0525314 -0.5396230 -0.8402663
vt 0.8002030 0.7749311
v 1.1052514 0.7805246 0.0558218
vn -0.0525312 0.0471942 -0.9975035
vt 0.7878321 0.7749311
v 1.3130330 0.9386643 0.1229120
vn 0.0032884 0.7126868 -0.7014747
vt 0.7993192 0.7565803
v 1.1052514 0.9198973 0.1068357
vn -0.0350174 0.6274537 -0.7778661
vt 0.8012329 0.7749311
v 1.1052514 1.0012156 0.2312539
vn -0.0114377 0.9682910 -0.2495632
vt 0.7882698 0.7749310
v 1.3130330 1.0012156 0.2312539
vn -0.0124162 0.9686159 -0.2482518
vt 0.7882699 0.7565802
v 1.1052514 0.9198973 0.1068357
vn -0.0350174 0.6274537 -0.7778661
vt 0.7794306 0.7749310
v 1.1052511 0.6377346 0.0940823
vn -0.0525314 -0.5396230 -0.8402663
vt 0.7838501 0.7749310
v 1.3130330 0.7052197 0.0603609
vn 0.0013097 -0.2588191 -0.9659249
vt 0.7772209 0.7565802
v 1.3130330 0.9386643 0.1229120
vn 0.0032884 0.7126868 -0.7014747
vt 0.7772209 0.7565802
v 1.3130329 0.5968780 0.4646980
vn 0.0032886 -0.7126863 0.7014752
vt 0.7772209 0.7565802

g group_32749208_105553122441728
f 1/1/1 2/2/2 3/3/3 
f 3/3/3 4/4/4 1/1/1 
f 5/5/5 6/6/6 7/7/7 
f 7/7/7 8/8/8 5/5/5 
f 9/9/9 10/10/10 11/11/11 
f 12/12/12 13/13/13 14/14/14 
f 15/15/15 16/16/16 17/17/17 
f 17/17/17 18/18/18 15/15/15 
f 19/19/19 20/20/20 21/21/21 
f 22/22/22 23/23/23 24/24/24 
f 25/25/25 26/26/26 27/27/27 
f 25/25/25 27/27/27 28/28/28 
f 25/25/25 28/28/28 29/29/29 
f 25/25/25 29/29/29 30/30/30 
f 25/25/25 30/30/30 31/31/31 
f 25/25/25 31/31/31 32/32/32 
f 25/25/25 32/32/32 33/33/33 
f 25/25/25 33/33/33 34/34/34 
f 35/35/35 36/36/36 37/37/37 
f 38/38/38 35/35/35 37/37/37 
f 39/39/39 38/38/38 37/37/37 
f 40/40/40 39/39/39 37/37/37 
f 41/41/41 40/40/40 37/37/37 
f 42/42/42 41/41/41 37/37/37 
f 43/43/43 42/42/42 37/37/37 
f 44/44/44 43/43/43 37/37/37 
f 45/45/45 44/44/44 37/37/37 
f 46/46/46 45/45/45 37/37/37 
f 47/47/47 48/48/48 49/49/49 
f 22/22/22 24/24/24 50/50/50 
f 19/19/19 51/51/51 52/52/52 
f 53/53/53 54/54/54 55/55/55 
f 56/56/56 57/57/57 58/58/58 
f 58/58/58 59/59/59 56/56/56 
f 12/12/12 14/14/14 60/60/60 
f 9/9/9 61/61/61 62/62/62 
f 9/9/9 11/11/11 61/61/61 
f 12/12/12 60/60/60 63/63/63 
f 19/19/19 21/21/21 51/51/51 
f 22/22/22 50/50/50 64/64/64 
