v -1.3251770 2.3420987 0.6043496
vn -0.1315456 -0.4677338 -0.8740257
vt 0.9338897 0.6396278
v -1.0213642 2.3185182 0.5623868
vn -0.1570984 -0.4971195 -0.8533419
vt 0.9592502 0.6395457
v -1.0213646 2.2230408 0.7318524
vn -0.1062333 -0.9941384 -0.0200846
vt 0.9592502 0.6256198
v -1.3251776 2.2483752 0.7348283
vn -0.1111687 -0.9936315 -0.0183845
vt 0.9338898 0.6254145
v -1.3251770 2.4962997 0.6048866
vn -0.1576747 0.4518196 -0.8780648
vt 0.9338897 0.6539214
v -1.0213646 2.5203462 0.5624446
vn -0.1394856 0.4831113 -0.8643768
vt 0.9592501 0.6540192
v -1.3251774 2.4957492 0.8639572
vn -0.1371558 0.4694029 0.8722667
vt 0.9338899 0.5969067
v -1.0213646 2.5201473 0.9072756
vn -0.1606796 0.4952798 0.8537447
vt 0.9592503 0.5968230
v -1.0213646 2.6192560 0.7335862
vn -0.1214494 0.9925333 0.0113004
vt 0.9592505 0.5823909
v -1.3251776 2.5888333 0.7348281
vn -0.1228452 0.9921622 0.0228751
vt 0.9338899 0.5824765
v -1.3251773 2.3413281 0.8644607
vn -0.1541555 -0.4519620 0.8786162
vt 0.9338899 0.6112867
v -1.0213646 2.3212588 0.9071176
vn -0.1306480 -0.4843267 0.8650774
vt 0.9592503 0.6111267
v -1.2724962 2.4187870 0.7348281
vn -0.9999997 0.0007152 -0.0002431
vt 0.7851536 0.6704867
v -1.0871092 2.4179833 0.3182776
vn -0.9136051 0.0000850 -0.4066027
vt 0.7479953 0.6705585
v -1.0871091 2.2134900 0.3803320
vn -0.9110342 -0.2118141 -0.3537676
vt 0.7535311 0.6887994
v -1.0871100 2.7724061 0.5305812
vn -0.9105474 0.3549482 -0.2119320
vt 0.7669339 0.6389425
v -1.0871093 2.6221433 0.3804747
vn -0.9106137 0.2117769 -0.3548708
vt 0.7535441 0.6523465
v -1.0871103 2.7729709 0.9393148
vn -0.9107818 0.3547860 0.2111953
vt 0.8033943 0.6388917
v -1.0871103 2.8343499 0.7348398
vn -0.9132467 0.4074067 -0.0004969
vt 0.7851545 0.6334168
v -1.0871103 2.4177983 1.1517326
vn 1.0000000 0.0000016 0.0000008
vt 0.8223427 0.6705744
v -1.0871091 2.2141557 1.0900964
vn 1.0000000 0.0000098 -0.0000129
vt 0.8168446 0.6887404
v -1.0871096 2.0635750 0.9392289
vn 1.0000000 0.0000011 -0.0000003
vt 0.8033867 0.7021726
v -1.0871097 2.0013940 0.7351127
vn 1.0000000 -0.0000019 0.0000000
vt 0.7851788 0.7077195
v -1.0871096 2.0634565 0.5312206
vn 1.0000000 -0.0000030 0.0000000
vt 0.7669910 0.7021833
v -1.0871091 2.2134900 0.3803320
vn 1.0000000 0.0000001 0.0000009
vt 0.7535311 0.6887994
v -1.0871092 2.4179833 0.3182776
vn 1.0000000 0.0000005 0.0000009
vt 0.7479953 0.6705585
v -1.0871093 2.6221433 0.3804747
vn 1.0000000 0.0000014 0.0000019
vt 0.7535441 0.6523465
v -1.0871100 2.7724061 0.5305812
vn 1.0000000 0.0000017 0.0000017
vt 0.7669339 0.6389425
v -1.0871103 2.8343499 0.7348398
vn 1.0000000 0.0000011 0.0000006
vt 0.7851545 0.6334168
v -1.0871103 2.7729709 0.9393148
vn 1.0000000 0.0000010 0.0000005
vt 0.8033943 0.6388917
v -1.0871103 2.6226768 1.0894850
vn 1.0000000 0.0000009 0.0000013
vt 0.8167903 0.6522987
v -1.3294959 2.1053889 0.5547659
vn -1.0000000 0.0000093 0.0000026
vt 0.8354164 0.7388815
v -1.3294959 2.0509109 0.7348283
vn -1.0000000 0.0000000 0.0000000
vt 0.8516695 0.7436008
v -1.3294959 2.1053889 0.9151839
vn -1.0000000 0.0000029 0.0000079
vt 0.8672488 0.7388815
v -1.3294911 2.2368529 1.0467870
vn -1.0000000 -0.0000028 0.0000225
vt 0.8788720 0.7272708
v -1.3294959 2.4180667 1.1021303
vn -1.0000000 -0.0000131 -0.0000433
vt 0.8837599 0.7112657
v -1.3294959 2.5982759 1.0476526
vn -1.0000000 -0.0000132 -0.0000165
vt 0.8789485 0.6953498
v -1.3294959 2.7307446 0.9151837
vn -1.0000000 0.0000079 -0.0000038
vt 0.8672488 0.6836500
v -1.3294890 2.7850158 0.7349703
vn -1.0000000 0.0001274 0.0000000
vt 0.8513323 0.6788567
v -1.3294959 2.7307446 0.5547656
vn -1.0000000 -0.0000181 0.0000000
vt 0.8354164 0.6836500
v -1.3294911 2.5988390 0.4228380
vn -1.0000000 -0.0000025 0.0000023
vt 0.8237646 0.6953000
v -1.3294959 2.4180667 0.3678189
vn -1.0000000 0.0000131 0.0000435
vt 0.8189051 0.7112657
v -1.3294959 2.2378576 0.4222968
vn -1.0000000 0.0000132 0.0000166
vt 0.8238752 0.7274005
v -1.3294959 2.1053889 0.9151839
vn -0.0000582 -0.8582092 0.5133001
vt 0.9181807 0.7272435
v -1.3294959 2.0509109 0.7348283
vn 0.0000000 -1.0000000 -0.0002253
vt 0.9181806 0.7103790
v -1.2947406 2.0509109 0.7348283
vn 0.0000000 -1.0000000 -0.0002254
vt 0.9151113 0.7103769
v -1.2947406 2.1053889 0.9151839
vn 0.0000000 -0.8582137 0.5132927
vt 0.9151113 0.7272435
v -1.2947406 2.2365177 1.0464985
vn 0.0018759 -0.5168491 0.8560745
vt 0.9151113 0.7441192
v -1.3294911 2.2368529 1.0467870
vn 0.0021705 -0.5134764 0.8581010
vt 0.9181807 0.7441192
v -1.3294959 2.5982759 1.0476526
vn 0.0000000 0.5136929 0.8579742
vt 0.9181807 0.7272435
v -1.3294959 2.4180667 1.1021303
vn 0.0003085 -0.0018314 0.9999983
vt 0.9181806 0.7103790
v -1.2947406 2.4180667 1.1021303
vn 0.0000000 -0.0018880 0.9999983
vt 0.9151113 0.7103769
v -1.2947406 2.5982759 1.0476526
vn 0.0000000 0.5136927 0.8579743
vt 0.9151113 0.7272435
v -1.2947407 2.7307446 0.9151837
vn 0.0000453 0.8582500 0.5132319
vt 0.9151113 0.7441192
v -1.3294959 2.7307446 0.9151837
vn 0.0000000 0.8582443 0.5132414
vt 0.9181807 0.7441192
v -1.3294959 2.7307446 0.5547656
vn 0.0000596 0.8583178 -0.5131185
vt 0.9181807 0.7272435
v -1.3294890 2.7850158 0.7349703
vn 0.0011495 0.9575183 -0.2883703
vt 0.9181806 0.7103790
v -1.2947407 2.7849813 0.7349941
vn 0.0010158 0.9575256 -0.2883467
vt 0.9151113 0.7103769
v -1.2947406 2.7307446 0.5547656
vn 0.0000000 0.8583254 -0.5131058
vt 0.9151113 0.7272435
v -1.2947406 2.5990269 0.4230184
vn 0.0014683 0.5155340 -0.8568679
vt 0.9151113 0.7441192
v -1.3294911 2.5988390 0.4228380
vn 0.0016777 0.5135664 -0.8580482
vt 0.9181807 0.7441192
v -1.3294959 2.2378576 0.4222968
vn 0.0000000 -0.5136936 -0.8579738
vt 0.9181807 0.7272435
v -1.3294959 2.4180667 0.3678189
vn 0.0002050 0.0012125 -0.9999993
vt 0.9181806 0.7103790
v -1.2947406 2.4180667 0.3678189
vn 0.0000000 0.0012510 -0.9999992
vt 0.9151113 0.7103769
v -1.2947406 2.2378576 0.4222968
vn 0.0000000 -0.5136936 -0.8579738
vt 0.9151113 0.7272435
v -1.2947406 2.1053889 0.5547659
vn 0.0000000 -0.8579165 -0.5137892
vt 0.9151113 0.7441192
v -1.3294959 2.1053889 0.5547659
vn 0.0000000 -0.8579165 -0.5137892
vt 0.9181807 0.7441192
v -1.3294816 2.4512684 1.0836045
vn -1.0000000 0.0000000 0.0000000
vt 0.8831339 0.7082362
v -1.3294816 2.3848526 1.0836045
vn -1.0000000 0.0000000 0.0000000
vt 0.8831339 0.7142954
v -1.3294816 2.4380739 1.1463317
vn -1.0000000 0.0000000 0.0000000
vt 0.8876638 0.7094989
v -1.3294816 2.3980572 1.1463317
vn -1.0000000 0.0000000 0.0000000
vt 0.8876638 0.7130327
v -1.3294816 2.5709062 1.1174066
vn -1.0000000 0.0000000 0.0000000
vt 0.8851095 0.6977667
v -1.3294816 2.5630212 1.0565586
vn -1.0000000 0.0000000 0.0000000
vt 0.8806664 0.6980415
v -1.3294816 2.5330703 1.1304348
vn -1.0000000 0.0000000 0.0000000
vt 0.8862597 0.7011091
v -1.3294816 2.5006189 1.0735618
vn -1.0000000 0.0000000 0.0000000
vt 0.8822179 0.7037340
v -1.3294816 2.6870847 1.0468116
vn -1.0000000 -0.0000049 -0.0000063
vt 0.8788745 0.6875058
v -1.3294811 2.6587481 0.9930496
vn -1.0000000 0.0000014 -0.0000060
vt 0.8748730 0.6893084
v -1.3294816 2.6555519 1.0714480
vn -1.0000000 0.0000001 -0.0000061
vt 0.8810497 0.6902911
v -1.3294816 2.6048958 1.0292459
vn -1.0000000 0.0000049 -0.0000059
vt 0.8781751 0.6942210
v -1.3294816 2.7739511 0.9422383
vn -1.0000000 0.0000000 0.0000000
vt 0.8696381 0.6798338
v -1.3294816 2.7285209 0.8973409
vn -1.0000000 0.0000000 0.0000000
vt 0.8661417 0.6829436
v -1.3294816 2.7521563 0.9757987
vn -1.0000000 0.0000000 0.0000000
vt 0.8726021 0.6817590
v -1.3294816 2.6920283 0.9519162
vn -1.0000000 0.0000000 0.0000000
vt 0.8711207 0.6862727
v -1.3294820 2.7626987 0.7869818
vn -1.0000000 -0.0000073 -0.0000015
vt 0.8560740 0.6798255
v -1.3294820 2.7499046 0.8514118
vn -1.0000000 -0.0000074 -0.0000016
vt 0.8619519 0.6809921
v -1.3294824 2.8220379 0.8150817
vn -1.0000000 -0.0000074 -0.0000017
vt 0.8584076 0.6755869
v -1.3294824 2.8123574 0.8539092
vn -1.0000000 -0.0000076 -0.0000019
vt 0.8618369 0.6764417
v -1.3294824 2.7857146 0.5493907
vn -1.0000000 -0.0000069 0.0000031
vt 0.8349417 0.6787947
v -1.3294820 2.7227998 0.5639838
vn -1.0000000 -0.0000069 0.0000032
vt 0.8357307 0.6834651
v -1.3294824 2.8019910 0.5859471
vn -1.0000000 -0.0000069 0.0000032
vt 0.8381700 0.6773577
v -1.3294820 2.7509563 0.6240519
vn -1.0000000 -0.0000069 0.0000032
vt 0.8412102 0.6808966
v -1.3294816 2.7052627 0.4398069
vn -1.0000000 0.0000000 0.0000000
vt 0.8252635 0.6859007
v -1.3294816 2.6517150 0.4722050
vn -1.0000000 0.0000000 0.0000000
vt 0.8273579 0.6899499
v -1.3294816 2.7325540 0.4690728
vn -1.0000000 0.0000000 0.0000000
vt 0.8278480 0.6834899
v -1.3294816 2.6947563 0.5222572
vn -1.0000000 0.0000000 0.0000000
vt 0.8319237 0.6860236
v -1.3294816 2.4626524 0.3255643
vn -1.0000000 0.0000000 0.0000000
vt 0.8151734 0.7073278
v -1.3294816 2.4401031 0.3842245
vn -1.0000000 0.0000000 0.0000000
vt 0.8193314 0.7092553
v -1.3294816 2.5021760 0.3318241
vn -1.0000000 0.0000000 0.0000000
vt 0.8157258 0.7038370
v -1.3294816 2.5049393 0.3972230
vn -1.0000000 0.0000000 0.0000000
vt 0.8205174 0.7033400
v -1.3294816 2.3253269 0.3984096
vn -1.0000000 0.0000000 0.0000000
vt 0.8206254 0.7197257
v -1.3294816 2.3896363 0.3857041
vn -1.0000000 0.0000000 0.0000000
vt 0.8194666 0.7138592
v -1.3294816 2.3269310 0.3333536
vn -1.0000000 0.0000000 0.0000000
vt 0.8158609 0.7193150
v -1.3294816 2.3663390 0.3264049
vn -1.0000000 0.0000000 0.0000000
vt 0.8152475 0.7158341
v -1.3294816 2.2208941 0.4478768
vn -1.0000000 0.0000000 0.0000000
vt 0.8251381 0.7292528
v -1.3294816 2.2748435 0.4118164
vn -1.0000000 0.0000000 0.0000000
vt 0.8216112 0.7240031
v -1.3294816 2.2011390 0.3849053
vn -1.0000000 0.0000000 0.0000000
vt 0.8204144 0.7304246
v -1.3294816 2.2361376 0.3655050
vn -1.0000000 0.0000000 0.0000000
vt 0.8187011 0.7273343
v -1.3294816 2.1383634 0.5269515
vn -1.0000000 0.0000000 0.0000000
vt 0.8323519 0.7367816
v -1.3294816 2.1788092 0.4759109
vn -1.0000000 -0.0000002 0.0000099
vt 0.8276955 0.7330924
v -1.3294816 2.0989842 0.4746023
vn -1.0000000 -0.0000002 0.0000134
vt 0.8283363 0.7394472
v -1.3294824 2.1257601 0.4448645
vn -1.0000000 -0.0000005 0.0000277
vt 0.8257098 0.7370824
v -1.3294816 2.0837777 0.6301327
vn -1.0000000 0.0000000 0.0000000
vt 0.8417652 0.7417617
v -1.3294816 2.1099696 0.5692636
vn -1.0000000 0.0000000 0.0000000
vt 0.8362121 0.7393724
v -1.3294816 2.0315971 0.5926708
vn -1.0000000 0.0000000 0.0000000
vt 0.8387640 0.7453990
v -1.3294816 2.0472326 0.5558359
vn -1.0000000 0.0000000 0.0000000
vt 0.8355110 0.7440179
v -1.3294816 2.0063210 0.7262458
vn -1.0000000 0.0000000 0.0000000
vt 0.8505615 0.7476314
v -1.3294816 2.0646255 0.7425333
vn -1.0000000 0.0000000 0.0000000
vt 0.8516695 0.7436008
v -1.3294816 2.0091124 0.6863272
vn -1.0000000 0.0000000 0.0000000
vt 0.8470356 0.7473852
v -1.3294816 2.0743694 0.6780825
vn -1.0000000 0.0000000 0.0000000
vt 0.8461394 0.7426203
v -1.3294816 2.0259094 0.8607726
vn -1.0000000 0.0000000 0.0000000
vt 0.8624433 0.7459015
v -1.3294816 2.0873435 0.8570295
vn -1.0000000 0.0000000 0.0000000
vt 0.8624644 0.7414360
v -1.3294816 2.0155525 0.8221202
vn -1.0000000 0.0000000 0.0000000
vt 0.8590294 0.7468161
v -1.3294816 2.0747468 0.7928734
vn -1.0000000 0.0000000 0.0000000
vt 0.8566114 0.7425851
v -1.3294816 2.0882285 0.9815930
vn -1.0000000 0.0000000 0.0000000
vt 0.8731140 0.7403970
v -1.3294816 2.1474071 0.9573094
vn -1.0000000 0.0000000 0.0000000
vt 0.8716127 0.7359570
v -1.3294816 2.0658517 0.9484180
vn -1.0000000 0.0000000 0.0000000
vt 0.8701839 0.7423732
v -1.3294816 2.1110184 0.9024161
vn -1.0000000 0.0000000 0.0000000
vt 0.8666047 0.7392766
v -1.3294816 2.2352827 1.0318809
vn -1.0000000 0.0000000 0.0000000
vt 0.8784153 0.7279400
v -1.3294816 2.1810176 0.9956319
vn -1.0000000 0.0000000 0.0000000
vt 0.8751081 0.7328909
v -1.3294816 2.1864877 1.0755415
vn -1.0000000 0.0000000 0.0000000
vt 0.8814117 0.7317190
v -1.3294816 2.1545291 1.0514596
vn -1.0000000 0.0000000 0.0000000
vt 0.8792850 0.7345414
v -1.0871091 2.2141557 1.0900964
vn -0.9111589 -0.2111711 0.3538310
vt 0.8168446 0.6887404
v -1.0871103 2.4177983 1.1517326
vn -0.9137342 0.0000529 0.4063126
vt 0.8223427 0.6705744
v -1.0871097 2.0013940 0.7351127
vn -0.9139102 -0.4059164 0.0000772
vt 0.7851788 0.7077195
v -1.0871096 2.0635750 0.9392289
vn -0.9110966 -0.3539665 0.2112126
vt 0.8033867 0.7021726
v -1.3294820 2.7604449 0.6716617
vn -1.0000000 0.0000056 -0.0001122
vt 0.8455537 0.6800307
v -1.3294890 2.7733181 0.7350050
vn -1.0000000 0.0000444 -0.0000755
vt 0.8513323 0.6788567
v -1.3294824 2.8261068 0.6791968
vn -1.0000000 0.0000571 -0.0000634
vt 0.8464062 0.6752277
v -1.3294824 2.8295944 0.7190605
vn -1.0000000 0.0001137 -0.0000099
vt 0.8499270 0.6749199
v -1.3294816 2.5935161 0.3623860
vn -1.0000000 0.0000580 -0.0001091
vt 0.8184255 0.6957701
v -1.3294888 2.5549066 0.4073957
vn -1.0000000 0.0000905 -0.0000175
vt 0.8214453 0.6987818
v -1.3294816 2.6288486 0.3811723
vn -1.0000000 0.0000848 -0.0000336
vt 0.8200843 0.6926497
v -1.3294816 2.6093462 0.4439553
vn -1.0000000 0.0001087 0.0000338
vt 0.8247805 0.6938154
v -1.3294816 2.3418026 1.0749958
vn -1.0000000 0.0001058 0.0000524
vt 0.8823487 0.7182229
v -1.3294888 2.2805741 1.0621517
vn -1.0000000 0.0000546 0.0000739
vt 0.8811769 0.7238086
v -1.3294820 2.3099799 1.1323817
vn -1.0000000 0.0000364 0.0000815
vt 0.8864319 0.7208117
v -1.3294820 2.2719223 1.1200160
vn -1.0000000 -0.0000364 0.0001120
vt 0.8853395 0.7241737
v -1.3294911 2.2368529 1.0467870
vn 0.0021705 -0.5134764 0.8581010
vt 0.9181568 0.6939301
v -1.2947406 2.2365177 1.0464985
vn 0.0018759 -0.5168491 0.8560745
vt 0.9150873 0.6939488
v -1.3294890 2.7850158 0.7349703
vn 0.0006680 0.9575581 0.2882396
vt 0.9181806 0.7103790
v -1.3294959 2.7307446 0.9151837
vn 0.0000000 0.8582443 0.5132414
vt 0.9181709 0.6938324
v -1.2947407 2.7307446 0.9151837
vn 0.0000453 0.8582500 0.5132319
vt 0.9151015 0.6938343
v -1.2947407 2.7849813 0.7349941
vn 0.0007559 0.9575627 0.2882240
vt 0.9151113 0.7103769
v -1.3294911 2.5988390 0.4228380
vn 0.0016777 0.5135664 -0.8580482
vt 0.9181617 0.6938868
v -1.2947406 2.5990269 0.4230184
vn 0.0014683 0.5155340 -0.8568679
vt 0.9150921 0.6938983
v -1.3294959 2.1053889 0.5547659
vn 0.0000000 -0.8579165 -0.5137892
vt 0.9181709 0.6938273
v -1.2947406 2.1053889 0.5547659
vn 0.0000000 -0.8579165 -0.5137892
vt 0.9151015 0.6938292
v -1.0871103 2.6226768 1.0894850
vn -0.9108180 0.2114771 0.3545252
vt 0.8167903 0.6522987
v -1.0871096 2.0634565 0.5312206
vn -0.9109844 -0.3544202 -0.2109355
vt 0.7669910 0.7021833
v -1.3251776 2.5888333 0.7348281
vn -0.1228452 0.9921622 0.0228751
vt 0.9338897 0.6683509
v -1.0213646 2.6192560 0.7335862
vn -0.1214494 0.9925333 0.0113004
vt 0.9592501 0.6682652

g group_32744672_105553122434816
f 1/1/1 2/2/2 3/3/3 
f 3/3/3 4/4/4 1/1/1 
f 5/5/5 6/6/6 2/2/2 
f 2/2/2 1/1/1 5/5/5 
f 7/7/7 8/8/8 9/9/9 
f 9/9/9 10/10/10 7/7/7 
f 11/11/11 12/12/12 8/8/8 
f 8/8/8 7/7/7 11/11/11 
f 13/13/13 14/14/14 15/15/15 
f 13/13/13 16/16/16 17/17/17 
f 13/13/13 18/18/18 19/19/19 
f 20/20/20 21/21/21 22/22/22 
f 22/22/22 23/23/23 24/24/24 
f 22/22/22 24/24/24 25/25/25 
f 22/22/22 25/25/25 26/26/26 
f 22/22/22 26/26/26 27/27/27 
f 22/22/22 27/27/27 28/28/28 
f 22/22/22 28/28/28 29/29/29 
f 22/22/22 29/29/29 30/30/30 
f 22/22/22 30/30/30 31/31/31 
f 20/20/20 22/22/22 31/31/31 
f 32/32/32 33/33/33 34/34/34 
f 35/35/35 36/36/36 37/37/37 
f 35/35/35 37/37/37 38/38/38 
f 34/34/34 35/35/35 38/38/38 
f 38/38/38 39/39/39 40/40/40 
f 38/38/38 40/40/40 41/41/41 
f 34/34/34 38/38/38 41/41/41 
f 32/32/32 34/34/34 41/41/41 
f 41/41/41 42/42/42 43/43/43 
f 32/32/32 41/41/41 43/43/43 
f 44/44/44 45/45/45 46/46/46 
f 46/46/46 47/47/47 44/44/44 
f 48/48/48 49/49/49 44/44/44 
f 44/44/44 47/47/47 48/48/48 
f 50/50/50 51/51/51 52/52/52 
f 52/52/52 53/53/53 50/50/50 
f 53/53/53 54/54/54 55/55/55 
f 55/55/55 50/50/50 53/53/53 
f 56/56/56 57/57/57 58/58/58 
f 58/58/58 59/59/59 56/56/56 
f 60/60/60 61/61/61 56/56/56 
f 56/56/56 59/59/59 60/60/60 
f 62/62/62 63/63/63 64/64/64 
f 64/64/64 65/65/65 62/62/62 
f 65/65/65 66/66/66 67/67/67 
f 67/67/67 62/62/62 65/65/65 
f 68/68/68 69/69/69 70/70/70 
f 69/69/69 71/71/71 70/70/70 
f 72/72/72 73/73/73 74/74/74 
f 73/73/73 75/75/75 74/74/74 
f 76/76/76 77/77/77 78/78/78 
f 77/77/77 79/79/79 78/78/78 
f 80/80/80 81/81/81 82/82/82 
f 81/81/81 83/83/83 82/82/82 
f 84/84/84 85/85/85 86/86/86 
f 85/85/85 87/87/87 86/86/86 
f 88/88/88 89/89/89 90/90/90 
f 89/89/89 91/91/91 90/90/90 
f 92/92/92 93/93/93 94/94/94 
f 93/93/93 95/95/95 94/94/94 
f 96/96/96 97/97/97 98/98/98 
f 97/97/97 99/99/99 98/98/98 
f 100/100/100 101/101/101 102/102/102 
f 101/101/101 103/103/103 102/102/102 
f 104/104/104 105/105/105 106/106/106 
f 105/105/105 107/107/107 106/106/106 
f 108/108/108 109/109/109 110/110/110 
f 109/109/109 111/111/111 110/110/110 
f 112/112/112 113/113/113 114/114/114 
f 113/113/113 115/115/115 114/114/114 
f 116/116/116 117/117/117 118/118/118 
f 117/117/117 119/119/119 118/118/118 
f 120/120/120 121/121/121 122/122/122 
f 121/121/121 123/123/123 122/122/122 
f 124/124/124 125/125/125 126/126/126 
f 125/125/125 127/127/127 126/126/126 
f 128/128/128 129/129/129 130/130/130 
f 129/129/129 131/131/131 130/130/130 
f 132/132/132 133/133/133 13/13/13 
f 13/13/13 134/134/134 135/135/135 
f 136/136/136 137/137/137 138/138/138 
f 137/137/137 139/139/139 138/138/138 
f 140/140/140 141/141/141 142/142/142 
f 141/141/141 143/143/143 142/142/142 
f 144/144/144 145/145/145 146/146/146 
f 145/145/145 147/147/147 146/146/146 
f 51/51/51 148/148/148 149/149/149 
f 149/149/149 52/52/52 51/51/51 
f 150/150/150 151/151/151 152/152/152 
f 152/152/152 153/153/153 150/150/150 
f 63/63/63 154/154/154 155/155/155 
f 155/155/155 64/64/64 63/63/63 
f 156/156/156 157/157/157 46/46/46 
f 46/46/46 45/45/45 156/156/156 
f 132/132/132 13/13/13 135/135/135 
f 158/158/158 13/13/13 133/133/133 
f 18/18/18 13/13/13 158/158/158 
f 16/16/16 13/13/13 19/19/19 
f 13/13/13 17/17/17 14/14/14 
f 13/13/13 15/15/15 159/159/159 
f 13/13/13 159/159/159 134/134/134 
f 4/4/4 3/3/3 12/12/12 
f 12/12/12 11/11/11 4/4/4 
f 160/160/160 161/161/161 6/6/6 
f 6/6/6 5/5/5 160/160/160 
