v -1.1092830 -1.5345480 0.7415333
vn 0.0000221 0.5188354 0.8548742
vt 0.3715653 0.6472006
v -1.1092820 -1.3979820 0.5988464
vn 0.0000074 0.8767837 0.4808849
vt 0.3897616 0.6472006
v -1.2848890 -1.5345399 0.7415333
vn 0.0000147 0.5188496 0.8548655
vt 0.3715653 0.6274961
v -1.2848800 -1.3979820 0.5988464
vn 0.0000000 0.8767852 0.4808823
vt 0.3897616 0.6274961
v -1.1092830 -1.3510609 0.4069939
vn 0.0000000 0.9997600 -0.0219113
vt 0.4080908 0.6472006
v -1.2848821 -1.3510609 0.4069939
vn 0.0000000 0.9997599 -0.0219146
vt 0.4080908 0.6274961
v -1.1092850 -1.4063429 0.2173786
vn 0.0000000 0.8548713 -0.5188400
vt 0.4264200 0.6472006
v -1.2848840 -1.4063429 0.2173786
vn 0.0000071 0.8548745 -0.5188348
vt 0.4264200 0.6274961
v -1.1092830 -1.5490280 0.0808105
vn 0.0000134 0.4809215 -0.8767637
vt 0.4447492 0.6472006
v -1.2848821 -1.5490210 0.0808105
vn 0.0000205 0.4809390 -0.8767540
vt 0.4447492 0.6274961
v -1.1092870 -1.7408770 0.0338802
vn -0.0000009 -0.0218948 -0.9997603
vt 0.4630784 0.6472006
v -1.2848779 -1.7408700 0.0338802
vn -0.0000009 -0.0218807 -0.9997606
vt 0.4630784 0.6274961
v -1.1092830 -1.9304980 0.0891647
vn -0.0000221 -0.5188494 -0.8548657
vt 0.4813170 0.6472006
v -1.2848821 -1.9304910 0.0891647
vn -0.0000222 -0.5188406 -0.8548710
vt 0.4813170 0.6274961
v -1.1092830 -1.9304980 0.0891647
vn -0.0000221 -0.5188494 -0.8548657
vt 0.3715653 0.6471894
v -1.1092850 -2.0670640 0.2318497
vn -0.0000379 -0.8767803 -0.4808912
vt 0.3898573 0.6471894
v -1.2848821 -1.9304910 0.0891647
vn -0.0000222 -0.5188406 -0.8548710
vt 0.3715653 0.6274961
v -1.2848840 -2.0670569 0.2318497
vn -0.0000381 -0.8767771 -0.4808971
vt 0.3898573 0.6274961
v -1.1092830 -2.1139848 0.4237022
vn -0.0000434 -0.9997599 0.0219157
vt 0.4081493 0.6471894
v -1.2848821 -2.1139770 0.4237022
vn -0.0000434 -0.9997599 0.0219127
vt 0.4081493 0.6274961
v -1.1092820 -2.0587020 0.6133156
vn -0.0000371 -0.8548726 0.5188380
vt 0.4264412 0.6471894
v -1.2848800 -2.0586951 0.6133156
vn -0.0000370 -0.8548672 0.5188470
vt 0.4264412 0.6274961
v -1.1092830 -1.9160169 0.7498837
vn -0.0000206 -0.4809276 0.8767602
vt 0.4447332 0.6471894
v -1.2848890 -1.9160099 0.7498837
vn -0.0000205 -0.4809155 0.8767670
vt 0.4447332 0.6274961
v -1.1092870 -1.7241690 0.7968140
vn 0.0000009 0.0218714 0.9997608
vt 0.4630251 0.6471894
v -1.2848779 -1.7241610 0.7968140
vn 0.0000009 0.0218855 0.9997604
vt 0.4630251 0.6274961
v -1.1092830 -1.5345480 0.7415333
vn 0.0000221 0.5188354 0.8548742
vt 0.4813170 0.6471894
v -1.2848890 -1.5345399 0.7415333
vn 0.0000147 0.5188496 0.8548655
vt 0.4813170 0.6274961
v -1.1092830 -1.9160169 0.7498837
vn 1.0000000 0.0000221 -0.0000091
vt 0.4292312 0.8332804
v -1.1092820 -2.0587020 0.6133156
vn 1.0000000 0.0000264 -0.0000170
vt 0.4166270 0.8458847
v -1.1092870 -1.7241690 0.7968140
vn 1.0000000 -0.0000056 0.0000165
vt 0.4338446 0.8160629
v -1.1092830 -2.1139848 0.4237022
vn 1.0000000 0.0000074 -0.0000073
vt 0.3994095 0.8504980
v -1.1092830 -1.5345480 0.7415333
vn 1.0000000 -0.0000077 0.0000034
vt 0.4292312 0.7988451
v -1.1092850 -2.0670640 0.2318497
vn 1.0000000 -0.0000032 -0.0000004
vt 0.3821919 0.8458847
v -1.1092830 -1.9304980 0.0891647
vn 1.0000000 0.0000043 -0.0000026
vt 0.3695876 0.8332804
v -1.1092870 -1.7408770 0.0338802
vn 1.0000000 0.0000023 -0.0000060
vt 0.3649742 0.8160629
v -1.1092830 -1.5490280 0.0808105
vn 1.0000000 -0.0000099 0.0000002
vt 0.3695876 0.7988451
v -1.1092850 -1.4063429 0.2173786
vn 1.0000000 0.0000085 -0.0000016
vt 0.3821919 0.7862409
v -1.1092830 -1.3510609 0.4069939
vn 1.0000000 -0.0000140 -0.0000077
vt 0.3994095 0.7816275
v -1.1092820 -1.3979820 0.5988464
vn 1.0000000 -0.0000327 -0.0000179
vt 0.4166270 0.7862409
v -1.2848779 -1.7241610 0.7968140
vn -0.9999999 0.0000049 0.0002238
vt 0.1397230 0.5556316
v -1.2848890 -1.5345399 0.7415333
vn -1.0000000 -0.0000009 -0.0000396
vt 0.1344708 0.5752330
v -1.2848890 -1.9160099 0.7498837
vn -1.0000000 -0.0000136 -0.0000059
vt 0.1344708 0.5360304
v -1.2848800 -1.3979820 0.5988464
vn -1.0000000 0.0000183 -0.0000009
vt 0.1201217 0.5895824
v -1.2848821 -1.3510609 0.4069939
vn -1.0000000 0.0000188 0.0000087
vt 0.1005203 0.5948344
v -1.2848840 -1.4063429 0.2173786
vn -1.0000000 -0.0000008 -0.0000042
vt 0.0809189 0.5895824
v -1.2848800 -2.0586951 0.6133156
vn -1.0000000 -0.0000137 -0.0000165
vt 0.1201217 0.5216811
v -1.2848821 -1.5490210 0.0808105
vn -1.0000000 -0.0000092 -0.0000091
vt 0.0665697 0.5752330
v -1.2848821 -2.1139770 0.4237022
vn -1.0000000 0.0000082 0.0000071
vt 0.1005203 0.5164289
v -1.2848779 -1.7408700 0.0338802
vn -1.0000000 -0.0000065 -0.0000161
vt 0.0613175 0.5556316
v -1.2848821 -1.9304910 0.0891647
vn -1.0000000 0.0000250 0.0000137
vt 0.0665697 0.5360304
v -1.2848840 -2.0670569 0.2318497
vn -1.0000000 0.0000340 0.0000187
vt 0.0809189 0.5216811

g group_67_106102876206336
f 1/1/1 2/2/2 3/3/3 
f 3/3/3 2/2/2 4/4/4 
f 2/2/2 5/5/5 4/4/4 
f 4/4/4 5/5/5 6/6/6 
f 5/5/5 7/7/7 6/6/6 
f 6/6/6 7/7/7 8/8/8 
f 7/7/7 9/9/9 8/8/8 
f 8/8/8 9/9/9 10/10/10 
f 9/9/9 11/11/11 10/10/10 
f 10/10/10 11/11/11 12/12/12 
f 11/11/11 13/13/13 12/12/12 
f 12/12/12 13/13/13 14/14/14 
f 15/15/15 16/16/16 17/17/17 
f 17/17/17 16/16/16 18/18/18 
f 16/16/16 19/19/19 18/18/18 
f 18/18/18 19/19/19 20/20/20 
f 19/19/19 21/21/21 20/20/20 
f 20/20/20 21/21/21 22/22/22 
f 21/21/21 23/23/23 22/22/22 
f 22/22/22 23/23/23 24/24/24 
f 23/23/23 25/25/25 24/24/24 
f 24/24/24 25/25/25 26/26/26 
f 25/25/25 27/27/27 26/26/26 
f 26/26/26 27/27/27 28/28/28 
f 29/29/29 30/30/30 31/31/31 
f 30/30/30 32/32/32 31/31/31 
f 31/31/31 32/32/32 33/33/33 
f 32/32/32 34/34/34 33/33/33 
f 34/34/34 35/35/35 33/33/33 
f 35/35/35 36/36/36 33/33/33 
f 36/36/36 37/37/37 33/33/33 
f 37/37/37 38/38/38 33/33/33 
f 38/38/38 39/39/39 33/33/33 
f 39/39/39 40/40/40 33/33/33 
f 41/41/41 42/42/42 43/43/43 
f 42/42/42 44/44/44 43/43/43 
f 44/44/44 45/45/45 43/43/43 
f 45/45/45 46/46/46 43/43/43 
f 43/43/43 46/46/46 47/47/47 
f 46/46/46 48/48/48 47/47/47 
f 47/47/47 48/48/48 49/49/49 
f 48/48/48 50/50/50 49/49/49 
f 50/50/50 51/51/51 49/49/49 
f 51/51/51 52/52/52 49/49/49 
