v 1.1096340 -0.7239227 0.7415314
vn 0.0000000 0.5188383 0.8548725
vt 0.3715653 0.6472006
v 1.2852330 -0.7239227 0.7415314
vn 0.0000000 0.5188383 0.8548725
vt 0.3715653 0.6274961
v 1.1096340 -0.5873528 0.5988464
vn 0.0000000 0.8767663 0.4809167
vt 0.3897616 0.6472006
v 1.2852330 -0.5873528 0.5988464
vn 0.0000000 0.8767663 0.4809167
vt 0.3897616 0.6274961
v 1.1096340 -0.5404243 0.4069939
vn 0.0000000 0.9997603 -0.0218928
vt 0.4080908 0.6472006
v 1.2852330 -0.5404243 0.4069939
vn 0.0000000 0.9997603 -0.0218928
vt 0.4080908 0.6274961
v 1.1096340 -0.5957069 0.2173767
vn 0.0000000 0.8548668 -0.5188475
vt 0.4264200 0.6472006
v 1.2852330 -0.5957069 0.2173767
vn 0.0000000 0.8548668 -0.5188475
vt 0.4264200 0.6274961
v 1.1096340 -0.7383957 0.0808105
vn 0.0000000 0.4809069 -0.8767716
vt 0.4447492 0.6472006
v 1.2852330 -0.7383957 0.0808105
vn 0.0000000 0.4809069 -0.8767716
vt 0.4447492 0.6274961
v 1.1096340 -0.9302443 0.0338821
vn 0.0000000 -0.0218932 -0.9997603
vt 0.4630784 0.6472006
v 1.2852330 -0.9302443 0.0338821
vn 0.0000000 -0.0218931 -0.9997603
vt 0.4630784 0.6274961
v 1.1096340 -1.1198580 0.0891647
vn 0.0000000 -0.5188441 -0.8548689
vt 0.4813170 0.6472006
v 1.2852330 -1.1198580 0.0891647
vn 0.0000000 -0.5188441 -0.8548689
vt 0.4813170 0.6274961
v 1.1096340 -1.1198580 0.0891647
vn 0.0000000 -0.5188441 -0.8548689
vt 0.3715653 0.6471894
v 1.2852330 -1.1198580 0.0891647
vn 0.0000000 -0.5188441 -0.8548689
vt 0.3715653 0.6274961
v 1.1096340 -1.2564240 0.2318497
vn 0.0000000 -0.8767616 -0.4809252
vt 0.3898573 0.6471894
v 1.2852330 -1.2564240 0.2318497
vn 0.0000000 -0.8767616 -0.4809252
vt 0.3898573 0.6274961
v 1.1096340 -1.3033600 0.4237061
vn 0.0000000 -0.9997600 0.0219030
vt 0.4081493 0.6471894
v 1.2852330 -1.3033600 0.4237061
vn 0.0000000 -0.9997600 0.0219029
vt 0.4081493 0.6274961
v 1.1096340 -1.2480700 0.6133118
vn 0.0000000 -0.8548706 0.5188414
vt 0.4264412 0.6471894
v 1.2852330 -1.2480700 0.6133118
vn 0.0000000 -0.8548706 0.5188414
vt 0.4264412 0.6274961
v 1.1096340 -1.1053920 0.7498856
vn 0.0000000 -0.4809327 0.8767575
vt 0.4447332 0.6471894
v 1.2852330 -1.1053920 0.7498856
vn 0.0000000 -0.4809326 0.8767576
vt 0.4447332 0.6274961
v 1.1096340 -0.9135361 0.7968140
vn 0.0000000 0.0218977 0.9997602
vt 0.4630251 0.6471894
v 1.2852330 -0.9135361 0.7968140
vn 0.0000000 0.0218977 0.9997602
vt 0.4630251 0.6274961
v 1.1096340 -0.7239227 0.7415314
vn 0.0000000 0.5188383 0.8548725
vt 0.4813170 0.6471894
v 1.2852330 -0.7239227 0.7415314
vn 0.0000000 0.5188383 0.8548725
vt 0.4813170 0.6274961
v 1.1096340 -1.1053920 0.7498856
vn -1.0000000 0.0000000 0.0000000
vt 0.4292312 0.8332804
v 1.1096340 -0.9135361 0.7968140
vn -1.0000000 0.0000000 0.0000000
vt 0.4338446 0.8160629
v 1.1096340 -1.2480700 0.6133118
vn -1.0000000 0.0000000 0.0000000
vt 0.4166270 0.8458847
v 1.1096340 -0.7239227 0.7415314
vn -1.0000000 0.0000000 0.0000000
vt 0.4292312 0.7988451
v 1.1096340 -0.5873528 0.5988464
vn -1.0000000 0.0000000 0.0000000
vt 0.4166270 0.7862409
v 1.1096340 -0.5404243 0.4069939
vn -1.0000000 0.0000000 0.0000000
vt 0.3994095 0.7816275
v 1.1096340 -0.5957069 0.2173767
vn -1.0000000 0.0000000 0.0000000
vt 0.3821919 0.7862409
v 1.1096340 -0.7383957 0.0808105
vn -1.0000000 0.0000000 0.0000000
vt 0.3695876 0.7988451
v 1.1096340 -0.9302443 0.0338821
vn -1.0000000 0.0000000 0.0000000
vt 0.3649742 0.8160629
v 1.1096340 -1.1198580 0.0891647
vn -1.0000000 0.0000000 0.0000000
vt 0.3695876 0.8332804
v 1.1096340 -1.2564240 0.2318497
vn -1.0000000 0.0000000 0.0000000
vt 0.3821919 0.8458847
v 1.1096340 -1.3033600 0.4237061
vn -1.0000000 0.0000000 0.0000000
vt 0.3994095 0.8504980
v 1.2852330 -0.9135361 0.7968140
vn 1.0000000 0.0000000 0.0000000
vt 0.1397230 0.5556316
v 1.2852330 -1.1053920 0.7498856
vn 1.0000000 0.0000000 0.0000000
vt 0.1344708 0.5360304
v 1.2852330 -0.7239227 0.7415314
vn 1.0000000 0.0000000 0.0000000
vt 0.1344708 0.5752330
v 1.2852330 -1.2480700 0.6133118
vn 1.0000000 0.0000000 0.0000000
vt 0.1201217 0.5216811
v 1.2852330 -0.5873528 0.5988464
vn 1.0000000 0.0000000 0.0000000
vt 0.1201217 0.5895824
v 1.2852330 -1.3033600 0.4237061
vn 1.0000000 0.0000000 0.0000000
vt 0.1005203 0.5164289
v 1.2852330 -1.2564240 0.2318497
vn 1.0000000 0.0000000 0.0000000
vt 0.0809189 0.5216811
v 1.2852330 -1.1198580 0.0891647
vn 1.0000000 0.0000000 0.0000000
vt 0.0665697 0.5360304
v 1.2852330 -0.9302443 0.0338821
vn 1.0000000 0.0000000 0.0000000
vt 0.0613175 0.5556316
v 1.2852330 -0.7383957 0.0808105
vn 1.0000000 0.0000000 0.0000000
vt 0.0665697 0.5752330
v 1.2852330 -0.5957069 0.2173767
vn 1.0000000 0.0000000 0.0000000
vt 0.0809189 0.5895824
v 1.2852330 -0.5404243 0.4069939
vn 1.0000000 0.0000000 0.0000000
vt 0.1005203 0.5948344

g group_60_106102876168960
f 1/1/1 2/2/2 3/3/3 
f 3/3/3 2/2/2 4/4/4 
f 3/3/3 4/4/4 5/5/5 
f 5/5/5 4/4/4 6/6/6 
f 5/5/5 6/6/6 7/7/7 
f 7/7/7 6/6/6 8/8/8 
f 7/7/7 8/8/8 9/9/9 
f 9/9/9 8/8/8 10/10/10 
f 9/9/9 10/10/10 11/11/11 
f 11/11/11 10/10/10 12/12/12 
f 11/11/11 12/12/12 13/13/13 
f 13/13/13 12/12/12 14/14/14 
f 15/15/15 16/16/16 17/17/17 
f 17/17/17 16/16/16 18/18/18 
f 17/17/17 18/18/18 19/19/19 
f 19/19/19 18/18/18 20/20/20 
f 19/19/19 20/20/20 21/21/21 
f 21/21/21 20/20/20 22/22/22 
f 21/21/21 22/22/22 23/23/23 
f 23/23/23 22/22/22 24/24/24 
f 23/23/23 24/24/24 25/25/25 
f 25/25/25 24/24/24 26/26/26 
f 25/25/25 26/26/26 27/27/27 
f 27/27/27 26/26/26 28/28/28 
f 29/29/29 30/30/30 31/31/31 
f 30/30/30 32/32/32 31/31/31 
f 32/32/32 33/33/33 31/31/31 
f 33/33/33 34/34/34 31/31/31 
f 34/34/34 35/35/35 31/31/31 
f 35/35/35 36/36/36 31/31/31 
f 36/36/36 37/37/37 31/31/31 
f 37/37/37 38/38/38 31/31/31 
f 38/38/38 39/39/39 31/31/31 
f 39/39/39 40/40/40 31/31/31 
f 41/41/41 42/42/42 43/43/43 
f 42/42/42 44/44/44 43/43/43 
f 43/43/43 44/44/44 45/45/45 
f 44/44/44 46/46/46 45/45/45 
f 46/46/46 47/47/47 45/45/45 
f 47/47/47 48/48/48 45/45/45 
f 48/48/48 49/49/49 45/45/45 
f 49/49/49 50/50/50 45/45/45 
f 50/50/50 51/51/51 45/45/45 
f 51/51/51 52/52/52 45/45/45 
