v -1.3190989 3.6104751 0.8700747
vn -0.2155454 -0.8437107 0.4916223
vt 0.4680398 -1.0494800
v -1.3191320 3.6744061 1.0861670
vn -0.2079327 -0.9376670 0.2784685
vt 0.4680398 -0.8573222
v -1.3752520 3.7047970 1.0861670
vn -0.4576620 -0.8523390 0.2531082
vt 0.4141371 -0.8573222
v -1.3752520 3.6350491 0.8521581
vn -0.4718903 -0.7618855 0.4436780
vt 0.4141371 -1.0494800
v -1.3191690 3.4618311 0.7149128
vn -0.2085870 -0.6512690 0.7296165
vt 0.4680398 -1.2192280
v -1.3752520 3.4759879 0.6880618
vn -0.4588214 -0.5915548 0.6629826
vt 0.4141371 -1.2192280
v -1.3752520 2.8168299 0.1848976
vn -0.4654676 -0.3666233 0.8055602
vt 0.4141371 -1.8577719
v -1.3192710 2.8072710 0.2111270
vn -0.2124568 -0.4044577 0.8895371
vt 0.4680398 -1.8577719
v -1.3752520 2.1915951 0.0573835
vn -0.4719544 -0.1208198 0.8733050
vt 0.4141371 -2.4284310
v -1.3193480 2.1889601 0.0880553
vn -0.2148851 -0.1336630 0.9674495
vt 0.4680398 -2.4284310
v -1.3752520 1.6631070 0.0175683
vn -0.4717053 -0.0306510 0.8812234
vt 0.4141371 -2.8364761
v -1.3193409 1.6631070 0.0482262
vn -0.2147332 -0.0340688 0.9760784
vt 0.4680398 -2.8359981
v -1.3191370 -2.8772120 0.7384251
vn -0.2164019 0.7312396 0.6468840
vt 0.4680395 5.2893538
v -1.3752520 -2.8968060 0.7151591
vn -0.4745052 0.6594314 0.5830910
vt 0.4141367 5.2893538
v -1.3752520 -3.0023670 0.8858417
vn -0.4727163 0.8198444 0.3231016
vt 0.4141371 5.1249871
v -1.3191230 -2.9742451 0.8974390
vn -0.2155506 0.9085399 0.3579012
vt 0.4680398 5.1249871
v -1.3752520 -3.0444281 1.0942200
vn -0.4757805 0.8774446 -0.0610249
vt 0.4141371 4.9598660
v -1.3190880 -3.0139999 1.0942200
vn -0.2176250 0.9737197 -0.0671514
vt 0.4680398 4.9598660
v -1.3752520 -2.9651239 1.3213910
vn -0.4556607 0.8403874 -0.2934662
vt 0.4141371 4.7635350
v -1.3191460 -2.9412620 1.3025410
vn -0.2069855 0.9236594 -0.3225063
vt 0.4680398 4.7635350
v -0.8606811 -2.6386790 1.4661820
vn -0.0391563 0.0036881 -0.9992263
vt 0.7652903 4.4617758
v -1.3752520 -2.6386790 1.4863300
vn -0.0391563 0.0036881 -0.9992263
vt 0.4141371 4.4617758
v -1.3752520 3.3026321 1.5082750
vn -0.0391563 0.0036881 -0.9992263
vt 0.4141371 -0.3702445
v -0.8606815 3.3026321 1.4880950
vn -0.0391563 0.0036881 -0.9992263
vt 0.7652903 -0.3702445
v -0.8077117 3.6350491 0.8521582
vn 0.2254445 0.8401943 -0.4932020
vt 0.0166338 -1.0494800
v -0.8906140 3.6506269 0.8405793
vn 0.1135434 0.8564885 -0.5035229
vt 0.0849578 -1.0494800
v -0.8906140 3.7241940 1.0861670
vn 0.1090603 0.9523245 -0.2849281
vt 0.0849578 -0.8573222
v -0.8077117 3.7047970 1.0861670
vn 0.2168196 0.9353439 -0.2795016
vt 0.0166338 -0.8573222
v -0.8077117 3.4759879 0.6880618
vn 0.2174810 0.6471549 -0.7306796
vt 0.0166338 -1.2192280
v -0.8906140 3.4850380 0.6708905
vn 0.1094031 0.6585045 -0.7445822
vt 0.0849578 -1.2192280
v -0.8077117 2.8168299 0.1848977
vn 0.2193540 0.4037985 -0.8881614
vt 0.0166338 -1.8577719
v -0.8906140 2.8228710 0.1683323
vn 0.1103989 0.4113083 -0.9047859
vt 0.0849578 -1.8577719
v -0.8077117 2.1915951 0.0573835
vn 0.2187801 0.1345304 -0.9664558
vt 0.0166338 -2.4284310
v -0.8906140 2.1931610 0.0380370
vn 0.1100687 0.1370582 -0.9844288
vt 0.0849578 -2.4284310
v -0.8077117 1.6631070 0.0175683
vn 0.2134963 0.0330959 -0.9763831
vt 0.0166339 -2.8360281
v -0.8906140 1.6631070 -0.0005608
vn 0.1073682 0.0333498 -0.9936599
vt 0.0846927 -2.8361471
v -0.8077117 -2.3520391 0.2813646
vn 0.2236422 -0.4847642 -0.8455696
vt 0.0166322 5.9270778
v -0.8906140 -2.3613610 0.2644058
vn 0.1125715 -0.4939637 -0.8621644
vt 0.0849561 5.9270778
v -0.8906140 -1.7290980 0.0206131
vn 0.1079669 -0.1850937 -0.9767720
vt 0.0840987 6.4532118
v -0.8077117 -1.7237570 0.0373776
vn 0.2146069 -0.1819852 -0.9595964
vt 0.0166608 6.4567609
v -0.8906140 -3.0203550 0.8785492
vn 0.1137215 -0.9234768 -0.3664124
vt 0.0849578 5.1249871
v -0.8906140 -2.9092889 0.7002954
vn 0.1141270 -0.7419636 -0.6606551
vt 0.0849574 5.2893529
v -0.8077117 -2.8968060 0.7151591
vn 0.2266926 -0.7277395 -0.6473065
vt 0.0166335 5.2893529
v -0.8077117 -3.0023670 0.8858417
vn 0.2258605 -0.9056129 -0.3589601
vt 0.0166338 5.1249862
v -0.8077117 -3.0444281 1.0942200
vn 0.2276690 -0.9714478 0.0667543
vt 0.0166338 4.9598660
v -0.8906140 -3.0638280 1.0942200
vn 0.1146908 -0.9910722 0.0679840
vt 0.0849578 4.9598660
v -0.8077117 -2.9651239 1.3213910
vn 0.2160431 -0.9218636 0.3217032
vt 0.0166338 4.7635350
v -0.8906140 -2.9804039 1.3333590
vn 0.1086650 -0.9385877 0.3274829
vt 0.0849578 4.7635350
v -1.2528160 3.6185000 0.8618767
vn -0.9748920 -0.1922467 0.1123692
vt 0.8949671 -1.0494800
v -1.2316771 3.5385001 0.9093082
vn -0.9748920 -0.1922467 0.1123692
vt 0.9891683 -1.0494800
v -1.2316780 3.5926650 1.0864310
vn -0.9733212 -0.2196430 0.0663535
vt 0.9891683 -0.8573222
v -1.2528160 3.6856060 1.0861670
vn -0.9733212 -0.2196430 0.0663535
vt 0.8949671 -0.8573222
v -1.2316771 3.4192729 0.7850070
vn -0.9732646 -0.1531309 0.1711933
vt 0.9891683 -1.2192280
v -1.2528160 3.4669659 0.7047330
vn -0.9732646 -0.1531309 0.1711933
vt 0.8949671 -1.2192280
v -1.2528160 2.8097019 0.2039776
vn -0.9758483 -0.0909583 0.1986123
vt 0.8949671 -1.8577719
v -1.2316771 2.7808311 0.2878782
vn -0.9758483 -0.0909583 0.1986123
vt 0.9891683 -1.8577719
v -1.2528160 2.1886320 0.0798884
vn -0.9780936 -0.0275310 0.2063371
vt 0.8949671 -2.4284310
v -1.2316771 2.1774991 0.1828597
vn -0.9780936 -0.0275310 0.2063371
vt 0.9891683 -2.4284310
v -1.2528160 1.6631070 0.0401010
vn -0.9785649 -0.0072752 0.2058104
vt 0.8949671 -2.8376789
v -1.2316771 1.6629800 0.1431082
vn -0.9785649 -0.0072752 0.2058104
vt 0.9891683 -2.8333049
v -1.2528160 -1.7176770 0.0575695
vn -0.9773822 0.0392026 0.2078156
vt 0.8949671 6.4623370
v -1.2528160 -2.3427939 0.2981849
vn -0.9758786 0.1085901 0.1893916
vt 0.8949671 5.9270792
v -1.2316771 -2.2979231 0.3794266
vn -0.9758786 0.1085901 0.1893916
vt 0.9891683 5.9270792
v -1.2316771 -1.6872290 0.1499702
vn -0.9773822 0.0392026 0.2078156
vt 0.9891683 6.4790168
v -1.2316771 -2.8242600 0.8007958
vn -0.9749298 0.1679315 0.1459826
vt 0.9891683 5.2893538
v -1.2528160 -2.8841460 0.7296928
vn -0.9749298 0.1679315 0.1459826
vt 0.8949671 5.2893538
v -1.2528160 -2.9850769 0.8943594
vn -0.9743213 0.2103049 0.0804354
vt 0.8949671 5.1249871
v -1.2316771 -2.9026480 0.9363785
vn -0.9743213 0.2103049 0.0804354
vt 0.9891683 5.1249871
v -1.2528160 -3.0251701 1.0942200
vn -0.9747548 0.2226819 -0.0163100
vt 0.8949671 4.9598660
v -1.2316771 -2.9319050 1.0929511
vn -0.9747548 0.2226819 -0.0163100
vt 0.9891683 4.9598660
v -1.2528160 -2.9505980 1.3087230
vn -0.9724307 0.2203986 -0.0761778
vt 0.8949671 4.7635350
v -1.2316771 -2.8774829 1.2516590
vn -0.9724307 0.2203986 -0.0761778
vt 0.9891683 4.7635350
v -1.2316771 -2.6349900 1.3742690
vn -0.9751772 0.0008200 -0.2214244
vt 0.9891683 4.4617758
v -1.2528160 -2.6386790 1.4674439
vn -0.9751772 0.0008200 -0.2214244
vt 0.8949671 4.4617758
v -1.2528160 3.3026321 1.4893550
vn -0.9751772 0.0008200 -0.2214244
vt 0.8949671 -0.3702445
v -1.2316771 3.3021040 1.3963420
vn -0.9751772 0.0008200 -0.2214244
vt 0.9891683 -0.3702445
v -0.9943403 -2.8774769 1.2516530
vn 0.8805026 0.4480361 -0.1548512
vt 0.9891683 4.7635350
v -0.9468755 -2.9505980 1.3087230
vn 0.8805026 0.4480361 -0.1548512
vt 0.8949671 4.7635350
v -0.9468755 -3.0251701 1.0942200
vn 0.8892758 0.4561646 -0.0332022
vt 0.8949671 4.9598660
v -0.9943382 -2.9318950 1.0929570
vn 0.8892758 0.4561646 -0.0332022
vt 0.9891683 4.9598660
v -0.9943646 -2.9026389 0.9363824
vn 0.8875397 0.4303491 0.1645387
vt 0.9891683 5.1249871
v -0.9468755 -2.9850769 0.8943594
vn 0.8875397 0.4303491 0.1645387
vt 0.8949671 5.1249871
v -0.9943911 -2.8242559 0.8007983
vn 0.8897955 0.3443327 0.2994981
vt 0.9891683 5.2893538
v -0.9468755 -2.8841460 0.7296928
vn 0.8897955 0.3443327 0.2994981
vt 0.8949671 5.2893538
v -0.9468755 -2.3427939 0.2981849
vn 0.8934004 0.2233457 0.3898108
vt 0.8949671 5.9270792
v -0.9943873 -2.2979219 0.3794324
vn 0.8934004 0.2233457 0.3898108
vt 0.9891683 5.9270792
v -0.9944206 -1.6872370 0.1499713
vn 0.8992000 0.0809053 0.4299926
vt 0.9891683 -5.4845090
v -0.9468755 -1.7176770 0.0575695
vn 0.8992000 0.0809053 0.4299926
vt 0.8949671 -5.4845090
v -0.9468755 1.6631070 0.0401010
vn 0.9038351 -0.0151836 0.4276116
vt 0.8949671 -2.8376789
v -0.9944415 1.6629800 0.1431079
vn 0.9038351 -0.0151836 0.4276116
vt 0.9891683 -2.8333111
v -0.9944330 2.1774991 0.1828604
vn 0.9020168 -0.0569818 0.4279238
vt 0.9891683 -2.4284310
v -0.9468755 2.1886320 0.0798884
vn 0.9020168 -0.0569818 0.4279238
vt 0.8949671 -2.4284310
v -0.9468755 2.8097019 0.2039777
vn 0.8933438 -0.1864907 0.4088497
vt 0.8949671 -1.8577719
v -0.9943896 2.7808311 0.2878846
vn 0.8933438 -0.1864907 0.4088497
vt 0.9891683 -1.8577719
v -0.9943564 3.4192679 0.7850143
vn 0.8835499 -0.3122991 0.3490112
vt 0.9891683 -1.2192280
v -0.9468755 3.4669659 0.7047330
vn 0.8835499 -0.3122991 0.3490112
vt 0.8949671 -1.2192280
v -0.9468755 3.6185000 0.8618767
vn 0.8897940 -0.3939697 0.2303358
vt 0.8949671 -1.0494800
v -0.9943405 3.5385001 0.9093248
vn 0.8897940 -0.3939697 0.2303358
vt 0.9891683 -1.0494800
v -0.9943449 3.5926580 1.0864300
vn 0.8838261 -0.4478229 0.1353004
vt 0.9891683 -0.8573222
v -0.9468755 3.6856060 1.0861670
vn 0.8838261 -0.4478229 0.1353004
vt 0.8949671 -0.8573222
v -0.8077117 3.7047970 1.0861670
vn 0.0564119 -0.9570875 0.2842556
vt 0.8140856 -0.8573222
v -0.8077117 3.6350491 0.8521582
vn 0.0586399 -0.8624175 0.5027897
vt 0.8140856 -1.0494800
v -0.8077117 -2.9651239 1.3213910
vn 0.0560992 0.9426292 -0.3290946
vt 0.8140856 4.7635350
v -0.8077117 -3.0444281 1.0942200
vn 0.0592813 0.9959113 -0.0681649
vt 0.8140856 4.9598660
v -0.8077117 -3.0023670 0.8858417
vn 0.0587807 0.9288505 0.3657616
vt 0.8140856 5.1249871
v -0.8077117 -2.8968060 0.7151591
vn 0.0590508 0.7475466 0.6615793
vt 0.8140852 5.2893548
v -1.3192739 -1.7153180 0.0649149
vn -0.2139809 0.1828701 0.9595680
vt 0.4680370 6.4627991
v -1.3191320 -2.3374341 0.3079355
vn -0.2155859 0.4868280 0.8464758
vt 0.4680381 5.9270792
v -0.8077117 -2.3520391 0.2813646
vn 0.0587672 0.4978625 0.8652627
vt 0.8140839 5.9270802
v -0.8077117 -1.7237570 0.0373776
vn 0.0580638 0.1869723 0.9806477
vt 0.8133525 6.4572401
v -0.8077117 2.1915951 0.0573835
vn 0.0584256 -0.1364655 0.9889205
vt 0.8140856 -2.4284310
v -0.8077117 1.6631070 0.0175683
vn 0.0583871 -0.0349298 0.9976828
vt 0.8140863 -2.8366790
v -0.8077117 2.8168299 0.1848977
vn 0.0574654 -0.4129325 0.9089469
vt 0.8140856 -1.8577719
v -0.8077117 3.4759879 0.6880618
vn 0.0565286 -0.6649829 0.7447162
vt 0.8140856 -1.2192280
v -1.3044029 -2.9804039 1.3333590
vn -0.1263355 -0.9366137 0.3267936
vt 0.3628969 4.7635350
v -1.3044029 -3.0638280 1.0942200
vn -0.1332874 -0.9887511 0.0678661
vt 0.3628969 4.9598660
v -1.3044029 -3.0203550 0.8785492
vn -0.1321535 -0.9213501 -0.3655809
vt 0.3628969 5.1249871
v -1.3044029 -2.9092889 0.7002954
vn -0.1326163 -0.7402568 -0.6591151
vt 0.3628965 5.2893538
v -1.3044029 1.6631070 -0.0005608
vn -0.1248444 0.0332690 -0.9916184
vt 0.3628969 -2.8361521
v -1.3044029 2.1931610 0.0380370
vn -0.1279483 0.1367682 -0.9823053
vt 0.3628969 -2.4284310
v -1.3044029 2.8228710 0.1683323
vn -0.1283517 0.4104310 -0.9028136
vt 0.3628969 -1.8577719
v -1.3044029 3.4850380 0.6708905
vn -0.1271839 0.6570888 -0.7430065
vt 0.3628969 -1.2192280
v -1.3044029 3.6506269 0.8405793
vn -0.1319642 0.8545345 -0.5023507
vt 0.3628969 -1.0494800
v -1.3044029 3.7241940 1.0861670
vn -0.1267893 0.9503068 -0.2843263
vt 0.3628969 -0.8573222
v -1.3752520 -2.9651239 1.3213910
vn -0.2506466 -0.9140225 0.3189660
vt 0.4141371 4.7635350
v -1.3752520 -3.0444281 1.0942200
vn -0.2638861 -0.9622790 0.0662071
vt 0.4141371 4.9598660
v -1.3752520 -3.0023670 0.8858417
vn -0.2618299 -0.8971967 -0.3556451
vt 0.4141371 5.1249871
v -1.3752520 -2.8968060 0.7151591
vn -0.2627762 -0.7209560 -0.6412264
vt 0.4141367 5.2893538
v -1.3752520 1.6631070 0.0175683
vn -0.2477363 0.0327993 -0.9682721
vt 0.4141371 -2.8364761
v -1.3752520 2.1915951 0.0573835
vn -0.2537663 0.1333680 -0.9580269
vt 0.4141371 -2.4284310
v -1.3752520 2.8168299 0.1848976
vn -0.2544202 0.4002912 -0.8803620
vt 0.4141371 -1.8577719
v -1.3752520 3.4759879 0.6880618
vn -0.2522833 0.6415579 -0.7244009
vt 0.4141371 -1.2192280
v -1.3752520 3.6350491 0.8521581
vn -0.2613560 0.8324443 -0.4885996
vt 0.4141371 -1.0494800
v -1.3752520 3.7047970 1.0861670
vn -0.2515321 0.9273310 -0.2771078
vt 0.4141371 -0.8573222
v -1.3752520 -2.3520391 0.2813646
vn -0.4729931 0.4390847 0.7638600
vt 0.4141354 5.9270792
v -1.3044029 -2.3613610 0.2644058
vn -0.1308285 -0.4928246 -0.8602371
vt 0.3628952 5.9270792
v -1.3752520 -2.3520391 0.2813646
vn -0.2593032 -0.4803000 -0.8378984
vt 0.4141354 5.9270792
v -1.3752520 -1.7237570 0.0373776
vn -0.4691982 0.1652389 0.8674960
vt 0.4141371 -5.4845090
v -1.3192739 -1.7153180 0.0649149
vn -0.2139809 0.1828701 0.9595680
vt 0.4680398 -5.4845090
v -0.8077117 -1.7237570 0.0373776
vn 0.2146069 -0.1819852 -0.9595964
vt 0.0166673 -5.4845090
v -0.8906140 -1.7290980 0.0206131
vn 0.1079669 -0.1850937 -0.9767720
vt 0.0839891 -5.4845090
v -1.2316771 -1.6872290 0.1499702
vn -0.9773822 0.0392026 0.2078156
vt 0.9891683 -5.4845090
v -1.2528160 -1.7176770 0.0575695
vn -0.9773822 0.0392026 0.2078156
vt 0.8949671 -5.4845090
v -0.8077117 -1.7237570 0.0373776
vn 0.0580638 0.1869723 0.9806477
vt 0.8132663 -5.4845090
v -1.3044029 -1.7290980 0.0206131
vn -0.1255494 -0.1846737 -0.9747477
vt 0.3628969 -5.4845090
v -1.3752520 -1.7237570 0.0373776
vn -0.2490058 -0.1803890 -0.9515545
vt 0.4141371 -5.4845090
v -1.3752520 -1.7237570 0.0373776
vn -0.4691982 0.1652389 0.8674960
vt 0.4141343 6.4570212
v -1.3044029 -1.7290980 0.0206131
vn -0.1255494 -0.1846737 -0.9747477
vt 0.3628941 6.4532099
v -1.3752520 -1.7237570 0.0373776
vn -0.2490058 -0.1803890 -0.9515545
vt 0.4141343 6.4570212
v -0.9468755 -1.7176770 0.0575695
vn 0.8992000 0.0809053 0.4299926
vt 0.8949671 6.4623380
v -0.9944206 -1.6872370 0.1499713
vn 0.8992000 0.0809053 0.4299926
vt 0.9891683 6.4790940

g group_64657512_140627908774208
f 1/1/1 2/2/2 3/3/3 
f 1/1/1 3/3/3 4/4/4 
f 5/5/5 1/1/1 4/4/4 
f 5/5/5 4/4/4 6/6/6 
f 6/6/6 7/7/7 8/8/8 
f 6/6/6 8/8/8 5/5/5 
f 7/7/7 9/9/9 10/10/10 
f 7/7/7 10/10/10 8/8/8 
f 9/9/9 11/11/11 12/12/12 
f 9/9/9 12/12/12 10/10/10 
f 13/13/13 14/14/14 15/15/15 
f 13/13/13 15/15/15 16/16/16 
f 15/15/15 17/17/17 18/18/18 
f 15/15/15 18/18/18 16/16/16 
f 19/19/19 20/20/20 18/18/18 
f 19/19/19 18/18/18 17/17/17 
f 21/21/21 22/22/22 23/23/23 
f 21/21/21 23/23/23 24/24/24 
f 25/25/25 26/26/26 27/27/27 
f 25/25/25 27/27/27 28/28/28 
f 29/29/29 30/30/30 26/26/26 
f 29/29/29 26/26/26 25/25/25 
f 30/30/30 29/29/29 31/31/31 
f 30/30/30 31/31/31 32/32/32 
f 32/32/32 31/31/31 33/33/33 
f 32/32/32 33/33/33 34/34/34 
f 34/34/34 33/33/33 35/35/35 
f 34/34/34 35/35/35 36/36/36 
f 37/37/37 38/38/38 39/39/39 
f 37/37/37 39/39/39 40/40/40 
f 41/41/41 42/42/42 43/43/43 
f 41/41/41 43/43/43 44/44/44 
f 41/41/41 44/44/44 45/45/45 
f 41/41/41 45/45/45 46/46/46 
f 45/45/45 47/47/47 48/48/48 
f 45/45/45 48/48/48 46/46/46 
f 49/49/49 50/50/50 51/51/51 
f 49/49/49 51/51/51 52/52/52 
f 53/53/53 50/50/50 49/49/49 
f 53/53/53 49/49/49 54/54/54 
f 54/54/54 55/55/55 56/56/56 
f 54/54/54 56/56/56 53/53/53 
f 55/55/55 57/57/57 58/58/58 
f 55/55/55 58/58/58 56/56/56 
f 57/57/57 59/59/59 60/60/60 
f 57/57/57 60/60/60 58/58/58 
f 61/61/61 62/62/62 63/63/63 
f 61/61/61 63/63/63 64/64/64 
f 65/65/65 66/66/66 67/67/67 
f 65/65/65 67/67/67 68/68/68 
f 68/68/68 67/67/67 69/69/69 
f 68/68/68 69/69/69 70/70/70 
f 69/69/69 71/71/71 72/72/72 
f 69/69/69 72/72/72 70/70/70 
f 73/73/73 74/74/74 75/75/75 
f 73/73/73 75/75/75 76/76/76 
f 77/77/77 78/78/78 79/79/79 
f 77/77/77 79/79/79 80/80/80 
f 81/81/81 80/80/80 79/79/79 
f 81/81/81 79/79/79 82/82/82 
f 83/83/83 81/81/81 82/82/82 
f 83/83/83 82/82/82 84/84/84 
f 85/85/85 86/86/86 83/83/83 
f 85/85/85 83/83/83 84/84/84 
f 87/87/87 88/88/88 89/89/89 
f 87/87/87 89/89/89 90/90/90 
f 91/91/91 92/92/92 93/93/93 
f 91/91/91 93/93/93 94/94/94 
f 95/95/95 96/96/96 97/97/97 
f 95/95/95 97/97/97 98/98/98 
f 99/99/99 98/98/98 97/97/97 
f 99/99/99 97/97/97 100/100/100 
f 101/101/101 2/2/2 1/1/1 
f 101/101/101 1/1/1 102/102/102 
f 18/18/18 20/20/20 103/103/103 
f 18/18/18 103/103/103 104/104/104 
f 16/16/16 18/18/18 104/104/104 
f 16/16/16 104/104/104 105/105/105 
f 13/13/13 16/16/16 105/105/105 
f 13/13/13 105/105/105 106/106/106 
f 107/107/107 108/108/108 109/109/109 
f 107/107/107 109/109/109 110/110/110 
f 111/111/111 10/10/10 12/12/12 
f 111/111/111 12/12/12 112/112/112 
f 8/8/8 10/10/10 111/111/111 
f 8/8/8 111/111/111 113/113/113 
f 114/114/114 5/5/5 8/8/8 
f 114/114/114 8/8/8 113/113/113 
f 1/1/1 5/5/5 114/114/114 
f 1/1/1 114/114/114 102/102/102 
f 48/48/48 115/115/115 116/116/116 
f 48/48/48 116/116/116 46/46/46 
f 46/46/46 116/116/116 117/117/117 
f 46/46/46 117/117/117 41/41/41 
f 41/41/41 117/117/117 118/118/118 
f 41/41/41 118/118/118 42/42/42 
f 36/36/36 119/119/119 120/120/120 
f 36/36/36 120/120/120 34/34/34 
f 34/34/34 120/120/120 121/121/121 
f 34/34/34 121/121/121 32/32/32 
f 32/32/32 121/121/121 122/122/122 
f 32/32/32 122/122/122 30/30/30 
f 30/30/30 122/122/122 123/123/123 
f 30/30/30 123/123/123 26/26/26 
f 27/27/27 26/26/26 123/123/123 
f 27/27/27 123/123/123 124/124/124 
f 116/116/116 115/115/115 125/125/125 
f 116/116/116 125/125/125 126/126/126 
f 126/126/126 127/127/127 117/117/117 
f 126/126/126 117/117/117 116/116/116 
f 117/117/117 127/127/127 128/128/128 
f 117/117/117 128/128/128 118/118/118 
f 129/129/129 130/130/130 120/120/120 
f 129/129/129 120/120/120 119/119/119 
f 130/130/130 131/131/131 121/121/121 
f 130/130/130 121/121/121 120/120/120 
f 131/131/131 132/132/132 122/122/122 
f 131/131/131 122/122/122 121/121/121 
f 132/132/132 133/133/133 123/123/123 
f 132/132/132 123/123/123 122/122/122 
f 133/133/133 134/134/134 124/124/124 
f 133/133/133 124/124/124 123/123/123 
f 135/135/135 14/14/14 13/13/13 
f 135/135/135 13/13/13 108/108/108 
f 37/37/37 43/43/43 42/42/42 
f 37/37/37 42/42/42 38/38/38 
f 62/62/62 66/66/66 65/65/65 
f 62/62/62 65/65/65 63/63/63 
f 109/109/109 108/108/108 13/13/13 
f 109/109/109 13/13/13 106/106/106 
f 38/38/38 42/42/42 118/118/118 
f 38/38/38 118/118/118 136/136/136 
f 137/137/137 136/136/136 118/118/118 
f 137/137/137 118/118/118 128/128/128 
f 11/11/11 138/138/138 139/139/139 
f 11/11/11 139/139/139 12/12/12 
f 35/35/35 140/140/140 141/141/141 
f 35/35/35 141/141/141 36/36/36 
f 142/142/142 60/60/60 59/59/59 
f 142/142/142 59/59/59 143/143/143 
f 90/90/90 89/89/89 92/92/92 
f 90/90/90 92/92/92 91/91/91 
f 12/12/12 139/139/139 144/144/144 
f 12/12/12 144/144/144 112/112/112 
f 141/141/141 145/145/145 119/119/119 
f 141/141/141 119/119/119 36/36/36 
f 119/119/119 145/145/145 146/146/146 
f 119/119/119 146/146/146 129/129/129 
f 94/94/94 93/93/93 96/96/96 
f 94/94/94 96/96/96 95/95/95 
f 108/108/108 107/107/107 147/147/147 
f 108/108/108 147/147/147 135/135/135 
f 38/38/38 136/136/136 148/148/148 
f 38/38/38 148/148/148 39/39/39 
f 137/137/137 149/149/149 148/148/148 
f 137/137/137 148/148/148 136/136/136 
f 150/150/150 151/151/151 86/86/86 
f 150/150/150 86/86/86 85/85/85 
