v -1.1860720 -2.4585030 1.3728319
vn -0.9931928 0.0466479 0.1067338
vt 0.8560892 0.8452129
v -1.1860720 -2.3408890 1.2909120
vn -0.9931929 0.0839417 0.0807577
vt 0.8590559 0.8303059
v -1.2291549 -2.6056170 1.0362300
vn -1.0000000 0.0000000 0.0000000
vt 0.8950648 0.8452131
v -1.1860720 -2.2635770 1.1702189
vn -0.9931929 0.1084570 0.0424864
vt 0.8675048 0.8176677
v -1.1860720 -2.2383380 1.0291270
vn -0.9931929 0.1164596 -0.0022524
vt 0.8801497 0.8092237
v -1.1860720 -2.3509340 0.7715026
vn -0.9931929 0.0807562 -0.0839423
vt 0.9099803 0.8092237
v -1.1860720 -2.2690139 0.8891166
vn -0.9931930 0.1067326 -0.0466480
vt 0.8950648 0.8062581
v -1.1860720 -2.6127191 0.6689518
vn -0.9931928 -0.0022529 -0.1164604
vt 0.9310739 0.8303059
v -1.1860720 -2.4716270 0.6941909
vn -0.9931929 0.0424852 -0.1084575
vt 0.9226250 0.8176677
v -1.1860720 -2.8703439 0.7815473
vn -0.9931930 -0.0839406 -0.0807578
vt 0.9310739 0.8601201
v -1.1860720 -2.7527311 0.6996275
vn -0.9931929 -0.0466468 -0.1067334
vt 0.9340410 0.8452129
v -1.1860720 -2.9728949 1.0433331
vn -0.9931929 -0.1164594 0.0022531
vt 0.9099803 0.8812023
v -1.1860720 -2.9476559 0.9022414
vn -0.9931929 -0.1084561 -0.0424871
vt 0.9226250 0.8727579
v -1.1860720 -2.9422190 1.1833431
vn -0.9931929 -0.1067321 0.0466495
vt 0.8950648 0.8841676
v -1.1860720 -2.7396049 1.3782690
vn -0.9931928 -0.0424872 0.1084572
vt 0.8675048 0.8727579
v -1.1860720 -2.8602991 1.3009570
vn -0.9931929 -0.0807561 0.0839429
vt 0.8801497 0.8812023
v -1.1860720 -2.5985141 1.4035079
vn -0.9931928 0.0022520 0.1164604
vt 0.8590561 0.8601201
v -0.9712946 -2.3389831 1.1901710
vn 0.0000000 0.8659920 0.5000579
vt 0.9852543 0.7149165
v -0.9712946 -2.2976861 1.0361880
vn 0.0000000 1.0000000 0.0000000
vt 0.9852542 0.7238328
v -1.2314050 -2.3389831 1.1901710
vn 0.0000000 0.8659912 0.5000593
vt 0.9998091 0.7149165
v -1.2314050 -2.2976871 1.0361880
vn 0.0000000 1.0000000 0.0000000
vt 0.9998091 0.7238328
v -0.9712946 -2.2976861 1.0361880
vn 0.0000000 1.0000000 0.0000000
vt 0.9852542 0.7149165
v -0.9712946 -2.3389831 0.8822892
vn 0.0000000 0.8659239 -0.5001758
vt 0.9852542 0.7238327
v -1.2314050 -2.2976871 1.0361880
vn 0.0000000 1.0000000 0.0000000
vt 0.9998091 0.7149165
v -1.2314050 -2.3389831 0.8822890
vn 0.0000000 0.8659244 -0.5001749
vt 0.9998091 0.7238328
v -0.9712946 -2.3389831 0.8822892
vn 0.0000000 0.8659239 -0.5001758
vt 0.9852543 0.7149164
v -0.9712946 -2.4516749 0.7695965
vn 0.0000000 0.5000606 -0.8659905
vt 0.9852542 0.7238328
v -1.2314050 -2.3389831 0.8822890
vn 0.0000000 0.8659244 -0.5001749
vt 0.9998091 0.7149165
v -1.2314050 -2.4516749 0.7695965
vn 0.0000000 0.5000585 -0.8659917
vt 0.9998091 0.7238328
v -0.9712946 -2.4516749 0.7695965
vn 0.0000000 0.5000606 -0.8659905
vt 0.9998091 0.7238328
v -0.9712946 -2.6056590 0.7282990
vn 0.0000000 0.0000000 -1.0000000
vt 0.9998091 0.7149165
v -1.2314050 -2.4516749 0.7695965
vn 0.0000000 0.5000585 -0.8659917
vt 0.9852542 0.7238328
v -1.2314050 -2.6056590 0.7282993
vn 0.0000000 0.0000000 -1.0000000
vt 0.9852543 0.7149164
v -0.9712946 -2.6056590 0.7282990
vn 0.0000000 0.0000000 -1.0000000
vt 0.9852542 0.7149165
v -0.9712946 -2.7595570 0.7695965
vn 0.0000000 -0.5001782 -0.8659225
vt 0.9852542 0.7238327
v -1.2314050 -2.6056590 0.7282993
vn 0.0000000 0.0000000 -1.0000000
vt 0.9998091 0.7149165
v -1.2314050 -2.7595570 0.7695965
vn 0.0000000 -0.5001785 -0.8659224
vt 0.9998091 0.7238328
v -0.9712946 -2.7595570 0.7695965
vn 0.0000000 -0.5001782 -0.8659225
vt 0.9852543 0.7149165
v -0.9712946 -2.8722501 0.8822890
vn 0.0000000 -0.8659922 -0.5000577
vt 0.9852542 0.7238328
v -1.2314050 -2.7595570 0.7695965
vn 0.0000000 -0.5001785 -0.8659224
vt 0.9998091 0.7149165
v -1.2314050 -2.8722501 0.8822890
vn 0.0000000 -0.8659924 -0.5000571
vt 0.9998091 0.7238328
v -0.9712946 -2.8722501 0.8822890
vn 0.0000000 -0.8659922 -0.5000577
vt 0.9998091 0.7238328
v -0.9712946 -2.9135461 1.0362730
vn 0.0000000 -1.0000000 0.0000000
vt 0.9998091 0.7149165
v -1.2314050 -2.8722501 0.8822890
vn 0.0000000 -0.8659924 -0.5000571
vt 0.9852542 0.7238328
v -1.2314050 -2.9135461 1.0362730
vn 0.0000000 -1.0000000 0.0000000
vt 0.9852542 0.7149165
v -0.9712946 -2.9135461 1.0362730
vn 0.0000000 -1.0000000 0.0000000
vt 0.9852542 0.7149166
v -0.9712945 -2.8722501 1.1901710
vn 0.0000000 -0.8659238 0.5001760
vt 0.9852542 0.7238328
v -1.2314050 -2.9135461 1.0362730
vn 0.0000000 -1.0000000 0.0000000
vt 0.9998091 0.7149165
v -1.2314050 -2.8722501 1.1901710
vn 0.0000000 -0.8659233 0.5001768
vt 0.9998091 0.7238328
v -0.9712945 -2.8722501 1.1901710
vn 0.0000000 -0.8659238 0.5001760
vt 0.9998091 0.7238328
v -0.9712946 -2.7595570 1.3028640
vn 0.0000000 -0.5000585 0.8659917
vt 0.9998091 0.7149165
v -1.2314050 -2.8722501 1.1901710
vn 0.0000000 -0.8659233 0.5001768
vt 0.9852542 0.7238328
v -1.2314050 -2.7595570 1.3028640
vn 0.0000000 -0.5000578 0.8659921
vt 0.9852543 0.7149165
v -0.9712946 -2.7595570 1.3028640
vn 0.0000000 -0.5000585 0.8659917
vt 0.9852543 0.7149165
v -0.9712946 -2.6055739 1.3441600
vn 0.0000000 0.0000000 1.0000000
vt 0.9852542 0.7238327
v -1.2314050 -2.7595570 1.3028640
vn 0.0000000 -0.5000578 0.8659921
vt 0.9998091 0.7149165
v -1.2314050 -2.6055739 1.3441600
vn 0.0000000 0.0000000 1.0000000
vt 0.9998091 0.7238328
v -0.9712946 -2.6055739 1.3441600
vn 0.0000000 0.0000000 1.0000000
vt 0.9852542 0.7149165
v -0.9712946 -2.4516759 1.3028640
vn 0.0000000 0.5001768 0.8659233
vt 0.9852542 0.7238328
v -1.2314050 -2.6055739 1.3441600
vn 0.0000000 0.0000000 1.0000000
vt 0.9998091 0.7149165
v -1.2314050 -2.4516759 1.3028640
vn 0.0000000 0.5001758 0.8659239
vt 0.9998091 0.7238328
v -0.9712946 -2.4516759 1.3028640
vn 0.0000000 0.5001768 0.8659233
vt 0.9998091 0.7238328
v -0.9712946 -2.3389831 1.1901710
vn 0.0000000 0.8659920 0.5000579
vt 0.9998091 0.7149165
v -1.2314050 -2.4516759 1.3028640
vn 0.0000000 0.5001758 0.8659239
vt 0.9852542 0.7238328
v -1.2314050 -2.3389831 1.1901710
vn 0.0000000 0.8659912 0.5000593
vt 0.9852543 0.7149165
v -1.2314050 -2.6055739 1.3441600
vn -1.0000000 0.0000000 0.0000000
vt 0.8950926 0.8780996
v -1.2314050 -2.4516759 1.3028640
vn -1.0000000 0.0000000 0.0000000
vt 0.8786454 0.8736994
v -1.2314050 -2.6056590 0.7282993
vn -1.0000000 0.0000000 0.0000000
vt 0.8950362 0.8123260
v -1.2314050 -2.4516749 0.7695965
vn -1.0000000 0.0000000 0.0000000
vt 0.8785885 0.8167461
v -1.2314050 -2.3389831 1.1901710
vn -1.0000000 0.0000000 0.0000000
vt 0.8665934 0.8616713
v -1.2314050 -2.2976871 1.0361880
vn -1.0000000 0.0000000 0.0000000
vt 0.8621646 0.8452284
v -1.2314050 -2.3389831 0.8822890
vn -1.0000000 0.0000000 0.0000000
vt 0.8665604 0.8287890
v -0.9712946 -2.6055739 1.3441600
vn 1.0000000 0.0000000 0.0000000
vt 0.9827732 0.8091266
v -0.9712946 -2.7595570 1.3028640
vn 1.0000000 0.0000000 0.0000000
vt 0.9945910 0.8209848
v -0.9712946 -2.4516759 1.3028640
vn 1.0000000 0.0000000 0.0000000
vt 0.9666131 0.8047739
v -0.9712946 -2.3389831 1.1901710
vn 1.0000000 0.0000000 0.0000000
vt 0.9504371 0.8090751
v -0.9712945 -2.8722501 1.1901710
vn 1.0000000 0.0000000 0.0000000
vt 0.9988965 0.8371531
v -0.9712946 -2.2976861 1.0361880
vn 1.0000000 0.0000000 0.0000000
vt 0.9385744 0.8208849
v -0.9712946 -2.3389831 0.8822892
vn 1.0000000 0.0000000 0.0000000
vt 0.9342217 0.8370361
v -0.9712946 -2.4516749 0.7695965
vn 1.0000000 0.0000000 0.0000000
vt 0.9385272 0.8532040
v -0.9712946 -2.6056590 0.7282990
vn 1.0000000 0.0000000 0.0000000
vt 0.9503449 0.8650621
v -0.9712946 -2.7595570 0.7695965
vn 1.0000000 0.0000000 0.0000000
vt 0.9665051 0.8694147
v -0.9712946 -2.8722501 0.8822890
vn 1.0000000 0.0000000 0.0000000
vt 0.9826810 0.8651140
v -0.9712946 -2.9135461 1.0362730
vn 1.0000000 0.0000000 0.0000000
vt 0.9945437 0.8533038
v -1.2314050 -2.7595570 1.3028640
vn -1.0000000 0.0000000 0.0000000
vt 0.9115399 0.8736790
v -1.2314050 -2.7595570 0.7695965
vn -1.0000000 0.0000000 0.0000000
vt 0.9114829 0.8167263
v -1.2314050 -2.8722501 1.1901710
vn -1.0000000 0.0000000 0.0000000
vt 0.9235681 0.8616364
v -1.2314050 -2.9135461 1.0362730
vn -1.0000000 0.0000000 0.0000000
vt 0.9279643 0.8451975
v -1.2314050 -2.8722501 0.8822890
vn -1.0000000 0.0000000 0.0000000
vt 0.9235352 0.8287547

g group_64658016_140627908775104
f 1/1/1 2/2/2 3/3/3 
f 2/2/2 4/4/4 3/3/3 
f 3/3/3 4/4/4 5/5/5 
f 6/6/6 3/3/3 7/7/7 
f 3/3/3 5/5/5 7/7/7 
f 8/8/8 3/3/3 9/9/9 
f 3/3/3 6/6/6 9/9/9 
f 10/10/10 3/3/3 11/11/11 
f 3/3/3 8/8/8 11/11/11 
f 12/12/12 3/3/3 13/13/13 
f 3/3/3 10/10/10 13/13/13 
f 3/3/3 12/12/12 14/14/14 
f 15/15/15 3/3/3 16/16/16 
f 3/3/3 14/14/14 16/16/16 
f 1/1/1 3/3/3 17/17/17 
f 3/3/3 15/15/15 17/17/17 
f 18/18/18 19/19/19 20/20/20 
f 19/19/19 21/21/21 20/20/20 
f 22/22/22 23/23/23 24/24/24 
f 23/23/23 25/25/25 24/24/24 
f 26/26/26 27/27/27 28/28/28 
f 27/27/27 29/29/29 28/28/28 
f 30/30/30 31/31/31 32/32/32 
f 31/31/31 33/33/33 32/32/32 
f 34/34/34 35/35/35 36/36/36 
f 35/35/35 37/37/37 36/36/36 
f 38/38/38 39/39/39 40/40/40 
f 39/39/39 41/41/41 40/40/40 
f 42/42/42 43/43/43 44/44/44 
f 43/43/43 45/45/45 44/44/44 
f 46/46/46 47/47/47 48/48/48 
f 47/47/47 49/49/49 48/48/48 
f 50/50/50 51/51/51 52/52/52 
f 51/51/51 53/53/53 52/52/52 
f 54/54/54 55/55/55 56/56/56 
f 55/55/55 57/57/57 56/56/56 
f 58/58/58 59/59/59 60/60/60 
f 59/59/59 61/61/61 60/60/60 
f 62/62/62 63/63/63 64/64/64 
f 63/63/63 65/65/65 64/64/64 
f 66/66/66 67/67/67 68/68/68 
f 68/68/68 67/67/67 69/69/69 
f 67/67/67 70/70/70 69/69/69 
f 70/70/70 71/71/71 69/69/69 
f 71/71/71 72/72/72 69/69/69 
f 73/73/73 74/74/74 75/75/75 
f 75/75/75 74/74/74 76/76/76 
f 74/74/74 77/77/77 76/76/76 
f 76/76/76 77/77/77 78/78/78 
f 78/78/78 77/77/77 79/79/79 
f 79/79/79 77/77/77 80/80/80 
f 80/80/80 77/77/77 81/81/81 
f 81/81/81 77/77/77 82/82/82 
f 82/82/82 77/77/77 83/83/83 
f 83/83/83 77/77/77 84/84/84 
f 68/68/68 85/85/85 66/66/66 
f 68/68/68 86/86/86 85/85/85 
f 85/85/85 86/86/86 87/87/87 
f 87/87/87 86/86/86 88/88/88 
f 88/88/88 86/86/86 89/89/89 
