v -1.1721680 0.2443223 0.2194908
vn -1.0000000 0.0000000 0.0000000
vt 0.9037687 0.6937889
v -0.9357484 0.1262079 0.1013758
vn -0.5770405 -0.5775065 -0.5775037
vt 0.9180201 0.6795452
v -0.9357484 0.0772831 0.2194907
vn -0.5770404 -0.8167157 0.0000000
vt 0.9239233 0.6937888
v -0.9357484 0.1262078 0.3376055
vn -0.5770406 -0.5775108 0.5774994
vt 0.9180201 0.7080325
v -0.9357491 0.2443215 0.3865322
vn -0.5770463 0.0000000 0.8167115
vt 0.9037689 0.7139322
v -0.9357487 0.3624369 0.3376054
vn -0.5770410 0.5775080 0.5775018
vt 0.8895175 0.7080324
v -0.9357484 0.4113618 0.2194905
vn -0.5770412 0.8167151 0.0000000
vt 0.8836145 0.6937887
v -0.9357484 0.3624372 0.1013758
vn -0.5770417 0.5775065 -0.5775025
vt 0.8895175 0.6795452
v -0.9357484 0.2443227 0.0524501
vn -0.5770439 0.0000000 -0.8167132
vt 0.9037689 0.6736454
v -0.9357491 0.2443215 0.3865322
vn 1.0000000 0.0000000 0.0000000
vt 0.9514339 0.7229740
v -0.9357484 0.1262078 0.3376055
vn 1.0000000 0.0000000 0.0000000
vt 0.9391281 0.7178795
v -0.9357487 0.3624369 0.3376054
vn 1.0000000 0.0000000 0.0000000
vt 0.9637397 0.7178793
v -0.9357484 0.4113618 0.2194905
vn 1.0000000 0.0000000 0.0000000
vt 0.9688371 0.7055800
v -0.9357484 0.3624372 0.1013758
vn 1.0000000 0.0000000 0.0000000
vt 0.9637398 0.6932813
v -0.9357484 0.2443227 0.0524501
vn 1.0000000 0.0000000 0.0000000
vt 0.9514339 0.6881868
v -0.9357484 0.1262079 0.1013758
vn 1.0000000 0.0000000 0.0000000
vt 0.9391282 0.6932815
v -0.9357484 0.0772831 0.2194907
vn 1.0000000 0.0000000 0.0000000
vt 0.9340310 0.7055807
v -1.2657510 0.1262076 0.1013758
vn 0.5770409 -0.5775068 -0.5775030
vt 0.8895174 0.6795452
v -1.0293320 0.2443224 0.2194904
vn 1.0000000 0.0000000 0.0000000
vt 0.9037688 0.6937887
v -1.2657520 0.0772831 0.2194902
vn 0.5770404 -0.8167157 0.0000000
vt 0.8836144 0.6937888
v -1.2657520 0.1262076 0.3376048
vn 0.5770401 -0.5775073 0.5775033
vt 0.8895175 0.7080325
v -1.2657510 0.2443227 0.3865308
vn 0.5770434 0.0000000 0.8167135
vt 0.9037689 0.7139322
v -1.2657510 0.3624374 0.3376049
vn 0.5770412 0.5775065 0.5775031
vt 0.9180201 0.7080324
v -1.2657510 0.4113618 0.2194905
vn 0.5770412 0.8167151 0.0000000
vt 0.9239231 0.6937886
v -1.2657510 0.3624369 0.1013758
vn 0.5770407 0.5775064 -0.5775036
vt 0.9180200 0.6795452
v -1.2657510 0.2443224 0.0524501
vn 0.5770432 0.0000000 -0.8167137
vt 0.9037689 0.6736454
v -1.2657510 0.3624369 0.1013758
vn -1.0000000 0.0000000 0.0000000
vt 0.9391282 0.6932806
v -1.2657510 0.2443224 0.0524501
vn -1.0000000 0.0000000 0.0000000
vt 0.9514339 0.6881865
v -1.2657510 0.4113618 0.2194905
vn -1.0000000 0.0000000 0.0000000
vt 0.9340310 0.7055799
v -1.2657510 0.3624374 0.3376049
vn -1.0000000 0.0000000 0.0000000
vt 0.9391282 0.7178794
v -1.2657510 0.2443227 0.3865308
vn -1.0000000 0.0000000 0.0000000
vt 0.9514339 0.7229741
v -1.2657520 0.1262076 0.3376048
vn -1.0000000 0.0000000 0.0000000
vt 0.9637396 0.7178795
v -1.2657520 0.0772831 0.2194902
vn -1.0000000 0.0000000 0.0000000
vt 0.9688370 0.7055801
v -1.2657510 0.1262076 0.1013758
vn -1.0000000 0.0000000 0.0000000
vt 0.9637396 0.6932809
v -1.1721680 0.2443223 0.2194908
vn -1.0000000 0.0000000 0.0000000
vt 0.9037687 0.6937889
v -1.1721680 0.2443223 0.2194908
vn -1.0000000 0.0000000 0.0000000
vt 0.9037687 0.6937889
v -1.1721680 0.2443223 0.2194908
vn -1.0000000 0.0000000 0.0000000
vt 0.9037687 0.6937889
v -1.0293320 0.2443224 0.2194904
vn 1.0000000 0.0000000 0.0000000
vt 0.9037688 0.6937887
v -1.0293320 0.2443224 0.2194904
vn 1.0000000 0.0000000 0.0000000
vt 0.9037688 0.6937887
v -1.0293320 0.2443224 0.2194904
vn 1.0000000 0.0000000 0.0000000
vt 0.9037688 0.6937887

g group_64671240_140627912581680
f 1/1/1 2/2/2 3/3/3 
f 1/1/1 3/3/3 4/4/4 
f 1/1/1 4/4/4 5/5/5 
f 6/6/6 35/35/35 5/5/5 
f 36/36/36 6/6/6 7/7/7 
f 37/37/37 7/7/7 8/8/8 
f 1/1/1 8/8/8 9/9/9 
f 2/2/2 1/1/1 9/9/9 
f 10/10/10 11/11/11 12/12/12 
f 12/12/12 11/11/11 13/13/13 
f 13/13/13 11/11/11 14/14/14 
f 14/14/14 11/11/11 15/15/15 
f 15/15/15 11/11/11 16/16/16 
f 16/16/16 11/11/11 17/17/17 
f 18/18/18 19/19/19 20/20/20 
f 20/20/20 19/19/19 21/21/21 
f 21/21/21 19/19/19 22/22/22 
f 22/22/22 38/38/38 23/23/23 
f 23/23/23 39/39/39 24/24/24 
f 24/24/24 40/40/40 25/25/25 
f 25/25/25 19/19/19 26/26/26 
f 26/26/26 19/19/19 18/18/18 
f 27/27/27 28/28/28 29/29/29 
f 29/29/29 28/28/28 30/30/30 
f 30/30/30 28/28/28 31/31/31 
f 31/31/31 28/28/28 32/32/32 
f 32/32/32 28/28/28 33/33/33 
f 33/33/33 28/28/28 34/34/34 
