v 1.3190989 3.6104751 0.8700747
vn 0.2155455 -0.8437106 0.4916224
vt 0.4680398 -1.0494800
v 1.3752520 3.6350491 0.8521581
vn 0.4718904 -0.7618853 0.4436783
vt 0.4141371 -1.0494800
v 1.3752520 3.7047970 1.0861670
vn 0.4576622 -0.8523389 0.2531083
vt 0.4141371 -0.8573222
v 1.3191320 3.6744061 1.0861670
vn 0.2079328 -0.9376670 0.2784685
vt 0.4680398 -0.8573222
v 1.3191690 3.4618311 0.7149128
vn 0.2085870 -0.6512688 0.7296166
vt 0.4680398 -1.2192280
v 1.3752520 3.4759879 0.6880618
vn 0.4588214 -0.5915546 0.6629828
vt 0.4141371 -1.2192280
v 1.3192710 2.8072710 0.2111270
vn 0.2124567 -0.4044576 0.8895371
vt 0.4680398 -1.8577719
v 1.3752520 2.8168299 0.1848976
vn 0.4654676 -0.3666233 0.8055602
vt 0.4141371 -1.8577719
v 1.3193480 2.1889601 0.0880553
vn 0.2148851 -0.1336629 0.9674495
vt 0.4680398 -2.4284310
v 1.3752520 2.1915951 0.0573835
vn 0.4719544 -0.1208197 0.8733050
vt 0.4141371 -2.4284310
v 1.3193409 1.6631070 0.0482262
vn 0.2147332 -0.0340688 0.9760784
vt 0.4680398 -2.8359981
v 1.3752520 1.6631070 0.0175683
vn 0.4717053 -0.0306510 0.8812234
vt 0.4141371 -2.8364761
v 1.3191370 -2.8772120 0.7384251
vn 0.2164019 0.7312396 0.6468840
vt 0.4680395 5.2893538
v 1.3191230 -2.9742451 0.8974390
vn 0.2155505 0.9085399 0.3579012
vt 0.4680398 5.1249871
v 1.3752520 -3.0023670 0.8858417
vn 0.4727162 0.8198445 0.3231015
vt 0.4141371 5.1249871
v 1.3752520 -2.8968060 0.7151591
vn 0.4745052 0.6594313 0.5830911
vt 0.4141367 5.2893538
v 1.3190880 -3.0139999 1.0942200
vn 0.2176248 0.9737198 -0.0671514
vt 0.4680398 4.9598660
v 1.3752520 -3.0444281 1.0942200
vn 0.4757803 0.8774446 -0.0610248
vt 0.4141371 4.9598660
v 1.3752520 -2.9651239 1.3213910
vn 0.4556602 0.8403877 -0.2934661
vt 0.4141371 4.7635350
v 1.3191460 -2.9412620 1.3025410
vn 0.2069853 0.9236595 -0.3225061
vt 0.4680398 4.7635350
v 0.8606811 -2.6386790 1.4661820
vn 0.0391563 0.0036881 -0.9992263
vt 0.7652903 4.4617758
v 0.8606815 3.3026321 1.4880950
vn 0.0391563 0.0036881 -0.9992263
vt 0.7652903 -0.3702445
v 1.3752520 3.3026321 1.5082750
vn 0.0391563 0.0036881 -0.9992263
vt 0.4141371 -0.3702445
v 1.3752520 -2.6386790 1.4863300
vn 0.0391563 0.0036881 -0.9992263
vt 0.4141371 4.4617758
v 0.8077117 3.6350491 0.8521582
vn -0.2254446 0.8401943 -0.4932020
vt 0.0166338 -1.0494800
v 0.8077117 3.7047970 1.0861670
vn -0.2168197 0.9353439 -0.2795016
vt 0.0166338 -0.8573222
v 0.8906140 3.7241940 1.0861670
vn -0.1090604 0.9523245 -0.2849281
vt 0.0849578 -0.8573222
v 0.8906140 3.6506269 0.8405793
vn -0.1135435 0.8564885 -0.5035229
vt 0.0849578 -1.0494800
v 0.8077117 3.4759879 0.6880618
vn -0.2174812 0.6471549 -0.7306795
vt 0.0166338 -1.2192280
v 0.8906140 3.4850380 0.6708905
vn -0.1094031 0.6585046 -0.7445822
vt 0.0849578 -1.2192280
v 0.8906140 2.8228710 0.1683323
vn -0.1103989 0.4113084 -0.9047859
vt 0.0849578 -1.8577719
v 0.8077117 2.8168299 0.1848977
vn -0.2193540 0.4037986 -0.8881613
vt 0.0166338 -1.8577719
v 0.8906140 2.1931610 0.0380370
vn -0.1100687 0.1370582 -0.9844288
vt 0.0849578 -2.4284310
v 0.8077117 2.1915951 0.0573835
vn -0.2187800 0.1345304 -0.9664559
vt 0.0166338 -2.4284310
v 0.8906140 1.6631070 -0.0005608
vn -0.1073682 0.0333498 -0.9936599
vt 0.0846927 -2.8361471
v 0.8077117 1.6631070 0.0175683
vn -0.2134963 0.0330959 -0.9763831
vt 0.0166339 -2.8360281
v 0.8077117 -2.3520391 0.2813646
vn -0.2236421 -0.4847642 -0.8455696
vt 0.0166322 5.9270778
v 0.8077117 -1.7237570 0.0373776
vn -0.2146069 -0.1819852 -0.9595964
vt 0.0166608 6.4567609
v 0.8906140 -1.7290980 0.0206131
vn -0.1079669 -0.1850937 -0.9767720
vt 0.0840987 6.4532118
v 0.8906140 -2.3613610 0.2644058
vn -0.1125714 -0.4939637 -0.8621644
vt 0.0849561 5.9270778
v 0.8906140 -3.0203550 0.8785492
vn -0.1137215 -0.9234768 -0.3664124
vt 0.0849578 5.1249871
v 0.8077117 -3.0023670 0.8858417
vn -0.2258605 -0.9056129 -0.3589601
vt 0.0166338 5.1249862
v 0.8077117 -2.8968060 0.7151591
vn -0.2266925 -0.7277395 -0.6473065
vt 0.0166335 5.2893529
v 0.8906140 -2.9092889 0.7002954
vn -0.1141269 -0.7419636 -0.6606551
vt 0.0849574 5.2893529
v 0.8906140 -3.0638280 1.0942200
vn -0.1146908 -0.9910722 0.0679840
vt 0.0849578 4.9598660
v 0.8077117 -3.0444281 1.0942200
vn -0.2276690 -0.9714478 0.0667543
vt 0.0166338 4.9598660
v 0.8906140 -2.9804039 1.3333590
vn -0.1086650 -0.9385877 0.3274829
vt 0.0849578 4.7635350
v 0.8077117 -2.9651239 1.3213910
vn -0.2160431 -0.9218636 0.3217032
vt 0.0166338 4.7635350
v 1.2528160 3.6185000 0.8618767
vn 0.9748920 -0.1922468 0.1123692
vt 0.8949671 -1.0494800
v 1.2528160 3.6856060 1.0861670
vn 0.9733212 -0.2196430 0.0663535
vt 0.8949671 -0.8573222
v 1.2316780 3.5926650 1.0864310
vn 0.9733212 -0.2196430 0.0663535
vt 0.9891683 -0.8573222
v 1.2316771 3.5385001 0.9093082
vn 0.9748920 -0.1922468 0.1123692
vt 0.9891683 -1.0494800
v 1.2316771 3.4192729 0.7850070
vn 0.9732646 -0.1531309 0.1711933
vt 0.9891683 -1.2192280
v 1.2528160 3.4669659 0.7047330
vn 0.9732646 -0.1531309 0.1711933
vt 0.8949671 -1.2192280
v 1.2316771 2.7808311 0.2878782
vn 0.9758482 -0.0909582 0.1986124
vt 0.9891683 -1.8577719
v 1.2528160 2.8097019 0.2039776
vn 0.9758482 -0.0909582 0.1986124
vt 0.8949671 -1.8577719
v 1.2316771 2.1774991 0.1828597
vn 0.9780936 -0.0275309 0.2063371
vt 0.9891683 -2.4284310
v 1.2528160 2.1886320 0.0798884
vn 0.9780936 -0.0275309 0.2063371
vt 0.8949671 -2.4284310
v 1.2316771 1.6629800 0.1431082
vn 0.9785649 -0.0072752 0.2058104
vt 0.9891683 -2.8333049
v 1.2528160 1.6631070 0.0401010
vn 0.9785649 -0.0072752 0.2058104
vt 0.8949671 -2.8376789
v 1.2528160 -1.7176770 0.0575695
vn 0.9773822 0.0392026 0.2078156
vt 0.8949671 6.4623370
v 1.2316771 -1.6872290 0.1499702
vn 0.9773822 0.0392026 0.2078156
vt 0.9891683 6.4790168
v 1.2316771 -2.2979231 0.3794266
vn 0.9758786 0.1085899 0.1893916
vt 0.9891683 5.9270792
v 1.2528160 -2.3427939 0.2981849
vn 0.9758786 0.1085899 0.1893916
vt 0.8949671 5.9270792
v 1.2316771 -2.8242600 0.8007958
vn 0.9749298 0.1679314 0.1459825
vt 0.9891683 5.2893538
v 1.2316771 -2.9026480 0.9363785
vn 0.9743213 0.2103049 0.0804353
vt 0.9891683 5.1249871
v 1.2528160 -2.9850769 0.8943594
vn 0.9743213 0.2103049 0.0804353
vt 0.8949671 5.1249871
v 1.2528160 -2.8841460 0.7296928
vn 0.9749298 0.1679314 0.1459825
vt 0.8949671 5.2893538
v 1.2316771 -2.9319050 1.0929511
vn 0.9747548 0.2226817 -0.0163101
vt 0.9891683 4.9598660
v 1.2528160 -3.0251701 1.0942200
vn 0.9747548 0.2226817 -0.0163101
vt 0.8949671 4.9598660
v 1.2316771 -2.8774829 1.2516590
vn 0.9724307 0.2203984 -0.0761778
vt 0.9891683 4.7635350
v 1.2528160 -2.9505980 1.3087230
vn 0.9724307 0.2203984 -0.0761778
vt 0.8949671 4.7635350
v 1.2316771 -2.6349900 1.3742690
vn 0.9751772 0.0008200 -0.2214245
vt 0.9891683 4.4617758
v 1.2316771 3.3021040 1.3963420
vn 0.9751772 0.0008200 -0.2214245
vt 0.9891683 -0.3702445
v 1.2528160 3.3026321 1.4893550
vn 0.9751772 0.0008200 -0.2214245
vt 0.8949671 -0.3702445
v 1.2528160 -2.6386790 1.4674439
vn 0.9751772 0.0008200 -0.2214245
vt 0.8949671 4.4617758
v 0.9943403 -2.8774769 1.2516530
vn -0.8805027 0.4480359 -0.1548512
vt 0.9891683 4.7635350
v 0.9943382 -2.9318950 1.0929570
vn -0.8892758 0.4561646 -0.0332023
vt 0.9891683 4.9598660
v 0.9468755 -3.0251701 1.0942200
vn -0.8892758 0.4561646 -0.0332023
vt 0.8949671 4.9598660
v 0.9468755 -2.9505980 1.3087230
vn -0.8805027 0.4480359 -0.1548512
vt 0.8949671 4.7635350
v 0.9943646 -2.9026389 0.9363824
vn -0.8875397 0.4303491 0.1645386
vt 0.9891683 5.1249871
v 0.9468755 -2.9850769 0.8943594
vn -0.8875397 0.4303491 0.1645386
vt 0.8949671 5.1249871
v 0.9943911 -2.8242559 0.8007983
vn -0.8897954 0.3443328 0.2994981
vt 0.9891683 5.2893538
v 0.9468755 -2.8841460 0.7296928
vn -0.8897954 0.3443328 0.2994981
vt 0.8949671 5.2893538
v 0.9468755 -2.3427939 0.2981849
vn -0.8934003 0.2233460 0.3898108
vt 0.8949671 5.9270792
v 0.9943873 -2.2979219 0.3794324
vn -0.8934003 0.2233460 0.3898108
vt 0.9891683 5.9270792
v 0.9944206 -1.6872370 0.1499713
vn -0.8992000 0.0809053 0.4299926
vt 0.9891683 -5.4845090
v 0.9944415 1.6629800 0.1431079
vn -0.9038351 -0.0151836 0.4276116
vt 0.9891683 -2.8333111
v 0.9468755 1.6631070 0.0401010
vn -0.9038351 -0.0151836 0.4276116
vt 0.8949671 -2.8376789
v 0.9468755 -1.7176770 0.0575695
vn -0.8992000 0.0809053 0.4299926
vt 0.8949671 -5.4845090
v 0.9944330 2.1774991 0.1828604
vn -0.9020168 -0.0569818 0.4279238
vt 0.9891683 -2.4284310
v 0.9943896 2.7808311 0.2878846
vn -0.8933438 -0.1864907 0.4088497
vt 0.9891683 -1.8577719
v 0.9468755 2.8097019 0.2039777
vn -0.8933438 -0.1864907 0.4088497
vt 0.8949671 -1.8577719
v 0.9468755 2.1886320 0.0798884
vn -0.9020168 -0.0569818 0.4279238
vt 0.8949671 -2.4284310
v 0.9943564 3.4192679 0.7850143
vn -0.8835499 -0.3122992 0.3490114
vt 0.9891683 -1.2192280
v 0.9943405 3.5385001 0.9093248
vn -0.8897940 -0.3939697 0.2303359
vt 0.9891683 -1.0494800
v 0.9468755 3.6185000 0.8618767
vn -0.8897940 -0.3939697 0.2303359
vt 0.8949671 -1.0494800
v 0.9468755 3.4669659 0.7047330
vn -0.8835499 -0.3122992 0.3490114
vt 0.8949671 -1.2192280
v 0.9943449 3.5926580 1.0864300
vn -0.8838261 -0.4478230 0.1353003
vt 0.9891683 -0.8573222
v 0.9468755 3.6856060 1.0861670
vn -0.8838261 -0.4478230 0.1353003
vt 0.8949671 -0.8573222
v 0.8077117 3.7047970 1.0861670
vn -0.0564119 -0.9570875 0.2842556
vt 0.8140856 -0.8573222
v 0.8077117 3.6350491 0.8521582
vn -0.0586399 -0.8624175 0.5027897
vt 0.8140856 -1.0494800
v 0.8077117 -3.0444281 1.0942200
vn -0.0592813 0.9959113 -0.0681649
vt 0.8140856 4.9598660
v 0.8077117 -2.9651239 1.3213910
vn -0.0560993 0.9426292 -0.3290943
vt 0.8140856 4.7635350
v 0.8077117 -3.0023670 0.8858417
vn -0.0587807 0.9288505 0.3657616
vt 0.8140856 5.1249871
v 0.8077117 -2.8968060 0.7151591
vn -0.0590508 0.7475466 0.6615793
vt 0.8140852 5.2893548
v 1.3192739 -1.7153180 0.0649149
vn 0.2139808 0.1828703 0.9595680
vt 0.4680370 6.4627991
v 0.8077117 -1.7237570 0.0373776
vn -0.0580638 0.1869723 0.9806477
vt 0.8133525 6.4572401
v 0.8077117 -2.3520391 0.2813646
vn -0.0587671 0.4978625 0.8652626
vt 0.8140839 5.9270802
v 1.3191320 -2.3374341 0.3079355
vn 0.2155859 0.4868281 0.8464757
vt 0.4680381 5.9270792
v 0.8077117 2.1915951 0.0573835
vn -0.0584256 -0.1364655 0.9889205
vt 0.8140856 -2.4284310
v 0.8077117 1.6631070 0.0175683
vn -0.0583871 -0.0349298 0.9976828
vt 0.8140863 -2.8366790
v 0.8077117 2.8168299 0.1848977
vn -0.0574654 -0.4129324 0.9089469
vt 0.8140856 -1.8577719
v 0.8077117 3.4759879 0.6880618
vn -0.0565286 -0.6649829 0.7447163
vt 0.8140856 -1.2192280
v 1.3044029 -3.0638280 1.0942200
vn 0.1332874 -0.9887511 0.0678661
vt 0.3628969 4.9598660
v 1.3044029 -2.9804039 1.3333590
vn 0.1263355 -0.9366137 0.3267936
vt 0.3628969 4.7635350
v 1.3044029 -3.0203550 0.8785492
vn 0.1321536 -0.9213501 -0.3655810
vt 0.3628969 5.1249871
v 1.3044029 -2.9092889 0.7002954
vn 0.1326164 -0.7402567 -0.6591152
vt 0.3628965 5.2893538
v 1.3044029 2.1931610 0.0380370
vn 0.1279484 0.1367682 -0.9823053
vt 0.3628969 -2.4284310
v 1.3044029 1.6631070 -0.0005608
vn 0.1248444 0.0332690 -0.9916184
vt 0.3628969 -2.8361521
v 1.3044029 2.8228710 0.1683323
vn 0.1283517 0.4104310 -0.9028136
vt 0.3628969 -1.8577719
v 1.3044029 3.4850380 0.6708905
vn 0.1271839 0.6570886 -0.7430066
vt 0.3628969 -1.2192280
v 1.3044029 3.6506269 0.8405793
vn 0.1319642 0.8545344 -0.5023509
vt 0.3628969 -1.0494800
v 1.3044029 3.7241940 1.0861670
vn 0.1267892 0.9503068 -0.2843263
vt 0.3628969 -0.8573222
v 1.3752520 -3.0444281 1.0942200
vn 0.2638862 -0.9622789 0.0662071
vt 0.4141371 4.9598660
v 1.3752520 -2.9651239 1.3213910
vn 0.2506466 -0.9140225 0.3189660
vt 0.4141371 4.7635350
v 1.3752520 -3.0023670 0.8858417
vn 0.2618300 -0.8971965 -0.3556452
vt 0.4141371 5.1249871
v 1.3752520 -2.8968060 0.7151591
vn 0.2627764 -0.7209558 -0.6412265
vt 0.4141367 5.2893538
v 1.3752520 1.6631070 0.0175683
vn 0.2477363 0.0327993 -0.9682721
vt 0.4141371 -2.8364761
v 1.3752520 2.1915951 0.0573835
vn 0.2537664 0.1333680 -0.9580269
vt 0.4141371 -2.4284310
v 1.3752520 2.8168299 0.1848976
vn 0.2544203 0.4002912 -0.8803620
vt 0.4141371 -1.8577719
v 1.3752520 3.4759879 0.6880618
vn 0.2522834 0.6415576 -0.7244011
vt 0.4141371 -1.2192280
v 1.3752520 3.6350491 0.8521581
vn 0.2613559 0.8324441 -0.4885999
vt 0.4141371 -1.0494800
v 1.3752520 3.7047970 1.0861670
vn 0.2515320 0.9273310 -0.2771079
vt 0.4141371 -0.8573222
v 1.3752520 -2.3520391 0.2813646
vn 0.4729930 0.4390848 0.7638601
vt 0.4141354 5.9270792
v 1.3044029 -2.3613610 0.2644058
vn 0.1308286 -0.4928246 -0.8602371
vt 0.3628952 5.9270792
v 1.3752520 -2.3520391 0.2813646
vn 0.2593032 -0.4802999 -0.8378985
vt 0.4141354 5.9270792
v 1.3192739 -1.7153180 0.0649149
vn 0.2139808 0.1828703 0.9595680
vt 0.4680398 -5.4845090
v 1.3752520 -1.7237570 0.0373776
vn 0.4691981 0.1652392 0.8674959
vt 0.4141371 -5.4845090
v 0.8906140 -1.7290980 0.0206131
vn -0.1079669 -0.1850937 -0.9767720
vt 0.0839891 -5.4845090
v 0.8077117 -1.7237570 0.0373776
vn -0.2146069 -0.1819852 -0.9595964
vt 0.0166673 -5.4845090
v 1.2316771 -1.6872290 0.1499702
vn 0.9773822 0.0392026 0.2078156
vt 0.9891683 -5.4845090
v 1.2528160 -1.7176770 0.0575695
vn 0.9773822 0.0392026 0.2078156
vt 0.8949671 -5.4845090
v 0.8077117 -1.7237570 0.0373776
vn -0.0580638 0.1869723 0.9806477
vt 0.8132663 -5.4845090
v 1.3044029 -1.7290980 0.0206131
vn 0.1255494 -0.1846737 -0.9747477
vt 0.3628969 -5.4845090
v 1.3752520 -1.7237570 0.0373776
vn 0.2490057 -0.1803890 -0.9515545
vt 0.4141371 -5.4845090
v 1.3752520 -1.7237570 0.0373776
vn 0.4691981 0.1652392 0.8674959
vt 0.4141343 6.4570212
v 1.3044029 -1.7290980 0.0206131
vn 0.1255494 -0.1846737 -0.9747477
vt 0.3628941 6.4532099
v 1.3752520 -1.7237570 0.0373776
vn 0.2490057 -0.1803890 -0.9515545
vt 0.4141343 6.4570212
v 0.9468755 -1.7176770 0.0575695
vn -0.8992000 0.0809053 0.4299926
vt 0.8949671 6.4623380
v 0.9944206 -1.6872370 0.1499713
vn -0.8992000 0.0809053 0.4299926
vt 0.9891683 6.4790940

g group_64657680_140627908773344
f 1/1/1 2/2/2 3/3/3 
f 1/1/1 3/3/3 4/4/4 
f 5/5/5 6/6/6 2/2/2 
f 5/5/5 2/2/2 1/1/1 
f 6/6/6 5/5/5 7/7/7 
f 6/6/6 7/7/7 8/8/8 
f 8/8/8 7/7/7 9/9/9 
f 8/8/8 9/9/9 10/10/10 
f 10/10/10 9/9/9 11/11/11 
f 10/10/10 11/11/11 12/12/12 
f 13/13/13 14/14/14 15/15/15 
f 13/13/13 15/15/15 16/16/16 
f 15/15/15 14/14/14 17/17/17 
f 15/15/15 17/17/17 18/18/18 
f 19/19/19 18/18/18 17/17/17 
f 19/19/19 17/17/17 20/20/20 
f 21/21/21 22/22/22 23/23/23 
f 21/21/21 23/23/23 24/24/24 
f 25/25/25 26/26/26 27/27/27 
f 25/25/25 27/27/27 28/28/28 
f 29/29/29 25/25/25 28/28/28 
f 29/29/29 28/28/28 30/30/30 
f 30/30/30 31/31/31 32/32/32 
f 30/30/30 32/32/32 29/29/29 
f 31/31/31 33/33/33 34/34/34 
f 31/31/31 34/34/34 32/32/32 
f 33/33/33 35/35/35 36/36/36 
f 33/33/33 36/36/36 34/34/34 
f 37/37/37 38/38/38 39/39/39 
f 37/37/37 39/39/39 40/40/40 
f 41/41/41 42/42/42 43/43/43 
f 41/41/41 43/43/43 44/44/44 
f 41/41/41 45/45/45 46/46/46 
f 41/41/41 46/46/46 42/42/42 
f 46/46/46 45/45/45 47/47/47 
f 46/46/46 47/47/47 48/48/48 
f 49/49/49 50/50/50 51/51/51 
f 49/49/49 51/51/51 52/52/52 
f 53/53/53 54/54/54 49/49/49 
f 53/53/53 49/49/49 52/52/52 
f 54/54/54 53/53/53 55/55/55 
f 54/54/54 55/55/55 56/56/56 
f 56/56/56 55/55/55 57/57/57 
f 56/56/56 57/57/57 58/58/58 
f 58/58/58 57/57/57 59/59/59 
f 58/58/58 59/59/59 60/60/60 
f 61/61/61 62/62/62 63/63/63 
f 61/61/61 63/63/63 64/64/64 
f 65/65/65 66/66/66 67/67/67 
f 65/65/65 67/67/67 68/68/68 
f 66/66/66 69/69/69 70/70/70 
f 66/66/66 70/70/70 67/67/67 
f 70/70/70 69/69/69 71/71/71 
f 70/70/70 71/71/71 72/72/72 
f 73/73/73 74/74/74 75/75/75 
f 73/73/73 75/75/75 76/76/76 
f 77/77/77 78/78/78 79/79/79 
f 77/77/77 79/79/79 80/80/80 
f 81/81/81 82/82/82 79/79/79 
f 81/81/81 79/79/79 78/78/78 
f 83/83/83 84/84/84 82/82/82 
f 83/83/83 82/82/82 81/81/81 
f 85/85/85 84/84/84 83/83/83 
f 85/85/85 83/83/83 86/86/86 
f 87/87/87 88/88/88 89/89/89 
f 87/87/87 89/89/89 90/90/90 
f 91/91/91 92/92/92 93/93/93 
f 91/91/91 93/93/93 94/94/94 
f 95/95/95 96/96/96 97/97/97 
f 95/95/95 97/97/97 98/98/98 
f 99/99/99 100/100/100 97/97/97 
f 99/99/99 97/97/97 96/96/96 
f 101/101/101 102/102/102 1/1/1 
f 101/101/101 1/1/1 4/4/4 
f 17/17/17 103/103/103 104/104/104 
f 17/17/17 104/104/104 20/20/20 
f 14/14/14 105/105/105 103/103/103 
f 14/14/14 103/103/103 17/17/17 
f 13/13/13 106/106/106 105/105/105 
f 13/13/13 105/105/105 14/14/14 
f 107/107/107 108/108/108 109/109/109 
f 107/107/107 109/109/109 110/110/110 
f 111/111/111 112/112/112 11/11/11 
f 111/111/111 11/11/11 9/9/9 
f 7/7/7 113/113/113 111/111/111 
f 7/7/7 111/111/111 9/9/9 
f 114/114/114 113/113/113 7/7/7 
f 114/114/114 7/7/7 5/5/5 
f 1/1/1 102/102/102 114/114/114 
f 1/1/1 114/114/114 5/5/5 
f 47/47/47 45/45/45 115/115/115 
f 47/47/47 115/115/115 116/116/116 
f 45/45/45 41/41/41 117/117/117 
f 45/45/45 117/117/117 115/115/115 
f 41/41/41 44/44/44 118/118/118 
f 41/41/41 118/118/118 117/117/117 
f 35/35/35 33/33/33 119/119/119 
f 35/35/35 119/119/119 120/120/120 
f 33/33/33 31/31/31 121/121/121 
f 33/33/33 121/121/121 119/119/119 
f 31/31/31 30/30/30 122/122/122 
f 31/31/31 122/122/122 121/121/121 
f 30/30/30 28/28/28 123/123/123 
f 30/30/30 123/123/123 122/122/122 
f 27/27/27 124/124/124 123/123/123 
f 27/27/27 123/123/123 28/28/28 
f 115/115/115 125/125/125 126/126/126 
f 115/115/115 126/126/126 116/116/116 
f 125/125/125 115/115/115 117/117/117 
f 125/125/125 117/117/117 127/127/127 
f 117/117/117 118/118/118 128/128/128 
f 117/117/117 128/128/128 127/127/127 
f 129/129/129 120/120/120 119/119/119 
f 129/129/129 119/119/119 130/130/130 
f 130/130/130 119/119/119 121/121/121 
f 130/130/130 121/121/121 131/131/131 
f 131/131/131 121/121/121 122/122/122 
f 131/131/131 122/122/122 132/132/132 
f 132/132/132 122/122/122 123/123/123 
f 132/132/132 123/123/123 133/133/133 
f 133/133/133 123/123/123 124/124/124 
f 133/133/133 124/124/124 134/134/134 
f 135/135/135 110/110/110 13/13/13 
f 135/135/135 13/13/13 16/16/16 
f 37/37/37 40/40/40 44/44/44 
f 37/37/37 44/44/44 43/43/43 
f 64/64/64 63/63/63 65/65/65 
f 64/64/64 65/65/65 68/68/68 
f 109/109/109 106/106/106 13/13/13 
f 109/109/109 13/13/13 110/110/110 
f 40/40/40 136/136/136 118/118/118 
f 40/40/40 118/118/118 44/44/44 
f 137/137/137 128/128/128 118/118/118 
f 137/137/137 118/118/118 136/136/136 
f 12/12/12 11/11/11 138/138/138 
f 12/12/12 138/138/138 139/139/139 
f 36/36/36 35/35/35 140/140/140 
f 36/36/36 140/140/140 141/141/141 
f 142/142/142 143/143/143 60/60/60 
f 142/142/142 60/60/60 59/59/59 
f 88/88/88 91/91/91 94/94/94 
f 88/88/88 94/94/94 89/89/89 
f 11/11/11 112/112/112 144/144/144 
f 11/11/11 144/144/144 138/138/138 
f 140/140/140 35/35/35 120/120/120 
f 140/140/140 120/120/120 145/145/145 
f 120/120/120 129/129/129 146/146/146 
f 120/120/120 146/146/146 145/145/145 
f 92/92/92 95/95/95 98/98/98 
f 92/92/92 98/98/98 93/93/93 
f 110/110/110 135/135/135 147/147/147 
f 110/110/110 147/147/147 107/107/107 
f 40/40/40 39/39/39 148/148/148 
f 40/40/40 148/148/148 136/136/136 
f 137/137/137 136/136/136 148/148/148 
f 137/137/137 148/148/148 149/149/149 
f 150/150/150 85/85/85 86/86/86 
f 150/150/150 86/86/86 151/151/151 
