v -0.2089223 1.3979990 2.0045409
vn 0.0000000 -0.0002833 1.0000000
vt 0.0260486 0.3607199
v -0.1023704 1.3979990 2.0045409
vn 0.0000000 -0.0002833 1.0000000
vt 0.0259783 0.3746374
v -0.1023704 1.4233119 2.0045481
vn 0.0000000 -0.0002833 1.0000000
vt 0.0231681 0.3746374
v -0.2089223 1.4233119 2.0045481
vn 0.0000000 -0.0002833 1.0000000
vt 0.0232381 0.3607199
v -0.1996985 1.5239590 2.0031159
vn 0.0000000 0.0000000 1.0000000
vt 0.0160537 0.3960877
v -0.1996985 1.2579610 2.0031061
vn 0.0000000 0.0000000 1.0000000
vt 0.0505166 0.3960878
v -0.1077419 1.2579610 2.0031159
vn 0.0000000 0.0000000 1.0000000
vt 0.0505166 0.4120712
v -0.1077419 1.5239580 2.0031159
vn 0.0000000 0.0000000 1.0000000
vt 0.0160537 0.4120712
v -0.0880399 1.2579610 1.8379610
vn 1.0000000 0.0000000 0.0000000
vt 0.0505166 0.3960878
v -0.0880399 1.5453850 1.8379610
vn 1.0000000 0.0000000 0.0000000
vt 0.0160537 0.3960877
v -0.0880399 1.5453850 2.0031021
vn 1.0000000 0.0000000 0.0000000
vt 0.0160537 0.3770962
v -0.0880399 1.5239590 2.0030949
vn 1.0000000 0.0000000 0.0000000
vt 0.0186227 0.3770966
v -0.0880399 1.2579610 1.9905740
vn 1.0000000 0.0000000 0.0000000
vt 0.0505166 0.3771242
v -0.2194007 1.5453850 2.0031021
vn -1.0000000 0.0000000 0.0000000
vt 0.0160537 0.4320294
v -0.2194007 1.5453850 1.8379610
vn -1.0000000 0.0000000 0.0000000
vt 0.0160537 0.4120712
v -0.2194007 1.5239590 2.0030949
vn -1.0000000 0.0000000 0.0000000
vt 0.0186227 0.4320291
v -0.2194007 1.2579610 1.8379610
vn -1.0000000 0.0000000 0.0000000
vt 0.0505166 0.4120712
v -0.2194008 1.2579610 1.9891980
vn -1.0000000 0.0000000 0.0000000
vt 0.0505166 0.4303498
v -0.2194007 1.2579610 1.8379610
vn 0.0000000 0.0000000 -1.0000000
vt 0.0505166 0.4120712
v -0.2194007 1.5453850 1.8379610
vn 0.0000000 0.0000000 -1.0000000
vt 0.0160537 0.4120712
v -0.0880399 1.5453850 1.8379610
vn 0.0000000 0.0000000 -1.0000000
vt 0.0160537 0.3960877
v -0.0880399 1.2579610 1.8379610
vn 0.0000000 0.0000000 -1.0000000
vt 0.0505166 0.3960878
v -0.2194007 1.5453850 1.8379610
vn 0.0000000 1.0000000 0.0000000
vt 0.0011275 0.3973158
v -0.2194007 1.5453850 2.0031021
vn 0.0000000 0.7073359 0.7068777
vt 0.0011955 0.3802892
v -0.0880399 1.5453850 2.0031021
vn 0.0000000 0.7073359 0.7068777
vt 0.0160537 0.3802892
v -0.0880399 1.5453850 1.8379610
vn 0.0000000 1.0000000 0.0000000
vt 0.0160537 0.3973158
v -0.0880399 1.5453850 2.0031021
vn 0.0010555 -0.0003205 0.9999994
vt 0.0160537 0.3770962
v -0.1077419 1.5239580 2.0031159
vn 0.0010555 -0.0003205 0.9999994
vt 0.0168570 0.3736022
v -0.0880399 1.5239590 2.0030949
vn 0.0010555 -0.0003205 0.9999994
vt 0.0186227 0.3770966
v -0.2194007 1.5453850 2.0031021
vn -0.0010555 -0.0003205 0.9999994
vt 0.0160537 0.3592477
v -0.2194007 1.5239590 2.0030949
vn -0.0010555 -0.0003205 0.9999994
vt 0.0186227 0.3592475
v -0.1996985 1.5239590 2.0031159
vn -0.0010555 -0.0003205 0.9999994
vt 0.0168570 0.3625911
v -0.1996985 1.5239590 2.0031159
vn 0.0000000 0.0006481 0.9999998
vt 0.0033888 0.3780361
v -0.1077419 1.5239580 2.0031159
vn 0.0000000 0.0006481 0.9999998
vt 0.0137830 0.3780361
v -0.1996985 1.2579610 2.0031061
vn -0.3331759 -0.0246410 0.9425427
vt 0.0505166 0.3736022
v -0.1996985 1.5239590 2.0031159
vn -0.3331759 -0.0246410 0.9425427
vt 0.0194277 0.3721902
v -0.2194007 1.5239590 2.0030949
vn -0.3331759 -0.0246410 0.9425427
vt 0.0186227 0.3770963
v -0.2194008 1.2579610 1.9891980
vn -0.3331759 -0.0246410 0.9425427
vt 0.0505166 0.3771242
v -0.1077419 1.5239580 2.0031159
vn 0.3036858 -0.0224193 0.9525084
vt 0.0194277 0.3721902
v -0.1077419 1.2579610 2.0031159
vn 0.3036858 -0.0224193 0.9525084
vt 0.0505166 0.3736022
v -0.0880399 1.2579610 1.9905740
vn 0.3036858 -0.0224193 0.9525084
vt 0.0505166 0.3771242
v -0.0880399 1.5239590 2.0030949
vn 0.3036858 -0.0224193 0.9525084
vt 0.0186227 0.3770963
v -0.1625701 1.6532880 1.9830960
vn -0.8617687 -0.0990724 -0.4975334
vt 0.0628107 0.4247571
v -0.1625701 1.6532880 1.9953090
vn -0.8617663 -0.0990735 0.4975373
vt 0.0609763 0.4247570
v -0.1692016 1.7301950 1.9991370
vn -0.8617663 -0.0990735 0.4975373
vt 0.0609763 0.4204051
v -0.1692016 1.7301950 1.9792670
vn -0.8617687 -0.0990724 -0.4975334
vt 0.0628107 0.4204051
v -0.1519932 1.6532880 1.9769890
vn 0.0000000 -0.0990703 -0.9950805
vt 0.0646388 0.4247571
v -0.1519932 1.7301950 1.9693320
vn 0.0000000 -0.0990703 -0.9950805
vt 0.0646388 0.4204051
v -0.1414160 1.6532880 1.9830960
vn 0.8617680 -0.0990695 -0.4975352
vt 0.0554346 0.4247568
v -0.1519932 1.6532880 1.9769890
vn 0.0000000 -0.0990703 -0.9950805
vt 0.0536179 0.4247568
v -0.1519932 1.7301950 1.9693320
vn 0.0000000 -0.0990703 -0.9950805
vt 0.0536179 0.4204051
v -0.1347849 1.7301950 1.9792670
vn 0.8617680 -0.0990695 -0.4975352
vt 0.0554346 0.4204051
v -0.1414160 1.6532880 1.9953090
vn 0.8617657 -0.0990708 0.4975387
vt 0.0572755 0.4247569
v -0.1347849 1.7301950 1.9991370
vn 0.8617657 -0.0990708 0.4975387
vt 0.0572755 0.4204051
v -0.1519932 1.6532880 2.0014160
vn 0.0000000 -0.0990718 0.9950803
vt 0.0591368 0.4247569
v -0.1519932 1.7301950 2.0090730
vn 0.0000000 -0.0990718 0.9950803
vt 0.0591368 0.4204051
v -0.1347849 1.7301950 1.9991370
vn 0.0000000 1.0000000 0.0000000
vt 0.0582171 0.4188122
v -0.1347849 1.7301950 1.9792670
vn 0.0000000 1.0000000 0.0000000
vt 0.0591368 0.4172192
v -0.1519932 1.7301950 2.0090730
vn 0.0000000 1.0000000 0.0000000
vt 0.0591368 0.4204051
v -0.1692016 1.7301950 1.9792670
vn 0.0000000 1.0000000 0.0000000
vt 0.0618961 0.4188122
v -0.1519932 1.7301950 1.9693320
vn 0.0000000 1.0000000 0.0000000
vt 0.0609763 0.4172192
v -0.1692016 1.7301950 1.9991370
vn 0.0000000 1.0000000 0.0000000
vt 0.0609763 0.4204051
v -0.1519931 1.0101650 1.9892020
vn -0.0001824 -1.0000000 0.0000000
vt 0.0582089 0.4723765
v -0.1414160 1.6532880 1.9953090
vn 0.8658682 -0.0189876 0.4999118
vt 0.0572755 0.4247569
v -0.1519932 1.6532880 2.0014160
vn 0.0000000 -0.0189872 0.9998198
vt 0.0591368 0.4247569
v -0.1414160 1.6532880 1.9830960
vn 0.8658682 -0.0189876 -0.4999118
vt 0.0554346 0.4247568
v -0.1519932 1.6532880 1.9769890
vn 0.0000000 -0.0189872 -0.9998198
vt 0.0536179 0.4247568
v -0.1519931 1.0101650 1.9892020
vn -0.0001824 -1.0000000 0.0000000
vt 0.0654157 0.4723557
v -0.1625701 1.6532880 1.9830960
vn -0.8658708 -0.0189874 -0.4999073
vt 0.0628107 0.4247571
v -0.1519932 1.6532880 1.9769890
vn 0.0000000 -0.0189872 -0.9998198
vt 0.0646388 0.4247571
v -0.1625701 1.6532880 1.9953090
vn -0.8658708 -0.0189874 0.4999073
vt 0.0609763 0.4247570
v -0.2890263 1.2722100 1.7237790
vn 0.0000000 0.7445661 -0.6675488
vt 0.0512328 0.4535795
v 0.1295075 1.2722100 1.7237790
vn 0.0000000 0.7445661 -0.6675488
vt 0.0012629 0.4535795
v 0.1295075 1.1261190 1.6613851
vn 0.0000000 0.3927672 -0.9196380
vt 0.0012629 0.4335432
v -0.2890263 1.1261190 1.6613851
vn 0.0000000 0.3927672 -0.9196380
vt 0.0512328 0.4335432
v -0.2890263 1.1261190 2.2051361
vn 0.0000000 0.4921215 0.8705266
vt 0.0512328 0.5233704
v 0.1295075 1.1261190 2.2051361
vn 0.0000000 0.4921215 0.8705266
vt 0.0012629 0.5233704
v 0.1295075 1.2722100 2.1225481
vn 0.0000000 0.7804143 0.6252629
vt 0.0012629 0.5033339
v -0.2890263 1.2722100 2.1225481
vn 0.0000000 0.7804143 0.6252629
vt 0.0512328 0.5033339
v 0.1295075 1.3327240 1.9231631
vn 0.0000000 1.0000000 0.0000000
vt 0.0012629 0.4784567
v -0.2890263 1.3327240 1.9231631
vn 0.0000000 1.0000000 0.0000000
vt 0.0512328 0.4784567
v 0.0351758 2.0200460 2.0016110
vn 0.0000000 0.0000000 1.0000000
vt 0.2184489 0.6128801
v 0.0351758 1.2860430 2.0016110
vn 0.0000000 0.0000000 1.0000000
vt 0.3060832 0.6128803
v 0.0907397 1.2860430 1.9785960
vn 0.7071048 0.0000000 0.7071088
vt 0.3060832 0.6200608
v 0.0907397 2.0200460 1.9785960
vn 0.7071048 0.0000000 0.7071088
vt 0.2184489 0.6200608
v 0.1137550 1.2860430 1.9230330
vn 1.0000000 0.0000000 0.0000000
vt 0.3060832 0.6272413
v 0.1137550 2.0200460 1.9230320
vn 1.0000000 0.0000000 0.0000000
vt 0.2184489 0.6272413
v 0.0907397 1.2860430 1.8674690
vn 0.7071060 0.0000000 -0.7071076
vt 0.3060832 0.6344217
v 0.0907397 2.0200460 1.8674680
vn 0.7071060 0.0000000 -0.7071076
vt 0.2184489 0.6344217
v 0.0351758 1.2860430 1.8444530
vn 0.0000000 0.0000000 -1.0000000
vt 0.3060832 0.6416024
v 0.0351758 2.0200460 1.8444530
vn 0.0000000 0.0000000 -1.0000000
vt 0.2184489 0.6416022
v 0.0351758 2.0200460 1.8444530
vn 0.0000000 0.0000000 -1.0000000
vt 0.2184489 0.5841583
v 0.0351758 1.2860430 1.8444530
vn 0.0000000 0.0000000 -1.0000000
vt 0.3060832 0.5841583
v -0.0203880 1.2860430 1.8674690
vn -0.7071059 0.0000000 -0.7071077
vt 0.3060832 0.5913388
v -0.0203880 2.0200460 1.8674680
vn -0.7071059 0.0000000 -0.7071077
vt 0.2184489 0.5913388
v -0.0434033 1.2860430 1.9230330
vn -1.0000000 0.0000000 0.0000000
vt 0.3060832 0.5985192
v -0.0434033 2.0200460 1.9230320
vn -1.0000000 0.0000000 0.0000000
vt 0.2184489 0.5985192
v -0.0203880 1.2860430 1.9785960
vn -0.7071047 0.0000000 0.7071089
vt 0.3060832 0.6056997
v -0.0203880 2.0200460 1.9785960
vn -0.7071047 0.0000000 0.7071089
vt 0.2184489 0.6056997
v -0.0384961 2.3533280 1.9962111
vn -0.7071062 0.0000000 0.7071074
vt 0.7556407 0.6764447
v -0.0384961 1.9926780 1.9962111
vn -0.7071062 0.0000000 0.7071074
vt 0.7125821 0.6764447
v 0.0351758 1.9926780 2.0267270
vn 0.0000000 0.0000000 1.0000000
vt 0.7125821 0.6669241
v 0.0351758 2.3533280 2.0267270
vn 0.0000000 0.0000000 1.0000000
vt 0.7556407 0.6669239
v 0.1088478 1.9926780 1.9962111
vn 0.7071064 0.0000000 0.7071072
vt 0.7125821 0.6574035
v 0.1088478 2.3533280 1.9962111
vn 0.7071064 0.0000000 0.7071072
vt 0.7556407 0.6574035
v 0.1393637 1.9926780 1.9225390
vn 1.0000000 0.0000000 0.0000000
vt 0.7125821 0.6478829
v 0.1393637 2.3533280 1.9225390
vn 1.0000000 0.0000000 0.0000000
vt 0.7556407 0.6478829
v 0.1088478 1.9926780 1.8488671
vn 0.7071071 0.0000000 -0.7071065
vt 0.7125821 0.6383622
v 0.1088478 2.3533280 1.8488671
vn 0.7071071 0.0000000 -0.7071065
vt 0.7556409 0.6383622
v 0.0351758 1.9926780 1.8183510
vn 0.0000000 0.0000000 -1.0000000
vt 0.7125821 0.6288418
v 0.0351758 2.3533280 1.8183510
vn 0.0000000 0.0000000 -1.0000000
vt 0.7556409 0.6288418
v 0.0351758 2.3533280 1.8183510
vn 0.0000000 0.0000000 -1.0000000
vt 0.7556409 0.7050064
v 0.0351758 1.9926780 1.8183510
vn 0.0000000 0.0000000 -1.0000000
vt 0.7125821 0.7050063
v -0.0384961 1.9926780 1.8488671
vn -0.7071071 0.0000000 -0.7071065
vt 0.7125823 0.6954860
v -0.0384961 2.3533280 1.8488671
vn -0.7071071 0.0000000 -0.7071065
vt 0.7556409 0.6954860
v -0.0690120 1.9926780 1.9225390
vn -1.0000000 0.0000000 0.0000000
vt 0.7125823 0.6859654
v -0.0690120 2.3533280 1.9225390
vn -1.0000000 0.0000000 0.0000000
vt 0.7556409 0.6859652
v -0.0690120 1.9926780 1.9225390
vn 0.0000000 -1.0000000 0.0000000
vt 0.0103616 0.6515518
v -0.0384961 1.9926780 1.8488671
vn 0.0000000 -1.0000000 0.0000000
vt 0.0184182 0.6515515
v 0.0351758 1.9926780 1.8183510
vn 0.0000000 -1.0000000 0.0000000
vt 0.0245000 0.6574737
v 0.1088478 1.9926780 1.8488671
vn 0.0000000 -1.0000000 0.0000000
vt 0.0245001 0.6658490
v 0.1393637 1.9926780 1.9225390
vn 0.0000000 -1.0000000 0.0000000
vt 0.0185781 0.6717713
v 0.1088478 1.9926780 1.9962111
vn 0.0000000 -1.0000000 0.0000000
vt 0.0102028 0.6717714
v 0.0351758 1.9926780 2.0267270
vn 0.0000000 -1.0000000 0.0000000
vt 0.0042805 0.6658496
v -0.0384961 1.9926780 1.9962111
vn 0.0000000 -1.0000000 0.0000000
vt 0.0042802 0.6574743
v 0.0016498 2.3533280 1.9539649
vn 0.7047163 0.0818419 -0.7047531
vt 0.6080716 0.9683393
v 0.0351758 2.3533280 1.9678520
vn 0.0000000 0.0807534 -0.9967342
vt 0.5969671 0.9729389
v 0.0351758 1.7940331 1.9225390
vn 0.0000000 0.9999983 -0.0018540
vt 0.5969671 0.9572349
v 0.0687019 2.3533280 1.9539649
vn -0.7047163 0.0818419 -0.7047531
vt 0.5858628 0.9683393
v 0.0825888 2.3533280 1.9204390
vn -0.9964260 0.0844697 0.0000000
vt 0.5812632 0.9572349
v 0.0687019 2.3533280 1.8869129
vn -0.7044426 0.0870953 0.7043970
vt 0.5858628 0.9461304
v 0.0351758 2.3533280 1.8730260
vn 0.0000000 0.0881822 0.9961044
vt 0.5969671 0.9415308
v 0.0016498 2.3533280 1.8869129
vn 0.7044423 0.0870953 0.7043972
vt 0.6080716 0.9461304
v -0.0122371 2.3533280 1.9204390
vn 0.9964260 0.0844697 0.0000000
vt 0.6126711 0.9572349
v 0.0016498 2.3533280 1.9539649
vn 0.0000000 1.0000000 0.0000000
vt 0.0337629 0.6893110
v -0.0384961 2.3533280 1.9962111
vn 0.0000000 1.0000000 0.0000000
vt 0.0278262 0.6910079
v 0.0351758 2.3533280 2.0267270
vn 0.0000000 1.0000000 0.0000000
vt 0.0278266 0.6826179
v 0.0351758 2.3533280 1.9678520
vn 0.0000000 1.0000000 0.0000000
vt 0.0337526 0.6856874
v 0.1088478 2.3533280 1.9962111
vn 0.0000000 1.0000000 0.0000000
vt 0.0337594 0.6766858
v 0.0687019 2.3533280 1.9539649
vn 0.0000000 1.0000000 0.0000000
vt 0.0363118 0.6831231
v 0.1393637 2.3533280 1.9225390
vn 0.0000000 1.0000000 0.0000000
vt 0.0421492 0.6766862
v 0.0825888 2.3533280 1.9204390
vn 0.0000000 1.0000000 0.0000000
vt 0.0399356 0.6831203
v 0.1088478 2.3533280 1.8488671
vn 0.0000000 1.0000000 0.0000000
vt 0.0480813 0.6826191
v 0.0687019 2.3533280 1.8869129
vn 0.0000000 1.0000000 0.0000000
vt 0.0424989 0.6856802
v 0.0351758 2.3533280 1.8183510
vn 0.0000000 1.0000000 0.0000000
vt 0.0480810 0.6910087
v 0.0351758 2.3533280 1.8730260
vn 0.0000000 1.0000000 0.0000000
vt 0.0424946 0.6893008
v -0.0384961 2.3533280 1.8488671
vn 0.0000000 1.0000000 0.0000000
vt 0.0419887 0.6969408
v 0.0016498 2.3533280 1.8869129
vn 0.0000000 1.0000000 0.0000000
vt 0.0399048 0.6918681
v -0.0690120 2.3533280 1.9225390
vn 0.0000000 1.0000000 0.0000000
vt 0.0339180 0.6969408
v -0.0122371 2.3533280 1.9204390
vn 0.0000000 1.0000000 0.0000000
vt 0.0363474 0.6918719
v -0.1519931 1.0101650 1.9892020
vn -0.0001824 -1.0000000 0.0000000
vt 0.0582089 0.4723765
v -0.1519931 1.0101650 1.9892020
vn -0.0001824 -1.0000000 0.0000000
vt 0.0582089 0.4723765
v -0.1519931 1.0101650 1.9892020
vn -0.0001824 -1.0000000 0.0000000
vt 0.0582089 0.4723765
v 0.0351758 1.7940331 1.9225390
vn 0.0000000 0.9999983 -0.0018540
vt 0.5969671 0.9572349
v 0.0351758 1.7940331 1.9225390
vn 0.0000000 0.9999983 -0.0018540
vt 0.5969671 0.9572349
v 0.0351758 1.7940331 1.9225390
vn 0.0000000 0.9999983 -0.0018540
vt 0.5969671 0.9572349
v 0.0351758 1.7940331 1.9225390
vn 0.0000000 0.9999983 -0.0018540
vt 0.5969671 0.9572349

g group_64656840_140627908771968
f 1/1/1 2/2/2 3/3/3 
f 1/1/1 3/3/3 4/4/4 
f 5/5/5 6/6/6 7/7/7 
f 5/5/5 7/7/7 8/8/8 
f 9/9/9 10/10/10 11/11/11 
f 9/9/9 11/11/11 12/12/12 
f 9/9/9 12/12/12 13/13/13 
f 14/14/14 15/15/15 16/16/16 
f 17/17/17 18/18/18 16/16/16 
f 17/17/17 16/16/16 15/15/15 
f 19/19/19 20/20/20 21/21/21 
f 19/19/19 21/21/21 22/22/22 
f 23/23/23 24/24/24 25/25/25 
f 23/23/23 25/25/25 26/26/26 
f 27/27/27 28/28/28 29/29/29 
f 30/30/30 31/31/31 32/32/32 
f 33/33/33 34/34/34 25/25/25 
f 33/33/33 25/25/25 24/24/24 
f 35/35/35 36/36/36 37/37/37 
f 35/35/35 37/37/37 38/38/38 
f 39/39/39 40/40/40 41/41/41 
f 39/39/39 41/41/41 42/42/42 
f 43/43/43 44/44/44 45/45/45 
f 43/43/43 45/45/45 46/46/46 
f 47/47/47 43/43/43 46/46/46 
f 47/47/47 46/46/46 48/48/48 
f 49/49/49 50/50/50 51/51/51 
f 49/49/49 51/51/51 52/52/52 
f 53/53/53 49/49/49 52/52/52 
f 53/53/53 52/52/52 54/54/54 
f 55/55/55 53/53/53 54/54/54 
f 55/55/55 54/54/54 56/56/56 
f 44/44/44 55/55/55 56/56/56 
f 44/44/44 56/56/56 45/45/45 
f 57/57/57 58/58/58 59/59/59 
f 60/60/60 59/59/59 58/58/58 
f 60/60/60 58/58/58 61/61/61 
f 60/60/60 62/62/62 59/59/59 
f 63/63/63 64/64/64 65/65/65 
f 63/63/63 66/66/66 64/64/64 
f 151/151/151 67/67/67 66/66/66 
f 68/68/68 69/69/69 70/70/70 
f 152/152/152 71/71/71 69/69/69 
f 153/153/153 65/65/65 71/71/71 
f 72/72/72 73/73/73 74/74/74 
f 72/72/72 74/74/74 75/75/75 
f 76/76/76 77/77/77 78/78/78 
f 76/76/76 78/78/78 79/79/79 
f 79/79/79 78/78/78 80/80/80 
f 79/79/79 80/80/80 81/81/81 
f 81/81/81 80/80/80 73/73/73 
f 81/81/81 73/73/73 72/72/72 
f 82/82/82 83/83/83 84/84/84 
f 82/82/82 84/84/84 85/85/85 
f 85/85/85 84/84/84 86/86/86 
f 85/85/85 86/86/86 87/87/87 
f 87/87/87 86/86/86 88/88/88 
f 87/87/87 88/88/88 89/89/89 
f 89/89/89 88/88/88 90/90/90 
f 89/89/89 90/90/90 91/91/91 
f 92/92/92 93/93/93 94/94/94 
f 92/92/92 94/94/94 95/95/95 
f 95/95/95 94/94/94 96/96/96 
f 95/95/95 96/96/96 97/97/97 
f 97/97/97 96/96/96 98/98/98 
f 97/97/97 98/98/98 99/99/99 
f 99/99/99 98/98/98 83/83/83 
f 99/99/99 83/83/83 82/82/82 
f 100/100/100 101/101/101 102/102/102 
f 100/100/100 102/102/102 103/103/103 
f 103/103/103 102/102/102 104/104/104 
f 103/103/103 104/104/104 105/105/105 
f 105/105/105 104/104/104 106/106/106 
f 105/105/105 106/106/106 107/107/107 
f 107/107/107 106/106/106 108/108/108 
f 107/107/107 108/108/108 109/109/109 
f 109/109/109 108/108/108 110/110/110 
f 109/109/109 110/110/110 111/111/111 
f 112/112/112 113/113/113 114/114/114 
f 112/112/112 114/114/114 115/115/115 
f 115/115/115 114/114/114 116/116/116 
f 115/115/115 116/116/116 117/117/117 
f 117/117/117 116/116/116 101/101/101 
f 117/117/117 101/101/101 100/100/100 
f 118/118/118 119/119/119 120/120/120 
f 118/118/118 120/120/120 121/121/121 
f 118/118/118 121/121/121 122/122/122 
f 118/118/118 122/122/122 123/123/123 
f 118/118/118 123/123/123 124/124/124 
f 118/118/118 124/124/124 125/125/125 
f 126/126/126 127/127/127 128/128/128 
f 127/127/127 129/129/129 128/128/128 
f 129/129/129 130/130/130 128/128/128 
f 130/130/130 131/131/131 154/154/154 
f 131/131/131 132/132/132 155/155/155 
f 132/132/132 133/133/133 156/156/156 
f 133/133/133 134/134/134 157/157/157 
f 134/134/134 126/126/126 128/128/128 
f 135/135/135 136/136/136 137/137/137 
f 135/135/135 137/137/137 138/138/138 
f 138/138/138 137/137/137 139/139/139 
f 138/138/138 139/139/139 140/140/140 
f 140/140/140 139/139/139 141/141/141 
f 140/140/140 141/141/141 142/142/142 
f 142/142/142 141/141/141 143/143/143 
f 142/142/142 143/143/143 144/144/144 
f 144/144/144 143/143/143 145/145/145 
f 144/144/144 145/145/145 146/146/146 
f 146/146/146 145/145/145 147/147/147 
f 146/146/146 147/147/147 148/148/148 
f 148/148/148 147/147/147 149/149/149 
f 148/148/148 149/149/149 150/150/150 
f 150/150/150 149/149/149 136/136/136 
f 150/150/150 136/136/136 135/135/135 
