v 1.2986790 1.9757770 0.8712235
vn 0.0000000 -0.4999985 0.8660263
vt 0.9815091 0.3911772
v 1.5361620 1.9757770 0.8712235
vn 0.0000000 -0.4999985 0.8660263
vt 0.9815092 0.3698949
v 1.5361620 2.1843519 0.9271112
vn 0.0000000 0.0000000 1.0000000
vt 0.9987329 0.3698949
v 1.2986790 2.1843519 0.9271112
vn 0.0000000 0.0000000 1.0000000
vt 0.9987329 0.3911772
v 1.2986790 1.8230890 0.7185364
vn 0.0000000 -0.8660244 0.5000018
vt 0.9640872 0.3911772
v 1.5361620 1.8230890 0.7185364
vn 0.0000000 -0.8660244 0.5000018
vt 0.9640875 0.3698949
v 1.2986790 1.7672009 0.5099615
vn 0.0000000 -1.0000000 0.0000000
vt 0.9467648 0.3911771
v 1.5361620 1.7672009 0.5099615
vn 0.0000000 -1.0000000 0.0000000
vt 0.9467648 0.3698949
v 1.5361620 2.3929269 0.8712234
vn 0.0000000 0.5000008 0.8660250
vt 0.9815092 0.3698949
v 1.2986790 2.3929269 0.8712234
vn 0.0000000 0.5000008 0.8660250
vt 0.9815091 0.3911772
v 1.5361620 2.5456140 0.7185361
vn 0.0000000 0.8660251 0.5000005
vt 0.9640875 0.3698949
v 1.2986790 2.5456140 0.7185361
vn 0.0000000 0.8660251 0.5000005
vt 0.9640872 0.3911772
v 1.5361620 2.6015010 0.5099615
vn 0.0000000 1.0000000 0.0000000
vt 0.9467648 0.3698949
v 1.2986790 2.6015010 0.5099615
vn 0.0000000 1.0000000 0.0000000
vt 0.9467648 0.3911771
v 1.5361620 2.1843519 0.0928118
vn 0.0000000 0.0000000 -1.0000000
vt 0.9987329 0.3698949
v 1.5361620 1.9757770 0.1486995
vn 0.0000000 -0.4999989 -0.8660261
vt 0.9815092 0.3698949
v 1.2986790 1.9757770 0.1486995
vn 0.0000000 -0.4999989 -0.8660261
vt 0.9815091 0.3911772
v 1.2986790 2.1843519 0.0928118
vn 0.0000000 0.0000000 -1.0000000
vt 0.9987329 0.3911772
v 1.5361620 1.8230890 0.3013867
vn 0.0000000 -0.8660244 -0.5000018
vt 0.9640875 0.3698949
v 1.2986790 1.8230890 0.3013867
vn 0.0000000 -0.8660244 -0.5000018
vt 0.9640872 0.3911772
v 1.2986790 2.3929260 0.1486995
vn 0.0000000 0.5000002 -0.8660253
vt 0.9815091 0.3911772
v 1.5361620 2.3929260 0.1486995
vn 0.0000000 0.5000002 -0.8660253
vt 0.9815092 0.3698949
v 1.2986790 2.5456140 0.3013866
vn 0.0000000 0.8660250 -0.5000008
vt 0.9640872 0.3911772
v 1.5361620 2.5456140 0.3013866
vn 0.0000000 0.8660250 -0.5000008
vt 0.9640875 0.3698949
v 1.2986790 2.3929260 0.1486995
vn -1.0000000 0.0000000 0.0000000
vt 0.9007436 0.0729086
v 1.2986790 2.1843519 0.0928118
vn -1.0000000 0.0000000 0.0000000
vt 0.9175587 0.0640274
v 1.2986790 1.9757770 0.1486995
vn -1.0000000 0.0000000 0.0000000
vt 0.9277425 0.0479228
v 1.2986790 1.8230890 0.3013867
vn -1.0000000 0.0000000 0.0000000
vt 0.9284530 0.0289761
v 1.2986790 2.5456140 0.3013866
vn -1.0000000 0.0000000 0.0000000
vt 0.8816785 0.0721981
v 1.2986790 2.6015010 0.5099615
vn -1.0000000 0.0000000 0.0000000
vt 0.8655739 0.0620143
v 1.2986790 2.5456140 0.7185361
vn -1.0000000 0.0000000 0.0000000
vt 0.8566927 0.0451992
v 1.2986790 2.3929269 0.8712234
vn -1.0000000 0.0000000 0.0000000
vt 0.8575216 0.0261341
v 1.2986790 1.7672009 0.5099615
vn -1.0000000 0.0000000 0.0000000
vt 0.9195717 0.0121610
v 1.2986790 1.8230890 0.7185364
vn -1.0000000 0.0000000 0.0000000
vt 0.9034672 0.0019772
v 1.2986790 1.9757770 0.8712235
vn -1.0000000 0.0000000 0.0000000
vt 0.8845205 0.0012666
v 1.2986790 2.1843519 0.9271112
vn -1.0000000 0.0000000 0.0000000
vt 0.8675869 0.0100294
v 1.5361620 1.9757770 0.8712235
vn 1.0000000 0.0000000 0.0000000
vt 0.9648240 0.3056810
v 1.5361620 1.8230890 0.7185364
vn 1.0000000 0.0000000 0.0000000
vt 0.9496338 0.3114285
v 1.5361620 1.7672009 0.5099615
vn 1.0000000 0.0000000 0.0000000
vt 0.9394524 0.3240731
v 1.5361620 2.1843519 0.9271112
vn 1.0000000 0.0000000 0.0000000
vt 0.9808351 0.3082263
v 1.5361620 2.3929269 0.8712234
vn 1.0000000 0.0000000 0.0000000
vt 0.9934796 0.3184077
v 1.5361620 2.5456140 0.7185361
vn 1.0000000 0.0000000 0.0000000
vt 0.9992273 0.3335977
v 1.5361620 2.6015010 0.5099615
vn 1.0000000 0.0000000 0.0000000
vt 0.9966820 0.3496088
v 1.5361620 2.5456140 0.3013866
vn 1.0000000 0.0000000 0.0000000
vt 0.9865005 0.3621715
v 1.5361620 2.3929260 0.1486995
vn 1.0000000 0.0000000 0.0000000
vt 0.9713105 0.3680010
v 1.5361620 2.1843519 0.0928118
vn 1.0000000 0.0000000 0.0000000
vt 0.9552994 0.3654557
v 1.5361620 1.9757770 0.1486995
vn 1.0000000 0.0000000 0.0000000
vt 0.9427367 0.3552743
v 1.5361620 1.8230890 0.3013867
vn 1.0000000 0.0000000 0.0000000
vt 0.9369069 0.3400843
v 1.0064590 2.1856840 0.5897917
vn 0.0000000 0.0009622 0.9999995
vt 0.9909640 0.2949704
v 1.0064590 2.1056249 0.5097320
vn -0.0021406 -0.9999977 0.0000000
vt 0.9909640 0.2843448
v 1.5312690 2.1045010 0.5097320
vn -0.0021406 -0.9999977 0.0000000
vt 0.9171851 0.2843448
v 1.5312690 2.1845610 0.5897918
vn 0.0000000 -0.0009642 0.9999995
vt 0.9171851 0.2949704
v 1.0064590 2.2657430 0.5097322
vn 0.0021397 0.9999977 0.0000000
vt 0.9909640 0.2629830
v 1.0064590 2.1856840 0.5897917
vn 0.0000000 0.0009622 0.9999995
vt 0.9909640 0.2523572
v 1.5312690 2.1845610 0.5897918
vn 0.0000000 -0.0009642 0.9999995
vt 0.9171851 0.2523572
v 1.5312690 2.2646201 0.5097320
vn 0.0021397 0.9999977 0.0000000
vt 0.9171851 0.2629830
v 1.0064590 2.1856840 0.4296733
vn 0.0000000 0.0009638 -0.9999995
vt 0.9909640 0.2737192
v 1.5312690 2.1845610 0.4296733
vn 0.0000000 -0.0009625 -0.9999996
vt 0.9171851 0.2737192
v 1.5361620 2.1843519 0.9271112
vn 0.0000000 0.0000000 1.0000000
vt 0.9987329 0.3698949
v 1.2986790 2.1843519 0.9271112
vn 0.0000000 0.0000000 1.0000000
vt 0.9987329 0.3911772
v 1.2986790 1.7672009 0.5099615
vn 0.0000000 -1.0000000 0.0000000
vt 0.9467648 0.3911771
v 1.5361620 1.7672009 0.5099615
vn 0.0000000 -1.0000000 0.0000000
vt 0.9467648 0.3698949
v 1.5361620 2.6015010 0.5099615
vn 0.0000000 1.0000000 0.0000000
vt 0.9467648 0.3698949
v 1.2986790 2.6015010 0.5099615
vn 0.0000000 1.0000000 0.0000000
vt 0.9467648 0.3911771
v 1.5361620 2.1843519 0.0928118
vn 0.0000000 0.0000000 -1.0000000
vt 0.9987329 0.3698949
v 1.2986790 2.1843519 0.0928118
vn 0.0000000 0.0000000 -1.0000000
vt 0.9987329 0.3911772
v 1.0064590 2.1056249 0.5097320
vn -0.0021406 -0.9999977 0.0000000
vt 0.9909640 0.2843448
v 1.5312690 2.1045010 0.5097320
vn -0.0021406 -0.9999977 0.0000000
vt 0.9171851 0.2843448

g group_179_140627865156656
f 1/1/1 2/2/2 3/3/3 
f 1/1/1 3/3/3 4/4/4 
f 5/5/5 6/6/6 2/2/2 
f 5/5/5 2/2/2 1/1/1 
f 7/7/7 8/8/8 6/6/6 
f 7/7/7 6/6/6 5/5/5 
f 59/59/59 9/9/9 10/10/10 
f 59/59/59 10/10/10 60/60/60 
f 9/9/9 11/11/11 12/12/12 
f 9/9/9 12/12/12 10/10/10 
f 11/11/11 13/13/13 14/14/14 
f 11/11/11 14/14/14 12/12/12 
f 15/15/15 16/16/16 17/17/17 
f 15/15/15 17/17/17 18/18/18 
f 16/16/16 19/19/19 20/20/20 
f 16/16/16 20/20/20 17/17/17 
f 19/19/19 62/62/62 61/61/61 
f 19/19/19 61/61/61 20/20/20 
f 21/21/21 22/22/22 65/65/65 
f 21/21/21 65/65/65 66/66/66 
f 23/23/23 24/24/24 22/22/22 
f 23/23/23 22/22/22 21/21/21 
f 64/64/64 63/63/63 24/24/24 
f 64/64/64 24/24/24 23/23/23 
f 25/25/25 26/26/26 27/27/27 
f 25/25/25 27/27/27 28/28/28 
f 25/25/25 28/28/28 29/29/29 
f 30/30/30 29/29/29 28/28/28 
f 31/31/31 30/30/30 28/28/28 
f 31/31/31 28/28/28 32/32/32 
f 33/33/33 34/34/34 35/35/35 
f 28/28/28 33/33/33 35/35/35 
f 28/28/28 35/35/35 36/36/36 
f 32/32/32 28/28/28 36/36/36 
f 37/37/37 38/38/38 39/39/39 
f 37/37/37 39/39/39 40/40/40 
f 41/41/41 40/40/40 39/39/39 
f 41/41/41 39/39/39 42/42/42 
f 43/43/43 42/42/42 39/39/39 
f 43/43/43 39/39/39 44/44/44 
f 45/45/45 44/44/44 39/39/39 
f 45/45/45 39/39/39 46/46/46 
f 47/47/47 46/46/46 39/39/39 
f 47/47/47 39/39/39 48/48/48 
f 49/49/49 50/50/50 51/51/51 
f 49/49/49 51/51/51 52/52/52 
f 53/53/53 54/54/54 55/55/55 
f 53/53/53 55/55/55 56/56/56 
f 50/50/50 57/57/57 58/58/58 
f 67/67/67 58/58/58 68/68/68 
f 57/57/57 53/53/53 56/56/56 
f 57/57/57 56/56/56 58/58/58 
