v -1.0551929 0.9912160 0.7185367
vn 0.0000000 0.8660251 0.5000005
vt 0.9816082 0.3698949
v -1.0551929 1.0471040 0.5099620
vn 0.0000000 1.0000000 0.0000000
vt 0.9987329 0.3698949
v -1.2931809 1.0471040 0.5099620
vn 0.0000000 1.0000000 0.0000000
vt 0.9987329 0.3911772
v -1.2931809 0.9912160 0.7185367
vn 0.0000000 0.8660251 0.5000005
vt 0.9816079 0.3911772
v -1.0551929 0.8385288 0.8712240
vn 0.0000000 0.5000008 0.8660250
vt 0.9643843 0.3698949
v -1.2931809 0.8385288 0.8712240
vn 0.0000000 0.5000008 0.8660250
vt 0.9643842 0.3911772
v -1.0551929 0.6299543 0.9271117
vn 0.0000000 0.0000000 1.0000000
vt 0.9472596 0.3698949
v -1.2931809 0.6299543 0.9271117
vn 0.0000000 0.0000000 1.0000000
vt 0.9472596 0.3911771
v -1.0551929 0.4213792 0.8712238
vn 0.0000000 -0.5000004 0.8660252
vt 0.9643843 0.3698949
v -1.2931809 0.4213792 0.8712238
vn 0.0000000 -0.5000004 0.8660252
vt 0.9643842 0.3911772
v -1.0551929 0.2686922 0.7185367
vn 0.0000000 -0.8660257 0.4999995
vt 0.9816082 0.3698949
v -1.2931809 0.2686922 0.7185367
vn 0.0000000 -0.8660254 0.4999999
vt 0.9816079 0.3911772
v -1.0551920 0.2128045 0.5099620
vn 0.0000000 -1.0000000 0.0000000
vt 0.9987329 0.3698949
v -1.2931809 0.2128045 0.5099620
vn 0.0000000 -1.0000000 0.0000000
vt 0.9987329 0.3911772
v -1.0551929 0.9912161 0.3013871
vn 0.0000000 0.8660251 -0.5000005
vt 0.9816082 0.3698949
v -1.2931809 0.9912161 0.3013871
vn 0.0000000 0.8660251 -0.5000005
vt 0.9816079 0.3911772
v -1.0551929 0.8385288 0.1486999
vn 0.0000000 0.5000005 -0.8660251
vt 0.9643843 0.3698949
v -1.2931809 0.8385288 0.1486999
vn 0.0000000 0.5000005 -0.8660251
vt 0.9643842 0.3911772
v -1.0551929 0.6299543 0.0928122
vn 0.0000000 0.0000000 -1.0000000
vt 0.9472596 0.3698949
v -1.2931809 0.6299543 0.0928122
vn 0.0000000 0.0000000 -1.0000000
vt 0.9472596 0.3911771
v -1.0551929 0.4213792 0.1486999
vn 0.0000000 -0.5000000 -0.8660254
vt 0.9643843 0.3698949
v -1.2931809 0.4213792 0.1486999
vn 0.0000000 -0.5000000 -0.8660254
vt 0.9643842 0.3911772
v -1.0551929 0.2686922 0.3013870
vn 0.0000000 -0.8660258 -0.4999993
vt 0.9816082 0.3698949
v -1.2931809 0.2686922 0.3013870
vn 0.0000000 -0.8660256 -0.4999997
vt 0.9816079 0.3911772
v -1.0551929 0.8385288 0.1486999
vn 1.0000000 0.0000000 0.0000000
vt 0.8925726 0.0738559
v -1.0551929 0.9912161 0.3013871
vn 1.0000000 0.0000000 0.0000000
vt 0.8742182 0.0688824
v -1.0551929 0.2686922 0.3013870
vn 1.0000000 0.0000000 0.0000000
vt 0.9294001 0.0370283
v -1.0551929 0.4213792 0.1486999
vn 1.0000000 0.0000000 0.0000000
vt 0.9244267 0.0555013
v -1.0551929 0.6299543 0.0928122
vn 1.0000000 0.0000000 0.0000000
vt 0.9109272 0.0688824
v -1.0551929 1.0471040 0.5099620
vn 1.0000000 0.0000000 0.0000000
vt 0.8607185 0.0555013
v -1.0551929 0.9912160 0.7185367
vn 1.0000000 0.0000000 0.0000000
vt 0.8558637 0.0370283
v -1.0551929 0.8385288 0.8712240
vn 1.0000000 0.0000000 0.0000000
vt 0.8607185 0.0186739
v -1.0551929 0.6299543 0.9271117
vn 1.0000000 0.0000000 0.0000000
vt 0.8742182 0.0051744
v -1.0551929 0.4213792 0.8712238
vn 1.0000000 0.0000000 0.0000000
vt 0.8925726 0.0003194
v -1.0551920 0.2128045 0.5099620
vn 1.0000000 0.0000000 0.0000000
vt 0.9244267 0.0186739
v -1.0551929 0.2686922 0.7185367
vn 1.0000000 0.0000000 0.0000000
vt 0.9109272 0.0051744
v -1.2931809 0.6299543 0.0928122
vn -1.0000000 0.0000000 0.0000000
vt 0.9720525 0.1038041
v -1.2931809 0.4213792 0.1486999
vn -1.0000000 0.0000000 0.0000000
vt 0.9529448 0.1038041
v -1.2931809 0.2686922 0.3013870
vn -1.0000000 0.0000000 0.0000000
vt 0.9365389 0.0945397
v -1.2931809 0.2686922 0.7185367
vn -1.0000000 0.0000000 0.0000000
vt 0.9270814 0.0584470
v -1.2931809 0.2128045 0.5099620
vn -1.0000000 0.0000000 0.0000000
vt 0.9270814 0.0781339
v -1.2931809 0.4213792 0.8712238
vn -1.0000000 0.0000000 0.0000000
vt 0.9363459 0.0425237
v -1.2931809 0.6299543 0.9271117
vn -1.0000000 0.0000000 0.0000000
vt 0.9527515 0.0327767
v -1.2931809 0.9912160 0.7185367
vn -1.0000000 0.0000000 0.0000000
vt 0.9883620 0.0423307
v -1.2931809 0.8385288 0.8712240
vn -1.0000000 0.0000000 0.0000000
vt 0.9717631 0.0326802
v -1.2931809 0.9912161 0.3013871
vn -1.0000000 0.0000000 0.0000000
vt 0.9982055 0.0779409
v -1.2931809 1.0471040 0.5099620
vn -1.0000000 0.0000000 0.0000000
vt 0.9981089 0.0582539
v -1.2931809 0.8385288 0.1486999
vn -1.0000000 0.0000000 0.0000000
vt 0.9885550 0.0943468
v -1.6245850 0.5093222 0.5099598
vn -1.0000000 0.0000000 0.0000000
vt 0.1013568 0.6137334
v -1.6245850 0.7116364 0.4261587
vn -1.0000000 0.0000000 0.0000000
vt 0.0805401 0.6050431
v -1.6245850 0.6278331 0.3914469
vn -1.0000000 0.0000000 0.0000000
vt 0.0892305 0.6015062
v -1.6245850 0.5440331 0.4261587
vn -1.0000000 0.0000000 0.0000000
vt 0.0978200 0.6050431
v -1.6245850 0.6278331 0.6284738
vn -1.0000000 0.0000000 0.0000000
vt 0.0892305 0.6258595
v -1.6245850 0.7463470 0.5099610
vn -1.0000000 0.0000000 0.0000000
vt 0.0770034 0.6137334
v -1.6245850 0.5440331 0.5937609
vn -1.0000000 0.0000000 0.0000000
vt 0.0978200 0.6223227
v -1.6245850 0.7116364 0.5937610
vn -1.0000000 0.0000000 0.0000000
vt 0.0805401 0.6223227
v -1.6245199 0.6271865 0.5897923
vn 0.0000000 -0.0014223 0.9999990
vt 0.9171956 0.2253594
v -1.0322160 0.6290562 0.5897923
vn 0.0000000 0.0014198 0.9999990
vt 0.9909743 0.2253594
v -1.0322160 0.7091150 0.5097327
vn -0.0031567 0.9999951 0.0000000
vt 0.9914171 0.2360956
v -1.6245199 0.7072453 0.5097325
vn -0.0031567 0.9999951 0.0000000
vt 0.9176382 0.2360956
v -1.0322160 0.6290561 0.4296737
vn 0.0000000 0.0014223 -0.9999990
vt 0.9909743 0.2467213
v -1.6245199 0.6271865 0.4296737
vn 0.0000000 -0.0014196 -0.9999990
vt 0.9171956 0.2467213
v -1.6245199 0.5471266 0.5097324
vn 0.0031567 -0.9999951 0.0000000
vt 0.9166421 0.2147338
v -1.0322160 0.5489964 0.5097324
vn 0.0031567 -0.9999951 0.0000000
vt 0.9904208 0.2147338
v -1.6245199 0.6271865 0.4296737
vn 0.0000000 -0.0014196 -0.9999990
vt 0.9171956 0.2041083
v -1.0322160 0.6290561 0.4296737
vn 0.0000000 0.0014223 -0.9999990
vt 0.9909743 0.2041083
v -1.0551929 1.0471040 0.5099620
vn 0.0000000 1.0000000 0.0000000
vt 0.9987329 0.3698949
v -1.2931809 1.0471040 0.5099620
vn 0.0000000 1.0000000 0.0000000
vt 0.9987329 0.3911772
v -1.0551929 0.6299543 0.9271117
vn 0.0000000 0.0000000 1.0000000
vt 0.9472596 0.3698949
v -1.2931809 0.6299543 0.9271117
vn 0.0000000 0.0000000 1.0000000
vt 0.9472596 0.3911771
v -1.0551920 0.2128045 0.5099620
vn 0.0000000 -1.0000000 0.0000000
vt 0.9987329 0.3698949
v -1.2931809 0.2128045 0.5099620
vn 0.0000000 -1.0000000 0.0000000
vt 0.9987329 0.3911772
v -1.0551929 0.6299543 0.0928122
vn 0.0000000 0.0000000 -1.0000000
vt 0.9472596 0.3698949
v -1.2931809 0.6299543 0.0928122
vn 0.0000000 0.0000000 -1.0000000
vt 0.9472596 0.3911771
v -1.6245199 0.6271865 0.5897923
vn 0.0000000 -0.0014223 0.9999990
vt 0.9171956 0.2253594
v -1.0322160 0.6290562 0.5897923
vn 0.0000000 0.0014198 0.9999990
vt 0.9909743 0.2253594
v -1.6245199 0.5471266 0.5097324
vn 0.0031567 -0.9999951 0.0000000
vt 0.9166421 0.2147338
v -1.0322160 0.5489964 0.5097324
vn 0.0031567 -0.9999951 0.0000000
vt 0.9904208 0.2147338

g group_187_140627865160944
f 1/1/1 2/2/2 3/3/3 
f 1/1/1 3/3/3 4/4/4 
f 5/5/5 1/1/1 4/4/4 
f 5/5/5 4/4/4 6/6/6 
f 7/7/7 5/5/5 6/6/6 
f 7/7/7 6/6/6 8/8/8 
f 9/9/9 69/69/69 70/70/70 
f 9/9/9 70/70/70 10/10/10 
f 11/11/11 9/9/9 10/10/10 
f 11/11/11 10/10/10 12/12/12 
f 13/13/13 11/11/11 12/12/12 
f 13/13/13 12/12/12 14/14/14 
f 68/68/68 67/67/67 15/15/15 
f 68/68/68 15/15/15 16/16/16 
f 16/16/16 15/15/15 17/17/17 
f 16/16/16 17/17/17 18/18/18 
f 18/18/18 17/17/17 19/19/19 
f 18/18/18 19/19/19 20/20/20 
f 74/74/74 73/73/73 21/21/21 
f 74/74/74 21/21/21 22/22/22 
f 22/22/22 21/21/21 23/23/23 
f 22/22/22 23/23/23 24/24/24 
f 24/24/24 23/23/23 71/71/71 
f 24/24/24 71/71/71 72/72/72 
f 25/25/25 26/26/26 27/27/27 
f 25/25/25 27/27/27 28/28/28 
f 28/28/28 29/29/29 25/25/25 
f 27/27/27 30/30/30 31/31/31 
f 27/27/27 31/31/31 32/32/32 
f 27/27/27 26/26/26 30/30/30 
f 32/32/32 33/33/33 27/27/27 
f 34/34/34 35/35/35 27/27/27 
f 34/34/34 27/27/27 33/33/33 
f 34/34/34 36/36/36 35/35/35 
f 37/37/37 38/38/38 39/39/39 
f 40/40/40 37/37/37 39/39/39 
f 40/40/40 39/39/39 41/41/41 
f 40/40/40 42/42/42 43/43/43 
f 40/40/40 43/43/43 44/44/44 
f 40/40/40 44/44/44 37/37/37 
f 43/43/43 45/45/45 44/44/44 
f 46/46/46 37/37/37 44/44/44 
f 46/46/46 44/44/44 47/47/47 
f 46/46/46 48/48/48 37/37/37 
f 49/49/49 50/50/50 51/51/51 
f 49/49/49 51/51/51 52/52/52 
f 50/50/50 49/49/49 53/53/53 
f 50/50/50 53/53/53 54/54/54 
f 49/49/49 55/55/55 53/53/53 
f 53/53/53 56/56/56 54/54/54 
f 57/57/57 58/58/58 59/59/59 
f 57/57/57 59/59/59 60/60/60 
f 61/61/61 62/62/62 60/60/60 
f 61/61/61 60/60/60 59/59/59 
f 76/76/76 75/75/75 63/63/63 
f 76/76/76 63/63/63 64/64/64 
f 78/78/78 77/77/77 65/65/65 
f 78/78/78 65/65/65 66/66/66 
