v -1.8276150 -2.7771370 1.0236210
vn 0.0000000 -0.0061817 -0.9999809
vt 0.4678477 5.1215959
v -1.8276150 0.7296178 0.9384853
vn 0.0000000 0.0403928 -0.9991839
vt 0.4678477 2.7100370
v -1.0389500 0.7296178 0.9384853
vn 0.0000000 0.0403928 -0.9991839
vt 0.0444731 2.7104361
v -1.0389500 -2.7771370 1.0236210
vn 0.0000000 -0.0061817 -0.9999809
vt 0.0444731 5.1216111
v -1.0389500 -2.9713631 0.9613641
vn 0.0000000 0.5173168 -0.8557940
vt 0.0444731 5.3123379
v -1.8276150 -2.9713631 0.9613641
vn 0.0000000 0.5173168 -0.8557940
vt 0.4678477 5.3123231
v -1.0389500 -3.1140201 0.8199785
vn 0.0000000 0.9101316 -0.4143194
vt 0.0444731 5.4999862
v -1.8276150 -3.1140201 0.8199785
vn 0.0000000 0.9101316 -0.4143194
vt 0.4678477 5.4999709
v -1.0389500 -3.1273680 0.6186674
vn 0.0000000 0.9534426 0.3015747
vt 0.0444731 -4.3184352
v -1.8276150 -3.1273680 0.6186674
vn 0.0000000 0.9534426 0.3015747
vt 0.4678477 -4.3184490
v -1.8276150 -3.1140201 0.8199785
vn 0.0000000 0.9101316 -0.4143194
vt 0.4678477 -4.5000000
v -1.0389500 -3.1140201 0.8199785
vn 0.0000000 0.9101316 -0.4143194
vt 0.0444731 -4.4999862
v -1.0389500 -2.9811101 0.3997771
vn 0.0000000 0.4666896 0.8844212
vt 0.0444731 -4.0652671
v -1.8276150 -2.9811101 0.3997771
vn 0.0000000 0.4666896 0.8844212
vt 0.4678477 -4.0652809
v -1.0389500 -2.1736629 0.1154181
vn 0.0000000 0.0552008 0.9984753
vt 0.0444731 -3.4126091
v -1.8276150 -2.1736629 0.1154181
vn 0.0000000 0.0552008 0.9984753
vt 0.4678477 -3.4126229
v -1.0389500 2.3219900 0.1065947
vn 0.0000000 -0.0794348 0.9968401
vt 0.0444731 -0.2742050
v -1.8276150 2.3219900 0.1065947
vn 0.0000000 -0.0794348 0.9968401
vt 0.4678477 -0.2742189
v -1.0389500 3.1930649 0.7563840
vn 0.0000000 -0.9807851 0.1950915
vt 0.0444731 0.5996631
v -1.8276150 3.1930649 0.7563840
vn 0.0000000 -0.9807851 0.1950915
vt 0.4678477 0.5996491
v -1.8276150 3.0833521 0.5343319
vn 0.0000000 -0.5979266 0.8015509
vt 0.4678477 0.3753583
v -1.0389500 3.0833521 0.5343319
vn 0.0000000 -0.5979265 0.8015509
vt 0.0444731 0.3753724
v -1.0389500 3.1766801 1.0035180
vn 0.0000000 -0.9177738 -0.3971035
vt 0.0444731 0.8236973
v -1.8276150 3.1766801 1.0035180
vn 0.0000000 -0.9177738 -0.3971035
vt 0.4678477 0.8236830
v -1.0389500 3.0125289 1.1736330
vn 0.0000000 -0.5240011 -0.8517176
vt 0.0444731 1.0437530
v -1.8276150 3.0125289 1.1736341
vn 0.0000000 -0.5240010 -0.8517177
vt 0.4678477 1.0437390
v -1.0389500 2.7789240 1.2482290
vn 0.0000000 0.1024616 -0.9947370
vt 0.0444731 1.2653490
v -1.8276150 2.7789240 1.2482290
vn 0.0000000 0.1024616 -0.9947370
vt 0.4678477 1.2653340
v -1.8232930 -2.7711091 1.1029320
vn -0.7662366 0.0016702 0.6425564
vt 0.5046299 5.1215959
v -1.8232930 -3.0105059 1.0262160
vn -0.6794736 -0.4050737 0.6117442
vt 0.5046299 5.3123231
v -1.7234670 -3.0184979 1.0727620
vn -0.0559154 -0.5416189 0.8387625
vt 0.5401522 5.3026981
v -1.7234670 -2.7787499 1.1531730
vn -0.0617693 0.0026124 0.9980870
vt 0.5401522 5.1257038
v -1.8232930 -3.1845641 0.8508538
vn -0.6712999 -0.6605108 0.3362767
vt 0.5046299 5.4999709
v -1.7234670 -3.2350740 0.8552753
vn -0.0569112 -0.8990117 0.4342110
vt 0.5401522 5.4999709
v -1.8232930 -3.2010679 0.6046594
vn -0.6985107 -0.6825041 -0.2151068
vt 0.5046299 -4.3184490
v -1.7234670 -3.2518370 0.5972180
vn -0.0648563 -0.9558265 -0.2866868
vt 0.5401522 -4.3204389
v -1.7234670 -3.2350740 0.8552753
vn -0.0569112 -0.8990117 0.4342110
vt 0.5401522 -4.5000000
v -1.8232930 -3.1845641 0.8508538
vn -0.6712999 -0.6605108 0.3362767
vt 0.5046299 -4.5000000
v -1.8232930 -3.0259180 0.3398153
vn -0.6708308 -0.3430050 -0.6575208
vt 0.5046299 -4.0652809
v -1.7234670 -3.0739400 0.3196130
vn -0.0540292 -0.4984889 -0.8652108
vt 0.5401522 -4.0846610
v -1.8232930 -2.1799481 0.0425675
vn -0.6845638 -0.0331405 -0.7281992
vt 0.5046299 -3.4126229
v -1.7234670 -2.2146959 0.0050366
vn -0.0462063 -0.0612419 -0.9970528
vt 0.5401522 -3.4357262
v -1.8232930 2.3468001 0.0328243
vn -0.6600817 0.0499316 -0.7495326
vt 0.5046299 -0.2742189
v -1.7234679 2.3830709 -0.0050387
vn -0.0466393 0.0874349 -0.9950778
vt 0.5401522 -0.2618330
v -1.8232930 3.2667730 0.7406425
vn -0.7089565 0.6901360 -0.1452345
vt 0.5046299 0.5996491
v -1.7234670 3.3174770 0.7395415
vn -0.0647744 0.9797385 -0.1895170
vt 0.5401522 0.6031786
v -1.7234670 3.1846280 0.4650812
vn -0.0553329 0.6244830 -0.7790760
vt 0.5401522 0.3893481
v -1.8232930 3.1359770 0.4787985
vn -0.6932114 0.4300996 -0.5783358
vt 0.5046299 0.3753583
v -1.8232930 3.2472391 1.0320640
vn -0.6934474 0.6546586 0.3009201
vt 0.5046299 0.8236830
v -1.7234670 3.2976360 1.0450050
vn -0.0622250 0.9114348 0.4067120
vt 0.5401522 0.8176510
v -1.8232930 3.0517340 1.2357841
vn -0.6895081 0.3833759 0.6144929
vt 0.5046299 1.0437390
v -1.7234670 3.0764410 1.2753770
vn -0.0591020 0.5318910 0.8447478
vt 0.5401522 1.0415560
v -1.8232930 2.7730429 1.3246779
vn -0.7465931 -0.0597626 0.6625913
vt 0.5046299 1.2653340
v -1.7234670 2.7734749 1.3754860
vn -0.0619244 -0.0901659 0.9939998
vt 0.5401522 1.2663610
v -1.8232930 0.7225364 1.0195290
vn -0.7869720 -0.0245934 0.6164984
vt 0.5046299 2.7093949
v -1.7234670 0.7200286 1.0627450
vn -0.0656773 -0.0399322 0.9970416
vt 0.5401522 2.7105501
v -1.8276150 0.7296178 0.9384853
vn -0.9985411 -0.0022413 0.0539509
vt 0.4678477 2.7100370
v -1.8276150 -2.7771370 1.0236210
vn -0.9985422 0.0000000 0.0539758
vt 0.4678477 5.1215959
v -1.8276150 -2.9713631 0.9613641
vn -0.9983559 -0.0297715 0.0489823
vt 0.4678477 5.3123231
v -1.8276150 -3.1140201 0.8199785
vn -0.9984496 -0.0506259 0.0231414
vt 0.4678477 5.4999709
v -1.8276150 -3.1140201 0.8199785
vn -0.9984496 -0.0506259 0.0231414
vt 0.4678477 -4.5000000
v -1.8276150 -3.1273680 0.6186674
vn -0.9983341 -0.0548371 -0.0179421
vt 0.4678477 -4.3184490
v -1.8276150 -2.9811101 0.3997771
vn -0.9982824 -0.0279380 -0.0514945
vt 0.4678477 -4.0652809
v -1.8276150 -2.1736629 0.1154181
vn -0.9982759 -0.0035621 -0.0585874
vt 0.4678477 -3.4126229
v -1.8276150 2.3219900 0.1065947
vn -0.9983388 0.0043461 -0.0574535
vt 0.4678477 -0.2742189
v -1.8276150 3.0833521 0.5343319
vn -0.9984332 0.0340788 -0.0443848
vt 0.4678477 0.3753583
v -1.8276150 3.1930649 0.7563840
vn -0.9983440 0.0564314 -0.0111704
vt 0.4678477 0.5996491
v -1.8276150 3.1766801 1.0035180
vn -0.9984001 0.0517390 0.0228108
vt 0.4678477 0.8236830
v -1.8276150 3.0125289 1.1736341
vn -0.9982650 0.0308449 0.0501563
vt 0.4678477 1.0437390
v -1.8276150 2.7789240 1.2482290
vn -0.9984971 -0.0048728 0.0545889
vt 0.4678477 1.2653340
v -1.0996079 -3.0184979 1.0727620
vn 0.0574184 -0.5423372 0.8381966
vt 0.8381282 5.3026981
v -1.0389860 -3.0105059 1.0262160
vn 0.8390369 -0.3050337 0.4505236
vt 0.8846755 5.3123231
v -1.0389860 -2.7711091 1.1029320
vn 0.8961633 0.0010493 0.4437232
vt 0.8846755 5.1215959
v -1.0996079 -2.7787499 1.1531730
vn 0.0637980 0.0026341 0.9979594
vt 0.8381282 5.1258311
v -1.0996079 -3.2350740 0.8552753
vn 0.0573441 -0.8985368 0.4351359
vt 0.8381282 5.4999709
v -1.0389860 -3.1845641 0.8508538
vn 0.8312571 -0.4920560 0.2586359
vt 0.8846755 5.4999709
v -1.0996079 -3.2350740 0.8552753
vn 0.0573441 -0.8985368 0.4351359
vt 0.8378578 -4.5000000
v -1.0996079 -3.2518370 0.5972180
vn 0.0654360 -0.9558170 -0.2865869
vt 0.8378578 -4.3204389
v -1.0389860 -3.2010679 0.6046599
vn 0.8512447 -0.4998451 -0.1598041
vt 0.8846755 -4.3184490
v -1.0389860 -3.1845641 0.8508538
vn 0.8312571 -0.4920560 0.2586359
vt 0.8846755 -4.5000000
v -1.0996079 -3.0739400 0.3196130
vn 0.0529140 -0.4985044 -0.8652708
vt 0.8378578 -4.0846610
v -1.0389860 -3.0259180 0.3398153
vn 0.8289587 -0.2531809 -0.4987252
vt 0.8846755 -4.0652809
v -1.0996079 -2.2146981 0.0050366
vn 0.0451234 -0.0611338 -0.9971091
vt 0.8378578 -3.4357262
v -1.0389860 -2.1799490 0.0425675
vn 0.8395391 -0.0220993 -0.5428496
vt 0.8846755 -3.4126229
v -1.0996079 2.3830700 -0.0050387
vn 0.0452195 0.0872756 -0.9951574
vt 0.8381282 -0.2618330
v -1.0389860 2.3468001 0.0328243
vn 0.8209227 0.0341464 -0.5700175
vt 0.8846755 -0.2742189
v -1.0996079 3.1846280 0.4650812
vn 0.0542762 0.6246004 -0.7790563
vt 0.8381282 0.3893481
v -1.0996079 3.3174770 0.7395415
vn 0.0661175 0.9796506 -0.1895079
vt 0.8381282 0.6031786
v -1.0389860 3.2667730 0.7406425
vn 0.8591684 0.5001961 -0.1078588
vt 0.8846755 0.5996491
v -1.0389860 3.1359770 0.4787985
vn 0.8450051 0.3152198 -0.4319757
vt 0.8846755 0.3753583
v -1.0996079 3.2976360 1.0450050
vn 0.0626005 0.9112153 0.4071461
vt 0.8381282 0.8176510
v -1.0389860 3.2472391 1.0320640
vn 0.8475405 0.4807658 0.2248096
vt 0.8846755 0.8236830
v -1.0996079 3.0764410 1.2753770
vn 0.0603658 0.5320358 0.8445673
vt 0.8381282 1.0415560
v -1.0389860 3.0517340 1.2357841
vn 0.8466552 0.2817271 0.4514474
vt 0.8846755 1.0437390
v -1.0996090 2.7734749 1.3754860
vn 0.0639194 -0.0900659 0.9938825
vt 0.8381282 1.2663610
v -1.0389860 2.7730420 1.3246779
vn 0.8843982 -0.0412580 0.4649061
vt 0.8846755 1.2653340
v -1.0996079 0.7200275 1.0627450
vn 0.0701200 -0.0399201 0.9967395
vt 0.8381282 2.7104220
v -1.0389860 0.7225364 1.0195290
vn 0.9112121 -0.0164212 0.4116102
vt 0.8846755 2.7093949
v -1.1662000 0.7352068 0.8327684
vn -0.9702336 0.0095670 -0.2419819
vt 0.9474615 2.7108281
v -1.1932440 0.7296178 0.9384853
vn -0.9702393 0.0097926 -0.2419502
vt 0.9925827 2.7108281
v -1.1932440 2.7789240 1.2482290
vn -0.9705514 0.0355901 -0.2382504
vt 0.9925827 1.2653500
v -1.1662000 2.7734399 1.1336271
vn -0.9705514 0.0355901 -0.2382504
vt 0.9474615 1.2653500
v -1.1662000 -2.7715070 0.9142031
vn -0.9697313 -0.0057975 -0.2441060
vt 0.9474615 5.1216249
v -1.1932440 -2.7771370 1.0236210
vn -0.9697313 -0.0057975 -0.2441060
vt 0.9926528 5.1216249
v -1.1391560 -2.7771370 1.0236210
vn 0.9683770 0.0748797 -0.2379899
vt 0.9926528 5.1216249
v -1.1391560 -2.9713631 0.9613641
vn 0.9698129 0.1261753 -0.2086692
vt 0.9926528 5.3123531
v -1.1662000 -2.9083540 0.8722925
vn 0.9698218 0.1210807 -0.2116252
vt 0.9474615 5.3123531
v -1.1662000 -2.7715070 0.9142031
vn 0.9683769 0.0748797 -0.2379899
vt 0.9474615 5.1216249
v -1.1391560 -3.1140201 0.8199785
vn 0.9723274 0.2130474 -0.0958664
vt 0.9926528 5.5000000
v -1.1662000 -3.0110891 0.7785261
vn 0.9723138 0.2104580 -0.1015553
vt 0.9474615 5.5000000
v -1.1391560 -3.1140201 0.8199785
vn 0.9723274 0.2130474 -0.0958664
vt 0.9925827 -4.5000000
v -1.1391560 -3.1273680 0.6186674
vn 0.9714186 0.2266908 0.0704085
vt 0.9925827 -4.3184490
v -1.1662000 -3.0204289 0.6406958
vn 0.9713172 0.2250315 0.0768363
vt 0.9474615 -4.3184490
v -1.1662000 -3.0110891 0.7785261
vn 0.9723138 0.2104580 -0.1015553
vt 0.9474615 -4.5000000
v -1.1391560 -2.9811101 0.3997771
vn 0.9727523 0.1043953 0.2070136
vt 0.9925827 -4.0652790
v -1.1662000 -2.9109759 0.4873065
vn 0.9727224 0.1030705 0.2078168
vt 0.9474615 -4.0652790
v -1.1391560 -2.1736629 0.1154181
vn 0.9725698 0.0122961 0.2322862
vt 0.9925827 -3.4126177
v -1.1662000 -2.1554670 0.2326242
vn 0.9725759 0.0126391 0.2322421
vt 0.9474615 -3.4126177
v -1.1391560 2.3219900 0.1067884
vn 0.9731247 -0.0203611 0.2293767
vt 0.9925827 -0.2742066
v -1.1662000 2.2802739 0.2146244
vn 0.9729797 -0.0157048 0.2303558
vt 0.9474615 -0.2742066
v -1.1391560 3.0833521 0.5343319
vn 0.9712355 -0.1155870 0.2081856
vt 0.9925827 0.3753721
v -1.1662000 3.0033050 0.6112288
vn 0.9712355 -0.1155870 0.2081856
vt 0.9474615 0.3753721
v -1.4071569 -2.7771370 1.0236210
vn -0.9697996 -0.0024959 -0.2438901
vt 0.9926528 5.1216249
v -1.3801130 -2.7715070 0.9142031
vn -0.9698145 -0.0017145 -0.2438379
vt 0.9474615 5.1216249
v -1.3801130 -2.9083540 0.8722925
vn -0.9698219 0.1210805 -0.2116249
vt 0.9474615 5.3123531
v -1.4071569 -2.9713631 0.9613641
vn -0.9698130 0.1261750 -0.2086688
vt 0.9926528 5.3123531
v -1.3801130 -3.0110891 0.7785261
vn -0.9723139 0.2104573 -0.1015550
vt 0.9474615 5.5000000
v -1.4071569 -3.1140201 0.8199785
vn -0.9723275 0.2130468 -0.0958662
vt 0.9926528 5.5000000
v -1.4071569 -3.1140201 0.8199785
vn -0.9723275 0.2130468 -0.0958662
vt 0.9925827 -4.5000000
v -1.3801130 -3.0110891 0.7785261
vn -0.9723139 0.2104573 -0.1015550
vt 0.9474615 -4.5000000
v -1.3801130 -3.0204289 0.6406958
vn -0.9713173 0.2250309 0.0768362
vt 0.9474615 -4.3184490
v -1.4071569 -3.1273680 0.6186674
vn -0.9714187 0.2266902 0.0704084
vt 0.9925827 -4.3184490
v -1.4071569 -2.9811101 0.3997771
vn -0.9727525 0.1043948 0.2070131
vt 0.9925827 -4.0652790
v -1.3801130 -2.9109759 0.4873065
vn -0.9727225 0.1030700 0.2078163
vt 0.9474615 -4.0652790
v -1.3801130 -2.1554670 0.2326242
vn -0.9725761 0.0126390 0.2322412
vt 0.9474615 -3.4126177
v -1.4071569 -2.1736629 0.1154181
vn -0.9725700 0.0122960 0.2322854
vt 0.9925827 -3.4126177
v -1.3801130 2.2802739 0.2146244
vn -0.9729800 -0.0157047 0.2303549
vt 0.9474615 -0.2742066
v -1.4071569 2.3219900 0.1067884
vn -0.9731250 -0.0203609 0.2293758
vt 0.9925827 -0.2742066
v -1.3801130 3.0033050 0.6112288
vn -0.9722859 -0.1367614 0.1896222
vt 0.9474615 0.3753721
v -1.4071569 3.0833521 0.5343319
vn -0.9722824 -0.1366524 0.1897183
vt 0.9925827 0.3753721
v -1.3801130 3.0861449 0.7752732
vn -0.9706229 -0.2357261 0.0482123
vt 0.9474615 0.5996637
v -1.4071569 3.1930649 0.7563840
vn -0.9706271 -0.2360826 0.0463482
vt 0.9925827 0.5996637
v -1.3801130 3.0737720 0.9578482
vn -0.9729703 -0.2111827 -0.0934382
vt 0.9474615 0.8236985
v -1.4071569 3.1766801 1.0035180
vn -0.9729656 -0.2114170 -0.0929557
vt 0.9925827 0.8236985
v -1.4071569 3.0125289 1.1736330
vn -0.9721668 -0.1221243 -0.1999433
vt 0.9925827 1.0437540
v -1.3801130 2.9495900 1.0796680
vn -0.9721845 -0.1194062 -0.2014928
vt 0.9474615 1.0437540
v -1.4071569 2.7789240 1.2482290
vn -0.9710522 0.0258617 -0.2374632
vt 0.9925827 1.2653500
v -1.3801130 2.7734399 1.1336271
vn -0.9710844 0.0251702 -0.2374062
vt 0.9474615 1.2653500
v -1.3801130 0.7352068 0.8327684
vn -0.9702328 0.0095671 -0.2419851
vt 0.9474615 2.7108281
v -1.4071569 0.7296178 0.9384853
vn -0.9702384 0.0097927 -0.2419535
vt 0.9925827 2.7108281
v -1.0389500 0.7296178 0.9384853
vn 0.9999999 0.0000000 0.0004482
vt 0.0444731 2.7104361
v -1.0389860 0.7225364 1.0195290
vn 0.9112121 -0.0164212 0.4116102
vt 0.0123584 2.7094231
v -1.0389860 -2.7711091 1.1029320
vn 0.8961633 0.0010493 0.4437232
vt 0.0123585 5.1216249
v -1.0389500 -2.7771370 1.0236210
vn 0.9999999 0.0000000 0.0004485
vt 0.0444731 5.1216111
v -1.0389860 -3.0105059 1.0262160
vn 0.8390369 -0.3050337 0.4505236
vt 0.0123585 5.3123531
v -1.0389500 -2.9713631 0.9613641
vn 0.9999999 -0.0002473 0.0004070
vt 0.0444731 5.3123379
v -1.0389500 -3.1140201 0.8199785
vn 0.9999999 -0.0004208 0.0001923
vt 0.0444731 5.4999862
v -1.0389860 -3.1845641 0.8508538
vn 0.8312571 -0.4920560 0.2586359
vt 0.0123585 5.5000000
v -1.0389860 -3.2010679 0.6046599
vn 0.8512447 -0.4998451 -0.1598041
vt 0.0123584 -4.3184209
v -1.0389500 -3.1273680 0.6186674
vn 0.9999999 -0.0004561 -0.0001491
vt 0.0444731 -4.3184352
v -1.0389500 -3.1140201 0.8199785
vn 0.9999999 -0.0004208 0.0001923
vt 0.0444731 -4.4999862
v -1.0389860 -3.1845641 0.8508538
vn 0.8312571 -0.4920560 0.2586359
vt 0.0123584 -4.4999719
v -1.0389500 -2.9811101 0.3997771
vn 0.9999999 -0.0002319 -0.0004279
vt 0.0444731 -4.0652671
v -1.0389860 -3.0259180 0.3398153
vn 0.8289587 -0.2531809 -0.4987252
vt 0.0123584 -4.0652518
v -1.0389860 -2.1799490 0.0425675
vn 0.8395391 -0.0220993 -0.5428496
vt 0.0123584 -3.4125948
v -1.0389500 -2.1736629 0.1154181
vn 0.9999999 0.0000000 -0.0004873
vt 0.0444731 -3.4126091
v -1.0389500 2.3219900 0.1065947
vn 0.9999999 0.0000000 -0.0004780
vt 0.0444731 -0.2742050
v -1.0389860 2.3468001 0.0328243
vn 0.8209227 0.0341464 -0.5700175
vt 0.0123584 -0.2741907
v -1.0389500 3.0833521 0.5343319
vn 0.9999999 0.0002827 -0.0003692
vt 0.0444731 0.3753724
v -1.0389860 3.1359770 0.4787985
vn 0.8450051 0.3152198 -0.4319757
vt 0.0123584 0.3753867
v -1.0389860 3.2667730 0.7406425
vn 0.8591684 0.5001961 -0.1078588
vt 0.0123584 0.5996777
v -1.0389500 3.1930649 0.7563840
vn 0.9999999 0.0004690 0.0000000
vt 0.0444731 0.5996631
v -1.0389860 3.2472391 1.0320640
vn 0.8475405 0.4807658 0.2248096
vt 0.0123584 0.8237116
v -1.0389500 3.1766801 1.0035180
vn 0.9999999 0.0004299 0.0001896
vt 0.0444731 0.8236973
v -1.0389860 3.0517340 1.2357841
vn 0.8466552 0.2817271 0.4514474
vt 0.0123584 1.0437670
v -1.0389500 3.0125289 1.1736330
vn 0.9999999 0.0002559 0.0004168
vt 0.0444731 1.0437530
v -1.0389500 2.7789240 1.2482290
vn 0.9999999 0.0000000 0.0004536
vt 0.0444731 1.2653490
v -1.0389860 2.7730420 1.3246779
vn 0.8843982 -0.0412580 0.4649061
vt 0.0123584 1.2653620

g group_194_140627865163936
f 1/1/1 2/2/2 3/3/3 
f 1/1/1 3/3/3 4/4/4 
f 5/5/5 6/6/6 1/1/1 
f 5/5/5 1/1/1 4/4/4 
f 7/7/7 8/8/8 6/6/6 
f 7/7/7 6/6/6 5/5/5 
f 9/9/9 10/10/10 11/11/11 
f 9/9/9 11/11/11 12/12/12 
f 13/13/13 14/14/14 10/10/10 
f 13/13/13 10/10/10 9/9/9 
f 15/15/15 16/16/16 14/14/14 
f 15/15/15 14/14/14 13/13/13 
f 17/17/17 18/18/18 16/16/16 
f 17/17/17 16/16/16 15/15/15 
f 19/19/19 20/20/20 21/21/21 
f 19/19/19 21/21/21 22/22/22 
f 23/23/23 24/24/24 20/20/20 
f 23/23/23 20/20/20 19/19/19 
f 25/25/25 26/26/26 24/24/24 
f 25/25/25 24/24/24 23/23/23 
f 27/27/27 28/28/28 26/26/26 
f 27/27/27 26/26/26 25/25/25 
f 3/3/3 2/2/2 28/28/28 
f 3/3/3 28/28/28 27/27/27 
f 29/29/29 30/30/30 31/31/31 
f 29/29/29 31/31/31 32/32/32 
f 30/30/30 33/33/33 34/34/34 
f 30/30/30 34/34/34 31/31/31 
f 35/35/35 36/36/36 37/37/37 
f 35/35/35 37/37/37 38/38/38 
f 35/35/35 39/39/39 40/40/40 
f 35/35/35 40/40/40 36/36/36 
f 39/39/39 41/41/41 42/42/42 
f 39/39/39 42/42/42 40/40/40 
f 41/41/41 43/43/43 44/44/44 
f 41/41/41 44/44/44 42/42/42 
f 45/45/45 46/46/46 47/47/47 
f 45/45/45 47/47/47 48/48/48 
f 45/45/45 49/49/49 50/50/50 
f 45/45/45 50/50/50 46/46/46 
f 49/49/49 51/51/51 52/52/52 
f 49/49/49 52/52/52 50/50/50 
f 53/53/53 54/54/54 52/52/52 
f 53/53/53 52/52/52 51/51/51 
f 53/53/53 55/55/55 56/56/56 
f 53/53/53 56/56/56 54/54/54 
f 29/29/29 32/32/32 56/56/56 
f 29/29/29 56/56/56 55/55/55 
f 29/29/29 55/55/55 57/57/57 
f 29/29/29 57/57/57 58/58/58 
f 58/58/58 59/59/59 30/30/30 
f 58/58/58 30/30/30 29/29/29 
f 60/60/60 33/33/33 30/30/30 
f 60/60/60 30/30/30 59/59/59 
f 61/61/61 62/62/62 35/35/35 
f 61/61/61 35/35/35 38/38/38 
f 63/63/63 39/39/39 35/35/35 
f 63/63/63 35/35/35 62/62/62 
f 63/63/63 64/64/64 41/41/41 
f 63/63/63 41/41/41 39/39/39 
f 65/65/65 43/43/43 41/41/41 
f 65/65/65 41/41/41 64/64/64 
f 66/66/66 67/67/67 45/45/45 
f 66/66/66 45/45/45 48/48/48 
f 67/67/67 68/68/68 49/49/49 
f 67/67/67 49/49/49 45/45/45 
f 68/68/68 69/69/69 51/51/51 
f 68/68/68 51/51/51 49/49/49 
f 70/70/70 53/53/53 51/51/51 
f 70/70/70 51/51/51 69/69/69 
f 57/57/57 55/55/55 53/53/53 
f 57/57/57 53/53/53 70/70/70 
f 71/71/71 72/72/72 73/73/73 
f 71/71/71 73/73/73 74/74/74 
f 75/75/75 76/76/76 72/72/72 
f 75/75/75 72/72/72 71/71/71 
f 77/77/77 78/78/78 79/79/79 
f 77/77/77 79/79/79 80/80/80 
f 81/81/81 82/82/82 79/79/79 
f 81/81/81 79/79/79 78/78/78 
f 83/83/83 84/84/84 82/82/82 
f 83/83/83 82/82/82 81/81/81 
f 83/83/83 85/85/85 86/86/86 
f 83/83/83 86/86/86 84/84/84 
f 87/87/87 88/88/88 89/89/89 
f 87/87/87 89/89/89 90/90/90 
f 91/91/91 92/92/92 89/89/89 
f 91/91/91 89/89/89 88/88/88 
f 93/93/93 94/94/94 92/92/92 
f 93/93/93 92/92/92 91/91/91 
f 93/93/93 95/95/95 96/96/96 
f 93/93/93 96/96/96 94/94/94 
f 97/97/97 98/98/98 96/96/96 
f 97/97/97 96/96/96 95/95/95 
f 97/97/97 74/74/74 73/73/73 
f 97/97/97 73/73/73 98/98/98 
f 71/71/71 74/74/74 32/32/32 
f 71/71/71 32/32/32 31/31/31 
f 75/75/75 71/71/71 31/31/31 
f 75/75/75 31/31/31 34/34/34 
f 78/78/78 77/77/77 37/37/37 
f 78/78/78 37/37/37 36/36/36 
f 81/81/81 78/78/78 36/36/36 
f 81/81/81 36/36/36 40/40/40 
f 83/83/83 81/81/81 40/40/40 
f 83/83/83 40/40/40 42/42/42 
f 44/44/44 85/85/85 83/83/83 
f 44/44/44 83/83/83 42/42/42 
f 47/47/47 87/87/87 85/85/85 
f 47/47/47 85/85/85 44/44/44 
f 88/88/88 87/87/87 47/47/47 
f 88/88/88 47/47/47 46/46/46 
f 91/91/91 88/88/88 46/46/46 
f 91/91/91 46/46/46 50/50/50 
f 93/93/93 91/91/91 50/50/50 
f 93/93/93 50/50/50 52/52/52 
f 95/95/95 93/93/93 52/52/52 
f 95/95/95 52/52/52 54/54/54 
f 97/97/97 95/95/95 54/54/54 
f 97/97/97 54/54/54 56/56/56 
f 32/32/32 74/74/74 97/97/97 
f 32/32/32 97/97/97 56/56/56 
f 99/99/99 100/100/100 101/101/101 
f 99/99/99 101/101/101 102/102/102 
f 100/100/100 99/99/99 103/103/103 
f 100/100/100 103/103/103 104/104/104 
f 105/105/105 106/106/106 107/107/107 
f 105/105/105 107/107/107 108/108/108 
f 106/106/106 109/109/109 110/110/110 
f 106/106/106 110/110/110 107/107/107 
f 111/111/111 112/112/112 113/113/113 
f 111/111/111 113/113/113 114/114/114 
f 113/113/113 112/112/112 115/115/115 
f 113/113/113 115/115/115 116/116/116 
f 116/116/116 115/115/115 117/117/117 
f 116/116/116 117/117/117 118/118/118 
f 117/117/117 119/119/119 120/120/120 
f 117/117/117 120/120/120 118/118/118 
f 119/119/119 121/121/121 122/122/122 
f 119/119/119 122/122/122 120/120/120 
f 123/123/123 124/124/124 125/125/125 
f 123/123/123 125/125/125 126/126/126 
f 126/126/126 125/125/125 127/127/127 
f 126/126/126 127/127/127 128/128/128 
f 129/129/129 130/130/130 131/131/131 
f 129/129/129 131/131/131 132/132/132 
f 133/133/133 132/132/132 131/131/131 
f 133/133/133 131/131/131 134/134/134 
f 135/135/135 136/136/136 133/133/133 
f 135/135/135 133/133/133 134/134/134 
f 136/136/136 135/135/135 137/137/137 
f 136/136/136 137/137/137 138/138/138 
f 138/138/138 137/137/137 139/139/139 
f 138/138/138 139/139/139 140/140/140 
f 140/140/140 139/139/139 141/141/141 
f 140/140/140 141/141/141 142/142/142 
f 142/142/142 141/141/141 143/143/143 
f 142/142/142 143/143/143 144/144/144 
f 145/145/145 144/144/144 143/143/143 
f 145/145/145 143/143/143 146/146/146 
f 147/147/147 145/145/145 146/146/146 
f 147/147/147 146/146/146 148/148/148 
f 149/149/149 150/150/150 147/147/147 
f 149/149/149 147/147/147 148/148/148 
f 150/150/150 149/149/149 124/124/124 
f 150/150/150 124/124/124 123/123/123 
f 151/151/151 152/152/152 153/153/153 
f 151/151/151 153/153/153 154/154/154 
f 155/155/155 156/156/156 154/154/154 
f 155/155/155 154/154/154 153/153/153 
f 157/157/157 156/156/156 155/155/155 
f 157/157/157 155/155/155 158/158/158 
f 159/159/159 160/160/160 161/161/161 
f 159/159/159 161/161/161 162/162/162 
f 163/163/163 160/160/160 159/159/159 
f 163/163/163 159/159/159 164/164/164 
f 165/165/165 166/166/166 163/163/163 
f 165/165/165 163/163/163 164/164/164 
f 167/167/167 166/166/166 165/165/165 
f 167/167/167 165/165/165 168/168/168 
f 169/169/169 167/167/167 168/168/168 
f 169/169/169 168/168/168 170/170/170 
f 171/171/171 172/172/172 169/169/169 
f 171/171/171 169/169/169 170/170/170 
f 173/173/173 174/174/174 172/172/172 
f 173/173/173 172/172/172 171/171/171 
f 175/175/175 176/176/176 174/174/174 
f 175/175/175 174/174/174 173/173/173 
f 177/177/177 176/176/176 175/175/175 
f 177/177/177 175/175/175 178/178/178 
f 151/151/151 177/177/177 178/178/178 
f 151/151/151 178/178/178 152/152/152 
f 22/22/22 21/21/21 18/18/18 
f 22/22/22 18/18/18 17/17/17 
f 43/43/43 48/48/48 47/47/47 
f 43/43/43 47/47/47 44/44/44 
f 66/66/66 48/48/48 43/43/43 
f 66/66/66 43/43/43 65/65/65 
f 85/85/85 87/87/87 90/90/90 
f 85/85/85 90/90/90 86/86/86 
