v 1.6177350 -3.1436350 0.6891151
vn 0.0000000 -1.0000000 0.0000000
vt 0.8405648 0.3364718
v 1.5373920 -3.1436350 0.6891151
vn 0.0000000 -1.0000000 0.0000000
vt 0.8405648 0.3289717
v 1.5373920 -3.0979469 0.5186076
vn 0.0000000 -0.8660271 -0.4999971
vt 0.8567648 0.3289717
v 1.6177350 -3.0979469 0.5186076
vn 0.0000000 -0.8660271 -0.4999971
vt 0.8567648 0.3364718
v 1.5373920 -2.9731281 0.3937878
vn 0.0000000 -0.5000019 -0.8660243
vt 0.8728648 0.3289717
v 1.6177350 -2.9731281 0.3937878
vn 0.0000000 -0.5000019 -0.8660243
vt 0.8728648 0.3364718
v 1.5373920 -2.8026209 0.3481003
vn 0.0000000 0.0000000 -1.0000000
vt 0.8567648 0.3289717
v 1.6177350 -2.8026209 0.3481003
vn 0.0000000 0.0000000 -1.0000000
vt 0.8567648 0.3364718
v 1.6177350 -3.0979469 0.5186076
vn 0.9524076 -0.2639887 -0.1524130
vt 0.2560186 0.4234183
v 1.7268800 -2.8026209 0.6891145
vn 1.0000000 0.0000000 0.0000000
vt 0.2841686 0.4397016
v 1.6177350 -3.1436350 0.6891151
vn 0.9524077 -0.3048274 0.0000000
vt 0.2517186 0.4397182
v 1.6177350 -2.9731281 0.3937878
vn 0.9524080 -0.1524138 -0.2639869
vt 0.2679186 0.4115183
v 1.6177350 -2.8026209 0.3481003
vn 0.9524081 0.0000000 -0.3048259
vt 0.2842185 0.4072183
v 1.6177350 -2.6321139 0.3937878
vn 0.9524080 0.1524128 -0.2639874
vt 0.3004186 0.4115183
v 1.5373920 -3.0979469 0.8596213
vn 0.0000000 -0.8660256 0.4999997
vt 0.8567648 0.3289717
v 1.6177350 -3.0979469 0.8596213
vn 0.0000000 -0.8660256 0.4999997
vt 0.8567648 0.3364718
v 1.5373920 -2.9731281 0.9844411
vn 0.0000000 -0.5000019 0.8660243
vt 0.8728648 0.3289717
v 1.6177350 -2.9731281 0.9844411
vn 0.0000000 -0.5000019 0.8660243
vt 0.8728648 0.3364718
v 1.5373920 -2.8026209 1.0301290
vn 0.0000000 0.0000000 1.0000000
vt 0.8567648 0.3289717
v 1.6177350 -2.8026209 1.0301290
vn 0.0000000 0.0000000 1.0000000
vt 0.8567648 0.3364718
v 1.6177350 -3.0979469 0.8596213
vn 0.9524077 -0.2639883 0.1524134
vt 0.2560186 0.4559183
v 1.6177350 -2.9731281 0.9844411
vn 0.9524080 -0.1524136 0.2639871
vt 0.2679186 0.4678183
v 1.6177350 -2.8026209 1.0301290
vn 0.9524080 0.0000000 0.3048262
vt 0.2842185 0.4722183
v 1.6177350 -2.6321139 0.9844411
vn 0.9524079 0.1524133 0.2639875
vt 0.3004186 0.4678183
v 1.5373920 -2.5072930 0.5186076
vn 0.0000000 0.8660269 -0.4999973
vt 0.8567648 0.3289717
v 1.5373920 -2.4616070 0.6891149
vn 0.0000000 1.0000000 0.0000000
vt 0.8728648 0.3289717
v 1.6177360 -2.4616070 0.6891149
vn 0.0000000 1.0000000 0.0000000
vt 0.8728648 0.3364718
v 1.6177350 -2.5072930 0.5186076
vn 0.0000000 0.8660271 -0.4999970
vt 0.8567648 0.3364718
v 1.5373920 -2.6321139 0.3937878
vn 0.0000000 0.4999992 -0.8660259
vt 0.8405648 0.3289717
v 1.6177350 -2.6321139 0.3937878
vn 0.0000000 0.4999992 -0.8660259
vt 0.8405648 0.3364718
v 1.5373920 -2.8026209 1.0301290
vn -1.0000000 0.0000000 0.0000000
vt 0.9688131 0.5583311
v 1.5373920 -2.6321139 0.9844411
vn -1.0000000 0.0000000 0.0000000
vt 0.9845131 0.5624311
v 1.5373920 -2.5072930 0.8596212
vn -1.0000000 0.0000000 0.0000000
vt 0.9959131 0.5739311
v 1.5373920 -2.9731281 0.9844411
vn -1.0000000 0.0000000 0.0000000
vt 0.9532131 0.5624311
v 1.5373920 -3.0979469 0.8596213
vn -1.0000000 0.0000000 0.0000000
vt 0.9418131 0.5739311
v 1.5373920 -3.1436350 0.6891151
vn -1.0000000 0.0000000 0.0000000
vt 0.9376131 0.5895311
v 1.5373920 -3.0979469 0.5186076
vn -1.0000000 0.0000000 0.0000000
vt 0.9418131 0.6051311
v 1.5373920 -2.9731281 0.3937878
vn -1.0000000 0.0000000 0.0000000
vt 0.9532131 0.6166311
v 1.5373920 -2.8026209 0.3481003
vn -1.0000000 0.0000000 0.0000000
vt 0.9688131 0.6208311
v 1.5373920 -2.6321139 0.3937878
vn -1.0000000 0.0000000 0.0000000
vt 0.9845131 0.6166311
v 1.5373920 -2.4616070 0.6891149
vn -1.0000000 0.0000000 0.0000000
vt 1.0001130 0.5895311
v 1.5373920 -2.5072930 0.5186076
vn -1.0000000 0.0000000 0.0000000
vt 0.9959131 0.6051311
v 1.6177350 -2.5072930 0.5186076
vn 0.9524082 0.2639860 -0.1524141
vt 0.3123186 0.4234183
v 1.6177360 -2.4616070 0.6891149
vn 0.9524086 0.3048245 0.0000000
vt 0.3167186 0.4397182
v 1.5373920 -2.5072930 0.8596212
vn 0.0000000 0.8660263 0.4999985
vt 0.8567648 0.3289717
v 1.6177350 -2.5072930 0.8596212
vn 0.0000000 0.8660265 0.4999982
vt 0.8567648 0.3364718
v 1.5373920 -2.6321139 0.9844411
vn 0.0000000 0.4999994 0.8660258
vt 0.8405648 0.3289717
v 1.6177350 -2.6321139 0.9844411
vn 0.0000000 0.4999994 0.8660258
vt 0.8405648 0.3364718
v 1.6177350 -2.5072930 0.8596212
vn 0.9524081 0.2639862 0.1524145
vt 0.3123186 0.4559183
v -0.0182701 -2.8026209 0.6891144
vn -1.0000000 0.0000000 0.0000000
vt 0.1605505 0.2298477
v 1.6689720 -2.7252181 0.5543255
vn -0.0917321 0.5010627 -0.8605356
vt 0.1644535 0.4532131
v 1.6689720 -2.8800230 0.5543256
vn -0.0917321 -0.5010621 -0.8605359
vt 0.1762535 0.4532131
v 1.6689720 -2.8800230 0.5543256
vn -0.0917321 -0.5010621 -0.8605359
vt 0.1644535 0.4532131
v 1.6689720 -2.9566150 0.6891145
vn -0.0908920 -0.9958608 0.0000000
vt 0.1493035 0.4532131
v -0.0182701 -2.8026209 0.6891144
vn -1.0000000 0.0000000 0.0000000
vt 0.1493035 0.2299773
v 1.6689720 -2.8800230 0.8239034
vn -0.0917321 -0.5010608 0.8605366
vt 0.1223535 0.4532131
v 1.6689720 -2.7252181 0.8239034
vn -0.0917323 0.5010623 0.8605358
vt 0.1341535 0.4532131
v -0.0182701 -2.8026209 0.6891144
vn -1.0000000 0.0000000 0.0000000
vt 0.1279096 0.2295783
v 1.6689720 -2.8800230 0.8239034
vn -0.0917321 -0.5010608 0.8605366
vt 0.1341535 0.4532131
v 1.6689720 -2.6486270 0.6891145
vn -0.0908917 0.9958608 0.0000000
vt 0.1493035 0.4532131
v 1.2701560 -3.1436350 0.6891151
vn 0.0000000 -1.0000000 0.0000000
vt 0.8567648 0.3364718
v 1.1898110 -3.1436350 0.6891151
vn 0.0000000 -1.0000000 0.0000000
vt 0.8567648 0.3289717
v 1.1898119 -3.0355380 0.4561977
vn 0.0000000 -0.7071098 -0.7071037
vt 0.8648148 0.3289717
v 1.2701560 -3.0355380 0.4561977
vn 0.0000000 -0.7071095 -0.7071041
vt 0.8648148 0.3364718
v 1.1898130 -2.8026209 0.3481003
vn 0.0000000 0.0000000 -1.0000000
vt 0.8405648 0.3289717
v 1.2701560 -2.8026209 0.3481003
vn 0.0000000 0.0000000 -1.0000000
vt 0.8405648 0.3364718
v 1.1898119 -3.0355380 0.9220312
vn 0.0000000 -0.7071080 0.7071056
vt 0.8486648 0.3289717
v 1.2701560 -3.0355380 0.9220312
vn 0.0000000 -0.7071075 0.7071061
vt 0.8486648 0.3364718
v 1.1898130 -2.8026209 1.0301290
vn 0.0000000 0.0000000 1.0000000
vt 0.8728648 0.3289717
v 1.2701560 -2.8026209 1.0301290
vn 0.0000000 0.0000000 1.0000000
vt 0.8728648 0.3364718
v 1.1898119 -2.5697041 0.4561976
vn 0.0000000 0.7071078 -0.7071059
vt 0.8648148 0.3289717
v 1.1898130 -2.4616070 0.6891149
vn 0.0000000 1.0000000 0.0000000
vt 0.8567648 0.3289717
v 1.2701560 -2.4616070 0.6891149
vn 0.0000000 1.0000000 0.0000000
vt 0.8567648 0.3364718
v 1.2701560 -2.5697041 0.4561976
vn 0.0000000 0.7071078 -0.7071059
vt 0.8648148 0.3364718
v 1.1898130 -2.5697031 0.9220311
vn 0.0000000 0.7071066 0.7071069
vt 0.8486648 0.3289717
v 1.2701560 -2.5697031 0.9220311
vn 0.0000000 0.7071066 0.7071069
vt 0.8486648 0.3364718
v 1.1898119 -3.0355380 0.9220312
vn -1.0000000 0.0000000 0.0000000
vt 0.9475131 0.6109311
v 1.1898130 -2.8026209 1.0301290
vn -1.0000000 0.0000000 0.0000000
vt 0.9688131 0.6208311
v 1.1898130 -2.5697031 0.9220311
vn -1.0000000 0.0000000 0.0000000
vt 0.9902131 0.6109311
v 1.1898110 -3.1436350 0.6891151
vn -1.0000000 0.0000000 0.0000000
vt 0.9376131 0.5896311
v 1.1898119 -3.0355380 0.4561977
vn -1.0000000 0.0000000 0.0000000
vt 0.9475131 0.5682311
v 1.1898130 -2.8026209 0.3481003
vn -1.0000000 0.0000000 0.0000000
vt 0.9688131 0.5583311
v 1.1898130 -2.4616070 0.6891149
vn -1.0000000 0.0000000 0.0000000
vt 1.0001130 0.5896311
v 1.1898119 -2.5697041 0.4561976
vn -1.0000000 0.0000000 0.0000000
vt 0.9902131 0.5682311
v 1.2701560 -2.5697041 0.4561976
vn 1.0000000 0.0000000 0.0000000
vt 0.9902131 0.5682311
v 1.2701560 -2.4616070 0.6891149
vn 1.0000000 0.0000000 0.0000000
vt 1.0001130 0.5896311
v 1.2701560 -2.5697031 0.9220311
vn 1.0000000 0.0000000 0.0000000
vt 0.9902130 0.6109311
v 1.2701560 -2.8026209 0.3481003
vn 1.0000000 0.0000000 0.0000000
vt 0.9688131 0.5583311
v 1.2701560 -3.0355380 0.4561977
vn 1.0000000 0.0000000 0.0000000
vt 0.9475131 0.5682311
v 1.2701560 -3.1436350 0.6891151
vn 1.0000000 0.0000000 0.0000000
vt 0.9376131 0.5896311
v 1.2701560 -2.8026209 1.0301290
vn 1.0000000 0.0000000 0.0000000
vt 0.9688131 0.6208311
v 1.2701560 -3.0355380 0.9220312
vn 1.0000000 0.0000000 0.0000000
vt 0.9475131 0.6109311
v 1.6177350 -3.1436350 0.6891151
vn 0.0000000 -1.0000000 0.0000000
vt 0.8405648 0.3364718
v 1.5373920 -3.1436350 0.6891151
vn 0.0000000 -1.0000000 0.0000000
vt 0.8405648 0.3289717
v 1.5373920 -2.9731281 0.3937878
vn 0.0000000 -0.5000019 -0.8660243
vt 0.8728648 0.3289717
v 1.6177350 -2.9731281 0.3937878
vn 0.0000000 -0.5000019 -0.8660243
vt 0.8728648 0.3364718
v 1.5373920 -2.9731281 0.9844411
vn 0.0000000 -0.5000019 0.8660243
vt 0.8728648 0.3289717
v 1.6177350 -2.9731281 0.9844411
vn 0.0000000 -0.5000019 0.8660243
vt 0.8728648 0.3364718
v 1.5373920 -2.4616070 0.6891149
vn 0.0000000 1.0000000 0.0000000
vt 0.8728648 0.3289717
v 1.6177360 -2.4616070 0.6891149
vn 0.0000000 1.0000000 0.0000000
vt 0.8728648 0.3364718
v 1.5373920 -2.6321139 0.3937878
vn 0.0000000 0.4999992 -0.8660259
vt 0.8405648 0.3289717
v 1.6177350 -2.6321139 0.3937878
vn 0.0000000 0.4999992 -0.8660259
vt 0.8405648 0.3364718
v 1.5373920 -2.6321139 0.9844411
vn 0.0000000 0.4999994 0.8660258
vt 0.8405648 0.3289717
v 1.6177350 -2.6321139 0.9844411
vn 0.0000000 0.4999994 0.8660258
vt 0.8405648 0.3364718
v -0.0182701 -2.8026209 0.6891144
vn -1.0000000 0.0000000 0.0000000
vt 0.1605505 0.2298477
v 1.1898119 -3.0355380 0.4561977
vn 0.0000000 -0.7071098 -0.7071037
vt 0.8648148 0.3289717
v 1.2701560 -3.0355380 0.4561977
vn 0.0000000 -0.7071095 -0.7071041
vt 0.8648148 0.3364718
v 1.1898130 -2.8026209 0.3481003
vn 0.0000000 0.0000000 -1.0000000
vt 0.8405648 0.3289717
v 1.2701560 -2.8026209 0.3481003
vn 0.0000000 0.0000000 -1.0000000
vt 0.8405648 0.3364718
v 1.1898119 -3.0355380 0.9220312
vn 0.0000000 -0.7071080 0.7071056
vt 0.8486648 0.3289717
v 1.2701560 -3.0355380 0.9220312
vn 0.0000000 -0.7071075 0.7071061
vt 0.8486648 0.3364718
v 1.1898130 -2.8026209 1.0301290
vn 0.0000000 0.0000000 1.0000000
vt 0.8728648 0.3289717
v 1.2701560 -2.8026209 1.0301290
vn 0.0000000 0.0000000 1.0000000
vt 0.8728648 0.3364718
v 1.1898119 -2.5697041 0.4561976
vn 0.0000000 0.7071078 -0.7071059
vt 0.8648148 0.3289717
v 1.2701560 -2.5697041 0.4561976
vn 0.0000000 0.7071078 -0.7071059
vt 0.8648148 0.3364718
v 1.1898130 -2.5697031 0.9220311
vn 0.0000000 0.7071066 0.7071069
vt 0.8486648 0.3289717
v 1.2701560 -2.5697031 0.9220311
vn 0.0000000 0.7071066 0.7071069
vt 0.8486648 0.3364718

g group_168_140627865151792
f 1/1/1 2/2/2 3/3/3 
f 1/1/1 3/3/3 4/4/4 
f 4/4/4 3/3/3 5/5/5 
f 4/4/4 5/5/5 6/6/6 
f 96/96/96 95/95/95 7/7/7 
f 96/96/96 7/7/7 8/8/8 
f 9/9/9 10/10/10 11/11/11 
f 10/10/10 9/9/9 12/12/12 
f 13/13/13 10/10/10 12/12/12 
f 10/10/10 13/13/13 14/14/14 
f 15/15/15 94/94/94 93/93/93 
f 15/15/15 93/93/93 16/16/16 
f 17/17/17 15/15/15 16/16/16 
f 17/17/17 16/16/16 18/18/18 
f 19/19/19 97/97/97 98/98/98 
f 19/19/19 98/98/98 20/20/20 
f 10/10/10 21/21/21 11/11/11 
f 21/21/21 10/10/10 22/22/22 
f 10/10/10 23/23/23 22/22/22 
f 23/23/23 10/10/10 24/24/24 
f 25/25/25 26/26/26 27/27/27 
f 25/25/25 27/27/27 28/28/28 
f 29/29/29 25/25/25 28/28/28 
f 29/29/29 28/28/28 30/30/30 
f 7/7/7 101/101/101 102/102/102 
f 7/7/7 102/102/102 8/8/8 
f 31/31/31 32/32/32 33/33/33 
f 31/31/31 33/33/33 34/34/34 
f 35/35/35 34/34/34 33/33/33 
f 35/35/35 33/33/33 36/36/36 
f 37/37/37 36/36/36 33/33/33 
f 37/37/37 33/33/33 38/38/38 
f 38/38/38 33/33/33 39/39/39 
f 39/39/39 33/33/33 40/40/40 
f 33/33/33 41/41/41 42/42/42 
f 33/33/33 42/42/42 40/40/40 
f 10/10/10 43/43/43 44/44/44 
f 43/43/43 10/10/10 14/14/14 
f 100/100/100 99/99/99 45/45/45 
f 100/100/100 45/45/45 46/46/46 
f 46/46/46 45/45/45 47/47/47 
f 46/46/46 47/47/47 48/48/48 
f 104/104/104 103/103/103 19/19/19 
f 104/104/104 19/19/19 20/20/20 
f 49/49/49 10/10/10 44/44/44 
f 10/10/10 49/49/49 24/24/24 
f 50/50/50 51/51/51 52/52/52 
f 53/53/53 54/54/54 55/55/55 
f 56/56/56 57/57/57 58/58/58 
f 55/55/55 54/54/54 59/59/59 
f 50/50/50 60/60/60 51/51/51 
f 57/57/57 60/60/60 105/105/105 
f 61/61/61 62/62/62 63/63/63 
f 61/61/61 63/63/63 64/64/64 
f 107/107/107 106/106/106 65/65/65 
f 107/107/107 65/65/65 66/66/66 
f 67/67/67 62/62/62 61/61/61 
f 67/67/67 61/61/61 68/68/68 
f 69/69/69 110/110/110 111/111/111 
f 69/69/69 111/111/111 70/70/70 
f 71/71/71 72/72/72 73/73/73 
f 71/71/71 73/73/73 74/74/74 
f 108/108/108 114/114/114 115/115/115 
f 108/108/108 115/115/115 109/109/109 
f 73/73/73 72/72/72 75/75/75 
f 73/73/73 75/75/75 76/76/76 
f 117/117/117 116/116/116 112/112/112 
f 117/117/117 112/112/112 113/113/113 
f 77/77/77 78/78/78 79/79/79 
f 77/77/77 79/79/79 80/80/80 
f 81/81/81 80/80/80 82/82/82 
f 82/82/82 80/80/80 79/79/79 
f 79/79/79 83/83/83 84/84/84 
f 79/79/79 84/84/84 82/82/82 
f 85/85/85 86/86/86 87/87/87 
f 85/85/85 87/87/87 88/88/88 
f 89/89/89 88/88/88 90/90/90 
f 90/90/90 88/88/88 87/87/87 
f 87/87/87 91/91/91 92/92/92 
f 87/87/87 92/92/92 90/90/90 
