v -1.8276150 -2.9467781 1.0049250
vn 0.0000000 0.0553392 -0.9984676
vt 0.4678044 -1.8816581
v -1.8276150 -1.7420059 0.9059858
vn 0.0000000 -0.0208320 -0.9997830
vt 0.4678112 -2.8315959
v -1.0389500 -1.7420059 0.9059858
vn 0.0000000 -0.0208320 -0.9997830
vt 0.0444367 -2.8308029
v -1.0389500 -2.9467781 1.0049250
vn 0.0000000 0.0553392 -0.9984676
vt 0.0444299 -1.8678842
v -1.0389500 -3.1494560 0.8279791
vn 0.0000000 0.8461040 -0.5330179
vt 0.0444506 -1.6592300
v -1.8276150 -3.1494560 0.8279791
vn 0.0000000 0.8461040 -0.5330179
vt 0.4678252 -1.6631951
v -1.0389500 -3.1761501 0.6408241
vn 0.0000000 1.0000000 0.0000000
vt 0.0444732 -1.5156112
v -1.8276150 -3.1761501 0.6408241
vn 0.0000000 1.0000000 0.0000000
vt 0.4678477 -1.5159779
v -1.0389500 -3.1494560 0.4610143
vn 0.0000000 0.8628757 0.5054163
vt 0.0444732 -1.3787420
v -1.8276150 -3.1494560 0.4610143
vn 0.0000000 0.8628757 0.5054163
vt 0.4678477 -1.3746119
v -1.0389500 -2.9596579 0.2712164
vn 0.0000000 0.3798438 0.9250507
vt 0.0444732 -1.1724100
v -1.8276150 -2.9596579 0.2712164
vn 0.0000000 0.3798438 0.9250507
vt 0.4678477 -1.1561651
v -1.0389500 -2.3114460 0.1169112
vn 0.0000000 0.0282758 0.9996002
vt 0.0444732 -0.5889602
v -1.8276150 -2.3114460 0.1169112
vn 0.0000000 0.0282758 0.9996002
vt 0.4678477 -0.5863457
v -1.0389500 2.7576270 0.1094907
vn 0.0000000 -0.0124505 0.9999225
vt 0.0444732 3.1056790
v -1.8276150 2.7576270 0.1094907
vn 0.0000000 -0.0124505 0.9999225
vt 0.4678477 3.1050720
v -1.0996079 -1.7445080 1.0307159
vn 0.0651415 0.0200875 0.9976739
vt 0.8380916 -2.8306251
v -1.0996079 -2.9803641 1.1269530
vn 0.0597504 -0.1064038 0.9925262
vt 0.8380849 -1.9017649
v -1.0389860 -2.9724791 1.0782840
vn 0.8477433 -0.0602327 0.5269756
vt 0.8846322 -1.8951979
v -1.0389860 -1.7385870 0.9868034
vn 0.9010721 0.0071067 0.4336110
vt 0.8846390 -2.8349929
v -1.7234679 -3.2705090 0.8632758
vn -0.0549604 -0.8355245 0.5466976
vt 0.5401297 -1.6513729
v -1.7234679 -2.9803641 1.1269530
vn -0.0589648 -0.1057398 0.9926441
vt 0.5401089 -1.8958330
v -1.8232930 -2.9724791 1.0782840
vn -0.6926953 -0.0779339 0.7170074
vt 0.5045866 -1.8864241
v -1.8232930 -3.2199979 0.8588543
vn -0.6639947 -0.6129560 0.4282477
vt 0.5046073 -1.6627500
v -1.8232930 -3.2530060 0.6417777
vn -0.7331007 -0.6801176 0.0018536
vt 0.5046299 -1.5160871
v -1.7234679 -3.3040340 0.6382899
vn -0.0670966 -0.9977464 -0.0003946
vt 0.5401522 -1.5136271
v -1.7234679 -3.2705090 0.4206496
vn -0.0632848 -0.8672419 -0.4938487
vt 0.5401522 -1.3803749
v -1.8232930 -3.2199979 0.4320444
vn -0.6998872 -0.6113601 -0.3693194
vt 0.5046299 -1.3744960
v -1.7234679 -3.0437081 0.1833239
vn -0.0525206 -0.4146759 -0.9084523
vt 0.5401522 -1.1776919
v -1.8232930 -2.9967010 0.2056284
vn -0.6717941 -0.2746844 -0.6879253
vt 0.5046299 -1.1604381
v -1.7234679 -2.3524790 0.0065297
vn -0.0449805 -0.0328258 -0.9984484
vt 0.5401522 -0.6142135
v -1.8232930 -2.3177309 0.0440606
vn -0.6835157 -0.0168795 -0.7297406
vt 0.5046299 -0.5899029
v -1.7234679 2.7576270 -0.0011353
vn -0.0517648 0.0122045 -0.9985847
vt 0.5401522 3.1036940
v -1.8232930 2.7576261 0.0367224
vn -0.7242904 0.0089490 -0.6894370
vt 0.5046299 3.1042240
v -1.7234690 -1.7445070 1.0307159
vn -0.0615107 0.0200670 0.9979047
vt 0.5401156 -2.8295751
v -1.8232930 -1.7385859 0.9868034
vn -0.7702444 0.0110477 0.6376531
vt 0.5045934 -2.8337500
v -1.7234679 0.1606133 1.0642380
vn -0.0606639 -0.0175886 0.9980033
vt 0.5401270 -4.1849580
v -1.8232930 0.1631212 1.0210220
vn -0.7777485 -0.0111860 0.6284761
vt 0.5046048 -4.1860042
v -1.8276150 -1.7420059 0.9059858
vn -0.9985099 0.0010832 0.0545606
vt 0.4678112 -2.8315959
v -1.8276150 -2.9467781 1.0049250
vn -0.9985005 -0.0037614 0.0546144
vt 0.4678044 -1.8816581
v -1.8276150 -3.1494560 0.8279791
vn -0.9984289 -0.0467954 0.0308198
vt 0.4678252 -1.6631951
v -1.8276150 -3.1761501 0.6408241
vn -0.9983847 -0.0568158 0.0000000
vt 0.4678477 -1.5159779
v -1.8276150 -3.1494560 0.4610143
vn -0.9984019 -0.0483779 -0.0292078
vt 0.4678477 -1.3746119
v -1.8276150 -2.9596579 0.2712164
vn -0.9983206 -0.0224314 -0.0534111
vt 0.4678477 -1.1561651
v -1.8276150 -2.3114460 0.1169112
vn -0.9982504 -0.0017575 -0.0591020
vt 0.4678477 -0.5863457
v -1.8276150 2.7576270 0.1094907
vn -0.9982425 0.0008568 -0.0592556
vt 0.4678477 3.1050720
v -1.8276150 0.1702025 0.9399783
vn 0.0000000 0.0177738 -0.9998420
vt 0.4678226 -4.1854229
v -1.0389500 0.1702025 0.9399783
vn 0.0000000 0.0177738 -0.9998420
vt 0.0444480 -4.1850619
v -1.8276150 0.1702025 0.9399783
vn -0.9985778 -0.0009533 0.0533068
vt 0.4678226 -4.1854229
v -1.0996079 -3.2705090 0.8632758
vn 0.0549149 -0.8351507 0.5472729
vt 0.8379705 -1.6531239
v -1.0389860 -3.2199979 0.8588543
vn 0.8249241 -0.4587604 0.3302107
vt 0.8846530 -1.6629970
v -1.0389860 -3.2530060 0.6417777
vn 0.8761100 -0.4821078 0.0018559
vt 0.8846755 -1.5162821
v -1.0996079 -3.3040340 0.6382899
vn 0.0694845 -0.9975830 -0.0003586
vt 0.8378578 -1.5140040
v -1.0996079 -3.2705090 0.4206496
vn 0.0637544 -0.8672338 -0.4938026
vt 0.8378578 -1.3800800
v -1.0389860 -3.2199979 0.4320454
vn 0.8516929 -0.4463805 -0.2745244
vt 0.8846755 -1.3760900
v -1.0996079 -3.0437081 0.1833239
vn 0.0521297 -0.4146682 -0.9084783
vt 0.8378578 -1.1703560
v -1.0389860 -2.9967010 0.2056284
vn 0.8301871 -0.1997351 -0.5204760
vt 0.8846755 -1.1455631
v -1.0996079 -2.3524799 0.0065297
vn 0.0435473 -0.0327882 -0.9985132
vt 0.8378578 -0.6122208
v -1.0389860 -2.3177321 0.0440606
vn 0.8385606 -0.0110522 -0.5446963
vt 0.8846755 -0.5870209
v -1.0996079 2.7576261 -0.0011353
vn 0.0546207 0.0122029 -0.9984326
vt 0.8380636 3.1035211
v -1.0389860 2.7576270 0.0367224
vn 0.8742054 0.0065243 -0.4855126
vt 0.8846755 3.1037991
v -1.0389860 0.1631212 1.0210220
vn 0.9056700 -0.0075435 0.4239163
vt 0.8846505 -4.1860032
v -1.0996079 0.1606123 1.0642380
vn 0.0644252 -0.0175747 0.9977678
vt 0.8381031 -4.1850739
v -1.4071569 -2.9467781 1.0049250
vn -0.9691129 0.0133074 -0.2462584
vt 0.9924542 -1.7903709
v -1.3801130 -2.9008541 0.9039255
vn -0.9685424 0.0053002 -0.2487923
vt 0.9472629 -1.7967000
v -1.3801130 -3.0465231 0.7865266
vn -0.9720598 0.1957427 -0.1295553
vt 0.9474440 -1.6313529
v -1.4071569 -3.1494560 0.8279791
vn -0.9724628 0.2014523 -0.1171888
vt 0.9926002 -1.6321259
v -1.3801130 -3.0652039 0.6416928
vn -0.9710298 0.2389584 0.0000000
vt 0.9474615 -1.5110068
v -1.4071569 -3.1761501 0.6408241
vn -0.9710304 0.2389561 0.0001129
vt 0.9925827 -1.5105770
v -1.3801130 -3.0465231 0.5042023
vn -0.9727046 0.1979598 0.1210691
vt 0.9474615 -1.3965580
v -1.4071569 -3.1494560 0.4610143
vn -0.9728549 0.2010652 0.1145694
vt 0.9925827 -1.3951058
v -1.3801130 -2.8994949 0.3672089
vn -0.9731449 0.0810402 0.2154568
vt 0.9474615 -1.2152350
v -1.4071569 -2.9596579 0.2712164
vn -0.9731736 0.0846056 0.2139509
vt 0.9925827 -1.2343841
v -1.3801130 -2.2932501 0.2341173
vn -0.9743493 0.0057149 0.2249685
vt 0.9474615 -0.6673923
v -1.4071569 -2.3114460 0.1169112
vn -0.9743391 0.0062246 0.2249993
vt 0.9925827 -0.6802068
v -1.4071569 0.1702025 0.9399783
vn -0.9690045 0.0042952 -0.2470059
vt 0.9907646 -4.1847391
v -1.3801130 0.1757915 0.8342612
vn -0.9690045 0.0042952 -0.2470060
vt 0.9456434 -4.1847262
v -1.3801130 -1.7386060 0.8006922
vn -0.9680668 -0.0049310 -0.2506438
vt 0.9466622 -2.7589700
v -1.4071569 -1.7420070 0.9070065
vn -0.9679602 -0.0059246 -0.2510341
vt 0.9918535 -2.7560160
v -1.3530700 2.7576270 0.1094907
vn 0.9744431 -0.0023566 0.2246220
vt 0.9925827 3.1031160
v -1.3801130 2.7576270 0.2268819
vn 0.9744412 -0.0032467 0.2246190
vt 0.9474615 3.1042280
v -1.3801130 -2.2932501 0.2341173
vn 0.9744441 0.0003253 0.2246299
vt 0.9474615 -0.6673923
v -1.3530700 -2.3114460 0.1169112
vn 0.9744442 0.0003253 0.2246299
vt 0.9925827 -0.6802130
v -1.0389860 -1.7385870 0.9868034
vn 0.9010721 0.0071067 0.4336110
vt 0.0123221 -2.8328960
v -1.0389860 -2.9724791 1.0782840
vn 0.8477433 -0.0602327 0.5269756
vt 0.0123153 -1.8683581
v -1.0389500 -2.9467781 1.0049250
vn 0.9999999 0.0000000 0.0004557
vt 0.0444299 -1.8678842
v -1.0389500 -1.7420059 0.9059858
vn 0.9999999 0.0000000 0.0004553
vt 0.0444367 -2.8308029
v -1.0389500 -3.1494560 0.8279791
vn 0.9999999 -0.0003904 0.0002572
vt 0.0444506 -1.6592300
v -1.0389860 -3.2199979 0.8588543
vn 0.8249241 -0.4587604 0.3302107
vt 0.0123360 -1.6607029
v -1.0389860 -3.2530060 0.6417777
vn 0.8761100 -0.4821078 0.0018559
vt 0.0123584 -1.5151460
v -1.0389500 -3.1761501 0.6408241
vn 0.9999999 -0.0004734 0.0000000
vt 0.0444732 -1.5156112
v -1.0389500 -3.1494560 0.4610143
vn 0.9999999 -0.0004036 -0.0002438
vt 0.0444732 -1.3787420
v -1.0389860 -3.2199979 0.4320454
vn 0.8516929 -0.4463805 -0.2745244
vt 0.0123584 -1.3764679
v -1.0389500 -2.9596579 0.2712164
vn 0.9999999 -0.0001872 -0.0004458
vt 0.0444732 -1.1724100
v -1.0389860 -2.9967010 0.2056284
vn 0.8301871 -0.1997351 -0.5204760
vt 0.0123584 -1.1842442
v -1.0389860 -2.3177321 0.0440606
vn 0.8385606 -0.0110522 -0.5446963
vt 0.0123584 -0.5931649
v -1.0389500 -2.3114460 0.1169112
vn 0.9999999 0.0000000 -0.0004933
vt 0.0444732 -0.5889602
v -1.0389500 0.1702025 0.9399783
vn 0.9999999 0.0000000 0.0004448
vt 0.0444480 -4.1850619
v -1.0389860 0.1631212 1.0210220
vn 0.9056700 -0.0075435 0.4239163
vt 0.0123334 -4.1859798
v -1.0389500 0.1702025 0.9399783
vn 0.0000000 0.9970011 0.0773882
vt 0.0649202 4.4796300
v -1.8232930 0.1631212 1.0210220
vn 0.0000000 0.9964979 0.0836177
vt 0.3831444 4.4405832
v -1.7234679 0.1606133 1.0642380
vn 0.0000000 0.9970452 0.0768183
vt 0.3343034 4.4197612
v -1.0389860 0.1631212 1.0210220
vn 0.0000000 0.9971603 0.0753092
vt 0.0649377 4.4405832
v -1.8276150 0.1702025 0.9399783
vn 0.0000000 0.9962045 0.0870444
vt 0.3852589 4.4796300
v -1.0996079 0.1606123 1.0642380
vn 0.0000000 0.9983189 0.0579609
vt 0.0945978 4.4197612
v -1.0389500 3.0556519 0.1837391
vn 0.0000000 -0.1306155 0.9914331
vt 0.0444732 3.3304410
v -1.8276150 3.0556519 0.1837391
vn 0.0000000 -0.1306155 0.9914331
vt 0.4678477 3.3311820
v -1.8232930 3.0556519 0.1109762
vn -0.7334893 0.0871262 -0.6740938
vt 0.5046299 3.3242080
v -1.7234679 3.0556519 0.0731023
vn -0.0522721 0.1307982 -0.9900301
vt 0.5401522 3.3238370
v -1.8276150 3.0556519 0.1837391
vn -0.9982138 0.0073051 -0.0592950
vt 0.4678477 3.3311820
v -1.0996079 3.0556519 0.0731023
vn 0.0555343 0.1307583 -0.9898577
vt 0.8380756 3.3263969
v -1.0389860 3.0556519 0.1109762
vn 0.8810559 0.0597283 -0.4692260
vt 0.8846755 3.3311529
v -1.4071569 2.7576270 0.1094907
vn -0.9744409 -0.0023567 0.2246316
vt 0.9925827 3.1030850
v -1.3801130 2.7576270 0.2268819
vn -0.9744391 -0.0032468 0.2246286
vt 0.9474615 3.1042280
v -1.3530700 3.0556519 0.1837391
vn 0.9740043 -0.0313295 0.2243529
vt 0.9925827 3.3207190
v -1.3801130 3.0556519 0.3011397
vn 0.9741094 -0.0276919 0.2243749
vt 0.9474615 3.3358049
v -1.0389860 2.7576270 0.0367224
vn 0.8742054 0.0065243 -0.4855126
vt 0.0123584 3.1050820
v -1.0389500 2.7576270 0.1094907
vn 0.9999999 0.0000000 -0.0004946
vt 0.0444732 3.1056790
v -1.4071569 3.0556519 0.1837391
vn -0.9740020 -0.0313306 0.2243625
vt 0.9925827 3.3207190
v -1.3801130 3.0556519 0.3011397
vn -0.9741071 -0.0276929 0.2243845
vt 0.9474615 3.3358049
v -1.0389860 3.0556519 0.1109762
vn 0.8810559 0.0597283 -0.4692260
vt 0.0123584 3.3212650
v -1.0389500 3.0556519 0.1837391
vn 0.9999999 0.0000000 -0.0004949
vt 0.0444732 3.3304410
v -1.0389500 3.5874071 0.2188094
vn 0.0000000 0.0671018 0.9977462
vt 0.0444732 3.7171879
v -1.8276150 3.5874071 0.2188094
vn 0.0000000 0.0671018 0.9977462
vt 0.4678477 3.7131231
v -1.8232930 3.5874071 0.1460560
vn -0.7499947 -0.0434646 -0.6600142
vt 0.5046299 3.7204981
v -1.7234679 3.5874071 0.1081534
vn -0.0534738 -0.0672606 -0.9963015
vt 0.5401522 3.7215011
v -1.8276150 3.5874071 0.2188094
vn -0.9982333 -0.0036890 -0.0593023
vt 0.4678477 3.7131231
v -1.0996079 3.5874071 0.1081534
vn 0.0573160 -0.0672387 -0.9960893
vt 0.8380970 3.7164600
v -1.0389860 3.5874071 0.1460560
vn 0.8922462 -0.0291609 -0.4506066
vt 0.8846755 3.7117701
v -1.3530700 3.5874071 0.2188094
vn 0.9743637 0.0160277 0.2244070
vt 0.9925827 3.7323480
v -1.3801130 3.5874071 0.3362266
vn 0.9743932 0.0139890 0.2244151
vt 0.9474615 3.7169390
v -1.3801130 3.5874071 0.3362266
vn -0.9743910 0.0139894 0.2244247
vt 0.9474615 3.7169390
v -1.4071569 3.5874071 0.2188094
vn -0.9743615 0.0160282 0.2244166
vt 0.9925827 3.7323480
v -1.0389860 3.5874071 0.1460560
vn 0.8922462 -0.0291609 -0.4506066
vt 0.0123584 3.7265720
v -1.0389500 3.5874071 0.2188094
vn 0.9999999 0.0000000 -0.0004950
vt 0.0444732 3.7171879
v -1.0389500 4.1908588 0.1073927
vn 0.0000000 0.1815635 0.9833792
vt 0.0444732 4.1773672
v -1.8276150 4.1908588 0.1073927
vn 0.0000000 0.1815635 0.9833792
vt 0.4678477 4.1773672
v -1.8232930 4.1908588 0.0346501
vn -0.6876857 -0.1318225 -0.7139407
vt 0.5046299 4.1773672
v -1.7234679 4.1908588 -0.0032851
vn -0.0496288 -0.1813705 -0.9821618
vt 0.5401522 4.1773672
v -1.8276150 4.1908588 0.1073927
vn -0.9981800 -0.0109489 -0.0593032
vt 0.4678477 4.1773672
v -1.0996079 4.1908588 -0.0032851
vn 0.0513427 -0.1813561 -0.9820763
vt 0.8381213 4.1773672
v -1.0389860 4.1908588 0.0346501
vn 0.8475366 -0.0963671 -0.5219149
vt 0.8846755 4.1773672
v -1.3530700 4.1908588 0.1073927
vn 0.9736569 0.0413965 0.2242289
vt 0.9925827 4.1773672
v -1.3801130 4.1908588 0.2248288
vn 0.9736569 0.0413965 0.2242289
vt 0.9474615 4.1773672
v -1.3801130 4.1908588 0.2248288
vn -0.9736546 0.0413979 0.2242385
vt 0.9474615 4.1773672
v -1.4071569 4.1908588 0.1073927
vn -0.9736546 0.0413979 0.2242385
vt 0.9925827 4.1773672
v -1.0389500 4.1908588 0.1073927
vn 0.9999999 0.0000000 -0.0004950
vt 0.0444732 4.1773672
v -1.0389860 4.1908588 0.0346501
vn 0.8475366 -0.0963671 -0.5219149
vt 0.0123584 4.1773672
v -1.0389860 4.1908588 0.0346501
vn 0.0000000 1.0000000 0.0000000
vt 0.0658371 4.4407468
v -1.0996079 4.1908588 -0.0032851
vn 0.0000000 1.0000000 0.0000000
vt 0.0944299 4.4231272
v -1.7234679 4.1908588 -0.0032851
vn 0.0000000 1.0000000 0.0000000
vt 0.3255088 4.4231272
v -1.0389500 4.1908588 0.1073927
vn 0.0000000 1.0000000 0.0000000
vt 0.0658202 4.4745350
v -1.8232930 4.1908588 0.0346501
vn 0.0000000 1.0000000 0.0000000
vt 0.3725920 4.4407468
v -1.8276150 4.1908588 0.1073927
vn 0.0000000 1.0000000 0.0000000
vt 0.3746306 4.4745340
v -1.1930259 -2.9596591 0.2712165
vn -0.9723749 0.0521273 0.2275301
vt 0.9925827 -1.2343841
v -1.1659820 -2.8994949 0.3672091
vn -0.9723749 0.0521273 0.2275301
vt 0.9474615 -1.2152350
v -1.1659820 -2.2932501 0.2341174
vn -0.9743494 0.0057149 0.2249680
vt 0.9474615 -0.6673923
v -1.1930259 -2.3114460 0.1169112
vn -0.9743392 0.0062246 0.2249987
vt 0.9925827 -0.6802068
v -1.1389390 -2.9467790 1.0049260
vn 0.9691156 0.0133068 -0.2462479
vt 0.9924542 -1.7903650
v -1.1389390 -3.1494560 0.8279793
vn 0.9724651 0.2014441 -0.1171836
vt 0.9926002 -1.6321790
v -1.1659820 -3.0465231 0.7865266
vn 0.9720622 0.1957349 -0.1295494
vt 0.9474440 -1.6313529
v -1.1659820 -2.9008551 0.9039255
vn 0.9685451 0.0053002 -0.2487816
vt 0.9472629 -1.7967000
v -1.1389390 -3.1761510 0.6408241
vn 0.9710330 0.2389455 0.0001128
vt 0.9925827 -1.5105729
v -1.1659820 -3.0652039 0.6416928
vn 0.9710324 0.2389478 0.0000000
vt 0.9474615 -1.5110068
v -1.1389390 -3.1494560 0.4610143
vn 0.9728572 0.2010571 0.1145643
vt 0.9925827 -1.3951180
v -1.1659820 -3.0465231 0.5042023
vn 0.9727069 0.1979519 0.1210637
vt 0.9474615 -1.3965580
v -1.1389390 -2.9596591 0.2712165
vn 0.9731758 0.0846025 0.2139421
vt 0.9925827 -1.2343831
v -1.1659820 -2.8994949 0.3672091
vn 0.9731470 0.0810372 0.2154480
vt 0.9474615 -1.2152350
v -1.1389390 -2.3114460 0.1169112
vn 0.9743412 0.0062244 0.2249903
vt 0.9925827 -0.6802130
v -1.1659820 -2.2932501 0.2341174
vn 0.9743513 0.0057147 0.2249595
vt 0.9474615 -0.6673923
v -1.1389390 2.7576270 0.1094908
vn 0.9744430 -0.0023566 0.2246226
vt 0.9925827 3.1031160
v -1.1659820 2.7576270 0.2268819
vn 0.9744411 -0.0032466 0.2246196
vt 0.9474615 3.1042280
v -1.1389390 0.1702025 0.9399783
vn 0.9690070 0.0042950 -0.2469960
vt 0.9907646 -4.1847391
v -1.1389390 -1.7420070 0.9070068
vn 0.9679628 -0.0059243 -0.2510237
vt 0.9918535 -2.7561071
v -1.1659820 -1.7386070 0.8006922
vn 0.9680695 -0.0049309 -0.2506335
vt 0.9466622 -2.7589700
v -1.1659820 0.1757915 0.8342612
vn 0.9690070 0.0042950 -0.2469960
vt 0.9456434 -4.1847262
v -1.1930259 2.7576270 0.1094908
vn -0.9744411 -0.0023566 0.2246310
vt 0.9925827 3.1030850
v -1.1659820 2.7576270 0.2268819
vn -0.9744391 -0.0032467 0.2246281
vt 0.9474615 3.1042280
v -1.1389390 3.0556519 0.1837392
vn 0.9740041 -0.0313294 0.2243535
vt 0.9925827 3.3207190
v -1.1659820 3.0556519 0.3011397
vn 0.9741093 -0.0276918 0.2243755
vt 0.9474615 3.3358049
v -1.1930259 3.0556519 0.1837392
vn -0.9740021 -0.0313306 0.2243619
vt 0.9925827 3.3207190
v -1.1659820 3.0556519 0.3011397
vn -0.9741073 -0.0276929 0.2243838
vt 0.9474615 3.3358049
v -1.1389390 3.5874071 0.2188094
vn 0.9743636 0.0160277 0.2244076
vt 0.9925827 3.7323480
v -1.1659820 3.5874071 0.3362267
vn 0.9743931 0.0139890 0.2244156
vt 0.9474615 3.7169390
v -1.1659820 3.5874071 0.3362267
vn -0.9743912 0.0139894 0.2244240
vt 0.9474615 3.7169390
v -1.1930259 3.5874071 0.2188094
vn -0.9743617 0.0160281 0.2244160
vt 0.9925827 3.7323480
v -1.1389390 4.1908588 0.1073927
vn 0.9736568 0.0413965 0.2242295
vt 0.9925827 4.1773672
v -1.1659820 4.1908588 0.2248289
vn 0.9736568 0.0413965 0.2242295
vt 0.9474615 4.1773672
v -1.1659820 4.1908588 0.2248289
vn -0.9736548 0.0413979 0.2242378
vt 0.9474615 4.1773672
v -1.1930259 4.1908588 0.1073927
vn -0.9736547 0.0413979 0.2242378
vt 0.9925827 4.1773672

g group_192_140627865163232
f 1/1/1 2/2/2 3/3/3 
f 1/1/1 3/3/3 4/4/4 
f 5/5/5 6/6/6 1/1/1 
f 5/5/5 1/1/1 4/4/4 
f 7/7/7 8/8/8 6/6/6 
f 7/7/7 6/6/6 5/5/5 
f 9/9/9 10/10/10 8/8/8 
f 9/9/9 8/8/8 7/7/7 
f 11/11/11 12/12/12 10/10/10 
f 11/11/11 10/10/10 9/9/9 
f 13/13/13 14/14/14 12/12/12 
f 13/13/13 12/12/12 11/11/11 
f 15/15/15 16/16/16 14/14/14 
f 15/15/15 14/14/14 13/13/13 
f 17/17/17 18/18/18 19/19/19 
f 17/17/17 19/19/19 20/20/20 
f 21/21/21 22/22/22 23/23/23 
f 21/21/21 23/23/23 24/24/24 
f 25/25/25 26/26/26 21/21/21 
f 25/25/25 21/21/21 24/24/24 
f 27/27/27 26/26/26 25/25/25 
f 27/27/27 25/25/25 28/28/28 
f 29/29/29 27/27/27 28/28/28 
f 29/29/29 28/28/28 30/30/30 
f 31/31/31 29/29/29 30/30/30 
f 31/31/31 30/30/30 32/32/32 
f 33/33/33 31/31/31 32/32/32 
f 33/33/33 32/32/32 34/34/34 
f 23/23/23 22/22/22 35/35/35 
f 23/23/23 35/35/35 36/36/36 
f 36/36/36 35/35/35 37/37/37 
f 36/36/36 37/37/37 38/38/38 
f 39/39/39 40/40/40 23/23/23 
f 39/39/39 23/23/23 36/36/36 
f 41/41/41 24/24/24 23/23/23 
f 41/41/41 23/23/23 40/40/40 
f 25/25/25 24/24/24 41/41/41 
f 25/25/25 41/41/41 42/42/42 
f 43/43/43 28/28/28 25/25/25 
f 43/43/43 25/25/25 42/42/42 
f 44/44/44 30/30/30 28/28/28 
f 44/44/44 28/28/28 43/43/43 
f 32/32/32 30/30/30 44/44/44 
f 32/32/32 44/44/44 45/45/45 
f 34/34/34 32/32/32 45/45/45 
f 34/34/34 45/45/45 46/46/46 
f 2/2/2 47/47/47 48/48/48 
f 2/2/2 48/48/48 3/3/3 
f 36/36/36 38/38/38 49/49/49 
f 36/36/36 49/49/49 39/39/39 
f 50/50/50 51/51/51 19/19/19 
f 50/50/50 19/19/19 18/18/18 
f 52/52/52 51/51/51 50/50/50 
f 52/52/52 50/50/50 53/53/53 
f 54/54/54 55/55/55 52/52/52 
f 54/54/54 52/52/52 53/53/53 
f 56/56/56 57/57/57 55/55/55 
f 56/56/56 55/55/55 54/54/54 
f 58/58/58 59/59/59 57/57/57 
f 58/58/58 57/57/57 56/56/56 
f 60/60/60 61/61/61 59/59/59 
f 60/60/60 59/59/59 58/58/58 
f 20/20/20 62/62/62 63/63/63 
f 20/20/20 63/63/63 17/17/17 
f 17/17/17 35/35/35 22/22/22 
f 17/17/17 22/22/22 18/18/18 
f 50/50/50 18/18/18 22/22/22 
f 50/50/50 22/22/22 21/21/21 
f 53/53/53 50/50/50 21/21/21 
f 53/53/53 21/21/21 26/26/26 
f 54/54/54 53/53/53 26/26/26 
f 54/54/54 26/26/26 27/27/27 
f 56/56/56 54/54/54 27/27/27 
f 56/56/56 27/27/27 29/29/29 
f 58/58/58 56/56/56 29/29/29 
f 58/58/58 29/29/29 31/31/31 
f 17/17/17 63/63/63 37/37/37 
f 17/17/17 37/37/37 35/35/35 
f 64/64/64 65/65/65 66/66/66 
f 64/64/64 66/66/66 67/67/67 
f 66/66/66 68/68/68 69/69/69 
f 66/66/66 69/69/69 67/67/67 
f 69/69/69 68/68/68 70/70/70 
f 69/69/69 70/70/70 71/71/71 
f 71/71/71 70/70/70 72/72/72 
f 71/71/71 72/72/72 73/73/73 
f 73/73/73 72/72/72 74/74/74 
f 73/73/73 74/74/74 75/75/75 
f 76/76/76 77/77/77 78/78/78 
f 76/76/76 78/78/78 79/79/79 
f 79/79/79 78/78/78 65/65/65 
f 79/79/79 65/65/65 64/64/64 
f 80/80/80 81/81/81 82/82/82 
f 80/80/80 82/82/82 83/83/83 
f 84/84/84 85/85/85 86/86/86 
f 84/84/84 86/86/86 87/87/87 
f 88/88/88 86/86/86 85/85/85 
f 88/88/88 85/85/85 89/89/89 
f 88/88/88 89/89/89 90/90/90 
f 88/88/88 90/90/90 91/91/91 
f 92/92/92 91/91/91 90/90/90 
f 92/92/92 90/90/90 93/93/93 
f 94/94/94 92/92/92 93/93/93 
f 94/94/94 93/93/93 95/95/95 
f 94/94/94 95/95/95 96/96/96 
f 94/94/94 96/96/96 97/97/97 
f 84/84/84 87/87/87 98/98/98 
f 84/84/84 98/98/98 99/99/99 
f 100/100/100 101/101/101 102/102/102 
f 100/100/100 102/102/102 103/103/103 
f 100/100/100 104/104/104 101/101/101 
f 102/102/102 105/105/105 103/103/103 
f 15/15/15 106/106/106 107/107/107 
f 15/15/15 107/107/107 16/16/16 
f 34/34/34 108/108/108 109/109/109 
f 34/34/34 109/109/109 33/33/33 
f 46/46/46 110/110/110 108/108/108 
f 46/46/46 108/108/108 34/34/34 
f 111/111/111 112/112/112 61/61/61 
f 111/111/111 61/61/61 60/60/60 
f 60/60/60 58/58/58 31/31/31 
f 60/60/60 31/31/31 33/33/33 
f 113/113/113 75/75/75 74/74/74 
f 113/113/113 74/74/74 114/114/114 
f 115/115/115 116/116/116 81/81/81 
f 115/115/115 81/81/81 80/80/80 
f 97/97/97 96/96/96 117/117/117 
f 97/97/97 117/117/117 118/118/118 
f 111/111/111 60/60/60 33/33/33 
f 111/111/111 33/33/33 109/109/109 
f 119/119/119 113/113/113 114/114/114 
f 119/119/119 114/114/114 120/120/120 
f 118/118/118 117/117/117 121/121/121 
f 118/118/118 121/121/121 122/122/122 
f 106/106/106 123/123/123 124/124/124 
f 106/106/106 124/124/124 107/107/107 
f 108/108/108 125/125/125 126/126/126 
f 108/108/108 126/126/126 109/109/109 
f 110/110/110 127/127/127 125/125/125 
f 110/110/110 125/125/125 108/108/108 
f 128/128/128 129/129/129 112/112/112 
f 128/128/128 112/112/112 111/111/111 
f 130/130/130 131/131/131 116/116/116 
f 130/130/130 116/116/116 115/115/115 
f 128/128/128 111/111/111 109/109/109 
f 128/128/128 109/109/109 126/126/126 
f 132/132/132 133/133/133 119/119/119 
f 132/132/132 119/119/119 120/120/120 
f 122/122/122 121/121/121 134/134/134 
f 122/122/122 134/134/134 135/135/135 
f 123/123/123 136/136/136 137/137/137 
f 123/123/123 137/137/137 124/124/124 
f 138/138/138 139/139/139 126/126/126 
f 138/138/138 126/126/126 125/125/125 
f 140/140/140 138/138/138 125/125/125 
f 140/140/140 125/125/125 127/127/127 
f 128/128/128 141/141/141 142/142/142 
f 128/128/128 142/142/142 129/129/129 
f 130/130/130 143/143/143 144/144/144 
f 130/130/130 144/144/144 131/131/131 
f 141/141/141 128/128/128 126/126/126 
f 141/141/141 126/126/126 139/139/139 
f 133/133/133 132/132/132 145/145/145 
f 133/133/133 145/145/145 146/146/146 
f 147/147/147 135/135/135 134/134/134 
f 147/147/147 134/134/134 148/148/148 
f 149/149/149 150/150/150 151/151/151 
f 152/152/152 149/149/149 151/151/151 
f 152/152/152 151/151/151 153/153/153 
f 154/154/154 152/152/152 153/153/153 
f 155/155/155 156/156/156 157/157/157 
f 155/155/155 157/157/157 158/158/158 
f 159/159/159 160/160/160 161/161/161 
f 159/159/159 161/161/161 162/162/162 
f 163/163/163 164/164/164 161/161/161 
f 163/163/163 161/161/161 160/160/160 
f 163/163/163 165/165/165 166/166/166 
f 163/163/163 166/166/166 164/164/164 
f 167/167/167 168/168/168 166/166/166 
f 167/167/167 166/166/166 165/165/165 
f 169/169/169 170/170/170 168/168/168 
f 169/169/169 168/168/168 167/167/167 
f 171/171/171 172/172/172 170/170/170 
f 171/171/171 170/170/170 169/169/169 
f 173/173/173 174/174/174 175/175/175 
f 173/173/173 175/175/175 176/176/176 
f 174/174/174 159/159/159 162/162/162 
f 174/174/174 162/162/162 175/175/175 
f 177/177/177 158/158/158 157/157/157 
f 177/177/177 157/157/157 178/178/178 
f 179/179/179 180/180/180 172/172/172 
f 179/179/179 172/172/172 171/171/171 
f 181/181/181 177/177/177 178/178/178 
f 181/181/181 178/178/178 182/182/182 
f 183/183/183 184/184/184 180/180/180 
f 183/183/183 180/180/180 179/179/179 
f 185/185/185 186/186/186 181/181/181 
f 185/185/185 181/181/181 182/182/182 
f 183/183/183 187/187/187 188/188/188 
f 183/183/183 188/188/188 184/184/184 
f 186/186/186 185/185/185 189/189/189 
f 186/186/186 189/189/189 190/190/190 
