v 1.0551929 2.0489640 0.7185364
vn 0.0000000 0.8660254 0.5000000
vt 0.9816082 0.3698949
v 1.2931809 2.0489640 0.7185364
vn 0.0000000 0.8660254 0.5000000
vt 0.9816079 0.3911772
v 1.2931809 2.1048520 0.5099616
vn 0.0000000 1.0000000 0.0000000
vt 0.9987329 0.3911772
v 1.0551929 2.1048520 0.5099616
vn 0.0000000 1.0000000 0.0000000
vt 0.9987329 0.3698949
v 1.0551929 1.8962770 0.8712235
vn 0.0000000 0.5000007 0.8660251
vt 0.9643843 0.3698949
v 1.2931809 1.8962770 0.8712235
vn 0.0000000 0.5000007 0.8660251
vt 0.9643842 0.3911772
v 1.0551929 1.6877019 0.9271114
vn 0.0000000 0.0000000 1.0000000
vt 0.9472596 0.3698949
v 1.2931809 1.6877019 0.9271114
vn 0.0000000 0.0000000 1.0000000
vt 0.9472596 0.3911771
v 1.0551929 1.4791270 0.8712237
vn 0.0000000 -0.5000005 0.8660251
vt 0.9643843 0.3698949
v 1.2931809 1.4791270 0.8712237
vn 0.0000000 -0.5000005 0.8660251
vt 0.9643842 0.3911772
v 1.0551929 1.3264400 0.7185365
vn 0.0000000 -0.8660248 0.5000011
vt 0.9816082 0.3698949
v 1.2931809 1.3264400 0.7185365
vn 0.0000000 -0.8660248 0.5000011
vt 0.9816079 0.3911772
v 1.0551929 1.2705520 0.5099618
vn 0.0000000 -1.0000000 0.0000000
vt 0.9987329 0.3698949
v 1.2931809 1.2705520 0.5099618
vn 0.0000000 -1.0000000 0.0000000
vt 0.9987329 0.3911772
v 1.2931809 2.0489640 0.3013868
vn 0.0000000 0.8660253 -0.5000002
vt 0.9816079 0.3911772
v 1.0551929 2.0489640 0.3013868
vn 0.0000000 0.8660253 -0.5000002
vt 0.9816082 0.3698949
v 1.2931809 1.8962770 0.1486996
vn 0.0000000 0.5000004 -0.8660253
vt 0.9643842 0.3911772
v 1.0551929 1.8962770 0.1486996
vn 0.0000000 0.5000004 -0.8660253
vt 0.9643843 0.3698949
v 1.2931809 1.6877019 0.0928119
vn 0.0000000 0.0000000 -1.0000000
vt 0.9472596 0.3911771
v 1.0551929 1.6877019 0.0928119
vn 0.0000000 0.0000000 -1.0000000
vt 0.9472596 0.3698949
v 1.2931809 1.4791270 0.1486997
vn 0.0000000 -0.5000006 -0.8660251
vt 0.9643842 0.3911772
v 1.0551929 1.4791270 0.1486997
vn 0.0000000 -0.5000006 -0.8660251
vt 0.9643843 0.3698949
v 1.2931809 1.3264400 0.3013869
vn 0.0000000 -0.8660251 -0.5000005
vt 0.9816079 0.3911772
v 1.0551929 1.3264400 0.3013869
vn 0.0000000 -0.8660251 -0.5000005
vt 0.9816082 0.3698949
v 1.0551929 1.8962770 0.1486996
vn -1.0000000 0.0000000 0.0000000
vt 0.8925726 0.0738559
v 1.0551929 1.6877019 0.0928119
vn -1.0000000 0.0000000 0.0000000
vt 0.9109272 0.0688824
v 1.0551929 1.4791270 0.1486997
vn -1.0000000 0.0000000 0.0000000
vt 0.9244267 0.0555013
v 1.0551929 1.3264400 0.3013869
vn -1.0000000 0.0000000 0.0000000
vt 0.9294001 0.0370283
v 1.0551929 2.0489640 0.3013868
vn -1.0000000 0.0000000 0.0000000
vt 0.8742182 0.0688824
v 1.0551929 2.1048520 0.5099616
vn -1.0000000 0.0000000 0.0000000
vt 0.8607185 0.0555013
v 1.0551929 2.0489640 0.7185364
vn -1.0000000 0.0000000 0.0000000
vt 0.8558637 0.0370283
v 1.0551929 1.8962770 0.8712235
vn -1.0000000 0.0000000 0.0000000
vt 0.8607185 0.0186739
v 1.0551929 1.2705520 0.5099618
vn -1.0000000 0.0000000 0.0000000
vt 0.9244267 0.0186739
v 1.0551929 1.3264400 0.7185365
vn -1.0000000 0.0000000 0.0000000
vt 0.9109272 0.0051744
v 1.0551929 1.4791270 0.8712237
vn -1.0000000 0.0000000 0.0000000
vt 0.8925726 0.0003194
v 1.0551929 1.6877019 0.9271114
vn -1.0000000 0.0000000 0.0000000
vt 0.8742182 0.0051744
v 1.2931809 1.3264400 0.7185365
vn 1.0000000 0.0000000 0.0000000
vt 0.9270814 0.0584470
v 1.2931809 1.2705520 0.5099618
vn 1.0000000 0.0000000 0.0000000
vt 0.9270814 0.0781339
v 1.2931809 1.3264400 0.3013869
vn 1.0000000 0.0000000 0.0000000
vt 0.9365389 0.0945397
v 1.2931809 1.6877019 0.0928119
vn 1.0000000 0.0000000 0.0000000
vt 0.9720525 0.1038041
v 1.2931809 2.0489640 0.7185364
vn 1.0000000 0.0000000 0.0000000
vt 0.9883620 0.0423307
v 1.2931809 1.8962770 0.8712235
vn 1.0000000 0.0000000 0.0000000
vt 0.9717631 0.0326802
v 1.2931809 1.6877019 0.9271114
vn 1.0000000 0.0000000 0.0000000
vt 0.9527515 0.0327767
v 1.2931809 1.4791270 0.8712237
vn 1.0000000 0.0000000 0.0000000
vt 0.9363459 0.0425237
v 1.2931809 1.4791270 0.1486997
vn 1.0000000 0.0000000 0.0000000
vt 0.9529448 0.1038041
v 1.2931809 1.8962770 0.1486996
vn 1.0000000 0.0000000 0.0000000
vt 0.9885550 0.0943468
v 1.2931809 2.0489640 0.3013868
vn 1.0000000 0.0000000 0.0000000
vt 0.9982055 0.0779409
v 1.2931809 2.1048520 0.5099616
vn 1.0000000 0.0000000 0.0000000
vt 0.9981089 0.0582539
v 1.6246010 1.6855780 0.3914466
vn 1.0000000 0.0000000 0.0000000
vt 0.0892305 0.6015062
v 1.6246010 1.7693800 0.4261584
vn 1.0000000 0.0000000 0.0000000
vt 0.0805401 0.6050431
v 1.6246010 1.5670660 0.5099596
vn 1.0000000 0.0000000 0.0000000
vt 0.1013568 0.6137334
v 1.6246010 1.6017780 0.4261585
vn 1.0000000 0.0000000 0.0000000
vt 0.0978200 0.6050431
v 1.6246010 1.6855780 0.6284736
vn 1.0000000 0.0000000 0.0000000
vt 0.0892305 0.6258595
v 1.6246010 1.8040910 0.5099606
vn 1.0000000 0.0000000 0.0000000
vt 0.0770034 0.6137334
v 1.6246010 1.6017770 0.5937607
vn 1.0000000 0.0000000 0.0000000
vt 0.0978200 0.6223227
v 1.6246010 1.7693800 0.5937607
vn 1.0000000 0.0000000 0.0000000
vt 0.0805401 0.6223227
v 1.6245199 1.6849300 0.5897919
vn 0.0000000 -0.0014219 0.9999990
vt 0.9171956 0.2253594
v 1.6245199 1.7649890 0.5097321
vn 0.0031566 0.9999951 0.0000000
vt 0.9176382 0.2360956
v 1.0322160 1.7668580 0.5097324
vn 0.0031566 0.9999951 0.0000000
vt 0.9914171 0.2360956
v 1.0322160 1.6868000 0.5897919
vn 0.0000000 0.0014210 0.9999990
vt 0.9909743 0.2253594
v 1.0322160 1.6868000 0.4296735
vn 0.0000000 0.0014227 -0.9999990
vt 0.9909743 0.2467213
v 1.6245199 1.6849300 0.4296735
vn 0.0000000 -0.0014201 -0.9999990
vt 0.9171956 0.2467213
v 1.0322160 1.6067410 0.5097321
vn -0.0031567 -0.9999951 0.0000000
vt 0.9904208 0.2147338
v 1.6245199 1.6048710 0.5097321
vn -0.0031567 -0.9999951 0.0000000
vt 0.9166421 0.2147338
v 1.0322160 1.6868000 0.4296735
vn 0.0000000 0.0014227 -0.9999990
vt 0.9909743 0.2041083
v 1.6245199 1.6849300 0.4296735
vn 0.0000000 -0.0014201 -0.9999990
vt 0.9171956 0.2041083
v 1.2931809 2.1048520 0.5099616
vn 0.0000000 1.0000000 0.0000000
vt 0.9987329 0.3911772
v 1.0551929 2.1048520 0.5099616
vn 0.0000000 1.0000000 0.0000000
vt 0.9987329 0.3698949
v 1.0551929 1.6877019 0.9271114
vn 0.0000000 0.0000000 1.0000000
vt 0.9472596 0.3698949
v 1.2931809 1.6877019 0.9271114
vn 0.0000000 0.0000000 1.0000000
vt 0.9472596 0.3911771
v 1.0551929 1.2705520 0.5099618
vn 0.0000000 -1.0000000 0.0000000
vt 0.9987329 0.3698949
v 1.2931809 1.2705520 0.5099618
vn 0.0000000 -1.0000000 0.0000000
vt 0.9987329 0.3911772
v 1.2931809 1.6877019 0.0928119
vn 0.0000000 0.0000000 -1.0000000
vt 0.9472596 0.3911771
v 1.0551929 1.6877019 0.0928119
vn 0.0000000 0.0000000 -1.0000000
vt 0.9472596 0.3698949
v 1.6245199 1.6849300 0.5897919
vn 0.0000000 -0.0014219 0.9999990
vt 0.9171956 0.2253594
v 1.0322160 1.6868000 0.5897919
vn 0.0000000 0.0014210 0.9999990
vt 0.9909743 0.2253594

g group_176_140627865155568
f 1/1/1 2/2/2 3/3/3 
f 1/1/1 3/3/3 4/4/4 
f 5/5/5 6/6/6 2/2/2 
f 5/5/5 2/2/2 1/1/1 
f 7/7/7 8/8/8 6/6/6 
f 7/7/7 6/6/6 5/5/5 
f 9/9/9 10/10/10 70/70/70 
f 9/9/9 70/70/70 69/69/69 
f 11/11/11 12/12/12 10/10/10 
f 11/11/11 10/10/10 9/9/9 
f 13/13/13 14/14/14 12/12/12 
f 13/13/13 12/12/12 11/11/11 
f 67/67/67 15/15/15 16/16/16 
f 67/67/67 16/16/16 68/68/68 
f 15/15/15 17/17/17 18/18/18 
f 15/15/15 18/18/18 16/16/16 
f 17/17/17 19/19/19 20/20/20 
f 17/17/17 20/20/20 18/18/18 
f 73/73/73 21/21/21 22/22/22 
f 73/73/73 22/22/22 74/74/74 
f 21/21/21 23/23/23 24/24/24 
f 21/21/21 24/24/24 22/22/22 
f 23/23/23 72/72/72 71/71/71 
f 23/23/23 71/71/71 24/24/24 
f 25/25/25 26/26/26 27/27/27 
f 25/25/25 27/27/27 28/28/28 
f 25/25/25 28/28/28 29/29/29 
f 30/30/30 29/29/29 28/28/28 
f 31/31/31 30/30/30 28/28/28 
f 31/31/31 28/28/28 32/32/32 
f 33/33/33 34/34/34 35/35/35 
f 28/28/28 33/33/33 35/35/35 
f 28/28/28 35/35/35 36/36/36 
f 32/32/32 28/28/28 36/36/36 
f 37/37/37 38/38/38 39/39/39 
f 37/37/37 39/39/39 40/40/40 
f 41/41/41 42/42/42 43/43/43 
f 43/43/43 44/44/44 37/37/37 
f 41/41/41 43/43/43 37/37/37 
f 41/41/41 37/37/37 40/40/40 
f 39/39/39 45/45/45 40/40/40 
f 40/40/40 46/46/46 47/47/47 
f 41/41/41 40/40/40 47/47/47 
f 41/41/41 47/47/47 48/48/48 
f 49/49/49 50/50/50 51/51/51 
f 49/49/49 51/51/51 52/52/52 
f 53/53/53 51/51/51 50/50/50 
f 53/53/53 50/50/50 54/54/54 
f 51/51/51 53/53/53 55/55/55 
f 53/53/53 54/54/54 56/56/56 
f 57/57/57 58/58/58 59/59/59 
f 57/57/57 59/59/59 60/60/60 
f 61/61/61 59/59/59 58/58/58 
f 61/61/61 58/58/58 62/62/62 
f 76/76/76 63/63/63 64/64/64 
f 76/76/76 64/64/64 75/75/75 
f 63/63/63 65/65/65 66/66/66 
f 63/63/63 66/66/66 64/64/64 
