v 1.2986790 -0.1126598 0.8712249
vn 0.0000000 -0.4999989 0.8660261
vt 0.9815091 0.3911772
v 1.5361620 -0.1126598 0.8712238
vn 0.0000000 -0.4999995 0.8660257
vt 0.9815092 0.3698949
v 1.5361620 0.0959161 0.9271115
vn 0.0000000 0.0000000 1.0000000
vt 0.9987329 0.3698949
v 1.2986790 0.0959161 0.9271115
vn 0.0000000 0.0000000 1.0000000
vt 0.9987329 0.3911772
v 1.2986790 -0.2653470 0.7185367
vn 0.0000000 -0.8660256 0.4999997
vt 0.9640872 0.3911772
v 1.5361620 -0.2653470 0.7185367
vn 0.0000000 -0.8660256 0.4999997
vt 0.9640875 0.3698949
v 1.2986790 -0.3212346 0.5099620
vn 0.0000000 -1.0000000 0.0000000
vt 0.9467648 0.3911771
v 1.5361620 -0.3212346 0.5099620
vn 0.0000000 -1.0000000 0.0000000
vt 0.9467648 0.3698949
v 1.5361620 0.3044909 0.8712238
vn 0.0000000 0.5000005 0.8660251
vt 0.9815092 0.3698949
v 1.2986790 0.3044909 0.8712238
vn 0.0000000 0.5000005 0.8660251
vt 0.9815091 0.3911772
v 1.5361620 0.4571781 0.7185366
vn 0.0000000 0.8660253 0.5000001
vt 0.9640875 0.3698949
v 1.2986790 0.4571781 0.7185366
vn 0.0000000 0.8660253 0.5000001
vt 0.9640872 0.3911772
v 1.5361620 0.5130657 0.5099618
vn 0.0000000 1.0000000 0.0000000
vt 0.9467648 0.3698949
v 1.2986790 0.5130657 0.5099618
vn 0.0000000 1.0000000 0.0000000
vt 0.9467648 0.3911771
v 1.5361620 0.0959159 0.0928121
vn 0.0000000 0.0000000 -1.0000000
vt 0.9987329 0.3698949
v 1.5361620 -0.1126589 0.1486999
vn 0.0000000 -0.4999995 -0.8660257
vt 0.9815092 0.3698949
v 1.2986790 -0.1126588 0.1486999
vn 0.0000000 -0.4999994 -0.8660258
vt 0.9815091 0.3911772
v 1.2986790 0.0959160 0.0928121
vn 0.0000000 0.0000000 -1.0000000
vt 0.9987329 0.3911772
v 1.5361620 -0.2653470 0.3013870
vn 0.0000000 -0.8660244 -0.5000018
vt 0.9640875 0.3698949
v 1.2986790 -0.2653470 0.3013870
vn 0.0000000 -0.8660244 -0.5000018
vt 0.9640872 0.3911772
v 1.2986790 0.3044909 0.1486998
vn 0.0000000 0.5000001 -0.8660254
vt 0.9815091 0.3911772
v 1.5361620 0.3044909 0.1486998
vn 0.0000000 0.5000001 -0.8660254
vt 0.9815092 0.3698949
v 1.2986790 0.4571781 0.3013870
vn 0.0000000 0.8660253 -0.5000002
vt 0.9640872 0.3911772
v 1.5361620 0.4571781 0.3013870
vn 0.0000000 0.8660253 -0.5000002
vt 0.9640875 0.3698949
v 1.2986790 0.3044909 0.1486998
vn -1.0000000 0.0000000 0.0000000
vt 0.9007436 0.0729086
v 1.2986790 -0.1126588 0.1486999
vn -1.0000000 0.0000000 0.0000000
vt 0.9277425 0.0479228
v 1.2986790 -0.2653470 0.3013870
vn -1.0000000 0.0000000 0.0000000
vt 0.9284530 0.0289761
v 1.2986790 0.4571781 0.3013870
vn -1.0000000 0.0000000 0.0000000
vt 0.8816785 0.0721981
v 1.2986790 0.0959160 0.0928121
vn -1.0000000 0.0000000 0.0000000
vt 0.9175587 0.0640274
v 1.2986790 0.5130657 0.5099618
vn -1.0000000 0.0000000 0.0000000
vt 0.8655739 0.0620143
v 1.2986790 0.4571781 0.7185366
vn -1.0000000 0.0000000 0.0000000
vt 0.8566927 0.0451992
v 1.2986790 0.3044909 0.8712238
vn -1.0000000 0.0000000 0.0000000
vt 0.8575216 0.0261341
v 1.2986790 0.0959161 0.9271115
vn -1.0000000 0.0000000 0.0000000
vt 0.8675869 0.0100294
v 1.2986790 -0.1126598 0.8712249
vn -1.0000000 0.0000000 0.0000000
vt 0.8845205 0.0012666
v 1.2986790 -0.3212346 0.5099620
vn -1.0000000 0.0000000 0.0000000
vt 0.9195717 0.0121610
v 1.2986790 -0.2653470 0.7185367
vn -1.0000000 0.0000000 0.0000000
vt 0.9034672 0.0019772
v 1.5361620 -0.1126598 0.8712238
vn 1.0000000 0.0000000 0.0000000
vt 0.9648240 0.3056810
v 1.5361620 -0.3212346 0.5099620
vn 1.0000000 0.0000000 0.0000000
vt 0.9394524 0.3240731
v 1.5361620 -0.2653470 0.3013870
vn 1.0000000 0.0000000 0.0000000
vt 0.9369069 0.3400843
v 1.5361620 0.0959161 0.9271115
vn 1.0000000 0.0000000 0.0000000
vt 0.9808351 0.3082263
v 1.5361620 -0.2653470 0.7185367
vn 1.0000000 0.0000000 0.0000000
vt 0.9496338 0.3114285
v 1.5361620 0.3044909 0.8712238
vn 1.0000000 0.0000000 0.0000000
vt 0.9934796 0.3184077
v 1.5361620 0.4571781 0.7185366
vn 1.0000000 0.0000000 0.0000000
vt 0.9992273 0.3335977
v 1.5361620 0.5130657 0.5099618
vn 1.0000000 0.0000000 0.0000000
vt 0.9966820 0.3496088
v 1.5361620 0.4571781 0.3013870
vn 1.0000000 0.0000000 0.0000000
vt 0.9865005 0.3621715
v 1.5361620 0.3044909 0.1486998
vn 1.0000000 0.0000000 0.0000000
vt 0.9713105 0.3680010
v 1.5361620 -0.1126589 0.1486999
vn 1.0000000 0.0000000 0.0000000
vt 0.9427367 0.3552743
v 1.5361620 0.0959159 0.0928121
vn 1.0000000 0.0000000 0.0000000
vt 0.9552994 0.3654557
v 1.5312690 0.0931442 0.5897921
vn 0.0000000 -0.0016046 0.9999987
vt 0.9171956 0.2041083
v 1.5312690 0.1732039 0.5097324
vn 0.0035626 0.9999937 0.0000000
vt 0.9176382 0.2147338
v 1.0064590 0.1750735 0.5097326
vn 0.0035626 0.9999937 0.0000000
vt 0.9914171 0.2147338
v 1.0064590 0.0950140 0.5897921
vn 0.0000000 0.0016031 0.9999987
vt 0.9909743 0.2041083
v 1.0064590 0.0950140 0.5897921
vn 0.0000000 0.0016031 0.9999987
vt 0.9909743 0.2467213
v 1.0064590 0.0149552 0.5097324
vn -0.0035628 -0.9999937 0.0000000
vt 0.9904208 0.2360956
v 1.5312690 0.0130854 0.5097324
vn -0.0035628 -0.9999937 0.0000000
vt 0.9166421 0.2360956
v 1.5312690 0.0931442 0.5897921
vn 0.0000000 -0.0016046 0.9999987
vt 0.9171956 0.2467213
v 1.0064590 0.0950140 0.4296736
vn 0.0000000 0.0016046 -0.9999987
vt 0.9909743 0.2253594
v 1.5312690 0.0931441 0.4296736
vn 0.0000000 -0.0016032 -0.9999987
vt 0.9171956 0.2253594
v 1.5361620 0.0959161 0.9271115
vn 0.0000000 0.0000000 1.0000000
vt 0.9987329 0.3698949
v 1.2986790 0.0959161 0.9271115
vn 0.0000000 0.0000000 1.0000000
vt 0.9987329 0.3911772
v 1.2986790 -0.3212346 0.5099620
vn 0.0000000 -1.0000000 0.0000000
vt 0.9467648 0.3911771
v 1.5361620 -0.3212346 0.5099620
vn 0.0000000 -1.0000000 0.0000000
vt 0.9467648 0.3698949
v 1.5361620 0.5130657 0.5099618
vn 0.0000000 1.0000000 0.0000000
vt 0.9467648 0.3698949
v 1.2986790 0.5130657 0.5099618
vn 0.0000000 1.0000000 0.0000000
vt 0.9467648 0.3911771
v 1.5361620 0.0959159 0.0928121
vn 0.0000000 0.0000000 -1.0000000
vt 0.9987329 0.3698949
v 1.2986790 0.0959160 0.0928121
vn 0.0000000 0.0000000 -1.0000000
vt 0.9987329 0.3911772
v 1.5312690 0.1732039 0.5097324
vn 0.0035626 0.9999937 0.0000000
vt 0.9176382 0.2147338
v 1.0064590 0.0950140 0.4296736
vn 0.0000000 0.0016046 -0.9999987
vt 0.9909743 0.2253594
v 1.5312690 0.0931441 0.4296736
vn 0.0000000 -0.0016032 -0.9999987
vt 0.9171956 0.2253594

g group_175_140627865155120
f 1/1/1 2/2/2 3/3/3 
f 1/1/1 3/3/3 4/4/4 
f 5/5/5 6/6/6 2/2/2 
f 5/5/5 2/2/2 1/1/1 
f 7/7/7 8/8/8 6/6/6 
f 7/7/7 6/6/6 5/5/5 
f 59/59/59 9/9/9 10/10/10 
f 59/59/59 10/10/10 60/60/60 
f 9/9/9 11/11/11 12/12/12 
f 9/9/9 12/12/12 10/10/10 
f 11/11/11 13/13/13 14/14/14 
f 11/11/11 14/14/14 12/12/12 
f 15/15/15 16/16/16 17/17/17 
f 15/15/15 17/17/17 18/18/18 
f 16/16/16 19/19/19 20/20/20 
f 16/16/16 20/20/20 17/17/17 
f 19/19/19 62/62/62 61/61/61 
f 19/19/19 61/61/61 20/20/20 
f 21/21/21 22/22/22 65/65/65 
f 21/21/21 65/65/65 66/66/66 
f 23/23/23 24/24/24 22/22/22 
f 23/23/23 22/22/22 21/21/21 
f 64/64/64 63/63/63 24/24/24 
f 64/64/64 24/24/24 23/23/23 
f 25/25/25 26/26/26 27/27/27 
f 25/25/25 27/27/27 28/28/28 
f 26/26/26 25/25/25 29/29/29 
f 30/30/30 28/28/28 27/27/27 
f 31/31/31 30/30/30 27/27/27 
f 31/31/31 27/27/27 32/32/32 
f 27/27/27 33/33/33 32/32/32 
f 34/34/34 33/33/33 27/27/27 
f 34/34/34 27/27/27 35/35/35 
f 34/34/34 35/35/35 36/36/36 
f 37/37/37 38/38/38 39/39/39 
f 37/37/37 39/39/39 40/40/40 
f 38/38/38 37/37/37 41/41/41 
f 42/42/42 40/40/40 39/39/39 
f 43/43/43 42/42/42 39/39/39 
f 43/43/43 39/39/39 44/44/44 
f 39/39/39 45/45/45 44/44/44 
f 46/46/46 45/45/45 39/39/39 
f 46/46/46 39/39/39 47/47/47 
f 46/46/46 47/47/47 48/48/48 
f 49/49/49 50/50/50 51/51/51 
f 49/49/49 51/51/51 52/52/52 
f 53/53/53 54/54/54 55/55/55 
f 53/53/53 55/55/55 56/56/56 
f 54/54/54 57/57/57 58/58/58 
f 54/54/54 58/58/58 55/55/55 
f 68/68/68 51/51/51 50/50/50 
f 68/68/68 67/67/67 69/69/69 
