v -1.1588399 -0.2216578 0.1185448
vn -0.0126872 0.5384923 -0.8425349
vt 0.3765016 0.2885248
v -1.5150729 -0.2482174 0.1164406
vn -0.0313899 0.4900375 -0.8711360
vt 0.3780419 0.3152192
v -1.5150729 -0.0896026 0.2750556
vn -0.0468398 0.8605641 -0.5071840
vt 0.3611524 0.3152192
v -1.1588399 -0.0478374 0.3319235
vn -0.0022682 0.9314315 -0.3639097
vt 0.3561180 0.2885419
v -1.5150729 -0.0315453 0.4917277
vn -0.0565250 0.9983914 -0.0044244
vt 0.3442627 0.3152192
v -1.1588399 -0.0318438 0.6077621
vn -0.0003741 0.9659259 0.2588189
vt 0.3358202 0.2885426
v -1.5150729 -0.0896025 0.7084000
vn -0.0565250 0.8624203 0.5030270
vt 0.3273730 0.3152192
v -1.1588399 -0.1836138 0.8386486
vn -0.0022683 0.6246890 0.7808704
vt 0.3154797 0.2885418
v -1.5150729 -0.2482173 0.8670151
vn -0.0468399 0.4916790 0.8695159
vt 0.3104834 0.3152192
v -1.1588399 -0.4408361 0.9365298
vn -0.0126873 0.0450807 0.9989028
vt 0.2981834 0.2884659
v -1.1588399 -0.4408361 0.9365298
vn -0.0126873 0.0450807 0.9989028
vt 0.2962908 0.2885007
v -1.5150729 -0.4648895 0.9250723
vn -0.0313902 -0.0111829 0.9994447
vt 0.2935937 0.3152192
v -1.5150729 -0.6815616 0.8670152
vn -0.0301548 -0.4907812 0.8707609
vt 0.3104833 0.3152192
v -1.1588399 -0.7063322 0.8653904
vn -0.0111357 -0.5377210 0.8430493
vt 0.3119075 0.2885217
v -1.5150729 -0.8401768 0.7084001
vn -0.0432444 -0.8609919 0.5067769
vt 0.3273730 0.3152192
v -1.1588399 -0.8801528 0.6520116
vn 0.0019237 -0.9312287 0.3644303
vt 0.3323297 0.2885338
v -1.5150729 -0.8982340 0.4917279
vn -0.0515304 -0.9986625 0.0042270
vt 0.3442627 0.3152192
v -1.1588399 -0.8961465 0.3761730
vn 0.0048300 -0.9659146 -0.2588159
vt 0.3527053 0.2885335
v -1.5150729 -0.8401769 0.2750556
vn -0.0515305 -0.8627536 -0.5029919
vt 0.3611523 0.3152192
v -1.1588399 -0.7443762 0.1452865
vn 0.0019235 -0.6242526 -0.7812203
vt 0.3731167 0.2885350
v -1.5150729 -0.6815616 0.1164407
vn -0.0432445 -0.4922524 -0.8693777
vt 0.3780419 0.3152192
v -1.1588399 -0.4871541 0.0474054
vn -0.0111356 -0.0441558 -0.9989626
vt 0.3904523 0.2884490
v -1.1588399 -0.4871541 0.0474054
vn -0.0111356 -0.0441558 -0.9989626
vt 0.3921078 0.2885049
v -1.5150729 -0.4648897 0.0583835
vn -0.0301546 0.0103508 -0.9994917
vt 0.3949315 0.3152192
v -1.1588399 -0.2216578 0.1185448
vn 1.0000000 0.0000000 0.0000000
vt 0.3460404 0.1204161
v -1.1588399 -0.0478374 0.3319235
vn 1.0000000 0.0000000 0.0000000
vt 0.3310297 0.1081882
v -1.1588399 -0.0318438 0.6077621
vn 1.0000000 0.0000000 0.0000000
vt 0.3116251 0.1070631
v -1.5150729 -0.2482174 0.1164406
vn -1.0000000 0.0000000 0.0000000
vt 0.4936610 0.1093311
v -1.5150729 -0.4648897 0.0583835
vn -1.0000000 0.0000000 0.0000000
vt 0.4773469 0.1049597
v -1.5150729 -0.0896026 0.2750556
vn -1.0000000 0.0000000 0.0000000
vt 0.5056038 0.1212739
v -1.1588399 -0.4871541 0.0474054
vn 1.0000000 0.0000000 0.0000000
vt 0.3510450 0.1390930
v -1.1588399 -0.8961465 0.3761730
vn 1.0000000 0.0000000 0.0000000
vt 0.3279169 0.1678646
v -1.1588399 -0.7443762 0.1452865
vn 1.0000000 0.0000000 0.0000000
vt 0.3441592 0.1571880
v -1.1588399 -0.7063322 0.8653904
vn 1.0000000 0.0000000 0.0000000
vt 0.2935016 0.1545117
v -1.1588399 -0.8801528 0.6520116
vn 1.0000000 0.0000000 0.0000000
vt 0.3085123 0.1667395
v -1.1588399 -0.4408361 0.9365298
vn 1.0000000 0.0000000 0.0000000
vt 0.2884971 0.1358347
v -1.1588399 -0.1836138 0.8386486
vn 1.0000000 0.0000000 0.0000000
vt 0.2953828 0.1177398
v -1.5150729 -0.0896025 0.7084000
vn -1.0000000 0.0000000 0.0000000
vt 0.5056038 0.1539022
v -1.5150729 -0.0315453 0.4917277
vn -1.0000000 0.0000000 0.0000000
vt 0.5099751 0.1375880
v -1.5150729 -0.4648895 0.9250723
vn -1.0000000 0.0000000 0.0000000
vt 0.4773469 0.1702164
v -1.5150729 -0.2482173 0.8670151
vn -1.0000000 0.0000000 0.0000000
vt 0.4936610 0.1658450
v -1.5150729 -0.8401768 0.7084001
vn -1.0000000 0.0000000 0.0000000
vt 0.4490900 0.1539022
v -1.5150729 -0.6815616 0.8670152
vn -1.0000000 0.0000000 0.0000000
vt 0.4610328 0.1658450
v -1.5150729 -0.8401769 0.2750556
vn -1.0000000 0.0000000 0.0000000
vt 0.4490900 0.1212739
v -1.5150729 -0.8982340 0.4917279
vn -1.0000000 0.0000000 0.0000000
vt 0.4447187 0.1375880
v -1.5150729 -0.6815616 0.1164407
vn -1.0000000 0.0000000 0.0000000
vt 0.4610328 0.1093311
v -1.5150729 -0.4648895 0.9250723
vn -0.0313902 -0.0111829 0.9994447
vt 0.2935937 0.3152192
v -1.5150729 -0.4648897 0.0583835
vn -0.0301546 0.0103508 -0.9994917
vt 0.3949315 0.3152192

g group_65560912_140627938914320
f 1/1/1 2/2/2 3/3/3 
f 4/4/4 3/3/3 5/5/5 
f 6/6/6 5/5/5 7/7/7 
f 6/6/6 7/7/7 8/8/8 
f 8/8/8 9/9/9 10/10/10 
f 11/11/11 12/12/12 13/13/13 
f 14/14/14 13/13/13 15/15/15 
f 16/16/16 15/15/15 17/17/17 
f 18/18/18 17/17/17 19/19/19 
f 18/18/18 19/19/19 20/20/20 
f 20/20/20 21/21/21 22/22/22 
f 23/23/23 24/24/24 2/2/2 
f 25/25/25 26/26/26 27/27/27 
f 28/28/28 29/29/29 30/30/30 
f 1/1/1 3/3/3 4/4/4 
f 4/4/4 5/5/5 6/6/6 
f 8/8/8 7/7/7 9/9/9 
f 10/10/10 9/9/9 47/47/47 
f 11/11/11 13/13/13 14/14/14 
f 14/14/14 15/15/15 16/16/16 
f 16/16/16 17/17/17 18/18/18 
f 20/20/20 19/19/19 21/21/21 
f 22/22/22 21/21/21 48/48/48 
f 23/23/23 2/2/2 1/1/1 
f 31/31/31 32/32/32 33/33/33 
f 25/25/25 32/32/32 31/31/31 
f 32/32/32 34/34/34 35/35/35 
f 32/32/32 36/36/36 34/34/34 
f 25/25/25 36/36/36 32/32/32 
f 36/36/36 27/27/27 37/37/37 
f 25/25/25 27/27/27 36/36/36 
f 30/30/30 38/38/38 39/39/39 
f 38/38/38 40/40/40 41/41/41 
f 30/30/30 40/40/40 38/38/38 
f 40/40/40 42/42/42 43/43/43 
f 42/42/42 44/44/44 45/45/45 
f 40/40/40 44/44/44 42/42/42 
f 30/30/30 44/44/44 40/40/40 
f 44/44/44 29/29/29 46/46/46 
f 30/30/30 29/29/29 44/44/44 
