v 1.1833060 -2.6243291 1.0058450
vn 0.0000000 0.7071062 -0.7071074
vt 0.5788785 0.3853756
v 1.1833060 -2.5844800 1.1020490
vn 0.0000000 1.0000000 0.0000002
vt 0.5702286 0.3853756
v 1.3062650 -2.6243291 1.0058450
vn 0.0000000 0.7071062 -0.7071074
vt 0.5788785 0.3955898
v 1.3062650 -2.5844800 1.1020490
vn 0.0000000 1.0000000 0.0000002
vt 0.5702286 0.3955898
v 1.1833060 -2.6243291 1.1982530
vn 0.0000000 0.7071062 0.7071075
vt 0.5615786 0.3853756
v 1.3062650 -2.6243291 1.1982530
vn 0.0000000 0.7071062 0.7071075
vt 0.5615786 0.3955898
v 1.1833060 -2.7205329 1.2381020
vn 0.0000000 -0.0000009 1.0000000
vt 0.5529286 0.3853756
v 1.3062650 -2.7205329 1.2381020
vn 0.0000000 -0.0000009 1.0000000
vt 0.5529286 0.3955898
v 1.1833060 -2.8167360 1.1982530
vn 0.0000000 -0.7071075 0.7071062
vt 0.5615786 0.3853756
v 1.3062650 -2.8167360 1.1982530
vn 0.0000000 -0.7071075 0.7071062
vt 0.5615786 0.3955898
v 1.1833060 -2.8565850 1.1020490
vn 0.0000000 -1.0000000 0.0000002
vt 0.5702285 0.3853756
v 1.3062650 -2.8565850 1.1020490
vn 0.0000000 -1.0000000 0.0000002
vt 0.5702285 0.3955898
v 1.1833060 -2.8167360 1.0058450
vn 0.0000000 -0.7071077 -0.7071059
vt 0.5788785 0.3853756
v 1.3062650 -2.8167360 1.0058450
vn 0.0000000 -0.7071077 -0.7071059
vt 0.5788785 0.3955898
v 1.1833060 -2.7205329 0.9659965
vn 0.0000000 -0.0000009 -1.0000000
vt 0.5875285 0.3853756
v 1.3062650 -2.7205329 0.9659965
vn 0.0000000 -0.0000009 -1.0000000
vt 0.5875285 0.3955898
v 1.1833060 -2.6243291 1.0058450
vn -1.0000000 0.0000000 0.0000000
vt 0.5361465 0.3667894
v 1.1833060 -2.7205329 0.9659965
vn -1.0000000 0.0000000 0.0000000
vt 0.5328362 0.3747810
v 1.1833060 -2.5844800 1.1020490
vn -1.0000000 0.0000000 0.0000000
vt 0.5441380 0.3634792
v 1.1833060 -2.6243291 1.1982530
vn -1.0000000 0.0000000 0.0000000
vt 0.5521295 0.3667894
v 1.1833060 -2.7205329 1.2381020
vn -1.0000000 0.0000000 0.0000000
vt 0.5554398 0.3747810
v 1.1833060 -2.8167360 1.1982530
vn -1.0000000 0.0000000 0.0000000
vt 0.5521295 0.3827725
v 1.1833060 -2.8565850 1.1020490
vn -1.0000000 0.0000000 0.0000000
vt 0.5441380 0.3860827
v 1.1833060 -2.8167360 1.0058450
vn -1.0000000 0.0000000 0.0000000
vt 0.5361465 0.3827725
v 1.3062650 -2.7205329 0.9659965
vn 1.0000000 0.0000000 0.0000000
vt 0.5567725 0.3419688
v 1.3062650 -2.6243291 1.0058450
vn 1.0000000 0.0000000 0.0000000
vt 0.5487810 0.3452791
v 1.3062650 -2.8167360 1.0058450
vn 1.0000000 0.0000000 0.0000000
vt 0.5647641 0.3452791
v 1.3062650 -2.8565850 1.1020490
vn 1.0000000 0.0000000 0.0000000
vt 0.5680742 0.3532706
v 1.3062650 -2.8167360 1.1982530
vn 1.0000000 0.0000000 0.0000000
vt 0.5647641 0.3612621
v 1.3062650 -2.7205329 1.2381020
vn 1.0000000 0.0000000 0.0000000
vt 0.5567725 0.3645723
v 1.3062650 -2.6243291 1.1982530
vn 1.0000000 0.0000000 0.0000000
vt 0.5487810 0.3612621
v 1.3062650 -2.5844800 1.1020490
vn 1.0000000 0.0000000 0.0000000
vt 0.5454708 0.3532706
v 1.1833060 -2.7205329 1.2381020
vn 0.0000000 -0.0000009 1.0000000
vt 0.5529286 0.3853756
v 1.3062650 -2.7205329 1.2381020
vn 0.0000000 -0.0000009 1.0000000
vt 0.5529286 0.3955898
v 1.1833060 -2.7205329 0.9659965
vn 0.0000000 -0.0000009 -1.0000000
vt 0.5875285 0.3853756
v 1.3062650 -2.7205329 0.9659965
vn 0.0000000 -0.0000009 -1.0000000
vt 0.5875285 0.3955898

g group_65558392_140627938907168
f 1/1/1 2/2/2 3/3/3 
f 2/2/2 4/4/4 3/3/3 
f 2/2/2 5/5/5 4/4/4 
f 5/5/5 6/6/6 4/4/4 
f 5/5/5 7/7/7 6/6/6 
f 7/7/7 8/8/8 6/6/6 
f 33/33/33 9/9/9 34/34/34 
f 9/9/9 10/10/10 34/34/34 
f 9/9/9 11/11/11 10/10/10 
f 11/11/11 12/12/12 10/10/10 
f 11/11/11 13/13/13 12/12/12 
f 13/13/13 14/14/14 12/12/12 
f 13/13/13 15/15/15 14/14/14 
f 15/15/15 16/16/16 14/14/14 
f 35/35/35 1/1/1 36/36/36 
f 1/1/1 3/3/3 36/36/36 
f 17/17/17 18/18/18 19/19/19 
f 19/19/19 18/18/18 20/20/20 
f 20/20/20 18/18/18 21/21/21 
f 21/21/21 18/18/18 22/22/22 
f 22/22/22 18/18/18 23/23/23 
f 23/23/23 18/18/18 24/24/24 
f 25/25/25 26/26/26 27/27/27 
f 27/27/27 26/26/26 28/28/28 
f 28/28/28 26/26/26 29/29/29 
f 29/29/29 26/26/26 30/30/30 
f 30/30/30 26/26/26 31/31/31 
f 31/31/31 26/26/26 32/32/32 
