v -1.1588399 2.7075820 0.1185445
vn -0.0126876 0.5384928 -0.8425346
vt 0.3765017 0.2885248
v -1.5150720 2.6810219 0.1164402
vn -0.0313902 0.4900380 -0.8711357
vt 0.3780419 0.3152192
v -1.5150720 2.8396361 0.2750552
vn -0.0468406 0.8605643 -0.5071836
vt 0.3611524 0.3152192
v -1.1588399 2.8814020 0.3319231
vn -0.0022688 0.9314319 -0.3639087
vt 0.3561180 0.2885419
v -1.5150720 2.8976929 0.4917273
vn -0.0565251 0.9983914 -0.0044240
vt 0.3442627 0.3152192
v -1.1588399 2.8973949 0.6077617
vn -0.0003742 0.9659258 0.2588189
vt 0.3358202 0.2885426
v -1.5150720 2.8396361 0.7083997
vn -0.0565252 0.8624207 0.5030263
vt 0.3273730 0.3152192
v -1.1588399 2.7456250 0.8386483
vn -0.0022686 0.6246894 0.7808700
vt 0.3154797 0.2885418
v -1.5150720 2.6810219 0.8670147
vn -0.0468403 0.4916790 0.8695158
vt 0.3104834 0.3152192
v -1.1588399 2.4884031 0.9365293
vn -0.0126872 0.0450810 0.9989028
vt 0.2981834 0.2884659
v -1.1588399 2.4884031 0.9365293
vn -0.0126872 0.0450810 0.9989028
vt 0.2963936 0.2885258
v -1.5150720 2.4643490 0.9250718
vn -0.0313901 -0.0111831 0.9994447
vt 0.2935937 0.3152192
v -1.1588399 2.2229071 0.8653900
vn -0.0111357 -0.5377204 0.8430497
vt 0.3121292 0.2885084
v -1.5150720 2.2476771 0.8670148
vn -0.0301549 -0.4907807 0.8707612
vt 0.3104833 0.3152192
v -1.5150720 2.0890620 0.7083998
vn -0.0432446 -0.8609917 0.5067774
vt 0.3273730 0.3152192
v -1.1588399 2.0490861 0.6520112
vn 0.0019235 -0.9312286 0.3644305
vt 0.3323297 0.2885338
v -1.5150720 2.0310049 0.4917275
vn -0.0515306 -0.9986625 0.0042266
vt 0.3442627 0.3152192
v -1.1588399 2.0330920 0.3761726
vn 0.0048300 -0.9659144 -0.2588167
vt 0.3527053 0.2885335
v -1.5150720 2.0890620 0.2750553
vn -0.0515303 -0.8627532 -0.5029926
vt 0.3611523 0.3152192
v -1.1588399 2.1848631 0.1452862
vn 0.0019237 -0.6242521 -0.7812206
vt 0.3731167 0.2885350
v -1.5150720 2.2476771 0.1164403
vn -0.0432442 -0.4922523 -0.8693777
vt 0.3780419 0.3152192
v -1.1588399 2.4420850 0.0474051
vn -0.0111356 -0.0441558 -0.9989626
vt 0.3904523 0.2884490
v -1.1588399 2.4420850 0.0474051
vn -0.0111356 -0.0441558 -0.9989626
vt 0.3921078 0.2885049
v -1.5150720 2.4643490 0.0583831
vn -0.0301545 0.0103507 -0.9994917
vt 0.3949315 0.3152192
v -1.1588399 2.7075820 0.1185445
vn 1.0000000 0.0000000 0.0000000
vt 0.3460404 0.1204161
v -1.1588399 2.8814020 0.3319231
vn 1.0000000 0.0000000 0.0000000
vt 0.3310297 0.1081882
v -1.1588399 2.8973949 0.6077617
vn 1.0000000 0.0000000 0.0000000
vt 0.3116251 0.1070631
v -1.5150720 2.6810219 0.1164402
vn -1.0000000 0.0000000 0.0000000
vt 0.4936610 0.1093311
v -1.5150720 2.4643490 0.0583831
vn -1.0000000 0.0000000 0.0000000
vt 0.4773469 0.1049597
v -1.5150720 2.8396361 0.2750552
vn -1.0000000 0.0000000 0.0000000
vt 0.5056038 0.1212739
v -1.1588399 2.4420850 0.0474051
vn 1.0000000 0.0000000 0.0000000
vt 0.3510450 0.1390930
v -1.1588399 2.0330920 0.3761726
vn 1.0000000 0.0000000 0.0000000
vt 0.3279169 0.1678646
v -1.1588399 2.1848631 0.1452862
vn 1.0000000 0.0000000 0.0000000
vt 0.3441592 0.1571880
v -1.1588399 2.2229071 0.8653900
vn 1.0000000 0.0000000 0.0000000
vt 0.2935016 0.1545117
v -1.1588399 2.0490861 0.6520112
vn 1.0000000 0.0000000 0.0000000
vt 0.3085123 0.1667395
v -1.1588399 2.4884031 0.9365293
vn 1.0000000 0.0000000 0.0000000
vt 0.2884971 0.1358347
v -1.1588399 2.7456250 0.8386483
vn 1.0000000 0.0000000 0.0000000
vt 0.2953828 0.1177398
v -1.5150720 2.8396361 0.7083997
vn -1.0000000 0.0000000 0.0000000
vt 0.5056038 0.1539022
v -1.5150720 2.8976929 0.4917273
vn -1.0000000 0.0000000 0.0000000
vt 0.5099751 0.1375880
v -1.5150720 2.4643490 0.9250718
vn -1.0000000 0.0000000 0.0000000
vt 0.4773469 0.1702164
v -1.5150720 2.6810219 0.8670147
vn -1.0000000 0.0000000 0.0000000
vt 0.4936610 0.1658450
v -1.5150720 2.0890620 0.7083998
vn -1.0000000 0.0000000 0.0000000
vt 0.4490900 0.1539022
v -1.5150720 2.2476771 0.8670148
vn -1.0000000 0.0000000 0.0000000
vt 0.4610328 0.1658450
v -1.5150720 2.0890620 0.2750553
vn -1.0000000 0.0000000 0.0000000
vt 0.4490900 0.1212739
v -1.5150720 2.0310049 0.4917275
vn -1.0000000 0.0000000 0.0000000
vt 0.4447187 0.1375880
v -1.5150720 2.2476771 0.1164403
vn -1.0000000 0.0000000 0.0000000
vt 0.4610328 0.1093311
v -1.5150720 2.4643490 0.9250718
vn -0.0313901 -0.0111831 0.9994447
vt 0.2935937 0.3152192
v -1.5150720 2.4643490 0.0583831
vn -0.0301545 0.0103507 -0.9994917
vt 0.3949315 0.3152192

g group_65559904_140627938911536
f 1/1/1 2/2/2 3/3/3 
f 4/4/4 3/3/3 5/5/5 
f 6/6/6 5/5/5 7/7/7 
f 6/6/6 7/7/7 8/8/8 
f 8/8/8 9/9/9 10/10/10 
f 11/11/11 12/12/12 13/13/13 
f 13/13/13 14/14/14 15/15/15 
f 16/16/16 15/15/15 17/17/17 
f 18/18/18 17/17/17 19/19/19 
f 18/18/18 19/19/19 20/20/20 
f 20/20/20 21/21/21 22/22/22 
f 23/23/23 24/24/24 2/2/2 
f 25/25/25 26/26/26 27/27/27 
f 28/28/28 29/29/29 30/30/30 
f 1/1/1 3/3/3 4/4/4 
f 4/4/4 5/5/5 6/6/6 
f 8/8/8 7/7/7 9/9/9 
f 10/10/10 9/9/9 47/47/47 
f 13/13/13 12/12/12 14/14/14 
f 13/13/13 15/15/15 16/16/16 
f 16/16/16 17/17/17 18/18/18 
f 20/20/20 19/19/19 21/21/21 
f 22/22/22 21/21/21 48/48/48 
f 23/23/23 2/2/2 1/1/1 
f 31/31/31 32/32/32 33/33/33 
f 25/25/25 32/32/32 31/31/31 
f 32/32/32 34/34/34 35/35/35 
f 32/32/32 36/36/36 34/34/34 
f 25/25/25 36/36/36 32/32/32 
f 36/36/36 27/27/27 37/37/37 
f 25/25/25 27/27/27 36/36/36 
f 30/30/30 38/38/38 39/39/39 
f 38/38/38 40/40/40 41/41/41 
f 30/30/30 40/40/40 38/38/38 
f 40/40/40 42/42/42 43/43/43 
f 42/42/42 44/44/44 45/45/45 
f 40/40/40 44/44/44 42/42/42 
f 30/30/30 44/44/44 40/40/40 
f 44/44/44 29/29/29 46/46/46 
f 30/30/30 29/29/29 44/44/44 
