v -1.1588399 0.6912462 0.1185447
vn -0.0126873 0.5384925 -0.8425348
vt 0.3765016 0.2885248
v -1.5150729 0.6646865 0.1164405
vn -0.0313900 0.4900376 -0.8711360
vt 0.3780419 0.3152192
v -1.5150729 0.8233013 0.2750555
vn -0.0468398 0.8605641 -0.5071840
vt 0.3611524 0.3152192
v -1.1588399 0.8650664 0.3319234
vn -0.0022680 0.9314315 -0.3639096
vt 0.3561180 0.2885419
v -1.5150729 0.8813587 0.4917276
vn -0.0565248 0.9983914 -0.0044246
vt 0.3442627 0.3152192
v -1.1588399 0.8810601 0.6077620
vn -0.0003740 0.9659259 0.2588187
vt 0.3358202 0.2885426
v -1.5150729 0.8233014 0.7084000
vn -0.0565251 0.8624203 0.5030271
vt 0.3273730 0.3152192
v -1.1588399 0.7292901 0.8386485
vn -0.0022684 0.6246887 0.7808706
vt 0.3154797 0.2885418
v -1.5150729 0.6646866 0.8670149
vn -0.0468400 0.4916786 0.8695161
vt 0.3104834 0.3152192
v -1.1588399 0.4720678 0.9365296
vn -0.0126874 0.0450807 0.9989028
vt 0.2981834 0.2884659
v -1.1588399 0.4720678 0.9365296
vn -0.0126874 0.0450807 0.9989028
vt 0.2963936 0.2885258
v -1.5150729 0.4480143 0.9250720
vn -0.0313902 -0.0111829 0.9994447
vt 0.2935937 0.3152192
v -1.1588399 0.2065717 0.8653903
vn -0.0111358 -0.5377206 0.8430495
vt 0.3121292 0.2885084
v -1.5150729 0.2313423 0.8670151
vn -0.0301549 -0.4907809 0.8707610
vt 0.3104833 0.3152192
v -1.5150729 0.0727271 0.7084000
vn -0.0432445 -0.8609917 0.5067772
vt 0.3273730 0.3152192
v -1.1588399 0.0327510 0.6520115
vn 0.0019237 -0.9312286 0.3644305
vt 0.3323297 0.2885338
v -1.5150729 0.0146698 0.4917277
vn -0.0515304 -0.9986625 0.0042268
vt 0.3442627 0.3152192
v -1.1588399 0.0167574 0.3761728
vn 0.0048301 -0.9659145 -0.2588164
vt 0.3527053 0.2885335
v -1.5150729 0.0727270 0.2750556
vn -0.0515304 -0.8627535 -0.5029922
vt 0.3611523 0.3152192
v -1.1588399 0.1685277 0.1452864
vn 0.0019236 -0.6242525 -0.7812203
vt 0.3731167 0.2885350
v -1.5150729 0.2313423 0.1164405
vn -0.0432444 -0.4922525 -0.8693777
vt 0.3780419 0.3152192
v -1.1588399 0.4257499 0.0474053
vn -0.0111356 -0.0441558 -0.9989626
vt 0.3904523 0.2884490
v -1.1588399 0.4257499 0.0474053
vn -0.0111356 -0.0441558 -0.9989626
vt 0.3921078 0.2885049
v -1.5150729 0.4480141 0.0583834
vn -0.0301545 0.0103507 -0.9994917
vt 0.3949315 0.3152192
v -1.1588399 0.6912462 0.1185447
vn 1.0000000 0.0000000 0.0000000
vt 0.3460404 0.1204161
v -1.1588399 0.8650664 0.3319234
vn 1.0000000 0.0000000 0.0000000
vt 0.3310297 0.1081882
v -1.1588399 0.8810601 0.6077620
vn 1.0000000 0.0000000 0.0000000
vt 0.3116251 0.1070631
v -1.5150729 0.6646865 0.1164405
vn -1.0000000 0.0000000 0.0000000
vt 0.4936610 0.1093311
v -1.5150729 0.4480141 0.0583834
vn -1.0000000 0.0000000 0.0000000
vt 0.4773469 0.1049597
v -1.5150729 0.8233013 0.2750555
vn -1.0000000 0.0000000 0.0000000
vt 0.5056038 0.1212739
v -1.1588399 0.4257499 0.0474053
vn 1.0000000 0.0000000 0.0000000
vt 0.3510450 0.1390930
v -1.1588399 0.0167574 0.3761728
vn 1.0000000 0.0000000 0.0000000
vt 0.3279169 0.1678646
v -1.1588399 0.1685277 0.1452864
vn 1.0000000 0.0000000 0.0000000
vt 0.3441592 0.1571880
v -1.1588399 0.2065717 0.8653903
vn 1.0000000 0.0000000 0.0000000
vt 0.2935016 0.1545117
v -1.1588399 0.0327510 0.6520115
vn 1.0000000 0.0000000 0.0000000
vt 0.3085123 0.1667395
v -1.1588399 0.4720678 0.9365296
vn 1.0000000 0.0000000 0.0000000
vt 0.2884971 0.1358347
v -1.1588399 0.7292901 0.8386485
vn 1.0000000 0.0000000 0.0000000
vt 0.2953828 0.1177398
v -1.5150729 0.8233014 0.7084000
vn -1.0000000 0.0000000 0.0000000
vt 0.5056038 0.1539022
v -1.5150729 0.8813587 0.4917276
vn -1.0000000 0.0000000 0.0000000
vt 0.5099751 0.1375880
v -1.5150729 0.4480143 0.9250720
vn -1.0000000 0.0000000 0.0000000
vt 0.4773469 0.1702164
v -1.5150729 0.6646866 0.8670149
vn -1.0000000 0.0000000 0.0000000
vt 0.4936610 0.1658450
v -1.5150729 0.0727271 0.7084000
vn -1.0000000 0.0000000 0.0000000
vt 0.4490900 0.1539022
v -1.5150729 0.2313423 0.8670151
vn -1.0000000 0.0000000 0.0000000
vt 0.4610328 0.1658450
v -1.5150729 0.0727270 0.2750556
vn -1.0000000 0.0000000 0.0000000
vt 0.4490900 0.1212739
v -1.5150729 0.0146698 0.4917277
vn -1.0000000 0.0000000 0.0000000
vt 0.4447187 0.1375880
v -1.5150729 0.2313423 0.1164405
vn -1.0000000 0.0000000 0.0000000
vt 0.4610328 0.1093311
v -1.5150729 0.4480143 0.9250720
vn -0.0313902 -0.0111829 0.9994447
vt 0.2935937 0.3152192
v -1.5150729 0.4480141 0.0583834
vn -0.0301545 0.0103507 -0.9994917
vt 0.3949315 0.3152192

g group_65560744_140627938913760
f 1/1/1 2/2/2 3/3/3 
f 4/4/4 3/3/3 5/5/5 
f 6/6/6 5/5/5 7/7/7 
f 6/6/6 7/7/7 8/8/8 
f 8/8/8 9/9/9 10/10/10 
f 11/11/11 12/12/12 13/13/13 
f 13/13/13 14/14/14 15/15/15 
f 16/16/16 15/15/15 17/17/17 
f 18/18/18 17/17/17 19/19/19 
f 18/18/18 19/19/19 20/20/20 
f 20/20/20 21/21/21 22/22/22 
f 23/23/23 24/24/24 2/2/2 
f 25/25/25 26/26/26 27/27/27 
f 28/28/28 29/29/29 30/30/30 
f 1/1/1 3/3/3 4/4/4 
f 4/4/4 5/5/5 6/6/6 
f 8/8/8 7/7/7 9/9/9 
f 10/10/10 9/9/9 47/47/47 
f 13/13/13 12/12/12 14/14/14 
f 13/13/13 15/15/15 16/16/16 
f 16/16/16 17/17/17 18/18/18 
f 20/20/20 19/19/19 21/21/21 
f 22/22/22 21/21/21 48/48/48 
f 23/23/23 2/2/2 1/1/1 
f 31/31/31 32/32/32 33/33/33 
f 25/25/25 32/32/32 31/31/31 
f 32/32/32 34/34/34 35/35/35 
f 32/32/32 36/36/36 34/34/34 
f 25/25/25 36/36/36 32/32/32 
f 36/36/36 27/27/27 37/37/37 
f 25/25/25 27/27/27 36/36/36 
f 30/30/30 38/38/38 39/39/39 
f 38/38/38 40/40/40 41/41/41 
f 30/30/30 40/40/40 38/38/38 
f 40/40/40 42/42/42 43/43/43 
f 42/42/42 44/44/44 45/45/45 
f 40/40/40 44/44/44 42/42/42 
f 30/30/30 44/44/44 40/40/40 
f 44/44/44 29/29/29 46/46/46 
f 30/30/30 29/29/29 44/44/44 
