v 1.1833060 -1.7731440 1.0451781
vn 0.0000000 0.7071065 -0.7071072
vt 0.6614283 0.3036384
v 1.1833060 -1.7332950 1.1413820
vn 0.0000000 1.0000000 -0.0000002
vt 0.6527784 0.3036384
v 1.5061980 -1.7731440 1.0451781
vn 0.0000000 0.7071064 -0.7071072
vt 0.6614283 0.3304606
v 1.5061980 -1.7332950 1.1413820
vn 0.0000000 1.0000000 -0.0000002
vt 0.6527784 0.3304606
v 1.1833060 -1.7731440 1.2375860
vn 0.0000000 0.7071066 0.7071070
vt 0.6441284 0.3036384
v 1.5061980 -1.7731440 1.2375860
vn 0.0000000 0.7071066 0.7071070
vt 0.6441284 0.3304606
v 1.1833060 -1.8693480 1.2774349
vn 0.0000000 -0.0000002 1.0000000
vt 0.6354785 0.3036384
v 1.5061980 -1.8693480 1.2774349
vn 0.0000000 -0.0000002 1.0000000
vt 0.6354785 0.3304606
v 1.1833060 -1.9655520 1.2375860
vn 0.0000000 -0.7071068 0.7071068
vt 0.6441284 0.3036384
v 1.5061980 -1.9655520 1.2375860
vn 0.0000000 -0.7071068 0.7071068
vt 0.6441284 0.3304606
v 1.1833060 -2.0054009 1.1413820
vn 0.0000000 -1.0000000 -0.0000002
vt 0.6527784 0.3036384
v 1.5061980 -2.0054009 1.1413820
vn 0.0000000 -1.0000000 -0.0000002
vt 0.6527784 0.3304606
v 1.1833060 -1.9655520 1.0451781
vn 0.0000000 -0.7071066 -0.7071070
vt 0.6614283 0.3036384
v 1.5061980 -1.9655520 1.0451781
vn 0.0000000 -0.7071065 -0.7071071
vt 0.6614283 0.3304606
v 1.1833060 -1.8693480 1.0053290
vn 0.0000000 -0.0000002 -1.0000000
vt 0.6700783 0.3036384
v 1.5061980 -1.8693480 1.0053290
vn 0.0000000 -0.0000002 -1.0000000
vt 0.6700783 0.3304606
v 1.1833060 -1.7731440 1.0451781
vn -1.0000000 0.0000000 0.0000000
vt 0.6755098 0.3359880
v 1.1833060 -1.8693480 1.0053290
vn -1.0000000 0.0000000 0.0000000
vt 0.6721995 0.3439795
v 1.1833060 -1.7332950 1.1413820
vn -1.0000000 0.0000000 0.0000000
vt 0.6835014 0.3326777
v 1.1833060 -1.7731440 1.2375860
vn -1.0000000 0.0000000 0.0000000
vt 0.6914928 0.3359880
v 1.1833060 -1.8693480 1.2774349
vn -1.0000000 0.0000000 0.0000000
vt 0.6948031 0.3439795
v 1.1833060 -1.9655520 1.2375860
vn -1.0000000 0.0000000 0.0000000
vt 0.6914928 0.3519710
v 1.1833060 -2.0054009 1.1413820
vn -1.0000000 0.0000000 0.0000000
vt 0.6835014 0.3552813
v 1.1833060 -1.9655520 1.0451781
vn -1.0000000 0.0000000 0.0000000
vt 0.6755098 0.3519710
v 1.5061980 -1.8693480 1.0053290
vn 1.0000000 0.0000000 0.0000000
vt 0.7424783 0.4154847
v 1.5061980 -1.7731440 1.0451781
vn 1.0000000 0.0000000 0.0000000
vt 0.7344867 0.4187949
v 1.5061980 -1.9655520 1.0451781
vn 1.0000000 0.0000000 0.0000000
vt 0.7504697 0.4187949
v 1.5061980 -2.0054009 1.1413820
vn 1.0000000 0.0000000 0.0000000
vt 0.7537799 0.4267865
v 1.5061980 -1.9655520 1.2375860
vn 1.0000000 0.0000000 0.0000000
vt 0.7504697 0.4347780
v 1.5061980 -1.8693480 1.2774349
vn 1.0000000 0.0000000 0.0000000
vt 0.7424783 0.4380881
v 1.5061980 -1.7731440 1.2375860
vn 1.0000000 0.0000000 0.0000000
vt 0.7344867 0.4347780
v 1.5061980 -1.7332950 1.1413820
vn 1.0000000 0.0000000 0.0000000
vt 0.7311765 0.4267865
v 1.1833060 -1.8693480 1.2774349
vn 0.0000000 -0.0000002 1.0000000
vt 0.6354785 0.3036384
v 1.5061980 -1.8693480 1.2774349
vn 0.0000000 -0.0000002 1.0000000
vt 0.6354785 0.3304606
v 1.1833060 -1.8693480 1.0053290
vn 0.0000000 -0.0000002 -1.0000000
vt 0.6700783 0.3036384
v 1.5061980 -1.8693480 1.0053290
vn 0.0000000 -0.0000002 -1.0000000
vt 0.6700783 0.3304606

g group_65558056_140627938906224
f 1/1/1 2/2/2 3/3/3 
f 2/2/2 4/4/4 3/3/3 
f 2/2/2 5/5/5 4/4/4 
f 5/5/5 6/6/6 4/4/4 
f 5/5/5 7/7/7 6/6/6 
f 7/7/7 8/8/8 6/6/6 
f 33/33/33 9/9/9 34/34/34 
f 9/9/9 10/10/10 34/34/34 
f 9/9/9 11/11/11 10/10/10 
f 11/11/11 12/12/12 10/10/10 
f 11/11/11 13/13/13 12/12/12 
f 13/13/13 14/14/14 12/12/12 
f 13/13/13 15/15/15 14/14/14 
f 15/15/15 16/16/16 14/14/14 
f 35/35/35 1/1/1 36/36/36 
f 1/1/1 3/3/3 36/36/36 
f 17/17/17 18/18/18 19/19/19 
f 19/19/19 18/18/18 20/20/20 
f 20/20/20 18/18/18 21/21/21 
f 21/21/21 18/18/18 22/22/22 
f 22/22/22 18/18/18 23/23/23 
f 23/23/23 18/18/18 24/24/24 
f 25/25/25 26/26/26 27/27/27 
f 27/27/27 26/26/26 28/28/28 
f 28/28/28 26/26/26 29/29/29 
f 29/29/29 26/26/26 30/30/30 
f 30/30/30 26/26/26 31/31/31 
f 31/31/31 26/26/26 32/32/32 
