v 1.1588510 2.7075820 0.1185447
vn 0.0126876 0.5384929 -0.8425346
vt 0.3765017 0.2885248
v 1.5150840 2.8396361 0.2750554
vn 0.0468406 0.8605643 -0.5071836
vt 0.3611524 0.3152192
v 1.5150840 2.6810219 0.1164405
vn 0.0313902 0.4900380 -0.8711357
vt 0.3780419 0.3152192
v 1.1588510 2.8814020 0.3319234
vn 0.0022688 0.9314319 -0.3639087
vt 0.3561180 0.2885419
v 1.5150840 2.8976929 0.4917276
vn 0.0565251 0.9983914 -0.0044239
vt 0.3442627 0.3152192
v 1.1588510 2.8973949 0.6077620
vn 0.0003742 0.9659258 0.2588188
vt 0.3358202 0.2885426
v 1.5150840 2.8396361 0.7083999
vn 0.0565252 0.8624207 0.5030262
vt 0.3273730 0.3152192
v 1.1588510 2.7456250 0.8386486
vn 0.0022686 0.6246895 0.7808700
vt 0.3154797 0.2885418
v 1.1588510 2.4884031 0.9365295
vn 0.0126872 0.0450809 0.9989028
vt 0.2981834 0.2884659
v 1.5150840 2.6810219 0.8670149
vn 0.0468403 0.4916790 0.8695158
vt 0.3104834 0.3152192
v 1.1588510 2.4884031 0.9365295
vn 0.0126872 0.0450809 0.9989028
vt 0.2963936 0.2885258
v 1.1588510 2.2229071 0.8653902
vn 0.0111357 -0.5377206 0.8430496
vt 0.3121292 0.2885084
v 1.5150840 2.4643490 0.9250720
vn 0.0313901 -0.0111832 0.9994447
vt 0.2935937 0.3152192
v 1.5150840 2.0890620 0.7084000
vn 0.0432446 -0.8609917 0.5067774
vt 0.3273730 0.3152192
v 1.5150840 2.2476771 0.8670150
vn 0.0301549 -0.4907809 0.8707611
vt 0.3104833 0.3152192
v 1.1588510 2.0490861 0.6520114
vn -0.0019235 -0.9312286 0.3644305
vt 0.3323297 0.2885338
v 1.5150840 2.0310049 0.4917277
vn 0.0515306 -0.9986625 0.0042266
vt 0.3442627 0.3152192
v 1.1588510 2.0330920 0.3761728
vn -0.0048300 -0.9659144 -0.2588167
vt 0.3527053 0.2885335
v 1.5150840 2.0890620 0.2750555
vn 0.0515303 -0.8627532 -0.5029926
vt 0.3611523 0.3152192
v 1.1588510 2.1848631 0.1452864
vn -0.0019237 -0.6242521 -0.7812206
vt 0.3731167 0.2885350
v 1.1588510 2.4420850 0.0474053
vn 0.0111355 -0.0441557 -0.9989626
vt 0.3904523 0.2884490
v 1.5150840 2.2476771 0.1164405
vn 0.0432442 -0.4922523 -0.8693778
vt 0.3780419 0.3152192
v 1.1588510 2.4420850 0.0474053
vn 0.0111355 -0.0441557 -0.9989626
vt 0.3921078 0.2885049
v 1.5150840 2.4643490 0.0583833
vn 0.0301545 0.0103508 -0.9994917
vt 0.3949315 0.3152192
v 1.1588510 2.7075820 0.1185447
vn -1.0000000 0.0000000 0.0000000
vt 0.3460404 0.1204161
v 1.1588510 2.8973949 0.6077620
vn -1.0000000 0.0000000 0.0000000
vt 0.3116251 0.1070631
v 1.1588510 2.8814020 0.3319234
vn -1.0000000 0.0000000 0.0000000
vt 0.3310297 0.1081882
v 1.5150840 2.6810219 0.1164405
vn 1.0000000 0.0000000 0.0000000
vt 0.4936610 0.1093311
v 1.5150840 2.8396361 0.2750554
vn 1.0000000 0.0000000 0.0000000
vt 0.5056038 0.1212739
v 1.5150840 2.4643490 0.0583833
vn 1.0000000 0.0000000 0.0000000
vt 0.4773469 0.1049597
v 1.1588510 2.4420850 0.0474053
vn -1.0000000 0.0000000 0.0000000
vt 0.3510450 0.1390930
v 1.1588510 2.1848631 0.1452864
vn -1.0000000 0.0000000 0.0000000
vt 0.3441592 0.1571880
v 1.1588510 2.0330920 0.3761728
vn -1.0000000 0.0000000 0.0000000
vt 0.3279169 0.1678646
v 1.1588510 2.0490861 0.6520114
vn -1.0000000 0.0000000 0.0000000
vt 0.3085123 0.1667395
v 1.1588510 2.2229071 0.8653902
vn -1.0000000 0.0000000 0.0000000
vt 0.2935016 0.1545117
v 1.1588510 2.4884031 0.9365295
vn -1.0000000 0.0000000 0.0000000
vt 0.2884971 0.1358347
v 1.1588510 2.7456250 0.8386486
vn -1.0000000 0.0000000 0.0000000
vt 0.2953828 0.1177398
v 1.5150840 2.8976929 0.4917276
vn 1.0000000 0.0000000 0.0000000
vt 0.5099751 0.1375880
v 1.5150840 2.8396361 0.7083999
vn 1.0000000 0.0000000 0.0000000
vt 0.5056038 0.1539022
v 1.5150840 2.6810219 0.8670149
vn 1.0000000 0.0000000 0.0000000
vt 0.4936610 0.1658450
v 1.5150840 2.4643490 0.9250720
vn 1.0000000 0.0000000 0.0000000
vt 0.4773469 0.1702164
v 1.5150840 2.2476771 0.8670150
vn 1.0000000 0.0000000 0.0000000
vt 0.4610328 0.1658450
v 1.5150840 2.0890620 0.7084000
vn 1.0000000 0.0000000 0.0000000
vt 0.4490900 0.1539022
v 1.5150840 2.0310049 0.4917277
vn 1.0000000 0.0000000 0.0000000
vt 0.4447187 0.1375880
v 1.5150840 2.0890620 0.2750555
vn 1.0000000 0.0000000 0.0000000
vt 0.4490900 0.1212739
v 1.5150840 2.2476771 0.1164405
vn 1.0000000 0.0000000 0.0000000
vt 0.4610328 0.1093311
v 1.5150840 2.4643490 0.9250720
vn 0.0313901 -0.0111832 0.9994447
vt 0.2935937 0.3152192
v 1.5150840 2.4643490 0.0583833
vn 0.0301545 0.0103508 -0.9994917
vt 0.3949315 0.3152192

g group_65561752_140627938916720
f 1/1/1 2/2/2 3/3/3 
f 4/4/4 5/5/5 2/2/2 
f 6/6/6 7/7/7 5/5/5 
f 6/6/6 8/8/8 7/7/7 
f 8/8/8 9/9/9 10/10/10 
f 11/11/11 12/12/12 13/13/13 
f 12/12/12 14/14/14 15/15/15 
f 16/16/16 17/17/17 14/14/14 
f 18/18/18 19/19/19 17/17/17 
f 18/18/18 20/20/20 19/19/19 
f 20/20/20 21/21/21 22/22/22 
f 23/23/23 3/3/3 24/24/24 
f 25/25/25 26/26/26 27/27/27 
f 28/28/28 29/29/29 30/30/30 
f 1/1/1 4/4/4 2/2/2 
f 4/4/4 6/6/6 5/5/5 
f 8/8/8 10/10/10 7/7/7 
f 9/9/9 47/47/47 10/10/10 
f 12/12/12 15/15/15 13/13/13 
f 12/12/12 16/16/16 14/14/14 
f 16/16/16 18/18/18 17/17/17 
f 20/20/20 22/22/22 19/19/19 
f 21/21/21 48/48/48 22/22/22 
f 23/23/23 1/1/1 3/3/3 
f 31/31/31 32/32/32 33/33/33 
f 25/25/25 31/31/31 33/33/33 
f 33/33/33 34/34/34 35/35/35 
f 33/33/33 35/35/35 36/36/36 
f 25/25/25 33/33/33 36/36/36 
f 36/36/36 37/37/37 26/26/26 
f 25/25/25 36/36/36 26/26/26 
f 29/29/29 38/38/38 39/39/39 
f 39/39/39 40/40/40 41/41/41 
f 29/29/29 39/39/39 41/41/41 
f 41/41/41 42/42/42 43/43/43 
f 43/43/43 44/44/44 45/45/45 
f 41/41/41 43/43/43 45/45/45 
f 29/29/29 41/41/41 45/45/45 
f 45/45/45 46/46/46 30/30/30 
f 29/29/29 45/45/45 30/30/30 
