v -1.6463990 3.4283631 0.0000001
vn -0.9999822 -0.0053957 -0.0025611
vt 0.4915045 0.5845684
v -1.6463990 -4.1907101 -0.0000002
vn -1.0000000 0.0000000 0.0000000
vt 0.4915045 -4.3289361
v -1.6463990 3.3973999 0.0890679
vn -0.9999831 -0.0054901 -0.0019086
vt 0.4255972 0.5651859
v -1.6463990 3.4093270 1.3781700
vn -1.0000000 0.0000000 0.0000000
vt 0.4915045 1.6647040
v -1.6463990 3.4093270 1.2891020
vn -1.0000000 0.0000000 0.0000000
vt 0.4255972 1.6647040
v -1.6463990 2.8183830 1.2305200
vn -1.0000000 0.0000000 0.0000000
vt 0.4915045 2.0557170
v -1.6489230 3.5812750 0.1936638
vn -0.9999687 0.0046177 0.0064231
vt 0.4255972 0.7291452
v -1.6489230 3.6459410 0.1324152
vn -0.9999639 0.0058415 0.0061674
vt 0.4915045 0.7291452
v -1.6423800 3.7753580 0.3485415
vn -0.9999165 0.0076209 0.0104379
vt 0.4915045 0.8720485
v -1.6423800 3.7010889 0.3977064
vn -0.9999694 0.0044711 0.0064253
vt 0.4255971 0.8720485
v -1.6463990 3.8753181 0.9400732
vn -0.9999930 -0.0002012 -0.0037547
vt 0.4915045 1.2429240
v -1.6463990 3.7862790 0.9397514
vn -0.9999935 0.0000130 -0.0036049
vt 0.4255971 1.2429240
v -1.6463990 3.8190169 1.1536270
vn -1.0000000 0.0000000 0.0000000
vt 0.4915045 1.3741730
v -1.6463990 3.6124351 1.2389240
vn -1.0000000 0.0000000 0.0000000
vt 0.4255971 1.5076870
v -1.6463990 3.6641109 1.3114680
vn -1.0000000 0.0000000 0.0000000
vt 0.4915045 1.5076870
v -1.6463990 3.7390130 1.1144789
vn -1.0000000 0.0000000 0.0000000
vt 0.4255971 1.3741730
v -1.0389680 3.4283631 0.0000001
vn 0.9999822 0.0053957 0.0025611
vt 0.4915045 0.5845684
v -1.0389680 3.3973999 0.0890679
vn 0.9999831 0.0054901 0.0019086
vt 0.4255971 0.5651859
v -1.0389680 -4.1907101 -0.0000002
vn 1.0000000 0.0000000 0.0000000
vt 0.4915045 -4.3289361
v -1.0414910 3.5812750 0.1936638
vn 0.9999687 -0.0046177 -0.0064231
vt 0.4255971 0.7291452
v -1.0414910 3.6459410 0.1324152
vn 0.9999639 -0.0058415 -0.0061674
vt 0.4915045 0.7291452
v -1.0349480 3.7753580 0.3485415
vn 0.9999165 -0.0076209 -0.0104379
vt 0.4915045 0.8720485
v -1.0389680 3.8753181 0.9400732
vn 0.9999930 0.0002012 0.0037547
vt 0.4915045 1.2429240
v -1.0349480 3.7010889 0.3977064
vn 0.9999694 -0.0044711 -0.0064253
vt 0.4255971 0.8720485
v -1.0389680 3.8190169 1.1536270
vn 1.0000000 0.0000000 0.0000000
vt 0.4915045 1.3741730
v -1.0389680 3.7862790 0.9397514
vn 0.9999935 -0.0000130 0.0036049
vt 0.4255971 1.2429240
v -1.0389680 3.6641109 1.3114680
vn 1.0000000 0.0000000 0.0000000
vt 0.4915045 1.5076870
v -1.0389680 3.7390130 1.1144789
vn 1.0000000 0.0000000 0.0000000
vt 0.4255971 1.3741730
v -1.0389680 3.3973999 0.0890679
vn 0.0000000 -0.2547495 0.9670071
vt 0.4255971 0.5651859
v -1.6463990 3.3973999 0.0890679
vn 0.0000000 -0.2566912 0.9664935
vt 0.0083129 0.5651859
v -1.0389680 -4.1907101 0.0890676
vn 0.0000000 -0.0000000 1.0000000
vt 0.4255971 -4.3289361
v -1.0389680 -4.1907101 -0.0000002
vn 0.0000000 0.0000000 -1.0000000
vt 0.4915045 -4.3289361
v -1.6463990 -4.1907101 -0.0000002
vn 0.0000000 0.0000000 -1.0000000
vt 0.9110237 -4.3289361
v -1.0389680 3.4283631 0.0000001
vn 0.0000000 0.2691088 -0.9631098
vt 0.4915045 0.5845684
v -1.6463990 3.4283631 0.0000001
vn 0.0000000 0.2708113 -0.9626325
vt 0.9110108 0.5845684
v -1.0414910 3.6459410 0.1324152
vn 0.0000000 0.7105170 -0.7036801
vt 0.4915045 0.7291452
v -1.6489230 3.5812750 0.1936638
vn 0.0000000 -0.7012591 0.7129065
vt 0.0083156 0.7291452
v -1.0414910 3.5812750 0.1936638
vn 0.0000000 -0.7031649 0.7110269
vt 0.4255971 0.7291452
v -1.6489230 3.6459410 0.1324152
vn 0.0000000 0.7087362 -0.7054735
vt 0.9110056 0.7291452
v -1.6423800 3.7753580 0.3485415
vn 0.0000000 0.9377809 -0.3472275
vt 0.9110047 0.8720485
v -1.0349480 3.7010889 0.3977064
vn 0.0000000 -0.9420252 0.3355421
vt 0.4255971 0.8720485
v -1.6423800 3.7010889 0.3977064
vn 0.0000000 -0.9411986 0.3378538
vt 0.0083162 0.8720485
v -1.6463990 3.8753181 0.9400732
vn 0.0000000 0.9989584 0.0456300
vt 0.9110031 1.2429240
v -1.0389680 3.8753181 0.9400732
vn 0.0000000 0.9990001 0.0447101
vt 0.4915045 1.2429240
v -1.0389680 3.7862790 0.9397514
vn 0.0000000 -0.9985609 -0.0536302
vt 0.4255971 1.2429240
v -1.0389680 3.8190169 1.1536270
vn 0.0000000 0.8693588 0.4941814
vt 0.4915045 1.3741730
v -1.6463990 3.7862790 0.9397514
vn 0.0000000 -0.9985071 -0.0546230
vt 0.0083172 1.2429240
v -1.6463990 3.7390130 1.1144789
vn 0.0000000 -0.8632905 -0.5047073
vt 0.0083172 1.3741730
v -1.0389680 3.7390130 1.1144789
vn 0.0000000 -0.8632905 -0.5047073
vt 0.4255971 1.3741730
v -1.6463990 3.6124351 1.2389240
vn 0.0000000 -0.4877868 -0.8729629
vt 0.0083172 1.5076870
v -1.0389680 3.6641109 1.3114680
vn 0.0000000 0.5015729 0.8651154
vt 0.4915045 1.5076870
v -1.6463990 3.6641109 1.3114680
vn 0.0000000 0.5015730 0.8651154
vt 0.9110002 1.5076870
v -1.0389680 3.4093270 1.3781700
vn 0.0000000 0.0056042 0.9999843
vt 0.4915045 1.6647040
v -1.0389680 3.6124351 1.2389240
vn 0.0000000 -0.4877868 -0.8729628
vt 0.4255971 1.5076870
v -1.6463990 3.4093270 1.2891020
vn 0.0000000 0.0006868 -0.9999998
vt 0.0083172 1.6647040
v -1.6463990 3.4093270 1.3781700
vn 0.0000000 0.0056042 0.9999843
vt 0.9110009 1.6647040
v -1.0389680 2.8183830 1.2305200
vn -0.0000000 -0.0429961 0.9990752
vt 0.4915045 2.0557170
v -1.0389680 3.4093270 1.2891020
vn 0.0000000 0.0006868 -0.9999998
vt 0.4255971 1.6647040
v -1.6463990 2.8333371 1.1459630
vn -0.0000000 0.0464750 -0.9989195
vt 0.0083169 2.0557170
v -1.3064560 3.3964911 0.0881394
vn 0.9636366 -0.0606138 0.2602508
vt 0.9335418 0.5845684
v -1.3369620 3.3768070 0.1965120
vn 0.9640731 -0.0675730 0.2568986
vt 0.9964977 0.5845684
v -1.3064560 -4.1907101 0.0877242
vn 0.9551444 -0.0004068 0.2961402
vt 0.9335418 -4.3289361
v -1.3089790 3.5815599 0.1943984
vn 0.9656076 -0.1889127 0.1786445
vt 0.9335418 0.7291452
v -1.3024360 3.7020171 0.3954761
vn 0.9655473 -0.2482924 0.0779060
vt 0.9335418 0.8778666
v -1.3379509 3.5059049 0.2723505
vn 0.9670504 -0.1884729 0.1711475
vt 0.9964977 0.7291452
v -1.3064560 3.7884469 0.9402210
vn 0.9697110 -0.2408184 0.0408298
vt 0.9335418 1.2409800
v -1.3329420 3.5987699 0.4505376
vn 0.9665912 -0.2469149 0.0688074
vt 0.9964977 0.8943324
v -1.3674680 3.3964911 0.0881394
vn -0.9634287 -0.0718832 0.2581434
vt 0.9335418 0.5845684
v -1.3674680 -4.1907101 0.0877242
vn -0.9551451 -0.0004068 0.2961381
vt 0.9335418 -4.3289361
v -1.3369620 3.3768070 0.1965120
vn -0.9630246 -0.0796861 0.2573592
vt 0.9964977 0.5845684
v -1.3674680 -1.4571379 0.9185058
vn -0.9601071 0.1024247 -0.2601988
vt 0.9335418 4.9856749
v -1.3369620 -1.4127890 0.8233988
vn -0.9600090 0.1006306 -0.2612588
vt 0.9964977 4.9731841
v -1.3674680 -1.7864670 0.7522448
vn -0.9602888 0.1258150 -0.2490303
vt 0.9335418 5.2314992
v -1.3699920 3.5815599 0.1943984
vn -0.9592919 -0.1915464 0.2075308
vt 0.9335418 0.7291452
v -1.3379509 3.5059049 0.2723505
vn -0.9606730 -0.1898935 0.2026028
vt 0.9964977 0.7291452
v -1.3634480 3.7020171 0.3954761
vn -0.9658259 -0.2401998 0.0973882
vt 0.9335418 0.8777107
v -1.3329420 3.5987699 0.4505376
vn -0.9673554 -0.2403086 0.0804697
vt 0.9964977 0.8943324
v -1.3674680 3.7884469 0.9402179
vn -0.9699562 -0.2419574 0.0253330
vt 0.9335418 1.2413141
v -1.0389680 -4.1907101 -0.0000002
vn 0.0000000 -1.0000000 0.0000000
vt 0.0084521 0.4691751
v -1.0389680 -4.1907101 0.0890676
vn 0.0000000 -1.0000000 0.0000000
vt 0.0084515 0.4225661
v -1.6463990 -4.1907101 -0.0000002
vn 0.0000000 -1.0000000 0.0000000
vt 0.4261972 0.4691711
v -1.6463990 2.0142150 1.2702570
vn -1.0000000 0.0000000 0.0000000
vt 0.4255971 2.5949500
v -1.6463990 1.8862990 1.2644900
vn -1.0000000 0.0000000 0.0000000
vt 0.4255971 2.6836109
v -1.6463990 2.0142140 1.3593251
vn -1.0000000 0.0000000 0.0000000
vt 0.4915045 2.5949500
v -1.6463990 1.2617180 1.2409689
vn 0.0000000 0.0233658 0.9997270
vt 0.9110032 3.0955629
v -1.0389680 1.2617180 1.2409689
vn 0.0050016 0.0282054 0.9995897
vt 0.4915045 3.0956130
v -1.6463990 1.8682870 1.3485520
vn 0.0064880 -0.1255382 0.9920676
vt 0.9110025 2.6898310
v -1.0389680 2.0142150 1.3593251
vn 0.0085138 0.0076016 0.9999349
vt 0.4915045 2.5949500
v -1.6463990 2.0142140 1.3593251
vn -0.0000000 0.0425538 0.9990942
vt 0.9110024 2.5949500
v -1.6463990 1.2565020 1.1541770
vn -0.0000001 -0.0235017 -0.9997238
vt 0.0083160 3.0957091
v -1.6463990 1.8862990 1.2644900
vn -0.0073016 0.1105356 -0.9938453
vt 0.0083164 2.6836109
v -1.0389680 1.2565020 1.1541770
vn -0.0055444 -0.0286729 -0.9995735
vt 0.4255971 3.0956130
v -1.6463990 2.0142150 1.2702570
vn -0.0000000 -0.0527436 -0.9986081
vt 0.0083164 2.5949500
v -1.0389680 2.0142140 1.2702570
vn -0.0098725 -0.0063566 -0.9999311
vt 0.4255971 2.5949500
v -1.3674680 2.0142150 1.2726800
vn -0.9589533 -0.0095802 -0.2834023
vt 0.9335418 2.5958941
v -1.3674680 2.8328490 1.1485410
vn -0.9558315 0.0105044 -0.2937277
vt 0.9335418 2.0603020
v -1.3369620 2.0142150 1.1687170
vn -0.9592378 -0.0126234 -0.2823181
vt 0.9964977 2.5958941
v -1.3369620 2.8502431 1.0500510
vn -0.9560077 0.0192775 -0.2927074
vt 0.9964977 2.0554171
v -1.3369620 3.3963239 1.1884210
vn -0.9543881 0.0721743 -0.2897140
vt 0.9964977 1.6799190
v -1.6463990 2.8333371 1.1459630
vn -1.0000000 0.0000000 0.0000000
vt 0.4255971 2.0557170
v -1.3674680 0.6979613 1.2812610
vn -0.9597710 0.0079301 -0.2806719
vt 0.9335418 3.4747810
v -1.3674680 1.2566030 1.1562710
vn -0.9578944 -0.0063524 -0.2870504
vt 0.9335418 3.0945990
v -1.3369620 0.6979616 1.1769429
vn -0.9598078 0.0109856 -0.2804431
vt 0.9964977 3.4747810
v -1.6463990 0.6979613 1.3683830
vn -1.0000000 0.0000000 0.0000000
vt 0.4915046 3.4747810
v -1.6463990 0.6979615 1.2793150
vn -1.0000000 0.0000000 0.0000000
vt 0.4255972 3.4747810
v -1.6463990 0.2753227 1.2466660
vn -1.0000000 0.0000000 0.0000000
vt 0.4915046 3.7537370
v -1.0389680 0.2753226 1.2466660
vn 0.0000000 -0.0713374 0.9974523
vt 0.4915045 3.7537370
v -1.0389680 0.6979615 1.3683830
vn -0.0000000 -0.0290607 0.9995777
vt 0.4915045 3.4747810
v -1.6463990 0.2753227 1.2466660
vn 0.0000000 -0.0713374 0.9974523
vt 0.9110041 3.7537370
v -1.6463990 0.2868489 1.1591160
vn 0.0000000 0.0751305 -0.9971737
vt 0.0083155 3.7537370
v -1.6463990 0.6979615 1.2793150
vn -0.0000002 0.0320156 -0.9994874
vt 0.0083157 3.4747810
v -1.0389680 0.2868489 1.1591160
vn -0.0000000 0.0751304 -0.9971737
vt 0.4255971 3.7537370
v -1.6463990 1.2565020 1.1541770
vn -1.0000000 0.0000000 0.0000000
vt 0.4255971 3.0956130
v -1.6463990 1.2617180 1.2409689
vn -1.0000000 0.0000000 0.0000000
vt 0.4915045 3.0956130
v -1.6463990 0.6979613 1.3683830
vn 0.0000000 -0.0290609 0.9995776
vt 0.9110037 3.4747810
v -1.0389680 0.6979613 1.2793150
vn -0.0000001 0.0320158 -0.9994874
vt 0.4255971 3.4747810
v -1.3369620 1.2504840 1.0547670
vn -0.9577914 -0.0086487 -0.2873339
vt 0.9964977 3.0952220
v -1.3369620 1.8880260 1.1603090
vn -0.9575027 0.0352126 -0.2862669
vt 0.9964977 2.6908040
v -1.3674680 -0.5708665 1.2762630
vn -0.9587269 0.0524825 -0.2794427
vt 0.9335418 4.3171511
v -1.3674680 0.2866053 1.1608930
vn -0.9590672 0.0203146 -0.2824492
vt 0.9335418 3.7537370
v -1.3369620 -0.5708665 1.1716011
vn -0.9576307 0.0832189 -0.2757137
vt 0.9964977 4.3183980
v -1.6463990 -0.5708665 1.3638490
vn -0.9999999 0.0003648 -0.0000000
vt 0.4915045 4.3134861
v -1.6463990 -0.5708666 1.2747819
vn -0.9999999 0.0004802 0.0000211
vt 0.4255972 4.3134861
v -1.6466841 -0.8959916 1.1667960
vn -1.0000000 0.0001824 0.0000513
vt 0.4915046 4.5571852
v -1.0392530 -0.8959914 1.1667960
vn 0.0000002 -0.3983952 0.9172139
vt 0.4915045 4.5571852
v -1.0389680 -0.5708666 1.3638490
vn 0.0000001 -0.2021498 0.9793546
vt 0.4915045 4.3134861
v -1.6466841 -0.8959916 1.1667960
vn 0.0000001 -0.3983720 0.9172240
vt 0.9110056 4.5571852
v -1.6466841 -0.8624197 1.0864010
vn 0.0000000 0.4125654 -0.9109280
vt 0.0083147 4.5571852
v -1.6463990 -0.5708666 1.2747819
vn -0.0000000 0.2181306 -0.9759196
vt 0.0083149 4.3134861
v -1.0392530 -0.8624197 1.0864010
vn -0.0000000 0.4125964 -0.9109139
vt 0.4255971 4.5571852
v -1.6463990 0.2868489 1.1591160
vn -1.0000000 0.0000000 0.0000000
vt 0.4255971 3.7537370
v -1.6463990 -0.5708665 1.3638490
vn -0.0000000 -0.2023152 0.9793205
vt 0.9110050 4.3134861
v -1.0389680 -0.5708665 1.2747819
vn -0.0000000 0.2179425 -0.9759616
vt 0.4255971 4.3134861
v -1.3369620 0.3001111 1.0582520
vn -0.9591433 0.0242109 -0.2818831
vt 0.9964977 3.7537370
v -1.3677520 -0.8629177 1.0875710
vn -0.9573743 0.1257593 -0.2600370
vt 0.9335418 4.5533819
v -1.6463990 -1.4943110 0.9982227
vn -1.0000000 -0.0002006 -0.0000936
vt 0.4915045 4.9745731
v -1.6463990 -1.4566690 0.9175001
vn -1.0000000 -0.0002185 -0.0001010
vt 0.4255971 4.9745731
v -1.6463990 -1.8310040 0.8286932
vn -1.0000000 0.0000000 0.0000000
vt 0.4915045 5.2298031
v -1.0389680 -1.8310040 0.8286932
vn 0.0000000 -0.4497222 0.8931685
vt 0.4915045 5.2314978
v -1.0389680 -1.4943110 0.9982227
vn 0.0000000 -0.3621318 0.9321269
vt 0.4915045 4.9745731
v -1.6463990 -1.8310040 0.8286932
vn 0.0000000 -0.4497223 0.8931685
vt 0.9110066 5.2314978
v -1.6463990 -1.7933620 0.7479704
vn 0.0000000 0.4497228 -0.8931682
vt 0.0083141 5.2314978
v -1.6463990 -1.4566690 0.9175001
vn 0.0000000 0.3631763 -0.9317204
vt 0.0083144 4.9745731
v -1.0389680 -1.7933620 0.7479704
vn 0.0000000 0.4497228 -0.8931682
vt 0.4255971 5.2314978
v -1.3372459 -0.8234187 0.9929672
vn -0.9583740 0.1226329 -0.2578379
vt 0.9964977 4.5625629
v -1.6466841 -0.8624197 1.0864010
vn -1.0000000 0.0001577 0.0000658
vt 0.4255971 4.5571852
v -1.6463990 -1.4943110 0.9982227
vn 0.0000001 -0.3621057 0.9321371
vt 0.9110061 4.9745731
v -1.0389680 -1.7933620 0.7479704
vn 0.0000000 -0.9063078 -0.4226184
vt 0.4261972 0.4227804
v -1.0389680 -1.8310040 0.8286932
vn 0.0000000 -0.9063078 -0.4226183
vt 0.4261972 0.4693893
v -1.6463990 -1.7933620 0.7479704
vn 0.0000000 -0.9063078 -0.4226183
vt 0.0084521 0.4227804
v -1.6463990 1.8682870 1.3485520
vn -1.0000000 0.0000000 0.0000000
vt 0.4915045 2.6898310
v -1.3674680 1.8688430 1.2593100
vn -0.9570133 0.0377712 -0.2875741
vt 0.9335418 2.6952100
v -1.6463990 -4.1907101 0.0890676
vn -1.0000000 0.0000000 0.0000000
vt 0.4255972 -4.3289361
v -1.0389680 -4.1907101 0.0890676
vn 1.0000000 0.0000000 0.0000000
vt 0.4255971 -4.3289361
v -1.0389680 3.6124351 1.2389240
vn 1.0000000 0.0000000 0.0000000
vt 0.4255971 1.5076870
v -1.6463990 -4.1907101 0.0890676
vn 0.0000000 -0.0000000 1.0000000
vt 0.0083045 -4.3289361
v -1.0349480 3.7753580 0.3485415
vn 0.0000000 0.9385803 -0.3450610
vt 0.4915045 0.8720485
v -1.6463990 3.8190169 1.1536270
vn 0.0000000 0.8693588 0.4941814
vt 0.9110002 1.3741730
v -1.6463990 2.8183830 1.2305200
vn 0.0000000 -0.0429961 0.9990752
vt 0.9110016 2.0557170
v -1.0389680 2.8333371 1.1459630
vn 0.0000000 0.0464750 -0.9989195
vt 0.4255971 2.0557170
v -1.3369620 -4.1907101 0.1860295
vn 0.9550700 -0.0004105 0.2963800
vt 0.9964976 -4.3289361
v -1.3369620 3.6637189 0.9401234
vn 0.9706040 -0.2374243 0.0394668
vt 0.9964977 1.2392631
v -1.3369620 -4.1907101 0.1860295
vn -0.9550707 -0.0004106 0.2963779
vt 0.9964976 -4.3289361
v -1.3369620 -1.7420610 0.6570170
vn -0.9603058 0.1258048 -0.2489697
vt 0.9964977 5.2314992
v -1.3369620 3.6637189 0.9401234
vn -0.9710951 -0.2375296 0.0235376
vt 0.9964977 1.2392631
v -1.6463990 -4.1907101 0.0890676
vn 0.0000000 -1.0000000 0.0000000
vt 0.4261965 0.4225621
v -1.3674680 3.4099319 1.2920510
vn -0.9541855 0.0722099 -0.2903716
vt 0.9335418 1.6596130
v -1.6463990 -1.7933620 0.7479704
vn -1.0000000 0.0000000 0.0000000
vt 0.4255972 5.2314210
v -1.0389680 -1.4566690 0.9175001
vn 0.0000000 0.3632022 -0.9317104
vt 0.4255971 4.9745731
v -1.6463990 -1.8310040 0.8286932
vn 0.0000000 -0.9063078 -0.4226184
vt 0.0084521 0.4693893

g group_65557408_140627938904224
f 1/1/1 2/2/2 3/3/3 
f 4/4/4 5/5/5 6/6/6 
f 3/3/3 7/7/7 1/1/1 
f 8/8/8 7/7/7 9/9/9 
f 9/9/9 10/10/10 11/11/11 
f 11/11/11 12/12/12 13/13/13 
f 14/14/14 15/15/15 16/16/16 
f 15/15/15 14/14/14 4/4/4 
f 17/17/17 18/18/18 19/19/19 
f 18/18/18 17/17/17 20/20/20 
f 21/21/21 22/22/22 20/20/20 
f 22/22/22 23/23/23 24/24/24 
f 23/23/23 25/25/25 26/26/26 
f 25/25/25 27/27/27 28/28/28 
f 29/29/29 30/30/30 31/31/31 
f 32/32/32 33/33/33 34/34/34 
f 34/34/34 35/35/35 36/36/36 
f 37/37/37 30/30/30 38/38/38 
f 39/39/39 40/40/40 36/36/36 
f 41/41/41 42/42/42 38/38/38 
f 43/43/43 44/44/44 40/40/40 
f 41/41/41 45/45/45 42/42/42 
f 44/44/44 43/43/43 46/46/46 
f 47/47/47 45/45/45 48/48/48 
f 48/48/48 49/49/49 50/50/50 
f 51/51/51 46/46/46 52/52/52 
f 51/51/51 52/52/52 53/53/53 
f 50/50/50 54/54/54 55/55/55 
f 53/53/53 56/56/56 57/57/57 
f 55/55/55 58/58/58 59/59/59 
f 60/60/60 61/61/61 62/62/62 
f 60/60/60 63/63/63 61/61/61 
f 63/63/63 64/64/64 65/65/65 
f 64/64/64 66/66/66 67/67/67 
f 68/68/68 69/69/69 70/70/70 
f 71/71/71 72/72/72 73/73/73 
f 68/68/68 70/70/70 74/74/74 
f 74/74/74 75/75/75 76/76/76 
f 76/76/76 77/77/77 78/78/78 
f 79/79/79 80/80/80 81/81/81 
f 82/82/82 83/83/83 84/84/84 
f 85/85/85 86/86/86 87/87/87 
f 86/86/86 88/88/88 87/87/87 
f 87/87/87 88/88/88 89/89/89 
f 90/90/90 91/91/91 92/92/92 
f 93/93/93 94/94/94 91/91/91 
f 95/95/95 96/96/96 97/97/97 
f 98/98/98 96/96/96 99/99/99 
f 100/100/100 82/82/82 6/6/6 
f 88/88/88 57/57/57 89/89/89 
f 93/93/93 59/59/59 94/94/94 
f 101/101/101 102/102/102 103/103/103 
f 104/104/104 105/105/105 106/106/106 
f 107/107/107 108/108/108 109/109/109 
f 110/110/110 111/111/111 112/112/112 
f 113/113/113 105/105/105 114/114/114 
f 108/108/108 86/86/86 115/115/115 
f 111/111/111 90/90/90 116/116/116 
f 117/117/117 102/102/102 118/118/118 
f 119/119/119 120/120/120 121/121/121 
f 122/122/122 123/123/123 124/124/124 
f 125/125/125 126/126/126 127/127/127 
f 128/128/128 129/129/129 130/130/130 
f 123/123/123 106/106/106 131/131/131 
f 126/126/126 107/107/107 132/132/132 
f 129/129/129 110/110/110 133/133/133 
f 134/134/134 120/120/120 103/103/103 
f 71/71/71 135/135/135 72/72/72 
f 136/136/136 137/137/137 138/138/138 
f 139/139/139 140/140/140 141/141/141 
f 142/142/142 143/143/143 144/144/144 
f 145/145/145 135/135/135 121/121/121 
f 146/146/146 137/137/137 124/124/124 
f 127/127/127 147/147/147 125/125/125 
f 128/128/128 130/130/130 143/143/143 
f 148/148/148 149/149/149 150/150/150 
f 151/151/151 83/83/83 114/114/114 
f 152/152/152 95/95/95 118/118/118 
f 2/2/2 153/153/153 3/3/3 
f 5/5/5 100/100/100 6/6/6 
f 7/7/7 8/8/8 1/1/1 
f 7/7/7 10/10/10 9/9/9 
f 10/10/10 12/12/12 11/11/11 
f 12/12/12 16/16/16 13/13/13 
f 15/15/15 13/13/13 16/16/16 
f 14/14/14 5/5/5 4/4/4 
f 18/18/18 154/154/154 19/19/19 
f 17/17/17 21/21/21 20/20/20 
f 22/22/22 24/24/24 20/20/20 
f 23/23/23 26/26/26 24/24/24 
f 25/25/25 28/28/28 26/26/26 
f 27/27/27 155/155/155 28/28/28 
f 30/30/30 156/156/156 31/31/31 
f 33/33/33 35/35/35 34/34/34 
f 35/35/35 39/39/39 36/36/36 
f 30/30/30 29/29/29 38/38/38 
f 40/40/40 157/157/157 36/36/36 
f 42/42/42 37/37/37 38/38/38 
f 44/44/44 157/157/157 40/40/40 
f 45/45/45 47/47/47 42/42/42 
f 43/43/43 158/158/158 46/46/46 
f 45/45/45 49/49/49 48/48/48 
f 49/49/49 54/54/54 50/50/50 
f 46/46/46 158/158/158 52/52/52 
f 52/52/52 56/56/56 53/53/53 
f 54/54/54 58/58/58 55/55/55 
f 56/56/56 159/159/159 57/57/57 
f 58/58/58 160/160/160 59/59/59 
f 61/61/61 161/161/161 62/62/62 
f 63/63/63 65/65/65 61/61/61 
f 64/64/64 67/67/67 65/65/65 
f 66/66/66 162/162/162 67/67/67 
f 69/69/69 163/163/163 70/70/70 
f 72/72/72 164/164/164 73/73/73 
f 70/70/70 75/75/75 74/74/74 
f 75/75/75 77/77/77 76/76/76 
f 77/77/77 165/165/165 78/78/78 
f 80/80/80 166/166/166 81/81/81 
f 83/83/83 151/151/151 84/84/84 
f 91/91/91 94/94/94 92/92/92 
f 96/96/96 98/98/98 97/97/97 
f 96/96/96 167/167/167 99/99/99 
f 82/82/82 84/84/84 6/6/6 
f 57/57/57 159/159/159 89/89/89 
f 59/59/59 160/160/160 94/94/94 
f 102/102/102 117/117/117 103/103/103 
f 105/105/105 131/131/131 106/106/106 
f 108/108/108 115/115/115 109/109/109 
f 111/111/111 116/116/116 112/112/112 
f 105/105/105 104/104/104 114/114/114 
f 86/86/86 85/85/85 115/115/115 
f 90/90/90 92/92/92 116/116/116 
f 102/102/102 152/152/152 118/118/118 
f 120/120/120 134/134/134 121/121/121 
f 123/123/123 146/146/146 124/124/124 
f 126/126/126 132/132/132 127/127/127 
f 129/129/129 133/133/133 130/130/130 
f 123/123/123 122/122/122 106/106/106 
f 107/107/107 109/109/109 132/132/132 
f 110/110/110 112/112/112 133/133/133 
f 120/120/120 101/101/101 103/103/103 
f 135/135/135 145/145/145 72/72/72 
f 137/137/137 168/168/168 138/138/138 
f 140/140/140 147/147/147 141/141/141 
f 143/143/143 169/169/169 144/144/144 
f 135/135/135 119/119/119 121/121/121 
f 137/137/137 136/136/136 124/124/124 
f 147/147/147 140/140/140 125/125/125 
f 130/130/130 169/169/169 143/143/143 
f 149/149/149 170/170/170 150/150/150 
f 83/83/83 113/113/113 114/114/114 
f 95/95/95 97/97/97 118/118/118 
