v 1.1588510 1.7776370 0.1185447
vn 0.0126875 0.5384923 -0.8425350
vt 0.3765017 0.2885248
v 1.5150840 1.9096930 0.2750555
vn 0.0468403 0.8605641 -0.5071838
vt 0.3611524 0.3152192
v 1.5150840 1.7510780 0.1164405
vn 0.0313902 0.4900375 -0.8711360
vt 0.3780419 0.3152192
v 1.1588510 1.9514580 0.3319234
vn 0.0022687 0.9314316 -0.3639094
vt 0.3561180 0.2885419
v 1.5150840 1.9677500 0.4917277
vn 0.0565253 0.9983914 -0.0044243
vt 0.3442627 0.3152192
v 1.1588510 1.9674510 0.6077619
vn 0.0003742 0.9659259 0.2588189
vt 0.3358202 0.2885426
v 1.5150840 1.9096930 0.7083999
vn 0.0565251 0.8624204 0.5030268
vt 0.3273730 0.3152192
v 1.1588510 1.8156810 0.8386485
vn 0.0022683 0.6246889 0.7808705
vt 0.3154797 0.2885418
v 1.1588510 1.5584590 0.9365295
vn 0.0126871 0.0450806 0.9989028
vt 0.2981834 0.2884659
v 1.5150840 1.7510780 0.8670149
vn 0.0468399 0.4916786 0.8695161
vt 0.3104834 0.3152192
v 1.1588510 1.5584590 0.9365295
vn 0.0126871 0.0450806 0.9989028
vt 0.2963936 0.2885258
v 1.1588510 1.2929630 0.8653901
vn 0.0111355 -0.5377207 0.8430496
vt 0.3121292 0.2885084
v 1.5150840 1.5344059 0.9250721
vn 0.0313899 -0.0111830 0.9994447
vt 0.2935937 0.3152192
v 1.5150840 1.1591181 0.7084000
vn 0.0432444 -0.8609915 0.5067776
vt 0.3273730 0.3152192
v 1.5150840 1.3177340 0.8670150
vn 0.0301545 -0.4907812 0.8707609
vt 0.3104833 0.3152192
v 1.1588510 1.1191421 0.6520114
vn -0.0019237 -0.9312285 0.3644308
vt 0.3323297 0.2885338
v 1.5150840 1.1010610 0.4917277
vn 0.0515303 -0.9986625 0.0042269
vt 0.3442627 0.3152192
v 1.1588510 1.1031491 0.3761728
vn -0.0048301 -0.9659145 -0.2588162
vt 0.3527053 0.2885335
v 1.5150840 1.1591181 0.2750555
vn 0.0515305 -0.8627535 -0.5029922
vt 0.3611523 0.3152192
v 1.1588510 1.2549191 0.1452864
vn -0.0019234 -0.6242526 -0.7812202
vt 0.3731167 0.2885349
v 1.1588510 1.5121410 0.0474052
vn 0.0111358 -0.0441556 -0.9989626
vt 0.3904523 0.2884490
v 1.5150840 1.3177330 0.1164405
vn 0.0432446 -0.4922523 -0.8693777
vt 0.3780419 0.3152192
v 1.1588510 1.5121410 0.0474052
vn 0.0111358 -0.0441556 -0.9989626
vt 0.3921078 0.2885049
v 1.5150840 1.5344050 0.0583834
vn 0.0301547 0.0103508 -0.9994917
vt 0.3949315 0.3152192
v 1.1588510 1.7776370 0.1185447
vn -1.0000000 0.0000001 -0.0000000
vt 0.3460404 0.1204161
v 1.1588510 1.9674510 0.6077619
vn -1.0000000 0.0000000 0.0000000
vt 0.3116251 0.1070631
v 1.1588510 1.9514580 0.3319234
vn -1.0000000 0.0000000 0.0000000
vt 0.3310297 0.1081882
v 1.5150840 1.7510780 0.1164405
vn 1.0000000 0.0000000 0.0000000
vt 0.4936610 0.1093311
v 1.5150840 1.9096930 0.2750555
vn 1.0000000 0.0000000 0.0000000
vt 0.5056038 0.1212739
v 1.5150840 1.5344050 0.0583834
vn 1.0000000 0.0000000 0.0000000
vt 0.4773469 0.1049597
v 1.1588510 1.5121410 0.0474052
vn -1.0000000 0.0000001 -0.0000002
vt 0.3510450 0.1390930
v 1.1588510 1.2549191 0.1452864
vn -1.0000000 0.0000006 0.0000004
vt 0.3441592 0.1571880
v 1.1588510 1.1031491 0.3761728
vn -1.0000000 0.0000002 0.0000000
vt 0.3279169 0.1678646
v 1.1588510 1.1191421 0.6520114
vn -1.0000000 0.0000000 0.0000000
vt 0.3085123 0.1667395
v 1.1588510 1.2929630 0.8653901
vn -1.0000000 0.0000004 -0.0000002
vt 0.2935016 0.1545117
v 1.1588510 1.5584590 0.9365295
vn -1.0000000 0.0000002 -0.0000000
vt 0.2884971 0.1358347
v 1.1588510 1.8156810 0.8386485
vn -1.0000000 0.0000000 0.0000000
vt 0.2953828 0.1177398
v 1.5150840 1.9677500 0.4917277
vn 1.0000000 0.0000000 0.0000000
vt 0.5099751 0.1375880
v 1.5150840 1.9096930 0.7083999
vn 1.0000000 0.0000000 0.0000000
vt 0.5056038 0.1539022
v 1.5150840 1.7510780 0.8670149
vn 1.0000000 0.0000000 0.0000000
vt 0.4936610 0.1658450
v 1.5150840 1.5344059 0.9250721
vn 1.0000000 0.0000000 0.0000000
vt 0.4773469 0.1702164
v 1.5150840 1.3177340 0.8670150
vn 1.0000000 0.0000000 0.0000000
vt 0.4610328 0.1658450
v 1.5150840 1.1591181 0.7084000
vn 1.0000000 0.0000000 0.0000000
vt 0.4490900 0.1539022
v 1.5150840 1.1010610 0.4917277
vn 1.0000000 0.0000000 0.0000000
vt 0.4447187 0.1375880
v 1.5150840 1.1591181 0.2750555
vn 1.0000000 0.0000000 0.0000000
vt 0.4490900 0.1212739
v 1.5150840 1.3177330 0.1164405
vn 1.0000000 0.0000000 0.0000000
vt 0.4610328 0.1093311
v 1.5150840 1.5344059 0.9250721
vn 0.0313899 -0.0111830 0.9994447
vt 0.2935937 0.3152192
v 1.5150840 1.5344050 0.0583834
vn 0.0301547 0.0103508 -0.9994917
vt 0.3949315 0.3152192

g group_65503952_140627938893520
f 1/1/1 2/2/2 3/3/3 
f 4/4/4 5/5/5 2/2/2 
f 6/6/6 7/7/7 5/5/5 
f 6/6/6 8/8/8 7/7/7 
f 8/8/8 9/9/9 10/10/10 
f 11/11/11 12/12/12 13/13/13 
f 12/12/12 14/14/14 15/15/15 
f 16/16/16 17/17/17 14/14/14 
f 18/18/18 19/19/19 17/17/17 
f 18/18/18 20/20/20 19/19/19 
f 20/20/20 21/21/21 22/22/22 
f 23/23/23 3/3/3 24/24/24 
f 25/25/25 26/26/26 27/27/27 
f 28/28/28 29/29/29 30/30/30 
f 1/1/1 4/4/4 2/2/2 
f 4/4/4 6/6/6 5/5/5 
f 8/8/8 10/10/10 7/7/7 
f 9/9/9 47/47/47 10/10/10 
f 12/12/12 15/15/15 13/13/13 
f 12/12/12 16/16/16 14/14/14 
f 16/16/16 18/18/18 17/17/17 
f 20/20/20 22/22/22 19/19/19 
f 21/21/21 48/48/48 22/22/22 
f 23/23/23 1/1/1 3/3/3 
f 31/31/31 32/32/32 33/33/33 
f 25/25/25 31/31/31 33/33/33 
f 33/33/33 34/34/34 35/35/35 
f 33/33/33 35/35/35 36/36/36 
f 25/25/25 33/33/33 36/36/36 
f 36/36/36 37/37/37 26/26/26 
f 25/25/25 36/36/36 26/26/26 
f 29/29/29 38/38/38 39/39/39 
f 39/39/39 40/40/40 41/41/41 
f 29/29/29 39/39/39 41/41/41 
f 41/41/41 42/42/42 43/43/43 
f 43/43/43 44/44/44 45/45/45 
f 41/41/41 43/43/43 45/45/45 
f 29/29/29 41/41/41 45/45/45 
f 45/45/45 46/46/46 30/30/30 
f 29/29/29 45/45/45 30/30/30 
