v 1.2382751 3.2621560 0.6364805
vn -1.0000000 0.0000000 0.0000000
vt 0.2789609 0.8605868
v 1.2382751 3.1338680 0.7647688
vn -1.0000000 0.0000000 0.0000000
vt 0.2700612 0.8694865
v 1.2382751 3.4374011 0.5895238
vn -1.0000000 0.0000000 0.0000000
vt 0.2911181 0.8573292
v 1.4408540 3.2621560 0.6364805
vn 1.0000000 0.0000000 0.0000000
vt 0.3044283 0.9163266
v 1.4408540 3.4374011 0.5895238
vn 1.0000000 0.0000000 0.0000000
vt 0.2898709 0.9124259
v 1.4408540 3.1338680 0.7647688
vn 1.0000000 0.0000000 0.0000000
vt 0.3150851 0.9269833
v 1.4408540 3.2621560 0.6364805
vn 0.0000000 -0.4999999 -0.8660254
vt 0.4018671 0.2520233
v 1.4408540 3.1338680 0.7647688
vn 0.0000000 -0.8660254 -0.5000000
vt 0.4106706 0.2520233
v 1.2382751 3.1338680 0.7647688
vn 0.0000000 -0.8660254 -0.5000000
vt 0.4106706 0.2618532
v 1.4408540 3.4374011 0.5895238
vn 0.0000000 0.0000000 -1.0000000
vt 0.3930635 0.2520233
v 1.2382751 3.2621560 0.6364805
vn 0.0000000 -0.4999999 -0.8660254
vt 0.4018671 0.2618532
v 1.4408540 3.6126461 0.6364805
vn 0.0000000 0.4999996 -0.8660256
vt 0.3842600 0.2520233
v 1.2382751 3.4374011 0.5895238
vn 0.0000000 -0.0000000 -1.0000000
vt 0.3930635 0.2618532
v 1.4408540 3.7409351 0.7647688
vn 0.0000000 0.8660253 -0.5000004
vt 0.3754564 0.2520233
v 1.2382751 3.6126461 0.6364805
vn 0.0000000 0.4999996 -0.8660256
vt 0.3842600 0.2618532
v 1.4408540 3.7878909 0.9400138
vn 0.0000000 1.0000000 -0.0000001
vt 0.3666529 0.2520233
v 1.2382751 3.7409351 0.7647688
vn 0.0000000 0.8660252 -0.5000004
vt 0.3754564 0.2618532
v 1.4408540 3.7409351 1.1152591
vn 0.0000000 0.8660252 0.5000004
vt 0.3578494 0.2520233
v 1.2382751 3.7878909 0.9400138
vn 0.0000000 1.0000000 -0.0000001
vt 0.3666529 0.2618532
v 1.4408540 3.6126461 1.2435470
vn 0.0000000 0.5000002 0.8660253
vt 0.3490458 0.2520233
v 1.2382751 3.7409351 1.1152591
vn 0.0000000 0.8660251 0.5000005
vt 0.3578494 0.2618532
v 1.4408540 3.4374011 1.2905040
vn 0.0000000 0.0000003 1.0000000
vt 0.3402423 0.2520233
v 1.2382751 3.6126461 1.2435470
vn 0.0000000 0.5000002 0.8660253
vt 0.3490458 0.2618532
v 1.4408540 3.2621560 1.2435470
vn 0.0000000 -0.5000004 0.8660252
vt 0.4370813 0.2520233
v 1.4408540 3.4374011 1.2905040
vn 0.0000000 0.0000003 1.0000000
vt 0.4458848 0.2520233
v 1.2382751 3.4374011 1.2905040
vn 0.0000000 0.0000003 1.0000000
vt 0.4458848 0.2618532
v 1.4408540 3.1338680 1.1152591
vn 0.0000000 -0.8660254 0.5000001
vt 0.4282777 0.2520233
v 1.2382751 3.2621560 1.2435470
vn 0.0000000 -0.5000004 0.8660252
vt 0.4370813 0.2618532
v 1.4408540 3.0869110 0.9400140
vn 0.0000000 -1.0000000 0.0000001
vt 0.4194742 0.2520233
v 1.2382751 3.1338680 1.1152591
vn 0.0000000 -0.8660254 0.5000000
vt 0.4282777 0.2618532
v 1.2382751 3.0869110 0.9400140
vn 0.0000000 -1.0000000 0.0000002
vt 0.4194742 0.2618532
v 1.2382751 3.0869110 0.9400140
vn -1.0000000 0.0000000 0.0000000
vt 0.2668037 0.8816437
v 1.2382751 3.1338680 1.1152591
vn -1.0000000 0.0000000 0.0000000
vt 0.2700612 0.8938008
v 1.2382751 3.2621560 1.2435470
vn -1.0000000 0.0000000 0.0000000
vt 0.2789609 0.9027004
v 1.2382751 3.4374011 1.2905040
vn -1.0000000 0.0000000 0.0000000
vt 0.2911181 0.9059581
v 1.2382751 3.6126461 1.2435470
vn -1.0000000 0.0000000 0.0000000
vt 0.3032752 0.9027004
v 1.2382751 3.7409351 1.1152591
vn -1.0000000 0.0000000 0.0000000
vt 0.3121749 0.8938008
v 1.2382751 3.7878909 0.9400138
vn -1.0000000 0.0000000 0.0000000
vt 0.3154324 0.8816437
v 1.2382751 3.7409351 0.7647688
vn -1.0000000 0.0000000 0.0000000
vt 0.3121749 0.8694865
v 1.2382751 3.6126461 0.6364805
vn -1.0000000 0.0000000 0.0000000
vt 0.3032752 0.8605868
v 1.4408540 3.6126461 0.6364805
vn 1.0000000 0.0000000 0.0000000
vt 0.2753136 0.9163266
v 1.4408540 3.7409351 0.7647688
vn 1.0000000 0.0000000 0.0000000
vt 0.2646568 0.9269833
v 1.4408540 3.7878909 0.9400138
vn 1.0000000 0.0000000 0.0000000
vt 0.2607561 0.9415407
v 1.4408540 3.7409351 1.1152591
vn 1.0000000 0.0000000 0.0000000
vt 0.2646568 0.9560981
v 1.4408540 3.6126461 1.2435470
vn 1.0000000 0.0000000 0.0000000
vt 0.2753136 0.9667549
v 1.4408540 3.4374011 1.2905040
vn 1.0000000 0.0000000 0.0000000
vt 0.2898709 0.9706556
v 1.4408540 3.2621560 1.2435470
vn 1.0000000 0.0000000 0.0000000
vt 0.3044283 0.9667549
v 1.4408540 3.1338680 1.1152591
vn 1.0000000 0.0000000 0.0000000
vt 0.3150851 0.9560981
v 1.4408540 3.0869110 0.9400140
vn 1.0000000 0.0000000 0.0000000
vt 0.3189856 0.9415407
v 1.2382751 3.4374011 1.2905040
vn 0.0000000 0.0000003 1.0000000
vt 0.3402423 0.2618532

g group_65504120_140627938894496
f 1/1/1 2/2/2 3/3/3 
f 4/4/4 5/5/5 6/6/6 
f 7/7/7 8/8/8 9/9/9 
f 10/10/10 7/7/7 11/11/11 
f 12/12/12 10/10/10 13/13/13 
f 14/14/14 12/12/12 15/15/15 
f 16/16/16 14/14/14 17/17/17 
f 18/18/18 16/16/16 19/19/19 
f 20/20/20 18/18/18 21/21/21 
f 22/22/22 20/20/20 23/23/23 
f 24/24/24 25/25/25 26/26/26 
f 27/27/27 24/24/24 28/28/28 
f 29/29/29 27/27/27 30/30/30 
f 8/8/8 29/29/29 31/31/31 
f 2/2/2 32/32/32 33/33/33 
f 33/33/33 34/34/34 35/35/35 
f 2/2/2 33/33/33 35/35/35 
f 35/35/35 36/36/36 37/37/37 
f 37/37/37 38/38/38 39/39/39 
f 35/35/35 37/37/37 39/39/39 
f 2/2/2 35/35/35 39/39/39 
f 39/39/39 40/40/40 3/3/3 
f 2/2/2 39/39/39 3/3/3 
f 5/5/5 41/41/41 42/42/42 
f 42/42/42 43/43/43 44/44/44 
f 5/5/5 42/42/42 44/44/44 
f 44/44/44 45/45/45 46/46/46 
f 46/46/46 47/47/47 48/48/48 
f 44/44/44 46/46/46 48/48/48 
f 5/5/5 44/44/44 48/48/48 
f 48/48/48 49/49/49 6/6/6 
f 5/5/5 48/48/48 6/6/6 
f 9/9/9 11/11/11 7/7/7 
f 11/11/11 13/13/13 10/10/10 
f 13/13/13 15/15/15 12/12/12 
f 15/15/15 17/17/17 14/14/14 
f 17/17/17 19/19/19 16/16/16 
f 19/19/19 21/21/21 18/18/18 
f 21/21/21 23/23/23 20/20/20 
f 23/23/23 50/50/50 22/22/22 
f 26/26/26 28/28/28 24/24/24 
f 28/28/28 30/30/30 27/27/27 
f 30/30/30 31/31/31 29/29/29 
f 31/31/31 9/9/9 8/8/8 
