v -1.1833060 -1.7731440 1.0451781
vn 0.0000000 0.7071065 -0.7071072
vt 0.6614283 0.3036384
v -1.5061980 -1.7731440 1.0451781
vn 0.0000000 0.7071064 -0.7071072
vt 0.6614283 0.3304606
v -1.1833060 -1.7332950 1.1413820
vn 0.0000000 1.0000000 -0.0000002
vt 0.6527784 0.3036384
v -1.5061980 -1.7332950 1.1413820
vn 0.0000000 1.0000000 -0.0000002
vt 0.6527784 0.3304606
v -1.1833060 -1.7731440 1.2375860
vn 0.0000000 0.7071066 0.7071070
vt 0.6441284 0.3036384
v -1.5061980 -1.7731440 1.2375860
vn 0.0000000 0.7071066 0.7071070
vt 0.6441284 0.3304606
v -1.1833060 -1.8693480 1.2774349
vn 0.0000000 -0.0000002 1.0000000
vt 0.6354785 0.3036384
v -1.5061980 -1.8693480 1.2774349
vn 0.0000000 -0.0000002 1.0000000
vt 0.6354785 0.3304606
v -1.1833060 -1.9655520 1.2375860
vn 0.0000000 -0.7071071 0.7071065
vt 0.6441284 0.3036384
v -1.5061980 -1.9655520 1.2375860
vn 0.0000000 -0.7071071 0.7071065
vt 0.6441284 0.3304606
v -1.1833060 -2.0054009 1.1413820
vn 0.0000000 -1.0000000 -0.0000003
vt 0.6527784 0.3036384
v -1.5061980 -2.0054009 1.1413820
vn 0.0000000 -1.0000000 -0.0000002
vt 0.6527784 0.3304606
v -1.1833060 -1.9655520 1.0451781
vn 0.0000000 -0.7071069 -0.7071066
vt 0.6614283 0.3036384
v -1.5061980 -1.9655520 1.0451781
vn 0.0000000 -0.7071069 -0.7071066
vt 0.6614283 0.3304606
v -1.1833060 -1.8693480 1.0053290
vn 0.0000000 -0.0000002 -1.0000000
vt 0.6700783 0.3036384
v -1.5061980 -1.8693480 1.0053290
vn 0.0000000 -0.0000002 -1.0000000
vt 0.6700783 0.3304606
v -1.1833060 -1.7731440 1.0451781
vn 1.0000000 0.0000000 0.0000000
vt 0.6755098 0.3359880
v -1.1833060 -1.7332950 1.1413820
vn 1.0000000 0.0000000 0.0000000
vt 0.6835014 0.3326777
v -1.1833060 -1.8693480 1.0053290
vn 1.0000000 0.0000000 0.0000000
vt 0.6721995 0.3439795
v -1.1833060 -1.7731440 1.2375860
vn 1.0000000 0.0000000 0.0000000
vt 0.6914928 0.3359880
v -1.1833060 -1.8693480 1.2774349
vn 1.0000000 0.0000000 0.0000000
vt 0.6948031 0.3439795
v -1.1833060 -1.9655520 1.2375860
vn 1.0000000 0.0000000 0.0000000
vt 0.6914928 0.3519710
v -1.1833060 -2.0054009 1.1413820
vn 1.0000000 0.0000000 0.0000000
vt 0.6835014 0.3552813
v -1.1833060 -1.9655520 1.0451781
vn 1.0000000 0.0000000 0.0000000
vt 0.6755098 0.3519710
v -1.5061980 -1.8693480 1.0053290
vn -1.0000000 0.0000000 0.0000000
vt 0.7424783 0.4154847
v -1.5061980 -1.9655520 1.0451781
vn -1.0000000 0.0000000 0.0000000
vt 0.7504697 0.4187949
v -1.5061980 -1.7731440 1.0451781
vn -1.0000000 0.0000000 0.0000000
vt 0.7344867 0.4187949
v -1.5061980 -2.0054009 1.1413820
vn -1.0000000 0.0000000 0.0000000
vt 0.7537799 0.4267865
v -1.5061980 -1.9655520 1.2375860
vn -1.0000000 0.0000000 0.0000000
vt 0.7504697 0.4347780
v -1.5061980 -1.8693480 1.2774349
vn -1.0000000 0.0000000 0.0000000
vt 0.7424783 0.4380881
v -1.5061980 -1.7731440 1.2375860
vn -1.0000000 0.0000000 0.0000000
vt 0.7344867 0.4347780
v -1.5061980 -1.7332950 1.1413820
vn -1.0000000 0.0000000 0.0000000
vt 0.7311765 0.4267865
v -1.1833060 -1.8693480 1.2774349
vn 0.0000000 -0.0000002 1.0000000
vt 0.6354785 0.3036384
v -1.5061980 -1.8693480 1.2774349
vn 0.0000000 -0.0000002 1.0000000
vt 0.6354785 0.3304606
v -1.1833060 -1.8693480 1.0053290
vn 0.0000000 -0.0000002 -1.0000000
vt 0.6700783 0.3036384
v -1.5061980 -1.8693480 1.0053290
vn 0.0000000 -0.0000002 -1.0000000
vt 0.6700783 0.3304606

g group_65561416_140627938915712
f 1/1/1 2/2/2 3/3/3 
f 3/3/3 2/2/2 4/4/4 
f 3/3/3 4/4/4 5/5/5 
f 5/5/5 4/4/4 6/6/6 
f 5/5/5 6/6/6 7/7/7 
f 7/7/7 6/6/6 8/8/8 
f 33/33/33 34/34/34 9/9/9 
f 9/9/9 34/34/34 10/10/10 
f 9/9/9 10/10/10 11/11/11 
f 11/11/11 10/10/10 12/12/12 
f 11/11/11 12/12/12 13/13/13 
f 13/13/13 12/12/12 14/14/14 
f 13/13/13 14/14/14 15/15/15 
f 15/15/15 14/14/14 16/16/16 
f 35/35/35 36/36/36 1/1/1 
f 1/1/1 36/36/36 2/2/2 
f 17/17/17 18/18/18 19/19/19 
f 18/18/18 20/20/20 19/19/19 
f 20/20/20 21/21/21 19/19/19 
f 21/21/21 22/22/22 19/19/19 
f 22/22/22 23/23/23 19/19/19 
f 23/23/23 24/24/24 19/19/19 
f 25/25/25 26/26/26 27/27/27 
f 26/26/26 28/28/28 27/27/27 
f 28/28/28 29/29/29 27/27/27 
f 29/29/29 30/30/30 27/27/27 
f 30/30/30 31/31/31 27/27/27 
f 31/31/31 32/32/32 27/27/27 
