v 1.5061970 0.7175614 1.2818700
vn 0.0000000 0.1237927 0.9923081
vt 0.6362960 0.3304606
v 1.1833060 0.7175613 1.2818700
vn -0.0000001 0.1237924 0.9923081
vt 0.6362855 0.3036059
v 1.5061970 0.5868993 1.2277480
vn 0.0000000 -0.7892020 0.6141337
vt 0.6457242 0.3304823
v 1.5061970 0.6808652 1.0008940
vn -0.0000004 -0.1237932 -0.9923081
vt 0.6692609 0.3304606
v 1.1833060 0.6808654 1.0008940
vn -0.0000006 -0.1237925 -0.9923081
vt 0.6692713 0.3036059
v 1.5061970 0.8115273 1.0550160
vn -0.0000002 0.7892019 -0.6141339
vt 0.6598326 0.3304823
v 1.5061970 0.6808652 1.0008940
vn 1.0000000 0.0000000 0.0000000
vt 0.7440025 0.4151163
v 1.5061970 0.8115273 1.0550160
vn 1.0000000 0.0000000 0.0000000
vt 0.7331485 0.4196122
v 1.5061970 0.5868993 1.2277480
vn 1.0000000 0.0000000 0.0000000
vt 0.7518079 0.4339607
v 1.1833060 0.8115273 1.0550160
vn 0.0000000 0.7892016 -0.6141342
vt 0.6603097 0.3036546
v 1.5061970 0.8321013 1.1964260
vn 0.0000000 0.9238797 0.3826832
vt 0.6481394 0.3304434
v 1.1833060 0.7175613 1.2818700
vn -0.0000001 0.1237924 0.9923081
vt 0.6376556 0.3036384
v 1.5061970 0.7175614 1.2818700
vn 0.0000000 0.1237927 0.9923081
vt 0.6376534 0.3304664
v 1.1833060 0.8321013 1.1964260
vn -0.0000000 0.9238796 0.3826833
vt 0.6486694 0.3036344
v 1.1833060 0.5868993 1.2277480
vn 0.0000000 -0.7892020 0.6141337
vt 0.6452470 0.3036546
v 1.5061970 0.5663254 1.0863380
vn 0.0000000 -0.9238799 -0.3826827
vt 0.6574175 0.3304434
v 1.1833060 0.6808654 1.0008940
vn -0.0000006 -0.1237925 -0.9923081
vt 0.6679013 0.3036384
v 1.5061970 0.6808652 1.0008940
vn -0.0000004 -0.1237932 -0.9923081
vt 0.6679035 0.3304664
v 1.1833060 0.5663254 1.0863380
vn -0.0000004 -0.9238796 -0.3826833
vt 0.6568875 0.3036344
v 1.5061970 0.5663254 1.0863380
vn 1.0000000 0.0000000 0.0000000
vt 0.7535170 0.4222140
v 1.5061970 0.7175614 1.2818700
vn 1.0000000 0.0000000 0.0000000
vt 0.7409542 0.4384565
v 1.5061970 0.8321013 1.1964260
vn 1.0000000 0.0000000 0.0000000
vt 0.7314394 0.4313589

g group_64927904_140627938886176
f 1/1/1 2/2/2 3/3/3 
f 4/4/4 5/5/5 6/6/6 
f 7/7/7 8/8/8 9/9/9 
f 6/6/6 10/10/10 11/11/11 
f 12/12/12 13/13/13 14/14/14 
f 3/3/3 15/15/15 16/16/16 
f 17/17/17 18/18/18 19/19/19 
f 3/3/3 2/2/2 15/15/15 
f 6/6/6 5/5/5 10/10/10 
f 7/7/7 9/9/9 20/20/20 
f 21/21/21 8/8/8 22/22/22 
f 9/9/9 8/8/8 21/21/21 
f 11/11/11 10/10/10 14/14/14 
f 14/14/14 13/13/13 11/11/11 
f 16/16/16 15/15/15 19/19/19 
f 19/19/19 18/18/18 16/16/16 
