v -1.1833060 -2.6243291 1.0058450
vn 0.0000000 0.7071062 -0.7071074
vt 0.5788785 0.3853756
v -1.3062650 -2.6243291 1.0058450
vn 0.0000000 0.7071062 -0.7071074
vt 0.5788785 0.3955898
v -1.1833060 -2.5844800 1.1020490
vn 0.0000000 1.0000000 0.0000002
vt 0.5702286 0.3853756
v -1.3062650 -2.5844800 1.1020490
vn 0.0000000 1.0000000 0.0000002
vt 0.5702286 0.3955898
v -1.1833060 -2.6243291 1.1982530
vn 0.0000000 0.7071062 0.7071075
vt 0.5615786 0.3853756
v -1.3062650 -2.6243291 1.1982530
vn 0.0000000 0.7071062 0.7071075
vt 0.5615786 0.3955898
v -1.1833060 -2.7205329 1.2381020
vn 0.0000000 -0.0000009 1.0000000
vt 0.5529286 0.3853756
v -1.3062650 -2.7205329 1.2381020
vn 0.0000000 -0.0000009 1.0000000
vt 0.5529286 0.3955898
v -1.1833060 -2.8167360 1.1982530
vn 0.0000000 -0.7071075 0.7071062
vt 0.5615786 0.3853756
v -1.3062650 -2.8167360 1.1982530
vn 0.0000000 -0.7071075 0.7071062
vt 0.5615786 0.3955898
v -1.1833060 -2.8565850 1.1020490
vn 0.0000000 -1.0000000 0.0000002
vt 0.5702285 0.3853756
v -1.3062650 -2.8565850 1.1020490
vn 0.0000000 -1.0000000 0.0000002
vt 0.5702285 0.3955898
v -1.1833060 -2.8167360 1.0058450
vn 0.0000000 -0.7071077 -0.7071059
vt 0.5788785 0.3853756
v -1.3062650 -2.8167360 1.0058450
vn 0.0000000 -0.7071077 -0.7071059
vt 0.5788785 0.3955898
v -1.1833060 -2.7205329 0.9659963
vn 0.0000000 -0.0000009 -1.0000000
vt 0.5875285 0.3853756
v -1.3062650 -2.7205329 0.9659963
vn 0.0000000 -0.0000009 -1.0000000
vt 0.5875285 0.3955898
v -1.1833060 -2.6243291 1.0058450
vn 1.0000000 0.0000000 0.0000000
vt 0.5361465 0.3667894
v -1.1833060 -2.5844800 1.1020490
vn 1.0000000 0.0000000 0.0000000
vt 0.5441380 0.3634792
v -1.1833060 -2.7205329 0.9659963
vn 1.0000000 0.0000000 0.0000000
vt 0.5328362 0.3747810
v -1.1833060 -2.6243291 1.1982530
vn 1.0000000 0.0000000 0.0000000
vt 0.5521295 0.3667894
v -1.1833060 -2.7205329 1.2381020
vn 1.0000000 0.0000000 0.0000000
vt 0.5554398 0.3747810
v -1.1833060 -2.8167360 1.1982530
vn 1.0000000 0.0000000 0.0000000
vt 0.5521295 0.3827725
v -1.1833060 -2.8565850 1.1020490
vn 1.0000000 0.0000000 0.0000000
vt 0.5441380 0.3860827
v -1.1833060 -2.8167360 1.0058450
vn 1.0000000 0.0000000 0.0000000
vt 0.5361465 0.3827725
v -1.3062650 -2.7205329 0.9659963
vn -1.0000000 0.0000000 0.0000000
vt 0.5567725 0.3419688
v -1.3062650 -2.8167360 1.0058450
vn -1.0000000 0.0000000 0.0000000
vt 0.5647641 0.3452791
v -1.3062650 -2.6243291 1.0058450
vn -1.0000000 0.0000000 0.0000000
vt 0.5487810 0.3452791
v -1.3062650 -2.8565850 1.1020490
vn -1.0000000 0.0000000 0.0000000
vt 0.5680742 0.3532706
v -1.3062650 -2.8167360 1.1982530
vn -1.0000000 0.0000000 0.0000000
vt 0.5647641 0.3612621
v -1.3062650 -2.7205329 1.2381020
vn -1.0000000 0.0000000 0.0000000
vt 0.5567725 0.3645723
v -1.3062650 -2.6243291 1.1982530
vn -1.0000000 0.0000000 0.0000000
vt 0.5487810 0.3612621
v -1.3062650 -2.5844800 1.1020490
vn -1.0000000 0.0000000 0.0000000
vt 0.5454708 0.3532706
v -1.1833060 -2.7205329 1.2381020
vn 0.0000000 -0.0000009 1.0000000
vt 0.5529286 0.3853756
v -1.3062650 -2.7205329 1.2381020
vn 0.0000000 -0.0000009 1.0000000
vt 0.5529286 0.3955898
v -1.1833060 -2.7205329 0.9659963
vn 0.0000000 -0.0000009 -1.0000000
vt 0.5875285 0.3853756
v -1.3062650 -2.7205329 0.9659963
vn 0.0000000 -0.0000009 -1.0000000
vt 0.5875285 0.3955898

g group_65563600_140627938921920
f 1/1/1 2/2/2 3/3/3 
f 3/3/3 2/2/2 4/4/4 
f 3/3/3 4/4/4 5/5/5 
f 5/5/5 4/4/4 6/6/6 
f 5/5/5 6/6/6 7/7/7 
f 7/7/7 6/6/6 8/8/8 
f 33/33/33 34/34/34 9/9/9 
f 9/9/9 34/34/34 10/10/10 
f 9/9/9 10/10/10 11/11/11 
f 11/11/11 10/10/10 12/12/12 
f 11/11/11 12/12/12 13/13/13 
f 13/13/13 12/12/12 14/14/14 
f 13/13/13 14/14/14 15/15/15 
f 15/15/15 14/14/14 16/16/16 
f 35/35/35 36/36/36 1/1/1 
f 1/1/1 36/36/36 2/2/2 
f 17/17/17 18/18/18 19/19/19 
f 18/18/18 20/20/20 19/19/19 
f 20/20/20 21/21/21 19/19/19 
f 21/21/21 22/22/22 19/19/19 
f 22/22/22 23/23/23 19/19/19 
f 23/23/23 24/24/24 19/19/19 
f 25/25/25 26/26/26 27/27/27 
f 26/26/26 28/28/28 27/27/27 
f 28/28/28 29/29/29 27/27/27 
f 29/29/29 30/30/30 27/27/27 
f 30/30/30 31/31/31 27/27/27 
f 31/31/31 32/32/32 27/27/27 
