v 1.1588510 -2.0558710 0.1159298
vn 0.0216100 0.5384684 -0.8423687
vt 0.3763530 0.2883970
v 1.5150840 -1.9256290 0.2750557
vn 0.0558365 0.8601043 -0.5070531
vt 0.3611524 0.3152192
v 1.5150840 -2.0842440 0.1164407
vn 0.0402557 0.4897579 -0.8709287
vt 0.3780419 0.3152192
v 1.1588510 -1.8808210 0.3308178
vn 0.0113566 0.9313892 -0.3638478
vt 0.3560854 0.2883970
v 1.5150840 -1.8675710 0.4917279
vn 0.0655987 0.9978361 -0.0044765
vt 0.3442627 0.3152192
v 1.1588510 -1.8647150 0.6086076
vn 0.0095499 0.9658818 0.2588072
vt 0.3358178 0.2883970
v 1.5150840 -1.9256290 0.7084002
vn 0.0655987 0.8619132 0.5027947
vt 0.3273730 0.3152192
v 1.1588510 -2.0175581 0.8411273
vn 0.0113566 0.6246828 0.7807961
vt 0.3155503 0.2883970
v 1.1588510 -2.2766011 0.9397008
vn 0.0216102 0.0451424 0.9987468
vt 0.2986606 0.2883970
v 1.5150840 -2.0842440 0.8670151
vn 0.0558365 0.4913456 0.8691731
vt 0.3104834 0.3152192
v 1.1588510 -2.2766011 0.9397008
vn 0.0216102 0.0451424 0.9987468
vt 0.2969716 0.2883970
v 1.5150840 -2.5175869 0.8670152
vn 0.0388876 -0.4905896 0.8705226
vt 0.3104833 0.3152192
v 1.5150840 -2.3009160 0.9250722
vn 0.0402560 -0.0113217 0.9991253
vt 0.2935937 0.3152192
v 1.1588510 -2.5439739 0.8680582
vn 0.0198890 -0.5376225 0.8429511
vt 0.3121723 0.2883970
v 1.5150840 -2.6762030 0.7084002
vn 0.0518522 -0.8606089 0.5066199
vt 0.3273730 0.3152192
v 1.1588510 -2.7190249 0.6531701
vn 0.0067059 -0.9312030 0.3644393
vt 0.3324399 0.2883970
v 1.5150840 -2.7342601 0.4917279
vn 0.0600637 -0.9981855 0.0042576
vt 0.3442627 0.3152192
v 1.1588510 -2.7351310 0.3753802
vn 0.0037760 -0.9659188 -0.2588176
vt 0.3527075 0.2883970
v 1.5150840 -2.6762030 0.2750557
vn 0.0600635 -0.8623248 -0.5027807
vt 0.3611523 0.3152192
v 1.1588510 -2.5822871 0.1428606
vn 0.0067058 -0.6242257 -0.7812153
vt 0.3729750 0.2883970
v 1.1588510 -2.3232460 0.0442871
vn 0.0198888 -0.0441201 -0.9988283
vt 0.3898646 0.2883970
v 1.5150840 -2.5175869 0.1164407
vn 0.0518521 -0.4919993 -0.8690501
vt 0.3780419 0.3152192
v 1.1588510 -2.3232460 0.0442871
vn 0.0198888 -0.0441201 -0.9988283
vt 0.3915536 0.2883970
v 1.5150840 -2.3009160 0.0583836
vn 0.0388871 0.0103972 -0.9991896
vt 0.3949315 0.3152192
v 1.1588510 -2.0558710 0.1159298
vn -1.0000000 0.0000000 0.0000000
vt 0.3461123 0.1203454
v 1.1588510 -1.8647150 0.6086076
vn -1.0000000 0.0000000 0.0000000
vt 0.3116498 0.1069740
v 1.1588510 -1.8808210 0.3308178
vn -1.0000000 0.0000000 0.0000000
vt 0.3310811 0.1081007
v 1.5150840 -2.0842440 0.1164407
vn 1.0000000 0.0000000 0.0000000
vt 0.4936610 0.1093311
v 1.5150840 -1.9256290 0.2750557
vn 1.0000000 0.0000000 0.0000000
vt 0.5056038 0.1212739
v 1.5150840 -2.3009160 0.0583836
vn 1.0000000 0.0000000 0.0000000
vt 0.4773469 0.1049597
v 1.1588510 -2.3232460 0.0442871
vn -1.0000000 0.0000000 0.0000000
vt 0.3511238 0.1390480
v 1.1588510 -2.5822871 0.1428606
vn -1.0000000 0.0000000 0.0000000
vt 0.3442286 0.1571679
v 1.1588510 -2.7351310 0.3753802
vn -1.0000000 0.0000000 0.0000000
vt 0.3279639 0.1678592
v 1.1588510 -2.7190249 0.6531701
vn -1.0000000 0.0000000 0.0000000
vt 0.3085327 0.1667325
v 1.1588510 -2.5439739 0.8680582
vn -1.0000000 0.0000000 0.0000000
vt 0.2935013 0.1544879
v 1.1588510 -2.2766011 0.9397008
vn -1.0000000 0.0000000 0.0000000
vt 0.2884900 0.1357852
v 1.1588510 -2.0175581 0.8411273
vn -1.0000000 0.0000000 0.0000000
vt 0.2953851 0.1176654
v 1.5150840 -1.8675710 0.4917279
vn 1.0000000 0.0000000 0.0000000
vt 0.5099751 0.1375880
v 1.5150840 -1.9256290 0.7084002
vn 1.0000000 0.0000000 0.0000000
vt 0.5056038 0.1539022
v 1.5150840 -2.0842440 0.8670151
vn 1.0000000 0.0000000 0.0000000
vt 0.4936610 0.1658450
v 1.5150840 -2.3009160 0.9250722
vn 1.0000000 0.0000000 0.0000000
vt 0.4773469 0.1702164
v 1.5150840 -2.5175869 0.8670152
vn 1.0000000 0.0000000 0.0000000
vt 0.4610328 0.1658450
v 1.5150840 -2.6762030 0.7084002
vn 1.0000000 0.0000000 0.0000000
vt 0.4490900 0.1539022
v 1.5150840 -2.7342601 0.4917279
vn 1.0000000 0.0000000 0.0000000
vt 0.4447187 0.1375880
v 1.5150840 -2.6762030 0.2750557
vn 1.0000000 0.0000000 0.0000000
vt 0.4490900 0.1212739
v 1.5150840 -2.5175869 0.1164407
vn 1.0000000 0.0000000 0.0000000
vt 0.4610328 0.1093311
v 1.5150840 -2.3009160 0.9250722
vn 0.0402560 -0.0113217 0.9991253
vt 0.2935937 0.3152192
v 1.5150840 -2.3009160 0.0583836
vn 0.0388871 0.0103972 -0.9991896
vt 0.3949315 0.3152192

g group_65555280_140627938902912
f 1/1/1 2/2/2 3/3/3 
f 4/4/4 5/5/5 2/2/2 
f 6/6/6 7/7/7 5/5/5 
f 6/6/6 8/8/8 7/7/7 
f 8/8/8 9/9/9 10/10/10 
f 11/11/11 12/12/12 13/13/13 
f 14/14/14 15/15/15 12/12/12 
f 16/16/16 17/17/17 15/15/15 
f 18/18/18 19/19/19 17/17/17 
f 18/18/18 20/20/20 19/19/19 
f 20/20/20 21/21/21 22/22/22 
f 23/23/23 1/1/1 24/24/24 
f 25/25/25 26/26/26 27/27/27 
f 28/28/28 29/29/29 30/30/30 
f 1/1/1 4/4/4 2/2/2 
f 4/4/4 6/6/6 5/5/5 
f 8/8/8 10/10/10 7/7/7 
f 9/9/9 47/47/47 10/10/10 
f 11/11/11 14/14/14 12/12/12 
f 14/14/14 16/16/16 15/15/15 
f 16/16/16 18/18/18 17/17/17 
f 20/20/20 22/22/22 19/19/19 
f 21/21/21 48/48/48 22/22/22 
f 1/1/1 3/3/3 24/24/24 
f 31/31/31 32/32/32 33/33/33 
f 25/25/25 31/31/31 33/33/33 
f 33/33/33 34/34/34 35/35/35 
f 33/33/33 35/35/35 36/36/36 
f 25/25/25 33/33/33 36/36/36 
f 36/36/36 37/37/37 26/26/26 
f 25/25/25 36/36/36 26/26/26 
f 29/29/29 38/38/38 39/39/39 
f 39/39/39 40/40/40 41/41/41 
f 29/29/29 39/39/39 41/41/41 
f 41/41/41 42/42/42 43/43/43 
f 43/43/43 44/44/44 45/45/45 
f 41/41/41 43/43/43 45/45/45 
f 29/29/29 41/41/41 45/45/45 
f 45/45/45 46/46/46 30/30/30 
f 29/29/29 45/45/45 30/30/30 
