v 1.0517091 -0.7318799 0.3261328
vn -0.6437168 -0.7652639 0.0000000
vt 0.1498203 0.3275434
v 1.3517090 -0.7318799 0.3261328
vn 0.0000000 -1.0000000 0.0000000
vt 0.1138071 0.3275434
v 1.0517091 -0.6781055 0.4916334
vn -0.6437169 -0.6191116 0.4498105
vt 0.1498203 0.3067117
v 1.3517090 -0.6781055 0.4916334
vn 0.0000000 -0.8090171 0.5877851
vt 0.1138071 0.3067117
v 1.0517091 -0.5373220 0.5939187
vn -0.6437166 -0.2364792 0.7278094
vt 0.1498203 0.2858126
v 1.3517090 -0.5373220 0.5939187
vn 0.0000000 -0.3090163 0.9510568
vt 0.1138071 0.2858126
v 1.0517091 -0.3633041 0.5939184
vn -0.6437169 0.2364801 0.7278089
vt 0.1498203 0.3067117
v 1.3517090 -0.3633044 0.5939184
vn 0.0000000 0.3090169 0.9510565
vt 0.1138071 0.3067117
v 1.0517091 -0.3633041 0.5939184
vn -0.6437169 0.2364801 0.7278089
vt 0.1498203 0.3484080
v 1.3517090 -0.3633044 0.5939184
vn 0.0000000 0.3090169 0.9510565
vt 0.1138071 0.3484080
v 1.0517091 -0.2225211 0.4916336
vn -0.6437169 0.6191112 0.4498110
vt 0.1498203 0.3275434
v 1.3517090 -0.2225206 0.4916334
vn 0.0000000 0.8090170 0.5877853
vt 0.1138071 0.3275434
v 1.0517091 -0.1687466 0.3261328
vn -0.6437171 0.7652636 0.0000000
vt 0.1498203 0.3067111
v 1.3517090 -0.1687466 0.3261328
vn 0.0000000 1.0000000 0.0000000
vt 0.1138071 0.3067112
v 1.0517091 -0.2225211 0.1606320
vn -0.6437166 0.6191115 -0.4498109
vt 0.1498203 0.2858126
v 1.3517090 -0.2225211 0.1606320
vn 0.0000000 0.8090169 -0.5877854
vt 0.1138071 0.2858126
v 1.0517091 -0.3633044 0.0583470
vn -0.6437169 0.2364793 -0.7278091
vt 0.1498203 0.3067117
v 1.3517090 -0.3633044 0.0583470
vn 0.0000000 0.3090167 -0.9510566
vt 0.1138071 0.3067117
v 1.0517091 -0.5373222 0.0583470
vn -0.6437168 -0.2364797 -0.7278091
vt 0.1498203 0.3275434
v 1.3517090 -0.5373222 0.0583470
vn 0.0000000 -0.3090172 -0.9510565
vt 0.1138071 0.3275434
v 1.0517091 -0.6781055 0.1606312
vn -0.6437169 -0.6191115 -0.4498105
vt 0.1498203 0.3484080
v 1.3517090 -0.6781055 0.1606312
vn 0.0000000 -0.8090170 -0.5877853
vt 0.1138071 0.3484080
v 1.0517091 -0.6781055 0.1606312
vn -0.6437169 -0.6191115 -0.4498105
vt 0.2798821 0.6160279
v 1.0517091 -0.7318799 0.3261328
vn -0.6437168 -0.7652639 0.0000000
vt 0.2762585 0.6271808
v 1.0517091 -0.5373222 0.0583470
vn -0.6437168 -0.2364797 -0.7278091
vt 0.2893689 0.6091357
v 1.0517091 -0.5373222 0.0583470
vn -0.6437168 -0.2364797 -0.7278091
vt 0.2893689 0.6091357
v 1.0517091 -0.7318799 0.3261328
vn -0.6437168 -0.7652639 0.0000000
vt 0.2762585 0.6271808
v 1.0517091 -0.3633044 0.0583470
vn -0.6437169 0.2364793 -0.7278091
vt 0.3010957 0.6091357
v 1.0517091 -0.3633044 0.0583470
vn -0.6437169 0.2364793 -0.7278091
vt 0.3010957 0.6091357
v 1.0517091 -0.2225211 0.1606320
vn -0.6437166 0.6191115 -0.4498109
vt 0.3105817 0.6160279
v 1.0517091 -0.2225211 0.1606320
vn -0.6437166 0.6191115 -0.4498109
vt 0.3105817 0.6160279
v 1.0517091 -0.1687466 0.3261328
vn -0.6437171 0.7652636 0.0000000
vt 0.3142060 0.6271808
v 1.0517091 -0.2225211 0.4916336
vn -0.6437169 0.6191112 0.4498110
vt 0.3105817 0.6383333
v 1.0517091 -0.3633041 0.5939184
vn -0.6437169 0.2364801 0.7278089
vt 0.3010957 0.6452258
v 1.0517091 -0.5373220 0.5939187
vn -0.6437166 -0.2364792 0.7278094
vt 0.2893689 0.6452258
v 1.0517091 -0.5373220 0.5939187
vn -0.6437166 -0.2364792 0.7278094
vt 0.2893689 0.6452258
v 1.0517091 -0.6781055 0.4916334
vn -0.6437169 -0.6191116 0.4498105
vt 0.2798821 0.6383333
v 1.3517090 -0.7318799 0.3261328
vn 1.0000000 0.0000000 0.0000000
vt 0.8198704 0.0535710
v 1.3517090 -0.6781055 0.1606312
vn 1.0000000 0.0000000 0.0000000
vt 0.8263142 0.0337391
v 1.3517090 -0.6781055 0.4916334
vn 1.0000000 0.0000000 0.0000000
vt 0.8263142 0.0734022
v 1.3517090 -0.5373220 0.5939187
vn 1.0000000 0.0000000 0.0000000
vt 0.8431839 0.0856598
v 1.3517090 -0.3633044 0.5939184
vn 1.0000000 0.0000000 0.0000000
vt 0.8640366 0.0856598
v 1.3517090 -0.2225206 0.4916334
vn 1.0000000 0.0000000 0.0000000
vt 0.8809077 0.0734022
v 1.3517090 -0.1687466 0.3261328
vn 1.0000000 0.0000000 0.0000000
vt 0.8873510 0.0535710
v 1.3517090 -0.2225211 0.1606320
vn 1.0000000 0.0000000 0.0000000
vt 0.8809077 0.0337391
v 1.3517090 -0.3633044 0.0583470
vn 1.0000000 0.0000000 0.0000000
vt 0.8640366 0.0214821
v 1.3517090 -0.5373222 0.0583470
vn 1.0000000 0.0000000 0.0000000
vt 0.8431839 0.0214821
v 1.0517091 -0.5373220 0.5939187
vn -0.6437166 -0.2364792 0.7278094
vt 0.1498203 0.2858126
v 1.3517090 -0.5373220 0.5939187
vn 0.0000000 -0.3090163 0.9510568
vt 0.1138071 0.2858126
v 1.0517091 -0.2225211 0.1606320
vn -0.6437166 0.6191115 -0.4498109
vt 0.1498203 0.2858126
v 1.3517090 -0.2225211 0.1606320
vn 0.0000000 0.8090169 -0.5877854
vt 0.1138071 0.2858126
v 1.0517091 -0.6781055 0.1606312
vn -0.6437169 -0.6191115 -0.4498105
vt 0.1498203 0.3484080
v 1.3517090 -0.6781055 0.1606312
vn 0.0000000 -0.8090170 -0.5877853
vt 0.1138071 0.3484080

g group_31095528_140627891128944
f 1/1/1 2/2/2 3/3/3 
f 2/2/2 4/4/4 3/3/3 
f 3/3/3 4/4/4 5/5/5 
f 4/4/4 6/6/6 5/5/5 
f 48/48/48 49/49/49 7/7/7 
f 49/49/49 8/8/8 7/7/7 
f 9/9/9 10/10/10 11/11/11 
f 10/10/10 12/12/12 11/11/11 
f 11/11/11 12/12/12 13/13/13 
f 12/12/12 14/14/14 13/13/13 
f 13/13/13 14/14/14 15/15/15 
f 14/14/14 16/16/16 15/15/15 
f 50/50/50 51/51/51 17/17/17 
f 51/51/51 18/18/18 17/17/17 
f 17/17/17 18/18/18 19/19/19 
f 18/18/18 20/20/20 19/19/19 
f 19/19/19 20/20/20 21/21/21 
f 20/20/20 22/22/22 21/21/21 
f 52/52/52 53/53/53 1/1/1 
f 53/53/53 2/2/2 1/1/1 
f 23/23/23 24/24/24 25/25/25 
f 26/26/26 27/27/27 28/28/28 
f 29/29/29 27/27/27 30/30/30 
f 31/31/31 27/27/27 32/32/32 
f 32/32/32 27/27/27 33/33/33 
f 33/33/33 27/27/27 34/34/34 
f 34/34/34 27/27/27 35/35/35 
f 36/36/36 27/27/27 37/37/37 
f 38/38/38 39/39/39 40/40/40 
f 40/40/40 39/39/39 41/41/41 
f 41/41/41 39/39/39 42/42/42 
f 42/42/42 39/39/39 43/43/43 
f 43/43/43 39/39/39 44/44/44 
f 44/44/44 39/39/39 45/45/45 
f 45/45/45 39/39/39 46/46/46 
f 46/46/46 39/39/39 47/47/47 
