v 1.0517091 -1.6550610 0.3261328
vn -0.6437169 -0.7652637 0.0000000
vt 0.1498203 0.3275434
v 1.3517090 -1.6550610 0.3261328
vn 0.0000000 -1.0000000 0.0000000
vt 0.1138071 0.3275434
v 1.0517091 -1.6012861 0.4916334
vn -0.6437169 -0.6191117 0.4498104
vt 0.1498203 0.3067117
v 1.3517090 -1.6012861 0.4916334
vn 0.0000000 -0.8090172 0.5877849
vt 0.1138071 0.3067117
v 1.0517091 -1.4605030 0.5939187
vn -0.6437166 -0.2364792 0.7278094
vt 0.1498203 0.2858126
v 1.3517090 -1.4605030 0.5939187
vn 0.0000000 -0.3090163 0.9510568
vt 0.1138071 0.2858126
v 1.0517091 -1.2864770 0.5939184
vn -0.6437169 0.2364802 0.7278088
vt 0.1498203 0.3067117
v 1.3517090 -1.2864850 0.5939184
vn 0.0000000 0.3090169 0.9510565
vt 0.1138071 0.3067117
v 1.0517091 -1.2864770 0.5939184
vn -0.6437169 0.2364802 0.7278088
vt 0.1498203 0.3067117
v 1.0517091 -1.2864770 0.5939184
vn -0.6437169 0.2364802 0.7278088
vt 0.1498203 0.3484080
v 1.3517090 -1.2864850 0.5939184
vn 0.0000000 0.3090169 0.9510565
vt 0.1138071 0.3484080
v 1.0517091 -1.1457020 0.4916336
vn -0.6437170 0.6191110 0.4498112
vt 0.1498203 0.3275434
v 1.3517090 -1.1457011 0.4916334
vn 0.0000000 0.8090169 0.5877855
vt 0.1138071 0.3275434
v 1.0517091 -1.1457020 0.4916336
vn -0.6437170 0.6191110 0.4498112
vt 0.1498203 0.3275434
v 1.0517091 -1.0919271 0.3261328
vn -0.6437169 0.7652637 0.0000000
vt 0.1498203 0.3067111
v 1.3517090 -1.0919271 0.3261328
vn 0.0000000 1.0000000 0.0000000
vt 0.1138071 0.3067112
v 1.0517091 -1.1457020 0.1606320
vn -0.6437168 0.6191113 -0.4498111
vt 0.1498203 0.2858126
v 1.3517090 -1.1457020 0.1606320
vn 0.0000000 0.8090168 -0.5877855
vt 0.1138071 0.2858126
v 1.0517091 -1.2864850 0.0583470
vn -0.6437169 0.2364792 -0.7278091
vt 0.1498203 0.3067117
v 1.3517090 -1.2864850 0.0583470
vn 0.0000000 0.3090166 -0.9510567
vt 0.1138071 0.3067117
v 1.0517091 -1.4605030 0.0583470
vn -0.6437167 -0.2364798 -0.7278092
vt 0.1498203 0.3275434
v 1.3517090 -1.4605030 0.0583470
vn 0.0000000 -0.3090174 -0.9510564
vt 0.1138071 0.3275434
v 1.0517091 -1.6012861 0.1606312
vn -0.6437168 -0.6191118 -0.4498104
vt 0.1498203 0.3484080
v 1.3517090 -1.6012861 0.1606312
vn 0.0000000 -0.8090172 -0.5877849
vt 0.1138071 0.3484080
v 1.0517091 -1.6012861 0.1606312
vn -0.6437168 -0.6191118 -0.4498104
vt 0.2798821 0.6160279
v 1.0517091 -1.6550610 0.3261328
vn -0.6437169 -0.7652637 0.0000000
vt 0.2762585 0.6271808
v 1.0517091 -1.4605030 0.0583470
vn -0.6437167 -0.2364798 -0.7278092
vt 0.2893689 0.6091357
v 1.0517091 -1.4605030 0.0583470
vn -0.6437167 -0.2364798 -0.7278092
vt 0.2893689 0.6091357
v 1.0517091 -1.6550610 0.3261328
vn -0.6437169 -0.7652637 0.0000000
vt 0.2762585 0.6271808
v 1.0517091 -1.2864850 0.0583470
vn -0.6437169 0.2364792 -0.7278091
vt 0.3010957 0.6091357
v 1.0517091 -1.2864850 0.0583470
vn -0.6437169 0.2364792 -0.7278091
vt 0.3010957 0.6091357
v 1.0517091 -1.1457020 0.1606320
vn -0.6437168 0.6191113 -0.4498111
vt 0.3105817 0.6160279
v 1.0517091 -1.1457020 0.1606320
vn -0.6437168 0.6191113 -0.4498111
vt 0.3105817 0.6160279
v 1.0517091 -1.0919271 0.3261328
vn -0.6437169 0.7652637 0.0000000
vt 0.3142060 0.6271808
v 1.0517091 -1.1457020 0.4916336
vn -0.6437170 0.6191110 0.4498112
vt 0.3105817 0.6383333
v 1.0517091 -1.2864770 0.5939184
vn -0.6437169 0.2364802 0.7278088
vt 0.3010957 0.6452258
v 1.0517091 -1.4605030 0.5939187
vn -0.6437166 -0.2364792 0.7278094
vt 0.2893689 0.6452258
v 1.0517091 -1.4605030 0.5939187
vn -0.6437166 -0.2364792 0.7278094
vt 0.2893689 0.6452258
v 1.0517091 -1.6012861 0.4916334
vn -0.6437169 -0.6191117 0.4498104
vt 0.2798821 0.6383333
v 1.3517090 -1.6550610 0.3261328
vn 1.0000000 0.0000000 0.0000000
vt 0.8198704 0.0535710
v 1.3517090 -1.6012861 0.1606312
vn 1.0000000 0.0000000 0.0000000
vt 0.8263142 0.0337391
v 1.3517090 -1.6012861 0.4916334
vn 1.0000000 0.0000000 0.0000000
vt 0.8263142 0.0734022
v 1.3517090 -1.4605030 0.5939187
vn 1.0000000 0.0000000 0.0000000
vt 0.8431839 0.0856598
v 1.3517090 -1.2864850 0.5939184
vn 1.0000000 0.0000000 0.0000000
vt 0.8640366 0.0856598
v 1.3517090 -1.1457011 0.4916334
vn 1.0000000 0.0000000 0.0000000
vt 0.8809077 0.0734022
v 1.3517090 -1.0919271 0.3261328
vn 1.0000000 0.0000000 0.0000000
vt 0.8873510 0.0535710
v 1.3517090 -1.1457020 0.1606320
vn 1.0000000 0.0000000 0.0000000
vt 0.8809077 0.0337391
v 1.3517090 -1.2864850 0.0583470
vn 1.0000000 0.0000000 0.0000000
vt 0.8640366 0.0214821
v 1.3517090 -1.4605030 0.0583470
vn 1.0000000 0.0000000 0.0000000
vt 0.8431839 0.0214821
v 1.0517091 -1.4605030 0.5939187
vn -0.6437166 -0.2364792 0.7278094
vt 0.1498203 0.2858126
v 1.3517090 -1.4605030 0.5939187
vn 0.0000000 -0.3090163 0.9510568
vt 0.1138071 0.2858126
v 1.0517091 -1.1457020 0.1606320
vn -0.6437168 0.6191113 -0.4498111
vt 0.1498203 0.2858126
v 1.3517090 -1.1457020 0.1606320
vn 0.0000000 0.8090168 -0.5877855
vt 0.1138071 0.2858126
v 1.0517091 -1.6012861 0.1606312
vn -0.6437168 -0.6191118 -0.4498104
vt 0.1498203 0.3484080
v 1.3517090 -1.6012861 0.1606312
vn 0.0000000 -0.8090172 -0.5877849
vt 0.1138071 0.3484080

g group_31103288_140627890794288
f 1/1/1 2/2/2 3/3/3 
f 2/2/2 4/4/4 3/3/3 
f 3/3/3 4/4/4 5/5/5 
f 4/4/4 6/6/6 5/5/5 
f 50/50/50 51/51/51 7/7/7 
f 51/51/51 8/8/8 9/9/9 
f 10/10/10 11/11/11 12/12/12 
f 11/11/11 13/13/13 14/14/14 
f 14/14/14 13/13/13 15/15/15 
f 13/13/13 16/16/16 15/15/15 
f 15/15/15 16/16/16 17/17/17 
f 16/16/16 18/18/18 17/17/17 
f 52/52/52 53/53/53 19/19/19 
f 53/53/53 20/20/20 19/19/19 
f 19/19/19 20/20/20 21/21/21 
f 20/20/20 22/22/22 21/21/21 
f 21/21/21 22/22/22 23/23/23 
f 22/22/22 24/24/24 23/23/23 
f 54/54/54 55/55/55 1/1/1 
f 55/55/55 2/2/2 1/1/1 
f 25/25/25 26/26/26 27/27/27 
f 28/28/28 29/29/29 30/30/30 
f 31/31/31 29/29/29 32/32/32 
f 33/33/33 29/29/29 34/34/34 
f 34/34/34 29/29/29 35/35/35 
f 35/35/35 29/29/29 36/36/36 
f 36/36/36 29/29/29 37/37/37 
f 38/38/38 29/29/29 39/39/39 
f 40/40/40 41/41/41 42/42/42 
f 42/42/42 41/41/41 43/43/43 
f 43/43/43 41/41/41 44/44/44 
f 44/44/44 41/41/41 45/45/45 
f 45/45/45 41/41/41 46/46/46 
f 46/46/46 41/41/41 47/47/47 
f 47/47/47 41/41/41 48/48/48 
f 48/48/48 41/41/41 49/49/49 
