v 1.3524150 -1.9409330 0.8272409
vn -0.0707394 -0.9968022 -0.0371668
vt 0.1138071 0.3275434
v 1.3524150 -1.9027359 0.9447979
vn -0.0707392 -0.7845841 0.6159738
vt 0.1138071 0.3484080
v 1.0524150 -1.9218340 0.8860194
vn -0.6404266 -0.7304299 0.2373311
vt 0.1498203 0.3379757
v 1.0524150 -1.9218340 0.8860194
vn -0.6404266 -0.7304299 0.2373311
vt 0.1498203 0.3379757
v 1.3524150 -1.9027359 0.9447979
vn -0.0707392 -0.7845841 0.6159738
vt 0.1138071 0.3484080
v 1.0524150 -1.7409320 1.0174520
vn -0.6404266 0.0000000 0.7680194
vt 0.1498203 0.3171112
v 1.3524150 -1.9027359 0.9447979
vn -0.0707392 -0.7845841 0.6159738
vt 0.1138071 0.3484080
v 1.3524150 -1.8027360 1.0174520
vn -0.0707390 -0.3433747 0.9365307
vt 0.1138071 0.3275434
v 1.0524150 -1.7409320 1.0174520
vn -0.6404266 0.0000000 0.7680194
vt 0.1498203 0.3171112
v 1.3524150 -1.8027360 1.0174520
vn -0.0707390 -0.3433747 0.9365307
vt 0.1138071 0.3275434
v 1.3524150 -1.6791290 1.0174520
vn -0.0707392 0.3433759 0.9365303
vt 0.1138071 0.3066790
v 1.0524150 -1.7409320 1.0174520
vn -0.6404266 0.0000000 0.7680194
vt 0.1498203 0.3171112
v 1.0524150 -1.7409320 1.0174520
vn -0.6404266 0.0000000 0.7680194
vt 0.1498203 0.3171112
v 1.3524150 -1.6791290 1.0174520
vn -0.0707392 0.3433759 0.9365303
vt 0.1138071 0.3066790
v 1.0524150 -1.5600311 0.8860193
vn -0.6404265 0.7304301 0.2373310
vt 0.1498203 0.2962458
v 1.3524150 -1.6791290 1.0174520
vn -0.0707392 0.3433759 0.9365303
vt 0.1138071 0.3066790
v 1.3524150 -1.5791290 0.9447978
vn -0.0707391 0.7845847 0.6159731
vt 0.1138071 0.2858126
v 1.0524150 -1.5600311 0.8860193
vn -0.6404265 0.7304301 0.2373310
vt 0.1498203 0.2962458
v 1.3524150 -1.5791290 0.9447978
vn -0.0707391 0.7845847 0.6159731
vt 0.1138071 0.2858126
v 1.3524150 -1.5409330 0.8272409
vn -0.0707393 0.9968022 -0.0371656
vt 0.1138071 0.3066790
v 1.0524150 -1.5600311 0.8860193
vn -0.6404265 0.7304301 0.2373310
vt 0.1498203 0.2962458
v 1.0524150 -1.5600311 0.8860193
vn -0.6404265 0.7304301 0.2373310
vt 0.1498203 0.2962458
v 1.3524150 -1.5409330 0.8272409
vn -0.0707393 0.9968022 -0.0371656
vt 0.1138071 0.3066790
v 1.0524150 -1.6291291 0.6733566
vn -0.6404265 0.4514303 -0.6213410
vt 0.1498203 0.3379757
v 1.3524150 -1.5409330 0.8272409
vn -0.0707393 0.9968022 -0.0371656
vt 0.1138071 0.3066790
v 1.3524150 -1.5791290 0.7096837
vn -0.0707395 0.8282754 -0.5558379
vt 0.1138071 0.3275434
v 1.0524150 -1.6291291 0.6733566
vn -0.6404265 0.4514303 -0.6213410
vt 0.1498203 0.3379757
v 1.3524150 -1.5791290 0.7096837
vn -0.0707395 0.8282754 -0.5558379
vt 0.1138071 0.3275434
v 1.3524150 -1.6791290 0.6370295
vn -0.0707393 0.2726816 -0.9595003
vt 0.1138071 0.3484080
v 1.0524150 -1.6291291 0.6733566
vn -0.6404265 0.4514303 -0.6213410
vt 0.1498203 0.3379757
v 1.0524150 -1.6291291 0.6733566
vn -0.6404265 0.4514303 -0.6213410
vt 0.1498203 0.3066790
v 1.3524150 -1.6791290 0.6370295
vn -0.0707393 0.2726816 -0.9595003
vt 0.1138071 0.3066790
v 1.0524150 -1.8527360 0.6733567
vn -0.6404266 -0.4514307 -0.6213406
vt 0.1498203 0.2962458
v 1.3524150 -1.6791290 0.6370295
vn -0.0707393 0.2726816 -0.9595003
vt 0.1138071 0.3066790
v 1.3524150 -1.8027360 0.6370295
vn -0.0707394 -0.2726830 -0.9594998
vt 0.1138071 0.2858126
v 1.0524150 -1.8527360 0.6733567
vn -0.6404266 -0.4514307 -0.6213406
vt 0.1498203 0.2962458
v 1.3524150 -1.8027360 0.6370295
vn -0.0707394 -0.2726830 -0.9594998
vt 0.1138071 0.2858126
v 1.3524150 -1.9027359 0.7096838
vn -0.0707392 -0.8282756 -0.5558378
vt 0.1138071 0.3066790
v 1.0524150 -1.8527360 0.6733567
vn -0.6404266 -0.4514307 -0.6213406
vt 0.1498203 0.2962458
v 1.0524150 -1.8527360 0.6733567
vn -0.6404266 -0.4514307 -0.6213406
vt 0.1498203 0.2962458
v 1.3524150 -1.9027359 0.7096838
vn -0.0707392 -0.8282756 -0.5558378
vt 0.1138071 0.3066790
v 1.0524150 -1.9218340 0.8860194
vn -0.6404266 -0.7304299 0.2373311
vt 0.1498203 0.3379757
v 1.3524150 -1.9027359 0.7096838
vn -0.0707392 -0.8282756 -0.5558378
vt 0.1138071 0.3066790
v 1.3524150 -1.9409330 0.8272409
vn -0.0707394 -0.9968022 -0.0371668
vt 0.1138071 0.3275434
v 1.0524150 -1.9218340 0.8860194
vn -0.6404266 -0.7304299 0.2373311
vt 0.1498203 0.3379757
v 1.0524150 -1.8527360 0.6733567
vn -0.6404266 -0.4514307 -0.6213406
vt 0.0251922 0.0161046
v 1.0524150 -1.9218340 0.8860194
vn -0.6404266 -0.7304299 0.2373311
vt 0.0188663 0.0355744
v 1.0524150 -1.6291291 0.6733566
vn -0.6404265 0.4514303 -0.6213410
vt 0.0456626 0.0161046
v 1.0524150 -1.5600311 0.8860193
vn -0.6404265 0.7304301 0.2373310
vt 0.0519890 0.0355744
v 1.0524150 -1.7409320 1.0174520
vn -0.6404266 0.0000000 0.7680194
vt 0.0354272 0.0476069
v 1.3524150 -1.9409330 0.8272409
vn 1.0000000 0.0000000 0.0000000
vt 0.6494303 0.5112073
v 1.3524150 -1.9027359 0.7096838
vn 1.0000000 0.0000000 0.0000000
vt 0.6540079 0.4971202
v 1.3524150 -1.9027359 0.9447979
vn 1.0000000 0.0000000 0.0000000
vt 0.6540079 0.5252940
v 1.3524150 -1.8027360 1.0174520
vn 1.0000000 0.0000000 0.0000000
vt 0.6659896 0.5339998
v 1.3524150 -1.6791290 1.0174520
vn 1.0000000 0.0000000 0.0000000
vt 0.6808020 0.5339998
v 1.3524150 -1.5791290 0.9447978
vn 1.0000000 0.0000000 0.0000000
vt 0.6927840 0.5252940
v 1.3524150 -1.5409330 0.8272409
vn 1.0000000 0.0000000 0.0000000
vt 0.6973615 0.5112073
v 1.3524150 -1.5791290 0.7096837
vn 1.0000000 0.0000000 0.0000000
vt 0.6927840 0.4971202
v 1.3524150 -1.6791290 0.6370295
vn 1.0000000 0.0000000 0.0000000
vt 0.6808020 0.4884141
v 1.3524150 -1.8027360 0.6370295
vn 1.0000000 0.0000000 0.0000000
vt 0.6659896 0.4884141

g group_65254352_140627909286032
f 1/1/1 2/2/2 3/3/3 
f 4/4/4 5/5/5 6/6/6 
f 7/7/7 8/8/8 9/9/9 
f 10/10/10 11/11/11 12/12/12 
f 13/13/13 14/14/14 15/15/15 
f 16/16/16 17/17/17 18/18/18 
f 19/19/19 20/20/20 21/21/21 
f 22/22/22 23/23/23 24/24/24 
f 25/25/25 26/26/26 27/27/27 
f 28/28/28 29/29/29 30/30/30 
f 31/31/31 32/32/32 33/33/33 
f 34/34/34 35/35/35 36/36/36 
f 37/37/37 38/38/38 39/39/39 
f 40/40/40 41/41/41 42/42/42 
f 43/43/43 44/44/44 45/45/45 
f 46/46/46 47/47/47 48/48/48 
f 48/48/48 47/47/47 49/49/49 
f 49/49/49 47/47/47 50/50/50 
f 51/51/51 52/52/52 53/53/53 
f 53/53/53 52/52/52 54/54/54 
f 54/54/54 52/52/52 55/55/55 
f 55/55/55 52/52/52 56/56/56 
f 56/56/56 52/52/52 57/57/57 
f 57/57/57 52/52/52 58/58/58 
f 58/58/58 52/52/52 59/59/59 
f 59/59/59 52/52/52 60/60/60 
