v 1.0515800 2.6651170 0.7241650
vn -0.6437165 -0.7652641 0.0000000
vt 0.1497847 0.3066867
v 1.3515800 2.6651170 0.7241650
vn 0.0000000 -1.0000000 0.0000000
vt 0.1139643 0.3066867
v 1.0515800 2.7188921 0.8896658
vn -0.6437171 -0.6191106 0.4498115
vt 0.1497847 0.3273721
v 1.3515800 2.7188921 0.8896658
vn 0.0000000 -0.8090163 0.5877863
vt 0.1139643 0.3273721
v 1.0515800 2.8596749 0.9919507
vn -0.6437170 -0.2364790 0.7278092
vt 0.1497848 0.3480575
v 1.3515810 2.8596749 0.9919507
vn 0.0000000 -0.3090166 0.9510567
vt 0.1139643 0.3480575
v 1.0515800 3.0336931 0.9919507
vn -0.6437172 0.2364789 0.7278091
vt 0.1497847 0.3273721
v 1.3515800 3.0336931 0.9919510
vn 0.0000000 0.3090163 0.9510568
vt 0.1139643 0.3273721
v 1.0515800 3.0336931 0.9919507
vn -0.6437172 0.2364789 0.7278091
vt 0.1497848 0.2860009
v 1.3515800 3.0336931 0.9919510
vn 0.0000000 0.3090163 0.9510568
vt 0.1139644 0.2860009
v 1.0515800 3.1744759 0.8896658
vn -0.6437166 0.6191114 0.4498111
vt 0.1497847 0.3066867
v 1.3515810 3.1744759 0.8896658
vn 0.0000000 0.8090174 0.5877848
vt 0.1139643 0.3066867
v 1.0515800 3.2282510 0.7241650
vn -0.6437162 0.7652644 0.0000000
vt 0.1497847 0.3273721
v 1.3515800 3.2282500 0.7241650
vn 0.0000000 1.0000000 0.0000000
vt 0.1139643 0.3273721
v 1.0515800 3.1744759 0.5586643
vn -0.6437168 0.6191117 -0.4498106
vt 0.1497848 0.3480575
v 1.3515810 3.1744759 0.5586643
vn 0.0000000 0.8090173 -0.5877849
vt 0.1139643 0.3480575
v 1.0515800 3.0336931 0.4563791
vn -0.6437165 0.2364796 -0.7278095
vt 0.1497847 0.3273721
v 1.3515800 3.0336931 0.4563794
vn 0.0000000 0.3090163 -0.9510568
vt 0.1139643 0.3273721
v 1.0515800 2.8596749 0.4563791
vn -0.6437163 -0.2364798 -0.7278095
vt 0.1497847 0.3066867
v 1.3515800 2.8596749 0.4563794
vn 0.0000000 -0.3090173 -0.9510565
vt 0.1139643 0.3066867
v 1.0515800 2.7188921 0.5586643
vn -0.6437167 -0.6191114 -0.4498110
vt 0.1497848 0.2860009
v 1.3515800 2.7188921 0.5586646
vn 0.0000000 -0.8090169 -0.5877854
vt 0.1139644 0.2860009
v 1.0515800 2.7188921 0.5586643
vn -0.6437167 -0.6191114 -0.4498110
vt 0.7783694 0.2425476
v 1.0515800 2.6651170 0.7241650
vn -0.6437165 -0.7652641 0.0000000
vt 0.7749993 0.2529190
v 1.0515800 2.8596749 0.4563791
vn -0.6437163 -0.2364798 -0.7278095
vt 0.7871916 0.2361371
v 1.0515800 2.8596749 0.4563791
vn -0.6437163 -0.2364798 -0.7278095
vt 0.7871916 0.2361371
v 1.0515800 2.6651170 0.7241650
vn -0.6437165 -0.7652641 0.0000000
vt 0.7749993 0.2529190
v 1.0515800 3.0336931 0.4563791
vn -0.6437165 0.2364796 -0.7278095
vt 0.7980967 0.2361371
v 1.0515800 3.0336931 0.4563791
vn -0.6437165 0.2364796 -0.7278095
vt 0.7980967 0.2361371
v 1.0515800 3.1744759 0.5586643
vn -0.6437168 0.6191117 -0.4498106
vt 0.8069198 0.2425476
v 1.0515800 3.1744759 0.5586643
vn -0.6437168 0.6191117 -0.4498106
vt 0.8069198 0.2425476
v 1.0515800 3.2282510 0.7241650
vn -0.6437162 0.7652644 0.0000000
vt 0.8102890 0.2529190
v 1.0515800 3.1744759 0.8896658
vn -0.6437166 0.6191114 0.4498111
vt 0.8069198 0.2632907
v 1.0515800 3.0336931 0.9919507
vn -0.6437172 0.2364789 0.7278091
vt 0.7980967 0.2697005
v 1.0515800 2.8596749 0.9919507
vn -0.6437170 -0.2364790 0.7278092
vt 0.7871916 0.2697005
v 1.0515800 2.8596749 0.9919507
vn -0.6437170 -0.2364790 0.7278092
vt 0.7871916 0.2697005
v 1.0515800 2.7188921 0.8896658
vn -0.6437171 -0.6191106 0.4498115
vt 0.7783694 0.2632907
v 1.3515800 2.6651170 0.7241650
vn 1.0000000 0.0000000 0.0000000
vt 0.0782870 0.0385914
v 1.3515800 2.7188921 0.5586646
vn 1.0000000 0.0000000 0.0000000
vt 0.0846973 0.0188631
v 1.3515800 2.7188921 0.8896658
vn 1.0000000 0.0000000 0.0000000
vt 0.0846973 0.0583209
v 1.3515810 2.8596749 0.9919507
vn 1.0000000 0.0000000 0.0000000
vt 0.1014790 0.0705143
v 1.3515800 3.0336931 0.9919510
vn 1.0000000 0.0000000 0.0000000
vt 0.1222229 0.0705143
v 1.3515810 3.1744759 0.8896658
vn 1.0000000 0.0000000 0.0000000
vt 0.1390051 0.0583209
v 1.3515800 3.2282500 0.7241650
vn 1.0000000 0.0000000 0.0000000
vt 0.1454154 0.0385914
v 1.3515810 3.1744759 0.5586643
vn 1.0000000 0.0000000 0.0000000
vt 0.1390051 0.0188631
v 1.3515800 3.0336931 0.4563794
vn 1.0000000 0.0000000 0.0000000
vt 0.1222229 0.0066695
v 1.3515800 2.8596749 0.4563794
vn 1.0000000 0.0000000 0.0000000
vt 0.1014790 0.0066695
v 1.3806050 2.8856790 0.7043433
vn 0.9452354 -0.3104153 -0.1008588
vt 0.8471859 0.0515569
v 1.3806050 2.9466829 0.6600195
vn 0.9452344 0.0000000 -0.3263924
vt 0.8536516 0.0468597
v 1.3806050 2.9089799 0.7760593
vn 0.9452344 -0.1918510 0.2640553
vt 0.8496556 0.0591577
v 1.3806050 2.9089799 0.7760593
vn 0.9452344 -0.1918510 0.2640553
vt 0.8496556 0.0591577
v 1.3806050 2.9843869 0.7760593
vn 0.9452347 0.1918509 0.2640544
vt 0.8576468 0.0591577
v 1.3806050 2.9843869 0.7760593
vn 0.9452347 0.1918509 0.2640544
vt 0.8576468 0.0591577
v 1.3806040 3.0076880 0.7043423
vn 0.9452341 0.3104159 -0.1008692
vt 0.8601170 0.0515569
v 1.3485720 2.8326271 0.7241650
vn 0.8598940 -0.5098606 0.0249931
vt 0.8415634 0.0536575
v 1.3806050 2.8856790 0.7043433
vn 0.9452354 -0.3104153 -0.1008588
vt 0.8471859 0.0515569
v 1.3485709 2.8544099 0.7912061
vn 0.8598899 -0.4271824 0.2794718
vt 0.8438729 0.0607630
v 1.3806050 2.8856790 0.7043433
vn 0.9452354 -0.3104153 -0.1008588
vt 0.8471859 0.0515569
v 1.3806050 2.9089799 0.7760593
vn 0.9452344 -0.1918510 0.2640553
vt 0.8496556 0.0591577
v 1.3485709 2.8544099 0.7912061
vn 0.8598899 -0.4271824 0.2794718
vt 0.8438729 0.0607630
v 1.3485709 2.8544099 0.7912061
vn 0.8598899 -0.4271824 0.2794718
vt 0.8438729 0.0607630
v 1.3806050 2.9089799 0.7760593
vn 0.9452344 -0.1918510 0.2640553
vt 0.8496556 0.0591577
v 1.3485720 2.9114380 0.8326398
vn 0.8598906 -0.1337885 0.4926346
vt 0.8499153 0.0651535
v 1.3485720 2.9114380 0.8326398
vn 0.8598906 -0.1337885 0.4926346
vt 0.8499153 0.0651535
v 1.3485720 2.9819300 0.8326398
vn 0.8598902 0.1337894 0.4926352
vt 0.8573866 0.0651535
v 1.3485720 2.9819300 0.8326398
vn 0.8598902 0.1337894 0.4926352
vt 0.8573866 0.0651535
v 1.3806050 2.9843869 0.7760593
vn 0.9452347 0.1918509 0.2640544
vt 0.8576468 0.0591577
v 1.3485709 3.0389581 0.7912061
vn 0.8598869 0.4271874 0.2794737
vt 0.8634304 0.0607630
v 1.3485709 3.0389581 0.7912061
vn 0.8598869 0.4271874 0.2794737
vt 0.8634304 0.0607630
v 1.3806050 2.9843869 0.7760593
vn 0.9452347 0.1918509 0.2640544
vt 0.8576468 0.0591577
v 1.3485709 3.0607409 0.7241650
vn 0.8598914 0.5098652 0.0249839
vt 0.8657382 0.0536575
v 1.3806050 2.9843869 0.7760593
vn 0.9452347 0.1918509 0.2640544
vt 0.8576468 0.0591577
v 1.3806040 3.0076880 0.7043423
vn 0.9452341 0.3104159 -0.1008692
vt 0.8601170 0.0515569
v 1.3485709 3.0607409 0.7241650
vn 0.8598914 0.5098652 0.0249839
vt 0.8657382 0.0536575
v 1.3485709 3.0607409 0.7241650
vn 0.8598914 0.5098652 0.0249839
vt 0.8657382 0.0536575
v 1.3806040 3.0076880 0.7043423
vn 0.9452341 0.3104159 -0.1008692
vt 0.8601170 0.0515569
v 1.3485709 3.0389550 0.6571219
vn 0.8598878 0.3977977 -0.3199219
vt 0.8634304 0.0465530
v 1.3485709 3.0389550 0.6571219
vn 0.8598878 0.3977977 -0.3199219
vt 0.8634304 0.0465530
v 1.3806040 3.0076880 0.7043423
vn 0.9452341 0.3104159 -0.1008692
vt 0.8601170 0.0515569
v 1.3485709 2.9819260 0.6156881
vn 0.8598901 0.1813198 -0.4771920
vt 0.8573856 0.0421612
v 1.3806040 3.0076880 0.7043423
vn 0.9452341 0.3104159 -0.1008692
vt 0.8601170 0.0515569
v 1.3806050 2.9466829 0.6600195
vn 0.9452344 0.0000000 -0.3263924
vt 0.8536516 0.0468597
v 1.3485709 2.9819260 0.6156881
vn 0.8598901 0.1813198 -0.4771920
vt 0.8573856 0.0421612
v 1.3485709 2.9819260 0.6156881
vn 0.8598901 0.1813198 -0.4771920
vt 0.8573856 0.0421612
v 1.3485709 2.9114380 0.6156903
vn 0.8598846 -0.1813356 -0.4771958
vt 0.8499153 0.0421612
v 1.3485709 2.9114380 0.6156903
vn 0.8598846 -0.1813356 -0.4771958
vt 0.8499153 0.0421612
v 1.3806050 2.9466829 0.6600195
vn 0.9452344 0.0000000 -0.3263924
vt 0.8536516 0.0468597
v 1.3485709 2.8544099 0.6571240
vn 0.8598880 -0.3978032 -0.3199148
vt 0.8438729 0.0465530
v 1.3806050 2.8856790 0.7043433
vn 0.9452354 -0.3104153 -0.1008588
vt 0.8471859 0.0515569
v 1.3485709 2.8544099 0.6571240
vn 0.8598880 -0.3978032 -0.3199148
vt 0.8438729 0.0465530
v 1.3806050 2.8856790 0.7043433
vn 0.9452354 -0.3104153 -0.1008588
vt 0.8471859 0.0515569
v 1.3485720 2.8326271 0.7241650
vn 0.8598940 -0.5098606 0.0249931
vt 0.8415634 0.0536575
v 1.0515800 2.8596749 0.9919507
vn -0.6437170 -0.2364790 0.7278092
vt 0.1497848 0.3480575
v 1.3515810 2.8596749 0.9919507
vn 0.0000000 -0.3090166 0.9510567
vt 0.1139643 0.3480575
v 1.0515800 3.1744759 0.5586643
vn -0.6437168 0.6191117 -0.4498106
vt 0.1497848 0.3480575
v 1.3515810 3.1744759 0.5586643
vn 0.0000000 0.8090173 -0.5877849
vt 0.1139643 0.3480575
v 1.0515800 2.7188921 0.5586643
vn -0.6437167 -0.6191114 -0.4498110
vt 0.1497848 0.2860009
v 1.3515800 2.7188921 0.5586646
vn 0.0000000 -0.8090169 -0.5877854
vt 0.1139644 0.2860009

g group_65254184_140627909286368
f 1/1/1 2/2/2 3/3/3 
f 2/2/2 4/4/4 3/3/3 
f 3/3/3 4/4/4 5/5/5 
f 4/4/4 6/6/6 5/5/5 
f 93/93/93 94/94/94 7/7/7 
f 94/94/94 8/8/8 7/7/7 
f 9/9/9 10/10/10 11/11/11 
f 10/10/10 12/12/12 11/11/11 
f 11/11/11 12/12/12 13/13/13 
f 12/12/12 14/14/14 13/13/13 
f 13/13/13 14/14/14 15/15/15 
f 14/14/14 16/16/16 15/15/15 
f 95/95/95 96/96/96 17/17/17 
f 96/96/96 18/18/18 17/17/17 
f 17/17/17 18/18/18 19/19/19 
f 18/18/18 20/20/20 19/19/19 
f 19/19/19 20/20/20 21/21/21 
f 20/20/20 22/22/22 21/21/21 
f 97/97/97 98/98/98 1/1/1 
f 98/98/98 2/2/2 1/1/1 
f 23/23/23 24/24/24 25/25/25 
f 26/26/26 27/27/27 28/28/28 
f 29/29/29 27/27/27 30/30/30 
f 31/31/31 27/27/27 32/32/32 
f 32/32/32 27/27/27 33/33/33 
f 33/33/33 27/27/27 34/34/34 
f 34/34/34 27/27/27 35/35/35 
f 36/36/36 27/27/27 37/37/37 
f 38/38/38 39/39/39 40/40/40 
f 40/40/40 39/39/39 41/41/41 
f 41/41/41 39/39/39 42/42/42 
f 42/42/42 39/39/39 43/43/43 
f 43/43/43 39/39/39 44/44/44 
f 44/44/44 39/39/39 45/45/45 
f 45/45/45 39/39/39 46/46/46 
f 46/46/46 39/39/39 47/47/47 
f 48/48/48 49/49/49 50/50/50 
f 51/51/51 49/49/49 52/52/52 
f 53/53/53 49/49/49 54/54/54 
f 55/55/55 56/56/56 57/57/57 
f 58/58/58 59/59/59 60/60/60 
f 61/61/61 62/62/62 63/63/63 
f 64/64/64 51/51/51 65/65/65 
f 51/51/51 52/52/52 65/65/65 
f 66/66/66 67/67/67 68/68/68 
f 69/69/69 70/70/70 71/71/71 
f 72/72/72 73/73/73 74/74/74 
f 75/75/75 76/76/76 77/77/77 
f 78/78/78 79/79/79 80/80/80 
f 81/81/81 82/82/82 83/83/83 
f 84/84/84 49/49/49 85/85/85 
f 86/86/86 87/87/87 88/88/88 
f 87/87/87 89/89/89 88/88/88 
f 90/90/90 91/91/91 92/92/92 
