v 0.8420751 -0.6095531 1.5399460
vn -1.0000000 0.0000000 0.0000000
vt 0.0000000 1.0000000
v 0.8420751 -0.6084318 1.5380729
vn -1.0000000 0.0000000 0.0000000
vt 0.0000000 0.0000000
v 0.8420751 -0.6108642 1.5380670
vn -1.0000000 0.0000000 0.0000000
vt 1.0000000 1.0000000
v -0.9263369 -1.2673360 1.5452950
vn -1.0000000 0.0000000 0.0000000
vt 0.0000000 1.0000000
v -0.9263369 -1.2598799 1.5327240
vn -1.0000000 0.0000000 0.0000000
vt 0.0000000 0.0000000
v -0.9263369 -1.2760350 1.5327880
vn -1.0000000 0.0000000 0.0000000
vt 1.0000000 1.0000000

g group_65254520_140627909286960
f 1/1/1 2/2/2 3/3/3 
f 4/4/4 5/5/5 6/6/6 
