v -1.2516510 -1.6531121 0.6366125
vn 0.2152489 -0.9408124 0.2618014
vt 0.0704575 0.5490670
v -1.4514509 -1.6103669 0.7354553
vn 0.1801516 -0.7164490 0.6739779
vt 0.0536318 0.5604985
v -1.4514509 -1.6958580 0.5377698
vn 0.1357979 -0.9794569 0.1490742
vt 0.0536318 0.5376355
v -1.2516510 -1.6531121 0.6366125
vn 0.2152489 -0.9408124 0.2618014
vt 0.0704575 0.4690452
v -1.2516510 -1.3305240 0.8763193
vn 0.2152463 -0.2436836 0.9456677
vt 0.0704575 0.5033399
v -1.4514509 -1.6103669 0.7354553
vn 0.1801516 -0.7164490 0.6739779
vt 0.0536318 0.4690452
v -1.4514509 -1.4374959 0.8639137
vn 0.1357872 -0.3606329 0.9227707
vt 0.0536318 0.4919083
v -1.4514509 -1.2235510 0.8887248
vn 0.1801549 0.2254520 0.9574527
vt 0.0536318 0.5147715
v -1.2516510 -0.9616370 0.7168028
vn 0.2152448 0.6971354 0.6838655
vt 0.0704575 0.5490674
v -1.4514509 -1.0258640 0.8032396
vn 0.1357845 0.6188363 0.7736952
vt 0.0536318 0.5376357
v -1.4514509 -0.8974100 0.6303661
vn 0.1801580 0.9419024 0.2834835
vt 0.0536318 0.5604987
v -1.2516510 -0.9616370 0.7168028
vn 0.2152448 0.6971354 0.6838655
vt 0.0704575 0.4690453
v -1.2516510 -0.9153385 0.3175790
vn 0.2152482 0.9408123 -0.2618024
vt 0.0704575 0.5033399
v -1.4514509 -0.8974100 0.6303661
vn 0.1801580 0.9419024 0.2834835
vt 0.0536317 0.4690454
v -1.4514509 -0.8725932 0.4164212
vn 0.1357967 0.9794568 -0.1490764
vt 0.0536318 0.4919083
v -1.4514509 -0.9580840 0.2187367
vn 0.1801523 0.7164500 -0.6739768
vt 0.0536318 0.5147715
v -1.2516510 -1.2379270 0.0778720
vn 0.2152466 0.2436837 -0.9456676
vt 0.0704575 0.5490675
v -1.4514509 -1.1309540 0.0902772
vn 0.1357885 0.3606330 -0.9227705
vt 0.0536318 0.5376359
v -1.4514509 -1.3448991 0.0654668
vn 0.1801555 -0.2254521 -0.9574525
vt 0.0536318 0.5604991
v -1.2516510 -1.2379270 0.0778720
vn 0.2152466 0.2436837 -0.9456676
vt 0.0704575 0.4690450
v -1.2516510 -1.6068140 0.2373888
vn 0.2152453 -0.6971359 -0.6838648
vt 0.0704575 0.5033396
v -1.4514509 -1.3448991 0.0654668
vn 0.1801555 -0.2254521 -0.9574525
vt 0.0536318 0.4690450
v -1.4514509 -1.5425870 0.1509514
vn 0.1357865 -0.6188369 -0.7736943
vt 0.0536318 0.4919080
v -1.4514509 -1.6710401 0.3238260
vn 0.1801584 -0.9419023 -0.2834835
vt 0.0536318 0.5147712
v -1.2516510 -1.6531121 0.6366125
vn 1.0000000 0.0000000 0.0000000
vt 0.1984044 0.5528804
v -1.2516510 -1.6068140 0.2373888
vn 1.0000000 0.0000000 0.0000000
vt 0.2067219 0.5218383
v -1.2516510 -0.9153385 0.3175790
vn 1.0000000 0.0000000 0.0000000
vt 0.2604883 0.5362450
v -1.4514509 -1.6710401 0.3238260
vn -1.0000000 0.0000000 0.0000000
vt 0.1420632 0.5217161
v -1.4514509 -1.6958580 0.5377698
vn -1.0000000 0.0000000 0.0000000
vt 0.1285237 0.5080141
v -1.4514509 -0.9580840 0.2187367
vn -1.0000000 0.0000000 0.0000000
vt 0.1980763 0.4898244
v -1.4514509 -0.8725932 0.4164212
vn -1.0000000 0.0000000 0.0000000
vt 0.1932030 0.4711880
v -1.2516510 -0.9616370 0.7168028
vn 1.0000000 0.0000000 0.0000000
vt 0.2521704 0.5672872
v -1.4514509 -0.8974100 0.6303661
vn -1.0000000 0.0000000 0.0000000
vt 0.1796631 0.4574849
v -1.4514509 -1.6103669 0.7354553
vn -1.0000000 0.0000000 0.0000000
vt 0.1236500 0.4893768
v -1.2516510 -1.2379270 0.0778720
vn 1.0000000 0.0000000 0.0000000
vt 0.2377636 0.5135208
v -1.4514509 -1.5425870 0.1509514
vn -1.0000000 0.0000000 0.0000000
vt 0.1606393 0.5268136
v -1.4514509 -1.1309540 0.0902772
vn -1.0000000 0.0000000 0.0000000
vt 0.1929792 0.5084007
v -1.2516510 -1.3305240 0.8763193
vn 1.0000000 0.0000000 0.0000000
vt 0.2211283 0.5756051
v -1.4514509 -1.0258640 0.8032396
vn -1.0000000 0.0000000 0.0000000
vt 0.1610870 0.4523878
v -1.4514509 -1.4374959 0.8639137
vn -1.0000000 0.0000000 0.0000000
vt 0.1287473 0.4708010
v -1.4514509 -1.3448991 0.0654668
vn -1.0000000 0.0000000 0.0000000
vt 0.1792763 0.5219403
v -1.4514509 -1.2235510 0.8887248
vn -1.0000000 0.0000000 0.0000000
vt 0.1424503 0.4572616
v -1.2605970 -1.2847461 0.4782292
vn 0.9992645 -0.0376651 -0.0072052
vt 0.0606029 0.6347926
v -1.5913590 -1.3412240 0.5303677
vn 0.2263129 -0.7024143 0.6748307
vt 0.0729376 0.6377837
v -1.5912679 -1.3642250 0.4783917
vn 0.2336966 -0.9722915 -0.0059404
vt 0.0729344 0.6416869
v -1.5913590 -1.2302361 0.5343477
vn 0.2301718 0.6825812 0.6936164
vt 0.0729376 0.6292786
v -1.5912679 -1.2842250 0.5583926
vn 0.2355334 -0.0186844 0.9716867
vt 0.0729344 0.6333578
v -1.2605970 -1.2847461 0.4782292
vn 0.9992645 -0.0376651 -0.0072052
vt 0.0606027 0.6320130
v -1.5913590 -1.2298570 0.4227136
vn 0.2297162 0.6844804 -0.6918939
vt 0.0729376 0.6292512
v -1.5912679 -1.2042249 0.4783917
vn 0.2365939 0.9716070 0.0017946
vt 0.0729343 0.6249944
v -1.5913590 -1.3397470 0.4248370
vn 0.2257617 -0.6942327 -0.6834272
vt 0.0729377 0.6376315
v -1.5912679 -1.2842250 0.3983922
vn 0.2346624 -0.0117630 -0.9720058
vt 0.0729343 0.6333718
v -1.5912679 -1.2842250 0.5583926
vn -0.9999939 -0.0001270 0.0035062
vt 0.1541310 0.5667764
v -1.5913590 -1.2302361 0.5343477
vn -0.9999996 0.0000000 0.0009525
vt 0.1583953 0.5632220
v -1.5913590 -1.3412240 0.5303677
vn -0.9999999 0.0000000 0.0004524
vt 0.1541310 0.5727422
v -1.5912679 -1.2042249 0.4783917
vn -0.9999998 0.0005767 -0.0002345
vt 0.1641899 0.5633485
v -1.5913590 -1.2298570 0.4227136
vn -0.9999999 0.0000000 -0.0004924
vt 0.1678208 0.5678167
v -1.5912679 -1.3642250 0.4783917
vn -0.9999998 -0.0005778 0.0002443
vt 0.1575589 0.5768352
v -1.5913590 -1.3397470 0.4248370
vn -0.9999996 0.0000000 -0.0009371
vt 0.1630876 0.5769914
v -1.5912679 -1.2842250 0.3983922
vn -0.9999936 0.0000000 -0.0035904
vt 0.1676177 0.5734074
v -1.2605970 -1.2847461 0.4782292
vn 0.9992645 -0.0376651 -0.0072052
vt 0.0606029 0.6347926
v -1.5912679 -1.3642250 0.4783917
vn 0.2336966 -0.9722915 -0.0059404
vt 0.0729344 0.6416869
v -1.2605970 -1.2847461 0.4782292
vn 0.9992645 -0.0376651 -0.0072052
vt 0.0606027 0.6320130
v -1.5912679 -1.2042249 0.4783917
vn 0.2365939 0.9716070 0.0017946
vt 0.0729343 0.6249944

g group_78_140627858843104
f 1/1/1 2/2/2 3/3/3 
f 4/4/4 5/5/5 6/6/6 
f 6/6/6 5/5/5 7/7/7 
f 5/5/5 8/8/8 7/7/7 
f 5/5/5 9/9/9 8/8/8 
f 8/8/8 9/9/9 10/10/10 
f 9/9/9 11/11/11 10/10/10 
f 12/12/12 13/13/13 14/14/14 
f 14/14/14 13/13/13 15/15/15 
f 13/13/13 16/16/16 15/15/15 
f 13/13/13 17/17/17 16/16/16 
f 16/16/16 17/17/17 18/18/18 
f 17/17/17 19/19/19 18/18/18 
f 20/20/20 21/21/21 22/22/22 
f 22/22/22 21/21/21 23/23/23 
f 21/21/21 24/24/24 23/23/23 
f 21/21/21 1/1/1 24/24/24 
f 24/24/24 1/1/1 3/3/3 
f 25/25/25 26/26/26 27/27/27 
f 28/28/28 29/29/29 30/30/30 
f 30/30/30 29/29/29 31/31/31 
f 25/25/25 27/27/27 32/32/32 
f 31/31/31 29/29/29 33/33/33 
f 33/33/33 29/29/29 34/34/34 
f 27/27/27 26/26/26 35/35/35 
f 28/28/28 30/30/30 36/36/36 
f 36/36/36 30/30/30 37/37/37 
f 25/25/25 32/32/32 38/38/38 
f 33/33/33 34/34/34 39/39/39 
f 39/39/39 34/34/34 40/40/40 
f 37/37/37 41/41/41 36/36/36 
f 40/40/40 42/42/42 39/39/39 
f 43/43/43 44/44/44 45/45/45 
f 43/43/43 46/46/46 47/47/47 
f 48/48/48 49/49/49 50/50/50 
f 48/48/48 51/51/51 52/52/52 
f 46/46/46 61/61/61 64/64/64 
f 51/51/51 63/63/63 62/62/62 
f 44/44/44 43/43/43 47/47/47 
f 49/49/49 48/48/48 52/52/52 
f 53/53/53 54/54/54 55/55/55 
f 54/54/54 56/56/56 55/55/55 
f 56/56/56 57/57/57 55/55/55 
f 55/55/55 57/57/57 58/58/58 
f 58/58/58 57/57/57 59/59/59 
f 57/57/57 60/60/60 59/59/59 
