v -1.2516510 0.4581077 0.7381642
vn 0.2152493 -0.8220074 0.5272303
vt 0.0704575 0.5490670
v -1.4514509 0.5280638 0.8200375
vn 0.1801521 -0.4862200 0.8550645
vt 0.0536318 0.5604985
v -1.4514509 0.3881516 0.6562912
vn 0.1357984 -0.8921325 0.4308809
vt 0.0536318 0.5376355
v -1.2516510 0.4581077 0.7381642
vn 0.2152493 -0.8220074 0.5272303
vt 0.0704575 0.4690452
v -1.2516510 0.8369785 0.8722519
vn 0.2152463 0.0455871 0.9754952
vt 0.0704575 0.5033399
v -1.4514509 0.5280638 0.8200375
vn 0.1801521 -0.4862200 0.8550645
vt 0.0536318 0.4690452
v -1.4514509 0.7310959 0.8918959
vn 0.1357865 -0.0729190 0.9880511
vt 0.0536318 0.4919083
v -1.4514509 0.9428610 0.8526077
vn 0.1801545 0.4973923 0.8486137
vt 0.0536318 0.5147715
v -1.2516510 1.1425380 0.6111836
vn 0.2152447 0.8676007 0.4482619
vt 0.0704575 0.5490674
v -1.4514509 1.1066110 0.7127007
vn 0.1357844 0.8192250 0.5571653
vt 0.0536318 0.5376357
v -1.4514509 1.1784641 0.5096667
vn 0.1801578 0.9836167 -0.0064434
vt 0.0536318 0.5604987
v -1.2516510 1.1425380 0.6111836
vn 0.2152447 0.8676007 0.4482619
vt 0.0704575 0.4690453
v -1.2516510 1.0692260 0.2160272
vn 0.2152478 0.8220071 -0.5272313
vt 0.0704575 0.5033399
v -1.4514509 1.1784641 0.5096667
vn 0.1801578 0.9836167 -0.0064434
vt 0.0536317 0.4690454
v -1.4514509 1.1391820 0.2978999
vn 0.1357966 0.8921319 -0.4308827
vt 0.0536318 0.4919083
v -1.4514509 0.9992700 0.1341545
vn 0.1801521 0.4862214 -0.8550638
vt 0.0536318 0.5147715
v -1.2516510 0.6903550 0.0819392
vn 0.2152461 -0.0455871 -0.9754953
vt 0.0704575 0.5490675
v -1.4514509 0.7962375 0.0622949
vn 0.1357880 0.0729192 -0.9880508
vt 0.0536318 0.5376359
v -1.4514509 0.5844727 0.1015839
vn 0.1801549 -0.4973930 -0.8486133
vt 0.0536318 0.5604991
v -1.2516510 0.6903550 0.0819392
vn 0.2152461 -0.0455871 -0.9754953
vt 0.0704575 0.4690450
v -1.2516510 0.3847961 0.3430078
vn 0.2152450 -0.8676009 -0.4482615
vt 0.0704575 0.5033396
v -1.4514509 0.5844727 0.1015839
vn 0.1801549 -0.4973930 -0.8486133
vt 0.0536318 0.4690450
v -1.4514509 0.4207226 0.2414903
vn 0.1357864 -0.8192251 -0.5571645
vt 0.0536318 0.4919080
v -1.4514509 0.3488696 0.4445253
vn 0.1801585 -0.9836165 0.0064430
vt 0.0536318 0.5147712
v -1.2516510 0.4581077 0.7381642
vn 1.0000000 0.0000000 0.0000000
vt 0.1984044 0.5528804
v -1.2516510 0.3847961 0.3430078
vn 1.0000000 0.0000000 0.0000000
vt 0.2067219 0.5218383
v -1.2516510 1.0692260 0.2160272
vn 1.0000000 0.0000000 0.0000000
vt 0.2604883 0.5362450
v -1.4514509 0.3488696 0.4445253
vn -1.0000000 0.0000000 0.0000000
vt 0.1420632 0.5217161
v -1.4514509 0.3881516 0.6562912
vn -1.0000000 0.0000000 0.0000000
vt 0.1285237 0.5080141
v -1.4514509 0.9992700 0.1341545
vn -1.0000000 0.0000000 0.0000000
vt 0.1980763 0.4898244
v -1.4514509 1.1391820 0.2978999
vn -1.0000000 0.0000000 0.0000000
vt 0.1932030 0.4711880
v -1.2516510 1.1425380 0.6111836
vn 1.0000000 0.0000000 0.0000000
vt 0.2521704 0.5672872
v -1.4514509 1.1784641 0.5096667
vn -1.0000000 0.0000000 0.0000000
vt 0.1796631 0.4574849
v -1.4514509 0.5280638 0.8200375
vn -1.0000000 0.0000000 0.0000000
vt 0.1236500 0.4893768
v -1.2516510 0.6903550 0.0819392
vn 1.0000000 0.0000000 0.0000000
vt 0.2377636 0.5135208
v -1.4514509 0.4207226 0.2414903
vn -1.0000000 0.0000000 0.0000000
vt 0.1606393 0.5268136
v -1.4514509 0.7962375 0.0622949
vn -1.0000000 0.0000000 0.0000000
vt 0.1929792 0.5084007
v -1.2516510 0.8369785 0.8722519
vn 1.0000000 0.0000000 0.0000000
vt 0.2211283 0.5756051
v -1.4514509 1.1066110 0.7127007
vn -1.0000000 0.0000000 0.0000000
vt 0.1610870 0.4523878
v -1.4514509 0.7310959 0.8918959
vn -1.0000000 0.0000000 0.0000000
vt 0.1287473 0.4708010
v -1.4514509 0.5844727 0.1015839
vn -1.0000000 0.0000000 0.0000000
vt 0.1792763 0.5219403
v -1.4514509 0.9428610 0.8526077
vn -1.0000000 0.0000000 0.0000000
vt 0.1424503 0.4572616
v -1.2605970 0.7631464 0.4782292
vn 0.9992644 -0.0376668 -0.0072092
vt 0.0606029 0.6347926
v -1.5913590 0.7066685 0.5303677
vn 0.2263129 -0.7024142 0.6748310
vt 0.0729376 0.6377837
v -1.5912679 0.6836668 0.4783917
vn 0.2336965 -0.9722915 -0.0059423
vt 0.0729344 0.6416869
v -1.5913590 0.8176558 0.5343477
vn 0.2301714 0.6825809 0.6936170
vt 0.0729376 0.6292786
v -1.5912679 0.7636668 0.5583926
vn 0.2355334 -0.0186857 0.9716866
vt 0.0729344 0.6333578
v -1.2605970 0.7631464 0.4782292
vn 0.9992644 -0.0376668 -0.0072092
vt 0.0606027 0.6320130
v -1.5913590 0.8180349 0.4227136
vn 0.2297155 0.6844786 -0.6918958
vt 0.0729376 0.6292512
v -1.5912679 0.8436668 0.4783917
vn 0.2365936 0.9716071 0.0017926
vt 0.0729343 0.6249944
v -1.5913590 0.7081454 0.4248370
vn 0.2257614 -0.6942313 -0.6834286
vt 0.0729377 0.6376315
v -1.5912679 0.7636669 0.3983922
vn 0.2346628 -0.0117643 -0.9720057
vt 0.0729343 0.6333718
v -1.5912679 0.7636668 0.5583926
vn -0.9999939 -0.0001270 0.0035062
vt 0.1541310 0.5667764
v -1.5913590 0.8176558 0.5343477
vn -0.9999996 0.0000000 0.0009525
vt 0.1583953 0.5632220
v -1.5913590 0.7066685 0.5303677
vn -0.9999999 0.0000000 0.0004524
vt 0.1541310 0.5727422
v -1.5912679 0.8436668 0.4783917
vn -0.9999998 0.0005767 -0.0002345
vt 0.1641899 0.5633485
v -1.5913590 0.8180349 0.4227136
vn -0.9999999 0.0000000 -0.0004924
vt 0.1678208 0.5678167
v -1.5912679 0.6836668 0.4783917
vn -0.9999998 -0.0005778 0.0002443
vt 0.1575589 0.5768352
v -1.5913590 0.7081454 0.4248370
vn -0.9999996 0.0000000 -0.0009371
vt 0.1630876 0.5769914
v -1.5912679 0.7636669 0.3983922
vn -0.9999936 0.0000000 -0.0035904
vt 0.1676177 0.5734074
v -1.2605970 0.7631464 0.4782292
vn 0.9992644 -0.0376668 -0.0072092
vt 0.0606029 0.6347926
v -1.5912679 0.6836668 0.4783917
vn 0.2336965 -0.9722915 -0.0059423
vt 0.0729344 0.6416869
v -1.2605970 0.7631464 0.4782292
vn 0.9992644 -0.0376668 -0.0072092
vt 0.0606027 0.6320130
v -1.5912679 0.8436668 0.4783917
vn 0.2365936 0.9716071 0.0017926
vt 0.0729343 0.6249944

g group_74_140627858733744
f 1/1/1 2/2/2 3/3/3 
f 4/4/4 5/5/5 6/6/6 
f 6/6/6 5/5/5 7/7/7 
f 5/5/5 8/8/8 7/7/7 
f 5/5/5 9/9/9 8/8/8 
f 8/8/8 9/9/9 10/10/10 
f 9/9/9 11/11/11 10/10/10 
f 12/12/12 13/13/13 14/14/14 
f 14/14/14 13/13/13 15/15/15 
f 13/13/13 16/16/16 15/15/15 
f 13/13/13 17/17/17 16/16/16 
f 16/16/16 17/17/17 18/18/18 
f 17/17/17 19/19/19 18/18/18 
f 20/20/20 21/21/21 22/22/22 
f 22/22/22 21/21/21 23/23/23 
f 21/21/21 24/24/24 23/23/23 
f 21/21/21 1/1/1 24/24/24 
f 24/24/24 1/1/1 3/3/3 
f 25/25/25 26/26/26 27/27/27 
f 28/28/28 29/29/29 30/30/30 
f 30/30/30 29/29/29 31/31/31 
f 25/25/25 27/27/27 32/32/32 
f 31/31/31 29/29/29 33/33/33 
f 33/33/33 29/29/29 34/34/34 
f 27/27/27 26/26/26 35/35/35 
f 28/28/28 30/30/30 36/36/36 
f 36/36/36 30/30/30 37/37/37 
f 25/25/25 32/32/32 38/38/38 
f 33/33/33 34/34/34 39/39/39 
f 39/39/39 34/34/34 40/40/40 
f 37/37/37 41/41/41 36/36/36 
f 40/40/40 42/42/42 39/39/39 
f 43/43/43 44/44/44 45/45/45 
f 43/43/43 46/46/46 47/47/47 
f 48/48/48 49/49/49 50/50/50 
f 48/48/48 51/51/51 52/52/52 
f 46/46/46 61/61/61 64/64/64 
f 51/51/51 63/63/63 62/62/62 
f 44/44/44 43/43/43 47/47/47 
f 49/49/49 48/48/48 52/52/52 
f 53/53/53 54/54/54 55/55/55 
f 54/54/54 56/56/56 55/55/55 
f 56/56/56 57/57/57 55/55/55 
f 55/55/55 57/57/57 58/58/58 
f 58/58/58 57/57/57 59/59/59 
f 57/57/57 60/60/60 59/59/59 
