v 1.1215430 -2.0605910 0.7885182
vn 0.0000000 -0.7577561 0.6525379
vt 0.0528728 0.4997752
v 1.2202340 -2.0605910 0.7885182
vn 0.0000000 -0.5525755 0.8334629
vt 0.0594527 0.4997752
v 1.1215430 -1.7593150 0.8916953
vn 0.0000000 -0.0743882 0.9972294
vt 0.0528728 0.4698412
v 1.2202340 -1.7593150 0.8916953
vn 0.0000000 0.1986163 0.9800774
vt 0.0594527 0.4698412
v 1.1215430 -1.7593150 0.8916953
vn 0.0000000 -0.0743882 0.9972294
vt 0.0528728 0.5596436
v 1.2202340 -1.7593150 0.8916953
vn 0.0000000 0.1986163 0.9800774
vt 0.0594527 0.5596436
v 1.1215430 -1.4733250 0.7516230
vn 0.0000000 0.6525416 0.7577529
vt 0.0528728 0.5297093
v 1.2202340 -1.4733250 0.7516230
vn 0.0000000 0.8334607 0.5525787
vt 0.0594527 0.5297093
v 1.1215430 -1.3701450 0.4503508
vn 0.0000000 0.9972286 0.0743985
vt 0.0528728 0.4997752
v 1.2202340 -1.3701450 0.4503508
vn 0.0000000 0.9800794 -0.1986063
vt 0.0594527 0.4997752
v 1.1215430 -1.5102160 0.1643568
vn 0.0000000 0.7577553 -0.6525388
vt 0.0528728 0.4698412
v 1.2202340 -1.5102160 0.1643568
vn 0.0000000 0.5525748 -0.8334634
vt 0.0594527 0.4698411
v 1.1215430 -1.5102160 0.1643568
vn 0.0000000 0.7577553 -0.6525388
vt 0.0528728 0.5596436
v 1.2202340 -1.5102160 0.1643568
vn 0.0000000 0.5525748 -0.8334634
vt 0.0594527 0.5596434
v 1.1215430 -1.8114901 0.0611802
vn 0.0000000 0.0743878 -0.9972294
vt 0.0528728 0.5297093
v 1.2202340 -1.8114901 0.0611802
vn 0.0000000 -0.1986163 -0.9800773
vt 0.0594527 0.5297093
v 1.1215430 -2.0974810 0.2012524
vn 0.0000000 -0.6525411 -0.7577533
vt 0.0528728 0.4997752
v 1.2202340 -2.0974810 0.2012524
vn 0.0000000 -0.8334610 -0.5525783
vt 0.0594527 0.4997752
v 1.1215430 -2.0974810 0.2012524
vn 0.0000000 -0.6525411 -0.7577533
vt 0.0528728 0.5596436
v 1.2202340 -2.0974810 0.2012524
vn 0.0000000 -0.8334610 -0.5525783
vt 0.0594527 0.5596436
v 1.1215430 -2.2006609 0.5025247
vn 0.0000000 -0.9972286 -0.0743984
vt 0.0528728 0.5297093
v 1.2202340 -2.2006609 0.5025247
vn 0.0000000 -0.9800794 0.1986060
vt 0.0594527 0.5297093
v 1.1215430 -2.0605910 0.7885182
vn -1.0000000 0.0000000 0.0000000
vt 0.1946945 0.5446105
v 1.1215430 -1.5102160 0.1643568
vn -1.0000000 0.0000000 0.0000000
vt 0.2640902 0.5446105
v 1.1215430 -2.2006609 0.5025247
vn -1.0000000 0.0000000 0.0000000
vt 0.2048574 0.5200751
v 1.1215430 -1.8114901 0.0611802
vn -1.0000000 0.0000000 0.0000000
vt 0.2539272 0.5200761
v 1.2202340 -2.2006609 0.5025247
vn 1.0000000 0.0000000 0.0000000
vt 0.2539269 0.5200753
v 1.2202340 -1.8114901 0.0611802
vn 1.0000000 0.0000000 0.0000000
vt 0.2048574 0.5200753
v 1.2202340 -2.0605910 0.7885182
vn 1.0000000 0.0000000 0.0000000
vt 0.2640897 0.5446103
v 1.2202340 -1.5102160 0.1643568
vn 1.0000000 0.0000000 0.0000000
vt 0.1946946 0.5446103
v 1.1215430 -1.7593150 0.8916953
vn -1.0000000 0.0000000 0.0000000
vt 0.2048574 0.5691449
v 1.1215430 -1.3701450 0.4503508
vn -1.0000000 0.0000000 0.0000000
vt 0.2539272 0.5691449
v 1.2202340 -1.3701450 0.4503508
vn 1.0000000 0.0000000 0.0000000
vt 0.2048575 0.5691454
v 1.2202340 -1.7593150 0.8916953
vn 1.0000000 0.0000000 0.0000000
vt 0.2539270 0.5691454
v 1.1215430 -2.0974810 0.2012524
vn -1.0000000 0.0000000 0.0000000
vt 0.2293919 0.5099130
v 1.2202340 -2.0974810 0.2012524
vn 1.0000000 0.0000000 0.0000000
vt 0.2293919 0.5099131
v 1.1215430 -1.4733250 0.7516230
vn -1.0000000 0.0000000 0.0000000
vt 0.2293919 0.5793077
v 1.2202340 -1.4733250 0.7516230
vn 1.0000000 0.0000000 0.0000000
vt 0.2293919 0.5793077
v 1.5008661 -1.4353060 0.6728629
vn -0.4236833 0.7275180 0.5396389
vt 0.0777957 0.3895156
v 1.5919150 -1.3831090 0.5786689
vn -0.3603453 0.9188513 0.1608214
vt 0.0684879 0.3995394
v 1.5008661 -1.4423850 0.2710257
vn -0.4236816 0.8310970 -0.3602384
vt 0.0777957 0.4195861
v 1.5919150 -1.3869090 0.3633231
vn -0.2724219 0.9193561 -0.2838497
vt 0.0684879 0.4195861
v 1.5919150 -1.3869090 0.3633231
vn -0.2724219 0.9193561 -0.2838497
vt 0.0684879 0.3393987
v 1.5919150 -1.4978610 0.1787282
vn -0.3603495 0.5987036 -0.7153336
vt 0.0684879 0.3594453
v 1.5008661 -1.4423850 0.2710257
vn -0.4236816 0.8310970 -0.3602384
vt 0.0777957 0.3494220
v 1.5008661 -1.7939250 0.0762372
vn -0.4236867 0.1035747 -0.8998677
vt 0.0777957 0.3895158
v 1.5919150 -1.6862520 0.0743407
vn -0.2724424 0.2138578 -0.9381045
vt 0.0684879 0.3794920
v 1.5919150 -1.9015980 0.0781338
vn -0.3603402 -0.3201550 -0.8761597
vt 0.0684879 0.3995396
v 1.5008661 -2.1383860 0.2832855
vn -0.4236847 -0.7275174 -0.5396385
vt 0.0777957 0.4195863
v 1.5919150 -2.0861900 0.1890911
vn -0.2724268 -0.7054905 -0.6542681
vt 0.0684879 0.4195863
v 1.5919150 -2.0861900 0.1890911
vn -0.2724268 -0.7054905 -0.6542681
vt 0.0684879 0.3393989
v 1.5919150 -2.1905830 0.3774800
vn -0.3603438 -0.9188522 -0.1608201
vt 0.0684879 0.3594454
v 1.5008661 -2.1383860 0.2832855
vn -0.4236847 -0.7275174 -0.5396385
vt 0.0777957 0.3494221
v 1.5008661 -2.1313069 0.6851228
vn -0.4236813 -0.8310978 0.3602370
vt 0.0777957 0.3895158
v 1.5919150 -2.1867840 0.5928249
vn -0.2724199 -0.9193572 0.2838480
vt 0.0684879 0.3794920
v 1.5919150 -2.0758309 0.7774207
vn -0.3603493 -0.5987042 0.7153333
vt 0.0684879 0.3995397
v 1.5008661 -1.7797670 0.8799113
vn -0.4236873 -0.1035750 0.8998674
vt 0.0777957 0.4195864
v 1.5919150 -1.8874400 0.8818076
vn -0.2724403 -0.2138585 0.9381049
vt 0.0684879 0.4195864
v 1.5919150 -1.8874400 0.8818076
vn -0.2724403 -0.2138585 0.9381049
vt 0.0684879 0.3393986
v 1.5919150 -1.6720940 0.8780151
vn -0.3603387 0.3201560 0.8761599
vt 0.0684879 0.3594451
v 1.5008661 -1.7797670 0.8799113
vn -0.4236873 -0.1035750 0.8998674
vt 0.0777957 0.3494219
v 1.5919150 -1.4875020 0.7670567
vn -0.2724225 0.7054910 0.6542694
vt 0.0684879 0.3794917
v 1.5008661 -2.1383860 0.2832855
vn -1.0000000 0.0000000 0.0000000
vt 0.1970556 0.5796033
v 1.5008661 -2.1313069 0.6851228
vn -1.0000000 0.0000000 0.0000000
vt 0.1873734 0.5434699
v 1.5008661 -1.4353060 0.6728629
vn -1.0000000 0.0000000 0.0000000
vt 0.1247891 0.5602396
v 1.5919150 -1.4875020 0.7670567
vn 1.0000000 0.0000000 0.0000000
vt 0.1865835 0.5409168
v 1.5919150 -2.1867840 0.5928249
vn 1.0000000 0.0000000 0.0000000
vt 0.1229716 0.5622000
v 1.5919150 -1.3831090 0.5786689
vn 1.0000000 0.0000000 0.0000000
vt 0.1976483 0.5576327
v 1.5919150 -2.1905830 0.3774800
vn 1.0000000 0.0000000 0.0000000
vt 0.1241959 0.5822097
v 1.5008661 -1.4423850 0.2710257
vn -1.0000000 0.0000000 0.0000000
vt 0.1344707 0.5963731
v 1.5919150 -2.0861900 0.1890911
vn 1.0000000 0.0000000 0.0000000
vt 0.1352606 0.5989267
v 1.5919150 -1.3869090 0.3633231
vn 1.0000000 0.0000000 0.0000000
vt 0.1988725 0.5776424
v 1.5008661 -1.7797670 0.8799113
vn -1.0000000 0.0000000 0.0000000
vt 0.1512399 0.5337882
v 1.5919150 -1.6720940 0.8780151
vn 1.0000000 0.0000000 0.0000000
vt 0.1686433 0.5319718
v 1.5919150 -2.0758309 0.7774207
vn 1.0000000 0.0000000 0.0000000
vt 0.1319166 0.5442598
v 1.5008661 -1.7939250 0.0762372
vn -1.0000000 0.0000000 0.0000000
vt 0.1706037 0.6060553
v 1.5919150 -1.9015980 0.0781338
vn 1.0000000 0.0000000 0.0000000
vt 0.1532008 0.6078717
v 1.5919150 -1.4978610 0.1787282
vn 1.0000000 0.0000000 0.0000000
vt 0.1899275 0.5955837
v 1.5919150 -1.8874400 0.8818076
vn 1.0000000 0.0000000 0.0000000
vt 0.1486336 0.5331950
v 1.5919150 -1.6862520 0.0743407
vn 1.0000000 0.0000000 0.0000000
vt 0.1732106 0.6066474

g group_89_140627859033856
f 1/1/1 2/2/2 3/3/3 
f 2/2/2 4/4/4 3/3/3 
f 5/5/5 6/6/6 7/7/7 
f 6/6/6 8/8/8 7/7/7 
f 7/7/7 8/8/8 9/9/9 
f 8/8/8 10/10/10 9/9/9 
f 9/9/9 10/10/10 11/11/11 
f 10/10/10 12/12/12 11/11/11 
f 13/13/13 14/14/14 15/15/15 
f 14/14/14 16/16/16 15/15/15 
f 15/15/15 16/16/16 17/17/17 
f 16/16/16 18/18/18 17/17/17 
f 19/19/19 20/20/20 21/21/21 
f 20/20/20 22/22/22 21/21/21 
f 21/21/21 22/22/22 1/1/1 
f 22/22/22 2/2/2 1/1/1 
f 23/23/23 24/24/24 25/25/25 
f 24/24/24 26/26/26 25/25/25 
f 27/27/27 28/28/28 29/29/29 
f 28/28/28 30/30/30 29/29/29 
f 23/23/23 31/31/31 24/24/24 
f 31/31/31 32/32/32 24/24/24 
f 30/30/30 33/33/33 29/29/29 
f 33/33/33 34/34/34 29/29/29 
f 25/25/25 26/26/26 35/35/35 
f 28/28/28 27/27/27 36/36/36 
f 32/32/32 31/31/31 37/37/37 
f 34/34/34 33/33/33 38/38/38 
f 39/39/39 40/40/40 41/41/41 
f 40/40/40 42/42/42 41/41/41 
f 43/43/43 44/44/44 45/45/45 
f 45/45/45 44/44/44 46/46/46 
f 44/44/44 47/47/47 46/46/46 
f 47/47/47 48/48/48 46/46/46 
f 46/46/46 48/48/48 49/49/49 
f 48/48/48 50/50/50 49/49/49 
f 51/51/51 52/52/52 53/53/53 
f 53/53/53 52/52/52 54/54/54 
f 52/52/52 55/55/55 54/54/54 
f 55/55/55 56/56/56 54/54/54 
f 54/54/54 56/56/56 57/57/57 
f 56/56/56 58/58/58 57/57/57 
f 59/59/59 60/60/60 61/61/61 
f 61/61/61 60/60/60 39/39/39 
f 60/60/60 62/62/62 39/39/39 
f 62/62/62 40/40/40 39/39/39 
f 63/63/63 64/64/64 65/65/65 
f 66/66/66 67/67/67 68/68/68 
f 67/67/67 69/69/69 68/68/68 
f 65/65/65 70/70/70 63/63/63 
f 69/69/69 71/71/71 68/68/68 
f 71/71/71 72/72/72 68/68/68 
f 64/64/64 73/73/73 65/65/65 
f 66/66/66 74/74/74 67/67/67 
f 74/74/74 75/75/75 67/67/67 
f 70/70/70 76/76/76 63/63/63 
f 71/71/71 77/77/77 72/72/72 
f 77/77/77 78/78/78 72/72/72 
f 75/75/75 74/74/74 79/79/79 
f 78/78/78 77/77/77 80/80/80 
