v 1.2516530 -0.6274243 0.5918359
vn -0.2152492 -0.9651836 0.1486220
vt 0.0704575 0.5490670
v 1.4514520 -0.6581720 0.4886292
vn -0.1357979 -0.9902160 0.0321142
vt 0.0536318 0.5376355
v 1.4514520 -0.5966766 0.6950429
vn -0.1801520 -0.7911755 0.5844542
vt 0.0536318 0.5604985
v 1.2516530 -0.6274243 0.5918359
vn -0.2152492 -0.9651836 0.1486220
vt 0.0704575 0.4690452
v 1.4514520 -0.5966766 0.6950429
vn -0.1801520 -0.7911755 0.5844542
vt 0.0536318 0.4690452
v 1.2516530 -0.3354707 0.8680347
vn -0.2152462 -0.3538852 0.9101837
vt 0.0704575 0.5033399
v 1.4514520 -0.4402234 0.8430566
vn -0.1357864 -0.4673027 0.8736076
vt 0.0536318 0.4919083
v 1.4514520 -0.2307181 0.8930125
vn -0.1801546 0.1105584 0.9774053
vt 0.0536318 0.5147715
v 1.2516530 0.0497017 0.7532948
vn -0.2152448 0.6113049 0.7615616
vt 0.0704575 0.5490674
v 1.4514520 -0.0243033 0.8315233
vn -0.1357846 0.5229251 0.8414938
vt 0.0536318 0.5376357
v 1.4514520 0.1237067 0.6750664
vn -0.1801578 0.9017349 0.3929597
vt 0.0536318 0.5604987
v 1.2516530 0.0497017 0.7532948
vn -0.2152448 0.6113049 0.7615616
vt 0.0704575 0.4690453
v 1.4514520 0.1237067 0.6750664
vn -0.1801578 0.9017349 0.3929597
vt 0.0536317 0.4690454
v 1.2516530 0.1429206 0.3623557
vn -0.2152480 0.9651837 -0.1486230
vt 0.0704575 0.5033399
v 1.4514520 0.1736682 0.4655618
vn -0.1357967 0.9902161 -0.0321158
vt 0.0536318 0.4919083
v 1.4514520 0.1121730 0.2591493
vn -0.1801523 0.7911764 -0.5844529
vt 0.0536318 0.5147715
v 1.2516530 -0.1490327 0.0861566
vn -0.2152464 0.3538854 -0.9101835
vt 0.0704575 0.5490675
v 1.4514520 -0.0442802 0.1111343
vn -0.1357882 0.4673031 -0.8736071
vt 0.0536318 0.5376359
v 1.4514520 -0.2537853 0.0611790
vn -0.1801553 -0.1105591 -0.9774051
vt 0.0536318 0.5604991
v 1.2516530 -0.1490327 0.0861566
vn -0.2152464 0.3538854 -0.9101835
vt 0.0704575 0.4690450
v 1.4514520 -0.2537853 0.0611790
vn -0.1801553 -0.1105591 -0.9774051
vt 0.0536318 0.4690450
v 1.2516530 -0.5342051 0.2008969
vn -0.2152453 -0.6113052 -0.7615612
vt 0.0704575 0.5033396
v 1.4514520 -0.4602000 0.1226678
vn -0.1357864 -0.5229256 -0.8414932
vt 0.0536318 0.4919080
v 1.4514520 -0.6082101 0.2791258
vn -0.1801584 -0.9017346 -0.3929601
vt 0.0536318 0.5147712
v 1.2516530 -0.6274243 0.5918359
vn -1.0000000 0.0000000 0.0000000
vt 0.1984044 0.5528804
v 1.2516530 0.1429206 0.3623557
vn -1.0000000 0.0000000 0.0000000
vt 0.2604883 0.5362450
v 1.2516530 -0.5342051 0.2008969
vn -1.0000000 0.0000000 0.0000000
vt 0.2067219 0.5218383
v 1.4514520 -0.6082101 0.2791258
vn 1.0000000 0.0000000 0.0000000
vt 0.1420632 0.5217161
v 1.4514520 0.1121730 0.2591493
vn 1.0000000 0.0000000 0.0000000
vt 0.1980763 0.4898244
v 1.4514520 -0.6581720 0.4886292
vn 1.0000000 0.0000000 0.0000000
vt 0.1285237 0.5080141
v 1.4514520 0.1736682 0.4655618
vn 1.0000000 0.0000000 0.0000000
vt 0.1932030 0.4711880
v 1.2516530 0.0497017 0.7532948
vn -1.0000000 0.0000000 0.0000000
vt 0.2521704 0.5672872
v 1.4514520 0.1237067 0.6750664
vn 1.0000000 0.0000000 0.0000000
vt 0.1796631 0.4574849
v 1.4514520 -0.5966766 0.6950429
vn 1.0000000 0.0000000 0.0000000
vt 0.1236500 0.4893768
v 1.2516530 -0.1490327 0.0861566
vn -1.0000000 0.0000000 0.0000000
vt 0.2377636 0.5135208
v 1.4514520 -0.4602000 0.1226678
vn 1.0000000 0.0000000 0.0000000
vt 0.1606393 0.5268136
v 1.4514520 -0.0442802 0.1111343
vn 1.0000000 0.0000000 0.0000000
vt 0.1929792 0.5084007
v 1.2516530 -0.3354707 0.8680347
vn -1.0000000 0.0000000 0.0000000
vt 0.2211283 0.5756051
v 1.4514520 -0.0243033 0.8315233
vn 1.0000000 0.0000000 0.0000000
vt 0.1610870 0.4523878
v 1.4514520 -0.4402234 0.8430566
vn 1.0000000 0.0000000 0.0000000
vt 0.1287473 0.4708010
v 1.4514520 -0.2537853 0.0611790
vn 1.0000000 0.0000000 0.0000000
vt 0.1792763 0.5219403
v 1.4514520 -0.2307181 0.8930125
vn 1.0000000 0.0000000 0.0000000
vt 0.1424503 0.4572616
v 1.2605990 -0.2427721 0.4782292
vn -0.9992644 -0.0376675 -0.0072075
vt 0.0606029 0.6347926
v 1.5912690 -0.3222518 0.4783917
vn -0.2336964 -0.9722915 -0.0059416
vt 0.0729344 0.6416869
v 1.5913600 -0.2992501 0.5303677
vn -0.2263131 -0.7024143 0.6748307
vt 0.0729376 0.6377837
v 1.5912690 -0.2422517 0.5583926
vn -0.2355336 -0.0186858 0.9716866
vt 0.0729344 0.6333578
v 1.5913600 -0.1882628 0.5343477
vn -0.2301713 0.6825809 0.6936170
vt 0.0729376 0.6292786
v 1.2605990 -0.2427721 0.4782292
vn -0.9992644 -0.0376675 -0.0072075
vt 0.0606027 0.6320130
v 1.5912690 -0.1622518 0.4783917
vn -0.2365935 0.9716071 0.0017939
vt 0.0729343 0.6249944
v 1.5913600 -0.1878837 0.4227136
vn -0.2297154 0.6844791 -0.6918954
vt 0.0729376 0.6292512
v 1.5912690 -0.2422517 0.3983922
vn -0.2346626 -0.0117648 -0.9720057
vt 0.0729343 0.6333718
v 1.5913600 -0.2977732 0.4248370
vn -0.2257617 -0.6942319 -0.6834279
vt 0.0729377 0.6376315
v 1.5912690 -0.2422517 0.5583926
vn 0.9999939 -0.0001270 0.0035062
vt 0.1541310 0.5667764
v 1.5913600 -0.2992501 0.5303677
vn 0.9999999 0.0000000 0.0004524
vt 0.1541310 0.5727422
v 1.5913600 -0.1882628 0.5343477
vn 0.9999996 0.0000000 0.0009525
vt 0.1583953 0.5632220
v 1.5912690 -0.1622518 0.4783917
vn 0.9999998 0.0005757 -0.0002345
vt 0.1641899 0.5633485
v 1.5913600 -0.1878837 0.4227136
vn 0.9999999 0.0000000 -0.0004924
vt 0.1678208 0.5678167
v 1.5912690 -0.3222518 0.4783917
vn 0.9999998 -0.0005770 0.0002443
vt 0.1575589 0.5768352
v 1.5913600 -0.2977732 0.4248370
vn 0.9999996 0.0000000 -0.0009371
vt 0.1630876 0.5769914
v 1.5912690 -0.2422517 0.3983922
vn 0.9999936 0.0000000 -0.0035904
vt 0.1676177 0.5734074
v 1.2605990 -0.2427721 0.4782292
vn -0.9992644 -0.0376675 -0.0072075
vt 0.0606029 0.6347926
v 1.5912690 -0.3222518 0.4783917
vn -0.2336964 -0.9722915 -0.0059416
vt 0.0729344 0.6416869
v 1.2605990 -0.2427721 0.4782292
vn -0.9992644 -0.0376675 -0.0072075
vt 0.0606027 0.6320130
v 1.5912690 -0.1622518 0.4783917
vn -0.2365935 0.9716071 0.0017939
vt 0.0729343 0.6249944

g group_86_140627858995248
f 1/1/1 2/2/2 3/3/3 
f 4/4/4 5/5/5 6/6/6 
f 5/5/5 7/7/7 6/6/6 
f 6/6/6 7/7/7 8/8/8 
f 6/6/6 8/8/8 9/9/9 
f 8/8/8 10/10/10 9/9/9 
f 9/9/9 10/10/10 11/11/11 
f 12/12/12 13/13/13 14/14/14 
f 13/13/13 15/15/15 14/14/14 
f 14/14/14 15/15/15 16/16/16 
f 14/14/14 16/16/16 17/17/17 
f 16/16/16 18/18/18 17/17/17 
f 17/17/17 18/18/18 19/19/19 
f 20/20/20 21/21/21 22/22/22 
f 21/21/21 23/23/23 22/22/22 
f 22/22/22 23/23/23 24/24/24 
f 22/22/22 24/24/24 1/1/1 
f 24/24/24 2/2/2 1/1/1 
f 25/25/25 26/26/26 27/27/27 
f 28/28/28 29/29/29 30/30/30 
f 29/29/29 31/31/31 30/30/30 
f 25/25/25 32/32/32 26/26/26 
f 31/31/31 33/33/33 30/30/30 
f 33/33/33 34/34/34 30/30/30 
f 26/26/26 35/35/35 27/27/27 
f 28/28/28 36/36/36 29/29/29 
f 36/36/36 37/37/37 29/29/29 
f 25/25/25 38/38/38 32/32/32 
f 33/33/33 39/39/39 34/34/34 
f 39/39/39 40/40/40 34/34/34 
f 37/37/37 36/36/36 41/41/41 
f 40/40/40 39/39/39 42/42/42 
f 43/43/43 44/44/44 45/45/45 
f 43/43/43 46/46/46 47/47/47 
f 48/48/48 49/49/49 50/50/50 
f 48/48/48 51/51/51 52/52/52 
f 47/47/47 64/64/64 61/61/61 
f 52/52/52 62/62/62 63/63/63 
f 45/45/45 46/46/46 43/43/43 
f 50/50/50 51/51/51 48/48/48 
f 53/53/53 54/54/54 55/55/55 
f 55/55/55 54/54/54 56/56/56 
f 56/56/56 54/54/54 57/57/57 
f 54/54/54 58/58/58 57/57/57 
f 58/58/58 59/59/59 57/57/57 
f 57/57/57 59/59/59 60/60/60 
