v 1.2516510 1.6913199 0.0919234
vn -0.2152493 -0.1486218 -0.9651836
vt 0.0704575 0.5490670
v 1.4514509 1.7945260 0.0611757
vn -0.1357984 -0.0321141 -0.9902159
vt 0.0536318 0.5376355
v 1.4514509 1.5881130 0.1226711
vn -0.1801521 -0.5844541 -0.7911754
vt 0.0536318 0.5604985
v 1.2516510 1.6913199 0.0919234
vn -0.2152493 -0.1486218 -0.9651836
vt 0.0704575 0.4690452
v 1.4514509 1.5881130 0.1226711
vn -0.1801521 -0.5844541 -0.7911754
vt 0.0536318 0.4690452
v 1.2516510 1.4151210 0.3838770
vn -0.2152464 -0.9101836 -0.3538855
vt 0.0704575 0.5033399
v 1.4514509 1.4400990 0.2791243
vn -0.1357866 -0.8736075 -0.4673029
vt 0.0536318 0.4919083
v 1.4514509 1.3901430 0.4886296
vn -0.1801545 -0.9774054 0.1105583
vt 0.0536318 0.5147715
v 1.2516510 1.5298610 0.7690494
vn -0.2152443 -0.7615615 0.6113052
vt 0.0704575 0.5490674
v 1.4514509 1.4516320 0.6950444
vn -0.1357841 -0.8414940 0.5229249
vt 0.0536318 0.5376357
v 1.4514509 1.6080890 0.8430544
vn -0.1801576 -0.3929601 0.9017348
vt 0.0536318 0.5604987
v 1.2516510 1.5298610 0.7690494
vn -0.2152443 -0.7615615 0.6113052
vt 0.0704575 0.4690453
v 1.4514509 1.6080890 0.8430544
vn -0.1801576 -0.3929601 0.9017348
vt 0.0536317 0.4690454
v 1.2516510 1.9208000 0.8622683
vn -0.2152479 0.1486229 0.9651837
vt 0.0704575 0.5033399
v 1.4514509 1.8175941 0.8930159
vn -0.1357970 0.0321156 0.9902160
vt 0.0536318 0.4919083
v 1.4514509 2.0240059 0.8315207
vn -0.1801519 0.5844533 0.7911761
vt 0.0536318 0.5147715
v 1.2516510 2.1969991 0.5703149
vn -0.2152462 0.9101837 0.3538854
vt 0.0704575 0.5490675
v 1.4514509 2.1720209 0.6750675
vn -0.1357878 0.8736076 0.4673024
vt 0.0536318 0.5376359
v 1.4514509 2.2219760 0.4655624
vn -0.1801553 0.9774051 -0.1105594
vt 0.0536318 0.5604991
v 1.2516510 2.1969991 0.5703149
vn -0.2152462 0.9101837 0.3538854
vt 0.0704575 0.4690450
v 1.4514509 2.2219760 0.4655624
vn -0.1801553 0.9774051 -0.1105594
vt 0.0536318 0.4690450
v 1.2516510 2.0822589 0.1851426
vn -0.2152451 0.7615612 -0.6113052
vt 0.0704575 0.5033396
v 1.4514509 2.1604879 0.2591476
vn -0.1357862 0.8414933 -0.5229256
vt 0.0536318 0.4919080
v 1.4514509 2.0040300 0.1111376
vn -0.1801586 0.3929606 -0.9017344
vt 0.0536318 0.5147712
v 1.2516510 1.6913199 0.0919234
vn -1.0000000 0.0000000 0.0000000
vt 0.1984044 0.5528804
v 1.2516510 1.9208000 0.8622683
vn -1.0000000 0.0000000 0.0000000
vt 0.2604883 0.5362450
v 1.2516510 2.0822589 0.1851426
vn -1.0000000 0.0000000 0.0000000
vt 0.2067219 0.5218383
v 1.4514509 2.0040300 0.1111376
vn 1.0000000 0.0000000 0.0000000
vt 0.1420632 0.5217161
v 1.4514509 2.0240059 0.8315207
vn 1.0000000 0.0000000 0.0000000
vt 0.1980763 0.4898244
v 1.4514509 1.7945260 0.0611757
vn 1.0000000 0.0000000 0.0000000
vt 0.1285237 0.5080141
v 1.4514509 1.8175941 0.8930159
vn 1.0000000 0.0000000 0.0000000
vt 0.1932030 0.4711880
v 1.2516510 1.5298610 0.7690494
vn -1.0000000 0.0000000 0.0000000
vt 0.2521704 0.5672872
v 1.4514509 1.6080890 0.8430544
vn 1.0000000 0.0000000 0.0000000
vt 0.1796631 0.4574849
v 1.4514509 1.5881130 0.1226711
vn 1.0000000 0.0000000 0.0000000
vt 0.1236500 0.4893768
v 1.2516510 2.1969991 0.5703149
vn -1.0000000 0.0000000 0.0000000
vt 0.2377636 0.5135208
v 1.4514509 2.1604879 0.2591476
vn 1.0000000 0.0000000 0.0000000
vt 0.1606393 0.5268136
v 1.4514509 2.1720209 0.6750675
vn 1.0000000 0.0000000 0.0000000
vt 0.1929792 0.5084007
v 1.2516510 1.4151210 0.3838770
vn -1.0000000 0.0000000 0.0000000
vt 0.2211283 0.5756051
v 1.4514509 1.4516320 0.6950444
vn 1.0000000 0.0000000 0.0000000
vt 0.1610870 0.4523878
v 1.4514509 1.4400990 0.2791243
vn 1.0000000 0.0000000 0.0000000
vt 0.1287473 0.4708010
v 1.4514509 2.2219760 0.4655624
vn 1.0000000 0.0000000 0.0000000
vt 0.1792763 0.5219403
v 1.4514509 1.3901430 0.4886296
vn 1.0000000 0.0000000 0.0000000
vt 0.1424503 0.4572616
v 1.2605970 1.8049260 0.4765755
vn -0.9992643 0.0072049 -0.0376687
vt 0.0606029 0.6347926
v 1.5912679 1.8047640 0.3970959
vn -0.2336968 0.0059406 -0.9722914
vt 0.0729344 0.6416869
v 1.5913590 1.7527879 0.4200975
vn -0.2263136 -0.6748299 -0.7024150
vt 0.0729376 0.6377837
v 1.5912679 1.7247630 0.4770959
vn -0.2355337 -0.9716865 -0.0186872
vt 0.0729344 0.6333578
v 1.5913590 1.7488080 0.5310849
vn -0.2301717 -0.6936172 0.6825806
vt 0.0729376 0.6292786
v 1.2605970 1.8049260 0.4765755
vn -0.9992643 0.0072049 -0.0376687
vt 0.0606027 0.6320130
v 1.5912679 1.8047640 0.5570959
vn -0.2365936 -0.0017941 0.9716071
vt 0.0729343 0.6249944
v 1.5913590 1.8604420 0.5314640
vn -0.2297150 0.6918936 0.6844810
vt 0.0729376 0.6292512
v 1.5912679 1.8847630 0.4770960
vn -0.2346625 0.9720057 -0.0117643
vt 0.0729343 0.6333718
v 1.5913590 1.8583180 0.4215744
vn -0.2257614 0.6834261 -0.6942338
vt 0.0729377 0.6376315
v 1.5912679 1.7247630 0.4770959
vn 0.9999939 -0.0035094 -0.0001257
vt 0.1541310 0.5667764
v 1.5913590 1.7527879 0.4200975
vn 0.9999999 -0.0004536 0.0000000
vt 0.1541310 0.5727422
v 1.5913590 1.7488080 0.5310849
vn 0.9999996 -0.0009524 0.0000000
vt 0.1583953 0.5632220
v 1.5912679 1.8047640 0.5570959
vn 0.9999998 0.0002346 0.0005760
vt 0.1641899 0.5633485
v 1.5913590 1.8604420 0.5314640
vn 0.9999999 0.0004933 0.0000000
vt 0.1678208 0.5678167
v 1.5912679 1.8047640 0.3970959
vn 0.9999998 -0.0002450 -0.0005767
vt 0.1575589 0.5768352
v 1.5913590 1.8583180 0.4215744
vn 0.9999996 0.0009414 0.0000000
vt 0.1630876 0.5769914
v 1.5912679 1.8847630 0.4770960
vn 0.9999936 0.0035989 0.0000000
vt 0.1676177 0.5734074
v 1.2605970 1.8049260 0.4765755
vn -0.9992643 0.0072049 -0.0376687
vt 0.0606029 0.6347926
v 1.5912679 1.8047640 0.3970959
vn -0.2336968 0.0059406 -0.9722914
vt 0.0729344 0.6416869
v 1.2605970 1.8049260 0.4765755
vn -0.9992643 0.0072049 -0.0376687
vt 0.0606027 0.6320130
v 1.5912679 1.8047640 0.5570959
vn -0.2365936 -0.0017941 0.9716071
vt 0.0729343 0.6249944

g group_82_140627859281648
f 1/1/1 2/2/2 3/3/3 
f 4/4/4 5/5/5 6/6/6 
f 5/5/5 7/7/7 6/6/6 
f 6/6/6 7/7/7 8/8/8 
f 6/6/6 8/8/8 9/9/9 
f 8/8/8 10/10/10 9/9/9 
f 9/9/9 10/10/10 11/11/11 
f 12/12/12 13/13/13 14/14/14 
f 13/13/13 15/15/15 14/14/14 
f 14/14/14 15/15/15 16/16/16 
f 14/14/14 16/16/16 17/17/17 
f 16/16/16 18/18/18 17/17/17 
f 17/17/17 18/18/18 19/19/19 
f 20/20/20 21/21/21 22/22/22 
f 21/21/21 23/23/23 22/22/22 
f 22/22/22 23/23/23 24/24/24 
f 22/22/22 24/24/24 1/1/1 
f 24/24/24 2/2/2 1/1/1 
f 25/25/25 26/26/26 27/27/27 
f 28/28/28 29/29/29 30/30/30 
f 29/29/29 31/31/31 30/30/30 
f 25/25/25 32/32/32 26/26/26 
f 31/31/31 33/33/33 30/30/30 
f 33/33/33 34/34/34 30/30/30 
f 26/26/26 35/35/35 27/27/27 
f 28/28/28 36/36/36 29/29/29 
f 36/36/36 37/37/37 29/29/29 
f 25/25/25 38/38/38 32/32/32 
f 33/33/33 39/39/39 34/34/34 
f 39/39/39 40/40/40 34/34/34 
f 37/37/37 36/36/36 41/41/41 
f 40/40/40 39/39/39 42/42/42 
f 43/43/43 44/44/44 45/45/45 
f 43/43/43 46/46/46 47/47/47 
f 48/48/48 49/49/49 50/50/50 
f 48/48/48 51/51/51 52/52/52 
f 47/47/47 64/64/64 61/61/61 
f 52/52/52 62/62/62 63/63/63 
f 45/45/45 46/46/46 43/43/43 
f 50/50/50 51/51/51 48/48/48 
f 53/53/53 54/54/54 55/55/55 
f 55/55/55 54/54/54 56/56/56 
f 56/56/56 54/54/54 57/57/57 
f 54/54/54 58/58/58 57/57/57 
f 58/58/58 59/59/59 57/57/57 
f 57/57/57 59/59/59 60/60/60 
