v -1.1215039 -1.1717560 0.4770959
vn 0.0000000 -0.9906017 -0.1367786
vt 0.0528728 0.4997752
v -1.1215039 -1.0498860 0.7713068
vn 0.0000000 -0.7971706 0.6037541
vt 0.0528728 0.4698412
v -1.2201940 -1.1717560 0.4770959
vn 0.0000000 -0.9906018 0.1367774
vt 0.0594527 0.4997752
v -1.2201940 -1.0498860 0.7713068
vn 0.0000000 -0.6037456 0.7971771
vt 0.0594527 0.4698412
v -1.1215039 -1.0498860 0.7713068
vn 0.0000000 -0.7971706 0.6037541
vt 0.0528728 0.5596436
v -1.1215039 -0.7556760 0.8931728
vn 0.0000000 -0.1367737 0.9906024
vt 0.0528728 0.5297093
v -1.2201940 -1.0498860 0.7713068
vn 0.0000000 -0.6037456 0.7971771
vt 0.0594527 0.5596436
v -1.2201940 -0.7556760 0.8931728
vn 0.0000000 0.1367737 0.9906023
vt 0.0594527 0.5297093
v -1.1215039 -0.4614658 0.7713068
vn 0.0000000 0.6037458 0.7971770
vt 0.0528728 0.4997752
v -1.2201940 -0.4614658 0.7713068
vn 0.0000000 0.7971708 0.6037539
vt 0.0594527 0.4997752
v -1.1215039 -0.3395959 0.4770959
vn 0.0000000 0.9906018 0.1367773
vt 0.0528728 0.4698412
v -1.2201940 -0.3395959 0.4770959
vn 0.0000000 0.9906017 -0.1367784
vt 0.0594527 0.4698411
v -1.1215039 -0.3395959 0.4770959
vn 0.0000000 0.9906018 0.1367773
vt 0.0528728 0.5596436
v -1.1215039 -0.4614658 0.1828859
vn 0.0000000 0.7971706 -0.6037541
vt 0.0528728 0.5297093
v -1.2201940 -0.3395959 0.4770959
vn 0.0000000 0.9906017 -0.1367784
vt 0.0594527 0.5596434
v -1.2201940 -0.4614658 0.1828859
vn 0.0000000 0.6037459 -0.7971768
vt 0.0594527 0.5297093
v -1.1215039 -0.7556760 0.0610196
vn 0.0000000 0.1367741 -0.9906023
vt 0.0528728 0.4997752
v -1.2201940 -0.7556760 0.0610196
vn 0.0000000 -0.1367743 -0.9906023
vt 0.0594527 0.4997752
v -1.1215039 -0.7556760 0.0610196
vn 0.0000000 0.1367741 -0.9906023
vt 0.0528728 0.5596436
v -1.1215039 -1.0498860 0.1828859
vn 0.0000000 -0.6037461 -0.7971768
vt 0.0528728 0.5297093
v -1.2201940 -0.7556760 0.0610196
vn 0.0000000 -0.1367743 -0.9906023
vt 0.0594527 0.5596436
v -1.2201940 -1.0498860 0.1828859
vn 0.0000000 -0.7971703 -0.6037545
vt 0.0594527 0.5297093
v -1.1215039 -1.1717560 0.4770959
vn 1.0000000 0.0000000 0.0000000
vt 0.1946945 0.5446105
v -1.1215039 -1.0498860 0.1828859
vn 1.0000000 0.0000000 0.0000000
vt 0.2048574 0.5200751
v -1.1215039 -0.3395959 0.4770959
vn 1.0000000 0.0000000 0.0000000
vt 0.2640902 0.5446105
v -1.1215039 -0.4614658 0.1828859
vn 1.0000000 0.0000000 0.0000000
vt 0.2539272 0.5200761
v -1.2201940 -1.0498860 0.1828859
vn -1.0000000 0.0000000 0.0000000
vt 0.2539269 0.5200753
v -1.2201940 -1.1717560 0.4770959
vn -1.0000000 0.0000000 0.0000000
vt 0.2640897 0.5446103
v -1.2201940 -0.4614658 0.1828859
vn -1.0000000 0.0000000 0.0000000
vt 0.2048574 0.5200753
v -1.2201940 -0.3395959 0.4770959
vn -1.0000000 0.0000000 0.0000000
vt 0.1946946 0.5446103
v -1.1215039 -1.0498860 0.7713068
vn 1.0000000 0.0000000 0.0000000
vt 0.2048574 0.5691449
v -1.1215039 -0.4614658 0.7713068
vn 1.0000000 0.0000000 0.0000000
vt 0.2539272 0.5691449
v -1.2201940 -0.4614658 0.7713068
vn -1.0000000 0.0000000 0.0000000
vt 0.2048575 0.5691454
v -1.2201940 -1.0498860 0.7713068
vn -1.0000000 0.0000000 0.0000000
vt 0.2539270 0.5691454
v -1.1215039 -0.7556760 0.0610196
vn 1.0000000 0.0000000 0.0000000
vt 0.2293919 0.5099130
v -1.2201940 -0.7556760 0.0610196
vn -1.0000000 0.0000000 0.0000000
vt 0.2293919 0.5099131
v -1.1215039 -0.7556760 0.8931728
vn 1.0000000 0.0000000 0.0000000
vt 0.2293919 0.5793077
v -1.2201940 -0.7556760 0.8931728
vn -1.0000000 0.0000000 0.0000000
vt 0.2293919 0.5793077
v -1.5008260 -0.6714569 0.8695985
vn 0.4236832 0.0764106 0.9025819
vt 0.0777957 0.3895156
v -1.5008260 -0.3747409 0.5985213
vn 0.4236809 0.8198689 0.3851097
vt 0.0777957 0.4195861
v -1.5918760 -0.5662849 0.8464503
vn 0.3603447 0.4870865 0.7955492
vt 0.0684879 0.3995394
v -1.5918760 -0.4072775 0.7011751
vn 0.2724214 0.8209461 0.5018308
vt 0.0684879 0.4195861
v -1.5918760 -0.4072775 0.7011751
vn 0.2724214 0.8209461 0.5018308
vt 0.0684879 0.3393987
v -1.5008260 -0.3747409 0.5985213
vn 0.4236809 0.8198689 0.3851097
vt 0.0777957 0.3494220
v -1.5918760 -0.3422041 0.4958675
vn 0.3603495 0.9325073 -0.0240513
vt 0.0684879 0.3594453
v -1.5008260 -0.4611420 0.2060191
vn 0.4236867 0.7434478 -0.5174699
vt 0.0777957 0.3895158
v -1.5918760 -0.3885068 0.2855247
vn 0.2724431 0.8450659 -0.4600417
vt 0.0684879 0.3794920
v -1.5918760 -0.5337772 0.1265136
vn 0.3603399 0.4454183 -0.8196083
vt 0.0684879 0.3995396
v -1.5008260 -0.8442587 0.0845940
vn 0.4236845 -0.0764106 -0.9025812
vt 0.0777957 0.4195863
v -1.5918760 -0.7390863 0.0614456
vn 0.2724271 0.0241364 -0.9618737
vt 0.0684879 0.4195863
v -1.5918760 -0.7390863 0.0614456
vn 0.2724271 0.0241364 -0.9618737
vt 0.0684879 0.3393989
v -1.5008260 -0.8442587 0.0845940
vn 0.4236845 -0.0764106 -0.9025812
vt 0.0777957 0.3494221
v -1.5918760 -0.9494310 0.1077424
vn 0.3603444 -0.4870874 -0.7955488
vt 0.0684879 0.3594454
v -1.5008260 -1.1409750 0.3556712
vn 0.4236811 -0.8198684 -0.3851105
vt 0.0777957 0.3895158
v -1.5918760 -1.1084380 0.2530171
vn 0.2724201 -0.8209457 -0.5018322
vt 0.0684879 0.3794920
v -1.5918760 -1.1735120 0.4583252
vn 0.3603490 -0.9325075 0.0240509
vt 0.0684879 0.3995397
v -1.5008260 -1.0545740 0.7481734
vn 0.4236871 -0.7434480 0.5174693
vt 0.0777957 0.4195864
v -1.5918760 -1.1272089 0.6686677
vn 0.2724404 -0.8450671 0.4600412
vt 0.0684879 0.4195864
v -1.5918760 -1.1272089 0.6686677
vn 0.2724404 -0.8450671 0.4600412
vt 0.0684879 0.3393986
v -1.5008260 -1.0545740 0.7481734
vn 0.4236871 -0.7434480 0.5174693
vt 0.0777957 0.3494219
v -1.5918760 -0.9819388 0.8276791
vn 0.3603387 -0.4454186 0.8196087
vt 0.0684879 0.3594451
v -1.5918760 -0.7766287 0.8927467
vn 0.2724230 -0.0241365 0.9618748
vt 0.0684879 0.3794917
v -1.5008260 -0.8442587 0.0845940
vn 1.0000000 0.0000000 0.0000000
vt 0.1970556 0.5796033
v -1.5008260 -0.6714569 0.8695985
vn 1.0000000 0.0000000 0.0000000
vt 0.1247891 0.5602396
v -1.5008260 -1.1409750 0.3556712
vn 1.0000000 0.0000000 0.0000000
vt 0.1873734 0.5434699
v -1.5918760 -0.7766287 0.8927467
vn -1.0000000 0.0000000 0.0000000
vt 0.1865835 0.5409168
v -1.5918760 -0.5662849 0.8464503
vn -1.0000000 0.0000000 0.0000000
vt 0.1976483 0.5576327
v -1.5918760 -1.1084380 0.2530171
vn -1.0000000 0.0000000 0.0000000
vt 0.1229716 0.5622000
v -1.5918760 -0.9494310 0.1077424
vn -1.0000000 0.0000000 0.0000000
vt 0.1241959 0.5822097
v -1.5008260 -0.3747409 0.5985213
vn 1.0000000 0.0000000 0.0000000
vt 0.1344707 0.5963731
v -1.5918760 -0.7390863 0.0614456
vn -1.0000000 0.0000000 0.0000000
vt 0.1352606 0.5989267
v -1.5918760 -0.4072775 0.7011751
vn -1.0000000 0.0000000 0.0000000
vt 0.1988725 0.5776424
v -1.5008260 -1.0545740 0.7481734
vn 1.0000000 0.0000000 0.0000000
vt 0.1512399 0.5337882
v -1.5918760 -0.9819388 0.8276791
vn -1.0000000 0.0000000 0.0000000
vt 0.1686433 0.5319718
v -1.5918760 -1.1735120 0.4583252
vn -1.0000000 0.0000000 0.0000000
vt 0.1319166 0.5442598
v -1.5008260 -0.4611420 0.2060191
vn 1.0000000 0.0000000 0.0000000
vt 0.1706037 0.6060553
v -1.5918760 -0.5337772 0.1265136
vn -1.0000000 0.0000000 0.0000000
vt 0.1532008 0.6078717
v -1.5918760 -0.3422041 0.4958675
vn -1.0000000 0.0000000 0.0000000
vt 0.1899275 0.5955837
v -1.5918760 -1.1272089 0.6686677
vn -1.0000000 0.0000000 0.0000000
vt 0.1486336 0.5331950
v -1.5918760 -0.3885068 0.2855247
vn -1.0000000 0.0000000 0.0000000
vt 0.1732106 0.6066474

g group_77_140627859179648
f 1/1/1 2/2/2 3/3/3 
f 3/3/3 2/2/2 4/4/4 
f 5/5/5 6/6/6 7/7/7 
f 7/7/7 6/6/6 8/8/8 
f 6/6/6 9/9/9 8/8/8 
f 8/8/8 9/9/9 10/10/10 
f 9/9/9 11/11/11 10/10/10 
f 10/10/10 11/11/11 12/12/12 
f 13/13/13 14/14/14 15/15/15 
f 15/15/15 14/14/14 16/16/16 
f 14/14/14 17/17/17 16/16/16 
f 16/16/16 17/17/17 18/18/18 
f 19/19/19 20/20/20 21/21/21 
f 21/21/21 20/20/20 22/22/22 
f 20/20/20 1/1/1 22/22/22 
f 22/22/22 1/1/1 3/3/3 
f 23/23/23 24/24/24 25/25/25 
f 25/25/25 24/24/24 26/26/26 
f 27/27/27 28/28/28 29/29/29 
f 29/29/29 28/28/28 30/30/30 
f 23/23/23 25/25/25 31/31/31 
f 31/31/31 25/25/25 32/32/32 
f 30/30/30 28/28/28 33/33/33 
f 33/33/33 28/28/28 34/34/34 
f 24/24/24 35/35/35 26/26/26 
f 29/29/29 36/36/36 27/27/27 
f 32/32/32 37/37/37 31/31/31 
f 34/34/34 38/38/38 33/33/33 
f 39/39/39 40/40/40 41/41/41 
f 41/41/41 40/40/40 42/42/42 
f 43/43/43 44/44/44 45/45/45 
f 44/44/44 46/46/46 45/45/45 
f 45/45/45 46/46/46 47/47/47 
f 47/47/47 46/46/46 48/48/48 
f 46/46/46 49/49/49 48/48/48 
f 48/48/48 49/49/49 50/50/50 
f 51/51/51 52/52/52 53/53/53 
f 52/52/52 54/54/54 53/53/53 
f 53/53/53 54/54/54 55/55/55 
f 55/55/55 54/54/54 56/56/56 
f 54/54/54 57/57/57 56/56/56 
f 56/56/56 57/57/57 58/58/58 
f 59/59/59 60/60/60 61/61/61 
f 60/60/60 39/39/39 61/61/61 
f 61/61/61 39/39/39 62/62/62 
f 62/62/62 39/39/39 41/41/41 
f 63/63/63 64/64/64 65/65/65 
f 66/66/66 67/67/67 68/68/68 
f 68/68/68 67/67/67 69/69/69 
f 64/64/64 63/63/63 70/70/70 
f 69/69/69 67/67/67 71/71/71 
f 71/71/71 67/67/67 72/72/72 
f 65/65/65 64/64/64 73/73/73 
f 66/66/66 68/68/68 74/74/74 
f 74/74/74 68/68/68 75/75/75 
f 70/70/70 63/63/63 76/76/76 
f 71/71/71 72/72/72 77/77/77 
f 77/77/77 72/72/72 78/78/78 
f 75/75/75 79/79/79 74/74/74 
f 78/78/78 80/80/80 77/77/77 
