v 1.1215430 -1.1754270 0.4770959
vn 0.0000000 -0.9906017 -0.1367786
vt 0.0528728 0.4997752
v 1.2202340 -1.1754270 0.4770959
vn 0.0000000 -0.9906018 0.1367776
vt 0.0594527 0.4997752
v 1.1215430 -1.0535570 0.7713068
vn 0.0000000 -0.7971706 0.6037542
vt 0.0528728 0.4698412
v 1.2202340 -1.0535570 0.7713068
vn 0.0000000 -0.6037457 0.7971770
vt 0.0594527 0.4698412
v 1.1215430 -1.0535570 0.7713068
vn 0.0000000 -0.7971706 0.6037542
vt 0.0528728 0.5596436
v 1.2202340 -1.0535570 0.7713068
vn 0.0000000 -0.6037457 0.7971770
vt 0.0594527 0.5596436
v 1.1215430 -0.7593472 0.8931728
vn 0.0000000 -0.1367740 0.9906023
vt 0.0528728 0.5297093
v 1.2202340 -0.7593472 0.8931728
vn 0.0000000 0.1367738 0.9906023
vt 0.0594527 0.5297093
v 1.1215430 -0.4651370 0.7713068
vn 0.0000000 0.6037459 0.7971769
vt 0.0528728 0.4997752
v 1.2202340 -0.4651370 0.7713068
vn 0.0000000 0.7971709 0.6037539
vt 0.0594527 0.4997752
v 1.1215430 -0.3432672 0.4770959
vn 0.0000000 0.9906018 0.1367776
vt 0.0528728 0.4698412
v 1.2202340 -0.3432672 0.4770959
vn 0.0000000 0.9906017 -0.1367782
vt 0.0594527 0.4698411
v 1.1215430 -0.3432672 0.4770959
vn 0.0000000 0.9906018 0.1367776
vt 0.0528728 0.5596436
v 1.2202340 -0.3432672 0.4770959
vn 0.0000000 0.9906017 -0.1367782
vt 0.0594527 0.5596434
v 1.1215430 -0.4651370 0.1828859
vn 0.0000000 0.7971707 -0.6037540
vt 0.0528728 0.5297093
v 1.2202340 -0.4651370 0.1828859
vn 0.0000000 0.6037459 -0.7971768
vt 0.0594527 0.5297093
v 1.1215430 -0.7593472 0.0610196
vn 0.0000000 0.1367739 -0.9906023
vt 0.0528728 0.4997752
v 1.2202340 -0.7593472 0.0610196
vn 0.0000000 -0.1367746 -0.9906022
vt 0.0594527 0.4997752
v 1.1215430 -0.7593472 0.0610196
vn 0.0000000 0.1367739 -0.9906023
vt 0.0528728 0.5596436
v 1.2202340 -0.7593472 0.0610196
vn 0.0000000 -0.1367746 -0.9906022
vt 0.0594527 0.5596436
v 1.1215430 -1.0535570 0.1828859
vn 0.0000000 -0.6037461 -0.7971767
vt 0.0528728 0.5297093
v 1.2202340 -1.0535570 0.1828859
vn 0.0000000 -0.7971703 -0.6037546
vt 0.0594527 0.5297093
v 1.1215430 -1.1754270 0.4770959
vn -1.0000000 0.0000000 0.0000000
vt 0.1946945 0.5446105
v 1.1215430 -0.3432672 0.4770959
vn -1.0000000 0.0000000 0.0000000
vt 0.2640902 0.5446105
v 1.1215430 -1.0535570 0.1828859
vn -1.0000000 0.0000000 0.0000000
vt 0.2048574 0.5200751
v 1.1215430 -0.4651370 0.1828859
vn -1.0000000 0.0000000 0.0000000
vt 0.2539272 0.5200761
v 1.2202340 -1.0535570 0.1828859
vn 1.0000000 0.0000000 0.0000000
vt 0.2539269 0.5200753
v 1.2202340 -0.4651370 0.1828859
vn 1.0000000 0.0000000 0.0000000
vt 0.2048574 0.5200753
v 1.2202340 -1.1754270 0.4770959
vn 1.0000000 0.0000000 0.0000000
vt 0.2640897 0.5446103
v 1.2202340 -0.3432672 0.4770959
vn 1.0000000 0.0000000 0.0000000
vt 0.1946946 0.5446103
v 1.1215430 -1.0535570 0.7713068
vn -1.0000000 0.0000000 0.0000000
vt 0.2048574 0.5691449
v 1.1215430 -0.4651370 0.7713068
vn -1.0000000 0.0000000 0.0000000
vt 0.2539272 0.5691449
v 1.2202340 -0.4651370 0.7713068
vn 1.0000000 0.0000000 0.0000000
vt 0.2048575 0.5691454
v 1.2202340 -1.0535570 0.7713068
vn 1.0000000 0.0000000 0.0000000
vt 0.2539270 0.5691454
v 1.1215430 -0.7593472 0.0610196
vn -1.0000000 0.0000000 0.0000000
vt 0.2293919 0.5099130
v 1.2202340 -0.7593472 0.0610196
vn 1.0000000 0.0000000 0.0000000
vt 0.2293919 0.5099131
v 1.1215430 -0.7593472 0.8931728
vn -1.0000000 0.0000000 0.0000000
vt 0.2293919 0.5793077
v 1.2202340 -0.7593472 0.8931728
vn 1.0000000 0.0000000 0.0000000
vt 0.2293919 0.5793077
v 1.5008661 -0.6751282 0.8695985
vn -0.4236831 0.0764101 0.9025819
vt 0.0777957 0.3895156
v 1.5919150 -0.5699562 0.8464503
vn -0.3603450 0.4870863 0.7955491
vt 0.0684879 0.3995394
v 1.5008661 -0.3784122 0.5985213
vn -0.4236813 0.8198688 0.3851095
vt 0.0777957 0.4195861
v 1.5919150 -0.4109488 0.7011751
vn -0.2724210 0.8209469 0.5018297
vt 0.0684879 0.4195861
v 1.5919150 -0.4109488 0.7011751
vn -0.2724210 0.8209469 0.5018297
vt 0.0684879 0.3393987
v 1.5919150 -0.3458754 0.4958675
vn -0.3603491 0.9325075 -0.0240515
vt 0.0684879 0.3594453
v 1.5008661 -0.3784122 0.5985213
vn -0.4236813 0.8198688 0.3851095
vt 0.0777957 0.3494220
v 1.5008661 -0.4648132 0.2060191
vn -0.4236866 0.7434478 -0.5174698
vt 0.0777957 0.3895158
v 1.5919150 -0.3921780 0.2855247
vn -0.2724421 0.8450667 -0.4600410
vt 0.0684879 0.3794920
v 1.5919150 -0.5374484 0.1265136
vn -0.3603400 0.4454187 -0.8196081
vt 0.0684879 0.3995396
v 1.5008661 -0.8479299 0.0845940
vn -0.4236846 -0.0764102 -0.9025812
vt 0.0777957 0.4195863
v 1.5919150 -0.7427576 0.0614456
vn -0.2724269 0.0241371 -0.9618737
vt 0.0684879 0.4195863
v 1.5919150 -0.7427576 0.0614456
vn -0.2724269 0.0241371 -0.9618737
vt 0.0684879 0.3393989
v 1.5919150 -0.9531023 0.1077424
vn -0.3603444 -0.4870874 -0.7955487
vt 0.0684879 0.3594454
v 1.5008661 -0.8479299 0.0845940
vn -0.4236846 -0.0764102 -0.9025812
vt 0.0777957 0.3494221
v 1.5008661 -1.1446460 0.3556712
vn -0.4236813 -0.8198684 -0.3851103
vt 0.0777957 0.3895158
v 1.5919150 -1.1121089 0.2530171
vn -0.2724199 -0.8209466 -0.5018309
vt 0.0684879 0.3794920
v 1.5919150 -1.1771830 0.4583252
vn -0.3603482 -0.9325078 0.0240509
vt 0.0684879 0.3995397
v 1.5008661 -1.0582449 0.7481734
vn -0.4236865 -0.7434483 0.5174693
vt 0.0777957 0.4195864
v 1.5919150 -1.1308800 0.6686677
vn -0.2724393 -0.8450675 0.4600410
vt 0.0684879 0.4195864
v 1.5919150 -1.1308800 0.6686677
vn -0.2724393 -0.8450675 0.4600410
vt 0.0684879 0.3393986
v 1.5919150 -0.9856100 0.8276791
vn -0.3603382 -0.4454184 0.8196090
vt 0.0684879 0.3594451
v 1.5008661 -1.0582449 0.7481734
vn -0.4236865 -0.7434483 0.5174693
vt 0.0777957 0.3494219
v 1.5919150 -0.7803000 0.8927467
vn -0.2724228 -0.0241367 0.9618749
vt 0.0684879 0.3794917
v 1.5008661 -0.8479299 0.0845940
vn -1.0000000 0.0000000 0.0000000
vt 0.1970556 0.5796033
v 1.5008661 -1.1446460 0.3556712
vn -1.0000000 0.0000000 0.0000000
vt 0.1873734 0.5434699
v 1.5008661 -0.6751282 0.8695985
vn -1.0000000 0.0000000 0.0000000
vt 0.1247891 0.5602396
v 1.5919150 -0.7803000 0.8927467
vn 1.0000000 0.0000000 0.0000000
vt 0.1865835 0.5409168
v 1.5919150 -1.1121089 0.2530171
vn 1.0000000 0.0000000 0.0000000
vt 0.1229716 0.5622000
v 1.5919150 -0.5699562 0.8464503
vn 1.0000000 0.0000000 0.0000000
vt 0.1976483 0.5576327
v 1.5919150 -0.9531023 0.1077424
vn 1.0000000 0.0000000 0.0000000
vt 0.1241959 0.5822097
v 1.5008661 -0.3784122 0.5985213
vn -1.0000000 0.0000000 0.0000000
vt 0.1344707 0.5963731
v 1.5919150 -0.7427576 0.0614456
vn 1.0000000 0.0000000 0.0000000
vt 0.1352606 0.5989267
v 1.5919150 -0.4109488 0.7011751
vn 1.0000000 0.0000000 0.0000000
vt 0.1988725 0.5776424
v 1.5008661 -1.0582449 0.7481734
vn -1.0000000 0.0000000 0.0000000
vt 0.1512399 0.5337882
v 1.5919150 -0.9856100 0.8276791
vn 1.0000000 0.0000000 0.0000000
vt 0.1686433 0.5319718
v 1.5919150 -1.1771830 0.4583252
vn 1.0000000 0.0000000 0.0000000
vt 0.1319166 0.5442598
v 1.5008661 -0.4648132 0.2060191
vn -1.0000000 0.0000000 0.0000000
vt 0.1706037 0.6060553
v 1.5919150 -0.5374484 0.1265136
vn 1.0000000 0.0000000 0.0000000
vt 0.1532008 0.6078717
v 1.5919150 -0.3458754 0.4958675
vn 1.0000000 0.0000000 0.0000000
vt 0.1899275 0.5955837
v 1.5919150 -1.1308800 0.6686677
vn 1.0000000 0.0000000 0.0000000
vt 0.1486336 0.5331950
v 1.5919150 -0.3921780 0.2855247
vn 1.0000000 0.0000000 0.0000000
vt 0.1732106 0.6066474

g group_87_140627858994960
f 1/1/1 2/2/2 3/3/3 
f 2/2/2 4/4/4 3/3/3 
f 5/5/5 6/6/6 7/7/7 
f 6/6/6 8/8/8 7/7/7 
f 7/7/7 8/8/8 9/9/9 
f 8/8/8 10/10/10 9/9/9 
f 9/9/9 10/10/10 11/11/11 
f 10/10/10 12/12/12 11/11/11 
f 13/13/13 14/14/14 15/15/15 
f 14/14/14 16/16/16 15/15/15 
f 15/15/15 16/16/16 17/17/17 
f 16/16/16 18/18/18 17/17/17 
f 19/19/19 20/20/20 21/21/21 
f 20/20/20 22/22/22 21/21/21 
f 21/21/21 22/22/22 1/1/1 
f 22/22/22 2/2/2 1/1/1 
f 23/23/23 24/24/24 25/25/25 
f 24/24/24 26/26/26 25/25/25 
f 27/27/27 28/28/28 29/29/29 
f 28/28/28 30/30/30 29/29/29 
f 23/23/23 31/31/31 24/24/24 
f 31/31/31 32/32/32 24/24/24 
f 30/30/30 33/33/33 29/29/29 
f 33/33/33 34/34/34 29/29/29 
f 25/25/25 26/26/26 35/35/35 
f 28/28/28 27/27/27 36/36/36 
f 32/32/32 31/31/31 37/37/37 
f 34/34/34 33/33/33 38/38/38 
f 39/39/39 40/40/40 41/41/41 
f 40/40/40 42/42/42 41/41/41 
f 43/43/43 44/44/44 45/45/45 
f 45/45/45 44/44/44 46/46/46 
f 44/44/44 47/47/47 46/46/46 
f 47/47/47 48/48/48 46/46/46 
f 46/46/46 48/48/48 49/49/49 
f 48/48/48 50/50/50 49/49/49 
f 51/51/51 52/52/52 53/53/53 
f 53/53/53 52/52/52 54/54/54 
f 52/52/52 55/55/55 54/54/54 
f 55/55/55 56/56/56 54/54/54 
f 54/54/54 56/56/56 57/57/57 
f 56/56/56 58/58/58 57/57/57 
f 59/59/59 60/60/60 61/61/61 
f 61/61/61 60/60/60 39/39/39 
f 60/60/60 62/62/62 39/39/39 
f 62/62/62 40/40/40 39/39/39 
f 63/63/63 64/64/64 65/65/65 
f 66/66/66 67/67/67 68/68/68 
f 67/67/67 69/69/69 68/68/68 
f 65/65/65 70/70/70 63/63/63 
f 69/69/69 71/71/71 68/68/68 
f 71/71/71 72/72/72 68/68/68 
f 64/64/64 73/73/73 65/65/65 
f 66/66/66 74/74/74 67/67/67 
f 74/74/74 75/75/75 67/67/67 
f 70/70/70 76/76/76 63/63/63 
f 71/71/71 77/77/77 72/72/72 
f 77/77/77 78/78/78 72/72/72 
f 75/75/75 74/74/74 79/79/79 
f 78/78/78 77/77/77 80/80/80 
