v -1.2706650 -2.5177071 0.6820511
vn 0.0000000 0.0000000 1.0000000
vt 0.2584513 0.1476631
v -1.2706650 -2.6094351 0.6290895
vn 0.0000000 -0.8660325 0.4999877
vt 0.2486129 0.1476631
v -1.0793210 -2.5177050 0.6820508
vn 0.0000000 0.0000000 1.0000000
vt 0.2584523 0.1542548
v -1.0793210 -2.6094351 0.6290897
vn 0.0000000 -0.8660275 0.4999963
vt 0.2486128 0.1542548
v -1.2706650 -2.6094351 0.5231674
vn 0.0000000 -0.8660347 -0.4999838
vt 0.2387744 0.1476630
v -1.0793210 -2.6094360 0.5231674
vn 0.0000000 -0.8660297 -0.4999926
vt 0.2387744 0.1542548
v -1.2706650 -2.5177071 0.4702060
vn 0.0000000 0.0000000 -1.0000000
vt 0.2289360 0.1476639
v -1.0793210 -2.5177050 0.4702060
vn 0.0000000 0.0000000 -1.0000000
vt 0.2289359 0.1542547
v -1.2706650 -2.4259729 0.5231668
vn 0.0000000 0.8660167 -0.5000151
vt 0.2387734 0.1476640
v -1.0793210 -2.4259739 0.5231671
vn 0.0000000 0.8660218 -0.5000064
vt 0.2387734 0.1542548
v -1.2706650 -2.4259710 0.6290891
vn 0.0000000 0.8660208 0.5000080
vt 0.2486129 0.1476641
v -1.0793210 -2.4259720 0.6290894
vn 0.0000000 0.8660234 0.5000036
vt 0.2486128 0.1542548
v -1.0800850 -2.3933990 0.7220506
vn 0.0000000 0.0000000 1.0000000
vt 0.2190528 0.1727809
v -1.0800850 -2.5197711 0.6490898
vn 0.0000000 -0.8660264 0.4999984
vt 0.2326071 0.1727809
v -0.9570557 -2.3933990 0.7220505
vn 0.0000000 0.0000000 1.0000000
vt 0.2190527 0.1613535
v -0.9570557 -2.5197711 0.6490898
vn 0.0000000 -0.8660258 0.4999994
vt 0.2326070 0.1613535
v -1.0800850 -2.5197711 0.5031671
vn 0.0000000 -0.8660271 -0.4999970
vt 0.2461603 0.1727808
v -0.9570557 -2.5197711 0.5031671
vn 0.0000000 -0.8660271 -0.4999971
vt 0.2461603 0.1613535
v -1.0800850 -2.3933990 0.4302060
vn 0.0000000 0.0000000 -1.0000000
vt 0.2597147 0.1727808
v -0.9570557 -2.3933990 0.4302060
vn 0.0000000 0.0000000 -1.0000000
vt 0.2597147 0.1613534
v -1.0800850 -2.3933990 0.4302060
vn 0.0000000 0.0000000 -1.0000000
vt 0.2596505 0.1727809
v -1.0800840 -2.2670259 0.5031668
vn 0.0000000 0.8660248 -0.5000011
vt 0.2460962 0.1727809
v -0.9570557 -2.3933990 0.4302060
vn 0.0000000 0.0000000 -1.0000000
vt 0.2596505 0.1613535
v -0.9570554 -2.2670259 0.5031668
vn 0.0000000 0.8660251 -0.5000005
vt 0.2460962 0.1613535
v -1.0800840 -2.2670269 0.6490892
vn 0.0000000 0.8660249 0.5000010
vt 0.2325419 0.1727809
v -0.9570554 -2.2670269 0.6490892
vn 0.0000000 0.8660249 0.5000011
vt 0.2325419 0.1613535
v -1.0800850 -2.3933990 0.7220506
vn 0.0000000 0.0000000 1.0000000
vt 0.2189876 0.1727809
v -0.9570557 -2.3933990 0.7220505
vn 0.0000000 0.0000000 1.0000000
vt 0.2189875 0.1613535
v -1.0800850 -2.5197711 0.6490898
vn -1.0000000 0.0000000 0.0000000
vt 0.5569149 0.4317574
v -1.0800850 -2.3933990 0.7220506
vn -1.0000000 0.0000000 0.0000000
vt 0.5639964 0.4440253
v -1.0800850 -2.5197711 0.5031671
vn -1.0000000 0.0000000 0.0000000
vt 0.5427507 0.4317562
v -1.0800840 -2.2670269 0.6490892
vn -1.0000000 0.0000000 0.0000000
vt 0.5569129 0.4562916
v -1.0800850 -2.3933990 0.4302060
vn -1.0000000 0.0000000 0.0000000
vt 0.5356671 0.4440225
v -1.0800840 -2.2670259 0.5031668
vn -1.0000000 0.0000000 0.0000000
vt 0.5427486 0.4562904
v -1.0793210 -2.5177050 0.6820508
vn 1.0000000 0.0000000 0.0000000
vt 0.5791285 0.4484473
v -1.0793210 -2.6094351 0.6290897
vn 1.0000000 0.0000000 0.0000000
vt 0.5881934 0.4303178
v -1.0793210 -2.4259720 0.6290894
vn 1.0000000 0.0000000 0.0000000
vt 0.5881935 0.4665775
v -1.0793210 -2.6094360 0.5231674
vn 1.0000000 0.0000000 0.0000000
vt 0.6063232 0.4303177
v -1.0793210 -2.5177050 0.4702060
vn 1.0000000 0.0000000 0.0000000
vt 0.6153883 0.4484474
v -1.0793210 -2.4259739 0.5231671
vn 1.0000000 0.0000000 0.0000000
vt 0.6063234 0.4665772
v 1.2706650 -2.5177071 0.6820511
vn 0.0000000 0.0000000 1.0000000
vt 0.2584513 0.1476631
v 1.0793210 -2.5177050 0.6820508
vn 0.0000000 0.0000000 1.0000000
vt 0.2584523 0.1542548
v 1.2706650 -2.6094351 0.6290895
vn 0.0000000 -0.8660325 0.4999878
vt 0.2486129 0.1476631
v 1.0793210 -2.6094351 0.6290897
vn 0.0000000 -0.8660275 0.4999963
vt 0.2486128 0.1542548
v 1.2706650 -2.6094351 0.5231674
vn 0.0000000 -0.8660347 -0.4999838
vt 0.2387744 0.1476630
v 1.0793210 -2.6094360 0.5231674
vn 0.0000000 -0.8660297 -0.4999927
vt 0.2387744 0.1542548
v 1.2706650 -2.5177071 0.4702060
vn 0.0000000 0.0000000 -1.0000000
vt 0.2289360 0.1476639
v 1.0793210 -2.5177050 0.4702060
vn 0.0000000 0.0000000 -1.0000000
vt 0.2289359 0.1542547
v 1.2706650 -2.4259729 0.5231668
vn 0.0000000 0.8660167 -0.5000151
vt 0.2387734 0.1476640
v 1.0793210 -2.4259739 0.5231671
vn 0.0000000 0.8660219 -0.5000062
vt 0.2387734 0.1542548
v 1.2706650 -2.4259710 0.6290891
vn 0.0000000 0.8660208 0.5000080
vt 0.2486129 0.1476641
v 1.0793210 -2.4259720 0.6290894
vn 0.0000000 0.8660234 0.5000035
vt 0.2486128 0.1542548
v 1.0800850 -2.3933990 0.7220506
vn 0.0000000 0.0000000 1.0000000
vt 0.2190528 0.1727809
v 0.9570557 -2.3933990 0.7220505
vn 0.0000000 0.0000000 1.0000000
vt 0.2190527 0.1613535
v 1.0800850 -2.5197711 0.6490898
vn 0.0000000 -0.8660265 0.4999982
vt 0.2326071 0.1727809
v 0.9570557 -2.5197711 0.6490898
vn 0.0000000 -0.8660259 0.4999992
vt 0.2326070 0.1613535
v 1.0800850 -2.5197711 0.5031671
vn 0.0000000 -0.8660272 -0.4999969
vt 0.2461603 0.1727808
v 0.9570557 -2.5197711 0.5031671
vn 0.0000000 -0.8660271 -0.4999970
vt 0.2461603 0.1613535
v 1.0800850 -2.3933990 0.4302060
vn 0.0000000 0.0000000 -1.0000000
vt 0.2597147 0.1727808
v 0.9570557 -2.3933990 0.4302060
vn 0.0000000 0.0000000 -1.0000000
vt 0.2597147 0.1613534
v 1.0800850 -2.3933990 0.4302060
vn 0.0000000 0.0000000 -1.0000000
vt 0.2596505 0.1727809
v 0.9570557 -2.3933990 0.4302060
vn 0.0000000 0.0000000 -1.0000000
vt 0.2596505 0.1613535
v 1.0800840 -2.2670259 0.5031668
vn 0.0000000 0.8660249 -0.5000009
vt 0.2460962 0.1727809
v 0.9570554 -2.2670259 0.5031668
vn 0.0000000 0.8660253 -0.5000002
vt 0.2460962 0.1613535
v 1.0800840 -2.2670269 0.6490892
vn 0.0000000 0.8660249 0.5000010
vt 0.2325419 0.1727809
v 0.9570554 -2.2670269 0.6490892
vn 0.0000000 0.8660249 0.5000009
vt 0.2325419 0.1613535
v 1.0800850 -2.3933990 0.7220506
vn 0.0000000 0.0000000 1.0000000
vt 0.2189876 0.1727809
v 0.9570557 -2.3933990 0.7220505
vn 0.0000000 0.0000000 1.0000000
vt 0.2189875 0.1613535
v 1.0800850 -2.5197711 0.6490898
vn 1.0000000 0.0000000 0.0000000
vt 0.5569149 0.4317574
v 1.0800850 -2.5197711 0.5031671
vn 1.0000000 0.0000000 0.0000000
vt 0.5427507 0.4317562
v 1.0800850 -2.3933990 0.7220506
vn 1.0000000 0.0000000 0.0000000
vt 0.5639964 0.4440253
v 1.0800840 -2.2670269 0.6490892
vn 1.0000000 0.0000000 0.0000000
vt 0.5569129 0.4562916
v 1.0800850 -2.3933990 0.4302060
vn 1.0000000 0.0000000 0.0000000
vt 0.5356671 0.4440225
v 1.0800840 -2.2670259 0.5031668
vn 1.0000000 0.0000000 0.0000000
vt 0.5427486 0.4562904
v 1.0793210 -2.5177050 0.6820508
vn -1.0000000 0.0000000 0.0000000
vt 0.5791285 0.4484473
v 1.0793210 -2.4259720 0.6290894
vn -1.0000000 0.0000000 0.0000000
vt 0.5881935 0.4665775
v 1.0793210 -2.6094351 0.6290897
vn -1.0000000 0.0000000 0.0000000
vt 0.5881934 0.4303178
v 1.0793210 -2.6094360 0.5231674
vn -1.0000000 0.0000000 0.0000000
vt 0.6063232 0.4303177
v 1.0793210 -2.5177050 0.4702060
vn -1.0000000 0.0000000 0.0000000
vt 0.6153883 0.4484474
v 1.0793210 -2.4259739 0.5231671
vn -1.0000000 0.0000000 0.0000000
vt 0.6063234 0.4665772
v -1.2706650 -2.5177071 0.6820511
vn 0.0000000 0.0000000 1.0000000
vt 0.2584513 0.1476631
v -1.0793210 -2.5177050 0.6820508
vn 0.0000000 0.0000000 1.0000000
vt 0.2584523 0.1542548
v -1.2706650 -2.5177071 0.4702060
vn 0.0000000 0.0000000 -1.0000000
vt 0.2289360 0.1476639
v -1.0793210 -2.5177050 0.4702060
vn 0.0000000 0.0000000 -1.0000000
vt 0.2289359 0.1542547
v 1.2706650 -2.5177071 0.6820511
vn 0.0000000 0.0000000 1.0000000
vt 0.2584513 0.1476631
v 1.0793210 -2.5177050 0.6820508
vn 0.0000000 0.0000000 1.0000000
vt 0.2584523 0.1542548
v 1.2706650 -2.5177071 0.4702060
vn 0.0000000 0.0000000 -1.0000000
vt 0.2289360 0.1476639
v 1.0793210 -2.5177050 0.4702060
vn 0.0000000 0.0000000 -1.0000000
vt 0.2289359 0.1542547

g group_11_140627859153232
f 1/1/1 2/2/2 3/3/3 
f 3/3/3 2/2/2 4/4/4 
f 2/2/2 5/5/5 4/4/4 
f 4/4/4 5/5/5 6/6/6 
f 5/5/5 7/7/7 6/6/6 
f 6/6/6 7/7/7 8/8/8 
f 83/83/83 9/9/9 84/84/84 
f 84/84/84 9/9/9 10/10/10 
f 9/9/9 11/11/11 10/10/10 
f 10/10/10 11/11/11 12/12/12 
f 11/11/11 81/81/81 12/12/12 
f 12/12/12 81/81/81 82/82/82 
f 13/13/13 14/14/14 15/15/15 
f 15/15/15 14/14/14 16/16/16 
f 14/14/14 17/17/17 16/16/16 
f 16/16/16 17/17/17 18/18/18 
f 17/17/17 19/19/19 18/18/18 
f 18/18/18 19/19/19 20/20/20 
f 21/21/21 22/22/22 23/23/23 
f 23/23/23 22/22/22 24/24/24 
f 22/22/22 25/25/25 24/24/24 
f 24/24/24 25/25/25 26/26/26 
f 25/25/25 27/27/27 26/26/26 
f 26/26/26 27/27/27 28/28/28 
f 29/29/29 30/30/30 31/31/31 
f 31/31/31 30/30/30 32/32/32 
f 33/33/33 31/31/31 34/34/34 
f 34/34/34 31/31/31 32/32/32 
f 35/35/35 36/36/36 37/37/37 
f 36/36/36 38/38/38 37/37/37 
f 38/38/38 39/39/39 37/37/37 
f 39/39/39 40/40/40 37/37/37 
f 41/41/41 42/42/42 43/43/43 
f 42/42/42 44/44/44 43/43/43 
f 43/43/43 44/44/44 45/45/45 
f 44/44/44 46/46/46 45/45/45 
f 45/45/45 46/46/46 47/47/47 
f 46/46/46 48/48/48 47/47/47 
f 87/87/87 88/88/88 49/49/49 
f 88/88/88 50/50/50 49/49/49 
f 49/49/49 50/50/50 51/51/51 
f 50/50/50 52/52/52 51/51/51 
f 51/51/51 52/52/52 85/85/85 
f 52/52/52 86/86/86 85/85/85 
f 53/53/53 54/54/54 55/55/55 
f 54/54/54 56/56/56 55/55/55 
f 55/55/55 56/56/56 57/57/57 
f 56/56/56 58/58/58 57/57/57 
f 57/57/57 58/58/58 59/59/59 
f 58/58/58 60/60/60 59/59/59 
f 61/61/61 62/62/62 63/63/63 
f 62/62/62 64/64/64 63/63/63 
f 63/63/63 64/64/64 65/65/65 
f 64/64/64 66/66/66 65/65/65 
f 65/65/65 66/66/66 67/67/67 
f 66/66/66 68/68/68 67/67/67 
f 69/69/69 70/70/70 71/71/71 
f 70/70/70 72/72/72 71/71/71 
f 73/73/73 74/74/74 70/70/70 
f 74/74/74 72/72/72 70/70/70 
f 75/75/75 76/76/76 77/77/77 
f 77/77/77 76/76/76 78/78/78 
f 78/78/78 76/76/76 79/79/79 
f 79/79/79 76/76/76 80/80/80 
