v -1.2107060 -2.1199794 0.1817128
vn -0.0000007 -0.8660251 -0.5000005
vt 0.7373053 0.2112511
v -1.2107060 -2.0243292 0.0860622
vn 0.0000000 -0.5000010 -0.8660249
vt 0.7223992 0.2112511
v -0.9775879 -2.0243292 0.0860622
vn -0.0000003 -0.5000005 -0.8660251
vt 0.7223992 0.2369394
v -0.9775879 -2.1199796 0.1817128
vn -0.0000006 -0.8660253 -0.5000001
vt 0.7373053 0.2369394
v -1.2107060 -2.1549902 0.3123738
vn -0.0000004 -1.0000000 0.0000001
vt 0.6627746 0.2112511
v -1.2107060 -2.1199794 0.1817128
vn -0.0000007 -0.8660251 -0.5000005
vt 0.6478683 0.2112511
v -0.9775879 -2.1199796 0.1817128
vn -0.0000006 -0.8660253 -0.5000001
vt 0.6478683 0.2369394
v -0.9775879 -2.1549902 0.3123738
vn 0.0000000 -1.0000000 0.0000007
vt 0.6627746 0.2369394
v -1.2107060 -2.1199794 0.4430350
vn 0.0000000 -0.8660254 0.5000000
vt 0.6776806 0.2112511
v -0.9775879 -2.1199794 0.4430350
vn 0.0000000 -0.8660254 0.4999999
vt 0.6776806 0.2369394
v -1.2107060 -2.0243292 0.5386856
vn 0.0000000 -0.5000008 0.8660250
vt 0.6925865 0.2112511
v -0.9775879 -2.0243292 0.5386856
vn 0.0000000 -0.5000008 0.8660250
vt 0.6925865 0.2369394
v -1.2107060 -1.8936681 0.5736961
vn 0.0000000 -0.0000001 1.0000000
vt 0.7074927 0.2112511
v -0.9775879 -1.8936681 0.5736961
vn -0.0000001 -0.0000003 1.0000000
vt 0.7074927 0.2369394
v -1.2107060 -1.7630068 0.5386856
vn -0.0000001 0.4999999 0.8660254
vt 0.7223992 0.2112511
v -0.9775879 -1.7630068 0.5386856
vn -0.0000003 0.4999997 0.8660256
vt 0.7223992 0.2369394
v -1.2107060 -1.6673563 0.4430350
vn -0.0000002 0.8660259 0.4999992
vt 0.7373053 0.2112511
v -0.9775879 -1.6673563 0.4430351
vn -0.0000002 0.8660259 0.4999992
vt 0.7373053 0.2369394
v -1.2107060 -1.6323459 0.3123738
vn -0.0000000 1.0000000 -0.0000002
vt 0.6627746 0.2112511
v -1.2107060 -1.6673563 0.4430350
vn -0.0000002 0.8660259 0.4999992
vt 0.6478683 0.2112511
v -0.9775879 -1.6673563 0.4430351
vn -0.0000002 0.8660259 0.4999992
vt 0.6478683 0.2369394
v -0.9775879 -1.6323459 0.3123738
vn 0.0000000 1.0000000 -0.0000003
vt 0.6627746 0.2369394
v -1.2107060 -1.6673563 0.1817128
vn 0.0000000 0.8660257 -0.4999995
vt 0.6776806 0.2112511
v -0.9775879 -1.6673563 0.1817128
vn 0.0000000 0.8660257 -0.4999995
vt 0.6776806 0.2369394
v -1.2107060 -1.7630068 0.0860622
vn 0.0000000 0.4999999 -0.8660254
vt 0.6925865 0.2112511
v -0.9775879 -1.7630068 0.0860622
vn 0.0000000 0.5000000 -0.8660254
vt 0.6925865 0.2369394
v -1.2107060 -1.8936681 0.0510517
vn 0.0000000 -0.0000002 -1.0000000
vt 0.7074927 0.2112511
v -0.9775879 -1.8936681 0.0510517
vn 0.0000000 -0.0000002 -1.0000000
vt 0.7074927 0.2369394
v -1.2107060 -1.6673563 0.1817128
vn -1.0000000 0.0000000 0.0000000
vt 0.6955175 0.2531955
v -1.2107060 -1.7630068 0.0860622
vn -1.0000000 0.0000000 0.0000000
vt 0.6849769 0.2426553
v -1.2107060 -1.8936681 0.0510517
vn -1.0000000 0.0000000 0.0000000
vt 0.6705790 0.2387972
v -1.2107060 -1.6323459 0.3123738
vn -1.0000000 0.0000000 0.0000000
vt 0.6993754 0.2675932
v -1.2107060 -1.6673563 0.4430350
vn -1.0000000 0.0000000 0.0000000
vt 0.6955175 0.2819914
v -1.2107060 -1.7630068 0.5386856
vn -1.0000000 0.0000000 0.0000000
vt 0.6849769 0.2925318
v -1.2107060 -1.8936681 0.5736961
vn -1.0000000 0.0000000 0.0000000
vt 0.6705790 0.2963897
v -1.2107060 -2.0243292 0.5386856
vn -1.0000000 0.0000000 0.0000000
vt 0.6561809 0.2925318
v -1.2107060 -2.1199794 0.4430350
vn -1.0000000 0.0000000 0.0000000
vt 0.6456414 0.2819914
v -1.2107060 -2.1549902 0.3123738
vn -1.0000000 0.0000000 0.0000000
vt 0.6417831 0.2675932
v -1.2107060 -2.1199794 0.1817128
vn -1.0000000 0.0000000 0.0000000
vt 0.6456414 0.2531955
v -1.2107060 -2.0243292 0.0860622
vn -1.0000000 0.0000000 0.0000000
vt 0.6561809 0.2426553
v -0.9775879 -1.8936681 0.0510517
vn 1.0000000 0.0000000 0.0000000
vt 0.7293057 0.2387972
v -0.9775879 -1.7630068 0.0860622
vn 1.0000000 0.0000000 0.0000000
vt 0.7149075 0.2426553
v -0.9775879 -1.6673563 0.1817128
vn 1.0000000 0.0000000 0.0000000
vt 0.7043675 0.2531955
v -0.9775879 -1.6323459 0.3123738
vn 1.0000000 0.0000000 0.0000000
vt 0.7005098 0.2675932
v -0.9775879 -1.6673563 0.4430351
vn 1.0000000 0.0000000 0.0000000
vt 0.7043675 0.2819914
v -0.9775879 -1.7630068 0.5386856
vn 1.0000000 0.0000000 0.0000000
vt 0.7149075 0.2925318
v -0.9775879 -1.8936681 0.5736961
vn 1.0000000 0.0000000 0.0000000
vt 0.7293057 0.2963897
v -0.9775879 -2.0243292 0.5386856
vn 1.0000000 0.0000000 0.0000000
vt 0.7437043 0.2925318
v -0.9775879 -2.1199794 0.4430350
vn 1.0000000 0.0000000 0.0000000
vt 0.7542443 0.2819914
v -0.9775879 -2.1549902 0.3123738
vn 1.0000000 0.0000000 0.0000000
vt 0.7581016 0.2675932
v -0.9775879 -2.1199796 0.1817128
vn 1.0000000 0.0000000 0.0000000
vt 0.7542443 0.2531955
v -0.9775879 -2.0243292 0.0860622
vn 1.0000000 0.0000000 0.0000000
vt 0.7437043 0.2426553

g group_17530880_140627854341984
f 1/1/1 2/2/2 3/3/3 
f 3/3/3 4/4/4 1/1/1 
f 5/5/5 6/6/6 7/7/7 
f 7/7/7 8/8/8 5/5/5 
f 9/9/9 5/5/5 8/8/8 
f 8/8/8 10/10/10 9/9/9 
f 11/11/11 9/9/9 10/10/10 
f 10/10/10 12/12/12 11/11/11 
f 13/13/13 11/11/11 12/12/12 
f 12/12/12 14/14/14 13/13/13 
f 15/15/15 13/13/13 14/14/14 
f 14/14/14 16/16/16 15/15/15 
f 17/17/17 15/15/15 16/16/16 
f 16/16/16 18/18/18 17/17/17 
f 19/19/19 20/20/20 21/21/21 
f 21/21/21 22/22/22 19/19/19 
f 23/23/23 19/19/19 22/22/22 
f 22/22/22 24/24/24 23/23/23 
f 25/25/25 23/23/23 24/24/24 
f 24/24/24 26/26/26 25/25/25 
f 27/27/27 25/25/25 26/26/26 
f 26/26/26 28/28/28 27/27/27 
f 2/2/2 27/27/27 28/28/28 
f 28/28/28 3/3/3 2/2/2 
f 29/29/29 30/30/30 31/31/31 
f 32/32/32 29/29/29 31/31/31 
f 33/33/33 32/32/32 31/31/31 
f 34/34/34 33/33/33 31/31/31 
f 35/35/35 34/34/34 31/31/31 
f 36/36/36 35/35/35 31/31/31 
f 37/37/37 36/36/36 31/31/31 
f 38/38/38 37/37/37 31/31/31 
f 39/39/39 38/38/38 31/31/31 
f 40/40/40 39/39/39 31/31/31 
f 41/41/41 42/42/42 43/43/43 
f 41/41/41 43/43/43 44/44/44 
f 41/41/41 44/44/44 45/45/45 
f 41/41/41 45/45/45 46/46/46 
f 41/41/41 46/46/46 47/47/47 
f 41/41/41 47/47/47 48/48/48 
f 41/41/41 48/48/48 49/49/49 
f 41/41/41 49/49/49 50/50/50 
f 41/41/41 50/50/50 51/51/51 
f 52/52/52 41/41/41 51/51/51 
