v 1.2107060 0.1852096 0.1817126
vn 0.0000004 -0.8660254 -0.5000000
vt 0.7373053 0.2112511
v 0.9775879 0.1852095 0.1817125
vn 0.0000004 -0.8660254 -0.4999999
vt 0.7373053 0.2369394
v 0.9775879 0.2808600 0.0860620
vn 0.0000002 -0.5000005 -0.8660251
vt 0.7223992 0.2369394
v 1.2107060 0.2808600 0.0860620
vn 0.0000000 -0.5000008 -0.8660250
vt 0.7223992 0.2112511
v 1.2107060 0.1501990 0.3123736
vn 0.0000002 -1.0000000 0.0000004
vt 0.6627746 0.2112511
v 0.9775879 0.1501990 0.3123736
vn 0.0000000 -1.0000000 0.0000008
vt 0.6627746 0.2369394
v 0.9775879 0.1852095 0.1817125
vn 0.0000004 -0.8660254 -0.4999999
vt 0.6478683 0.2369394
v 1.2107060 0.1852096 0.1817126
vn 0.0000004 -0.8660254 -0.5000000
vt 0.6478683 0.2112511
v 1.2107060 0.1852097 0.4430347
vn 0.0000000 -0.8660254 0.5000001
vt 0.6776806 0.2112511
v 0.9775879 0.1852097 0.4430347
vn 0.0000000 -0.8660254 0.5000000
vt 0.6776806 0.2369394
v 1.2107060 0.2808601 0.5386853
vn 0.0000000 -0.5000000 0.8660254
vt 0.6925865 0.2112511
v 0.9775879 0.2808601 0.5386853
vn 0.0000000 -0.5000000 0.8660254
vt 0.6925865 0.2369394
v 1.2107060 0.4115212 0.5736957
vn 0.0000000 0.0000004 1.0000000
vt 0.7074927 0.2112511
v 0.9775879 0.4115212 0.5736957
vn 0.0000001 0.0000002 1.0000000
vt 0.7074927 0.2369394
v 1.2107060 0.5421824 0.5386852
vn 0.0000001 0.4999997 0.8660256
vt 0.7223992 0.2112511
v 0.9775879 0.5421824 0.5386852
vn 0.0000003 0.4999996 0.8660257
vt 0.7223992 0.2369394
v 1.2107060 0.6378330 0.4430346
vn 0.0000002 0.8660259 0.4999992
vt 0.7373053 0.2112511
v 0.9775879 0.6378330 0.4430347
vn 0.0000002 0.8660259 0.4999992
vt 0.7373053 0.2369394
v 1.2107060 0.6728432 0.3123735
vn 0.0000000 1.0000000 -0.0000009
vt 0.6627746 0.2112511
v 0.9775879 0.6728432 0.3123735
vn 0.0000000 1.0000000 -0.0000009
vt 0.6627746 0.2369394
v 0.9775879 0.6378330 0.4430347
vn 0.0000002 0.8660259 0.4999992
vt 0.6478683 0.2369394
v 1.2107060 0.6378330 0.4430346
vn 0.0000002 0.8660259 0.4999992
vt 0.6478683 0.2112511
v 1.2107060 0.6378328 0.1817125
vn 0.0000000 0.8660254 -0.4999999
vt 0.6776806 0.2112511
v 0.9775879 0.6378328 0.1817125
vn 0.0000000 0.8660254 -0.4999999
vt 0.6776806 0.2369394
v 1.2107060 0.5421822 0.0860619
vn 0.0000000 0.4999999 -0.8660254
vt 0.6925865 0.2112511
v 0.9775879 0.5421822 0.0860619
vn 0.0000000 0.4999999 -0.8660255
vt 0.6925865 0.2369394
v 1.2107060 0.4115210 0.0510514
vn 0.0000000 -0.0000004 -1.0000000
vt 0.7074927 0.2112511
v 0.9775879 0.4115210 0.0510514
vn 0.0000000 -0.0000004 -1.0000000
vt 0.7074927 0.2369394
v 1.2107060 0.4115210 0.0510514
vn 1.0000000 0.0000000 0.0000000
vt 0.6705790 0.2387972
v 1.2107060 0.5421822 0.0860619
vn 1.0000000 0.0000000 0.0000000
vt 0.6849769 0.2426553
v 1.2107060 0.6378328 0.1817125
vn 1.0000000 0.0000000 0.0000000
vt 0.6955175 0.2531955
v 1.2107060 0.6728432 0.3123735
vn 1.0000000 0.0000000 0.0000000
vt 0.6993754 0.2675932
v 1.2107060 0.6378330 0.4430346
vn 1.0000000 0.0000000 0.0000000
vt 0.6955175 0.2819914
v 1.2107060 0.5421824 0.5386852
vn 1.0000000 0.0000000 0.0000000
vt 0.6849769 0.2925318
v 1.2107060 0.4115212 0.5736957
vn 1.0000000 0.0000000 0.0000000
vt 0.6705790 0.2963897
v 1.2107060 0.2808601 0.5386853
vn 1.0000000 0.0000000 0.0000000
vt 0.6561809 0.2925318
v 1.2107060 0.1852097 0.4430347
vn 1.0000000 0.0000000 0.0000000
vt 0.6456414 0.2819914
v 1.2107060 0.1501990 0.3123736
vn 1.0000000 0.0000000 0.0000000
vt 0.6417831 0.2675932
v 1.2107060 0.1852096 0.1817126
vn 1.0000000 0.0000000 0.0000000
vt 0.6456414 0.2531955
v 1.2107060 0.2808600 0.0860620
vn 1.0000000 0.0000000 0.0000000
vt 0.6561809 0.2426553
v 0.9775879 0.6378328 0.1817125
vn -1.0000000 0.0000000 0.0000000
vt 0.7043675 0.2531955
v 0.9775879 0.5421822 0.0860619
vn -1.0000000 0.0000000 0.0000000
vt 0.7149075 0.2426553
v 0.9775879 0.4115210 0.0510514
vn -1.0000000 0.0000000 0.0000000
vt 0.7293057 0.2387972
v 0.9775879 0.6728432 0.3123735
vn -1.0000000 0.0000000 0.0000000
vt 0.7005098 0.2675932
v 0.9775879 0.6378330 0.4430347
vn -1.0000000 0.0000000 0.0000000
vt 0.7043675 0.2819914
v 0.9775879 0.5421824 0.5386852
vn -1.0000000 0.0000000 0.0000000
vt 0.7149075 0.2925318
v 0.9775879 0.4115212 0.5736957
vn -1.0000000 0.0000000 0.0000000
vt 0.7293057 0.2963897
v 0.9775879 0.2808601 0.5386853
vn -1.0000000 0.0000000 0.0000000
vt 0.7437043 0.2925318
v 0.9775879 0.1852097 0.4430347
vn -1.0000000 0.0000000 0.0000000
vt 0.7542443 0.2819914
v 0.9775879 0.1501990 0.3123736
vn -1.0000000 0.0000000 0.0000000
vt 0.7581016 0.2675932
v 0.9775879 0.1852095 0.1817125
vn -1.0000000 0.0000000 0.0000000
vt 0.7542443 0.2531955
v 0.9775879 0.2808600 0.0860620
vn -1.0000000 0.0000000 0.0000000
vt 0.7437043 0.2426553

g group_65152888_140627853995680
f 1/1/1 2/2/2 3/3/3 
f 3/3/3 4/4/4 1/1/1 
f 5/5/5 6/6/6 7/7/7 
f 7/7/7 8/8/8 5/5/5 
f 9/9/9 10/10/10 6/6/6 
f 6/6/6 5/5/5 9/9/9 
f 11/11/11 12/12/12 10/10/10 
f 10/10/10 9/9/9 11/11/11 
f 13/13/13 14/14/14 12/12/12 
f 12/12/12 11/11/11 13/13/13 
f 15/15/15 16/16/16 14/14/14 
f 14/14/14 13/13/13 15/15/15 
f 17/17/17 18/18/18 16/16/16 
f 16/16/16 15/15/15 17/17/17 
f 19/19/19 20/20/20 21/21/21 
f 21/21/21 22/22/22 19/19/19 
f 23/23/23 24/24/24 20/20/20 
f 20/20/20 19/19/19 23/23/23 
f 25/25/25 26/26/26 24/24/24 
f 24/24/24 23/23/23 25/25/25 
f 27/27/27 28/28/28 26/26/26 
f 26/26/26 25/25/25 27/27/27 
f 4/4/4 3/3/3 28/28/28 
f 28/28/28 27/27/27 4/4/4 
f 29/29/29 30/30/30 31/31/31 
f 29/29/29 31/31/31 32/32/32 
f 29/29/29 32/32/32 33/33/33 
f 29/29/29 33/33/33 34/34/34 
f 29/29/29 34/34/34 35/35/35 
f 29/29/29 35/35/35 36/36/36 
f 29/29/29 36/36/36 37/37/37 
f 29/29/29 37/37/37 38/38/38 
f 29/29/29 38/38/38 39/39/39 
f 40/40/40 29/29/29 39/39/39 
f 41/41/41 42/42/42 43/43/43 
f 44/44/44 41/41/41 43/43/43 
f 45/45/45 44/44/44 43/43/43 
f 46/46/46 45/45/45 43/43/43 
f 47/47/47 46/46/46 43/43/43 
f 48/48/48 47/47/47 43/43/43 
f 49/49/49 48/48/48 43/43/43 
f 50/50/50 49/49/49 43/43/43 
f 51/51/51 50/50/50 43/43/43 
f 52/52/52 51/51/51 43/43/43 
