v 0.9942911 -0.0710503 0.7848587
vn -0.0000002 -0.5877843 -0.8090177
vt 0.5380694 0.2673758
v 1.2179608 -0.0710503 0.7848586
vn -0.0000002 -0.5877846 -0.8090175
vt 0.5380701 0.2912963
v 1.2179608 -0.1162660 0.8470928
vn -0.0000001 -0.9510568 -0.3090161
vt 0.5462970 0.2912961
v 0.9942914 -0.1162660 0.8470928
vn 0.0000000 -0.9510568 -0.3090163
vt 0.5462962 0.2673758
v 1.2179610 -0.1162660 0.9240186
vn 0.0000002 -0.9510567 0.3090165
vt 0.5545242 0.2912961
v 0.9942911 -0.1162660 0.9240187
vn 0.0000001 -0.9510568 0.3090161
vt 0.5545233 0.2673753
v 1.2179610 -0.0710504 0.9862527
vn 0.0000003 -0.5877850 0.8090172
vt 0.5627511 0.2912959
v 0.9942918 -0.0710504 0.9862528
vn 0.0000001 -0.5877854 0.8090169
vt 0.5627503 0.2673751
v 0.9942918 -0.0710504 0.9862528
vn 0.0000001 -0.5877854 0.8090169
vt 0.4804805 0.2673773
v 1.2179610 -0.0710504 0.9862527
vn 0.0000003 -0.5877850 0.8090172
vt 0.4804808 0.2912982
v 1.2179610 0.0021102 1.0100238
vn 0.0000001 0.0000005 1.0000000
vt 0.4887081 0.2912980
v 0.9942918 0.0021102 1.0100238
vn 0.0000000 0.0000008 1.0000000
vt 0.4887075 0.2673773
v 1.2179610 0.0752710 0.9862526
vn 0.0000000 0.5877851 0.8090171
vt 0.4969350 0.2912978
v 0.9942918 0.0752710 0.9862526
vn -0.0000003 0.5877866 0.8090160
vt 0.4969346 0.2673771
v 1.2179610 0.1204867 0.9240184
vn -0.0000004 0.9510568 0.3090163
vt 0.5051622 0.2912974
v 0.9942909 0.1204866 0.9240184
vn -0.0000005 0.9510570 0.3090157
vt 0.5051615 0.2673770
v 1.2179610 0.1204867 0.8470928
vn -0.0000003 0.9510567 -0.3090165
vt 0.5133892 0.2912972
v 0.9942914 0.1204867 0.8470928
vn -0.0000001 0.9510569 -0.3090158
vt 0.5133884 0.2673770
v 1.2179608 0.0752709 0.7848586
vn -0.0000002 0.5877849 -0.8090172
vt 0.5216160 0.2912968
v 0.9942911 0.0752709 0.7848587
vn -0.0000000 0.5877850 -0.8090172
vt 0.5216154 0.2673766
v 1.2179610 0.0021105 0.7610874
vn -0.0000002 0.0000006 -1.0000000
vt 0.5298429 0.2912965
v 0.9942911 0.0021106 0.7610874
vn -0.0000000 0.0000014 -1.0000000
vt 0.5298423 0.2673764
v 1.2179610 0.0021105 0.7610874
vn 1.0000000 0.0000000 0.0000050
vt 0.5885947 0.2706046
v 1.2179608 0.0752709 0.7848586
vn 1.0000000 -0.0000004 0.0000002
vt 0.5819389 0.2657690
v 1.2179608 -0.0710503 0.7848586
vn 1.0000000 0.0000000 0.0000006
vt 0.5911372 0.2784290
v 1.2179608 -0.1162660 0.8470928
vn 1.0000000 -0.0000004 -0.0000012
vt 0.5885953 0.2862534
v 1.2179610 -0.1162660 0.9240186
vn 1.0000000 0.0000001 -0.0000008
vt 0.5819398 0.2910894
v 1.2179610 -0.0710504 0.9862527
vn 1.0000000 0.0000003 -0.0000004
vt 0.5737127 0.2910896
v 1.2179610 0.0021102 1.0100238
vn 1.0000000 0.0000000 -0.0000005
vt 0.5670568 0.2862541
v 1.2179610 0.0752710 0.9862526
vn 1.0000000 -0.0000003 -0.0000006
vt 0.5645144 0.2784300
v 1.2179610 0.1204867 0.9240184
vn 1.0000000 -0.0000010 -0.0000005
vt 0.5670565 0.2706052
v 1.2179610 0.1204867 0.8470928
vn 1.0000000 -0.0000026 0.0000000
vt 0.5737122 0.2657694

g group_65150704_140627854010848
f 1/1/1 2/2/2 3/3/3 
f 3/3/3 4/4/4 1/1/1 
f 4/4/4 3/3/3 5/5/5 
f 5/5/5 6/6/6 4/4/4 
f 6/6/6 5/5/5 7/7/7 
f 7/7/7 8/8/8 6/6/6 
f 9/9/9 10/10/10 11/11/11 
f 11/11/11 12/12/12 9/9/9 
f 12/12/12 11/11/11 13/13/13 
f 13/13/13 14/14/14 12/12/12 
f 14/14/14 13/13/13 15/15/15 
f 15/15/15 16/16/16 14/14/14 
f 16/16/16 15/15/15 17/17/17 
f 17/17/17 18/18/18 16/16/16 
f 18/18/18 17/17/17 19/19/19 
f 19/19/19 20/20/20 18/18/18 
f 20/20/20 19/19/19 21/21/21 
f 21/21/21 22/22/22 20/20/20 
f 22/22/22 21/21/21 2/2/2 
f 2/2/2 1/1/1 22/22/22 
f 23/23/23 24/24/24 25/25/25 
f 25/25/25 24/24/24 26/26/26 
f 26/26/26 24/24/24 27/27/27 
f 27/27/27 24/24/24 28/28/28 
f 28/28/28 24/24/24 29/29/29 
f 29/29/29 24/24/24 30/30/30 
f 30/30/30 24/24/24 31/31/31 
f 31/31/31 24/24/24 32/32/32 
