v -0.9649830 -2.6709123 0.4434908
vn 0.0000000 -0.4999983 -0.8660264
vt 0.4740437 0.2302017
v -0.9649830 -2.7778027 0.5503802
vn 0.0000000 -0.8660247 -0.5000013
vt 0.4585588 0.2302017
v -1.2293570 -2.7778027 0.5503802
vn 0.0000000 -0.8660246 -0.5000014
vt 0.4585588 0.2031195
v -1.2293570 -2.6709123 0.4434908
vn 0.0000000 -0.4999983 -0.8660264
vt 0.4740437 0.2031195
v -0.9649830 -2.8169267 0.6963940
vn 0.0000000 -1.0000000 -0.0000001
vt 0.4430733 0.2302017
v -1.2293570 -2.8169267 0.6963940
vn 0.0000000 -1.0000000 -0.0000001
vt 0.4430733 0.2031195
v -0.9649830 -2.7778027 0.8424080
vn 0.0000000 -0.8660246 0.5000014
vt 0.4275880 0.2302017
v -1.2293570 -2.7778027 0.8424080
vn 0.0000000 -0.8660246 0.5000014
vt 0.4275880 0.2031194
v -0.9649830 -2.6709123 0.9492973
vn 0.0000000 -0.4999984 0.8660264
vt 0.4121028 0.2302017
v -1.2293570 -2.6709123 0.9492973
vn 0.0000000 -0.4999984 0.8660264
vt 0.4121028 0.2031194
v -0.9649830 -2.5248988 0.9884217
vn 0.0000000 -0.0000002 1.0000000
vt 0.3966179 0.2302014
v -1.2293570 -2.5248988 0.9884217
vn 0.0000000 -0.0000002 1.0000000
vt 0.3966179 0.2031194
v -0.9649830 -2.3788846 0.9492972
vn 0.0000000 0.5000001 0.8660254
vt 0.3811324 0.2302014
v -1.2293570 -2.3788846 0.9492972
vn 0.0000000 0.5000000 0.8660254
vt 0.3811324 0.2031194
v -0.9649830 -2.3788846 0.9492972
vn 0.0000000 0.5000001 0.8660254
vt 0.4740437 0.2302014
v -0.9649830 -2.2719951 0.8424078
vn 0.0000000 0.8660257 0.4999994
vt 0.4585588 0.2302014
v -1.2293570 -2.2719951 0.8424078
vn 0.0000000 0.8660257 0.4999994
vt 0.4585588 0.2031194
v -1.2293570 -2.3788846 0.9492972
vn 0.0000000 0.5000000 0.8660254
vt 0.4740437 0.2031194
v -0.9649830 -2.2328711 0.6963939
vn 0.0000000 1.0000000 -0.0000001
vt 0.4430733 0.2302014
v -1.2293570 -2.2328711 0.6963939
vn 0.0000000 1.0000000 -0.0000001
vt 0.4430733 0.2031194
v -0.9649830 -2.2719951 0.5503801
vn 0.0000000 0.8660256 -0.4999996
vt 0.4275880 0.2302014
v -1.2293570 -2.2719951 0.5503801
vn 0.0000000 0.8660256 -0.4999996
vt 0.4275880 0.2031192
v -0.9649830 -2.3788846 0.4434908
vn 0.0000000 0.4999994 -0.8660258
vt 0.4121028 0.2302014
v -1.2293570 -2.3788846 0.4434908
vn 0.0000000 0.4999994 -0.8660257
vt 0.4121028 0.2031192
v -0.9649830 -2.5248988 0.4043665
vn 0.0000000 -0.0000007 -1.0000000
vt 0.3966179 0.2302014
v -1.2293570 -2.5248988 0.4043665
vn 0.0000000 -0.0000007 -1.0000000
vt 0.3966179 0.2031192
v -0.9649830 -2.6709123 0.4434908
vn 0.0000000 -0.4999983 -0.8660264
vt 0.3811324 0.2302014
v -1.2293570 -2.6709123 0.4434908
vn 0.0000000 -0.4999983 -0.8660264
vt 0.3811324 0.2031194
v -1.2293570 -2.2328711 0.6963939
vn -1.0000000 0.0000000 0.0000000
vt 0.4478611 0.2318365
v -1.2293570 -2.2719951 0.5503801
vn -1.0000000 0.0000000 0.0000000
vt 0.4633464 0.2359858
v -1.2293570 -2.3788846 0.4434908
vn -1.0000000 0.0000000 0.0000000
vt 0.4746823 0.2473218
v -1.2293570 -2.2719951 0.8424078
vn -1.0000000 0.0000000 0.0000000
vt 0.4323754 0.2359858
v -1.2293570 -2.3788846 0.9492972
vn -1.0000000 0.0000000 0.0000000
vt 0.4210395 0.2473218
v -1.2293570 -2.5248988 0.9884217
vn -1.0000000 0.0000000 0.0000000
vt 0.4168899 0.2628073
v -1.2293570 -2.6709123 0.9492973
vn -1.0000000 0.0000000 0.0000000
vt 0.4210395 0.2782927
v -1.2293570 -2.7778027 0.8424080
vn -1.0000000 0.0000000 0.0000000
vt 0.4323754 0.2896289
v -1.2293570 -2.8169267 0.6963940
vn -1.0000000 0.0000000 0.0000000
vt 0.4478611 0.2937779
v -1.2293570 -2.7778027 0.5503802
vn -1.0000000 0.0000000 0.0000000
vt 0.4633464 0.2896289
v -1.2293570 -2.6709123 0.4434908
vn -1.0000000 0.0000000 0.0000000
vt 0.4746823 0.2782927
v -1.2293570 -2.5248988 0.4043665
vn -1.0000000 0.0000000 0.0000000
vt 0.4788316 0.2628073
v -0.9649830 -2.7778027 0.5503802
vn 1.0000000 0.0000000 0.0000000
vt 0.4002784 0.2359858
v -0.9649830 -2.6709123 0.4434908
vn 1.0000000 0.0000000 0.0000000
vt 0.4116144 0.2473220
v -0.9649830 -2.5248988 0.4043665
vn 1.0000000 0.0000000 0.0000000
vt 0.4157639 0.2628073
v -0.9649830 -2.8169267 0.6963940
vn 1.0000000 0.0000000 0.0000000
vt 0.3847930 0.2318365
v -0.9649830 -2.7778027 0.8424080
vn 1.0000000 0.0000000 0.0000000
vt 0.3693075 0.2359858
v -0.9649830 -2.6709123 0.9492973
vn 1.0000000 0.0000000 0.0000000
vt 0.3579715 0.2473220
v -0.9649830 -2.5248988 0.9884217
vn 1.0000000 0.0000000 0.0000000
vt 0.3538222 0.2628073
v -0.9649830 -2.3788846 0.9492972
vn 1.0000000 0.0000000 0.0000000
vt 0.3579715 0.2782928
v -0.9649830 -2.2719951 0.8424078
vn 1.0000000 0.0000000 0.0000000
vt 0.3693075 0.2896289
v -0.9649830 -2.2328711 0.6963939
vn 1.0000000 0.0000000 0.0000000
vt 0.3847930 0.2937779
v -0.9649830 -2.2719951 0.5503801
vn 1.0000000 0.0000000 0.0000000
vt 0.4002784 0.2896289
v -0.9649830 -2.3788846 0.4434908
vn 1.0000000 0.0000000 0.0000000
vt 0.4116144 0.2782928

g group_17534392_140627854333232
f 1/1/1 2/2/2 3/3/3 
f 3/3/3 4/4/4 1/1/1 
f 2/2/2 5/5/5 6/6/6 
f 6/6/6 3/3/3 2/2/2 
f 5/5/5 7/7/7 8/8/8 
f 8/8/8 6/6/6 5/5/5 
f 7/7/7 9/9/9 10/10/10 
f 10/10/10 8/8/8 7/7/7 
f 9/9/9 11/11/11 12/12/12 
f 12/12/12 10/10/10 9/9/9 
f 11/11/11 13/13/13 14/14/14 
f 14/14/14 12/12/12 11/11/11 
f 15/15/15 16/16/16 17/17/17 
f 17/17/17 18/18/18 15/15/15 
f 16/16/16 19/19/19 20/20/20 
f 20/20/20 17/17/17 16/16/16 
f 19/19/19 21/21/21 22/22/22 
f 22/22/22 20/20/20 19/19/19 
f 21/21/21 23/23/23 24/24/24 
f 24/24/24 22/22/22 21/21/21 
f 23/23/23 25/25/25 26/26/26 
f 26/26/26 24/24/24 23/23/23 
f 25/25/25 27/27/27 28/28/28 
f 28/28/28 26/26/26 25/25/25 
f 29/29/29 30/30/30 31/31/31 
f 32/32/32 29/29/29 31/31/31 
f 33/33/33 32/32/32 31/31/31 
f 34/34/34 33/33/33 31/31/31 
f 35/35/35 34/34/34 31/31/31 
f 36/36/36 35/35/35 31/31/31 
f 37/37/37 36/36/36 31/31/31 
f 38/38/38 37/37/37 31/31/31 
f 39/39/39 38/38/38 31/31/31 
f 40/40/40 39/39/39 31/31/31 
f 41/41/41 42/42/42 43/43/43 
f 44/44/44 41/41/41 43/43/43 
f 45/45/45 44/44/44 43/43/43 
f 46/46/46 45/45/45 43/43/43 
f 47/47/47 46/46/46 43/43/43 
f 48/48/48 47/47/47 43/43/43 
f 49/49/49 48/48/48 43/43/43 
f 50/50/50 49/49/49 43/43/43 
f 51/51/51 50/50/50 43/43/43 
f 52/52/52 51/51/51 43/43/43 
