v 0.7486644 1.4144530 1.7058769
vn -0.8089501 0.0128698 0.5877365
vt 0.4369889 0.3987406
v 0.7906122 1.4144530 1.7363536
vn -0.3089902 0.0128697 0.9509782
vt 0.4369889 0.3912587
v 0.7681993 3.2904959 1.6916841
vn -0.8089516 0.0128698 0.5877345
vt 0.1508217 0.3985974
v 0.7980738 3.2904959 1.7133894
vn -0.3089926 0.0128697 0.9509774
vt 0.1508217 0.3932770
v 0.8424624 1.4144530 1.7363536
vn 0.3089906 0.0128697 0.9509780
vt 0.4369889 0.3837748
v 0.8350007 3.2904959 1.7133894
vn 0.3089933 0.0128698 0.9509771
vt 0.1508217 0.3879540
v 0.8844100 1.4144530 1.7058769
vn 0.8089497 0.0128698 0.5877370
vt 0.4369889 0.3762923
v 0.8648752 3.2904959 1.6916841
vn 0.8089517 0.0128698 0.5877343
vt 0.1508217 0.3826249
v 0.9004326 1.4144530 1.6565645
vn 0.9999172 0.0128698 0.0000003
vt 0.4369889 0.3688075
v 0.8762862 3.2904959 1.6565645
vn 0.9999172 0.0128699 -0.0000019
vt 0.1508217 0.3772953
v 0.8844100 1.4144530 1.6072519
vn 0.8089502 0.0128699 -0.5877363
vt 0.4369889 0.3613207
v 0.8648751 3.2904959 1.6214449
vn 0.8089508 0.0128699 -0.5877355
vt 0.1508217 0.3719624
v 0.8424624 1.4144530 1.5767752
vn 0.3089913 0.0128699 -0.9509778
vt 0.4369889 0.3538350
v 0.8350007 3.2904959 1.5997397
vn 0.3089939 0.0128698 -0.9509770
vt 0.1508217 0.3666284
v 0.7906120 1.4144530 1.5767752
vn -0.3089906 0.0128698 -0.9509780
vt 0.4369889 0.3463463
v 0.7980738 3.2904959 1.5997397
vn -0.3089931 0.0128699 -0.9509772
vt 0.1508217 0.3612948
v 0.7906120 1.4144530 1.5767752
vn -0.3089906 0.0128698 -0.9509780
vt 0.4369889 0.4211419
v 0.7486644 1.4144530 1.6072519
vn -0.8089503 0.0128699 -0.5877361
vt 0.4369889 0.4136796
v 0.7980738 3.2904959 1.5997397
vn -0.3089931 0.0128699 -0.9509772
vt 0.1508217 0.4145535
v 0.7681993 3.2904959 1.6214449
vn -0.8089515 0.0128699 -0.5877346
vt 0.1508217 0.4092381
v 0.7326419 1.4144530 1.6565645
vn -0.9999172 0.0128699 0.0000003
vt 0.4369889 0.4062125
v 0.7567883 3.2904959 1.6565645
vn -0.9999172 0.0128698 -0.0000005
vt 0.1508217 0.4039192
v 0.7778895 3.2904959 1.6846431
vn 0.7904965 0.2127804 -0.5743168
vt 0.9879340 0.3940870
v 0.8017752 3.2904959 1.7019979
vn 0.3019528 0.2127832 -0.9292728
vt 0.9880190 0.3995000
v 0.8165373 3.0711298 1.6565645
vn 0.0000028 1.0000000 0.0000075
vt 0.9476290 0.3981840
v 0.8312994 3.2904959 1.7019979
vn -0.3019534 0.2127832 -0.9292726
vt 0.9874060 0.4048900
v 0.8551850 3.2904959 1.6846431
vn -0.7904963 0.2127802 -0.5743172
vt 0.9861050 0.4101650
v 0.8643084 3.2904959 1.6565645
vn -0.9770998 0.2127815 -0.0000068
vt 0.9841380 0.4152320
v 0.8551849 3.2904959 1.6284847
vn -0.7904891 0.2127829 0.5743260
vt 0.9815410 0.4200040
v 0.8312994 3.2904959 1.6111312
vn -0.3019368 0.2127827 0.9292781
vt 0.9783560 0.4243990
v 0.8312994 3.2904959 1.6111312
vn -0.3019368 0.2127827 0.9292781
vt 0.9808160 0.3740520
v 0.8017752 3.2904959 1.6111312
vn 0.3019352 0.2127827 0.9292786
vt 0.9835620 0.3786400
v 0.7778895 3.2904959 1.6284847
vn 0.7904897 0.2127835 0.5743251
vt 0.9856860 0.3835660
v 0.7687662 3.2904959 1.6565645
vn 0.9770998 0.2127815 -0.0000086
vt 0.9871510 0.3887450
v 0.7681993 3.2904959 1.6916841
vn -0.0000246 1.0000000 0.0000339
vt 0.6152890 0.2722590
v 0.7980738 3.2904959 1.7133894
vn 0.0000054 1.0000000 0.0000128
vt 0.6199470 0.2786710
v 0.7778895 3.2904959 1.6846431
vn -0.0000175 1.0000000 0.0000288
vt 0.6137770 0.2743390
v 0.8017752 3.2904959 1.7019979
vn 0.0000162 1.0000000 0.0000052
vt 0.6175020 0.2794650
v 0.7980738 3.2904959 1.7133894
vn 0.0000000 1.0000000 0.0000000
vt 0.6199470 0.2786710
v 0.8350007 3.2904959 1.7133894
vn 0.0000000 1.0000000 0.0000000
vt 0.6199470 0.2865970
v 0.8017752 3.2904959 1.7019979
vn 0.0000000 1.0000000 0.0000000
vt 0.6175020 0.2794650
v 0.8312994 3.2904959 1.7019979
vn 0.0000000 1.0000000 0.0000000
vt 0.6175020 0.2858030
v 0.8350007 3.2904959 1.7133894
vn 0.0000000 1.0000000 0.0000000
vt 0.6199470 0.2865970
v 0.8648752 3.2904959 1.6916841
vn 0.0000108 1.0000000 0.0000351
vt 0.6152890 0.2930090
v 0.8551850 3.2904959 1.6846431
vn 0.0000146 1.0000000 0.0000476
vt 0.6137770 0.2909300
v 0.8648752 3.2904959 1.6916841
vn 0.0000398 1.0000000 0.0000129
vt 0.6152890 0.2930090
v 0.8762862 3.2904959 1.6565645
vn 0.0000105 1.0000000 -0.0000091
vt 0.6077500 0.2954590
v 0.8551850 3.2904959 1.6846431
vn 0.0000328 1.0000000 0.0000077
vt 0.6137770 0.2909300
v 0.8643084 3.2904959 1.6565645
vn 0.0000000 1.0000000 -0.0000170
vt 0.6077500 0.2928880
v 0.8762862 3.2904959 1.6565645
vn 0.0000000 1.0000000 0.0000000
vt 0.6077500 0.2954590
v 0.8648751 3.2904959 1.6214449
vn 0.0000000 1.0000000 0.0000000
vt 0.6002120 0.2930090
v 0.8643084 3.2904959 1.6565645
vn 0.0000000 1.0000000 0.0000000
vt 0.6077500 0.2928880
v 0.8551849 3.2904959 1.6284847
vn 0.0000000 1.0000000 0.0000000
vt 0.6017230 0.2909290
v 0.8648751 3.2904959 1.6214449
vn 0.0000000 1.0000000 0.0000000
vt 0.6002120 0.2930090
v 0.8350007 3.2904959 1.5997397
vn 0.0000000 1.0000000 0.0000000
vt 0.5955540 0.2865970
v 0.8551849 3.2904959 1.6284847
vn 0.0000000 1.0000000 0.0000000
vt 0.6017230 0.2909290
v 0.8312994 3.2904959 1.6111312
vn 0.0000000 1.0000000 0.0000000
vt 0.5979980 0.2858030
v 0.7980738 3.2904959 1.5997397
vn 0.0000000 1.0000000 0.0000000
vt 0.5955540 0.2786710
v 0.8017752 3.2904959 1.6111312
vn 0.0000000 1.0000000 0.0000000
vt 0.5979980 0.2794650
v 0.7980738 3.2904959 1.5997397
vn 0.0000000 1.0000000 0.0000000
vt 0.5955540 0.2786710
v 0.7681993 3.2904959 1.6214449
vn 0.0000000 1.0000000 0.0000000
vt 0.6002120 0.2722590
v 0.8017752 3.2904959 1.6111312
vn 0.0000000 1.0000000 0.0000000
vt 0.5979980 0.2794650
v 0.7778895 3.2904959 1.6284847
vn 0.0000000 1.0000000 0.0000000
vt 0.6017230 0.2743390
v 0.7681993 3.2904959 1.6214449
vn 0.0000000 1.0000000 0.0000000
vt 0.6002120 0.2722590
v 0.7567883 3.2904959 1.6565645
vn 0.0000000 1.0000000 0.0000000
vt 0.6077500 0.2698090
v 0.7778895 3.2904959 1.6284847
vn 0.0000000 1.0000000 0.0000000
vt 0.6017230 0.2743390
v 0.7687662 3.2904959 1.6565645
vn 0.0000000 1.0000000 0.0000000
vt 0.6077500 0.2723800
v 0.7567883 3.2904959 1.6565645
vn 0.0000000 1.0000000 0.0000000
vt 0.6077500 0.2698090
v 0.7681993 3.2904959 1.6916841
vn -0.0000367 1.0000000 -0.0000006
vt 0.6152890 0.2722590
v 0.7687662 3.2904959 1.6565645
vn -0.0000087 1.0000000 -0.0000001
vt 0.6077500 0.2723800
v 0.7778895 3.2904959 1.6846431
vn -0.0000498 1.0000000 -0.0000008
vt 0.6137770 0.2743390
v 0.6781546 1.1535031 1.3474745
vn -0.8227061 0.1756661 -0.5406440
vt 0.9898510 0.0882790
v 0.6781546 1.3278978 1.4041388
vn -0.8332033 0.2924217 -0.4693206
vt 0.9677090 0.0956120
v 0.7150296 1.1535031 1.2913612
vn -0.4219065 0.2801667 -0.8622653
vt 0.9898510 0.0765960
v 0.7150296 1.3608809 1.3587422
vn -0.4450858 0.4853292 -0.7525651
vt 0.9604150 0.0861600
v 0.6781546 1.3925962 1.4714386
vn -0.8227068 0.4600503 -0.3339271
vt 0.9593360 0.1043210
v 0.6781546 1.4356802 1.5524881
vn -0.8322646 0.5295897 -0.1639220
vt 0.9537610 0.1148090
v 0.7150296 1.4360883 1.4405074
vn -0.4537667 0.7217368 -0.5226775
vt 0.9497400 0.0977660
v 0.7150296 1.4890466 1.5351484
vn -0.4504601 0.8521639 -0.2662752
vt 0.9422230 0.1111990
v 0.6781546 1.4465455 1.6485672
vn -0.8227241 0.5684340 0.0028063
vt 0.9523550 0.1272430
v 0.6781546 1.4356802 1.7358580
vn -0.8324273 0.5262842 0.1734645
vt 0.9537610 0.1385380
v 0.7150296 1.4999125 1.6493982
vn -0.4553086 0.8903224 0.0044751
vt 0.9406810 0.1274160
v 0.7150296 1.4890466 1.7531979
vn -0.4498837 0.8484996 0.2786632
vt 0.9422230 0.1421490
v 0.6781546 1.3878052 1.8209925
vn -0.8227320 0.4577473 0.3370157
vt 0.9599570 0.1495550
v 0.6781546 1.3278978 1.8842070
vn -0.8333972 0.2937693 0.4681333
vt 0.9677090 0.1577360
v 0.7150296 1.4304196 1.8531324
vn -0.4549433 0.7171441 0.5279498
vt 0.9505450 0.1563330
v 0.7150296 1.3608803 1.9296036
vn -0.4448146 0.4874743 0.7513380
vt 0.9604150 0.1671880
v 0.6781546 1.1535029 1.9408714
vn -0.8227057 0.1756660 0.5406449
vt 0.9898510 0.1650680
v 0.7150296 1.1535029 1.9969845
vn -0.4219059 0.2801668 0.8622656
vt 0.9898510 0.1767520
v 0.6781546 1.1535031 1.3474745
vn -1.0000000 0.0000000 0.0000000
vt 0.9898510 0.0882790
v 0.6781546 1.1535029 1.9408714
vn -1.0000000 0.0000000 0.0000000
vt 0.9898510 0.1650680
v 0.6781546 1.3278978 1.4041388
vn -1.0000000 0.0000000 0.0000000
vt 0.9677090 0.0956120
v 0.6781546 1.3278978 1.8842070
vn -1.0000000 0.0000000 0.0000000
vt 0.9677090 0.1577360
v 0.6781546 1.3878052 1.8209925
vn -1.0000000 0.0000000 0.0000000
vt 0.9599570 0.1495550
v 0.6781546 1.4356802 1.7358580
vn -1.0000000 0.0000000 0.0000000
vt 0.9537610 0.1385380
v 0.6781546 1.4465455 1.6485672
vn -1.0000000 0.0000000 0.0000000
vt 0.9523550 0.1272430
v 0.6781546 1.3925962 1.4714386
vn -1.0000000 0.0000000 0.0000000
vt 0.9593360 0.1043210
v 0.6781546 1.4356802 1.5524881
vn -1.0000000 0.0000000 0.0000000
vt 0.9537610 0.1148090
v 0.9631530 1.1535029 1.9408714
vn 1.0000000 0.0000000 0.0000000
vt 0.9898510 0.1650680
v 0.9631530 1.1535031 1.3474745
vn 1.0000000 0.0000000 0.0000000
vt 0.9898510 0.0882790
v 0.9631530 1.3278978 1.8842070
vn 1.0000000 0.0000000 0.0000000
vt 0.9679930 0.1577360
v 0.9631530 1.3278978 1.4041388
vn 1.0000000 0.0000000 0.0000000
vt 0.9679930 0.0956120
v 0.9631530 1.3925962 1.4714386
vn 1.0000000 0.0000000 0.0000000
vt 0.9596200 0.1043210
v 0.9631530 1.3878052 1.8209925
vn 1.0000000 0.0000000 0.0000000
vt 0.9602400 0.1495550
v 0.9631530 1.4356802 1.5524881
vn 1.0000000 0.0000000 0.0000000
vt 0.9540450 0.1148090
v 0.9631530 1.4465455 1.6485672
vn 1.0000000 0.0000000 0.0000000
vt 0.9526390 0.1272430
v 0.9631530 1.4356802 1.7358580
vn 1.0000000 0.0000000 0.0000000
vt 0.9540450 0.1385380
v 0.9185095 1.4890466 1.7531979
vn 0.4130140 0.8652575 0.2841638
vt 0.9425350 0.1421490
v 0.9631530 1.4356802 1.7358580
vn 0.7783726 0.5962520 0.1965188
vt 0.9540450 0.1385380
v 0.9185095 1.4999125 1.6493982
vn 0.4161800 0.9092708 0.0045716
vt 0.9409930 0.1274160
v 0.9631530 1.4465455 1.6485672
vn 0.7670317 0.6416012 0.0031996
vt 0.9526390 0.1272430
v 0.9185095 1.4890466 1.5351484
vn 0.4135084 0.8690590 -0.2715646
vt 0.9425350 0.1111990
v 0.9631530 1.4356802 1.5524881
vn 0.7781668 0.5999611 -0.1857505
vt 0.9540450 0.1148090
v 0.9185095 1.4360883 1.4405074
vn 0.4149772 0.7368904 -0.5336539
vt 0.9500520 0.0977660
v 0.9631530 1.3925962 1.4714386
vn 0.7670112 0.5192843 -0.3768788
vt 0.9596200 0.1043210
v 0.9185095 1.1535031 1.2913612
vn 0.3873161 0.2848969 -0.8768238
vt 0.9898510 0.0765960
v 0.9185095 1.3608809 1.3587422
vn 0.4088199 0.4946647 -0.7669245
vt 0.9607270 0.0861600
v 0.9631530 1.1535031 1.3474745
vn 0.7670106 0.1982758 -0.6102307
vt 0.9898510 0.0882790
v 0.9631530 1.3278978 1.4041388
vn 0.7794130 0.3315942 -0.5315645
vt 0.9679930 0.0956120
v 0.9185095 1.3608803 1.9296036
vn 0.4085914 0.4968297 0.7656458
vt 0.9607270 0.1671880
v 0.9185095 1.1535029 1.9969845
vn 0.3873157 0.2848972 0.8768240
vt 0.9898510 0.1767520
v 0.9631530 1.3278978 1.8842070
vn 0.7796593 0.3331234 0.5302455
vt 0.9679930 0.1577360
v 0.9631530 1.1535029 1.9408714
vn 0.7670095 0.1982764 0.6102318
vt 0.9898510 0.1650680
v 0.9185095 1.4304196 1.8531324
vn 0.4158973 0.7323562 0.5391511
vt 0.9508560 0.1563330
v 0.9631530 1.3878052 1.8209925
vn 0.7670412 0.5166470 0.3804258
vt 0.9602400 0.1495550
v 0.7150296 1.4999125 1.6493982
vn -0.4553086 0.8903224 0.0044751
vt 0.5994490 0.3466280
v 0.7150296 1.4890466 1.7531979
vn -0.4498837 0.8484996 0.2786632
vt 0.5851620 0.3466280
v 0.9185095 1.4999125 1.6493982
vn 0.4161800 0.9092708 0.0045716
vt 0.5994490 0.3186220
v 0.9185095 1.4890466 1.7531979
vn 0.4130140 0.8652575 0.2841638
vt 0.5851620 0.3186220
v 0.7150296 1.4360883 1.4405074
vn -0.4537667 0.7217368 -0.5226775
vt 0.6281990 0.3466280
v 0.7150296 1.4890466 1.5351484
vn -0.4504601 0.8521639 -0.2662752
vt 0.6151730 0.3466280
v 0.9185095 1.4360883 1.4405074
vn 0.4149772 0.7368904 -0.5336539
vt 0.6281990 0.3186220
v 0.9185095 1.4890466 1.5351484
vn 0.4135084 0.8690590 -0.2715646
vt 0.6151740 0.3186220
v 0.7150296 1.1535031 1.2913612
vn -0.4219065 0.2801667 -0.8622653
vt 0.6679960 0.3466280
v 0.7150296 1.3608809 1.3587422
vn -0.4450858 0.4853292 -0.7525651
vt 0.6394530 0.3466280
v 0.9185095 1.1535031 1.2913612
vn 0.3873161 0.2848969 -0.8768238
vt 0.6679960 0.3186220
v 0.9185095 1.3608809 1.3587422
vn 0.4088199 0.4946647 -0.7669245
vt 0.6394530 0.3186220
v 0.7150296 1.3608803 1.9296036
vn -0.4448146 0.4874743 0.7513380
vt 0.5608830 0.3466280
v 0.7150296 1.1535029 1.9969845
vn -0.4219059 0.2801668 0.8622656
vt 0.5323400 0.3466290
v 0.9185095 1.3608803 1.9296036
vn 0.4085914 0.4968297 0.7656458
vt 0.5608820 0.3186220
v 0.9185095 1.1535029 1.9969845
vn 0.3873157 0.2848972 0.8768240
vt 0.5323390 0.3186230
v 0.7150296 1.4304196 1.8531324
vn -0.4549433 0.7171441 0.5279498
vt 0.5714080 0.3466280
v 0.9185095 1.4304196 1.8531324
vn 0.4158973 0.7323562 0.5391511
vt 0.5714080 0.3186220
v 0.8165373 3.0711298 1.6565645
vn 0.0000028 1.0000000 0.0000075
vt 0.9476290 0.3981840
v 0.8165373 3.0711298 1.6565645
vn 0.0000028 1.0000000 0.0000075
vt 0.9476290 0.3981840
v 0.8165373 3.0711298 1.6565645
vn 0.0000028 1.0000000 0.0000075
vt 0.9476290 0.3981840
v 0.8165373 3.0711298 1.6565645
vn 0.0000028 1.0000000 0.0000075
vt 0.9476290 0.3981840
v 0.8165373 3.0711298 1.6565645
vn 0.0000028 1.0000000 0.0000075
vt 0.9476290 0.3981840
v 0.8165373 3.0711298 1.6565645
vn 0.0000028 1.0000000 0.0000075
vt 0.9476290 0.3981840
v 0.8165373 3.0711298 1.6565645
vn 0.0000028 1.0000000 0.0000075
vt 0.9476290 0.3981840

g group_65152048_140627854004432
f 1/1/1 2/2/2 3/3/3 
f 3/3/3 2/2/2 4/4/4 
f 2/2/2 5/5/5 4/4/4 
f 4/4/4 5/5/5 6/6/6 
f 5/5/5 7/7/7 6/6/6 
f 6/6/6 7/7/7 8/8/8 
f 7/7/7 9/9/9 8/8/8 
f 8/8/8 9/9/9 10/10/10 
f 9/9/9 11/11/11 10/10/10 
f 10/10/10 11/11/11 12/12/12 
f 11/11/11 13/13/13 12/12/12 
f 12/12/12 13/13/13 14/14/14 
f 13/13/13 15/15/15 14/14/14 
f 14/14/14 15/15/15 16/16/16 
f 17/17/17 18/18/18 19/19/19 
f 19/19/19 18/18/18 20/20/20 
f 18/18/18 21/21/21 20/20/20 
f 20/20/20 21/21/21 22/22/22 
f 21/21/21 1/1/1 22/22/22 
f 22/22/22 1/1/1 3/3/3 
f 23/23/23 24/24/24 25/25/25 
f 24/24/24 26/26/26 25/25/25 
f 26/26/26 27/27/27 25/25/25 
f 27/27/27 28/28/28 144/144/144 
f 28/28/28 29/29/29 145/145/145 
f 29/29/29 30/30/30 146/146/146 
f 31/31/31 32/32/32 147/147/147 
f 32/32/32 33/33/33 148/148/148 
f 33/33/33 34/34/34 149/149/149 
f 34/34/34 23/23/23 150/150/150 
f 35/35/35 36/36/36 37/37/37 
f 37/37/37 36/36/36 38/38/38 
f 39/39/39 40/40/40 41/41/41 
f 41/41/41 40/40/40 42/42/42 
f 43/43/43 44/44/44 42/42/42 
f 42/42/42 44/44/44 45/45/45 
f 46/46/46 47/47/47 48/48/48 
f 48/48/48 47/47/47 49/49/49 
f 50/50/50 51/51/51 52/52/52 
f 52/52/52 51/51/51 53/53/53 
f 54/54/54 55/55/55 56/56/56 
f 56/56/56 55/55/55 57/57/57 
f 55/55/55 58/58/58 57/57/57 
f 57/57/57 58/58/58 59/59/59 
f 60/60/60 61/61/61 62/62/62 
f 62/62/62 61/61/61 63/63/63 
f 64/64/64 65/65/65 66/66/66 
f 66/66/66 65/65/65 67/67/67 
f 68/68/68 69/69/69 70/70/70 
f 70/70/70 69/69/69 71/71/71 
f 72/72/72 73/73/73 74/74/74 
f 74/74/74 73/73/73 75/75/75 
f 76/76/76 77/77/77 78/78/78 
f 78/78/78 77/77/77 79/79/79 
f 80/80/80 81/81/81 82/82/82 
f 82/82/82 81/81/81 83/83/83 
f 84/84/84 85/85/85 86/86/86 
f 86/86/86 85/85/85 87/87/87 
f 85/85/85 88/88/88 87/87/87 
f 87/87/87 88/88/88 89/89/89 
f 90/90/90 91/91/91 92/92/92 
f 91/91/91 93/93/93 92/92/92 
f 93/93/93 94/94/94 92/92/92 
f 94/94/94 95/95/95 92/92/92 
f 95/95/95 96/96/96 92/92/92 
f 92/92/92 96/96/96 97/97/97 
f 96/96/96 98/98/98 97/97/97 
f 99/99/99 100/100/100 101/101/101 
f 100/100/100 102/102/102 101/101/101 
f 102/102/102 103/103/103 101/101/101 
f 101/101/101 103/103/103 104/104/104 
f 103/103/103 105/105/105 104/104/104 
f 105/105/105 106/106/106 104/104/104 
f 106/106/106 107/107/107 104/104/104 
f 108/108/108 109/109/109 110/110/110 
f 110/110/110 109/109/109 111/111/111 
f 112/112/112 113/113/113 114/114/114 
f 114/114/114 113/113/113 115/115/115 
f 116/116/116 117/117/117 118/118/118 
f 118/118/118 117/117/117 119/119/119 
f 120/120/120 121/121/121 122/122/122 
f 122/122/122 121/121/121 123/123/123 
f 120/120/120 122/122/122 124/124/124 
f 124/124/124 122/122/122 125/125/125 
f 126/126/126 127/127/127 128/128/128 
f 128/128/128 127/127/127 129/129/129 
f 130/130/130 131/131/131 132/132/132 
f 132/132/132 131/131/131 133/133/133 
f 134/134/134 135/135/135 136/136/136 
f 136/136/136 135/135/135 137/137/137 
f 138/138/138 139/139/139 140/140/140 
f 140/140/140 139/139/139 141/141/141 
f 142/142/142 138/138/138 143/143/143 
f 143/143/143 138/138/138 140/140/140 
f 112/112/112 110/110/110 113/113/113 
f 113/113/113 110/110/110 111/111/111 
f 131/131/131 126/126/126 133/133/133 
f 133/133/133 126/126/126 128/128/128 
f 80/80/80 82/82/82 77/77/77 
f 77/77/77 82/82/82 79/79/79 
f 108/108/108 124/124/124 109/109/109 
f 109/109/109 124/124/124 125/125/125 
f 127/127/127 142/142/142 129/129/129 
f 129/129/129 142/142/142 143/143/143 
f 84/84/84 86/86/86 81/81/81 
f 81/81/81 86/86/86 83/83/83 
f 117/117/117 114/114/114 119/119/119 
f 119/119/119 114/114/114 115/115/115 
f 135/135/135 130/130/130 137/137/137 
f 137/137/137 130/130/130 132/132/132 
f 76/76/76 78/78/78 73/73/73 
f 73/73/73 78/78/78 75/75/75 
