v 0.6940563 1.3459456 1.2798018
vn -0.3234244 0.9462527 -0.0015958
vt 0.7677113 0.3004356
v 0.5960940 1.3124626 1.2798018
vn -0.3235477 0.9462106 -0.0015777
vt 0.7808326 0.3004332
v 0.6904955 1.3459455 2.0014038
vn -0.3246328 0.9458390 -0.0014185
vt 0.7681815 0.3955775
v 0.5898525 1.3113883 2.0014038
vn -0.3247530 0.9457979 -0.0014009
vt 0.7816734 0.3955752
v 0.6904955 1.3459455 2.0014038
vn -0.0099860 0.9999502 0.0000928
vt 0.7681815 0.3955775
v 0.9535748 1.3485727 2.0014038
vn -0.0099860 0.9999502 0.0000928
vt 0.7318915 0.3955776
v 0.9468801 1.3485729 1.2798017
vn -0.0099860 0.9999502 0.0000928
vt 0.7327759 0.3004356
v 0.9468801 1.3485729 1.2798017
vn -0.0103911 0.9999460 -0.0000511
vt 0.7327759 0.3004356
v 0.6940563 1.3459456 1.2798018
vn -0.0103911 0.9999460 -0.0000511
vt 0.7677113 0.3004356
v 0.6904955 1.3459455 2.0014038
vn -0.0103911 0.9999460 -0.0000511
vt 0.7681815 0.3955775
v 0.5960940 1.3124626 1.2798018
vn -0.5850125 0.8110151 -0.0038527
vt 0.7808326 0.3004332
v 0.4998589 1.2432133 1.3152409
vn -0.5839917 0.8117495 -0.0040596
vt 0.7967325 0.2994778
v 0.5898525 1.3113883 2.0014038
vn -0.5750064 0.8181279 -0.0058718
vt 0.7816734 0.3955752
v 0.4906887 1.2421392 2.0368428
vn -0.5739911 0.8188390 -0.0060756
vt 0.7966090 0.4004601
v 1.0214635 1.3022450 1.2798018
vn 0.7095668 0.7045916 -0.0081046
vt 0.7233180 0.3004312
v 1.0314476 1.3004907 2.0014038
vn 0.6911688 0.7225953 -0.0119076
vt 0.7219609 0.3955730
v 1.0989932 1.2245755 1.3152409
vn 0.7078646 0.7062975 -0.0084609
vt 0.7016485 0.3050773
v 1.1136624 1.2228217 2.0368431
vn 0.6894603 0.7242199 -0.0122555
vt 0.7016432 0.4001636
v 0.9468801 1.3485729 1.2798017
vn 0.5276417 0.8494530 -0.0048951
vt 0.7327759 0.3004356
v 0.9535748 1.3485727 2.0014038
vn 0.5255355 0.8507560 -0.0051769
vt 0.7318915 0.3955776
v 1.0214635 1.3022450 1.2798018
vn 0.5274599 0.8495657 -0.0049194
vt 0.7233180 0.3004312
v 1.0314476 1.3004907 2.0014038
vn 0.5253602 0.8508641 -0.0052003
vt 0.7219609 0.3955730

g group_17530712_140627854344608
f 1/1/1 2/2/2 3/3/3 
f 3/3/3 2/2/2 4/4/4 
f 5/5/5 6/6/6 7/7/7 
f 8/8/8 9/9/9 10/10/10 
f 11/11/11 12/12/12 13/13/13 
f 13/13/13 12/12/12 14/14/14 
f 15/15/15 16/16/16 17/17/17 
f 17/17/17 16/16/16 18/18/18 
f 19/19/19 20/20/20 21/21/21 
f 21/21/21 20/20/20 22/22/22 
