v -1.5914700 2.4659741 0.0002948
vn 0.0000000 -0.0009057 -0.9999996
vt 0.4452109 4.5284019
v -0.7314700 2.4659741 0.0002948
vn 0.0000000 -0.0009057 -0.9999996
vt 0.8108706 4.5298810
v -0.7620016 -4.0759420 0.0061664
vn -0.0439599 -0.3077298 -0.9504578
vt 0.8108704 1.5204901
v -1.6133450 -3.9542310 0.0061664
vn -0.0439599 -0.3077298 -0.9504578
vt 0.4452108 1.5644950
v -1.6425070 -4.1582069 0.1568042
vn -0.1253489 -0.8767896 -0.4642496
vt 0.4456635 1.3549370
v -0.7911629 -4.2799182 0.1568042
vn -0.1253489 -0.8767896 -0.4642496
vt 0.8113232 1.3564160
v -1.6432730 -4.1635652 0.3645068
vn -0.1293695 -0.9049121 0.4054597
vt 0.4456635 1.2438790
v -0.7919289 -4.2852759 0.3645068
vn -0.1293695 -0.9049121 0.4054597
vt 0.8113232 1.2453589
v -0.7608268 -4.0677242 0.5533154
vn -0.0466732 -0.3027239 0.9519348
vt 0.8113232 1.1669270
v -1.6121700 -3.9460130 0.5533154
vn -0.0466732 -0.3027239 0.9519348
vt 0.4456635 1.1654470
v -0.7314700 -3.5049269 0.5092731
vn 0.0033307 -0.2853043 0.9584312
vt 0.8113232 0.8950216
v -1.5914700 -3.5049269 0.5092731
vn 0.0033307 -0.2853043 0.9584312
vt 0.4456635 0.8935423
v -0.7314700 -2.8534589 1.0210220
vn 0.0000000 -0.6177323 0.7863885
vt 0.8113232 0.4620656
v -1.5914700 -2.8534589 1.0210220
vn 0.0000000 -0.6177323 0.7863885
vt 0.4456635 0.4605864
v -1.5914700 4.3114591 0.9892484
vn 0.0000000 0.9952004 0.0978582
vt 0.4456635 -2.6792431
v -0.7314700 4.3114591 0.9892480
vn 0.0000000 0.9952004 0.0978582
vt 0.8122724 -2.6792431
v -0.7314700 4.3545461 0.5510675
vn 0.0000000 0.9999535 -0.0096474
vt 0.8122725 -2.9008629
v -1.5914700 4.3545461 0.5510675
vn 0.0000000 0.9999535 -0.0096474
vt 0.4456635 -2.9008629
v -0.7314700 4.3231559 0.2847119
vn 0.0135467 0.9056312 -0.4238499
vt 0.8122725 -3.0130167
v -1.5914700 4.3231549 0.2847119
vn 0.0135467 0.9056312 -0.4238499
vt 0.4456635 -3.0130167
v -0.7436968 4.0803351 0.0600543
vn 0.0277261 0.4683890 -0.8830872
vt 0.8122725 -3.1292310
v -1.6015410 4.1411929 0.0600543
vn 0.0277261 0.4683890 -0.8830872
vt 0.4456635 -3.1292319
v -0.8331056 3.7285590 0.0131863
vn 0.0102601 0.0697799 -0.9975097
vt 0.8122725 -3.2763081
v -1.6511340 3.9453290 0.0131863
vn 0.0102601 0.0697799 -0.9975097
vt 0.4456635 -3.2763081
v -0.9565409 3.3535690 0.0223975
vn -0.0064128 -0.0230884 -0.9997129
vt 0.8122726 -3.4477558
v -1.7824240 3.5933969 0.0223975
vn -0.0064128 -0.0230884 -0.9997129
vt 0.4456635 -3.4477558
v -0.6159413 2.4523680 0.1195209
vn 0.0000000 -0.0003662 0.9999999
vt -0.0084122 4.5284019
v -1.7074569 2.4523671 0.1195209
vn 0.0000000 -0.0003662 0.9999999
vt 0.3941543 4.5284019
v -1.7217129 -3.8926830 0.1171683
vn 0.0402381 0.2813606 0.9587581
vt 0.3941542 1.5744420
v -0.6411832 -4.0471601 0.1171683
vn 0.0402381 0.2813606 0.9587581
vt 0.0021995 1.4939660
v -0.6616685 -4.1904492 0.2113324
vn 0.1254672 0.8776136 0.4626580
vt 0.0030990 1.3578950
v -1.7421980 -4.0359721 0.2113324
vn 0.1254672 0.8776136 0.4626580
vt 0.3950537 1.3578950
v -0.6611081 -4.1865301 0.3348102
vn 0.1251963 0.8757183 -0.4663082
vt 0.0030990 1.2468380
v -1.7416379 -4.0320530 0.3348102
vn 0.1251963 0.8757183 -0.4663082
vt 0.3950537 1.2468380
v -1.7212681 -3.8895700 0.4403326
vn 0.0415478 0.2686154 -0.9623511
vt 0.3950537 1.1684060
v -0.6407382 -4.0440469 0.4403329
vn 0.0415478 0.2686154 -0.9623511
vt 0.0030990 1.1684060
v -1.7074569 -3.4589701 0.3984216
vn -0.0031552 0.3041261 -0.9526266
vt 0.3950537 0.8965008
v -0.6159412 -3.4589710 0.3984216
vn -0.0031552 0.3041261 -0.9526266
vt 0.0030990 0.8965008
v -1.7074569 -2.8620870 0.9013321
vn 0.0000000 0.6443394 -0.7647397
vt 0.3950537 0.4635449
v -0.6159412 -2.8620870 0.9013321
vn 0.0000000 0.6443394 -0.7647397
vt 0.0030990 0.4635449
v -0.6159412 4.1985559 0.9485944
vn 0.0000000 -0.9931553 -0.1168014
vt 0.0036877 -2.6792431
v -1.7074569 4.1985550 0.9485944
vn 0.0000000 -0.9931553 -0.1168014
vt 0.3949119 -2.6792431
v -1.7074569 4.2408080 0.5893250
vn 0.0000000 -0.9998847 -0.0151847
vt 0.3949119 -2.9008629
v -0.6159412 4.2408080 0.5893250
vn 0.0000000 -0.9998847 -0.0151847
vt 0.0036877 -2.9008629
v -1.7074569 4.2196021 0.3453485
vn -0.0170083 -0.9090355 0.4163715
vt 0.3949119 -3.0130167
v -0.6159412 4.2196031 0.3453485
vn -0.0170083 -0.9090355 0.4163715
vt 0.0036877 -3.0130167
v -1.7240350 4.0955148 0.1671399
vn -0.0312362 -0.4493444 0.8928124
vt 0.3949119 -3.1292310
v -0.6371333 3.9980271 0.1671399
vn -0.0312362 -0.4493444 0.8928124
vt 0.0036877 -3.1292310
v -1.7722420 3.9318480 0.1272223
vn -0.0089327 -0.0520544 0.9986043
vt 0.3949119 -3.2763081
v -0.7629150 3.6060719 0.1272223
vn -0.0089327 -0.0520544 0.9986043
vt 0.0036877 -3.2763081
v -1.9027070 3.5951030 0.1380780
vn 0.0092295 0.0301351 0.9995033
vt 0.3949119 -3.4477558
v -0.8544928 3.2907109 0.1380780
vn 0.0092295 0.0301351 0.9995033
vt 0.0036877 -3.4477558
v -0.7620016 -4.0759420 0.0061664
vn 0.6874430 -0.2637140 -0.6766662
vt 0.8108704 1.5204901
v -0.7314700 2.4659741 0.0002948
vn 0.6978742 -0.0031778 -0.7162133
vt 0.8108706 4.5298810
v -0.6159413 2.4523680 0.1195209
vn 0.6978742 -0.0031778 -0.7162133
vt 0.8619270 4.5313611
v -0.6411832 -4.0471601 0.1171683
vn 0.6874430 -0.2637140 -0.6766662
vt 0.8619270 1.5345980
v -1.7217129 -3.8926830 0.1171683
vn -0.7404430 -0.1564019 -0.6536686
vt 0.3941542 1.5744420
v -1.7074569 2.4523671 0.1195209
vn -0.7159905 0.0018341 -0.6981077
vt 0.3941543 4.5284019
v -1.5914700 2.4659741 0.0002948
vn -0.7159905 0.0018341 -0.6981077
vt 0.4452109 4.5284019
v -1.6133450 -3.9542310 0.0061664
vn -0.7404430 -0.1564019 -0.6536686
vt 0.4452108 1.5644950
v -0.6616685 -4.1904492 0.2113324
vn 0.6440170 -0.6974412 -0.3143532
vt 0.8623798 1.3578950
v -0.7911629 -4.2799182 0.1568042
vn 0.6440170 -0.6974412 -0.3143532
vt 0.8113232 1.3564160
v -1.7421980 -4.0359721 0.2113324
vn -0.8125017 -0.4905091 -0.3150269
vt 0.3946069 1.3549370
v -1.6425070 -4.1582069 0.1568042
vn -0.8125017 -0.4905091 -0.3150269
vt 0.4456635 1.3549370
v -0.7919289 -4.2852759 0.3645068
vn 0.6245799 -0.7202695 0.3018473
vt 0.8113232 1.2453589
v -0.6611081 -4.1865301 0.3348102
vn 0.6245799 -0.7202695 0.3018473
vt 0.8623798 1.2468380
v -1.6432730 -4.1635652 0.3645068
vn -0.8002043 -0.5178787 0.3024480
vt 0.4456635 1.2438790
v -1.7416379 -4.0320530 0.3348102
vn -0.8002043 -0.5178787 0.3024480
vt 0.3946069 1.2438790
v -0.7608268 -4.0677242 0.5533154
vn 0.6735415 -0.2802158 0.6839744
vt 0.8113232 1.1669270
v -0.6407382 -4.0440469 0.4403329
vn 0.6735415 -0.2802158 0.6839744
vt 0.8623798 1.1684060
v -1.6121700 -3.9460130 0.5533154
vn -0.7265249 -0.1386165 0.6730134
vt 0.4456635 1.1654470
v -1.7212681 -3.8895700 0.4403326
vn -0.7265249 -0.1386165 0.6730134
vt 0.3946069 1.1654470
v -0.7314700 -3.5049269 0.5092731
vn 0.6957862 -0.2340836 0.6790335
vt 0.8113232 0.8950216
v -0.6159412 -3.4589710 0.3984216
vn 0.6957862 -0.2340836 0.6790335
vt 0.8623798 0.8965008
v -1.7074569 -3.4589701 0.3984216
vn -0.6994712 -0.1971207 0.6869377
vt 0.3946069 0.8935423
v -1.5914700 -3.5049269 0.5092731
vn -0.6994712 -0.1971207 0.6869377
vt 0.4456635 0.8935423
v -0.7314700 -2.8534589 1.0210220
vn 0.6590000 -0.4744007 0.5836635
vt 0.8113232 0.4620656
v -0.6159412 -2.8620870 0.9013321
vn 0.6590000 -0.4744007 0.5836635
vt 0.8623798 0.4635449
v -1.7074569 -2.8620870 0.9013321
vn -0.6575226 -0.4752159 0.5846657
vt 0.3946068 0.4605864
v -1.5914700 -2.8534589 1.0210220
vn -0.6575226 -0.4752159 0.5846657
vt 0.4456635 0.4605864
v -0.7314700 4.3545461 0.5510675
vn 0.7011129 0.7130489 0.0014488
vt 0.8122725 -2.9008629
v -0.7314700 4.3114591 0.9892480
vn 0.6986210 0.7114300 0.0761333
vt 0.8122724 -2.6792431
v -0.6159412 4.1985559 0.9485944
vn 0.6986210 0.7114300 0.0761333
vt 0.8623798 -2.6792431
v -0.6159412 4.2408080 0.5893250
vn 0.7011129 0.7130489 0.0014488
vt 0.8623798 -2.9008629
v -1.7074569 4.2408080 0.5893250
vn -0.6996996 0.7144358 0.0014513
vt 0.3950537 -2.9008629
v -1.7074569 4.1985550 0.9485944
vn -0.6972033 0.7128034 0.0762813
vt 0.3950537 -2.6792431
v -1.5914700 4.3114591 0.9892484
vn -0.6972033 0.7128034 0.0762813
vt 0.4456635 -2.6792431
v -1.5914700 4.3545461 0.5510675
vn -0.6996996 0.7144358 0.0014513
vt 0.4456635 -2.9008629
v -0.6159412 4.2196031 0.3453485
vn 0.7501405 0.5816787 -0.3145459
vt 0.8623798 -3.0130167
v -0.7314700 4.3231559 0.2847119
vn 0.7501405 0.5816787 -0.3145459
vt 0.8122725 -3.0130167
v -1.5914700 4.3231549 0.2847119
vn -0.6978626 0.6713181 -0.2496394
vt 0.4456635 -3.0130167
v -1.7074569 4.2196021 0.3453485
vn -0.6978626 0.6713181 -0.2496394
vt 0.3950537 -3.0130167
v -0.7436968 4.0803351 0.0600543
vn 0.7585241 0.1464124 -0.6349840
vt 0.8122725 -3.1292310
v -0.6371333 3.9980271 0.1671399
vn 0.7585241 0.1464124 -0.6349840
vt 0.8623798 -3.1292310
v -1.6015410 4.1411929 0.0600543
vn -0.6861836 0.4827683 -0.5441387
vt 0.4456635 -3.1292319
v -1.7240350 4.0955148 0.1671399
vn -0.6861836 0.4827683 -0.5441387
vt 0.3950537 -3.1292319
v -0.8331056 3.7285590 0.0131863
vn 0.6979377 -0.1793856 -0.6933280
vt 0.8122725 -3.2763081
v -0.7629150 3.6060719 0.1272223
vn 0.6979377 -0.1793856 -0.6933280
vt 0.8623798 -3.2763081
v -1.6511340 3.9453290 0.0131863
vn -0.6769376 0.2894925 -0.6767198
vt 0.4456635 -3.2763081
v -1.7722420 3.9318480 0.1272223
vn -0.6769376 0.2894925 -0.6767198
vt 0.3950537 -3.2763081
v -0.9565409 3.3535690 0.0223975
vn 0.6792617 -0.2317997 -0.6963279
vt 0.8122726 -3.4477558
v -0.8544928 3.2907109 0.1380780
vn 0.6792617 -0.2317997 -0.6963279
vt 0.8623798 -3.4477558
v -1.7824240 3.5933969 0.0223975
vn -0.6758396 0.2365346 -0.6980632
vt 0.4456635 -3.4477558
v -1.9027070 3.5951030 0.1380780
vn -0.6758396 0.2365346 -0.6980632
vt 0.3950537 -3.4477558
v -1.3716220 2.4359679 0.2602045
vn -0.9926091 0.0020332 0.1213384
vt 0.9567648 4.5291262
v -1.3846591 2.4523671 0.1195206
vn -0.9926091 0.0020332 0.1213384
vt 0.8625536 4.5291262
v -1.4021630 -3.9383669 0.1171683
vn -0.9926091 0.0020332 0.1213384
vt 0.8625536 1.5160919
v -1.3818290 -3.8882480 0.2489145
vn -0.9926091 0.0020332 0.1213384
vt 0.9567648 1.5361600
v -1.3820990 -3.8901429 0.3077136
vn -0.9930026 0.0562271 -0.1038482
vt 0.9567648 1.1163180
v -1.4017180 -3.9352551 0.4403333
vn -0.9930026 0.0562271 -0.1038482
vt 0.8625536 1.1356339
v -1.3819500 -3.7003689 0.4090359
vn -0.9930026 0.0562271 -0.1038482
vt 0.8625536 1.0241270
v -1.3687030 -3.6613700 0.2729239
vn -0.9930026 0.0562271 -0.1038482
vt 0.9567648 0.9927204
v -1.3716220 -3.3970189 0.2839600
vn -0.9951848 0.0663372 -0.0721566
vt 0.9567648 0.9074246
v -1.3846591 -3.4589710 0.3984216
vn -0.9951848 0.0663372 -0.0721566
vt 0.8625536 0.9074246
v -1.3846591 -3.2775750 0.5735757
vn -0.9951848 0.0663372 -0.0721566
vt 0.8625536 0.7863237
v -1.3716220 -3.2061591 0.4510373
vn -0.9951848 0.0663372 -0.0721566
vt 0.9567648 0.7863237
v -1.3846591 4.2408071 0.5893246
vn -0.9963537 -0.0844805 0.0119345
vt 0.8621116 -2.9008629
v -1.3846591 4.2196021 0.3453482
vn -0.9980099 -0.0202229 0.0597272
vt 0.8621116 -3.0130167
v -1.3743080 4.0944180 0.4171783
vn -0.9980099 -0.0202229 0.0597272
vt 0.9563229 -3.0130167
v -1.3716220 4.1065660 0.6335941
vn -0.9963537 -0.0844805 0.0119345
vt 0.9563229 -2.9008629
v -1.4024971 4.0670218 0.1671399
vn -0.9821410 0.1451096 0.1197591
vt 0.8621116 -3.1292310
v -1.4000421 3.9974380 0.2943167
vn -0.9821410 0.1451096 0.1197591
vt 0.9563229 -3.1292310
v -1.4559259 3.8674800 0.1272223
vn -0.9440722 0.3019961 0.1323861
vt 0.8621116 -3.2763081
v -1.4518380 3.8221879 0.2622116
vn -0.9440722 0.3019961 0.1323861
vt 0.9563229 -3.2763081
v -1.5927150 3.5050831 0.1380780
vn -0.9240305 0.3583757 0.1331708
vt 0.8621116 -3.4477558
v -1.5908070 3.4649010 0.2747006
vn -0.9240305 0.3583757 0.1331708
vt 0.9563229 -3.4477558
v -1.3716220 2.4359679 0.2602045
vn 0.9976754 -0.0022675 0.0681080
vt 0.9567648 4.5291262
v -1.3818290 -3.8882480 0.2489145
vn 0.9976754 -0.0022675 0.0681080
vt 0.9567648 1.5361600
v -1.3763530 -3.9420569 0.1171683
vn 0.9976754 -0.0022675 0.0681080
vt 0.8625536 1.5160919
v -1.3585850 2.4523671 0.1195206
vn 0.9976754 -0.0022675 0.0681080
vt 0.8625536 4.5291262
v -1.3558871 -3.7011120 0.4090363
vn 0.9915470 -0.0849073 -0.0981090
vt 0.8625536 1.0241270
v -1.3759069 -3.9389451 0.4403333
vn 0.9915470 -0.0849073 -0.0981090
vt 0.8625536 1.1356339
v -1.3820990 -3.8901429 0.3077136
vn 0.9915470 -0.0849073 -0.0981090
vt 0.9567648 1.1163180
v -1.3687030 -3.6613700 0.2729239
vn 0.9915470 -0.0849073 -0.0981090
vt 0.9567648 0.9927204
v -1.3585850 -3.2775750 0.5735751
vn 0.9951851 0.0663350 -0.0721554
vt 0.8625536 0.7863237
v -1.3585850 -3.4589710 0.3984213
vn 0.9951851 0.0663350 -0.0721554
vt 0.8625536 0.9074246
v -1.3716220 -3.3970189 0.2839600
vn 0.9951851 0.0663350 -0.0721554
vt 0.9567648 0.9074246
v -1.3716220 -3.2061591 0.4510373
vn 0.9951851 0.0663350 -0.0721554
vt 0.9567648 0.7863237
v -1.3585850 4.2408071 0.5893246
vn 0.9940119 -0.1092514 0.0021145
vt 0.8621116 -2.9008629
v -1.3716220 4.1065660 0.6335941
vn 0.9940119 -0.1092514 0.0021145
vt 0.9563229 -2.9008629
v -1.3743080 4.0944180 0.4171783
vn 0.9889657 -0.1479404 0.0077793
vt 0.9563229 -3.0130167
v -1.3585850 4.2196021 0.3453482
vn 0.9889657 -0.1479404 0.0077793
vt 0.8621116 -3.0130167
v -1.4000421 3.9974380 0.2943167
vn 0.9720668 -0.2324967 0.0321166
vt 0.9563229 -3.1292310
v -1.3765250 4.0647202 0.1671399
vn 0.9720668 -0.2324967 0.0321166
vt 0.8621116 -3.1292310
v -1.4303761 3.8622811 0.1272223
vn 0.9469092 -0.3168904 0.0542536
vt 0.8621116 -3.2763081
v -1.4518380 3.8221879 0.2622116
vn 0.9469092 -0.3168904 0.0542536
vt 0.9563229 -3.2763081
v -1.5676750 3.4978130 0.1380780
vn 0.9329870 -0.3552552 0.0576981
vt 0.8621116 -3.4477558
v -1.5908070 3.4649010 0.2747006
vn 0.9329870 -0.3552552 0.0576981
vt 0.9563229 -3.4477558
v -0.6159413 2.4523680 0.1195209
vn 0.0000000 0.9935504 0.1133917
vt -0.0084122 4.5284019
v -0.7314700 2.4659741 0.0002948
vn 0.0000000 0.9935504 0.1133917
vt 0.0309671 4.5914688
v -1.5914700 2.4659741 0.0002948
vn 0.0000000 0.9935504 0.1133917
vt 0.3460923 4.5914688
v -1.7074569 2.4523671 0.1195209
vn 0.0000000 0.9935504 0.1133917
vt 0.3941543 4.5284019
v -1.3716220 2.4359679 0.2602045
vn 0.0000000 0.9932740 0.1157873
vt 0.8675760 0.1914145
v -1.3585850 2.4523671 0.1195206
vn 0.0000000 0.9932740 0.1157873
vt 0.9648921 0.1713996
v -1.3846591 2.4523671 0.1195206
vn 0.0000000 0.9932740 0.1157873
vt 0.9648921 0.2114290
v -1.9027070 3.5951030 0.1380780
vn -0.2688326 -0.9257630 -0.2658794
vt 0.3949119 -3.4477558
v -1.7824240 3.5933969 0.0223975
vn -0.2688326 -0.9257630 -0.2658794
vt 0.3711804 -3.4942670
v -0.9565409 3.3535690 0.0223975
vn -0.2688326 -0.9257630 -0.2658794
vt 0.0378534 -3.4942670
v -0.8544928 3.2907109 0.1380780
vn -0.2688326 -0.9257630 -0.2658794
vt 0.0036877 -3.4477558
v -1.5676750 3.4978130 0.1380780
vn -0.2686059 -0.9251220 -0.2683285
vt 0.9648921 0.2114290
v -1.5908070 3.4649010 0.2747006
vn -0.2686059 -0.9251220 -0.2683285
vt 0.8675760 0.1914145
v -1.5927150 3.5050831 0.1380780
vn -0.2686059 -0.9251220 -0.2683285
vt 0.9648921 0.1713996

g group_62823912_140627820355776
f 1/1/1 2/2/2 3/3/3 
f 1/1/1 3/3/3 4/4/4 
f 5/5/5 4/4/4 3/3/3 
f 5/5/5 3/3/3 6/6/6 
f 7/7/7 5/5/5 6/6/6 
f 7/7/7 6/6/6 8/8/8 
f 7/7/7 8/8/8 9/9/9 
f 7/7/7 9/9/9 10/10/10 
f 10/10/10 9/9/9 11/11/11 
f 10/10/10 11/11/11 12/12/12 
f 12/12/12 11/11/11 13/13/13 
f 12/12/12 13/13/13 14/14/14 
f 15/15/15 16/16/16 17/17/17 
f 15/15/15 17/17/17 18/18/18 
f 18/18/18 17/17/17 19/19/19 
f 18/18/18 19/19/19 20/20/20 
f 20/20/20 19/19/19 21/21/21 
f 20/20/20 21/21/21 22/22/22 
f 22/22/22 21/21/21 23/23/23 
f 22/22/22 23/23/23 24/24/24 
f 24/24/24 23/23/23 25/25/25 
f 24/24/24 25/25/25 26/26/26 
f 27/27/27 28/28/28 29/29/29 
f 27/27/27 29/29/29 30/30/30 
f 31/31/31 30/30/30 29/29/29 
f 31/31/31 29/29/29 32/32/32 
f 33/33/33 31/31/31 32/32/32 
f 33/33/33 32/32/32 34/34/34 
f 34/34/34 35/35/35 36/36/36 
f 34/34/34 36/36/36 33/33/33 
f 36/36/36 35/35/35 37/37/37 
f 36/36/36 37/37/37 38/38/38 
f 38/38/38 37/37/37 39/39/39 
f 38/38/38 39/39/39 40/40/40 
f 41/41/41 42/42/42 43/43/43 
f 41/41/41 43/43/43 44/44/44 
f 43/43/43 45/45/45 46/46/46 
f 43/43/43 46/46/46 44/44/44 
f 45/45/45 47/47/47 48/48/48 
f 45/45/45 48/48/48 46/46/46 
f 47/47/47 49/49/49 50/50/50 
f 47/47/47 50/50/50 48/48/48 
f 49/49/49 51/51/51 52/52/52 
f 49/49/49 52/52/52 50/50/50 
f 53/53/53 54/54/54 55/55/55 
f 53/53/53 55/55/55 56/56/56 
f 57/57/57 58/58/58 59/59/59 
f 57/57/57 59/59/59 60/60/60 
f 61/61/61 62/62/62 53/53/53 
f 61/61/61 53/53/53 56/56/56 
f 63/63/63 57/57/57 60/60/60 
f 63/63/63 60/60/60 64/64/64 
f 65/65/65 62/62/62 61/61/61 
f 65/65/65 61/61/61 66/66/66 
f 67/67/67 68/68/68 63/63/63 
f 67/67/67 63/63/63 64/64/64 
f 69/69/69 65/65/65 66/66/66 
f 69/69/69 66/66/66 70/70/70 
f 68/68/68 67/67/67 71/71/71 
f 68/68/68 71/71/71 72/72/72 
f 73/73/73 69/69/69 70/70/70 
f 73/73/73 70/70/70 74/74/74 
f 75/75/75 72/72/72 71/71/71 
f 75/75/75 71/71/71 76/76/76 
f 77/77/77 73/73/73 74/74/74 
f 77/77/77 74/74/74 78/78/78 
f 79/79/79 75/75/75 76/76/76 
f 79/79/79 76/76/76 80/80/80 
f 81/81/81 82/82/82 83/83/83 
f 81/81/81 83/83/83 84/84/84 
f 85/85/85 86/86/86 87/87/87 
f 85/85/85 87/87/87 88/88/88 
f 89/89/89 90/90/90 81/81/81 
f 89/89/89 81/81/81 84/84/84 
f 88/88/88 91/91/91 92/92/92 
f 88/88/88 92/92/92 85/85/85 
f 93/93/93 90/90/90 89/89/89 
f 93/93/93 89/89/89 94/94/94 
f 91/91/91 95/95/95 96/96/96 
f 91/91/91 96/96/96 92/92/92 
f 97/97/97 93/93/93 94/94/94 
f 97/97/97 94/94/94 98/98/98 
f 96/96/96 95/95/95 99/99/99 
f 96/96/96 99/99/99 100/100/100 
f 101/101/101 97/97/97 98/98/98 
f 101/101/101 98/98/98 102/102/102 
f 100/100/100 99/99/99 103/103/103 
f 100/100/100 103/103/103 104/104/104 
f 105/105/105 106/106/106 107/107/107 
f 105/105/105 107/107/107 108/108/108 
f 109/109/109 110/110/110 111/111/111 
f 109/109/109 111/111/111 112/112/112 
f 113/113/113 114/114/114 115/115/115 
f 113/113/113 115/115/115 116/116/116 
f 117/117/117 118/118/118 119/119/119 
f 117/117/117 119/119/119 120/120/120 
f 118/118/118 121/121/121 122/122/122 
f 118/118/118 122/122/122 119/119/119 
f 122/122/122 121/121/121 123/123/123 
f 122/122/122 123/123/123 124/124/124 
f 124/124/124 123/123/123 125/125/125 
f 124/124/124 125/125/125 126/126/126 
f 127/127/127 128/128/128 129/129/129 
f 127/127/127 129/129/129 130/130/130 
f 131/131/131 132/132/132 133/133/133 
f 131/131/131 133/133/133 134/134/134 
f 135/135/135 136/136/136 137/137/137 
f 135/135/135 137/137/137 138/138/138 
f 139/139/139 140/140/140 141/141/141 
f 139/139/139 141/141/141 142/142/142 
f 142/142/142 141/141/141 143/143/143 
f 142/142/142 143/143/143 144/144/144 
f 145/145/145 144/144/144 143/143/143 
f 145/145/145 143/143/143 146/146/146 
f 147/147/147 145/145/145 146/146/146 
f 147/147/147 146/146/146 148/148/148 
f 149/149/149 150/150/150 151/151/151 
f 149/149/149 151/151/151 152/152/152 
f 153/153/153 154/154/154 155/155/155 
f 156/156/156 157/157/157 158/158/158 
f 156/156/156 158/158/158 159/159/159 
f 160/160/160 161/161/161 162/162/162 
