v 0.8056625 3.8256431 0.0001498
vn 0.0001046 0.0003498 -0.9999999
vt 0.8038461 4.3670268
v 0.9383755 4.1620650 0.0002948
vn 0.0001471 0.0003729 -0.9999999
vt 0.8038468 4.5000000
v 1.7383780 3.8464780 0.0002948
vn 0.0001471 0.0003729 -0.9999999
vt 0.4441976 4.5000000
v 1.6056650 3.5100551 0.0001498
vn 0.0001046 0.0003498 -0.9999999
vt 0.4441972 4.3670268
v 1.5914700 -4.0705228 0.3775888
vn 0.0000000 -0.6543000 -0.7562351
vt 0.4441969 1.4411310
v 0.7314700 -4.0705228 0.3775888
vn 0.0000000 -0.6543000 -0.7562351
vt 0.8038457 1.4411310
v 0.7314700 -2.9083469 -0.0024594
vn 0.0000000 -0.1571716 -0.9875713
vt 0.8038457 1.9720190
v 1.5914700 -2.9083469 -0.0024594
vn 0.0000000 -0.1571716 -0.9875713
vt 0.4441969 1.9720190
v 1.5914700 -4.2357612 0.7108194
vn 0.0000000 -0.9924082 -0.1229876
vt 0.4441969 1.2828470
v 0.7314700 -4.2357612 0.7108194
vn 0.0000000 -0.9924082 -0.1229876
vt 0.8038457 1.2828470
v 1.5914700 -4.1586509 1.0660820
vn 0.0000000 -0.9772453 0.2121123
vt 0.4441969 1.1284050
v 0.7314700 -4.1586509 1.0660820
vn 0.0000000 -0.9772453 0.2121123
vt 0.8038457 1.1284050
v 0.6159412 -2.9013529 0.1173367
vn 0.0000000 0.1555644 0.9878258
vt 0.0040977 1.9720190
v 1.7074569 -2.9013541 0.1173367
vn 0.0000000 0.1555644 0.9878258
vt 0.3847099 1.9720190
v 1.7074569 3.2989450 0.1193121
vn 0.0000000 -0.0002887 1.0000000
vt 0.3847099 4.2585912
v 0.6159413 3.2989440 0.1193121
vn 0.0000000 -0.0002887 1.0000000
vt 0.0040977 4.2585912
v 0.6159412 -3.9952011 0.4710049
vn 0.0000000 0.6583775 0.7526879
vt 0.0040977 1.4411310
v 1.7074580 -3.9952011 0.4710049
vn 0.0000000 0.6583775 0.7526879
vt 0.3847099 1.4411310
v 0.6159412 -4.1165690 0.7247189
vn 0.0000000 0.9927505 0.1201939
vt 0.0040977 1.2828470
v 1.7074580 -4.1165690 0.7247189
vn 0.0000000 0.9927505 0.1201939
vt 0.3847099 1.2828470
v 0.6159412 -4.0596218 0.9983087
vn 0.0000000 0.9790162 -0.2037823
vt 0.0040977 1.1284050
v 1.7074569 -4.0596209 0.9983087
vn 0.0000000 0.9790162 -0.2037823
vt 0.3847099 1.1284050
v 0.7314700 3.2932639 0.0000247
vn -0.7186580 0.0511361 -0.6934809
vt 0.8038456 4.2522221
v 0.7314700 -2.9083469 -0.0024594
vn -0.7153003 -0.1105774 -0.6900132
vt 0.8038457 1.9720190
v 0.6159412 -2.9013529 0.1173367
vn -0.7153003 -0.1105774 -0.6900132
vt 0.8568289 1.9720190
v 0.6159413 3.2989440 0.1193121
vn -0.7186580 0.0511361 -0.6934809
vt 0.8568286 4.2585912
v 1.6056650 3.5100551 0.0001498
vn 0.7010801 -0.1513527 -0.6968350
vt 0.4441972 4.3670268
v 1.7383780 3.8464780 0.0002948
vn 0.6669147 -0.2628165 -0.6972463
vt 0.4441976 4.5000000
v 1.8412811 3.7912569 0.1195209
vn 0.6669147 -0.2628165 -0.6972463
vt 0.3931410 4.5000000
v 1.7135611 3.4674921 0.1194098
vn 0.7010801 -0.1513527 -0.6968350
vt 0.3931406 4.3716459
v 0.7314700 -4.0705228 0.3775888
vn -0.7266916 -0.4521468 -0.5171872
vt 0.8038457 1.4411310
v 0.6159412 -3.9952011 0.4710049
vn -0.7266916 -0.4521468 -0.5171872
vt 0.8568289 1.4411310
v 1.7074569 -2.9013541 0.1173367
vn 0.7139153 -0.1107963 -0.6914110
vt 0.3931403 1.9720190
v 1.7074580 -3.9952011 0.4710049
vn 0.7253305 -0.4530870 -0.5182738
vt 0.3931403 1.4411310
v 1.5914700 -4.0705228 0.3775888
vn 0.7253305 -0.4530870 -0.5182738
vt 0.4441969 1.4411310
v 1.5914700 -2.9083469 -0.0024594
vn 0.7139153 -0.1107963 -0.6914110
vt 0.4441969 1.9720190
v 0.7314700 -4.2357612 0.7108194
vn -0.7148032 -0.6940300 -0.0858997
vt 0.8038457 1.2828470
v 0.6159412 -4.1165690 0.7247189
vn -0.7148032 -0.6940300 -0.0858997
vt 0.8568289 1.2828470
v 1.7074580 -4.1165690 0.7247189
vn 0.7134159 -0.6954349 -0.0860698
vt 0.3931403 1.2828470
v 1.5914700 -4.2357612 0.7108194
vn 0.7134159 -0.6954349 -0.0860698
vt 0.4441969 1.2828470
v 0.7314700 -4.1586509 1.0660820
vn -0.7229168 -0.5685771 0.3925703
vt 0.8038457 1.1284050
v 0.6159412 -4.0596218 0.9983087
vn -0.7229168 -0.5685771 0.3925703
vt 0.8568289 1.1284050
v 1.7074569 -4.0596209 0.9983087
vn 0.7215473 -0.5697555 0.3933806
vt 0.3931403 1.1284050
v 1.5914700 -4.1586509 1.0660820
vn 0.7215473 -0.5697555 0.3933806
vt 0.4441969 1.1284050
v 0.7314700 -3.8529601 1.2643681
vn -0.6928076 -0.3919660 0.6052935
vt 0.8038457 0.9786117
v 0.6159412 -3.8301930 1.1465470
vn -0.6928076 -0.3919660 0.6052935
vt 0.8568289 0.9786117
v 1.7074580 -3.8301940 1.1465470
vn 0.6913779 -0.3927117 0.6064439
vt 0.3931403 0.9786117
v 1.5914700 -3.8529589 1.2643681
vn 0.6913779 -0.3927117 0.6064439
vt 0.4441969 0.9786117
v 1.4132820 3.5859470 0.1194098
vn 0.9674402 -0.2352644 0.0933280
vt 0.8691206 4.3716459
v 1.5410020 3.9097121 0.1195206
vn 0.9262600 -0.3654194 0.0922557
vt 0.8691206 4.5000000
v 1.5228560 3.8992410 0.2602045
vn 0.9262600 -0.3654194 0.0922557
vt 0.9633319 4.5000000
v 1.4011550 3.5907321 0.2601416
vn 0.9674402 -0.2352644 0.0933280
vt 0.9633319 4.3772569
v 1.3846591 -2.9013529 0.1173367
vn 0.9957772 0.0051329 0.0916593
vt 0.8691206 1.9720190
v 1.3716220 -2.8933189 0.2589075
vn 0.9957772 0.0051329 0.0916593
vt 0.9633319 1.9770629
v 1.3716220 -3.0380499 0.2748273
vn 0.9958153 0.0199938 0.0891742
vt 0.9633319 1.8894790
v 1.3846591 -3.0691309 0.1366135
vn 0.9958153 0.0199938 0.0891742
vt 0.8691206 1.8894790
v 1.3846591 -3.8431699 0.4004636
vn 0.9957672 0.0296967 0.0869810
vt 0.8691206 1.5260930
v 1.3716220 -3.7906771 0.5322098
vn 0.9957672 0.0296967 0.0869810
vt 0.9633319 1.5260930
v 1.5228560 3.8992410 0.2602045
vn -0.9262775 0.3653750 0.0922553
vt 0.9633319 4.5000000
v 1.5167470 3.9192801 0.1195206
vn -0.9262775 0.3653750 0.0922553
vt 0.8691206 4.5000000
v 1.3890270 3.5955150 0.1194098
vn -0.9675066 0.2359385 0.0909068
vt 0.8691206 4.3716459
v 1.4011550 3.5907321 0.2601416
vn -0.9675066 0.2359385 0.0909068
vt 0.9633319 4.3772569
v 1.3585850 -2.9013529 0.1173367
vn -0.9957772 0.0051329 0.0916598
vt 0.8691206 1.9720190
v 1.3585850 -3.0691309 0.1366132
vn -0.9958154 0.0199936 0.0891739
vt 0.8691206 1.8894790
v 1.3716220 -3.0380499 0.2748273
vn -0.9958154 0.0199936 0.0891739
vt 0.9633319 1.8894790
v 1.3716220 -2.8933189 0.2589075
vn -0.9957772 0.0051329 0.0916598
vt 0.9633319 1.9770629
v 1.3585860 -3.8431699 0.4004636
vn -0.9957674 0.0296963 0.0869794
vt 0.8691206 1.5260930
v 1.3716220 -3.7906771 0.5322098
vn -0.9957674 0.0296963 0.0869794
vt 0.9633319 1.5260930
v 0.7314700 3.2932639 0.0000247
vn 0.0000000 0.0003636 -0.9999999
vt 0.8038456 4.2522221
v 1.5914700 3.2932639 0.0000247
vn 0.0000000 0.0003636 -0.9999999
vt 0.4441969 4.2522221
v 1.7135611 3.4674921 0.1194098
vn 0.0000000 -0.0002779 1.0000000
vt 0.3847099 4.3716459
v 0.6981935 3.8680370 0.1194098
vn 0.0000000 -0.0002779 1.0000000
vt 0.0040977 4.3716459
v 0.8056625 3.8256431 0.0001498
vn -0.6946868 0.1834967 -0.6955137
vt 0.8038461 4.3670268
v 0.6981935 3.8680370 0.1194098
vn -0.6946868 0.1834967 -0.6955137
vt 0.8568293 4.3716450
v 1.5914700 3.2932639 0.0000247
vn 0.7218480 -0.0187945 -0.6917964
vt 0.4441969 4.2522221
v 1.7074569 3.2989450 0.1193121
vn 0.7218480 -0.0187945 -0.6917964
vt 0.3931403 4.2585912
v 1.3846591 3.2989450 0.1193121
vn 0.9944412 -0.0504382 0.0924269
vt 0.8691206 4.2585912
v 1.3716220 3.3056481 0.2600845
vn 0.9944412 -0.0504382 0.0924269
vt 0.9633319 4.2662778
v 1.3716220 3.3056481 0.2600845
vn -0.9946251 0.0511291 0.0900372
vt 0.9633319 4.2662778
v 1.3585850 3.2989450 0.1193121
vn -0.9946251 0.0511291 0.0900372
vt 0.8691206 4.2585912
v 0.8259134 4.1918030 0.1195209
vn -0.0001171 -0.0002969 0.9999999
vt 0.0000000 4.5000000
v 1.8412811 3.7912569 0.1195209
vn -0.0001171 -0.0002969 0.9999999
vt 0.3887559 4.5000000
v 0.8259134 4.1918030 0.1195209
vn -0.6680139 0.2637900 -0.6958249
vt 0.8568302 4.5000000
v 0.9383755 4.1620650 0.0002948
vn -0.6680139 0.2637900 -0.6958249
vt 0.8038468 4.5000000
v 0.9383755 4.1620650 0.0002948
vn 0.3645958 0.9242361 0.1133917
vt 0.0407834 4.5465112
v 0.8259134 4.1918030 0.1195209
vn 0.3645958 0.9242361 0.1133917
vt 0.0000000 4.5000000
v 1.8412811 3.7912569 0.1195209
vn 0.3645958 0.9242361 0.1133917
vt 0.3887559 4.5000000
v 1.7383780 3.8464780 0.0002948
vn 0.3645958 0.9242361 0.1133917
vt 0.3478465 4.5465112
v 1.5228560 3.8992410 0.2602045
vn 0.3644969 0.9239785 0.1157832
vt 0.8961974 0.1914145
v 1.5410020 3.9097121 0.1195206
vn 0.3644969 0.9239785 0.1157832
vt 0.9935136 0.1713996
v 1.5167470 3.9192801 0.1195206
vn 0.3644969 0.9239785 0.1157832
vt 0.9935136 0.2114290

g group_16168640_140627849299536
f 1/1/1 2/2/2 3/3/3 
f 1/1/1 3/3/3 4/4/4 
f 5/5/5 6/6/6 7/7/7 
f 5/5/5 7/7/7 8/8/8 
f 9/9/9 10/10/10 6/6/6 
f 9/9/9 6/6/6 5/5/5 
f 11/11/11 12/12/12 10/10/10 
f 11/11/11 10/10/10 9/9/9 
f 13/13/13 14/14/14 15/15/15 
f 13/13/13 15/15/15 16/16/16 
f 17/17/17 18/18/18 14/14/14 
f 17/17/17 14/14/14 13/13/13 
f 19/19/19 20/20/20 18/18/18 
f 19/19/19 18/18/18 17/17/17 
f 21/21/21 22/22/22 20/20/20 
f 21/21/21 20/20/20 19/19/19 
f 23/23/23 24/24/24 25/25/25 
f 23/23/23 25/25/25 26/26/26 
f 27/27/27 28/28/28 29/29/29 
f 27/27/27 29/29/29 30/30/30 
f 24/24/24 31/31/31 32/32/32 
f 24/24/24 32/32/32 25/25/25 
f 33/33/33 34/34/34 35/35/35 
f 33/33/33 35/35/35 36/36/36 
f 31/31/31 37/37/37 38/38/38 
f 31/31/31 38/38/38 32/32/32 
f 34/34/34 39/39/39 40/40/40 
f 34/34/34 40/40/40 35/35/35 
f 37/37/37 41/41/41 42/42/42 
f 37/37/37 42/42/42 38/38/38 
f 39/39/39 43/43/43 44/44/44 
f 39/39/39 44/44/44 40/40/40 
f 41/41/41 45/45/45 46/46/46 
f 41/41/41 46/46/46 42/42/42 
f 43/43/43 47/47/47 48/48/48 
f 43/43/43 48/48/48 44/44/44 
f 49/49/49 50/50/50 51/51/51 
f 49/49/49 51/51/51 52/52/52 
f 53/53/53 54/54/54 55/55/55 
f 53/53/53 55/55/55 56/56/56 
f 57/57/57 56/56/56 55/55/55 
f 57/57/57 55/55/55 58/58/58 
f 59/59/59 60/60/60 61/61/61 
f 59/59/59 61/61/61 62/62/62 
f 63/63/63 64/64/64 65/65/65 
f 63/63/63 65/65/65 66/66/66 
f 65/65/65 64/64/64 67/67/67 
f 65/65/65 67/67/67 68/68/68 
f 7/7/7 69/69/69 70/70/70 
f 7/7/7 70/70/70 8/8/8 
f 16/16/16 15/15/15 71/71/71 
f 16/16/16 71/71/71 72/72/72 
f 73/73/73 23/23/23 26/26/26 
f 73/73/73 26/26/26 74/74/74 
f 75/75/75 76/76/76 33/33/33 
f 75/75/75 33/33/33 36/36/36 
f 77/77/77 78/78/78 54/54/54 
f 77/77/77 54/54/54 53/53/53 
f 66/66/66 79/79/79 80/80/80 
f 66/66/66 80/80/80 63/63/63 
f 69/69/69 1/1/1 4/4/4 
f 69/69/69 4/4/4 70/70/70 
f 75/75/75 27/27/27 30/30/30 
f 75/75/75 30/30/30 76/76/76 
f 49/49/49 52/52/52 78/78/78 
f 49/49/49 78/78/78 77/77/77 
f 79/79/79 62/62/62 61/61/61 
f 79/79/79 61/61/61 80/80/80 
f 81/81/81 72/72/72 71/71/71 
f 81/81/81 71/71/71 82/82/82 
f 73/73/73 74/74/74 83/83/83 
f 73/73/73 83/83/83 84/84/84 
f 85/85/85 86/86/86 87/87/87 
f 85/85/85 87/87/87 88/88/88 
f 89/89/89 90/90/90 91/91/91 
