v 1.2309740 -2.4101951 0.0996963
vn 0.0000000 0.0000000 -1.0000000
vt 0.7572483 0.7253535
v 1.3376970 -2.4101951 0.0996963
vn 0.0000000 0.0000000 -1.0000000
vt 0.7670875 0.7253535
v 1.3376970 -2.6107280 0.1827598
vn 0.0000000 -0.7072675 -0.7069461
vt 0.7670875 0.7453813
v 1.2309740 -2.6107280 0.1827598
vn 0.0000000 -0.7072675 -0.7069461
vt 0.7572484 0.7453813
v 1.3376970 -2.6937921 0.3835503
vn 0.0000000 -0.9999999 0.0004538
vt 0.7670875 0.7653521
v 1.2309740 -2.6937921 0.3835503
vn 0.0000000 -0.9999999 0.0004538
vt 0.7572483 0.7653521
v 1.3376970 -2.6107280 0.5838259
vn 0.0000000 -0.7069466 0.7072670
vt 0.7670875 0.7453813
v 1.2309740 -2.6107280 0.5838259
vn 0.0000000 -0.7069466 0.7072670
vt 0.7572483 0.7453813
v 1.3376970 -2.4101951 0.6668895
vn 0.0000000 0.0000000 1.0000000
vt 0.7670875 0.7253542
v 1.2309740 -2.4101951 0.6668895
vn 0.0000000 0.0000000 1.0000000
vt 0.7572483 0.7253542
v 1.2309740 -2.4101951 0.6668895
vn 0.0000000 0.0000000 1.0000000
vt 0.7572483 0.7653915
v 1.3376970 -2.4101951 0.6668895
vn 0.0000000 0.0000000 1.0000000
vt 0.7670875 0.7653915
v 1.3376970 -2.2096620 0.5838259
vn 0.0000000 0.7069462 0.7072674
vt 0.7670875 0.7453813
v 1.2309740 -2.2096620 0.5838259
vn 0.0000000 0.7069462 0.7072674
vt 0.7572483 0.7453813
v 1.3376970 -2.1265991 0.3835503
vn 0.0000000 0.9999999 0.0004539
vt 0.7670875 0.7253929
v 1.2309740 -2.1265991 0.3835503
vn 0.0000000 0.9999999 0.0004539
vt 0.7572483 0.7253929
v 1.3376970 -2.2096620 0.1827598
vn 0.0000000 0.7072670 -0.7069466
vt 0.7670876 0.7453813
v 1.2309740 -2.2096620 0.1827598
vn 0.0000000 0.7072670 -0.7069466
vt 0.7572483 0.7453813
v 1.3376970 -2.4101951 0.0996963
vn 0.0000000 0.0000000 -1.0000000
vt 0.7670875 0.7653908
v 1.2309740 -2.4101951 0.0996963
vn 0.0000000 0.0000000 -1.0000000
vt 0.7572483 0.7653908
v 1.2309740 -2.2096620 0.1827598
vn -1.0000000 0.0000000 0.0000000
vt 0.3649893 0.9921885
v 1.2309740 -2.4101951 0.0996963
vn -1.0000000 0.0000000 0.0000000
vt 0.3511102 0.9979380
v 1.2309740 -2.4101951 0.6668895
vn -1.0000000 0.0000000 0.0000000
vt 0.3511100 0.9586820
v 1.2309740 -2.2096620 0.5838259
vn -1.0000000 0.0000000 0.0000000
vt 0.3649890 0.9644305
v 1.3376970 -2.4101951 0.0996963
vn 1.0000000 0.0000000 0.0000000
vt 0.2502208 0.9399845
v 1.3376970 -2.2096620 0.1827598
vn 1.0000000 0.0000000 0.0000000
vt 0.2684021 0.9475148
v 1.3376970 -2.2096620 0.5838259
vn 1.0000000 0.0000000 0.0000000
vt 0.2684022 0.9838779
v 1.3376970 -2.4101951 0.6668895
vn 1.0000000 0.0000000 0.0000000
vt 0.2502210 0.9914090
v 1.2309740 -2.6107280 0.1827598
vn -1.0000000 0.0000000 0.0000000
vt 0.3372313 0.9921889
v 1.2309740 -2.6107280 0.5838259
vn -1.0000000 0.0000000 0.0000000
vt 0.3372312 0.9644306
v 1.3376970 -2.6107280 0.5838259
vn 1.0000000 0.0000000 0.0000000
vt 0.2320394 0.9838783
v 1.3376970 -2.6107280 0.1827598
vn 1.0000000 0.0000000 0.0000000
vt 0.2320393 0.9475151
v 1.2309740 -2.1265991 0.3835503
vn -1.0000000 0.0000000 0.0000000
vt 0.3707375 0.9782915
v 1.3376970 -2.1265991 0.3835503
vn 1.0000000 0.0000000 0.0000000
vt 0.2759338 0.9657195
v 1.2309740 -2.6937921 0.3835503
vn -1.0000000 0.0000000 0.0000000
vt 0.3314824 0.9782914
v 1.3376970 -2.6937921 0.3835503
vn 1.0000000 0.0000000 0.0000000
vt 0.2245084 0.9657194
v 0.7532857 -2.7101951 0.3835499
vn 0.0000000 -1.0000000 0.0000000
vt 0.7670870 0.7279320
v 0.8600092 -2.7101951 0.3835499
vn 0.0000000 -1.0000000 0.0000000
vt 0.7574680 0.7279320
v 0.8600090 -2.5601950 0.6433575
vn 0.0000000 -0.5000003 0.8660253
vt 0.7574680 0.7551950
v 0.7532858 -2.5601950 0.6433575
vn 0.0000000 -0.5000003 0.8660253
vt 0.7670870 0.7551950
v 0.8600093 -2.2601950 0.6433575
vn 0.0000000 0.4999999 0.8660254
vt 0.7574680 0.7818640
v 0.7532858 -2.2601950 0.6433575
vn 0.0000000 0.4999999 0.8660254
vt 0.7670870 0.7818640
v 0.8600089 -2.1101949 0.3835499
vn 0.0000000 1.0000000 0.0000000
vt 0.7574680 0.7551950
v 0.7532858 -2.1101949 0.3835499
vn 0.0000000 1.0000000 0.0000000
vt 0.7670870 0.7551950
v 0.8600093 -2.2601950 0.1237423
vn 0.0000000 0.4999999 -0.8660255
vt 0.7574680 0.7279320
v 0.7532858 -2.2601950 0.1237423
vn 0.0000000 0.4999999 -0.8660255
vt 0.7670870 0.7279320
v 0.8600089 -2.5601950 0.1237423
vn 0.0000000 -0.5000004 -0.8660252
vt 0.7574680 0.7013220
v 0.7532857 -2.5601950 0.1237423
vn 0.0000000 -0.5000004 -0.8660252
vt 0.7670870 0.7013220
v 0.7532858 -2.2601950 0.1237423
vn -1.0000000 0.0000000 0.0000000
vt 0.3691120 0.9680960
v 0.7532857 -2.5601950 0.1237423
vn -1.0000000 0.0000000 0.0000000
vt 0.3691120 0.9888580
v 0.7532858 -2.1101949 0.3835499
vn -1.0000000 0.0000000 0.0000000
vt 0.3511310 0.9577140
v 0.7532857 -2.7101951 0.3835499
vn -1.0000000 0.0000000 0.0000000
vt 0.3511310 0.9992400
v 0.7532858 -2.5601950 0.6433575
vn -1.0000000 0.0000000 0.0000000
vt 0.3331490 0.9888580
v 0.8600089 -2.1101949 0.3835499
vn 1.0000000 0.0000000 0.0000000
vt 0.3511760 0.9991510
v 0.8600093 -2.2601950 0.6433575
vn 1.0000000 0.0000000 0.0000000
vt 0.3331950 0.9887700
v 0.8600092 -2.7101951 0.3835499
vn 1.0000000 0.0000000 0.0000000
vt 0.3511760 0.9576250
v 0.8600093 -2.2601950 0.1237423
vn 1.0000000 0.0000000 0.0000000
vt 0.3691570 0.9887700
v 0.8600089 -2.5601950 0.1237423
vn 1.0000000 0.0000000 0.0000000
vt 0.3691570 0.9680070
v 0.7532858 -2.2601950 0.6433575
vn -1.0000000 0.0000000 0.0000000
vt 0.3331490 0.9680960
v 0.8600090 -2.5601950 0.6433575
vn 1.0000000 0.0000000 0.0000000
vt 0.3331950 0.9680070
v 1.3376970 -2.6937921 0.3835503
vn 0.0000000 -0.9999999 0.0004538
vt 0.7670875 0.7653521
v 1.2309740 -2.6937921 0.3835503
vn 0.0000000 -0.9999999 0.0004538
vt 0.7572483 0.7653521
v 1.3376970 -2.1265991 0.3835503
vn 0.0000000 0.9999999 0.0004539
vt 0.7670875 0.7253929
v 1.2309740 -2.1265991 0.3835503
vn 0.0000000 0.9999999 0.0004539
vt 0.7572483 0.7253929
v 0.8600093 -2.2601950 0.6433575
vn 0.0000000 0.4999999 0.8660254
vt 0.7574680 0.7818640
v 0.7532858 -2.2601950 0.6433575
vn 0.0000000 0.4999999 0.8660254
vt 0.7670870 0.7818640
v 0.8600089 -2.5601950 0.1237423
vn 0.0000000 -0.5000004 -0.8660252
vt 0.7574680 0.7013220
v 0.7532857 -2.5601950 0.1237423
vn 0.0000000 -0.5000004 -0.8660252
vt 0.7670870 0.7013220

g group_62843368_140627849838384
f 1/1/1 2/2/2 3/3/3 
f 1/1/1 3/3/3 4/4/4 
f 4/4/4 3/3/3 5/5/5 
f 4/4/4 5/5/5 6/6/6 
f 62/62/62 61/61/61 7/7/7 
f 62/62/62 7/7/7 8/8/8 
f 8/8/8 7/7/7 9/9/9 
f 8/8/8 9/9/9 10/10/10 
f 11/11/11 12/12/12 13/13/13 
f 11/11/11 13/13/13 14/14/14 
f 14/14/14 13/13/13 15/15/15 
f 14/14/14 15/15/15 16/16/16 
f 64/64/64 63/63/63 17/17/17 
f 64/64/64 17/17/17 18/18/18 
f 18/18/18 17/17/17 19/19/19 
f 18/18/18 19/19/19 20/20/20 
f 21/21/21 22/22/22 23/23/23 
f 21/21/21 23/23/23 24/24/24 
f 25/25/25 26/26/26 27/27/27 
f 25/25/25 27/27/27 28/28/28 
f 23/23/23 22/22/22 29/29/29 
f 23/23/23 29/29/29 30/30/30 
f 25/25/25 28/28/28 31/31/31 
f 25/25/25 31/31/31 32/32/32 
f 21/21/21 24/24/24 33/33/33 
f 27/27/27 26/26/26 34/34/34 
f 30/30/30 29/29/29 35/35/35 
f 32/32/32 31/31/31 36/36/36 
f 37/37/37 38/38/38 39/39/39 
f 37/37/37 39/39/39 40/40/40 
f 40/40/40 39/39/39 41/41/41 
f 40/40/40 41/41/41 42/42/42 
f 66/66/66 65/65/65 43/43/43 
f 66/66/66 43/43/43 44/44/44 
f 44/44/44 43/43/43 45/45/45 
f 44/44/44 45/45/45 46/46/46 
f 46/46/46 45/45/45 47/47/47 
f 46/46/46 47/47/47 48/48/48 
f 68/68/68 67/67/67 38/38/38 
f 68/68/68 38/38/38 37/37/37 
f 49/49/49 50/50/50 51/51/51 
f 52/52/52 53/53/53 51/51/51 
f 52/52/52 51/51/51 50/50/50 
f 54/54/54 55/55/55 56/56/56 
f 54/54/54 56/56/56 57/57/57 
f 56/56/56 58/58/58 57/57/57 
f 59/59/59 51/51/51 53/53/53 
f 60/60/60 56/56/56 55/55/55 
