v 1.3716220 2.8752780 0.2602045
vn -0.9958370 0.0136442 -0.0901251
vt 0.9588711 4.4926701
v 1.3846591 2.8916781 0.1195206
vn -0.9958370 0.0136442 -0.0901251
vt 0.8646598 4.5000000
v 1.3846591 -2.9013529 0.1173367
vn -0.9958047 -0.0134534 -0.0905101
vt 0.8646598 1.9750500
v 1.3716220 -2.8933189 0.2589075
vn -0.9958047 -0.0134534 -0.0905101
vt 0.9588711 1.9786000
v 1.3846591 -3.8431699 0.4004636
vn -0.9956657 -0.0269320 -0.0890194
vt 0.8646598 1.5176780
v 1.3716220 -3.7906771 0.5322098
vn -0.9956657 -0.0269320 -0.0890194
vt 0.9588711 1.5423750
v 1.3716220 3.8075271 0.5495029
vn -0.9957254 0.0272581 -0.0882490
vt 0.9588711 -3.0605240
v 1.3846591 3.8510940 0.4145135
vn -0.9957254 0.0272581 -0.0882490
vt 0.8646598 -3.0532651
v 1.3846591 2.8916781 0.1195206
vn -0.9958370 0.0136442 -0.0901251
vt 0.8646598 -3.5000000
v 1.3716220 2.8752780 0.2602045
vn -0.9958370 0.0136442 -0.0901251
vt 0.9588711 -3.5000000
v 1.3585850 -2.9013529 0.1173367
vn 0.9958048 -0.0134531 -0.0905094
vt 0.8646598 1.9750500
v 1.3585850 2.8916781 0.1195206
vn 0.9958370 0.0136439 -0.0901246
vt 0.8646598 4.5000000
v 1.3716220 2.8752780 0.2602045
vn 0.9958370 0.0136439 -0.0901246
vt 0.9588711 4.4926701
v 1.3716220 -2.8933189 0.2589075
vn 0.9958048 -0.0134531 -0.0905094
vt 0.9588711 1.9786000
v 1.3716220 -3.7906771 0.5322098
vn 0.9956658 -0.0269314 -0.0890178
vt 0.9588711 1.5423750
v 1.3585860 -3.8431699 0.4004636
vn 0.9956658 -0.0269314 -0.0890178
vt 0.8646598 1.5176780
v 1.3716220 3.8075271 0.5495029
vn 0.9957255 0.0272575 -0.0882479
vt 0.9588711 -3.0605240
v 1.3716220 2.8752780 0.2602045
vn 0.9958370 0.0136439 -0.0901246
vt 0.9588711 -3.5000000
v 1.3585850 2.8916781 0.1195206
vn 0.9958370 0.0136439 -0.0901246
vt 0.8646598 -3.5000000
v 1.3585850 3.8510940 0.4145135
vn 0.9957255 0.0272575 -0.0882479
vt 0.8646598 -3.0532651
v 1.5914700 2.9052849 0.0002948
vn 0.0000000 0.1489299 -0.9888478
vt 0.4467563 4.5000000
v 1.5914700 -2.9083469 -0.0024594
vn 0.0000000 -0.1439582 -0.9895838
vt 0.4467563 1.9720190
v 0.7314700 -2.9083469 -0.0024594
vn 0.0000000 -0.1439582 -0.9895838
vt 0.8188554 1.9720190
v 0.7314700 2.9052849 0.0002948
vn 0.0000000 0.1489299 -0.9888478
vt 0.8188554 4.5000000
v 1.5914700 -3.8887610 0.2894617
vn 0.0000000 -0.3620101 -0.9321742
vt 0.4467563 1.5260930
v 0.7314700 -3.8887610 0.2894617
vn 0.0000000 -0.3620101 -0.9321742
vt 0.8188554 1.5260930
v 1.5914700 -4.0705228 0.3775888
vn 0.0000000 -0.6800360 -0.7331788
vt 0.4467563 1.4411310
v 0.7314700 -4.0705228 0.3775888
vn 0.0000000 -0.6800360 -0.7331788
vt 0.8188554 1.4411310
v 1.5914700 -4.2082210 0.6144302
vn 0.0000000 -0.9558502 -0.2938544
vt 0.4467563 1.3253710
v 0.7314700 -4.2082210 0.6144302
vn 0.0000000 -0.9558502 -0.2938544
vt 0.8188554 1.3253710
v 1.5914700 -4.2274990 0.8898273
vn 0.0000000 -0.9748076 0.2230474
vt 0.4467563 1.2068371
v 0.7314700 -4.2274990 0.8898273
vn 0.0000000 -0.9748076 0.2230474
vt 0.8188554 1.2068371
v 1.5914700 -4.0911779 1.1280460
vn 0.0000000 -0.7071075 0.7071062
vt 0.4467563 1.0919980
v 0.7314700 -4.0911779 1.1280460
vn 0.0000000 -0.7071075 0.7071062
vt 0.8188554 1.0919980
v 1.5914700 -3.8529589 1.2643681
vn 0.0000000 -0.4966791 0.8679342
vt 0.4467563 0.9786117
v 0.7314700 -3.8529601 1.2643681
vn 0.0000000 -0.4966791 0.8679342
vt 0.8188554 0.9786117
v 1.5914700 4.2268791 1.1417410
vn 0.0000000 0.9201490 0.3915685
vt 0.4467563 -2.5830140
v 1.5914700 4.3268871 0.9067316
vn 0.0000000 0.9831547 0.1827754
vt 0.4467563 -2.6906569
v 0.7314700 4.3268871 0.9067316
vn 0.0000000 0.9831547 0.1827754
vt 0.8188554 -2.6906569
v 0.7314700 4.2268791 1.1417410
vn 0.0000000 0.9201490 0.3915685
vt 0.8188554 -2.5830140
v 1.5914700 4.3180742 0.6529858
vn 0.0000000 0.9633660 -0.2681901
vt 0.4467563 -2.7984409
v 0.7314700 4.3180742 0.6529858
vn 0.0000000 0.9633660 -0.2681901
vt 0.8188554 -2.7984409
v 1.5914700 4.2106690 0.4602078
vn 0.0000000 0.7077484 -0.7064646
vt 0.4467563 -2.8948381
v 0.7314700 4.2106700 0.4602078
vn 0.0000000 0.7077484 -0.7064646
vt 0.8188554 -2.8948381
v 1.5914700 3.9793351 0.3307712
vn 0.0000000 0.3933859 -0.9193735
vt 0.4467563 -3.0119920
v 0.7314700 3.9793351 0.3307712
vn 0.0000000 0.3933859 -0.9193735
vt 0.8188554 -3.0119920
v 1.5914700 2.9052849 0.0002948
vn 0.0000000 0.1489299 -0.9888478
vt 0.4467563 -3.5000000
v 0.7314700 2.9052849 0.0002948
vn 0.0000000 0.1489299 -0.9888478
vt 0.8188554 -3.5000000
v 1.7074569 2.8916781 0.1195209
vn 0.0000000 -0.1494139 0.9887748
vt 0.3992835 4.5000000
v 0.6159413 2.8916781 0.1195209
vn 0.0000000 -0.1494139 0.9887748
vt 0.0023501 4.5000000
v 0.6159412 -2.9013529 0.1173367
vn 0.0000000 0.1453071 0.9893867
vt 0.0023501 1.9720190
v 1.7074569 -2.9013541 0.1173367
vn 0.0000000 0.1453071 0.9893867
vt 0.3992835 1.9720190
v 0.6159412 -3.8431699 0.4004636
vn 0.0000000 0.3552916 0.9347555
vt 0.0023501 1.5260930
v 1.7074569 -3.8431699 0.4004636
vn 0.0000000 0.3552916 0.9347555
vt 0.3992835 1.5260930
v 0.6159412 -3.9952011 0.4710049
vn 0.0000000 0.6789277 0.7342052
vt 0.0023501 1.4411310
v 1.7074580 -3.9952011 0.4710049
vn 0.0000000 0.6789277 0.7342052
vt 0.3992835 1.4411310
v 0.6159412 -4.0951781 0.6486441
vn 0.0000000 0.9580156 0.2867162
vt 0.0023501 1.3253710
v 1.7074569 -4.0951781 0.6486441
vn 0.0000000 0.9580156 0.2867162
vt 0.3992835 1.3253710
v 0.6159412 -4.1101170 0.8648993
vn 0.0000000 0.9752872 -0.2209409
vt 0.0023501 1.2068371
v 1.7074569 -4.1101170 0.8648993
vn 0.0000000 0.9752872 -0.2209409
vt 0.3992835 1.2068371
v 0.6159412 -4.0089431 1.0438670
vn 0.0000000 0.7095357 -0.7046695
vt 0.0023501 1.0919980
v 1.7074569 -4.0089431 1.0438670
vn 0.0000000 0.7095357 -0.7046695
vt 0.3992835 1.0919980
v 0.6159412 -3.8301930 1.1465470
vn 0.0000000 0.4981053 -0.8671166
vt 0.0023501 0.9786117
v 1.7074580 -3.8301940 1.1465470
vn 0.0000000 0.4981053 -0.8671166
vt 0.3992835 0.9786117
v 1.7074569 4.1338148 1.0659850
vn 0.0000000 -0.9207879 -0.3900636
vt 0.3992835 -2.5830140
v 0.6159412 4.1338148 1.0659850
vn 0.0000000 -0.9207879 -0.3900636
vt 0.0023501 -2.5830140
v 0.6159412 4.2104511 0.8850787
vn 0.0000000 -0.9830126 -0.1835383
vt 0.0023501 -2.6906569
v 1.7074569 4.2104502 0.8850787
vn 0.0000000 -0.9830126 -0.1835383
vt 0.3992835 -2.6906569
v 0.6159412 4.2043371 0.6912433
vn 0.0000000 -0.9645424 0.2639280
vt 0.0023501 -2.7984409
v 1.7074569 4.2043371 0.6912433
vn 0.0000000 -0.9645424 0.2639280
vt 0.3992835 -2.7984409
v 0.6159412 4.1214271 0.5404306
vn 0.0000000 -0.7009950 0.7131662
vt 0.0023501 -2.8948381
v 1.7074569 4.1214261 0.5404306
vn 0.0000000 -0.7009950 0.7131662
vt 0.3992835 -2.8948381
v 0.6159412 3.9335780 0.4413321
vn 0.0000000 -0.3825062 0.9239530
vt 0.0023501 -3.0119920
v 1.7074569 3.9335790 0.4413321
vn 0.0000000 -0.3825062 0.9239530
vt 0.3992835 -3.0119920
v 0.6159413 2.8916781 0.1195209
vn 0.0000000 -0.1494139 0.9887748
vt 0.0023501 -3.5000000
v 1.7074569 2.8916781 0.1195209
vn 0.0000000 -0.1494139 0.9887748
vt 0.3992835 -3.5000000
v 0.7314700 -2.9083469 -0.0024594
vn -0.7206038 -0.1005804 -0.6860130
vt 0.8187232 1.9720190
v 0.6159412 -2.9013529 0.1173367
vn -0.7206038 -0.1005804 -0.6860130
vt 0.8643093 1.9720190
v 0.6159413 2.8916781 0.1195209
vn -0.7214482 0.1035110 -0.6846883
vt 0.8643093 4.5000000
v 0.7314700 2.9052849 0.0002948
vn -0.7214482 0.1035110 -0.6846883
vt 0.8187233 4.5000000
v 1.7074569 2.8916781 0.1195209
vn 0.7200764 0.1037234 -0.6860988
vt 0.3992835 4.5000000
v 1.7074569 -2.9013541 0.1173367
vn 0.7192302 -0.1007858 -0.6874229
vt 0.3992835 1.9720190
v 1.5914700 -2.9083469 -0.0024594
vn 0.7192302 -0.1007858 -0.6874229
vt 0.4467563 1.9720190
v 1.5914700 2.9052849 0.0002948
vn 0.7200764 0.1037234 -0.6860988
vt 0.4467563 4.5000000
v 0.7314700 -3.8887610 0.2894617
vn -0.7161040 -0.2505691 -0.6514677
vt 0.8187232 1.5260930
v 0.6159412 -3.8431699 0.4004636
vn -0.7161040 -0.2505691 -0.6514677
vt 0.8643093 1.5260930
v 1.7074569 -3.8431699 0.4004636
vn 0.7147200 -0.2510768 -0.6527908
vt 0.3992835 1.5260930
v 1.5914700 -3.8887610 0.2894617
vn 0.7147200 -0.2510768 -0.6527908
vt 0.4467563 1.5260930
v 0.6159412 -3.9952011 0.4710049
vn -0.7243136 -0.4700707 -0.5043842
vt 0.8643093 1.4411310
v 0.7314700 -4.0705228 0.3775888
vn -0.7243136 -0.4700707 -0.5043842
vt 0.8187232 1.4411310
v 1.7074580 -3.9952011 0.4710049
vn 0.7229475 -0.4710404 -0.5054383
vt 0.3992835 1.4411310
v 1.5914700 -4.0705228 0.3775888
vn 0.7229475 -0.4710404 -0.5054383
vt 0.4467563 1.4411310
v 0.7314700 -4.2082210 0.6144302
vn -0.7125292 -0.6711352 -0.2046452
vt 0.8187232 1.3253710
v 0.6159412 -4.0951781 0.6486441
vn -0.7125292 -0.6711352 -0.2046452
vt 0.8643093 1.3253710
v 1.7074569 -4.0951781 0.6486441
vn 0.7111383 -0.6724846 -0.2050532
vt 0.3992835 1.3253710
v 1.5914700 -4.2082210 0.6144302
vn 0.7111383 -0.6724846 -0.2050532
vt 0.4467563 1.3253710
v 0.6159412 -4.1101170 0.8648993
vn -0.7192556 -0.6772308 0.1550157
vt 0.8643093 1.2068371
v 0.7314700 -4.2274990 0.8898273
vn -0.7192556 -0.6772308 0.1550157
vt 0.8187232 1.2068371
v 1.7074569 -4.1101170 0.8648993
vn 0.7178801 -0.6786168 0.1553306
vt 0.3992835 1.2068371
v 1.5914700 -4.2274990 0.8898273
vn 0.7178801 -0.6786168 0.1553306
vt 0.4467563 1.2068371
v 0.6159412 -4.0089431 1.0438670
vn -0.7142212 -0.4956492 0.4941863
vt 0.8643093 1.0919980
v 0.7314700 -4.0911779 1.1280460
vn -0.7142212 -0.4956492 0.4941863
vt 0.8187232 1.0919980
v 1.7074569 -4.0089431 1.0438670
vn 0.7128337 -0.4966501 0.4951837
vt 0.3992835 1.0919980
v 1.5914700 -4.0911779 1.1280460
vn 0.7128337 -0.4966501 0.4951837
vt 0.4467563 1.0919980
v 0.6159412 -3.8301930 1.1465470
vn -0.7015499 -0.3543791 0.6182582
vt 0.8643093 0.9786117
v 0.7314700 -3.8529601 1.2643681
vn -0.7015499 -0.3543791 0.6182582
vt 0.8187232 0.9786117
v 1.7074580 -3.8301940 1.1465470
vn 0.7001365 -0.3550712 0.6194621
vt 0.3992835 0.9786117
v 1.5914700 -3.8529589 1.2643681
vn 0.7001365 -0.3550712 0.6194621
vt 0.4467563 0.9786117
v 0.7314700 4.3268871 0.9067316
vn -0.7150245 0.6872897 0.1279572
vt 0.8187232 -2.6906569
v 0.6159412 4.2104511 0.8850787
vn -0.7150245 0.6872897 0.1279572
vt 0.8643093 -2.6906569
v 0.6159412 4.1338148 1.0659850
vn -0.7068793 0.6510496 0.2765069
vt 0.8643093 -2.5830140
v 0.7314700 4.2268791 1.1417410
vn -0.7068793 0.6510496 0.2765069
vt 0.8187232 -2.5830140
v 1.7074569 4.1338148 1.0659850
vn 0.7054768 0.6523368 0.2770545
vt 0.3992835 -2.5830140
v 1.7074569 4.2104502 0.8850787
vn 0.7136388 0.6886799 0.1282174
vt 0.3992835 -2.6906569
v 1.5914700 4.3268871 0.9067316
vn 0.7136388 0.6886799 0.1282174
vt 0.4467563 -2.6906569
v 1.5914700 4.2268791 1.1417410
vn 0.7054768 0.6523368 0.2770545
vt 0.4467563 -2.5830140
v 0.6159412 4.2043371 0.6912433
vn -0.7195672 0.6695514 -0.1841847
vt 0.8643093 -2.7984409
v 0.7314700 4.3180742 0.6529858
vn -0.7195672 0.6695514 -0.1841847
vt 0.8187232 -2.7984409
v 1.7074569 4.2043371 0.6912433
vn 0.7181920 0.6709217 -0.1845652
vt 0.3992835 -2.7984409
v 1.5914700 4.3180742 0.6529858
vn 0.7181920 0.6709217 -0.1845652
vt 0.4467563 -2.7984409
v 0.6159412 4.1214271 0.5404306
vn -0.7249902 0.4849585 -0.4890853
vt 0.8643093 -2.8948381
v 0.7314700 4.2106700 0.4602078
vn -0.7249902 0.4849585 -0.4890853
vt 0.8187232 -2.8948381
v 1.7074569 4.1214261 0.5404306
vn 0.7236263 0.4859683 -0.4901020
vt 0.3992835 -2.8948381
v 1.5914700 4.2106690 0.4602078
vn 0.7236263 0.4859683 -0.4901020
vt 0.4467563 -2.8948381
v 0.7314700 3.9793351 0.3307712
vn -0.7142062 0.2723254 -0.6447855
vt 0.8187232 -3.0119920
v 0.6159412 3.9335780 0.4413321
vn -0.7142062 0.2723254 -0.6447855
vt 0.8643093 -3.0119920
v 1.7074569 3.9335790 0.4413321
vn 0.7128186 0.2728739 -0.6460879
vt 0.3992835 -3.0119920
v 1.5914700 3.9793351 0.3307712
vn 0.7128186 0.2728739 -0.6460879
vt 0.4467563 -3.0119920
v 0.7314700 2.9052849 0.0002948
vn -0.7214482 0.1035110 -0.6846883
vt 0.8187232 -3.5000000
v 0.6159413 2.8916781 0.1195209
vn -0.7214482 0.1035110 -0.6846883
vt 0.8643093 -3.5000000
v 1.7074569 2.8916781 0.1195209
vn 0.7200764 0.1037234 -0.6860988
vt 0.3992835 -3.5000000
v 1.5914700 2.9052849 0.0002948
vn 0.7200764 0.1037234 -0.6860988
vt 0.4467563 -3.5000000

g group_62817032_140627820913424
f 1/1/1 2/2/2 3/3/3 
f 1/1/1 3/3/3 4/4/4 
f 4/4/4 3/3/3 5/5/5 
f 4/4/4 5/5/5 6/6/6 
f 7/7/7 8/8/8 9/9/9 
f 7/7/7 9/9/9 10/10/10 
f 11/11/11 12/12/12 13/13/13 
f 11/11/11 13/13/13 14/14/14 
f 14/14/14 15/15/15 16/16/16 
f 14/14/14 16/16/16 11/11/11 
f 17/17/17 18/18/18 19/19/19 
f 17/17/17 19/19/19 20/20/20 
f 21/21/21 22/22/22 23/23/23 
f 21/21/21 23/23/23 24/24/24 
f 22/22/22 25/25/25 26/26/26 
f 22/22/22 26/26/26 23/23/23 
f 25/25/25 27/27/27 28/28/28 
f 25/25/25 28/28/28 26/26/26 
f 27/27/27 29/29/29 30/30/30 
f 27/27/27 30/30/30 28/28/28 
f 29/29/29 31/31/31 32/32/32 
f 29/29/29 32/32/32 30/30/30 
f 31/31/31 33/33/33 34/34/34 
f 31/31/31 34/34/34 32/32/32 
f 33/33/33 35/35/35 36/36/36 
f 33/33/33 36/36/36 34/34/34 
f 37/37/37 38/38/38 39/39/39 
f 37/37/37 39/39/39 40/40/40 
f 38/38/38 41/41/41 42/42/42 
f 38/38/38 42/42/42 39/39/39 
f 41/41/41 43/43/43 44/44/44 
f 41/41/41 44/44/44 42/42/42 
f 43/43/43 45/45/45 46/46/46 
f 43/43/43 46/46/46 44/44/44 
f 45/45/45 47/47/47 48/48/48 
f 45/45/45 48/48/48 46/46/46 
f 49/49/49 50/50/50 51/51/51 
f 49/49/49 51/51/51 52/52/52 
f 51/51/51 53/53/53 54/54/54 
f 51/51/51 54/54/54 52/52/52 
f 54/54/54 53/53/53 55/55/55 
f 54/54/54 55/55/55 56/56/56 
f 56/56/56 55/55/55 57/57/57 
f 56/56/56 57/57/57 58/58/58 
f 58/58/58 57/57/57 59/59/59 
f 58/58/58 59/59/59 60/60/60 
f 60/60/60 59/59/59 61/61/61 
f 60/60/60 61/61/61 62/62/62 
f 62/62/62 61/61/61 63/63/63 
f 62/62/62 63/63/63 64/64/64 
f 65/65/65 66/66/66 67/67/67 
f 65/65/65 67/67/67 68/68/68 
f 68/68/68 67/67/67 69/69/69 
f 68/68/68 69/69/69 70/70/70 
f 70/70/70 69/69/69 71/71/71 
f 70/70/70 71/71/71 72/72/72 
f 72/72/72 71/71/71 73/73/73 
f 72/72/72 73/73/73 74/74/74 
f 73/73/73 75/75/75 76/76/76 
f 73/73/73 76/76/76 74/74/74 
f 77/77/77 78/78/78 79/79/79 
f 77/77/77 79/79/79 80/80/80 
f 81/81/81 82/82/82 83/83/83 
f 81/81/81 83/83/83 84/84/84 
f 85/85/85 86/86/86 78/78/78 
f 85/85/85 78/78/78 77/77/77 
f 87/87/87 88/88/88 83/83/83 
f 87/87/87 83/83/83 82/82/82 
f 89/89/89 86/86/86 85/85/85 
f 89/89/89 85/85/85 90/90/90 
f 88/88/88 87/87/87 91/91/91 
f 88/88/88 91/91/91 92/92/92 
f 93/93/93 94/94/94 89/89/89 
f 93/93/93 89/89/89 90/90/90 
f 91/91/91 95/95/95 96/96/96 
f 91/91/91 96/96/96 92/92/92 
f 97/97/97 94/94/94 93/93/93 
f 97/97/97 93/93/93 98/98/98 
f 95/95/95 99/99/99 100/100/100 
f 95/95/95 100/100/100 96/96/96 
f 101/101/101 97/97/97 98/98/98 
f 101/101/101 98/98/98 102/102/102 
f 100/100/100 99/99/99 103/103/103 
f 100/100/100 103/103/103 104/104/104 
f 105/105/105 101/101/101 102/102/102 
f 105/105/105 102/102/102 106/106/106 
f 104/104/104 103/103/103 107/107/107 
f 104/104/104 107/107/107 108/108/108 
f 109/109/109 110/110/110 111/111/111 
f 109/109/109 111/111/111 112/112/112 
f 113/113/113 114/114/114 115/115/115 
f 113/113/113 115/115/115 116/116/116 
f 117/117/117 110/110/110 109/109/109 
f 117/117/117 109/109/109 118/118/118 
f 115/115/115 114/114/114 119/119/119 
f 115/115/115 119/119/119 120/120/120 
f 121/121/121 117/117/117 118/118/118 
f 121/121/121 118/118/118 122/122/122 
f 120/120/120 119/119/119 123/123/123 
f 120/120/120 123/123/123 124/124/124 
f 125/125/125 126/126/126 121/121/121 
f 125/125/125 121/121/121 122/122/122 
f 123/123/123 127/127/127 128/128/128 
f 123/123/123 128/128/128 124/124/124 
f 129/129/129 130/130/130 126/126/126 
f 129/129/129 126/126/126 125/125/125 
f 131/131/131 132/132/132 128/128/128 
f 131/131/131 128/128/128 127/127/127 
