v -1.2680845 -0.1773204 0.6870514
vn -0.0000029 0.8660253 0.5000001
vt 0.1414340 0.8726364
v -1.0374751 -0.1773195 0.6870514
vn -0.0000026 0.8660259 0.4999991
vt 0.1652309 0.8726366
v -1.2680845 -0.1239925 0.4880296
vn -0.0000011 1.0000000 0.0000014
vt 0.1414340 0.8917848
v -1.0374751 -0.1239925 0.4880296
vn 0.0000000 1.0000000 0.0000001
vt 0.1652309 0.8917848
v -1.2680845 -0.3230134 0.8327453
vn 0.0000000 0.5000018 0.8660244
vt 0.1414340 0.8533775
v -1.0374751 -0.3230134 0.8327453
vn -0.0000008 0.5000011 0.8660249
vt 0.1652309 0.8533776
v -1.2680845 -0.5220352 0.8860732
vn 0.0000000 0.0000004 1.0000000
vt 0.1414340 0.8342295
v -1.0374751 -0.5220352 0.8860732
vn 0.0000000 0.0000004 1.0000000
vt 0.1652309 0.8342295
v -1.2680845 -0.7210580 0.8327452
vn 0.0000000 -0.5000002 0.8660253
vt 0.1414340 0.8533775
v -1.0374751 -0.7210580 0.8327452
vn 0.0000000 -0.5000002 0.8660253
vt 0.1652309 0.8533776
v -1.2680845 -0.8667518 0.6870513
vn 0.0000000 -0.8660253 0.5000002
vt 0.1414340 0.8726364
v -1.0374751 -0.8667518 0.6870513
vn 0.0000000 -0.8660253 0.5000002
vt 0.1652309 0.8726366
v -1.2680845 -0.9200797 0.4880296
vn 0.0000000 -1.0000000 -0.0000000
vt 0.1414340 0.8917848
v -1.0374751 -0.9200797 0.4880296
vn 0.0000000 -1.0000000 -0.0000001
vt 0.1652309 0.8917848
v -1.2680845 -0.1773194 0.2890078
vn 0.0000000 0.8660263 -0.4999984
vt 0.1414340 0.8726364
v -1.0374751 -0.1773194 0.2890078
vn 0.0000000 0.8660263 -0.4999984
vt 0.1652309 0.8726366
v -1.2680845 -0.3230134 0.1433139
vn 0.0000000 0.5000004 -0.8660252
vt 0.1414340 0.8533775
v -1.0374751 -0.3230134 0.1433139
vn 0.0000000 0.5000003 -0.8660253
vt 0.1652309 0.8533776
v -1.2680845 -0.5220352 0.0899860
vn 0.0000000 0.0000006 -1.0000000
vt 0.1414340 0.8342295
v -1.0374751 -0.5220352 0.0899860
vn 0.0000000 0.0000005 -1.0000000
vt 0.1652309 0.8342295
v -1.2680845 -0.7210579 0.1433139
vn 0.0000000 -0.4999999 -0.8660254
vt 0.1414340 0.8533775
v -1.0374751 -0.7210579 0.1433139
vn 0.0000000 -0.5000000 -0.8660254
vt 0.1652309 0.8533776
v -1.2680845 -0.8667518 0.2890078
vn 0.0000000 -0.8660253 -0.5000003
vt 0.1414340 0.8726364
v -1.0374751 -0.8667518 0.2890078
vn 0.0000000 -0.8660253 -0.5000003
vt 0.1652309 0.8726366
v -1.0374751 -0.8667518 0.2890078
vn 1.0000000 0.0000000 0.0000000
vt 0.1289860 0.8227311
v -1.0374751 -0.7210579 0.1433139
vn 1.0000000 0.0000000 0.0000000
vt 0.1243374 0.8399978
v -1.0374751 -0.3230134 0.1433139
vn 1.0000000 0.0000000 0.0000000
vt 0.0945635 0.8571537
v -1.0374751 -0.5220352 0.0899860
vn 1.0000000 0.0000000 0.0000000
vt 0.1117195 0.8525050
v -1.0374751 -0.1239925 0.4880296
vn 1.0000000 0.0000000 0.0000000
vt 0.0647897 0.8399978
v -1.0374751 -0.1773194 0.2890078
vn 1.0000000 0.0000000 0.0000000
vt 0.0774077 0.8525050
v -1.0374751 -0.1773195 0.6870514
vn 1.0000000 0.0000000 0.0000000
vt 0.0602519 0.8227311
v -1.0374751 -0.3230134 0.8327453
vn 1.0000000 0.0000000 0.0000000
vt 0.0647897 0.8055754
v -1.0374751 -0.5220352 0.8860732
vn 1.0000000 0.0000000 0.0000000
vt 0.0774077 0.7929575
v -1.0374751 -0.7210580 0.8327452
vn 1.0000000 0.0000000 0.0000000
vt 0.0945635 0.7884195
v -1.0374751 -0.9200797 0.4880296
vn 1.0000000 0.0000000 0.0000000
vt 0.1243374 0.8055754
v -1.0374751 -0.8667518 0.6870513
vn 1.0000000 0.0000000 0.0000000
vt 0.1117195 0.7929575
v -1.2680845 -0.9200797 0.4880296
vn -1.0000000 0.0000000 0.0000000
vt 0.1683876 0.9646410
v -1.2680845 -0.8667518 0.6870513
vn -1.0000000 0.0000000 0.0000000
vt 0.1683876 0.9420617
v -1.2680845 -0.8667518 0.2890078
vn -1.0000000 0.0000000 0.0000000
vt 0.1792346 0.9834571
v -1.2680845 -0.5220352 0.0899860
vn -1.0000000 0.0000000 0.0000000
vt 0.2199659 0.9940827
v -1.2680845 -0.7210580 0.8327452
vn -1.0000000 0.0000000 0.0000000
vt 0.1790132 0.9237990
v -1.2680845 -0.5220352 0.8860732
vn -1.0000000 0.0000000 0.0000000
vt 0.1978293 0.9126199
v -1.2680845 -0.1773204 0.6870514
vn -1.0000000 0.0000000 0.0000000
vt 0.2386714 0.9235777
v -1.2680845 -0.3230134 0.8327453
vn -1.0000000 0.0000000 0.0000000
vt 0.2196339 0.9125093
v -1.2680845 -0.1239925 0.4880296
vn -1.0000000 0.0000000 0.0000000
vt 0.2498503 0.9418403
v -1.2680845 -0.1773194 0.2890078
vn -1.0000000 0.0000000 0.0000000
vt 0.2499611 0.9644197
v -1.2680845 -0.3230134 0.1433139
vn -1.0000000 0.0000000 0.0000000
vt 0.2388928 0.9832358
v -1.2680845 -0.7210579 0.1433139
vn -1.0000000 0.0000000 0.0000000
vt 0.1980507 0.9940827
v -1.5457304 -0.4440952 0.4080646
vn -1.0000000 -0.0000002 -0.0000004
vt 0.1372047 0.9036622
v -1.5457304 -0.5240601 0.3749426
vn -1.0000000 0.0000006 -0.0000005
vt 0.1467234 0.8997883
v -1.5457305 -0.6371429 0.4880276
vn -1.0000000 0.0000010 0.0000000
vt 0.1600055 0.9131809
v -1.5457305 -0.6040220 0.4080647
vn -1.0000000 0.0000018 0.0000007
vt 0.1561316 0.9036622
v -1.5457304 -0.5240601 0.6011136
vn -1.0000000 0.0000005 0.0000002
vt 0.1467234 0.9264629
v -1.5457305 -0.6040221 0.5679905
vn -1.0000000 0.0000018 -0.0000007
vt 0.1561316 0.9225889
v -1.5457305 -0.4109743 0.4880285
vn -1.0000000 -0.0000014 -0.0000003
vt 0.1333308 0.9131809
v -1.5457304 -0.4440952 0.5679905
vn -1.0000000 0.0000007 0.0000018
vt 0.1372047 0.9225889
v -1.0152118 -0.4465010 0.4878109
vn -0.0033791 0.9999943 -0.0000015
vt 0.1479378 0.8285381
v -1.5431771 -0.4482852 0.4878106
vn -0.0033795 0.9999943 -0.0000033
vt 0.1479378 0.7547592
v -1.5431771 -0.5246772 0.5642035
vn 0.0000046 -0.0015180 0.9999989
vt 0.1586740 0.7543166
v -1.0152117 -0.5228931 0.5642036
vn -0.0000050 0.0015218 0.9999989
vt 0.1586740 0.8280953
v -1.0152118 -0.5992858 0.4878105
vn 0.0033794 -0.9999943 -0.0000055
vt 0.1692996 0.8275418
v -1.5431771 -0.6010700 0.4878106
vn 0.0033791 -0.9999943 -0.0000039
vt 0.1692996 0.7537631
v -1.5431771 -0.5246770 0.4114186
vn 0.0000053 -0.0015174 -0.9999989
vt 0.1799251 0.7543166
v -1.0152116 -0.5228930 0.4114187
vn -0.0000050 0.0015252 -0.9999989
vt 0.1799251 0.8280953
v -1.0152116 -0.5228930 0.4114187
vn -0.0000050 0.0015252 -0.9999989
vt 0.1373120 0.8280953
v -1.5431771 -0.5246770 0.4114186
vn 0.0000053 -0.0015174 -0.9999989
vt 0.1373120 0.7543166
v -1.2680845 -0.1239925 0.4880296
vn -0.0000011 1.0000000 0.0000014
vt 0.1414340 0.8917848
v -1.0374751 -0.1239925 0.4880296
vn 0.0000000 1.0000000 0.0000001
vt 0.1652309 0.8917848
v -1.2680845 -0.5220352 0.8860732
vn 0.0000000 0.0000004 1.0000000
vt 0.1414340 0.8342295
v -1.0374751 -0.5220352 0.8860732
vn 0.0000000 0.0000004 1.0000000
vt 0.1652309 0.8342295
v -1.2680845 -0.9200797 0.4880296
vn 0.0000000 -1.0000000 -0.0000000
vt 0.1414340 0.8917848
v -1.0374751 -0.9200797 0.4880296
vn 0.0000000 -1.0000000 -0.0000001
vt 0.1652309 0.8917848
v -1.2680845 -0.5220352 0.0899860
vn 0.0000000 0.0000006 -1.0000000
vt 0.1414340 0.8342295
v -1.0374751 -0.5220352 0.0899860
vn 0.0000000 0.0000005 -1.0000000
vt 0.1652309 0.8342295
v -1.5431771 -0.5246772 0.5642035
vn 0.0000046 -0.0015180 0.9999989
vt 0.1586740 0.7543166
v -1.0152117 -0.5228931 0.5642036
vn -0.0000050 0.0015218 0.9999989
vt 0.1586740 0.8280953
v -1.5431771 -0.6010700 0.4878106
vn 0.0033791 -0.9999943 -0.0000039
vt 0.1692996 0.7537631
v -1.5431771 -0.6010700 0.4878106
vn 0.0033791 -0.9999943 -0.0000039
vt 0.1692996 0.7537631

g group_66126392_140627863706160
f 1/1/1 2/2/2 3/3/3 
f 3/3/3 2/2/2 4/4/4 
f 5/5/5 6/6/6 1/1/1 
f 1/1/1 6/6/6 2/2/2 
f 7/7/7 8/8/8 5/5/5 
f 5/5/5 8/8/8 6/6/6 
f 9/9/9 10/10/10 69/69/69 
f 69/69/69 10/10/10 70/70/70 
f 11/11/11 12/12/12 9/9/9 
f 9/9/9 12/12/12 10/10/10 
f 13/13/13 14/14/14 11/11/11 
f 11/11/11 14/14/14 12/12/12 
f 15/15/15 67/67/67 16/16/16 
f 16/16/16 67/67/67 68/68/68 
f 17/17/17 15/15/15 18/18/18 
f 18/18/18 15/15/15 16/16/16 
f 19/19/19 17/17/17 20/20/20 
f 20/20/20 17/17/17 18/18/18 
f 21/21/21 73/73/73 22/22/22 
f 22/22/22 73/73/73 74/74/74 
f 23/23/23 21/21/21 24/24/24 
f 24/24/24 21/21/21 22/22/22 
f 71/71/71 23/23/23 72/72/72 
f 72/72/72 23/23/23 24/24/24 
f 25/25/25 26/26/26 27/27/27 
f 27/27/27 26/26/26 28/28/28 
f 29/29/29 25/25/25 30/30/30 
f 25/25/25 27/27/27 30/30/30 
f 29/29/29 31/31/31 25/25/25 
f 25/25/25 31/31/31 32/32/32 
f 32/32/32 33/33/33 25/25/25 
f 25/25/25 33/33/33 34/34/34 
f 25/25/25 34/34/34 35/35/35 
f 35/35/35 34/34/34 36/36/36 
f 37/37/37 38/38/38 39/39/39 
f 39/39/39 38/38/38 40/40/40 
f 41/41/41 42/42/42 38/38/38 
f 38/38/38 42/42/42 43/43/43 
f 42/42/42 44/44/44 43/43/43 
f 45/45/45 46/46/46 43/43/43 
f 43/43/43 46/46/46 40/40/40 
f 46/46/46 47/47/47 40/40/40 
f 38/38/38 43/43/43 40/40/40 
f 39/39/39 40/40/40 48/48/48 
f 49/49/49 50/50/50 51/51/51 
f 51/51/51 50/50/50 52/52/52 
f 49/49/49 51/51/51 53/53/53 
f 53/53/53 51/51/51 54/54/54 
f 49/49/49 53/53/53 55/55/55 
f 55/55/55 53/53/53 56/56/56 
f 57/57/57 58/58/58 59/59/59 
f 59/59/59 60/60/60 57/57/57 
f 61/61/61 62/62/62 63/63/63 
f 63/63/63 64/64/64 61/61/61 
f 65/65/65 66/66/66 58/58/58 
f 58/58/58 57/57/57 65/65/65 
f 76/76/76 75/75/75 77/77/77 
f 78/78/78 61/61/61 76/76/76 
