v 1.6237475 2.8687708 0.4315054
vn 0.0000000 -0.0000005 -1.0000000
vt 0.1055281 0.8886335
v 1.5871825 2.8687708 0.4315054
vn 0.0000000 -0.0000005 -1.0000000
vt 0.1009901 0.8886335
v 1.5871825 3.0289433 0.4655512
vn 0.0000000 0.4067378 -0.9135450
vt 0.1009901 0.9054574
v 1.6237475 3.0289433 0.4655512
vn 0.0000000 0.4067378 -0.9135450
vt 0.1055281 0.9054574
v 1.6237475 2.4942467 0.7036133
vn 1.0000000 0.0000000 0.0000000
vt 0.0051183 0.9400813
v 1.6237475 2.5761216 0.5618012
vn 1.0000000 0.0000000 0.0000000
vt 0.0135303 0.9255818
v 1.6237475 2.7085984 0.4655514
vn 1.0000000 0.0000000 0.0000000
vt 0.0270335 0.9157311
v 1.6237475 2.4771297 0.8664671
vn 1.0000000 0.0000000 0.0000000
vt 0.0034579 0.9567946
v 1.6237475 2.5277314 1.0222030
vn 1.0000000 0.0000000 0.0000000
vt 0.0085494 0.9727329
v 1.6237475 2.6373017 1.1438938
vn 1.0000000 0.0000000 0.0000000
vt 0.0198391 0.9851294
v 1.6237475 2.7868955 1.2104967
vn 1.0000000 0.0000000 0.0000000
vt 0.0351133 0.9919918
v 1.6237475 2.9506459 1.2104979
vn 1.0000000 0.0000000 0.0000000
vt 0.0518264 0.9919918
v 1.6237475 3.1002398 1.1438938
vn 1.0000000 0.0000000 0.0000000
vt 0.0671008 0.9851294
v 1.6237475 3.2098100 1.0222030
vn 1.0000000 0.0000000 0.0000000
vt 0.0783905 0.9727329
v 1.6237475 3.2604122 0.8664669
vn 1.0000000 0.0000000 0.0000000
vt 0.0834820 0.9567946
v 1.6237475 3.2432961 0.7036130
vn 1.0000000 0.0000000 0.0000000
vt 0.0818217 0.9400813
v 1.6237475 3.1614196 0.5618013
vn 1.0000000 0.0000000 0.0000000
vt 0.0734096 0.9255818
v 1.6237475 3.0289433 0.4655512
vn 1.0000000 0.0000000 0.0000000
vt 0.0599064 0.9157311
v 1.6237475 2.8687708 0.4315054
vn 1.0000000 0.0000000 0.0000000
vt 0.0434147 0.9122999
v 1.5871825 2.7085984 0.4655514
vn -1.0000000 0.0000000 0.0000000
vt 0.1160430 0.8667183
v 1.5871825 2.5761216 0.5618012
vn -1.0000000 0.0000000 0.0000000
vt 0.1263365 0.8741340
v 1.5871825 2.4942467 0.7036133
vn -1.0000000 0.0000000 0.0000000
vt 0.1326455 0.8850915
v 1.5871825 2.4771297 0.8664671
vn -1.0000000 0.0000000 0.0000000
vt 0.1339737 0.8977095
v 1.5871825 2.5277314 1.0222030
vn -1.0000000 0.0000000 0.0000000
vt 0.1299890 0.9098847
v 1.5871825 2.6373017 1.1438938
vn -1.0000000 0.0000000 0.0000000
vt 0.1215771 0.9192927
v 1.5871825 2.7868955 1.2104967
vn -1.0000000 0.0000000 0.0000000
vt 0.1099553 0.9243842
v 1.5871825 2.9506459 1.2104979
vn -1.0000000 0.0000000 0.0000000
vt 0.0972269 0.9243842
v 1.5871825 3.1002398 1.1438938
vn -1.0000000 0.0000000 0.0000000
vt 0.0857158 0.9192927
v 1.5871825 3.2098100 1.0222030
vn -1.0000000 0.0000000 0.0000000
vt 0.0771932 0.9098847
v 1.5871825 3.2604122 0.8664669
vn -1.0000000 0.0000000 0.0000000
vt 0.0732085 0.8977095
v 1.5871825 3.2432961 0.7036130
vn -1.0000000 0.0000000 0.0000000
vt 0.0745368 0.8850915
v 1.5871825 3.1614196 0.5618013
vn -1.0000000 0.0000000 0.0000000
vt 0.0809564 0.8741340
v 1.5871825 3.0289433 0.4655512
vn -1.0000000 0.0000000 0.0000000
vt 0.0912499 0.8667183
v 1.5871825 2.8687708 0.4315054
vn -1.0000000 0.0000000 0.0000000
vt 0.1036465 0.8640618
v 1.6237475 3.0289433 0.4655512
vn 0.0000000 0.4067378 -0.9135450
vt 0.1055281 0.8719203
v 1.5871825 3.0289433 0.4655512
vn 0.0000000 0.4067378 -0.9135450
vt 0.1009901 0.8719203
v 1.5871825 3.1614196 0.5618013
vn 0.0000000 0.7431428 -0.6691329
vt 0.1009901 0.8886335
v 1.6237475 3.1614196 0.5618013
vn 0.0000000 0.7431428 -0.6691329
vt 0.1055281 0.8886335
v 1.5871825 3.2432961 0.7036130
vn 0.0000000 0.9510559 -0.3090191
vt 0.1009901 0.9054574
v 1.6237475 3.2432961 0.7036130
vn 0.0000000 0.9510559 -0.3090191
vt 0.1055281 0.9054574
v 1.6237475 3.2432961 0.7036130
vn 0.0000000 0.9510559 -0.3090191
vt 0.1055281 0.8719203
v 1.5871825 3.2432961 0.7036130
vn 0.0000000 0.9510559 -0.3090191
vt 0.1009901 0.8719203
v 1.5871825 3.2604122 0.8664669
vn 0.0000000 0.9945216 0.1045316
vt 0.1009901 0.8886335
v 1.6237475 3.2604122 0.8664669
vn 0.0000000 0.9945216 0.1045317
vt 0.1055281 0.8886335
v 1.5871825 3.2098100 1.0222030
vn 0.0000000 0.8660254 0.4999999
vt 0.1009901 0.9054574
v 1.6237475 3.2098100 1.0222030
vn 0.0000000 0.8660254 0.5000000
vt 0.1055281 0.9054574
v 1.6237475 3.2098100 1.0222030
vn 0.0000000 0.8660254 0.5000000
vt 0.1055281 0.8719203
v 1.5871825 3.2098100 1.0222030
vn 0.0000000 0.8660254 0.4999999
vt 0.1009901 0.8719203
v 1.5871825 3.1002398 1.1438938
vn 0.0000000 0.5877879 0.8090151
vt 0.1009901 0.8886335
v 1.6237475 3.1002398 1.1438938
vn 0.0000000 0.5877878 0.8090152
vt 0.1055281 0.8886335
v 1.5871825 2.9506459 1.2104979
vn 0.0000000 0.2079100 0.9781480
vt 0.1009901 0.9054574
v 1.6237475 2.9506459 1.2104979
vn 0.0000000 0.2079100 0.9781480
vt 0.1055281 0.9054574
v 1.6237475 2.9506459 1.2104979
vn 0.0000000 0.2079100 0.9781480
vt 0.1055281 0.8719203
v 1.5871825 2.9506459 1.2104979
vn 0.0000000 0.2079100 0.9781480
vt 0.1009901 0.8719203
v 1.5871825 2.7868955 1.2104967
vn 0.0000000 -0.2079135 0.9781472
vt 0.1009901 0.8886335
v 1.6237475 2.7868955 1.2104967
vn 0.0000000 -0.2079135 0.9781472
vt 0.1055281 0.8886335
v 1.5871825 2.6373017 1.1438938
vn 0.0000000 -0.5877854 0.8090169
vt 0.1009901 0.9054574
v 1.6237475 2.6373017 1.1438938
vn 0.0000000 -0.5877854 0.8090169
vt 0.1055281 0.9054574
v 1.6237475 2.6373017 1.1438938
vn 0.0000000 -0.5877854 0.8090169
vt 0.1055281 0.8719203
v 1.5871825 2.6373017 1.1438938
vn 0.0000000 -0.5877854 0.8090169
vt 0.1009901 0.8719203
v 1.5871825 2.5277314 1.0222030
vn 0.0000000 -0.8660260 0.4999989
vt 0.1009901 0.8886335
v 1.6237475 2.5277314 1.0222030
vn 0.0000000 -0.8660261 0.4999989
vt 0.1055281 0.8886335
v 1.5871825 2.4771297 0.8664671
vn 0.0000000 -0.9945220 0.1045274
vt 0.1009901 0.9054574
v 1.6237475 2.4771297 0.8664671
vn 0.0000000 -0.9945220 0.1045274
vt 0.1055281 0.9054574
v 1.6237475 2.4771297 0.8664671
vn 0.0000000 -0.9945220 0.1045274
vt 0.1055281 0.8719203
v 1.5871825 2.4771297 0.8664671
vn 0.0000000 -0.9945220 0.1045274
vt 0.1009901 0.8719203
v 1.5871825 2.4942467 0.7036133
vn 0.0000000 -0.9510565 -0.3090172
vt 0.1009901 0.8886335
v 1.6237475 2.4942467 0.7036133
vn 0.0000000 -0.9510565 -0.3090172
vt 0.1055281 0.8886335
v 1.5871825 2.5761216 0.5618012
vn 0.0000000 -0.7431452 -0.6691303
vt 0.1009901 0.9054574
v 1.6237475 2.5761216 0.5618012
vn 0.0000000 -0.7431452 -0.6691302
vt 0.1055281 0.9054574
v 1.5871825 2.7085984 0.4655514
vn 0.0000000 -0.4067370 -0.9135453
vt 0.1009901 0.8886335
v 1.6237475 2.7085984 0.4655514
vn 0.0000000 -0.4067370 -0.9135453
vt 0.1055281 0.8886335
v 1.6237475 2.7085984 0.4655514
vn 0.0000000 -0.4067370 -0.9135453
vt 0.1055281 0.8719203
v 1.5871825 2.7085984 0.4655514
vn 0.0000000 -0.4067370 -0.9135453
vt 0.1009901 0.8719203
v 1.6212397 3.0110922 0.8897812
vn 0.2814952 0.8382937 0.4669306
vt 0.4014163 0.7333078
v 1.6212397 3.0110919 0.7619695
vn 0.2814948 0.8382930 -0.4669322
vt 0.3768901 0.7333078
v 1.1120477 3.1478672 0.7005529
vn 0.2817781 0.8445588 -0.4553257
vt 0.3768833 0.7761050
v 1.1120477 3.1478672 0.9511979
vn 0.2817778 0.8445590 0.4553256
vt 0.4014707 0.7761050
v 1.6212397 2.7264495 0.7619694
vn 0.2814962 -0.8382933 -0.4669308
vt 0.3769029 0.7761225
v 1.6212397 2.7264495 0.8897812
vn 0.2814955 -0.8382931 0.4669313
vt 0.4014835 0.7761062
v 1.1120477 2.5896735 0.9511979
vn 0.2817794 -0.8445584 0.4553258
vt 0.4014540 0.7332755
v 1.1120477 2.5896735 0.7005531
vn 0.2817789 -0.8445587 -0.4553255
vt 0.3768906 0.7332747
v 1.5882435 3.1113141 0.5296764
vn -0.8514247 0.3708574 -0.3708650
vt 0.0848303 0.8716990
v 1.5882435 3.1600692 0.5784302
vn -0.8514238 0.3708570 -0.3708674
vt 0.0810671 0.8754623
v 1.6233685 3.1892059 0.5269274
vn 0.3083706 0.6726413 -0.6726524
vt 0.0787428 0.8714775
v 1.6233685 3.1628168 0.5005383
vn 0.3083671 0.6726461 -0.6726492
vt 0.0808457 0.8693746
v 1.6233685 3.1892059 0.5269274
vn 0.3083706 0.6726413 -0.6726524
vt 0.0765488 0.9217136
v 1.6233685 3.1600692 0.5784302
vn 1.0000000 0.0000000 0.0000000
vt 0.0735602 0.9269156
v 1.6233685 3.1113141 0.5296764
vn 1.0000000 0.0000000 0.0000000
vt 0.0685795 0.9219350
v 1.6233685 3.1628168 0.5005383
vn 0.3083671 0.6726461 -0.6726492
vt 0.0737816 0.9189464
v 1.5882435 2.8312345 0.4447596
vn -0.8514176 -0.0000023 -0.5244884
vt 0.1006580 0.9240522
v 1.5882435 2.9001832 0.4447593
vn -0.8514176 -0.0000023 -0.5244884
vt 0.1060814 0.9240522
v 1.6233695 2.8843691 0.3877383
vn 0.3083751 -0.0000043 -0.9512649
vt 0.1048640 0.9284795
v 1.6233695 2.8470492 0.3877385
vn 0.3083774 -0.0000046 -0.9512641
vt 0.1018756 0.9284795
v 1.6233695 2.8843691 0.3877383
vn 0.3083751 -0.0000043 -0.9512649
vt 0.0453359 0.9074355
v 1.6233695 2.9001832 0.4447593
vn 1.0000000 0.0000000 0.0000000
vt 0.0469963 0.9133016
v 1.6233695 2.8312345 0.4447596
vn 1.0000000 0.0000000 0.0000000
vt 0.0399125 0.9133016
v 1.6233695 2.8470492 0.3877385
vn 0.3083774 -0.0000046 -0.9512641
vt 0.0414620 0.9074355
v 1.5882435 2.5731425 0.5827603
vn -0.8514193 -0.3708645 -0.3708703
vt 0.1265579 0.8757943
v 1.5882435 2.6218975 0.5340064
vn -0.8514200 -0.3708625 -0.3708707
vt 0.1227946 0.8720311
v 1.6233695 2.5703945 0.5048684
vn 0.3083742 -0.6726419 -0.6726502
vt 0.1267793 0.8697067
v 1.6233695 2.5440054 0.5312575
vn 0.3083769 -0.6726447 -0.6726462
vt 0.1287715 0.8718096
v 1.6233695 2.5703945 0.5048684
vn 0.3083742 -0.6726419 -0.6726502
vt 0.0132378 0.9193892
v 1.6233695 2.6218975 0.5340064
vn 1.0000000 0.0000000 0.0000000
vt 0.0184401 0.9223777
v 1.6233695 2.5731425 0.5827603
vn 1.0000000 0.0000000 0.0000000
vt 0.0134592 0.9273584
v 1.6233695 2.5440054 0.5312575
vn 0.3083769 -0.6726447 -0.6726462
vt 0.0104709 0.9221562
v 1.5882435 2.4882257 0.8628399
vn -0.8514181 -0.5244876 0.0000000
vt 0.1330881 0.8974881
v 1.5882435 2.4882257 0.7938912
vn -0.8514181 -0.5244876 0.0000000
vt 0.1330881 0.8921754
v 1.6233695 2.4312046 0.8097062
vn 0.3083768 -0.9512643 0.0000000
vt 0.1375155 0.8933929
v 1.6233695 2.4312046 0.8470262
vn 0.3083748 -0.9512650 0.0000000
vt 0.1375155 0.8962708
v 1.6233695 2.4312046 0.8097062
vn 0.3083768 -0.9512643 0.0000000
vt 0.0885024 0.9500486
v 1.6233695 2.4882257 0.7938912
vn 1.0000000 0.0000000 0.0000000
vt 0.0826361 0.9483881
v 1.6233695 2.4882257 0.8628399
vn 1.0000000 0.0000000 0.0000000
vt 0.0826361 0.9554720
v 1.6233695 2.4312046 0.8470262
vn 0.3083748 -0.9512650 0.0000000
vt 0.0885024 0.9538116
v 1.5882435 2.6262267 1.1209319
vn -0.8514179 -0.3708687 0.3708692
vt 0.1224626 0.9175218
v 1.5882435 2.5774727 1.0721779
vn -0.8514181 -0.3708687 0.3708687
vt 0.1262258 0.9137586
v 1.6233695 2.5483346 1.1236799
vn 0.3083745 -0.6726452 0.6726467
vt 0.1284395 0.9177432
v 1.6233695 2.5747247 1.1500697
vn 0.3083756 -0.6726443 0.6726472
vt 0.1264472 0.9197354
v 1.6233695 2.5483346 1.1236799
vn 0.3083745 -0.6726452 0.6726467
vt 0.0109134 0.9827000
v 1.6233695 2.5774727 1.0721779
vn 1.0000000 0.0000000 0.0000000
vt 0.0139020 0.9774979
v 1.6233695 2.6262267 1.1209319
vn 1.0000000 0.0000000 0.0000000
vt 0.0188826 0.9824787
v 1.6233695 2.5747247 1.1500697
vn 0.3083756 -0.6726443 0.6726472
vt 0.0136806 0.9854671
v 1.5882435 2.9063070 1.2058487
vn -0.8514168 0.0000006 0.5244897
vt 0.1006580 0.9240522
v 1.5882435 2.8373580 1.2058488
vn -0.8514167 0.0000009 0.5244899
vt 0.1060814 0.9240522
v 1.6233695 2.8531723 1.2628696
vn 0.3083771 0.0000008 0.9512642
vt 0.1048640 0.9284795
v 1.6233695 2.8904922 1.2628696
vn 0.3083775 0.0000000 0.9512641
vt 0.1018756 0.9284795
v 1.6233695 2.8531723 1.2628696
vn 0.3083771 0.0000008 0.9512642
vt 0.0421263 0.9969780
v 1.6233695 2.8373580 1.2058488
vn 1.0000000 0.0000000 0.0000000
vt 0.0404659 0.9911119
v 1.6233695 2.9063070 1.2058487
vn 1.0000000 0.0000000 0.0000000
vt 0.0475497 0.9911119
v 1.6233695 2.8904922 1.2628696
vn 0.3083775 0.0000000 0.9512641
vt 0.0460001 0.9969780
v 1.5882435 3.1643975 1.0678480
vn -0.8514259 0.3708596 0.3708600
vt 0.0807352 0.9134265
v 1.5882435 3.1156442 1.1166016
vn -0.8514250 0.3708622 0.3708595
vt 0.0844982 0.9171898
v 1.6233685 3.1671464 1.1457396
vn 0.3083681 0.6726456 0.6726493
vt 0.0805138 0.9194034
v 1.6233685 3.1935356 1.1193509
vn 0.3083645 0.6726422 0.6726544
vt 0.0784107 0.9174111
v 1.6233685 3.1671464 1.1457396
vn 0.3083681 0.6726456 0.6726493
vt 0.0742244 0.9850245
v 1.6233685 3.1156442 1.1166016
vn 1.0000000 0.0000000 0.0000000
vt 0.0690221 0.9820359
v 1.6233685 3.1643975 1.0678480
vn 1.0000000 0.0000000 0.0000000
vt 0.0740030 0.9770552
v 1.6233685 3.1935356 1.1193509
vn 0.3083645 0.6726422 0.6726544
vt 0.0769913 0.9822572
v 1.5882435 3.2493150 0.7877680
vn -0.8514190 0.5244862 0.0000000
vt 0.0740941 0.8916219
v 1.5882435 3.2493150 0.8567171
vn -0.8514190 0.5244862 0.0000000
vt 0.0740941 0.8970455
v 1.6233695 3.3063364 0.8409020
vn 0.3083756 0.9512647 0.0000000
vt 0.0696667 0.8958279
v 1.6233695 3.3063364 0.8035822
vn 0.3083741 0.9512652 0.0000000
vt 0.0696667 0.8928395
v 1.6233695 3.3063364 0.8409020
vn 0.3083756 0.9512647 0.0000000
vt 0.0885024 0.9538116
v 1.6233695 3.2493150 0.8567171
vn 1.0000000 0.0000000 0.0000000
vt 0.0826361 0.9554720
v 1.6233695 3.2493150 0.7877680
vn 1.0000000 0.0000000 0.0000000
vt 0.0826361 0.9483881
v 1.6233695 3.3063364 0.8035822
vn 0.3083741 0.9512652 0.0000000
vt 0.0885024 0.9500486
v 1.0681096 3.0654223 1.2342275
vn 0.8499284 0.2286130 0.4747187
vt 0.0039219 0.9335791
v 1.3490859 2.8687694 0.8258754
vn 1.0000000 -0.0000004 0.0000001
vt 0.0434705 0.9525931
v 1.0681096 3.3106427 0.9267298
vn 0.8499284 0.5136880 0.1172456
vt 0.0337207 0.9100201
v 1.0681096 3.2231245 0.5432868
vn 0.8499284 0.4119456 -0.3285156
vt 0.0707943 0.9189098
v 1.0681096 2.8687694 0.3726385
vn 0.8499284 -0.0000002 -0.5268983
vt 0.0871139 0.9531870
v 1.0681096 2.5144153 0.5432868
vn 0.8499281 -0.4119460 -0.3285161
vt 0.0701136 0.9869696
v 1.0681096 2.4268966 0.9267299
vn 0.8499282 -0.5136881 0.1172460
vt 0.0331796 0.9953083
v 1.0681096 2.6721182 1.2342275
vn 0.8499281 -0.2286125 0.4747195
vt 0.0039597 0.9716835
v 1.0681096 3.3106427 0.9267298
vn -1.0000000 0.0000000 0.0000000
vt 0.0699812 0.9865702
v 1.0681096 3.2231245 0.5432868
vn -1.0000000 0.0000000 0.0000000
vt 0.0869815 0.9527876
v 1.0681096 2.8687694 0.3726385
vn -1.0000000 0.0000000 0.0000000
vt 0.0706619 0.9185104
v 1.0681096 2.5144153 0.5432868
vn -1.0000000 0.0000000 0.0000000
vt 0.0335883 0.9096207
v 1.0681096 2.4268966 0.9267299
vn -1.0000000 0.0000000 0.0000000
vt 0.0037895 0.9331798
v 1.0681096 2.6721182 1.2342275
vn -1.0000000 0.0000000 0.0000000
vt 0.0038273 0.9712841
v 1.0681096 3.0654223 1.2342275
vn -1.0000000 0.0000000 0.0000000
vt 0.0330471 0.9949089
v 1.6212397 2.7264495 0.8897812
vn 0.2814955 -0.8382931 0.4669313
vt 0.3768974 0.7761663
v 1.6212397 2.8687706 0.9809792
vn 0.2809477 -0.0000011 0.9597231
vt 0.3509642 0.7761663
v 1.1120477 2.8687706 1.1300390
vn 0.2809479 0.0000001 0.9597231
vt 0.3509642 0.7332804
v 1.1120477 2.5896735 0.9511979
vn 0.2817794 -0.8445584 0.4553258
vt 0.3768859 0.7332804
v 1.6212397 3.0110919 0.7619695
vn 0.2814948 0.8382930 -0.4669322
vt 0.3250310 0.7761663
v 1.6212397 2.8687706 0.6707715
vn 0.2809482 0.0000004 -0.9597229
vt 0.3509642 0.7761663
v 1.1120477 2.8687706 0.5217116
vn 0.2809478 0.0000004 -0.9597231
vt 0.3509642 0.7332804
v 1.1120477 3.1478672 0.7005529
vn 0.2817781 0.8445588 -0.4553257
vt 0.3250425 0.7332804
v 1.6212397 2.7264495 0.7619694
vn 0.2814962 -0.8382933 -0.4669308
vt 0.3768974 0.7761663
v 1.1120477 2.5896735 0.7005531
vn 0.2817789 -0.8445587 -0.4553255
vt 0.3768859 0.7332804
v 1.6212397 3.0110922 0.8897812
vn 0.2814952 0.8382937 0.4669306
vt 0.3250310 0.7761663
v 1.1120477 3.1478672 0.9511979
vn 0.2817778 0.8445590 0.4553256
vt 0.3250425 0.7332804
v 1.5871825 2.5761216 0.5618012
vn 0.0000000 -0.7431452 -0.6691303
vt 0.1009901 0.9054574
v 1.6237475 2.5761216 0.5618012
vn 0.0000000 -0.7431452 -0.6691302
vt 0.1055281 0.9054574

g group_66124208_140627863452672
f 1/1/1 2/2/2 3/3/3 
f 3/3/3 4/4/4 1/1/1 
f 5/5/5 6/6/6 7/7/7 
f 8/8/8 5/5/5 7/7/7 
f 9/9/9 8/8/8 7/7/7 
f 10/10/10 9/9/9 7/7/7 
f 11/11/11 10/10/10 7/7/7 
f 12/12/12 11/11/11 7/7/7 
f 13/13/13 12/12/12 7/7/7 
f 14/14/14 13/13/13 7/7/7 
f 15/15/15 14/14/14 7/7/7 
f 16/16/16 15/15/15 7/7/7 
f 17/17/17 16/16/16 7/7/7 
f 18/18/18 17/17/17 7/7/7 
f 19/19/19 18/18/18 7/7/7 
f 20/20/20 21/21/21 22/22/22 
f 20/20/20 22/22/22 23/23/23 
f 20/20/20 23/23/23 24/24/24 
f 20/20/20 24/24/24 25/25/25 
f 20/20/20 25/25/25 26/26/26 
f 20/20/20 26/26/26 27/27/27 
f 20/20/20 27/27/27 28/28/28 
f 20/20/20 28/28/28 29/29/29 
f 20/20/20 29/29/29 30/30/30 
f 20/20/20 30/30/30 31/31/31 
f 20/20/20 31/31/31 32/32/32 
f 20/20/20 32/32/32 33/33/33 
f 20/20/20 33/33/33 34/34/34 
f 35/35/35 36/36/36 37/37/37 
f 37/37/37 38/38/38 35/35/35 
f 38/38/38 37/37/37 39/39/39 
f 39/39/39 40/40/40 38/38/38 
f 41/41/41 42/42/42 43/43/43 
f 43/43/43 44/44/44 41/41/41 
f 44/44/44 43/43/43 45/45/45 
f 45/45/45 46/46/46 44/44/44 
f 47/47/47 48/48/48 49/49/49 
f 49/49/49 50/50/50 47/47/47 
f 50/50/50 49/49/49 51/51/51 
f 51/51/51 52/52/52 50/50/50 
f 53/53/53 54/54/54 55/55/55 
f 55/55/55 56/56/56 53/53/53 
f 56/56/56 55/55/55 57/57/57 
f 57/57/57 58/58/58 56/56/56 
f 59/59/59 60/60/60 61/61/61 
f 61/61/61 62/62/62 59/59/59 
f 62/62/62 61/61/61 63/63/63 
f 63/63/63 64/64/64 62/62/62 
f 65/65/65 66/66/66 67/67/67 
f 67/67/67 68/68/68 65/65/65 
f 68/68/68 67/67/67 69/69/69 
f 69/69/69 70/70/70 68/68/68 
f 175/175/175 174/174/174 71/71/71 
f 71/71/71 72/72/72 175/175/175 
f 73/73/73 74/74/74 2/2/2 
f 2/2/2 1/1/1 73/73/73 
f 75/75/75 76/76/76 77/77/77 
f 77/77/77 78/78/78 75/75/75 
f 79/79/79 80/80/80 81/81/81 
f 81/81/81 82/82/82 79/79/79 
f 83/83/83 84/84/84 85/85/85 
f 85/85/85 86/86/86 83/83/83 
f 87/87/87 88/88/88 89/89/89 
f 89/89/89 90/90/90 87/87/87 
f 91/91/91 92/92/92 93/93/93 
f 93/93/93 94/94/94 91/91/91 
f 95/95/95 96/96/96 97/97/97 
f 97/97/97 98/98/98 95/95/95 
f 99/99/99 100/100/100 101/101/101 
f 101/101/101 102/102/102 99/99/99 
f 103/103/103 104/104/104 105/105/105 
f 105/105/105 106/106/106 103/103/103 
f 107/107/107 108/108/108 109/109/109 
f 109/109/109 110/110/110 107/107/107 
f 111/111/111 112/112/112 113/113/113 
f 113/113/113 114/114/114 111/111/111 
f 115/115/115 116/116/116 117/117/117 
f 117/117/117 118/118/118 115/115/115 
f 119/119/119 120/120/120 121/121/121 
f 121/121/121 122/122/122 119/119/119 
f 123/123/123 124/124/124 125/125/125 
f 125/125/125 126/126/126 123/123/123 
f 127/127/127 128/128/128 129/129/129 
f 129/129/129 130/130/130 127/127/127 
f 131/131/131 132/132/132 133/133/133 
f 133/133/133 134/134/134 131/131/131 
f 135/135/135 136/136/136 137/137/137 
f 137/137/137 138/138/138 135/135/135 
f 139/139/139 140/140/140 141/141/141 
f 141/141/141 142/142/142 139/139/139 
f 143/143/143 144/144/144 145/145/145 
f 145/145/145 146/146/146 143/143/143 
f 147/147/147 148/148/148 149/149/149 
f 149/149/149 148/148/148 150/150/150 
f 150/150/150 148/148/148 151/151/151 
f 151/151/151 148/148/148 152/152/152 
f 152/152/152 148/148/148 153/153/153 
f 153/153/153 148/148/148 154/154/154 
f 154/154/154 148/148/148 147/147/147 
f 155/155/155 156/156/156 157/157/157 
f 155/155/155 157/157/157 158/158/158 
f 155/155/155 158/158/158 159/159/159 
f 155/155/155 159/159/159 160/160/160 
f 161/161/161 155/155/155 160/160/160 
f 162/162/162 163/163/163 164/164/164 
f 164/164/164 165/165/165 162/162/162 
f 166/166/166 167/167/167 168/168/168 
f 168/168/168 169/169/169 166/166/166 
f 167/167/167 170/170/170 171/171/171 
f 171/171/171 168/168/168 167/167/167 
f 163/163/163 172/172/172 173/173/173 
f 173/173/173 164/164/164 163/163/163 
