v 1.5284904 0.8784127 0.8327453
vn 0.0000000 -0.4999999 0.8660255
vt 0.1652309 0.8725260
v 1.5284904 1.0774356 0.8860732
vn 0.0000000 0.0000007 1.0000000
vt 0.1652309 0.8917848
v 1.2983708 0.8784127 0.8327453
vn 0.0000000 -0.4999999 0.8660254
vt 0.1414340 0.8725259
v 1.2983708 1.0774356 0.8860732
vn 0.0000000 0.0000007 1.0000000
vt 0.1414340 0.8917848
v 1.5284904 0.7327189 0.6870514
vn 0.0000000 -0.8660253 0.5000002
vt 0.1652309 0.8530457
v 1.2983708 0.7327189 0.6870514
vn 0.0000000 -0.8660253 0.5000002
vt 0.1414340 0.8530456
v 1.5284904 0.6793910 0.4880296
vn 0.0000000 -1.0000000 0.0000000
vt 0.1652309 0.8336761
v 1.2983708 0.6793910 0.4880296
vn 0.0000000 -1.0000000 0.0000000
vt 0.1414340 0.8336761
v 1.5284904 1.2764575 0.8327452
vn 0.0000000 0.5000008 0.8660250
vt 0.1652309 0.8725260
v 1.2983708 1.2764575 0.8327452
vn 0.0000000 0.5000008 0.8660250
vt 0.1414340 0.8725259
v 1.5284904 1.4221513 0.6870513
vn 0.0000000 0.8660254 0.5000000
vt 0.1652309 0.8530457
v 1.2983708 1.4221513 0.6870513
vn 0.0000000 0.8660254 0.5000000
vt 0.1414340 0.8530456
v 1.5284904 1.4754791 0.4880296
vn 0.0000000 1.0000000 -0.0000002
vt 0.1652309 0.8336761
v 1.2983708 1.4754791 0.4880296
vn 0.0000000 1.0000000 -0.0000002
vt 0.1414340 0.8336761
v 1.5284904 0.8784138 0.1433139
vn 0.0000000 -0.4999990 -0.8660260
vt 0.1652309 0.8725260
v 1.2983708 0.8784138 0.1433139
vn 0.0000000 -0.4999990 -0.8660260
vt 0.1414340 0.8725259
v 1.5284904 1.0774355 0.0899859
vn 0.0000000 -0.0000002 -1.0000000
vt 0.1652309 0.8917848
v 1.2983708 1.0774355 0.0899859
vn 0.0000000 -0.0000002 -1.0000000
vt 0.1414340 0.8917848
v 1.5284904 0.7327189 0.2890078
vn 0.0000000 -0.8660244 -0.5000018
vt 0.1652309 0.8530457
v 1.2983708 0.7327189 0.2890078
vn 0.0000000 -0.8660244 -0.5000018
vt 0.1414340 0.8530456
v 1.5284904 1.2764574 0.1433139
vn 0.0000000 0.5000005 -0.8660251
vt 0.1652309 0.8725260
v 1.2983708 1.2764574 0.1433139
vn 0.0000000 0.5000005 -0.8660251
vt 0.1414340 0.8725259
v 1.5284904 1.4221512 0.2890078
vn 0.0000000 0.8660253 -0.5000003
vt 0.1652309 0.8530457
v 1.2983708 1.4221512 0.2890078
vn 0.0000000 0.8660253 -0.5000003
vt 0.1414340 0.8530456
v 1.2983708 0.7327189 0.2890078
vn -1.0000000 0.0000000 0.0000000
vt 0.1281007 0.8152048
v 1.2983708 1.2764574 0.1433139
vn -1.0000000 0.0000000 0.0000000
vt 0.1022009 0.8562682
v 1.2983708 0.8784138 0.1433139
vn -1.0000000 0.0000000 0.0000000
vt 0.1274366 0.8329141
v 1.2983708 1.0774355 0.0899859
vn -1.0000000 0.0000000 0.0000000
vt 0.1179179 0.8479670
v 1.2983708 1.4754791 0.4880296
vn -1.0000000 0.0000000 0.0000000
vt 0.0693279 0.8460854
v 1.2983708 1.4221512 0.2890078
vn -1.0000000 0.0000000 0.0000000
vt 0.0843809 0.8556041
v 1.2983708 1.4221513 0.6870513
vn -1.0000000 0.0000000 0.0000000
vt 0.0610268 0.8303683
v 1.2983708 1.2764575 0.8327452
vn -1.0000000 0.0000000 0.0000000
vt 0.0618015 0.8125483
v 1.2983708 1.0774356 0.8860732
vn -1.0000000 0.0000000 0.0000000
vt 0.0712095 0.7974954
v 1.2983708 0.8784127 0.8327453
vn -1.0000000 0.0000000 0.0000000
vt 0.0870373 0.7893049
v 1.2983708 0.6793910 0.4880296
vn -1.0000000 0.0000000 0.0000000
vt 0.1197994 0.7994878
v 1.2983708 0.7327189 0.6870514
vn -1.0000000 0.0000000 0.0000000
vt 0.1047466 0.7899691
v 1.5284904 0.7327189 0.2890078
vn 1.0000000 0.0000000 0.0000000
vt 0.1719721 0.8716501
v 1.5284904 0.8784127 0.8327453
vn 1.0000000 0.0000000 0.0000000
vt 0.2096045 0.8252740
v 1.5284904 0.6793910 0.4880296
vn 1.0000000 0.0000000 0.0000000
vt 0.1754034 0.8500668
v 1.5284904 0.7327189 0.6870514
vn 1.0000000 0.0000000 0.0000000
vt 0.1891280 0.8330218
v 1.5284904 1.2764575 0.8327452
vn 1.0000000 0.0000000 0.0000000
vt 0.2482329 0.8424298
v 1.5284904 1.0774356 0.8860732
vn 1.0000000 0.0000000 0.0000000
vt 0.2311878 0.8287051
v 1.5284904 1.4221513 0.6870513
vn 1.0000000 0.0000000 0.0000000
vt 0.2559807 0.8629061
v 1.5284904 1.4754791 0.4880296
vn 1.0000000 0.0000000 0.0000000
vt 0.2525496 0.8844893
v 1.5284904 1.4221512 0.2890078
vn 1.0000000 0.0000000 0.0000000
vt 0.2388248 0.9014239
v 1.5284904 1.2764574 0.1433139
vn 1.0000000 0.0000000 0.0000000
vt 0.2183485 0.9092823
v 1.5284904 0.8784138 0.1433139
vn 1.0000000 0.0000000 0.0000000
vt 0.1798307 0.8921266
v 1.5284904 1.0774355 0.0899859
vn 1.0000000 0.0000000 0.0000000
vt 0.1967653 0.9058511
v 1.0152115 1.1529635 0.4878109
vn 0.0035210 0.9999938 -0.0000018
vt 0.1692996 0.8285381
v 1.0152117 1.0765707 0.5642035
vn 0.0000054 0.0015809 0.9999987
vt 0.1799251 0.8280953
v 1.5218500 1.0747867 0.5642035
vn -0.0000055 -0.0015883 0.9999988
vt 0.1799251 0.7543166
v 1.5218500 1.1511796 0.4878106
vn 0.0035215 0.9999938 -0.0000032
vt 0.1692996 0.7547592
v 1.0152117 1.0765707 0.5642035
vn 0.0000054 0.0015809 0.9999987
vt 0.1373120 0.8280953
v 1.0152115 1.0001789 0.4878106
vn -0.0035216 -0.9999938 -0.0000043
vt 0.1479378 0.8275418
v 1.5218500 0.9983947 0.4878106
vn -0.0035215 -0.9999938 -0.0000031
vt 0.1479378 0.7537631
v 1.5218500 1.0747867 0.5642035
vn -0.0000055 -0.0015883 0.9999988
vt 0.1373120 0.7543166
v 1.0152115 1.0765707 0.4114187
vn 0.0000052 0.0015831 -0.9999987
vt 0.1586740 0.8280953
v 1.5218500 1.0747867 0.4114187
vn -0.0000057 -0.0015883 -0.9999987
vt 0.1586740 0.7543166
v 1.5284904 1.0774356 0.8860732
vn 0.0000000 0.0000007 1.0000000
vt 0.1652309 0.8917848
v 1.2983708 1.0774356 0.8860732
vn 0.0000000 0.0000007 1.0000000
vt 0.1414340 0.8917848
v 1.5284904 0.6793910 0.4880296
vn 0.0000000 -1.0000000 0.0000000
vt 0.1652309 0.8336761
v 1.2983708 0.6793910 0.4880296
vn 0.0000000 -1.0000000 0.0000000
vt 0.1414340 0.8336761
v 1.5284904 1.4754791 0.4880296
vn 0.0000000 1.0000000 -0.0000002
vt 0.1652309 0.8336761
v 1.2983708 1.4754791 0.4880296
vn 0.0000000 1.0000000 -0.0000002
vt 0.1414340 0.8336761
v 1.5284904 1.0774355 0.0899859
vn 0.0000000 -0.0000002 -1.0000000
vt 0.1652309 0.8917848
v 1.2983708 1.0774355 0.0899859
vn 0.0000000 -0.0000002 -1.0000000
vt 0.1414340 0.8917848
v 1.5218500 1.1511796 0.4878106
vn 0.0035215 0.9999938 -0.0000032
vt 0.1692996 0.7547592
v 1.0152115 1.0765707 0.4114187
vn 0.0000052 0.0015831 -0.9999987
vt 0.1586740 0.8280953
v 1.5218500 1.0747867 0.4114187
vn -0.0000057 -0.0015883 -0.9999987
vt 0.1586740 0.7543166

g group_66638696_140627863850048
f 1/1/1 2/2/2 3/3/3 
f 2/2/2 4/4/4 3/3/3 
f 5/5/5 1/1/1 6/6/6 
f 1/1/1 3/3/3 6/6/6 
f 7/7/7 5/5/5 8/8/8 
f 5/5/5 6/6/6 8/8/8 
f 9/9/9 10/10/10 59/59/59 
f 10/10/10 60/60/60 59/59/59 
f 11/11/11 12/12/12 9/9/9 
f 12/12/12 10/10/10 9/9/9 
f 13/13/13 14/14/14 11/11/11 
f 14/14/14 12/12/12 11/11/11 
f 15/15/15 16/16/16 17/17/17 
f 16/16/16 18/18/18 17/17/17 
f 19/19/19 20/20/20 15/15/15 
f 20/20/20 16/16/16 15/15/15 
f 61/61/61 62/62/62 19/19/19 
f 62/62/62 20/20/20 19/19/19 
f 21/21/21 65/65/65 22/22/22 
f 65/65/65 66/66/66 22/22/22 
f 23/23/23 21/21/21 24/24/24 
f 21/21/21 22/22/22 24/24/24 
f 63/63/63 23/23/23 64/64/64 
f 23/23/23 24/24/24 64/64/64 
f 25/25/25 26/26/26 27/27/27 
f 26/26/26 28/28/28 27/27/27 
f 29/29/29 30/30/30 25/25/25 
f 25/25/25 30/30/30 26/26/26 
f 29/29/29 25/25/25 31/31/31 
f 25/25/25 32/32/32 31/31/31 
f 32/32/32 25/25/25 33/33/33 
f 25/25/25 34/34/34 33/33/33 
f 25/25/25 35/35/35 34/34/34 
f 35/35/35 36/36/36 34/34/34 
f 37/37/37 38/38/38 39/39/39 
f 38/38/38 40/40/40 39/39/39 
f 41/41/41 42/42/42 37/37/37 
f 37/37/37 42/42/42 38/38/38 
f 41/41/41 37/37/37 43/43/43 
f 37/37/37 44/44/44 43/43/43 
f 44/44/44 37/37/37 45/45/45 
f 37/37/37 46/46/46 45/45/45 
f 37/37/37 47/47/47 46/46/46 
f 47/47/47 48/48/48 46/46/46 
f 49/49/49 50/50/50 51/51/51 
f 51/51/51 52/52/52 49/49/49 
f 53/53/53 54/54/54 55/55/55 
f 55/55/55 56/56/56 53/53/53 
f 54/54/54 57/57/57 58/58/58 
f 58/58/58 55/55/55 54/54/54 
f 68/68/68 49/49/49 52/52/52 
f 67/67/67 69/69/69 68/68/68 
