v -1.5284904 0.8784126 0.8327454
vn 0.0000000 -0.5000000 0.8660254
vt 0.1652309 0.8725260
v -1.2983708 0.8784126 0.8327454
vn 0.0000000 -0.5000000 0.8660254
vt 0.1414340 0.8725259
v -1.5284904 1.0774355 0.8860733
vn 0.0000000 0.0000005 1.0000000
vt 0.1652309 0.8917848
v -1.2983708 1.0774355 0.8860733
vn 0.0000000 0.0000005 1.0000000
vt 0.1414340 0.8917848
v -1.5284904 0.7327188 0.6870515
vn 0.0000000 -0.8660253 0.5000002
vt 0.1652309 0.8530457
v -1.2983708 0.7327188 0.6870515
vn 0.0000000 -0.8660253 0.5000002
vt 0.1414340 0.8530456
v -1.5284904 0.6793910 0.4880297
vn 0.0000000 -1.0000000 -0.0000001
vt 0.1652309 0.8336761
v -1.2983708 0.6793910 0.4880297
vn 0.0000000 -1.0000000 -0.0000001
vt 0.1414340 0.8336761
v -1.5284904 1.2764574 0.8327454
vn 0.0000000 0.5000008 0.8660250
vt 0.1652309 0.8725260
v -1.2983708 1.2764574 0.8327454
vn 0.0000000 0.5000008 0.8660250
vt 0.1414340 0.8725259
v -1.5284904 1.4221512 0.6870515
vn 0.0000000 0.8660253 0.5000002
vt 0.1652309 0.8530457
v -1.2983708 1.4221512 0.6870515
vn 0.0000000 0.8660253 0.5000002
vt 0.1414340 0.8530456
v -1.5284904 1.4754791 0.4880297
vn 0.0000000 1.0000000 0.0000000
vt 0.1652309 0.8336761
v -1.2983708 1.4754791 0.4880297
vn 0.0000000 1.0000000 0.0000000
vt 0.1414340 0.8336761
v -1.5284904 0.8784138 0.1433140
vn 0.0000000 -0.4999989 -0.8660260
vt 0.1652309 0.8725260
v -1.5284904 1.0774355 0.0899861
vn 0.0000000 -0.0000001 -1.0000000
vt 0.1652309 0.8917848
v -1.2983708 0.8784138 0.1433140
vn 0.0000000 -0.4999989 -0.8660260
vt 0.1414340 0.8725259
v -1.2983708 1.0774355 0.0899861
vn 0.0000000 -0.0000001 -1.0000000
vt 0.1414340 0.8917848
v -1.5284904 0.7327189 0.2890079
vn 0.0000000 -0.8660243 -0.5000019
vt 0.1652309 0.8530457
v -1.2983708 0.7327189 0.2890079
vn 0.0000000 -0.8660243 -0.5000019
vt 0.1414340 0.8530456
v -1.5284904 1.2764574 0.1433140
vn 0.0000000 0.5000005 -0.8660251
vt 0.1652309 0.8725260
v -1.2983708 1.2764574 0.1433140
vn 0.0000000 0.5000005 -0.8660251
vt 0.1414340 0.8725259
v -1.5284904 1.4221512 0.2890079
vn 0.0000000 0.8660253 -0.5000003
vt 0.1652309 0.8530457
v -1.2983708 1.4221512 0.2890079
vn 0.0000000 0.8660253 -0.5000002
vt 0.1414340 0.8530456
v -1.2983708 0.7327189 0.2890079
vn 1.0000000 0.0000000 0.0000000
vt 0.1281007 0.8152048
v -1.2983708 0.8784138 0.1433140
vn 1.0000000 0.0000000 0.0000000
vt 0.1274366 0.8329141
v -1.2983708 1.2764574 0.1433140
vn 1.0000000 0.0000000 0.0000000
vt 0.1022009 0.8562682
v -1.2983708 1.0774355 0.0899861
vn 1.0000000 0.0000000 0.0000000
vt 0.1179179 0.8479670
v -1.2983708 1.4754791 0.4880297
vn 1.0000000 0.0000000 0.0000000
vt 0.0693279 0.8460854
v -1.2983708 1.4221512 0.2890079
vn 1.0000000 0.0000000 0.0000000
vt 0.0843809 0.8556041
v -1.2983708 1.4221512 0.6870515
vn 1.0000000 0.0000000 0.0000000
vt 0.0610268 0.8303683
v -1.2983708 1.2764574 0.8327454
vn 1.0000000 0.0000000 0.0000000
vt 0.0618015 0.8125483
v -1.2983708 1.0774355 0.8860733
vn 1.0000000 0.0000000 0.0000000
vt 0.0712095 0.7974954
v -1.2983708 0.8784126 0.8327454
vn 1.0000000 0.0000000 0.0000000
vt 0.0870373 0.7893049
v -1.2983708 0.6793910 0.4880297
vn 1.0000000 0.0000000 0.0000000
vt 0.1197994 0.7994878
v -1.2983708 0.7327188 0.6870515
vn 1.0000000 0.0000000 0.0000000
vt 0.1047466 0.7899691
v -1.5284904 0.7327189 0.2890079
vn -1.0000000 0.0000000 0.0000000
vt 0.1719721 0.8716501
v -1.5284904 0.6793910 0.4880297
vn -1.0000000 0.0000000 0.0000000
vt 0.1754034 0.8500668
v -1.5284904 0.8784126 0.8327454
vn -1.0000000 0.0000000 0.0000000
vt 0.2096045 0.8252740
v -1.5284904 0.7327188 0.6870515
vn -1.0000000 0.0000000 0.0000000
vt 0.1891280 0.8330218
v -1.5284904 1.2764574 0.8327454
vn -1.0000000 0.0000000 0.0000000
vt 0.2482329 0.8424298
v -1.5284904 1.0774355 0.8860733
vn -1.0000000 0.0000000 0.0000000
vt 0.2311878 0.8287051
v -1.5284904 1.4221512 0.6870515
vn -1.0000000 0.0000000 0.0000000
vt 0.2559807 0.8629061
v -1.5284904 1.4754791 0.4880297
vn -1.0000000 0.0000000 0.0000000
vt 0.2525496 0.8844893
v -1.5284904 1.4221512 0.2890079
vn -1.0000000 0.0000000 0.0000000
vt 0.2388248 0.9014239
v -1.5284904 1.2764574 0.1433140
vn -1.0000000 0.0000000 0.0000000
vt 0.2183485 0.9092823
v -1.5284904 0.8784138 0.1433140
vn -1.0000000 0.0000000 0.0000000
vt 0.1798307 0.8921266
v -1.5284904 1.0774355 0.0899861
vn -1.0000000 0.0000000 0.0000000
vt 0.1967653 0.9058511
v -1.0152115 1.1529635 0.4878110
vn -0.0035210 0.9999938 -0.0000019
vt 0.1692996 0.8285381
v -1.5218500 1.1511796 0.4878107
vn -0.0035215 0.9999938 -0.0000032
vt 0.1692996 0.7547592
v -1.5218500 1.0747867 0.5642036
vn 0.0000055 -0.0015881 0.9999988
vt 0.1799251 0.7543166
v -1.0152117 1.0765707 0.5642036
vn -0.0000054 0.0015809 0.9999987
vt 0.1799251 0.8280953
v -1.0152117 1.0765707 0.5642036
vn -0.0000054 0.0015809 0.9999987
vt 0.1373120 0.8280953
v -1.5218500 1.0747867 0.5642036
vn 0.0000055 -0.0015881 0.9999988
vt 0.1373120 0.7543166
v -1.5218500 0.9983947 0.4878107
vn 0.0035216 -0.9999938 -0.0000032
vt 0.1479378 0.7537631
v -1.0152115 1.0001789 0.4878106
vn 0.0035216 -0.9999938 -0.0000044
vt 0.1479378 0.8275418
v -1.5218500 1.0747867 0.4114188
vn 0.0000058 -0.0015881 -0.9999987
vt 0.1586740 0.7543166
v -1.0152115 1.0765707 0.4114188
vn -0.0000052 0.0015831 -0.9999987
vt 0.1586740 0.8280953
v -1.5284904 1.0774355 0.8860733
vn 0.0000000 0.0000005 1.0000000
vt 0.1652309 0.8917848
v -1.2983708 1.0774355 0.8860733
vn 0.0000000 0.0000005 1.0000000
vt 0.1414340 0.8917848
v -1.5284904 0.6793910 0.4880297
vn 0.0000000 -1.0000000 -0.0000001
vt 0.1652309 0.8336761
v -1.2983708 0.6793910 0.4880297
vn 0.0000000 -1.0000000 -0.0000001
vt 0.1414340 0.8336761
v -1.5284904 1.4754791 0.4880297
vn 0.0000000 1.0000000 0.0000000
vt 0.1652309 0.8336761
v -1.2983708 1.4754791 0.4880297
vn 0.0000000 1.0000000 0.0000000
vt 0.1414340 0.8336761
v -1.5284904 1.0774355 0.0899861
vn 0.0000000 -0.0000001 -1.0000000
vt 0.1652309 0.8917848
v -1.2983708 1.0774355 0.0899861
vn 0.0000000 -0.0000001 -1.0000000
vt 0.1414340 0.8917848
v -1.0152115 1.0765707 0.4114188
vn -0.0000052 0.0015831 -0.9999987
vt 0.1586740 0.8280953

g group_66640208_140627865672176
f 1/1/1 2/2/2 3/3/3 
f 3/3/3 2/2/2 4/4/4 
f 5/5/5 6/6/6 1/1/1 
f 1/1/1 6/6/6 2/2/2 
f 7/7/7 8/8/8 5/5/5 
f 5/5/5 8/8/8 6/6/6 
f 9/9/9 59/59/59 10/10/10 
f 10/10/10 59/59/59 60/60/60 
f 11/11/11 9/9/9 12/12/12 
f 12/12/12 9/9/9 10/10/10 
f 13/13/13 11/11/11 14/14/14 
f 14/14/14 11/11/11 12/12/12 
f 15/15/15 16/16/16 17/17/17 
f 17/17/17 16/16/16 18/18/18 
f 19/19/19 15/15/15 20/20/20 
f 20/20/20 15/15/15 17/17/17 
f 61/61/61 19/19/19 62/62/62 
f 62/62/62 19/19/19 20/20/20 
f 21/21/21 22/22/22 65/65/65 
f 65/65/65 22/22/22 66/66/66 
f 23/23/23 24/24/24 21/21/21 
f 21/21/21 24/24/24 22/22/22 
f 63/63/63 64/64/64 23/23/23 
f 23/23/23 64/64/64 24/24/24 
f 25/25/25 26/26/26 27/27/27 
f 27/27/27 26/26/26 28/28/28 
f 29/29/29 25/25/25 30/30/30 
f 25/25/25 27/27/27 30/30/30 
f 29/29/29 31/31/31 25/25/25 
f 25/25/25 31/31/31 32/32/32 
f 32/32/32 33/33/33 25/25/25 
f 25/25/25 33/33/33 34/34/34 
f 25/25/25 34/34/34 35/35/35 
f 35/35/35 34/34/34 36/36/36 
f 37/37/37 38/38/38 39/39/39 
f 39/39/39 38/38/38 40/40/40 
f 41/41/41 37/37/37 42/42/42 
f 37/37/37 39/39/39 42/42/42 
f 41/41/41 43/43/43 37/37/37 
f 37/37/37 43/43/43 44/44/44 
f 44/44/44 45/45/45 37/37/37 
f 37/37/37 45/45/45 46/46/46 
f 37/37/37 46/46/46 47/47/47 
f 47/47/47 46/46/46 48/48/48 
f 49/49/49 50/50/50 51/51/51 
f 51/51/51 52/52/52 49/49/49 
f 53/53/53 54/54/54 55/55/55 
f 55/55/55 56/56/56 53/53/53 
f 56/56/56 55/55/55 57/57/57 
f 57/57/57 58/58/58 56/56/56 
f 67/67/67 57/57/57 50/50/50 
f 50/50/50 49/49/49 67/67/67 
