v -1.6237475 2.8687708 0.4315056
vn 0.0000000 -0.0000004 -1.0000000
vt 0.1055281 0.8886335
v -1.6237475 3.0289433 0.4655515
vn 0.0000000 0.4067380 -0.9135449
vt 0.1055281 0.9054574
v -1.5871825 3.0289433 0.4655515
vn 0.0000000 0.4067380 -0.9135449
vt 0.1009901 0.9054574
v -1.5871825 2.8687708 0.4315056
vn 0.0000000 -0.0000004 -1.0000000
vt 0.1009901 0.8886335
v -1.6237475 2.7085984 0.4655516
vn -1.0000000 0.0000000 0.0000000
vt 0.0270335 0.9157311
v -1.6237475 2.5761216 0.5618016
vn -1.0000000 0.0000000 0.0000000
vt 0.0135303 0.9255818
v -1.6237475 2.4942467 0.7036136
vn -1.0000000 0.0000000 0.0000000
vt 0.0051183 0.9400813
v -1.6237475 2.4771297 0.8664673
vn -1.0000000 0.0000000 0.0000000
vt 0.0034579 0.9567946
v -1.6237475 2.5277314 1.0222031
vn -1.0000000 0.0000000 0.0000000
vt 0.0085494 0.9727329
v -1.6237475 2.6373017 1.1438940
vn -1.0000000 0.0000000 0.0000000
vt 0.0198391 0.9851294
v -1.6237475 2.7868955 1.2104969
vn -1.0000000 0.0000000 0.0000000
vt 0.0351133 0.9919918
v -1.6237475 2.9506459 1.2104981
vn -1.0000000 0.0000000 0.0000000
vt 0.0518264 0.9919918
v -1.6237475 3.1002398 1.1438940
vn -1.0000000 0.0000000 0.0000000
vt 0.0671008 0.9851294
v -1.6237475 3.2098100 1.0222031
vn -1.0000000 0.0000000 0.0000000
vt 0.0783905 0.9727329
v -1.6237475 3.2604122 0.8664672
vn -1.0000000 0.0000000 0.0000000
vt 0.0834820 0.9567946
v -1.6237475 3.2432961 0.7036133
vn -1.0000000 0.0000000 0.0000000
vt 0.0818217 0.9400813
v -1.6237475 3.1614196 0.5618017
vn -1.0000000 0.0000000 0.0000000
vt 0.0734096 0.9255818
v -1.6237475 3.0289433 0.4655515
vn -1.0000000 0.0000000 0.0000000
vt 0.0599064 0.9157311
v -1.6237475 2.8687708 0.4315056
vn -1.0000000 0.0000000 0.0000000
vt 0.0434147 0.9122999
v -1.6237475 3.0289433 0.4655515
vn 0.0000000 0.4067380 -0.9135449
vt 0.1055281 0.8719203
v -1.6237475 3.1614196 0.5618017
vn 0.0000000 0.7431429 -0.6691328
vt 0.1055281 0.8886335
v -1.5871825 3.1614196 0.5618017
vn 0.0000000 0.7431428 -0.6691329
vt 0.1009901 0.8886335
v -1.5871825 3.0289433 0.4655515
vn 0.0000000 0.4067380 -0.9135449
vt 0.1009901 0.8719203
v -1.6237475 3.2432961 0.7036133
vn 0.0000000 0.9510559 -0.3090191
vt 0.1055281 0.9054574
v -1.5871825 3.2432961 0.7036133
vn 0.0000000 0.9510559 -0.3090191
vt 0.1009901 0.9054574
v -1.6237475 3.2432961 0.7036133
vn 0.0000000 0.9510559 -0.3090191
vt 0.1055281 0.8719203
v -1.6237475 3.2604122 0.8664672
vn 0.0000000 0.9945216 0.1045317
vt 0.1055281 0.8886335
v -1.5871825 3.2604122 0.8664672
vn 0.0000000 0.9945216 0.1045317
vt 0.1009901 0.8886335
v -1.5871825 3.2432961 0.7036133
vn 0.0000000 0.9510559 -0.3090191
vt 0.1009901 0.8719203
v -1.6237475 3.2098100 1.0222031
vn 0.0000000 0.8660254 0.5000001
vt 0.1055281 0.9054574
v -1.5871825 3.2098100 1.0222031
vn 0.0000000 0.8660254 0.5000000
vt 0.1009901 0.9054574
v -1.6237475 3.2098100 1.0222031
vn 0.0000000 0.8660254 0.5000001
vt 0.1055281 0.8719203
v -1.6237475 3.1002398 1.1438940
vn 0.0000000 0.5877878 0.8090152
vt 0.1055281 0.8886335
v -1.5871825 3.1002398 1.1438940
vn 0.0000000 0.5877879 0.8090151
vt 0.1009901 0.8886335
v -1.5871825 3.2098100 1.0222031
vn 0.0000000 0.8660254 0.5000000
vt 0.1009901 0.8719203
v -1.6237475 2.9506459 1.2104981
vn 0.0000000 0.2079100 0.9781480
vt 0.1055281 0.9054574
v -1.5871825 2.9506459 1.2104981
vn 0.0000000 0.2079100 0.9781480
vt 0.1009901 0.9054574
v -1.6237475 2.9506459 1.2104981
vn 0.0000000 0.2079100 0.9781480
vt 0.1055281 0.8719203
v -1.6237475 2.7868955 1.2104969
vn 0.0000000 -0.2079135 0.9781472
vt 0.1055281 0.8886335
v -1.5871825 2.7868955 1.2104969
vn 0.0000000 -0.2079135 0.9781472
vt 0.1009901 0.8886335
v -1.5871825 2.9506459 1.2104981
vn 0.0000000 0.2079100 0.9781480
vt 0.1009901 0.8719203
v -1.6237475 2.6373017 1.1438940
vn 0.0000000 -0.5877854 0.8090169
vt 0.1055281 0.9054574
v -1.5871825 2.6373017 1.1438940
vn 0.0000000 -0.5877854 0.8090169
vt 0.1009901 0.9054574
v -1.6237475 2.6373017 1.1438940
vn 0.0000000 -0.5877854 0.8090169
vt 0.1055281 0.8719203
v -1.6237475 2.5277314 1.0222031
vn 0.0000000 -0.8660260 0.4999989
vt 0.1055281 0.8886335
v -1.5871825 2.5277314 1.0222031
vn 0.0000000 -0.8660260 0.4999989
vt 0.1009901 0.8886335
v -1.5871825 2.6373017 1.1438940
vn 0.0000000 -0.5877854 0.8090169
vt 0.1009901 0.8719203
v -1.6237475 2.4771297 0.8664673
vn 0.0000000 -0.9945220 0.1045274
vt 0.1055281 0.9054574
v -1.5871825 2.4771297 0.8664673
vn 0.0000000 -0.9945220 0.1045274
vt 0.1009901 0.9054574
v -1.6237475 2.4771297 0.8664673
vn 0.0000000 -0.9945220 0.1045274
vt 0.1055281 0.8719203
v -1.6237475 2.4942467 0.7036136
vn 0.0000000 -0.9510565 -0.3090172
vt 0.1055281 0.8886335
v -1.5871825 2.4942467 0.7036136
vn 0.0000000 -0.9510565 -0.3090172
vt 0.1009901 0.8886335
v -1.5871825 2.4771297 0.8664673
vn 0.0000000 -0.9945220 0.1045274
vt 0.1009901 0.8719203
v -1.6237475 2.5761216 0.5618016
vn 0.0000000 -0.7431452 -0.6691302
vt 0.1055281 0.9054574
v -1.5871825 2.5761216 0.5618016
vn 0.0000000 -0.7431452 -0.6691303
vt 0.1009901 0.9054574
v -1.6237475 2.7085984 0.4655516
vn 0.0000000 -0.4067370 -0.9135453
vt 0.1055281 0.8886335
v -1.5871825 2.7085984 0.4655516
vn 0.0000000 -0.4067370 -0.9135453
vt 0.1009901 0.8886335
v -1.6237475 2.7085984 0.4655516
vn 0.0000000 -0.4067370 -0.9135453
vt 0.1055281 0.8719203
v -1.5871825 2.7085984 0.4655516
vn 0.0000000 -0.4067370 -0.9135453
vt 0.1009901 0.8719203
v -1.6212397 3.0110922 0.8897815
vn -0.2814952 0.8382937 0.4669305
vt 0.4014163 0.7333078
v -1.1120477 3.1478672 0.9511981
vn -0.2817778 0.8445590 0.4553257
vt 0.4014707 0.7761050
v -1.1120477 3.1478672 0.7005532
vn -0.2817781 0.8445590 -0.4553255
vt 0.3768833 0.7761050
v -1.6212397 3.0110919 0.7619697
vn -0.2814947 0.8382930 -0.4669322
vt 0.3768901 0.7333078
v -1.6212397 2.7264495 0.7619697
vn -0.2814962 -0.8382933 -0.4669308
vt 0.3769029 0.7761225
v -1.1120477 2.5896735 0.7005532
vn -0.2817789 -0.8445587 -0.4553255
vt 0.3768906 0.7332747
v -1.1120477 2.5896735 0.9511981
vn -0.2817794 -0.8445584 0.4553258
vt 0.4014540 0.7332755
v -1.6212397 2.7264495 0.8897815
vn -0.2814955 -0.8382932 0.4669313
vt 0.4014835 0.7761062
v -1.6233685 3.1892059 0.5269276
vn -1.0000000 0.0000000 0.0000000
vt 0.0765488 0.9217136
v -1.6233685 3.1628168 0.5005386
vn -1.0000000 0.0000000 0.0000000
vt 0.0737816 0.9189464
v -1.6233685 3.1113141 0.5296767
vn -1.0000000 0.0000000 0.0000000
vt 0.0685795 0.9219350
v -1.6233685 3.1600692 0.5784305
vn -1.0000000 0.0000000 0.0000000
vt 0.0735602 0.9269156
v -1.6233695 2.8843691 0.3877386
vn -1.0000000 0.0000000 0.0000000
vt 0.0453359 0.9074355
v -1.6233695 2.8470492 0.3877387
vn -1.0000000 0.0000000 0.0000000
vt 0.0414620 0.9074355
v -1.6233695 2.8312345 0.4447598
vn -1.0000000 0.0000000 0.0000000
vt 0.0399125 0.9133016
v -1.6233695 2.9001832 0.4447595
vn -1.0000000 0.0000000 0.0000000
vt 0.0469963 0.9133016
v -1.6233695 2.5703945 0.5048687
vn -1.0000000 0.0000000 0.0000000
vt 0.0132378 0.9193892
v -1.6233695 2.5440054 0.5312577
vn -1.0000000 0.0000000 0.0000000
vt 0.0104709 0.9221562
v -1.6233695 2.5731425 0.5827605
vn -1.0000000 0.0000000 0.0000000
vt 0.0134592 0.9273584
v -1.6233695 2.6218975 0.5340067
vn -1.0000000 0.0000000 0.0000000
vt 0.0184401 0.9223777
v -1.6233695 2.4312046 0.8097064
vn -1.0000000 0.0000000 0.0000000
vt 0.0885024 0.9500486
v -1.6233695 2.4312046 0.8470264
vn -1.0000000 0.0000000 0.0000000
vt 0.0885024 0.9538116
v -1.6233695 2.4882257 0.8628402
vn -1.0000000 0.0000000 0.0000000
vt 0.0826361 0.9554720
v -1.6233695 2.4882257 0.7938914
vn -1.0000000 0.0000000 0.0000000
vt 0.0826361 0.9483881
v -1.6233695 2.5483346 1.1236800
vn -1.0000000 0.0000000 0.0000000
vt 0.0109134 0.9827000
v -1.6233695 2.5747247 1.1500701
vn -1.0000000 0.0000000 0.0000000
vt 0.0136806 0.9854671
v -1.6233695 2.6262267 1.1209321
vn -1.0000000 0.0000000 0.0000000
vt 0.0188826 0.9824787
v -1.6233695 2.5774727 1.0721780
vn -1.0000000 0.0000000 0.0000000
vt 0.0139020 0.9774979
v -1.6233695 2.8531723 1.2628700
vn -1.0000000 0.0000000 0.0000000
vt 0.0421263 0.9969780
v -1.6233695 2.8904922 1.2628700
vn -1.0000000 0.0000000 0.0000000
vt 0.0460001 0.9969780
v -1.6233695 2.9063070 1.2058491
vn -1.0000000 0.0000000 0.0000000
vt 0.0475497 0.9911119
v -1.6233695 2.8373580 1.2058492
vn -1.0000000 0.0000000 0.0000000
vt 0.0404659 0.9911119
v -1.6233685 3.1671464 1.1457398
vn -1.0000000 0.0000000 0.0000000
vt 0.0742244 0.9850245
v -1.6233685 3.1935356 1.1193513
vn -1.0000000 0.0000000 0.0000000
vt 0.0769913 0.9822572
v -1.6233685 3.1643975 1.0678482
vn -1.0000000 0.0000000 0.0000000
vt 0.0740030 0.9770552
v -1.6233685 3.1156442 1.1166019
vn -1.0000000 0.0000000 0.0000000
vt 0.0690221 0.9820359
v -1.6233695 3.3063364 0.8409023
vn -1.0000000 0.0000000 0.0000000
vt 0.0885024 0.9538116
v -1.6233695 3.3063364 0.8035825
vn -1.0000000 0.0000000 0.0000000
vt 0.0885024 0.9500486
v -1.6233695 3.2493150 0.7877683
vn -1.0000000 0.0000000 0.0000000
vt 0.0826361 0.9483881
v -1.6233695 3.2493150 0.8567173
vn -1.0000000 0.0000000 0.0000000
vt 0.0826361 0.9554720
v -1.0681096 3.0654223 1.2342277
vn -0.8499284 0.2286129 0.4747187
vt 0.0039219 0.9335791
v -1.0681096 3.3106427 0.9267302
vn -0.8499284 0.5136878 0.1172457
vt 0.0337207 0.9100201
v -1.3490859 2.8687694 0.8258756
vn -1.0000000 -0.0000004 0.0000001
vt 0.0434705 0.9525931
v -1.0681096 3.2231245 0.5432872
vn -0.8499284 0.4119456 -0.3285156
vt 0.0707943 0.9189098
v -1.0681096 2.8687694 0.3726387
vn -0.8499283 -0.0000002 -0.5268983
vt 0.0871139 0.9531870
v -1.0681096 2.5144153 0.5432870
vn -0.8499281 -0.4119460 -0.3285161
vt 0.0701136 0.9869696
v -1.0681096 2.4268966 0.9267302
vn -0.8499281 -0.5136883 0.1172460
vt 0.0331796 0.9953083
v -1.0681096 2.6721182 1.2342277
vn -0.8499281 -0.2286125 0.4747195
vt 0.0039597 0.9716835
v -1.0681096 2.8687694 0.3726387
vn 1.0000000 0.0000000 0.0000000
vt 0.0706619 0.9185104
v -1.0681096 3.2231245 0.5432872
vn 1.0000000 0.0000000 0.0000000
vt 0.0869815 0.9527876
v -1.0681096 3.3106427 0.9267302
vn 1.0000000 0.0000000 0.0000000
vt 0.0699812 0.9865702
v -1.0681096 2.5144153 0.5432870
vn 1.0000000 0.0000000 0.0000000
vt 0.0335883 0.9096207
v -1.0681096 2.4268966 0.9267302
vn 1.0000000 0.0000000 0.0000000
vt 0.0037895 0.9331798
v -1.0681096 2.6721182 1.2342277
vn 1.0000000 0.0000000 0.0000000
vt 0.0038273 0.9712841
v -1.0681096 3.0654223 1.2342277
vn 1.0000000 0.0000000 0.0000000
vt 0.0330471 0.9949089
v -1.6212397 2.7264495 0.8897815
vn -0.2814955 -0.8382932 0.4669313
vt 0.3768974 0.7761663
v -1.1120477 2.5896735 0.9511981
vn -0.2817794 -0.8445584 0.4553258
vt 0.3768859 0.7332804
v -1.1120477 2.8687706 1.1300392
vn -0.2809479 0.0000000 0.9597231
vt 0.3509642 0.7332804
v -1.6212397 2.8687706 0.9809794
vn -0.2809477 -0.0000011 0.9597231
vt 0.3509642 0.7761663
v -1.6212397 3.0110919 0.7619697
vn -0.2814947 0.8382930 -0.4669322
vt 0.3250310 0.7761663
v -1.1120477 3.1478672 0.7005532
vn -0.2817781 0.8445590 -0.4553255
vt 0.3250425 0.7332804
v -1.1120477 2.8687706 0.5217119
vn -0.2809478 0.0000005 -0.9597231
vt 0.3509642 0.7332804
v -1.6212397 2.8687706 0.6707717
vn -0.2809482 0.0000004 -0.9597229
vt 0.3509642 0.7761663
v -1.1120477 2.5896735 0.7005532
vn -0.2817789 -0.8445587 -0.4553255
vt 0.3768859 0.7332804
v -1.6212397 2.7264495 0.7619697
vn -0.2814962 -0.8382933 -0.4669308
vt 0.3768974 0.7761663
v -1.1120477 3.1478672 0.9511981
vn -0.2817778 0.8445590 0.4553257
vt 0.3250425 0.7332804
v -1.6212397 3.0110922 0.8897815
vn -0.2814952 0.8382937 0.4669305
vt 0.3250310 0.7761663
v -1.6237475 2.5761216 0.5618016
vn 0.0000000 -0.7431452 -0.6691302
vt 0.1055281 0.9054574
v -1.5871825 2.5761216 0.5618016
vn 0.0000000 -0.7431452 -0.6691303
vt 0.1009901 0.9054574

g group_66128576_140627863731328
f 1/1/1 2/2/2 3/3/3 
f 3/3/3 4/4/4 1/1/1 
f 5/5/5 6/6/6 7/7/7 
f 5/5/5 7/7/7 8/8/8 
f 5/5/5 8/8/8 9/9/9 
f 5/5/5 9/9/9 10/10/10 
f 5/5/5 10/10/10 11/11/11 
f 5/5/5 11/11/11 12/12/12 
f 5/5/5 12/12/12 13/13/13 
f 5/5/5 13/13/13 14/14/14 
f 5/5/5 14/14/14 15/15/15 
f 5/5/5 15/15/15 16/16/16 
f 5/5/5 16/16/16 17/17/17 
f 5/5/5 17/17/17 18/18/18 
f 19/19/19 5/5/5 18/18/18 
f 20/20/20 21/21/21 22/22/22 
f 22/22/22 23/23/23 20/20/20 
f 21/21/21 24/24/24 25/25/25 
f 25/25/25 22/22/22 21/21/21 
f 26/26/26 27/27/27 28/28/28 
f 28/28/28 29/29/29 26/26/26 
f 27/27/27 30/30/30 31/31/31 
f 31/31/31 28/28/28 27/27/27 
f 32/32/32 33/33/33 34/34/34 
f 34/34/34 35/35/35 32/32/32 
f 33/33/33 36/36/36 37/37/37 
f 37/37/37 34/34/34 33/33/33 
f 38/38/38 39/39/39 40/40/40 
f 40/40/40 41/41/41 38/38/38 
f 39/39/39 42/42/42 43/43/43 
f 43/43/43 40/40/40 39/39/39 
f 44/44/44 45/45/45 46/46/46 
f 46/46/46 47/47/47 44/44/44 
f 45/45/45 48/48/48 49/49/49 
f 49/49/49 46/46/46 45/45/45 
f 50/50/50 51/51/51 52/52/52 
f 52/52/52 53/53/53 50/50/50 
f 51/51/51 54/54/54 55/55/55 
f 55/55/55 52/52/52 51/51/51 
f 127/127/127 56/56/56 57/57/57 
f 57/57/57 128/128/128 127/127/127 
f 58/58/58 1/1/1 4/4/4 
f 4/4/4 59/59/59 58/58/58 
f 60/60/60 61/61/61 62/62/62 
f 62/62/62 63/63/63 60/60/60 
f 64/64/64 65/65/65 66/66/66 
f 66/66/66 67/67/67 64/64/64 
f 68/68/68 69/69/69 70/70/70 
f 70/70/70 71/71/71 68/68/68 
f 72/72/72 73/73/73 74/74/74 
f 74/74/74 75/75/75 72/72/72 
f 76/76/76 77/77/77 78/78/78 
f 78/78/78 79/79/79 76/76/76 
f 80/80/80 81/81/81 82/82/82 
f 82/82/82 83/83/83 80/80/80 
f 84/84/84 85/85/85 86/86/86 
f 86/86/86 87/87/87 84/84/84 
f 88/88/88 89/89/89 90/90/90 
f 90/90/90 91/91/91 88/88/88 
f 92/92/92 93/93/93 94/94/94 
f 94/94/94 95/95/95 92/92/92 
f 96/96/96 97/97/97 98/98/98 
f 98/98/98 99/99/99 96/96/96 
f 100/100/100 101/101/101 102/102/102 
f 101/101/101 103/103/103 102/102/102 
f 103/103/103 104/104/104 102/102/102 
f 104/104/104 105/105/105 102/102/102 
f 105/105/105 106/106/106 102/102/102 
f 106/106/106 107/107/107 102/102/102 
f 107/107/107 100/100/100 102/102/102 
f 108/108/108 109/109/109 110/110/110 
f 111/111/111 108/108/108 110/110/110 
f 112/112/112 111/111/111 110/110/110 
f 113/113/113 112/112/112 110/110/110 
f 114/114/114 113/113/113 110/110/110 
f 115/115/115 116/116/116 117/117/117 
f 117/117/117 118/118/118 115/115/115 
f 119/119/119 120/120/120 121/121/121 
f 121/121/121 122/122/122 119/119/119 
f 122/122/122 121/121/121 123/123/123 
f 123/123/123 124/124/124 122/122/122 
f 118/118/118 117/117/117 125/125/125 
f 125/125/125 126/126/126 118/118/118 
