v 1.6180408 -3.3322983 0.4386071
vn 0.0000000 -0.8660253 -0.5000004
vt 0.3456350 0.9324059
v 1.6180408 -3.3758931 0.6013049
vn 0.0000000 -1.0000000 0.0000008
vt 0.3456350 0.9144752
v 1.5401878 -3.3758931 0.6013049
vn 0.0000000 -1.0000000 0.0000008
vt 0.3710423 0.9144752
v 1.5401878 -3.3322983 0.4386071
vn 0.0000000 -0.8660253 -0.5000002
vt 0.3710423 0.9324059
v 1.6180408 -3.2131953 0.3195041
vn 0.0000000 -0.5000011 -0.8660248
vt 0.3456350 0.9502258
v 1.5401878 -3.2131953 0.3195041
vn 0.0000000 -0.5000011 -0.8660248
vt 0.3710423 0.9502258
v 1.6180408 -3.0504987 0.2759092
vn 0.0000000 -0.0000011 -1.0000000
vt 0.3456350 0.9324059
v 1.5401878 -3.0504987 0.2759092
vn 0.0000000 -0.0000011 -1.0000000
vt 0.3710423 0.9324059
v 1.7269545 -3.0504985 0.6013047
vn 1.0000000 -0.0000004 0.0000002
vt 0.1267291 0.9612199
v 1.6180408 -3.3758931 0.6013049
vn 0.9482902 -0.3174046 0.0000002
vt 0.0908124 0.9612659
v 1.6180408 -3.3322983 0.4386071
vn 0.9482902 -0.2748804 -0.1587024
vt 0.0955719 0.9432246
v 1.6180408 -3.2131953 0.3195041
vn 0.9482903 -0.1587024 -0.2748802
vt 0.1087431 0.9300532
v 1.6180408 -3.0504987 0.2759092
vn 0.9482905 -0.0000003 -0.3174039
vt 0.1267844 0.9252940
v 1.6180408 -3.3322983 0.7640017
vn 0.0000000 -0.8660250 0.5000008
vt 0.3456350 0.9324059
v 1.5401878 -3.3322983 0.7640017
vn 0.0000000 -0.8660250 0.5000008
vt 0.3710423 0.9324059
v 1.6180408 -3.2131953 0.8831047
vn 0.0000000 -0.5000011 0.8660249
vt 0.3456350 0.9502258
v 1.5401878 -3.2131953 0.8831047
vn 0.0000000 -0.5000011 0.8660249
vt 0.3710423 0.9502258
v 1.6180408 -3.0504987 0.9266995
vn 0.0000000 -0.0000009 1.0000000
vt 0.3456350 0.9324059
v 1.5401878 -3.0504987 0.9266995
vn 0.0000000 -0.0000009 1.0000000
vt 0.3710423 0.9324059
v 1.5401878 -3.0504987 0.9266995
vn -1.0000000 0.0000000 0.0000000
vt 0.0387053 0.8372970
v 1.5401878 -2.8878007 0.8831046
vn -1.0000000 0.0000000 0.0000000
vt 0.0560825 0.8418350
v 1.5401878 -2.7686980 0.7640017
vn -1.0000000 0.0000000 0.0000000
vt 0.0687003 0.8545635
v 1.5401878 -3.2131953 0.8831047
vn -1.0000000 0.0000000 0.0000000
vt 0.0214387 0.8418350
v 1.5401878 -3.3322983 0.7640017
vn -1.0000000 0.0000000 0.0000000
vt 0.0088209 0.8545635
v 1.5401878 -2.7251031 0.6013048
vn -1.0000000 0.0000000 0.0000000
vt 0.0733490 0.8718301
v 1.5401878 -2.7686980 0.4386070
vn -1.0000000 0.0000000 0.0000000
vt 0.0687003 0.8890967
v 1.5401878 -2.8878007 0.3195041
vn -1.0000000 0.0000000 0.0000000
vt 0.0560825 0.9018251
v 1.5401878 -3.0504987 0.2759092
vn -1.0000000 0.0000000 0.0000000
vt 0.0387053 0.9064740
v 1.5401878 -3.2131953 0.3195041
vn -1.0000000 0.0000000 0.0000000
vt 0.0214387 0.9018251
v 1.5401878 -3.3322983 0.4386071
vn -1.0000000 0.0000000 0.0000000
vt 0.0088209 0.8890967
v 1.5401878 -3.3758931 0.6013049
vn -1.0000000 0.0000000 0.0000000
vt 0.0041721 0.8718301
v 1.6180408 -3.3322983 0.7640017
vn 0.9482901 -0.2748806 0.1587027
vt 0.0955719 0.9791967
v 1.6180408 -3.2131953 0.8831047
vn 0.9482902 -0.1587026 0.2748805
vt 0.1087431 0.9923679
v 1.6180408 -3.0504987 0.9266995
vn 0.9482903 -0.0000003 0.3174044
vt 0.1267844 0.9972379
v 1.6180408 -2.7686980 0.4386070
vn 0.0000000 0.8660254 -0.4999999
vt 0.3456350 0.9324059
v 1.5401878 -2.7686980 0.4386070
vn 0.0000000 0.8660254 -0.4999999
vt 0.3710423 0.9324059
v 1.5401878 -2.7251031 0.6013048
vn 0.0000000 1.0000000 0.0000007
vt 0.3710423 0.9502258
v 1.6180408 -2.7251031 0.6013048
vn 0.0000000 1.0000000 0.0000007
vt 0.3456350 0.9502258
v 1.6180408 -2.8878007 0.3195041
vn 0.0000000 0.5000005 -0.8660251
vt 0.3456350 0.9144752
v 1.5401878 -2.8878007 0.3195041
vn 0.0000000 0.5000005 -0.8660251
vt 0.3710423 0.9144752
v 1.6180408 -2.7686980 0.4386070
vn 0.9482904 0.2748800 -0.1587020
vt 0.1578864 0.9432246
v 1.6180408 -2.7251031 0.6013048
vn 0.9482904 0.3174040 0.0000002
vt 0.1627564 0.9612659
v 1.6180408 -2.8878007 0.3195041
vn 0.9482904 0.1587022 -0.2748799
vt 0.1447151 0.9300532
v 1.6180408 -2.7686980 0.7640017
vn 0.0000000 0.8660252 0.5000005
vt 0.3456350 0.9324059
v 1.5401878 -2.7686980 0.7640017
vn 0.0000000 0.8660251 0.5000005
vt 0.3710423 0.9324059
v 1.6180408 -2.8878007 0.8831046
vn 0.0000000 0.5000008 0.8660250
vt 0.3456350 0.9144752
v 1.5401878 -2.8878007 0.8831046
vn 0.0000000 0.5000008 0.8660250
vt 0.3710423 0.9144752
v 1.6180408 -2.7686980 0.7640017
vn 0.9482903 0.2748802 0.1587023
vt 0.1578864 0.9791967
v 1.6180408 -2.8878007 0.8831046
vn 0.9482903 0.1587024 0.2748802
vt 0.1447151 0.9923679
v 1.6674030 -3.1243556 0.4726890
vn -0.0511736 -0.5022326 -0.8632171
vt 0.2163582 0.7754867
v 1.0268253 -3.1080098 0.5011539
vn -0.0511732 -0.5023946 -0.8631228
vt 0.2868939 0.7754867
v 1.0268253 -2.9929864 0.5011538
vn -0.0511736 0.5023940 -0.8631231
vt 0.2868939 0.7624261
v 1.6674030 -2.9766407 0.4726890
vn -0.0511734 0.5022319 -0.8632175
vt 0.2163582 0.7624261
v 1.0268253 -3.1080098 0.5011539
vn -0.0511732 -0.5023946 -0.8631228
vt 0.2868939 0.7624261
v 1.6674030 -3.1243556 0.4726890
vn -0.0511736 -0.5022326 -0.8632171
vt 0.2163582 0.7624261
v 1.6674030 -3.1974385 0.6013045
vn -0.0507014 -0.9987139 0.0000001
vt 0.2163582 0.7456575
v 1.0268253 -3.1649187 0.6013044
vn -0.0507014 -0.9987139 -0.0000003
vt 0.2868939 0.7456575
v 1.0268253 -3.1080098 0.7014549
vn -0.0511735 -0.5023940 0.8631231
vt 0.2868939 0.7158285
v 1.6674030 -3.1243556 0.7299197
vn -0.0511733 -0.5022321 0.8632175
vt 0.2163582 0.7158285
v 1.6674030 -2.9766407 0.7299197
vn -0.0511736 0.5022320 0.8632175
vt 0.2163583 0.7288891
v 1.0268253 -2.9929864 0.7014549
vn -0.0511733 0.5023946 0.8631228
vt 0.2868939 0.7288891
v 1.6674030 -3.1243556 0.7299197
vn -0.0511733 -0.5022321 0.8632175
vt 0.2163583 0.7288891
v 1.0268253 -3.1080098 0.7014549
vn -0.0511735 -0.5023940 0.8631231
vt 0.2868939 0.7288891
v 1.0268253 -2.9360776 0.6013044
vn -0.0507017 0.9987139 0.0000002
vt 0.2868939 0.7456575
v 1.6674030 -2.9035575 0.6013044
vn -0.0507016 0.9987139 0.0000003
vt 0.2163582 0.7456575
v 1.2672869 -3.2727468 0.3790556
vn 0.0000000 -0.7071075 -0.7071061
vt 0.3456350 0.9413159
v 1.2672869 -3.3758931 0.6013049
vn 0.0000000 -1.0000000 0.0000008
vt 0.3456350 0.9324059
v 1.0377152 -3.3758931 0.6013049
vn 0.0000000 -1.0000000 0.0000008
vt 0.3710423 0.9324059
v 1.0377152 -3.2727468 0.3790556
vn 0.0000000 -0.7071076 -0.7071060
vt 0.3710423 0.9413159
v 1.2672869 -3.0504987 0.2759092
vn 0.0000000 -0.0000011 -1.0000000
vt 0.3456350 0.9144752
v 1.0377152 -3.0504987 0.2759092
vn 0.0000000 -0.0000011 -1.0000000
vt 0.3710423 0.9144752
v 1.2672869 -3.2727468 0.8235532
vn 0.0000000 -0.7071069 0.7071066
vt 0.3456350 0.9234406
v 1.0377152 -3.2727468 0.8235532
vn 0.0000000 -0.7071069 0.7071066
vt 0.3710423 0.9234406
v 1.2672869 -3.0504987 0.9266995
vn 0.0000000 -0.0000009 1.0000000
vt 0.3456350 0.9502258
v 1.0377152 -3.0504987 0.9266995
vn 0.0000000 -0.0000009 1.0000000
vt 0.3710423 0.9502258
v 1.2672869 -2.8282495 0.3790556
vn 0.0000000 0.7071068 -0.7071068
vt 0.3456350 0.9413159
v 1.0377152 -2.8282495 0.3790556
vn 0.0000000 0.7071068 -0.7071068
vt 0.3710423 0.9413159
v 1.0377152 -2.7251031 0.6013048
vn 0.0000000 1.0000000 0.0000008
vt 0.3710423 0.9324059
v 1.2672869 -2.7251031 0.6013048
vn 0.0000000 1.0000000 0.0000008
vt 0.3456350 0.9324059
v 1.2672869 -2.8282495 0.8235531
vn 0.0000000 0.7071062 0.7071074
vt 0.3456350 0.9234406
v 1.0377152 -2.8282495 0.8235531
vn 0.0000000 0.7071064 0.7071072
vt 0.3710423 0.9234406
v 1.0377152 -3.2727468 0.8235532
vn -1.0000000 0.0000000 0.0000000
vt 0.0151298 0.8955162
v 1.0377152 -3.0504987 0.9266995
vn -1.0000000 0.0000000 0.0000000
vt 0.0387053 0.9064740
v 1.0377152 -2.8282495 0.8235531
vn -1.0000000 0.0000000 0.0000000
vt 0.0623914 0.8955162
v 1.0377152 -3.3758931 0.6013049
vn -1.0000000 0.0000000 0.0000000
vt 0.0041721 0.8719407
v 1.0377152 -2.7251031 0.6013048
vn -1.0000000 0.0000000 0.0000000
vt 0.0733490 0.8719407
v 1.0377152 -2.8282495 0.3790556
vn -1.0000000 0.0000000 0.0000000
vt 0.0623914 0.8482546
v 1.0377152 -3.0504987 0.2759092
vn -1.0000000 0.0000000 0.0000000
vt 0.0387053 0.8372970
v 1.0377152 -3.2727468 0.3790556
vn -1.0000000 0.0000000 0.0000000
vt 0.0151298 0.8482546
v 1.2672869 -2.8282495 0.3790556
vn 1.0000000 0.0000000 0.0000000
vt 0.0623914 0.8482546
v 1.2672869 -2.7251031 0.6013048
vn 1.0000000 0.0000000 0.0000000
vt 0.0733490 0.8719407
v 1.2672869 -2.8282495 0.8235531
vn 1.0000000 0.0000000 0.0000000
vt 0.0623914 0.8955162
v 1.2672869 -3.0504987 0.2759092
vn 1.0000000 0.0000000 0.0000000
vt 0.0387053 0.8372970
v 1.2672869 -3.0504987 0.9266995
vn 1.0000000 0.0000000 0.0000000
vt 0.0387053 0.9064740
v 1.2672869 -3.2727468 0.8235532
vn 1.0000000 0.0000000 0.0000000
vt 0.0151298 0.8955162
v 1.2672869 -3.3758931 0.6013049
vn 1.0000000 0.0000000 0.0000000
vt 0.0041721 0.8719407
v 1.2672869 -3.2727468 0.3790556
vn 1.0000000 0.0000000 0.0000000
vt 0.0151298 0.8482546
v 1.6180408 -3.3758931 0.6013049
vn 0.0000000 -1.0000000 0.0000008
vt 0.3456350 0.9144752
v 1.5401878 -3.3758931 0.6013049
vn 0.0000000 -1.0000000 0.0000008
vt 0.3710423 0.9144752
v 1.6180408 -3.2131953 0.3195041
vn 0.0000000 -0.5000011 -0.8660248
vt 0.3456350 0.9502258
v 1.5401878 -3.2131953 0.3195041
vn 0.0000000 -0.5000011 -0.8660248
vt 0.3710423 0.9502258
v 1.6180408 -3.2131953 0.8831047
vn 0.0000000 -0.5000011 0.8660249
vt 0.3456350 0.9502258
v 1.5401878 -3.2131953 0.8831047
vn 0.0000000 -0.5000011 0.8660249
vt 0.3710423 0.9502258
v 1.5401878 -2.7251031 0.6013048
vn 0.0000000 1.0000000 0.0000007
vt 0.3710423 0.9502258
v 1.6180408 -2.7251031 0.6013048
vn 0.0000000 1.0000000 0.0000007
vt 0.3456350 0.9502258
v 1.6180408 -2.8878007 0.3195041
vn 0.0000000 0.5000005 -0.8660251
vt 0.3456350 0.9144752
v 1.5401878 -2.8878007 0.3195041
vn 0.0000000 0.5000005 -0.8660251
vt 0.3710423 0.9144752
v 1.6180408 -2.8878007 0.8831046
vn 0.0000000 0.5000008 0.8660250
vt 0.3456350 0.9144752
v 1.5401878 -2.8878007 0.8831046
vn 0.0000000 0.5000008 0.8660250
vt 0.3710423 0.9144752
v 1.2672869 -3.2727468 0.3790556
vn 0.0000000 -0.7071075 -0.7071061
vt 0.3456350 0.9413159
v 1.0377152 -3.2727468 0.3790556
vn 0.0000000 -0.7071076 -0.7071060
vt 0.3710423 0.9413159
v 1.2672869 -3.0504987 0.2759092
vn 0.0000000 -0.0000011 -1.0000000
vt 0.3456350 0.9144752
v 1.0377152 -3.0504987 0.2759092
vn 0.0000000 -0.0000011 -1.0000000
vt 0.3710423 0.9144752
v 1.2672869 -3.2727468 0.8235532
vn 0.0000000 -0.7071069 0.7071066
vt 0.3456350 0.9234406
v 1.0377152 -3.2727468 0.8235532
vn 0.0000000 -0.7071069 0.7071066
vt 0.3710423 0.9234406
v 1.2672869 -3.0504987 0.9266995
vn 0.0000000 -0.0000009 1.0000000
vt 0.3456350 0.9502258
v 1.0377152 -3.0504987 0.9266995
vn 0.0000000 -0.0000009 1.0000000
vt 0.3710423 0.9502258
v 1.2672869 -2.8282495 0.3790556
vn 0.0000000 0.7071068 -0.7071068
vt 0.3456350 0.9413159
v 1.0377152 -2.8282495 0.3790556
vn 0.0000000 0.7071068 -0.7071068
vt 0.3710423 0.9413159
v 1.2672869 -2.8282495 0.8235531
vn 0.0000000 0.7071062 0.7071074
vt 0.3456350 0.9234406
v 1.0377152 -2.8282495 0.8235531
vn 0.0000000 0.7071064 0.7071072
vt 0.3710423 0.9234406

g group_33068792_140627863801888
f 1/1/1 2/2/2 3/3/3 
f 3/3/3 4/4/4 1/1/1 
f 5/5/5 1/1/1 4/4/4 
f 4/4/4 6/6/6 5/5/5 
f 7/7/7 100/100/100 101/101/101 
f 101/101/101 8/8/8 7/7/7 
f 9/9/9 10/10/10 11/11/11 
f 12/12/12 9/9/9 11/11/11 
f 9/9/9 12/12/12 13/13/13 
f 14/14/14 15/15/15 99/99/99 
f 99/99/99 98/98/98 14/14/14 
f 16/16/16 17/17/17 15/15/15 
f 15/15/15 14/14/14 16/16/16 
f 18/18/18 19/19/19 103/103/103 
f 103/103/103 102/102/102 18/18/18 
f 20/20/20 21/21/21 22/22/22 
f 23/23/23 20/20/20 22/22/22 
f 24/24/24 23/23/23 22/22/22 
f 22/22/22 25/25/25 26/26/26 
f 22/22/22 26/26/26 27/27/27 
f 22/22/22 27/27/27 28/28/28 
f 22/22/22 28/28/28 29/29/29 
f 22/22/22 29/29/29 30/30/30 
f 24/24/24 22/22/22 30/30/30 
f 24/24/24 30/30/30 31/31/31 
f 32/32/32 10/10/10 9/9/9 
f 9/9/9 33/33/33 32/32/32 
f 34/34/34 33/33/33 9/9/9 
f 35/35/35 36/36/36 37/37/37 
f 37/37/37 38/38/38 35/35/35 
f 39/39/39 40/40/40 36/36/36 
f 36/36/36 35/35/35 39/39/39 
f 7/7/7 8/8/8 107/107/107 
f 107/107/107 106/106/106 7/7/7 
f 41/41/41 42/42/42 9/9/9 
f 9/9/9 43/43/43 41/41/41 
f 13/13/13 43/43/43 9/9/9 
f 44/44/44 105/105/105 104/104/104 
f 104/104/104 45/45/45 44/44/44 
f 46/46/46 44/44/44 45/45/45 
f 45/45/45 47/47/47 46/46/46 
f 18/18/18 108/108/108 109/109/109 
f 109/109/109 19/19/19 18/18/18 
f 9/9/9 42/42/42 48/48/48 
f 9/9/9 48/48/48 49/49/49 
f 9/9/9 49/49/49 34/34/34 
f 50/50/50 51/51/51 52/52/52 
f 52/52/52 53/53/53 50/50/50 
f 54/54/54 55/55/55 56/56/56 
f 56/56/56 57/57/57 54/54/54 
f 58/58/58 59/59/59 60/60/60 
f 60/60/60 61/61/61 58/58/58 
f 62/62/62 63/63/63 57/57/57 
f 57/57/57 56/56/56 62/62/62 
f 53/53/53 52/52/52 64/64/64 
f 64/64/64 65/65/65 53/53/53 
f 61/61/61 60/60/60 65/65/65 
f 65/65/65 64/64/64 61/61/61 
f 66/66/66 67/67/67 68/68/68 
f 68/68/68 69/69/69 66/66/66 
f 70/70/70 110/110/110 111/111/111 
f 111/111/111 71/71/71 70/70/70 
f 72/72/72 73/73/73 68/68/68 
f 68/68/68 67/67/67 72/72/72 
f 74/74/74 75/75/75 115/115/115 
f 115/115/115 114/114/114 74/74/74 
f 76/76/76 77/77/77 78/78/78 
f 78/78/78 79/79/79 76/76/76 
f 112/112/112 113/113/113 119/119/119 
f 119/119/119 118/118/118 112/112/112 
f 80/80/80 79/79/79 78/78/78 
f 78/78/78 81/81/81 80/80/80 
f 116/116/116 120/120/120 121/121/121 
f 121/121/121 117/117/117 116/116/116 
f 82/82/82 83/83/83 84/84/84 
f 85/85/85 82/82/82 84/84/84 
f 84/84/84 86/86/86 87/87/87 
f 84/84/84 87/87/87 88/88/88 
f 84/84/84 88/88/88 89/89/89 
f 85/85/85 84/84/84 89/89/89 
f 90/90/90 91/91/91 92/92/92 
f 93/93/93 90/90/90 92/92/92 
f 92/92/92 94/94/94 95/95/95 
f 92/92/92 95/95/95 96/96/96 
f 92/92/92 96/96/96 97/97/97 
f 93/93/93 92/92/92 97/97/97 
