v -1.4515530 -1.4975430 0.0611782
vn -1.0000000 0.0000000 0.0000000
vt 0.4107394 1.5888050
v -1.4515530 1.5030980 0.0610318
vn -1.0000000 0.0000000 0.0000000
vt 0.4107394 4.1537971
v -1.4515530 1.5105740 0.0002913
vn -1.0000000 0.0000000 0.0000000
vt 0.4679974 4.1537971
v -1.4515530 -1.5105740 0.0005313
vn -1.0000000 0.0000000 0.0000000
vt 0.4679976 1.5888050
v -1.4515530 1.5105740 0.0002913
vn 0.0000000 0.0705760 -0.9975064
vt 0.4679974 4.1537971
v -1.0515521 1.5105740 0.0002913
vn 0.0000000 0.0705760 -0.9975064
vt 0.8076060 4.1537971
v -1.0515521 -1.5105740 0.0005312
vn 0.0000000 -0.1035703 -0.9946222
vt 0.8076063 1.5888050
v -1.4515530 -1.5105740 0.0005313
vn 0.0000000 -0.1035703 -0.9946222
vt 0.4679976 1.5888050
v -1.0515521 1.5105740 0.0002913
vn 1.0000000 0.0000000 0.0000000
vt 0.0290574 4.1537971
v -1.0515521 1.5030980 0.0610313
vn 1.0000000 0.0000000 0.0000000
vt 0.1001220 4.1537971
v -1.0515521 -1.4975430 0.0611782
vn 1.0000000 0.0000000 0.0000000
vt 0.1001220 1.5888050
v -1.0515521 -1.5105740 0.0005312
vn 1.0000000 0.0000000 0.0000000
vt 0.0290574 1.5888050
v -1.0515521 1.5030980 0.0610313
vn 0.0000000 -0.0704242 0.9975172
vt 0.1001220 4.1537971
v -1.4515530 1.5030980 0.0610318
vn 0.0000000 -0.0704243 0.9975172
vt 0.4107394 4.1537971
v -1.4515530 -1.4975430 0.0611782
vn 0.0000000 0.1048614 0.9944869
vt 0.4107394 1.5888050
v -1.0515521 -1.4975430 0.0611782
vn 0.0000000 0.1048614 0.9944869
vt 0.1001220 1.5888050
v -1.4515530 -2.3503721 0.6027832
vn -1.0000000 0.0000000 0.0000000
vt 0.4107394 0.6826110
v -1.4515530 -2.1928711 0.4507446
vn -1.0000000 0.0000000 0.0000000
vt 0.4107394 0.9072537
v -1.4515530 -2.2135770 0.3880882
vn -1.0000000 0.0000000 0.0000000
vt 0.4679976 0.9072537
v -1.4515530 -2.4096220 0.5657768
vn -1.0000000 0.0000000 0.0000000
vt 0.4679976 0.6826110
v -1.0515521 -2.2135770 0.3880882
vn 0.0000000 -0.5322591 -0.8465815
vt 0.8076062 0.9072537
v -1.4515530 -2.2135770 0.3880882
vn 0.0000000 -0.5322591 -0.8465815
vt 0.4679976 0.9072537
v -1.0515521 -2.1928711 0.4507446
vn 1.0000000 0.0000000 0.0000000
vt 0.1001220 0.9072537
v -1.0515521 -2.2135770 0.3880882
vn 1.0000000 0.0000000 0.0000000
vt 0.0290574 0.9072537
v -1.0515521 -2.3503721 0.6027832
vn 0.0000000 0.8929967 0.4500634
vt 0.1001220 0.6826110
v -1.0515521 -2.1928711 0.4507446
vn 0.0000000 0.5360972 0.8441563
vt 0.1001220 0.9072537
v -1.4515530 -2.1928711 0.4507446
vn 0.0000000 0.5360972 0.8441563
vt 0.4107394 0.9072537
v -1.4515530 -2.3503721 0.6027832
vn 0.0000000 0.8929967 0.4500634
vt 0.4107394 0.6826110
v -1.4515530 -2.4575651 0.8513260
vn -1.0000000 0.0000000 0.0000000
vt 0.4679976 0.4367833
v -1.4515530 -2.3893430 0.8405762
vn -1.0000000 0.0000000 0.0000000
vt 0.4107395 0.4367833
v -1.4515530 -2.4096220 0.5657768
vn 0.0000000 -0.8847775 -0.4660138
vt 0.4679976 0.6826110
v -1.0515521 -2.4096220 0.5657768
vn 0.0000000 -0.8847775 -0.4660138
vt 0.8076062 0.6826110
v -1.0515521 -2.4575651 0.8513260
vn 0.0000000 -0.9863459 0.1646867
vt 0.8076062 0.4367833
v -1.4515530 -2.4575651 0.8513260
vn 0.0000000 -0.9863459 0.1646867
vt 0.4679976 0.4367833
v -1.0515521 -2.4096220 0.5657768
vn 1.0000000 0.0000000 0.0000000
vt 0.0290574 0.6826110
v -1.0515521 -2.3503721 0.6027832
vn 1.0000000 0.0000000 0.0000000
vt 0.1001220 0.6826110
v -1.0515521 -2.3893430 0.8405762
vn 1.0000000 0.0000000 0.0000000
vt 0.1001220 0.4367833
v -1.0515521 -2.4575651 0.8513260
vn 1.0000000 0.0000000 0.0000000
vt 0.0290574 0.4367833
v -1.4515530 -2.3893430 0.8405762
vn 0.0000000 0.9856853 -0.1685953
vt 0.4107395 0.4367833
v -1.0515521 -2.3893430 0.8405762
vn 0.0000000 0.9856853 -0.1685953
vt 0.1001220 0.4367833
v -1.4515530 -2.3207700 1.0979310
vn -1.0000000 0.0000000 0.0000000
vt 0.4679974 0.1973596
v -1.4515530 -2.2749939 1.0434800
vn -1.0000000 0.0000000 0.0000000
vt 0.4107395 0.1973596
v -1.0515521 -2.3207700 1.0979310
vn 0.0000000 -0.6438248 0.7651729
vt 0.8076063 0.1973596
v -1.4515530 -2.3207700 1.0979310
vn 0.0000000 -0.6438248 0.7651729
vt 0.4679974 0.1973596
v -1.0515521 -2.2749939 1.0434800
vn 1.0000000 0.0000000 0.0000000
vt 0.1001220 0.1973596
v -1.0515521 -2.3207700 1.0979310
vn 1.0000000 0.0000000 0.0000000
vt 0.0290574 0.1973596
v -1.4515530 -2.2749939 1.0434800
vn 0.0000000 0.6456267 -0.7636532
vt 0.4107395 0.1973596
v -1.0515521 -2.2749939 1.0434800
vn 0.0000000 0.6456267 -0.7636532
vt 0.1001220 0.1973596
v -1.4515530 -2.0520630 1.1925200
vn -1.0000000 0.0000000 0.0000000
vt 0.4679977 -0.0445094
v -1.4515530 -2.0540161 1.1240770
vn -1.0000000 0.0000000 0.0000000
vt 0.4107394 -0.0445094
v -1.4515530 -2.0520630 1.1925200
vn 0.0000000 -0.0209325 0.9997809
vt 0.4679977 -0.0445094
v -1.0515521 -2.0520630 1.1925200
vn 0.0000000 -0.0209325 0.9997809
vt 0.8076063 -0.0445094
v -1.0515521 -2.0540161 1.1240770
vn 1.0000000 0.0000000 0.0000000
vt 0.1001220 -0.0445094
v -1.0515521 -2.0520630 1.1925200
vn 1.0000000 0.0000000 0.0000000
vt 0.0290574 -0.0445094
v -1.4515530 -2.0540161 1.1240770
vn 0.0000000 0.0182690 -0.9998331
vt 0.4107394 -0.0445094
v -1.0515521 -2.0540161 1.1240770
vn 0.0000000 0.0182690 -0.9998331
vt 0.1001220 -0.0445094
v -1.4515530 1.3271940 1.1743090
vn -1.0000000 0.0000000 0.0000000
vt 0.4679976 -2.9135921
v -1.4515530 1.3254850 1.1092680
vn -1.0000000 0.0000000 0.0000000
vt 0.4107395 -2.9135921
v -1.0515521 1.3271940 1.1743090
vn 0.0000000 0.0168421 0.9998582
vt 0.8076063 -2.9135921
v -1.4515530 1.3271940 1.1743090
vn 0.0000000 0.0168421 0.9998582
vt 0.4679976 -2.9135921
v -1.0515521 1.3254850 1.1092680
vn 1.0000000 0.0000000 0.0000000
vt 0.1001220 -2.9135921
v -1.0515521 1.3271940 1.1743090
vn 1.0000000 0.0000000 0.0000000
vt 0.0290574 -2.9135921
v -1.4515530 1.3254850 1.1092680
vn 0.0000000 -0.0169153 -0.9998569
vt 0.4107395 -2.9135921
v -1.0515521 1.3254850 1.1092680
vn 0.0000000 -0.0169153 -0.9998569
vt 0.1001220 -2.9135921
v -1.4515530 2.2435460 1.1201630
vn -1.0000000 0.0000000 0.0000000
vt 0.4679976 -3.6929531
v -1.4515530 2.2297521 1.0516050
vn -1.0000000 0.0000000 0.0000000
vt 0.4107395 -3.6929531
v -1.0515521 2.2435460 1.1201630
vn 0.0000000 0.1341207 0.9909650
vt 0.8076063 -3.6929531
v -1.4515530 2.2435460 1.1201630
vn 0.0000000 0.1341207 0.9909650
vt 0.4679976 -3.6929531
v -1.0515521 2.2297521 1.0516050
vn 1.0000000 0.0000000 0.0000000
vt 0.1001220 -3.6929531
v -1.0515521 2.2435460 1.1201630
vn 1.0000000 0.0000000 0.0000000
vt 0.0290574 -3.6929531
v -1.4515530 2.2297521 1.0516050
vn 0.0000000 -0.1316395 -0.9912977
vt 0.4107395 -3.6929531
v -1.0515521 2.2297521 1.0516050
vn 0.0000000 -0.1316395 -0.9912977
vt 0.1001220 -3.6929531
v -1.4515530 2.5123291 1.0139080
vn -1.0000000 0.0000000 0.0000000
vt 0.4679977 -3.9383321
v -1.4515530 2.4774630 0.9562912
vn -1.0000000 0.0000000 0.0000000
vt 0.4107394 -3.9383321
v -1.0515521 2.5123291 1.0139080
vn 0.0000000 0.6170822 0.7868987
vt 0.8076063 -3.9383321
v -1.4515530 2.5123291 1.0139080
vn 0.0000000 0.6170822 0.7868987
vt 0.4679977 -3.9383321
v -1.0515521 2.4774630 0.9562912
vn 1.0000000 0.0000000 0.0000000
vt 0.1001220 -3.9383321
v -1.0515521 2.5123291 1.0139080
vn 1.0000000 0.0000000 0.0000000
vt 0.0290574 -3.9383321
v -1.4515530 2.4774630 0.9562912
vn 0.0000000 -0.6030924 -0.7976714
vt 0.4107394 -3.9383321
v -1.0515521 2.4774630 0.9562912
vn 0.0000000 -0.6030924 -0.7976714
vt 0.1001220 -3.9383321
v -1.4515530 2.6669011 0.7881699
vn -1.0000000 0.0000000 0.0000000
vt 0.4679976 -4.1706161
v -1.4515530 2.6026311 0.7696838
vn -1.0000000 0.0000000 0.0000000
vt 0.4107394 -4.1706161
v -1.4515530 2.6669011 0.7881699
vn 0.0000000 0.9667019 0.2559050
vt 0.4679976 -4.1706161
v -1.0515521 2.6669011 0.7881699
vn 0.0000000 0.9667019 0.2559050
vt 0.8076063 -4.1706161
v -1.0515521 2.6026311 0.7696838
vn 1.0000000 0.0000000 0.0000000
vt 0.1001220 -4.1706161
v -1.0515521 2.6669011 0.7881699
vn 1.0000000 0.0000000 0.0000000
vt 0.0290574 -4.1706161
v -1.0515521 2.6026311 0.7696838
vn 0.0000000 -0.9699527 -0.2432936
vt 0.1001220 -4.1706161
v -1.4515530 2.6026311 0.7696838
vn 0.0000000 -0.9699527 -0.2432936
vt 0.4107394 -4.1706161
v -1.4515530 2.6435850 0.5180779
vn -1.0000000 0.0000000 0.0000000
vt 0.4679976 -4.4007778
v -1.4515530 2.5811610 0.5428696
vn -1.0000000 0.0000000 0.0000000
vt 0.4107394 -4.4007778
v -1.0515521 2.6435850 0.5180779
vn 0.0000000 0.9351749 -0.3541862
vt 0.8076063 -4.4007778
v -1.4515530 2.6435850 0.5180779
vn 0.0000000 0.9351749 -0.3541862
vt 0.4679976 -4.4007778
v -1.0515521 2.5811610 0.5428696
vn 1.0000000 0.0000000 0.0000000
vt 0.1001220 -4.4007778
v -1.0515521 2.6435850 0.5180779
vn 1.0000000 0.0000000 0.0000000
vt 0.0290574 -4.4007778
v -1.4515530 2.5811610 0.5428696
vn 0.0000000 -0.9324500 0.3612991
vt 0.4107394 -4.4007778
v -1.0515521 2.5811610 0.5428696
vn 0.0000000 -0.9324500 0.3612991
vt 0.1001220 -4.4007778
v -1.4515530 2.4754031 0.2825489
vn -1.0000000 0.0000000 0.0000000
vt 0.4679976 -4.6465001
v -1.4515530 2.4356990 0.3388634
vn -1.0000000 0.0000000 0.0000000
vt 0.4107394 -4.6465001
v -1.0515521 2.4754031 0.2825489
vn 0.0000000 0.4156526 -0.9095235
vt 0.8076063 -4.6465001
v -1.4515530 2.4754031 0.2825489
vn 0.0000000 0.4156526 -0.9095235
vt 0.4679976 -4.6465001
v -1.0515521 2.4356990 0.3388634
vn 1.0000000 0.0000000 0.0000000
vt 0.1001220 -4.6465001
v -1.0515521 2.4754031 0.2825489
vn 1.0000000 0.0000000 0.0000000
vt 0.0290574 -4.6465001
v -1.4515530 2.4356990 0.3388634
vn 0.0000000 -0.4080458 0.9129615
vt 0.4107394 -4.6465001
v -1.0515521 2.4356990 0.3388634
vn 0.0000000 -0.4080458 0.9129615
vt 0.1001220 -4.6465001
v -1.4515530 1.5105740 0.0002913
vn -1.0000000 0.0000000 0.0000000
vt 0.4679976 -5.5000000
v -1.4515530 1.5030980 0.0610318
vn -1.0000000 0.0000000 0.0000000
vt 0.4107394 -5.5000000
v -1.4515530 1.5105740 0.0002913
vn 0.0000000 0.0705760 -0.9975064
vt 0.4679976 -5.5000000
v -1.0515521 1.5105740 0.0002913
vn 0.0000000 0.0705760 -0.9975064
vt 0.8076060 -5.5000000
v -1.0515521 1.5030980 0.0610313
vn 1.0000000 0.0000000 0.0000000
vt 0.1001220 -5.5000000
v -1.0515521 1.5105740 0.0002913
vn 1.0000000 0.0000000 0.0000000
vt 0.0290574 -5.5000000
v -1.0515521 1.5030980 0.0610313
vn 0.0000000 -0.0704242 0.9975172
vt 0.1001220 -5.5000000
v -1.4515530 1.5030980 0.0610318
vn 0.0000000 -0.0704243 0.9975172
vt 0.4107394 -5.5000000
v -1.2752301 1.5030980 0.0610318
vn -0.9033450 -0.0286102 0.4279595
vt 0.8925027 4.1537971
v -1.2752301 -1.4975430 0.0611782
vn -0.8847210 0.0488418 0.4635551
vt 0.8925021 1.5888050
v -1.2436520 -1.4866180 0.1031103
vn -0.8847205 0.0488480 0.4635553
vt 0.9958588 1.5888050
v -1.2515490 1.4936980 0.1253490
vn -0.9033735 -0.0286584 0.4278960
vt 0.9958588 4.1537971
v -1.2752301 2.4356990 0.3388634
vn -0.9381787 -0.0987820 0.3317573
vt 0.8925027 -4.6465001
v -1.2752301 1.5030980 0.0610318
vn -0.9033450 -0.0286102 0.4279595
vt 0.8925027 -5.5000000
v -1.2515490 1.4936980 0.1253490
vn -0.9033735 -0.0286584 0.4278960
vt 0.9958588 -5.5000000
v -1.2515490 2.3923030 0.3927650
vn -0.9381787 -0.0987820 0.3317573
vt 0.9958588 -4.6465001
v -1.2752301 2.4356990 0.3388634
vn -0.9432801 -0.2708647 0.1919767
vt 0.8925027 -4.6465001
v -1.2515490 2.3923030 0.3927650
vn -0.9432801 -0.2708647 0.1919767
vt 0.9958588 -4.6465001
v -1.2515490 2.5154879 0.5677986
vn -0.9432801 -0.2708647 0.1919767
vt 0.9958588 -4.4007778
v -1.2752301 2.5811610 0.5428696
vn -0.9432801 -0.2708647 0.1919767
vt 0.8925027 -4.4007778
v -1.2752301 2.5811610 0.5428696
vn -0.9422823 -0.3331619 0.0332761
vt 0.8925027 -4.4007778
v -1.2515490 2.5154879 0.5677986
vn -0.9422823 -0.3331619 0.0332761
vt 0.9958588 -4.4007778
v -1.2515490 2.5349579 0.7508698
vn -0.9422823 -0.3331620 0.0332761
vt 0.9958588 -4.1706161
v -1.2752301 2.6026311 0.7696838
vn -0.9422823 -0.3331619 0.0332761
vt 0.8925027 -4.1706161
v -1.2752301 2.4774630 0.9562912
vn -0.9399656 -0.2847728 -0.1880669
vt 0.8925030 -3.9383321
v -1.2752301 2.6026311 0.7696838
vn -0.9399656 -0.2847728 -0.1880669
vt 0.8925027 -4.1706161
v -1.2515490 2.5349579 0.7508698
vn -0.9399656 -0.2847728 -0.1880670
vt 0.9958588 -4.1706161
v -1.2515490 2.4389501 0.8991699
vn -0.9399656 -0.2847728 -0.1880669
vt 0.9958588 -3.9383321
v -1.2752301 2.2297521 1.0516050
vn -0.9453022 -0.1153264 -0.3051288
vt 0.8925025 -3.6929531
v -1.2752301 2.4774630 0.9562912
vn -0.9453022 -0.1153264 -0.3051288
vt 0.8925030 -3.9383321
v -1.2515490 2.4389501 0.8991699
vn -0.9453022 -0.1153263 -0.3051288
vt 0.9958588 -3.9383321
v -1.2515490 2.2028501 0.9867172
vn -0.9453022 -0.1153263 -0.3051288
vt 0.9958588 -3.6929531
v -1.2752301 1.3254850 1.1092680
vn -0.9408126 -0.0218489 -0.3382223
vt 0.8925025 -2.9135921
v -1.2752301 2.2297521 1.0516050
vn -0.9408126 -0.0218489 -0.3382223
vt 0.8925025 -3.6929531
v -1.2515490 2.2028501 0.9867172
vn -0.9408126 -0.0218489 -0.3382223
vt 0.9958588 -3.6929531
v -1.2515490 1.3222200 1.0443569
vn -0.9408126 -0.0218489 -0.3382223
vt 0.9958588 -2.9135921
v -1.2752301 -2.0540161 1.1240770
vn -0.9338104 0.0041079 -0.3577447
vt 0.8925021 -0.0445094
v -1.2752301 1.3254850 1.1092680
vn -0.9341007 -0.0018776 -0.3570049
vt 0.8925025 -2.9135921
v -1.2515490 1.3222200 1.0443569
vn -0.9341007 -0.0018776 -0.3570048
vt 0.9958588 -2.9135921
v -1.2515490 -2.0539250 1.0650790
vn -0.9336624 0.0069200 -0.3580877
vt 0.9958587 -0.0445094
v -1.2752301 -2.2749939 1.0434800
vn -0.9270500 0.2429349 -0.2855889
vt 0.8925021 0.1973596
v -1.2515490 -2.2359469 0.9992599
vn -0.9270636 0.2400385 -0.2879839
vt 0.9958588 0.1973596
v -1.2752301 -2.3893430 0.8405762
vn -0.9249933 0.3747671 -0.0627462
vt 0.8925022 0.4367833
v -1.2515490 -2.3324580 0.8320389
vn -0.9250356 0.3738349 -0.0675033
vt 0.9958588 0.4367833
v -1.2752301 -2.3503721 0.6027832
vn -0.9157310 0.3580112 0.1823865
vt 0.8925021 0.6826110
v -1.2515490 -2.3012700 0.6331253
vn -0.9164113 0.3622021 0.1702937
vt 0.9958588 0.6826110
v -1.2752301 -2.1928711 0.4507446
vn -0.8582417 0.2718353 0.4353467
vt 0.8925021 0.9072537
v -1.2499239 -2.1760099 0.4980545
vn -0.8651497 0.2777906 0.4175506
vt 0.9958588 0.9072537
v -1.2278670 1.5030980 0.0610313
vn 0.9385939 -0.0275666 0.3439208
vt 0.8925027 4.1537971
v -1.2515490 1.4936980 0.1253490
vn 0.9385960 -0.0276387 0.3439094
vt 0.9958588 4.1537971
v -1.2436520 -1.4866180 0.1031103
vn 0.9374288 0.0349955 0.3464138
vt 0.9958588 1.5888050
v -1.2278750 -1.4975430 0.0611734
vn 0.9374304 0.0349010 0.3464190
vt 0.8925019 1.5888050
v -1.2499239 -2.1760099 0.4980545
vn 0.9218171 0.2158143 0.3219899
vt 0.9958588 0.9072537
v -1.2278670 -2.1928711 0.4507446
vn 0.9229645 0.2024606 0.3273320
vt 0.8925020 0.9072537
v -1.2278670 -2.3893430 0.8405762
vn 0.9249936 0.3747661 -0.0627463
vt 0.8925022 0.4367833
v -1.2278670 -2.3503721 0.6027832
vn 0.9211907 0.3471575 0.1757539
vt 0.8925020 0.6826110
v -1.2515490 -2.3012700 0.6331253
vn 0.9212898 0.3525783 0.1640542
vt 0.9958588 0.6826110
v -1.2515490 -2.3324580 0.8320389
vn 0.9250359 0.3738340 -0.0675034
vt 0.9958588 0.4367833
v -1.2278670 -2.2749939 1.0434800
vn 0.9270501 0.2429342 -0.2855891
vt 0.8925021 0.1973596
v -1.2515490 -2.2359469 0.9992599
vn 0.9270636 0.2400379 -0.2879840
vt 0.9958588 0.1973596
v -1.2515490 -2.0539250 1.0650790
vn 0.9336624 0.0069200 -0.3580876
vt 0.9958587 -0.0445094
v -1.2278670 -2.0540161 1.1240770
vn 0.9338105 0.0041079 -0.3577446
vt 0.8925021 -0.0445094
v -1.2278670 1.3254850 1.1092680
vn 0.9356514 -0.0063008 -0.3528695
vt 0.8925025 -2.9135921
v -1.2515490 1.3222200 1.0443569
vn 0.9356079 -0.0061753 -0.3529870
vt 0.9958588 -2.9135921
v -1.2278670 2.2297521 1.0516050
vn 0.9408126 -0.0218490 -0.3382224
vt 0.8925025 -3.6929531
v -1.2515490 2.2028501 0.9867172
vn 0.9408126 -0.0218490 -0.3382223
vt 0.9958588 -3.6929531
v -1.2278670 2.2297521 1.0516050
vn 0.9453022 -0.1153267 -0.3051288
vt 0.8925025 -3.6929531
v -1.2515490 2.2028501 0.9867172
vn 0.9453022 -0.1153267 -0.3051288
vt 0.9958588 -3.6929531
v -1.2515490 2.4389501 0.8991699
vn 0.9453022 -0.1153267 -0.3051288
vt 0.9958588 -3.9383321
v -1.2278670 2.4774630 0.9562912
vn 0.9453022 -0.1153267 -0.3051288
vt 0.8925030 -3.9383321
v -1.2278670 2.6026311 0.7696838
vn 0.9472279 -0.3110976 -0.0773155
vt 0.8925027 -4.1706161
v -1.2278670 2.4774630 0.9562912
vn 0.9399655 -0.2847733 -0.1880668
vt 0.8925030 -3.9383321
v -1.2515490 2.4389501 0.8991699
vn 0.9399655 -0.2847733 -0.1880669
vt 0.9958588 -3.9383321
v -1.2515490 2.5349579 0.7508698
vn 0.9472593 -0.3119624 -0.0733438
vt 0.9958588 -4.1706161
v -1.2515490 2.5154879 0.5677986
vn 0.9462432 -0.3011543 0.1180253
vt 0.9958588 -4.4007778
v -1.2278670 2.5811610 0.5428696
vn 0.9462435 -0.3009709 0.1184902
vt 0.8925027 -4.4007778
v -1.2278670 2.4356990 0.3388634
vn 0.9432247 -0.1365988 0.3027670
vt 0.8925027 -4.6465001
v -1.2515490 2.3923030 0.3927650
vn 0.9427933 -0.1326120 0.3058674
vt 0.9958588 -4.6465001
v -1.2515490 1.4936980 0.1253490
vn 0.9385960 -0.0276387 0.3439094
vt 0.9958588 -5.5000000
v -1.2278670 1.5030980 0.0610313
vn 0.9385939 -0.0275666 0.3439208
vt 0.8925027 -5.5000000

g group_80_106102878289920
f 1/1/1 2/2/2 3/3/3 
f 1/1/1 3/3/3 4/4/4 
f 5/5/5 6/6/6 7/7/7 
f 5/5/5 7/7/7 8/8/8 
f 9/9/9 10/10/10 11/11/11 
f 9/9/9 11/11/11 12/12/12 
f 13/13/13 14/14/14 15/15/15 
f 13/13/13 15/15/15 16/16/16 
f 17/17/17 18/18/18 19/19/19 
f 17/17/17 19/19/19 20/20/20 
f 8/8/8 7/7/7 21/21/21 
f 8/8/8 21/21/21 22/22/22 
f 12/12/12 11/11/11 23/23/23 
f 12/12/12 23/23/23 24/24/24 
f 25/25/25 26/26/26 27/27/27 
f 25/25/25 27/27/27 28/28/28 
f 17/17/17 20/20/20 29/29/29 
f 17/17/17 29/29/29 30/30/30 
f 31/31/31 32/32/32 33/33/33 
f 31/31/31 33/33/33 34/34/34 
f 35/35/35 36/36/36 37/37/37 
f 35/35/35 37/37/37 38/38/38 
f 25/25/25 28/28/28 39/39/39 
f 25/25/25 39/39/39 40/40/40 
f 30/30/30 29/29/29 41/41/41 
f 30/30/30 41/41/41 42/42/42 
f 34/34/34 33/33/33 43/43/43 
f 34/34/34 43/43/43 44/44/44 
f 38/38/38 37/37/37 45/45/45 
f 38/38/38 45/45/45 46/46/46 
f 40/40/40 39/39/39 47/47/47 
f 40/40/40 47/47/47 48/48/48 
f 42/42/42 41/41/41 49/49/49 
f 42/42/42 49/49/49 50/50/50 
f 51/51/51 44/44/44 43/43/43 
f 51/51/51 43/43/43 52/52/52 
f 46/46/46 45/45/45 53/53/53 
f 46/46/46 53/53/53 54/54/54 
f 48/48/48 47/47/47 55/55/55 
f 48/48/48 55/55/55 56/56/56 
f 50/50/50 49/49/49 57/57/57 
f 50/50/50 57/57/57 58/58/58 
f 51/51/51 52/52/52 59/59/59 
f 51/51/51 59/59/59 60/60/60 
f 54/54/54 53/53/53 61/61/61 
f 54/54/54 61/61/61 62/62/62 
f 56/56/56 55/55/55 63/63/63 
f 56/56/56 63/63/63 64/64/64 
f 65/65/65 66/66/66 58/58/58 
f 65/65/65 58/58/58 57/57/57 
f 67/67/67 68/68/68 60/60/60 
f 67/67/67 60/60/60 59/59/59 
f 69/69/69 70/70/70 62/62/62 
f 69/69/69 62/62/62 61/61/61 
f 71/71/71 72/72/72 64/64/64 
f 71/71/71 64/64/64 63/63/63 
f 66/66/66 65/65/65 73/73/73 
f 66/66/66 73/73/73 74/74/74 
f 68/68/68 67/67/67 75/75/75 
f 68/68/68 75/75/75 76/76/76 
f 70/70/70 69/69/69 77/77/77 
f 70/70/70 77/77/77 78/78/78 
f 72/72/72 71/71/71 79/79/79 
f 72/72/72 79/79/79 80/80/80 
f 74/74/74 73/73/73 81/81/81 
f 74/74/74 81/81/81 82/82/82 
f 83/83/83 76/76/76 75/75/75 
f 83/83/83 75/75/75 84/84/84 
f 78/78/78 77/77/77 85/85/85 
f 78/78/78 85/85/85 86/86/86 
f 87/87/87 80/80/80 79/79/79 
f 87/87/87 79/79/79 88/88/88 
f 82/82/82 81/81/81 89/89/89 
f 82/82/82 89/89/89 90/90/90 
f 83/83/83 84/84/84 91/91/91 
f 83/83/83 91/91/91 92/92/92 
f 86/86/86 85/85/85 93/93/93 
f 86/86/86 93/93/93 94/94/94 
f 87/87/87 88/88/88 95/95/95 
f 87/87/87 95/95/95 96/96/96 
f 90/90/90 89/89/89 97/97/97 
f 90/90/90 97/97/97 98/98/98 
f 92/92/92 91/91/91 99/99/99 
f 92/92/92 99/99/99 100/100/100 
f 94/94/94 93/93/93 101/101/101 
f 94/94/94 101/101/101 102/102/102 
f 96/96/96 95/95/95 103/103/103 
f 96/96/96 103/103/103 104/104/104 
f 98/98/98 97/97/97 105/105/105 
f 98/98/98 105/105/105 106/106/106 
f 107/107/107 100/100/100 99/99/99 
f 107/107/107 99/99/99 108/108/108 
f 102/102/102 101/101/101 109/109/109 
f 102/102/102 109/109/109 110/110/110 
f 111/111/111 104/104/104 103/103/103 
f 111/111/111 103/103/103 112/112/112 
f 113/113/113 114/114/114 115/115/115 
f 113/113/113 115/115/115 116/116/116 
f 117/117/117 118/118/118 119/119/119 
f 117/117/117 119/119/119 120/120/120 
f 121/121/121 122/122/122 123/123/123 
f 121/121/121 123/123/123 124/124/124 
f 125/125/125 126/126/126 127/127/127 
f 125/125/125 127/127/127 128/128/128 
f 129/129/129 130/130/130 131/131/131 
f 129/129/129 131/131/131 132/132/132 
f 133/133/133 134/134/134 135/135/135 
f 133/133/133 135/135/135 136/136/136 
f 137/137/137 138/138/138 139/139/139 
f 137/137/137 139/139/139 140/140/140 
f 141/141/141 142/142/142 143/143/143 
f 141/141/141 143/143/143 144/144/144 
f 145/145/145 141/141/141 144/144/144 
f 145/145/145 144/144/144 146/146/146 
f 147/147/147 145/145/145 146/146/146 
f 147/147/147 146/146/146 148/148/148 
f 149/149/149 147/147/147 148/148/148 
f 149/149/149 148/148/148 150/150/150 
f 114/114/114 151/151/151 152/152/152 
f 114/114/114 152/152/152 115/115/115 
f 153/153/153 154/154/154 155/155/155 
f 153/153/153 155/155/155 156/156/156 
f 156/156/156 155/155/155 157/157/157 
f 156/156/156 157/157/157 158/158/158 
f 159/159/159 160/160/160 161/161/161 
f 159/159/159 161/161/161 162/162/162 
f 163/163/163 159/159/159 162/162/162 
f 163/163/163 162/162/162 164/164/164 
f 163/163/163 164/164/164 165/165/165 
f 163/163/163 165/165/165 166/166/166 
f 167/167/167 166/166/166 165/165/165 
f 167/167/167 165/165/165 168/168/168 
f 169/169/169 167/167/167 168/168/168 
f 169/169/169 168/168/168 170/170/170 
f 171/171/171 172/172/172 173/173/173 
f 171/171/171 173/173/173 174/174/174 
f 175/175/175 176/176/176 177/177/177 
f 175/175/175 177/177/177 178/178/178 
f 175/175/175 178/178/178 179/179/179 
f 175/175/175 179/179/179 180/180/180 
f 181/181/181 180/180/180 179/179/179 
f 181/181/181 179/179/179 182/182/182 
f 181/181/181 182/182/182 183/183/183 
f 181/181/181 183/183/183 184/184/184 
f 19/19/19 18/18/18 1/1/1 
f 19/19/19 1/1/1 4/4/4 
f 22/22/22 21/21/21 32/32/32 
f 22/22/22 32/32/32 31/31/31 
f 24/24/24 23/23/23 36/36/36 
f 24/24/24 36/36/36 35/35/35 
f 27/27/27 26/26/26 16/16/16 
f 27/27/27 16/16/16 15/15/15 
f 152/152/152 151/151/151 149/149/149 
f 152/152/152 149/149/149 150/150/150 
f 158/158/158 157/157/157 161/161/161 
f 158/158/158 161/161/161 160/160/160 
