v -1.1508480 -0.8413177 0.9944305
vn 0.0000000 1.0000000 0.0000000
vt 0.6928227 0.8174950
v -1.1508480 -0.8884002 0.8807631
vn 0.0000000 0.7071069 -0.7071066
vt 0.7031969 0.8174950
v -1.3493730 -0.8884002 0.8807631
vn 0.0000000 0.7071069 -0.7071066
vt 0.7031969 0.8347307
v -1.3493730 -0.8413177 0.9944305
vn 0.0000000 1.0000000 0.0000000
vt 0.6928227 0.8347307
v -1.1508480 -1.0020680 0.8336806
vn 0.0000000 0.0000000 -1.0000000
vt 0.7135708 0.8174950
v -1.3493730 -1.0020680 0.8336806
vn 0.0000000 0.0000000 -1.0000000
vt 0.7135708 0.8347307
v -1.1508480 -1.0020680 0.8336806
vn 0.0000000 0.0000000 -1.0000000
vt 0.6928227 0.8174950
v -1.1508480 -1.1157269 0.8807631
vn 0.0000000 -0.7071065 -0.7071071
vt 0.7031969 0.8174950
v -1.3493730 -1.1157269 0.8807631
vn 0.0000000 -0.7071065 -0.7071071
vt 0.7031969 0.8347307
v -1.3493730 -1.0020680 0.8336806
vn 0.0000000 0.0000000 -1.0000000
vt 0.6928227 0.8347307
v -1.1508480 -1.1628100 0.9944305
vn 0.0000000 -1.0000000 0.0000000
vt 0.7135708 0.8174950
v -1.3493730 -1.1628100 0.9944305
vn 0.0000000 -1.0000000 0.0000000
vt 0.7135708 0.8347307
v -1.1508480 -1.1628100 0.9944305
vn 0.0000000 -1.0000000 0.0000000
vt 0.6928227 0.8174950
v -1.1508480 -1.1157269 1.1080980
vn 0.0000000 -0.7071069 0.7071066
vt 0.7031969 0.8174950
v -1.3493730 -1.1157269 1.1080980
vn 0.0000000 -0.7071069 0.7071066
vt 0.7031969 0.8347307
v -1.3493730 -1.1628100 0.9944305
vn 0.0000000 -1.0000000 0.0000000
vt 0.6928227 0.8347307
v -1.1508480 -1.0020680 1.1551800
vn 0.0000000 0.0000000 1.0000000
vt 0.7135708 0.8174950
v -1.3493730 -1.0020680 1.1551800
vn 0.0000000 0.0000000 1.0000000
vt 0.7135708 0.8347307
v -1.1508480 -1.0020680 1.1551800
vn 0.0000000 0.0000000 1.0000000
vt 0.6928227 0.8174950
v -1.1508480 -0.8884004 1.1080980
vn 0.0000000 0.7071067 0.7071068
vt 0.7031969 0.8174950
v -1.3493730 -0.8884004 1.1080980
vn 0.0000000 0.7071067 0.7071068
vt 0.7031969 0.8347307
v -1.3493730 -1.0020680 1.1551800
vn 0.0000000 0.0000000 1.0000000
vt 0.6928227 0.8347307
v -1.1508480 -0.8413177 0.9944305
vn 0.0000000 1.0000000 0.0000000
vt 0.7135708 0.8174950
v -1.3493730 -0.8413177 0.9944305
vn 0.0000000 1.0000000 0.0000000
vt 0.7135708 0.8347307
v -1.3493730 -1.1628100 0.9944305
vn -1.0000000 0.0000000 0.0000000
vt 0.6432622 0.9388792
v -1.3493730 -1.1157269 1.1080980
vn -1.0000000 0.0000000 0.0000000
vt 0.6336995 0.9430237
v -1.3493730 -1.0020680 1.1551800
vn -1.0000000 0.0000000 0.0000000
vt 0.6240913 0.9389920
v -1.3493730 -0.8884004 1.1080980
vn -1.0000000 0.0000000 0.0000000
vt 0.6200662 0.9291463
v -1.3493730 -0.8413177 0.9944305
vn -1.0000000 0.0000000 0.0000000
vt 0.6239818 0.9192536
v -1.3493730 -0.8884002 0.8807631
vn -1.0000000 0.0000000 0.0000000
vt 0.6335446 0.9151094
v -1.3493730 -1.0020680 0.8336806
vn -1.0000000 0.0000000 0.0000000
vt 0.6431525 0.9191409
v -1.3493730 -1.1157269 0.8807631
vn -1.0000000 0.0000000 0.0000000
vt 0.6471777 0.9289866

g group_66_106102878286336
f 1/1/1 2/2/2 3/3/3 
f 1/1/1 3/3/3 4/4/4 
f 2/2/2 5/5/5 6/6/6 
f 2/2/2 6/6/6 3/3/3 
f 7/7/7 8/8/8 9/9/9 
f 7/7/7 9/9/9 10/10/10 
f 8/8/8 11/11/11 12/12/12 
f 8/8/8 12/12/12 9/9/9 
f 13/13/13 14/14/14 15/15/15 
f 13/13/13 15/15/15 16/16/16 
f 14/14/14 17/17/17 18/18/18 
f 14/14/14 18/18/18 15/15/15 
f 19/19/19 20/20/20 21/21/21 
f 19/19/19 21/21/21 22/22/22 
f 20/20/20 23/23/23 24/24/24 
f 20/20/20 24/24/24 21/21/21 
f 25/25/25 26/26/26 27/27/27 
f 25/25/25 27/27/27 28/28/28 
f 25/25/25 28/28/28 29/29/29 
f 25/25/25 29/29/29 30/30/30 
f 25/25/25 30/30/30 31/31/31 
f 25/25/25 31/31/31 32/32/32 
