v -1.1439360 1.0683531 0.1356659
vn 0.0000000 0.8090184 -0.5877833
vt 0.7161118 0.7685480
v -1.3598020 1.0683500 0.1356659
vn 0.0000000 0.8090184 -0.5877833
vt 0.6980675 0.7685480
v -1.3598020 1.1202240 0.2953186
vn 0.0000000 1.0000000 0.0000000
vt 0.6980675 0.7538462
v -1.1439360 1.1202220 0.2953186
vn 0.0000000 1.0000000 0.0000000
vt 0.7161118 0.7538462
v -1.3598020 1.0683481 0.4549561
vn 0.0000000 0.8090024 0.5878054
vt 0.6980675 0.7391443
v -1.1439360 1.0683481 0.4549561
vn 0.0000000 0.8090024 0.5878054
vt 0.7161118 0.7391443
v -1.1439360 0.7646904 0.0370026
vn 0.0000000 -0.3090064 -0.9510600
vt 0.7161118 0.7685480
v -1.3598020 0.7646964 0.0370026
vn 0.0000000 -0.3090064 -0.9510600
vt 0.6980675 0.7685480
v -1.3598020 0.9325504 0.0370026
vn 0.0000000 0.3090124 -0.9510580
vt 0.6980675 0.7538462
v -1.1439360 0.9325500 0.0370026
vn 0.0000000 0.3090124 -0.9510580
vt 0.7161118 0.7538462
v -1.3598020 1.0683500 0.1356659
vn 0.0000000 0.8090184 -0.5877833
vt 0.6980675 0.7391443
v -1.1439360 1.0683531 0.1356659
vn 0.0000000 0.8090184 -0.5877833
vt 0.7161118 0.7391443
v -1.1439360 0.5770206 0.2953110
vn 0.0000000 -1.0000000 0.0000000
vt 0.7161118 0.7685480
v -1.3598020 0.5770206 0.2953110
vn 0.0000000 -1.0000000 0.0000000
vt 0.6980675 0.7685480
v -1.3598020 0.6288910 0.1356659
vn 0.0000000 -0.8090169 -0.5877855
vt 0.6980675 0.7538462
v -1.1439360 0.6288862 0.1356659
vn 0.0000000 -0.8090169 -0.5877855
vt 0.7161118 0.7538462
v -1.3598020 0.7646964 0.0370026
vn 0.0000000 -0.3090064 -0.9510600
vt 0.6980675 0.7391443
v -1.1439360 0.7646904 0.0370026
vn 0.0000000 -0.3090064 -0.9510600
vt 0.7161118 0.7391443
v -1.1439360 0.7646942 0.5536194
vn 0.0000000 -0.3090058 0.9510602
vt 0.7161118 0.7685480
v -1.3598020 0.7646980 0.5536194
vn 0.0000000 -0.3090058 0.9510602
vt 0.6980675 0.7685480
v -1.3598020 0.6288910 0.4549561
vn 0.0000000 -0.8090125 0.5877914
vt 0.6980675 0.7538462
v -1.1439360 0.6288910 0.4549561
vn 0.0000000 -0.8090125 0.5877914
vt 0.7161118 0.7538462
v -1.3598020 0.5770206 0.2953110
vn 0.0000000 -1.0000000 0.0000000
vt 0.6980675 0.7391443
v -1.1439360 0.5770206 0.2953110
vn 0.0000000 -1.0000000 0.0000000
vt 0.7161118 0.7391443
v -1.1439360 1.0683481 0.4549561
vn 0.0000000 0.8090024 0.5878054
vt 0.7161118 0.7685480
v -1.3598020 1.0683481 0.4549561
vn 0.0000000 0.8090024 0.5878054
vt 0.6980675 0.7685480
v -1.3598020 0.9325447 0.5536194
vn 0.0000000 0.3090090 0.9510592
vt 0.6980675 0.7538462
v -1.1439360 0.9325447 0.5536194
vn 0.0000000 0.3090090 0.9510592
vt 0.7161118 0.7538462
v -1.3598020 0.7646980 0.5536194
vn 0.0000000 -0.3090058 0.9510602
vt 0.6980675 0.7391443
v -1.1439360 0.7646942 0.5536194
vn 0.0000000 -0.3090058 0.9510602
vt 0.7161118 0.7391443
v -1.1439360 1.0683531 0.1356659
vn 1.0000000 0.0000000 0.0000000
vt 0.3796266 0.9083845
v -1.1439360 1.1202220 0.2953186
vn 1.0000000 0.0000000 0.0000000
vt 0.3930830 0.9038625
v -1.1439360 1.0683481 0.4549561
vn 1.0000000 0.0000000 0.0000000
vt 0.4065510 0.9083481
v -1.1439360 0.9325447 0.5536194
vn 1.0000000 0.0000000 0.0000000
vt 0.4148861 0.9201275
v -1.1439360 0.7646942 0.5536194
vn 1.0000000 0.0000000 0.0000000
vt 0.4149047 0.9347016
v -1.1439360 0.6288910 0.4549561
vn 1.0000000 0.0000000 0.0000000
vt 0.4065997 0.9465034
v -1.1439360 0.5770206 0.2953110
vn 1.0000000 0.0000000 0.0000000
vt 0.3931432 0.9510252
v -1.1439360 0.6288862 0.1356659
vn 1.0000000 0.0000000 0.0000000
vt 0.3796752 0.9465400
v -1.1439360 0.7646904 0.0370026
vn 1.0000000 0.0000000 0.0000000
vt 0.3713399 0.9347606
v -1.1439360 0.9325500 0.0370026
vn 1.0000000 0.0000000 0.0000000
vt 0.3713213 0.9201865
v -1.3598020 1.1202240 0.2953186
vn -1.0000000 0.0000000 0.0000000
vt 0.5013398 0.9028903
v -1.3598020 1.0683500 0.1356659
vn -1.0000000 0.0000000 0.0000000
vt 0.5147942 0.9074185
v -1.3598020 0.9325504 0.0370026
vn -1.0000000 0.0000000 0.0000000
vt 0.5230941 0.9192247
v -1.3598020 0.7646964 0.0370026
vn -1.0000000 0.0000000 0.0000000
vt 0.5230691 0.9337989
v -1.3598020 0.6288910 0.1356659
vn -1.0000000 0.0000000 0.0000000
vt 0.5147286 0.9455744
v -1.3598020 0.5770206 0.2953110
vn -1.0000000 0.0000000 0.0000000
vt 0.5012583 0.9500537
v -1.3598020 0.6288910 0.4549561
vn -1.0000000 0.0000000 0.0000000
vt 0.4878039 0.9455253
v -1.3598020 0.7646980 0.5536194
vn -1.0000000 0.0000000 0.0000000
vt 0.4795039 0.9337191
v -1.3598020 0.9325447 0.5536194
vn -1.0000000 0.0000000 0.0000000
vt 0.4795291 0.9191449
v -1.3598020 1.0683481 0.4549561
vn -1.0000000 0.0000000 0.0000000
vt 0.4878699 0.9073696

g group_82_106102878290432
f 1/1/1 2/2/2 3/3/3 
f 1/1/1 3/3/3 4/4/4 
f 4/4/4 3/3/3 5/5/5 
f 4/4/4 5/5/5 6/6/6 
f 7/7/7 8/8/8 9/9/9 
f 7/7/7 9/9/9 10/10/10 
f 10/10/10 9/9/9 11/11/11 
f 10/10/10 11/11/11 12/12/12 
f 13/13/13 14/14/14 15/15/15 
f 13/13/13 15/15/15 16/16/16 
f 16/16/16 15/15/15 17/17/17 
f 16/16/16 17/17/17 18/18/18 
f 19/19/19 20/20/20 21/21/21 
f 19/19/19 21/21/21 22/22/22 
f 22/22/22 21/21/21 23/23/23 
f 22/22/22 23/23/23 24/24/24 
f 25/25/25 26/26/26 27/27/27 
f 25/25/25 27/27/27 28/28/28 
f 28/28/28 27/27/27 29/29/29 
f 28/28/28 29/29/29 30/30/30 
f 31/31/31 32/32/32 33/33/33 
f 31/31/31 33/33/33 34/34/34 
f 31/31/31 34/34/34 35/35/35 
f 31/31/31 35/35/35 36/36/36 
f 31/31/31 36/36/36 37/37/37 
f 31/31/31 37/37/37 38/38/38 
f 31/31/31 38/38/38 39/39/39 
f 31/31/31 39/39/39 40/40/40 
f 41/41/41 42/42/42 43/43/43 
f 41/41/41 43/43/43 44/44/44 
f 41/41/41 44/44/44 45/45/45 
f 41/41/41 45/45/45 46/46/46 
f 41/41/41 46/46/46 47/47/47 
f 41/41/41 47/47/47 48/48/48 
f 41/41/41 48/48/48 49/49/49 
f 41/41/41 49/49/49 50/50/50 
