v 0.9015958 -1.9859320 0.4122703
vn -0.9397602 0.3158316 0.1307713
vt 0.8906907 0.9652534
v 0.8801408 -2.0360420 0.3791135
vn -0.9394769 0.3032266 0.1594893
vt 0.9888252 0.9604414
v 0.8835405 -2.0824230 0.7206921
vn -0.9310780 0.3601529 0.0581696
vt 0.9942906 0.4510141
v 0.8944408 -1.8252680 0.1708169
vn -0.9456045 0.1660895 0.2797256
vt 0.9888252 1.4298350
v 0.9158957 -1.7956940 0.2257849
vn -0.9483424 0.1626933 0.2723558
vt 0.8906907 1.4298350
v 0.9049957 -1.2755840 0.1186017
vn -0.9449562 0.0234107 0.3263583
vt 0.8906932 2.3024349
v 0.8835412 -1.2839200 0.0570790
vn -0.9435812 0.0247663 0.3302140
vt 0.9888252 2.2888350
v 0.9049957 1.6446850 0.1186014
vn -0.9442303 0.0000000 0.3292860
vt 0.8906919 6.3116999
v 0.8835400 1.6530210 0.0570786
vn -0.9442276 0.0000000 0.3292937
vt 0.9888240 6.3221898
v 0.9028458 -0.0935500 0.5992190
vn 0.9490567 -0.0587641 -0.3095773
vt 0.8906643 -2.4213820
v 0.9243010 -0.0798690 0.6613930
vn 0.9453175 -0.0921544 -0.3128617
vt 0.9888185 -2.4223790
v 0.9049957 -0.6318699 0.8259150
vn 0.9493076 -0.0306025 -0.3128555
vt 0.8906907 -1.6369090
v 0.9264510 -0.6330618 0.8899940
vn 0.9475989 -0.0318293 -0.3178729
vt 0.9888252 -1.6369090
v 0.9049957 -1.0738890 0.7358018
vn 0.9469696 0.0182543 -0.3208043
vt 0.8906907 -0.9884558
v 0.9264511 -1.0843281 0.7985412
vn 0.9463176 0.0183012 -0.3227200
vt 0.9888252 -0.9886886
v 0.9264511 -2.0824230 0.7206921
vn 0.9280455 0.3702002 0.0410293
vt 0.9916121 0.4522526
v 0.9230510 -2.0360420 0.3791135
vn 0.9445488 0.2613785 0.1987686
vt 0.9888252 0.9604414
v 0.9015958 -1.9859320 0.4122703
vn 0.9414945 0.2935650 0.1655531
vt 0.8906907 0.9652534
v 0.9373509 -1.8252690 0.1708169
vn 0.9455982 0.1415609 0.2929240
vt 0.9888252 1.4298350
v 0.9158957 -1.7956940 0.2257849
vn 0.9435495 0.1449071 0.2978529
vt 0.8906907 1.4298350
v 0.9264507 -1.2839200 0.0570790
vn 0.9448177 0.0429919 0.3247634
vt 0.9888252 2.2888350
v 0.9049957 -1.2755840 0.1186017
vn 0.9451548 0.0426763 0.3238229
vt 0.8906931 2.3024349
v 0.9049957 1.6446850 0.1186014
vn 0.9442290 0.0000000 0.3292896
vt 0.8906919 6.3116999
v 0.9264516 1.6530210 0.0570786
vn 0.9442268 0.0000000 0.3292959
vt 0.9888241 6.3221889
v 1.0309319 -1.2839210 0.0584603
vn 0.0000000 0.1392220 0.9902612
vt 0.4783379 2.3013921
v 1.0309319 1.6530210 0.0584603
vn 0.0000000 0.0000000 1.0000000
vt 0.4783352 6.3226242
v 0.7790598 -1.2839210 0.0584603
vn 0.0000000 0.0696110 0.9975742
vt 0.8645971 2.2994151
v 0.7790598 1.6530210 0.0584603
vn 0.0000000 0.0000000 1.0000000
vt 0.8645958 6.3235378
v 0.7899598 -1.8234490 0.1730862
vn 0.0000000 0.4702099 0.8825546
vt 0.8645971 1.4298350
v 1.0418320 -1.8234490 0.1730862
vn 0.0000000 0.4702100 0.8825546
vt 0.4783379 1.4298350
v 1.0309319 -2.0630641 0.5902219
vn 0.0000000 0.9910384 -0.1335777
vt 0.4783379 0.6473982
v 1.0275320 -2.0360420 0.3791135
vn 0.0000000 0.8941823 0.4477031
vt 0.4783379 0.9604414
v 0.7790598 -2.0630641 0.5902219
vn 0.0000000 0.9999976 -0.0022156
vt 0.8645970 0.6473982
v 0.7756598 -2.0360420 0.3791135
vn 0.0000000 0.8941823 0.4477031
vt 0.8645971 0.9604414
v 1.0309319 -2.0269301 0.7241623
vn 0.0000000 0.8193190 -0.5733379
vt 0.4783379 0.4511521
v 0.7790598 -2.0269301 0.7241623
vn 0.0000000 0.9071203 -0.4208714
vt 0.8645971 0.4511521
v 1.0309319 -1.9260520 0.8258347
vn 0.0000000 0.3945437 -0.9188772
vt 0.4783379 0.2302544
v 0.7790598 -1.9260520 0.8258347
vn 0.0000000 0.5654746 -0.8247657
vt 0.8645970 0.2302544
v 1.0309319 -1.7878660 0.8563387
vn 0.0000000 0.0675945 -0.9977129
vt 0.4783379 0.0145705
v 0.7790598 -1.7878660 0.8563387
vn 0.0000000 0.0675947 -0.9977129
vt 0.8645971 0.0145705
v 1.0309319 -1.0843281 0.7985412
vn 0.0000000 0.0096809 -0.9999532
vt 0.4783379 -0.9886886
v 0.7790598 -1.0843281 0.7985412
vn 0.0000000 0.1019348 -0.9947911
vt 0.8645971 -0.9886887
v 1.0309319 -0.6325233 0.8871959
vn 0.0000000 0.0012812 -0.9999992
vt 0.4783379 -1.6369090
v 0.7790598 -0.6325233 0.8871959
vn 0.0000000 -0.1975271 -0.9802974
vt 0.8645971 -1.6369090
v 1.0309319 1.6530210 0.0584603
vn 1.0000000 0.0000000 0.0000000
vt 0.4783352 6.3226242
v 1.0309319 -1.2839210 0.0584603
vn 0.9999782 0.0065523 -0.0008506
vt 0.4783379 2.3013921
v 1.0309310 1.6606990 0.0000000
vn 1.0000000 0.0000000 0.0000000
vt 0.4042890 6.3310990
v 1.0309330 -1.2915990 0.0000000
vn 0.9999157 0.0123871 -0.0039023
vt 0.4042921 2.2936239
v 1.0418320 -1.8234490 0.1730862
vn 0.9998924 -0.0076907 0.0124985
vt 0.4783379 1.4298350
v 1.0418320 -1.8513660 0.1198529
vn 0.9999184 -0.0113138 0.0059384
vt 0.4042921 1.4298350
v 1.0309319 -2.0630641 0.5902219
vn 0.9999656 -0.0011957 -0.0082062
vt 0.4783379 0.6473982
v 1.0309319 -2.1262901 0.5994820
vn 0.9999736 0.0014627 -0.0071170
vt 0.4042921 0.6473982
v 1.0275320 -2.0360420 0.3791135
vn 0.9999650 -0.0073178 0.0040643
vt 0.4783379 0.9604414
v 1.0275320 -2.0912161 0.3414022
vn 0.9996650 -0.0198975 0.0165549
vt 0.4042921 0.9604414
v 1.0309319 -2.0810211 0.7528172
vn 1.0000000 0.0000000 0.0000000
vt 0.4042921 0.4511521
v 1.0309319 -2.0269301 0.7241623
vn 1.0000000 0.0000000 0.0000000
vt 0.4783379 0.4511521
v 1.0309319 -1.9481879 0.8786967
vn 1.0000000 0.0000000 0.0000000
vt 0.4042921 0.2302544
v 1.0309319 -1.9260520 0.8258347
vn 1.0000000 0.0000000 0.0000000
vt 0.4783379 0.2302544
v 1.0309319 -1.7902310 0.9148466
vn 1.0000000 0.0000000 0.0000000
vt 0.4042921 0.0145705
v 1.0309319 -1.7878660 0.8563387
vn 1.0000000 0.0000000 0.0000000
vt 0.4783379 0.0145705
v 1.0309319 -1.0939430 0.8563284
vn 1.0000000 0.0000000 0.0000000
vt 0.4042921 -0.9889081
v 1.0309319 -1.0843281 0.7985412
vn 1.0000000 0.0000000 0.0000000
vt 0.4783379 -0.9886886
v 1.0309319 -0.6325233 0.8871959
vn 0.9999983 0.0018295 -0.0002453
vt 0.4783379 -1.6369090
v 1.0309319 -0.6294250 0.9462613
vn 0.9999983 0.0018743 0.0000000
vt 0.4042921 -1.6369090
v 0.7790598 -1.2839210 0.0584603
vn -0.9999509 -0.0098254 0.0012943
vt 0.4783380 2.3086560
v 0.7790598 1.6530210 0.0584603
vn -1.0000000 0.0000000 0.0000000
vt 0.4783379 6.3191791
v 0.7790596 -1.2915990 0.0000000
vn -0.9999526 -0.0092888 0.0029412
vt 0.4042922 2.2991691
v 0.7790600 1.6606990 0.0000000
vn -1.0000000 0.0000000 0.0000000
vt 0.4042925 6.3315959
v 0.7899598 -1.8234490 0.1730862
vn -0.9998925 0.0076924 -0.0124902
vt 0.4783380 1.4298350
v 0.7899599 -1.8513660 0.1198529
vn -0.9999184 0.0113151 -0.0059353
vt 0.4042922 1.4298350
v 0.7756599 -2.0912161 0.3414022
vn -0.9996650 0.0198974 -0.0165554
vt 0.4042922 0.9604414
v 0.7790595 -2.1262901 0.5994819
vn -0.9999737 -0.0014546 0.0071153
vt 0.4042922 0.6473982
v 0.7756598 -2.0360420 0.3791135
vn -0.9999650 0.0073206 -0.0040651
vt 0.4783380 0.9604414
v 0.7790598 -2.0630641 0.5902219
vn -0.9999656 0.0012068 0.0082055
vt 0.4783380 0.6473982
v 0.7790598 -2.0269301 0.7241623
vn -1.0000000 0.0000000 0.0000000
vt 0.4783380 0.4511521
v 0.7790594 -2.0810211 0.7528172
vn -1.0000000 0.0000000 0.0000000
vt 0.4042922 0.4511521
v 0.7790598 -1.9260520 0.8258347
vn -1.0000000 0.0000000 0.0000000
vt 0.4783380 0.2302544
v 0.7790598 -1.9481879 0.8786967
vn -1.0000000 0.0000000 0.0000000
vt 0.4042922 0.2302544
v 0.7790598 -1.7878660 0.8563387
vn -1.0000000 0.0000000 0.0000000
vt 0.4783380 0.0145705
v 0.7790598 -1.7902310 0.9148466
vn -1.0000000 0.0000000 0.0000000
vt 0.4042922 0.0145705
v 0.7790598 -1.0843281 0.7985412
vn -1.0000000 0.0000000 0.0000000
vt 0.4783380 -0.9886887
v 0.7790599 -1.0939430 0.8563284
vn -1.0000000 0.0000000 0.0000000
vt 0.4042922 -0.9889081
v 0.7790598 -0.6325233 0.8871959
vn -0.9999983 -0.0018301 0.0002460
vt 0.4783380 -1.6369090
v 0.7790598 -0.6294250 0.9462613
vn -0.9999983 -0.0018742 0.0000000
vt 0.4042922 -1.6369090
v 1.0309319 -1.0939430 0.8563284
vn 0.0000000 -0.0075902 0.9999712
vt 0.4042921 -0.9889081
v 1.0309319 -0.6294250 0.9462613
vn 0.0000000 -0.0006276 0.9999998
vt 0.4042921 -1.6369090
v 0.7790599 -1.0939430 0.8563284
vn 0.0000000 -0.0996369 0.9950239
vt 0.0194265 -0.9889081
v 0.7790598 -0.6294250 0.9462613
vn 0.0000000 0.1961090 0.9805821
vt 0.0194265 -1.6369090
v 1.0309319 -1.9481879 0.8786967
vn 0.0000000 -0.5501972 0.8350348
vt 0.4042921 0.2302544
v 1.0309319 -1.7902310 0.9148466
vn 0.0000000 -0.1221012 0.9925177
vt 0.4042921 0.0145705
v 0.7790598 -1.9481879 0.8786967
vn 0.0000000 -0.3902569 0.9207060
vt 0.0194265 0.2302544
v 0.7790598 -1.7902310 0.9148466
vn 0.0000000 -0.0187294 0.9998246
vt 0.0194265 0.0145705
v 1.0309319 -2.0810211 0.7528172
vn 0.0000000 -0.8959165 0.4442225
vt 0.4042921 0.4511521
v 0.7790594 -2.0810211 0.7528172
vn 0.0000000 -0.8026726 0.5964199
vt 0.0194265 0.4511521
v 1.0309319 -2.1262901 0.5994820
vn 0.0000000 -0.9971136 0.0759237
vt 0.4042921 0.6473982
v 0.7790595 -2.1262901 0.5994819
vn 0.0000000 -0.9971136 0.0759239
vt 0.0194265 0.6473982
v 1.0275320 -2.0912161 0.3414022
vn 0.0000000 -0.8869675 -0.4618318
vt 0.4042921 0.9604414
v 0.7756599 -2.0912161 0.3414022
vn 0.0000000 -0.8869674 -0.4618321
vt 0.0194265 0.9604414
v 1.0418320 -1.8513660 0.1198529
vn 0.0000000 -0.4603071 -0.8877598
vt 0.4042921 1.4298350
v 0.7899599 -1.8513660 0.1198529
vn 0.0000000 -0.4603072 -0.8877597
vt 0.0194265 1.4298350
v 1.0309330 -1.2915990 0.0000000
vn 0.0000000 -0.1052683 -0.9944439
vt 0.4042921 2.2936239
v 0.7790596 -1.2915990 0.0000000
vn 0.0000000 -0.1052684 -0.9944438
vt 0.0194264 2.2954650
v 1.0309310 1.6606990 0.0000000
vn 0.0000000 0.0000000 -1.0000000
vt 0.4042890 6.3310990
v 0.7790600 1.6606990 0.0000000
vn 0.0000000 0.0000000 -1.0000000
vt 0.0194288 6.3300948
v 1.0287820 -0.0804865 0.6594292
vn 0.9999984 -0.0017502 -0.0004178
vt 0.4785089 -2.4540291
v 1.0287820 -0.0678705 0.7167438
vn 0.9999996 0.0009473 0.0000000
vt 0.4044619 -2.4255481
v 0.7769098 -0.0804865 0.6594292
vn 0.0000000 -0.2288518 -0.9734613
vt 0.8646495 -2.4536459
v 1.0287820 -0.0804865 0.6594292
vn 0.0000000 -0.2288516 -0.9734613
vt 0.4785089 -2.4540291
v 0.7769098 -0.0804865 0.6594292
vn -0.9999984 0.0017495 0.0004161
vt 0.4785293 -2.4544220
v 0.7769098 -0.0678706 0.7167436
vn -0.9999996 -0.0009476 0.0000000
vt 0.4044934 -2.4251480
v 1.0287820 -0.0678705 0.7167438
vn 0.0000000 0.2244667 0.9744818
vt 0.4044619 -2.4255481
v 0.7769098 -0.0678706 0.7167436
vn 0.0000000 0.2244667 0.9744818
vt 0.0194774 -2.4259601
v 0.9704321 0.8592081 0.5097882
vn 0.9484356 -0.1564016 -0.2756963
vt 0.8904505 -3.7053070
v 0.9902219 0.8391371 0.5705717
vn 0.9240761 -0.1560872 -0.3488843
vt 0.9887636 -3.7191601
v 0.9049957 0.4484733 0.5576871
vn 0.9306253 -0.1349276 -0.3401928
vt 0.8905413 -3.1603842
v 0.9264510 0.4256572 0.6261356
vn 0.9414611 -0.0810268 -0.3272395
vt 0.9887885 -3.1326036
v 1.0808790 0.8176960 0.5291808
vn 0.9861185 -0.1654506 -0.0140134
vt 0.4799008 -3.7770791
v 1.0794500 0.8012653 0.5840223
vn 0.9887092 -0.1471296 -0.0284087
vt 0.4058487 -3.7502728
v 1.0309319 0.4264898 0.6236380
vn 0.9958245 -0.0891543 -0.0196262
vt 0.4792727 -3.1877432
v 1.0309319 0.4056966 0.6860175
vn 0.9987677 -0.0473257 -0.0149497
vt 0.4051881 -3.1192913
v 0.8434480 0.8526308 0.5916808
vn -0.9889212 0.1473030 0.0183509
vt 0.4800870 -3.7806711
v 0.7790598 0.4264897 0.6236380
vn -0.9945425 0.1016357 0.0235674
vt 0.4793842 -3.1898918
v 0.8420182 0.8362001 0.6465222
vn -0.9888784 0.1473278 0.0203460
vt 0.4061363 -3.7466011
v 0.7790598 0.4056966 0.6860173
vn -0.9984678 0.0527393 0.0167518
vt 0.4053538 -3.1171770
v 1.0794500 0.8012653 0.5840223
vn 0.2563767 0.0133579 0.9664847
vt 0.4058487 -3.7502728
v 0.8420182 0.8362001 0.6465222
vn 0.2121294 -0.0452203 0.9761948
vt 0.0198930 -3.7540431
v 1.0309319 0.4056966 0.6860175
vn 0.0935172 0.1226486 0.9880344
vt 0.4051881 -3.1192913
v 0.7790598 0.4056966 0.6860173
vn 0.0000000 0.0736229 0.9972861
vt 0.0196950 -3.1214609
v 0.7790598 0.4264897 0.6236380
vn 0.0000000 -0.0718756 -0.9974136
vt 0.8648843 -3.1856499
v 0.8434480 0.8526308 0.5916808
vn -0.2117834 0.0515007 -0.9759588
vt 0.8650774 -3.7735777
v 1.0309319 0.4264898 0.6236380
vn -0.0930264 -0.1136300 -0.9891584
vt 0.4792727 -3.1877432
v 1.0808790 0.8176960 0.5291808
vn -0.2556850 -0.0082238 -0.9667252
vt 0.4799008 -3.7770791
v 0.9049957 -1.7851480 0.7953442
vn 0.9435266 -0.0273796 -0.3301636
vt 0.8906907 0.0145705
v 0.9264509 -1.7878660 0.8563387
vn 0.9426060 -0.0273395 -0.3327862
vt 0.9888252 0.0145705
v 1.0271920 1.1278710 0.5501013
vn 0.9742212 -0.1868552 -0.1264054
vt 0.8903788 -4.1360888
v 1.0330590 1.1144770 0.6151162
vn 0.9624347 -0.1401743 -0.2325310
vt 0.9887459 -4.1384368
v 1.1359720 1.1056269 0.5690506
vn 0.9822103 -0.1877811 -0.0011169
vt 0.4803514 -4.1580749
v 1.1344740 1.0974460 0.6272721
vn 0.9829628 -0.1832321 -0.0145023
vt 0.4062830 -4.1651721
v 0.8867209 1.1428100 0.7304060
vn -0.9893297 0.1456085 -0.0049949
vt 0.4066509 -4.1604748
v 0.8882189 1.1509920 0.6721846
vn -0.9894539 0.1447179 0.0061481
vt 0.4805914 -4.1627040
v 0.8867209 1.1428100 0.7304060
vn 0.3211705 -0.2931867 0.9004949
vt 0.0200232 -4.1699920
v 1.1344740 1.0974460 0.6272721
vn 0.2740632 -0.2381473 0.9317592
vt 0.4062830 -4.1651721
v 0.8882189 1.1509920 0.6721846
vn -0.3216798 0.2913535 -0.9009081
vt 0.8652159 -4.1535659
v 1.1359720 1.1056269 0.5690506
vn -0.2748720 0.2344097 -0.9324685
vt 0.4803514 -4.1580749
v 1.1359720 1.1056269 0.5690506
vn 0.2348663 0.9617194 0.1411866
vt 0.4877924 0.5279345
v 0.8882189 1.1509920 0.6721846
vn 0.2348669 0.9617198 0.1411831
vt 0.8697294 0.5279331
v 1.1344740 1.0974460 0.6272721
vn 0.2348669 0.9617198 0.1411831
vt 0.4877923 0.6167901
v 0.8867209 1.1428100 0.7304060
vn 0.2348675 0.9617202 0.1411795
vt 0.8697295 0.6167915
v 0.7790598 1.6530210 0.0584603
vn 0.0000000 0.9914851 0.1302208
vt 0.8713753 0.6165222
v 1.0309319 1.6530210 0.0584603
vn 0.0000000 0.9914855 0.1302173
vt 0.4861450 0.6165222
v 0.7790600 1.6606990 0.0000000
vn 0.0000000 0.9914855 0.1302173
vt 0.8713752 0.5282010
v 1.0309310 1.6606990 0.0000000
vn 0.0000000 0.9914860 0.1302138
vt 0.4861465 0.5282010

g group_6_140627937673584
f 1/1/1 2/2/2 3/3/3 
f 4/4/4 2/2/2 5/5/5 
f 5/5/5 2/2/2 1/1/1 
f 6/6/6 7/7/7 5/5/5 
f 5/5/5 7/7/7 4/4/4 
f 6/6/6 8/8/8 7/7/7 
f 7/7/7 8/8/8 9/9/9 
f 10/10/10 11/11/11 12/12/12 
f 12/12/12 11/11/11 13/13/13 
f 14/14/14 12/12/12 15/15/15 
f 15/15/15 12/12/12 13/13/13 
f 16/16/16 17/17/17 18/18/18 
f 19/19/19 20/20/20 17/17/17 
f 17/17/17 20/20/20 18/18/18 
f 19/19/19 21/21/21 20/20/20 
f 20/20/20 21/21/21 22/22/22 
f 22/22/22 21/21/21 23/23/23 
f 23/23/23 21/21/21 24/24/24 
f 25/25/25 26/26/26 27/27/27 
f 27/27/27 26/26/26 28/28/28 
f 27/27/27 29/29/29 25/25/25 
f 25/25/25 29/29/29 30/30/30 
f 31/31/31 32/32/32 33/33/33 
f 33/33/33 32/32/32 34/34/34 
f 35/35/35 31/31/31 36/36/36 
f 36/36/36 31/31/31 33/33/33 
f 37/37/37 35/35/35 38/38/38 
f 38/38/38 35/35/35 36/36/36 
f 39/39/39 37/37/37 40/40/40 
f 40/40/40 37/37/37 38/38/38 
f 39/39/39 40/40/40 41/41/41 
f 41/41/41 40/40/40 42/42/42 
f 41/41/41 42/42/42 43/43/43 
f 43/43/43 42/42/42 44/44/44 
f 45/45/45 46/46/46 47/47/47 
f 47/47/47 46/46/46 48/48/48 
f 46/46/46 49/49/49 48/48/48 
f 48/48/48 49/49/49 50/50/50 
f 51/51/51 52/52/52 53/53/53 
f 53/53/53 52/52/52 54/54/54 
f 55/55/55 52/52/52 56/56/56 
f 56/56/56 52/52/52 51/51/51 
f 57/57/57 55/55/55 58/58/58 
f 58/58/58 55/55/55 56/56/56 
f 59/59/59 57/57/57 60/60/60 
f 60/60/60 57/57/57 58/58/58 
f 59/59/59 60/60/60 61/61/61 
f 61/61/61 60/60/60 62/62/62 
f 62/62/62 63/63/63 61/61/61 
f 61/61/61 63/63/63 64/64/64 
f 65/65/65 66/66/66 67/67/67 
f 67/67/67 66/66/66 68/68/68 
f 65/65/65 67/67/67 69/69/69 
f 69/69/69 67/67/67 70/70/70 
f 71/71/71 72/72/72 73/73/73 
f 73/73/73 72/72/72 74/74/74 
f 74/74/74 72/72/72 75/75/75 
f 75/75/75 72/72/72 76/76/76 
f 75/75/75 76/76/76 77/77/77 
f 77/77/77 76/76/76 78/78/78 
f 77/77/77 78/78/78 79/79/79 
f 79/79/79 78/78/78 80/80/80 
f 81/81/81 79/79/79 82/82/82 
f 82/82/82 79/79/79 80/80/80 
f 81/81/81 82/82/82 83/83/83 
f 83/83/83 82/82/82 84/84/84 
f 85/85/85 86/86/86 87/87/87 
f 87/87/87 86/86/86 88/88/88 
f 89/89/89 90/90/90 91/91/91 
f 91/91/91 90/90/90 92/92/92 
f 93/93/93 89/89/89 94/94/94 
f 94/94/94 89/89/89 91/91/91 
f 95/95/95 93/93/93 96/96/96 
f 96/96/96 93/93/93 94/94/94 
f 95/95/95 96/96/96 97/97/97 
f 97/97/97 96/96/96 98/98/98 
f 99/99/99 100/100/100 101/101/101 
f 101/101/101 100/100/100 102/102/102 
f 103/103/103 101/101/101 104/104/104 
f 104/104/104 101/101/101 102/102/102 
f 70/70/70 71/71/71 69/69/69 
f 69/69/69 71/71/71 73/73/73 
f 30/30/30 29/29/29 32/32/32 
f 32/32/32 29/29/29 34/34/34 
f 53/53/53 54/54/54 49/49/49 
f 49/49/49 54/54/54 50/50/50 
f 98/98/98 100/100/100 97/97/97 
f 97/97/97 100/100/100 99/99/99 
f 105/105/105 106/106/106 63/63/63 
f 63/63/63 106/106/106 64/64/64 
f 107/107/107 108/108/108 44/44/44 
f 44/44/44 108/108/108 43/43/43 
f 109/109/109 83/83/83 110/110/110 
f 110/110/110 83/83/83 84/84/84 
f 86/86/86 111/111/111 88/88/88 
f 88/88/88 111/111/111 112/112/112 
f 113/113/113 114/114/114 115/115/115 
f 115/115/115 114/114/114 116/116/116 
f 117/117/117 118/118/118 119/119/119 
f 119/119/119 118/118/118 120/120/120 
f 121/121/121 122/122/122 123/123/123 
f 123/123/123 122/122/122 124/124/124 
f 125/125/125 126/126/126 127/127/127 
f 127/127/127 126/126/126 128/128/128 
f 129/129/129 130/130/130 131/131/131 
f 131/131/131 130/130/130 132/132/132 
f 115/115/115 116/116/116 10/10/10 
f 10/10/10 116/116/116 11/11/11 
f 119/119/119 120/120/120 105/105/105 
f 105/105/105 120/120/120 106/106/106 
f 122/122/122 109/109/109 124/124/124 
f 124/124/124 109/109/109 110/110/110 
f 127/127/127 128/128/128 111/111/111 
f 111/111/111 128/128/128 112/112/112 
f 107/107/107 129/129/129 108/108/108 
f 108/108/108 129/129/129 131/131/131 
f 14/14/14 15/15/15 133/133/133 
f 133/133/133 15/15/15 134/134/134 
f 90/90/90 85/85/85 92/92/92 
f 92/92/92 85/85/85 87/87/87 
f 135/135/135 136/136/136 113/113/113 
f 113/113/113 136/136/136 114/114/114 
f 137/137/137 138/138/138 117/117/117 
f 117/117/117 138/138/138 118/118/118 
f 139/139/139 140/140/140 123/123/123 
f 123/123/123 140/140/140 121/121/121 
f 141/141/141 126/126/126 142/142/142 
f 142/142/142 126/126/126 125/125/125 
f 143/143/143 144/144/144 130/130/130 
f 130/130/130 144/144/144 132/132/132 
f 145/145/145 146/146/146 147/147/147 
f 147/147/147 146/146/146 148/148/148 
f 149/149/149 150/150/150 151/151/151 
f 151/151/151 150/150/150 152/152/152 
