v -0.9967609 -1.7872601 0.5851625
vn -1.0000000 0.0000000 0.0000000
vt 0.4177163 0.2155170
v -0.9449527 -2.0611579 0.5851625
vn -0.9825770 -0.1858560 0.0000000
vt 0.4172986 0.1773372
v -0.9469102 -1.9765960 0.7744980
vn -0.9831071 -0.1294223 0.1294227
vt 0.3909546 0.1895152
v -0.9469103 -1.5979249 0.7744980
vn -0.9831071 0.1294224 0.1294223
vt 0.3916927 0.2424846
v -0.9449526 -1.5133630 0.5851625
vn -0.9825769 0.1858565 0.0000000
vt 0.4183549 0.2539499
v -0.9449527 -1.7872601 0.3112649
vn -0.9825770 0.0000000 -0.1858560
vt 0.4561516 0.2151275
v -0.9469102 -1.5979249 0.3958269
vn -0.9831072 0.1294225 -0.1294224
vt 0.4446775 0.2417568
v -0.9469102 -1.9765960 0.3958269
vn -0.9831072 -0.1294222 -0.1294223
vt 0.4439547 0.1888065
v -0.9449526 -1.7872601 0.8590601
vn -0.9825770 0.0000000 0.1858561
vt 0.3794911 0.2161672
v -0.9976164 -1.8638980 0.6294096
vn 0.0572412 -0.8646052 0.4991806
vt 0.6710365 0.1560758
v -0.9976164 -1.8638980 0.5409154
vn 0.0572412 -0.8646051 -0.4991807
vt 0.6710365 0.1423443
v 0.5458343 -1.7872601 0.5851626
vn 1.0000000 0.0000000 0.0000000
vt 0.4275246 0.1487136
v -0.9976164 -1.7872601 0.6736568
vn 0.0572412 0.0000000 0.9983604
vt 0.6710365 0.1699182
v -0.9976164 -1.7106220 0.6294097
vn 0.0572413 0.8646058 0.4991795
vt 0.6710365 0.1560758
v -0.9976164 -1.7106220 0.5409155
vn 0.0572413 0.8646059 -0.4991794
vt 0.6710365 0.1423443
v -0.9976164 -1.7872601 0.4966683
vn 0.0572413 0.0000000 -0.9983604
vt 0.6710365 0.1286315
v -0.9976164 -1.7106220 0.6294097
vn -1.0000000 0.0000000 0.0000000
vt 0.5118957 0.2788576
v -0.9976164 -1.7106220 0.5409155
vn -1.0000000 0.0000000 0.0000000
vt 0.5235190 0.2788598
v -0.9976164 -1.7872601 0.6736568
vn -1.0000000 0.0000000 0.0000000
vt 0.5060823 0.2688003
v -0.9976164 -1.7872601 0.4966683
vn -1.0000000 0.0000000 0.0000000
vt 0.5293386 0.2688002
v -0.9976164 -1.8638980 0.5409154
vn -1.0000000 0.0000000 0.0000000
vt 0.5235291 0.2587232
v -0.9976164 -1.8638980 0.6294096
vn -1.0000000 0.0000000 0.0000000
vt 0.5118905 0.2587343
v -0.8105325 -1.5454270 0.7249211
vn 0.0000000 0.8664442 0.4992739
vt 0.6282397 0.3270267
v -1.0023060 -1.5454270 0.7249211
vn 0.0000000 0.8664440 0.4992744
vt 0.6282396 0.2929183
v -0.8105325 -1.6476020 0.8272668
vn 0.0000000 0.5007254 0.8656062
vt 0.6111417 0.3270267
v -1.0023060 -1.6476020 0.8272668
vn 0.0000000 0.5007256 0.8656061
vt 0.6111416 0.2929183
v -0.8105325 -1.5081151 0.5852000
vn 0.0000000 0.9999996 -0.0008399
vt 0.5769407 0.3270267
v -1.0023060 -1.5081151 0.5852000
vn 0.0000000 0.9999996 -0.0008383
vt 0.5769401 0.2929183
v -0.8105325 -1.5454270 0.7249211
vn 0.0000000 0.8664442 0.4992739
vt 0.5598403 0.3270267
v -1.0023060 -1.5454270 0.7249211
vn 0.0000000 0.8664440 0.4992744
vt 0.5598397 0.2929183
v -0.8105325 -1.5456620 0.4455415
vn 0.0000000 0.8656056 -0.5007264
vt 0.5940409 0.3270267
v -1.0023060 -1.5456620 0.4455415
vn 0.0000000 0.8656060 -0.5007258
vt 0.5940405 0.2929183
v -0.8105325 -1.6480070 0.3433673
vn 0.0000000 0.4992737 -0.8664443
vt 0.6111416 0.3270267
v -1.0023060 -1.6480070 0.3433673
vn 0.0000000 0.4992738 -0.8664443
vt 0.6111417 0.2929183
v -0.8105325 -1.7877290 0.3060546
vn 0.0000000 -0.0008381 -0.9999996
vt 0.6282412 0.3270267
v -1.0023060 -1.7877290 0.3060546
vn 0.0000000 -0.0008382 -0.9999996
vt 0.6282415 0.2929183
v -0.8105325 -1.7877290 0.3060546
vn 0.0000000 -0.0008381 -0.9999996
vt 0.5598391 0.3270267
v -0.8105325 -1.9273870 0.3436015
vn 0.0000000 -0.5007256 -0.8656061
vt 0.5769395 0.3270267
v -1.0023060 -1.7877290 0.3060546
vn 0.0000000 -0.0008382 -0.9999996
vt 0.5598390 0.2929183
v -1.0023060 -1.9273870 0.3436015
vn 0.0000000 -0.5007257 -0.8656060
vt 0.5769393 0.2929183
v -0.8105325 -2.0295610 0.4459472
vn 0.0000000 -0.8664444 -0.4992736
vt 0.5940399 0.3270267
v -1.0023060 -2.0295610 0.4459472
vn 0.0000000 -0.8664450 -0.4992726
vt 0.5940396 0.2929183
v -0.8105325 -2.0668740 0.5856683
vn 0.0000000 -0.9999996 0.0008386
vt 0.6111420 0.3270267
v -1.0023060 -2.0668740 0.5856683
vn 0.0000000 -0.9999996 0.0008381
vt 0.6111415 0.2929183
v -0.8105325 -2.0293269 0.7253268
vn 0.0000000 -0.8656057 0.5007263
vt 0.6282409 0.3270267
v -1.0023060 -2.0293269 0.7253268
vn 0.0000000 -0.8656058 0.5007262
vt 0.6282402 0.2929183
v -0.8105325 -1.9269810 0.8275010
vn 0.0000000 -0.4992740 0.8664442
vt 0.5769386 0.3270267
v -1.0023060 -1.9269810 0.8275010
vn 0.0000000 -0.4992736 0.8664444
vt 0.5769382 0.2929183
v -0.8105325 -2.0293269 0.7253268
vn 0.0000000 -0.8656057 0.5007263
vt 0.5598382 0.3270267
v -1.0023060 -2.0293269 0.7253268
vn 0.0000000 -0.8656058 0.5007262
vt 0.5598379 0.2929183
v -0.8105325 -1.7872601 0.8648137
vn 0.0000000 0.0008382 0.9999996
vt 0.5940388 0.3270267
v -1.0023060 -1.7872601 0.8648137
vn 0.0000000 0.0008383 0.9999996
vt 0.5940388 0.2929183
v -0.8105325 -1.5456620 0.4455415
vn 1.0000000 0.0000000 0.0000000
vt 0.4437802 0.4180012
v -0.8105325 -1.5081151 0.5852000
vn 1.0000000 0.0000000 0.0000000
vt 0.4385633 0.4375441
v -0.8105325 -1.6480070 0.3433673
vn 1.0000000 0.0000000 0.0000000
vt 0.4580809 0.4036682
v -0.8105325 -1.5454270 0.7249211
vn 1.0000000 0.0000000 0.0000000
vt 0.4438050 0.4570674
v -0.8105325 -1.6476020 0.8272668
vn 1.0000000 0.0000000 0.0000000
vt 0.4581054 0.4713639
v -0.8105325 -1.7872601 0.8648137
vn 1.0000000 0.0000000 0.0000000
vt 0.4776547 0.4766164
v -0.8105325 -1.9269810 0.8275010
vn 1.0000000 0.0000000 0.0000000
vt 0.4972425 0.4714122
v -0.8105325 -2.0293269 0.7253268
vn 1.0000000 0.0000000 0.0000000
vt 0.5116146 0.4571158
v -0.8105325 -2.0668740 0.5856683
vn 1.0000000 0.0000000 0.0000000
vt 0.5168951 0.4375442
v -0.8105325 -2.0295610 0.4459472
vn 1.0000000 0.0000000 0.0000000
vt 0.5116394 0.4179531
v -0.8105325 -1.9273870 0.3436015
vn 1.0000000 0.0000000 0.0000000
vt 0.4972671 0.4036202
v -0.8105325 -1.7877290 0.3060546
vn 1.0000000 0.0000000 0.0000000
vt 0.4776547 0.3983964
v -1.0023060 -1.5454270 0.7249211
vn -1.0000000 0.0000000 0.0000000
vt 0.5119811 0.4573277
v -1.0023060 -1.5716400 0.7098168
vn -1.0000000 0.0000000 0.0000000
vt 0.5082712 0.4551781
v -1.0023060 -1.6476020 0.8272668
vn -1.0000000 0.0000000 0.0000000
vt 0.4974540 0.4717793
v -1.0023060 -1.6627500 0.8010802
vn -1.0000000 0.0000000 0.0000000
vt 0.4953178 0.4680649
v -1.0023060 -1.5081151 0.5852000
vn -1.0000000 0.0000000 0.0000000
vt 0.5173188 0.4375445
v -1.0023060 -1.5383670 0.5852253
vn -1.0000000 0.0000000 0.0000000
vt 0.5130287 0.4375418
v -1.0023060 -1.5456620 0.4455415
vn -1.0000000 0.0000000 0.0000000
vt 0.5120060 0.4177410
v -1.0023060 -1.5718490 0.4606897
vn -1.0000000 0.0000000 0.0000000
vt 0.5082899 0.4198877
v -1.0023060 -1.6480070 0.3433673
vn -1.0000000 0.0000000 0.0000000
vt 0.4974790 0.4032531
v -1.0023060 -1.6631120 0.3695793
vn -1.0000000 0.0000000 0.0000000
vt 0.4953368 0.4069701
v -1.0023060 -1.7877290 0.3060546
vn -1.0000000 0.0000000 0.0000000
vt 0.4776543 0.3979724
v -1.0023060 -1.7877030 0.3363071
vn -1.0000000 0.0000000 0.0000000
vt 0.4776596 0.4022586
v -1.0023060 -1.9273870 0.3436015
vn -1.0000000 0.0000000 0.0000000
vt 0.4578689 0.4033021
v -1.0023060 -1.9122380 0.3697882
vn -1.0000000 0.0000000 0.0000000
vt 0.4600166 0.4070068
v -1.0023060 -2.0295610 0.4459472
vn -1.0000000 0.0000000 0.0000000
vt 0.4434140 0.4177901
v -1.0023060 -2.0033491 0.4610515
vn -1.0000000 0.0000000 0.0000000
vt 0.4471248 0.4199247
v -1.0023060 -2.0668740 0.5856683
vn -1.0000000 0.0000000 0.0000000
vt 0.4381407 0.4375442
v -1.0023060 -2.0366211 0.5856430
vn -1.0000000 0.0000000 0.0000000
vt 0.4424198 0.4375418
v -1.0023060 -2.0293269 0.7253268
vn -1.0000000 0.0000000 0.0000000
vt 0.4434388 0.4572786
v -1.0023060 -2.0031400 0.7101785
vn -1.0000000 0.0000000 0.0000000
vt 0.4471433 0.4551412
v -1.0023060 -1.9269810 0.8275010
vn -1.0000000 0.0000000 0.0000000
vt 0.4578940 0.4717301
v -1.0023060 -1.9118770 0.8012890
vn -1.0000000 0.0000000 0.0000000
vt 0.4600352 0.4680280
v -1.0023060 -1.7872601 0.8648137
vn -1.0000000 0.0000000 0.0000000
vt 0.4776543 0.4770396
v -1.0023060 -1.7872850 0.8345612
vn -1.0000000 0.0000000 0.0000000
vt 0.4776596 0.4727593
v -1.0023060 -1.5716400 0.7098168
vn -0.0862822 -0.8691667 -0.4869339
vt 0.1323587 0.3032850
v -0.8140259 -1.6230280 0.7496252
vn -0.1469953 -0.7000132 -0.6988376
vt 0.1404370 0.3283903
v -1.0023060 -1.6627500 0.8010802
vn -0.0862810 -0.4883922 -0.8683483
vt 0.1485153 0.3032850
v -1.0023060 -1.5383670 0.5852253
vn -0.0452752 -0.9989742 0.0008392
vt 0.1162018 0.3032850
v -0.8140259 -1.5469000 0.5852325
vn -0.1330465 -0.9911094 0.0008322
vt 0.1162018 0.3283903
v -0.8140259 -1.6233040 0.4209675
vn -0.1469960 -0.6988392 0.7000114
vt 0.0919672 0.3283903
v -1.0023060 -1.5718490 0.4606897
vn -0.0862823 -0.8683491 0.4883904
vt 0.1000455 0.3032850
v -1.0023060 -1.6631120 0.3695793
vn -0.0862820 -0.4869351 0.8691660
vt 0.0838890 0.3032850
v -1.0023060 -1.7877030 0.3363071
vn -0.0452736 0.0008374 0.9989743
vt 0.0672886 0.3032850
v -0.8140259 -1.7876960 0.3448399
vn -0.1330457 0.0008313 0.9911095
vt 0.0672886 0.3283903
v -0.8140259 -1.9519600 0.4212431
vn -0.1469954 0.7000126 0.6988381
vt 0.0919672 0.3283903
v -1.0023060 -1.9122380 0.3697882
vn -0.0862811 0.4883925 0.8683481
vt 0.0838890 0.3032850
v -1.0023060 -2.0033491 0.4610515
vn -0.0862821 0.8691663 0.4869346
vt 0.1000455 0.3032850
v -1.0023060 -2.0366211 0.5856430
vn -0.0452751 0.9989742 -0.0008371
vt 0.1162018 0.3032850
v -0.8140259 -2.0280881 0.5856358
vn -0.1330469 0.9911094 -0.0008317
vt 0.1162018 0.3283903
v -0.8140259 -1.9516850 0.7499008
vn -0.1469966 0.6988388 -0.7000117
vt 0.1404370 0.3283903
v -1.0023060 -2.0031400 0.7101785
vn -0.0862828 0.8683483 -0.4883918
vt 0.1323587 0.3032850
v -1.0023060 -1.9118770 0.8012890
vn -0.0862821 0.4869348 -0.8691663
vt 0.1485153 0.3032850
v -1.0023060 -1.7872850 0.8345612
vn -0.0452738 -0.0008370 -0.9989743
vt 0.1646730 0.3032850
v -0.8140259 -1.7872920 0.8260284
vn -0.1330458 -0.0008315 -0.9911095
vt 0.1646730 0.3283903
v 0.5458343 -1.7872601 0.5851626
vn 1.0000000 0.0000000 0.0000000
vt 0.4275246 0.1487136
v 0.5458343 -1.7872601 0.5851626
vn 1.0000000 0.0000000 0.0000000
vt 0.4275246 0.1487136
v -0.9976164 -1.7872601 0.6736568
vn 0.0572412 0.0000000 0.9983604
vt 0.6710365 0.1699182
v -0.9976164 -1.7872601 0.4966683
vn 0.0572413 0.0000000 -0.9983604
vt 0.6710365 0.1286315
v -1.0023060 -1.7877030 0.3363071
vn -0.0452736 0.0008374 0.9989743
vt 0.0672886 0.3032850
v -0.8140259 -1.7876960 0.3448399
vn -0.1330457 0.0008313 0.9911095
vt 0.0672886 0.3283903
v -1.0023060 -1.7872850 0.8345612
vn -0.0452738 -0.0008370 -0.9989743
vt 0.1646730 0.3032850
v -0.8140259 -1.7872920 0.8260284
vn -0.1330458 -0.0008315 -0.9911095
vt 0.1646730 0.3283903

g group_2_140627915492720
f 1/1/1 2/2/2 3/3/3 
f 4/4/4 5/5/5 1/1/1 
f 6/6/6 1/1/1 7/7/7 
f 1/1/1 6/6/6 8/8/8 
f 4/4/4 1/1/1 9/9/9 
f 1/1/1 8/8/8 2/2/2 
f 1/1/1 5/5/5 7/7/7 
f 1/1/1 3/3/3 9/9/9 
f 10/10/10 11/11/11 12/12/12 
f 10/10/10 12/12/12 13/13/13 
f 14/14/14 111/111/111 109/109/109 
f 15/15/15 14/14/14 110/110/110 
f 16/16/16 15/15/15 12/12/12 
f 11/11/11 112/112/112 110/110/110 
f 17/17/17 18/18/18 19/19/19 
f 18/18/18 20/20/20 19/19/19 
f 20/20/20 21/21/21 19/19/19 
f 21/21/21 22/22/22 19/19/19 
f 23/23/23 24/24/24 25/25/25 
f 25/25/25 24/24/24 26/26/26 
f 27/27/27 28/28/28 29/29/29 
f 29/29/29 28/28/28 30/30/30 
f 31/31/31 32/32/32 27/27/27 
f 27/27/27 32/32/32 28/28/28 
f 33/33/33 34/34/34 31/31/31 
f 31/31/31 34/34/34 32/32/32 
f 35/35/35 36/36/36 33/33/33 
f 33/33/33 36/36/36 34/34/34 
f 37/37/37 38/38/38 39/39/39 
f 39/39/39 38/38/38 40/40/40 
f 41/41/41 42/42/42 38/38/38 
f 38/38/38 42/42/42 40/40/40 
f 43/43/43 44/44/44 41/41/41 
f 41/41/41 44/44/44 42/42/42 
f 45/45/45 46/46/46 43/43/43 
f 43/43/43 46/46/46 44/44/44 
f 47/47/47 48/48/48 49/49/49 
f 49/49/49 48/48/48 50/50/50 
f 51/51/51 52/52/52 47/47/47 
f 47/47/47 52/52/52 48/48/48 
f 51/51/51 25/25/25 52/52/52 
f 52/52/52 25/25/25 26/26/26 
f 53/53/53 54/54/54 55/55/55 
f 54/54/54 56/56/56 55/55/55 
f 56/56/56 57/57/57 55/55/55 
f 57/57/57 58/58/58 55/55/55 
f 58/58/58 59/59/59 55/55/55 
f 59/59/59 60/60/60 55/55/55 
f 60/60/60 61/61/61 55/55/55 
f 61/61/61 62/62/62 55/55/55 
f 62/62/62 63/63/63 55/55/55 
f 63/63/63 64/64/64 55/55/55 
f 65/65/65 66/66/66 67/67/67 
f 67/67/67 66/66/66 68/68/68 
f 69/69/69 70/70/70 65/65/65 
f 65/65/65 70/70/70 66/66/66 
f 71/71/71 72/72/72 69/69/69 
f 69/69/69 72/72/72 70/70/70 
f 73/73/73 74/74/74 71/71/71 
f 71/71/71 74/74/74 72/72/72 
f 75/75/75 76/76/76 73/73/73 
f 73/73/73 76/76/76 74/74/74 
f 77/77/77 78/78/78 75/75/75 
f 75/75/75 78/78/78 76/76/76 
f 79/79/79 80/80/80 77/77/77 
f 77/77/77 80/80/80 78/78/78 
f 81/81/81 82/82/82 79/79/79 
f 79/79/79 82/82/82 80/80/80 
f 83/83/83 84/84/84 81/81/81 
f 81/81/81 84/84/84 82/82/82 
f 85/85/85 86/86/86 83/83/83 
f 83/83/83 86/86/86 84/84/84 
f 87/87/87 88/88/88 85/85/85 
f 85/85/85 88/88/88 86/86/86 
f 67/67/67 68/68/68 87/87/87 
f 87/87/87 68/68/68 88/88/88 
f 89/89/89 90/90/90 91/91/91 
f 92/92/92 93/93/93 89/89/89 
f 89/89/89 93/93/93 90/90/90 
f 94/94/94 93/93/93 95/95/95 
f 95/95/95 93/93/93 92/92/92 
f 96/96/96 94/94/94 95/95/95 
f 97/97/97 98/98/98 96/96/96 
f 96/96/96 98/98/98 94/94/94 
f 99/99/99 114/114/114 100/100/100 
f 100/100/100 114/114/114 113/113/113 
f 101/101/101 99/99/99 100/100/100 
f 102/102/102 103/103/103 101/101/101 
f 101/101/101 103/103/103 99/99/99 
f 104/104/104 103/103/103 105/105/105 
f 105/105/105 103/103/103 102/102/102 
f 106/106/106 104/104/104 105/105/105 
f 107/107/107 108/108/108 106/106/106 
f 106/106/106 108/108/108 104/104/104 
f 90/90/90 116/116/116 91/91/91 
f 91/91/91 116/116/116 115/115/115 
