v -0.8835403 1.2132840 0.0596401
vn 0.9376296 -0.0003798 0.3476359
vt 0.9888252 -2.8808250
v -0.9049957 1.1947080 0.1174886
vn 0.9409795 -0.0001109 0.3384636
vt 0.8906910 -2.8966560
v -0.8835412 -1.1335200 0.0570789
vn 0.9424959 0.0579998 0.3291465
vt 0.9888252 -6.2935629
v -0.9049957 -1.1251841 0.1186017
vn 0.9450751 0.0569133 0.3218603
vt 0.8906932 -6.2935629
v -0.8835403 1.2132840 0.0596401
vn 0.9378260 -0.2002166 0.2835413
vt 0.9888252 -2.8808250
v -0.8835408 1.8987250 0.5436494
vn 0.9384173 -0.1993974 0.2821590
vt 0.9888252 -1.7357249
v -0.9049957 1.1947080 0.1174886
vn 0.9384173 -0.1993974 0.2821590
vt 0.8906910 -2.8966560
v -0.9049957 1.8554720 0.5848109
vn 0.9390058 -0.1985776 0.2807759
vt 0.8906907 -1.7357249
v -0.9049957 0.0415913 0.8146742
vn -0.9494399 0.0194939 -0.3133429
vt 0.8906907 1.8582610
v -0.9049957 -0.6318699 0.8259150
vn -0.9484903 0.0214869 -0.3160767
vt 0.8906907 2.8115621
v -0.9264510 0.0379953 0.8794606
vn -0.9495809 0.0195279 -0.3129134
vt 0.9888252 1.8582610
v -0.9264510 -0.6330618 0.8899940
vn -0.9481581 0.0215588 -0.3170669
vt 0.9888252 2.8115621
v -0.9049957 -1.1697270 0.7439234
vn -0.9482114 0.0107071 -0.3174595
vt 0.8906907 3.5860810
v -0.9264511 -1.1731510 0.8078925
vn -0.9469765 0.0108233 -0.3211204
vt 0.9888252 3.5860810
v -0.9049957 -1.7851480 0.7953442
vn -0.9450118 -0.0264466 -0.3259654
vt 0.8906907 4.4630408
v -0.9264509 -1.7878660 0.8563387
vn -0.9426500 -0.0262246 -0.3327512
vt 0.9888252 4.4630408
v -0.9049957 -1.1251841 0.1186017
vn -0.9450732 0.0569150 0.3218654
vt 0.8906931 -6.2935629
v -0.9049957 1.1947080 0.1174886
vn -0.9409782 -0.0001108 0.3384673
vt 0.8906911 -2.8966560
v -0.9264507 -1.1335200 0.0570789
vn -0.9424945 0.0580006 0.3291507
vt 0.9888252 -6.2935629
v -0.9264513 1.2132840 0.0596401
vn -0.9376288 -0.0003797 0.3476380
vt 0.9888252 -2.8808250
v -0.9049957 1.8554720 0.5848109
vn -0.9390033 -0.1985819 0.2807814
vt 0.8906907 -1.7357249
v -0.9264510 1.8987250 0.5436494
vn -0.9384156 -0.1994001 0.2821626
vt 0.9888252 -1.7357249
v -0.9049957 1.1947080 0.1174886
vn -0.9384156 -0.1994001 0.2821626
vt 0.8906911 -2.8966560
v -0.9264513 1.2132840 0.0596401
vn -0.9378253 -0.2002176 0.2835430
vt 0.9888252 -2.8808250
v -0.9049957 1.2446671 0.8917210
vn -0.9511208 0.0377319 -0.3065053
vt 0.8906907 0.1836586
v -0.9264511 1.2405510 0.9577930
vn -0.9492850 0.0384808 -0.3120533
vt 0.9888252 0.1836586
v -0.9049957 1.7960870 1.0413240
vn -0.9458978 0.0836685 -0.3134915
vt 0.8906907 -0.5995612
v -0.9264510 1.7988560 1.1044940
vn -0.9423006 0.0850761 -0.3237774
vt 0.9888252 -0.5995612
v -0.9049957 0.6741412 0.9043822
vn -0.9506017 0.0186954 -0.3098497
vt 0.8906907 0.9548836
v -0.9264511 0.6695152 0.9701138
vn -0.9508608 0.0187021 -0.3090534
vt 0.9888252 0.9548836
v -0.9264509 -1.9287940 0.3475577
vn -0.9386406 0.1183289 0.3239631
vt 0.9888741 -7.4873610
v -0.9049957 -1.8855360 0.3939211
vn -0.9407441 0.1159094 0.3186935
vt 0.8907391 -7.4777422
v -0.9049957 -1.8855360 0.3939211
vn 0.9407458 0.1159078 0.3186890
vt 0.8907391 -7.4777422
v -0.8835409 -1.9287940 0.3475577
vn 0.9386420 0.1183291 0.3239590
vt 0.9888741 -7.4873610
v -1.0309319 1.8987250 0.5436494
vn 0.0000000 -0.6762000 0.7367181
vt 0.4783379 -1.7357249
v -0.7790598 1.8987250 0.5436494
vn 0.0000000 -0.6761999 0.7367182
vt 0.8645971 -1.7357249
v -1.0309319 2.0283999 0.6971103
vn 0.0000000 -0.8911128 0.4537820
vt 0.4783379 -1.4306200
v -0.7790598 2.0283999 0.6971104
vn 0.0000000 -0.8911126 0.4537822
vt 0.8645971 -1.4306200
v -1.0309319 -1.1335210 0.0584602
vn 0.0000000 0.1734524 0.9848422
vt 0.4783379 -6.2935629
v -0.7790598 -1.1335210 0.0584602
vn 0.0000000 0.1734523 0.9848423
vt 0.8645971 -6.2935629
v -1.0309319 1.2132840 0.0584602
vn 0.0000000 0.0000000 1.0000000
vt 0.4783379 -2.9372950
v -0.7790598 1.2132840 0.0584602
vn 0.0000000 0.0000000 1.0000000
vt 0.8645971 -2.8929410
v -1.0309319 -2.0274911 0.4482693
vn 0.0000000 0.9129877 0.4079870
vt 0.4783379 5.3051882
v -0.7790598 -2.0274911 0.4482693
vn 0.0000000 0.8250018 0.5651302
vt 0.8645971 5.3051882
v -1.0309319 -1.9287940 0.3475577
vn 0.0000000 0.5413858 0.8407744
vt 0.4783379 5.5126362
v -0.7790598 -1.9287940 0.3475577
vn 0.0000000 0.5413861 0.8407742
vt 0.8645970 5.5126362
v -1.0309319 -2.0630641 0.5902219
vn 0.0000000 0.9954448 -0.0953398
vt 0.4783379 5.0958691
v -0.7790598 -2.0630641 0.5902219
vn 0.0000000 0.9969964 0.0774482
vt 0.8645970 5.0958691
v -1.0309319 -2.0269301 0.7241623
vn 0.0000000 0.8193190 -0.5733379
vt 0.4783379 4.8996229
v -0.7790598 -2.0269301 0.7241623
vn 0.0000000 0.9071203 -0.4208714
vt 0.8645971 4.8996229
v -1.0309319 -1.9260520 0.8258347
vn 0.0000000 0.3945437 -0.9188772
vt 0.4783379 4.6787248
v -0.7790598 -1.9260520 0.8258347
vn 0.0000000 0.5654746 -0.8247657
vt 0.8645970 4.6787248
v -1.0309319 -1.7878660 0.8563387
vn 0.0000000 0.0196646 -0.9998066
vt 0.4783379 4.4630408
v -0.7790598 -1.7878660 0.8563387
vn 0.0000000 0.1186666 -0.9929342
vt 0.8645971 4.4630408
v -1.0309319 -1.1731510 0.8078925
vn 0.0000000 0.0709633 -0.9974789
vt 0.4783379 3.5860810
v -0.7790598 -1.1731510 0.8078925
vn 0.0000000 -0.0040224 -0.9999920
vt 0.8645971 3.5860810
v -1.0309319 -0.6325232 0.8871959
vn 0.0000000 0.0384689 -0.9992598
vt 0.4783379 2.8115621
v -0.7790598 -0.6325232 0.8871959
vn 0.0000000 0.0920102 -0.9957581
vt 0.8645971 2.8115621
v -1.0309319 0.6695061 0.9674794
vn 0.0000000 0.0602713 -0.9981821
vt 0.4783379 0.9548836
v -0.7790598 0.6695061 0.9674794
vn 0.0000000 0.0602713 -0.9981821
vt 0.8645970 0.9548836
v -1.0309319 0.0378080 0.8771202
vn 0.0000000 0.0896362 -0.9959746
vt 0.4783379 1.8582610
v -0.7790598 0.0378080 0.8771202
vn 0.0000000 0.0372829 -0.9993048
vt 0.8645971 1.8582610
v -1.0309319 2.0804040 0.6754187
vn -1.0000000 0.0000000 0.0000000
vt 0.4042921 -1.4306200
v -1.0309319 1.9385639 0.4997751
vn -1.0000000 0.0000000 0.0000000
vt 0.4042921 -1.7357249
v -1.0309319 2.0283999 0.6971103
vn -1.0000000 0.0000000 0.0000000
vt 0.4783379 -1.4306200
v -1.0309319 1.8987250 0.5436494
vn -1.0000000 0.0000000 0.0000000
vt 0.4783379 -1.7357249
v -1.0309319 -1.1335210 0.0584602
vn -1.0000000 0.0000000 0.0000000
vt 0.4783379 -6.2935629
v -1.0309319 1.2132840 0.0584602
vn -1.0000000 0.0000000 0.0000000
vt 0.4783379 -2.9372950
v -1.0309330 -1.1411990 0.0000000
vn -1.0000000 0.0000000 0.0000000
vt 0.4042921 -6.2935629
v -1.0309310 1.2303931 0.0000000
vn -1.0000000 0.0000000 0.0000000
vt 0.4042921 -2.8929410
v -1.0309319 -1.9287940 0.3475577
vn -1.0000000 0.0000000 0.0000000
vt 0.4783379 5.5126362
v -1.0309319 -1.9677770 0.3012022
vn -1.0000000 0.0000000 0.0000000
vt 0.4042921 5.5126362
v -1.0309319 -2.0274911 0.4482693
vn -1.0000000 0.0000000 0.0000000
vt 0.4783379 5.3051882
v -1.0309319 -2.0850661 0.4240930
vn -1.0000000 0.0000000 0.0000000
vt 0.4042921 5.3051882
v -1.0309319 -2.0630641 0.5902219
vn -1.0000000 0.0000000 0.0000000
vt 0.4783379 5.0958691
v -1.0309319 -2.1262901 0.5994820
vn -1.0000000 0.0000000 0.0000000
vt 0.4042921 5.0958691
v -1.0309319 -2.0269301 0.7241623
vn -1.0000000 0.0000000 0.0000000
vt 0.4783379 4.8996229
v -1.0309319 -2.0810220 0.7528172
vn -1.0000000 0.0000000 0.0000000
vt 0.4042921 4.8996229
v -1.0309319 -1.9260520 0.8258347
vn -1.0000000 0.0000000 0.0000000
vt 0.4783379 4.6787248
v -1.0309319 -1.9481890 0.8786967
vn -1.0000000 0.0000000 0.0000000
vt 0.4042921 4.6787248
v -1.0309319 -1.7878660 0.8563387
vn -1.0000000 0.0000000 0.0000000
vt 0.4783379 4.4630408
v -1.0309319 -1.7902310 0.9148466
vn -1.0000000 0.0000000 0.0000000
vt 0.4042921 4.4630408
v -1.0309319 -1.1763051 0.8668123
vn -1.0000000 0.0000000 0.0000000
vt 0.4042921 3.5860810
v -1.0309319 -1.1731510 0.8078925
vn -1.0000000 0.0000000 0.0000000
vt 0.4783379 3.5860810
v -1.0309319 -0.6325232 0.8871959
vn -1.0000000 0.0000000 0.0000000
vt 0.4783379 2.8115621
v -1.0309319 -0.6294249 0.9462613
vn -1.0000000 0.0000000 0.0000000
vt 0.4042921 2.8115621
v -1.0309319 0.0378080 0.8771202
vn -1.0000000 0.0000000 0.0000000
vt 0.4783379 1.8582610
v -1.0309319 0.0344831 0.9360417
vn -1.0000000 0.0000000 0.0000000
vt 0.4042921 1.8582610
v -1.0309319 0.6695061 0.9674794
vn -1.0000000 0.0000000 0.0000000
vt 0.4783379 0.9548836
v -1.0309319 0.6652394 1.0263550
vn -1.0000000 0.0000000 0.0000000
vt 0.4042921 0.9548836
v -0.7790598 1.8987250 0.5436494
vn 1.0000000 0.0000000 0.0000000
vt 0.4783380 -1.7357249
v -0.7790598 1.9385639 0.4997751
vn 1.0000000 0.0000000 0.0000000
vt 0.4042922 -1.7357249
v -0.7790598 2.0283999 0.6971104
vn 1.0000000 0.0000000 0.0000000
vt 0.4783380 -1.4306200
v -0.7790598 2.0804040 0.6754187
vn 1.0000000 0.0000000 0.0000000
vt 0.4042922 -1.4306200
v -0.7790598 -1.1335210 0.0584602
vn 1.0000000 0.0000000 0.0000000
vt 0.4783380 -6.2935629
v -0.7790596 -1.1411990 0.0000000
vn 1.0000000 0.0000000 0.0000000
vt 0.4042922 -6.2935629
v -0.7790598 1.2132840 0.0584602
vn 1.0000000 0.0000000 0.0000000
vt 0.4783380 -2.9372950
v -0.7790599 1.2303931 0.0000000
vn 1.0000000 0.0000000 0.0000000
vt 0.4042922 -2.8929410
v -0.7790599 -2.0850661 0.4240930
vn 1.0000000 0.0000000 0.0000000
vt 0.4042922 5.3051882
v -0.7790598 -1.9677770 0.3012022
vn 1.0000000 0.0000000 0.0000000
vt 0.4042922 5.5126362
v -0.7790598 -2.0274911 0.4482693
vn 1.0000000 0.0000000 0.0000000
vt 0.4783380 5.3051882
v -0.7790598 -1.9287940 0.3475577
vn 1.0000000 0.0000000 0.0000000
vt 0.4783380 5.5126362
v -0.7790595 -2.1262901 0.5994820
vn 1.0000000 0.0000000 0.0000000
vt 0.4042922 5.0958691
v -0.7790598 -2.0630641 0.5902219
vn 1.0000000 0.0000000 0.0000000
vt 0.4783380 5.0958691
v -0.7790594 -2.0810220 0.7528172
vn 1.0000000 0.0000000 0.0000000
vt 0.4042922 4.8996229
v -0.7790598 -2.0269301 0.7241623
vn 1.0000000 0.0000000 0.0000000
vt 0.4783380 4.8996229
v -0.7790598 -1.9481890 0.8786967
vn 1.0000000 0.0000000 0.0000000
vt 0.4042922 4.6787248
v -0.7790598 -1.9260520 0.8258347
vn 1.0000000 0.0000000 0.0000000
vt 0.4783380 4.6787248
v -0.7790598 -1.7902310 0.9148466
vn 1.0000000 0.0000000 0.0000000
vt 0.4042922 4.4630408
v -0.7790598 -1.7878660 0.8563387
vn 1.0000000 0.0000000 0.0000000
vt 0.4783380 4.4630408
v -0.7790598 -1.1731510 0.8078925
vn 1.0000000 0.0000000 0.0000000
vt 0.4783380 3.5860810
v -0.7790599 -1.1763051 0.8668123
vn 1.0000000 0.0000000 0.0000000
vt 0.4042922 3.5860810
v -0.7790598 -0.6294249 0.9462613
vn 1.0000000 0.0000000 0.0000000
vt 0.4042922 2.8115621
v -0.7790598 -0.6325232 0.8871959
vn 1.0000000 0.0000000 0.0000000
vt 0.4783380 2.8115621
v -0.7790598 0.6652394 1.0263550
vn 1.0000000 0.0000000 0.0000000
vt 0.4042922 0.9548836
v -0.7790598 0.0344831 0.9360417
vn 1.0000000 0.0000000 0.0000000
vt 0.4042922 1.8582610
v -0.7790598 0.6695061 0.9674794
vn 1.0000000 0.0000000 0.0000000
vt 0.4783380 0.9548836
v -0.7790598 0.0378080 0.8771202
vn 1.0000000 0.0000000 0.0000000
vt 0.4783380 1.8582610
v -1.0309319 0.6652394 1.0263550
vn 0.0000000 -0.0603677 0.9981762
vt 0.4042921 0.9548836
v -1.0309319 0.0344831 0.9360417
vn 0.0000000 -0.0633692 0.9979902
vt 0.4042921 1.8582610
v -0.7790598 0.6652394 1.0263550
vn 0.0000000 -0.0603677 0.9981762
vt 0.0194265 0.9548836
v -0.7790598 0.0344831 0.9360417
vn 0.0000000 -0.0633692 0.9979902
vt 0.0194265 1.8582610
v -1.0309319 -1.1763051 0.8668123
vn 0.0000000 0.0041019 0.9999916
vt 0.4042921 3.5860810
v -0.7790599 -1.1763051 0.8668123
vn 0.0000000 -0.0702293 0.9975309
vt 0.0194265 3.5860810
v -1.0309319 -0.6294249 0.9462613
vn 0.0000000 -0.0909721 0.9958535
vt 0.4042921 2.8115621
v -0.7790598 -0.6294249 0.9462613
vn 0.0000000 -0.0377686 0.9992865
vt 0.0194265 2.8115621
v -1.0309319 -1.7902310 0.9148466
vn 0.0000000 -0.1239875 0.9922838
vt 0.4042921 4.4630408
v -0.7790598 -1.7902310 0.9148466
vn 0.0000000 -0.0225914 0.9997448
vt 0.0194265 4.4630408
v -1.0309319 -1.9481890 0.8786967
vn 0.0000000 -0.5501971 0.8350348
vt 0.4042921 4.6787248
v -0.7790598 -1.9481890 0.8786967
vn 0.0000000 -0.3902569 0.9207061
vt 0.0194265 4.6787248
v -1.0309319 -2.0810220 0.7528172
vn 0.0000000 -0.8959165 0.4442227
vt 0.4042921 4.8996229
v -0.7790594 -2.0810220 0.7528172
vn 0.0000000 -0.8026732 0.5964191
vt 0.0194265 4.8996229
v -1.0309319 -2.1262901 0.5994820
vn 0.0000000 -0.9982025 -0.0599321
vt 0.4042921 5.0958691
v -0.7790595 -2.1262901 0.5994820
vn 0.0000000 -0.9932584 0.1159211
vt 0.0194265 5.0958691
v -1.0309319 -2.0850661 0.4240930
vn 0.0000000 -0.8326628 -0.5537804
vt 0.4042921 5.3051882
v -0.7790599 -2.0850661 0.4240930
vn 0.0000000 -0.9186943 -0.3949695
vt 0.0194265 5.3051882
v -1.0309319 -1.9677770 0.3012022
vn 0.0000000 -0.4805809 -0.8769504
vt 0.4042921 5.5126362
v -0.7790598 -1.9677770 0.3012022
vn 0.0000000 -0.6106212 -0.7919228
vt 0.0194265 5.5126362
v -1.0309330 -1.1411990 0.0000000
vn 0.0000000 -0.1738334 -0.9847751
vt 0.4042919 6.7035208
v -0.7790596 -1.1411990 0.0000000
vn 0.0000000 -0.1738334 -0.9847751
vt 0.0194262 6.7035208
v -1.0309330 -1.1411990 0.0000000
vn 0.0000000 -0.1738334 -0.9847751
vt 0.4042921 -6.2935629
v -1.0309310 1.2303931 0.0000000
vn 0.0000000 0.0000000 -1.0000000
vt 0.4042921 -2.8929410
v -0.7790596 -1.1411990 0.0000000
vn 0.0000000 -0.1738334 -0.9847751
vt 0.0194264 -6.2935629
v -0.7790599 1.2303931 0.0000000
vn 0.0000000 0.0000000 -1.0000000
vt 0.0194265 -2.8929410
v -1.0309319 1.9385639 0.4997751
vn 0.0000000 0.7169588 -0.6971155
vt 0.4042921 -1.7357249
v -0.7790598 1.9385639 0.4997751
vn 0.0000000 0.6492504 -0.7605748
vt 0.0194265 -1.7357249
v -1.0309310 1.2303931 0.0000000
vn 0.0000000 0.5765983 -0.8170278
vt 0.4042921 -2.8929410
v -0.7790599 1.2303931 0.0000000
vn 0.0000000 0.5765980 -0.8170280
vt 0.0194265 -2.8929410
v -0.7790598 2.0804040 0.6754187
vn 0.0000000 0.8609752 -0.5086470
vt 0.0194265 -1.4306200
v -1.0309319 2.0804040 0.6754187
vn 0.0000000 0.9269175 -0.3752652
vt 0.4042921 -1.4306200
v -1.0309319 2.1187470 0.8328038
vn 0.0000000 0.9943734 0.1059324
vt 0.4042921 -1.2211971
v -0.7790598 2.1187470 0.8328040
vn 0.0000000 0.9976201 -0.0689508
vt 0.0194265 -1.2211971
v -1.0309319 2.0745499 0.9887964
vn 0.0000000 0.8060279 0.5918776
vt 0.4042921 -1.0139270
v -0.7790597 2.0745499 0.9887964
vn 0.0000000 0.8996332 0.4366465
vt 0.0194265 -1.0139270
v -1.0309319 1.9526989 1.1049900
vn 0.0000000 0.4152293 0.9097168
vt 0.4042921 -0.8030877
v -0.7790598 1.9526989 1.1049900
vn 0.0000000 0.5623691 0.8268864
vt 0.0194265 -0.8030877
v -0.7790598 -1.1335210 0.0584602
vn 1.0000000 0.0000000 0.0000000
vt 0.4783675 6.7035208
v -0.7790596 -1.1411990 0.0000000
vn 1.0000000 0.0000000 0.0000000
vt 0.4043205 6.7035208
v -1.0309319 -1.1335210 0.0584602
vn 0.0000000 0.1734524 0.9848422
vt 0.4783377 6.7035208
v -0.7790598 -1.1335210 0.0584602
vn 0.0000000 0.1734523 0.9848423
vt 0.8645969 6.7035208
v -1.0309330 -1.1411990 0.0000000
vn -1.0000000 0.0000000 0.0000000
vt 0.4042919 6.7035208
v -1.0309319 -1.1335210 0.0584602
vn -1.0000000 0.0000000 0.0000000
vt 0.4783377 6.7035208
v -1.0309319 1.2385600 1.0140800
vn -1.0000000 0.0000000 0.0000000
vt 0.4042921 0.1836586
v -1.0309319 1.2405510 0.9552216
vn -1.0000000 0.0000000 0.0000000
vt 0.4783379 0.1836586
v -1.0309319 1.2405510 0.9552216
vn 0.0000000 0.1058187 -0.9943855
vt 0.4783379 0.1836586
v -0.7790598 1.2405510 0.9552216
vn 0.0000000 0.1058188 -0.9943855
vt 0.8645971 0.1836586
v -0.7790598 1.2405510 0.9552216
vn 1.0000000 0.0000000 0.0000000
vt 0.4783380 0.1836586
v -0.7790598 1.2385600 1.0140800
vn 1.0000000 0.0000000 0.0000000
vt 0.4042922 0.1836586
v -1.0309319 1.2385600 1.0140800
vn 0.0000000 -0.0622250 0.9980622
vt 0.4042921 0.1836586
v -0.7790598 1.2385600 1.0140800
vn 0.0000000 -0.1460061 0.9892837
vt 0.0194265 0.1836586
v -1.0309319 1.8011450 1.1459250
vn -1.0000000 0.0000000 0.0000000
vt 0.4042921 -0.5987824
v -1.0309319 1.9526989 1.1049900
vn -1.0000000 0.0000000 0.0000000
vt 0.4042921 -0.8030877
v -1.0309319 1.7983410 1.0878830
vn -1.0000000 0.0000000 0.0000000
vt 0.4783379 -0.5987824
v -1.0309319 1.9299999 1.0534080
vn -1.0000000 0.0000000 0.0000000
vt 0.4783379 -0.8030877
v -0.7790598 1.8011450 1.1459250
vn 0.0000000 0.1004865 0.9949384
vt 0.0194265 -0.5987824
v -1.0309319 1.8011450 1.1459250
vn 0.0000000 -0.0670011 0.9977529
vt 0.4042921 -0.5987824
v -0.7790598 1.9299999 1.0534080
vn 1.0000000 0.0000000 0.0000000
vt 0.4783380 -0.8030877
v -0.7790598 1.9526989 1.1049900
vn 1.0000000 0.0000000 0.0000000
vt 0.4042922 -0.8030877
v -0.7790598 1.7983410 1.0878830
vn 1.0000000 0.0000000 0.0000000
vt 0.4783380 -0.5987824
v -0.7790598 1.8011450 1.1459250
vn 1.0000000 0.0000000 0.0000000
vt 0.4042922 -0.5987824
v -1.0309319 1.7983410 1.0878830
vn 0.0000000 -0.0113039 -0.9999361
vt 0.4783379 -0.5987824
v -1.0309319 1.9299999 1.0534080
vn 0.0000000 -0.4149207 -0.9098576
vt 0.4783379 -0.8030877
v -0.7790598 1.7983410 1.0878830
vn 0.0000000 -0.0113037 -0.9999361
vt 0.8645971 -0.5987824
v -0.7790598 1.9299999 1.0534080
vn 0.0000000 -0.5687225 -0.8225295
vt 0.8645971 -0.8030877
v -1.0309319 2.0745499 0.9887964
vn -1.0000000 0.0000000 0.0000000
vt 0.4042921 -1.0139270
v -1.0309319 2.0258279 0.9592319
vn -1.0000000 0.0000000 0.0000000
vt 0.4783379 -1.0139270
v -0.7790598 2.0258279 0.9592319
vn 1.0000000 0.0000000 0.0000000
vt 0.4783380 -1.0139270
v -0.7790597 2.0745499 0.9887964
vn 1.0000000 0.0000000 0.0000000
vt 0.4042922 -1.0139270
v -1.0309319 2.0258279 0.9592319
vn 0.0000000 -0.8147956 -0.5797483
vt 0.4783379 -1.0139270
v -0.7790598 2.0258279 0.9592319
vn 0.0000000 -0.9060213 -0.4232322
vt 0.8645970 -1.0139270
v -0.7790598 2.0606980 0.8288518
vn 1.0000000 0.0000000 0.0000000
vt 0.4783380 -1.2211971
v -0.7790598 2.1187470 0.8328040
vn 1.0000000 0.0000000 0.0000000
vt 0.4042922 -1.2211971
v -1.0309319 2.0606980 0.8288518
vn 0.0000000 -0.9954267 -0.0955293
vt 0.4783379 -1.2211971
v -0.7790598 2.0606980 0.8288518
vn 0.0000000 -0.9972065 0.0746940
vt 0.8645971 -1.2211971
v -1.0309319 2.1187470 0.8328038
vn -1.0000000 0.0000000 0.0000000
vt 0.4042921 -1.2211971
v -1.0309319 2.0606980 0.8288518
vn -1.0000000 0.0000000 0.0000000
vt 0.4783379 -1.2211971
v -1.0309319 1.2132840 0.0584602
vn 0.0000000 -0.5777544 0.8162107
vt 0.4783379 -2.9372950
v -0.7790598 1.2132840 0.0584602
vn 0.0000000 -0.5777544 0.8162107
vt 0.8645971 -2.8929410

g group_132_140627850602480
f 1/1/1 2/2/2 3/3/3 
f 3/3/3 2/2/2 4/4/4 
f 5/5/5 6/6/6 7/7/7 
f 7/7/7 6/6/6 8/8/8 
f 9/9/9 10/10/10 11/11/11 
f 11/11/11 10/10/10 12/12/12 
f 13/13/13 14/14/14 10/10/10 
f 10/10/10 14/14/14 12/12/12 
f 13/13/13 15/15/15 14/14/14 
f 14/14/14 15/15/15 16/16/16 
f 17/17/17 18/18/18 19/19/19 
f 19/19/19 18/18/18 20/20/20 
f 21/21/21 22/22/22 23/23/23 
f 23/23/23 22/22/22 24/24/24 
f 25/25/25 26/26/26 27/27/27 
f 27/27/27 26/26/26 28/28/28 
f 25/25/25 29/29/29 26/26/26 
f 26/26/26 29/29/29 30/30/30 
f 31/31/31 32/32/32 19/19/19 
f 19/19/19 32/32/32 17/17/17 
f 4/4/4 33/33/33 3/3/3 
f 3/3/3 33/33/33 34/34/34 
f 35/35/35 36/36/36 37/37/37 
f 37/37/37 36/36/36 38/38/38 
f 39/39/39 40/40/40 41/41/41 
f 41/41/41 40/40/40 42/42/42 
f 43/43/43 44/44/44 45/45/45 
f 45/45/45 44/44/44 46/46/46 
f 47/47/47 48/48/48 43/43/43 
f 43/43/43 48/48/48 44/44/44 
f 49/49/49 50/50/50 47/47/47 
f 47/47/47 50/50/50 48/48/48 
f 51/51/51 52/52/52 49/49/49 
f 49/49/49 52/52/52 50/50/50 
f 53/53/53 54/54/54 51/51/51 
f 51/51/51 54/54/54 52/52/52 
f 55/55/55 56/56/56 53/53/53 
f 53/53/53 56/56/56 54/54/54 
f 57/57/57 58/58/58 55/55/55 
f 55/55/55 58/58/58 56/56/56 
f 59/59/59 60/60/60 61/61/61 
f 61/61/61 60/60/60 62/62/62 
f 63/63/63 64/64/64 65/65/65 
f 65/65/65 64/64/64 66/66/66 
f 67/67/67 68/68/68 69/69/69 
f 69/69/69 68/68/68 70/70/70 
f 71/71/71 72/72/72 73/73/73 
f 73/73/73 72/72/72 74/74/74 
f 73/73/73 74/74/74 75/75/75 
f 75/75/75 74/74/74 76/76/76 
f 75/75/75 76/76/76 77/77/77 
f 77/77/77 76/76/76 78/78/78 
f 77/77/77 78/78/78 79/79/79 
f 79/79/79 78/78/78 80/80/80 
f 79/79/79 80/80/80 81/81/81 
f 81/81/81 80/80/80 82/82/82 
f 82/82/82 83/83/83 81/81/81 
f 81/81/81 83/83/83 84/84/84 
f 84/84/84 83/83/83 85/85/85 
f 85/85/85 83/83/83 86/86/86 
f 87/87/87 88/88/88 89/89/89 
f 89/89/89 88/88/88 90/90/90 
f 91/91/91 92/92/92 93/93/93 
f 93/93/93 92/92/92 94/94/94 
f 95/95/95 96/96/96 97/97/97 
f 97/97/97 96/96/96 98/98/98 
f 99/99/99 100/100/100 101/101/101 
f 101/101/101 100/100/100 102/102/102 
f 103/103/103 99/99/99 104/104/104 
f 104/104/104 99/99/99 101/101/101 
f 105/105/105 103/103/103 106/106/106 
f 106/106/106 103/103/103 104/104/104 
f 107/107/107 105/105/105 108/108/108 
f 108/108/108 105/105/105 106/106/106 
f 109/109/109 107/107/107 110/110/110 
f 110/110/110 107/107/107 108/108/108 
f 111/111/111 112/112/112 110/110/110 
f 110/110/110 112/112/112 109/109/109 
f 113/113/113 112/112/112 114/114/114 
f 114/114/114 112/112/112 111/111/111 
f 115/115/115 116/116/116 117/117/117 
f 117/117/117 116/116/116 118/118/118 
f 119/119/119 120/120/120 121/121/121 
f 121/121/121 120/120/120 122/122/122 
f 123/123/123 124/124/124 125/125/125 
f 125/125/125 124/124/124 126/126/126 
f 127/127/127 128/128/128 123/123/123 
f 123/123/123 128/128/128 124/124/124 
f 129/129/129 130/130/130 127/127/127 
f 127/127/127 130/130/130 128/128/128 
f 131/131/131 132/132/132 129/129/129 
f 129/129/129 132/132/132 130/130/130 
f 133/133/133 134/134/134 131/131/131 
f 131/131/131 134/134/134 132/132/132 
f 135/135/135 136/136/136 133/133/133 
f 133/133/133 136/136/136 134/134/134 
f 137/137/137 138/138/138 135/135/135 
f 135/135/135 138/138/138 136/136/136 
f 139/139/139 140/140/140 137/137/137 
f 137/137/137 140/140/140 138/138/138 
f 141/141/141 142/142/142 143/143/143 
f 143/143/143 142/142/142 144/144/144 
f 145/145/145 146/146/146 147/147/147 
f 147/147/147 146/146/146 148/148/148 
f 146/146/146 145/145/145 149/149/149 
f 149/149/149 145/145/145 150/150/150 
f 151/151/151 152/152/152 150/150/150 
f 150/150/150 152/152/152 149/149/149 
f 153/153/153 154/154/154 151/151/151 
f 151/151/151 154/154/154 152/152/152 
f 155/155/155 156/156/156 153/153/153 
f 153/153/153 156/156/156 154/154/154 
f 157/157/157 102/102/102 158/158/158 
f 158/158/158 102/102/102 100/100/100 
f 159/159/159 45/45/45 160/160/160 
f 160/160/160 45/45/45 46/46/46 
f 72/72/72 71/71/71 161/161/161 
f 161/161/161 71/71/71 162/162/162 
f 86/86/86 88/88/88 85/85/85 
f 85/85/85 88/88/88 87/87/87 
f 58/58/58 57/57/57 62/62/62 
f 62/62/62 57/57/57 61/61/61 
f 113/113/113 114/114/114 116/116/116 
f 116/116/116 114/114/114 118/118/118 
f 125/125/125 126/126/126 120/120/120 
f 120/120/120 126/126/126 122/122/122 
f 9/9/9 11/11/11 29/29/29 
f 29/29/29 11/11/11 30/30/30 
f 90/90/90 163/163/163 89/89/89 
f 89/89/89 163/163/163 164/164/164 
f 59/59/59 165/165/165 60/60/60 
f 60/60/60 165/165/165 166/166/166 
f 167/167/167 168/168/168 117/117/117 
f 117/117/117 168/168/168 115/115/115 
f 119/119/119 121/121/121 169/169/169 
f 169/169/169 121/121/121 170/170/170 
f 171/171/171 172/172/172 173/173/173 
f 173/173/173 172/172/172 174/174/174 
f 156/156/156 155/155/155 175/175/175 
f 175/175/175 155/155/155 176/176/176 
f 177/177/177 178/178/178 179/179/179 
f 179/179/179 178/178/178 180/180/180 
f 181/181/181 182/182/182 183/183/183 
f 183/183/183 182/182/182 184/184/184 
f 172/172/172 185/185/185 174/174/174 
f 174/174/174 185/185/185 186/186/186 
f 187/187/187 188/188/188 177/177/177 
f 177/177/177 188/188/188 178/178/178 
f 182/182/182 189/189/189 184/184/184 
f 184/184/184 189/189/189 190/190/190 
f 191/191/191 192/192/192 187/187/187 
f 187/187/187 192/192/192 188/188/188 
f 189/189/189 193/193/193 190/190/190 
f 190/190/190 193/193/193 194/194/194 
f 185/185/185 195/195/195 186/186/186 
f 186/186/186 195/195/195 196/196/196 
f 93/93/93 94/94/94 191/191/191 
f 191/191/191 94/94/94 192/192/192 
f 193/193/193 37/37/37 194/194/194 
f 194/194/194 37/37/37 38/38/38 
f 195/195/195 63/63/63 196/196/196 
f 196/196/196 63/63/63 65/65/65 
f 169/169/169 170/170/170 176/176/176 
f 176/176/176 170/170/170 175/175/175 
f 180/180/180 168/168/168 179/179/179 
f 179/179/179 168/168/168 167/167/167 
f 181/181/181 183/183/183 165/165/165 
f 165/165/165 183/183/183 166/166/166 
f 171/171/171 173/173/173 163/163/163 
f 163/163/163 173/173/173 164/164/164 
f 35/35/35 197/197/197 36/36/36 
f 36/36/36 197/197/197 198/198/198 
f 70/70/70 68/68/68 64/64/64 
f 64/64/64 68/68/68 66/66/66 
f 91/91/91 97/97/97 92/92/92 
f 92/92/92 97/97/97 98/98/98 
