v -0.8334037 -0.7659511 0.7719041
vn 0.0000000 -1.0000000 0.0000000
vt 0.7521378 0.2000594
v -0.9561668 -0.7659511 0.7719041
vn 0.0000000 -1.0000000 0.0000000
vt 0.7521378 0.2165153
v -0.8334037 -0.7292914 0.6833995
vn 0.0000000 -0.7071072 -0.7071064
vt 0.7393063 0.2000594
v -0.9561668 -0.7292914 0.6833995
vn 0.0000000 -0.7071069 -0.7071066
vt 0.7393063 0.2165153
v -0.8334037 -0.7292914 0.8604088
vn 0.0000000 -0.7071064 0.7071072
vt 0.7649693 0.2000594
v -0.9561668 -0.7292914 0.8604088
vn 0.0000000 -0.7071068 0.7071067
vt 0.7649692 0.2165153
v -0.8334035 -0.6407866 0.8970686
vn 0.0000000 0.0000000 1.0000000
vt 0.7778010 0.2000594
v -0.9561668 -0.6407866 0.8970686
vn 0.0000000 0.0000000 1.0000000
vt 0.7778010 0.2165153
v -0.8334037 -0.5522821 0.8604088
vn 0.0000000 0.7071066 0.7071069
vt 0.7906324 0.2000594
v -0.9561668 -0.5522821 0.8604088
vn 0.0000000 0.7071069 0.7071066
vt 0.7906325 0.2165153
v -0.8334037 -0.5156222 0.7719041
vn 0.0000000 1.0000000 0.0000000
vt 0.7778009 0.2000594
v -0.9561668 -0.5156222 0.7719041
vn 0.0000000 1.0000000 0.0000000
vt 0.7778009 0.2165153
v -0.8334037 -0.5522821 0.6833995
vn 0.0000000 0.7071066 -0.7071069
vt 0.7649693 0.2000594
v -0.9561668 -0.5522821 0.6833995
vn 0.0000000 0.7071064 -0.7071072
vt 0.7649692 0.2165153
v -0.8334037 -0.6407867 0.6467397
vn 0.0000000 0.0000000 -1.0000000
vt 0.7521378 0.2000594
v -0.9561668 -0.6407867 0.6467397
vn 0.0000000 0.0000000 -1.0000000
vt 0.7521378 0.2165153
v -0.8334035 -0.6407866 0.8970686
vn 1.0000000 0.0000000 0.0000000
vt 0.6666462 0.1065655
v -0.8334037 -0.7292914 0.8604088
vn 1.0000000 0.0000000 0.0000000
vt 0.6628230 0.1157891
v -0.8334037 -0.7292914 0.6833995
vn 1.0000000 0.0000000 0.0000000
vt 0.6443622 0.1157892
v -0.8334037 -0.7659511 0.7719041
vn 1.0000000 0.0000000 0.0000000
vt 0.6535926 0.1196095
v -0.8334037 -0.5522821 0.6833995
vn 1.0000000 0.0000000 0.0000000
vt 0.6443622 0.1157892
v -0.8334037 -0.5522821 0.8604088
vn 1.0000000 0.0000000 0.0000000
vt 0.6628230 0.1157891
v -0.8334037 -0.5156222 0.7719041
vn 1.0000000 0.0000000 0.0000000
vt 0.6535926 0.1196095
v -0.8334037 -0.6407867 0.6467397
vn 1.0000000 0.0000000 0.0000000
vt 0.6405389 0.1065655
v -0.9561668 -0.7659511 0.7719041
vn -1.0000000 0.0000000 0.0000000
vt 0.3473215 0.0933315
v -0.9561668 -0.7292914 0.8604088
vn -1.0000000 0.0000000 0.0000000
vt 0.3525573 0.1059624
v -0.9561668 -0.7292914 0.6833995
vn -1.0000000 0.0000000 0.0000000
vt 0.3525571 0.0807006
v -0.9561668 -0.6407866 0.8970686
vn -1.0000000 0.0000000 0.0000000
vt 0.3651975 0.1111942
v -0.9561668 -0.5156222 0.7719041
vn -1.0000000 0.0000000 0.0000000
vt 0.3830738 0.0933314
v -0.9561668 -0.5522821 0.6833995
vn -1.0000000 0.0000000 0.0000000
vt 0.3778380 0.0807006
v -0.9561668 -0.5522821 0.8604088
vn -1.0000000 0.0000000 0.0000000
vt 0.3778380 0.1059624
v -0.9561668 -0.6407867 0.6467397
vn -1.0000000 0.0000000 0.0000000
vt 0.3651975 0.0754685
v -0.8334037 -0.7292914 0.6833995
vn 0.0000000 -0.7071072 -0.7071064
vt 0.7393063 0.2000594
v -0.9561668 -0.7292914 0.6833995
vn 0.0000000 -0.7071069 -0.7071066
vt 0.7393063 0.2165153
v -0.8334037 -0.5522821 0.8604088
vn 0.0000000 0.7071066 0.7071069
vt 0.7906324 0.2000594
v -0.9561668 -0.5522821 0.8604088
vn 0.0000000 0.7071069 0.7071066
vt 0.7906325 0.2165153
v -0.8334035 -0.6407866 0.8970686
vn 1.0000000 0.0000000 0.0000000
vt 0.6666462 0.1065655
v -0.8334035 -0.6407866 0.8970686
vn 1.0000000 0.0000000 0.0000000
vt 0.6666462 0.1065655
v -0.8334037 -0.7292914 0.6833995
vn 1.0000000 0.0000000 0.0000000
vt 0.6443622 0.1157892
v -0.8334037 -0.7292914 0.6833995
vn 1.0000000 0.0000000 0.0000000
vt 0.6443622 0.1157892
v -0.8334037 -0.5522821 0.6833995
vn 1.0000000 0.0000000 0.0000000
vt 0.6443622 0.1157892
v -0.8334037 -0.5522821 0.6833995
vn 1.0000000 0.0000000 0.0000000
vt 0.6443622 0.1157892

g group_14_140627911361904
f 1/1/1 2/2/2 3/3/3 
f 3/3/3 2/2/2 4/4/4 
f 5/5/5 6/6/6 1/1/1 
f 1/1/1 6/6/6 2/2/2 
f 7/7/7 8/8/8 5/5/5 
f 5/5/5 8/8/8 6/6/6 
f 9/9/9 10/10/10 7/7/7 
f 7/7/7 10/10/10 8/8/8 
f 11/11/11 12/12/12 35/35/35 
f 35/35/35 12/12/12 36/36/36 
f 13/13/13 14/14/14 11/11/11 
f 11/11/11 14/14/14 12/12/12 
f 15/15/15 16/16/16 13/13/13 
f 13/13/13 16/16/16 14/14/14 
f 33/33/33 34/34/34 15/15/15 
f 15/15/15 34/34/34 16/16/16 
f 17/17/17 18/18/18 19/19/19 
f 19/19/19 18/18/18 20/20/20 
f 37/37/37 21/21/21 22/22/22 
f 22/22/22 21/21/21 23/23/23 
f 38/38/38 39/39/39 41/41/41 
f 42/42/42 40/40/40 24/24/24 
f 25/25/25 26/26/26 27/27/27 
f 27/27/27 26/26/26 28/28/28 
f 29/29/29 30/30/30 31/31/31 
f 31/31/31 30/30/30 28/28/28 
f 32/32/32 27/27/27 30/30/30 
f 30/30/30 27/27/27 28/28/28 
