v 0.9049957 -1.1251841 0.1186017
vn -0.9450750 0.0569135 0.3218603
vt 0.8906932 -6.2935629
v 0.9049957 1.1947080 0.1174886
vn -0.9409795 -0.0001109 0.3384636
vt 0.8906910 -2.8966560
v 0.8835412 -1.1335200 0.0570789
vn -0.9424959 0.0580000 0.3291465
vt 0.9888252 -6.2935629
v 0.8835403 1.2132840 0.0596401
vn -0.9376296 -0.0003798 0.3476359
vt 0.9888252 -2.8808250
v 0.8835403 1.2132840 0.0596401
vn -0.9378260 -0.2002168 0.2835412
vt 0.9888252 -2.8808250
v 0.9049957 1.1947080 0.1174886
vn -0.9384173 -0.1993975 0.2821590
vt 0.8906910 -2.8966560
v 0.8835408 1.8987250 0.5436494
vn -0.9384173 -0.1993975 0.2821590
vt 0.9888252 -1.7357249
v 0.9049957 1.8554720 0.5848109
vn -0.9390058 -0.1985776 0.2807759
vt 0.8906907 -1.7357249
v 0.9264510 -0.6330618 0.8899940
vn 0.9481616 0.0213314 -0.3170721
vt 0.9888252 2.8115621
v 0.9049957 -0.6318699 0.8259150
vn 0.9484924 0.0212608 -0.3160857
vt 0.8906907 2.8115621
v 0.9264510 0.0379953 0.8784995
vn 0.9495827 0.0195350 -0.3129075
vt 0.9888252 1.8582610
v 0.9049957 0.0415913 0.8137131
vn 0.9494399 0.0195041 -0.3133426
vt 0.8906907 1.8582610
v 0.9264511 -1.1731510 0.8078925
vn 0.9469765 0.0108233 -0.3211204
vt 0.9888252 3.5860810
v 0.9049957 -1.1697270 0.7439234
vn 0.9482114 0.0107071 -0.3174595
vt 0.8906907 3.5860810
v 0.9264509 -1.7878660 0.8563387
vn 0.9426500 -0.0262246 -0.3327512
vt 0.9888252 4.4630408
v 0.9049957 -1.7851480 0.7953442
vn 0.9450118 -0.0264466 -0.3259654
vt 0.8906907 4.4630408
v 0.9049957 -1.1251841 0.1186017
vn 0.9450732 0.0569149 0.3218654
vt 0.8906931 -6.2935629
v 0.9264507 -1.1335200 0.0570789
vn 0.9424945 0.0580006 0.3291507
vt 0.9888252 -6.2935629
v 0.9049957 1.1947080 0.1174886
vn 0.9409782 -0.0001108 0.3384673
vt 0.8906911 -2.8966560
v 0.9264513 1.2132840 0.0596401
vn 0.9376288 -0.0003797 0.3476380
vt 0.9888252 -2.8808250
v 0.9049957 1.8554720 0.5848109
vn 0.9390033 -0.1985816 0.2807813
vt 0.8906907 -1.7357249
v 0.9049957 1.1947080 0.1174886
vn 0.9384156 -0.1994004 0.2821624
vt 0.8906911 -2.8966560
v 0.9264510 1.8987250 0.5436494
vn 0.9384156 -0.1994004 0.2821624
vt 0.9888252 -1.7357249
v 0.9264513 1.2132840 0.0596401
vn 0.9378252 -0.2002185 0.2835428
vt 0.9888252 -2.8808250
v 0.9264510 1.7988560 1.1044940
vn 0.9423006 0.0850761 -0.3237774
vt 0.9888252 -0.5995612
v 0.9264511 1.2405510 0.9577930
vn 0.9492850 0.0384808 -0.3120533
vt 0.9888252 0.1836586
v 0.9049957 1.7960870 1.0413240
vn 0.9458978 0.0836685 -0.3134915
vt 0.8906907 -0.5995612
v 0.9049957 1.2446671 0.8917210
vn 0.9511208 0.0377319 -0.3065053
vt 0.8906907 0.1836586
v 0.9264511 0.6695152 0.9701138
vn 0.9508616 0.0189334 -0.3090369
vt 0.9888252 0.9548836
v 0.9049957 0.6741412 0.9043822
vn 0.9506019 0.0189286 -0.3098350
vt 0.8906907 0.9548836
v 0.9049957 -1.8855360 0.3939211
vn 0.9407441 0.1159094 0.3186935
vt 0.8907391 -7.4777422
v 0.9264509 -1.9287940 0.3475577
vn 0.9386406 0.1183289 0.3239631
vt 0.9888741 -7.4873610
v 0.9049957 -1.8855360 0.3939211
vn -0.9407458 0.1159082 0.3186889
vt 0.8907391 -7.4777422
v 0.8835409 -1.9287940 0.3475577
vn -0.9386420 0.1183293 0.3239589
vt 0.9888741 -7.4873610
v 1.0309319 1.8987250 0.5436494
vn 0.0000000 -0.6762000 0.7367181
vt 0.4783379 -1.7357249
v 1.0309319 2.0283999 0.6971103
vn 0.0000000 -0.8911127 0.4537820
vt 0.4783379 -1.4306200
v 0.7790598 1.8987250 0.5436494
vn 0.0000000 -0.6761998 0.7367183
vt 0.8645971 -1.7357249
v 0.7790598 2.0283999 0.6971104
vn 0.0000000 -0.8911126 0.4537823
vt 0.8645971 -1.4306200
v 1.0309319 -1.1335210 0.0584602
vn 0.0000000 0.1734524 0.9848422
vt 0.4783379 -6.2935629
v 1.0309319 1.2132840 0.0584602
vn 0.0000000 0.0000000 1.0000000
vt 0.4783379 -2.9372950
v 0.7790598 -1.1335210 0.0584602
vn 0.0000000 0.1734523 0.9848423
vt 0.8645971 -6.2935629
v 0.7790598 1.2132840 0.0584602
vn 0.0000000 0.0000000 1.0000000
vt 0.8645971 -2.8929410
v 1.0309319 -2.0274911 0.4482693
vn 0.0000000 0.9129877 0.4079870
vt 0.4783379 5.3051882
v 1.0309319 -1.9287940 0.3475577
vn 0.0000000 0.5413858 0.8407744
vt 0.4783379 5.5126362
v 0.7790598 -2.0274911 0.4482693
vn 0.0000000 0.8250018 0.5651302
vt 0.8645971 5.3051882
v 0.7790598 -1.9287940 0.3475577
vn 0.0000000 0.5413861 0.8407742
vt 0.8645970 5.5126362
v 1.0309319 -2.0630641 0.5902219
vn 0.0000000 0.9954448 -0.0953398
vt 0.4783379 5.0958691
v 0.7790598 -2.0630641 0.5902219
vn 0.0000000 0.9969964 0.0774482
vt 0.8645970 5.0958691
v 1.0309319 -2.0269301 0.7241623
vn 0.0000000 0.8193190 -0.5733379
vt 0.4783379 4.8996229
v 0.7790598 -2.0269301 0.7241623
vn 0.0000000 0.9071203 -0.4208714
vt 0.8645971 4.8996229
v 1.0309319 -1.9260520 0.8258347
vn 0.0000000 0.3945437 -0.9188772
vt 0.4783379 4.6787248
v 0.7790598 -1.9260520 0.8258347
vn 0.0000000 0.5654746 -0.8247657
vt 0.8645970 4.6787248
v 1.0309319 -1.7878660 0.8563387
vn 0.0000000 0.0196646 -0.9998066
vt 0.4783379 4.4630408
v 0.7790598 -1.7878660 0.8563387
vn 0.0000000 0.1186666 -0.9929342
vt 0.8645971 4.4630408
v 1.0309319 -1.1731510 0.8078925
vn 0.0000000 0.0709633 -0.9974789
vt 0.4783379 3.5860810
v 0.7790598 -1.1731510 0.8078925
vn 0.0000000 -0.0040224 -0.9999920
vt 0.8645971 3.5860810
v 1.0309319 -0.6325232 0.8871959
vn 0.0000000 0.0375125 -0.9992962
vt 0.4783379 2.8115621
v 0.7790598 -0.6325232 0.8871959
vn 0.0000000 0.0915358 -0.9958018
vt 0.8645971 2.8115621
v 1.0309319 0.6695061 0.9674794
vn 0.0000000 0.0610154 -0.9981369
vt 0.4783379 0.9548836
v 1.0309319 0.0378080 0.8761590
vn 0.0000000 0.0901529 -0.9959280
vt 0.4783379 1.8582610
v 0.7790598 0.6695061 0.9674794
vn 0.0000000 0.0610154 -0.9981369
vt 0.8645970 0.9548836
v 0.7790598 0.0378080 0.8761590
vn 0.0000000 0.0368217 -0.9993219
vt 0.8645971 1.8582610
v 1.0309319 2.0804040 0.6754187
vn 1.0000000 0.0000000 0.0000000
vt 0.4042921 -1.4306200
v 1.0309319 2.0283999 0.6971103
vn 1.0000000 0.0000000 0.0000000
vt 0.4783379 -1.4306200
v 1.0309319 1.9385639 0.4997751
vn 1.0000000 0.0000000 0.0000000
vt 0.4042921 -1.7357249
v 1.0309319 1.8987250 0.5436494
vn 1.0000000 0.0000000 0.0000000
vt 0.4783379 -1.7357249
v 1.0309310 1.2303931 0.0000000
vn 1.0000000 0.0000000 0.0000000
vt 0.4042921 -2.8929410
v 1.0309319 1.2132840 0.0584602
vn 1.0000000 0.0000000 0.0000000
vt 0.4783379 -2.9372950
v 1.0309330 -1.1411990 0.0000000
vn 1.0000000 0.0000000 0.0000000
vt 0.4042921 -6.2935629
v 1.0309319 -1.1335210 0.0584602
vn 1.0000000 0.0000000 0.0000000
vt 0.4783379 -6.2935629
v 1.0309319 -2.0850661 0.4240930
vn 1.0000000 0.0000000 0.0000000
vt 0.4042921 5.3051882
v 1.0309319 -1.9677770 0.3012022
vn 1.0000000 0.0000000 0.0000000
vt 0.4042921 5.5126362
v 1.0309319 -2.0274911 0.4482693
vn 1.0000000 0.0000000 0.0000000
vt 0.4783379 5.3051882
v 1.0309319 -1.9287940 0.3475577
vn 1.0000000 0.0000000 0.0000000
vt 0.4783379 5.5126362
v 1.0309319 -2.1262901 0.5994820
vn 1.0000000 0.0000000 0.0000000
vt 0.4042921 5.0958691
v 1.0309319 -2.0630641 0.5902219
vn 1.0000000 0.0000000 0.0000000
vt 0.4783379 5.0958691
v 1.0309319 -2.0810220 0.7528172
vn 1.0000000 0.0000000 0.0000000
vt 0.4042921 4.8996229
v 1.0309319 -2.0269301 0.7241623
vn 1.0000000 0.0000000 0.0000000
vt 0.4783379 4.8996229
v 1.0309319 -1.9481890 0.8786967
vn 1.0000000 0.0000000 0.0000000
vt 0.4042921 4.6787248
v 1.0309319 -1.9260520 0.8258347
vn 1.0000000 0.0000000 0.0000000
vt 0.4783379 4.6787248
v 1.0309319 -1.7902310 0.9148466
vn 1.0000000 0.0000000 0.0000000
vt 0.4042921 4.4630408
v 1.0309319 -1.7878660 0.8563387
vn 1.0000000 0.0000000 0.0000000
vt 0.4783379 4.4630408
v 1.0309319 -1.1731510 0.8078925
vn 1.0000000 0.0000000 0.0000000
vt 0.4783379 3.5860810
v 1.0309319 -1.1763051 0.8668123
vn 1.0000000 0.0000000 0.0000000
vt 0.4042921 3.5860810
v 1.0309319 -0.6294249 0.9462613
vn 1.0000000 0.0000000 0.0000000
vt 0.4042921 2.8115621
v 1.0309319 -0.6325232 0.8871959
vn 1.0000000 0.0000000 0.0000000
vt 0.4783379 2.8115621
v 1.0309319 0.6652394 1.0263550
vn 1.0000000 0.0000000 0.0000000
vt 0.4042921 0.9548836
v 1.0309319 0.0344831 0.9350806
vn 1.0000000 0.0000000 0.0000000
vt 0.4042921 1.8582610
v 1.0309319 0.6695061 0.9674794
vn 1.0000000 0.0000000 0.0000000
vt 0.4783379 0.9548836
v 1.0309319 0.0378080 0.8761590
vn 1.0000000 0.0000000 0.0000000
vt 0.4783379 1.8582610
v 0.7790598 1.8987250 0.5436494
vn -1.0000000 0.0000000 0.0000000
vt 0.4783380 -1.7357249
v 0.7790598 2.0283999 0.6971104
vn -1.0000000 0.0000000 0.0000000
vt 0.4783380 -1.4306200
v 0.7790598 1.9385639 0.4997751
vn -1.0000000 0.0000000 0.0000000
vt 0.4042922 -1.7357249
v 0.7790598 2.0804040 0.6754187
vn -1.0000000 0.0000000 0.0000000
vt 0.4042922 -1.4306200
v 0.7790598 -1.1335210 0.0584602
vn -1.0000000 0.0000000 0.0000000
vt 0.4783380 -6.2935629
v 0.7790598 1.2132840 0.0584602
vn -1.0000000 0.0000000 0.0000000
vt 0.4783380 -2.9372950
v 0.7790596 -1.1411990 0.0000000
vn -1.0000000 0.0000000 0.0000000
vt 0.4042922 -6.2935629
v 0.7790599 1.2303931 0.0000000
vn -1.0000000 0.0000000 0.0000000
vt 0.4042922 -2.8929410
v 0.7790598 -1.9287940 0.3475577
vn -1.0000000 0.0000000 0.0000000
vt 0.4783380 5.5126362
v 0.7790598 -1.9677770 0.3012022
vn -1.0000000 0.0000000 0.0000000
vt 0.4042922 5.5126362
v 0.7790598 -2.0274911 0.4482693
vn -1.0000000 0.0000000 0.0000000
vt 0.4783380 5.3051882
v 0.7790599 -2.0850661 0.4240930
vn -1.0000000 0.0000000 0.0000000
vt 0.4042922 5.3051882
v 0.7790598 -2.0630641 0.5902219
vn -1.0000000 0.0000000 0.0000000
vt 0.4783380 5.0958691
v 0.7790595 -2.1262901 0.5994820
vn -1.0000000 0.0000000 0.0000000
vt 0.4042922 5.0958691
v 0.7790598 -2.0269301 0.7241623
vn -1.0000000 0.0000000 0.0000000
vt 0.4783380 4.8996229
v 0.7790594 -2.0810220 0.7528172
vn -1.0000000 0.0000000 0.0000000
vt 0.4042922 4.8996229
v 0.7790598 -1.9260520 0.8258347
vn -1.0000000 0.0000000 0.0000000
vt 0.4783380 4.6787248
v 0.7790598 -1.9481890 0.8786967
vn -1.0000000 0.0000000 0.0000000
vt 0.4042922 4.6787248
v 0.7790598 -1.7878660 0.8563387
vn -1.0000000 0.0000000 0.0000000
vt 0.4783380 4.4630408
v 0.7790598 -1.7902310 0.9148466
vn -1.0000000 0.0000000 0.0000000
vt 0.4042922 4.4630408
v 0.7790599 -1.1763051 0.8668123
vn -1.0000000 0.0000000 0.0000000
vt 0.4042922 3.5860810
v 0.7790598 -1.1731510 0.8078925
vn -1.0000000 0.0000000 0.0000000
vt 0.4783380 3.5860810
v 0.7790598 -0.6325232 0.8871959
vn -1.0000000 0.0000000 0.0000000
vt 0.4783380 2.8115621
v 0.7790598 -0.6294249 0.9462613
vn -1.0000000 0.0000000 0.0000000
vt 0.4042922 2.8115621
v 0.7790598 0.0378080 0.8761590
vn -1.0000000 0.0000000 0.0000000
vt 0.4783380 1.8582610
v 0.7790598 0.0344831 0.9350804
vn -1.0000000 0.0000000 0.0000000
vt 0.4042922 1.8582610
v 0.7790598 0.6695061 0.9674794
vn -1.0000000 0.0000000 0.0000000
vt 0.4783380 0.9548836
v 0.7790598 0.6652394 1.0263550
vn -1.0000000 0.0000000 0.0000000
vt 0.4042922 0.9548836
v 1.0309319 0.6652394 1.0263550
vn 0.0000000 -0.0611128 0.9981309
vt 0.4042921 0.9548836
v 0.7790598 0.6652394 1.0263550
vn 0.0000000 -0.0611128 0.9981309
vt 0.0194265 0.9548836
v 1.0309319 0.0344831 0.9350806
vn 0.0000000 -0.0633919 0.9979887
vt 0.4042921 1.8582610
v 0.7790598 0.0344831 0.9350804
vn 0.0000000 -0.0633919 0.9979887
vt 0.0194265 1.8582610
v 1.0309319 -1.1763051 0.8668123
vn 0.0000000 0.0041019 0.9999916
vt 0.4042921 3.5860810
v 1.0309319 -0.6294249 0.9462613
vn 0.0000000 -0.0904930 0.9958971
vt 0.4042921 2.8115621
v 0.7790599 -1.1763051 0.8668123
vn 0.0000000 -0.0702293 0.9975309
vt 0.0194265 3.5860810
v 0.7790598 -0.6294249 0.9462613
vn 0.0000000 -0.0368029 0.9993225
vt 0.0194265 2.8115621
v 1.0309319 -1.7902310 0.9148466
vn 0.0000000 -0.1239876 0.9922838
vt 0.4042921 4.4630408
v 0.7790598 -1.7902310 0.9148466
vn 0.0000000 -0.0225914 0.9997448
vt 0.0194265 4.4630408
v 1.0309319 -1.9481890 0.8786967
vn 0.0000000 -0.5501970 0.8350349
vt 0.4042921 4.6787248
v 0.7790598 -1.9481890 0.8786967
vn 0.0000000 -0.3902568 0.9207061
vt 0.0194265 4.6787248
v 1.0309319 -2.0810220 0.7528172
vn 0.0000000 -0.8959165 0.4442225
vt 0.4042921 4.8996229
v 0.7790594 -2.0810220 0.7528172
vn 0.0000000 -0.8026730 0.5964193
vt 0.0194265 4.8996229
v 1.0309319 -2.1262901 0.5994820
vn 0.0000000 -0.9982025 -0.0599324
vt 0.4042921 5.0958691
v 0.7790595 -2.1262901 0.5994820
vn 0.0000000 -0.9932585 0.1159213
vt 0.0194265 5.0958691
v 1.0309319 -2.0850661 0.4240930
vn 0.0000000 -0.8326625 -0.5537808
vt 0.4042921 5.3051882
v 0.7790599 -2.0850661 0.4240930
vn 0.0000000 -0.9186942 -0.3949696
vt 0.0194265 5.3051882
v 1.0309319 -1.9677770 0.3012022
vn 0.0000000 -0.4805809 -0.8769504
vt 0.4042921 5.5126362
v 0.7790598 -1.9677770 0.3012022
vn 0.0000000 -0.6106212 -0.7919229
vt 0.0194265 5.5126362
v 1.0309330 -1.1411990 0.0000000
vn 0.0000000 -0.1738334 -0.9847751
vt 0.4042919 6.7035208
v 0.7790596 -1.1411990 0.0000000
vn 0.0000000 -0.1738334 -0.9847751
vt 0.0194262 6.7035208
v 1.0309330 -1.1411990 0.0000000
vn 0.0000000 -0.1738334 -0.9847751
vt 0.4042921 -6.2935629
v 0.7790596 -1.1411990 0.0000000
vn 0.0000000 -0.1738334 -0.9847751
vt 0.0194264 -6.2935629
v 1.0309310 1.2303931 0.0000000
vn 0.0000000 0.0000000 -1.0000000
vt 0.4042921 -2.8929410
v 0.7790599 1.2303931 0.0000000
vn 0.0000000 0.0000000 -1.0000000
vt 0.0194265 -2.8929410
v 1.0309319 1.9385639 0.4997751
vn 0.0000000 0.7169589 -0.6971155
vt 0.4042921 -1.7357249
v 1.0309310 1.2303931 0.0000000
vn 0.0000000 0.5765983 -0.8170279
vt 0.4042921 -2.8929410
v 0.7790598 1.9385639 0.4997751
vn 0.0000000 0.6492504 -0.7605748
vt 0.0194265 -1.7357249
v 0.7790599 1.2303931 0.0000000
vn 0.0000000 0.5765980 -0.8170280
vt 0.0194265 -2.8929410
v 0.7790598 2.0804040 0.6754187
vn 0.0000000 0.8609753 -0.5086468
vt 0.0194265 -1.4306200
v 1.0309319 2.0804040 0.6754187
vn 0.0000000 0.9269176 -0.3752650
vt 0.4042921 -1.4306200
v 1.0309319 2.1187470 0.8328038
vn 0.0000000 0.9943733 0.1059328
vt 0.4042921 -1.2211971
v 0.7790598 2.1187470 0.8328040
vn 0.0000000 0.9976201 -0.0689504
vt 0.0194265 -1.2211971
v 1.0309319 2.0745499 0.9887964
vn 0.0000000 0.8060279 0.5918776
vt 0.4042921 -1.0139270
v 0.7790597 2.0745499 0.9887964
vn 0.0000000 0.8996330 0.4366468
vt 0.0194265 -1.0139270
v 1.0309319 1.9526989 1.1049900
vn 0.0000000 0.4152293 0.9097168
vt 0.4042921 -0.8030877
v 0.7790598 1.9526989 1.1049900
vn 0.0000000 0.5623693 0.8268862
vt 0.0194265 -0.8030877
v 0.7790598 -1.1335210 0.0584602
vn -1.0000000 0.0000000 0.0000000
vt 0.4783675 6.7035208
v 0.7790596 -1.1411990 0.0000000
vn -1.0000000 0.0000000 0.0000000
vt 0.4043205 6.7035208
v 1.0309319 -1.1335210 0.0584602
vn 0.0000000 0.1734524 0.9848422
vt 0.4783377 6.7035208
v 0.7790598 -1.1335210 0.0584602
vn 0.0000000 0.1734523 0.9848423
vt 0.8645969 6.7035208
v 1.0309319 -1.1335210 0.0584602
vn 1.0000000 0.0000000 0.0000000
vt 0.4783377 6.7035208
v 1.0309330 -1.1411990 0.0000000
vn 1.0000000 0.0000000 0.0000000
vt 0.4042919 6.7035208
v 1.0309319 1.2405510 0.9552216
vn 1.0000000 0.0000000 0.0000000
vt 0.4783379 0.1836586
v 1.0309319 1.2385600 1.0140800
vn 1.0000000 0.0000000 0.0000000
vt 0.4042921 0.1836586
v 1.0309319 1.2405510 0.9552216
vn 0.0000000 0.1058187 -0.9943855
vt 0.4783379 0.1836586
v 0.7790598 1.2405510 0.9552216
vn 0.0000000 0.1058188 -0.9943855
vt 0.8645971 0.1836586
v 0.7790598 1.2385600 1.0140800
vn -1.0000000 0.0000000 0.0000000
vt 0.4042922 0.1836586
v 0.7790598 1.2405510 0.9552216
vn -1.0000000 0.0000000 0.0000000
vt 0.4783380 0.1836586
v 1.0309319 1.2385600 1.0140800
vn 0.0000000 -0.0622250 0.9980622
vt 0.4042921 0.1836586
v 0.7790598 1.2385600 1.0140800
vn 0.0000000 -0.1460061 0.9892837
vt 0.0194265 0.1836586
v 1.0309319 1.8011450 1.1459250
vn 1.0000000 0.0000000 0.0000000
vt 0.4042921 -0.5987824
v 1.0309319 1.7983410 1.0878830
vn 1.0000000 0.0000000 0.0000000
vt 0.4783379 -0.5987824
v 1.0309319 1.9526989 1.1049900
vn 1.0000000 0.0000000 0.0000000
vt 0.4042921 -0.8030877
v 1.0309319 1.9299999 1.0534080
vn 1.0000000 0.0000000 0.0000000
vt 0.4783379 -0.8030877
v 0.7790598 1.8011450 1.1459250
vn 0.0000000 0.1004865 0.9949384
vt 0.0194265 -0.5987824
v 1.0309319 1.8011450 1.1459250
vn 0.0000000 -0.0670011 0.9977529
vt 0.4042921 -0.5987824
v 0.7790598 1.9299999 1.0534080
vn -1.0000000 0.0000000 0.0000000
vt 0.4783380 -0.8030877
v 0.7790598 1.7983410 1.0878830
vn -1.0000000 0.0000000 0.0000000
vt 0.4783380 -0.5987824
v 0.7790598 1.9526989 1.1049900
vn -1.0000000 0.0000000 0.0000000
vt 0.4042922 -0.8030877
v 0.7790598 1.8011450 1.1459250
vn -1.0000000 0.0000000 0.0000000
vt 0.4042922 -0.5987824
v 1.0309319 1.7983410 1.0878830
vn 0.0000000 -0.0113039 -0.9999361
vt 0.4783379 -0.5987824
v 0.7790598 1.7983410 1.0878830
vn 0.0000000 -0.0113037 -0.9999361
vt 0.8645971 -0.5987824
v 1.0309319 1.9299999 1.0534080
vn 0.0000000 -0.4149207 -0.9098576
vt 0.4783379 -0.8030877
v 0.7790598 1.9299999 1.0534080
vn 0.0000000 -0.5687225 -0.8225295
vt 0.8645971 -0.8030877
v 1.0309319 2.0745499 0.9887964
vn 1.0000000 0.0000000 0.0000000
vt 0.4042921 -1.0139270
v 1.0309319 2.0258279 0.9592319
vn 1.0000000 0.0000000 0.0000000
vt 0.4783379 -1.0139270
v 0.7790598 2.0258279 0.9592319
vn -1.0000000 0.0000000 0.0000000
vt 0.4783380 -1.0139270
v 0.7790597 2.0745499 0.9887964
vn -1.0000000 0.0000000 0.0000000
vt 0.4042922 -1.0139270
v 1.0309319 2.0258279 0.9592319
vn 0.0000000 -0.8147956 -0.5797483
vt 0.4783379 -1.0139270
v 0.7790598 2.0258279 0.9592319
vn 0.0000000 -0.9060213 -0.4232322
vt 0.8645970 -1.0139270
v 0.7790598 2.0606980 0.8288518
vn -1.0000000 0.0000000 0.0000000
vt 0.4783380 -1.2211971
v 0.7790598 2.1187470 0.8328040
vn -1.0000000 0.0000000 0.0000000
vt 0.4042922 -1.2211971
v 1.0309319 2.0606980 0.8288518
vn 0.0000000 -0.9954267 -0.0955293
vt 0.4783379 -1.2211971
v 0.7790598 2.0606980 0.8288518
vn 0.0000000 -0.9972065 0.0746940
vt 0.8645971 -1.2211971
v 1.0309319 2.1187470 0.8328038
vn 1.0000000 0.0000000 0.0000000
vt 0.4042921 -1.2211971
v 1.0309319 2.0606980 0.8288518
vn 1.0000000 0.0000000 0.0000000
vt 0.4783379 -1.2211971
v 1.0309319 1.2132840 0.0584602
vn 0.0000000 -0.5777544 0.8162107
vt 0.4783379 -2.9372950
v 0.7790598 1.2132840 0.0584602
vn 0.0000000 -0.5777544 0.8162107
vt 0.8645971 -2.8929410

g group_4_140627938018640
f 1/1/1 2/2/2 3/3/3 
f 3/3/3 2/2/2 4/4/4 
f 5/5/5 6/6/6 7/7/7 
f 7/7/7 6/6/6 8/8/8 
f 9/9/9 10/10/10 11/11/11 
f 11/11/11 10/10/10 12/12/12 
f 9/9/9 13/13/13 10/10/10 
f 10/10/10 13/13/13 14/14/14 
f 15/15/15 16/16/16 13/13/13 
f 13/13/13 16/16/16 14/14/14 
f 17/17/17 18/18/18 19/19/19 
f 19/19/19 18/18/18 20/20/20 
f 21/21/21 22/22/22 23/23/23 
f 23/23/23 22/22/22 24/24/24 
f 25/25/25 26/26/26 27/27/27 
f 27/27/27 26/26/26 28/28/28 
f 29/29/29 30/30/30 26/26/26 
f 26/26/26 30/30/30 28/28/28 
f 17/17/17 31/31/31 18/18/18 
f 18/18/18 31/31/31 32/32/32 
f 1/1/1 3/3/3 33/33/33 
f 33/33/33 3/3/3 34/34/34 
f 35/35/35 36/36/36 37/37/37 
f 37/37/37 36/36/36 38/38/38 
f 39/39/39 40/40/40 41/41/41 
f 41/41/41 40/40/40 42/42/42 
f 43/43/43 44/44/44 45/45/45 
f 45/45/45 44/44/44 46/46/46 
f 47/47/47 43/43/43 48/48/48 
f 48/48/48 43/43/43 45/45/45 
f 49/49/49 47/47/47 50/50/50 
f 50/50/50 47/47/47 48/48/48 
f 51/51/51 49/49/49 52/52/52 
f 52/52/52 49/49/49 50/50/50 
f 53/53/53 51/51/51 54/54/54 
f 54/54/54 51/51/51 52/52/52 
f 55/55/55 53/53/53 56/56/56 
f 56/56/56 53/53/53 54/54/54 
f 57/57/57 55/55/55 58/58/58 
f 58/58/58 55/55/55 56/56/56 
f 59/59/59 60/60/60 61/61/61 
f 61/61/61 60/60/60 62/62/62 
f 63/63/63 64/64/64 65/65/65 
f 65/65/65 64/64/64 66/66/66 
f 67/67/67 68/68/68 69/69/69 
f 69/69/69 68/68/68 70/70/70 
f 71/71/71 72/72/72 73/73/73 
f 73/73/73 72/72/72 74/74/74 
f 75/75/75 71/71/71 76/76/76 
f 76/76/76 71/71/71 73/73/73 
f 77/77/77 75/75/75 78/78/78 
f 78/78/78 75/75/75 76/76/76 
f 79/79/79 77/77/77 80/80/80 
f 80/80/80 77/77/77 78/78/78 
f 81/81/81 79/79/79 82/82/82 
f 82/82/82 79/79/79 80/80/80 
f 83/83/83 84/84/84 82/82/82 
f 82/82/82 84/84/84 81/81/81 
f 85/85/85 84/84/84 86/86/86 
f 86/86/86 84/84/84 83/83/83 
f 87/87/87 88/88/88 89/89/89 
f 89/89/89 88/88/88 90/90/90 
f 91/91/91 92/92/92 93/93/93 
f 93/93/93 92/92/92 94/94/94 
f 95/95/95 96/96/96 97/97/97 
f 97/97/97 96/96/96 98/98/98 
f 99/99/99 100/100/100 101/101/101 
f 101/101/101 100/100/100 102/102/102 
f 101/101/101 102/102/102 103/103/103 
f 103/103/103 102/102/102 104/104/104 
f 103/103/103 104/104/104 105/105/105 
f 105/105/105 104/104/104 106/106/106 
f 105/105/105 106/106/106 107/107/107 
f 107/107/107 106/106/106 108/108/108 
f 107/107/107 108/108/108 109/109/109 
f 109/109/109 108/108/108 110/110/110 
f 110/110/110 111/111/111 109/109/109 
f 109/109/109 111/111/111 112/112/112 
f 112/112/112 111/111/111 113/113/113 
f 113/113/113 111/111/111 114/114/114 
f 115/115/115 116/116/116 117/117/117 
f 117/117/117 116/116/116 118/118/118 
f 119/119/119 120/120/120 121/121/121 
f 121/121/121 120/120/120 122/122/122 
f 123/123/123 124/124/124 125/125/125 
f 125/125/125 124/124/124 126/126/126 
f 127/127/127 123/123/123 128/128/128 
f 128/128/128 123/123/123 125/125/125 
f 129/129/129 127/127/127 130/130/130 
f 130/130/130 127/127/127 128/128/128 
f 131/131/131 129/129/129 132/132/132 
f 132/132/132 129/129/129 130/130/130 
f 133/133/133 131/131/131 134/134/134 
f 134/134/134 131/131/131 132/132/132 
f 135/135/135 133/133/133 136/136/136 
f 136/136/136 133/133/133 134/134/134 
f 137/137/137 135/135/135 138/138/138 
f 138/138/138 135/135/135 136/136/136 
f 139/139/139 137/137/137 140/140/140 
f 140/140/140 137/137/137 138/138/138 
f 141/141/141 142/142/142 143/143/143 
f 143/143/143 142/142/142 144/144/144 
f 145/145/145 146/146/146 147/147/147 
f 147/147/147 146/146/146 148/148/148 
f 147/147/147 149/149/149 145/145/145 
f 145/145/145 149/149/149 150/150/150 
f 151/151/151 150/150/150 152/152/152 
f 152/152/152 150/150/150 149/149/149 
f 153/153/153 151/151/151 154/154/154 
f 154/154/154 151/151/151 152/152/152 
f 155/155/155 153/153/153 156/156/156 
f 156/156/156 153/153/153 154/154/154 
f 157/157/157 158/158/158 99/99/99 
f 99/99/99 158/158/158 100/100/100 
f 159/159/159 160/160/160 44/44/44 
f 44/44/44 160/160/160 46/46/46 
f 161/161/161 74/74/74 162/162/162 
f 162/162/162 74/74/74 72/72/72 
f 90/90/90 88/88/88 86/86/86 
f 86/86/86 88/88/88 85/85/85 
f 58/58/58 62/62/62 57/57/57 
f 57/57/57 62/62/62 60/60/60 
f 115/115/115 113/113/113 116/116/116 
f 116/116/116 113/113/113 114/114/114 
f 124/124/124 121/121/121 126/126/126 
f 126/126/126 121/121/121 122/122/122 
f 29/29/29 11/11/11 30/30/30 
f 30/30/30 11/11/11 12/12/12 
f 163/163/163 164/164/164 89/89/89 
f 89/89/89 164/164/164 87/87/87 
f 59/59/59 61/61/61 165/165/165 
f 165/165/165 61/61/61 166/166/166 
f 118/118/118 167/167/167 117/117/117 
f 117/117/117 167/167/167 168/168/168 
f 119/119/119 169/169/169 120/120/120 
f 120/120/120 169/169/169 170/170/170 
f 171/171/171 172/172/172 173/173/173 
f 173/173/173 172/172/172 174/174/174 
f 156/156/156 175/175/175 155/155/155 
f 155/155/155 175/175/175 176/176/176 
f 177/177/177 178/178/178 179/179/179 
f 179/179/179 178/178/178 180/180/180 
f 181/181/181 182/182/182 183/183/183 
f 183/183/183 182/182/182 184/184/184 
f 173/173/173 174/174/174 185/185/185 
f 185/185/185 174/174/174 186/186/186 
f 187/187/187 177/177/177 188/188/188 
f 188/188/188 177/177/177 179/179/179 
f 183/183/183 184/184/184 189/189/189 
f 189/189/189 184/184/184 190/190/190 
f 191/191/191 187/187/187 192/192/192 
f 192/192/192 187/187/187 188/188/188 
f 189/189/189 190/190/190 193/193/193 
f 193/193/193 190/190/190 194/194/194 
f 185/185/185 186/186/186 195/195/195 
f 195/195/195 186/186/186 196/196/196 
f 92/92/92 191/191/191 94/94/94 
f 94/94/94 191/191/191 192/192/192 
f 193/193/193 194/194/194 36/36/36 
f 36/36/36 194/194/194 38/38/38 
f 195/195/195 196/196/196 63/63/63 
f 63/63/63 196/196/196 64/64/64 
f 169/169/169 176/176/176 170/170/170 
f 170/170/170 176/176/176 175/175/175 
f 168/168/168 167/167/167 178/178/178 
f 178/178/178 167/167/167 180/180/180 
f 181/181/181 165/165/165 182/182/182 
f 182/182/182 165/165/165 166/166/166 
f 171/171/171 164/164/164 172/172/172 
f 172/172/172 164/164/164 163/163/163 
f 35/35/35 37/37/37 197/197/197 
f 197/197/197 37/37/37 198/198/198 
f 66/66/66 68/68/68 65/65/65 
f 65/65/65 68/68/68 67/67/67 
f 91/91/91 93/93/93 96/96/96 
f 96/96/96 93/93/93 98/98/98 
