v 0.0102881 0.7401337 1.8704910
vn 1.0000000 0.0000000 0.0000000
vt 0.2515254 0.8669451
v 0.0102881 0.7400513 1.6638870
vn 1.0000000 0.0000000 0.0000000
vt 0.2844408 0.8669451
v 0.0102881 0.9082919 1.8704230
vn 1.0000000 0.0000000 0.0000000
vt 0.2515254 0.8937135
v 0.0102881 1.0668330 1.7521530
vn 1.0000000 0.0000000 0.0000000
vt 0.2703579 0.9189577
v 0.0102881 1.0506850 1.6637630
vn 1.0000000 0.0000000 0.0000000
vt 0.2844408 0.9163928
v 0.0102881 1.0668020 1.6759380
vn 1.0000000 0.0000000 0.0000000
vt 0.2824998 0.9189577
v 0.0102881 0.7400513 1.6638870
vn 0.0000000 -0.0003989 -0.9999999
vt 0.2844408 0.8669451
v -0.1235785 0.7400513 1.6638870
vn 0.0000000 -0.0003990 -0.9999999
vt 0.3057663 0.8669451
v 0.0102881 1.0506850 1.6637630
vn 0.0000000 0.0368582 -0.9993205
vt 0.2844408 0.9163928
v -0.1235785 1.0506850 1.6637630
vn 0.0000000 0.0368579 -0.9993205
vt 0.3057665 0.9163929
v -0.1235785 0.7401337 1.8704910
vn -1.0000000 0.0000000 0.0000000
vt 0.2515254 0.8669451
v -0.1235785 0.9082919 1.8704230
vn -1.0000000 0.0000000 0.0000000
vt 0.2515254 0.8937135
v -0.1235785 0.7400513 1.6638870
vn -1.0000000 0.0000000 0.0000000
vt 0.2844408 0.8669454
v -0.1235785 1.0506850 1.6637630
vn -1.0000000 0.0000000 0.0000000
vt 0.2844403 0.9163930
v -0.1235785 1.0668319 1.7521530
vn -1.0000000 0.0000000 0.0000000
vt 0.2703574 0.9189577
v -0.1235785 1.0668020 1.6759380
vn -1.0000000 0.0000000 0.0000000
vt 0.2824998 0.9189577
v 0.0102881 1.0668330 1.7521530
vn 0.0000000 0.5979441 0.8015378
vt 0.2515250 0.9191552
v -0.1235785 1.0668319 1.7521530
vn 0.0000000 0.5979441 0.8015378
vt 0.2301995 0.9191550
v 0.0102881 0.9082919 1.8704230
vn 0.0000000 0.5979441 0.8015378
vt 0.2515254 0.8937135
v -0.1235785 0.9082919 1.8704230
vn 0.0000000 0.5979441 0.8015378
vt 0.2302000 0.8937132
v 0.0102881 0.9082919 1.8704230
vn 0.0000000 0.0003993 0.9999999
vt 0.2515254 0.8937135
v -0.1235785 0.9082919 1.8704230
vn 0.0000000 0.0003996 0.9999999
vt 0.2302000 0.8937132
v 0.0102881 0.7401337 1.8704910
vn 0.0000000 0.0003998 0.9999999
vt 0.2515254 0.8669451
v -0.1235785 0.7401337 1.8704910
vn 0.0000000 0.0004002 0.9999999
vt 0.2302000 0.8669450
v 0.0102881 1.0668330 1.7521530
vn 0.0000000 0.9999999 -0.0004044
vt 0.2515250 0.9191552
v 0.0102881 1.0668020 1.6759380
vn 0.0000000 0.9837191 -0.1797130
vt 0.2515250 0.9312881
v -0.1235785 1.0668319 1.7521530
vn 0.0000000 0.9999999 -0.0004044
vt 0.2301995 0.9191550
v -0.1235785 1.0668020 1.6759380
vn 0.0000000 0.9837190 -0.1797136
vt 0.2301995 0.9312881
v -0.1235785 1.0668020 1.6759380
vn 0.0000000 0.9837190 -0.1797136
vt 0.3057663 0.9189577
v 0.0102881 1.0668020 1.6759380
vn 0.0000000 0.9837191 -0.1797130
vt 0.2844408 0.9189577
v -0.2606080 0.7414270 1.6541220
vn 0.0000000 0.9999999 -0.0003985
vt 0.5227126 0.9291986
v -0.2606080 0.7415271 1.9053210
vn 0.0000000 0.9999999 -0.0003985
vt 0.4826926 0.9291986
v 0.0725465 0.7414270 1.6541220
vn 0.0000000 0.9999999 -0.0003985
vt 0.5227126 0.8761652
v 0.0725465 0.7415271 1.9053210
vn 0.0000000 0.9999999 -0.0003985
vt 0.4826924 0.8761654
v -0.0940307 0.4050512 1.7797329
vn 0.0000000 -0.3496800 0.9368692
vt 0.4583763 0.9026821
v 0.0725465 0.7415271 1.9053210
vn 0.0000000 -0.3496799 0.9368693
vt 0.4793994 0.8761654
v -0.2606080 0.7415271 1.9053210
vn 0.0000000 -0.3496799 0.9368693
vt 0.4793998 0.9291986
v -0.0940307 0.4050512 1.7797329
vn 0.8961630 -0.4437248 0.0001768
vt 0.5027087 0.8548247
v 0.0725465 0.7414270 1.6541220
vn 0.8961630 -0.4437248 0.0001768
vt 0.5227126 0.8761652
v 0.0725465 0.7415271 1.9053210
vn 0.8961630 -0.4437248 0.0001768
vt 0.4826924 0.8761654
v -0.0940307 0.4050512 1.7797329
vn 0.0000000 -0.3498295 -0.9368134
vt 0.4583764 0.9026814
v -0.2606080 0.7414270 1.6541220
vn 0.0000000 -0.3498295 -0.9368134
vt 0.4793998 0.9291986
v 0.0725465 0.7414270 1.6541220
vn 0.0000000 -0.3498295 -0.9368134
vt 0.4793998 0.8761654
v -0.0940307 0.4050512 1.7797329
vn -0.8961631 -0.4437249 0.0001768
vt 0.5027088 0.8548244
v -0.2606080 0.7415271 1.9053210
vn -0.8961630 -0.4437248 0.0001768
vt 0.4826924 0.8761654
v -0.2606080 0.7414270 1.6541220
vn -0.8961630 -0.4437249 0.0001768
vt 0.5227126 0.8761656
v -0.0796800 1.6013840 1.8132581
vn -0.7071027 0.0002786 0.7071108
vt 0.5028884 0.5524225
v -0.0796800 1.5858840 1.8132640
vn -0.7071062 0.0002788 0.7071074
vt 0.5003260 0.5524327
v -0.0566452 1.6013880 1.8228000
vn 0.0000000 0.0003938 0.9999999
vt 0.5028883 0.5473834
v -0.0566452 1.5858870 1.8228060
vn 0.0000000 0.0003937 0.9999999
vt 0.5003260 0.5473834
v -0.0336105 1.6013840 1.8132581
vn 0.7071143 0.0002784 0.7070993
vt 0.5028884 0.5423430
v -0.0336105 1.5858840 1.8132640
vn 0.7071179 0.0002784 0.7070956
vt 0.5003260 0.5423337
v -0.0240692 1.6013750 1.7902240
vn 1.0000000 0.0000000 0.0000000
vt 0.5028884 0.5372738
v -0.0240692 1.5858740 1.7902300
vn 1.0000000 0.0000000 0.0000000
vt 0.5003260 0.5372745
v -0.0336105 1.6013650 1.7671890
vn 0.7071009 -0.0002785 -0.7071127
vt 0.5028884 0.5322011
v -0.0336105 1.5858650 1.7671950
vn 0.7071046 -0.0002819 -0.7071089
vt 0.5003260 0.5322191
v -0.0566452 1.6013620 1.7576480
vn 0.0000000 -0.0004099 -0.9999999
vt 0.5028884 0.5271692
v -0.0566452 1.5858610 1.7576540
vn 0.0000000 -0.0004134 -0.9999999
vt 0.5003260 0.5271694
v -0.0566452 1.6013620 1.7576480
vn 0.0000000 -0.0004099 -0.9999999
vt 0.5028884 0.5675948
v -0.0566452 1.5858610 1.7576540
vn 0.0000000 -0.0004134 -0.9999999
vt 0.5003260 0.5675950
v -0.0796800 1.6013650 1.7671890
vn -0.7071038 -0.0002927 -0.7071097
vt 0.5028883 0.5625629
v -0.0796800 1.5858650 1.7671950
vn -0.7071108 -0.0002911 -0.7071028
vt 0.5003260 0.5625457
v -0.0892213 1.6013750 1.7902240
vn -1.0000000 0.0000000 0.0000000
vt 0.5028884 0.5574908
v -0.0892213 1.5858740 1.7902300
vn -1.0000000 0.0000000 0.0000000
vt 0.5003260 0.5574911
v -0.0771717 1.5825599 1.7697051
vn -0.4924208 -0.7316212 -0.4714364
vt 0.4995407 0.5625434
v -0.0796800 1.5858650 1.7671950
vn -0.4917419 -0.7316304 -0.4721302
vt 0.5003260 0.5625457
v -0.0566452 1.5825560 1.7612020
vn -0.0146359 -0.7316853 -0.6814854
vt 0.4995407 0.5675958
v -0.0566452 1.5858610 1.7576540
vn -0.0136730 -0.7316923 -0.6814980
vt 0.5003260 0.5675950
v -0.0566452 1.5825560 1.7612020
vn -0.0146359 -0.7316853 -0.6814854
vt 0.4995407 0.5271704
v -0.0566452 1.5858610 1.7576540
vn -0.0136730 -0.7316923 -0.6814980
vt 0.5003260 0.5271694
v -0.0361187 1.5825599 1.7697051
vn 0.4717064 -0.7316206 -0.4921629
vt 0.4995407 0.5322223
v -0.0336105 1.5858650 1.7671950
vn 0.4723876 -0.7316288 -0.4914969
vt 0.5003260 0.5322191
v -0.0276164 1.5825680 1.7902310
vn 0.6817724 -0.7314232 -0.0143712
vt 0.4995407 0.5372767
v -0.0240692 1.5858740 1.7902300
vn 0.6817846 -0.7314304 -0.0133954
vt 0.5003260 0.5372745
v -0.0361187 1.5825760 1.8107580
vn 0.4924440 -0.7312059 0.4720559
vt 0.4995407 0.5423290
v -0.0336105 1.5858840 1.8132640
vn 0.4917770 -0.7312137 0.4727388
vt 0.5003260 0.5423337
v -0.0566452 1.5825790 1.8192600
vn 0.0146433 -0.7311037 0.6821093
vt 0.4995407 0.5473834
v -0.0566452 1.5858870 1.8228060
vn 0.0136815 -0.7311167 0.6821153
vt 0.5003260 0.5473834
v -0.0771717 1.5825760 1.8107580
vn -0.4717517 -0.7312011 0.4927426
vt 0.4995407 0.5524361
v -0.0796800 1.5858840 1.8132640
vn -0.4724454 -0.7312148 0.4920572
vt 0.5003260 0.5524327
v -0.0856741 1.5825680 1.7902310
vn -0.6817715 -0.7314131 0.0149174
vt 0.4995407 0.5574886
v -0.0892213 1.5858740 1.7902300
vn -0.6817774 -0.7314264 0.0139634
vt 0.5003260 0.5574911
v -0.0838262 0.9498451 1.7632680
vn -0.7062138 0.0146289 -0.7078475
vt 0.3869648 0.5629259
v -0.0771717 1.5825599 1.7697051
vn -0.7056408 0.0146287 -0.7084188
vt 0.4995407 0.5625434
v -0.0566452 0.9498407 1.7520090
vn 0.0011455 0.0145288 -0.9998938
vt 0.3868740 0.5682226
v -0.0566452 1.5825560 1.7612020
vn 0.0019624 0.0145287 -0.9998926
vt 0.4995407 0.5675958
v -0.0566452 0.9498407 1.7520090
vn 0.0011455 0.0145288 -0.9998938
vt 0.3868740 0.5265446
v -0.0566452 1.5825560 1.7612020
vn 0.0019624 0.0145287 -0.9998926
vt 0.4995407 0.5271704
v -0.0294643 0.9498451 1.7632680
vn 0.7078309 0.0146295 -0.7062304
vt 0.3869648 0.5318410
v -0.0361187 1.5825599 1.7697051
vn 0.7084188 0.0146297 -0.7056407
vt 0.4995407 0.5322223
v -0.0182055 0.9498560 1.7904490
vn 0.9998888 0.0148726 0.0011200
vt 0.3871543 0.5371459
v -0.0276164 1.5825680 1.7902310
vn 0.9998875 0.0148728 0.0019780
vt 0.4995407 0.5372767
v -0.0294643 0.9498668 1.8176301
vn 0.7062292 0.0151154 0.7078219
vt 0.3871858 0.5423263
v -0.0361187 1.5825760 1.8107580
vn 0.7056302 0.0151153 0.7084190
vt 0.4995407 0.5423290
v -0.0566452 0.9498713 1.8288881
vn -0.0011398 0.0152153 0.9998836
vt 0.3871862 0.5473835
v -0.0566452 1.5825790 1.8192600
vn -0.0019695 0.0152154 0.9998823
vt 0.4995407 0.5473834
v -0.0838262 0.9498668 1.8176301
vn -0.7078419 0.0151145 0.7062092
vt 0.3871858 0.5524403
v -0.0771717 1.5825760 1.8107580
vn -0.7084156 0.0151147 0.7056338
vt 0.4995407 0.5524361
v -0.0950849 0.9498560 1.7904490
vn -0.9998888 0.0148716 -0.0011597
vt 0.3871543 0.5576208
v -0.0856741 1.5825680 1.7902310
vn -0.9998875 0.0148715 -0.0019612
vt 0.4995407 0.5574886
v -0.0756511 1.6013750 1.7902240
vn 0.0000000 0.9999999 -0.0003967
vt 0.3956300 0.3598857
v -0.0892213 1.6013750 1.7902240
vn 0.0000000 0.9999999 -0.0003991
vt 0.3931680 0.3599126
v -0.0700844 1.6013800 1.8036630
vn 0.0000000 0.9999999 -0.0004067
vt 0.3966151 0.3574390
v -0.0796800 1.6013840 1.8132581
vn 0.0000000 0.9999999 -0.0004033
vt 0.3948562 0.3557168
v -0.0566452 1.6013820 1.8092300
vn 0.0000000 0.9999999 -0.0004029
vt 0.3990448 0.3564055
v -0.0566452 1.6013880 1.8228000
vn 0.0000000 0.9999999 -0.0004057
vt 0.3990206 0.3539442
v -0.0432061 1.6013800 1.8036630
vn 0.0000000 0.9999999 -0.0004105
vt 0.4014940 0.3573908
v -0.0336105 1.6013840 1.8132581
vn 0.0000000 0.9999999 -0.0004115
vt 0.4032182 0.3556343
v -0.0376394 1.6013750 1.7902240
vn 0.0000000 0.9999999 -0.0004110
vt 0.4025274 0.3598171
v -0.0240692 1.6013750 1.7902240
vn 0.0000000 0.9999999 -0.0003995
vt 0.4049889 0.3597940
v -0.0432061 1.6013690 1.7767850
vn 0.0000000 0.9999999 -0.0003810
vt 0.4015411 0.3622616
v -0.0336105 1.6013650 1.7671890
vn 0.0000000 0.9999999 -0.0003891
vt 0.4032974 0.3639840
v -0.0566452 1.6013670 1.7712179
vn 0.0000000 0.9999999 -0.0004133
vt 0.3991138 0.3632929
v -0.0566452 1.6013620 1.7576480
vn 0.0000000 0.9999999 -0.0004090
vt 0.3991377 0.3657508
v -0.0700844 1.6013690 1.7767850
vn 0.0000000 0.9999999 -0.0003900
vt 0.3966669 0.3623085
v -0.0796800 1.6013650 1.7671890
vn 0.0000000 0.9999999 -0.0003881
vt 0.3949465 0.3640646
v -0.0756511 1.6013750 1.7902240
vn 0.9977485 0.0670671 0.0000000
vt 0.6465642 0.4686910
v -0.0700844 1.6013800 1.8036630
vn 0.7055190 0.0667865 -0.7055371
vt 0.6465115 0.4707276
v -0.0566452 1.3186280 1.7903360
vn 0.0000000 0.9999999 -0.0004348
vt 0.6068439 0.4686908
v -0.0566452 1.6013820 1.8092300
vn 0.0000000 0.0666706 -0.9977751
vt 0.6463548 0.4727589
v -0.0432061 1.6013800 1.8036630
vn -0.7055199 0.0667865 -0.7055361
vt 0.6465117 0.4707278
v -0.0376394 1.6013750 1.7902240
vn -0.9977485 0.0670669 0.0000000
vt 0.6465641 0.4686908
v -0.0432061 1.6013690 1.7767850
vn -0.7055069 0.0673484 0.7054958
vt 0.6465120 0.4666542
v -0.0566452 1.6013670 1.7712179
vn 0.0000000 0.0674643 0.9977217
vt 0.6463548 0.4646229
v -0.0700844 1.6013690 1.7767850
vn 0.7055064 0.0673485 0.7054961
vt 0.6465115 0.4666541
v -0.0566452 1.3186280 1.7903360
vn 0.0000000 0.9999999 -0.0004348
vt 0.6068439 0.4686908
v -0.0566452 1.3186280 1.7903360
vn 0.0000000 0.9999999 -0.0004348
vt 0.6068439 0.4686908
v -0.0566452 1.3186280 1.7903360
vn 0.0000000 0.9999999 -0.0004348
vt 0.6068439 0.4686908
v -0.0566452 1.6013820 1.8092300
vn 0.0000000 0.0666706 -0.9977751
vt 0.6463548 0.4727589
v -0.0566452 1.6013670 1.7712179
vn 0.0000000 0.0674643 0.9977217
vt 0.6463548 0.4646229

g group_126_140627856288352
f 1/1/1 2/2/2 3/3/3 
f 4/4/4 3/3/3 5/5/5 
f 5/5/5 3/3/3 2/2/2 
f 4/4/4 5/5/5 6/6/6 
f 7/7/7 8/8/8 9/9/9 
f 9/9/9 8/8/8 10/10/10 
f 11/11/11 12/12/12 13/13/13 
f 13/13/13 12/12/12 14/14/14 
f 14/14/14 12/12/12 15/15/15 
f 15/15/15 16/16/16 14/14/14 
f 17/17/17 18/18/18 19/19/19 
f 19/19/19 18/18/18 20/20/20 
f 21/21/21 22/22/22 23/23/23 
f 23/23/23 22/22/22 24/24/24 
f 25/25/25 26/26/26 27/27/27 
f 27/27/27 26/26/26 28/28/28 
f 29/29/29 30/30/30 10/10/10 
f 10/10/10 30/30/30 9/9/9 
f 31/31/31 32/32/32 33/33/33 
f 33/33/33 32/32/32 34/34/34 
f 35/35/35 36/36/36 37/37/37 
f 38/38/38 39/39/39 40/40/40 
f 41/41/41 42/42/42 43/43/43 
f 44/44/44 45/45/45 46/46/46 
f 47/47/47 48/48/48 49/49/49 
f 49/49/49 48/48/48 50/50/50 
f 49/49/49 50/50/50 51/51/51 
f 51/51/51 50/50/50 52/52/52 
f 51/51/51 52/52/52 53/53/53 
f 53/53/53 52/52/52 54/54/54 
f 53/53/53 54/54/54 55/55/55 
f 55/55/55 54/54/54 56/56/56 
f 55/55/55 56/56/56 57/57/57 
f 57/57/57 56/56/56 58/58/58 
f 59/59/59 60/60/60 61/61/61 
f 61/61/61 60/60/60 62/62/62 
f 61/61/61 62/62/62 63/63/63 
f 63/63/63 62/62/62 64/64/64 
f 63/63/63 64/64/64 47/47/47 
f 47/47/47 64/64/64 48/48/48 
f 65/65/65 66/66/66 67/67/67 
f 67/67/67 66/66/66 68/68/68 
f 69/69/69 70/70/70 71/71/71 
f 71/71/71 70/70/70 72/72/72 
f 71/71/71 72/72/72 73/73/73 
f 73/73/73 72/72/72 74/74/74 
f 73/73/73 74/74/74 75/75/75 
f 75/75/75 74/74/74 76/76/76 
f 75/75/75 76/76/76 77/77/77 
f 77/77/77 76/76/76 78/78/78 
f 77/77/77 78/78/78 79/79/79 
f 79/79/79 78/78/78 80/80/80 
f 79/79/79 80/80/80 81/81/81 
f 81/81/81 80/80/80 82/82/82 
f 81/81/81 82/82/82 65/65/65 
f 65/65/65 82/82/82 66/66/66 
f 83/83/83 84/84/84 85/85/85 
f 85/85/85 84/84/84 86/86/86 
f 87/87/87 88/88/88 89/89/89 
f 89/89/89 88/88/88 90/90/90 
f 89/89/89 90/90/90 91/91/91 
f 91/91/91 90/90/90 92/92/92 
f 91/91/91 92/92/92 93/93/93 
f 93/93/93 92/92/92 94/94/94 
f 93/93/93 94/94/94 95/95/95 
f 95/95/95 94/94/94 96/96/96 
f 95/95/95 96/96/96 97/97/97 
f 97/97/97 96/96/96 98/98/98 
f 97/97/97 98/98/98 99/99/99 
f 99/99/99 98/98/98 100/100/100 
f 99/99/99 100/100/100 83/83/83 
f 83/83/83 100/100/100 84/84/84 
f 101/101/101 102/102/102 103/103/103 
f 103/103/103 102/102/102 104/104/104 
f 103/103/103 104/104/104 105/105/105 
f 105/105/105 104/104/104 106/106/106 
f 105/105/105 106/106/106 107/107/107 
f 107/107/107 106/106/106 108/108/108 
f 107/107/107 108/108/108 109/109/109 
f 109/109/109 108/108/108 110/110/110 
f 109/109/109 110/110/110 111/111/111 
f 111/111/111 110/110/110 112/112/112 
f 111/111/111 112/112/112 113/113/113 
f 113/113/113 112/112/112 114/114/114 
f 113/113/113 114/114/114 115/115/115 
f 115/115/115 114/114/114 116/116/116 
f 115/115/115 116/116/116 101/101/101 
f 101/101/101 116/116/116 102/102/102 
f 117/117/117 118/118/118 119/119/119 
f 118/118/118 120/120/120 119/119/119 
f 129/129/129 121/121/121 126/126/126 
f 121/121/121 122/122/122 119/119/119 
f 122/122/122 123/123/123 119/119/119 
f 123/123/123 124/124/124 119/119/119 
f 130/130/130 125/125/125 127/127/127 
f 125/125/125 117/117/117 128/128/128 
