v -0.2018613 0.7755785 1.8503129
vn 0.0000000 0.1177317 0.9930455
vt 0.4514557 0.8492262
v -0.2018613 0.6444550 1.8658580
vn 0.0000000 0.1177317 0.9930455
vt 0.4516062 0.8682156
v 0.0591060 0.7755785 1.8503129
vn 0.0000000 0.1177317 0.9930455
vt 0.4140755 0.8492260
v 0.0591060 0.6444550 1.8658580
vn 0.0000000 0.1177317 0.9930455
vt 0.4139245 0.8682154
v -0.2018613 0.7755785 1.6610770
vn 0.0000000 1.0000000 0.0000000
vt 0.4514222 0.8225557
v -0.2018613 0.7755785 1.8503129
vn 0.0000000 1.0000000 0.0000000
vt 0.4514557 0.8492262
v 0.0591060 0.7755785 1.6610770
vn 0.0000000 1.0000000 0.0000000
vt 0.4141088 0.8225555
v 0.0591060 0.7755785 1.8503129
vn 0.0000000 1.0000000 0.0000000
vt 0.4140755 0.8492260
v -0.2018613 0.6705016 1.6610770
vn 0.0000000 0.0000000 -1.0000000
vt 0.4515222 0.8074914
v -0.2018613 0.7755785 1.6610770
vn 0.0000000 0.0000000 -1.0000000
vt 0.4514222 0.8225557
v 0.0591060 0.6705016 1.6610770
vn 0.0000000 0.0000000 -1.0000000
vt 0.4140089 0.8074914
v 0.0591060 0.7755785 1.6610770
vn 0.0000000 0.0000000 -1.0000000
vt 0.4141088 0.8225555
v 0.0591060 0.7755785 1.6610770
vn 1.0000000 0.0000000 0.0000000
vt 0.4141088 0.8225555
v 0.0591060 0.7755785 1.8503129
vn 1.0000000 0.0000000 0.0000000
vt 0.4140755 0.8492260
v 0.0591060 0.6705016 1.6610770
vn 1.0000000 0.0000000 0.0000000
vt 0.3996151 0.8226764
v 0.0591060 0.6444550 1.8658580
vn 1.0000000 0.0000000 0.0000000
vt 0.3959951 0.8512479
v -0.2018613 0.7755785 1.6610770
vn -1.0000000 0.0000000 0.0000000
vt 0.4514222 0.8225557
v -0.2018613 0.6705016 1.6610770
vn -1.0000000 0.0000000 0.0000000
vt 0.4659158 0.8226765
v -0.2018613 0.7755785 1.8503129
vn -1.0000000 0.0000000 0.0000000
vt 0.4514557 0.8492262
v -0.2018613 0.6444550 1.8658580
vn -1.0000000 0.0000000 0.0000000
vt 0.4695359 0.8512480
v -0.0796800 1.5935600 1.8035229
vn -0.7971792 0.0002405 0.6037427
vt 0.5028884 0.5524225
v -0.0796800 1.5780590 1.8035290
vn -0.6037557 0.0003203 0.7971693
vt 0.5003260 0.5524327
v -0.0566452 1.5935630 1.8130640
vn -0.1367740 0.0004031 0.9906022
vt 0.5028883 0.5473834
v -0.0566452 1.5780630 1.8130710
vn 0.1367805 0.0004032 0.9906013
vt 0.5003260 0.5473834
v -0.0336105 1.5935600 1.8035229
vn 0.6037512 0.0003205 0.7971728
vt 0.5028884 0.5423430
v -0.0336105 1.5780590 1.8035290
vn 0.7971752 0.0002405 0.6037481
vt 0.5003260 0.5423337
v -0.0240692 1.5935500 1.7804880
vn 0.9906023 0.0000000 0.1367742
vt 0.5028884 0.5372738
v -0.0240692 1.5780500 1.7804940
vn 0.9906019 0.0000000 -0.1367768
vt 0.5003260 0.5372745
v -0.0336105 1.5935410 1.7574530
vn 0.7971748 -0.0002496 -0.6037487
vt 0.5028884 0.5322011
v -0.0336105 1.5780410 1.7574600
vn 0.6037465 -0.0003296 -0.7971764
vt 0.5003260 0.5322191
v -0.0566452 1.5935370 1.7479120
vn 0.1367687 -0.0004096 -0.9906029
vt 0.5028884 0.5271692
v -0.0566452 1.5780370 1.7479180
vn -0.1367681 -0.0004031 -0.9906030
vt 0.5003260 0.5271694
v -0.0566452 1.5935370 1.7479120
vn 0.1367687 -0.0004096 -0.9906029
vt 0.5028884 0.5675948
v -0.0566452 1.5780370 1.7479180
vn -0.1367681 -0.0004031 -0.9906030
vt 0.5003260 0.5675950
v -0.0796800 1.5935410 1.7574530
vn -0.6037425 -0.0003205 -0.7971793
vt 0.5028883 0.5625629
v -0.0796800 1.5780410 1.7574590
vn -0.7971706 -0.0002404 -0.6037540
vt 0.5003260 0.5625457
v -0.0892213 1.5935500 1.7804880
vn -0.9906030 0.0000000 -0.1367692
vt 0.5028884 0.5574908
v -0.0892213 1.5780500 1.7804940
vn -0.9906020 0.0000000 0.1367759
vt 0.5003260 0.5574911
v -0.0771717 1.5747360 1.7599690
vn -0.5462760 -0.7284654 -0.4134256
vt 0.4995407 0.5625434
v -0.0796800 1.5780410 1.7574590
vn -0.4137172 -0.7285297 -0.5459694
vt 0.5003260 0.5625457
v -0.0566452 1.5747319 1.7514670
vn -0.0937213 -0.7285686 -0.6785309
vt 0.4995407 0.5675958
v -0.0566452 1.5780370 1.7479180
vn 0.0937270 -0.7285685 -0.6785302
vt 0.5003260 0.5675950
v -0.0566452 1.5747319 1.7514670
vn -0.0937213 -0.7285686 -0.6785309
vt 0.4995407 0.5271704
v -0.0566452 1.5780370 1.7479180
vn 0.0937270 -0.7285685 -0.6785302
vt 0.5003260 0.5271694
v -0.0361187 1.5747360 1.7599690
vn 0.4137243 -0.7285149 -0.5459837
vt 0.4995407 0.5322223
v -0.0336105 1.5780410 1.7574600
vn 0.5462820 -0.7284565 -0.4134334
vt 0.5003260 0.5322191
v -0.0276164 1.5747440 1.7804950
vn 0.6788366 -0.7283211 -0.0934310
vt 0.4995407 0.5372767
v -0.0240692 1.5780500 1.7804940
vn 0.6788493 -0.7282323 0.0940285
vt 0.5003260 0.5372745
v -0.0361187 1.5747520 1.8010221
vn 0.5462927 -0.7280945 0.4140566
vt 0.4995407 0.5423290
v -0.0336105 1.5780590 1.8035290
vn 0.4137525 -0.7280422 0.5465926
vt 0.5003260 0.5423337
v -0.0566452 1.5747550 1.8095250
vn 0.0937343 -0.7279943 0.6791453
vt 0.4995407 0.5473834
v -0.0566452 1.5780630 1.8130710
vn -0.0937340 -0.7280048 0.6791340
vt 0.5003260 0.5473834
v -0.0771717 1.5747520 1.8010221
vn -0.4137563 -0.7280504 0.5465787
vt 0.4995407 0.5524361
v -0.0796800 1.5780590 1.8035290
vn -0.5462995 -0.7281039 0.4140310
vt 0.5003260 0.5524327
v -0.0856741 1.5747440 1.7804950
vn -0.6788489 -0.7282335 0.0940224
vt 0.4995407 0.5574886
v -0.0892213 1.5780500 1.7804940
vn -0.6788344 -0.7283239 -0.0934251
vt 0.5003260 0.5574911
v -0.0829897 0.8959233 1.7543690
vn -0.7971143 0.0118129 -0.6037129
vt 0.3786524 0.5625509
v -0.0771717 1.5747360 1.7599690
vn -0.6037056 0.0117510 -0.7971207
vt 0.4995407 0.5625434
v -0.0566452 0.8959190 1.7434560
vn -0.1367658 0.0116890 -0.9905345
vt 0.3786568 0.5678663
v -0.0566452 1.5747319 1.7514670
vn 0.1367597 0.0116890 -0.9905353
vt 0.4995407 0.5675958
v -0.0566452 0.8959190 1.7434560
vn -0.1367658 0.0116890 -0.9905345
vt 0.3786569 0.5269011
v -0.0566452 1.5747319 1.7514670
vn 0.1367597 0.0116890 -0.9905353
vt 0.4995407 0.5271704
v -0.0303008 0.8959233 1.7543690
vn 0.6037074 0.0117510 -0.7971194
vt 0.3786524 0.5322160
v -0.0361187 1.5747360 1.7599690
vn 0.7971156 0.0118128 -0.6037113
vt 0.4995407 0.5322223
v -0.0193886 0.8959338 1.7807130
vn 0.9905304 0.0119624 -0.1367717
vt 0.3786524 0.5372662
v -0.0276164 1.5747440 1.7804950
vn 0.9905317 0.0120500 0.1367541
vt 0.4995407 0.5372767
v -0.0303008 0.8959444 1.8070570
vn 0.7971189 0.0121996 0.6036991
vt 0.3786524 0.5423225
v -0.0361187 1.5747520 1.8010221
vn 0.6037058 0.0122615 0.7971129
vt 0.4995407 0.5423290
v -0.0566452 0.8959486 1.8179700
vn 0.1367641 0.0123234 0.9905270
vt 0.3786524 0.5473837
v -0.0566452 1.5747550 1.8095250
vn -0.1367632 0.0123234 0.9905271
vt 0.4995407 0.5473834
v -0.0829897 0.8959444 1.8070570
vn -0.6037053 0.0122615 0.7971132
vt 0.3786524 0.5524447
v -0.0771717 1.5747520 1.8010221
vn -0.7971199 0.0121996 0.6036978
vt 0.4995407 0.5524361
v -0.0939018 0.8959338 1.7807130
vn -0.9905313 0.0120499 0.1367577
vt 0.3786524 0.5575008
v -0.0856741 1.5747440 1.7804950
vn -0.9905304 0.0119623 -0.1367719
vt 0.4995407 0.5574886
v -0.0756511 1.5935500 1.7804880
vn 0.0000000 0.9999999 -0.0003984
vt 0.3955544 0.3598530
v -0.0892213 1.5935500 1.7804880
vn 0.0000000 0.9999999 -0.0004040
vt 0.3929380 0.3598816
v -0.0700844 1.5935560 1.7939270
vn 0.0000000 0.9999999 -0.0003933
vt 0.3966013 0.3572529
v -0.0796800 1.5935600 1.8035229
vn 0.0000000 0.9999999 -0.0003929
vt 0.3947320 0.3554226
v -0.0566452 1.5935580 1.7994940
vn 0.0000000 0.9999999 -0.0003901
vt 0.3991833 0.3561545
v -0.0566452 1.5935630 1.8130640
vn 0.0000000 0.9999999 -0.0003975
vt 0.3991576 0.3535388
v -0.0432061 1.5935560 1.7939270
vn 0.0000000 0.9999999 -0.0004007
vt 0.4017861 0.3572016
v -0.0336105 1.5935600 1.8035229
vn 0.0000000 0.9999999 -0.0004003
vt 0.4036184 0.3553349
v -0.0376394 1.5935500 1.7804880
vn 0.0000000 0.9999999 -0.0004040
vt 0.4028843 0.3597801
v -0.0240692 1.5935500 1.7804880
vn 0.0000000 0.9999999 -0.0004007
vt 0.4055001 0.3597555
v -0.0432061 1.5935450 1.7670490
vn 0.0000000 0.9999999 -0.0004067
vt 0.4018362 0.3623778
v -0.0336105 1.5935410 1.7574530
vn 0.0000000 0.9999999 -0.0004064
vt 0.4037026 0.3642083
v -0.0566452 1.5935431 1.7614820
vn 0.0000000 0.9999999 -0.0004068
vt 0.3992566 0.3634738
v -0.0566452 1.5935370 1.7479120
vn 0.0000000 0.9999999 -0.0004040
vt 0.3992820 0.3660859
v -0.0700844 1.5935450 1.7670490
vn 0.0000000 0.9999999 -0.0004016
vt 0.3966563 0.3624277
v -0.0796800 1.5935410 1.7574530
vn 0.0000000 0.9999999 -0.0004012
vt 0.3948280 0.3642939
v -0.0756511 1.5935500 1.7804880
vn 0.9977485 0.0670667 0.0000000
vt 0.6465642 0.4686910
v -0.0700844 1.5935560 1.7939270
vn 0.7055123 0.0667864 -0.7055438
vt 0.6465115 0.4707276
v -0.0566452 1.3108040 1.7806010
vn 0.0000000 0.9999999 -0.0003691
vt 0.6068439 0.4686908
v -0.0566452 1.5935580 1.7994940
vn 0.0000000 0.0666696 -0.9977751
vt 0.6463548 0.4727589
v -0.0432061 1.5935560 1.7939270
vn -0.7055131 0.0667864 -0.7055429
vt 0.6465117 0.4707278
v -0.0376394 1.5935500 1.7804880
vn -0.9977485 0.0670666 0.0000000
vt 0.6465641 0.4686908
v -0.0432061 1.5935450 1.7670490
vn -0.7055054 0.0673486 0.7054971
vt 0.6465120 0.4666542
v -0.0566452 1.5935431 1.7614820
vn 0.0000000 0.0674649 0.9977217
vt 0.6463548 0.4646229
v -0.0700844 1.5935450 1.7670490
vn 0.7055053 0.0673487 0.7054973
vt 0.6465115 0.4666541
v 0.0004913 0.7731844 1.8469620
vn 1.0000000 0.0000000 0.0000000
vt 0.2515254 0.8669451
v 0.0004913 0.7731140 1.6841060
vn 1.0000000 0.0000000 0.0000000
vt 0.2844408 0.8669451
v 0.0004913 0.9167299 1.8469011
vn 1.0000000 0.0000000 0.0000000
vt 0.2515254 0.8937134
v 0.0004913 1.0520650 1.7436450
vn 1.0000000 0.0000000 0.0000000
vt 0.2703579 0.9189577
v 0.0004913 1.0382810 1.6839930
vn 1.0000000 0.0000000 0.0000000
vt 0.2844408 0.9163928
v 0.0004913 1.0520390 1.6951770
vn 1.0000000 0.0000000 0.0000000
vt 0.2824998 0.9189577
v 0.0004913 0.7731140 1.6841060
vn 0.0000000 -0.0004287 -0.9999999
vt 0.2844408 0.8669451
v -0.1137816 0.7731140 1.6841060
vn 0.0000000 -0.0004293 -0.9999999
vt 0.3057663 0.8669451
v 0.0004913 1.0382810 1.6839930
vn 0.0000000 0.2212965 -0.9752066
vt 0.2844408 0.9163928
v -0.1137816 1.0382810 1.6839920
vn 0.0000000 0.4430518 -0.8964960
vt 0.3057665 0.9163929
v -0.1137816 0.7731844 1.8469620
vn -1.0000000 0.0000000 0.0000000
vt 0.2515254 0.8669451
v -0.1137816 0.9167299 1.8469000
vn -1.0000000 0.0000000 0.0000000
vt 0.2515254 0.8937134
v -0.1137816 0.7731140 1.6841060
vn -1.0000000 0.0000000 0.0000000
vt 0.2844408 0.8669454
v -0.1137816 1.0382810 1.6839920
vn -1.0000000 0.0000000 0.0000000
vt 0.2844403 0.9163930
v -0.1137816 1.0520650 1.7436450
vn -1.0000000 0.0000000 0.0000000
vt 0.2703574 0.9189577
v -0.1137816 1.0520390 1.6951770
vn -1.0000000 0.0000000 0.0000000
vt 0.2824998 0.9189577
v 0.0004913 1.0520650 1.7436450
vn 0.0000000 0.6065746 0.7950266
vt 0.2515250 0.9191552
v -0.1137816 1.0520650 1.7436450
vn 0.0000000 0.6065744 0.7950268
vt 0.2301995 0.9191550
v 0.0004913 0.9167299 1.8469011
vn 0.0000000 0.6065744 0.7950268
vt 0.2515254 0.8937134
v -0.1137816 0.9167299 1.8469000
vn 0.0000000 0.6065741 0.7950270
vt 0.2302000 0.8937132
v 0.0004913 0.9167299 1.8469011
vn 0.0000000 0.0004294 0.9999999
vt 0.2515254 0.8937134
v -0.1137816 0.9167299 1.8469000
vn 0.0000000 0.0004305 0.9999999
vt 0.2302000 0.8937132
v 0.0004913 0.7731844 1.8469620
vn 0.0000000 0.0004305 0.9999999
vt 0.2515254 0.8669451
v -0.1137816 0.7731844 1.8469620
vn 0.0000000 0.0004316 0.9999999
vt 0.2302000 0.8669450
v 0.0004913 1.0520650 1.7436450
vn 0.0000000 0.9999999 -0.0005378
vt 0.2515250 0.9191552
v 0.0004913 1.0520390 1.6951770
vn 0.0000000 0.9028774 -0.4298981
vt 0.2515250 0.9312882
v -0.1137816 1.0520650 1.7436450
vn 0.0000000 0.9999999 -0.0005400
vt 0.2301995 0.9191550
v -0.1137816 1.0520390 1.6951770
vn 0.0000000 0.9028792 -0.4298943
vt 0.2301995 0.9312882
v -0.1137816 1.0520390 1.6951770
vn 0.0000000 0.9028792 -0.4298943
vt 0.3057663 0.9189577
v 0.0004913 1.0520390 1.6951770
vn 0.0000000 0.9028774 -0.4298981
vt 0.2844408 0.9189577
v -0.0566452 1.3108040 1.7806010
vn 0.0000000 0.9999999 -0.0003691
vt 0.6068439 0.4686908
v -0.0566452 1.3108040 1.7806010
vn 0.0000000 0.9999999 -0.0003691
vt 0.6068439 0.4686908
v -0.0566452 1.3108040 1.7806010
vn 0.0000000 0.9999999 -0.0003691
vt 0.6068439 0.4686908
v -0.0566452 1.5935580 1.7994940
vn 0.0000000 0.0666696 -0.9977751
vt 0.6463548 0.4727589
v -0.0566452 1.5935431 1.7614820
vn 0.0000000 0.0674649 0.9977217
vt 0.6463548 0.4646229

g group_130_140627819523088
f 1/1/1 2/2/2 3/3/3 
f 3/3/3 2/2/2 4/4/4 
f 5/5/5 6/6/6 7/7/7 
f 7/7/7 6/6/6 8/8/8 
f 9/9/9 10/10/10 11/11/11 
f 11/11/11 10/10/10 12/12/12 
f 13/13/13 14/14/14 15/15/15 
f 15/15/15 14/14/14 16/16/16 
f 17/17/17 18/18/18 19/19/19 
f 19/19/19 18/18/18 20/20/20 
f 21/21/21 22/22/22 23/23/23 
f 23/23/23 22/22/22 24/24/24 
f 23/23/23 24/24/24 25/25/25 
f 25/25/25 24/24/24 26/26/26 
f 25/25/25 26/26/26 27/27/27 
f 27/27/27 26/26/26 28/28/28 
f 27/27/27 28/28/28 29/29/29 
f 29/29/29 28/28/28 30/30/30 
f 29/29/29 30/30/30 31/31/31 
f 31/31/31 30/30/30 32/32/32 
f 33/33/33 34/34/34 35/35/35 
f 35/35/35 34/34/34 36/36/36 
f 35/35/35 36/36/36 37/37/37 
f 37/37/37 36/36/36 38/38/38 
f 37/37/37 38/38/38 21/21/21 
f 21/21/21 38/38/38 22/22/22 
f 39/39/39 40/40/40 41/41/41 
f 41/41/41 40/40/40 42/42/42 
f 43/43/43 44/44/44 45/45/45 
f 45/45/45 44/44/44 46/46/46 
f 45/45/45 46/46/46 47/47/47 
f 47/47/47 46/46/46 48/48/48 
f 47/47/47 48/48/48 49/49/49 
f 49/49/49 48/48/48 50/50/50 
f 49/49/49 50/50/50 51/51/51 
f 51/51/51 50/50/50 52/52/52 
f 51/51/51 52/52/52 53/53/53 
f 53/53/53 52/52/52 54/54/54 
f 53/53/53 54/54/54 55/55/55 
f 55/55/55 54/54/54 56/56/56 
f 55/55/55 56/56/56 39/39/39 
f 39/39/39 56/56/56 40/40/40 
f 57/57/57 58/58/58 59/59/59 
f 59/59/59 58/58/58 60/60/60 
f 61/61/61 62/62/62 63/63/63 
f 63/63/63 62/62/62 64/64/64 
f 63/63/63 64/64/64 65/65/65 
f 65/65/65 64/64/64 66/66/66 
f 65/65/65 66/66/66 67/67/67 
f 67/67/67 66/66/66 68/68/68 
f 67/67/67 68/68/68 69/69/69 
f 69/69/69 68/68/68 70/70/70 
f 69/69/69 70/70/70 71/71/71 
f 71/71/71 70/70/70 72/72/72 
f 71/71/71 72/72/72 73/73/73 
f 73/73/73 72/72/72 74/74/74 
f 73/73/73 74/74/74 57/57/57 
f 57/57/57 74/74/74 58/58/58 
f 75/75/75 76/76/76 77/77/77 
f 77/77/77 76/76/76 78/78/78 
f 77/77/77 78/78/78 79/79/79 
f 79/79/79 78/78/78 80/80/80 
f 79/79/79 80/80/80 81/81/81 
f 81/81/81 80/80/80 82/82/82 
f 81/81/81 82/82/82 83/83/83 
f 83/83/83 82/82/82 84/84/84 
f 83/83/83 84/84/84 85/85/85 
f 85/85/85 84/84/84 86/86/86 
f 85/85/85 86/86/86 87/87/87 
f 87/87/87 86/86/86 88/88/88 
f 87/87/87 88/88/88 89/89/89 
f 89/89/89 88/88/88 90/90/90 
f 89/89/89 90/90/90 75/75/75 
f 75/75/75 90/90/90 76/76/76 
f 91/91/91 92/92/92 93/93/93 
f 92/92/92 94/94/94 93/93/93 
f 133/133/133 95/95/95 130/130/130 
f 95/95/95 96/96/96 93/93/93 
f 96/96/96 97/97/97 93/93/93 
f 97/97/97 98/98/98 93/93/93 
f 134/134/134 99/99/99 131/131/131 
f 99/99/99 91/91/91 132/132/132 
f 100/100/100 101/101/101 102/102/102 
f 103/103/103 102/102/102 104/104/104 
f 104/104/104 102/102/102 101/101/101 
f 103/103/103 104/104/104 105/105/105 
f 106/106/106 107/107/107 108/108/108 
f 108/108/108 107/107/107 109/109/109 
f 110/110/110 111/111/111 112/112/112 
f 112/112/112 111/111/111 113/113/113 
f 113/113/113 111/111/111 114/114/114 
f 114/114/114 115/115/115 113/113/113 
f 116/116/116 117/117/117 118/118/118 
f 118/118/118 117/117/117 119/119/119 
f 120/120/120 121/121/121 122/122/122 
f 122/122/122 121/121/121 123/123/123 
f 124/124/124 125/125/125 126/126/126 
f 126/126/126 125/125/125 127/127/127 
f 128/128/128 129/129/129 109/109/109 
f 109/109/109 129/129/129 108/108/108 
